<?xml version="1.0" encoding="utf-8" standalone="no"?>
<!DOCTYPE svg PUBLIC "-//W3C//DTD SVG 1.1//EN"
  "http://www.w3.org/Graphics/SVG/1.1/DTD/svg11.dtd">
<svg xmlns:xlink="http://www.w3.org/1999/xlink" width="936.076531pt" height="421.731719pt" viewBox="0 0 936.076531 421.731719" xmlns="http://www.w3.org/2000/svg" version="1.1">
 <metadata>
  <rdf:RDF xmlns:dc="http://purl.org/dc/elements/1.1/" xmlns:cc="http://creativecommons.org/ns#" xmlns:rdf="http://www.w3.org/1999/02/22-rdf-syntax-ns#">
   <cc:Work>
    <dc:type rdf:resource="http://purl.org/dc/dcmitype/StillImage"/>
    <dc:date>2026-04-28T17:41:35.135472</dc:date>
    <dc:format>image/svg+xml</dc:format>
    <dc:creator>
     <cc:Agent>
      <dc:title>Matplotlib v3.9.2, https://matplotlib.org/</dc:title>
     </cc:Agent>
    </dc:creator>
   </cc:Work>
  </rdf:RDF>
 </metadata>
 <defs>
  <style type="text/css">*{stroke-linejoin: round; stroke-linecap: butt}</style>
 </defs>
 <g id="figure_1">
  <g id="patch_1">
   <path d="M 0 421.731719 
L 936.076531 421.731719 
L 936.076531 0 
L 0 0 
z
" style="fill: #ffffff"/>
  </g>
  <g id="axes_1">
   <g id="patch_2">
    <path d="M 70.50125 377.317969 
L 740.10125 377.317969 
L 740.10125 44.677969 
L 70.50125 44.677969 
z
" style="fill: #ffffff"/>
   </g>
   <g id="PolyCollection_1">
    <path d="M 100.937614 210.997969 
L 100.937614 210.997969 
L 102.157508 210.893257 
L 103.377402 210.788546 
L 104.597297 210.683835 
L 105.817191 210.579123 
L 107.037085 210.474412 
L 108.25698 210.369701 
L 109.476874 210.264989 
L 110.696768 210.160278 
L 111.916663 210.055567 
L 113.136557 209.950855 
L 114.356451 209.846144 
L 115.576346 209.741432 
L 116.79624 209.636721 
L 118.016134 209.53201 
L 119.236029 209.427298 
L 120.455923 209.322587 
L 121.675817 209.217876 
L 122.895712 209.113164 
L 124.115606 209.008453 
L 125.3355 208.903742 
L 126.555395 208.79903 
L 127.775289 208.694319 
L 128.995183 208.589607 
L 130.215078 208.484896 
L 131.434972 208.380185 
L 132.654866 208.275473 
L 133.874761 208.170762 
L 135.094655 208.066051 
L 136.314549 207.961339 
L 137.534444 207.856628 
L 138.754338 207.751917 
L 139.974232 207.647205 
L 141.194127 207.542494 
L 142.414021 207.437782 
L 143.633915 207.333071 
L 144.85381 207.22836 
L 146.073704 207.123648 
L 147.293598 207.018937 
L 148.513493 206.914226 
L 149.733387 206.809514 
L 150.953281 206.704803 
L 152.173176 206.600092 
L 153.39307 206.49538 
L 154.612964 206.390669 
L 155.832859 206.285958 
L 157.052753 206.181246 
L 158.272647 206.076535 
L 159.492542 205.971823 
L 160.712436 205.867112 
L 161.93233 205.762401 
L 163.152225 205.657689 
L 164.372119 205.552978 
L 165.592013 205.448267 
L 166.811908 205.343555 
L 168.031802 205.238844 
L 169.251696 205.134133 
L 170.471591 205.029421 
L 171.691485 204.92471 
L 172.911379 204.819998 
L 174.131274 204.715287 
L 175.351168 204.610576 
L 176.571062 204.505864 
L 177.790957 204.401153 
L 179.010851 204.296442 
L 180.230745 204.19173 
L 181.45064 204.087019 
L 182.670534 203.982308 
L 183.890428 203.877596 
L 185.110323 203.772885 
L 186.330217 203.668173 
L 187.550111 203.563462 
L 188.770006 203.458751 
L 189.9899 203.354039 
L 191.209794 203.249328 
L 192.429689 203.144617 
L 193.649583 203.039905 
L 194.869477 202.935194 
L 196.089372 202.830483 
L 197.309266 202.725771 
L 198.52916 202.62106 
L 199.749055 202.516349 
L 200.968949 202.411637 
L 202.188843 202.306926 
L 203.408738 202.202214 
L 204.628632 202.097503 
L 205.848526 201.992792 
L 207.068421 201.88808 
L 208.288315 201.783369 
L 209.508209 201.678658 
L 210.728104 201.573946 
L 211.947998 201.469235 
L 213.167892 201.364524 
L 214.387787 201.259812 
L 215.607681 201.155101 
L 216.827575 201.050389 
L 218.04747 200.945678 
L 219.267364 200.840967 
L 220.487258 200.736255 
L 221.707153 200.631544 
L 222.927047 200.526833 
L 224.146941 200.422121 
L 225.366836 200.31741 
L 226.58673 200.212699 
L 227.806624 200.107987 
L 229.026519 200.003276 
L 230.246413 199.898565 
L 231.466307 199.793853 
L 232.686202 199.689142 
L 233.906096 199.58443 
L 235.12599 199.479719 
L 236.345885 199.375008 
L 237.565779 199.270296 
L 238.785673 199.165585 
L 240.005568 199.060874 
L 241.225462 198.956162 
L 242.445356 198.851451 
L 243.665251 198.74674 
L 244.885145 198.642028 
L 246.105039 198.537317 
L 247.324934 198.432605 
L 248.544828 198.327894 
L 249.764722 198.223183 
L 250.984617 198.118471 
L 252.204511 198.01376 
L 252.204511 197.071414 
L 252.204511 197.071414 
L 250.984617 195.920245 
L 249.764722 194.770469 
L 248.544828 193.622884 
L 247.324934 192.478282 
L 246.105039 191.337456 
L 244.885145 190.201195 
L 243.665251 189.070288 
L 242.445356 187.945517 
L 241.225462 186.827662 
L 240.005568 185.717498 
L 238.785673 184.615797 
L 237.565779 183.523322 
L 236.345885 182.440833 
L 235.12599 181.369083 
L 233.906096 180.308817 
L 232.686202 179.260776 
L 231.466307 178.225689 
L 230.246413 177.20428 
L 229.026519 176.197263 
L 227.806624 175.205342 
L 226.58673 174.229214 
L 225.366836 173.269563 
L 224.146941 172.327064 
L 222.927047 171.402383 
L 221.707153 170.49617 
L 220.487258 169.609069 
L 219.267364 168.741706 
L 218.04747 167.8947 
L 216.827575 167.068653 
L 215.607681 166.264155 
L 214.387787 165.481784 
L 213.167892 164.722102 
L 211.947998 163.985657 
L 210.728104 163.272982 
L 209.508209 162.584596 
L 208.288315 161.921002 
L 207.068421 161.282687 
L 205.848526 160.670121 
L 204.628632 160.083761 
L 203.408738 159.524044 
L 202.188843 158.991392 
L 200.968949 158.486208 
L 199.749055 158.00888 
L 198.52916 157.559777 
L 197.309266 157.139249 
L 196.089372 156.74763 
L 194.869477 156.385236 
L 193.649583 156.05236 
L 192.429689 155.749283 
L 191.209794 155.476261 
L 189.9899 155.233535 
L 188.770006 155.021325 
L 187.550111 154.839832 
L 186.330217 154.689237 
L 185.110323 154.569702 
L 183.890428 154.48137 
L 182.670534 154.424362 
L 181.45064 154.398782 
L 180.230745 154.404712 
L 179.010851 154.442215 
L 177.790957 154.511333 
L 176.571062 154.612089 
L 175.351168 154.744486 
L 174.131274 154.908505 
L 172.911379 155.10411 
L 171.691485 155.331242 
L 170.471591 155.589824 
L 169.251696 155.879758 
L 168.031802 156.200928 
L 166.811908 156.553195 
L 165.592013 156.936402 
L 164.372119 157.350374 
L 163.152225 157.794914 
L 161.93233 158.269806 
L 160.712436 158.774816 
L 159.492542 159.30969 
L 158.272647 159.874154 
L 157.052753 160.467919 
L 155.832859 161.090672 
L 154.612964 161.742087 
L 153.39307 162.421815 
L 152.173176 163.129493 
L 150.953281 163.864738 
L 149.733387 164.627151 
L 148.513493 165.416313 
L 147.293598 166.231792 
L 146.073704 167.073136 
L 144.85381 167.939879 
L 143.633915 168.831536 
L 142.414021 169.747609 
L 141.194127 170.687584 
L 139.974232 171.65093 
L 138.754338 172.637104 
L 137.534444 173.645546 
L 136.314549 174.675683 
L 135.094655 175.726928 
L 133.874761 176.798682 
L 132.654866 177.89033 
L 131.434972 179.001247 
L 130.215078 180.130795 
L 128.995183 181.278324 
L 127.775289 182.443172 
L 126.555395 183.624668 
L 125.3355 184.822128 
L 124.115606 186.03486 
L 122.895712 187.26216 
L 121.675817 188.503317 
L 120.455923 189.757611 
L 119.236029 191.024312 
L 118.016134 192.302683 
L 116.79624 193.59198 
L 115.576346 194.891453 
L 114.356451 196.200342 
L 113.136557 197.517885 
L 111.916663 198.843312 
L 110.696768 200.17585 
L 109.476874 201.514719 
L 108.25698 202.859138 
L 107.037085 204.208319 
L 105.817191 205.561474 
L 104.597297 206.917811 
L 103.377402 208.276536 
L 102.157508 209.636854 
L 100.937614 210.997969 
z
" clip-path="url(#pa898fb70c1)" style="fill: #2980b9; fill-opacity: 0.15; stroke: #2980b9; stroke-opacity: 0.15"/>
    <path d="M 405.911197 184.191877 
L 405.911197 184.820129 
L 407.131092 184.715417 
L 408.350986 184.610706 
L 409.57088 184.505994 
L 410.790775 184.401283 
L 412.010669 184.296572 
L 413.230563 184.19186 
L 414.450458 184.087149 
L 415.670352 183.982438 
L 416.890246 183.877726 
L 418.110141 183.773015 
L 419.330035 183.668304 
L 420.549929 183.563592 
L 421.769824 183.458881 
L 422.989718 183.35417 
L 424.209612 183.249458 
L 425.429507 183.144747 
L 426.649401 183.040035 
L 427.869295 182.935324 
L 429.08919 182.830613 
L 430.309084 182.725901 
L 431.528978 182.62119 
L 432.748873 182.516479 
L 433.968767 182.411767 
L 435.188661 182.307056 
L 436.408556 182.202345 
L 437.62845 182.097633 
L 438.848344 181.992922 
L 440.068239 181.88821 
L 441.288133 181.783499 
L 442.508027 181.678788 
L 443.727922 181.574076 
L 444.947816 181.469365 
L 446.16771 181.364654 
L 447.387605 181.259942 
L 448.607499 181.155231 
L 449.827393 181.05052 
L 451.047288 180.945808 
L 452.267182 180.841097 
L 453.487076 180.736385 
L 454.706971 180.631674 
L 455.926865 180.526963 
L 457.146759 180.422251 
L 458.366654 180.31754 
L 459.586548 180.212829 
L 460.806442 180.108117 
L 462.026337 180.003406 
L 463.246231 179.898695 
L 464.466125 179.793983 
L 465.68602 179.689272 
L 466.905914 179.584561 
L 468.125808 179.479849 
L 469.345703 179.375138 
L 470.565597 179.270426 
L 471.785491 179.165715 
L 473.005386 179.061004 
L 474.22528 178.956292 
L 475.445174 178.851581 
L 476.665069 178.74687 
L 477.884963 178.642158 
L 479.104857 178.537447 
L 480.324752 178.432736 
L 481.544646 178.328024 
L 482.76454 178.223313 
L 483.984435 178.118601 
L 485.204329 178.01389 
L 486.424223 177.909179 
L 487.644118 177.804467 
L 488.864012 177.699756 
L 490.083906 177.595045 
L 491.303801 177.490333 
L 492.523695 177.385622 
L 493.743589 177.280911 
L 494.963484 177.176199 
L 496.183378 177.071488 
L 497.403272 176.966777 
L 498.623167 176.862065 
L 499.843061 176.757354 
L 501.062955 176.652642 
L 502.28285 176.547931 
L 503.502744 176.44322 
L 504.722638 176.338508 
L 505.942533 176.233797 
L 507.162427 176.129086 
L 508.382321 176.024374 
L 509.602216 175.919663 
L 510.82211 175.814952 
L 512.042004 175.71024 
L 513.261899 175.605529 
L 514.481793 175.500817 
L 515.701687 175.396106 
L 516.921582 175.291395 
L 518.141476 175.186683 
L 519.36137 175.081972 
L 520.581265 174.977261 
L 521.801159 174.872549 
L 523.021053 174.767838 
L 524.240948 174.663127 
L 525.460842 174.558415 
L 526.680736 174.453704 
L 527.900631 174.348992 
L 529.120525 174.244281 
L 530.340419 174.13957 
L 531.560314 174.034858 
L 532.780208 173.930147 
L 534.000102 173.825436 
L 535.219997 173.720724 
L 536.439891 173.616013 
L 537.659785 173.511302 
L 538.87968 173.40659 
L 540.099574 173.301879 
L 541.319468 173.197168 
L 542.539363 173.092456 
L 543.759257 172.987745 
L 544.979151 172.883033 
L 546.199046 172.778322 
L 547.41894 172.673611 
L 548.638834 172.568899 
L 549.858729 172.464188 
L 551.078623 172.359477 
L 552.298517 172.254765 
L 553.518412 172.150054 
L 554.738306 172.045343 
L 555.9582 171.940631 
L 557.178095 171.83592 
L 557.178095 171.521788 
L 557.178095 171.521788 
L 555.9582 170.37022 
L 554.738306 169.219648 
L 553.518412 168.070869 
L 552.298517 166.924676 
L 551.078623 165.781863 
L 549.858729 164.643221 
L 548.638834 163.509539 
L 547.41894 162.381602 
L 546.199046 161.260192 
L 544.979151 160.146086 
L 543.759257 159.040057 
L 542.539363 157.942874 
L 541.319468 156.855297 
L 540.099574 155.778084 
L 538.87968 154.711983 
L 537.659785 153.657738 
L 536.439891 152.616083 
L 535.219997 151.587746 
L 534.000102 150.573444 
L 532.780208 149.573887 
L 531.560314 148.589776 
L 530.340419 147.621802 
L 529.120525 146.670643 
L 527.900631 145.736971 
L 526.680736 144.821443 
L 525.460842 143.924707 
L 524.240948 143.047397 
L 523.021053 142.190136 
L 521.801159 141.353535 
L 520.581265 140.53819 
L 519.36137 139.744684 
L 518.141476 138.973588 
L 516.921582 138.225457 
L 515.701687 137.500831 
L 514.481793 136.800237 
L 513.261899 136.124185 
L 512.042004 135.47317 
L 510.82211 134.847672 
L 509.602216 134.248153 
L 508.382321 133.675061 
L 507.162427 133.128825 
L 505.942533 132.609857 
L 504.722638 132.118554 
L 503.502744 131.655293 
L 502.28285 131.220435 
L 501.062955 130.814322 
L 499.843061 130.437277 
L 498.623167 130.089606 
L 497.403272 129.771596 
L 496.183378 129.483515 
L 494.963484 129.225613 
L 493.743589 128.998118 
L 492.523695 128.801242 
L 491.303801 128.635177 
L 490.083906 128.500093 
L 488.864012 128.396143 
L 487.644118 128.323459 
L 486.424223 128.282154 
L 485.204329 128.27232 
L 483.984435 128.294029 
L 482.76454 128.347336 
L 481.544646 128.432271 
L 480.324752 128.548849 
L 479.104857 128.69706 
L 477.884963 128.876878 
L 476.665069 129.088255 
L 475.445174 129.331123 
L 474.22528 129.605394 
L 473.005386 129.910962 
L 471.785491 130.247699 
L 470.565597 130.615457 
L 469.345703 131.01407 
L 468.125808 131.443352 
L 466.905914 131.903096 
L 465.68602 132.393077 
L 464.466125 132.913052 
L 463.246231 133.462756 
L 462.026337 134.041909 
L 460.806442 134.650207 
L 459.586548 135.287334 
L 458.366654 135.95295 
L 457.146759 136.6467 
L 455.926865 137.36821 
L 454.706971 138.11709 
L 453.487076 138.892931 
L 452.267182 139.695307 
L 451.047288 140.523775 
L 449.827393 141.377878 
L 448.607499 142.257139 
L 447.387605 143.161068 
L 446.16771 144.089157 
L 444.947816 145.040885 
L 443.727922 146.015714 
L 442.508027 147.013092 
L 441.288133 148.032455 
L 440.068239 149.07322 
L 438.848344 150.134795 
L 437.62845 151.216573 
L 436.408556 152.317935 
L 435.188661 153.438248 
L 433.968767 154.576868 
L 432.748873 155.73314 
L 431.528978 156.906397 
L 430.309084 158.095961 
L 429.08919 159.301144 
L 427.869295 160.521249 
L 426.649401 161.755567 
L 425.429507 163.003383 
L 424.209612 164.263972 
L 422.989718 165.536601 
L 421.769824 166.820528 
L 420.549929 168.115007 
L 419.330035 169.419283 
L 418.110141 170.732595 
L 416.890246 172.054177 
L 415.670352 173.383256 
L 414.450458 174.719057 
L 413.230563 176.060799 
L 412.010669 177.407698 
L 410.790775 178.758965 
L 409.57088 180.113809 
L 408.350986 181.47144 
L 407.131092 182.831061 
L 405.911197 184.191877 
z
" clip-path="url(#pa898fb70c1)" style="fill: #2980b9; fill-opacity: 0.15; stroke: #2980b9; stroke-opacity: 0.15"/>
    <path d="M 709.664886 158.747 
L 709.664886 158.747 
L 709.664886 158.747 
L 709.664886 158.747 
z
" clip-path="url(#pa898fb70c1)" style="fill: #2980b9; fill-opacity: 0.15; stroke: #2980b9; stroke-opacity: 0.15"/>
   </g>
   <g id="PolyCollection_2">
    <path d="M 253.424405 198.223181 
L 253.424405 197.909049 
L 254.6443 197.804337 
L 255.864194 197.699626 
L 257.084088 197.594915 
L 258.303983 197.490203 
L 259.523877 197.385492 
L 260.743771 197.28078 
L 261.963666 197.176069 
L 263.18356 197.071358 
L 264.403454 196.966646 
L 265.623349 196.861935 
L 266.843243 196.757224 
L 268.063137 196.652512 
L 269.283032 196.547801 
L 270.502926 196.44309 
L 271.72282 196.338378 
L 272.942715 196.233667 
L 274.162609 196.128956 
L 275.382503 196.024244 
L 276.602398 195.919533 
L 277.822292 195.814821 
L 279.042186 195.71011 
L 280.262081 195.605399 
L 281.481975 195.500687 
L 282.701869 195.395976 
L 283.921764 195.291265 
L 285.141658 195.186553 
L 286.361552 195.081842 
L 287.581447 194.977131 
L 288.801341 194.872419 
L 290.021235 194.767708 
L 291.24113 194.662996 
L 292.461024 194.558285 
L 293.680918 194.453574 
L 294.900813 194.348862 
L 296.120707 194.244151 
L 297.340601 194.13944 
L 298.560496 194.034728 
L 299.78039 193.930017 
L 301.000284 193.825306 
L 302.220179 193.720594 
L 303.440073 193.615883 
L 304.659967 193.511172 
L 305.879862 193.40646 
L 307.099756 193.301749 
L 308.31965 193.197037 
L 309.539545 193.092326 
L 310.759439 192.987615 
L 311.979333 192.882903 
L 313.199228 192.778192 
L 314.419122 192.673481 
L 315.639016 192.568769 
L 316.858911 192.464058 
L 318.078805 192.359347 
L 319.298699 192.254635 
L 320.518594 192.149924 
L 321.738488 192.045212 
L 322.958382 191.940501 
L 324.178277 191.83579 
L 325.398171 191.731078 
L 326.618065 191.626367 
L 327.83796 191.521656 
L 329.057854 191.416944 
L 330.277748 191.312233 
L 331.497643 191.207522 
L 332.717537 191.10281 
L 333.937431 190.998099 
L 335.157326 190.893387 
L 336.37722 190.788676 
L 337.597114 190.683965 
L 338.817009 190.579253 
L 340.036903 190.474542 
L 341.256797 190.369831 
L 342.476692 190.265119 
L 343.696586 190.160408 
L 344.91648 190.055697 
L 346.136375 189.950985 
L 347.356269 189.846274 
L 348.576163 189.741563 
L 349.796058 189.636851 
L 351.015952 189.53214 
L 352.235846 189.427428 
L 353.455741 189.322717 
L 354.675635 189.218006 
L 355.895529 189.113294 
L 357.115424 189.008583 
L 358.335318 188.903872 
L 359.555212 188.79916 
L 360.775107 188.694449 
L 361.995001 188.589738 
L 363.214895 188.485026 
L 364.43479 188.380315 
L 365.654684 188.275603 
L 366.874578 188.170892 
L 368.094473 188.066181 
L 369.314367 187.961469 
L 370.534261 187.856758 
L 371.754156 187.752047 
L 372.97405 187.647335 
L 374.193944 187.542624 
L 375.413839 187.437913 
L 376.633733 187.333201 
L 377.853627 187.22849 
L 379.073522 187.123778 
L 380.293416 187.019067 
L 381.51331 186.914356 
L 382.733205 186.809644 
L 383.953099 186.704933 
L 385.172993 186.600222 
L 386.392888 186.49551 
L 387.612782 186.390799 
L 388.832676 186.286088 
L 390.052571 186.181376 
L 391.272465 186.076665 
L 392.492359 185.971954 
L 393.712254 185.867242 
L 394.932148 185.762531 
L 396.152042 185.657819 
L 397.371937 185.553108 
L 398.591831 185.448397 
L 399.811725 185.343685 
L 401.03162 185.238974 
L 402.251514 185.134263 
L 403.471408 185.029551 
L 404.691303 184.92484 
L 404.691303 185.553091 
L 404.691303 185.553091 
L 403.471408 186.913908 
L 402.251514 188.273529 
L 401.03162 189.631159 
L 399.811725 190.986004 
L 398.591831 192.337271 
L 397.371937 193.684169 
L 396.152042 195.025911 
L 394.932148 196.361712 
L 393.712254 197.690792 
L 392.492359 199.012373 
L 391.272465 200.325685 
L 390.052571 201.629961 
L 388.832676 202.92444 
L 387.612782 204.208368 
L 386.392888 205.480996 
L 385.172993 206.741585 
L 383.953099 207.989402 
L 382.733205 209.22372 
L 381.51331 210.443824 
L 380.293416 211.649008 
L 379.073522 212.838571 
L 377.853627 214.011828 
L 376.633733 215.1681 
L 375.413839 216.30672 
L 374.193944 217.427033 
L 372.97405 218.528395 
L 371.754156 219.610173 
L 370.534261 220.671749 
L 369.314367 221.712514 
L 368.094473 222.731876 
L 366.874578 223.729255 
L 365.654684 224.704084 
L 364.43479 225.655811 
L 363.214895 226.583901 
L 361.995001 227.487829 
L 360.775107 228.367091 
L 359.555212 229.221193 
L 358.335318 230.049662 
L 357.115424 230.852038 
L 355.895529 231.627879 
L 354.675635 232.376758 
L 353.455741 233.098269 
L 352.235846 233.792019 
L 351.015952 234.457635 
L 349.796058 235.094761 
L 348.576163 235.70306 
L 347.356269 236.282212 
L 346.136375 236.831916 
L 344.91648 237.351891 
L 343.696586 237.841873 
L 342.476692 238.301617 
L 341.256797 238.730898 
L 340.036903 239.129511 
L 338.817009 239.49727 
L 337.597114 239.834006 
L 336.37722 240.139574 
L 335.157326 240.413846 
L 333.937431 240.656714 
L 332.717537 240.868091 
L 331.497643 241.047909 
L 330.277748 241.19612 
L 329.057854 241.312697 
L 327.83796 241.397633 
L 326.618065 241.450939 
L 325.398171 241.472649 
L 324.178277 241.462815 
L 322.958382 241.42151 
L 321.738488 241.348826 
L 320.518594 241.244876 
L 319.298699 241.109792 
L 318.078805 240.943726 
L 316.858911 240.74685 
L 315.639016 240.519356 
L 314.419122 240.261453 
L 313.199228 239.973373 
L 311.979333 239.655363 
L 310.759439 239.307692 
L 309.539545 238.930647 
L 308.31965 238.524533 
L 307.099756 238.089675 
L 305.879862 237.626414 
L 304.659967 237.135111 
L 303.440073 236.616144 
L 302.220179 236.069907 
L 301.000284 235.496815 
L 299.78039 234.897296 
L 298.560496 234.271798 
L 297.340601 233.620784 
L 296.120707 232.944732 
L 294.900813 232.244137 
L 293.680918 231.519512 
L 292.461024 230.77138 
L 291.24113 230.000284 
L 290.021235 229.206779 
L 288.801341 228.391434 
L 287.581447 227.554833 
L 286.361552 226.697572 
L 285.141658 225.820262 
L 283.921764 224.923525 
L 282.701869 224.007998 
L 281.481975 223.074325 
L 280.262081 222.123167 
L 279.042186 221.155192 
L 277.822292 220.171081 
L 276.602398 219.171525 
L 275.382503 218.157223 
L 274.162609 217.128885 
L 272.942715 216.08723 
L 271.72282 215.032985 
L 270.502926 213.966885 
L 269.283032 212.889671 
L 268.063137 211.802095 
L 266.843243 210.704911 
L 265.623349 209.598882 
L 264.403454 208.484777 
L 263.18356 207.363366 
L 261.963666 206.235429 
L 260.743771 205.101748 
L 259.523877 203.963106 
L 258.303983 202.820293 
L 257.084088 201.6741 
L 255.864194 200.52532 
L 254.6443 199.374748 
L 253.424405 198.223181 
z
" clip-path="url(#pa898fb70c1)" style="fill: #c0392b; fill-opacity: 0.15; stroke: #c0392b; stroke-opacity: 0.15"/>
    <path d="M 558.397989 172.673555 
L 558.397989 171.731208 
L 559.617883 171.626497 
L 560.837778 171.521786 
L 562.057672 171.417074 
L 563.277566 171.312363 
L 564.497461 171.207652 
L 565.717355 171.10294 
L 566.937249 170.998229 
L 568.157144 170.893518 
L 569.377038 170.788806 
L 570.596932 170.684095 
L 571.816827 170.579384 
L 573.036721 170.474672 
L 574.256615 170.369961 
L 575.47651 170.265249 
L 576.696404 170.160538 
L 577.916298 170.055827 
L 579.136193 169.951115 
L 580.356087 169.846404 
L 581.575981 169.741693 
L 582.795876 169.636981 
L 584.01577 169.53227 
L 585.235664 169.427559 
L 586.455559 169.322847 
L 587.675453 169.218136 
L 588.895347 169.113424 
L 590.115242 169.008713 
L 591.335136 168.904002 
L 592.55503 168.79929 
L 593.774925 168.694579 
L 594.994819 168.589868 
L 596.214713 168.485156 
L 597.434608 168.380445 
L 598.654502 168.275734 
L 599.874396 168.171022 
L 601.094291 168.066311 
L 602.314185 167.961599 
L 603.534079 167.856888 
L 604.753974 167.752177 
L 605.973868 167.647465 
L 607.193762 167.542754 
L 608.413657 167.438043 
L 609.633551 167.333331 
L 610.853445 167.22862 
L 612.07334 167.123909 
L 613.293234 167.019197 
L 614.513128 166.914486 
L 615.733023 166.809775 
L 616.952917 166.705063 
L 618.172811 166.600352 
L 619.392706 166.49564 
L 620.6126 166.390929 
L 621.832494 166.286218 
L 623.052389 166.181506 
L 624.272283 166.076795 
L 625.492177 165.972084 
L 626.712072 165.867372 
L 627.931966 165.762661 
L 629.15186 165.65795 
L 630.371755 165.553238 
L 631.591649 165.448527 
L 632.811543 165.343815 
L 634.031438 165.239104 
L 635.251332 165.134393 
L 636.471226 165.029681 
L 637.691121 164.92497 
L 638.911015 164.820259 
L 640.130909 164.715547 
L 641.350804 164.610836 
L 642.570698 164.506125 
L 643.790592 164.401413 
L 645.010487 164.296702 
L 646.230381 164.19199 
L 647.450275 164.087279 
L 648.67017 163.982568 
L 649.890064 163.877856 
L 651.109958 163.773145 
L 652.329853 163.668434 
L 653.549747 163.563722 
L 654.769641 163.459011 
L 655.989536 163.3543 
L 657.20943 163.249588 
L 658.429324 163.144877 
L 659.649219 163.040166 
L 660.869113 162.935454 
L 662.089007 162.830743 
L 663.308902 162.726031 
L 664.528796 162.62132 
L 665.74869 162.516609 
L 666.968585 162.411897 
L 668.188479 162.307186 
L 669.408373 162.202475 
L 670.628268 162.097763 
L 671.848162 161.993052 
L 673.068056 161.888341 
L 674.287951 161.783629 
L 675.507845 161.678918 
L 676.727739 161.574206 
L 677.947634 161.469495 
L 679.167528 161.364784 
L 680.387422 161.260072 
L 681.607317 161.155361 
L 682.827211 161.05065 
L 684.047105 160.945938 
L 685.267 160.841227 
L 686.486894 160.736516 
L 687.706788 160.631804 
L 688.926683 160.527093 
L 690.146577 160.422382 
L 691.366471 160.31767 
L 692.586366 160.212959 
L 693.80626 160.108247 
L 695.026154 160.003536 
L 696.246049 159.898825 
L 697.465943 159.794113 
L 698.685837 159.689402 
L 699.905732 159.584691 
L 701.125626 159.479979 
L 702.34552 159.375268 
L 703.565415 159.270557 
L 704.785309 159.165845 
L 706.005203 159.061134 
L 707.225098 158.956422 
L 708.444992 158.851711 
L 708.444992 160.108115 
L 708.444992 160.108115 
L 707.225098 161.468433 
L 706.005203 162.827158 
L 704.785309 164.183495 
L 703.565415 165.53665 
L 702.34552 166.885831 
L 701.125626 168.230249 
L 699.905732 169.569119 
L 698.685837 170.901656 
L 697.465943 172.227084 
L 696.246049 173.544626 
L 695.026154 174.853516 
L 693.80626 176.152988 
L 692.586366 177.442285 
L 691.366471 178.720657 
L 690.146577 179.987357 
L 688.926683 181.241651 
L 687.706788 182.482808 
L 686.486894 183.710109 
L 685.267 184.922841 
L 684.047105 186.120301 
L 682.827211 187.301796 
L 681.607317 188.466645 
L 680.387422 189.614174 
L 679.167528 190.743721 
L 677.947634 191.854638 
L 676.727739 192.946287 
L 675.507845 194.01804 
L 674.287951 195.069285 
L 673.068056 196.099422 
L 671.848162 197.107864 
L 670.628268 198.094038 
L 669.408373 199.057385 
L 668.188479 199.997359 
L 666.968585 200.913433 
L 665.74869 201.80509 
L 664.528796 202.671832 
L 663.308902 203.513176 
L 662.089007 204.328655 
L 660.869113 205.117818 
L 659.649219 205.88023 
L 658.429324 206.615475 
L 657.20943 207.323153 
L 655.989536 208.002882 
L 654.769641 208.654296 
L 653.549747 209.27705 
L 652.329853 209.870814 
L 651.109958 210.435279 
L 649.890064 210.970152 
L 648.67017 211.475162 
L 647.450275 211.950054 
L 646.230381 212.394594 
L 645.010487 212.808566 
L 643.790592 213.191774 
L 642.570698 213.544041 
L 641.350804 213.86521 
L 640.130909 214.155145 
L 638.911015 214.413727 
L 637.691121 214.640859 
L 636.471226 214.836463 
L 635.251332 215.000483 
L 634.031438 215.132879 
L 632.811543 215.233635 
L 631.591649 215.302753 
L 630.371755 215.340256 
L 629.15186 215.346186 
L 627.931966 215.320606 
L 626.712072 215.263599 
L 625.492177 215.175267 
L 624.272283 215.055732 
L 623.052389 214.905137 
L 621.832494 214.723644 
L 620.6126 214.511433 
L 619.392706 214.268707 
L 618.172811 213.995686 
L 616.952917 213.692608 
L 615.733023 213.359733 
L 614.513128 212.997338 
L 613.293234 212.605719 
L 612.07334 212.185192 
L 610.853445 211.736088 
L 609.633551 211.25876 
L 608.413657 210.753577 
L 607.193762 210.220924 
L 605.973868 209.661207 
L 604.753974 209.074847 
L 603.534079 208.462282 
L 602.314185 207.823966 
L 601.094291 207.160372 
L 599.874396 206.471986 
L 598.654502 205.759311 
L 597.434608 205.022866 
L 596.214713 204.263184 
L 594.994819 203.480813 
L 593.774925 202.676316 
L 592.55503 201.850269 
L 591.335136 201.003262 
L 590.115242 200.1359 
L 588.895347 199.248798 
L 587.675453 198.342586 
L 586.455559 197.417904 
L 585.235664 196.475406 
L 584.01577 195.515755 
L 582.795876 194.539626 
L 581.575981 193.547706 
L 580.356087 192.540688 
L 579.136193 191.519279 
L 577.916298 190.484192 
L 576.696404 189.436151 
L 575.47651 188.375886 
L 574.256615 187.304136 
L 573.036721 186.221647 
L 571.816827 185.129172 
L 570.596932 184.02747 
L 569.377038 182.917306 
L 568.157144 181.799452 
L 566.937249 180.67468 
L 565.717355 179.543773 
L 564.497461 178.407513 
L 563.277566 177.266687 
L 562.057672 176.122085 
L 560.837778 174.974499 
L 559.617883 173.824724 
L 558.397989 172.673555 
z
" clip-path="url(#pa898fb70c1)" style="fill: #c0392b; fill-opacity: 0.15; stroke: #c0392b; stroke-opacity: 0.15"/>
   </g>
   <g id="matplotlib.axis_1">
    <g id="text_1">
     <!-- Tiempo → -->
     <g transform="translate(373.295938 390.436094) scale(0.12 -0.12)">
      <defs>
       <path id="DejaVuSans-Bold-54" d="M 31 4666 
L 4331 4666 
L 4331 3756 
L 2784 3756 
L 2784 0 
L 1581 0 
L 1581 3756 
L 31 3756 
L 31 4666 
z
" transform="scale(0.015625)"/>
       <path id="DejaVuSans-Bold-69" d="M 538 3500 
L 1656 3500 
L 1656 0 
L 538 0 
L 538 3500 
z
M 538 4863 
L 1656 4863 
L 1656 3950 
L 538 3950 
L 538 4863 
z
" transform="scale(0.015625)"/>
       <path id="DejaVuSans-Bold-65" d="M 4031 1759 
L 4031 1441 
L 1416 1441 
Q 1456 1047 1700 850 
Q 1944 653 2381 653 
Q 2734 653 3104 758 
Q 3475 863 3866 1075 
L 3866 213 
Q 3469 63 3072 -14 
Q 2675 -91 2278 -91 
Q 1328 -91 801 392 
Q 275 875 275 1747 
Q 275 2603 792 3093 
Q 1309 3584 2216 3584 
Q 3041 3584 3536 3087 
Q 4031 2591 4031 1759 
z
M 2881 2131 
Q 2881 2450 2695 2645 
Q 2509 2841 2209 2841 
Q 1884 2841 1681 2658 
Q 1478 2475 1428 2131 
L 2881 2131 
z
" transform="scale(0.015625)"/>
       <path id="DejaVuSans-Bold-6d" d="M 3781 2919 
Q 3994 3244 4286 3414 
Q 4578 3584 4928 3584 
Q 5531 3584 5847 3212 
Q 6163 2841 6163 2131 
L 6163 0 
L 5038 0 
L 5038 1825 
Q 5041 1866 5042 1909 
Q 5044 1953 5044 2034 
Q 5044 2406 4934 2573 
Q 4825 2741 4581 2741 
Q 4263 2741 4089 2478 
Q 3916 2216 3909 1719 
L 3909 0 
L 2784 0 
L 2784 1825 
Q 2784 2406 2684 2573 
Q 2584 2741 2328 2741 
Q 2006 2741 1831 2477 
Q 1656 2213 1656 1722 
L 1656 0 
L 531 0 
L 531 3500 
L 1656 3500 
L 1656 2988 
Q 1863 3284 2130 3434 
Q 2397 3584 2719 3584 
Q 3081 3584 3359 3409 
Q 3638 3234 3781 2919 
z
" transform="scale(0.015625)"/>
       <path id="DejaVuSans-Bold-70" d="M 1656 506 
L 1656 -1331 
L 538 -1331 
L 538 3500 
L 1656 3500 
L 1656 2988 
Q 1888 3294 2169 3439 
Q 2450 3584 2816 3584 
Q 3463 3584 3878 3070 
Q 4294 2556 4294 1747 
Q 4294 938 3878 423 
Q 3463 -91 2816 -91 
Q 2450 -91 2169 54 
Q 1888 200 1656 506 
z
M 2400 2772 
Q 2041 2772 1848 2508 
Q 1656 2244 1656 1747 
Q 1656 1250 1848 986 
Q 2041 722 2400 722 
Q 2759 722 2948 984 
Q 3138 1247 3138 1747 
Q 3138 2247 2948 2509 
Q 2759 2772 2400 2772 
z
" transform="scale(0.015625)"/>
       <path id="DejaVuSans-Bold-6f" d="M 2203 2784 
Q 1831 2784 1636 2517 
Q 1441 2250 1441 1747 
Q 1441 1244 1636 976 
Q 1831 709 2203 709 
Q 2569 709 2762 976 
Q 2956 1244 2956 1747 
Q 2956 2250 2762 2517 
Q 2569 2784 2203 2784 
z
M 2203 3584 
Q 3106 3584 3614 3096 
Q 4122 2609 4122 1747 
Q 4122 884 3614 396 
Q 3106 -91 2203 -91 
Q 1297 -91 786 396 
Q 275 884 275 1747 
Q 275 2609 786 3096 
Q 1297 3584 2203 3584 
z
" transform="scale(0.015625)"/>
       <path id="DejaVuSans-Bold-20" transform="scale(0.015625)"/>
       <path id="DejaVuSans-Bold-2192" d="M 5050 2225 
L 5050 1788 
L 3822 559 
L 3369 1013 
L 3988 1631 
L 366 1631 
L 366 2381 
L 3988 2381 
L 3369 3000 
L 3822 3453 
L 5050 2225 
z
" transform="scale(0.015625)"/>
      </defs>
      <use xlink:href="#DejaVuSans-Bold-54"/>
      <use xlink:href="#DejaVuSans-Bold-69" x="68.212891"/>
      <use xlink:href="#DejaVuSans-Bold-65" x="102.490234"/>
      <use xlink:href="#DejaVuSans-Bold-6d" x="170.3125"/>
      <use xlink:href="#DejaVuSans-Bold-70" x="274.511719"/>
      <use xlink:href="#DejaVuSans-Bold-6f" x="346.09375"/>
      <use xlink:href="#DejaVuSans-Bold-20" x="414.794922"/>
      <use xlink:href="#DejaVuSans-Bold-2192" x="449.609375"/>
     </g>
    </g>
   </g>
   <g id="matplotlib.axis_2">
    <g id="ytick_1">
     <g id="line2d_1">
      <path d="M 70.50125 377.317969 
L 740.10125 377.317969 
" clip-path="url(#pa898fb70c1)" style="fill: none; stroke-dasharray: 0.8,1.32; stroke-dashoffset: 0; stroke: #b0b0b0; stroke-opacity: 0.3; stroke-width: 0.8"/>
     </g>
     <g id="line2d_2">
      <defs>
       <path id="m658ad6afee" d="M 0 0 
L -3.5 0 
" style="stroke: #000000; stroke-width: 0.8"/>
      </defs>
      <g>
       <use xlink:href="#m658ad6afee" x="70.50125" y="377.317969" style="stroke: #000000; stroke-width: 0.8"/>
      </g>
     </g>
     <g id="text_2">
      <!-- 80 -->
      <g transform="translate(50.77625 381.117188) scale(0.1 -0.1)">
       <defs>
        <path id="DejaVuSans-38" d="M 2034 2216 
Q 1584 2216 1326 1975 
Q 1069 1734 1069 1313 
Q 1069 891 1326 650 
Q 1584 409 2034 409 
Q 2484 409 2743 651 
Q 3003 894 3003 1313 
Q 3003 1734 2745 1975 
Q 2488 2216 2034 2216 
z
M 1403 2484 
Q 997 2584 770 2862 
Q 544 3141 544 3541 
Q 544 4100 942 4425 
Q 1341 4750 2034 4750 
Q 2731 4750 3128 4425 
Q 3525 4100 3525 3541 
Q 3525 3141 3298 2862 
Q 3072 2584 2669 2484 
Q 3125 2378 3379 2068 
Q 3634 1759 3634 1313 
Q 3634 634 3220 271 
Q 2806 -91 2034 -91 
Q 1263 -91 848 271 
Q 434 634 434 1313 
Q 434 1759 690 2068 
Q 947 2378 1403 2484 
z
M 1172 3481 
Q 1172 3119 1398 2916 
Q 1625 2713 2034 2713 
Q 2441 2713 2670 2916 
Q 2900 3119 2900 3481 
Q 2900 3844 2670 4047 
Q 2441 4250 2034 4250 
Q 1625 4250 1398 4047 
Q 1172 3844 1172 3481 
z
" transform="scale(0.015625)"/>
        <path id="DejaVuSans-30" d="M 2034 4250 
Q 1547 4250 1301 3770 
Q 1056 3291 1056 2328 
Q 1056 1369 1301 889 
Q 1547 409 2034 409 
Q 2525 409 2770 889 
Q 3016 1369 3016 2328 
Q 3016 3291 2770 3770 
Q 2525 4250 2034 4250 
z
M 2034 4750 
Q 2819 4750 3233 4129 
Q 3647 3509 3647 2328 
Q 3647 1150 3233 529 
Q 2819 -91 2034 -91 
Q 1250 -91 836 529 
Q 422 1150 422 2328 
Q 422 3509 836 4129 
Q 1250 4750 2034 4750 
z
" transform="scale(0.015625)"/>
       </defs>
       <use xlink:href="#DejaVuSans-38"/>
       <use xlink:href="#DejaVuSans-30" x="63.623047"/>
      </g>
     </g>
    </g>
    <g id="ytick_2">
     <g id="line2d_3">
      <path d="M 70.50125 335.737969 
L 740.10125 335.737969 
" clip-path="url(#pa898fb70c1)" style="fill: none; stroke-dasharray: 0.8,1.32; stroke-dashoffset: 0; stroke: #b0b0b0; stroke-opacity: 0.3; stroke-width: 0.8"/>
     </g>
     <g id="line2d_4">
      <g>
       <use xlink:href="#m658ad6afee" x="70.50125" y="335.737969" style="stroke: #000000; stroke-width: 0.8"/>
      </g>
     </g>
     <g id="text_3">
      <!-- 85 -->
      <g transform="translate(50.77625 339.537188) scale(0.1 -0.1)">
       <defs>
        <path id="DejaVuSans-35" d="M 691 4666 
L 3169 4666 
L 3169 4134 
L 1269 4134 
L 1269 2991 
Q 1406 3038 1543 3061 
Q 1681 3084 1819 3084 
Q 2600 3084 3056 2656 
Q 3513 2228 3513 1497 
Q 3513 744 3044 326 
Q 2575 -91 1722 -91 
Q 1428 -91 1123 -41 
Q 819 9 494 109 
L 494 744 
Q 775 591 1075 516 
Q 1375 441 1709 441 
Q 2250 441 2565 725 
Q 2881 1009 2881 1497 
Q 2881 1984 2565 2268 
Q 2250 2553 1709 2553 
Q 1456 2553 1204 2497 
Q 953 2441 691 2322 
L 691 4666 
z
" transform="scale(0.015625)"/>
       </defs>
       <use xlink:href="#DejaVuSans-38"/>
       <use xlink:href="#DejaVuSans-35" x="63.623047"/>
      </g>
     </g>
    </g>
    <g id="ytick_3">
     <g id="line2d_5">
      <path d="M 70.50125 294.157969 
L 740.10125 294.157969 
" clip-path="url(#pa898fb70c1)" style="fill: none; stroke-dasharray: 0.8,1.32; stroke-dashoffset: 0; stroke: #b0b0b0; stroke-opacity: 0.3; stroke-width: 0.8"/>
     </g>
     <g id="line2d_6">
      <g>
       <use xlink:href="#m658ad6afee" x="70.50125" y="294.157969" style="stroke: #000000; stroke-width: 0.8"/>
      </g>
     </g>
     <g id="text_4">
      <!-- 90 -->
      <g transform="translate(50.77625 297.957188) scale(0.1 -0.1)">
       <defs>
        <path id="DejaVuSans-39" d="M 703 97 
L 703 672 
Q 941 559 1184 500 
Q 1428 441 1663 441 
Q 2288 441 2617 861 
Q 2947 1281 2994 2138 
Q 2813 1869 2534 1725 
Q 2256 1581 1919 1581 
Q 1219 1581 811 2004 
Q 403 2428 403 3163 
Q 403 3881 828 4315 
Q 1253 4750 1959 4750 
Q 2769 4750 3195 4129 
Q 3622 3509 3622 2328 
Q 3622 1225 3098 567 
Q 2575 -91 1691 -91 
Q 1453 -91 1209 -44 
Q 966 3 703 97 
z
M 1959 2075 
Q 2384 2075 2632 2365 
Q 2881 2656 2881 3163 
Q 2881 3666 2632 3958 
Q 2384 4250 1959 4250 
Q 1534 4250 1286 3958 
Q 1038 3666 1038 3163 
Q 1038 2656 1286 2365 
Q 1534 2075 1959 2075 
z
" transform="scale(0.015625)"/>
       </defs>
       <use xlink:href="#DejaVuSans-39"/>
       <use xlink:href="#DejaVuSans-30" x="63.623047"/>
      </g>
     </g>
    </g>
    <g id="ytick_4">
     <g id="line2d_7">
      <path d="M 70.50125 252.577969 
L 740.10125 252.577969 
" clip-path="url(#pa898fb70c1)" style="fill: none; stroke-dasharray: 0.8,1.32; stroke-dashoffset: 0; stroke: #b0b0b0; stroke-opacity: 0.3; stroke-width: 0.8"/>
     </g>
     <g id="line2d_8">
      <g>
       <use xlink:href="#m658ad6afee" x="70.50125" y="252.577969" style="stroke: #000000; stroke-width: 0.8"/>
      </g>
     </g>
     <g id="text_5">
      <!-- 95 -->
      <g transform="translate(50.77625 256.377187) scale(0.1 -0.1)">
       <use xlink:href="#DejaVuSans-39"/>
       <use xlink:href="#DejaVuSans-35" x="63.623047"/>
      </g>
     </g>
    </g>
    <g id="ytick_5">
     <g id="line2d_9">
      <path d="M 70.50125 210.997969 
L 740.10125 210.997969 
" clip-path="url(#pa898fb70c1)" style="fill: none; stroke-dasharray: 0.8,1.32; stroke-dashoffset: 0; stroke: #b0b0b0; stroke-opacity: 0.3; stroke-width: 0.8"/>
     </g>
     <g id="line2d_10">
      <g>
       <use xlink:href="#m658ad6afee" x="70.50125" y="210.997969" style="stroke: #000000; stroke-width: 0.8"/>
      </g>
     </g>
     <g id="text_6">
      <!-- 100 -->
      <g transform="translate(44.41375 214.797188) scale(0.1 -0.1)">
       <defs>
        <path id="DejaVuSans-31" d="M 794 531 
L 1825 531 
L 1825 4091 
L 703 3866 
L 703 4441 
L 1819 4666 
L 2450 4666 
L 2450 531 
L 3481 531 
L 3481 0 
L 794 0 
L 794 531 
z
" transform="scale(0.015625)"/>
       </defs>
       <use xlink:href="#DejaVuSans-31"/>
       <use xlink:href="#DejaVuSans-30" x="63.623047"/>
       <use xlink:href="#DejaVuSans-30" x="127.246094"/>
      </g>
     </g>
    </g>
    <g id="ytick_6">
     <g id="line2d_11">
      <path d="M 70.50125 169.417969 
L 740.10125 169.417969 
" clip-path="url(#pa898fb70c1)" style="fill: none; stroke-dasharray: 0.8,1.32; stroke-dashoffset: 0; stroke: #b0b0b0; stroke-opacity: 0.3; stroke-width: 0.8"/>
     </g>
     <g id="line2d_12">
      <g>
       <use xlink:href="#m658ad6afee" x="70.50125" y="169.417969" style="stroke: #000000; stroke-width: 0.8"/>
      </g>
     </g>
     <g id="text_7">
      <!-- 105 -->
      <g transform="translate(44.41375 173.217187) scale(0.1 -0.1)">
       <use xlink:href="#DejaVuSans-31"/>
       <use xlink:href="#DejaVuSans-30" x="63.623047"/>
       <use xlink:href="#DejaVuSans-35" x="127.246094"/>
      </g>
     </g>
    </g>
    <g id="ytick_7">
     <g id="line2d_13">
      <path d="M 70.50125 127.837969 
L 740.10125 127.837969 
" clip-path="url(#pa898fb70c1)" style="fill: none; stroke-dasharray: 0.8,1.32; stroke-dashoffset: 0; stroke: #b0b0b0; stroke-opacity: 0.3; stroke-width: 0.8"/>
     </g>
     <g id="line2d_14">
      <g>
       <use xlink:href="#m658ad6afee" x="70.50125" y="127.837969" style="stroke: #000000; stroke-width: 0.8"/>
      </g>
     </g>
     <g id="text_8">
      <!-- 110 -->
      <g transform="translate(44.41375 131.637187) scale(0.1 -0.1)">
       <use xlink:href="#DejaVuSans-31"/>
       <use xlink:href="#DejaVuSans-31" x="63.623047"/>
       <use xlink:href="#DejaVuSans-30" x="127.246094"/>
      </g>
     </g>
    </g>
    <g id="ytick_8">
     <g id="line2d_15">
      <path d="M 70.50125 86.257969 
L 740.10125 86.257969 
" clip-path="url(#pa898fb70c1)" style="fill: none; stroke-dasharray: 0.8,1.32; stroke-dashoffset: 0; stroke: #b0b0b0; stroke-opacity: 0.3; stroke-width: 0.8"/>
     </g>
     <g id="line2d_16">
      <g>
       <use xlink:href="#m658ad6afee" x="70.50125" y="86.257969" style="stroke: #000000; stroke-width: 0.8"/>
      </g>
     </g>
     <g id="text_9">
      <!-- 115 -->
      <g transform="translate(44.41375 90.057188) scale(0.1 -0.1)">
       <use xlink:href="#DejaVuSans-31"/>
       <use xlink:href="#DejaVuSans-31" x="63.623047"/>
       <use xlink:href="#DejaVuSans-35" x="127.246094"/>
      </g>
     </g>
    </g>
    <g id="ytick_9">
     <g id="line2d_17">
      <path d="M 70.50125 44.677969 
L 740.10125 44.677969 
" clip-path="url(#pa898fb70c1)" style="fill: none; stroke-dasharray: 0.8,1.32; stroke-dashoffset: 0; stroke: #b0b0b0; stroke-opacity: 0.3; stroke-width: 0.8"/>
     </g>
     <g id="line2d_18">
      <g>
       <use xlink:href="#m658ad6afee" x="70.50125" y="44.677969" style="stroke: #000000; stroke-width: 0.8"/>
      </g>
     </g>
     <g id="text_10">
      <!-- 120 -->
      <g transform="translate(44.41375 48.477188) scale(0.1 -0.1)">
       <defs>
        <path id="DejaVuSans-32" d="M 1228 531 
L 3431 531 
L 3431 0 
L 469 0 
L 469 531 
Q 828 903 1448 1529 
Q 2069 2156 2228 2338 
Q 2531 2678 2651 2914 
Q 2772 3150 2772 3378 
Q 2772 3750 2511 3984 
Q 2250 4219 1831 4219 
Q 1534 4219 1204 4116 
Q 875 4013 500 3803 
L 500 4441 
Q 881 4594 1212 4672 
Q 1544 4750 1819 4750 
Q 2544 4750 2975 4387 
Q 3406 4025 3406 3419 
Q 3406 3131 3298 2873 
Q 3191 2616 2906 2266 
Q 2828 2175 2409 1742 
Q 1991 1309 1228 531 
z
" transform="scale(0.015625)"/>
       </defs>
       <use xlink:href="#DejaVuSans-31"/>
       <use xlink:href="#DejaVuSans-32" x="63.623047"/>
       <use xlink:href="#DejaVuSans-30" x="127.246094"/>
      </g>
     </g>
    </g>
    <g id="text_11">
     <!-- PBI -->
     <g transform="translate(37.918125 222.201094) rotate(-90) scale(0.12 -0.12)">
      <defs>
       <path id="DejaVuSans-Bold-50" d="M 588 4666 
L 2584 4666 
Q 3475 4666 3951 4270 
Q 4428 3875 4428 3144 
Q 4428 2409 3951 2014 
Q 3475 1619 2584 1619 
L 1791 1619 
L 1791 0 
L 588 0 
L 588 4666 
z
M 1791 3794 
L 1791 2491 
L 2456 2491 
Q 2806 2491 2997 2661 
Q 3188 2831 3188 3144 
Q 3188 3456 2997 3625 
Q 2806 3794 2456 3794 
L 1791 3794 
z
" transform="scale(0.015625)"/>
       <path id="DejaVuSans-Bold-42" d="M 2456 2859 
Q 2741 2859 2887 2984 
Q 3034 3109 3034 3353 
Q 3034 3594 2887 3720 
Q 2741 3847 2456 3847 
L 1791 3847 
L 1791 2859 
L 2456 2859 
z
M 2497 819 
Q 2859 819 3042 972 
Q 3225 1125 3225 1434 
Q 3225 1738 3044 1889 
Q 2863 2041 2497 2041 
L 1791 2041 
L 1791 819 
L 2497 819 
z
M 3616 2497 
Q 4003 2384 4215 2081 
Q 4428 1778 4428 1338 
Q 4428 663 3972 331 
Q 3516 0 2584 0 
L 588 0 
L 588 4666 
L 2394 4666 
Q 3366 4666 3802 4372 
Q 4238 4078 4238 3431 
Q 4238 3091 4078 2852 
Q 3919 2613 3616 2497 
z
" transform="scale(0.015625)"/>
       <path id="DejaVuSans-Bold-49" d="M 588 4666 
L 1791 4666 
L 1791 0 
L 588 0 
L 588 4666 
z
" transform="scale(0.015625)"/>
      </defs>
      <use xlink:href="#DejaVuSans-Bold-50"/>
      <use xlink:href="#DejaVuSans-Bold-42" x="73.291016"/>
      <use xlink:href="#DejaVuSans-Bold-49" x="149.511719"/>
     </g>
    </g>
   </g>
   <g id="line2d_19">
    <path d="M 100.937614 210.997969 
L 113.136557 197.517885 
L 120.455923 189.757611 
L 126.555395 183.624668 
L 131.434972 179.001247 
L 136.314549 174.675683 
L 141.194127 170.687584 
L 144.85381 167.939879 
L 148.513493 165.416313 
L 152.173176 163.129493 
L 155.832859 161.090672 
L 159.492542 159.30969 
L 163.152225 157.794914 
L 166.811908 156.553195 
L 170.471591 155.589824 
L 174.131274 154.908505 
L 177.790957 154.511333 
L 181.45064 154.398782 
L 185.110323 154.569702 
L 188.770006 155.021325 
L 192.429689 155.749283 
L 196.089372 156.74763 
L 199.749055 158.00888 
L 203.408738 159.524044 
L 207.068421 161.282687 
L 210.728104 163.272982 
L 214.387787 165.481784 
L 219.267364 168.741706 
L 224.146941 172.327064 
L 229.026519 176.197263 
L 235.12599 181.369083 
L 242.445356 187.945517 
L 252.204511 197.071414 
L 265.623349 209.598882 
L 272.942715 216.08723 
L 279.042186 221.155192 
L 283.921764 224.923525 
L 288.801341 228.391434 
L 293.680918 231.519512 
L 297.340601 233.620784 
L 301.000284 235.496815 
L 304.659967 237.135111 
L 308.31965 238.524533 
L 311.979333 239.655363 
L 315.639016 240.519356 
L 319.298699 241.109792 
L 322.958382 241.42151 
L 326.618065 241.450939 
L 330.277748 241.19612 
L 333.937431 240.656714 
L 337.597114 239.834006 
L 341.256797 238.730898 
L 344.91648 237.351891 
L 348.576163 235.70306 
L 352.235846 233.792019 
L 355.895529 231.627879 
L 359.555212 229.221193 
L 363.214895 226.583901 
L 366.874578 223.729255 
L 371.754156 219.610173 
L 376.633733 215.1681 
L 381.51331 210.443824 
L 387.612782 204.208368 
L 394.932148 196.361712 
L 405.911197 184.191877 
L 418.110141 170.732595 
L 425.429507 163.003383 
L 431.528978 156.906397 
L 436.408556 152.317935 
L 441.288133 148.032455 
L 446.16771 144.089157 
L 449.827393 141.377878 
L 453.487076 138.892931 
L 457.146759 136.6467 
L 460.806442 134.650207 
L 464.466125 132.913052 
L 468.125808 131.443352 
L 471.785491 130.247699 
L 475.445174 129.331123 
L 479.104857 128.69706 
L 482.76454 128.347336 
L 486.424223 128.282154 
L 490.083906 128.500093 
L 493.743589 128.998118 
L 497.403272 129.771596 
L 501.062955 130.814322 
L 504.722638 132.118554 
L 508.382321 133.675061 
L 512.042004 135.47317 
L 515.701687 137.500831 
L 519.36137 139.744684 
L 524.240948 143.047397 
L 529.120525 146.670643 
L 534.000102 150.573444 
L 540.099574 155.778084 
L 547.41894 162.381602 
L 558.397989 172.673555 
L 569.377038 182.917306 
L 576.696404 189.436151 
L 582.795876 194.539626 
L 587.675453 198.342586 
L 592.55503 201.850269 
L 597.434608 205.022866 
L 601.094291 207.160372 
L 604.753974 209.074847 
L 608.413657 210.753577 
L 612.07334 212.185192 
L 615.733023 213.359733 
L 619.392706 214.268707 
L 623.052389 214.905137 
L 626.712072 215.263599 
L 630.371755 215.340256 
L 634.031438 215.132879 
L 637.691121 214.640859 
L 641.350804 213.86521 
L 645.010487 212.808566 
L 648.67017 211.475162 
L 652.329853 209.870814 
L 655.989536 208.002882 
L 659.649219 205.88023 
L 663.308902 203.513176 
L 666.968585 200.913433 
L 670.628268 198.094038 
L 675.507845 194.01804 
L 680.387422 189.614174 
L 685.267 184.922841 
L 691.366471 178.720657 
L 698.685837 170.901656 
L 709.664886 158.747 
L 709.664886 158.747 
" clip-path="url(#pa898fb70c1)" style="fill: none; stroke: #2980b9; stroke-width: 3; stroke-linecap: square"/>
   </g>
   <g id="line2d_20">
    <path d="M 100.937614 210.997969 
L 709.664886 158.747 
L 709.664886 158.747 
" clip-path="url(#pa898fb70c1)" style="fill: none; stroke-dasharray: 7.4,3.2; stroke-dashoffset: 0; stroke: #27ae60; stroke-width: 2"/>
   </g>
   <g id="patch_3">
    <path d="M 70.50125 377.317969 
L 70.50125 44.677969 
" style="fill: none; stroke: #000000; stroke-width: 1.4; stroke-linejoin: miter; stroke-linecap: square"/>
   </g>
   <g id="patch_4">
    <path d="M 70.50125 377.317969 
L 740.10125 377.317969 
" style="fill: none; stroke: #000000; stroke-width: 1.4; stroke-linejoin: miter; stroke-linecap: square"/>
   </g>
   <g id="text_12">
    <!-- Ciclo económico — fases -->
    <g transform="translate(315.965859 38.677969) scale(0.13 -0.13)">
     <defs>
      <path id="DejaVuSans-Bold-43" d="M 4288 256 
Q 3956 84 3597 -3 
Q 3238 -91 2847 -91 
Q 1681 -91 1000 561 
Q 319 1213 319 2328 
Q 319 3447 1000 4098 
Q 1681 4750 2847 4750 
Q 3238 4750 3597 4662 
Q 3956 4575 4288 4403 
L 4288 3438 
Q 3953 3666 3628 3772 
Q 3303 3878 2944 3878 
Q 2300 3878 1931 3465 
Q 1563 3053 1563 2328 
Q 1563 1606 1931 1193 
Q 2300 781 2944 781 
Q 3303 781 3628 887 
Q 3953 994 4288 1222 
L 4288 256 
z
" transform="scale(0.015625)"/>
      <path id="DejaVuSans-Bold-63" d="M 3366 3391 
L 3366 2478 
Q 3138 2634 2908 2709 
Q 2678 2784 2431 2784 
Q 1963 2784 1702 2511 
Q 1441 2238 1441 1747 
Q 1441 1256 1702 982 
Q 1963 709 2431 709 
Q 2694 709 2930 787 
Q 3166 866 3366 1019 
L 3366 103 
Q 3103 6 2833 -42 
Q 2563 -91 2291 -91 
Q 1344 -91 809 395 
Q 275 881 275 1747 
Q 275 2613 809 3098 
Q 1344 3584 2291 3584 
Q 2566 3584 2833 3536 
Q 3100 3488 3366 3391 
z
" transform="scale(0.015625)"/>
      <path id="DejaVuSans-Bold-6c" d="M 538 4863 
L 1656 4863 
L 1656 0 
L 538 0 
L 538 4863 
z
" transform="scale(0.015625)"/>
      <path id="DejaVuSans-Bold-6e" d="M 4056 2131 
L 4056 0 
L 2931 0 
L 2931 347 
L 2931 1631 
Q 2931 2084 2911 2256 
Q 2891 2428 2841 2509 
Q 2775 2619 2662 2680 
Q 2550 2741 2406 2741 
Q 2056 2741 1856 2470 
Q 1656 2200 1656 1722 
L 1656 0 
L 538 0 
L 538 3500 
L 1656 3500 
L 1656 2988 
Q 1909 3294 2193 3439 
Q 2478 3584 2822 3584 
Q 3428 3584 3742 3212 
Q 4056 2841 4056 2131 
z
" transform="scale(0.015625)"/>
      <path id="DejaVuSans-Bold-f3" d="M 2203 2784 
Q 1831 2784 1636 2517 
Q 1441 2250 1441 1747 
Q 1441 1244 1636 976 
Q 1831 709 2203 709 
Q 2569 709 2762 976 
Q 2956 1244 2956 1747 
Q 2956 2250 2762 2517 
Q 2569 2784 2203 2784 
z
M 2203 3584 
Q 3106 3584 3614 3096 
Q 4122 2609 4122 1747 
Q 4122 884 3614 396 
Q 3106 -91 2203 -91 
Q 1297 -91 786 396 
Q 275 884 275 1747 
Q 275 2609 786 3096 
Q 1297 3584 2203 3584 
z
M 2694 5119 
L 3578 5119 
L 2425 3944 
L 1813 3944 
L 2694 5119 
z
" transform="scale(0.015625)"/>
      <path id="DejaVuSans-Bold-2014" d="M 344 2156 
L 6056 2156 
L 6056 1350 
L 344 1350 
L 344 2156 
z
" transform="scale(0.015625)"/>
      <path id="DejaVuSans-Bold-66" d="M 2841 4863 
L 2841 4128 
L 2222 4128 
Q 1984 4128 1890 4042 
Q 1797 3956 1797 3744 
L 1797 3500 
L 2753 3500 
L 2753 2700 
L 1797 2700 
L 1797 0 
L 678 0 
L 678 2700 
L 122 2700 
L 122 3500 
L 678 3500 
L 678 3744 
Q 678 4316 997 4589 
Q 1316 4863 1984 4863 
L 2841 4863 
z
" transform="scale(0.015625)"/>
      <path id="DejaVuSans-Bold-61" d="M 2106 1575 
Q 1756 1575 1579 1456 
Q 1403 1338 1403 1106 
Q 1403 894 1545 773 
Q 1688 653 1941 653 
Q 2256 653 2472 879 
Q 2688 1106 2688 1447 
L 2688 1575 
L 2106 1575 
z
M 3816 1997 
L 3816 0 
L 2688 0 
L 2688 519 
Q 2463 200 2181 54 
Q 1900 -91 1497 -91 
Q 953 -91 614 226 
Q 275 544 275 1050 
Q 275 1666 698 1953 
Q 1122 2241 2028 2241 
L 2688 2241 
L 2688 2328 
Q 2688 2594 2478 2717 
Q 2269 2841 1825 2841 
Q 1466 2841 1156 2769 
Q 847 2697 581 2553 
L 581 3406 
Q 941 3494 1303 3539 
Q 1666 3584 2028 3584 
Q 2975 3584 3395 3211 
Q 3816 2838 3816 1997 
z
" transform="scale(0.015625)"/>
      <path id="DejaVuSans-Bold-73" d="M 3272 3391 
L 3272 2541 
Q 2913 2691 2578 2766 
Q 2244 2841 1947 2841 
Q 1628 2841 1473 2761 
Q 1319 2681 1319 2516 
Q 1319 2381 1436 2309 
Q 1553 2238 1856 2203 
L 2053 2175 
Q 2913 2066 3209 1816 
Q 3506 1566 3506 1031 
Q 3506 472 3093 190 
Q 2681 -91 1863 -91 
Q 1516 -91 1145 -36 
Q 775 19 384 128 
L 384 978 
Q 719 816 1070 734 
Q 1422 653 1784 653 
Q 2113 653 2278 743 
Q 2444 834 2444 1013 
Q 2444 1163 2330 1236 
Q 2216 1309 1875 1350 
L 1678 1375 
Q 931 1469 631 1722 
Q 331 1975 331 2491 
Q 331 3047 712 3315 
Q 1094 3584 1881 3584 
Q 2191 3584 2531 3537 
Q 2872 3491 3272 3391 
z
" transform="scale(0.015625)"/>
     </defs>
     <use xlink:href="#DejaVuSans-Bold-43"/>
     <use xlink:href="#DejaVuSans-Bold-69" x="73.388672"/>
     <use xlink:href="#DejaVuSans-Bold-63" x="107.666016"/>
     <use xlink:href="#DejaVuSans-Bold-6c" x="166.943359"/>
     <use xlink:href="#DejaVuSans-Bold-6f" x="201.220703"/>
     <use xlink:href="#DejaVuSans-Bold-20" x="269.921875"/>
     <use xlink:href="#DejaVuSans-Bold-65" x="304.736328"/>
     <use xlink:href="#DejaVuSans-Bold-63" x="372.558594"/>
     <use xlink:href="#DejaVuSans-Bold-6f" x="431.835938"/>
     <use xlink:href="#DejaVuSans-Bold-6e" x="500.537109"/>
     <use xlink:href="#DejaVuSans-Bold-f3" x="571.728516"/>
     <use xlink:href="#DejaVuSans-Bold-6d" x="640.429688"/>
     <use xlink:href="#DejaVuSans-Bold-69" x="744.628906"/>
     <use xlink:href="#DejaVuSans-Bold-63" x="778.90625"/>
     <use xlink:href="#DejaVuSans-Bold-6f" x="838.183594"/>
     <use xlink:href="#DejaVuSans-Bold-20" x="906.884766"/>
     <use xlink:href="#DejaVuSans-Bold-2014" x="941.699219"/>
     <use xlink:href="#DejaVuSans-Bold-20" x="1041.699219"/>
     <use xlink:href="#DejaVuSans-Bold-66" x="1076.513672"/>
     <use xlink:href="#DejaVuSans-Bold-61" x="1120.019531"/>
     <use xlink:href="#DejaVuSans-Bold-73" x="1187.5"/>
     <use xlink:href="#DejaVuSans-Bold-65" x="1247.021484"/>
     <use xlink:href="#DejaVuSans-Bold-73" x="1314.84375"/>
    </g>
   </g>
   <g id="legend_1">
    <g id="patch_5">
     <path d="M 755.29325 100.579219 
L 905.476531 100.579219 
Q 907.276531 100.579219 907.276531 98.779219 
L 907.276531 46.477969 
Q 907.276531 44.677969 905.476531 44.677969 
L 755.29325 44.677969 
Q 753.49325 44.677969 753.49325 46.477969 
L 753.49325 98.779219 
Q 753.49325 100.579219 755.29325 100.579219 
z
" style="fill: #ffffff; opacity: 0.8; stroke: #cccccc; stroke-linejoin: miter"/>
    </g>
    <g id="line2d_21">
     <path d="M 757.09325 51.966562 
L 766.09325 51.966562 
L 775.09325 51.966562 
" style="fill: none; stroke: #2980b9; stroke-width: 3; stroke-linecap: square"/>
    </g>
    <g id="text_13">
     <!-- PBI real (Y) -->
     <g transform="translate(782.29325 55.116562) scale(0.09 -0.09)">
      <defs>
       <path id="DejaVuSans-50" d="M 1259 4147 
L 1259 2394 
L 2053 2394 
Q 2494 2394 2734 2622 
Q 2975 2850 2975 3272 
Q 2975 3691 2734 3919 
Q 2494 4147 2053 4147 
L 1259 4147 
z
M 628 4666 
L 2053 4666 
Q 2838 4666 3239 4311 
Q 3641 3956 3641 3272 
Q 3641 2581 3239 2228 
Q 2838 1875 2053 1875 
L 1259 1875 
L 1259 0 
L 628 0 
L 628 4666 
z
" transform="scale(0.015625)"/>
       <path id="DejaVuSans-42" d="M 1259 2228 
L 1259 519 
L 2272 519 
Q 2781 519 3026 730 
Q 3272 941 3272 1375 
Q 3272 1813 3026 2020 
Q 2781 2228 2272 2228 
L 1259 2228 
z
M 1259 4147 
L 1259 2741 
L 2194 2741 
Q 2656 2741 2882 2914 
Q 3109 3088 3109 3444 
Q 3109 3797 2882 3972 
Q 2656 4147 2194 4147 
L 1259 4147 
z
M 628 4666 
L 2241 4666 
Q 2963 4666 3353 4366 
Q 3744 4066 3744 3513 
Q 3744 3084 3544 2831 
Q 3344 2578 2956 2516 
Q 3422 2416 3680 2098 
Q 3938 1781 3938 1306 
Q 3938 681 3513 340 
Q 3088 0 2303 0 
L 628 0 
L 628 4666 
z
" transform="scale(0.015625)"/>
       <path id="DejaVuSans-49" d="M 628 4666 
L 1259 4666 
L 1259 0 
L 628 0 
L 628 4666 
z
" transform="scale(0.015625)"/>
       <path id="DejaVuSans-20" transform="scale(0.015625)"/>
       <path id="DejaVuSans-72" d="M 2631 2963 
Q 2534 3019 2420 3045 
Q 2306 3072 2169 3072 
Q 1681 3072 1420 2755 
Q 1159 2438 1159 1844 
L 1159 0 
L 581 0 
L 581 3500 
L 1159 3500 
L 1159 2956 
Q 1341 3275 1631 3429 
Q 1922 3584 2338 3584 
Q 2397 3584 2469 3576 
Q 2541 3569 2628 3553 
L 2631 2963 
z
" transform="scale(0.015625)"/>
       <path id="DejaVuSans-65" d="M 3597 1894 
L 3597 1613 
L 953 1613 
Q 991 1019 1311 708 
Q 1631 397 2203 397 
Q 2534 397 2845 478 
Q 3156 559 3463 722 
L 3463 178 
Q 3153 47 2828 -22 
Q 2503 -91 2169 -91 
Q 1331 -91 842 396 
Q 353 884 353 1716 
Q 353 2575 817 3079 
Q 1281 3584 2069 3584 
Q 2775 3584 3186 3129 
Q 3597 2675 3597 1894 
z
M 3022 2063 
Q 3016 2534 2758 2815 
Q 2500 3097 2075 3097 
Q 1594 3097 1305 2825 
Q 1016 2553 972 2059 
L 3022 2063 
z
" transform="scale(0.015625)"/>
       <path id="DejaVuSans-61" d="M 2194 1759 
Q 1497 1759 1228 1600 
Q 959 1441 959 1056 
Q 959 750 1161 570 
Q 1363 391 1709 391 
Q 2188 391 2477 730 
Q 2766 1069 2766 1631 
L 2766 1759 
L 2194 1759 
z
M 3341 1997 
L 3341 0 
L 2766 0 
L 2766 531 
Q 2569 213 2275 61 
Q 1981 -91 1556 -91 
Q 1019 -91 701 211 
Q 384 513 384 1019 
Q 384 1609 779 1909 
Q 1175 2209 1959 2209 
L 2766 2209 
L 2766 2266 
Q 2766 2663 2505 2880 
Q 2244 3097 1772 3097 
Q 1472 3097 1187 3025 
Q 903 2953 641 2809 
L 641 3341 
Q 956 3463 1253 3523 
Q 1550 3584 1831 3584 
Q 2591 3584 2966 3190 
Q 3341 2797 3341 1997 
z
" transform="scale(0.015625)"/>
       <path id="DejaVuSans-6c" d="M 603 4863 
L 1178 4863 
L 1178 0 
L 603 0 
L 603 4863 
z
" transform="scale(0.015625)"/>
       <path id="DejaVuSans-28" d="M 1984 4856 
Q 1566 4138 1362 3434 
Q 1159 2731 1159 2009 
Q 1159 1288 1364 580 
Q 1569 -128 1984 -844 
L 1484 -844 
Q 1016 -109 783 600 
Q 550 1309 550 2009 
Q 550 2706 781 3412 
Q 1013 4119 1484 4856 
L 1984 4856 
z
" transform="scale(0.015625)"/>
       <path id="DejaVuSans-59" d="M -13 4666 
L 666 4666 
L 1959 2747 
L 3244 4666 
L 3922 4666 
L 2272 2222 
L 2272 0 
L 1638 0 
L 1638 2222 
L -13 4666 
z
" transform="scale(0.015625)"/>
       <path id="DejaVuSans-29" d="M 513 4856 
L 1013 4856 
Q 1481 4119 1714 3412 
Q 1947 2706 1947 2009 
Q 1947 1309 1714 600 
Q 1481 -109 1013 -844 
L 513 -844 
Q 928 -128 1133 580 
Q 1338 1288 1338 2009 
Q 1338 2731 1133 3434 
Q 928 4138 513 4856 
z
" transform="scale(0.015625)"/>
      </defs>
      <use xlink:href="#DejaVuSans-50"/>
      <use xlink:href="#DejaVuSans-42" x="60.302734"/>
      <use xlink:href="#DejaVuSans-49" x="128.90625"/>
      <use xlink:href="#DejaVuSans-20" x="158.398438"/>
      <use xlink:href="#DejaVuSans-72" x="190.185547"/>
      <use xlink:href="#DejaVuSans-65" x="229.048828"/>
      <use xlink:href="#DejaVuSans-61" x="290.572266"/>
      <use xlink:href="#DejaVuSans-6c" x="351.851562"/>
      <use xlink:href="#DejaVuSans-20" x="379.634766"/>
      <use xlink:href="#DejaVuSans-28" x="411.421875"/>
      <use xlink:href="#DejaVuSans-59" x="450.435547"/>
      <use xlink:href="#DejaVuSans-29" x="511.519531"/>
     </g>
    </g>
    <g id="line2d_22">
     <path d="M 757.09325 65.176875 
L 766.09325 65.176875 
L 775.09325 65.176875 
" style="fill: none; stroke-dasharray: 7.4,3.2; stroke-dashoffset: 0; stroke: #27ae60; stroke-width: 2"/>
    </g>
    <g id="text_14">
     <!-- PBI potencial (Y*) -->
     <g transform="translate(782.29325 68.326875) scale(0.09 -0.09)">
      <defs>
       <path id="DejaVuSans-70" d="M 1159 525 
L 1159 -1331 
L 581 -1331 
L 581 3500 
L 1159 3500 
L 1159 2969 
Q 1341 3281 1617 3432 
Q 1894 3584 2278 3584 
Q 2916 3584 3314 3078 
Q 3713 2572 3713 1747 
Q 3713 922 3314 415 
Q 2916 -91 2278 -91 
Q 1894 -91 1617 61 
Q 1341 213 1159 525 
z
M 3116 1747 
Q 3116 2381 2855 2742 
Q 2594 3103 2138 3103 
Q 1681 3103 1420 2742 
Q 1159 2381 1159 1747 
Q 1159 1113 1420 752 
Q 1681 391 2138 391 
Q 2594 391 2855 752 
Q 3116 1113 3116 1747 
z
" transform="scale(0.015625)"/>
       <path id="DejaVuSans-6f" d="M 1959 3097 
Q 1497 3097 1228 2736 
Q 959 2375 959 1747 
Q 959 1119 1226 758 
Q 1494 397 1959 397 
Q 2419 397 2687 759 
Q 2956 1122 2956 1747 
Q 2956 2369 2687 2733 
Q 2419 3097 1959 3097 
z
M 1959 3584 
Q 2709 3584 3137 3096 
Q 3566 2609 3566 1747 
Q 3566 888 3137 398 
Q 2709 -91 1959 -91 
Q 1206 -91 779 398 
Q 353 888 353 1747 
Q 353 2609 779 3096 
Q 1206 3584 1959 3584 
z
" transform="scale(0.015625)"/>
       <path id="DejaVuSans-74" d="M 1172 4494 
L 1172 3500 
L 2356 3500 
L 2356 3053 
L 1172 3053 
L 1172 1153 
Q 1172 725 1289 603 
Q 1406 481 1766 481 
L 2356 481 
L 2356 0 
L 1766 0 
Q 1100 0 847 248 
Q 594 497 594 1153 
L 594 3053 
L 172 3053 
L 172 3500 
L 594 3500 
L 594 4494 
L 1172 4494 
z
" transform="scale(0.015625)"/>
       <path id="DejaVuSans-6e" d="M 3513 2113 
L 3513 0 
L 2938 0 
L 2938 2094 
Q 2938 2591 2744 2837 
Q 2550 3084 2163 3084 
Q 1697 3084 1428 2787 
Q 1159 2491 1159 1978 
L 1159 0 
L 581 0 
L 581 3500 
L 1159 3500 
L 1159 2956 
Q 1366 3272 1645 3428 
Q 1925 3584 2291 3584 
Q 2894 3584 3203 3211 
Q 3513 2838 3513 2113 
z
" transform="scale(0.015625)"/>
       <path id="DejaVuSans-63" d="M 3122 3366 
L 3122 2828 
Q 2878 2963 2633 3030 
Q 2388 3097 2138 3097 
Q 1578 3097 1268 2742 
Q 959 2388 959 1747 
Q 959 1106 1268 751 
Q 1578 397 2138 397 
Q 2388 397 2633 464 
Q 2878 531 3122 666 
L 3122 134 
Q 2881 22 2623 -34 
Q 2366 -91 2075 -91 
Q 1284 -91 818 406 
Q 353 903 353 1747 
Q 353 2603 823 3093 
Q 1294 3584 2113 3584 
Q 2378 3584 2631 3529 
Q 2884 3475 3122 3366 
z
" transform="scale(0.015625)"/>
       <path id="DejaVuSans-69" d="M 603 3500 
L 1178 3500 
L 1178 0 
L 603 0 
L 603 3500 
z
M 603 4863 
L 1178 4863 
L 1178 4134 
L 603 4134 
L 603 4863 
z
" transform="scale(0.015625)"/>
       <path id="DejaVuSans-2a" d="M 3009 3897 
L 1888 3291 
L 3009 2681 
L 2828 2375 
L 1778 3009 
L 1778 1831 
L 1422 1831 
L 1422 3009 
L 372 2375 
L 191 2681 
L 1313 3291 
L 191 3897 
L 372 4206 
L 1422 3572 
L 1422 4750 
L 1778 4750 
L 1778 3572 
L 2828 4206 
L 3009 3897 
z
" transform="scale(0.015625)"/>
      </defs>
      <use xlink:href="#DejaVuSans-50"/>
      <use xlink:href="#DejaVuSans-42" x="60.302734"/>
      <use xlink:href="#DejaVuSans-49" x="128.90625"/>
      <use xlink:href="#DejaVuSans-20" x="158.398438"/>
      <use xlink:href="#DejaVuSans-70" x="190.185547"/>
      <use xlink:href="#DejaVuSans-6f" x="253.662109"/>
      <use xlink:href="#DejaVuSans-74" x="314.84375"/>
      <use xlink:href="#DejaVuSans-65" x="354.052734"/>
      <use xlink:href="#DejaVuSans-6e" x="415.576172"/>
      <use xlink:href="#DejaVuSans-63" x="478.955078"/>
      <use xlink:href="#DejaVuSans-69" x="533.935547"/>
      <use xlink:href="#DejaVuSans-61" x="561.71875"/>
      <use xlink:href="#DejaVuSans-6c" x="622.998047"/>
      <use xlink:href="#DejaVuSans-20" x="650.78125"/>
      <use xlink:href="#DejaVuSans-28" x="682.568359"/>
      <use xlink:href="#DejaVuSans-59" x="721.582031"/>
      <use xlink:href="#DejaVuSans-2a" x="782.666016"/>
      <use xlink:href="#DejaVuSans-29" x="832.666016"/>
     </g>
    </g>
    <g id="patch_6">
     <path d="M 757.09325 81.537187 
L 775.09325 81.537187 
L 775.09325 75.237187 
L 757.09325 75.237187 
z
" style="fill: #2980b9; fill-opacity: 0.15; stroke: #2980b9; stroke-opacity: 0.15; stroke-linejoin: miter"/>
    </g>
    <g id="text_15">
     <!-- Brecha positiva -->
     <g transform="translate(782.29325 81.537187) scale(0.09 -0.09)">
      <defs>
       <path id="DejaVuSans-68" d="M 3513 2113 
L 3513 0 
L 2938 0 
L 2938 2094 
Q 2938 2591 2744 2837 
Q 2550 3084 2163 3084 
Q 1697 3084 1428 2787 
Q 1159 2491 1159 1978 
L 1159 0 
L 581 0 
L 581 4863 
L 1159 4863 
L 1159 2956 
Q 1366 3272 1645 3428 
Q 1925 3584 2291 3584 
Q 2894 3584 3203 3211 
Q 3513 2838 3513 2113 
z
" transform="scale(0.015625)"/>
       <path id="DejaVuSans-73" d="M 2834 3397 
L 2834 2853 
Q 2591 2978 2328 3040 
Q 2066 3103 1784 3103 
Q 1356 3103 1142 2972 
Q 928 2841 928 2578 
Q 928 2378 1081 2264 
Q 1234 2150 1697 2047 
L 1894 2003 
Q 2506 1872 2764 1633 
Q 3022 1394 3022 966 
Q 3022 478 2636 193 
Q 2250 -91 1575 -91 
Q 1294 -91 989 -36 
Q 684 19 347 128 
L 347 722 
Q 666 556 975 473 
Q 1284 391 1588 391 
Q 1994 391 2212 530 
Q 2431 669 2431 922 
Q 2431 1156 2273 1281 
Q 2116 1406 1581 1522 
L 1381 1569 
Q 847 1681 609 1914 
Q 372 2147 372 2553 
Q 372 3047 722 3315 
Q 1072 3584 1716 3584 
Q 2034 3584 2315 3537 
Q 2597 3491 2834 3397 
z
" transform="scale(0.015625)"/>
       <path id="DejaVuSans-76" d="M 191 3500 
L 800 3500 
L 1894 563 
L 2988 3500 
L 3597 3500 
L 2284 0 
L 1503 0 
L 191 3500 
z
" transform="scale(0.015625)"/>
      </defs>
      <use xlink:href="#DejaVuSans-42"/>
      <use xlink:href="#DejaVuSans-72" x="68.603516"/>
      <use xlink:href="#DejaVuSans-65" x="107.466797"/>
      <use xlink:href="#DejaVuSans-63" x="168.990234"/>
      <use xlink:href="#DejaVuSans-68" x="223.970703"/>
      <use xlink:href="#DejaVuSans-61" x="287.349609"/>
      <use xlink:href="#DejaVuSans-20" x="348.628906"/>
      <use xlink:href="#DejaVuSans-70" x="380.416016"/>
      <use xlink:href="#DejaVuSans-6f" x="443.892578"/>
      <use xlink:href="#DejaVuSans-73" x="505.074219"/>
      <use xlink:href="#DejaVuSans-69" x="557.173828"/>
      <use xlink:href="#DejaVuSans-74" x="584.957031"/>
      <use xlink:href="#DejaVuSans-69" x="624.166016"/>
      <use xlink:href="#DejaVuSans-76" x="651.949219"/>
      <use xlink:href="#DejaVuSans-61" x="711.128906"/>
     </g>
    </g>
    <g id="patch_7">
     <path d="M 757.09325 95.1075 
L 775.09325 95.1075 
L 775.09325 88.8075 
L 757.09325 88.8075 
z
" style="fill: #c0392b; fill-opacity: 0.15; stroke: #c0392b; stroke-opacity: 0.15; stroke-linejoin: miter"/>
    </g>
    <g id="text_16">
     <!-- Brecha negativa (recesión) -->
     <g transform="translate(782.29325 95.1075) scale(0.09 -0.09)">
      <defs>
       <path id="DejaVuSans-67" d="M 2906 1791 
Q 2906 2416 2648 2759 
Q 2391 3103 1925 3103 
Q 1463 3103 1205 2759 
Q 947 2416 947 1791 
Q 947 1169 1205 825 
Q 1463 481 1925 481 
Q 2391 481 2648 825 
Q 2906 1169 2906 1791 
z
M 3481 434 
Q 3481 -459 3084 -895 
Q 2688 -1331 1869 -1331 
Q 1566 -1331 1297 -1286 
Q 1028 -1241 775 -1147 
L 775 -588 
Q 1028 -725 1275 -790 
Q 1522 -856 1778 -856 
Q 2344 -856 2625 -561 
Q 2906 -266 2906 331 
L 2906 616 
Q 2728 306 2450 153 
Q 2172 0 1784 0 
Q 1141 0 747 490 
Q 353 981 353 1791 
Q 353 2603 747 3093 
Q 1141 3584 1784 3584 
Q 2172 3584 2450 3431 
Q 2728 3278 2906 2969 
L 2906 3500 
L 3481 3500 
L 3481 434 
z
" transform="scale(0.015625)"/>
       <path id="DejaVuSans-f3" d="M 1959 3097 
Q 1497 3097 1228 2736 
Q 959 2375 959 1747 
Q 959 1119 1226 758 
Q 1494 397 1959 397 
Q 2419 397 2687 759 
Q 2956 1122 2956 1747 
Q 2956 2369 2687 2733 
Q 2419 3097 1959 3097 
z
M 1959 3584 
Q 2709 3584 3137 3096 
Q 3566 2609 3566 1747 
Q 3566 888 3137 398 
Q 2709 -91 1959 -91 
Q 1206 -91 779 398 
Q 353 888 353 1747 
Q 353 2609 779 3096 
Q 1206 3584 1959 3584 
z
M 2394 5119 
L 3016 5119 
L 1998 3944 
L 1519 3944 
L 2394 5119 
z
" transform="scale(0.015625)"/>
      </defs>
      <use xlink:href="#DejaVuSans-42"/>
      <use xlink:href="#DejaVuSans-72" x="68.603516"/>
      <use xlink:href="#DejaVuSans-65" x="107.466797"/>
      <use xlink:href="#DejaVuSans-63" x="168.990234"/>
      <use xlink:href="#DejaVuSans-68" x="223.970703"/>
      <use xlink:href="#DejaVuSans-61" x="287.349609"/>
      <use xlink:href="#DejaVuSans-20" x="348.628906"/>
      <use xlink:href="#DejaVuSans-6e" x="380.416016"/>
      <use xlink:href="#DejaVuSans-65" x="443.794922"/>
      <use xlink:href="#DejaVuSans-67" x="505.318359"/>
      <use xlink:href="#DejaVuSans-61" x="568.794922"/>
      <use xlink:href="#DejaVuSans-74" x="630.074219"/>
      <use xlink:href="#DejaVuSans-69" x="669.283203"/>
      <use xlink:href="#DejaVuSans-76" x="697.066406"/>
      <use xlink:href="#DejaVuSans-61" x="756.246094"/>
      <use xlink:href="#DejaVuSans-20" x="817.525391"/>
      <use xlink:href="#DejaVuSans-28" x="849.3125"/>
      <use xlink:href="#DejaVuSans-72" x="888.326172"/>
      <use xlink:href="#DejaVuSans-65" x="927.189453"/>
      <use xlink:href="#DejaVuSans-63" x="988.712891"/>
      <use xlink:href="#DejaVuSans-65" x="1043.693359"/>
      <use xlink:href="#DejaVuSans-73" x="1105.216797"/>
      <use xlink:href="#DejaVuSans-69" x="1157.316406"/>
      <use xlink:href="#DejaVuSans-f3" x="1185.099609"/>
      <use xlink:href="#DejaVuSans-6e" x="1246.28125"/>
      <use xlink:href="#DejaVuSans-29" x="1309.660156"/>
     </g>
    </g>
   </g>
   <g id="line2d_23">
    <defs>
     <path id="mabe55e7ea2" d="M 0 6 
C 1.591219 6 3.117479 5.367802 4.242641 4.242641 
C 5.367802 3.117479 6 1.591219 6 0 
C 6 -1.591219 5.367802 -3.117479 4.242641 -4.242641 
C 3.117479 -5.367802 1.591219 -6 0 -6 
C -1.591219 -6 -3.117479 -5.367802 -4.242641 -4.242641 
C -5.367802 -3.117479 -6 -1.591219 -6 0 
C -6 1.591219 -5.367802 3.117479 -4.242641 4.242641 
C -3.117479 5.367802 -1.591219 6 0 6 
z
" style="stroke: #2980b9"/>
    </defs>
    <g clip-path="url(#pa898fb70c1)">
     <use xlink:href="#mabe55e7ea2" x="176.571062" y="154.612089" style="fill: #2980b9; stroke: #2980b9"/>
    </g>
   </g>
   <g id="line2d_24">
    <g clip-path="url(#pa898fb70c1)">
     <use xlink:href="#mabe55e7ea2" x="481.544646" y="128.432271" style="fill: #2980b9; stroke: #2980b9"/>
    </g>
   </g>
   <g id="line2d_25">
    <defs>
     <path id="me141595733" d="M 0 6 
C 1.591219 6 3.117479 5.367802 4.242641 4.242641 
C 5.367802 3.117479 6 1.591219 6 0 
C 6 -1.591219 5.367802 -3.117479 4.242641 -4.242641 
C 3.117479 -5.367802 1.591219 -6 0 -6 
C -1.591219 -6 -3.117479 -5.367802 -4.242641 -4.242641 
C -5.367802 -3.117479 -6 -1.591219 -6 0 
C -6 1.591219 -5.367802 3.117479 -4.242641 4.242641 
C -3.117479 5.367802 -1.591219 6 0 6 
z
" style="stroke: #c0392b"/>
    </defs>
    <g clip-path="url(#pa898fb70c1)">
     <use xlink:href="#me141595733" x="329.057854" y="241.312697" style="fill: #c0392b; stroke: #c0392b"/>
    </g>
   </g>
   <g id="line2d_26">
    <g clip-path="url(#pa898fb70c1)">
     <use xlink:href="#me141595733" x="634.031438" y="215.132879" style="fill: #c0392b; stroke: #c0392b"/>
    </g>
   </g>
   <g id="patch_8">
    <path d="M 176.571062 112.697434 
Q 176.571062 132.655758 176.571062 151.496048 
" style="fill: none; stroke: #2980b9; stroke-linecap: round"/>
    <path d="M 178.571062 147.496048 
L 176.571062 151.496048 
L 174.571062 147.496048 
" style="fill: none; stroke: #2980b9; stroke-linecap: round"/>
   </g>
   <g id="text_17">
    <g id="patch_9">
     <path d="M 163.12575 110.295777 
L 190.016375 110.295777 
Q 193.516375 110.295777 193.516375 106.795777 
L 193.516375 97.117652 
Q 193.516375 93.617652 190.016375 93.617652 
L 163.12575 93.617652 
Q 159.62575 93.617652 159.62575 97.117652 
L 159.62575 106.795777 
Q 159.62575 110.295777 163.12575 110.295777 
z
" style="fill: #ffffff; opacity: 0.97; stroke: #bdc3c7; stroke-width: 0.8; stroke-linejoin: miter"/>
    </g>
    <!-- PICO -->
    <g style="fill: #2980b9" transform="translate(163.12575 104.716089) scale(0.1 -0.1)">
     <defs>
      <path id="DejaVuSans-Bold-4f" d="M 2719 3878 
Q 2169 3878 1866 3472 
Q 1563 3066 1563 2328 
Q 1563 1594 1866 1187 
Q 2169 781 2719 781 
Q 3272 781 3575 1187 
Q 3878 1594 3878 2328 
Q 3878 3066 3575 3472 
Q 3272 3878 2719 3878 
z
M 2719 4750 
Q 3844 4750 4481 4106 
Q 5119 3463 5119 2328 
Q 5119 1197 4481 553 
Q 3844 -91 2719 -91 
Q 1597 -91 958 553 
Q 319 1197 319 2328 
Q 319 3463 958 4106 
Q 1597 4750 2719 4750 
z
" transform="scale(0.015625)"/>
     </defs>
     <use xlink:href="#DejaVuSans-Bold-50"/>
     <use xlink:href="#DejaVuSans-Bold-49" x="73.291016"/>
     <use xlink:href="#DejaVuSans-Bold-43" x="110.498047"/>
     <use xlink:href="#DejaVuSans-Bold-4f" x="183.886719"/>
    </g>
   </g>
   <g id="patch_10">
    <path d="M 481.544646 86.517616 
Q 481.544646 106.47594 481.544646 125.31623 
" style="fill: none; stroke: #2980b9; stroke-linecap: round"/>
    <path d="M 483.544646 121.31623 
L 481.544646 125.31623 
L 479.544646 121.31623 
" style="fill: none; stroke: #2980b9; stroke-linecap: round"/>
   </g>
   <g id="text_18">
    <g id="patch_11">
     <path d="M 468.099333 84.115959 
L 494.989958 84.115959 
Q 498.489958 84.115959 498.489958 80.615959 
L 498.489958 70.937834 
Q 498.489958 67.437834 494.989958 67.437834 
L 468.099333 67.437834 
Q 464.599333 67.437834 464.599333 70.937834 
L 464.599333 80.615959 
Q 464.599333 84.115959 468.099333 84.115959 
z
" style="fill: #ffffff; opacity: 0.97; stroke: #bdc3c7; stroke-width: 0.8; stroke-linejoin: miter"/>
    </g>
    <!-- PICO -->
    <g style="fill: #2980b9" transform="translate(468.099333 78.536271) scale(0.1 -0.1)">
     <use xlink:href="#DejaVuSans-Bold-50"/>
     <use xlink:href="#DejaVuSans-Bold-49" x="73.291016"/>
     <use xlink:href="#DejaVuSans-Bold-43" x="110.498047"/>
     <use xlink:href="#DejaVuSans-Bold-4f" x="183.886719"/>
    </g>
   </g>
   <g id="patch_12">
    <path d="M 329.057854 294.345001 
Q 329.057854 268.827413 329.057854 244.427858 
" style="fill: none; stroke: #c0392b; stroke-linecap: round"/>
    <path d="M 327.057854 248.427858 
L 329.057854 244.427858 
L 331.057854 248.427858 
" style="fill: none; stroke: #c0392b; stroke-linecap: round"/>
   </g>
   <g id="text_19">
    <g id="patch_13">
     <path d="M 311.868792 313.420385 
L 346.246917 313.420385 
Q 349.746917 313.420385 349.746917 309.920385 
L 349.746917 300.24226 
Q 349.746917 296.74226 346.246917 296.74226 
L 311.868792 296.74226 
Q 308.368792 296.74226 308.368792 300.24226 
L 308.368792 309.920385 
Q 308.368792 313.420385 311.868792 313.420385 
z
" style="fill: #ffffff; opacity: 0.97; stroke: #bdc3c7; stroke-width: 0.8; stroke-linejoin: miter"/>
    </g>
    <!-- VALLE -->
    <g style="fill: #c0392b" transform="translate(311.868792 307.840697) scale(0.1 -0.1)">
     <defs>
      <path id="DejaVuSans-Bold-56" d="M 31 4666 
L 1241 4666 
L 2478 1222 
L 3713 4666 
L 4922 4666 
L 3194 0 
L 1759 0 
L 31 4666 
z
" transform="scale(0.015625)"/>
      <path id="DejaVuSans-Bold-41" d="M 3419 850 
L 1538 850 
L 1241 0 
L 31 0 
L 1759 4666 
L 3194 4666 
L 4922 0 
L 3713 0 
L 3419 850 
z
M 1838 1716 
L 3116 1716 
L 2478 3572 
L 1838 1716 
z
" transform="scale(0.015625)"/>
      <path id="DejaVuSans-Bold-4c" d="M 588 4666 
L 1791 4666 
L 1791 909 
L 3903 909 
L 3903 0 
L 588 0 
L 588 4666 
z
" transform="scale(0.015625)"/>
      <path id="DejaVuSans-Bold-45" d="M 588 4666 
L 3834 4666 
L 3834 3756 
L 1791 3756 
L 1791 2888 
L 3713 2888 
L 3713 1978 
L 1791 1978 
L 1791 909 
L 3903 909 
L 3903 0 
L 588 0 
L 588 4666 
z
" transform="scale(0.015625)"/>
     </defs>
     <use xlink:href="#DejaVuSans-Bold-56"/>
     <use xlink:href="#DejaVuSans-Bold-41" x="70.642578"/>
     <use xlink:href="#DejaVuSans-Bold-4c" x="148.035156"/>
     <use xlink:href="#DejaVuSans-Bold-4c" x="211.755859"/>
     <use xlink:href="#DejaVuSans-Bold-45" x="275.476562"/>
    </g>
   </g>
   <g id="patch_14">
    <path d="M 634.031438 268.165183 
Q 634.031438 242.647595 634.031438 218.24804 
" style="fill: none; stroke: #c0392b; stroke-linecap: round"/>
    <path d="M 632.031438 222.24804 
L 634.031438 218.24804 
L 636.031438 222.24804 
" style="fill: none; stroke: #c0392b; stroke-linecap: round"/>
   </g>
   <g id="text_20">
    <g id="patch_15">
     <path d="M 616.842375 287.240567 
L 651.2205 287.240567 
Q 654.7205 287.240567 654.7205 283.740567 
L 654.7205 274.062442 
Q 654.7205 270.562442 651.2205 270.562442 
L 616.842375 270.562442 
Q 613.342375 270.562442 613.342375 274.062442 
L 613.342375 283.740567 
Q 613.342375 287.240567 616.842375 287.240567 
z
" style="fill: #ffffff; opacity: 0.97; stroke: #bdc3c7; stroke-width: 0.8; stroke-linejoin: miter"/>
    </g>
    <!-- VALLE -->
    <g style="fill: #c0392b" transform="translate(616.842375 281.660879) scale(0.1 -0.1)">
     <use xlink:href="#DejaVuSans-Bold-56"/>
     <use xlink:href="#DejaVuSans-Bold-41" x="70.642578"/>
     <use xlink:href="#DejaVuSans-Bold-4c" x="148.035156"/>
     <use xlink:href="#DejaVuSans-Bold-4c" x="211.755859"/>
     <use xlink:href="#DejaVuSans-Bold-45" x="275.476562"/>
    </g>
   </g>
   <g id="text_21">
    <g id="patch_16">
     <path d="M 144.534493 349.633656 
L 225.931368 349.633656 
Q 229.431368 349.633656 229.431368 346.133656 
L 229.431368 336.055531 
Q 229.431368 332.555531 225.931368 332.555531 
L 144.534493 332.555531 
Q 141.034493 332.555531 141.034493 336.055531 
L 141.034493 346.133656 
Q 141.034493 349.633656 144.534493 349.633656 
z
" style="fill: #ffffff; opacity: 0.97; stroke: #bdc3c7; stroke-width: 0.8; stroke-linejoin: miter"/>
    </g>
    <!-- ← Expansión → -->
    <g style="fill: #2980b9" transform="translate(144.534493 344.053969) scale(0.1 -0.1)">
     <defs>
      <path id="DejaVuSans-Bold-2190" d="M 313 1788 
L 313 2225 
L 1541 3453 
L 1994 3000 
L 1375 2381 
L 4997 2381 
L 4997 1631 
L 1375 1631 
L 1994 1013 
L 1541 559 
L 313 1788 
z
" transform="scale(0.015625)"/>
      <path id="DejaVuSans-Bold-78" d="M 1422 1791 
L 159 3500 
L 1344 3500 
L 2059 2463 
L 2784 3500 
L 3969 3500 
L 2706 1797 
L 4031 0 
L 2847 0 
L 2059 1106 
L 1281 0 
L 97 0 
L 1422 1791 
z
" transform="scale(0.015625)"/>
     </defs>
     <use xlink:href="#DejaVuSans-Bold-2190"/>
     <use xlink:href="#DejaVuSans-Bold-20" x="83.789062"/>
     <use xlink:href="#DejaVuSans-Bold-45" x="118.603516"/>
     <use xlink:href="#DejaVuSans-Bold-78" x="186.914062"/>
     <use xlink:href="#DejaVuSans-Bold-70" x="251.416016"/>
     <use xlink:href="#DejaVuSans-Bold-61" x="322.998047"/>
     <use xlink:href="#DejaVuSans-Bold-6e" x="390.478516"/>
     <use xlink:href="#DejaVuSans-Bold-73" x="461.669922"/>
     <use xlink:href="#DejaVuSans-Bold-69" x="521.191406"/>
     <use xlink:href="#DejaVuSans-Bold-f3" x="555.46875"/>
     <use xlink:href="#DejaVuSans-Bold-6e" x="624.169922"/>
     <use xlink:href="#DejaVuSans-Bold-20" x="695.361328"/>
     <use xlink:href="#DejaVuSans-Bold-2192" x="730.175781"/>
    </g>
   </g>
   <g id="text_22">
    <g id="patch_17">
     <path d="M 296.716311 349.633656 
L 371.000686 349.633656 
Q 374.500686 349.633656 374.500686 346.133656 
L 374.500686 336.455531 
Q 374.500686 332.955531 371.000686 332.955531 
L 296.716311 332.955531 
Q 293.216311 332.955531 293.216311 336.455531 
L 293.216311 346.133656 
Q 293.216311 349.633656 296.716311 349.633656 
z
" style="fill: #ffffff; opacity: 0.97; stroke: #bdc3c7; stroke-width: 0.8; stroke-linejoin: miter"/>
    </g>
    <!-- ← Recesión → -->
    <g style="fill: #c0392b" transform="translate(296.716311 344.053969) scale(0.1 -0.1)">
     <defs>
      <path id="DejaVuSans-Bold-52" d="M 2297 2597 
Q 2675 2597 2839 2737 
Q 3003 2878 3003 3200 
Q 3003 3519 2839 3656 
Q 2675 3794 2297 3794 
L 1791 3794 
L 1791 2597 
L 2297 2597 
z
M 1791 1766 
L 1791 0 
L 588 0 
L 588 4666 
L 2425 4666 
Q 3347 4666 3776 4356 
Q 4206 4047 4206 3378 
Q 4206 2916 3982 2619 
Q 3759 2322 3309 2181 
Q 3556 2125 3751 1926 
Q 3947 1728 4147 1325 
L 4800 0 
L 3519 0 
L 2950 1159 
Q 2778 1509 2601 1637 
Q 2425 1766 2131 1766 
L 1791 1766 
z
" transform="scale(0.015625)"/>
     </defs>
     <use xlink:href="#DejaVuSans-Bold-2190"/>
     <use xlink:href="#DejaVuSans-Bold-20" x="83.789062"/>
     <use xlink:href="#DejaVuSans-Bold-52" x="118.603516"/>
     <use xlink:href="#DejaVuSans-Bold-65" x="195.605469"/>
     <use xlink:href="#DejaVuSans-Bold-63" x="263.427734"/>
     <use xlink:href="#DejaVuSans-Bold-65" x="322.705078"/>
     <use xlink:href="#DejaVuSans-Bold-73" x="390.527344"/>
     <use xlink:href="#DejaVuSans-Bold-69" x="450.048828"/>
     <use xlink:href="#DejaVuSans-Bold-f3" x="484.326172"/>
     <use xlink:href="#DejaVuSans-Bold-6e" x="553.027344"/>
     <use xlink:href="#DejaVuSans-Bold-20" x="624.21875"/>
     <use xlink:href="#DejaVuSans-Bold-2192" x="659.033203"/>
    </g>
   </g>
  </g>
 </g>
 <defs>
  <clipPath id="pa898fb70c1">
   <rect x="70.50125" y="44.677969" width="669.6" height="332.64"/>
  </clipPath>
 </defs>
</svg>
