<?xml version="1.0" encoding="utf-8" standalone="no"?>
<!DOCTYPE svg PUBLIC "-//W3C//DTD SVG 1.1//EN"
  "http://www.w3.org/Graphics/SVG/1.1/DTD/svg11.dtd">
<svg xmlns:xlink="http://www.w3.org/1999/xlink" width="1111.63125pt" height="463.206906pt" viewBox="0 0 1111.63125 463.206906" xmlns="http://www.w3.org/2000/svg" version="1.1">
 <metadata>
  <rdf:RDF xmlns:dc="http://purl.org/dc/elements/1.1/" xmlns:cc="http://creativecommons.org/ns#" xmlns:rdf="http://www.w3.org/1999/02/22-rdf-syntax-ns#">
   <cc:Work>
    <dc:type rdf:resource="http://purl.org/dc/dcmitype/StillImage"/>
    <dc:date>2026-04-28T17:41:34.477838</dc:date>
    <dc:format>image/svg+xml</dc:format>
    <dc:creator>
     <cc:Agent>
      <dc:title>Matplotlib v3.9.2, https://matplotlib.org/</dc:title>
     </cc:Agent>
    </dc:creator>
   </cc:Work>
  </rdf:RDF>
 </metadata>
 <defs>
  <style type="text/css">*{stroke-linejoin: round; stroke-linecap: butt}</style>
 </defs>
 <g id="figure_1">
  <g id="patch_1">
   <path d="M 0 463.206906 
L 1111.63125 463.206906 
L 1111.63125 0 
L 0 0 
z
" style="fill: #ffffff"/>
  </g>
  <g id="axes_1">
   <g id="patch_2">
    <path d="M 43.87125 426.001046 
L 545.31125 426.001046 
L 545.31125 50.677969 
L 43.87125 50.677969 
z
" style="fill: #ffffff"/>
   </g>
   <g id="matplotlib.axis_1">
    <g id="xtick_1">
     <g id="line2d_1">
      <path d="M 65.672989 426.001046 
L 65.672989 50.677969 
" clip-path="url(#p0c9834081b)" style="fill: none; stroke-dasharray: 0.8,1.32; stroke-dashoffset: 0; stroke: #b0b0b0; stroke-opacity: 0.4; stroke-width: 0.8"/>
     </g>
     <g id="line2d_2">
      <defs>
       <path id="mfc8b492241" d="M 0 0 
L 0 -4 
" style="stroke: #000000"/>
      </defs>
      <g>
       <use xlink:href="#mfc8b492241" x="65.672989" y="403.545819" style="stroke: #000000"/>
      </g>
     </g>
     <g id="text_1">
      <!-- 0 -->
      <g transform="translate(62.491739 414.644256) scale(0.1 -0.1)">
       <defs>
        <path id="DejaVuSans-30" d="M 2034 4250 
Q 1547 4250 1301 3770 
Q 1056 3291 1056 2328 
Q 1056 1369 1301 889 
Q 1547 409 2034 409 
Q 2525 409 2770 889 
Q 3016 1369 3016 2328 
Q 3016 3291 2770 3770 
Q 2525 4250 2034 4250 
z
M 2034 4750 
Q 2819 4750 3233 4129 
Q 3647 3509 3647 2328 
Q 3647 1150 3233 529 
Q 2819 -91 2034 -91 
Q 1250 -91 836 529 
Q 422 1150 422 2328 
Q 422 3509 836 4129 
Q 1250 4750 2034 4750 
z
" transform="scale(0.015625)"/>
       </defs>
       <use xlink:href="#DejaVuSans-30"/>
      </g>
     </g>
    </g>
    <g id="xtick_2">
     <g id="line2d_3">
      <path d="M 152.879946 426.001046 
L 152.879946 50.677969 
" clip-path="url(#p0c9834081b)" style="fill: none; stroke-dasharray: 0.8,1.32; stroke-dashoffset: 0; stroke: #b0b0b0; stroke-opacity: 0.4; stroke-width: 0.8"/>
     </g>
     <g id="line2d_4">
      <g>
       <use xlink:href="#mfc8b492241" x="152.879946" y="403.545819" style="stroke: #000000"/>
      </g>
     </g>
     <g id="text_2">
      <!-- 2 -->
      <g transform="translate(149.698696 414.644256) scale(0.1 -0.1)">
       <defs>
        <path id="DejaVuSans-32" d="M 1228 531 
L 3431 531 
L 3431 0 
L 469 0 
L 469 531 
Q 828 903 1448 1529 
Q 2069 2156 2228 2338 
Q 2531 2678 2651 2914 
Q 2772 3150 2772 3378 
Q 2772 3750 2511 3984 
Q 2250 4219 1831 4219 
Q 1534 4219 1204 4116 
Q 875 4013 500 3803 
L 500 4441 
Q 881 4594 1212 4672 
Q 1544 4750 1819 4750 
Q 2544 4750 2975 4387 
Q 3406 4025 3406 3419 
Q 3406 3131 3298 2873 
Q 3191 2616 2906 2266 
Q 2828 2175 2409 1742 
Q 1991 1309 1228 531 
z
" transform="scale(0.015625)"/>
       </defs>
       <use xlink:href="#DejaVuSans-32"/>
      </g>
     </g>
    </g>
    <g id="xtick_3">
     <g id="line2d_5">
      <path d="M 240.086902 426.001046 
L 240.086902 50.677969 
" clip-path="url(#p0c9834081b)" style="fill: none; stroke-dasharray: 0.8,1.32; stroke-dashoffset: 0; stroke: #b0b0b0; stroke-opacity: 0.4; stroke-width: 0.8"/>
     </g>
     <g id="line2d_6">
      <g>
       <use xlink:href="#mfc8b492241" x="240.086902" y="403.545819" style="stroke: #000000"/>
      </g>
     </g>
     <g id="text_3">
      <!-- 4 -->
      <g transform="translate(236.905652 414.644256) scale(0.1 -0.1)">
       <defs>
        <path id="DejaVuSans-34" d="M 2419 4116 
L 825 1625 
L 2419 1625 
L 2419 4116 
z
M 2253 4666 
L 3047 4666 
L 3047 1625 
L 3713 1625 
L 3713 1100 
L 3047 1100 
L 3047 0 
L 2419 0 
L 2419 1100 
L 313 1100 
L 313 1709 
L 2253 4666 
z
" transform="scale(0.015625)"/>
       </defs>
       <use xlink:href="#DejaVuSans-34"/>
      </g>
     </g>
    </g>
    <g id="xtick_4">
     <g id="line2d_7">
      <path d="M 327.293859 426.001046 
L 327.293859 50.677969 
" clip-path="url(#p0c9834081b)" style="fill: none; stroke-dasharray: 0.8,1.32; stroke-dashoffset: 0; stroke: #b0b0b0; stroke-opacity: 0.4; stroke-width: 0.8"/>
     </g>
     <g id="line2d_8">
      <g>
       <use xlink:href="#mfc8b492241" x="327.293859" y="403.545819" style="stroke: #000000"/>
      </g>
     </g>
     <g id="text_4">
      <!-- 6 -->
      <g transform="translate(324.112609 414.644256) scale(0.1 -0.1)">
       <defs>
        <path id="DejaVuSans-36" d="M 2113 2584 
Q 1688 2584 1439 2293 
Q 1191 2003 1191 1497 
Q 1191 994 1439 701 
Q 1688 409 2113 409 
Q 2538 409 2786 701 
Q 3034 994 3034 1497 
Q 3034 2003 2786 2293 
Q 2538 2584 2113 2584 
z
M 3366 4563 
L 3366 3988 
Q 3128 4100 2886 4159 
Q 2644 4219 2406 4219 
Q 1781 4219 1451 3797 
Q 1122 3375 1075 2522 
Q 1259 2794 1537 2939 
Q 1816 3084 2150 3084 
Q 2853 3084 3261 2657 
Q 3669 2231 3669 1497 
Q 3669 778 3244 343 
Q 2819 -91 2113 -91 
Q 1303 -91 875 529 
Q 447 1150 447 2328 
Q 447 3434 972 4092 
Q 1497 4750 2381 4750 
Q 2619 4750 2861 4703 
Q 3103 4656 3366 4563 
z
" transform="scale(0.015625)"/>
       </defs>
       <use xlink:href="#DejaVuSans-36"/>
      </g>
     </g>
    </g>
    <g id="xtick_5">
     <g id="line2d_9">
      <path d="M 414.500815 426.001046 
L 414.500815 50.677969 
" clip-path="url(#p0c9834081b)" style="fill: none; stroke-dasharray: 0.8,1.32; stroke-dashoffset: 0; stroke: #b0b0b0; stroke-opacity: 0.4; stroke-width: 0.8"/>
     </g>
     <g id="line2d_10">
      <g>
       <use xlink:href="#mfc8b492241" x="414.500815" y="403.545819" style="stroke: #000000"/>
      </g>
     </g>
     <g id="text_5">
      <!-- 8 -->
      <g transform="translate(411.319565 414.644256) scale(0.1 -0.1)">
       <defs>
        <path id="DejaVuSans-38" d="M 2034 2216 
Q 1584 2216 1326 1975 
Q 1069 1734 1069 1313 
Q 1069 891 1326 650 
Q 1584 409 2034 409 
Q 2484 409 2743 651 
Q 3003 894 3003 1313 
Q 3003 1734 2745 1975 
Q 2488 2216 2034 2216 
z
M 1403 2484 
Q 997 2584 770 2862 
Q 544 3141 544 3541 
Q 544 4100 942 4425 
Q 1341 4750 2034 4750 
Q 2731 4750 3128 4425 
Q 3525 4100 3525 3541 
Q 3525 3141 3298 2862 
Q 3072 2584 2669 2484 
Q 3125 2378 3379 2068 
Q 3634 1759 3634 1313 
Q 3634 634 3220 271 
Q 2806 -91 2034 -91 
Q 1263 -91 848 271 
Q 434 634 434 1313 
Q 434 1759 690 2068 
Q 947 2378 1403 2484 
z
M 1172 3481 
Q 1172 3119 1398 2916 
Q 1625 2713 2034 2713 
Q 2441 2713 2670 2916 
Q 2900 3119 2900 3481 
Q 2900 3844 2670 4047 
Q 2441 4250 2034 4250 
Q 1625 4250 1398 4047 
Q 1172 3844 1172 3481 
z
" transform="scale(0.015625)"/>
       </defs>
       <use xlink:href="#DejaVuSans-38"/>
      </g>
     </g>
    </g>
    <g id="xtick_6">
     <g id="line2d_11">
      <path d="M 501.707772 426.001046 
L 501.707772 50.677969 
" clip-path="url(#p0c9834081b)" style="fill: none; stroke-dasharray: 0.8,1.32; stroke-dashoffset: 0; stroke: #b0b0b0; stroke-opacity: 0.4; stroke-width: 0.8"/>
     </g>
     <g id="line2d_12">
      <g>
       <use xlink:href="#mfc8b492241" x="501.707772" y="403.545819" style="stroke: #000000"/>
      </g>
     </g>
     <g id="text_6">
      <!-- 10 -->
      <g transform="translate(495.345272 414.644256) scale(0.1 -0.1)">
       <defs>
        <path id="DejaVuSans-31" d="M 794 531 
L 1825 531 
L 1825 4091 
L 703 3866 
L 703 4441 
L 1819 4666 
L 2450 4666 
L 2450 531 
L 3481 531 
L 3481 0 
L 794 0 
L 794 531 
z
" transform="scale(0.015625)"/>
       </defs>
       <use xlink:href="#DejaVuSans-31"/>
       <use xlink:href="#DejaVuSans-30" x="63.623047"/>
      </g>
     </g>
    </g>
    <g id="text_7">
     <!-- Q (mercado) -->
     <g transform="translate(461.35625 423.842069) scale(0.12 -0.12)">
      <defs>
       <path id="DejaVuSans-Bold-51" d="M 2847 -84 
L 2753 -84 
Q 1600 -84 959 553 
Q 319 1191 319 2328 
Q 319 3463 958 4106 
Q 1597 4750 2719 4750 
Q 3853 4750 4486 4112 
Q 5119 3475 5119 2328 
Q 5119 1541 4783 972 
Q 4447 403 3816 116 
L 4756 -934 
L 3609 -934 
L 2847 -84 
z
M 2719 3878 
Q 2169 3878 1866 3472 
Q 1563 3066 1563 2328 
Q 1563 1578 1859 1179 
Q 2156 781 2719 781 
Q 3272 781 3575 1187 
Q 3878 1594 3878 2328 
Q 3878 3066 3575 3472 
Q 3272 3878 2719 3878 
z
" transform="scale(0.015625)"/>
       <path id="DejaVuSans-Bold-20" transform="scale(0.015625)"/>
       <path id="DejaVuSans-Bold-28" d="M 2413 -844 
L 1484 -844 
Q 1006 -72 778 623 
Q 550 1319 550 2003 
Q 550 2688 779 3389 
Q 1009 4091 1484 4856 
L 2413 4856 
Q 2013 4116 1813 3408 
Q 1613 2700 1613 2009 
Q 1613 1319 1811 609 
Q 2009 -100 2413 -844 
z
" transform="scale(0.015625)"/>
       <path id="DejaVuSans-Bold-6d" d="M 3781 2919 
Q 3994 3244 4286 3414 
Q 4578 3584 4928 3584 
Q 5531 3584 5847 3212 
Q 6163 2841 6163 2131 
L 6163 0 
L 5038 0 
L 5038 1825 
Q 5041 1866 5042 1909 
Q 5044 1953 5044 2034 
Q 5044 2406 4934 2573 
Q 4825 2741 4581 2741 
Q 4263 2741 4089 2478 
Q 3916 2216 3909 1719 
L 3909 0 
L 2784 0 
L 2784 1825 
Q 2784 2406 2684 2573 
Q 2584 2741 2328 2741 
Q 2006 2741 1831 2477 
Q 1656 2213 1656 1722 
L 1656 0 
L 531 0 
L 531 3500 
L 1656 3500 
L 1656 2988 
Q 1863 3284 2130 3434 
Q 2397 3584 2719 3584 
Q 3081 3584 3359 3409 
Q 3638 3234 3781 2919 
z
" transform="scale(0.015625)"/>
       <path id="DejaVuSans-Bold-65" d="M 4031 1759 
L 4031 1441 
L 1416 1441 
Q 1456 1047 1700 850 
Q 1944 653 2381 653 
Q 2734 653 3104 758 
Q 3475 863 3866 1075 
L 3866 213 
Q 3469 63 3072 -14 
Q 2675 -91 2278 -91 
Q 1328 -91 801 392 
Q 275 875 275 1747 
Q 275 2603 792 3093 
Q 1309 3584 2216 3584 
Q 3041 3584 3536 3087 
Q 4031 2591 4031 1759 
z
M 2881 2131 
Q 2881 2450 2695 2645 
Q 2509 2841 2209 2841 
Q 1884 2841 1681 2658 
Q 1478 2475 1428 2131 
L 2881 2131 
z
" transform="scale(0.015625)"/>
       <path id="DejaVuSans-Bold-72" d="M 3138 2547 
Q 2991 2616 2845 2648 
Q 2700 2681 2553 2681 
Q 2122 2681 1889 2404 
Q 1656 2128 1656 1613 
L 1656 0 
L 538 0 
L 538 3500 
L 1656 3500 
L 1656 2925 
Q 1872 3269 2151 3426 
Q 2431 3584 2822 3584 
Q 2878 3584 2943 3579 
Q 3009 3575 3134 3559 
L 3138 2547 
z
" transform="scale(0.015625)"/>
       <path id="DejaVuSans-Bold-63" d="M 3366 3391 
L 3366 2478 
Q 3138 2634 2908 2709 
Q 2678 2784 2431 2784 
Q 1963 2784 1702 2511 
Q 1441 2238 1441 1747 
Q 1441 1256 1702 982 
Q 1963 709 2431 709 
Q 2694 709 2930 787 
Q 3166 866 3366 1019 
L 3366 103 
Q 3103 6 2833 -42 
Q 2563 -91 2291 -91 
Q 1344 -91 809 395 
Q 275 881 275 1747 
Q 275 2613 809 3098 
Q 1344 3584 2291 3584 
Q 2566 3584 2833 3536 
Q 3100 3488 3366 3391 
z
" transform="scale(0.015625)"/>
       <path id="DejaVuSans-Bold-61" d="M 2106 1575 
Q 1756 1575 1579 1456 
Q 1403 1338 1403 1106 
Q 1403 894 1545 773 
Q 1688 653 1941 653 
Q 2256 653 2472 879 
Q 2688 1106 2688 1447 
L 2688 1575 
L 2106 1575 
z
M 3816 1997 
L 3816 0 
L 2688 0 
L 2688 519 
Q 2463 200 2181 54 
Q 1900 -91 1497 -91 
Q 953 -91 614 226 
Q 275 544 275 1050 
Q 275 1666 698 1953 
Q 1122 2241 2028 2241 
L 2688 2241 
L 2688 2328 
Q 2688 2594 2478 2717 
Q 2269 2841 1825 2841 
Q 1466 2841 1156 2769 
Q 847 2697 581 2553 
L 581 3406 
Q 941 3494 1303 3539 
Q 1666 3584 2028 3584 
Q 2975 3584 3395 3211 
Q 3816 2838 3816 1997 
z
" transform="scale(0.015625)"/>
       <path id="DejaVuSans-Bold-64" d="M 2919 2988 
L 2919 4863 
L 4044 4863 
L 4044 0 
L 2919 0 
L 2919 506 
Q 2688 197 2409 53 
Q 2131 -91 1766 -91 
Q 1119 -91 703 423 
Q 288 938 288 1747 
Q 288 2556 703 3070 
Q 1119 3584 1766 3584 
Q 2128 3584 2408 3439 
Q 2688 3294 2919 2988 
z
M 2181 722 
Q 2541 722 2730 984 
Q 2919 1247 2919 1747 
Q 2919 2247 2730 2509 
Q 2541 2772 2181 2772 
Q 1825 2772 1636 2509 
Q 1447 2247 1447 1747 
Q 1447 1247 1636 984 
Q 1825 722 2181 722 
z
" transform="scale(0.015625)"/>
       <path id="DejaVuSans-Bold-6f" d="M 2203 2784 
Q 1831 2784 1636 2517 
Q 1441 2250 1441 1747 
Q 1441 1244 1636 976 
Q 1831 709 2203 709 
Q 2569 709 2762 976 
Q 2956 1244 2956 1747 
Q 2956 2250 2762 2517 
Q 2569 2784 2203 2784 
z
M 2203 3584 
Q 3106 3584 3614 3096 
Q 4122 2609 4122 1747 
Q 4122 884 3614 396 
Q 3106 -91 2203 -91 
Q 1297 -91 786 396 
Q 275 884 275 1747 
Q 275 2609 786 3096 
Q 1297 3584 2203 3584 
z
" transform="scale(0.015625)"/>
       <path id="DejaVuSans-Bold-29" d="M 513 -844 
Q 913 -100 1113 609 
Q 1313 1319 1313 2009 
Q 1313 2700 1113 3408 
Q 913 4116 513 4856 
L 1441 4856 
Q 1916 4091 2145 3389 
Q 2375 2688 2375 2003 
Q 2375 1319 2147 623 
Q 1919 -72 1441 -844 
L 513 -844 
z
" transform="scale(0.015625)"/>
      </defs>
      <use xlink:href="#DejaVuSans-Bold-51"/>
      <use xlink:href="#DejaVuSans-Bold-20" x="85.009766"/>
      <use xlink:href="#DejaVuSans-Bold-28" x="119.824219"/>
      <use xlink:href="#DejaVuSans-Bold-6d" x="165.527344"/>
      <use xlink:href="#DejaVuSans-Bold-65" x="269.726562"/>
      <use xlink:href="#DejaVuSans-Bold-72" x="337.548828"/>
      <use xlink:href="#DejaVuSans-Bold-63" x="386.865234"/>
      <use xlink:href="#DejaVuSans-Bold-61" x="446.142578"/>
      <use xlink:href="#DejaVuSans-Bold-64" x="513.623047"/>
      <use xlink:href="#DejaVuSans-Bold-6f" x="585.205078"/>
      <use xlink:href="#DejaVuSans-Bold-29" x="653.90625"/>
     </g>
    </g>
   </g>
   <g id="matplotlib.axis_2">
    <g id="ytick_1">
     <g id="line2d_13">
      <path d="M 43.87125 403.545819 
L 545.31125 403.545819 
" clip-path="url(#p0c9834081b)" style="fill: none; stroke-dasharray: 0.8,1.32; stroke-dashoffset: 0; stroke: #b0b0b0; stroke-opacity: 0.4; stroke-width: 0.8"/>
     </g>
     <g id="line2d_14">
      <defs>
       <path id="m3deddee909" d="M 0 0 
L 4 0 
" style="stroke: #000000"/>
      </defs>
      <g>
       <use xlink:href="#m3deddee909" x="65.672989" y="403.545819" style="stroke: #000000"/>
      </g>
     </g>
     <g id="text_8">
      <!-- 0 -->
      <g transform="translate(55.810489 407.345038) scale(0.1 -0.1)">
       <use xlink:href="#DejaVuSans-30"/>
      </g>
     </g>
    </g>
    <g id="ytick_2">
     <g id="line2d_15">
      <path d="M 43.87125 339.388028 
L 545.31125 339.388028 
" clip-path="url(#p0c9834081b)" style="fill: none; stroke-dasharray: 0.8,1.32; stroke-dashoffset: 0; stroke: #b0b0b0; stroke-opacity: 0.4; stroke-width: 0.8"/>
     </g>
     <g id="line2d_16">
      <g>
       <use xlink:href="#m3deddee909" x="65.672989" y="339.388028" style="stroke: #000000"/>
      </g>
     </g>
     <g id="text_9">
      <!-- 2 -->
      <g transform="translate(55.810489 343.187247) scale(0.1 -0.1)">
       <use xlink:href="#DejaVuSans-32"/>
      </g>
     </g>
    </g>
    <g id="ytick_3">
     <g id="line2d_17">
      <path d="M 43.87125 275.230237 
L 545.31125 275.230237 
" clip-path="url(#p0c9834081b)" style="fill: none; stroke-dasharray: 0.8,1.32; stroke-dashoffset: 0; stroke: #b0b0b0; stroke-opacity: 0.4; stroke-width: 0.8"/>
     </g>
     <g id="line2d_18">
      <g>
       <use xlink:href="#m3deddee909" x="65.672989" y="275.230237" style="stroke: #000000"/>
      </g>
     </g>
     <g id="text_10">
      <!-- 4 -->
      <g transform="translate(55.810489 279.029456) scale(0.1 -0.1)">
       <use xlink:href="#DejaVuSans-34"/>
      </g>
     </g>
    </g>
    <g id="ytick_4">
     <g id="line2d_19">
      <path d="M 43.87125 211.072446 
L 545.31125 211.072446 
" clip-path="url(#p0c9834081b)" style="fill: none; stroke-dasharray: 0.8,1.32; stroke-dashoffset: 0; stroke: #b0b0b0; stroke-opacity: 0.4; stroke-width: 0.8"/>
     </g>
     <g id="line2d_20">
      <g>
       <use xlink:href="#m3deddee909" x="65.672989" y="211.072446" style="stroke: #000000"/>
      </g>
     </g>
     <g id="text_11">
      <!-- 6 -->
      <g transform="translate(55.810489 214.871665) scale(0.1 -0.1)">
       <use xlink:href="#DejaVuSans-36"/>
      </g>
     </g>
    </g>
    <g id="ytick_5">
     <g id="line2d_21">
      <path d="M 43.87125 146.914655 
L 545.31125 146.914655 
" clip-path="url(#p0c9834081b)" style="fill: none; stroke-dasharray: 0.8,1.32; stroke-dashoffset: 0; stroke: #b0b0b0; stroke-opacity: 0.4; stroke-width: 0.8"/>
     </g>
     <g id="line2d_22">
      <g>
       <use xlink:href="#m3deddee909" x="65.672989" y="146.914655" style="stroke: #000000"/>
      </g>
     </g>
     <g id="text_12">
      <!-- 8 -->
      <g transform="translate(55.810489 150.713874) scale(0.1 -0.1)">
       <use xlink:href="#DejaVuSans-38"/>
      </g>
     </g>
    </g>
    <g id="ytick_6">
     <g id="line2d_23">
      <path d="M 43.87125 82.756864 
L 545.31125 82.756864 
" clip-path="url(#p0c9834081b)" style="fill: none; stroke-dasharray: 0.8,1.32; stroke-dashoffset: 0; stroke: #b0b0b0; stroke-opacity: 0.4; stroke-width: 0.8"/>
     </g>
     <g id="line2d_24">
      <g>
       <use xlink:href="#m3deddee909" x="65.672989" y="82.756864" style="stroke: #000000"/>
      </g>
     </g>
     <g id="text_13">
      <!-- 10 -->
      <g transform="translate(49.447989 86.556083) scale(0.1 -0.1)">
       <use xlink:href="#DejaVuSans-31"/>
       <use xlink:href="#DejaVuSans-30" x="63.623047"/>
      </g>
     </g>
    </g>
    <g id="text_14">
     <!-- P -->
     <g transform="translate(42.652364 48.182344) scale(0.12 -0.12)">
      <defs>
       <path id="DejaVuSans-Bold-50" d="M 588 4666 
L 2584 4666 
Q 3475 4666 3951 4270 
Q 4428 3875 4428 3144 
Q 4428 2409 3951 2014 
Q 3475 1619 2584 1619 
L 1791 1619 
L 1791 0 
L 588 0 
L 588 4666 
z
M 1791 3794 
L 1791 2491 
L 2456 2491 
Q 2806 2491 2997 2661 
Q 3188 2831 3188 3144 
Q 3188 3456 2997 3625 
Q 2806 3794 2456 3794 
L 1791 3794 
z
" transform="scale(0.015625)"/>
      </defs>
      <use xlink:href="#DejaVuSans-Bold-50"/>
     </g>
    </g>
   </g>
   <g id="line2d_25">
    <path d="M 65.672989 82.756864 
L 70.077381 85.997157 
L 74.481773 89.237449 
L 78.886164 92.477742 
L 83.290556 95.718034 
L 87.694948 98.958327 
L 92.09934 102.198619 
L 96.503731 105.438912 
L 100.908123 108.679204 
L 105.312515 111.919496 
L 109.716907 115.159789 
L 114.121298 118.400081 
L 118.52569 121.640374 
L 122.930082 124.880666 
L 127.334474 128.120959 
L 131.738865 131.361251 
L 136.143257 134.601544 
L 140.547649 137.841836 
L 144.952041 141.082129 
L 149.356432 144.322421 
L 153.760824 147.562714 
L 158.165216 150.803006 
L 162.569607 154.043299 
L 166.973999 157.283591 
L 171.378391 160.523884 
L 175.782783 163.764176 
L 180.187174 167.004468 
L 184.591566 170.244761 
L 188.995958 173.485053 
L 193.40035 176.725346 
L 197.804741 179.965638 
L 202.209133 183.205931 
L 206.613525 186.446223 
L 211.017917 189.686516 
L 215.422308 192.926808 
L 219.8267 196.167101 
L 224.231092 199.407393 
L 228.635484 202.647686 
L 233.039875 205.887978 
L 237.444267 209.128271 
L 241.848659 212.368563 
L 246.253051 215.608856 
L 250.657442 218.849148 
L 255.061834 222.08944 
L 259.466226 225.329733 
L 263.870618 228.570025 
L 268.275009 231.810318 
L 272.679401 235.05061 
L 277.083793 238.290903 
L 281.488185 241.531195 
L 285.892576 244.771488 
L 290.296968 248.01178 
L 294.70136 251.252073 
L 299.105752 254.492365 
L 303.510143 257.732658 
L 307.914535 260.97295 
L 312.318927 264.213243 
L 316.723319 267.453535 
L 321.12771 270.693828 
L 325.532102 273.93412 
L 329.936494 277.174412 
L 334.340885 280.414705 
L 338.745277 283.654997 
L 343.149669 286.89529 
L 347.554061 290.135582 
L 351.958452 293.375875 
L 356.362844 296.616167 
L 360.767236 299.85646 
L 365.171628 303.096752 
L 369.576019 306.337045 
L 373.980411 309.577337 
L 378.384803 312.81763 
L 382.789195 316.057922 
L 387.193586 319.298215 
L 391.597978 322.538507 
L 396.00237 325.7788 
L 400.406762 329.019092 
L 404.811153 332.259384 
L 409.215545 335.499677 
L 413.619937 338.739969 
L 418.024329 341.980262 
L 422.42872 345.220554 
L 426.833112 348.460847 
L 431.237504 351.701139 
L 435.641896 354.941432 
L 440.046287 358.181724 
L 444.450679 361.422017 
L 448.855071 364.662309 
L 453.259463 367.902602 
L 457.663854 371.142894 
L 462.068246 374.383187 
L 466.472638 377.623479 
L 470.87703 380.863772 
L 475.281421 384.104064 
L 479.685813 387.344356 
L 484.090205 390.584649 
L 488.494597 393.824941 
L 492.898988 397.065234 
L 497.30338 400.305526 
L 501.707772 403.545819 
" clip-path="url(#p0c9834081b)" style="fill: none; stroke: #c0392b; stroke-width: 3; stroke-linecap: square"/>
   </g>
   <g id="line2d_26">
    <path d="M 65.672989 371.466923 
L 70.077381 368.874689 
L 74.481773 366.282455 
L 78.886164 363.690221 
L 83.290556 361.097987 
L 87.694948 358.505754 
L 92.09934 355.91352 
L 96.503731 353.321286 
L 100.908123 350.729052 
L 105.312515 348.136818 
L 109.716907 345.544584 
L 114.121298 342.95235 
L 118.52569 340.360116 
L 122.930082 337.767882 
L 127.334474 335.175648 
L 131.738865 332.583414 
L 136.143257 329.99118 
L 140.547649 327.398946 
L 144.952041 324.806712 
L 149.356432 322.214478 
L 153.760824 319.622244 
L 158.165216 317.03001 
L 162.569607 314.437776 
L 166.973999 311.845542 
L 171.378391 309.253308 
L 175.782783 306.661074 
L 180.187174 304.06884 
L 184.591566 301.476606 
L 188.995958 298.884372 
L 193.40035 296.292138 
L 197.804741 293.699904 
L 202.209133 291.10767 
L 206.613525 288.515436 
L 211.017917 285.923202 
L 215.422308 283.330968 
L 219.8267 280.738734 
L 224.231092 278.1465 
L 228.635484 275.554266 
L 233.039875 272.962032 
L 237.444267 270.369798 
L 241.848659 267.777564 
L 246.253051 265.18533 
L 250.657442 262.593096 
L 255.061834 260.000862 
L 259.466226 257.408628 
L 263.870618 254.816394 
L 268.275009 252.22416 
L 272.679401 249.631926 
L 277.083793 247.039692 
L 281.488185 244.447459 
L 285.892576 241.855225 
L 290.296968 239.262991 
L 294.70136 236.670757 
L 299.105752 234.078523 
L 303.510143 231.486289 
L 307.914535 228.894055 
L 312.318927 226.301821 
L 316.723319 223.709587 
L 321.12771 221.117353 
L 325.532102 218.525119 
L 329.936494 215.932885 
L 334.340885 213.340651 
L 338.745277 210.748417 
L 343.149669 208.156183 
L 347.554061 205.563949 
L 351.958452 202.971715 
L 356.362844 200.379481 
L 360.767236 197.787247 
L 365.171628 195.195013 
L 369.576019 192.602779 
L 373.980411 190.010545 
L 378.384803 187.418311 
L 382.789195 184.826077 
L 387.193586 182.233843 
L 391.597978 179.641609 
L 396.00237 177.049375 
L 400.406762 174.457141 
L 404.811153 171.864907 
L 409.215545 169.272673 
L 413.619937 166.680439 
L 418.024329 164.088205 
L 422.42872 161.495971 
L 426.833112 158.903737 
L 431.237504 156.311503 
L 435.641896 153.719269 
L 440.046287 151.127035 
L 444.450679 148.534801 
L 448.855071 145.942567 
L 453.259463 143.350333 
L 457.663854 140.758099 
L 462.068246 138.165865 
L 466.472638 135.573631 
L 470.87703 132.981398 
L 475.281421 130.389164 
L 479.685813 127.79693 
L 484.090205 125.204696 
L 488.494597 122.612462 
L 492.898988 120.020228 
L 497.30338 117.427994 
L 501.707772 114.83576 
" clip-path="url(#p0c9834081b)" style="fill: none; stroke: #2980b9; stroke-width: 3; stroke-linecap: square"/>
   </g>
   <g id="line2d_27">
    <path d="M 65.672989 243.151342 
L 283.69038 243.151342 
" clip-path="url(#p0c9834081b)" style="fill: none; stroke-dasharray: 3.7,1.6; stroke-dashoffset: 0; stroke: #34495e"/>
   </g>
   <g id="line2d_28">
    <path d="M 283.69038 403.545819 
L 283.69038 243.151342 
" clip-path="url(#p0c9834081b)" style="fill: none; stroke-dasharray: 3.7,1.6; stroke-dashoffset: 0; stroke: #34495e"/>
   </g>
   <g id="line2d_29">
    <defs>
     <path id="m2e59c8e9eb" d="M 4 0 
L -4 -4 
L -4 4 
z
" style="stroke: #000000; stroke-linejoin: miter"/>
    </defs>
    <g>
     <use xlink:href="#m2e59c8e9eb" x="545.31125" y="403.545819" style="stroke: #000000; stroke-linejoin: miter"/>
    </g>
   </g>
   <g id="line2d_30">
    <defs>
     <path id="m79be1da58f" d="M 0 -4 
L -4 4 
L 4 4 
z
" style="stroke: #000000; stroke-linejoin: miter"/>
    </defs>
    <g>
     <use xlink:href="#m79be1da58f" x="65.672989" y="50.677969" style="stroke: #000000; stroke-linejoin: miter"/>
    </g>
   </g>
   <g id="patch_3">
    <path d="M 65.672989 426.001046 
L 65.672989 50.677969 
" style="fill: none; stroke: #000000; stroke-width: 1.4; stroke-linejoin: miter; stroke-linecap: square"/>
   </g>
   <g id="patch_4">
    <path d="M 43.87125 403.545819 
L 545.31125 403.545819 
" style="fill: none; stroke: #000000; stroke-width: 1.4; stroke-linejoin: miter; stroke-linecap: square"/>
   </g>
   <g id="text_15">
    <!-- (a) Mercado: D y S, equilibrio determina P* -->
    <g transform="translate(136.714375 38.677969) scale(0.13 -0.13)">
     <defs>
      <path id="DejaVuSans-Bold-4d" d="M 588 4666 
L 2119 4666 
L 3181 2169 
L 4250 4666 
L 5778 4666 
L 5778 0 
L 4641 0 
L 4641 3413 
L 3566 897 
L 2803 897 
L 1728 3413 
L 1728 0 
L 588 0 
L 588 4666 
z
" transform="scale(0.015625)"/>
      <path id="DejaVuSans-Bold-3a" d="M 716 3500 
L 1844 3500 
L 1844 2291 
L 716 2291 
L 716 3500 
z
M 716 1209 
L 1844 1209 
L 1844 0 
L 716 0 
L 716 1209 
z
" transform="scale(0.015625)"/>
      <path id="DejaVuSans-Bold-44" d="M 1791 3756 
L 1791 909 
L 2222 909 
Q 2959 909 3348 1275 
Q 3738 1641 3738 2338 
Q 3738 3031 3350 3393 
Q 2963 3756 2222 3756 
L 1791 3756 
z
M 588 4666 
L 1856 4666 
Q 2919 4666 3439 4514 
Q 3959 4363 4331 4000 
Q 4659 3684 4818 3271 
Q 4978 2859 4978 2338 
Q 4978 1809 4818 1395 
Q 4659 981 4331 666 
Q 3956 303 3431 151 
Q 2906 0 1856 0 
L 588 0 
L 588 4666 
z
" transform="scale(0.015625)"/>
      <path id="DejaVuSans-Bold-79" d="M 78 3500 
L 1197 3500 
L 2138 1125 
L 2938 3500 
L 4056 3500 
L 2584 -331 
Q 2363 -916 2067 -1148 
Q 1772 -1381 1288 -1381 
L 641 -1381 
L 641 -647 
L 991 -647 
Q 1275 -647 1404 -556 
Q 1534 -466 1606 -231 
L 1638 -134 
L 78 3500 
z
" transform="scale(0.015625)"/>
      <path id="DejaVuSans-Bold-53" d="M 3834 4519 
L 3834 3531 
Q 3450 3703 3084 3790 
Q 2719 3878 2394 3878 
Q 1963 3878 1756 3759 
Q 1550 3641 1550 3391 
Q 1550 3203 1689 3098 
Q 1828 2994 2194 2919 
L 2706 2816 
Q 3484 2659 3812 2340 
Q 4141 2022 4141 1434 
Q 4141 663 3683 286 
Q 3225 -91 2284 -91 
Q 1841 -91 1394 -6 
Q 947 78 500 244 
L 500 1259 
Q 947 1022 1364 901 
Q 1781 781 2169 781 
Q 2563 781 2772 912 
Q 2981 1044 2981 1288 
Q 2981 1506 2839 1625 
Q 2697 1744 2272 1838 
L 1806 1941 
Q 1106 2091 782 2419 
Q 459 2747 459 3303 
Q 459 4000 909 4375 
Q 1359 4750 2203 4750 
Q 2588 4750 2994 4692 
Q 3400 4634 3834 4519 
z
" transform="scale(0.015625)"/>
      <path id="DejaVuSans-Bold-2c" d="M 653 1209 
L 1778 1209 
L 1778 256 
L 1006 -909 
L 341 -909 
L 653 256 
L 653 1209 
z
" transform="scale(0.015625)"/>
      <path id="DejaVuSans-Bold-71" d="M 2181 2772 
Q 1825 2772 1636 2509 
Q 1447 2247 1447 1747 
Q 1447 1247 1636 984 
Q 1825 722 2181 722 
Q 2541 722 2730 984 
Q 2919 1247 2919 1747 
Q 2919 2247 2730 2509 
Q 2541 2772 2181 2772 
z
M 2919 506 
Q 2688 197 2409 53 
Q 2131 -91 1766 -91 
Q 1119 -91 703 423 
Q 288 938 288 1747 
Q 288 2556 703 3067 
Q 1119 3578 1766 3578 
Q 2131 3578 2409 3434 
Q 2688 3291 2919 2981 
L 2919 3500 
L 4044 3500 
L 4044 -1331 
L 2919 -1331 
L 2919 506 
z
" transform="scale(0.015625)"/>
      <path id="DejaVuSans-Bold-75" d="M 500 1363 
L 500 3500 
L 1625 3500 
L 1625 3150 
Q 1625 2866 1622 2436 
Q 1619 2006 1619 1863 
Q 1619 1441 1641 1255 
Q 1663 1069 1716 984 
Q 1784 875 1895 815 
Q 2006 756 2150 756 
Q 2500 756 2700 1025 
Q 2900 1294 2900 1772 
L 2900 3500 
L 4019 3500 
L 4019 0 
L 2900 0 
L 2900 506 
Q 2647 200 2364 54 
Q 2081 -91 1741 -91 
Q 1134 -91 817 281 
Q 500 653 500 1363 
z
" transform="scale(0.015625)"/>
      <path id="DejaVuSans-Bold-69" d="M 538 3500 
L 1656 3500 
L 1656 0 
L 538 0 
L 538 3500 
z
M 538 4863 
L 1656 4863 
L 1656 3950 
L 538 3950 
L 538 4863 
z
" transform="scale(0.015625)"/>
      <path id="DejaVuSans-Bold-6c" d="M 538 4863 
L 1656 4863 
L 1656 0 
L 538 0 
L 538 4863 
z
" transform="scale(0.015625)"/>
      <path id="DejaVuSans-Bold-62" d="M 2400 722 
Q 2759 722 2948 984 
Q 3138 1247 3138 1747 
Q 3138 2247 2948 2509 
Q 2759 2772 2400 2772 
Q 2041 2772 1848 2508 
Q 1656 2244 1656 1747 
Q 1656 1250 1848 986 
Q 2041 722 2400 722 
z
M 1656 2988 
Q 1888 3294 2169 3439 
Q 2450 3584 2816 3584 
Q 3463 3584 3878 3070 
Q 4294 2556 4294 1747 
Q 4294 938 3878 423 
Q 3463 -91 2816 -91 
Q 2450 -91 2169 54 
Q 1888 200 1656 506 
L 1656 0 
L 538 0 
L 538 4863 
L 1656 4863 
L 1656 2988 
z
" transform="scale(0.015625)"/>
      <path id="DejaVuSans-Bold-74" d="M 1759 4494 
L 1759 3500 
L 2913 3500 
L 2913 2700 
L 1759 2700 
L 1759 1216 
Q 1759 972 1856 886 
Q 1953 800 2241 800 
L 2816 800 
L 2816 0 
L 1856 0 
Q 1194 0 917 276 
Q 641 553 641 1216 
L 641 2700 
L 84 2700 
L 84 3500 
L 641 3500 
L 641 4494 
L 1759 4494 
z
" transform="scale(0.015625)"/>
      <path id="DejaVuSans-Bold-6e" d="M 4056 2131 
L 4056 0 
L 2931 0 
L 2931 347 
L 2931 1631 
Q 2931 2084 2911 2256 
Q 2891 2428 2841 2509 
Q 2775 2619 2662 2680 
Q 2550 2741 2406 2741 
Q 2056 2741 1856 2470 
Q 1656 2200 1656 1722 
L 1656 0 
L 538 0 
L 538 3500 
L 1656 3500 
L 1656 2988 
Q 1909 3294 2193 3439 
Q 2478 3584 2822 3584 
Q 3428 3584 3742 3212 
Q 4056 2841 4056 2131 
z
" transform="scale(0.015625)"/>
      <path id="DejaVuSans-Bold-2a" d="M 3219 3803 
L 2188 3263 
L 3219 2719 
L 2981 2278 
L 1941 2853 
L 1941 1778 
L 1409 1778 
L 1409 2853 
L 366 2278 
L 128 2719 
L 1172 3263 
L 128 3803 
L 366 4244 
L 1409 3675 
L 1409 4750 
L 1941 4750 
L 1941 3675 
L 2981 4244 
L 3219 3803 
z
" transform="scale(0.015625)"/>
     </defs>
     <use xlink:href="#DejaVuSans-Bold-28"/>
     <use xlink:href="#DejaVuSans-Bold-61" x="45.703125"/>
     <use xlink:href="#DejaVuSans-Bold-29" x="113.183594"/>
     <use xlink:href="#DejaVuSans-Bold-20" x="158.886719"/>
     <use xlink:href="#DejaVuSans-Bold-4d" x="193.701172"/>
     <use xlink:href="#DejaVuSans-Bold-65" x="293.212891"/>
     <use xlink:href="#DejaVuSans-Bold-72" x="361.035156"/>
     <use xlink:href="#DejaVuSans-Bold-63" x="410.351562"/>
     <use xlink:href="#DejaVuSans-Bold-61" x="469.628906"/>
     <use xlink:href="#DejaVuSans-Bold-64" x="537.109375"/>
     <use xlink:href="#DejaVuSans-Bold-6f" x="608.691406"/>
     <use xlink:href="#DejaVuSans-Bold-3a" x="677.392578"/>
     <use xlink:href="#DejaVuSans-Bold-20" x="717.382812"/>
     <use xlink:href="#DejaVuSans-Bold-44" x="752.197266"/>
     <use xlink:href="#DejaVuSans-Bold-20" x="835.205078"/>
     <use xlink:href="#DejaVuSans-Bold-79" x="870.019531"/>
     <use xlink:href="#DejaVuSans-Bold-20" x="935.205078"/>
     <use xlink:href="#DejaVuSans-Bold-53" x="970.019531"/>
     <use xlink:href="#DejaVuSans-Bold-2c" x="1042.041016"/>
     <use xlink:href="#DejaVuSans-Bold-20" x="1080.029297"/>
     <use xlink:href="#DejaVuSans-Bold-65" x="1114.84375"/>
     <use xlink:href="#DejaVuSans-Bold-71" x="1182.666016"/>
     <use xlink:href="#DejaVuSans-Bold-75" x="1254.248047"/>
     <use xlink:href="#DejaVuSans-Bold-69" x="1325.439453"/>
     <use xlink:href="#DejaVuSans-Bold-6c" x="1359.716797"/>
     <use xlink:href="#DejaVuSans-Bold-69" x="1393.994141"/>
     <use xlink:href="#DejaVuSans-Bold-62" x="1428.271484"/>
     <use xlink:href="#DejaVuSans-Bold-72" x="1499.853516"/>
     <use xlink:href="#DejaVuSans-Bold-69" x="1549.169922"/>
     <use xlink:href="#DejaVuSans-Bold-6f" x="1583.447266"/>
     <use xlink:href="#DejaVuSans-Bold-20" x="1652.148438"/>
     <use xlink:href="#DejaVuSans-Bold-64" x="1686.962891"/>
     <use xlink:href="#DejaVuSans-Bold-65" x="1758.544922"/>
     <use xlink:href="#DejaVuSans-Bold-74" x="1826.367188"/>
     <use xlink:href="#DejaVuSans-Bold-65" x="1874.169922"/>
     <use xlink:href="#DejaVuSans-Bold-72" x="1941.992188"/>
     <use xlink:href="#DejaVuSans-Bold-6d" x="1991.308594"/>
     <use xlink:href="#DejaVuSans-Bold-69" x="2095.507812"/>
     <use xlink:href="#DejaVuSans-Bold-6e" x="2129.785156"/>
     <use xlink:href="#DejaVuSans-Bold-61" x="2200.976562"/>
     <use xlink:href="#DejaVuSans-Bold-20" x="2268.457031"/>
     <use xlink:href="#DejaVuSans-Bold-50" x="2303.271484"/>
     <use xlink:href="#DejaVuSans-Bold-2a" x="2376.5625"/>
    </g>
   </g>
   <g id="legend_1">
    <g id="patch_5">
     <path d="M 50.87125 421.001046 
L 137.622813 421.001046 
Q 139.622813 421.001046 139.622813 419.001046 
L 139.622813 390.644796 
Q 139.622813 388.644796 137.622813 388.644796 
L 50.87125 388.644796 
Q 48.87125 388.644796 48.87125 390.644796 
L 48.87125 419.001046 
Q 48.87125 421.001046 50.87125 421.001046 
z
" style="fill: #ffffff; opacity: 0.8; stroke: #cccccc; stroke-linejoin: miter"/>
    </g>
    <g id="line2d_31">
     <path d="M 52.87125 396.743233 
L 62.87125 396.743233 
L 72.87125 396.743233 
" style="fill: none; stroke: #c0392b; stroke-width: 3; stroke-linecap: square"/>
    </g>
    <g id="text_16">
     <!-- D mercado -->
     <g transform="translate(80.87125 400.243233) scale(0.1 -0.1)">
      <defs>
       <path id="DejaVuSans-44" d="M 1259 4147 
L 1259 519 
L 2022 519 
Q 2988 519 3436 956 
Q 3884 1394 3884 2338 
Q 3884 3275 3436 3711 
Q 2988 4147 2022 4147 
L 1259 4147 
z
M 628 4666 
L 1925 4666 
Q 3281 4666 3915 4102 
Q 4550 3538 4550 2338 
Q 4550 1131 3912 565 
Q 3275 0 1925 0 
L 628 0 
L 628 4666 
z
" transform="scale(0.015625)"/>
       <path id="DejaVuSans-20" transform="scale(0.015625)"/>
       <path id="DejaVuSans-6d" d="M 3328 2828 
Q 3544 3216 3844 3400 
Q 4144 3584 4550 3584 
Q 5097 3584 5394 3201 
Q 5691 2819 5691 2113 
L 5691 0 
L 5113 0 
L 5113 2094 
Q 5113 2597 4934 2840 
Q 4756 3084 4391 3084 
Q 3944 3084 3684 2787 
Q 3425 2491 3425 1978 
L 3425 0 
L 2847 0 
L 2847 2094 
Q 2847 2600 2669 2842 
Q 2491 3084 2119 3084 
Q 1678 3084 1418 2786 
Q 1159 2488 1159 1978 
L 1159 0 
L 581 0 
L 581 3500 
L 1159 3500 
L 1159 2956 
Q 1356 3278 1631 3431 
Q 1906 3584 2284 3584 
Q 2666 3584 2933 3390 
Q 3200 3197 3328 2828 
z
" transform="scale(0.015625)"/>
       <path id="DejaVuSans-65" d="M 3597 1894 
L 3597 1613 
L 953 1613 
Q 991 1019 1311 708 
Q 1631 397 2203 397 
Q 2534 397 2845 478 
Q 3156 559 3463 722 
L 3463 178 
Q 3153 47 2828 -22 
Q 2503 -91 2169 -91 
Q 1331 -91 842 396 
Q 353 884 353 1716 
Q 353 2575 817 3079 
Q 1281 3584 2069 3584 
Q 2775 3584 3186 3129 
Q 3597 2675 3597 1894 
z
M 3022 2063 
Q 3016 2534 2758 2815 
Q 2500 3097 2075 3097 
Q 1594 3097 1305 2825 
Q 1016 2553 972 2059 
L 3022 2063 
z
" transform="scale(0.015625)"/>
       <path id="DejaVuSans-72" d="M 2631 2963 
Q 2534 3019 2420 3045 
Q 2306 3072 2169 3072 
Q 1681 3072 1420 2755 
Q 1159 2438 1159 1844 
L 1159 0 
L 581 0 
L 581 3500 
L 1159 3500 
L 1159 2956 
Q 1341 3275 1631 3429 
Q 1922 3584 2338 3584 
Q 2397 3584 2469 3576 
Q 2541 3569 2628 3553 
L 2631 2963 
z
" transform="scale(0.015625)"/>
       <path id="DejaVuSans-63" d="M 3122 3366 
L 3122 2828 
Q 2878 2963 2633 3030 
Q 2388 3097 2138 3097 
Q 1578 3097 1268 2742 
Q 959 2388 959 1747 
Q 959 1106 1268 751 
Q 1578 397 2138 397 
Q 2388 397 2633 464 
Q 2878 531 3122 666 
L 3122 134 
Q 2881 22 2623 -34 
Q 2366 -91 2075 -91 
Q 1284 -91 818 406 
Q 353 903 353 1747 
Q 353 2603 823 3093 
Q 1294 3584 2113 3584 
Q 2378 3584 2631 3529 
Q 2884 3475 3122 3366 
z
" transform="scale(0.015625)"/>
       <path id="DejaVuSans-61" d="M 2194 1759 
Q 1497 1759 1228 1600 
Q 959 1441 959 1056 
Q 959 750 1161 570 
Q 1363 391 1709 391 
Q 2188 391 2477 730 
Q 2766 1069 2766 1631 
L 2766 1759 
L 2194 1759 
z
M 3341 1997 
L 3341 0 
L 2766 0 
L 2766 531 
Q 2569 213 2275 61 
Q 1981 -91 1556 -91 
Q 1019 -91 701 211 
Q 384 513 384 1019 
Q 384 1609 779 1909 
Q 1175 2209 1959 2209 
L 2766 2209 
L 2766 2266 
Q 2766 2663 2505 2880 
Q 2244 3097 1772 3097 
Q 1472 3097 1187 3025 
Q 903 2953 641 2809 
L 641 3341 
Q 956 3463 1253 3523 
Q 1550 3584 1831 3584 
Q 2591 3584 2966 3190 
Q 3341 2797 3341 1997 
z
" transform="scale(0.015625)"/>
       <path id="DejaVuSans-64" d="M 2906 2969 
L 2906 4863 
L 3481 4863 
L 3481 0 
L 2906 0 
L 2906 525 
Q 2725 213 2448 61 
Q 2172 -91 1784 -91 
Q 1150 -91 751 415 
Q 353 922 353 1747 
Q 353 2572 751 3078 
Q 1150 3584 1784 3584 
Q 2172 3584 2448 3432 
Q 2725 3281 2906 2969 
z
M 947 1747 
Q 947 1113 1208 752 
Q 1469 391 1925 391 
Q 2381 391 2643 752 
Q 2906 1113 2906 1747 
Q 2906 2381 2643 2742 
Q 2381 3103 1925 3103 
Q 1469 3103 1208 2742 
Q 947 2381 947 1747 
z
" transform="scale(0.015625)"/>
       <path id="DejaVuSans-6f" d="M 1959 3097 
Q 1497 3097 1228 2736 
Q 959 2375 959 1747 
Q 959 1119 1226 758 
Q 1494 397 1959 397 
Q 2419 397 2687 759 
Q 2956 1122 2956 1747 
Q 2956 2369 2687 2733 
Q 2419 3097 1959 3097 
z
M 1959 3584 
Q 2709 3584 3137 3096 
Q 3566 2609 3566 1747 
Q 3566 888 3137 398 
Q 2709 -91 1959 -91 
Q 1206 -91 779 398 
Q 353 888 353 1747 
Q 353 2609 779 3096 
Q 1206 3584 1959 3584 
z
" transform="scale(0.015625)"/>
      </defs>
      <use xlink:href="#DejaVuSans-44"/>
      <use xlink:href="#DejaVuSans-20" x="77.001953"/>
      <use xlink:href="#DejaVuSans-6d" x="108.789062"/>
      <use xlink:href="#DejaVuSans-65" x="206.201172"/>
      <use xlink:href="#DejaVuSans-72" x="267.724609"/>
      <use xlink:href="#DejaVuSans-63" x="306.587891"/>
      <use xlink:href="#DejaVuSans-61" x="361.568359"/>
      <use xlink:href="#DejaVuSans-64" x="422.847656"/>
      <use xlink:href="#DejaVuSans-6f" x="486.324219"/>
     </g>
    </g>
    <g id="line2d_32">
     <path d="M 52.87125 411.421358 
L 62.87125 411.421358 
L 72.87125 411.421358 
" style="fill: none; stroke: #2980b9; stroke-width: 3; stroke-linecap: square"/>
    </g>
    <g id="text_17">
     <!-- S mercado -->
     <g transform="translate(80.87125 414.921358) scale(0.1 -0.1)">
      <defs>
       <path id="DejaVuSans-53" d="M 3425 4513 
L 3425 3897 
Q 3066 4069 2747 4153 
Q 2428 4238 2131 4238 
Q 1616 4238 1336 4038 
Q 1056 3838 1056 3469 
Q 1056 3159 1242 3001 
Q 1428 2844 1947 2747 
L 2328 2669 
Q 3034 2534 3370 2195 
Q 3706 1856 3706 1288 
Q 3706 609 3251 259 
Q 2797 -91 1919 -91 
Q 1588 -91 1214 -16 
Q 841 59 441 206 
L 441 856 
Q 825 641 1194 531 
Q 1563 422 1919 422 
Q 2459 422 2753 634 
Q 3047 847 3047 1241 
Q 3047 1584 2836 1778 
Q 2625 1972 2144 2069 
L 1759 2144 
Q 1053 2284 737 2584 
Q 422 2884 422 3419 
Q 422 4038 858 4394 
Q 1294 4750 2059 4750 
Q 2388 4750 2728 4690 
Q 3069 4631 3425 4513 
z
" transform="scale(0.015625)"/>
      </defs>
      <use xlink:href="#DejaVuSans-53"/>
      <use xlink:href="#DejaVuSans-20" x="63.476562"/>
      <use xlink:href="#DejaVuSans-6d" x="95.263672"/>
      <use xlink:href="#DejaVuSans-65" x="192.675781"/>
      <use xlink:href="#DejaVuSans-72" x="254.199219"/>
      <use xlink:href="#DejaVuSans-63" x="293.0625"/>
      <use xlink:href="#DejaVuSans-61" x="348.042969"/>
      <use xlink:href="#DejaVuSans-64" x="409.322266"/>
      <use xlink:href="#DejaVuSans-6f" x="472.798828"/>
     </g>
    </g>
   </g>
   <g id="line2d_33">
    <defs>
     <path id="m5e635df8be" d="M 0 5.5 
C 1.458617 5.5 2.857689 4.920485 3.889087 3.889087 
C 4.920485 2.857689 5.5 1.458617 5.5 0 
C 5.5 -1.458617 4.920485 -2.857689 3.889087 -3.889087 
C 2.857689 -4.920485 1.458617 -5.5 0 -5.5 
C -1.458617 -5.5 -2.857689 -4.920485 -3.889087 -3.889087 
C -4.920485 -2.857689 -5.5 -1.458617 -5.5 0 
C -5.5 1.458617 -4.920485 2.857689 -3.889087 3.889087 
C -2.857689 4.920485 -1.458617 5.5 0 5.5 
z
" style="stroke: #000000"/>
    </defs>
    <g clip-path="url(#p0c9834081b)">
     <use xlink:href="#m5e635df8be" x="283.69038" y="243.151342" style="stroke: #000000"/>
    </g>
   </g>
   <g id="text_18">
    <!-- P* -->
    <g style="fill: #34495e" transform="translate(28.8 246.462592) scale(0.12 -0.12)">
     <use xlink:href="#DejaVuSans-Bold-50"/>
     <use xlink:href="#DejaVuSans-Bold-2a" x="73.291016"/>
    </g>
   </g>
   <g id="text_19">
    <!-- Q* -->
    <g style="fill: #34495e" transform="translate(275.45163 431.911281) scale(0.12 -0.12)">
     <use xlink:href="#DejaVuSans-Bold-51"/>
     <use xlink:href="#DejaVuSans-Bold-2a" x="85.009766"/>
    </g>
   </g>
   <g id="text_20">
    <g id="patch_6">
     <path d="M 301.131772 237.015408 
L 309.329272 237.015408 
Q 313.529272 237.015408 313.529272 232.815408 
L 313.529272 221.201658 
Q 313.529272 217.001658 309.329272 217.001658 
L 301.131772 217.001658 
Q 296.931772 217.001658 296.931772 221.201658 
L 296.931772 232.815408 
Q 296.931772 237.015408 301.131772 237.015408 
z
" style="fill: #ffffff; opacity: 0.97; stroke: #bdc3c7; stroke-width: 0.8; stroke-linejoin: miter"/>
    </g>
    <!-- E -->
    <g transform="translate(301.131772 230.319783) scale(0.12 -0.12)">
     <defs>
      <path id="DejaVuSans-Bold-45" d="M 588 4666 
L 3834 4666 
L 3834 3756 
L 1791 3756 
L 1791 2888 
L 3713 2888 
L 3713 1978 
L 1791 1978 
L 1791 909 
L 3903 909 
L 3903 0 
L 588 0 
L 588 4666 
z
" transform="scale(0.015625)"/>
     </defs>
     <use xlink:href="#DejaVuSans-Bold-45"/>
    </g>
   </g>
  </g>
  <g id="axes_2">
   <g id="patch_7">
    <path d="M 577.39125 426.001046 
L 1078.83125 426.001046 
L 1078.83125 50.677969 
L 577.39125 50.677969 
z
" style="fill: #ffffff"/>
   </g>
   <g id="PolyCollection_1">
    <defs>
     <path id="m215ca288af" d="M 599.192989 -220.055565 
L 599.192989 -59.661087 
L 1035.227772 -59.661087 
L 1035.227772 -220.055565 
L 1035.227772 -220.055565 
L 599.192989 -220.055565 
z
" style="stroke: #c0392b; stroke-opacity: 0.05"/>
    </defs>
    <g clip-path="url(#p0395b1da67)">
     <use xlink:href="#m215ca288af" x="0" y="463.206906" style="fill: #c0392b; fill-opacity: 0.05; stroke: #c0392b; stroke-opacity: 0.05"/>
    </g>
   </g>
   <g id="matplotlib.axis_3">
    <g id="xtick_7">
     <g id="line2d_34">
      <path d="M 599.192989 426.001046 
L 599.192989 50.677969 
" clip-path="url(#p0395b1da67)" style="fill: none; stroke-dasharray: 0.8,1.32; stroke-dashoffset: 0; stroke: #b0b0b0; stroke-opacity: 0.4; stroke-width: 0.8"/>
     </g>
     <g id="line2d_35">
      <g>
       <use xlink:href="#mfc8b492241" x="599.192989" y="403.545819" style="stroke: #000000"/>
      </g>
     </g>
     <g id="text_21">
      <!-- 0 -->
      <g transform="translate(596.011739 414.644256) scale(0.1 -0.1)">
       <use xlink:href="#DejaVuSans-30"/>
      </g>
     </g>
    </g>
    <g id="xtick_8">
     <g id="line2d_36">
      <path d="M 686.399946 426.001046 
L 686.399946 50.677969 
" clip-path="url(#p0395b1da67)" style="fill: none; stroke-dasharray: 0.8,1.32; stroke-dashoffset: 0; stroke: #b0b0b0; stroke-opacity: 0.4; stroke-width: 0.8"/>
     </g>
     <g id="line2d_37">
      <g>
       <use xlink:href="#mfc8b492241" x="686.399946" y="403.545819" style="stroke: #000000"/>
      </g>
     </g>
     <g id="text_22">
      <!-- 2 -->
      <g transform="translate(683.218696 414.644256) scale(0.1 -0.1)">
       <use xlink:href="#DejaVuSans-32"/>
      </g>
     </g>
    </g>
    <g id="xtick_9">
     <g id="line2d_38">
      <path d="M 773.606902 426.001046 
L 773.606902 50.677969 
" clip-path="url(#p0395b1da67)" style="fill: none; stroke-dasharray: 0.8,1.32; stroke-dashoffset: 0; stroke: #b0b0b0; stroke-opacity: 0.4; stroke-width: 0.8"/>
     </g>
     <g id="line2d_39">
      <g>
       <use xlink:href="#mfc8b492241" x="773.606902" y="403.545819" style="stroke: #000000"/>
      </g>
     </g>
     <g id="text_23">
      <!-- 4 -->
      <g transform="translate(770.425652 414.644256) scale(0.1 -0.1)">
       <use xlink:href="#DejaVuSans-34"/>
      </g>
     </g>
    </g>
    <g id="xtick_10">
     <g id="line2d_40">
      <path d="M 860.813859 426.001046 
L 860.813859 50.677969 
" clip-path="url(#p0395b1da67)" style="fill: none; stroke-dasharray: 0.8,1.32; stroke-dashoffset: 0; stroke: #b0b0b0; stroke-opacity: 0.4; stroke-width: 0.8"/>
     </g>
     <g id="line2d_41">
      <g>
       <use xlink:href="#mfc8b492241" x="860.813859" y="403.545819" style="stroke: #000000"/>
      </g>
     </g>
     <g id="text_24">
      <!-- 6 -->
      <g transform="translate(857.632609 414.644256) scale(0.1 -0.1)">
       <use xlink:href="#DejaVuSans-36"/>
      </g>
     </g>
    </g>
    <g id="xtick_11">
     <g id="line2d_42">
      <path d="M 948.020815 426.001046 
L 948.020815 50.677969 
" clip-path="url(#p0395b1da67)" style="fill: none; stroke-dasharray: 0.8,1.32; stroke-dashoffset: 0; stroke: #b0b0b0; stroke-opacity: 0.4; stroke-width: 0.8"/>
     </g>
     <g id="line2d_43">
      <g>
       <use xlink:href="#mfc8b492241" x="948.020815" y="403.545819" style="stroke: #000000"/>
      </g>
     </g>
     <g id="text_25">
      <!-- 8 -->
      <g transform="translate(944.839565 414.644256) scale(0.1 -0.1)">
       <use xlink:href="#DejaVuSans-38"/>
      </g>
     </g>
    </g>
    <g id="xtick_12">
     <g id="line2d_44">
      <path d="M 1035.227772 426.001046 
L 1035.227772 50.677969 
" clip-path="url(#p0395b1da67)" style="fill: none; stroke-dasharray: 0.8,1.32; stroke-dashoffset: 0; stroke: #b0b0b0; stroke-opacity: 0.4; stroke-width: 0.8"/>
     </g>
     <g id="line2d_45">
      <g>
       <use xlink:href="#mfc8b492241" x="1035.227772" y="403.545819" style="stroke: #000000"/>
      </g>
     </g>
     <g id="text_26">
      <!-- 10 -->
      <g transform="translate(1028.865272 414.644256) scale(0.1 -0.1)">
       <use xlink:href="#DejaVuSans-31"/>
       <use xlink:href="#DejaVuSans-30" x="63.623047"/>
      </g>
     </g>
    </g>
    <g id="text_27">
     <!-- q (empresa) -->
     <g transform="translate(996.565625 423.842069) scale(0.12 -0.12)">
      <defs>
       <path id="DejaVuSans-Bold-70" d="M 1656 506 
L 1656 -1331 
L 538 -1331 
L 538 3500 
L 1656 3500 
L 1656 2988 
Q 1888 3294 2169 3439 
Q 2450 3584 2816 3584 
Q 3463 3584 3878 3070 
Q 4294 2556 4294 1747 
Q 4294 938 3878 423 
Q 3463 -91 2816 -91 
Q 2450 -91 2169 54 
Q 1888 200 1656 506 
z
M 2400 2772 
Q 2041 2772 1848 2508 
Q 1656 2244 1656 1747 
Q 1656 1250 1848 986 
Q 2041 722 2400 722 
Q 2759 722 2948 984 
Q 3138 1247 3138 1747 
Q 3138 2247 2948 2509 
Q 2759 2772 2400 2772 
z
" transform="scale(0.015625)"/>
       <path id="DejaVuSans-Bold-73" d="M 3272 3391 
L 3272 2541 
Q 2913 2691 2578 2766 
Q 2244 2841 1947 2841 
Q 1628 2841 1473 2761 
Q 1319 2681 1319 2516 
Q 1319 2381 1436 2309 
Q 1553 2238 1856 2203 
L 2053 2175 
Q 2913 2066 3209 1816 
Q 3506 1566 3506 1031 
Q 3506 472 3093 190 
Q 2681 -91 1863 -91 
Q 1516 -91 1145 -36 
Q 775 19 384 128 
L 384 978 
Q 719 816 1070 734 
Q 1422 653 1784 653 
Q 2113 653 2278 743 
Q 2444 834 2444 1013 
Q 2444 1163 2330 1236 
Q 2216 1309 1875 1350 
L 1678 1375 
Q 931 1469 631 1722 
Q 331 1975 331 2491 
Q 331 3047 712 3315 
Q 1094 3584 1881 3584 
Q 2191 3584 2531 3537 
Q 2872 3491 3272 3391 
z
" transform="scale(0.015625)"/>
      </defs>
      <use xlink:href="#DejaVuSans-Bold-71"/>
      <use xlink:href="#DejaVuSans-Bold-20" x="71.582031"/>
      <use xlink:href="#DejaVuSans-Bold-28" x="106.396484"/>
      <use xlink:href="#DejaVuSans-Bold-65" x="152.099609"/>
      <use xlink:href="#DejaVuSans-Bold-6d" x="219.921875"/>
      <use xlink:href="#DejaVuSans-Bold-70" x="324.121094"/>
      <use xlink:href="#DejaVuSans-Bold-72" x="395.703125"/>
      <use xlink:href="#DejaVuSans-Bold-65" x="445.019531"/>
      <use xlink:href="#DejaVuSans-Bold-73" x="512.841797"/>
      <use xlink:href="#DejaVuSans-Bold-61" x="572.363281"/>
      <use xlink:href="#DejaVuSans-Bold-29" x="639.84375"/>
     </g>
    </g>
   </g>
   <g id="matplotlib.axis_4">
    <g id="ytick_7">
     <g id="line2d_46">
      <path d="M 577.39125 403.545819 
L 1078.83125 403.545819 
" clip-path="url(#p0395b1da67)" style="fill: none; stroke-dasharray: 0.8,1.32; stroke-dashoffset: 0; stroke: #b0b0b0; stroke-opacity: 0.4; stroke-width: 0.8"/>
     </g>
     <g id="line2d_47">
      <g>
       <use xlink:href="#m3deddee909" x="599.192989" y="403.545819" style="stroke: #000000"/>
      </g>
     </g>
     <g id="text_28">
      <!-- 0 -->
      <g transform="translate(589.330489 407.345038) scale(0.1 -0.1)">
       <use xlink:href="#DejaVuSans-30"/>
      </g>
     </g>
    </g>
    <g id="ytick_8">
     <g id="line2d_48">
      <path d="M 577.39125 339.388028 
L 1078.83125 339.388028 
" clip-path="url(#p0395b1da67)" style="fill: none; stroke-dasharray: 0.8,1.32; stroke-dashoffset: 0; stroke: #b0b0b0; stroke-opacity: 0.4; stroke-width: 0.8"/>
     </g>
     <g id="line2d_49">
      <g>
       <use xlink:href="#m3deddee909" x="599.192989" y="339.388028" style="stroke: #000000"/>
      </g>
     </g>
     <g id="text_29">
      <!-- 2 -->
      <g transform="translate(589.330489 343.187247) scale(0.1 -0.1)">
       <use xlink:href="#DejaVuSans-32"/>
      </g>
     </g>
    </g>
    <g id="ytick_9">
     <g id="line2d_50">
      <path d="M 577.39125 275.230237 
L 1078.83125 275.230237 
" clip-path="url(#p0395b1da67)" style="fill: none; stroke-dasharray: 0.8,1.32; stroke-dashoffset: 0; stroke: #b0b0b0; stroke-opacity: 0.4; stroke-width: 0.8"/>
     </g>
     <g id="line2d_51">
      <g>
       <use xlink:href="#m3deddee909" x="599.192989" y="275.230237" style="stroke: #000000"/>
      </g>
     </g>
     <g id="text_30">
      <!-- 4 -->
      <g transform="translate(589.330489 279.029456) scale(0.1 -0.1)">
       <use xlink:href="#DejaVuSans-34"/>
      </g>
     </g>
    </g>
    <g id="ytick_10">
     <g id="line2d_52">
      <path d="M 577.39125 211.072446 
L 1078.83125 211.072446 
" clip-path="url(#p0395b1da67)" style="fill: none; stroke-dasharray: 0.8,1.32; stroke-dashoffset: 0; stroke: #b0b0b0; stroke-opacity: 0.4; stroke-width: 0.8"/>
     </g>
     <g id="line2d_53">
      <g>
       <use xlink:href="#m3deddee909" x="599.192989" y="211.072446" style="stroke: #000000"/>
      </g>
     </g>
     <g id="text_31">
      <!-- 6 -->
      <g transform="translate(589.330489 214.871665) scale(0.1 -0.1)">
       <use xlink:href="#DejaVuSans-36"/>
      </g>
     </g>
    </g>
    <g id="ytick_11">
     <g id="line2d_54">
      <path d="M 577.39125 146.914655 
L 1078.83125 146.914655 
" clip-path="url(#p0395b1da67)" style="fill: none; stroke-dasharray: 0.8,1.32; stroke-dashoffset: 0; stroke: #b0b0b0; stroke-opacity: 0.4; stroke-width: 0.8"/>
     </g>
     <g id="line2d_55">
      <g>
       <use xlink:href="#m3deddee909" x="599.192989" y="146.914655" style="stroke: #000000"/>
      </g>
     </g>
     <g id="text_32">
      <!-- 8 -->
      <g transform="translate(589.330489 150.713874) scale(0.1 -0.1)">
       <use xlink:href="#DejaVuSans-38"/>
      </g>
     </g>
    </g>
    <g id="ytick_12">
     <g id="line2d_56">
      <path d="M 577.39125 82.756864 
L 1078.83125 82.756864 
" clip-path="url(#p0395b1da67)" style="fill: none; stroke-dasharray: 0.8,1.32; stroke-dashoffset: 0; stroke: #b0b0b0; stroke-opacity: 0.4; stroke-width: 0.8"/>
     </g>
     <g id="line2d_57">
      <g>
       <use xlink:href="#m3deddee909" x="599.192989" y="82.756864" style="stroke: #000000"/>
      </g>
     </g>
     <g id="text_33">
      <!-- 10 -->
      <g transform="translate(582.967989 86.556083) scale(0.1 -0.1)">
       <use xlink:href="#DejaVuSans-31"/>
       <use xlink:href="#DejaVuSans-30" x="63.623047"/>
      </g>
     </g>
    </g>
    <g id="text_34">
     <!-- P -->
     <g transform="translate(576.172364 48.182344) scale(0.12 -0.12)">
      <use xlink:href="#DejaVuSans-Bold-50"/>
     </g>
    </g>
   </g>
   <g id="line2d_58">
    <path d="M 577.39125 243.151342 
L 1078.83125 243.151342 
" clip-path="url(#p0395b1da67)" style="fill: none; stroke: #c0392b; stroke-width: 3.5; stroke-linecap: square"/>
   </g>
   <g id="line2d_59">
    <g>
     <use xlink:href="#m2e59c8e9eb" x="1078.83125" y="403.545819" style="stroke: #000000; stroke-linejoin: miter"/>
    </g>
   </g>
   <g id="line2d_60">
    <g>
     <use xlink:href="#m79be1da58f" x="599.192989" y="50.677969" style="stroke: #000000; stroke-linejoin: miter"/>
    </g>
   </g>
   <g id="patch_8">
    <path d="M 599.192989 426.001046 
L 599.192989 50.677969 
" style="fill: none; stroke: #000000; stroke-width: 1.4; stroke-linejoin: miter; stroke-linecap: square"/>
   </g>
   <g id="patch_9">
    <path d="M 577.39125 403.545819 
L 1078.83125 403.545819 
" style="fill: none; stroke: #000000; stroke-width: 1.4; stroke-linejoin: miter; stroke-linecap: square"/>
   </g>
   <g id="text_35">
    <!-- (b) Empresa precio-aceptante: demanda HORIZONTAL -->
    <g transform="translate(630.625 38.677969) scale(0.13 -0.13)">
     <defs>
      <path id="DejaVuSans-Bold-2d" d="M 347 2297 
L 2309 2297 
L 2309 1388 
L 347 1388 
L 347 2297 
z
" transform="scale(0.015625)"/>
      <path id="DejaVuSans-Bold-48" d="M 588 4666 
L 1791 4666 
L 1791 2888 
L 3566 2888 
L 3566 4666 
L 4769 4666 
L 4769 0 
L 3566 0 
L 3566 1978 
L 1791 1978 
L 1791 0 
L 588 0 
L 588 4666 
z
" transform="scale(0.015625)"/>
      <path id="DejaVuSans-Bold-4f" d="M 2719 3878 
Q 2169 3878 1866 3472 
Q 1563 3066 1563 2328 
Q 1563 1594 1866 1187 
Q 2169 781 2719 781 
Q 3272 781 3575 1187 
Q 3878 1594 3878 2328 
Q 3878 3066 3575 3472 
Q 3272 3878 2719 3878 
z
M 2719 4750 
Q 3844 4750 4481 4106 
Q 5119 3463 5119 2328 
Q 5119 1197 4481 553 
Q 3844 -91 2719 -91 
Q 1597 -91 958 553 
Q 319 1197 319 2328 
Q 319 3463 958 4106 
Q 1597 4750 2719 4750 
z
" transform="scale(0.015625)"/>
      <path id="DejaVuSans-Bold-52" d="M 2297 2597 
Q 2675 2597 2839 2737 
Q 3003 2878 3003 3200 
Q 3003 3519 2839 3656 
Q 2675 3794 2297 3794 
L 1791 3794 
L 1791 2597 
L 2297 2597 
z
M 1791 1766 
L 1791 0 
L 588 0 
L 588 4666 
L 2425 4666 
Q 3347 4666 3776 4356 
Q 4206 4047 4206 3378 
Q 4206 2916 3982 2619 
Q 3759 2322 3309 2181 
Q 3556 2125 3751 1926 
Q 3947 1728 4147 1325 
L 4800 0 
L 3519 0 
L 2950 1159 
Q 2778 1509 2601 1637 
Q 2425 1766 2131 1766 
L 1791 1766 
z
" transform="scale(0.015625)"/>
      <path id="DejaVuSans-Bold-49" d="M 588 4666 
L 1791 4666 
L 1791 0 
L 588 0 
L 588 4666 
z
" transform="scale(0.015625)"/>
      <path id="DejaVuSans-Bold-5a" d="M 359 4666 
L 4281 4666 
L 4281 3938 
L 1778 909 
L 4353 909 
L 4353 0 
L 288 0 
L 288 728 
L 2791 3756 
L 359 3756 
L 359 4666 
z
" transform="scale(0.015625)"/>
      <path id="DejaVuSans-Bold-4e" d="M 588 4666 
L 1931 4666 
L 3628 1466 
L 3628 4666 
L 4769 4666 
L 4769 0 
L 3425 0 
L 1728 3200 
L 1728 0 
L 588 0 
L 588 4666 
z
" transform="scale(0.015625)"/>
      <path id="DejaVuSans-Bold-54" d="M 31 4666 
L 4331 4666 
L 4331 3756 
L 2784 3756 
L 2784 0 
L 1581 0 
L 1581 3756 
L 31 3756 
L 31 4666 
z
" transform="scale(0.015625)"/>
      <path id="DejaVuSans-Bold-41" d="M 3419 850 
L 1538 850 
L 1241 0 
L 31 0 
L 1759 4666 
L 3194 4666 
L 4922 0 
L 3713 0 
L 3419 850 
z
M 1838 1716 
L 3116 1716 
L 2478 3572 
L 1838 1716 
z
" transform="scale(0.015625)"/>
      <path id="DejaVuSans-Bold-4c" d="M 588 4666 
L 1791 4666 
L 1791 909 
L 3903 909 
L 3903 0 
L 588 0 
L 588 4666 
z
" transform="scale(0.015625)"/>
     </defs>
     <use xlink:href="#DejaVuSans-Bold-28"/>
     <use xlink:href="#DejaVuSans-Bold-62" x="45.703125"/>
     <use xlink:href="#DejaVuSans-Bold-29" x="117.285156"/>
     <use xlink:href="#DejaVuSans-Bold-20" x="162.988281"/>
     <use xlink:href="#DejaVuSans-Bold-45" x="197.802734"/>
     <use xlink:href="#DejaVuSans-Bold-6d" x="266.113281"/>
     <use xlink:href="#DejaVuSans-Bold-70" x="370.3125"/>
     <use xlink:href="#DejaVuSans-Bold-72" x="441.894531"/>
     <use xlink:href="#DejaVuSans-Bold-65" x="491.210938"/>
     <use xlink:href="#DejaVuSans-Bold-73" x="559.033203"/>
     <use xlink:href="#DejaVuSans-Bold-61" x="618.554688"/>
     <use xlink:href="#DejaVuSans-Bold-20" x="686.035156"/>
     <use xlink:href="#DejaVuSans-Bold-70" x="720.849609"/>
     <use xlink:href="#DejaVuSans-Bold-72" x="792.431641"/>
     <use xlink:href="#DejaVuSans-Bold-65" x="841.748047"/>
     <use xlink:href="#DejaVuSans-Bold-63" x="909.570312"/>
     <use xlink:href="#DejaVuSans-Bold-69" x="968.847656"/>
     <use xlink:href="#DejaVuSans-Bold-6f" x="1003.125"/>
     <use xlink:href="#DejaVuSans-Bold-2d" x="1071.826172"/>
     <use xlink:href="#DejaVuSans-Bold-61" x="1113.330078"/>
     <use xlink:href="#DejaVuSans-Bold-63" x="1180.810547"/>
     <use xlink:href="#DejaVuSans-Bold-65" x="1240.087891"/>
     <use xlink:href="#DejaVuSans-Bold-70" x="1307.910156"/>
     <use xlink:href="#DejaVuSans-Bold-74" x="1379.492188"/>
     <use xlink:href="#DejaVuSans-Bold-61" x="1427.294922"/>
     <use xlink:href="#DejaVuSans-Bold-6e" x="1494.775391"/>
     <use xlink:href="#DejaVuSans-Bold-74" x="1565.966797"/>
     <use xlink:href="#DejaVuSans-Bold-65" x="1613.769531"/>
     <use xlink:href="#DejaVuSans-Bold-3a" x="1681.591797"/>
     <use xlink:href="#DejaVuSans-Bold-20" x="1721.582031"/>
     <use xlink:href="#DejaVuSans-Bold-64" x="1756.396484"/>
     <use xlink:href="#DejaVuSans-Bold-65" x="1827.978516"/>
     <use xlink:href="#DejaVuSans-Bold-6d" x="1895.800781"/>
     <use xlink:href="#DejaVuSans-Bold-61" x="2000"/>
     <use xlink:href="#DejaVuSans-Bold-6e" x="2067.480469"/>
     <use xlink:href="#DejaVuSans-Bold-64" x="2138.671875"/>
     <use xlink:href="#DejaVuSans-Bold-61" x="2210.253906"/>
     <use xlink:href="#DejaVuSans-Bold-20" x="2277.734375"/>
     <use xlink:href="#DejaVuSans-Bold-48" x="2312.548828"/>
     <use xlink:href="#DejaVuSans-Bold-4f" x="2396.240234"/>
     <use xlink:href="#DejaVuSans-Bold-52" x="2481.25"/>
     <use xlink:href="#DejaVuSans-Bold-49" x="2558.251953"/>
     <use xlink:href="#DejaVuSans-Bold-5a" x="2595.458984"/>
     <use xlink:href="#DejaVuSans-Bold-4f" x="2667.96875"/>
     <use xlink:href="#DejaVuSans-Bold-4e" x="2752.978516"/>
     <use xlink:href="#DejaVuSans-Bold-54" x="2836.669922"/>
     <use xlink:href="#DejaVuSans-Bold-41" x="2897.132812"/>
     <use xlink:href="#DejaVuSans-Bold-4c" x="2974.525391"/>
    </g>
   </g>
   <g id="text_36">
    <g id="patch_10">
     <path d="M 883.80394 227.48549 
L 1012.23769 227.48549 
Q 1016.43769 227.48549 1016.43769 223.28549 
L 1016.43769 211.57799 
Q 1016.43769 207.37799 1012.23769 207.37799 
L 883.80394 207.37799 
Q 879.60394 207.37799 879.60394 211.57799 
L 879.60394 223.28549 
Q 879.60394 227.48549 883.80394 227.48549 
z
" style="fill: #ffffff; opacity: 0.97; stroke: #bdc3c7; stroke-width: 0.8; stroke-linejoin: miter"/>
    </g>
    <!-- d = P* = IMg = IMe -->
    <g style="fill: #c0392b" transform="translate(883.80394 220.696115) scale(0.12 -0.12)">
     <defs>
      <path id="DejaVuSans-Bold-3d" d="M 678 3084 
L 4684 3084 
L 4684 2350 
L 678 2350 
L 678 3084 
z
M 678 1663 
L 4684 1663 
L 4684 922 
L 678 922 
L 678 1663 
z
" transform="scale(0.015625)"/>
      <path id="DejaVuSans-Bold-67" d="M 2919 594 
Q 2688 288 2409 144 
Q 2131 0 1766 0 
Q 1125 0 706 504 
Q 288 1009 288 1791 
Q 288 2575 706 3076 
Q 1125 3578 1766 3578 
Q 2131 3578 2409 3434 
Q 2688 3291 2919 2981 
L 2919 3500 
L 4044 3500 
L 4044 353 
Q 4044 -491 3511 -936 
Q 2978 -1381 1966 -1381 
Q 1638 -1381 1331 -1331 
Q 1025 -1281 716 -1178 
L 716 -306 
Q 1009 -475 1290 -558 
Q 1572 -641 1856 -641 
Q 2406 -641 2662 -400 
Q 2919 -159 2919 353 
L 2919 594 
z
M 2181 2772 
Q 1834 2772 1640 2515 
Q 1447 2259 1447 1791 
Q 1447 1309 1634 1061 
Q 1822 813 2181 813 
Q 2531 813 2725 1069 
Q 2919 1325 2919 1791 
Q 2919 2259 2725 2515 
Q 2531 2772 2181 2772 
z
" transform="scale(0.015625)"/>
     </defs>
     <use xlink:href="#DejaVuSans-Bold-64"/>
     <use xlink:href="#DejaVuSans-Bold-20" x="71.582031"/>
     <use xlink:href="#DejaVuSans-Bold-3d" x="106.396484"/>
     <use xlink:href="#DejaVuSans-Bold-20" x="190.185547"/>
     <use xlink:href="#DejaVuSans-Bold-50" x="225"/>
     <use xlink:href="#DejaVuSans-Bold-2a" x="298.291016"/>
     <use xlink:href="#DejaVuSans-Bold-20" x="350.585938"/>
     <use xlink:href="#DejaVuSans-Bold-3d" x="385.400391"/>
     <use xlink:href="#DejaVuSans-Bold-20" x="469.189453"/>
     <use xlink:href="#DejaVuSans-Bold-49" x="504.003906"/>
     <use xlink:href="#DejaVuSans-Bold-4d" x="541.210938"/>
     <use xlink:href="#DejaVuSans-Bold-67" x="640.722656"/>
     <use xlink:href="#DejaVuSans-Bold-20" x="712.304688"/>
     <use xlink:href="#DejaVuSans-Bold-3d" x="747.119141"/>
     <use xlink:href="#DejaVuSans-Bold-20" x="830.908203"/>
     <use xlink:href="#DejaVuSans-Bold-49" x="865.722656"/>
     <use xlink:href="#DejaVuSans-Bold-4d" x="902.929688"/>
     <use xlink:href="#DejaVuSans-Bold-65" x="1002.441406"/>
    </g>
   </g>
   <g id="text_37">
    <!-- P* -->
    <g style="fill: #34495e" transform="translate(562.32 246.462592) scale(0.12 -0.12)">
     <use xlink:href="#DejaVuSans-Bold-50"/>
     <use xlink:href="#DejaVuSans-Bold-2a" x="73.291016"/>
    </g>
   </g>
   <g id="text_38">
    <g id="patch_11">
     <path d="M 714.129209 104.383968 
L 920.291552 104.383968 
Q 923.591552 104.383968 923.591552 101.083968 
L 923.591552 78.120437 
Q 923.591552 74.820437 920.291552 74.820437 
L 714.129209 74.820437 
Q 710.829209 74.820437 710.829209 78.120437 
L 710.829209 101.083968 
Q 710.829209 104.383968 714.129209 104.383968 
z
" style="fill: #fffbeb; opacity: 0.97; stroke: #f39c12; stroke-width: 0.7; stroke-linejoin: miter"/>
    </g>
    <!-- La empresa toma P* como dado. -->
    <g transform="translate(727.026709 86.478718) scale(0.11 -0.11)">
     <defs>
      <path id="DejaVuSans-Oblique-4c" d="M 1075 4666 
L 1709 4666 
L 909 525 
L 3181 525 
L 3078 0 
L 172 0 
L 1075 4666 
z
" transform="scale(0.015625)"/>
      <path id="DejaVuSans-Oblique-61" d="M 3438 1997 
L 3047 0 
L 2472 0 
L 2578 531 
Q 2325 219 2001 64 
Q 1678 -91 1281 -91 
Q 834 -91 548 182 
Q 263 456 263 884 
Q 263 1497 752 1853 
Q 1241 2209 2100 2209 
L 2900 2209 
L 2931 2363 
Q 2938 2388 2941 2417 
Q 2944 2447 2944 2509 
Q 2944 2788 2717 2942 
Q 2491 3097 2081 3097 
Q 1800 3097 1504 3025 
Q 1209 2953 897 2809 
L 997 3341 
Q 1322 3463 1633 3523 
Q 1944 3584 2234 3584 
Q 2853 3584 3176 3315 
Q 3500 3047 3500 2534 
Q 3500 2431 3484 2292 
Q 3469 2153 3438 1997 
z
M 2816 1759 
L 2241 1759 
Q 1534 1759 1195 1570 
Q 856 1381 856 984 
Q 856 709 1029 553 
Q 1203 397 1509 397 
Q 1978 397 2328 733 
Q 2678 1069 2791 1631 
L 2816 1759 
z
" transform="scale(0.015625)"/>
      <path id="DejaVuSans-Oblique-20" transform="scale(0.015625)"/>
      <path id="DejaVuSans-Oblique-65" d="M 3078 2063 
Q 3088 2113 3092 2166 
Q 3097 2219 3097 2272 
Q 3097 2653 2873 2875 
Q 2650 3097 2266 3097 
Q 1838 3097 1509 2826 
Q 1181 2556 1013 2059 
L 3078 2063 
z
M 3578 1613 
L 903 1613 
Q 884 1494 878 1425 
Q 872 1356 872 1306 
Q 872 872 1139 634 
Q 1406 397 1894 397 
Q 2269 397 2603 481 
Q 2938 566 3225 728 
L 3116 159 
Q 2806 34 2476 -28 
Q 2147 -91 1806 -91 
Q 1078 -91 686 257 
Q 294 606 294 1247 
Q 294 1794 489 2264 
Q 684 2734 1063 3103 
Q 1306 3334 1642 3459 
Q 1978 3584 2356 3584 
Q 2950 3584 3301 3228 
Q 3653 2872 3653 2272 
Q 3653 2128 3634 1964 
Q 3616 1800 3578 1613 
z
" transform="scale(0.015625)"/>
      <path id="DejaVuSans-Oblique-6d" d="M 5747 2113 
L 5338 0 
L 4763 0 
L 5166 2094 
Q 5191 2228 5203 2325 
Q 5216 2422 5216 2491 
Q 5216 2772 5059 2928 
Q 4903 3084 4622 3084 
Q 4203 3084 3875 2770 
Q 3547 2456 3450 1953 
L 3066 0 
L 2491 0 
L 2900 2094 
Q 2925 2209 2937 2307 
Q 2950 2406 2950 2484 
Q 2950 2769 2794 2926 
Q 2638 3084 2363 3084 
Q 1938 3084 1609 2770 
Q 1281 2456 1184 1953 
L 800 0 
L 225 0 
L 909 3500 
L 1484 3500 
L 1375 2956 
Q 1609 3263 1923 3423 
Q 2238 3584 2597 3584 
Q 2978 3584 3223 3384 
Q 3469 3184 3519 2828 
Q 3781 3197 4126 3390 
Q 4472 3584 4856 3584 
Q 5306 3584 5551 3325 
Q 5797 3066 5797 2591 
Q 5797 2488 5784 2364 
Q 5772 2241 5747 2113 
z
" transform="scale(0.015625)"/>
      <path id="DejaVuSans-Oblique-70" d="M 3175 2156 
Q 3175 2616 2975 2859 
Q 2775 3103 2400 3103 
Q 2144 3103 1911 2972 
Q 1678 2841 1497 2591 
Q 1319 2344 1212 1994 
Q 1106 1644 1106 1300 
Q 1106 863 1306 627 
Q 1506 391 1875 391 
Q 2147 391 2380 519 
Q 2613 647 2778 891 
Q 2956 1147 3065 1494 
Q 3175 1841 3175 2156 
z
M 1394 2969 
Q 1625 3272 1939 3428 
Q 2253 3584 2638 3584 
Q 3175 3584 3472 3232 
Q 3769 2881 3769 2247 
Q 3769 1728 3584 1258 
Q 3400 788 3053 416 
Q 2822 169 2531 39 
Q 2241 -91 1919 -91 
Q 1547 -91 1294 64 
Q 1041 219 916 525 
L 556 -1331 
L -19 -1331 
L 922 3500 
L 1497 3500 
L 1394 2969 
z
" transform="scale(0.015625)"/>
      <path id="DejaVuSans-Oblique-72" d="M 2853 2969 
Q 2766 3016 2653 3041 
Q 2541 3066 2413 3066 
Q 1953 3066 1609 2717 
Q 1266 2369 1153 1784 
L 800 0 
L 225 0 
L 909 3500 
L 1484 3500 
L 1375 2956 
Q 1603 3259 1920 3421 
Q 2238 3584 2597 3584 
Q 2691 3584 2781 3573 
Q 2872 3563 2963 3538 
L 2853 2969 
z
" transform="scale(0.015625)"/>
      <path id="DejaVuSans-Oblique-73" d="M 3200 3397 
L 3091 2853 
Q 2863 2978 2609 3040 
Q 2356 3103 2088 3103 
Q 1634 3103 1373 2948 
Q 1113 2794 1113 2528 
Q 1113 2219 1719 2053 
Q 1766 2041 1788 2034 
L 1972 1978 
Q 2547 1819 2739 1644 
Q 2931 1469 2931 1166 
Q 2931 609 2489 259 
Q 2047 -91 1331 -91 
Q 1053 -91 747 -37 
Q 441 16 72 128 
L 184 722 
Q 500 559 806 475 
Q 1113 391 1394 391 
Q 1816 391 2080 572 
Q 2344 753 2344 1031 
Q 2344 1331 1650 1516 
L 1591 1531 
L 1394 1581 
Q 956 1697 753 1886 
Q 550 2075 550 2369 
Q 550 2928 970 3256 
Q 1391 3584 2113 3584 
Q 2397 3584 2667 3537 
Q 2938 3491 3200 3397 
z
" transform="scale(0.015625)"/>
      <path id="DejaVuSans-Oblique-74" d="M 2706 3500 
L 2619 3053 
L 1472 3053 
L 1100 1153 
Q 1081 1047 1072 975 
Q 1063 903 1063 863 
Q 1063 663 1183 572 
Q 1303 481 1569 481 
L 2150 481 
L 2053 0 
L 1503 0 
Q 991 0 739 200 
Q 488 400 488 806 
Q 488 878 497 964 
Q 506 1050 525 1153 
L 897 3053 
L 409 3053 
L 500 3500 
L 978 3500 
L 1172 4494 
L 1747 4494 
L 1556 3500 
L 2706 3500 
z
" transform="scale(0.015625)"/>
      <path id="DejaVuSans-Oblique-6f" d="M 1625 -91 
Q 1009 -91 651 289 
Q 294 669 294 1325 
Q 294 1706 417 2101 
Q 541 2497 738 2766 
Q 1047 3184 1428 3384 
Q 1809 3584 2291 3584 
Q 2888 3584 3255 3212 
Q 3622 2841 3622 2241 
Q 3622 1825 3500 1412 
Q 3378 1000 3181 728 
Q 2875 309 2494 109 
Q 2113 -91 1625 -91 
z
M 891 1344 
Q 891 869 1089 633 
Q 1288 397 1691 397 
Q 2269 397 2648 901 
Q 3028 1406 3028 2181 
Q 3028 2634 2825 2865 
Q 2622 3097 2228 3097 
Q 1903 3097 1650 2945 
Q 1397 2794 1197 2484 
Q 1050 2253 970 1956 
Q 891 1659 891 1344 
z
" transform="scale(0.015625)"/>
      <path id="DejaVuSans-Oblique-50" d="M 1081 4666 
L 2541 4666 
Q 3178 4666 3512 4369 
Q 3847 4072 3847 3500 
Q 3847 2731 3353 2303 
Q 2859 1875 1966 1875 
L 1172 1875 
L 806 0 
L 172 0 
L 1081 4666 
z
M 1613 4147 
L 1275 2394 
L 2069 2394 
Q 2606 2394 2893 2669 
Q 3181 2944 3181 3456 
Q 3181 3784 2986 3965 
Q 2791 4147 2438 4147 
L 1613 4147 
z
" transform="scale(0.015625)"/>
      <path id="DejaVuSans-Oblique-2a" d="M 3009 3897 
L 1888 3291 
L 3009 2681 
L 2828 2375 
L 1778 3009 
L 1778 1831 
L 1422 1831 
L 1422 3009 
L 372 2375 
L 191 2681 
L 1313 3291 
L 191 3897 
L 372 4206 
L 1422 3572 
L 1422 4750 
L 1778 4750 
L 1778 3572 
L 2828 4206 
L 3009 3897 
z
" transform="scale(0.015625)"/>
      <path id="DejaVuSans-Oblique-63" d="M 3431 3366 
L 3316 2797 
Q 3109 2947 2876 3022 
Q 2644 3097 2394 3097 
Q 2119 3097 1870 3000 
Q 1622 2903 1453 2725 
Q 1184 2453 1037 2087 
Q 891 1722 891 1331 
Q 891 859 1127 628 
Q 1363 397 1844 397 
Q 2081 397 2348 469 
Q 2616 541 2906 684 
L 2797 116 
Q 2547 13 2283 -39 
Q 2019 -91 1741 -91 
Q 1044 -91 669 257 
Q 294 606 294 1253 
Q 294 1797 489 2255 
Q 684 2713 1069 3078 
Q 1331 3328 1684 3456 
Q 2038 3584 2456 3584 
Q 2700 3584 2940 3529 
Q 3181 3475 3431 3366 
z
" transform="scale(0.015625)"/>
      <path id="DejaVuSans-Oblique-64" d="M 2675 525 
Q 2444 222 2128 65 
Q 1813 -91 1428 -91 
Q 903 -91 598 267 
Q 294 625 294 1247 
Q 294 1766 478 2236 
Q 663 2706 1013 3078 
Q 1244 3325 1534 3454 
Q 1825 3584 2144 3584 
Q 2481 3584 2739 3421 
Q 2997 3259 3138 2956 
L 3513 4863 
L 4091 4863 
L 3144 0 
L 2566 0 
L 2675 525 
z
M 891 1350 
Q 891 897 1095 644 
Q 1300 391 1663 391 
Q 1931 391 2161 520 
Q 2391 650 2566 903 
Q 2750 1166 2856 1509 
Q 2963 1853 2963 2188 
Q 2963 2622 2758 2865 
Q 2553 3109 2194 3109 
Q 1922 3109 1687 2981 
Q 1453 2853 1288 2613 
Q 1106 2353 998 2009 
Q 891 1666 891 1350 
z
" transform="scale(0.015625)"/>
      <path id="DejaVuSans-Oblique-2e" d="M 525 794 
L 1184 794 
L 1031 0 
L 372 0 
L 525 794 
z
" transform="scale(0.015625)"/>
     </defs>
     <use xlink:href="#DejaVuSans-Oblique-4c"/>
     <use xlink:href="#DejaVuSans-Oblique-61" x="55.712891"/>
     <use xlink:href="#DejaVuSans-Oblique-20" x="116.992188"/>
     <use xlink:href="#DejaVuSans-Oblique-65" x="148.779297"/>
     <use xlink:href="#DejaVuSans-Oblique-6d" x="210.302734"/>
     <use xlink:href="#DejaVuSans-Oblique-70" x="307.714844"/>
     <use xlink:href="#DejaVuSans-Oblique-72" x="371.191406"/>
     <use xlink:href="#DejaVuSans-Oblique-65" x="412.304688"/>
     <use xlink:href="#DejaVuSans-Oblique-73" x="473.828125"/>
     <use xlink:href="#DejaVuSans-Oblique-61" x="525.927734"/>
     <use xlink:href="#DejaVuSans-Oblique-20" x="587.207031"/>
     <use xlink:href="#DejaVuSans-Oblique-74" x="618.994141"/>
     <use xlink:href="#DejaVuSans-Oblique-6f" x="658.203125"/>
     <use xlink:href="#DejaVuSans-Oblique-6d" x="719.384766"/>
     <use xlink:href="#DejaVuSans-Oblique-61" x="816.796875"/>
     <use xlink:href="#DejaVuSans-Oblique-20" x="878.076172"/>
     <use xlink:href="#DejaVuSans-Oblique-50" x="909.863281"/>
     <use xlink:href="#DejaVuSans-Oblique-2a" x="970.166016"/>
     <use xlink:href="#DejaVuSans-Oblique-20" x="1020.166016"/>
     <use xlink:href="#DejaVuSans-Oblique-63" x="1051.953125"/>
     <use xlink:href="#DejaVuSans-Oblique-6f" x="1106.933594"/>
     <use xlink:href="#DejaVuSans-Oblique-6d" x="1168.115234"/>
     <use xlink:href="#DejaVuSans-Oblique-6f" x="1265.527344"/>
     <use xlink:href="#DejaVuSans-Oblique-20" x="1326.708984"/>
     <use xlink:href="#DejaVuSans-Oblique-64" x="1358.496094"/>
     <use xlink:href="#DejaVuSans-Oblique-61" x="1421.972656"/>
     <use xlink:href="#DejaVuSans-Oblique-64" x="1483.251953"/>
     <use xlink:href="#DejaVuSans-Oblique-6f" x="1546.728516"/>
     <use xlink:href="#DejaVuSans-Oblique-2e" x="1607.910156"/>
    </g>
    <!-- Vende cualquier cantidad al mismo P. -->
    <g transform="translate(714.129209 98.796312) scale(0.11 -0.11)">
     <defs>
      <path id="DejaVuSans-Oblique-56" d="M 1319 0 
L 500 4666 
L 1119 4666 
L 1797 653 
L 4063 4666 
L 4750 4666 
L 2053 0 
L 1319 0 
z
" transform="scale(0.015625)"/>
      <path id="DejaVuSans-Oblique-6e" d="M 3566 2113 
L 3156 0 
L 2578 0 
L 2988 2091 
Q 3016 2238 3031 2350 
Q 3047 2463 3047 2528 
Q 3047 2791 2881 2937 
Q 2716 3084 2419 3084 
Q 1956 3084 1622 2776 
Q 1288 2469 1184 1941 
L 800 0 
L 225 0 
L 903 3500 
L 1478 3500 
L 1363 2950 
Q 1603 3253 1940 3418 
Q 2278 3584 2650 3584 
Q 3113 3584 3367 3334 
Q 3622 3084 3622 2631 
Q 3622 2519 3608 2391 
Q 3594 2263 3566 2113 
z
" transform="scale(0.015625)"/>
      <path id="DejaVuSans-Oblique-75" d="M 428 1388 
L 838 3500 
L 1416 3500 
L 1006 1409 
Q 975 1256 961 1147 
Q 947 1038 947 966 
Q 947 700 1109 554 
Q 1272 409 1569 409 
Q 2031 409 2368 721 
Q 2706 1034 2809 1563 
L 3194 3500 
L 3769 3500 
L 3091 0 
L 2516 0 
L 2631 550 
Q 2388 244 2052 76 
Q 1716 -91 1338 -91 
Q 878 -91 622 161 
Q 366 413 366 863 
Q 366 956 381 1097 
Q 397 1238 428 1388 
z
" transform="scale(0.015625)"/>
      <path id="DejaVuSans-Oblique-6c" d="M 1172 4863 
L 1747 4863 
L 800 0 
L 225 0 
L 1172 4863 
z
" transform="scale(0.015625)"/>
      <path id="DejaVuSans-Oblique-71" d="M 2669 525 
Q 2438 222 2123 65 
Q 1809 -91 1428 -91 
Q 897 -91 595 267 
Q 294 625 294 1253 
Q 294 1759 480 2231 
Q 666 2703 1013 3078 
Q 1238 3322 1530 3453 
Q 1822 3584 2144 3584 
Q 2531 3584 2781 3431 
Q 3031 3278 3144 2969 
L 3244 3494 
L 3822 3494 
L 2888 -1319 
L 2309 -1319 
L 2669 525 
z
M 891 1338 
Q 891 875 1084 633 
Q 1278 391 1644 391 
Q 2188 391 2572 911 
Q 2956 1431 2956 2175 
Q 2956 2625 2757 2864 
Q 2559 3103 2188 3103 
Q 1916 3103 1684 2976 
Q 1453 2850 1281 2606 
Q 1100 2350 995 2006 
Q 891 1663 891 1338 
z
" transform="scale(0.015625)"/>
      <path id="DejaVuSans-Oblique-69" d="M 1172 4863 
L 1747 4863 
L 1606 4134 
L 1031 4134 
L 1172 4863 
z
M 909 3500 
L 1484 3500 
L 800 0 
L 225 0 
L 909 3500 
z
" transform="scale(0.015625)"/>
     </defs>
     <use xlink:href="#DejaVuSans-Oblique-56"/>
     <use xlink:href="#DejaVuSans-Oblique-65" x="62.533203"/>
     <use xlink:href="#DejaVuSans-Oblique-6e" x="124.056641"/>
     <use xlink:href="#DejaVuSans-Oblique-64" x="187.435547"/>
     <use xlink:href="#DejaVuSans-Oblique-65" x="250.912109"/>
     <use xlink:href="#DejaVuSans-Oblique-20" x="312.435547"/>
     <use xlink:href="#DejaVuSans-Oblique-63" x="344.222656"/>
     <use xlink:href="#DejaVuSans-Oblique-75" x="399.203125"/>
     <use xlink:href="#DejaVuSans-Oblique-61" x="462.582031"/>
     <use xlink:href="#DejaVuSans-Oblique-6c" x="523.861328"/>
     <use xlink:href="#DejaVuSans-Oblique-71" x="551.644531"/>
     <use xlink:href="#DejaVuSans-Oblique-75" x="615.121094"/>
     <use xlink:href="#DejaVuSans-Oblique-69" x="678.5"/>
     <use xlink:href="#DejaVuSans-Oblique-65" x="706.283203"/>
     <use xlink:href="#DejaVuSans-Oblique-72" x="767.806641"/>
     <use xlink:href="#DejaVuSans-Oblique-20" x="808.919922"/>
     <use xlink:href="#DejaVuSans-Oblique-63" x="840.707031"/>
     <use xlink:href="#DejaVuSans-Oblique-61" x="895.6875"/>
     <use xlink:href="#DejaVuSans-Oblique-6e" x="956.966797"/>
     <use xlink:href="#DejaVuSans-Oblique-74" x="1020.345703"/>
     <use xlink:href="#DejaVuSans-Oblique-69" x="1059.554688"/>
     <use xlink:href="#DejaVuSans-Oblique-64" x="1087.337891"/>
     <use xlink:href="#DejaVuSans-Oblique-61" x="1150.814453"/>
     <use xlink:href="#DejaVuSans-Oblique-64" x="1212.09375"/>
     <use xlink:href="#DejaVuSans-Oblique-20" x="1275.570312"/>
     <use xlink:href="#DejaVuSans-Oblique-61" x="1307.357422"/>
     <use xlink:href="#DejaVuSans-Oblique-6c" x="1368.636719"/>
     <use xlink:href="#DejaVuSans-Oblique-20" x="1396.419922"/>
     <use xlink:href="#DejaVuSans-Oblique-6d" x="1428.207031"/>
     <use xlink:href="#DejaVuSans-Oblique-69" x="1525.619141"/>
     <use xlink:href="#DejaVuSans-Oblique-73" x="1553.402344"/>
     <use xlink:href="#DejaVuSans-Oblique-6d" x="1605.501953"/>
     <use xlink:href="#DejaVuSans-Oblique-6f" x="1702.914062"/>
     <use xlink:href="#DejaVuSans-Oblique-20" x="1764.095703"/>
     <use xlink:href="#DejaVuSans-Oblique-50" x="1795.882812"/>
     <use xlink:href="#DejaVuSans-Oblique-2e" x="1842.435547"/>
    </g>
   </g>
  </g>
 </g>
 <defs>
  <clipPath id="p0c9834081b">
   <rect x="43.87125" y="50.677969" width="501.44" height="375.323077"/>
  </clipPath>
  <clipPath id="p0395b1da67">
   <rect x="577.39125" y="50.677969" width="501.44" height="375.323077"/>
  </clipPath>
 </defs>
</svg>
