<?xml version="1.0" encoding="utf-8" standalone="no"?>
<!DOCTYPE svg PUBLIC "-//W3C//DTD SVG 1.1//EN"
  "http://www.w3.org/Graphics/SVG/1.1/DTD/svg11.dtd">
<svg xmlns:xlink="http://www.w3.org/1999/xlink" width="815.83699pt" height="451.005328pt" viewBox="0 0 815.83699 451.005328" xmlns="http://www.w3.org/2000/svg" version="1.1">
 <metadata>
  <rdf:RDF xmlns:dc="http://purl.org/dc/elements/1.1/" xmlns:cc="http://creativecommons.org/ns#" xmlns:rdf="http://www.w3.org/1999/02/22-rdf-syntax-ns#">
   <cc:Work>
    <dc:type rdf:resource="http://purl.org/dc/dcmitype/StillImage"/>
    <dc:date>2026-04-28T17:41:34.349143</dc:date>
    <dc:format>image/svg+xml</dc:format>
    <dc:creator>
     <cc:Agent>
      <dc:title>Matplotlib v3.9.2, https://matplotlib.org/</dc:title>
     </cc:Agent>
    </dc:creator>
   </cc:Work>
  </rdf:RDF>
 </metadata>
 <defs>
  <style type="text/css">*{stroke-linejoin: round; stroke-linecap: butt}</style>
 </defs>
 <g id="figure_1">
  <g id="patch_1">
   <path d="M -0 451.005328 
L 815.83699 451.005328 
L 815.83699 0 
L -0 0 
z
" style="fill: #ffffff"/>
  </g>
  <g id="axes_1">
   <g id="patch_2">
    <path d="M 82.654803 411.037969 
L 640.654803 411.037969 
L 640.654803 50.677969 
L 82.654803 50.677969 
z
" style="fill: #ffffff"/>
   </g>
   <g id="matplotlib.axis_1">
    <g id="xtick_1">
     <g id="line2d_1">
      <path d="M 102.23375 411.037969 
L 102.23375 50.677969 
" clip-path="url(#pdb83f8d312)" style="fill: none; stroke-dasharray: 0.8,1.32; stroke-dashoffset: 0; stroke: #b0b0b0; stroke-opacity: 0.4; stroke-width: 0.8"/>
     </g>
     <g id="line2d_2">
      <defs>
       <path id="m3b9b8fac40" d="M 0 0 
L 0 -4 
" style="stroke: #000000"/>
      </defs>
      <g>
       <use xlink:href="#m3b9b8fac40" x="102.23375" y="399.413453" style="stroke: #000000"/>
      </g>
     </g>
     <g id="text_1">
      <!-- 0 -->
      <g transform="translate(99.0525 410.51189) scale(0.1 -0.1)">
       <defs>
        <path id="DejaVuSans-30" d="M 2034 4250 
Q 1547 4250 1301 3770 
Q 1056 3291 1056 2328 
Q 1056 1369 1301 889 
Q 1547 409 2034 409 
Q 2525 409 2770 889 
Q 3016 1369 3016 2328 
Q 3016 3291 2770 3770 
Q 2525 4250 2034 4250 
z
M 2034 4750 
Q 2819 4750 3233 4129 
Q 3647 3509 3647 2328 
Q 3647 1150 3233 529 
Q 2819 -91 2034 -91 
Q 1250 -91 836 529 
Q 422 1150 422 2328 
Q 422 3509 836 4129 
Q 1250 4750 2034 4750 
z
" transform="scale(0.015625)"/>
       </defs>
       <use xlink:href="#DejaVuSans-30"/>
      </g>
     </g>
    </g>
    <g id="xtick_2">
     <g id="line2d_3">
      <path d="M 200.128487 411.037969 
L 200.128487 50.677969 
" clip-path="url(#pdb83f8d312)" style="fill: none; stroke-dasharray: 0.8,1.32; stroke-dashoffset: 0; stroke: #b0b0b0; stroke-opacity: 0.4; stroke-width: 0.8"/>
     </g>
     <g id="line2d_4">
      <g>
       <use xlink:href="#m3b9b8fac40" x="200.128487" y="399.413453" style="stroke: #000000"/>
      </g>
     </g>
     <g id="text_2">
      <!-- 2 -->
      <g transform="translate(196.947237 410.51189) scale(0.1 -0.1)">
       <defs>
        <path id="DejaVuSans-32" d="M 1228 531 
L 3431 531 
L 3431 0 
L 469 0 
L 469 531 
Q 828 903 1448 1529 
Q 2069 2156 2228 2338 
Q 2531 2678 2651 2914 
Q 2772 3150 2772 3378 
Q 2772 3750 2511 3984 
Q 2250 4219 1831 4219 
Q 1534 4219 1204 4116 
Q 875 4013 500 3803 
L 500 4441 
Q 881 4594 1212 4672 
Q 1544 4750 1819 4750 
Q 2544 4750 2975 4387 
Q 3406 4025 3406 3419 
Q 3406 3131 3298 2873 
Q 3191 2616 2906 2266 
Q 2828 2175 2409 1742 
Q 1991 1309 1228 531 
z
" transform="scale(0.015625)"/>
       </defs>
       <use xlink:href="#DejaVuSans-32"/>
      </g>
     </g>
    </g>
    <g id="xtick_3">
     <g id="line2d_5">
      <path d="M 298.023224 411.037969 
L 298.023224 50.677969 
" clip-path="url(#pdb83f8d312)" style="fill: none; stroke-dasharray: 0.8,1.32; stroke-dashoffset: 0; stroke: #b0b0b0; stroke-opacity: 0.4; stroke-width: 0.8"/>
     </g>
     <g id="line2d_6">
      <g>
       <use xlink:href="#m3b9b8fac40" x="298.023224" y="399.413453" style="stroke: #000000"/>
      </g>
     </g>
     <g id="text_3">
      <!-- 4 -->
      <g transform="translate(294.841974 410.51189) scale(0.1 -0.1)">
       <defs>
        <path id="DejaVuSans-34" d="M 2419 4116 
L 825 1625 
L 2419 1625 
L 2419 4116 
z
M 2253 4666 
L 3047 4666 
L 3047 1625 
L 3713 1625 
L 3713 1100 
L 3047 1100 
L 3047 0 
L 2419 0 
L 2419 1100 
L 313 1100 
L 313 1709 
L 2253 4666 
z
" transform="scale(0.015625)"/>
       </defs>
       <use xlink:href="#DejaVuSans-34"/>
      </g>
     </g>
    </g>
    <g id="xtick_4">
     <g id="line2d_7">
      <path d="M 395.917961 411.037969 
L 395.917961 50.677969 
" clip-path="url(#pdb83f8d312)" style="fill: none; stroke-dasharray: 0.8,1.32; stroke-dashoffset: 0; stroke: #b0b0b0; stroke-opacity: 0.4; stroke-width: 0.8"/>
     </g>
     <g id="line2d_8">
      <g>
       <use xlink:href="#m3b9b8fac40" x="395.917961" y="399.413453" style="stroke: #000000"/>
      </g>
     </g>
     <g id="text_4">
      <!-- 6 -->
      <g transform="translate(392.736711 410.51189) scale(0.1 -0.1)">
       <defs>
        <path id="DejaVuSans-36" d="M 2113 2584 
Q 1688 2584 1439 2293 
Q 1191 2003 1191 1497 
Q 1191 994 1439 701 
Q 1688 409 2113 409 
Q 2538 409 2786 701 
Q 3034 994 3034 1497 
Q 3034 2003 2786 2293 
Q 2538 2584 2113 2584 
z
M 3366 4563 
L 3366 3988 
Q 3128 4100 2886 4159 
Q 2644 4219 2406 4219 
Q 1781 4219 1451 3797 
Q 1122 3375 1075 2522 
Q 1259 2794 1537 2939 
Q 1816 3084 2150 3084 
Q 2853 3084 3261 2657 
Q 3669 2231 3669 1497 
Q 3669 778 3244 343 
Q 2819 -91 2113 -91 
Q 1303 -91 875 529 
Q 447 1150 447 2328 
Q 447 3434 972 4092 
Q 1497 4750 2381 4750 
Q 2619 4750 2861 4703 
Q 3103 4656 3366 4563 
z
" transform="scale(0.015625)"/>
       </defs>
       <use xlink:href="#DejaVuSans-36"/>
      </g>
     </g>
    </g>
    <g id="xtick_5">
     <g id="line2d_9">
      <path d="M 493.812697 411.037969 
L 493.812697 50.677969 
" clip-path="url(#pdb83f8d312)" style="fill: none; stroke-dasharray: 0.8,1.32; stroke-dashoffset: 0; stroke: #b0b0b0; stroke-opacity: 0.4; stroke-width: 0.8"/>
     </g>
     <g id="line2d_10">
      <g>
       <use xlink:href="#m3b9b8fac40" x="493.812697" y="399.413453" style="stroke: #000000"/>
      </g>
     </g>
     <g id="text_5">
      <!-- 8 -->
      <g transform="translate(490.631447 410.51189) scale(0.1 -0.1)">
       <defs>
        <path id="DejaVuSans-38" d="M 2034 2216 
Q 1584 2216 1326 1975 
Q 1069 1734 1069 1313 
Q 1069 891 1326 650 
Q 1584 409 2034 409 
Q 2484 409 2743 651 
Q 3003 894 3003 1313 
Q 3003 1734 2745 1975 
Q 2488 2216 2034 2216 
z
M 1403 2484 
Q 997 2584 770 2862 
Q 544 3141 544 3541 
Q 544 4100 942 4425 
Q 1341 4750 2034 4750 
Q 2731 4750 3128 4425 
Q 3525 4100 3525 3541 
Q 3525 3141 3298 2862 
Q 3072 2584 2669 2484 
Q 3125 2378 3379 2068 
Q 3634 1759 3634 1313 
Q 3634 634 3220 271 
Q 2806 -91 2034 -91 
Q 1263 -91 848 271 
Q 434 634 434 1313 
Q 434 1759 690 2068 
Q 947 2378 1403 2484 
z
M 1172 3481 
Q 1172 3119 1398 2916 
Q 1625 2713 2034 2713 
Q 2441 2713 2670 2916 
Q 2900 3119 2900 3481 
Q 2900 3844 2670 4047 
Q 2441 4250 2034 4250 
Q 1625 4250 1398 4047 
Q 1172 3844 1172 3481 
z
" transform="scale(0.015625)"/>
       </defs>
       <use xlink:href="#DejaVuSans-38"/>
      </g>
     </g>
    </g>
    <g id="xtick_6">
     <g id="line2d_11">
      <path d="M 591.707434 411.037969 
L 591.707434 50.677969 
" clip-path="url(#pdb83f8d312)" style="fill: none; stroke-dasharray: 0.8,1.32; stroke-dashoffset: 0; stroke: #b0b0b0; stroke-opacity: 0.4; stroke-width: 0.8"/>
     </g>
     <g id="line2d_12">
      <g>
       <use xlink:href="#m3b9b8fac40" x="591.707434" y="399.413453" style="stroke: #000000"/>
      </g>
     </g>
     <g id="text_6">
      <!-- 10 -->
      <g transform="translate(585.344934 410.51189) scale(0.1 -0.1)">
       <defs>
        <path id="DejaVuSans-31" d="M 794 531 
L 1825 531 
L 1825 4091 
L 703 3866 
L 703 4441 
L 1819 4666 
L 2450 4666 
L 2450 531 
L 3481 531 
L 3481 0 
L 794 0 
L 794 531 
z
" transform="scale(0.015625)"/>
       </defs>
       <use xlink:href="#DejaVuSans-31"/>
       <use xlink:href="#DejaVuSans-30" x="63.623047"/>
      </g>
     </g>
    </g>
    <g id="text_7">
     <!-- Q -->
     <g transform="translate(630.452928 419.709703) scale(0.12 -0.12)">
      <defs>
       <path id="DejaVuSans-Bold-51" d="M 2847 -84 
L 2753 -84 
Q 1600 -84 959 553 
Q 319 1191 319 2328 
Q 319 3463 958 4106 
Q 1597 4750 2719 4750 
Q 3853 4750 4486 4112 
Q 5119 3475 5119 2328 
Q 5119 1541 4783 972 
Q 4447 403 3816 116 
L 4756 -934 
L 3609 -934 
L 2847 -84 
z
M 2719 3878 
Q 2169 3878 1866 3472 
Q 1563 3066 1563 2328 
Q 1563 1578 1859 1179 
Q 2156 781 2719 781 
Q 3272 781 3575 1187 
Q 3878 1594 3878 2328 
Q 3878 3066 3575 3472 
Q 3272 3878 2719 3878 
z
" transform="scale(0.015625)"/>
      </defs>
      <use xlink:href="#DejaVuSans-Bold-51"/>
     </g>
    </g>
   </g>
   <g id="matplotlib.axis_2">
    <g id="ytick_1">
     <g id="line2d_13">
      <path d="M 82.654803 399.413453 
L 640.654803 399.413453 
" clip-path="url(#pdb83f8d312)" style="fill: none; stroke-dasharray: 0.8,1.32; stroke-dashoffset: 0; stroke: #b0b0b0; stroke-opacity: 0.4; stroke-width: 0.8"/>
     </g>
     <g id="line2d_14">
      <defs>
       <path id="mbc7d25ad7f" d="M 0 0 
L 4 0 
" style="stroke: #000000"/>
      </defs>
      <g>
       <use xlink:href="#mbc7d25ad7f" x="102.23375" y="399.413453" style="stroke: #000000"/>
      </g>
     </g>
     <g id="text_8">
      <!-- 0 -->
      <g transform="translate(92.37125 403.212671) scale(0.1 -0.1)">
       <use xlink:href="#DejaVuSans-30"/>
      </g>
     </g>
    </g>
    <g id="ytick_2">
     <g id="line2d_15">
      <path d="M 82.654803 341.290872 
L 640.654803 341.290872 
" clip-path="url(#pdb83f8d312)" style="fill: none; stroke-dasharray: 0.8,1.32; stroke-dashoffset: 0; stroke: #b0b0b0; stroke-opacity: 0.4; stroke-width: 0.8"/>
     </g>
     <g id="line2d_16">
      <g>
       <use xlink:href="#mbc7d25ad7f" x="102.23375" y="341.290872" style="stroke: #000000"/>
      </g>
     </g>
     <g id="text_9">
      <!-- 5 -->
      <g transform="translate(92.37125 345.090091) scale(0.1 -0.1)">
       <defs>
        <path id="DejaVuSans-35" d="M 691 4666 
L 3169 4666 
L 3169 4134 
L 1269 4134 
L 1269 2991 
Q 1406 3038 1543 3061 
Q 1681 3084 1819 3084 
Q 2600 3084 3056 2656 
Q 3513 2228 3513 1497 
Q 3513 744 3044 326 
Q 2575 -91 1722 -91 
Q 1428 -91 1123 -41 
Q 819 9 494 109 
L 494 744 
Q 775 591 1075 516 
Q 1375 441 1709 441 
Q 2250 441 2565 725 
Q 2881 1009 2881 1497 
Q 2881 1984 2565 2268 
Q 2250 2553 1709 2553 
Q 1456 2553 1204 2497 
Q 953 2441 691 2322 
L 691 4666 
z
" transform="scale(0.015625)"/>
       </defs>
       <use xlink:href="#DejaVuSans-35"/>
      </g>
     </g>
    </g>
    <g id="ytick_3">
     <g id="line2d_17">
      <path d="M 82.654803 283.168291 
L 640.654803 283.168291 
" clip-path="url(#pdb83f8d312)" style="fill: none; stroke-dasharray: 0.8,1.32; stroke-dashoffset: 0; stroke: #b0b0b0; stroke-opacity: 0.4; stroke-width: 0.8"/>
     </g>
     <g id="line2d_18">
      <g>
       <use xlink:href="#mbc7d25ad7f" x="102.23375" y="283.168291" style="stroke: #000000"/>
      </g>
     </g>
     <g id="text_10">
      <!-- 10 -->
      <g transform="translate(86.00875 286.96751) scale(0.1 -0.1)">
       <use xlink:href="#DejaVuSans-31"/>
       <use xlink:href="#DejaVuSans-30" x="63.623047"/>
      </g>
     </g>
    </g>
    <g id="ytick_4">
     <g id="line2d_19">
      <path d="M 82.654803 225.045711 
L 640.654803 225.045711 
" clip-path="url(#pdb83f8d312)" style="fill: none; stroke-dasharray: 0.8,1.32; stroke-dashoffset: 0; stroke: #b0b0b0; stroke-opacity: 0.4; stroke-width: 0.8"/>
     </g>
     <g id="line2d_20">
      <g>
       <use xlink:href="#mbc7d25ad7f" x="102.23375" y="225.045711" style="stroke: #000000"/>
      </g>
     </g>
     <g id="text_11">
      <!-- 15 -->
      <g transform="translate(86.00875 228.844929) scale(0.1 -0.1)">
       <use xlink:href="#DejaVuSans-31"/>
       <use xlink:href="#DejaVuSans-35" x="63.623047"/>
      </g>
     </g>
    </g>
    <g id="ytick_5">
     <g id="line2d_21">
      <path d="M 82.654803 166.92313 
L 640.654803 166.92313 
" clip-path="url(#pdb83f8d312)" style="fill: none; stroke-dasharray: 0.8,1.32; stroke-dashoffset: 0; stroke: #b0b0b0; stroke-opacity: 0.4; stroke-width: 0.8"/>
     </g>
     <g id="line2d_22">
      <g>
       <use xlink:href="#mbc7d25ad7f" x="102.23375" y="166.92313" style="stroke: #000000"/>
      </g>
     </g>
     <g id="text_12">
      <!-- 20 -->
      <g transform="translate(86.00875 170.722349) scale(0.1 -0.1)">
       <use xlink:href="#DejaVuSans-32"/>
       <use xlink:href="#DejaVuSans-30" x="63.623047"/>
      </g>
     </g>
    </g>
    <g id="ytick_6">
     <g id="line2d_23">
      <path d="M 82.654803 108.800549 
L 640.654803 108.800549 
" clip-path="url(#pdb83f8d312)" style="fill: none; stroke-dasharray: 0.8,1.32; stroke-dashoffset: 0; stroke: #b0b0b0; stroke-opacity: 0.4; stroke-width: 0.8"/>
     </g>
     <g id="line2d_24">
      <g>
       <use xlink:href="#mbc7d25ad7f" x="102.23375" y="108.800549" style="stroke: #000000"/>
      </g>
     </g>
     <g id="text_13">
      <!-- 25 -->
      <g transform="translate(86.00875 112.599768) scale(0.1 -0.1)">
       <use xlink:href="#DejaVuSans-32"/>
       <use xlink:href="#DejaVuSans-35" x="63.623047"/>
      </g>
     </g>
    </g>
    <g id="ytick_7">
     <g id="line2d_25">
      <path d="M 82.654803 50.677969 
L 640.654803 50.677969 
" clip-path="url(#pdb83f8d312)" style="fill: none; stroke-dasharray: 0.8,1.32; stroke-dashoffset: 0; stroke: #b0b0b0; stroke-opacity: 0.4; stroke-width: 0.8"/>
     </g>
     <g id="line2d_26">
      <g>
       <use xlink:href="#mbc7d25ad7f" x="102.23375" y="50.677969" style="stroke: #000000"/>
      </g>
     </g>
     <g id="text_14">
      <!-- 30 -->
      <g transform="translate(86.00875 54.477188) scale(0.1 -0.1)">
       <defs>
        <path id="DejaVuSans-33" d="M 2597 2516 
Q 3050 2419 3304 2112 
Q 3559 1806 3559 1356 
Q 3559 666 3084 287 
Q 2609 -91 1734 -91 
Q 1441 -91 1130 -33 
Q 819 25 488 141 
L 488 750 
Q 750 597 1062 519 
Q 1375 441 1716 441 
Q 2309 441 2620 675 
Q 2931 909 2931 1356 
Q 2931 1769 2642 2001 
Q 2353 2234 1838 2234 
L 1294 2234 
L 1294 2753 
L 1863 2753 
Q 2328 2753 2575 2939 
Q 2822 3125 2822 3475 
Q 2822 3834 2567 4026 
Q 2313 4219 1838 4219 
Q 1578 4219 1281 4162 
Q 984 4106 628 3988 
L 628 4550 
Q 988 4650 1302 4700 
Q 1616 4750 1894 4750 
Q 2613 4750 3031 4423 
Q 3450 4097 3450 3541 
Q 3450 3153 3228 2886 
Q 3006 2619 2597 2516 
z
" transform="scale(0.015625)"/>
       </defs>
       <use xlink:href="#DejaVuSans-33"/>
       <use xlink:href="#DejaVuSans-30" x="63.623047"/>
      </g>
     </g>
    </g>
    <g id="text_15">
     <!-- $/unidad -->
     <g transform="translate(28.8 48.182344) scale(0.12 -0.12)">
      <defs>
       <path id="DejaVuSans-Bold-24" d="M 2484 -941 
L 1978 -941 
L 1975 0 
Q 1584 16 1218 87 
Q 853 159 506 288 
L 506 1106 
Q 866 922 1233 823 
Q 1600 725 1978 713 
L 1978 1684 
L 1875 1703 
Q 1128 1834 814 2115 
Q 500 2397 500 2925 
Q 500 3484 883 3798 
Q 1266 4113 1975 4141 
L 1978 4863 
L 2484 4863 
L 2484 4153 
Q 2797 4128 3109 4075 
Q 3422 4022 3738 3938 
L 3738 3144 
Q 3425 3275 3112 3348 
Q 2800 3422 2484 3438 
L 2484 2541 
L 2584 2522 
Q 3378 2397 3698 2105 
Q 4019 1813 4019 1241 
Q 4019 666 3637 358 
Q 3256 50 2484 6 
L 2484 -941 
z
M 1978 2613 
L 1978 3428 
Q 1756 3416 1623 3308 
Q 1491 3200 1491 3034 
Q 1491 2850 1612 2745 
Q 1734 2641 1978 2613 
z
M 2484 1594 
L 2484 725 
Q 2756 728 2892 831 
Q 3028 934 3028 1141 
Q 3028 1353 2903 1458 
Q 2778 1563 2484 1594 
z
" transform="scale(0.015625)"/>
       <path id="DejaVuSans-Bold-2f" d="M 1644 4666 
L 2338 4666 
L 691 -594 
L 0 -594 
L 1644 4666 
z
" transform="scale(0.015625)"/>
       <path id="DejaVuSans-Bold-75" d="M 500 1363 
L 500 3500 
L 1625 3500 
L 1625 3150 
Q 1625 2866 1622 2436 
Q 1619 2006 1619 1863 
Q 1619 1441 1641 1255 
Q 1663 1069 1716 984 
Q 1784 875 1895 815 
Q 2006 756 2150 756 
Q 2500 756 2700 1025 
Q 2900 1294 2900 1772 
L 2900 3500 
L 4019 3500 
L 4019 0 
L 2900 0 
L 2900 506 
Q 2647 200 2364 54 
Q 2081 -91 1741 -91 
Q 1134 -91 817 281 
Q 500 653 500 1363 
z
" transform="scale(0.015625)"/>
       <path id="DejaVuSans-Bold-6e" d="M 4056 2131 
L 4056 0 
L 2931 0 
L 2931 347 
L 2931 1631 
Q 2931 2084 2911 2256 
Q 2891 2428 2841 2509 
Q 2775 2619 2662 2680 
Q 2550 2741 2406 2741 
Q 2056 2741 1856 2470 
Q 1656 2200 1656 1722 
L 1656 0 
L 538 0 
L 538 3500 
L 1656 3500 
L 1656 2988 
Q 1909 3294 2193 3439 
Q 2478 3584 2822 3584 
Q 3428 3584 3742 3212 
Q 4056 2841 4056 2131 
z
" transform="scale(0.015625)"/>
       <path id="DejaVuSans-Bold-69" d="M 538 3500 
L 1656 3500 
L 1656 0 
L 538 0 
L 538 3500 
z
M 538 4863 
L 1656 4863 
L 1656 3950 
L 538 3950 
L 538 4863 
z
" transform="scale(0.015625)"/>
       <path id="DejaVuSans-Bold-64" d="M 2919 2988 
L 2919 4863 
L 4044 4863 
L 4044 0 
L 2919 0 
L 2919 506 
Q 2688 197 2409 53 
Q 2131 -91 1766 -91 
Q 1119 -91 703 423 
Q 288 938 288 1747 
Q 288 2556 703 3070 
Q 1119 3584 1766 3584 
Q 2128 3584 2408 3439 
Q 2688 3294 2919 2988 
z
M 2181 722 
Q 2541 722 2730 984 
Q 2919 1247 2919 1747 
Q 2919 2247 2730 2509 
Q 2541 2772 2181 2772 
Q 1825 2772 1636 2509 
Q 1447 2247 1447 1747 
Q 1447 1247 1636 984 
Q 1825 722 2181 722 
z
" transform="scale(0.015625)"/>
       <path id="DejaVuSans-Bold-61" d="M 2106 1575 
Q 1756 1575 1579 1456 
Q 1403 1338 1403 1106 
Q 1403 894 1545 773 
Q 1688 653 1941 653 
Q 2256 653 2472 879 
Q 2688 1106 2688 1447 
L 2688 1575 
L 2106 1575 
z
M 3816 1997 
L 3816 0 
L 2688 0 
L 2688 519 
Q 2463 200 2181 54 
Q 1900 -91 1497 -91 
Q 953 -91 614 226 
Q 275 544 275 1050 
Q 275 1666 698 1953 
Q 1122 2241 2028 2241 
L 2688 2241 
L 2688 2328 
Q 2688 2594 2478 2717 
Q 2269 2841 1825 2841 
Q 1466 2841 1156 2769 
Q 847 2697 581 2553 
L 581 3406 
Q 941 3494 1303 3539 
Q 1666 3584 2028 3584 
Q 2975 3584 3395 3211 
Q 3816 2838 3816 1997 
z
" transform="scale(0.015625)"/>
      </defs>
      <use xlink:href="#DejaVuSans-Bold-24"/>
      <use xlink:href="#DejaVuSans-Bold-2f" x="69.580078"/>
      <use xlink:href="#DejaVuSans-Bold-75" x="106.103516"/>
      <use xlink:href="#DejaVuSans-Bold-6e" x="177.294922"/>
      <use xlink:href="#DejaVuSans-Bold-69" x="248.486328"/>
      <use xlink:href="#DejaVuSans-Bold-64" x="282.763672"/>
      <use xlink:href="#DejaVuSans-Bold-61" x="354.345703"/>
      <use xlink:href="#DejaVuSans-Bold-64" x="421.826172"/>
     </g>
    </g>
   </g>
   <g id="line2d_27">
    <path d="M 126.707434 281.715227 
L 134.483354 288.032005 
L 142.259274 294.05541 
L 150.035193 299.785442 
L 157.811113 305.222102 
L 165.587033 310.365389 
L 173.362953 315.215303 
L 181.138872 319.771845 
L 188.914792 324.035014 
L 196.690712 328.00481 
L 204.466632 331.681233 
L 212.242551 335.064284 
L 220.018471 338.153962 
L 227.794391 340.950267 
L 234.015127 342.976083 
L 240.235862 344.81414 
L 246.456598 346.464439 
L 252.677334 347.926979 
L 258.89807 349.201761 
L 265.118805 350.288784 
L 271.339541 351.188049 
L 277.560277 351.899555 
L 283.781013 352.423302 
L 290.001749 352.759291 
L 296.222484 352.907521 
L 302.44322 352.867993 
L 308.663956 352.640707 
L 314.884692 352.225662 
L 321.105428 351.622858 
L 327.326163 350.832296 
L 333.546899 349.853975 
L 339.767635 348.687895 
L 345.988371 347.334057 
L 352.209106 345.792461 
L 358.429842 344.063106 
L 364.650578 342.145993 
L 370.871314 340.04112 
L 378.647234 337.145995 
L 386.423153 333.957497 
L 394.199073 330.475626 
L 401.974993 326.700382 
L 409.750912 322.631766 
L 417.526832 318.269777 
L 425.302752 313.614415 
L 433.078672 308.66568 
L 440.854591 303.423573 
L 448.630511 297.888093 
L 456.406431 292.05924 
L 464.182351 285.937015 
L 471.95827 279.521416 
L 479.73419 272.812446 
L 487.51011 265.810102 
L 495.28603 258.514386 
L 503.061949 250.925297 
L 510.837869 243.042835 
L 518.613789 234.867 
L 526.389708 226.397793 
L 534.165628 217.635213 
L 541.941548 208.579261 
L 549.717468 199.229935 
L 557.493387 189.587237 
L 566.824491 177.628748 
L 576.155595 165.247801 
L 585.486698 152.444398 
L 591.707434 143.674098 
L 591.707434 143.674098 
" clip-path="url(#pdb83f8d312)" style="fill: none; stroke: #e67e22; stroke-width: 3; stroke-linecap: square"/>
   </g>
   <g id="line2d_28">
    <path d="M 126.707434 85.067162 
L 128.262618 96.855076 
L 129.817802 107.386009 
L 131.372986 116.860594 
L 132.92817 125.438799 
L 134.483354 133.24974 
L 136.038538 140.398769 
L 137.593722 146.972706 
L 140.70409 158.672388 
L 143.814458 168.799318 
L 146.924826 177.678607 
L 150.035193 185.550745 
L 153.145561 192.597457 
L 156.255929 198.958613 
L 159.366297 204.743625 
L 162.476665 210.039309 
L 165.587033 214.915432 
L 168.697401 219.428702 
L 171.807769 223.625685 
L 174.918137 227.544977 
L 179.583688 232.972395 
L 184.24924 237.93484 
L 188.914792 242.501709 
L 193.580344 246.728221 
L 198.245896 250.65886 
L 202.911448 254.329865 
L 207.576999 257.771056 
L 213.797735 262.044022 
L 220.018471 265.999901 
L 226.239207 269.676995 
L 232.459943 273.106286 
L 238.680678 276.313108 
L 246.456598 280.040303 
L 254.232518 283.485678 
L 262.008438 286.6761 
L 269.784357 289.633451 
L 277.560277 292.375731 
L 286.891381 295.403433 
L 296.222484 298.164105 
L 305.553588 300.675123 
L 314.884692 302.950815 
L 324.215795 305.003099 
L 333.546899 306.841969 
L 342.878003 308.47587 
L 352.209106 309.911986 
L 363.095394 311.345631 
L 373.981682 312.526722 
L 384.867969 313.462292 
L 395.754257 314.158335 
L 406.640545 314.619984 
L 417.526832 314.851665 
L 428.41312 314.857212 
L 439.299407 314.639964 
L 450.185695 314.202844 
L 461.071983 313.548417 
L 471.95827 312.678949 
L 482.844558 311.596444 
L 493.730846 310.302686 
L 504.617133 308.799263 
L 515.503421 307.087597 
L 526.389708 305.168965 
L 537.275996 303.044516 
L 548.162284 300.715284 
L 559.048571 298.182207 
L 569.934859 295.446136 
L 580.821147 292.507844 
L 591.707434 289.368033 
L 591.707434 289.368033 
" clip-path="url(#pdb83f8d312)" style="fill: none; stroke: #16a085; stroke-width: 3; stroke-linecap: square"/>
   </g>
   <g id="line2d_29">
    <path d="M 126.707434 271.05942 
L 139.148906 276.351247 
L 151.590377 281.392728 
L 164.031849 286.183865 
L 176.47332 290.724657 
L 188.914792 295.015104 
L 201.356264 299.055207 
L 213.797735 302.844965 
L 226.239207 306.384378 
L 238.680678 309.673447 
L 251.12215 312.71217 
L 263.563622 315.500549 
L 276.005093 318.038584 
L 288.446565 320.326273 
L 300.888036 322.363618 
L 313.329508 324.150618 
L 325.770979 325.687274 
L 338.212451 326.973584 
L 350.653923 328.00955 
L 363.095394 328.795172 
L 375.536866 329.330448 
L 387.978337 329.61538 
L 400.419809 329.649967 
L 412.86128 329.434209 
L 425.302752 328.968107 
L 437.744224 328.25166 
L 450.185695 327.284868 
L 462.627167 326.067732 
L 475.068638 324.600251 
L 487.51011 322.882425 
L 499.951581 320.914254 
L 512.393053 318.695739 
L 524.834525 316.226878 
L 537.275996 313.507674 
L 549.717468 310.538124 
L 562.158939 307.31823 
L 574.600411 303.847991 
L 587.041882 300.127407 
L 591.707434 298.667646 
L 591.707434 298.667646 
" clip-path="url(#pdb83f8d312)" style="fill: none; stroke: #8e44ad; stroke-width: 2.5; stroke-linecap: square"/>
   </g>
   <g id="line2d_30">
    <path d="M 126.707434 213.421195 
L 128.262618 224.53394 
L 129.817802 234.393615 
L 131.372986 243.200854 
L 132.92817 251.115626 
L 134.483354 258.267044 
L 136.038538 264.760462 
L 137.593722 270.6827 
L 139.148906 276.105947 
L 140.70409 281.090718 
L 143.814458 289.941631 
L 146.924826 297.560549 
L 150.035193 304.187964 
L 153.145561 310.005599 
L 156.255929 315.153324 
L 159.366297 319.740551 
L 162.476665 323.854098 
L 165.587033 327.56373 
L 168.697401 330.926156 
L 171.807769 333.987941 
L 174.918137 336.787681 
L 178.028504 339.357637 
L 182.694056 342.840019 
L 187.359608 345.940678 
L 192.02516 348.719118 
L 196.690712 351.223084 
L 201.356264 353.491334 
L 206.021815 355.555657 
L 212.242551 358.035711 
L 218.463287 360.250294 
L 224.684023 362.239866 
L 232.459943 364.459534 
L 240.235862 366.42906 
L 248.011782 368.188475 
L 257.342886 370.066917 
L 266.673989 371.732176 
L 277.560277 373.450948 
L 290.001749 375.171218 
L 303.998404 376.852931 
L 319.550244 378.467432 
L 336.657267 379.995965 
L 355.319474 381.427785 
L 375.536866 382.758261 
L 398.864625 384.068065 
L 425.302752 385.323844 
L 454.851247 386.504519 
L 489.065294 387.646274 
L 527.944892 388.720954 
L 573.045227 389.745218 
L 591.707434 390.11384 
L 591.707434 390.11384 
" clip-path="url(#pdb83f8d312)" style="fill: none; stroke-dasharray: 7.4,3.2; stroke-dashoffset: 0; stroke: #7f8c8d; stroke-width: 2"/>
   </g>
   <g id="line2d_31">
    <defs>
     <path id="m4d721b9f7d" d="M 4 0 
L -4 -4 
L -4 4 
z
" style="stroke: #000000; stroke-linejoin: miter"/>
    </defs>
    <g>
     <use xlink:href="#m4d721b9f7d" x="640.654803" y="399.413453" style="stroke: #000000; stroke-linejoin: miter"/>
    </g>
   </g>
   <g id="line2d_32">
    <defs>
     <path id="m96d0710868" d="M 0 -4 
L -4 4 
L 4 4 
z
" style="stroke: #000000; stroke-linejoin: miter"/>
    </defs>
    <g>
     <use xlink:href="#m96d0710868" x="102.23375" y="50.677969" style="stroke: #000000; stroke-linejoin: miter"/>
    </g>
   </g>
   <g id="patch_3">
    <path d="M 102.23375 411.037969 
L 102.23375 50.677969 
" style="fill: none; stroke: #000000; stroke-width: 1.4; stroke-linejoin: miter; stroke-linecap: square"/>
   </g>
   <g id="patch_4">
    <path d="M 82.654803 399.413453 
L 640.654803 399.413453 
" style="fill: none; stroke: #000000; stroke-width: 1.4; stroke-linejoin: miter; stroke-linecap: square"/>
   </g>
   <g id="text_16">
    <!-- Curvas de costos en corto plazo (forma de U) -->
    <g transform="translate(196.179021 38.677969) scale(0.13 -0.13)">
     <defs>
      <path id="DejaVuSans-Bold-43" d="M 4288 256 
Q 3956 84 3597 -3 
Q 3238 -91 2847 -91 
Q 1681 -91 1000 561 
Q 319 1213 319 2328 
Q 319 3447 1000 4098 
Q 1681 4750 2847 4750 
Q 3238 4750 3597 4662 
Q 3956 4575 4288 4403 
L 4288 3438 
Q 3953 3666 3628 3772 
Q 3303 3878 2944 3878 
Q 2300 3878 1931 3465 
Q 1563 3053 1563 2328 
Q 1563 1606 1931 1193 
Q 2300 781 2944 781 
Q 3303 781 3628 887 
Q 3953 994 4288 1222 
L 4288 256 
z
" transform="scale(0.015625)"/>
      <path id="DejaVuSans-Bold-72" d="M 3138 2547 
Q 2991 2616 2845 2648 
Q 2700 2681 2553 2681 
Q 2122 2681 1889 2404 
Q 1656 2128 1656 1613 
L 1656 0 
L 538 0 
L 538 3500 
L 1656 3500 
L 1656 2925 
Q 1872 3269 2151 3426 
Q 2431 3584 2822 3584 
Q 2878 3584 2943 3579 
Q 3009 3575 3134 3559 
L 3138 2547 
z
" transform="scale(0.015625)"/>
      <path id="DejaVuSans-Bold-76" d="M 97 3500 
L 1216 3500 
L 2088 1081 
L 2956 3500 
L 4078 3500 
L 2700 0 
L 1472 0 
L 97 3500 
z
" transform="scale(0.015625)"/>
      <path id="DejaVuSans-Bold-73" d="M 3272 3391 
L 3272 2541 
Q 2913 2691 2578 2766 
Q 2244 2841 1947 2841 
Q 1628 2841 1473 2761 
Q 1319 2681 1319 2516 
Q 1319 2381 1436 2309 
Q 1553 2238 1856 2203 
L 2053 2175 
Q 2913 2066 3209 1816 
Q 3506 1566 3506 1031 
Q 3506 472 3093 190 
Q 2681 -91 1863 -91 
Q 1516 -91 1145 -36 
Q 775 19 384 128 
L 384 978 
Q 719 816 1070 734 
Q 1422 653 1784 653 
Q 2113 653 2278 743 
Q 2444 834 2444 1013 
Q 2444 1163 2330 1236 
Q 2216 1309 1875 1350 
L 1678 1375 
Q 931 1469 631 1722 
Q 331 1975 331 2491 
Q 331 3047 712 3315 
Q 1094 3584 1881 3584 
Q 2191 3584 2531 3537 
Q 2872 3491 3272 3391 
z
" transform="scale(0.015625)"/>
      <path id="DejaVuSans-Bold-20" transform="scale(0.015625)"/>
      <path id="DejaVuSans-Bold-65" d="M 4031 1759 
L 4031 1441 
L 1416 1441 
Q 1456 1047 1700 850 
Q 1944 653 2381 653 
Q 2734 653 3104 758 
Q 3475 863 3866 1075 
L 3866 213 
Q 3469 63 3072 -14 
Q 2675 -91 2278 -91 
Q 1328 -91 801 392 
Q 275 875 275 1747 
Q 275 2603 792 3093 
Q 1309 3584 2216 3584 
Q 3041 3584 3536 3087 
Q 4031 2591 4031 1759 
z
M 2881 2131 
Q 2881 2450 2695 2645 
Q 2509 2841 2209 2841 
Q 1884 2841 1681 2658 
Q 1478 2475 1428 2131 
L 2881 2131 
z
" transform="scale(0.015625)"/>
      <path id="DejaVuSans-Bold-63" d="M 3366 3391 
L 3366 2478 
Q 3138 2634 2908 2709 
Q 2678 2784 2431 2784 
Q 1963 2784 1702 2511 
Q 1441 2238 1441 1747 
Q 1441 1256 1702 982 
Q 1963 709 2431 709 
Q 2694 709 2930 787 
Q 3166 866 3366 1019 
L 3366 103 
Q 3103 6 2833 -42 
Q 2563 -91 2291 -91 
Q 1344 -91 809 395 
Q 275 881 275 1747 
Q 275 2613 809 3098 
Q 1344 3584 2291 3584 
Q 2566 3584 2833 3536 
Q 3100 3488 3366 3391 
z
" transform="scale(0.015625)"/>
      <path id="DejaVuSans-Bold-6f" d="M 2203 2784 
Q 1831 2784 1636 2517 
Q 1441 2250 1441 1747 
Q 1441 1244 1636 976 
Q 1831 709 2203 709 
Q 2569 709 2762 976 
Q 2956 1244 2956 1747 
Q 2956 2250 2762 2517 
Q 2569 2784 2203 2784 
z
M 2203 3584 
Q 3106 3584 3614 3096 
Q 4122 2609 4122 1747 
Q 4122 884 3614 396 
Q 3106 -91 2203 -91 
Q 1297 -91 786 396 
Q 275 884 275 1747 
Q 275 2609 786 3096 
Q 1297 3584 2203 3584 
z
" transform="scale(0.015625)"/>
      <path id="DejaVuSans-Bold-74" d="M 1759 4494 
L 1759 3500 
L 2913 3500 
L 2913 2700 
L 1759 2700 
L 1759 1216 
Q 1759 972 1856 886 
Q 1953 800 2241 800 
L 2816 800 
L 2816 0 
L 1856 0 
Q 1194 0 917 276 
Q 641 553 641 1216 
L 641 2700 
L 84 2700 
L 84 3500 
L 641 3500 
L 641 4494 
L 1759 4494 
z
" transform="scale(0.015625)"/>
      <path id="DejaVuSans-Bold-70" d="M 1656 506 
L 1656 -1331 
L 538 -1331 
L 538 3500 
L 1656 3500 
L 1656 2988 
Q 1888 3294 2169 3439 
Q 2450 3584 2816 3584 
Q 3463 3584 3878 3070 
Q 4294 2556 4294 1747 
Q 4294 938 3878 423 
Q 3463 -91 2816 -91 
Q 2450 -91 2169 54 
Q 1888 200 1656 506 
z
M 2400 2772 
Q 2041 2772 1848 2508 
Q 1656 2244 1656 1747 
Q 1656 1250 1848 986 
Q 2041 722 2400 722 
Q 2759 722 2948 984 
Q 3138 1247 3138 1747 
Q 3138 2247 2948 2509 
Q 2759 2772 2400 2772 
z
" transform="scale(0.015625)"/>
      <path id="DejaVuSans-Bold-6c" d="M 538 4863 
L 1656 4863 
L 1656 0 
L 538 0 
L 538 4863 
z
" transform="scale(0.015625)"/>
      <path id="DejaVuSans-Bold-7a" d="M 366 3500 
L 3419 3500 
L 3419 2719 
L 1575 800 
L 3419 800 
L 3419 0 
L 288 0 
L 288 781 
L 2131 2700 
L 366 2700 
L 366 3500 
z
" transform="scale(0.015625)"/>
      <path id="DejaVuSans-Bold-28" d="M 2413 -844 
L 1484 -844 
Q 1006 -72 778 623 
Q 550 1319 550 2003 
Q 550 2688 779 3389 
Q 1009 4091 1484 4856 
L 2413 4856 
Q 2013 4116 1813 3408 
Q 1613 2700 1613 2009 
Q 1613 1319 1811 609 
Q 2009 -100 2413 -844 
z
" transform="scale(0.015625)"/>
      <path id="DejaVuSans-Bold-66" d="M 2841 4863 
L 2841 4128 
L 2222 4128 
Q 1984 4128 1890 4042 
Q 1797 3956 1797 3744 
L 1797 3500 
L 2753 3500 
L 2753 2700 
L 1797 2700 
L 1797 0 
L 678 0 
L 678 2700 
L 122 2700 
L 122 3500 
L 678 3500 
L 678 3744 
Q 678 4316 997 4589 
Q 1316 4863 1984 4863 
L 2841 4863 
z
" transform="scale(0.015625)"/>
      <path id="DejaVuSans-Bold-6d" d="M 3781 2919 
Q 3994 3244 4286 3414 
Q 4578 3584 4928 3584 
Q 5531 3584 5847 3212 
Q 6163 2841 6163 2131 
L 6163 0 
L 5038 0 
L 5038 1825 
Q 5041 1866 5042 1909 
Q 5044 1953 5044 2034 
Q 5044 2406 4934 2573 
Q 4825 2741 4581 2741 
Q 4263 2741 4089 2478 
Q 3916 2216 3909 1719 
L 3909 0 
L 2784 0 
L 2784 1825 
Q 2784 2406 2684 2573 
Q 2584 2741 2328 2741 
Q 2006 2741 1831 2477 
Q 1656 2213 1656 1722 
L 1656 0 
L 531 0 
L 531 3500 
L 1656 3500 
L 1656 2988 
Q 1863 3284 2130 3434 
Q 2397 3584 2719 3584 
Q 3081 3584 3359 3409 
Q 3638 3234 3781 2919 
z
" transform="scale(0.015625)"/>
      <path id="DejaVuSans-Bold-55" d="M 588 4666 
L 1791 4666 
L 1791 1869 
Q 1791 1291 1980 1042 
Q 2169 794 2597 794 
Q 3028 794 3217 1042 
Q 3406 1291 3406 1869 
L 3406 4666 
L 4609 4666 
L 4609 1869 
Q 4609 878 4112 393 
Q 3616 -91 2597 -91 
Q 1581 -91 1084 393 
Q 588 878 588 1869 
L 588 4666 
z
" transform="scale(0.015625)"/>
      <path id="DejaVuSans-Bold-29" d="M 513 -844 
Q 913 -100 1113 609 
Q 1313 1319 1313 2009 
Q 1313 2700 1113 3408 
Q 913 4116 513 4856 
L 1441 4856 
Q 1916 4091 2145 3389 
Q 2375 2688 2375 2003 
Q 2375 1319 2147 623 
Q 1919 -72 1441 -844 
L 513 -844 
z
" transform="scale(0.015625)"/>
     </defs>
     <use xlink:href="#DejaVuSans-Bold-43"/>
     <use xlink:href="#DejaVuSans-Bold-75" x="73.388672"/>
     <use xlink:href="#DejaVuSans-Bold-72" x="144.580078"/>
     <use xlink:href="#DejaVuSans-Bold-76" x="193.896484"/>
     <use xlink:href="#DejaVuSans-Bold-61" x="259.082031"/>
     <use xlink:href="#DejaVuSans-Bold-73" x="326.5625"/>
     <use xlink:href="#DejaVuSans-Bold-20" x="386.083984"/>
     <use xlink:href="#DejaVuSans-Bold-64" x="420.898438"/>
     <use xlink:href="#DejaVuSans-Bold-65" x="492.480469"/>
     <use xlink:href="#DejaVuSans-Bold-20" x="560.302734"/>
     <use xlink:href="#DejaVuSans-Bold-63" x="595.117188"/>
     <use xlink:href="#DejaVuSans-Bold-6f" x="654.394531"/>
     <use xlink:href="#DejaVuSans-Bold-73" x="723.095703"/>
     <use xlink:href="#DejaVuSans-Bold-74" x="782.617188"/>
     <use xlink:href="#DejaVuSans-Bold-6f" x="830.419922"/>
     <use xlink:href="#DejaVuSans-Bold-73" x="899.121094"/>
     <use xlink:href="#DejaVuSans-Bold-20" x="958.642578"/>
     <use xlink:href="#DejaVuSans-Bold-65" x="993.457031"/>
     <use xlink:href="#DejaVuSans-Bold-6e" x="1061.279297"/>
     <use xlink:href="#DejaVuSans-Bold-20" x="1132.470703"/>
     <use xlink:href="#DejaVuSans-Bold-63" x="1167.285156"/>
     <use xlink:href="#DejaVuSans-Bold-6f" x="1226.5625"/>
     <use xlink:href="#DejaVuSans-Bold-72" x="1295.263672"/>
     <use xlink:href="#DejaVuSans-Bold-74" x="1344.580078"/>
     <use xlink:href="#DejaVuSans-Bold-6f" x="1392.382812"/>
     <use xlink:href="#DejaVuSans-Bold-20" x="1461.083984"/>
     <use xlink:href="#DejaVuSans-Bold-70" x="1495.898438"/>
     <use xlink:href="#DejaVuSans-Bold-6c" x="1567.480469"/>
     <use xlink:href="#DejaVuSans-Bold-61" x="1601.757812"/>
     <use xlink:href="#DejaVuSans-Bold-7a" x="1669.238281"/>
     <use xlink:href="#DejaVuSans-Bold-6f" x="1727.441406"/>
     <use xlink:href="#DejaVuSans-Bold-20" x="1796.142578"/>
     <use xlink:href="#DejaVuSans-Bold-28" x="1830.957031"/>
     <use xlink:href="#DejaVuSans-Bold-66" x="1876.660156"/>
     <use xlink:href="#DejaVuSans-Bold-6f" x="1920.166016"/>
     <use xlink:href="#DejaVuSans-Bold-72" x="1988.867188"/>
     <use xlink:href="#DejaVuSans-Bold-6d" x="2038.183594"/>
     <use xlink:href="#DejaVuSans-Bold-61" x="2142.382812"/>
     <use xlink:href="#DejaVuSans-Bold-20" x="2209.863281"/>
     <use xlink:href="#DejaVuSans-Bold-64" x="2244.677734"/>
     <use xlink:href="#DejaVuSans-Bold-65" x="2316.259766"/>
     <use xlink:href="#DejaVuSans-Bold-20" x="2384.082031"/>
     <use xlink:href="#DejaVuSans-Bold-55" x="2418.896484"/>
     <use xlink:href="#DejaVuSans-Bold-29" x="2500.097656"/>
    </g>
   </g>
   <g id="legend_1">
    <g id="patch_5">
     <path d="M 653.614803 106.219219 
L 785.23699 106.219219 
Q 787.03699 106.219219 787.03699 104.419219 
L 787.03699 52.477969 
Q 787.03699 50.677969 785.23699 50.677969 
L 653.614803 50.677969 
Q 651.814803 50.677969 651.814803 52.477969 
L 651.814803 104.419219 
Q 651.814803 106.219219 653.614803 106.219219 
z
" style="fill: #ffffff; opacity: 0.8; stroke: #cccccc; stroke-linejoin: miter"/>
    </g>
    <g id="line2d_33">
     <path d="M 655.414803 57.966562 
L 664.414803 57.966562 
L 673.414803 57.966562 
" style="fill: none; stroke: #e67e22; stroke-width: 3; stroke-linecap: square"/>
    </g>
    <g id="text_17">
     <!-- CMg (marginal) -->
     <g transform="translate(680.614803 61.116562) scale(0.09 -0.09)">
      <defs>
       <path id="DejaVuSans-43" d="M 4122 4306 
L 4122 3641 
Q 3803 3938 3442 4084 
Q 3081 4231 2675 4231 
Q 1875 4231 1450 3742 
Q 1025 3253 1025 2328 
Q 1025 1406 1450 917 
Q 1875 428 2675 428 
Q 3081 428 3442 575 
Q 3803 722 4122 1019 
L 4122 359 
Q 3791 134 3420 21 
Q 3050 -91 2638 -91 
Q 1578 -91 968 557 
Q 359 1206 359 2328 
Q 359 3453 968 4101 
Q 1578 4750 2638 4750 
Q 3056 4750 3426 4639 
Q 3797 4528 4122 4306 
z
" transform="scale(0.015625)"/>
       <path id="DejaVuSans-4d" d="M 628 4666 
L 1569 4666 
L 2759 1491 
L 3956 4666 
L 4897 4666 
L 4897 0 
L 4281 0 
L 4281 4097 
L 3078 897 
L 2444 897 
L 1241 4097 
L 1241 0 
L 628 0 
L 628 4666 
z
" transform="scale(0.015625)"/>
       <path id="DejaVuSans-67" d="M 2906 1791 
Q 2906 2416 2648 2759 
Q 2391 3103 1925 3103 
Q 1463 3103 1205 2759 
Q 947 2416 947 1791 
Q 947 1169 1205 825 
Q 1463 481 1925 481 
Q 2391 481 2648 825 
Q 2906 1169 2906 1791 
z
M 3481 434 
Q 3481 -459 3084 -895 
Q 2688 -1331 1869 -1331 
Q 1566 -1331 1297 -1286 
Q 1028 -1241 775 -1147 
L 775 -588 
Q 1028 -725 1275 -790 
Q 1522 -856 1778 -856 
Q 2344 -856 2625 -561 
Q 2906 -266 2906 331 
L 2906 616 
Q 2728 306 2450 153 
Q 2172 0 1784 0 
Q 1141 0 747 490 
Q 353 981 353 1791 
Q 353 2603 747 3093 
Q 1141 3584 1784 3584 
Q 2172 3584 2450 3431 
Q 2728 3278 2906 2969 
L 2906 3500 
L 3481 3500 
L 3481 434 
z
" transform="scale(0.015625)"/>
       <path id="DejaVuSans-20" transform="scale(0.015625)"/>
       <path id="DejaVuSans-28" d="M 1984 4856 
Q 1566 4138 1362 3434 
Q 1159 2731 1159 2009 
Q 1159 1288 1364 580 
Q 1569 -128 1984 -844 
L 1484 -844 
Q 1016 -109 783 600 
Q 550 1309 550 2009 
Q 550 2706 781 3412 
Q 1013 4119 1484 4856 
L 1984 4856 
z
" transform="scale(0.015625)"/>
       <path id="DejaVuSans-6d" d="M 3328 2828 
Q 3544 3216 3844 3400 
Q 4144 3584 4550 3584 
Q 5097 3584 5394 3201 
Q 5691 2819 5691 2113 
L 5691 0 
L 5113 0 
L 5113 2094 
Q 5113 2597 4934 2840 
Q 4756 3084 4391 3084 
Q 3944 3084 3684 2787 
Q 3425 2491 3425 1978 
L 3425 0 
L 2847 0 
L 2847 2094 
Q 2847 2600 2669 2842 
Q 2491 3084 2119 3084 
Q 1678 3084 1418 2786 
Q 1159 2488 1159 1978 
L 1159 0 
L 581 0 
L 581 3500 
L 1159 3500 
L 1159 2956 
Q 1356 3278 1631 3431 
Q 1906 3584 2284 3584 
Q 2666 3584 2933 3390 
Q 3200 3197 3328 2828 
z
" transform="scale(0.015625)"/>
       <path id="DejaVuSans-61" d="M 2194 1759 
Q 1497 1759 1228 1600 
Q 959 1441 959 1056 
Q 959 750 1161 570 
Q 1363 391 1709 391 
Q 2188 391 2477 730 
Q 2766 1069 2766 1631 
L 2766 1759 
L 2194 1759 
z
M 3341 1997 
L 3341 0 
L 2766 0 
L 2766 531 
Q 2569 213 2275 61 
Q 1981 -91 1556 -91 
Q 1019 -91 701 211 
Q 384 513 384 1019 
Q 384 1609 779 1909 
Q 1175 2209 1959 2209 
L 2766 2209 
L 2766 2266 
Q 2766 2663 2505 2880 
Q 2244 3097 1772 3097 
Q 1472 3097 1187 3025 
Q 903 2953 641 2809 
L 641 3341 
Q 956 3463 1253 3523 
Q 1550 3584 1831 3584 
Q 2591 3584 2966 3190 
Q 3341 2797 3341 1997 
z
" transform="scale(0.015625)"/>
       <path id="DejaVuSans-72" d="M 2631 2963 
Q 2534 3019 2420 3045 
Q 2306 3072 2169 3072 
Q 1681 3072 1420 2755 
Q 1159 2438 1159 1844 
L 1159 0 
L 581 0 
L 581 3500 
L 1159 3500 
L 1159 2956 
Q 1341 3275 1631 3429 
Q 1922 3584 2338 3584 
Q 2397 3584 2469 3576 
Q 2541 3569 2628 3553 
L 2631 2963 
z
" transform="scale(0.015625)"/>
       <path id="DejaVuSans-69" d="M 603 3500 
L 1178 3500 
L 1178 0 
L 603 0 
L 603 3500 
z
M 603 4863 
L 1178 4863 
L 1178 4134 
L 603 4134 
L 603 4863 
z
" transform="scale(0.015625)"/>
       <path id="DejaVuSans-6e" d="M 3513 2113 
L 3513 0 
L 2938 0 
L 2938 2094 
Q 2938 2591 2744 2837 
Q 2550 3084 2163 3084 
Q 1697 3084 1428 2787 
Q 1159 2491 1159 1978 
L 1159 0 
L 581 0 
L 581 3500 
L 1159 3500 
L 1159 2956 
Q 1366 3272 1645 3428 
Q 1925 3584 2291 3584 
Q 2894 3584 3203 3211 
Q 3513 2838 3513 2113 
z
" transform="scale(0.015625)"/>
       <path id="DejaVuSans-6c" d="M 603 4863 
L 1178 4863 
L 1178 0 
L 603 0 
L 603 4863 
z
" transform="scale(0.015625)"/>
       <path id="DejaVuSans-29" d="M 513 4856 
L 1013 4856 
Q 1481 4119 1714 3412 
Q 1947 2706 1947 2009 
Q 1947 1309 1714 600 
Q 1481 -109 1013 -844 
L 513 -844 
Q 928 -128 1133 580 
Q 1338 1288 1338 2009 
Q 1338 2731 1133 3434 
Q 928 4138 513 4856 
z
" transform="scale(0.015625)"/>
      </defs>
      <use xlink:href="#DejaVuSans-43"/>
      <use xlink:href="#DejaVuSans-4d" x="69.824219"/>
      <use xlink:href="#DejaVuSans-67" x="156.103516"/>
      <use xlink:href="#DejaVuSans-20" x="219.580078"/>
      <use xlink:href="#DejaVuSans-28" x="251.367188"/>
      <use xlink:href="#DejaVuSans-6d" x="290.380859"/>
      <use xlink:href="#DejaVuSans-61" x="387.792969"/>
      <use xlink:href="#DejaVuSans-72" x="449.072266"/>
      <use xlink:href="#DejaVuSans-67" x="488.435547"/>
      <use xlink:href="#DejaVuSans-69" x="551.912109"/>
      <use xlink:href="#DejaVuSans-6e" x="579.695312"/>
      <use xlink:href="#DejaVuSans-61" x="643.074219"/>
      <use xlink:href="#DejaVuSans-6c" x="704.353516"/>
      <use xlink:href="#DejaVuSans-29" x="732.136719"/>
     </g>
    </g>
    <g id="line2d_34">
     <path d="M 655.414803 71.176875 
L 664.414803 71.176875 
L 673.414803 71.176875 
" style="fill: none; stroke: #16a085; stroke-width: 3; stroke-linecap: square"/>
    </g>
    <g id="text_18">
     <!-- CTMe (total medio) -->
     <g transform="translate(680.614803 74.326875) scale(0.09 -0.09)">
      <defs>
       <path id="DejaVuSans-54" d="M -19 4666 
L 3928 4666 
L 3928 4134 
L 2272 4134 
L 2272 0 
L 1638 0 
L 1638 4134 
L -19 4134 
L -19 4666 
z
" transform="scale(0.015625)"/>
       <path id="DejaVuSans-65" d="M 3597 1894 
L 3597 1613 
L 953 1613 
Q 991 1019 1311 708 
Q 1631 397 2203 397 
Q 2534 397 2845 478 
Q 3156 559 3463 722 
L 3463 178 
Q 3153 47 2828 -22 
Q 2503 -91 2169 -91 
Q 1331 -91 842 396 
Q 353 884 353 1716 
Q 353 2575 817 3079 
Q 1281 3584 2069 3584 
Q 2775 3584 3186 3129 
Q 3597 2675 3597 1894 
z
M 3022 2063 
Q 3016 2534 2758 2815 
Q 2500 3097 2075 3097 
Q 1594 3097 1305 2825 
Q 1016 2553 972 2059 
L 3022 2063 
z
" transform="scale(0.015625)"/>
       <path id="DejaVuSans-74" d="M 1172 4494 
L 1172 3500 
L 2356 3500 
L 2356 3053 
L 1172 3053 
L 1172 1153 
Q 1172 725 1289 603 
Q 1406 481 1766 481 
L 2356 481 
L 2356 0 
L 1766 0 
Q 1100 0 847 248 
Q 594 497 594 1153 
L 594 3053 
L 172 3053 
L 172 3500 
L 594 3500 
L 594 4494 
L 1172 4494 
z
" transform="scale(0.015625)"/>
       <path id="DejaVuSans-6f" d="M 1959 3097 
Q 1497 3097 1228 2736 
Q 959 2375 959 1747 
Q 959 1119 1226 758 
Q 1494 397 1959 397 
Q 2419 397 2687 759 
Q 2956 1122 2956 1747 
Q 2956 2369 2687 2733 
Q 2419 3097 1959 3097 
z
M 1959 3584 
Q 2709 3584 3137 3096 
Q 3566 2609 3566 1747 
Q 3566 888 3137 398 
Q 2709 -91 1959 -91 
Q 1206 -91 779 398 
Q 353 888 353 1747 
Q 353 2609 779 3096 
Q 1206 3584 1959 3584 
z
" transform="scale(0.015625)"/>
       <path id="DejaVuSans-64" d="M 2906 2969 
L 2906 4863 
L 3481 4863 
L 3481 0 
L 2906 0 
L 2906 525 
Q 2725 213 2448 61 
Q 2172 -91 1784 -91 
Q 1150 -91 751 415 
Q 353 922 353 1747 
Q 353 2572 751 3078 
Q 1150 3584 1784 3584 
Q 2172 3584 2448 3432 
Q 2725 3281 2906 2969 
z
M 947 1747 
Q 947 1113 1208 752 
Q 1469 391 1925 391 
Q 2381 391 2643 752 
Q 2906 1113 2906 1747 
Q 2906 2381 2643 2742 
Q 2381 3103 1925 3103 
Q 1469 3103 1208 2742 
Q 947 2381 947 1747 
z
" transform="scale(0.015625)"/>
      </defs>
      <use xlink:href="#DejaVuSans-43"/>
      <use xlink:href="#DejaVuSans-54" x="69.824219"/>
      <use xlink:href="#DejaVuSans-4d" x="130.908203"/>
      <use xlink:href="#DejaVuSans-65" x="217.1875"/>
      <use xlink:href="#DejaVuSans-20" x="278.710938"/>
      <use xlink:href="#DejaVuSans-28" x="310.498047"/>
      <use xlink:href="#DejaVuSans-74" x="349.511719"/>
      <use xlink:href="#DejaVuSans-6f" x="388.720703"/>
      <use xlink:href="#DejaVuSans-74" x="449.902344"/>
      <use xlink:href="#DejaVuSans-61" x="489.111328"/>
      <use xlink:href="#DejaVuSans-6c" x="550.390625"/>
      <use xlink:href="#DejaVuSans-20" x="578.173828"/>
      <use xlink:href="#DejaVuSans-6d" x="609.960938"/>
      <use xlink:href="#DejaVuSans-65" x="707.373047"/>
      <use xlink:href="#DejaVuSans-64" x="768.896484"/>
      <use xlink:href="#DejaVuSans-69" x="832.373047"/>
      <use xlink:href="#DejaVuSans-6f" x="860.15625"/>
      <use xlink:href="#DejaVuSans-29" x="921.337891"/>
     </g>
    </g>
    <g id="line2d_35">
     <path d="M 655.414803 84.387187 
L 664.414803 84.387187 
L 673.414803 84.387187 
" style="fill: none; stroke: #8e44ad; stroke-width: 2.5; stroke-linecap: square"/>
    </g>
    <g id="text_19">
     <!-- CVMe (variable medio) -->
     <g transform="translate(680.614803 87.537187) scale(0.09 -0.09)">
      <defs>
       <path id="DejaVuSans-56" d="M 1831 0 
L 50 4666 
L 709 4666 
L 2188 738 
L 3669 4666 
L 4325 4666 
L 2547 0 
L 1831 0 
z
" transform="scale(0.015625)"/>
       <path id="DejaVuSans-76" d="M 191 3500 
L 800 3500 
L 1894 563 
L 2988 3500 
L 3597 3500 
L 2284 0 
L 1503 0 
L 191 3500 
z
" transform="scale(0.015625)"/>
       <path id="DejaVuSans-62" d="M 3116 1747 
Q 3116 2381 2855 2742 
Q 2594 3103 2138 3103 
Q 1681 3103 1420 2742 
Q 1159 2381 1159 1747 
Q 1159 1113 1420 752 
Q 1681 391 2138 391 
Q 2594 391 2855 752 
Q 3116 1113 3116 1747 
z
M 1159 2969 
Q 1341 3281 1617 3432 
Q 1894 3584 2278 3584 
Q 2916 3584 3314 3078 
Q 3713 2572 3713 1747 
Q 3713 922 3314 415 
Q 2916 -91 2278 -91 
Q 1894 -91 1617 61 
Q 1341 213 1159 525 
L 1159 0 
L 581 0 
L 581 4863 
L 1159 4863 
L 1159 2969 
z
" transform="scale(0.015625)"/>
      </defs>
      <use xlink:href="#DejaVuSans-43"/>
      <use xlink:href="#DejaVuSans-56" x="69.824219"/>
      <use xlink:href="#DejaVuSans-4d" x="138.232422"/>
      <use xlink:href="#DejaVuSans-65" x="224.511719"/>
      <use xlink:href="#DejaVuSans-20" x="286.035156"/>
      <use xlink:href="#DejaVuSans-28" x="317.822266"/>
      <use xlink:href="#DejaVuSans-76" x="356.835938"/>
      <use xlink:href="#DejaVuSans-61" x="416.015625"/>
      <use xlink:href="#DejaVuSans-72" x="477.294922"/>
      <use xlink:href="#DejaVuSans-69" x="518.408203"/>
      <use xlink:href="#DejaVuSans-61" x="546.191406"/>
      <use xlink:href="#DejaVuSans-62" x="607.470703"/>
      <use xlink:href="#DejaVuSans-6c" x="670.947266"/>
      <use xlink:href="#DejaVuSans-65" x="698.730469"/>
      <use xlink:href="#DejaVuSans-20" x="760.253906"/>
      <use xlink:href="#DejaVuSans-6d" x="792.041016"/>
      <use xlink:href="#DejaVuSans-65" x="889.453125"/>
      <use xlink:href="#DejaVuSans-64" x="950.976562"/>
      <use xlink:href="#DejaVuSans-69" x="1014.453125"/>
      <use xlink:href="#DejaVuSans-6f" x="1042.236328"/>
      <use xlink:href="#DejaVuSans-29" x="1103.417969"/>
     </g>
    </g>
    <g id="line2d_36">
     <path d="M 655.414803 97.5975 
L 664.414803 97.5975 
L 673.414803 97.5975 
" style="fill: none; stroke-dasharray: 7.4,3.2; stroke-dashoffset: 0; stroke: #7f8c8d; stroke-width: 2"/>
    </g>
    <g id="text_20">
     <!-- CFMe (fijo medio) -->
     <g transform="translate(680.614803 100.7475) scale(0.09 -0.09)">
      <defs>
       <path id="DejaVuSans-46" d="M 628 4666 
L 3309 4666 
L 3309 4134 
L 1259 4134 
L 1259 2759 
L 3109 2759 
L 3109 2228 
L 1259 2228 
L 1259 0 
L 628 0 
L 628 4666 
z
" transform="scale(0.015625)"/>
       <path id="DejaVuSans-66" d="M 2375 4863 
L 2375 4384 
L 1825 4384 
Q 1516 4384 1395 4259 
Q 1275 4134 1275 3809 
L 1275 3500 
L 2222 3500 
L 2222 3053 
L 1275 3053 
L 1275 0 
L 697 0 
L 697 3053 
L 147 3053 
L 147 3500 
L 697 3500 
L 697 3744 
Q 697 4328 969 4595 
Q 1241 4863 1831 4863 
L 2375 4863 
z
" transform="scale(0.015625)"/>
       <path id="DejaVuSans-6a" d="M 603 3500 
L 1178 3500 
L 1178 -63 
Q 1178 -731 923 -1031 
Q 669 -1331 103 -1331 
L -116 -1331 
L -116 -844 
L 38 -844 
Q 366 -844 484 -692 
Q 603 -541 603 -63 
L 603 3500 
z
M 603 4863 
L 1178 4863 
L 1178 4134 
L 603 4134 
L 603 4863 
z
" transform="scale(0.015625)"/>
      </defs>
      <use xlink:href="#DejaVuSans-43"/>
      <use xlink:href="#DejaVuSans-46" x="69.824219"/>
      <use xlink:href="#DejaVuSans-4d" x="127.34375"/>
      <use xlink:href="#DejaVuSans-65" x="213.623047"/>
      <use xlink:href="#DejaVuSans-20" x="275.146484"/>
      <use xlink:href="#DejaVuSans-28" x="306.933594"/>
      <use xlink:href="#DejaVuSans-66" x="345.947266"/>
      <use xlink:href="#DejaVuSans-69" x="381.152344"/>
      <use xlink:href="#DejaVuSans-6a" x="408.935547"/>
      <use xlink:href="#DejaVuSans-6f" x="436.71875"/>
      <use xlink:href="#DejaVuSans-20" x="497.900391"/>
      <use xlink:href="#DejaVuSans-6d" x="529.6875"/>
      <use xlink:href="#DejaVuSans-65" x="627.099609"/>
      <use xlink:href="#DejaVuSans-64" x="688.623047"/>
      <use xlink:href="#DejaVuSans-69" x="752.099609"/>
      <use xlink:href="#DejaVuSans-6f" x="779.882812"/>
      <use xlink:href="#DejaVuSans-29" x="841.064453"/>
     </g>
    </g>
   </g>
   <g id="line2d_37">
    <defs>
     <path id="m8f391a84f6" d="M 0 5.5 
C 1.458617 5.5 2.857689 4.920485 3.889087 3.889087 
C 4.920485 2.857689 5.5 1.458617 5.5 0 
C 5.5 -1.458617 4.920485 -2.857689 3.889087 -3.889087 
C 2.857689 -4.920485 1.458617 -5.5 0 -5.5 
C -1.458617 -5.5 -2.857689 -4.920485 -3.889087 -3.889087 
C -4.920485 -2.857689 -5.5 -1.458617 -5.5 0 
C -5.5 1.458617 -4.920485 2.857689 -3.889087 3.889087 
C -2.857689 4.920485 -1.458617 5.5 0 5.5 
z
" style="stroke: #8e44ad"/>
    </defs>
    <g clip-path="url(#pdb83f8d312)">
     <use xlink:href="#m8f391a84f6" x="395.754257" y="329.666334" style="fill: #8e44ad; stroke: #8e44ad"/>
    </g>
   </g>
   <g id="line2d_38">
    <defs>
     <path id="m235c69fed4" d="M 0 5.5 
C 1.458617 5.5 2.857689 4.920485 3.889087 3.889087 
C 4.920485 2.857689 5.5 1.458617 5.5 0 
C 5.5 -1.458617 4.920485 -2.857689 3.889087 -3.889087 
C 2.857689 -4.920485 1.458617 -5.5 0 -5.5 
C -1.458617 -5.5 -2.857689 -4.920485 -3.889087 -3.889087 
C -4.920485 -2.857689 -5.5 -1.458617 -5.5 0 
C -5.5 1.458617 -4.920485 2.857689 -3.889087 3.889087 
C -2.857689 4.920485 -1.458617 5.5 0 5.5 
z
" style="stroke: #16a085"/>
    </defs>
    <g clip-path="url(#pdb83f8d312)">
     <use xlink:href="#m235c69fed4" x="423.747568" y="314.8823" style="fill: #16a085; stroke: #16a085"/>
    </g>
   </g>
   <g id="patch_6">
    <path d="M 461.019866 343.808341 
Q 429.36501 336.949243 399.130633 330.397941 
" style="fill: none; stroke: #8e44ad; stroke-width: 1.3; stroke-linecap: round"/>
    <path d="M 402.616373 333.199658 
L 399.130633 330.397941 
L 403.463451 329.290379 
" style="fill: none; stroke: #8e44ad; stroke-width: 1.3; stroke-linecap: round"/>
   </g>
   <g id="text_21">
    <g id="patch_7">
     <path d="M 466.082834 369.61957 
L 570.162522 369.61957 
Q 573.162522 369.61957 573.162522 366.61957 
L 573.162522 345.743633 
Q 573.162522 342.743633 570.162522 342.743633 
L 466.082834 342.743633 
Q 463.082834 342.743633 463.082834 345.743633 
L 463.082834 366.61957 
Q 463.082834 369.61957 466.082834 369.61957 
z
" style="fill: #fffbeb; opacity: 0.97; stroke: #f39c12; stroke-width: 0.7; stroke-linejoin: miter"/>
    </g>
    <!-- Punto de cierre -->
    <g style="fill: #8e44ad" transform="translate(474.670334 353.34207) scale(0.1 -0.1)">
     <defs>
      <path id="DejaVuSans-Bold-50" d="M 588 4666 
L 2584 4666 
Q 3475 4666 3951 4270 
Q 4428 3875 4428 3144 
Q 4428 2409 3951 2014 
Q 3475 1619 2584 1619 
L 1791 1619 
L 1791 0 
L 588 0 
L 588 4666 
z
M 1791 3794 
L 1791 2491 
L 2456 2491 
Q 2806 2491 2997 2661 
Q 3188 2831 3188 3144 
Q 3188 3456 2997 3625 
Q 2806 3794 2456 3794 
L 1791 3794 
z
" transform="scale(0.015625)"/>
     </defs>
     <use xlink:href="#DejaVuSans-Bold-50"/>
     <use xlink:href="#DejaVuSans-Bold-75" x="73.291016"/>
     <use xlink:href="#DejaVuSans-Bold-6e" x="144.482422"/>
     <use xlink:href="#DejaVuSans-Bold-74" x="215.673828"/>
     <use xlink:href="#DejaVuSans-Bold-6f" x="263.476562"/>
     <use xlink:href="#DejaVuSans-Bold-20" x="332.177734"/>
     <use xlink:href="#DejaVuSans-Bold-64" x="366.992188"/>
     <use xlink:href="#DejaVuSans-Bold-65" x="438.574219"/>
     <use xlink:href="#DejaVuSans-Bold-20" x="506.396484"/>
     <use xlink:href="#DejaVuSans-Bold-63" x="541.210938"/>
     <use xlink:href="#DejaVuSans-Bold-69" x="600.488281"/>
     <use xlink:href="#DejaVuSans-Bold-65" x="634.765625"/>
     <use xlink:href="#DejaVuSans-Bold-72" x="702.587891"/>
     <use xlink:href="#DejaVuSans-Bold-72" x="751.904297"/>
     <use xlink:href="#DejaVuSans-Bold-65" x="801.220703"/>
    </g>
    <!-- P &lt; CVMe → cerrar -->
    <g style="fill: #8e44ad" transform="translate(466.082834 364.539883) scale(0.1 -0.1)">
     <defs>
      <path id="DejaVuSans-Bold-3c" d="M 4684 3041 
L 1672 2003 
L 4684 972 
L 4684 191 
L 678 1638 
L 678 2375 
L 4684 3822 
L 4684 3041 
z
" transform="scale(0.015625)"/>
      <path id="DejaVuSans-Bold-56" d="M 31 4666 
L 1241 4666 
L 2478 1222 
L 3713 4666 
L 4922 4666 
L 3194 0 
L 1759 0 
L 31 4666 
z
" transform="scale(0.015625)"/>
      <path id="DejaVuSans-Bold-4d" d="M 588 4666 
L 2119 4666 
L 3181 2169 
L 4250 4666 
L 5778 4666 
L 5778 0 
L 4641 0 
L 4641 3413 
L 3566 897 
L 2803 897 
L 1728 3413 
L 1728 0 
L 588 0 
L 588 4666 
z
" transform="scale(0.015625)"/>
      <path id="DejaVuSans-Bold-2192" d="M 5050 2225 
L 5050 1788 
L 3822 559 
L 3369 1013 
L 3988 1631 
L 366 1631 
L 366 2381 
L 3988 2381 
L 3369 3000 
L 3822 3453 
L 5050 2225 
z
" transform="scale(0.015625)"/>
     </defs>
     <use xlink:href="#DejaVuSans-Bold-50"/>
     <use xlink:href="#DejaVuSans-Bold-20" x="73.291016"/>
     <use xlink:href="#DejaVuSans-Bold-3c" x="108.105469"/>
     <use xlink:href="#DejaVuSans-Bold-20" x="191.894531"/>
     <use xlink:href="#DejaVuSans-Bold-43" x="226.708984"/>
     <use xlink:href="#DejaVuSans-Bold-56" x="300.097656"/>
     <use xlink:href="#DejaVuSans-Bold-4d" x="377.490234"/>
     <use xlink:href="#DejaVuSans-Bold-65" x="477.001953"/>
     <use xlink:href="#DejaVuSans-Bold-20" x="544.824219"/>
     <use xlink:href="#DejaVuSans-Bold-2192" x="579.638672"/>
     <use xlink:href="#DejaVuSans-Bold-20" x="663.427734"/>
     <use xlink:href="#DejaVuSans-Bold-63" x="698.242188"/>
     <use xlink:href="#DejaVuSans-Bold-65" x="757.519531"/>
     <use xlink:href="#DejaVuSans-Bold-72" x="825.341797"/>
     <use xlink:href="#DejaVuSans-Bold-72" x="874.658203"/>
     <use xlink:href="#DejaVuSans-Bold-61" x="923.974609"/>
     <use xlink:href="#DejaVuSans-Bold-72" x="991.455078"/>
    </g>
   </g>
   <g id="patch_8">
    <path d="M 506.935727 228.754209 
Q 466.035982 271.099381 426.14598 312.399126 
" style="fill: none; stroke: #16a085; stroke-width: 1.3; stroke-linecap: round"/>
    <path d="M 430.36343 310.911469 
L 426.14598 312.399126 
L 427.486325 308.132572 
" style="fill: none; stroke: #16a085; stroke-width: 1.3; stroke-linecap: round"/>
   </g>
   <g id="text_22">
    <g id="patch_9">
     <path d="M 456.354024 226.965858 
L 586.930586 226.965858 
Q 589.930586 226.965858 589.930586 223.965858 
L 589.930586 203.089921 
Q 589.930586 200.089921 586.930586 200.089921 
L 456.354024 200.089921 
Q 453.354024 200.089921 453.354024 203.089921 
L 453.354024 223.965858 
Q 453.354024 226.965858 456.354024 226.965858 
z
" style="fill: #fffbeb; opacity: 0.97; stroke: #f39c12; stroke-width: 0.7; stroke-linejoin: miter"/>
    </g>
    <!-- Umbral de rentabilidad -->
    <g style="fill: #16a085" transform="translate(456.354024 210.688358) scale(0.1 -0.1)">
     <defs>
      <path id="DejaVuSans-Bold-62" d="M 2400 722 
Q 2759 722 2948 984 
Q 3138 1247 3138 1747 
Q 3138 2247 2948 2509 
Q 2759 2772 2400 2772 
Q 2041 2772 1848 2508 
Q 1656 2244 1656 1747 
Q 1656 1250 1848 986 
Q 2041 722 2400 722 
z
M 1656 2988 
Q 1888 3294 2169 3439 
Q 2450 3584 2816 3584 
Q 3463 3584 3878 3070 
Q 4294 2556 4294 1747 
Q 4294 938 3878 423 
Q 3463 -91 2816 -91 
Q 2450 -91 2169 54 
Q 1888 200 1656 506 
L 1656 0 
L 538 0 
L 538 4863 
L 1656 4863 
L 1656 2988 
z
" transform="scale(0.015625)"/>
     </defs>
     <use xlink:href="#DejaVuSans-Bold-55"/>
     <use xlink:href="#DejaVuSans-Bold-6d" x="81.201172"/>
     <use xlink:href="#DejaVuSans-Bold-62" x="185.400391"/>
     <use xlink:href="#DejaVuSans-Bold-72" x="256.982422"/>
     <use xlink:href="#DejaVuSans-Bold-61" x="306.298828"/>
     <use xlink:href="#DejaVuSans-Bold-6c" x="373.779297"/>
     <use xlink:href="#DejaVuSans-Bold-20" x="408.056641"/>
     <use xlink:href="#DejaVuSans-Bold-64" x="442.871094"/>
     <use xlink:href="#DejaVuSans-Bold-65" x="514.453125"/>
     <use xlink:href="#DejaVuSans-Bold-20" x="582.275391"/>
     <use xlink:href="#DejaVuSans-Bold-72" x="617.089844"/>
     <use xlink:href="#DejaVuSans-Bold-65" x="666.40625"/>
     <use xlink:href="#DejaVuSans-Bold-6e" x="734.228516"/>
     <use xlink:href="#DejaVuSans-Bold-74" x="805.419922"/>
     <use xlink:href="#DejaVuSans-Bold-61" x="853.222656"/>
     <use xlink:href="#DejaVuSans-Bold-62" x="920.703125"/>
     <use xlink:href="#DejaVuSans-Bold-69" x="992.285156"/>
     <use xlink:href="#DejaVuSans-Bold-6c" x="1026.5625"/>
     <use xlink:href="#DejaVuSans-Bold-69" x="1060.839844"/>
     <use xlink:href="#DejaVuSans-Bold-64" x="1095.117188"/>
     <use xlink:href="#DejaVuSans-Bold-61" x="1166.699219"/>
     <use xlink:href="#DejaVuSans-Bold-64" x="1234.179688"/>
    </g>
    <!-- P &gt; CTMe → π &gt; 0 -->
    <g style="fill: #16a085" transform="translate(472.082149 221.886171) scale(0.1 -0.1)">
     <defs>
      <path id="DejaVuSans-Bold-3e" d="M 678 3041 
L 678 3822 
L 4684 2375 
L 4684 1638 
L 678 191 
L 678 972 
L 3694 2003 
L 678 3041 
z
" transform="scale(0.015625)"/>
      <path id="DejaVuSans-Bold-54" d="M 31 4666 
L 4331 4666 
L 4331 3756 
L 2784 3756 
L 2784 0 
L 1581 0 
L 1581 3756 
L 31 3756 
L 31 4666 
z
" transform="scale(0.015625)"/>
      <path id="DejaVuSans-Bold-3c0" d="M 269 3500 
L 4684 3500 
L 4684 2700 
L 4072 2700 
L 4072 1131 
Q 4072 728 4148 629 
Q 4225 531 4400 531 
Q 4578 531 4678 544 
L 4678 -44 
Q 4484 -122 3822 -122 
Q 3613 -122 3409 -63 
Q 3084 34 2994 319 
Q 2953 453 2953 728 
L 2953 2700 
L 2000 2700 
L 2000 0 
L 881 0 
L 881 2700 
L 269 2700 
L 269 3500 
z
" transform="scale(0.015625)"/>
      <path id="DejaVuSans-Bold-30" d="M 2944 2338 
Q 2944 3213 2780 3570 
Q 2616 3928 2228 3928 
Q 1841 3928 1675 3570 
Q 1509 3213 1509 2338 
Q 1509 1453 1675 1090 
Q 1841 728 2228 728 
Q 2613 728 2778 1090 
Q 2944 1453 2944 2338 
z
M 4147 2328 
Q 4147 1169 3647 539 
Q 3147 -91 2228 -91 
Q 1306 -91 806 539 
Q 306 1169 306 2328 
Q 306 3491 806 4120 
Q 1306 4750 2228 4750 
Q 3147 4750 3647 4120 
Q 4147 3491 4147 2328 
z
" transform="scale(0.015625)"/>
     </defs>
     <use xlink:href="#DejaVuSans-Bold-50"/>
     <use xlink:href="#DejaVuSans-Bold-20" x="73.291016"/>
     <use xlink:href="#DejaVuSans-Bold-3e" x="108.105469"/>
     <use xlink:href="#DejaVuSans-Bold-20" x="191.894531"/>
     <use xlink:href="#DejaVuSans-Bold-43" x="226.708984"/>
     <use xlink:href="#DejaVuSans-Bold-54" x="300.097656"/>
     <use xlink:href="#DejaVuSans-Bold-4d" x="368.310547"/>
     <use xlink:href="#DejaVuSans-Bold-65" x="467.822266"/>
     <use xlink:href="#DejaVuSans-Bold-20" x="535.644531"/>
     <use xlink:href="#DejaVuSans-Bold-2192" x="570.458984"/>
     <use xlink:href="#DejaVuSans-Bold-20" x="654.248047"/>
     <use xlink:href="#DejaVuSans-Bold-3c0" x="689.0625"/>
     <use xlink:href="#DejaVuSans-Bold-20" x="768.164062"/>
     <use xlink:href="#DejaVuSans-Bold-3e" x="802.978516"/>
     <use xlink:href="#DejaVuSans-Bold-20" x="886.767578"/>
     <use xlink:href="#DejaVuSans-Bold-30" x="921.582031"/>
    </g>
   </g>
   <g id="text_23">
    <g id="patch_10">
     <path d="M 126.360518 84.818947 
L 273.896456 84.818947 
Q 276.896456 84.818947 276.896456 81.818947 
L 276.896456 60.943009 
Q 276.896456 57.943009 273.896456 57.943009 
L 126.360518 57.943009 
Q 123.360518 57.943009 123.360518 60.943009 
L 123.360518 81.818947 
Q 123.360518 84.818947 126.360518 84.818947 
z
" style="fill: #fffbeb; opacity: 0.97; stroke: #f39c12; stroke-width: 0.7; stroke-linejoin: miter"/>
    </g>
    <!-- CMg corta a CVMe y CTMe -->
    <g transform="translate(134.053487 68.541447) scale(0.1 -0.1)">
     <defs>
      <path id="DejaVuSans-Oblique-43" d="M 4447 4306 
L 4319 3641 
Q 4019 3944 3683 4091 
Q 3347 4238 2956 4238 
Q 2422 4238 2017 3981 
Q 1613 3725 1319 3200 
Q 1131 2863 1032 2486 
Q 934 2109 934 1728 
Q 934 1091 1264 756 
Q 1594 422 2222 422 
Q 2656 422 3056 561 
Q 3456 700 3834 978 
L 3688 231 
Q 3316 72 2936 -9 
Q 2556 -91 2175 -91 
Q 1278 -91 773 396 
Q 269 884 269 1753 
Q 269 2309 461 2846 
Q 653 3384 1013 3828 
Q 1394 4300 1883 4525 
Q 2372 4750 3022 4750 
Q 3422 4750 3780 4639 
Q 4138 4528 4447 4306 
z
" transform="scale(0.015625)"/>
      <path id="DejaVuSans-Oblique-4d" d="M 1081 4666 
L 2028 4666 
L 2572 1522 
L 4378 4666 
L 5350 4666 
L 4441 0 
L 3828 0 
L 4622 4091 
L 2791 897 
L 2175 897 
L 1581 4103 
L 788 0 
L 172 0 
L 1081 4666 
z
" transform="scale(0.015625)"/>
      <path id="DejaVuSans-Oblique-67" d="M 3816 3500 
L 3219 434 
Q 3047 -456 2561 -893 
Q 2075 -1331 1253 -1331 
Q 950 -1331 690 -1286 
Q 431 -1241 206 -1147 
L 313 -588 
Q 525 -725 762 -790 
Q 1000 -856 1269 -856 
Q 1816 -856 2167 -557 
Q 2519 -259 2631 300 
L 2681 563 
Q 2441 288 2122 144 
Q 1803 0 1434 0 
Q 903 0 598 351 
Q 294 703 294 1319 
Q 294 1803 478 2267 
Q 663 2731 997 3091 
Q 1219 3328 1514 3456 
Q 1809 3584 2131 3584 
Q 2484 3584 2746 3420 
Q 3009 3256 3138 2956 
L 3238 3500 
L 3816 3500 
z
M 2950 2216 
Q 2950 2641 2750 2872 
Q 2550 3103 2181 3103 
Q 1953 3103 1747 3012 
Q 1541 2922 1394 2759 
Q 1156 2491 1023 2127 
Q 891 1763 891 1375 
Q 891 944 1092 712 
Q 1294 481 1672 481 
Q 2219 481 2584 976 
Q 2950 1472 2950 2216 
z
" transform="scale(0.015625)"/>
      <path id="DejaVuSans-Oblique-20" transform="scale(0.015625)"/>
      <path id="DejaVuSans-Oblique-63" d="M 3431 3366 
L 3316 2797 
Q 3109 2947 2876 3022 
Q 2644 3097 2394 3097 
Q 2119 3097 1870 3000 
Q 1622 2903 1453 2725 
Q 1184 2453 1037 2087 
Q 891 1722 891 1331 
Q 891 859 1127 628 
Q 1363 397 1844 397 
Q 2081 397 2348 469 
Q 2616 541 2906 684 
L 2797 116 
Q 2547 13 2283 -39 
Q 2019 -91 1741 -91 
Q 1044 -91 669 257 
Q 294 606 294 1253 
Q 294 1797 489 2255 
Q 684 2713 1069 3078 
Q 1331 3328 1684 3456 
Q 2038 3584 2456 3584 
Q 2700 3584 2940 3529 
Q 3181 3475 3431 3366 
z
" transform="scale(0.015625)"/>
      <path id="DejaVuSans-Oblique-6f" d="M 1625 -91 
Q 1009 -91 651 289 
Q 294 669 294 1325 
Q 294 1706 417 2101 
Q 541 2497 738 2766 
Q 1047 3184 1428 3384 
Q 1809 3584 2291 3584 
Q 2888 3584 3255 3212 
Q 3622 2841 3622 2241 
Q 3622 1825 3500 1412 
Q 3378 1000 3181 728 
Q 2875 309 2494 109 
Q 2113 -91 1625 -91 
z
M 891 1344 
Q 891 869 1089 633 
Q 1288 397 1691 397 
Q 2269 397 2648 901 
Q 3028 1406 3028 2181 
Q 3028 2634 2825 2865 
Q 2622 3097 2228 3097 
Q 1903 3097 1650 2945 
Q 1397 2794 1197 2484 
Q 1050 2253 970 1956 
Q 891 1659 891 1344 
z
" transform="scale(0.015625)"/>
      <path id="DejaVuSans-Oblique-72" d="M 2853 2969 
Q 2766 3016 2653 3041 
Q 2541 3066 2413 3066 
Q 1953 3066 1609 2717 
Q 1266 2369 1153 1784 
L 800 0 
L 225 0 
L 909 3500 
L 1484 3500 
L 1375 2956 
Q 1603 3259 1920 3421 
Q 2238 3584 2597 3584 
Q 2691 3584 2781 3573 
Q 2872 3563 2963 3538 
L 2853 2969 
z
" transform="scale(0.015625)"/>
      <path id="DejaVuSans-Oblique-74" d="M 2706 3500 
L 2619 3053 
L 1472 3053 
L 1100 1153 
Q 1081 1047 1072 975 
Q 1063 903 1063 863 
Q 1063 663 1183 572 
Q 1303 481 1569 481 
L 2150 481 
L 2053 0 
L 1503 0 
Q 991 0 739 200 
Q 488 400 488 806 
Q 488 878 497 964 
Q 506 1050 525 1153 
L 897 3053 
L 409 3053 
L 500 3500 
L 978 3500 
L 1172 4494 
L 1747 4494 
L 1556 3500 
L 2706 3500 
z
" transform="scale(0.015625)"/>
      <path id="DejaVuSans-Oblique-61" d="M 3438 1997 
L 3047 0 
L 2472 0 
L 2578 531 
Q 2325 219 2001 64 
Q 1678 -91 1281 -91 
Q 834 -91 548 182 
Q 263 456 263 884 
Q 263 1497 752 1853 
Q 1241 2209 2100 2209 
L 2900 2209 
L 2931 2363 
Q 2938 2388 2941 2417 
Q 2944 2447 2944 2509 
Q 2944 2788 2717 2942 
Q 2491 3097 2081 3097 
Q 1800 3097 1504 3025 
Q 1209 2953 897 2809 
L 997 3341 
Q 1322 3463 1633 3523 
Q 1944 3584 2234 3584 
Q 2853 3584 3176 3315 
Q 3500 3047 3500 2534 
Q 3500 2431 3484 2292 
Q 3469 2153 3438 1997 
z
M 2816 1759 
L 2241 1759 
Q 1534 1759 1195 1570 
Q 856 1381 856 984 
Q 856 709 1029 553 
Q 1203 397 1509 397 
Q 1978 397 2328 733 
Q 2678 1069 2791 1631 
L 2816 1759 
z
" transform="scale(0.015625)"/>
      <path id="DejaVuSans-Oblique-56" d="M 1319 0 
L 500 4666 
L 1119 4666 
L 1797 653 
L 4063 4666 
L 4750 4666 
L 2053 0 
L 1319 0 
z
" transform="scale(0.015625)"/>
      <path id="DejaVuSans-Oblique-65" d="M 3078 2063 
Q 3088 2113 3092 2166 
Q 3097 2219 3097 2272 
Q 3097 2653 2873 2875 
Q 2650 3097 2266 3097 
Q 1838 3097 1509 2826 
Q 1181 2556 1013 2059 
L 3078 2063 
z
M 3578 1613 
L 903 1613 
Q 884 1494 878 1425 
Q 872 1356 872 1306 
Q 872 872 1139 634 
Q 1406 397 1894 397 
Q 2269 397 2603 481 
Q 2938 566 3225 728 
L 3116 159 
Q 2806 34 2476 -28 
Q 2147 -91 1806 -91 
Q 1078 -91 686 257 
Q 294 606 294 1247 
Q 294 1794 489 2264 
Q 684 2734 1063 3103 
Q 1306 3334 1642 3459 
Q 1978 3584 2356 3584 
Q 2950 3584 3301 3228 
Q 3653 2872 3653 2272 
Q 3653 2128 3634 1964 
Q 3616 1800 3578 1613 
z
" transform="scale(0.015625)"/>
      <path id="DejaVuSans-Oblique-79" d="M 1588 -325 
Q 1188 -997 936 -1164 
Q 684 -1331 294 -1331 
L -159 -1331 
L -63 -850 
L 269 -850 
Q 509 -850 678 -719 
Q 847 -588 1056 -206 
L 1234 128 
L 459 3500 
L 1069 3500 
L 1650 819 
L 3256 3500 
L 3859 3500 
L 1588 -325 
z
" transform="scale(0.015625)"/>
      <path id="DejaVuSans-Oblique-54" d="M 378 4666 
L 4325 4666 
L 4225 4134 
L 2559 4134 
L 1759 0 
L 1125 0 
L 1925 4134 
L 275 4134 
L 378 4666 
z
" transform="scale(0.015625)"/>
     </defs>
     <use xlink:href="#DejaVuSans-Oblique-43"/>
     <use xlink:href="#DejaVuSans-Oblique-4d" x="69.824219"/>
     <use xlink:href="#DejaVuSans-Oblique-67" x="156.103516"/>
     <use xlink:href="#DejaVuSans-Oblique-20" x="219.580078"/>
     <use xlink:href="#DejaVuSans-Oblique-63" x="251.367188"/>
     <use xlink:href="#DejaVuSans-Oblique-6f" x="306.347656"/>
     <use xlink:href="#DejaVuSans-Oblique-72" x="367.529297"/>
     <use xlink:href="#DejaVuSans-Oblique-74" x="408.642578"/>
     <use xlink:href="#DejaVuSans-Oblique-61" x="447.851562"/>
     <use xlink:href="#DejaVuSans-Oblique-20" x="509.130859"/>
     <use xlink:href="#DejaVuSans-Oblique-61" x="540.917969"/>
     <use xlink:href="#DejaVuSans-Oblique-20" x="602.197266"/>
     <use xlink:href="#DejaVuSans-Oblique-43" x="633.984375"/>
     <use xlink:href="#DejaVuSans-Oblique-56" x="703.808594"/>
     <use xlink:href="#DejaVuSans-Oblique-4d" x="772.216797"/>
     <use xlink:href="#DejaVuSans-Oblique-65" x="858.496094"/>
     <use xlink:href="#DejaVuSans-Oblique-20" x="920.019531"/>
     <use xlink:href="#DejaVuSans-Oblique-79" x="951.806641"/>
     <use xlink:href="#DejaVuSans-Oblique-20" x="1010.986328"/>
     <use xlink:href="#DejaVuSans-Oblique-43" x="1042.773438"/>
     <use xlink:href="#DejaVuSans-Oblique-54" x="1112.597656"/>
     <use xlink:href="#DejaVuSans-Oblique-4d" x="1173.681641"/>
     <use xlink:href="#DejaVuSans-Oblique-65" x="1259.960938"/>
    </g>
    <!-- exactamente en sus mínimos -->
    <g transform="translate(126.360518 79.739259) scale(0.1 -0.1)">
     <defs>
      <path id="DejaVuSans-Oblique-78" d="M 3841 3500 
L 2234 1784 
L 3219 0 
L 2559 0 
L 1819 1388 
L 531 0 
L -166 0 
L 1556 1844 
L 641 3500 
L 1300 3500 
L 1972 2234 
L 3144 3500 
L 3841 3500 
z
" transform="scale(0.015625)"/>
      <path id="DejaVuSans-Oblique-6d" d="M 5747 2113 
L 5338 0 
L 4763 0 
L 5166 2094 
Q 5191 2228 5203 2325 
Q 5216 2422 5216 2491 
Q 5216 2772 5059 2928 
Q 4903 3084 4622 3084 
Q 4203 3084 3875 2770 
Q 3547 2456 3450 1953 
L 3066 0 
L 2491 0 
L 2900 2094 
Q 2925 2209 2937 2307 
Q 2950 2406 2950 2484 
Q 2950 2769 2794 2926 
Q 2638 3084 2363 3084 
Q 1938 3084 1609 2770 
Q 1281 2456 1184 1953 
L 800 0 
L 225 0 
L 909 3500 
L 1484 3500 
L 1375 2956 
Q 1609 3263 1923 3423 
Q 2238 3584 2597 3584 
Q 2978 3584 3223 3384 
Q 3469 3184 3519 2828 
Q 3781 3197 4126 3390 
Q 4472 3584 4856 3584 
Q 5306 3584 5551 3325 
Q 5797 3066 5797 2591 
Q 5797 2488 5784 2364 
Q 5772 2241 5747 2113 
z
" transform="scale(0.015625)"/>
      <path id="DejaVuSans-Oblique-6e" d="M 3566 2113 
L 3156 0 
L 2578 0 
L 2988 2091 
Q 3016 2238 3031 2350 
Q 3047 2463 3047 2528 
Q 3047 2791 2881 2937 
Q 2716 3084 2419 3084 
Q 1956 3084 1622 2776 
Q 1288 2469 1184 1941 
L 800 0 
L 225 0 
L 903 3500 
L 1478 3500 
L 1363 2950 
Q 1603 3253 1940 3418 
Q 2278 3584 2650 3584 
Q 3113 3584 3367 3334 
Q 3622 3084 3622 2631 
Q 3622 2519 3608 2391 
Q 3594 2263 3566 2113 
z
" transform="scale(0.015625)"/>
      <path id="DejaVuSans-Oblique-73" d="M 3200 3397 
L 3091 2853 
Q 2863 2978 2609 3040 
Q 2356 3103 2088 3103 
Q 1634 3103 1373 2948 
Q 1113 2794 1113 2528 
Q 1113 2219 1719 2053 
Q 1766 2041 1788 2034 
L 1972 1978 
Q 2547 1819 2739 1644 
Q 2931 1469 2931 1166 
Q 2931 609 2489 259 
Q 2047 -91 1331 -91 
Q 1053 -91 747 -37 
Q 441 16 72 128 
L 184 722 
Q 500 559 806 475 
Q 1113 391 1394 391 
Q 1816 391 2080 572 
Q 2344 753 2344 1031 
Q 2344 1331 1650 1516 
L 1591 1531 
L 1394 1581 
Q 956 1697 753 1886 
Q 550 2075 550 2369 
Q 550 2928 970 3256 
Q 1391 3584 2113 3584 
Q 2397 3584 2667 3537 
Q 2938 3491 3200 3397 
z
" transform="scale(0.015625)"/>
      <path id="DejaVuSans-Oblique-75" d="M 428 1388 
L 838 3500 
L 1416 3500 
L 1006 1409 
Q 975 1256 961 1147 
Q 947 1038 947 966 
Q 947 700 1109 554 
Q 1272 409 1569 409 
Q 2031 409 2368 721 
Q 2706 1034 2809 1563 
L 3194 3500 
L 3769 3500 
L 3091 0 
L 2516 0 
L 2631 550 
Q 2388 244 2052 76 
Q 1716 -91 1338 -91 
Q 878 -91 622 161 
Q 366 413 366 863 
Q 366 956 381 1097 
Q 397 1238 428 1388 
z
" transform="scale(0.015625)"/>
      <path id="DejaVuSans-Oblique-ed" d="M 909 3500 
L 1484 3500 
L 800 0 
L 225 0 
L 909 3500 
z
M 1911 5119 
L 2533 5119 
L 1286 3944 
L 805 3944 
L 1911 5119 
z
" transform="scale(0.015625)"/>
      <path id="DejaVuSans-Oblique-69" d="M 1172 4863 
L 1747 4863 
L 1606 4134 
L 1031 4134 
L 1172 4863 
z
M 909 3500 
L 1484 3500 
L 800 0 
L 225 0 
L 909 3500 
z
" transform="scale(0.015625)"/>
     </defs>
     <use xlink:href="#DejaVuSans-Oblique-65"/>
     <use xlink:href="#DejaVuSans-Oblique-78" x="61.523438"/>
     <use xlink:href="#DejaVuSans-Oblique-61" x="120.703125"/>
     <use xlink:href="#DejaVuSans-Oblique-63" x="181.982422"/>
     <use xlink:href="#DejaVuSans-Oblique-74" x="236.962891"/>
     <use xlink:href="#DejaVuSans-Oblique-61" x="276.171875"/>
     <use xlink:href="#DejaVuSans-Oblique-6d" x="337.451172"/>
     <use xlink:href="#DejaVuSans-Oblique-65" x="434.863281"/>
     <use xlink:href="#DejaVuSans-Oblique-6e" x="496.386719"/>
     <use xlink:href="#DejaVuSans-Oblique-74" x="559.765625"/>
     <use xlink:href="#DejaVuSans-Oblique-65" x="598.974609"/>
     <use xlink:href="#DejaVuSans-Oblique-20" x="660.498047"/>
     <use xlink:href="#DejaVuSans-Oblique-65" x="692.285156"/>
     <use xlink:href="#DejaVuSans-Oblique-6e" x="753.808594"/>
     <use xlink:href="#DejaVuSans-Oblique-20" x="817.1875"/>
     <use xlink:href="#DejaVuSans-Oblique-73" x="848.974609"/>
     <use xlink:href="#DejaVuSans-Oblique-75" x="901.074219"/>
     <use xlink:href="#DejaVuSans-Oblique-73" x="964.453125"/>
     <use xlink:href="#DejaVuSans-Oblique-20" x="1016.552734"/>
     <use xlink:href="#DejaVuSans-Oblique-6d" x="1048.339844"/>
     <use xlink:href="#DejaVuSans-Oblique-ed" x="1145.751953"/>
     <use xlink:href="#DejaVuSans-Oblique-6e" x="1173.535156"/>
     <use xlink:href="#DejaVuSans-Oblique-69" x="1236.914062"/>
     <use xlink:href="#DejaVuSans-Oblique-6d" x="1264.697266"/>
     <use xlink:href="#DejaVuSans-Oblique-6f" x="1362.109375"/>
     <use xlink:href="#DejaVuSans-Oblique-73" x="1423.291016"/>
    </g>
   </g>
  </g>
 </g>
 <defs>
  <clipPath id="pdb83f8d312">
   <rect x="82.654803" y="50.677969" width="558" height="360.36"/>
  </clipPath>
 </defs>
</svg>
