<?xml version="1.0" encoding="utf-8" standalone="no"?>
<!DOCTYPE svg PUBLIC "-//W3C//DTD SVG 1.1//EN"
  "http://www.w3.org/Graphics/SVG/1.1/DTD/svg11.dtd">
<svg xmlns:xlink="http://www.w3.org/1999/xlink" width="732.804294pt" height="427.406686pt" viewBox="0 0 732.804294 427.406686" xmlns="http://www.w3.org/2000/svg" version="1.1">
 <metadata>
  <rdf:RDF xmlns:dc="http://purl.org/dc/elements/1.1/" xmlns:cc="http://creativecommons.org/ns#" xmlns:rdf="http://www.w3.org/1999/02/22-rdf-syntax-ns#">
   <cc:Work>
    <dc:type rdf:resource="http://purl.org/dc/dcmitype/StillImage"/>
    <dc:date>2026-04-28T17:41:34.070201</dc:date>
    <dc:format>image/svg+xml</dc:format>
    <dc:creator>
     <cc:Agent>
      <dc:title>Matplotlib v3.9.2, https://matplotlib.org/</dc:title>
     </cc:Agent>
    </dc:creator>
   </cc:Work>
  </rdf:RDF>
 </metadata>
 <defs>
  <style type="text/css">*{stroke-linejoin: round; stroke-linecap: butt}</style>
 </defs>
 <g id="figure_1">
  <g id="patch_1">
   <path d="M 0 427.406686 
L 732.804294 427.406686 
L 732.804294 0 
L 0 0 
z
" style="fill: #ffffff"/>
  </g>
  <g id="axes_1">
   <g id="patch_2">
    <path d="M 38.891357 383.317969 
L 568.991357 383.317969 
L 568.991357 50.677969 
L 38.891357 50.677969 
z
" style="fill: #ffffff"/>
   </g>
   <g id="matplotlib.axis_1">
    <g id="xtick_1">
     <g id="line2d_1">
      <path d="M 51.820625 383.317969 
L 51.820625 50.677969 
" clip-path="url(#p1ac944d5f2)" style="fill: none; stroke-dasharray: 0.8,1.32; stroke-dashoffset: 0; stroke: #b0b0b0; stroke-opacity: 0.4; stroke-width: 0.8"/>
     </g>
     <g id="line2d_2">
      <defs>
       <path id="m06db292989" d="M 0 0 
L 0 -4 
" style="stroke: #000000"/>
      </defs>
      <g>
       <use xlink:href="#m06db292989" x="51.820625" y="375.814811" style="stroke: #000000"/>
      </g>
     </g>
     <g id="text_1">
      <!-- 0 -->
      <g transform="translate(48.639375 386.913248) scale(0.1 -0.1)">
       <defs>
        <path id="DejaVuSans-30" d="M 2034 4250 
Q 1547 4250 1301 3770 
Q 1056 3291 1056 2328 
Q 1056 1369 1301 889 
Q 1547 409 2034 409 
Q 2525 409 2770 889 
Q 3016 1369 3016 2328 
Q 3016 3291 2770 3770 
Q 2525 4250 2034 4250 
z
M 2034 4750 
Q 2819 4750 3233 4129 
Q 3647 3509 3647 2328 
Q 3647 1150 3233 529 
Q 2819 -91 2034 -91 
Q 1250 -91 836 529 
Q 422 1150 422 2328 
Q 422 3509 836 4129 
Q 1250 4750 2034 4750 
z
" transform="scale(0.015625)"/>
       </defs>
       <use xlink:href="#DejaVuSans-30"/>
      </g>
     </g>
    </g>
    <g id="xtick_2">
     <g id="line2d_3">
      <path d="M 138.015747 383.317969 
L 138.015747 50.677969 
" clip-path="url(#p1ac944d5f2)" style="fill: none; stroke-dasharray: 0.8,1.32; stroke-dashoffset: 0; stroke: #b0b0b0; stroke-opacity: 0.4; stroke-width: 0.8"/>
     </g>
     <g id="line2d_4">
      <g>
       <use xlink:href="#m06db292989" x="138.015747" y="375.814811" style="stroke: #000000"/>
      </g>
     </g>
     <g id="text_2">
      <!-- 2 -->
      <g transform="translate(134.834497 386.913248) scale(0.1 -0.1)">
       <defs>
        <path id="DejaVuSans-32" d="M 1228 531 
L 3431 531 
L 3431 0 
L 469 0 
L 469 531 
Q 828 903 1448 1529 
Q 2069 2156 2228 2338 
Q 2531 2678 2651 2914 
Q 2772 3150 2772 3378 
Q 2772 3750 2511 3984 
Q 2250 4219 1831 4219 
Q 1534 4219 1204 4116 
Q 875 4013 500 3803 
L 500 4441 
Q 881 4594 1212 4672 
Q 1544 4750 1819 4750 
Q 2544 4750 2975 4387 
Q 3406 4025 3406 3419 
Q 3406 3131 3298 2873 
Q 3191 2616 2906 2266 
Q 2828 2175 2409 1742 
Q 1991 1309 1228 531 
z
" transform="scale(0.015625)"/>
       </defs>
       <use xlink:href="#DejaVuSans-32"/>
      </g>
     </g>
    </g>
    <g id="xtick_3">
     <g id="line2d_5">
      <path d="M 224.210869 383.317969 
L 224.210869 50.677969 
" clip-path="url(#p1ac944d5f2)" style="fill: none; stroke-dasharray: 0.8,1.32; stroke-dashoffset: 0; stroke: #b0b0b0; stroke-opacity: 0.4; stroke-width: 0.8"/>
     </g>
     <g id="line2d_6">
      <g>
       <use xlink:href="#m06db292989" x="224.210869" y="375.814811" style="stroke: #000000"/>
      </g>
     </g>
     <g id="text_3">
      <!-- 4 -->
      <g transform="translate(221.029619 386.913248) scale(0.1 -0.1)">
       <defs>
        <path id="DejaVuSans-34" d="M 2419 4116 
L 825 1625 
L 2419 1625 
L 2419 4116 
z
M 2253 4666 
L 3047 4666 
L 3047 1625 
L 3713 1625 
L 3713 1100 
L 3047 1100 
L 3047 0 
L 2419 0 
L 2419 1100 
L 313 1100 
L 313 1709 
L 2253 4666 
z
" transform="scale(0.015625)"/>
       </defs>
       <use xlink:href="#DejaVuSans-34"/>
      </g>
     </g>
    </g>
    <g id="xtick_4">
     <g id="line2d_7">
      <path d="M 310.405991 383.317969 
L 310.405991 50.677969 
" clip-path="url(#p1ac944d5f2)" style="fill: none; stroke-dasharray: 0.8,1.32; stroke-dashoffset: 0; stroke: #b0b0b0; stroke-opacity: 0.4; stroke-width: 0.8"/>
     </g>
     <g id="line2d_8">
      <g>
       <use xlink:href="#m06db292989" x="310.405991" y="375.814811" style="stroke: #000000"/>
      </g>
     </g>
     <g id="text_4">
      <!-- 6 -->
      <g transform="translate(307.224741 386.913248) scale(0.1 -0.1)">
       <defs>
        <path id="DejaVuSans-36" d="M 2113 2584 
Q 1688 2584 1439 2293 
Q 1191 2003 1191 1497 
Q 1191 994 1439 701 
Q 1688 409 2113 409 
Q 2538 409 2786 701 
Q 3034 994 3034 1497 
Q 3034 2003 2786 2293 
Q 2538 2584 2113 2584 
z
M 3366 4563 
L 3366 3988 
Q 3128 4100 2886 4159 
Q 2644 4219 2406 4219 
Q 1781 4219 1451 3797 
Q 1122 3375 1075 2522 
Q 1259 2794 1537 2939 
Q 1816 3084 2150 3084 
Q 2853 3084 3261 2657 
Q 3669 2231 3669 1497 
Q 3669 778 3244 343 
Q 2819 -91 2113 -91 
Q 1303 -91 875 529 
Q 447 1150 447 2328 
Q 447 3434 972 4092 
Q 1497 4750 2381 4750 
Q 2619 4750 2861 4703 
Q 3103 4656 3366 4563 
z
" transform="scale(0.015625)"/>
       </defs>
       <use xlink:href="#DejaVuSans-36"/>
      </g>
     </g>
    </g>
    <g id="xtick_5">
     <g id="line2d_9">
      <path d="M 396.601113 383.317969 
L 396.601113 50.677969 
" clip-path="url(#p1ac944d5f2)" style="fill: none; stroke-dasharray: 0.8,1.32; stroke-dashoffset: 0; stroke: #b0b0b0; stroke-opacity: 0.4; stroke-width: 0.8"/>
     </g>
     <g id="line2d_10">
      <g>
       <use xlink:href="#m06db292989" x="396.601113" y="375.814811" style="stroke: #000000"/>
      </g>
     </g>
     <g id="text_5">
      <!-- 8 -->
      <g transform="translate(393.419863 386.913248) scale(0.1 -0.1)">
       <defs>
        <path id="DejaVuSans-38" d="M 2034 2216 
Q 1584 2216 1326 1975 
Q 1069 1734 1069 1313 
Q 1069 891 1326 650 
Q 1584 409 2034 409 
Q 2484 409 2743 651 
Q 3003 894 3003 1313 
Q 3003 1734 2745 1975 
Q 2488 2216 2034 2216 
z
M 1403 2484 
Q 997 2584 770 2862 
Q 544 3141 544 3541 
Q 544 4100 942 4425 
Q 1341 4750 2034 4750 
Q 2731 4750 3128 4425 
Q 3525 4100 3525 3541 
Q 3525 3141 3298 2862 
Q 3072 2584 2669 2484 
Q 3125 2378 3379 2068 
Q 3634 1759 3634 1313 
Q 3634 634 3220 271 
Q 2806 -91 2034 -91 
Q 1263 -91 848 271 
Q 434 634 434 1313 
Q 434 1759 690 2068 
Q 947 2378 1403 2484 
z
M 1172 3481 
Q 1172 3119 1398 2916 
Q 1625 2713 2034 2713 
Q 2441 2713 2670 2916 
Q 2900 3119 2900 3481 
Q 2900 3844 2670 4047 
Q 2441 4250 2034 4250 
Q 1625 4250 1398 4047 
Q 1172 3844 1172 3481 
z
" transform="scale(0.015625)"/>
       </defs>
       <use xlink:href="#DejaVuSans-38"/>
      </g>
     </g>
    </g>
    <g id="xtick_6">
     <g id="line2d_11">
      <path d="M 482.796235 383.317969 
L 482.796235 50.677969 
" clip-path="url(#p1ac944d5f2)" style="fill: none; stroke-dasharray: 0.8,1.32; stroke-dashoffset: 0; stroke: #b0b0b0; stroke-opacity: 0.4; stroke-width: 0.8"/>
     </g>
     <g id="line2d_12">
      <g>
       <use xlink:href="#m06db292989" x="482.796235" y="375.814811" style="stroke: #000000"/>
      </g>
     </g>
     <g id="text_6">
      <!-- 10 -->
      <g transform="translate(476.433735 386.913248) scale(0.1 -0.1)">
       <defs>
        <path id="DejaVuSans-31" d="M 794 531 
L 1825 531 
L 1825 4091 
L 703 3866 
L 703 4441 
L 1819 4666 
L 2450 4666 
L 2450 531 
L 3481 531 
L 3481 0 
L 794 0 
L 794 531 
z
" transform="scale(0.015625)"/>
       </defs>
       <use xlink:href="#DejaVuSans-31"/>
       <use xlink:href="#DejaVuSans-30" x="63.623047"/>
      </g>
     </g>
    </g>
    <g id="xtick_7">
     <g id="line2d_13">
      <path d="M 568.991357 383.317969 
L 568.991357 50.677969 
" clip-path="url(#p1ac944d5f2)" style="fill: none; stroke-dasharray: 0.8,1.32; stroke-dashoffset: 0; stroke: #b0b0b0; stroke-opacity: 0.4; stroke-width: 0.8"/>
     </g>
     <g id="line2d_14">
      <g>
       <use xlink:href="#m06db292989" x="568.991357" y="375.814811" style="stroke: #000000"/>
      </g>
     </g>
     <g id="text_7">
      <!-- 12 -->
      <g transform="translate(562.628857 386.913248) scale(0.1 -0.1)">
       <use xlink:href="#DejaVuSans-31"/>
       <use xlink:href="#DejaVuSans-32" x="63.623047"/>
      </g>
     </g>
    </g>
    <g id="text_8">
     <!-- Q -->
     <g transform="translate(558.789482 396.111061) scale(0.12 -0.12)">
      <defs>
       <path id="DejaVuSans-Bold-51" d="M 2847 -84 
L 2753 -84 
Q 1600 -84 959 553 
Q 319 1191 319 2328 
Q 319 3463 958 4106 
Q 1597 4750 2719 4750 
Q 3853 4750 4486 4112 
Q 5119 3475 5119 2328 
Q 5119 1541 4783 972 
Q 4447 403 3816 116 
L 4756 -934 
L 3609 -934 
L 2847 -84 
z
M 2719 3878 
Q 2169 3878 1866 3472 
Q 1563 3066 1563 2328 
Q 1563 1578 1859 1179 
Q 2156 781 2719 781 
Q 3272 781 3575 1187 
Q 3878 1594 3878 2328 
Q 3878 3066 3575 3472 
Q 3272 3878 2719 3878 
z
" transform="scale(0.015625)"/>
      </defs>
      <use xlink:href="#DejaVuSans-Bold-51"/>
     </g>
    </g>
   </g>
   <g id="matplotlib.axis_2">
    <g id="ytick_1">
     <g id="line2d_15">
      <path d="M 38.891357 375.814811 
L 568.991357 375.814811 
" clip-path="url(#p1ac944d5f2)" style="fill: none; stroke-dasharray: 0.8,1.32; stroke-dashoffset: 0; stroke: #b0b0b0; stroke-opacity: 0.4; stroke-width: 0.8"/>
     </g>
     <g id="line2d_16">
      <defs>
       <path id="m0f50ef7c1e" d="M 0 0 
L 4 0 
" style="stroke: #000000"/>
      </defs>
      <g>
       <use xlink:href="#m0f50ef7c1e" x="51.820625" y="375.814811" style="stroke: #000000"/>
      </g>
     </g>
     <g id="text_9">
      <!-- 0 -->
      <g transform="translate(41.958125 379.61403) scale(0.1 -0.1)">
       <use xlink:href="#DejaVuSans-30"/>
      </g>
     </g>
    </g>
    <g id="ytick_2">
     <g id="line2d_17">
      <path d="M 38.891357 325.793758 
L 568.991357 325.793758 
" clip-path="url(#p1ac944d5f2)" style="fill: none; stroke-dasharray: 0.8,1.32; stroke-dashoffset: 0; stroke: #b0b0b0; stroke-opacity: 0.4; stroke-width: 0.8"/>
     </g>
     <g id="line2d_18">
      <g>
       <use xlink:href="#m0f50ef7c1e" x="51.820625" y="325.793758" style="stroke: #000000"/>
      </g>
     </g>
     <g id="text_10">
      <!-- 2 -->
      <g transform="translate(41.958125 329.592977) scale(0.1 -0.1)">
       <use xlink:href="#DejaVuSans-32"/>
      </g>
     </g>
    </g>
    <g id="ytick_3">
     <g id="line2d_19">
      <path d="M 38.891357 275.772706 
L 568.991357 275.772706 
" clip-path="url(#p1ac944d5f2)" style="fill: none; stroke-dasharray: 0.8,1.32; stroke-dashoffset: 0; stroke: #b0b0b0; stroke-opacity: 0.4; stroke-width: 0.8"/>
     </g>
     <g id="line2d_20">
      <g>
       <use xlink:href="#m0f50ef7c1e" x="51.820625" y="275.772706" style="stroke: #000000"/>
      </g>
     </g>
     <g id="text_11">
      <!-- 4 -->
      <g transform="translate(41.958125 279.571924) scale(0.1 -0.1)">
       <use xlink:href="#DejaVuSans-34"/>
      </g>
     </g>
    </g>
    <g id="ytick_4">
     <g id="line2d_21">
      <path d="M 38.891357 225.751653 
L 568.991357 225.751653 
" clip-path="url(#p1ac944d5f2)" style="fill: none; stroke-dasharray: 0.8,1.32; stroke-dashoffset: 0; stroke: #b0b0b0; stroke-opacity: 0.4; stroke-width: 0.8"/>
     </g>
     <g id="line2d_22">
      <g>
       <use xlink:href="#m0f50ef7c1e" x="51.820625" y="225.751653" style="stroke: #000000"/>
      </g>
     </g>
     <g id="text_12">
      <!-- 6 -->
      <g transform="translate(41.958125 229.550872) scale(0.1 -0.1)">
       <use xlink:href="#DejaVuSans-36"/>
      </g>
     </g>
    </g>
    <g id="ytick_5">
     <g id="line2d_23">
      <path d="M 38.891357 175.7306 
L 568.991357 175.7306 
" clip-path="url(#p1ac944d5f2)" style="fill: none; stroke-dasharray: 0.8,1.32; stroke-dashoffset: 0; stroke: #b0b0b0; stroke-opacity: 0.4; stroke-width: 0.8"/>
     </g>
     <g id="line2d_24">
      <g>
       <use xlink:href="#m0f50ef7c1e" x="51.820625" y="175.7306" style="stroke: #000000"/>
      </g>
     </g>
     <g id="text_13">
      <!-- 8 -->
      <g transform="translate(41.958125 179.529819) scale(0.1 -0.1)">
       <use xlink:href="#DejaVuSans-38"/>
      </g>
     </g>
    </g>
    <g id="ytick_6">
     <g id="line2d_25">
      <path d="M 38.891357 125.709548 
L 568.991357 125.709548 
" clip-path="url(#p1ac944d5f2)" style="fill: none; stroke-dasharray: 0.8,1.32; stroke-dashoffset: 0; stroke: #b0b0b0; stroke-opacity: 0.4; stroke-width: 0.8"/>
     </g>
     <g id="line2d_26">
      <g>
       <use xlink:href="#m0f50ef7c1e" x="51.820625" y="125.709548" style="stroke: #000000"/>
      </g>
     </g>
     <g id="text_14">
      <!-- 10 -->
      <g transform="translate(35.595625 129.508766) scale(0.1 -0.1)">
       <use xlink:href="#DejaVuSans-31"/>
       <use xlink:href="#DejaVuSans-30" x="63.623047"/>
      </g>
     </g>
    </g>
    <g id="ytick_7">
     <g id="line2d_27">
      <path d="M 38.891357 75.688495 
L 568.991357 75.688495 
" clip-path="url(#p1ac944d5f2)" style="fill: none; stroke-dasharray: 0.8,1.32; stroke-dashoffset: 0; stroke: #b0b0b0; stroke-opacity: 0.4; stroke-width: 0.8"/>
     </g>
     <g id="line2d_28">
      <g>
       <use xlink:href="#m0f50ef7c1e" x="51.820625" y="75.688495" style="stroke: #000000"/>
      </g>
     </g>
     <g id="text_15">
      <!-- 12 -->
      <g transform="translate(35.595625 79.487714) scale(0.1 -0.1)">
       <use xlink:href="#DejaVuSans-31"/>
       <use xlink:href="#DejaVuSans-32" x="63.623047"/>
      </g>
     </g>
    </g>
    <g id="text_16">
     <!-- P -->
     <g transform="translate(28.8 48.182344) scale(0.12 -0.12)">
      <defs>
       <path id="DejaVuSans-Bold-50" d="M 588 4666 
L 2584 4666 
Q 3475 4666 3951 4270 
Q 4428 3875 4428 3144 
Q 4428 2409 3951 2014 
Q 3475 1619 2584 1619 
L 1791 1619 
L 1791 0 
L 588 0 
L 588 4666 
z
M 1791 3794 
L 1791 2491 
L 2456 2491 
Q 2806 2491 2997 2661 
Q 3188 2831 3188 3144 
Q 3188 3456 2997 3625 
Q 2806 3794 2456 3794 
L 1791 3794 
z
" transform="scale(0.015625)"/>
      </defs>
      <use xlink:href="#DejaVuSans-Bold-50"/>
     </g>
    </g>
   </g>
   <g id="line2d_29">
    <path d="M 64.749893 178.731863 
L 69.407913 179.813127 
L 74.065932 180.89439 
L 78.723951 181.975653 
L 83.38197 183.056916 
L 88.039989 184.138179 
L 92.698009 185.219442 
L 97.356028 186.300706 
L 102.014047 187.381969 
L 106.672066 188.463232 
L 111.330085 189.544495 
L 115.988105 190.625758 
L 120.646124 191.707021 
L 125.304143 192.788285 
L 129.962162 193.869548 
L 134.620182 194.950811 
L 139.278201 196.032074 
L 143.93622 197.113337 
L 148.594239 198.1946 
L 153.252258 199.275863 
L 157.910278 200.357127 
L 162.568297 201.43839 
L 167.226316 202.519653 
L 171.884335 203.600916 
L 176.542354 204.682179 
L 181.200374 205.763442 
L 185.858393 206.844706 
L 190.516412 207.925969 
L 195.174431 209.007232 
L 199.832451 210.088495 
L 204.49047 211.169758 
L 209.148489 212.251021 
L 213.806508 213.332285 
L 218.464527 214.413548 
L 223.122547 215.494811 
L 227.780566 216.576074 
L 232.438585 217.657337 
L 237.096604 218.7386 
L 241.754624 219.819863 
L 246.412643 220.901127 
L 251.070662 221.98239 
L 255.728681 223.063653 
L 260.3867 224.144916 
L 265.04472 225.226179 
L 269.702739 226.307442 
L 274.360758 227.388706 
L 279.018777 228.469969 
L 283.676796 229.551232 
L 288.334816 230.632495 
L 292.992835 231.713758 
L 297.650854 232.795021 
L 302.308873 233.876285 
L 306.966893 234.957548 
L 311.624912 236.038811 
L 316.282931 237.120074 
L 320.94095 238.201337 
L 325.598969 239.2826 
L 330.256989 240.363863 
L 334.915008 241.445127 
L 339.573027 242.52639 
L 344.231046 243.607653 
L 348.889066 244.688916 
L 353.547085 245.770179 
L 358.205104 246.851442 
L 362.863123 247.932706 
L 367.521142 249.013969 
L 372.179162 250.095232 
L 376.837181 251.176495 
L 381.4952 252.257758 
L 386.153219 253.339021 
L 390.811238 254.420285 
L 395.469258 255.501548 
L 400.127277 256.582811 
L 404.785296 257.664074 
L 409.443315 258.745337 
L 414.101335 259.8266 
L 418.759354 260.907863 
L 423.417373 261.989127 
L 428.075392 263.07039 
L 432.733411 264.151653 
L 437.391431 265.232916 
L 442.04945 266.314179 
L 446.707469 267.395442 
L 451.365488 268.476706 
L 456.023507 269.557969 
L 460.681527 270.639232 
L 465.339546 271.720495 
L 469.997565 272.801758 
L 474.655584 273.883021 
L 479.313604 274.964285 
L 483.971623 276.045548 
L 488.629642 277.126811 
L 493.287661 278.208074 
L 497.94568 279.289337 
L 502.6037 280.3706 
L 507.261719 281.451863 
L 511.919738 282.533127 
L 516.577757 283.61439 
L 521.235777 284.695653 
L 525.893796 285.776916 
" clip-path="url(#p1ac944d5f2)" style="fill: none; stroke: #27ae60; stroke-width: 3; stroke-linecap: square"/>
   </g>
   <g id="line2d_30">
    <path d="M 123.408097 -1 
L 125.304143 9.102414 
L 129.962162 30.96215 
L 134.620182 50.362379 
L 139.278201 67.696082 
L 143.93622 83.276755 
L 148.594239 97.357534 
L 153.252258 110.145057 
L 157.910278 121.809671 
L 162.568297 132.493063 
L 167.226316 142.314046 
L 171.884335 151.372996 
L 176.542354 159.75529 
L 181.200374 167.534015 
L 185.858393 174.772094 
L 190.516412 181.523999 
L 195.174431 187.837123 
L 199.832451 193.752891 
L 204.49047 199.307675 
L 209.148489 204.533536 
L 213.806508 209.458851 
L 218.464527 214.108822 
L 223.122547 218.50591 
L 227.780566 222.670198 
L 232.438585 226.619697 
L 237.096604 230.370608 
L 241.754624 233.937541 
L 246.412643 237.333709 
L 251.070662 240.571087 
L 255.728681 243.660557 
L 260.3867 246.612029 
L 265.04472 249.434548 
L 269.702739 252.136384 
L 274.360758 254.725115 
L 279.018777 257.207697 
L 283.676796 259.590529 
L 288.334816 261.879503 
L 292.992835 264.080059 
L 297.650854 266.197222 
L 302.308873 268.235644 
L 306.966893 270.199638 
L 311.624912 272.093208 
L 316.282931 273.920074 
L 320.94095 275.6837 
L 325.598969 277.387314 
L 330.256989 279.033928 
L 334.915008 280.626355 
L 339.573027 282.167227 
L 344.231046 283.659008 
L 348.889066 285.104007 
L 353.547085 286.50439 
L 358.205104 287.862193 
L 362.863123 289.179328 
L 367.521142 290.457595 
L 372.179162 291.698691 
L 376.837181 292.904213 
L 381.4952 294.075668 
L 386.153219 295.214482 
L 390.811238 296.321999 
L 395.469258 297.399492 
L 400.127277 298.448166 
L 404.785296 299.469161 
L 409.443315 300.46356 
L 414.101335 301.432388 
L 418.759354 302.376618 
L 423.417373 303.297177 
L 428.075392 304.194942 
L 432.733411 305.070751 
L 437.391431 305.925398 
L 442.04945 306.759643 
L 446.707469 307.574206 
L 451.365488 308.369776 
L 456.023507 309.14701 
L 460.681527 309.906535 
L 465.339546 310.648949 
L 469.997565 311.374823 
L 474.655584 312.084704 
L 479.313604 312.779116 
L 483.971623 313.458558 
L 488.629642 314.123509 
L 493.287661 314.774428 
L 497.94568 315.411754 
L 502.6037 316.035909 
L 507.261719 316.647297 
L 511.919738 317.246306 
L 516.577757 317.833308 
L 521.235777 318.40866 
L 525.893796 318.972706 
" clip-path="url(#p1ac944d5f2)" style="fill: none; stroke: #f39c12; stroke-width: 3; stroke-linecap: square"/>
   </g>
   <g id="line2d_31">
    <path d="M 64.749893 111.953758 
L 69.407913 116.008495 
L 74.065932 120.063232 
L 78.723951 124.117969 
L 83.38197 128.172706 
L 88.039989 132.227442 
L 92.698009 136.282179 
L 97.356028 140.336916 
L 102.014047 144.391653 
L 106.672066 148.44639 
L 111.330085 152.501127 
L 115.988105 156.555863 
L 120.646124 160.6106 
L 125.304143 164.665337 
L 129.962162 168.720074 
L 134.620182 172.774811 
L 139.278201 176.829548 
L 143.93622 180.884285 
L 148.594239 184.939021 
L 153.252258 188.993758 
L 157.910278 193.048495 
L 162.568297 197.103232 
L 167.226316 201.157969 
L 171.884335 205.212706 
L 176.542354 209.267442 
L 181.200374 213.322179 
L 185.858393 217.376916 
L 190.516412 221.431653 
L 195.174431 225.48639 
L 199.832451 229.541127 
L 204.49047 233.595863 
L 209.148489 237.6506 
L 213.806508 241.705337 
L 218.464527 245.760074 
L 223.122547 249.814811 
L 227.780566 253.869548 
L 232.438585 257.924285 
L 237.096604 261.979021 
L 241.754624 266.033758 
L 246.412643 270.088495 
L 251.070662 274.143232 
L 255.728681 278.197969 
L 260.3867 282.252706 
L 265.04472 286.307442 
L 269.702739 290.362179 
L 274.360758 294.416916 
L 279.018777 298.471653 
L 283.676796 302.52639 
L 288.334816 306.581127 
L 292.992835 310.635863 
L 297.650854 314.6906 
L 302.308873 318.745337 
L 306.966893 322.800074 
L 311.624912 326.854811 
L 316.282931 330.909548 
L 320.94095 334.964285 
L 325.598969 339.019021 
L 330.256989 343.073758 
L 334.915008 347.128495 
L 339.573027 351.183232 
L 344.231046 355.237969 
L 348.889066 359.292706 
L 353.547085 363.347442 
L 358.205104 367.402179 
L 362.863123 371.456916 
L 367.521142 375.511653 
L 372.179162 379.56639 
L 376.837181 383.621127 
L 381.4952 387.675863 
L 386.153219 391.7306 
L 390.811238 395.785337 
L 395.469258 399.840074 
L 400.127277 403.894811 
L 404.785296 407.949548 
L 409.443315 412.004285 
L 414.101335 416.059021 
L 418.759354 420.113758 
L 423.417373 424.168495 
L 428.075392 428.223232 
L 428.286141 428.406686 
" clip-path="url(#p1ac944d5f2)" style="fill: none; stroke: #c0392b; stroke-width: 3; stroke-linecap: square"/>
   </g>
   <g id="line2d_32">
    <defs>
     <path id="mf789af5e42" d="M 4 0 
L -4 -4 
L -4 4 
z
" style="stroke: #000000; stroke-linejoin: miter"/>
    </defs>
    <g>
     <use xlink:href="#mf789af5e42" x="568.991357" y="375.814811" style="stroke: #000000; stroke-linejoin: miter"/>
    </g>
   </g>
   <g id="line2d_33">
    <defs>
     <path id="m8500f4a5fe" d="M 0 -4 
L -4 4 
L 4 4 
z
" style="stroke: #000000; stroke-linejoin: miter"/>
    </defs>
    <g>
     <use xlink:href="#m8500f4a5fe" x="51.820625" y="50.677969" style="stroke: #000000; stroke-linejoin: miter"/>
    </g>
   </g>
   <g id="patch_3">
    <path d="M 51.820625 383.317969 
L 51.820625 50.677969 
" style="fill: none; stroke: #000000; stroke-width: 1.4; stroke-linejoin: miter; stroke-linecap: square"/>
   </g>
   <g id="patch_4">
    <path d="M 38.891357 375.814811 
L 568.991357 375.814811 
" style="fill: none; stroke: #000000; stroke-width: 1.4; stroke-linejoin: miter; stroke-linecap: square"/>
   </g>
   <g id="text_17">
    <!-- Elasticidad-precio de la demanda — pendientes comparadas -->
    <g transform="translate(83.137372 38.677969) scale(0.13 -0.13)">
     <defs>
      <path id="DejaVuSans-Bold-45" d="M 588 4666 
L 3834 4666 
L 3834 3756 
L 1791 3756 
L 1791 2888 
L 3713 2888 
L 3713 1978 
L 1791 1978 
L 1791 909 
L 3903 909 
L 3903 0 
L 588 0 
L 588 4666 
z
" transform="scale(0.015625)"/>
      <path id="DejaVuSans-Bold-6c" d="M 538 4863 
L 1656 4863 
L 1656 0 
L 538 0 
L 538 4863 
z
" transform="scale(0.015625)"/>
      <path id="DejaVuSans-Bold-61" d="M 2106 1575 
Q 1756 1575 1579 1456 
Q 1403 1338 1403 1106 
Q 1403 894 1545 773 
Q 1688 653 1941 653 
Q 2256 653 2472 879 
Q 2688 1106 2688 1447 
L 2688 1575 
L 2106 1575 
z
M 3816 1997 
L 3816 0 
L 2688 0 
L 2688 519 
Q 2463 200 2181 54 
Q 1900 -91 1497 -91 
Q 953 -91 614 226 
Q 275 544 275 1050 
Q 275 1666 698 1953 
Q 1122 2241 2028 2241 
L 2688 2241 
L 2688 2328 
Q 2688 2594 2478 2717 
Q 2269 2841 1825 2841 
Q 1466 2841 1156 2769 
Q 847 2697 581 2553 
L 581 3406 
Q 941 3494 1303 3539 
Q 1666 3584 2028 3584 
Q 2975 3584 3395 3211 
Q 3816 2838 3816 1997 
z
" transform="scale(0.015625)"/>
      <path id="DejaVuSans-Bold-73" d="M 3272 3391 
L 3272 2541 
Q 2913 2691 2578 2766 
Q 2244 2841 1947 2841 
Q 1628 2841 1473 2761 
Q 1319 2681 1319 2516 
Q 1319 2381 1436 2309 
Q 1553 2238 1856 2203 
L 2053 2175 
Q 2913 2066 3209 1816 
Q 3506 1566 3506 1031 
Q 3506 472 3093 190 
Q 2681 -91 1863 -91 
Q 1516 -91 1145 -36 
Q 775 19 384 128 
L 384 978 
Q 719 816 1070 734 
Q 1422 653 1784 653 
Q 2113 653 2278 743 
Q 2444 834 2444 1013 
Q 2444 1163 2330 1236 
Q 2216 1309 1875 1350 
L 1678 1375 
Q 931 1469 631 1722 
Q 331 1975 331 2491 
Q 331 3047 712 3315 
Q 1094 3584 1881 3584 
Q 2191 3584 2531 3537 
Q 2872 3491 3272 3391 
z
" transform="scale(0.015625)"/>
      <path id="DejaVuSans-Bold-74" d="M 1759 4494 
L 1759 3500 
L 2913 3500 
L 2913 2700 
L 1759 2700 
L 1759 1216 
Q 1759 972 1856 886 
Q 1953 800 2241 800 
L 2816 800 
L 2816 0 
L 1856 0 
Q 1194 0 917 276 
Q 641 553 641 1216 
L 641 2700 
L 84 2700 
L 84 3500 
L 641 3500 
L 641 4494 
L 1759 4494 
z
" transform="scale(0.015625)"/>
      <path id="DejaVuSans-Bold-69" d="M 538 3500 
L 1656 3500 
L 1656 0 
L 538 0 
L 538 3500 
z
M 538 4863 
L 1656 4863 
L 1656 3950 
L 538 3950 
L 538 4863 
z
" transform="scale(0.015625)"/>
      <path id="DejaVuSans-Bold-63" d="M 3366 3391 
L 3366 2478 
Q 3138 2634 2908 2709 
Q 2678 2784 2431 2784 
Q 1963 2784 1702 2511 
Q 1441 2238 1441 1747 
Q 1441 1256 1702 982 
Q 1963 709 2431 709 
Q 2694 709 2930 787 
Q 3166 866 3366 1019 
L 3366 103 
Q 3103 6 2833 -42 
Q 2563 -91 2291 -91 
Q 1344 -91 809 395 
Q 275 881 275 1747 
Q 275 2613 809 3098 
Q 1344 3584 2291 3584 
Q 2566 3584 2833 3536 
Q 3100 3488 3366 3391 
z
" transform="scale(0.015625)"/>
      <path id="DejaVuSans-Bold-64" d="M 2919 2988 
L 2919 4863 
L 4044 4863 
L 4044 0 
L 2919 0 
L 2919 506 
Q 2688 197 2409 53 
Q 2131 -91 1766 -91 
Q 1119 -91 703 423 
Q 288 938 288 1747 
Q 288 2556 703 3070 
Q 1119 3584 1766 3584 
Q 2128 3584 2408 3439 
Q 2688 3294 2919 2988 
z
M 2181 722 
Q 2541 722 2730 984 
Q 2919 1247 2919 1747 
Q 2919 2247 2730 2509 
Q 2541 2772 2181 2772 
Q 1825 2772 1636 2509 
Q 1447 2247 1447 1747 
Q 1447 1247 1636 984 
Q 1825 722 2181 722 
z
" transform="scale(0.015625)"/>
      <path id="DejaVuSans-Bold-2d" d="M 347 2297 
L 2309 2297 
L 2309 1388 
L 347 1388 
L 347 2297 
z
" transform="scale(0.015625)"/>
      <path id="DejaVuSans-Bold-70" d="M 1656 506 
L 1656 -1331 
L 538 -1331 
L 538 3500 
L 1656 3500 
L 1656 2988 
Q 1888 3294 2169 3439 
Q 2450 3584 2816 3584 
Q 3463 3584 3878 3070 
Q 4294 2556 4294 1747 
Q 4294 938 3878 423 
Q 3463 -91 2816 -91 
Q 2450 -91 2169 54 
Q 1888 200 1656 506 
z
M 2400 2772 
Q 2041 2772 1848 2508 
Q 1656 2244 1656 1747 
Q 1656 1250 1848 986 
Q 2041 722 2400 722 
Q 2759 722 2948 984 
Q 3138 1247 3138 1747 
Q 3138 2247 2948 2509 
Q 2759 2772 2400 2772 
z
" transform="scale(0.015625)"/>
      <path id="DejaVuSans-Bold-72" d="M 3138 2547 
Q 2991 2616 2845 2648 
Q 2700 2681 2553 2681 
Q 2122 2681 1889 2404 
Q 1656 2128 1656 1613 
L 1656 0 
L 538 0 
L 538 3500 
L 1656 3500 
L 1656 2925 
Q 1872 3269 2151 3426 
Q 2431 3584 2822 3584 
Q 2878 3584 2943 3579 
Q 3009 3575 3134 3559 
L 3138 2547 
z
" transform="scale(0.015625)"/>
      <path id="DejaVuSans-Bold-65" d="M 4031 1759 
L 4031 1441 
L 1416 1441 
Q 1456 1047 1700 850 
Q 1944 653 2381 653 
Q 2734 653 3104 758 
Q 3475 863 3866 1075 
L 3866 213 
Q 3469 63 3072 -14 
Q 2675 -91 2278 -91 
Q 1328 -91 801 392 
Q 275 875 275 1747 
Q 275 2603 792 3093 
Q 1309 3584 2216 3584 
Q 3041 3584 3536 3087 
Q 4031 2591 4031 1759 
z
M 2881 2131 
Q 2881 2450 2695 2645 
Q 2509 2841 2209 2841 
Q 1884 2841 1681 2658 
Q 1478 2475 1428 2131 
L 2881 2131 
z
" transform="scale(0.015625)"/>
      <path id="DejaVuSans-Bold-6f" d="M 2203 2784 
Q 1831 2784 1636 2517 
Q 1441 2250 1441 1747 
Q 1441 1244 1636 976 
Q 1831 709 2203 709 
Q 2569 709 2762 976 
Q 2956 1244 2956 1747 
Q 2956 2250 2762 2517 
Q 2569 2784 2203 2784 
z
M 2203 3584 
Q 3106 3584 3614 3096 
Q 4122 2609 4122 1747 
Q 4122 884 3614 396 
Q 3106 -91 2203 -91 
Q 1297 -91 786 396 
Q 275 884 275 1747 
Q 275 2609 786 3096 
Q 1297 3584 2203 3584 
z
" transform="scale(0.015625)"/>
      <path id="DejaVuSans-Bold-20" transform="scale(0.015625)"/>
      <path id="DejaVuSans-Bold-6d" d="M 3781 2919 
Q 3994 3244 4286 3414 
Q 4578 3584 4928 3584 
Q 5531 3584 5847 3212 
Q 6163 2841 6163 2131 
L 6163 0 
L 5038 0 
L 5038 1825 
Q 5041 1866 5042 1909 
Q 5044 1953 5044 2034 
Q 5044 2406 4934 2573 
Q 4825 2741 4581 2741 
Q 4263 2741 4089 2478 
Q 3916 2216 3909 1719 
L 3909 0 
L 2784 0 
L 2784 1825 
Q 2784 2406 2684 2573 
Q 2584 2741 2328 2741 
Q 2006 2741 1831 2477 
Q 1656 2213 1656 1722 
L 1656 0 
L 531 0 
L 531 3500 
L 1656 3500 
L 1656 2988 
Q 1863 3284 2130 3434 
Q 2397 3584 2719 3584 
Q 3081 3584 3359 3409 
Q 3638 3234 3781 2919 
z
" transform="scale(0.015625)"/>
      <path id="DejaVuSans-Bold-6e" d="M 4056 2131 
L 4056 0 
L 2931 0 
L 2931 347 
L 2931 1631 
Q 2931 2084 2911 2256 
Q 2891 2428 2841 2509 
Q 2775 2619 2662 2680 
Q 2550 2741 2406 2741 
Q 2056 2741 1856 2470 
Q 1656 2200 1656 1722 
L 1656 0 
L 538 0 
L 538 3500 
L 1656 3500 
L 1656 2988 
Q 1909 3294 2193 3439 
Q 2478 3584 2822 3584 
Q 3428 3584 3742 3212 
Q 4056 2841 4056 2131 
z
" transform="scale(0.015625)"/>
      <path id="DejaVuSans-Bold-2014" d="M 344 2156 
L 6056 2156 
L 6056 1350 
L 344 1350 
L 344 2156 
z
" transform="scale(0.015625)"/>
     </defs>
     <use xlink:href="#DejaVuSans-Bold-45"/>
     <use xlink:href="#DejaVuSans-Bold-6c" x="68.310547"/>
     <use xlink:href="#DejaVuSans-Bold-61" x="102.587891"/>
     <use xlink:href="#DejaVuSans-Bold-73" x="170.068359"/>
     <use xlink:href="#DejaVuSans-Bold-74" x="229.589844"/>
     <use xlink:href="#DejaVuSans-Bold-69" x="277.392578"/>
     <use xlink:href="#DejaVuSans-Bold-63" x="311.669922"/>
     <use xlink:href="#DejaVuSans-Bold-69" x="370.947266"/>
     <use xlink:href="#DejaVuSans-Bold-64" x="405.224609"/>
     <use xlink:href="#DejaVuSans-Bold-61" x="476.806641"/>
     <use xlink:href="#DejaVuSans-Bold-64" x="544.287109"/>
     <use xlink:href="#DejaVuSans-Bold-2d" x="615.869141"/>
     <use xlink:href="#DejaVuSans-Bold-70" x="657.373047"/>
     <use xlink:href="#DejaVuSans-Bold-72" x="728.955078"/>
     <use xlink:href="#DejaVuSans-Bold-65" x="778.271484"/>
     <use xlink:href="#DejaVuSans-Bold-63" x="846.09375"/>
     <use xlink:href="#DejaVuSans-Bold-69" x="905.371094"/>
     <use xlink:href="#DejaVuSans-Bold-6f" x="939.648438"/>
     <use xlink:href="#DejaVuSans-Bold-20" x="1008.349609"/>
     <use xlink:href="#DejaVuSans-Bold-64" x="1043.164062"/>
     <use xlink:href="#DejaVuSans-Bold-65" x="1114.746094"/>
     <use xlink:href="#DejaVuSans-Bold-20" x="1182.568359"/>
     <use xlink:href="#DejaVuSans-Bold-6c" x="1217.382812"/>
     <use xlink:href="#DejaVuSans-Bold-61" x="1251.660156"/>
     <use xlink:href="#DejaVuSans-Bold-20" x="1319.140625"/>
     <use xlink:href="#DejaVuSans-Bold-64" x="1353.955078"/>
     <use xlink:href="#DejaVuSans-Bold-65" x="1425.537109"/>
     <use xlink:href="#DejaVuSans-Bold-6d" x="1493.359375"/>
     <use xlink:href="#DejaVuSans-Bold-61" x="1597.558594"/>
     <use xlink:href="#DejaVuSans-Bold-6e" x="1665.039062"/>
     <use xlink:href="#DejaVuSans-Bold-64" x="1736.230469"/>
     <use xlink:href="#DejaVuSans-Bold-61" x="1807.8125"/>
     <use xlink:href="#DejaVuSans-Bold-20" x="1875.292969"/>
     <use xlink:href="#DejaVuSans-Bold-2014" x="1910.107422"/>
     <use xlink:href="#DejaVuSans-Bold-20" x="2010.107422"/>
     <use xlink:href="#DejaVuSans-Bold-70" x="2044.921875"/>
     <use xlink:href="#DejaVuSans-Bold-65" x="2116.503906"/>
     <use xlink:href="#DejaVuSans-Bold-6e" x="2184.326172"/>
     <use xlink:href="#DejaVuSans-Bold-64" x="2255.517578"/>
     <use xlink:href="#DejaVuSans-Bold-69" x="2327.099609"/>
     <use xlink:href="#DejaVuSans-Bold-65" x="2361.376953"/>
     <use xlink:href="#DejaVuSans-Bold-6e" x="2429.199219"/>
     <use xlink:href="#DejaVuSans-Bold-74" x="2500.390625"/>
     <use xlink:href="#DejaVuSans-Bold-65" x="2548.193359"/>
     <use xlink:href="#DejaVuSans-Bold-73" x="2616.015625"/>
     <use xlink:href="#DejaVuSans-Bold-20" x="2675.537109"/>
     <use xlink:href="#DejaVuSans-Bold-63" x="2710.351562"/>
     <use xlink:href="#DejaVuSans-Bold-6f" x="2769.628906"/>
     <use xlink:href="#DejaVuSans-Bold-6d" x="2838.330078"/>
     <use xlink:href="#DejaVuSans-Bold-70" x="2942.529297"/>
     <use xlink:href="#DejaVuSans-Bold-61" x="3014.111328"/>
     <use xlink:href="#DejaVuSans-Bold-72" x="3081.591797"/>
     <use xlink:href="#DejaVuSans-Bold-61" x="3130.908203"/>
     <use xlink:href="#DejaVuSans-Bold-64" x="3198.388672"/>
     <use xlink:href="#DejaVuSans-Bold-61" x="3269.970703"/>
     <use xlink:href="#DejaVuSans-Bold-73" x="3337.451172"/>
    </g>
   </g>
   <g id="legend_1">
    <g id="patch_5">
     <path d="M 581.593357 99.390469 
L 702.004294 99.390469 
Q 704.004294 99.390469 704.004294 97.390469 
L 704.004294 52.677969 
Q 704.004294 50.677969 702.004294 50.677969 
L 581.593357 50.677969 
Q 579.593357 50.677969 579.593357 52.677969 
L 579.593357 97.390469 
Q 579.593357 99.390469 581.593357 99.390469 
z
" style="fill: #ffffff; opacity: 0.8; stroke: #cccccc; stroke-linejoin: miter"/>
    </g>
    <g id="line2d_34">
     <path d="M 583.593357 59.176406 
L 593.593357 59.176406 
L 603.593357 59.176406 
" style="fill: none; stroke: #27ae60; stroke-width: 3; stroke-linecap: square"/>
    </g>
    <g id="text_18">
     <!-- Elástica  |η| &gt; 1 -->
     <g transform="translate(611.593357 62.676406) scale(0.1 -0.1)">
      <defs>
       <path id="DejaVuSans-45" d="M 628 4666 
L 3578 4666 
L 3578 4134 
L 1259 4134 
L 1259 2753 
L 3481 2753 
L 3481 2222 
L 1259 2222 
L 1259 531 
L 3634 531 
L 3634 0 
L 628 0 
L 628 4666 
z
" transform="scale(0.015625)"/>
       <path id="DejaVuSans-6c" d="M 603 4863 
L 1178 4863 
L 1178 0 
L 603 0 
L 603 4863 
z
" transform="scale(0.015625)"/>
       <path id="DejaVuSans-e1" d="M 2194 1759 
Q 1497 1759 1228 1600 
Q 959 1441 959 1056 
Q 959 750 1161 570 
Q 1363 391 1709 391 
Q 2188 391 2477 730 
Q 2766 1069 2766 1631 
L 2766 1759 
L 2194 1759 
z
M 3341 1997 
L 3341 0 
L 2766 0 
L 2766 531 
Q 2569 213 2275 61 
Q 1981 -91 1556 -91 
Q 1019 -91 701 211 
Q 384 513 384 1019 
Q 384 1609 779 1909 
Q 1175 2209 1959 2209 
L 2766 2209 
L 2766 2266 
Q 2766 2663 2505 2880 
Q 2244 3097 1772 3097 
Q 1472 3097 1187 3025 
Q 903 2953 641 2809 
L 641 3341 
Q 956 3463 1253 3523 
Q 1550 3584 1831 3584 
Q 2591 3584 2966 3190 
Q 3341 2797 3341 1997 
z
M 2290 5119 
L 2912 5119 
L 1894 3944 
L 1415 3944 
L 2290 5119 
z
" transform="scale(0.015625)"/>
       <path id="DejaVuSans-73" d="M 2834 3397 
L 2834 2853 
Q 2591 2978 2328 3040 
Q 2066 3103 1784 3103 
Q 1356 3103 1142 2972 
Q 928 2841 928 2578 
Q 928 2378 1081 2264 
Q 1234 2150 1697 2047 
L 1894 2003 
Q 2506 1872 2764 1633 
Q 3022 1394 3022 966 
Q 3022 478 2636 193 
Q 2250 -91 1575 -91 
Q 1294 -91 989 -36 
Q 684 19 347 128 
L 347 722 
Q 666 556 975 473 
Q 1284 391 1588 391 
Q 1994 391 2212 530 
Q 2431 669 2431 922 
Q 2431 1156 2273 1281 
Q 2116 1406 1581 1522 
L 1381 1569 
Q 847 1681 609 1914 
Q 372 2147 372 2553 
Q 372 3047 722 3315 
Q 1072 3584 1716 3584 
Q 2034 3584 2315 3537 
Q 2597 3491 2834 3397 
z
" transform="scale(0.015625)"/>
       <path id="DejaVuSans-74" d="M 1172 4494 
L 1172 3500 
L 2356 3500 
L 2356 3053 
L 1172 3053 
L 1172 1153 
Q 1172 725 1289 603 
Q 1406 481 1766 481 
L 2356 481 
L 2356 0 
L 1766 0 
Q 1100 0 847 248 
Q 594 497 594 1153 
L 594 3053 
L 172 3053 
L 172 3500 
L 594 3500 
L 594 4494 
L 1172 4494 
z
" transform="scale(0.015625)"/>
       <path id="DejaVuSans-69" d="M 603 3500 
L 1178 3500 
L 1178 0 
L 603 0 
L 603 3500 
z
M 603 4863 
L 1178 4863 
L 1178 4134 
L 603 4134 
L 603 4863 
z
" transform="scale(0.015625)"/>
       <path id="DejaVuSans-63" d="M 3122 3366 
L 3122 2828 
Q 2878 2963 2633 3030 
Q 2388 3097 2138 3097 
Q 1578 3097 1268 2742 
Q 959 2388 959 1747 
Q 959 1106 1268 751 
Q 1578 397 2138 397 
Q 2388 397 2633 464 
Q 2878 531 3122 666 
L 3122 134 
Q 2881 22 2623 -34 
Q 2366 -91 2075 -91 
Q 1284 -91 818 406 
Q 353 903 353 1747 
Q 353 2603 823 3093 
Q 1294 3584 2113 3584 
Q 2378 3584 2631 3529 
Q 2884 3475 3122 3366 
z
" transform="scale(0.015625)"/>
       <path id="DejaVuSans-61" d="M 2194 1759 
Q 1497 1759 1228 1600 
Q 959 1441 959 1056 
Q 959 750 1161 570 
Q 1363 391 1709 391 
Q 2188 391 2477 730 
Q 2766 1069 2766 1631 
L 2766 1759 
L 2194 1759 
z
M 3341 1997 
L 3341 0 
L 2766 0 
L 2766 531 
Q 2569 213 2275 61 
Q 1981 -91 1556 -91 
Q 1019 -91 701 211 
Q 384 513 384 1019 
Q 384 1609 779 1909 
Q 1175 2209 1959 2209 
L 2766 2209 
L 2766 2266 
Q 2766 2663 2505 2880 
Q 2244 3097 1772 3097 
Q 1472 3097 1187 3025 
Q 903 2953 641 2809 
L 641 3341 
Q 956 3463 1253 3523 
Q 1550 3584 1831 3584 
Q 2591 3584 2966 3190 
Q 3341 2797 3341 1997 
z
" transform="scale(0.015625)"/>
       <path id="DejaVuSans-20" transform="scale(0.015625)"/>
       <path id="DejaVuSans-7c" d="M 1344 4891 
L 1344 -1509 
L 813 -1509 
L 813 4891 
L 1344 4891 
z
" transform="scale(0.015625)"/>
       <path id="DejaVuSans-3b7" d="M 3513 2113 
L 3513 -1331 
L 2938 -1331 
L 2938 2094 
Q 2938 2591 2744 2837 
Q 2550 3084 2163 3084 
Q 1697 3084 1428 2787 
Q 1159 2491 1159 1978 
L 1159 0 
L 581 0 
L 581 3500 
L 1159 3500 
L 1159 2956 
Q 1366 3272 1644 3428 
Q 1925 3584 2291 3584 
Q 2894 3584 3203 3213 
Q 3513 2838 3513 2113 
z
" transform="scale(0.015625)"/>
       <path id="DejaVuSans-3e" d="M 678 3150 
L 678 3719 
L 4684 2266 
L 4684 1747 
L 678 294 
L 678 863 
L 3897 2003 
L 678 3150 
z
" transform="scale(0.015625)"/>
      </defs>
      <use xlink:href="#DejaVuSans-45"/>
      <use xlink:href="#DejaVuSans-6c" x="63.183594"/>
      <use xlink:href="#DejaVuSans-e1" x="90.966797"/>
      <use xlink:href="#DejaVuSans-73" x="152.246094"/>
      <use xlink:href="#DejaVuSans-74" x="204.345703"/>
      <use xlink:href="#DejaVuSans-69" x="243.554688"/>
      <use xlink:href="#DejaVuSans-63" x="271.337891"/>
      <use xlink:href="#DejaVuSans-61" x="326.318359"/>
      <use xlink:href="#DejaVuSans-20" x="387.597656"/>
      <use xlink:href="#DejaVuSans-20" x="419.384766"/>
      <use xlink:href="#DejaVuSans-7c" x="451.171875"/>
      <use xlink:href="#DejaVuSans-3b7" x="484.863281"/>
      <use xlink:href="#DejaVuSans-7c" x="548.242188"/>
      <use xlink:href="#DejaVuSans-20" x="581.933594"/>
      <use xlink:href="#DejaVuSans-3e" x="613.720703"/>
      <use xlink:href="#DejaVuSans-20" x="697.509766"/>
      <use xlink:href="#DejaVuSans-31" x="729.296875"/>
     </g>
    </g>
    <g id="line2d_35">
     <path d="M 583.593357 74.176406 
L 593.593357 74.176406 
L 603.593357 74.176406 
" style="fill: none; stroke: #f39c12; stroke-width: 3; stroke-linecap: square"/>
    </g>
    <g id="text_19">
     <!-- Unitaria  |η| = 1 -->
     <g transform="translate(611.593357 77.676406) scale(0.1 -0.1)">
      <defs>
       <path id="DejaVuSans-55" d="M 556 4666 
L 1191 4666 
L 1191 1831 
Q 1191 1081 1462 751 
Q 1734 422 2344 422 
Q 2950 422 3222 751 
Q 3494 1081 3494 1831 
L 3494 4666 
L 4128 4666 
L 4128 1753 
Q 4128 841 3676 375 
Q 3225 -91 2344 -91 
Q 1459 -91 1007 375 
Q 556 841 556 1753 
L 556 4666 
z
" transform="scale(0.015625)"/>
       <path id="DejaVuSans-6e" d="M 3513 2113 
L 3513 0 
L 2938 0 
L 2938 2094 
Q 2938 2591 2744 2837 
Q 2550 3084 2163 3084 
Q 1697 3084 1428 2787 
Q 1159 2491 1159 1978 
L 1159 0 
L 581 0 
L 581 3500 
L 1159 3500 
L 1159 2956 
Q 1366 3272 1645 3428 
Q 1925 3584 2291 3584 
Q 2894 3584 3203 3211 
Q 3513 2838 3513 2113 
z
" transform="scale(0.015625)"/>
       <path id="DejaVuSans-72" d="M 2631 2963 
Q 2534 3019 2420 3045 
Q 2306 3072 2169 3072 
Q 1681 3072 1420 2755 
Q 1159 2438 1159 1844 
L 1159 0 
L 581 0 
L 581 3500 
L 1159 3500 
L 1159 2956 
Q 1341 3275 1631 3429 
Q 1922 3584 2338 3584 
Q 2397 3584 2469 3576 
Q 2541 3569 2628 3553 
L 2631 2963 
z
" transform="scale(0.015625)"/>
       <path id="DejaVuSans-3d" d="M 678 2906 
L 4684 2906 
L 4684 2381 
L 678 2381 
L 678 2906 
z
M 678 1631 
L 4684 1631 
L 4684 1100 
L 678 1100 
L 678 1631 
z
" transform="scale(0.015625)"/>
      </defs>
      <use xlink:href="#DejaVuSans-55"/>
      <use xlink:href="#DejaVuSans-6e" x="73.193359"/>
      <use xlink:href="#DejaVuSans-69" x="136.572266"/>
      <use xlink:href="#DejaVuSans-74" x="164.355469"/>
      <use xlink:href="#DejaVuSans-61" x="203.564453"/>
      <use xlink:href="#DejaVuSans-72" x="264.84375"/>
      <use xlink:href="#DejaVuSans-69" x="305.957031"/>
      <use xlink:href="#DejaVuSans-61" x="333.740234"/>
      <use xlink:href="#DejaVuSans-20" x="395.019531"/>
      <use xlink:href="#DejaVuSans-20" x="426.806641"/>
      <use xlink:href="#DejaVuSans-7c" x="458.59375"/>
      <use xlink:href="#DejaVuSans-3b7" x="492.285156"/>
      <use xlink:href="#DejaVuSans-7c" x="555.664062"/>
      <use xlink:href="#DejaVuSans-20" x="589.355469"/>
      <use xlink:href="#DejaVuSans-3d" x="621.142578"/>
      <use xlink:href="#DejaVuSans-20" x="704.931641"/>
      <use xlink:href="#DejaVuSans-31" x="736.71875"/>
     </g>
    </g>
    <g id="line2d_36">
     <path d="M 583.593357 89.532656 
L 593.593357 89.532656 
L 603.593357 89.532656 
" style="fill: none; stroke: #c0392b; stroke-width: 3; stroke-linecap: square"/>
    </g>
    <g id="text_20">
     <!-- Inelástica  |η| &lt; 1 -->
     <g transform="translate(611.593357 93.032656) scale(0.1 -0.1)">
      <defs>
       <path id="DejaVuSans-49" d="M 628 4666 
L 1259 4666 
L 1259 0 
L 628 0 
L 628 4666 
z
" transform="scale(0.015625)"/>
       <path id="DejaVuSans-65" d="M 3597 1894 
L 3597 1613 
L 953 1613 
Q 991 1019 1311 708 
Q 1631 397 2203 397 
Q 2534 397 2845 478 
Q 3156 559 3463 722 
L 3463 178 
Q 3153 47 2828 -22 
Q 2503 -91 2169 -91 
Q 1331 -91 842 396 
Q 353 884 353 1716 
Q 353 2575 817 3079 
Q 1281 3584 2069 3584 
Q 2775 3584 3186 3129 
Q 3597 2675 3597 1894 
z
M 3022 2063 
Q 3016 2534 2758 2815 
Q 2500 3097 2075 3097 
Q 1594 3097 1305 2825 
Q 1016 2553 972 2059 
L 3022 2063 
z
" transform="scale(0.015625)"/>
       <path id="DejaVuSans-3c" d="M 4684 3150 
L 1459 2003 
L 4684 863 
L 4684 294 
L 678 1747 
L 678 2266 
L 4684 3719 
L 4684 3150 
z
" transform="scale(0.015625)"/>
      </defs>
      <use xlink:href="#DejaVuSans-49"/>
      <use xlink:href="#DejaVuSans-6e" x="29.492188"/>
      <use xlink:href="#DejaVuSans-65" x="92.871094"/>
      <use xlink:href="#DejaVuSans-6c" x="154.394531"/>
      <use xlink:href="#DejaVuSans-e1" x="182.177734"/>
      <use xlink:href="#DejaVuSans-73" x="243.457031"/>
      <use xlink:href="#DejaVuSans-74" x="295.556641"/>
      <use xlink:href="#DejaVuSans-69" x="334.765625"/>
      <use xlink:href="#DejaVuSans-63" x="362.548828"/>
      <use xlink:href="#DejaVuSans-61" x="417.529297"/>
      <use xlink:href="#DejaVuSans-20" x="478.808594"/>
      <use xlink:href="#DejaVuSans-20" x="510.595703"/>
      <use xlink:href="#DejaVuSans-7c" x="542.382812"/>
      <use xlink:href="#DejaVuSans-3b7" x="576.074219"/>
      <use xlink:href="#DejaVuSans-7c" x="639.453125"/>
      <use xlink:href="#DejaVuSans-20" x="673.144531"/>
      <use xlink:href="#DejaVuSans-3c" x="704.931641"/>
      <use xlink:href="#DejaVuSans-20" x="788.720703"/>
      <use xlink:href="#DejaVuSans-31" x="820.507812"/>
     </g>
    </g>
   </g>
   <g id="patch_6">
    <path d="M 414.423366 182.891203 
Q 395.238878 215.962977 376.615391 248.067652 
" style="fill: none; stroke: #27ae60; stroke-linecap: round"/>
    <path d="M 380.352485 245.611205 
L 376.615391 248.067652 
L 376.89249 243.604109 
" style="fill: none; stroke: #27ae60; stroke-linecap: round"/>
   </g>
   <g id="text_21">
    <g id="patch_7">
     <path d="M 398.212374 180.810288 
L 455.326437 180.810288 
Q 458.326437 180.810288 458.326437 177.810288 
L 458.326437 145.405913 
Q 458.326437 142.405913 455.326437 142.405913 
L 398.212374 142.405913 
Q 395.212374 142.405913 395.212374 145.405913 
L 395.212374 177.810288 
Q 395.212374 180.810288 398.212374 180.810288 
z
" style="fill: #fffbeb; opacity: 0.97; stroke: #f39c12; stroke-width: 0.7; stroke-linejoin: miter"/>
    </g>
    <!-- Elástica -->
    <g style="fill: #27ae60" transform="translate(404.84753 153.00435) scale(0.1 -0.1)">
     <defs>
      <path id="DejaVuSans-Bold-e1" d="M 2106 1575 
Q 1756 1575 1579 1456 
Q 1403 1338 1403 1106 
Q 1403 894 1545 773 
Q 1688 653 1941 653 
Q 2256 653 2472 879 
Q 2688 1106 2688 1447 
L 2688 1575 
L 2106 1575 
z
M 3816 1997 
L 3816 0 
L 2688 0 
L 2688 519 
Q 2463 200 2181 54 
Q 1900 -91 1497 -91 
Q 953 -91 614 226 
Q 275 544 275 1050 
Q 275 1666 698 1953 
Q 1122 2241 2028 2241 
L 2688 2241 
L 2688 2328 
Q 2688 2594 2478 2717 
Q 2269 2841 1825 2841 
Q 1466 2841 1156 2769 
Q 847 2697 581 2553 
L 581 3406 
Q 941 3494 1303 3539 
Q 1666 3584 2028 3584 
Q 2975 3584 3395 3211 
Q 3816 2838 3816 1997 
z
M 2606 5119 
L 3490 5119 
L 2337 3944 
L 1725 3944 
L 2606 5119 
z
" transform="scale(0.015625)"/>
     </defs>
     <use xlink:href="#DejaVuSans-Bold-45"/>
     <use xlink:href="#DejaVuSans-Bold-6c" x="68.310547"/>
     <use xlink:href="#DejaVuSans-Bold-e1" x="102.587891"/>
     <use xlink:href="#DejaVuSans-Bold-73" x="170.068359"/>
     <use xlink:href="#DejaVuSans-Bold-74" x="229.589844"/>
     <use xlink:href="#DejaVuSans-Bold-69" x="277.392578"/>
     <use xlink:href="#DejaVuSans-Bold-63" x="311.669922"/>
     <use xlink:href="#DejaVuSans-Bold-61" x="370.947266"/>
    </g>
    <!-- (|η| &gt; 1) -->
    <g style="fill: #27ae60" transform="translate(403.836593 164.254663) scale(0.1 -0.1)">
     <defs>
      <path id="DejaVuSans-Bold-28" d="M 2413 -844 
L 1484 -844 
Q 1006 -72 778 623 
Q 550 1319 550 2003 
Q 550 2688 779 3389 
Q 1009 4091 1484 4856 
L 2413 4856 
Q 2013 4116 1813 3408 
Q 1613 2700 1613 2009 
Q 1613 1319 1811 609 
Q 2009 -100 2413 -844 
z
" transform="scale(0.015625)"/>
      <path id="DejaVuSans-Bold-7c" d="M 1522 4891 
L 1522 -1509 
L 813 -1509 
L 813 4891 
L 1522 4891 
z
" transform="scale(0.015625)"/>
      <path id="DejaVuSans-Bold-3b7" d="M 4056 2131 
L 4056 -1331 
L 2931 -1331 
L 2931 347 
L 2931 1631 
Q 2931 2084 2911 2256 
Q 2891 2428 2841 2509 
Q 2775 2619 2662 2680 
Q 2550 2741 2406 2741 
Q 2056 2741 1856 2470 
Q 1656 2200 1656 1722 
L 1656 0 
L 538 0 
L 538 3500 
L 1656 3500 
L 1656 2988 
Q 1909 3294 2193 3439 
Q 2478 3584 2822 3584 
Q 3428 3584 3742 3212 
Q 4056 2841 4056 2131 
z
" transform="scale(0.015625)"/>
      <path id="DejaVuSans-Bold-3e" d="M 678 3041 
L 678 3822 
L 4684 2375 
L 4684 1638 
L 678 191 
L 678 972 
L 3694 2003 
L 678 3041 
z
" transform="scale(0.015625)"/>
      <path id="DejaVuSans-Bold-31" d="M 750 831 
L 1813 831 
L 1813 3847 
L 722 3622 
L 722 4441 
L 1806 4666 
L 2950 4666 
L 2950 831 
L 4013 831 
L 4013 0 
L 750 0 
L 750 831 
z
" transform="scale(0.015625)"/>
      <path id="DejaVuSans-Bold-29" d="M 513 -844 
Q 913 -100 1113 609 
Q 1313 1319 1313 2009 
Q 1313 2700 1113 3408 
Q 913 4116 513 4856 
L 1441 4856 
Q 1916 4091 2145 3389 
Q 2375 2688 2375 2003 
Q 2375 1319 2147 623 
Q 1919 -72 1441 -844 
L 513 -844 
z
" transform="scale(0.015625)"/>
     </defs>
     <use xlink:href="#DejaVuSans-Bold-28"/>
     <use xlink:href="#DejaVuSans-Bold-7c" x="45.703125"/>
     <use xlink:href="#DejaVuSans-Bold-3b7" x="82.226562"/>
     <use xlink:href="#DejaVuSans-Bold-7c" x="153.417969"/>
     <use xlink:href="#DejaVuSans-Bold-20" x="189.941406"/>
     <use xlink:href="#DejaVuSans-Bold-3e" x="224.755859"/>
     <use xlink:href="#DejaVuSans-Bold-20" x="308.544922"/>
     <use xlink:href="#DejaVuSans-Bold-31" x="343.359375"/>
     <use xlink:href="#DejaVuSans-Bold-29" x="412.939453"/>
    </g>
    <!-- horizontal -->
    <g style="fill: #27ae60" transform="translate(398.212374 175.7306) scale(0.1 -0.1)">
     <defs>
      <path id="DejaVuSans-Bold-68" d="M 4056 2131 
L 4056 0 
L 2931 0 
L 2931 347 
L 2931 1625 
Q 2931 2084 2911 2256 
Q 2891 2428 2841 2509 
Q 2775 2619 2662 2680 
Q 2550 2741 2406 2741 
Q 2056 2741 1856 2470 
Q 1656 2200 1656 1722 
L 1656 0 
L 538 0 
L 538 4863 
L 1656 4863 
L 1656 2988 
Q 1909 3294 2193 3439 
Q 2478 3584 2822 3584 
Q 3428 3584 3742 3212 
Q 4056 2841 4056 2131 
z
" transform="scale(0.015625)"/>
      <path id="DejaVuSans-Bold-7a" d="M 366 3500 
L 3419 3500 
L 3419 2719 
L 1575 800 
L 3419 800 
L 3419 0 
L 288 0 
L 288 781 
L 2131 2700 
L 366 2700 
L 366 3500 
z
" transform="scale(0.015625)"/>
     </defs>
     <use xlink:href="#DejaVuSans-Bold-68"/>
     <use xlink:href="#DejaVuSans-Bold-6f" x="71.191406"/>
     <use xlink:href="#DejaVuSans-Bold-72" x="139.892578"/>
     <use xlink:href="#DejaVuSans-Bold-69" x="189.208984"/>
     <use xlink:href="#DejaVuSans-Bold-7a" x="223.486328"/>
     <use xlink:href="#DejaVuSans-Bold-6f" x="281.689453"/>
     <use xlink:href="#DejaVuSans-Bold-6e" x="350.390625"/>
     <use xlink:href="#DejaVuSans-Bold-74" x="421.582031"/>
     <use xlink:href="#DejaVuSans-Bold-61" x="469.384766"/>
     <use xlink:href="#DejaVuSans-Bold-6c" x="536.865234"/>
    </g>
   </g>
   <g id="patch_8">
    <path d="M 266.657011 120.4711 
Q 245.828375 169.064834 225.440203 216.630953 
" style="fill: none; stroke: #e67e22; stroke-linecap: round"/>
    <path d="M 228.854309 213.742375 
L 225.440203 216.630953 
L 225.177804 212.166522 
" style="fill: none; stroke: #e67e22; stroke-linecap: round"/>
   </g>
   <g id="text_22">
    <g id="patch_9">
     <path d="M 249.116223 118.283972 
L 302.739661 118.283972 
Q 305.739661 118.283972 305.739661 115.283972 
L 305.739661 82.399597 
Q 305.739661 79.399597 302.739661 79.399597 
L 249.116223 79.399597 
Q 246.116223 79.399597 246.116223 82.399597 
L 246.116223 115.283972 
Q 246.116223 118.283972 249.116223 118.283972 
z
" style="fill: #fffbeb; opacity: 0.97; stroke: #f39c12; stroke-width: 0.7; stroke-linejoin: miter"/>
    </g>
    <!-- Unitaria -->
    <g style="fill: #e67e22" transform="translate(253.27638 89.998035) scale(0.1 -0.1)">
     <defs>
      <path id="DejaVuSans-Bold-55" d="M 588 4666 
L 1791 4666 
L 1791 1869 
Q 1791 1291 1980 1042 
Q 2169 794 2597 794 
Q 3028 794 3217 1042 
Q 3406 1291 3406 1869 
L 3406 4666 
L 4609 4666 
L 4609 1869 
Q 4609 878 4112 393 
Q 3616 -91 2597 -91 
Q 1581 -91 1084 393 
Q 588 878 588 1869 
L 588 4666 
z
" transform="scale(0.015625)"/>
     </defs>
     <use xlink:href="#DejaVuSans-Bold-55"/>
     <use xlink:href="#DejaVuSans-Bold-6e" x="81.201172"/>
     <use xlink:href="#DejaVuSans-Bold-69" x="152.392578"/>
     <use xlink:href="#DejaVuSans-Bold-74" x="186.669922"/>
     <use xlink:href="#DejaVuSans-Bold-61" x="234.472656"/>
     <use xlink:href="#DejaVuSans-Bold-72" x="301.953125"/>
     <use xlink:href="#DejaVuSans-Bold-69" x="351.269531"/>
     <use xlink:href="#DejaVuSans-Bold-61" x="385.546875"/>
    </g>
    <!-- (|η| = 1) -->
    <g style="fill: #e67e22" transform="translate(252.99513 101.248347) scale(0.1 -0.1)">
     <defs>
      <path id="DejaVuSans-Bold-3d" d="M 678 3084 
L 4684 3084 
L 4684 2350 
L 678 2350 
L 678 3084 
z
M 678 1663 
L 4684 1663 
L 4684 922 
L 678 922 
L 678 1663 
z
" transform="scale(0.015625)"/>
     </defs>
     <use xlink:href="#DejaVuSans-Bold-28"/>
     <use xlink:href="#DejaVuSans-Bold-7c" x="45.703125"/>
     <use xlink:href="#DejaVuSans-Bold-3b7" x="82.226562"/>
     <use xlink:href="#DejaVuSans-Bold-7c" x="153.417969"/>
     <use xlink:href="#DejaVuSans-Bold-20" x="189.941406"/>
     <use xlink:href="#DejaVuSans-Bold-3d" x="224.755859"/>
     <use xlink:href="#DejaVuSans-Bold-20" x="308.544922"/>
     <use xlink:href="#DejaVuSans-Bold-31" x="343.359375"/>
     <use xlink:href="#DejaVuSans-Bold-29" x="412.939453"/>
    </g>
    <!-- hipérbola -->
    <g style="fill: #e67e22" transform="translate(249.116223 113.204285) scale(0.1 -0.1)">
     <defs>
      <path id="DejaVuSans-Bold-e9" d="M 4031 1759 
L 4031 1441 
L 1416 1441 
Q 1456 1047 1700 850 
Q 1944 653 2381 653 
Q 2734 653 3104 758 
Q 3475 863 3866 1075 
L 3866 213 
Q 3469 63 3072 -14 
Q 2675 -91 2278 -91 
Q 1328 -91 801 392 
Q 275 875 275 1747 
Q 275 2603 792 3093 
Q 1309 3584 2216 3584 
Q 3041 3584 3536 3087 
Q 4031 2591 4031 1759 
z
M 2881 2131 
Q 2881 2450 2695 2645 
Q 2509 2841 2209 2841 
Q 1884 2841 1681 2658 
Q 1478 2475 1428 2131 
L 2881 2131 
z
M 2702 5119 
L 3586 5119 
L 2433 3944 
L 1821 3944 
L 2702 5119 
z
" transform="scale(0.015625)"/>
      <path id="DejaVuSans-Bold-62" d="M 2400 722 
Q 2759 722 2948 984 
Q 3138 1247 3138 1747 
Q 3138 2247 2948 2509 
Q 2759 2772 2400 2772 
Q 2041 2772 1848 2508 
Q 1656 2244 1656 1747 
Q 1656 1250 1848 986 
Q 2041 722 2400 722 
z
M 1656 2988 
Q 1888 3294 2169 3439 
Q 2450 3584 2816 3584 
Q 3463 3584 3878 3070 
Q 4294 2556 4294 1747 
Q 4294 938 3878 423 
Q 3463 -91 2816 -91 
Q 2450 -91 2169 54 
Q 1888 200 1656 506 
L 1656 0 
L 538 0 
L 538 4863 
L 1656 4863 
L 1656 2988 
z
" transform="scale(0.015625)"/>
     </defs>
     <use xlink:href="#DejaVuSans-Bold-68"/>
     <use xlink:href="#DejaVuSans-Bold-69" x="71.191406"/>
     <use xlink:href="#DejaVuSans-Bold-70" x="105.46875"/>
     <use xlink:href="#DejaVuSans-Bold-e9" x="177.050781"/>
     <use xlink:href="#DejaVuSans-Bold-72" x="244.873047"/>
     <use xlink:href="#DejaVuSans-Bold-62" x="294.189453"/>
     <use xlink:href="#DejaVuSans-Bold-6f" x="365.771484"/>
     <use xlink:href="#DejaVuSans-Bold-6c" x="434.472656"/>
     <use xlink:href="#DejaVuSans-Bold-61" x="468.75"/>
    </g>
   </g>
   <g id="patch_10">
    <path d="M 89.054824 240.197673 
Q 102.448443 199.533814 115.492295 159.931869 
" style="fill: none; stroke: #c0392b; stroke-linecap: round"/>
    <path d="M 112.341319 163.105408 
L 115.492295 159.931869 
L 116.140541 164.356773 
" style="fill: none; stroke: #c0392b; stroke-linecap: round"/>
   </g>
   <g id="text_23">
    <g id="patch_11">
     <path d="M 54.67173 280.852393 
L 109.306105 280.852393 
Q 112.306105 280.852393 112.306105 277.852393 
L 112.306105 245.448018 
Q 112.306105 242.448018 109.306105 242.448018 
L 54.67173 242.448018 
Q 51.67173 242.448018 51.67173 245.448018 
L 51.67173 277.852393 
Q 51.67173 280.852393 54.67173 280.852393 
z
" style="fill: #fffbeb; opacity: 0.97; stroke: #f39c12; stroke-width: 0.7; stroke-linejoin: miter"/>
    </g>
    <!-- Inelástica -->
    <g style="fill: #c0392b" transform="translate(54.67173 253.046456) scale(0.1 -0.1)">
     <defs>
      <path id="DejaVuSans-Bold-49" d="M 588 4666 
L 1791 4666 
L 1791 0 
L 588 0 
L 588 4666 
z
" transform="scale(0.015625)"/>
     </defs>
     <use xlink:href="#DejaVuSans-Bold-49"/>
     <use xlink:href="#DejaVuSans-Bold-6e" x="37.207031"/>
     <use xlink:href="#DejaVuSans-Bold-65" x="108.398438"/>
     <use xlink:href="#DejaVuSans-Bold-6c" x="176.220703"/>
     <use xlink:href="#DejaVuSans-Bold-e1" x="210.498047"/>
     <use xlink:href="#DejaVuSans-Bold-73" x="277.978516"/>
     <use xlink:href="#DejaVuSans-Bold-74" x="337.5"/>
     <use xlink:href="#DejaVuSans-Bold-69" x="385.302734"/>
     <use xlink:href="#DejaVuSans-Bold-63" x="419.580078"/>
     <use xlink:href="#DejaVuSans-Bold-61" x="478.857422"/>
    </g>
    <!-- (|η| &lt; 1) -->
    <g style="fill: #c0392b" transform="translate(59.056105 264.296768) scale(0.1 -0.1)">
     <defs>
      <path id="DejaVuSans-Bold-3c" d="M 4684 3041 
L 1672 2003 
L 4684 972 
L 4684 191 
L 678 1638 
L 678 2375 
L 4684 3822 
L 4684 3041 
z
" transform="scale(0.015625)"/>
     </defs>
     <use xlink:href="#DejaVuSans-Bold-28"/>
     <use xlink:href="#DejaVuSans-Bold-7c" x="45.703125"/>
     <use xlink:href="#DejaVuSans-Bold-3b7" x="82.226562"/>
     <use xlink:href="#DejaVuSans-Bold-7c" x="153.417969"/>
     <use xlink:href="#DejaVuSans-Bold-20" x="189.941406"/>
     <use xlink:href="#DejaVuSans-Bold-3c" x="224.755859"/>
     <use xlink:href="#DejaVuSans-Bold-20" x="308.544922"/>
     <use xlink:href="#DejaVuSans-Bold-31" x="343.359375"/>
     <use xlink:href="#DejaVuSans-Bold-29" x="412.939453"/>
    </g>
    <!-- vertical -->
    <g style="fill: #c0392b" transform="translate(60.716261 275.772706) scale(0.1 -0.1)">
     <defs>
      <path id="DejaVuSans-Bold-76" d="M 97 3500 
L 1216 3500 
L 2088 1081 
L 2956 3500 
L 4078 3500 
L 2700 0 
L 1472 0 
L 97 3500 
z
" transform="scale(0.015625)"/>
     </defs>
     <use xlink:href="#DejaVuSans-Bold-76"/>
     <use xlink:href="#DejaVuSans-Bold-65" x="65.185547"/>
     <use xlink:href="#DejaVuSans-Bold-72" x="133.007812"/>
     <use xlink:href="#DejaVuSans-Bold-74" x="182.324219"/>
     <use xlink:href="#DejaVuSans-Bold-69" x="230.126953"/>
     <use xlink:href="#DejaVuSans-Bold-63" x="264.404297"/>
     <use xlink:href="#DejaVuSans-Bold-61" x="323.681641"/>
     <use xlink:href="#DejaVuSans-Bold-6c" x="391.162109"/>
    </g>
   </g>
  </g>
 </g>
 <defs>
  <clipPath id="p1ac944d5f2">
   <rect x="38.891357" y="50.677969" width="530.1" height="332.64"/>
  </clipPath>
 </defs>
</svg>
