<?xml version="1.0" encoding="utf-8" standalone="no"?>
<!DOCTYPE svg PUBLIC "-//W3C//DTD SVG 1.1//EN"
  "http://www.w3.org/Graphics/SVG/1.1/DTD/svg11.dtd">
<svg xmlns:xlink="http://www.w3.org/1999/xlink" width="797.58824pt" height="420.75495pt" viewBox="0 0 797.58824 420.75495" xmlns="http://www.w3.org/2000/svg" version="1.1">
 <metadata>
  <rdf:RDF xmlns:dc="http://purl.org/dc/elements/1.1/" xmlns:cc="http://creativecommons.org/ns#" xmlns:rdf="http://www.w3.org/1999/02/22-rdf-syntax-ns#">
   <cc:Work>
    <dc:type rdf:resource="http://purl.org/dc/dcmitype/StillImage"/>
    <dc:date>2026-04-28T17:41:34.598437</dc:date>
    <dc:format>image/svg+xml</dc:format>
    <dc:creator>
     <cc:Agent>
      <dc:title>Matplotlib v3.9.2, https://matplotlib.org/</dc:title>
     </cc:Agent>
    </dc:creator>
   </cc:Work>
  </rdf:RDF>
 </metadata>
 <defs>
  <style type="text/css">*{stroke-linejoin: round; stroke-linecap: butt}</style>
 </defs>
 <g id="figure_1">
  <g id="patch_1">
   <path d="M -0 420.75495 
L 797.58824 420.75495 
L 797.58824 0 
L -0 0 
z
" style="fill: #ffffff"/>
  </g>
  <g id="axes_1">
   <g id="patch_2">
    <path d="M 82.654803 383.317969 
L 640.654803 383.317969 
L 640.654803 50.677969 
L 82.654803 50.677969 
z
" style="fill: #ffffff"/>
   </g>
   <g id="PolyCollection_1">
    <defs>
     <path id="me61a0c1ef0" d="M 102.23375 -140.906891 
L 102.23375 -133.829444 
L 640.654803 -133.829444 
L 640.654803 -140.906891 
L 640.654803 -140.906891 
L 102.23375 -140.906891 
z
" style="stroke: #c0392b; stroke-opacity: 0.08"/>
    </defs>
    <g clip-path="url(#p2c5cda6e6e)">
     <use xlink:href="#me61a0c1ef0" x="0" y="420.75495" style="fill: #c0392b; fill-opacity: 0.08; stroke: #c0392b; stroke-opacity: 0.08"/>
    </g>
   </g>
   <g id="matplotlib.axis_1">
    <g id="xtick_1">
     <g id="line2d_1">
      <path d="M 102.23375 383.317969 
L 102.23375 50.677969 
" clip-path="url(#p2c5cda6e6e)" style="fill: none; stroke-dasharray: 0.8,1.32; stroke-dashoffset: 0; stroke: #b0b0b0; stroke-opacity: 0.4; stroke-width: 0.8"/>
     </g>
     <g id="line2d_2">
      <defs>
       <path id="mba3f9193ca" d="M 0 0 
L 0 -4 
" style="stroke: #000000"/>
      </defs>
      <g>
       <use xlink:href="#mba3f9193ca" x="102.23375" y="369.163075" style="stroke: #000000"/>
      </g>
     </g>
     <g id="text_1">
      <!-- 0 -->
      <g transform="translate(99.0525 380.261513) scale(0.1 -0.1)">
       <defs>
        <path id="DejaVuSans-30" d="M 2034 4250 
Q 1547 4250 1301 3770 
Q 1056 3291 1056 2328 
Q 1056 1369 1301 889 
Q 1547 409 2034 409 
Q 2525 409 2770 889 
Q 3016 1369 3016 2328 
Q 3016 3291 2770 3770 
Q 2525 4250 2034 4250 
z
M 2034 4750 
Q 2819 4750 3233 4129 
Q 3647 3509 3647 2328 
Q 3647 1150 3233 529 
Q 2819 -91 2034 -91 
Q 1250 -91 836 529 
Q 422 1150 422 2328 
Q 422 3509 836 4129 
Q 1250 4750 2034 4750 
z
" transform="scale(0.015625)"/>
       </defs>
       <use xlink:href="#DejaVuSans-30"/>
      </g>
     </g>
    </g>
    <g id="xtick_2">
     <g id="line2d_3">
      <path d="M 200.128487 383.317969 
L 200.128487 50.677969 
" clip-path="url(#p2c5cda6e6e)" style="fill: none; stroke-dasharray: 0.8,1.32; stroke-dashoffset: 0; stroke: #b0b0b0; stroke-opacity: 0.4; stroke-width: 0.8"/>
     </g>
     <g id="line2d_4">
      <g>
       <use xlink:href="#mba3f9193ca" x="200.128487" y="369.163075" style="stroke: #000000"/>
      </g>
     </g>
     <g id="text_2">
      <!-- 2 -->
      <g transform="translate(196.947237 380.261513) scale(0.1 -0.1)">
       <defs>
        <path id="DejaVuSans-32" d="M 1228 531 
L 3431 531 
L 3431 0 
L 469 0 
L 469 531 
Q 828 903 1448 1529 
Q 2069 2156 2228 2338 
Q 2531 2678 2651 2914 
Q 2772 3150 2772 3378 
Q 2772 3750 2511 3984 
Q 2250 4219 1831 4219 
Q 1534 4219 1204 4116 
Q 875 4013 500 3803 
L 500 4441 
Q 881 4594 1212 4672 
Q 1544 4750 1819 4750 
Q 2544 4750 2975 4387 
Q 3406 4025 3406 3419 
Q 3406 3131 3298 2873 
Q 3191 2616 2906 2266 
Q 2828 2175 2409 1742 
Q 1991 1309 1228 531 
z
" transform="scale(0.015625)"/>
       </defs>
       <use xlink:href="#DejaVuSans-32"/>
      </g>
     </g>
    </g>
    <g id="xtick_3">
     <g id="line2d_5">
      <path d="M 298.023224 383.317969 
L 298.023224 50.677969 
" clip-path="url(#p2c5cda6e6e)" style="fill: none; stroke-dasharray: 0.8,1.32; stroke-dashoffset: 0; stroke: #b0b0b0; stroke-opacity: 0.4; stroke-width: 0.8"/>
     </g>
     <g id="line2d_6">
      <g>
       <use xlink:href="#mba3f9193ca" x="298.023224" y="369.163075" style="stroke: #000000"/>
      </g>
     </g>
     <g id="text_3">
      <!-- 4 -->
      <g transform="translate(294.841974 380.261513) scale(0.1 -0.1)">
       <defs>
        <path id="DejaVuSans-34" d="M 2419 4116 
L 825 1625 
L 2419 1625 
L 2419 4116 
z
M 2253 4666 
L 3047 4666 
L 3047 1625 
L 3713 1625 
L 3713 1100 
L 3047 1100 
L 3047 0 
L 2419 0 
L 2419 1100 
L 313 1100 
L 313 1709 
L 2253 4666 
z
" transform="scale(0.015625)"/>
       </defs>
       <use xlink:href="#DejaVuSans-34"/>
      </g>
     </g>
    </g>
    <g id="xtick_4">
     <g id="line2d_7">
      <path d="M 395.917961 383.317969 
L 395.917961 50.677969 
" clip-path="url(#p2c5cda6e6e)" style="fill: none; stroke-dasharray: 0.8,1.32; stroke-dashoffset: 0; stroke: #b0b0b0; stroke-opacity: 0.4; stroke-width: 0.8"/>
     </g>
     <g id="line2d_8">
      <g>
       <use xlink:href="#mba3f9193ca" x="395.917961" y="369.163075" style="stroke: #000000"/>
      </g>
     </g>
     <g id="text_4">
      <!-- 6 -->
      <g transform="translate(392.736711 380.261513) scale(0.1 -0.1)">
       <defs>
        <path id="DejaVuSans-36" d="M 2113 2584 
Q 1688 2584 1439 2293 
Q 1191 2003 1191 1497 
Q 1191 994 1439 701 
Q 1688 409 2113 409 
Q 2538 409 2786 701 
Q 3034 994 3034 1497 
Q 3034 2003 2786 2293 
Q 2538 2584 2113 2584 
z
M 3366 4563 
L 3366 3988 
Q 3128 4100 2886 4159 
Q 2644 4219 2406 4219 
Q 1781 4219 1451 3797 
Q 1122 3375 1075 2522 
Q 1259 2794 1537 2939 
Q 1816 3084 2150 3084 
Q 2853 3084 3261 2657 
Q 3669 2231 3669 1497 
Q 3669 778 3244 343 
Q 2819 -91 2113 -91 
Q 1303 -91 875 529 
Q 447 1150 447 2328 
Q 447 3434 972 4092 
Q 1497 4750 2381 4750 
Q 2619 4750 2861 4703 
Q 3103 4656 3366 4563 
z
" transform="scale(0.015625)"/>
       </defs>
       <use xlink:href="#DejaVuSans-36"/>
      </g>
     </g>
    </g>
    <g id="xtick_5">
     <g id="line2d_9">
      <path d="M 493.812697 383.317969 
L 493.812697 50.677969 
" clip-path="url(#p2c5cda6e6e)" style="fill: none; stroke-dasharray: 0.8,1.32; stroke-dashoffset: 0; stroke: #b0b0b0; stroke-opacity: 0.4; stroke-width: 0.8"/>
     </g>
     <g id="line2d_10">
      <g>
       <use xlink:href="#mba3f9193ca" x="493.812697" y="369.163075" style="stroke: #000000"/>
      </g>
     </g>
     <g id="text_5">
      <!-- 8 -->
      <g transform="translate(490.631447 380.261513) scale(0.1 -0.1)">
       <defs>
        <path id="DejaVuSans-38" d="M 2034 2216 
Q 1584 2216 1326 1975 
Q 1069 1734 1069 1313 
Q 1069 891 1326 650 
Q 1584 409 2034 409 
Q 2484 409 2743 651 
Q 3003 894 3003 1313 
Q 3003 1734 2745 1975 
Q 2488 2216 2034 2216 
z
M 1403 2484 
Q 997 2584 770 2862 
Q 544 3141 544 3541 
Q 544 4100 942 4425 
Q 1341 4750 2034 4750 
Q 2731 4750 3128 4425 
Q 3525 4100 3525 3541 
Q 3525 3141 3298 2862 
Q 3072 2584 2669 2484 
Q 3125 2378 3379 2068 
Q 3634 1759 3634 1313 
Q 3634 634 3220 271 
Q 2806 -91 2034 -91 
Q 1263 -91 848 271 
Q 434 634 434 1313 
Q 434 1759 690 2068 
Q 947 2378 1403 2484 
z
M 1172 3481 
Q 1172 3119 1398 2916 
Q 1625 2713 2034 2713 
Q 2441 2713 2670 2916 
Q 2900 3119 2900 3481 
Q 2900 3844 2670 4047 
Q 2441 4250 2034 4250 
Q 1625 4250 1398 4047 
Q 1172 3844 1172 3481 
z
" transform="scale(0.015625)"/>
       </defs>
       <use xlink:href="#DejaVuSans-38"/>
      </g>
     </g>
    </g>
    <g id="xtick_6">
     <g id="line2d_11">
      <path d="M 591.707434 383.317969 
L 591.707434 50.677969 
" clip-path="url(#p2c5cda6e6e)" style="fill: none; stroke-dasharray: 0.8,1.32; stroke-dashoffset: 0; stroke: #b0b0b0; stroke-opacity: 0.4; stroke-width: 0.8"/>
     </g>
     <g id="line2d_12">
      <g>
       <use xlink:href="#mba3f9193ca" x="591.707434" y="369.163075" style="stroke: #000000"/>
      </g>
     </g>
     <g id="text_6">
      <!-- 10 -->
      <g transform="translate(585.344934 380.261513) scale(0.1 -0.1)">
       <defs>
        <path id="DejaVuSans-31" d="M 794 531 
L 1825 531 
L 1825 4091 
L 703 3866 
L 703 4441 
L 1819 4666 
L 2450 4666 
L 2450 531 
L 3481 531 
L 3481 0 
L 794 0 
L 794 531 
z
" transform="scale(0.015625)"/>
       </defs>
       <use xlink:href="#DejaVuSans-31"/>
       <use xlink:href="#DejaVuSans-30" x="63.623047"/>
      </g>
     </g>
    </g>
    <g id="text_7">
     <!-- q -->
     <g transform="translate(632.065428 389.459325) scale(0.12 -0.12)">
      <defs>
       <path id="DejaVuSans-Bold-71" d="M 2181 2772 
Q 1825 2772 1636 2509 
Q 1447 2247 1447 1747 
Q 1447 1247 1636 984 
Q 1825 722 2181 722 
Q 2541 722 2730 984 
Q 2919 1247 2919 1747 
Q 2919 2247 2730 2509 
Q 2541 2772 2181 2772 
z
M 2919 506 
Q 2688 197 2409 53 
Q 2131 -91 1766 -91 
Q 1119 -91 703 423 
Q 288 938 288 1747 
Q 288 2556 703 3067 
Q 1119 3578 1766 3578 
Q 2131 3578 2409 3434 
Q 2688 3291 2919 2981 
L 2919 3500 
L 4044 3500 
L 4044 -1331 
L 2919 -1331 
L 2919 506 
z
" transform="scale(0.015625)"/>
      </defs>
      <use xlink:href="#DejaVuSans-Bold-71"/>
     </g>
    </g>
   </g>
   <g id="matplotlib.axis_2">
    <g id="ytick_1">
     <g id="line2d_13">
      <path d="M 82.654803 369.163075 
L 640.654803 369.163075 
" clip-path="url(#p2c5cda6e6e)" style="fill: none; stroke-dasharray: 0.8,1.32; stroke-dashoffset: 0; stroke: #b0b0b0; stroke-opacity: 0.4; stroke-width: 0.8"/>
     </g>
     <g id="line2d_14">
      <defs>
       <path id="m143144b469" d="M 0 0 
L 4 0 
" style="stroke: #000000"/>
      </defs>
      <g>
       <use xlink:href="#m143144b469" x="102.23375" y="369.163075" style="stroke: #000000"/>
      </g>
     </g>
     <g id="text_8">
      <!-- 0 -->
      <g transform="translate(92.37125 372.962294) scale(0.1 -0.1)">
       <use xlink:href="#DejaVuSans-30"/>
      </g>
     </g>
    </g>
    <g id="ytick_2">
     <g id="line2d_15">
      <path d="M 82.654803 310.184352 
L 640.654803 310.184352 
" clip-path="url(#p2c5cda6e6e)" style="fill: none; stroke-dasharray: 0.8,1.32; stroke-dashoffset: 0; stroke: #b0b0b0; stroke-opacity: 0.4; stroke-width: 0.8"/>
     </g>
     <g id="line2d_16">
      <g>
       <use xlink:href="#m143144b469" x="102.23375" y="310.184352" style="stroke: #000000"/>
      </g>
     </g>
     <g id="text_9">
      <!-- 5 -->
      <g transform="translate(92.37125 313.98357) scale(0.1 -0.1)">
       <defs>
        <path id="DejaVuSans-35" d="M 691 4666 
L 3169 4666 
L 3169 4134 
L 1269 4134 
L 1269 2991 
Q 1406 3038 1543 3061 
Q 1681 3084 1819 3084 
Q 2600 3084 3056 2656 
Q 3513 2228 3513 1497 
Q 3513 744 3044 326 
Q 2575 -91 1722 -91 
Q 1428 -91 1123 -41 
Q 819 9 494 109 
L 494 744 
Q 775 591 1075 516 
Q 1375 441 1709 441 
Q 2250 441 2565 725 
Q 2881 1009 2881 1497 
Q 2881 1984 2565 2268 
Q 2250 2553 1709 2553 
Q 1456 2553 1204 2497 
Q 953 2441 691 2322 
L 691 4666 
z
" transform="scale(0.015625)"/>
       </defs>
       <use xlink:href="#DejaVuSans-35"/>
      </g>
     </g>
    </g>
    <g id="ytick_3">
     <g id="line2d_17">
      <path d="M 82.654803 251.205628 
L 640.654803 251.205628 
" clip-path="url(#p2c5cda6e6e)" style="fill: none; stroke-dasharray: 0.8,1.32; stroke-dashoffset: 0; stroke: #b0b0b0; stroke-opacity: 0.4; stroke-width: 0.8"/>
     </g>
     <g id="line2d_18">
      <g>
       <use xlink:href="#m143144b469" x="102.23375" y="251.205628" style="stroke: #000000"/>
      </g>
     </g>
     <g id="text_10">
      <!-- 10 -->
      <g transform="translate(86.00875 255.004847) scale(0.1 -0.1)">
       <use xlink:href="#DejaVuSans-31"/>
       <use xlink:href="#DejaVuSans-30" x="63.623047"/>
      </g>
     </g>
    </g>
    <g id="ytick_4">
     <g id="line2d_19">
      <path d="M 82.654803 192.226905 
L 640.654803 192.226905 
" clip-path="url(#p2c5cda6e6e)" style="fill: none; stroke-dasharray: 0.8,1.32; stroke-dashoffset: 0; stroke: #b0b0b0; stroke-opacity: 0.4; stroke-width: 0.8"/>
     </g>
     <g id="line2d_20">
      <g>
       <use xlink:href="#m143144b469" x="102.23375" y="192.226905" style="stroke: #000000"/>
      </g>
     </g>
     <g id="text_11">
      <!-- 15 -->
      <g transform="translate(86.00875 196.026124) scale(0.1 -0.1)">
       <use xlink:href="#DejaVuSans-31"/>
       <use xlink:href="#DejaVuSans-35" x="63.623047"/>
      </g>
     </g>
    </g>
    <g id="ytick_5">
     <g id="line2d_21">
      <path d="M 82.654803 133.248182 
L 640.654803 133.248182 
" clip-path="url(#p2c5cda6e6e)" style="fill: none; stroke-dasharray: 0.8,1.32; stroke-dashoffset: 0; stroke: #b0b0b0; stroke-opacity: 0.4; stroke-width: 0.8"/>
     </g>
     <g id="line2d_22">
      <g>
       <use xlink:href="#m143144b469" x="102.23375" y="133.248182" style="stroke: #000000"/>
      </g>
     </g>
     <g id="text_12">
      <!-- 20 -->
      <g transform="translate(86.00875 137.0474) scale(0.1 -0.1)">
       <use xlink:href="#DejaVuSans-32"/>
       <use xlink:href="#DejaVuSans-30" x="63.623047"/>
      </g>
     </g>
    </g>
    <g id="ytick_6">
     <g id="line2d_23">
      <path d="M 82.654803 74.269458 
L 640.654803 74.269458 
" clip-path="url(#p2c5cda6e6e)" style="fill: none; stroke-dasharray: 0.8,1.32; stroke-dashoffset: 0; stroke: #b0b0b0; stroke-opacity: 0.4; stroke-width: 0.8"/>
     </g>
     <g id="line2d_24">
      <g>
       <use xlink:href="#m143144b469" x="102.23375" y="74.269458" style="stroke: #000000"/>
      </g>
     </g>
     <g id="text_13">
      <!-- 25 -->
      <g transform="translate(86.00875 78.068677) scale(0.1 -0.1)">
       <use xlink:href="#DejaVuSans-32"/>
       <use xlink:href="#DejaVuSans-35" x="63.623047"/>
      </g>
     </g>
    </g>
    <g id="text_14">
     <!-- $/unidad -->
     <g transform="translate(28.8 48.182344) scale(0.12 -0.12)">
      <defs>
       <path id="DejaVuSans-Bold-24" d="M 2484 -941 
L 1978 -941 
L 1975 0 
Q 1584 16 1218 87 
Q 853 159 506 288 
L 506 1106 
Q 866 922 1233 823 
Q 1600 725 1978 713 
L 1978 1684 
L 1875 1703 
Q 1128 1834 814 2115 
Q 500 2397 500 2925 
Q 500 3484 883 3798 
Q 1266 4113 1975 4141 
L 1978 4863 
L 2484 4863 
L 2484 4153 
Q 2797 4128 3109 4075 
Q 3422 4022 3738 3938 
L 3738 3144 
Q 3425 3275 3112 3348 
Q 2800 3422 2484 3438 
L 2484 2541 
L 2584 2522 
Q 3378 2397 3698 2105 
Q 4019 1813 4019 1241 
Q 4019 666 3637 358 
Q 3256 50 2484 6 
L 2484 -941 
z
M 1978 2613 
L 1978 3428 
Q 1756 3416 1623 3308 
Q 1491 3200 1491 3034 
Q 1491 2850 1612 2745 
Q 1734 2641 1978 2613 
z
M 2484 1594 
L 2484 725 
Q 2756 728 2892 831 
Q 3028 934 3028 1141 
Q 3028 1353 2903 1458 
Q 2778 1563 2484 1594 
z
" transform="scale(0.015625)"/>
       <path id="DejaVuSans-Bold-2f" d="M 1644 4666 
L 2338 4666 
L 691 -594 
L 0 -594 
L 1644 4666 
z
" transform="scale(0.015625)"/>
       <path id="DejaVuSans-Bold-75" d="M 500 1363 
L 500 3500 
L 1625 3500 
L 1625 3150 
Q 1625 2866 1622 2436 
Q 1619 2006 1619 1863 
Q 1619 1441 1641 1255 
Q 1663 1069 1716 984 
Q 1784 875 1895 815 
Q 2006 756 2150 756 
Q 2500 756 2700 1025 
Q 2900 1294 2900 1772 
L 2900 3500 
L 4019 3500 
L 4019 0 
L 2900 0 
L 2900 506 
Q 2647 200 2364 54 
Q 2081 -91 1741 -91 
Q 1134 -91 817 281 
Q 500 653 500 1363 
z
" transform="scale(0.015625)"/>
       <path id="DejaVuSans-Bold-6e" d="M 4056 2131 
L 4056 0 
L 2931 0 
L 2931 347 
L 2931 1631 
Q 2931 2084 2911 2256 
Q 2891 2428 2841 2509 
Q 2775 2619 2662 2680 
Q 2550 2741 2406 2741 
Q 2056 2741 1856 2470 
Q 1656 2200 1656 1722 
L 1656 0 
L 538 0 
L 538 3500 
L 1656 3500 
L 1656 2988 
Q 1909 3294 2193 3439 
Q 2478 3584 2822 3584 
Q 3428 3584 3742 3212 
Q 4056 2841 4056 2131 
z
" transform="scale(0.015625)"/>
       <path id="DejaVuSans-Bold-69" d="M 538 3500 
L 1656 3500 
L 1656 0 
L 538 0 
L 538 3500 
z
M 538 4863 
L 1656 4863 
L 1656 3950 
L 538 3950 
L 538 4863 
z
" transform="scale(0.015625)"/>
       <path id="DejaVuSans-Bold-64" d="M 2919 2988 
L 2919 4863 
L 4044 4863 
L 4044 0 
L 2919 0 
L 2919 506 
Q 2688 197 2409 53 
Q 2131 -91 1766 -91 
Q 1119 -91 703 423 
Q 288 938 288 1747 
Q 288 2556 703 3070 
Q 1119 3584 1766 3584 
Q 2128 3584 2408 3439 
Q 2688 3294 2919 2988 
z
M 2181 722 
Q 2541 722 2730 984 
Q 2919 1247 2919 1747 
Q 2919 2247 2730 2509 
Q 2541 2772 2181 2772 
Q 1825 2772 1636 2509 
Q 1447 2247 1447 1747 
Q 1447 1247 1636 984 
Q 1825 722 2181 722 
z
" transform="scale(0.015625)"/>
       <path id="DejaVuSans-Bold-61" d="M 2106 1575 
Q 1756 1575 1579 1456 
Q 1403 1338 1403 1106 
Q 1403 894 1545 773 
Q 1688 653 1941 653 
Q 2256 653 2472 879 
Q 2688 1106 2688 1447 
L 2688 1575 
L 2106 1575 
z
M 3816 1997 
L 3816 0 
L 2688 0 
L 2688 519 
Q 2463 200 2181 54 
Q 1900 -91 1497 -91 
Q 953 -91 614 226 
Q 275 544 275 1050 
Q 275 1666 698 1953 
Q 1122 2241 2028 2241 
L 2688 2241 
L 2688 2328 
Q 2688 2594 2478 2717 
Q 2269 2841 1825 2841 
Q 1466 2841 1156 2769 
Q 847 2697 581 2553 
L 581 3406 
Q 941 3494 1303 3539 
Q 1666 3584 2028 3584 
Q 2975 3584 3395 3211 
Q 3816 2838 3816 1997 
z
" transform="scale(0.015625)"/>
      </defs>
      <use xlink:href="#DejaVuSans-Bold-24"/>
      <use xlink:href="#DejaVuSans-Bold-2f" x="69.580078"/>
      <use xlink:href="#DejaVuSans-Bold-75" x="106.103516"/>
      <use xlink:href="#DejaVuSans-Bold-6e" x="177.294922"/>
      <use xlink:href="#DejaVuSans-Bold-69" x="248.486328"/>
      <use xlink:href="#DejaVuSans-Bold-64" x="282.763672"/>
      <use xlink:href="#DejaVuSans-Bold-61" x="354.345703"/>
      <use xlink:href="#DejaVuSans-Bold-64" x="421.826172"/>
     </g>
    </g>
   </g>
   <g id="line2d_25">
    <path d="M 126.707434 249.73116 
L 134.483354 256.140984 
L 142.259274 262.253114 
L 150.035193 268.067549 
L 157.811113 273.584291 
L 165.587033 278.803338 
L 173.362953 283.724691 
L 181.138872 288.34835 
L 188.914792 292.674315 
L 196.690712 296.702586 
L 204.466632 300.433163 
L 212.242551 303.866046 
L 220.018471 307.001235 
L 226.239207 309.295046 
L 232.459943 311.398333 
L 238.680678 313.311096 
L 244.901414 315.033335 
L 251.12215 316.565049 
L 257.342886 317.906239 
L 263.563622 319.056905 
L 269.784357 320.017047 
L 276.005093 320.786665 
L 282.225829 321.365758 
L 288.446565 321.754327 
L 294.6673 321.952372 
L 300.888036 321.959893 
L 307.108772 321.776889 
L 313.329508 321.403362 
L 319.550244 320.83931 
L 325.770979 320.084733 
L 331.991715 319.139633 
L 338.212451 318.004008 
L 344.433187 316.67786 
L 350.653923 315.161187 
L 356.874658 313.453989 
L 363.095394 311.556268 
L 369.31613 309.468022 
L 375.536866 307.189252 
L 383.312785 304.072865 
L 391.088705 300.658784 
L 398.864625 296.947009 
L 406.640545 292.93754 
L 414.416464 288.630376 
L 422.192384 284.025519 
L 429.968304 279.122967 
L 437.744224 273.922722 
L 445.520143 268.424782 
L 453.296063 262.629148 
L 461.071983 256.53582 
L 468.847902 250.144798 
L 476.623822 243.456082 
L 484.399742 236.469672 
L 492.175662 229.185568 
L 499.951581 221.60377 
L 507.727501 213.724277 
L 515.503421 205.547091 
L 523.279341 197.07221 
L 531.05526 188.299635 
L 538.83118 179.229367 
L 546.6071 169.861404 
L 554.383019 160.195747 
L 563.714123 148.204003 
L 573.045227 135.783579 
L 582.376331 122.934475 
L 591.707434 109.656692 
L 591.707434 109.656692 
" clip-path="url(#p2c5cda6e6e)" style="fill: none; stroke: #e67e22; stroke-width: 3; stroke-linecap: square"/>
   </g>
   <g id="line2d_26">
    <path d="M 126.707434 50.186479 
L 128.262618 62.148029 
L 129.817802 72.834082 
L 131.372986 82.448226 
L 132.92817 91.152789 
L 134.483354 99.078784 
L 136.038538 106.333118 
L 137.593722 113.003889 
L 140.70409 124.875907 
L 143.814458 135.152006 
L 146.924826 144.162086 
L 150.035193 152.150181 
L 153.145561 159.30069 
L 156.255929 165.755545 
L 159.366297 171.62577 
L 162.476665 176.999459 
L 165.587033 181.947408 
L 168.697401 186.527158 
L 171.807769 190.785963 
L 174.918137 194.762985 
L 179.583688 200.270348 
L 184.24924 205.305891 
L 188.914792 209.94003 
L 193.580344 214.228798 
L 198.245896 218.217335 
L 202.911448 221.942414 
L 207.576999 225.434293 
L 213.797735 229.7702 
L 220.018471 233.784349 
L 226.239207 237.515606 
L 232.459943 240.995411 
L 238.680678 244.249468 
L 246.456598 248.031565 
L 254.232518 251.52769 
L 262.008438 254.765107 
L 269.784357 257.76602 
L 277.560277 260.548693 
L 285.336197 263.128289 
L 294.6673 265.973466 
L 303.998404 268.56261 
L 313.329508 270.910722 
L 322.660611 273.030267 
L 331.991715 274.931683 
L 341.322819 276.623778 
L 350.653923 278.114039 
L 359.985026 279.408865 
L 370.871314 280.679794 
L 381.757601 281.699665 
L 392.643889 282.474838 
L 403.530177 283.010756 
L 414.416464 283.312101 
L 425.302752 283.382925 
L 436.18904 283.226751 
L 447.075327 282.846658 
L 457.961615 282.245347 
L 468.847902 281.425198 
L 479.73419 280.388319 
L 490.620478 279.136578 
L 501.506765 277.671642 
L 512.393053 275.995 
L 523.279341 274.107986 
L 534.165628 272.011803 
L 545.051916 269.707531 
L 555.938203 267.19615 
L 566.824491 264.478546 
L 577.710779 261.555526 
L 588.597066 258.427822 
L 591.707434 257.496692 
L 591.707434 257.496692 
" clip-path="url(#p2c5cda6e6e)" style="fill: none; stroke: #16a085; stroke-width: 3; stroke-linecap: square"/>
   </g>
   <g id="line2d_27">
    <path d="M 82.654803 283.386782 
L 640.654803 283.386782 
" clip-path="url(#p2c5cda6e6e)" style="fill: none; stroke: #c0392b; stroke-width: 3; stroke-linecap: square"/>
   </g>
   <g id="line2d_28">
    <defs>
     <path id="me44d749722" d="M 4 0 
L -4 -4 
L -4 4 
z
" style="stroke: #000000; stroke-linejoin: miter"/>
    </defs>
    <g>
     <use xlink:href="#me44d749722" x="640.654803" y="369.163075" style="stroke: #000000; stroke-linejoin: miter"/>
    </g>
   </g>
   <g id="line2d_29">
    <defs>
     <path id="m18890216b1" d="M 0 -4 
L -4 4 
L 4 4 
z
" style="stroke: #000000; stroke-linejoin: miter"/>
    </defs>
    <g>
     <use xlink:href="#m18890216b1" x="102.23375" y="50.677969" style="stroke: #000000; stroke-linejoin: miter"/>
    </g>
   </g>
   <g id="patch_3">
    <path d="M 102.23375 383.317969 
L 102.23375 50.677969 
" style="fill: none; stroke: #000000; stroke-width: 1.4; stroke-linejoin: miter; stroke-linecap: square"/>
   </g>
   <g id="patch_4">
    <path d="M 82.654803 369.163075 
L 640.654803 369.163075 
" style="fill: none; stroke: #000000; stroke-width: 1.4; stroke-linejoin: miter; stroke-linecap: square"/>
   </g>
   <g id="text_15">
    <!-- Equilibrio de largo plazo en Competencia Perfecta -->
    <g transform="translate(177.926209 38.677969) scale(0.13 -0.13)">
     <defs>
      <path id="DejaVuSans-Bold-45" d="M 588 4666 
L 3834 4666 
L 3834 3756 
L 1791 3756 
L 1791 2888 
L 3713 2888 
L 3713 1978 
L 1791 1978 
L 1791 909 
L 3903 909 
L 3903 0 
L 588 0 
L 588 4666 
z
" transform="scale(0.015625)"/>
      <path id="DejaVuSans-Bold-6c" d="M 538 4863 
L 1656 4863 
L 1656 0 
L 538 0 
L 538 4863 
z
" transform="scale(0.015625)"/>
      <path id="DejaVuSans-Bold-62" d="M 2400 722 
Q 2759 722 2948 984 
Q 3138 1247 3138 1747 
Q 3138 2247 2948 2509 
Q 2759 2772 2400 2772 
Q 2041 2772 1848 2508 
Q 1656 2244 1656 1747 
Q 1656 1250 1848 986 
Q 2041 722 2400 722 
z
M 1656 2988 
Q 1888 3294 2169 3439 
Q 2450 3584 2816 3584 
Q 3463 3584 3878 3070 
Q 4294 2556 4294 1747 
Q 4294 938 3878 423 
Q 3463 -91 2816 -91 
Q 2450 -91 2169 54 
Q 1888 200 1656 506 
L 1656 0 
L 538 0 
L 538 4863 
L 1656 4863 
L 1656 2988 
z
" transform="scale(0.015625)"/>
      <path id="DejaVuSans-Bold-72" d="M 3138 2547 
Q 2991 2616 2845 2648 
Q 2700 2681 2553 2681 
Q 2122 2681 1889 2404 
Q 1656 2128 1656 1613 
L 1656 0 
L 538 0 
L 538 3500 
L 1656 3500 
L 1656 2925 
Q 1872 3269 2151 3426 
Q 2431 3584 2822 3584 
Q 2878 3584 2943 3579 
Q 3009 3575 3134 3559 
L 3138 2547 
z
" transform="scale(0.015625)"/>
      <path id="DejaVuSans-Bold-6f" d="M 2203 2784 
Q 1831 2784 1636 2517 
Q 1441 2250 1441 1747 
Q 1441 1244 1636 976 
Q 1831 709 2203 709 
Q 2569 709 2762 976 
Q 2956 1244 2956 1747 
Q 2956 2250 2762 2517 
Q 2569 2784 2203 2784 
z
M 2203 3584 
Q 3106 3584 3614 3096 
Q 4122 2609 4122 1747 
Q 4122 884 3614 396 
Q 3106 -91 2203 -91 
Q 1297 -91 786 396 
Q 275 884 275 1747 
Q 275 2609 786 3096 
Q 1297 3584 2203 3584 
z
" transform="scale(0.015625)"/>
      <path id="DejaVuSans-Bold-20" transform="scale(0.015625)"/>
      <path id="DejaVuSans-Bold-65" d="M 4031 1759 
L 4031 1441 
L 1416 1441 
Q 1456 1047 1700 850 
Q 1944 653 2381 653 
Q 2734 653 3104 758 
Q 3475 863 3866 1075 
L 3866 213 
Q 3469 63 3072 -14 
Q 2675 -91 2278 -91 
Q 1328 -91 801 392 
Q 275 875 275 1747 
Q 275 2603 792 3093 
Q 1309 3584 2216 3584 
Q 3041 3584 3536 3087 
Q 4031 2591 4031 1759 
z
M 2881 2131 
Q 2881 2450 2695 2645 
Q 2509 2841 2209 2841 
Q 1884 2841 1681 2658 
Q 1478 2475 1428 2131 
L 2881 2131 
z
" transform="scale(0.015625)"/>
      <path id="DejaVuSans-Bold-67" d="M 2919 594 
Q 2688 288 2409 144 
Q 2131 0 1766 0 
Q 1125 0 706 504 
Q 288 1009 288 1791 
Q 288 2575 706 3076 
Q 1125 3578 1766 3578 
Q 2131 3578 2409 3434 
Q 2688 3291 2919 2981 
L 2919 3500 
L 4044 3500 
L 4044 353 
Q 4044 -491 3511 -936 
Q 2978 -1381 1966 -1381 
Q 1638 -1381 1331 -1331 
Q 1025 -1281 716 -1178 
L 716 -306 
Q 1009 -475 1290 -558 
Q 1572 -641 1856 -641 
Q 2406 -641 2662 -400 
Q 2919 -159 2919 353 
L 2919 594 
z
M 2181 2772 
Q 1834 2772 1640 2515 
Q 1447 2259 1447 1791 
Q 1447 1309 1634 1061 
Q 1822 813 2181 813 
Q 2531 813 2725 1069 
Q 2919 1325 2919 1791 
Q 2919 2259 2725 2515 
Q 2531 2772 2181 2772 
z
" transform="scale(0.015625)"/>
      <path id="DejaVuSans-Bold-70" d="M 1656 506 
L 1656 -1331 
L 538 -1331 
L 538 3500 
L 1656 3500 
L 1656 2988 
Q 1888 3294 2169 3439 
Q 2450 3584 2816 3584 
Q 3463 3584 3878 3070 
Q 4294 2556 4294 1747 
Q 4294 938 3878 423 
Q 3463 -91 2816 -91 
Q 2450 -91 2169 54 
Q 1888 200 1656 506 
z
M 2400 2772 
Q 2041 2772 1848 2508 
Q 1656 2244 1656 1747 
Q 1656 1250 1848 986 
Q 2041 722 2400 722 
Q 2759 722 2948 984 
Q 3138 1247 3138 1747 
Q 3138 2247 2948 2509 
Q 2759 2772 2400 2772 
z
" transform="scale(0.015625)"/>
      <path id="DejaVuSans-Bold-7a" d="M 366 3500 
L 3419 3500 
L 3419 2719 
L 1575 800 
L 3419 800 
L 3419 0 
L 288 0 
L 288 781 
L 2131 2700 
L 366 2700 
L 366 3500 
z
" transform="scale(0.015625)"/>
      <path id="DejaVuSans-Bold-43" d="M 4288 256 
Q 3956 84 3597 -3 
Q 3238 -91 2847 -91 
Q 1681 -91 1000 561 
Q 319 1213 319 2328 
Q 319 3447 1000 4098 
Q 1681 4750 2847 4750 
Q 3238 4750 3597 4662 
Q 3956 4575 4288 4403 
L 4288 3438 
Q 3953 3666 3628 3772 
Q 3303 3878 2944 3878 
Q 2300 3878 1931 3465 
Q 1563 3053 1563 2328 
Q 1563 1606 1931 1193 
Q 2300 781 2944 781 
Q 3303 781 3628 887 
Q 3953 994 4288 1222 
L 4288 256 
z
" transform="scale(0.015625)"/>
      <path id="DejaVuSans-Bold-6d" d="M 3781 2919 
Q 3994 3244 4286 3414 
Q 4578 3584 4928 3584 
Q 5531 3584 5847 3212 
Q 6163 2841 6163 2131 
L 6163 0 
L 5038 0 
L 5038 1825 
Q 5041 1866 5042 1909 
Q 5044 1953 5044 2034 
Q 5044 2406 4934 2573 
Q 4825 2741 4581 2741 
Q 4263 2741 4089 2478 
Q 3916 2216 3909 1719 
L 3909 0 
L 2784 0 
L 2784 1825 
Q 2784 2406 2684 2573 
Q 2584 2741 2328 2741 
Q 2006 2741 1831 2477 
Q 1656 2213 1656 1722 
L 1656 0 
L 531 0 
L 531 3500 
L 1656 3500 
L 1656 2988 
Q 1863 3284 2130 3434 
Q 2397 3584 2719 3584 
Q 3081 3584 3359 3409 
Q 3638 3234 3781 2919 
z
" transform="scale(0.015625)"/>
      <path id="DejaVuSans-Bold-74" d="M 1759 4494 
L 1759 3500 
L 2913 3500 
L 2913 2700 
L 1759 2700 
L 1759 1216 
Q 1759 972 1856 886 
Q 1953 800 2241 800 
L 2816 800 
L 2816 0 
L 1856 0 
Q 1194 0 917 276 
Q 641 553 641 1216 
L 641 2700 
L 84 2700 
L 84 3500 
L 641 3500 
L 641 4494 
L 1759 4494 
z
" transform="scale(0.015625)"/>
      <path id="DejaVuSans-Bold-63" d="M 3366 3391 
L 3366 2478 
Q 3138 2634 2908 2709 
Q 2678 2784 2431 2784 
Q 1963 2784 1702 2511 
Q 1441 2238 1441 1747 
Q 1441 1256 1702 982 
Q 1963 709 2431 709 
Q 2694 709 2930 787 
Q 3166 866 3366 1019 
L 3366 103 
Q 3103 6 2833 -42 
Q 2563 -91 2291 -91 
Q 1344 -91 809 395 
Q 275 881 275 1747 
Q 275 2613 809 3098 
Q 1344 3584 2291 3584 
Q 2566 3584 2833 3536 
Q 3100 3488 3366 3391 
z
" transform="scale(0.015625)"/>
      <path id="DejaVuSans-Bold-50" d="M 588 4666 
L 2584 4666 
Q 3475 4666 3951 4270 
Q 4428 3875 4428 3144 
Q 4428 2409 3951 2014 
Q 3475 1619 2584 1619 
L 1791 1619 
L 1791 0 
L 588 0 
L 588 4666 
z
M 1791 3794 
L 1791 2491 
L 2456 2491 
Q 2806 2491 2997 2661 
Q 3188 2831 3188 3144 
Q 3188 3456 2997 3625 
Q 2806 3794 2456 3794 
L 1791 3794 
z
" transform="scale(0.015625)"/>
      <path id="DejaVuSans-Bold-66" d="M 2841 4863 
L 2841 4128 
L 2222 4128 
Q 1984 4128 1890 4042 
Q 1797 3956 1797 3744 
L 1797 3500 
L 2753 3500 
L 2753 2700 
L 1797 2700 
L 1797 0 
L 678 0 
L 678 2700 
L 122 2700 
L 122 3500 
L 678 3500 
L 678 3744 
Q 678 4316 997 4589 
Q 1316 4863 1984 4863 
L 2841 4863 
z
" transform="scale(0.015625)"/>
     </defs>
     <use xlink:href="#DejaVuSans-Bold-45"/>
     <use xlink:href="#DejaVuSans-Bold-71" x="68.310547"/>
     <use xlink:href="#DejaVuSans-Bold-75" x="139.892578"/>
     <use xlink:href="#DejaVuSans-Bold-69" x="211.083984"/>
     <use xlink:href="#DejaVuSans-Bold-6c" x="245.361328"/>
     <use xlink:href="#DejaVuSans-Bold-69" x="279.638672"/>
     <use xlink:href="#DejaVuSans-Bold-62" x="313.916016"/>
     <use xlink:href="#DejaVuSans-Bold-72" x="385.498047"/>
     <use xlink:href="#DejaVuSans-Bold-69" x="434.814453"/>
     <use xlink:href="#DejaVuSans-Bold-6f" x="469.091797"/>
     <use xlink:href="#DejaVuSans-Bold-20" x="537.792969"/>
     <use xlink:href="#DejaVuSans-Bold-64" x="572.607422"/>
     <use xlink:href="#DejaVuSans-Bold-65" x="644.189453"/>
     <use xlink:href="#DejaVuSans-Bold-20" x="712.011719"/>
     <use xlink:href="#DejaVuSans-Bold-6c" x="746.826172"/>
     <use xlink:href="#DejaVuSans-Bold-61" x="781.103516"/>
     <use xlink:href="#DejaVuSans-Bold-72" x="848.583984"/>
     <use xlink:href="#DejaVuSans-Bold-67" x="897.900391"/>
     <use xlink:href="#DejaVuSans-Bold-6f" x="969.482422"/>
     <use xlink:href="#DejaVuSans-Bold-20" x="1038.183594"/>
     <use xlink:href="#DejaVuSans-Bold-70" x="1072.998047"/>
     <use xlink:href="#DejaVuSans-Bold-6c" x="1144.580078"/>
     <use xlink:href="#DejaVuSans-Bold-61" x="1178.857422"/>
     <use xlink:href="#DejaVuSans-Bold-7a" x="1246.337891"/>
     <use xlink:href="#DejaVuSans-Bold-6f" x="1304.541016"/>
     <use xlink:href="#DejaVuSans-Bold-20" x="1373.242188"/>
     <use xlink:href="#DejaVuSans-Bold-65" x="1408.056641"/>
     <use xlink:href="#DejaVuSans-Bold-6e" x="1475.878906"/>
     <use xlink:href="#DejaVuSans-Bold-20" x="1547.070312"/>
     <use xlink:href="#DejaVuSans-Bold-43" x="1581.884766"/>
     <use xlink:href="#DejaVuSans-Bold-6f" x="1655.273438"/>
     <use xlink:href="#DejaVuSans-Bold-6d" x="1723.974609"/>
     <use xlink:href="#DejaVuSans-Bold-70" x="1828.173828"/>
     <use xlink:href="#DejaVuSans-Bold-65" x="1899.755859"/>
     <use xlink:href="#DejaVuSans-Bold-74" x="1967.578125"/>
     <use xlink:href="#DejaVuSans-Bold-65" x="2015.380859"/>
     <use xlink:href="#DejaVuSans-Bold-6e" x="2083.203125"/>
     <use xlink:href="#DejaVuSans-Bold-63" x="2154.394531"/>
     <use xlink:href="#DejaVuSans-Bold-69" x="2213.671875"/>
     <use xlink:href="#DejaVuSans-Bold-61" x="2247.949219"/>
     <use xlink:href="#DejaVuSans-Bold-20" x="2315.429688"/>
     <use xlink:href="#DejaVuSans-Bold-50" x="2350.244141"/>
     <use xlink:href="#DejaVuSans-Bold-65" x="2423.535156"/>
     <use xlink:href="#DejaVuSans-Bold-72" x="2491.357422"/>
     <use xlink:href="#DejaVuSans-Bold-66" x="2540.673828"/>
     <use xlink:href="#DejaVuSans-Bold-65" x="2584.179688"/>
     <use xlink:href="#DejaVuSans-Bold-63" x="2652.001953"/>
     <use xlink:href="#DejaVuSans-Bold-74" x="2711.279297"/>
     <use xlink:href="#DejaVuSans-Bold-61" x="2759.082031"/>
    </g>
   </g>
   <g id="legend_1">
    <g id="patch_5">
     <path d="M 653.814803 97.990469 
L 766.78824 97.990469 
Q 768.78824 97.990469 768.78824 95.990469 
L 768.78824 52.677969 
Q 768.78824 50.677969 766.78824 50.677969 
L 653.814803 50.677969 
Q 651.814803 50.677969 651.814803 52.677969 
L 651.814803 95.990469 
Q 651.814803 97.990469 653.814803 97.990469 
z
" style="fill: #ffffff; opacity: 0.8; stroke: #cccccc; stroke-linejoin: miter"/>
    </g>
    <g id="line2d_30">
     <path d="M 655.814803 58.776406 
L 665.814803 58.776406 
L 675.814803 58.776406 
" style="fill: none; stroke: #e67e22; stroke-width: 3; stroke-linecap: square"/>
    </g>
    <g id="text_16">
     <!-- CMg -->
     <g transform="translate(683.814803 62.276406) scale(0.1 -0.1)">
      <defs>
       <path id="DejaVuSans-43" d="M 4122 4306 
L 4122 3641 
Q 3803 3938 3442 4084 
Q 3081 4231 2675 4231 
Q 1875 4231 1450 3742 
Q 1025 3253 1025 2328 
Q 1025 1406 1450 917 
Q 1875 428 2675 428 
Q 3081 428 3442 575 
Q 3803 722 4122 1019 
L 4122 359 
Q 3791 134 3420 21 
Q 3050 -91 2638 -91 
Q 1578 -91 968 557 
Q 359 1206 359 2328 
Q 359 3453 968 4101 
Q 1578 4750 2638 4750 
Q 3056 4750 3426 4639 
Q 3797 4528 4122 4306 
z
" transform="scale(0.015625)"/>
       <path id="DejaVuSans-4d" d="M 628 4666 
L 1569 4666 
L 2759 1491 
L 3956 4666 
L 4897 4666 
L 4897 0 
L 4281 0 
L 4281 4097 
L 3078 897 
L 2444 897 
L 1241 4097 
L 1241 0 
L 628 0 
L 628 4666 
z
" transform="scale(0.015625)"/>
       <path id="DejaVuSans-67" d="M 2906 1791 
Q 2906 2416 2648 2759 
Q 2391 3103 1925 3103 
Q 1463 3103 1205 2759 
Q 947 2416 947 1791 
Q 947 1169 1205 825 
Q 1463 481 1925 481 
Q 2391 481 2648 825 
Q 2906 1169 2906 1791 
z
M 3481 434 
Q 3481 -459 3084 -895 
Q 2688 -1331 1869 -1331 
Q 1566 -1331 1297 -1286 
Q 1028 -1241 775 -1147 
L 775 -588 
Q 1028 -725 1275 -790 
Q 1522 -856 1778 -856 
Q 2344 -856 2625 -561 
Q 2906 -266 2906 331 
L 2906 616 
Q 2728 306 2450 153 
Q 2172 0 1784 0 
Q 1141 0 747 490 
Q 353 981 353 1791 
Q 353 2603 747 3093 
Q 1141 3584 1784 3584 
Q 2172 3584 2450 3431 
Q 2728 3278 2906 2969 
L 2906 3500 
L 3481 3500 
L 3481 434 
z
" transform="scale(0.015625)"/>
      </defs>
      <use xlink:href="#DejaVuSans-43"/>
      <use xlink:href="#DejaVuSans-4d" x="69.824219"/>
      <use xlink:href="#DejaVuSans-67" x="156.103516"/>
     </g>
    </g>
    <g id="line2d_31">
     <path d="M 655.814803 73.454531 
L 665.814803 73.454531 
L 675.814803 73.454531 
" style="fill: none; stroke: #16a085; stroke-width: 3; stroke-linecap: square"/>
    </g>
    <g id="text_17">
     <!-- CTMe = CMe_LP -->
     <g transform="translate(683.814803 76.954531) scale(0.1 -0.1)">
      <defs>
       <path id="DejaVuSans-54" d="M -19 4666 
L 3928 4666 
L 3928 4134 
L 2272 4134 
L 2272 0 
L 1638 0 
L 1638 4134 
L -19 4134 
L -19 4666 
z
" transform="scale(0.015625)"/>
       <path id="DejaVuSans-65" d="M 3597 1894 
L 3597 1613 
L 953 1613 
Q 991 1019 1311 708 
Q 1631 397 2203 397 
Q 2534 397 2845 478 
Q 3156 559 3463 722 
L 3463 178 
Q 3153 47 2828 -22 
Q 2503 -91 2169 -91 
Q 1331 -91 842 396 
Q 353 884 353 1716 
Q 353 2575 817 3079 
Q 1281 3584 2069 3584 
Q 2775 3584 3186 3129 
Q 3597 2675 3597 1894 
z
M 3022 2063 
Q 3016 2534 2758 2815 
Q 2500 3097 2075 3097 
Q 1594 3097 1305 2825 
Q 1016 2553 972 2059 
L 3022 2063 
z
" transform="scale(0.015625)"/>
       <path id="DejaVuSans-20" transform="scale(0.015625)"/>
       <path id="DejaVuSans-3d" d="M 678 2906 
L 4684 2906 
L 4684 2381 
L 678 2381 
L 678 2906 
z
M 678 1631 
L 4684 1631 
L 4684 1100 
L 678 1100 
L 678 1631 
z
" transform="scale(0.015625)"/>
       <path id="DejaVuSans-5f" d="M 3263 -1063 
L 3263 -1509 
L -63 -1509 
L -63 -1063 
L 3263 -1063 
z
" transform="scale(0.015625)"/>
       <path id="DejaVuSans-4c" d="M 628 4666 
L 1259 4666 
L 1259 531 
L 3531 531 
L 3531 0 
L 628 0 
L 628 4666 
z
" transform="scale(0.015625)"/>
       <path id="DejaVuSans-50" d="M 1259 4147 
L 1259 2394 
L 2053 2394 
Q 2494 2394 2734 2622 
Q 2975 2850 2975 3272 
Q 2975 3691 2734 3919 
Q 2494 4147 2053 4147 
L 1259 4147 
z
M 628 4666 
L 2053 4666 
Q 2838 4666 3239 4311 
Q 3641 3956 3641 3272 
Q 3641 2581 3239 2228 
Q 2838 1875 2053 1875 
L 1259 1875 
L 1259 0 
L 628 0 
L 628 4666 
z
" transform="scale(0.015625)"/>
      </defs>
      <use xlink:href="#DejaVuSans-43"/>
      <use xlink:href="#DejaVuSans-54" x="69.824219"/>
      <use xlink:href="#DejaVuSans-4d" x="130.908203"/>
      <use xlink:href="#DejaVuSans-65" x="217.1875"/>
      <use xlink:href="#DejaVuSans-20" x="278.710938"/>
      <use xlink:href="#DejaVuSans-3d" x="310.498047"/>
      <use xlink:href="#DejaVuSans-20" x="394.287109"/>
      <use xlink:href="#DejaVuSans-43" x="426.074219"/>
      <use xlink:href="#DejaVuSans-4d" x="495.898438"/>
      <use xlink:href="#DejaVuSans-65" x="582.177734"/>
      <use xlink:href="#DejaVuSans-5f" x="643.701172"/>
      <use xlink:href="#DejaVuSans-4c" x="693.701172"/>
      <use xlink:href="#DejaVuSans-50" x="749.414062"/>
     </g>
    </g>
    <g id="line2d_32">
     <path d="M 655.814803 88.410781 
L 665.814803 88.410781 
L 675.814803 88.410781 
" style="fill: none; stroke: #c0392b; stroke-width: 3; stroke-linecap: square"/>
    </g>
    <g id="text_18">
     <!-- P* (LP) = 7.27 -->
     <g transform="translate(683.814803 91.910781) scale(0.1 -0.1)">
      <defs>
       <path id="DejaVuSans-2a" d="M 3009 3897 
L 1888 3291 
L 3009 2681 
L 2828 2375 
L 1778 3009 
L 1778 1831 
L 1422 1831 
L 1422 3009 
L 372 2375 
L 191 2681 
L 1313 3291 
L 191 3897 
L 372 4206 
L 1422 3572 
L 1422 4750 
L 1778 4750 
L 1778 3572 
L 2828 4206 
L 3009 3897 
z
" transform="scale(0.015625)"/>
       <path id="DejaVuSans-28" d="M 1984 4856 
Q 1566 4138 1362 3434 
Q 1159 2731 1159 2009 
Q 1159 1288 1364 580 
Q 1569 -128 1984 -844 
L 1484 -844 
Q 1016 -109 783 600 
Q 550 1309 550 2009 
Q 550 2706 781 3412 
Q 1013 4119 1484 4856 
L 1984 4856 
z
" transform="scale(0.015625)"/>
       <path id="DejaVuSans-29" d="M 513 4856 
L 1013 4856 
Q 1481 4119 1714 3412 
Q 1947 2706 1947 2009 
Q 1947 1309 1714 600 
Q 1481 -109 1013 -844 
L 513 -844 
Q 928 -128 1133 580 
Q 1338 1288 1338 2009 
Q 1338 2731 1133 3434 
Q 928 4138 513 4856 
z
" transform="scale(0.015625)"/>
       <path id="DejaVuSans-37" d="M 525 4666 
L 3525 4666 
L 3525 4397 
L 1831 0 
L 1172 0 
L 2766 4134 
L 525 4134 
L 525 4666 
z
" transform="scale(0.015625)"/>
       <path id="DejaVuSans-2e" d="M 684 794 
L 1344 794 
L 1344 0 
L 684 0 
L 684 794 
z
" transform="scale(0.015625)"/>
      </defs>
      <use xlink:href="#DejaVuSans-50"/>
      <use xlink:href="#DejaVuSans-2a" x="60.302734"/>
      <use xlink:href="#DejaVuSans-20" x="110.302734"/>
      <use xlink:href="#DejaVuSans-28" x="142.089844"/>
      <use xlink:href="#DejaVuSans-4c" x="181.103516"/>
      <use xlink:href="#DejaVuSans-50" x="236.816406"/>
      <use xlink:href="#DejaVuSans-29" x="297.119141"/>
      <use xlink:href="#DejaVuSans-20" x="336.132812"/>
      <use xlink:href="#DejaVuSans-3d" x="367.919922"/>
      <use xlink:href="#DejaVuSans-20" x="451.708984"/>
      <use xlink:href="#DejaVuSans-37" x="483.496094"/>
      <use xlink:href="#DejaVuSans-2e" x="547.119141"/>
      <use xlink:href="#DejaVuSans-32" x="578.90625"/>
      <use xlink:href="#DejaVuSans-37" x="642.529297"/>
     </g>
    </g>
   </g>
   <g id="line2d_33">
    <defs>
     <path id="ma02f53018e" d="M 0 6 
C 1.591219 6 3.117479 5.367802 4.242641 4.242641 
C 5.367802 3.117479 6 1.591219 6 0 
C 6 -1.591219 5.367802 -3.117479 4.242641 -4.242641 
C 3.117479 -5.367802 1.591219 -6 0 -6 
C -1.591219 -6 -3.117479 -5.367802 -4.242641 -4.242641 
C -5.367802 -3.117479 -6 -1.591219 -6 0 
C -6 1.591219 -5.367802 3.117479 -4.242641 4.242641 
C -3.117479 5.367802 -1.591219 6 0 6 
z
" style="stroke: #000000"/>
    </defs>
    <g clip-path="url(#p2c5cda6e6e)">
     <use xlink:href="#ma02f53018e" x="423.747568" y="283.386782" style="stroke: #000000"/>
    </g>
   </g>
   <g id="patch_6">
    <path d="M 466.443516 304.527921 
Q 445.990687 294.400588 426.539792 284.769368 
" style="fill: none; stroke: #34495e; stroke-linecap: round"/>
    <path d="M 429.506661 288.693357 
L 426.539792 284.769368 
L 431.459105 284.750266 
" style="fill: none; stroke: #34495e; stroke-linecap: round"/>
   </g>
   <g id="text_19">
    <g id="patch_7">
     <path d="M 454.660566 347.953162 
L 569.045097 347.953162 
Q 572.345097 347.953162 572.345097 344.653162 
L 572.345097 309.0661 
Q 572.345097 305.7661 569.045097 305.7661 
L 454.660566 305.7661 
Q 451.360566 305.7661 451.360566 309.0661 
L 451.360566 344.653162 
Q 451.360566 347.953162 454.660566 347.953162 
z
" style="fill: #fffbeb; opacity: 0.97; stroke: #f39c12; stroke-width: 0.7; stroke-linejoin: miter"/>
    </g>
    <!-- E_LP -->
    <g transform="translate(497.809784 317.424381) scale(0.11 -0.11)">
     <defs>
      <path id="DejaVuSans-Bold-5f" d="M 3200 -916 
L 3200 -1509 
L 0 -1509 
L 0 -916 
L 3200 -916 
z
" transform="scale(0.015625)"/>
      <path id="DejaVuSans-Bold-4c" d="M 588 4666 
L 1791 4666 
L 1791 909 
L 3903 909 
L 3903 0 
L 588 0 
L 588 4666 
z
" transform="scale(0.015625)"/>
     </defs>
     <use xlink:href="#DejaVuSans-Bold-45"/>
     <use xlink:href="#DejaVuSans-Bold-5f" x="68.310547"/>
     <use xlink:href="#DejaVuSans-Bold-4c" x="118.310547"/>
     <use xlink:href="#DejaVuSans-Bold-50" x="182.03125"/>
    </g>
    <!-- π = 0 -->
    <g transform="translate(495.236816 330.047912) scale(0.11 -0.11)">
     <defs>
      <path id="DejaVuSans-Bold-3c0" d="M 269 3500 
L 4684 3500 
L 4684 2700 
L 4072 2700 
L 4072 1131 
Q 4072 728 4148 629 
Q 4225 531 4400 531 
Q 4578 531 4678 544 
L 4678 -44 
Q 4484 -122 3822 -122 
Q 3613 -122 3409 -63 
Q 3084 34 2994 319 
Q 2953 453 2953 728 
L 2953 2700 
L 2000 2700 
L 2000 0 
L 881 0 
L 881 2700 
L 269 2700 
L 269 3500 
z
" transform="scale(0.015625)"/>
      <path id="DejaVuSans-Bold-3d" d="M 678 3084 
L 4684 3084 
L 4684 2350 
L 678 2350 
L 678 3084 
z
M 678 1663 
L 4684 1663 
L 4684 922 
L 678 922 
L 678 1663 
z
" transform="scale(0.015625)"/>
      <path id="DejaVuSans-Bold-30" d="M 2944 2338 
Q 2944 3213 2780 3570 
Q 2616 3928 2228 3928 
Q 1841 3928 1675 3570 
Q 1509 3213 1509 2338 
Q 1509 1453 1675 1090 
Q 1841 728 2228 728 
Q 2613 728 2778 1090 
Q 2944 1453 2944 2338 
z
M 4147 2328 
Q 4147 1169 3647 539 
Q 3147 -91 2228 -91 
Q 1306 -91 806 539 
Q 306 1169 306 2328 
Q 306 3491 806 4120 
Q 1306 4750 2228 4750 
Q 3147 4750 3647 4120 
Q 4147 3491 4147 2328 
z
" transform="scale(0.015625)"/>
     </defs>
     <use xlink:href="#DejaVuSans-Bold-3c0"/>
     <use xlink:href="#DejaVuSans-Bold-20" x="79.101562"/>
     <use xlink:href="#DejaVuSans-Bold-3d" x="113.916016"/>
     <use xlink:href="#DejaVuSans-Bold-20" x="197.705078"/>
     <use xlink:href="#DejaVuSans-Bold-30" x="232.519531"/>
    </g>
    <!-- (beneficio normal) -->
    <g transform="translate(454.660566 342.365506) scale(0.11 -0.11)">
     <defs>
      <path id="DejaVuSans-Bold-28" d="M 2413 -844 
L 1484 -844 
Q 1006 -72 778 623 
Q 550 1319 550 2003 
Q 550 2688 779 3389 
Q 1009 4091 1484 4856 
L 2413 4856 
Q 2013 4116 1813 3408 
Q 1613 2700 1613 2009 
Q 1613 1319 1811 609 
Q 2009 -100 2413 -844 
z
" transform="scale(0.015625)"/>
      <path id="DejaVuSans-Bold-29" d="M 513 -844 
Q 913 -100 1113 609 
Q 1313 1319 1313 2009 
Q 1313 2700 1113 3408 
Q 913 4116 513 4856 
L 1441 4856 
Q 1916 4091 2145 3389 
Q 2375 2688 2375 2003 
Q 2375 1319 2147 623 
Q 1919 -72 1441 -844 
L 513 -844 
z
" transform="scale(0.015625)"/>
     </defs>
     <use xlink:href="#DejaVuSans-Bold-28"/>
     <use xlink:href="#DejaVuSans-Bold-62" x="45.703125"/>
     <use xlink:href="#DejaVuSans-Bold-65" x="117.285156"/>
     <use xlink:href="#DejaVuSans-Bold-6e" x="185.107422"/>
     <use xlink:href="#DejaVuSans-Bold-65" x="256.298828"/>
     <use xlink:href="#DejaVuSans-Bold-66" x="324.121094"/>
     <use xlink:href="#DejaVuSans-Bold-69" x="367.626953"/>
     <use xlink:href="#DejaVuSans-Bold-63" x="401.904297"/>
     <use xlink:href="#DejaVuSans-Bold-69" x="461.181641"/>
     <use xlink:href="#DejaVuSans-Bold-6f" x="495.458984"/>
     <use xlink:href="#DejaVuSans-Bold-20" x="564.160156"/>
     <use xlink:href="#DejaVuSans-Bold-6e" x="598.974609"/>
     <use xlink:href="#DejaVuSans-Bold-6f" x="670.166016"/>
     <use xlink:href="#DejaVuSans-Bold-72" x="738.867188"/>
     <use xlink:href="#DejaVuSans-Bold-6d" x="788.183594"/>
     <use xlink:href="#DejaVuSans-Bold-61" x="892.382812"/>
     <use xlink:href="#DejaVuSans-Bold-6c" x="959.863281"/>
     <use xlink:href="#DejaVuSans-Bold-29" x="994.140625"/>
    </g>
   </g>
   <g id="text_20">
    <!-- q* -->
    <g style="fill: #34495e" transform="translate(416.315068 388.89737) scale(0.12 -0.12)">
     <defs>
      <path id="DejaVuSans-Bold-2a" d="M 3219 3803 
L 2188 3263 
L 3219 2719 
L 2981 2278 
L 1941 2853 
L 1941 1778 
L 1409 1778 
L 1409 2853 
L 366 2278 
L 128 2719 
L 1172 3263 
L 128 3803 
L 366 4244 
L 1409 3675 
L 1409 4750 
L 1941 4750 
L 1941 3675 
L 2981 4244 
L 3219 3803 
z
" transform="scale(0.015625)"/>
     </defs>
     <use xlink:href="#DejaVuSans-Bold-71"/>
     <use xlink:href="#DejaVuSans-Bold-2a" x="71.582031"/>
    </g>
   </g>
   <g id="text_21">
    <g id="patch_8">
     <path d="M 240.882558 79.627271 
L 502.005995 79.627271 
Q 505.005995 79.627271 505.005995 76.627271 
L 505.005995 55.271333 
Q 505.005995 52.271333 502.005995 52.271333 
L 240.882558 52.271333 
Q 237.882558 52.271333 237.882558 55.271333 
L 237.882558 76.627271 
Q 237.882558 79.627271 240.882558 79.627271 
z
" style="fill: #fffbeb; opacity: 0.97; stroke: #f39c12; stroke-width: 0.7; stroke-linejoin: miter"/>
    </g>
    <!-- Libre entrada elimina los beneficios extraordinarios. -->
    <g transform="translate(240.882558 62.591646) scale(0.1 -0.1)">
     <defs>
      <path id="DejaVuSans-Oblique-4c" d="M 1075 4666 
L 1709 4666 
L 909 525 
L 3181 525 
L 3078 0 
L 172 0 
L 1075 4666 
z
" transform="scale(0.015625)"/>
      <path id="DejaVuSans-Oblique-69" d="M 1172 4863 
L 1747 4863 
L 1606 4134 
L 1031 4134 
L 1172 4863 
z
M 909 3500 
L 1484 3500 
L 800 0 
L 225 0 
L 909 3500 
z
" transform="scale(0.015625)"/>
      <path id="DejaVuSans-Oblique-62" d="M 3169 2138 
Q 3169 2591 2961 2847 
Q 2753 3103 2388 3103 
Q 2122 3103 1889 2973 
Q 1656 2844 1484 2597 
Q 1303 2338 1198 1995 
Q 1094 1653 1094 1313 
Q 1094 881 1298 636 
Q 1503 391 1863 391 
Q 2134 391 2365 517 
Q 2597 644 2772 891 
Q 2950 1147 3059 1487 
Q 3169 1828 3169 2138 
z
M 1381 2969 
Q 1594 3256 1914 3420 
Q 2234 3584 2584 3584 
Q 3122 3584 3439 3221 
Q 3756 2859 3756 2241 
Q 3756 1734 3570 1259 
Q 3384 784 3041 416 
Q 2816 172 2522 40 
Q 2228 -91 1906 -91 
Q 1566 -91 1316 65 
Q 1066 222 909 531 
L 806 0 
L 231 0 
L 1178 4863 
L 1753 4863 
L 1381 2969 
z
" transform="scale(0.015625)"/>
      <path id="DejaVuSans-Oblique-72" d="M 2853 2969 
Q 2766 3016 2653 3041 
Q 2541 3066 2413 3066 
Q 1953 3066 1609 2717 
Q 1266 2369 1153 1784 
L 800 0 
L 225 0 
L 909 3500 
L 1484 3500 
L 1375 2956 
Q 1603 3259 1920 3421 
Q 2238 3584 2597 3584 
Q 2691 3584 2781 3573 
Q 2872 3563 2963 3538 
L 2853 2969 
z
" transform="scale(0.015625)"/>
      <path id="DejaVuSans-Oblique-65" d="M 3078 2063 
Q 3088 2113 3092 2166 
Q 3097 2219 3097 2272 
Q 3097 2653 2873 2875 
Q 2650 3097 2266 3097 
Q 1838 3097 1509 2826 
Q 1181 2556 1013 2059 
L 3078 2063 
z
M 3578 1613 
L 903 1613 
Q 884 1494 878 1425 
Q 872 1356 872 1306 
Q 872 872 1139 634 
Q 1406 397 1894 397 
Q 2269 397 2603 481 
Q 2938 566 3225 728 
L 3116 159 
Q 2806 34 2476 -28 
Q 2147 -91 1806 -91 
Q 1078 -91 686 257 
Q 294 606 294 1247 
Q 294 1794 489 2264 
Q 684 2734 1063 3103 
Q 1306 3334 1642 3459 
Q 1978 3584 2356 3584 
Q 2950 3584 3301 3228 
Q 3653 2872 3653 2272 
Q 3653 2128 3634 1964 
Q 3616 1800 3578 1613 
z
" transform="scale(0.015625)"/>
      <path id="DejaVuSans-Oblique-20" transform="scale(0.015625)"/>
      <path id="DejaVuSans-Oblique-6e" d="M 3566 2113 
L 3156 0 
L 2578 0 
L 2988 2091 
Q 3016 2238 3031 2350 
Q 3047 2463 3047 2528 
Q 3047 2791 2881 2937 
Q 2716 3084 2419 3084 
Q 1956 3084 1622 2776 
Q 1288 2469 1184 1941 
L 800 0 
L 225 0 
L 903 3500 
L 1478 3500 
L 1363 2950 
Q 1603 3253 1940 3418 
Q 2278 3584 2650 3584 
Q 3113 3584 3367 3334 
Q 3622 3084 3622 2631 
Q 3622 2519 3608 2391 
Q 3594 2263 3566 2113 
z
" transform="scale(0.015625)"/>
      <path id="DejaVuSans-Oblique-74" d="M 2706 3500 
L 2619 3053 
L 1472 3053 
L 1100 1153 
Q 1081 1047 1072 975 
Q 1063 903 1063 863 
Q 1063 663 1183 572 
Q 1303 481 1569 481 
L 2150 481 
L 2053 0 
L 1503 0 
Q 991 0 739 200 
Q 488 400 488 806 
Q 488 878 497 964 
Q 506 1050 525 1153 
L 897 3053 
L 409 3053 
L 500 3500 
L 978 3500 
L 1172 4494 
L 1747 4494 
L 1556 3500 
L 2706 3500 
z
" transform="scale(0.015625)"/>
      <path id="DejaVuSans-Oblique-61" d="M 3438 1997 
L 3047 0 
L 2472 0 
L 2578 531 
Q 2325 219 2001 64 
Q 1678 -91 1281 -91 
Q 834 -91 548 182 
Q 263 456 263 884 
Q 263 1497 752 1853 
Q 1241 2209 2100 2209 
L 2900 2209 
L 2931 2363 
Q 2938 2388 2941 2417 
Q 2944 2447 2944 2509 
Q 2944 2788 2717 2942 
Q 2491 3097 2081 3097 
Q 1800 3097 1504 3025 
Q 1209 2953 897 2809 
L 997 3341 
Q 1322 3463 1633 3523 
Q 1944 3584 2234 3584 
Q 2853 3584 3176 3315 
Q 3500 3047 3500 2534 
Q 3500 2431 3484 2292 
Q 3469 2153 3438 1997 
z
M 2816 1759 
L 2241 1759 
Q 1534 1759 1195 1570 
Q 856 1381 856 984 
Q 856 709 1029 553 
Q 1203 397 1509 397 
Q 1978 397 2328 733 
Q 2678 1069 2791 1631 
L 2816 1759 
z
" transform="scale(0.015625)"/>
      <path id="DejaVuSans-Oblique-64" d="M 2675 525 
Q 2444 222 2128 65 
Q 1813 -91 1428 -91 
Q 903 -91 598 267 
Q 294 625 294 1247 
Q 294 1766 478 2236 
Q 663 2706 1013 3078 
Q 1244 3325 1534 3454 
Q 1825 3584 2144 3584 
Q 2481 3584 2739 3421 
Q 2997 3259 3138 2956 
L 3513 4863 
L 4091 4863 
L 3144 0 
L 2566 0 
L 2675 525 
z
M 891 1350 
Q 891 897 1095 644 
Q 1300 391 1663 391 
Q 1931 391 2161 520 
Q 2391 650 2566 903 
Q 2750 1166 2856 1509 
Q 2963 1853 2963 2188 
Q 2963 2622 2758 2865 
Q 2553 3109 2194 3109 
Q 1922 3109 1687 2981 
Q 1453 2853 1288 2613 
Q 1106 2353 998 2009 
Q 891 1666 891 1350 
z
" transform="scale(0.015625)"/>
      <path id="DejaVuSans-Oblique-6c" d="M 1172 4863 
L 1747 4863 
L 800 0 
L 225 0 
L 1172 4863 
z
" transform="scale(0.015625)"/>
      <path id="DejaVuSans-Oblique-6d" d="M 5747 2113 
L 5338 0 
L 4763 0 
L 5166 2094 
Q 5191 2228 5203 2325 
Q 5216 2422 5216 2491 
Q 5216 2772 5059 2928 
Q 4903 3084 4622 3084 
Q 4203 3084 3875 2770 
Q 3547 2456 3450 1953 
L 3066 0 
L 2491 0 
L 2900 2094 
Q 2925 2209 2937 2307 
Q 2950 2406 2950 2484 
Q 2950 2769 2794 2926 
Q 2638 3084 2363 3084 
Q 1938 3084 1609 2770 
Q 1281 2456 1184 1953 
L 800 0 
L 225 0 
L 909 3500 
L 1484 3500 
L 1375 2956 
Q 1609 3263 1923 3423 
Q 2238 3584 2597 3584 
Q 2978 3584 3223 3384 
Q 3469 3184 3519 2828 
Q 3781 3197 4126 3390 
Q 4472 3584 4856 3584 
Q 5306 3584 5551 3325 
Q 5797 3066 5797 2591 
Q 5797 2488 5784 2364 
Q 5772 2241 5747 2113 
z
" transform="scale(0.015625)"/>
      <path id="DejaVuSans-Oblique-6f" d="M 1625 -91 
Q 1009 -91 651 289 
Q 294 669 294 1325 
Q 294 1706 417 2101 
Q 541 2497 738 2766 
Q 1047 3184 1428 3384 
Q 1809 3584 2291 3584 
Q 2888 3584 3255 3212 
Q 3622 2841 3622 2241 
Q 3622 1825 3500 1412 
Q 3378 1000 3181 728 
Q 2875 309 2494 109 
Q 2113 -91 1625 -91 
z
M 891 1344 
Q 891 869 1089 633 
Q 1288 397 1691 397 
Q 2269 397 2648 901 
Q 3028 1406 3028 2181 
Q 3028 2634 2825 2865 
Q 2622 3097 2228 3097 
Q 1903 3097 1650 2945 
Q 1397 2794 1197 2484 
Q 1050 2253 970 1956 
Q 891 1659 891 1344 
z
" transform="scale(0.015625)"/>
      <path id="DejaVuSans-Oblique-73" d="M 3200 3397 
L 3091 2853 
Q 2863 2978 2609 3040 
Q 2356 3103 2088 3103 
Q 1634 3103 1373 2948 
Q 1113 2794 1113 2528 
Q 1113 2219 1719 2053 
Q 1766 2041 1788 2034 
L 1972 1978 
Q 2547 1819 2739 1644 
Q 2931 1469 2931 1166 
Q 2931 609 2489 259 
Q 2047 -91 1331 -91 
Q 1053 -91 747 -37 
Q 441 16 72 128 
L 184 722 
Q 500 559 806 475 
Q 1113 391 1394 391 
Q 1816 391 2080 572 
Q 2344 753 2344 1031 
Q 2344 1331 1650 1516 
L 1591 1531 
L 1394 1581 
Q 956 1697 753 1886 
Q 550 2075 550 2369 
Q 550 2928 970 3256 
Q 1391 3584 2113 3584 
Q 2397 3584 2667 3537 
Q 2938 3491 3200 3397 
z
" transform="scale(0.015625)"/>
      <path id="DejaVuSans-Oblique-66" d="M 3059 4863 
L 2969 4384 
L 2419 4384 
Q 2106 4384 1964 4261 
Q 1822 4138 1753 3809 
L 1691 3500 
L 2638 3500 
L 2553 3053 
L 1606 3053 
L 1013 0 
L 434 0 
L 1031 3053 
L 481 3053 
L 563 3500 
L 1113 3500 
L 1159 3744 
Q 1278 4363 1576 4613 
Q 1875 4863 2516 4863 
L 3059 4863 
z
" transform="scale(0.015625)"/>
      <path id="DejaVuSans-Oblique-63" d="M 3431 3366 
L 3316 2797 
Q 3109 2947 2876 3022 
Q 2644 3097 2394 3097 
Q 2119 3097 1870 3000 
Q 1622 2903 1453 2725 
Q 1184 2453 1037 2087 
Q 891 1722 891 1331 
Q 891 859 1127 628 
Q 1363 397 1844 397 
Q 2081 397 2348 469 
Q 2616 541 2906 684 
L 2797 116 
Q 2547 13 2283 -39 
Q 2019 -91 1741 -91 
Q 1044 -91 669 257 
Q 294 606 294 1253 
Q 294 1797 489 2255 
Q 684 2713 1069 3078 
Q 1331 3328 1684 3456 
Q 2038 3584 2456 3584 
Q 2700 3584 2940 3529 
Q 3181 3475 3431 3366 
z
" transform="scale(0.015625)"/>
      <path id="DejaVuSans-Oblique-78" d="M 3841 3500 
L 2234 1784 
L 3219 0 
L 2559 0 
L 1819 1388 
L 531 0 
L -166 0 
L 1556 1844 
L 641 3500 
L 1300 3500 
L 1972 2234 
L 3144 3500 
L 3841 3500 
z
" transform="scale(0.015625)"/>
      <path id="DejaVuSans-Oblique-2e" d="M 525 794 
L 1184 794 
L 1031 0 
L 372 0 
L 525 794 
z
" transform="scale(0.015625)"/>
     </defs>
     <use xlink:href="#DejaVuSans-Oblique-4c"/>
     <use xlink:href="#DejaVuSans-Oblique-69" x="55.712891"/>
     <use xlink:href="#DejaVuSans-Oblique-62" x="83.496094"/>
     <use xlink:href="#DejaVuSans-Oblique-72" x="146.972656"/>
     <use xlink:href="#DejaVuSans-Oblique-65" x="188.085938"/>
     <use xlink:href="#DejaVuSans-Oblique-20" x="249.609375"/>
     <use xlink:href="#DejaVuSans-Oblique-65" x="281.396484"/>
     <use xlink:href="#DejaVuSans-Oblique-6e" x="342.919922"/>
     <use xlink:href="#DejaVuSans-Oblique-74" x="406.298828"/>
     <use xlink:href="#DejaVuSans-Oblique-72" x="445.507812"/>
     <use xlink:href="#DejaVuSans-Oblique-61" x="486.621094"/>
     <use xlink:href="#DejaVuSans-Oblique-64" x="547.900391"/>
     <use xlink:href="#DejaVuSans-Oblique-61" x="611.376953"/>
     <use xlink:href="#DejaVuSans-Oblique-20" x="672.65625"/>
     <use xlink:href="#DejaVuSans-Oblique-65" x="704.443359"/>
     <use xlink:href="#DejaVuSans-Oblique-6c" x="765.966797"/>
     <use xlink:href="#DejaVuSans-Oblique-69" x="793.75"/>
     <use xlink:href="#DejaVuSans-Oblique-6d" x="821.533203"/>
     <use xlink:href="#DejaVuSans-Oblique-69" x="918.945312"/>
     <use xlink:href="#DejaVuSans-Oblique-6e" x="946.728516"/>
     <use xlink:href="#DejaVuSans-Oblique-61" x="1010.107422"/>
     <use xlink:href="#DejaVuSans-Oblique-20" x="1071.386719"/>
     <use xlink:href="#DejaVuSans-Oblique-6c" x="1103.173828"/>
     <use xlink:href="#DejaVuSans-Oblique-6f" x="1130.957031"/>
     <use xlink:href="#DejaVuSans-Oblique-73" x="1192.138672"/>
     <use xlink:href="#DejaVuSans-Oblique-20" x="1244.238281"/>
     <use xlink:href="#DejaVuSans-Oblique-62" x="1276.025391"/>
     <use xlink:href="#DejaVuSans-Oblique-65" x="1339.501953"/>
     <use xlink:href="#DejaVuSans-Oblique-6e" x="1401.025391"/>
     <use xlink:href="#DejaVuSans-Oblique-65" x="1464.404297"/>
     <use xlink:href="#DejaVuSans-Oblique-66" x="1525.927734"/>
     <use xlink:href="#DejaVuSans-Oblique-69" x="1561.132812"/>
     <use xlink:href="#DejaVuSans-Oblique-63" x="1588.916016"/>
     <use xlink:href="#DejaVuSans-Oblique-69" x="1643.896484"/>
     <use xlink:href="#DejaVuSans-Oblique-6f" x="1671.679688"/>
     <use xlink:href="#DejaVuSans-Oblique-73" x="1732.861328"/>
     <use xlink:href="#DejaVuSans-Oblique-20" x="1784.960938"/>
     <use xlink:href="#DejaVuSans-Oblique-65" x="1816.748047"/>
     <use xlink:href="#DejaVuSans-Oblique-78" x="1878.271484"/>
     <use xlink:href="#DejaVuSans-Oblique-74" x="1937.451172"/>
     <use xlink:href="#DejaVuSans-Oblique-72" x="1976.660156"/>
     <use xlink:href="#DejaVuSans-Oblique-61" x="2017.773438"/>
     <use xlink:href="#DejaVuSans-Oblique-6f" x="2079.052734"/>
     <use xlink:href="#DejaVuSans-Oblique-72" x="2140.234375"/>
     <use xlink:href="#DejaVuSans-Oblique-64" x="2181.347656"/>
     <use xlink:href="#DejaVuSans-Oblique-69" x="2244.824219"/>
     <use xlink:href="#DejaVuSans-Oblique-6e" x="2272.607422"/>
     <use xlink:href="#DejaVuSans-Oblique-61" x="2335.986328"/>
     <use xlink:href="#DejaVuSans-Oblique-72" x="2397.265625"/>
     <use xlink:href="#DejaVuSans-Oblique-69" x="2438.378906"/>
     <use xlink:href="#DejaVuSans-Oblique-6f" x="2466.162109"/>
     <use xlink:href="#DejaVuSans-Oblique-73" x="2527.34375"/>
     <use xlink:href="#DejaVuSans-Oblique-2e" x="2579.443359"/>
    </g>
    <!-- En LP: P* = CMg = mín(CMe_LP) -->
    <g transform="translate(290.797401 74.269458) scale(0.1 -0.1)">
     <defs>
      <path id="DejaVuSans-Oblique-45" d="M 1081 4666 
L 4031 4666 
L 3928 4134 
L 1606 4134 
L 1338 2753 
L 3566 2753 
L 3463 2222 
L 1234 2222 
L 909 531 
L 3284 531 
L 3181 0 
L 172 0 
L 1081 4666 
z
" transform="scale(0.015625)"/>
      <path id="DejaVuSans-Oblique-50" d="M 1081 4666 
L 2541 4666 
Q 3178 4666 3512 4369 
Q 3847 4072 3847 3500 
Q 3847 2731 3353 2303 
Q 2859 1875 1966 1875 
L 1172 1875 
L 806 0 
L 172 0 
L 1081 4666 
z
M 1613 4147 
L 1275 2394 
L 2069 2394 
Q 2606 2394 2893 2669 
Q 3181 2944 3181 3456 
Q 3181 3784 2986 3965 
Q 2791 4147 2438 4147 
L 1613 4147 
z
" transform="scale(0.015625)"/>
      <path id="DejaVuSans-Oblique-3a" d="M 978 3309 
L 1638 3309 
L 1484 2516 
L 825 2516 
L 978 3309 
z
M 488 794 
L 1147 794 
L 991 0 
L 331 0 
L 488 794 
z
" transform="scale(0.015625)"/>
      <path id="DejaVuSans-Oblique-2a" d="M 3009 3897 
L 1888 3291 
L 3009 2681 
L 2828 2375 
L 1778 3009 
L 1778 1831 
L 1422 1831 
L 1422 3009 
L 372 2375 
L 191 2681 
L 1313 3291 
L 191 3897 
L 372 4206 
L 1422 3572 
L 1422 4750 
L 1778 4750 
L 1778 3572 
L 2828 4206 
L 3009 3897 
z
" transform="scale(0.015625)"/>
      <path id="DejaVuSans-Oblique-3d" d="M 678 2906 
L 4684 2906 
L 4684 2381 
L 678 2381 
L 678 2906 
z
M 678 1631 
L 4684 1631 
L 4684 1100 
L 678 1100 
L 678 1631 
z
" transform="scale(0.015625)"/>
      <path id="DejaVuSans-Oblique-43" d="M 4447 4306 
L 4319 3641 
Q 4019 3944 3683 4091 
Q 3347 4238 2956 4238 
Q 2422 4238 2017 3981 
Q 1613 3725 1319 3200 
Q 1131 2863 1032 2486 
Q 934 2109 934 1728 
Q 934 1091 1264 756 
Q 1594 422 2222 422 
Q 2656 422 3056 561 
Q 3456 700 3834 978 
L 3688 231 
Q 3316 72 2936 -9 
Q 2556 -91 2175 -91 
Q 1278 -91 773 396 
Q 269 884 269 1753 
Q 269 2309 461 2846 
Q 653 3384 1013 3828 
Q 1394 4300 1883 4525 
Q 2372 4750 3022 4750 
Q 3422 4750 3780 4639 
Q 4138 4528 4447 4306 
z
" transform="scale(0.015625)"/>
      <path id="DejaVuSans-Oblique-4d" d="M 1081 4666 
L 2028 4666 
L 2572 1522 
L 4378 4666 
L 5350 4666 
L 4441 0 
L 3828 0 
L 4622 4091 
L 2791 897 
L 2175 897 
L 1581 4103 
L 788 0 
L 172 0 
L 1081 4666 
z
" transform="scale(0.015625)"/>
      <path id="DejaVuSans-Oblique-67" d="M 3816 3500 
L 3219 434 
Q 3047 -456 2561 -893 
Q 2075 -1331 1253 -1331 
Q 950 -1331 690 -1286 
Q 431 -1241 206 -1147 
L 313 -588 
Q 525 -725 762 -790 
Q 1000 -856 1269 -856 
Q 1816 -856 2167 -557 
Q 2519 -259 2631 300 
L 2681 563 
Q 2441 288 2122 144 
Q 1803 0 1434 0 
Q 903 0 598 351 
Q 294 703 294 1319 
Q 294 1803 478 2267 
Q 663 2731 997 3091 
Q 1219 3328 1514 3456 
Q 1809 3584 2131 3584 
Q 2484 3584 2746 3420 
Q 3009 3256 3138 2956 
L 3238 3500 
L 3816 3500 
z
M 2950 2216 
Q 2950 2641 2750 2872 
Q 2550 3103 2181 3103 
Q 1953 3103 1747 3012 
Q 1541 2922 1394 2759 
Q 1156 2491 1023 2127 
Q 891 1763 891 1375 
Q 891 944 1092 712 
Q 1294 481 1672 481 
Q 2219 481 2584 976 
Q 2950 1472 2950 2216 
z
" transform="scale(0.015625)"/>
      <path id="DejaVuSans-Oblique-ed" d="M 909 3500 
L 1484 3500 
L 800 0 
L 225 0 
L 909 3500 
z
M 1911 5119 
L 2533 5119 
L 1286 3944 
L 805 3944 
L 1911 5119 
z
" transform="scale(0.015625)"/>
      <path id="DejaVuSans-Oblique-28" d="M 2731 4856 
Q 1903 3822 1495 2892 
Q 1088 1963 1088 1100 
Q 1088 606 1206 120 
Q 1325 -366 1563 -844 
L 1063 -844 
Q 775 -306 634 201 
Q 494 709 494 1197 
Q 494 2125 923 3036 
Q 1353 3947 2222 4856 
L 2731 4856 
z
" transform="scale(0.015625)"/>
      <path id="DejaVuSans-Oblique-5f" d="M 3263 -1063 
L 3263 -1509 
L -63 -1509 
L -63 -1063 
L 3263 -1063 
z
" transform="scale(0.015625)"/>
      <path id="DejaVuSans-Oblique-29" d="M -397 -844 
Q 434 191 840 1120 
Q 1247 2050 1247 2913 
Q 1247 3406 1130 3892 
Q 1013 4378 775 4856 
L 1275 4856 
Q 1563 4316 1703 3812 
Q 1844 3309 1844 2822 
Q 1844 1891 1411 973 
Q 978 56 116 -844 
L -397 -844 
z
" transform="scale(0.015625)"/>
     </defs>
     <use xlink:href="#DejaVuSans-Oblique-45"/>
     <use xlink:href="#DejaVuSans-Oblique-6e" x="63.183594"/>
     <use xlink:href="#DejaVuSans-Oblique-20" x="126.5625"/>
     <use xlink:href="#DejaVuSans-Oblique-4c" x="158.349609"/>
     <use xlink:href="#DejaVuSans-Oblique-50" x="214.0625"/>
     <use xlink:href="#DejaVuSans-Oblique-3a" x="272.615234"/>
     <use xlink:href="#DejaVuSans-Oblique-20" x="306.306641"/>
     <use xlink:href="#DejaVuSans-Oblique-50" x="338.09375"/>
     <use xlink:href="#DejaVuSans-Oblique-2a" x="398.396484"/>
     <use xlink:href="#DejaVuSans-Oblique-20" x="448.396484"/>
     <use xlink:href="#DejaVuSans-Oblique-3d" x="480.183594"/>
     <use xlink:href="#DejaVuSans-Oblique-20" x="563.972656"/>
     <use xlink:href="#DejaVuSans-Oblique-43" x="595.759766"/>
     <use xlink:href="#DejaVuSans-Oblique-4d" x="665.583984"/>
     <use xlink:href="#DejaVuSans-Oblique-67" x="751.863281"/>
     <use xlink:href="#DejaVuSans-Oblique-20" x="815.339844"/>
     <use xlink:href="#DejaVuSans-Oblique-3d" x="847.126953"/>
     <use xlink:href="#DejaVuSans-Oblique-20" x="930.916016"/>
     <use xlink:href="#DejaVuSans-Oblique-6d" x="962.703125"/>
     <use xlink:href="#DejaVuSans-Oblique-ed" x="1060.115234"/>
     <use xlink:href="#DejaVuSans-Oblique-6e" x="1087.898438"/>
     <use xlink:href="#DejaVuSans-Oblique-28" x="1151.277344"/>
     <use xlink:href="#DejaVuSans-Oblique-43" x="1190.291016"/>
     <use xlink:href="#DejaVuSans-Oblique-4d" x="1260.115234"/>
     <use xlink:href="#DejaVuSans-Oblique-65" x="1346.394531"/>
     <use xlink:href="#DejaVuSans-Oblique-5f" x="1407.917969"/>
     <use xlink:href="#DejaVuSans-Oblique-4c" x="1457.917969"/>
     <use xlink:href="#DejaVuSans-Oblique-50" x="1513.630859"/>
     <use xlink:href="#DejaVuSans-Oblique-29" x="1573.933594"/>
    </g>
   </g>
  </g>
 </g>
 <defs>
  <clipPath id="p2c5cda6e6e">
   <rect x="82.654803" y="50.677969" width="558" height="332.64"/>
  </clipPath>
 </defs>
</svg>
