<?xml version="1.0" encoding="utf-8" standalone="no"?>
<!DOCTYPE svg PUBLIC "-//W3C//DTD SVG 1.1//EN"
  "http://www.w3.org/Graphics/SVG/1.1/DTD/svg11.dtd">
<svg xmlns:xlink="http://www.w3.org/1999/xlink" width="554.570625pt" height="454.183906pt" viewBox="0 0 554.570625 454.183906" xmlns="http://www.w3.org/2000/svg" version="1.1">
 <metadata>
  <rdf:RDF xmlns:dc="http://purl.org/dc/elements/1.1/" xmlns:cc="http://creativecommons.org/ns#" xmlns:rdf="http://www.w3.org/1999/02/22-rdf-syntax-ns#">
   <cc:Work>
    <dc:type rdf:resource="http://purl.org/dc/dcmitype/StillImage"/>
    <dc:date>2026-04-28T17:41:33.871549</dc:date>
    <dc:format>image/svg+xml</dc:format>
    <dc:creator>
     <cc:Agent>
      <dc:title>Matplotlib v3.9.2, https://matplotlib.org/</dc:title>
     </cc:Agent>
    </dc:creator>
   </cc:Work>
  </rdf:RDF>
 </metadata>
 <defs>
  <style type="text/css">*{stroke-linejoin: round; stroke-linecap: butt}</style>
 </defs>
 <g id="figure_1">
  <g id="patch_1">
   <path d="M 0 454.183906 
L 554.570625 454.183906 
L 554.570625 0 
L 0 0 
z
" style="fill: #ffffff"/>
  </g>
  <g id="axes_1">
   <g id="patch_2">
    <path d="M 75.370625 411.037969 
L 521.770625 411.037969 
L 521.770625 50.677969 
L 75.370625 50.677969 
z
" style="fill: #ffffff"/>
   </g>
   <g id="PolyCollection_1">
    <defs>
     <path id="medb8b3ba7f" d="M 85.833125 -333.123125 
L 85.833125 -51.591875 
L 87.585638 -51.591875 
L 89.33815 -51.591875 
L 91.090663 -51.591875 
L 92.843175 -51.591875 
L 94.595688 -51.591875 
L 96.3482 -51.591875 
L 98.100713 -51.591875 
L 99.853226 -51.591875 
L 101.605738 -51.591875 
L 103.358251 -51.591875 
L 105.110763 -51.591875 
L 106.863276 -51.591875 
L 108.615788 -51.591875 
L 110.368301 -51.591875 
L 112.120813 -51.591875 
L 113.873326 -51.591875 
L 115.625839 -51.591875 
L 117.378351 -51.591875 
L 119.130864 -51.591875 
L 120.883376 -51.591875 
L 122.635889 -51.591875 
L 124.388401 -51.591875 
L 126.140914 -51.591875 
L 127.893427 -51.591875 
L 129.645939 -51.591875 
L 131.398452 -51.591875 
L 133.150964 -51.591875 
L 134.903477 -51.591875 
L 136.655989 -51.591875 
L 138.408502 -51.591875 
L 140.161014 -51.591875 
L 141.913527 -51.591875 
L 143.66604 -51.591875 
L 145.418552 -51.591875 
L 147.171065 -51.591875 
L 148.923577 -51.591875 
L 150.67609 -51.591875 
L 152.428602 -51.591875 
L 154.181115 -51.591875 
L 155.933628 -51.591875 
L 157.68614 -51.591875 
L 159.438653 -51.591875 
L 161.191165 -51.591875 
L 162.943678 -51.591875 
L 164.69619 -51.591875 
L 166.448703 -51.591875 
L 168.201215 -51.591875 
L 169.953728 -51.591875 
L 171.706241 -51.591875 
L 173.458753 -51.591875 
L 175.211266 -51.591875 
L 176.963778 -51.591875 
L 178.716291 -51.591875 
L 180.468803 -51.591875 
L 182.221316 -51.591875 
L 183.973829 -51.591875 
L 185.726341 -51.591875 
L 187.478854 -51.591875 
L 189.231366 -51.591875 
L 190.983879 -51.591875 
L 192.736391 -51.591875 
L 194.488904 -51.591875 
L 196.241416 -51.591875 
L 197.993929 -51.591875 
L 199.746442 -51.591875 
L 201.498954 -51.591875 
L 203.251467 -51.591875 
L 205.003979 -51.591875 
L 206.756492 -51.591875 
L 208.509004 -51.591875 
L 210.261517 -51.591875 
L 212.01403 -51.591875 
L 213.766542 -51.591875 
L 215.519055 -51.591875 
L 217.271567 -51.591875 
L 219.02408 -51.591875 
L 220.776592 -51.591875 
L 222.529105 -51.591875 
L 224.281617 -51.591875 
L 226.03413 -51.591875 
L 227.786643 -51.591875 
L 229.539155 -51.591875 
L 231.291668 -51.591875 
L 233.04418 -51.591875 
L 234.796693 -51.591875 
L 236.549205 -51.591875 
L 238.301718 -51.591875 
L 240.054231 -51.591875 
L 241.806743 -51.591875 
L 243.559256 -51.591875 
L 245.311768 -51.591875 
L 247.064281 -51.591875 
L 248.816793 -51.591875 
L 250.569306 -51.591875 
L 252.321818 -51.591875 
L 254.074331 -51.591875 
L 255.826844 -51.591875 
L 257.579356 -51.591875 
L 259.331869 -51.591875 
L 261.084381 -51.591875 
L 262.836894 -51.591875 
L 264.589406 -51.591875 
L 266.341919 -51.591875 
L 268.094432 -51.591875 
L 269.846944 -51.591875 
L 271.599457 -51.591875 
L 273.351969 -51.591875 
L 275.104482 -51.591875 
L 276.856994 -51.591875 
L 278.609507 -51.591875 
L 280.362019 -51.591875 
L 282.114532 -51.591875 
L 283.867045 -51.591875 
L 285.619557 -51.591875 
L 287.37207 -51.591875 
L 289.124582 -51.591875 
L 290.877095 -51.591875 
L 292.629607 -51.591875 
L 294.38212 -51.591875 
L 296.134633 -51.591875 
L 297.887145 -51.591875 
L 299.639658 -51.591875 
L 301.39217 -51.591875 
L 303.144683 -51.591875 
L 304.897195 -51.591875 
L 306.649708 -51.591875 
L 308.40222 -51.591875 
L 310.154733 -51.591875 
L 311.907246 -51.591875 
L 313.659758 -51.591875 
L 315.412271 -51.591875 
L 317.164783 -51.591875 
L 318.917296 -51.591875 
L 320.669808 -51.591875 
L 322.422321 -51.591875 
L 324.174834 -51.591875 
L 325.927346 -51.591875 
L 327.679859 -51.591875 
L 329.432371 -51.591875 
L 331.184884 -51.591875 
L 332.937396 -51.591875 
L 334.689909 -51.591875 
L 336.442421 -51.591875 
L 338.194934 -51.591875 
L 339.947447 -51.591875 
L 341.699959 -51.591875 
L 343.452472 -51.591875 
L 345.204984 -51.591875 
L 346.957497 -51.591875 
L 348.710009 -51.591875 
L 350.462522 -51.591875 
L 352.215035 -51.591875 
L 353.967547 -51.591875 
L 355.72006 -51.591875 
L 357.472572 -51.591875 
L 359.225085 -51.591875 
L 360.977597 -51.591875 
L 362.73011 -51.591875 
L 364.482622 -51.591875 
L 366.235135 -51.591875 
L 367.987648 -51.591875 
L 369.74016 -51.591875 
L 371.492673 -51.591875 
L 373.245185 -51.591875 
L 374.997698 -51.591875 
L 376.75021 -51.591875 
L 378.502723 -51.591875 
L 380.255236 -51.591875 
L 382.007748 -51.591875 
L 383.760261 -51.591875 
L 385.512773 -51.591875 
L 387.265286 -51.591875 
L 389.017798 -51.591875 
L 390.770311 -51.591875 
L 392.522823 -51.591875 
L 394.275336 -51.591875 
L 396.027849 -51.591875 
L 397.780361 -51.591875 
L 399.532874 -51.591875 
L 401.285386 -51.591875 
L 403.037899 -51.591875 
L 404.790411 -51.591875 
L 406.542924 -51.591875 
L 408.295437 -51.591875 
L 410.047949 -51.591875 
L 411.800462 -51.591875 
L 413.552974 -51.591875 
L 415.305487 -51.591875 
L 417.057999 -51.591875 
L 418.810512 -51.591875 
L 420.563024 -51.591875 
L 422.315537 -51.591875 
L 424.06805 -51.591875 
L 425.820562 -51.591875 
L 427.573075 -51.591875 
L 429.325587 -51.591875 
L 431.0781 -51.591875 
L 432.830612 -51.591875 
L 434.583125 -51.591875 
L 434.583125 -51.591875 
L 434.583125 -51.591875 
L 432.830612 -79.780169 
L 431.0781 -91.405903 
L 429.325587 -100.292295 
L 427.573075 -107.755048 
L 425.820562 -114.304475 
L 424.06805 -120.202629 
L 422.315537 -125.605373 
L 420.563024 -130.614387 
L 418.810512 -135.30038 
L 417.057999 -139.7149 
L 415.305487 -143.896903 
L 413.552974 -147.876692 
L 411.800462 -151.678391 
L 410.047949 -155.321585 
L 408.295437 -158.822429 
L 406.542924 -162.194442 
L 404.790411 -165.44907 
L 403.037899 -168.59611 
L 401.285386 -171.644024 
L 399.532874 -174.600179 
L 397.780361 -177.47104 
L 396.027849 -180.262318 
L 394.275336 -182.979083 
L 392.522823 -185.625867 
L 390.770311 -188.206738 
L 389.017798 -190.725364 
L 387.265286 -193.185066 
L 385.512773 -195.588864 
L 383.760261 -197.939512 
L 382.007748 -200.239532 
L 380.255236 -202.49124 
L 378.502723 -204.696766 
L 376.75021 -206.858079 
L 374.997698 -208.977 
L 373.245185 -211.055219 
L 371.492673 -213.094307 
L 369.74016 -215.095729 
L 367.987648 -217.060852 
L 366.235135 -218.990952 
L 364.482622 -220.88723 
L 362.73011 -222.750807 
L 360.977597 -224.582742 
L 359.225085 -226.38403 
L 357.472572 -228.155608 
L 355.72006 -229.898361 
L 353.967547 -231.613128 
L 352.215035 -233.3007 
L 350.462522 -234.961828 
L 348.710009 -236.597224 
L 346.957497 -238.207566 
L 345.204984 -239.793495 
L 343.452472 -241.355625 
L 341.699959 -242.894538 
L 339.947447 -244.410789 
L 338.194934 -245.904911 
L 336.442421 -247.377408 
L 334.689909 -248.828767 
L 332.937396 -250.259449 
L 331.184884 -251.669898 
L 329.432371 -253.060539 
L 327.679859 -254.431781 
L 325.927346 -255.784013 
L 324.174834 -257.11761 
L 322.422321 -258.432934 
L 320.669808 -259.73033 
L 318.917296 -261.010133 
L 317.164783 -262.272661 
L 315.412271 -263.518225 
L 313.659758 -264.747121 
L 311.907246 -265.959637 
L 310.154733 -267.156048 
L 308.40222 -268.336622 
L 306.649708 -269.501615 
L 304.897195 -270.651277 
L 303.144683 -271.785847 
L 301.39217 -272.905557 
L 299.639658 -274.010633 
L 297.887145 -275.10129 
L 296.134633 -276.17774 
L 294.38212 -277.240185 
L 292.629607 -278.288823 
L 290.877095 -279.323843 
L 289.124582 -280.345432 
L 287.37207 -281.353767 
L 285.619557 -282.349024 
L 283.867045 -283.331369 
L 282.114532 -284.300968 
L 280.362019 -285.257978 
L 278.609507 -286.202553 
L 276.856994 -287.134844 
L 275.104482 -288.054995 
L 273.351969 -288.963148 
L 271.599457 -289.85944 
L 269.846944 -290.744004 
L 268.094432 -291.616969 
L 266.341919 -292.478463 
L 264.589406 -293.328607 
L 262.836894 -294.167521 
L 261.084381 -294.995322 
L 259.331869 -295.812121 
L 257.579356 -296.618029 
L 255.826844 -297.413154 
L 254.074331 -298.197599 
L 252.321818 -298.971466 
L 250.569306 -299.734854 
L 248.816793 -300.48786 
L 247.064281 -301.230577 
L 245.311768 -301.963097 
L 243.559256 -302.685509 
L 241.806743 -303.397901 
L 240.054231 -304.100356 
L 238.301718 -304.792959 
L 236.549205 -305.475788 
L 234.796693 -306.148924 
L 233.04418 -306.812443 
L 231.291668 -307.466419 
L 229.539155 -308.110925 
L 227.786643 -308.746033 
L 226.03413 -309.371813 
L 224.281617 -309.988331 
L 222.529105 -310.595655 
L 220.776592 -311.193848 
L 219.02408 -311.782974 
L 217.271567 -312.363093 
L 215.519055 -312.934267 
L 213.766542 -313.496554 
L 212.01403 -314.05001 
L 210.261517 -314.594691 
L 208.509004 -315.130653 
L 206.756492 -315.657947 
L 205.003979 -316.176626 
L 203.251467 -316.68674 
L 201.498954 -317.18834 
L 199.746442 -317.681471 
L 197.993929 -318.166183 
L 196.241416 -318.64252 
L 194.488904 -319.110528 
L 192.736391 -319.57025 
L 190.983879 -320.021728 
L 189.231366 -320.465005 
L 187.478854 -320.90012 
L 185.726341 -321.327114 
L 183.973829 -321.746024 
L 182.221316 -322.156888 
L 180.468803 -322.559743 
L 178.716291 -322.954624 
L 176.963778 -323.341567 
L 175.211266 -323.720605 
L 173.458753 -324.09177 
L 171.706241 -324.455096 
L 169.953728 -324.810614 
L 168.201215 -325.158353 
L 166.448703 -325.498344 
L 164.69619 -325.830616 
L 162.943678 -326.155195 
L 161.191165 -326.472111 
L 159.438653 -326.781388 
L 157.68614 -327.083053 
L 155.933628 -327.377131 
L 154.181115 -327.663647 
L 152.428602 -327.942622 
L 150.67609 -328.214081 
L 148.923577 -328.478046 
L 147.171065 -328.734538 
L 145.418552 -328.983577 
L 143.66604 -329.225184 
L 141.913527 -329.459378 
L 140.161014 -329.686177 
L 138.408502 -329.905601 
L 136.655989 -330.117666 
L 134.903477 -330.322389 
L 133.150964 -330.519787 
L 131.398452 -330.709874 
L 129.645939 -330.892666 
L 127.893427 -331.068177 
L 126.140914 -331.236421 
L 124.388401 -331.397411 
L 122.635889 -331.551159 
L 120.883376 -331.697677 
L 119.130864 -331.836977 
L 117.378351 -331.96907 
L 115.625839 -332.093965 
L 113.873326 -332.211673 
L 112.120813 -332.322201 
L 110.368301 -332.42556 
L 108.615788 -332.521756 
L 106.863276 -332.610797 
L 105.110763 -332.69269 
L 103.358251 -332.767441 
L 101.605738 -332.835055 
L 99.853226 -332.895539 
L 98.100713 -332.948896 
L 96.3482 -332.99513 
L 94.595688 -333.034246 
L 92.843175 -333.066246 
L 91.090663 -333.091132 
L 89.33815 -333.108906 
L 87.585638 -333.11957 
L 85.833125 -333.123125 
z
" style="stroke: #2980b9; stroke-opacity: 0.08"/>
    </defs>
    <g clip-path="url(#pfd24375b72)">
     <use xlink:href="#medb8b3ba7f" x="0" y="454.183906" style="fill: #2980b9; fill-opacity: 0.08; stroke: #2980b9; stroke-opacity: 0.08"/>
    </g>
   </g>
   <g id="matplotlib.axis_1">
    <g id="xtick_1">
     <g id="line2d_1">
      <path d="M 85.833125 411.037969 
L 85.833125 50.677969 
" clip-path="url(#pfd24375b72)" style="fill: none; stroke-dasharray: 0.8,1.32; stroke-dashoffset: 0; stroke: #b0b0b0; stroke-opacity: 0.4; stroke-width: 0.8"/>
     </g>
     <g id="line2d_2">
      <defs>
       <path id="m7a8164b6cb" d="M 0 0 
L 0 -4 
" style="stroke: #000000"/>
      </defs>
      <g>
       <use xlink:href="#m7a8164b6cb" x="85.833125" y="402.592031" style="stroke: #000000"/>
      </g>
     </g>
     <g id="text_1">
      <!-- 0 -->
      <g transform="translate(82.651875 413.690469) scale(0.1 -0.1)">
       <defs>
        <path id="DejaVuSans-30" d="M 2034 4250 
Q 1547 4250 1301 3770 
Q 1056 3291 1056 2328 
Q 1056 1369 1301 889 
Q 1547 409 2034 409 
Q 2525 409 2770 889 
Q 3016 1369 3016 2328 
Q 3016 3291 2770 3770 
Q 2525 4250 2034 4250 
z
M 2034 4750 
Q 2819 4750 3233 4129 
Q 3647 3509 3647 2328 
Q 3647 1150 3233 529 
Q 2819 -91 2034 -91 
Q 1250 -91 836 529 
Q 422 1150 422 2328 
Q 422 3509 836 4129 
Q 1250 4750 2034 4750 
z
" transform="scale(0.015625)"/>
       </defs>
       <use xlink:href="#DejaVuSans-30"/>
      </g>
     </g>
    </g>
    <g id="xtick_2">
     <g id="line2d_3">
      <path d="M 155.583125 411.037969 
L 155.583125 50.677969 
" clip-path="url(#pfd24375b72)" style="fill: none; stroke-dasharray: 0.8,1.32; stroke-dashoffset: 0; stroke: #b0b0b0; stroke-opacity: 0.4; stroke-width: 0.8"/>
     </g>
     <g id="line2d_4">
      <g>
       <use xlink:href="#m7a8164b6cb" x="155.583125" y="402.592031" style="stroke: #000000"/>
      </g>
     </g>
     <g id="text_2">
      <!-- 2 -->
      <g transform="translate(152.401875 413.690469) scale(0.1 -0.1)">
       <defs>
        <path id="DejaVuSans-32" d="M 1228 531 
L 3431 531 
L 3431 0 
L 469 0 
L 469 531 
Q 828 903 1448 1529 
Q 2069 2156 2228 2338 
Q 2531 2678 2651 2914 
Q 2772 3150 2772 3378 
Q 2772 3750 2511 3984 
Q 2250 4219 1831 4219 
Q 1534 4219 1204 4116 
Q 875 4013 500 3803 
L 500 4441 
Q 881 4594 1212 4672 
Q 1544 4750 1819 4750 
Q 2544 4750 2975 4387 
Q 3406 4025 3406 3419 
Q 3406 3131 3298 2873 
Q 3191 2616 2906 2266 
Q 2828 2175 2409 1742 
Q 1991 1309 1228 531 
z
" transform="scale(0.015625)"/>
       </defs>
       <use xlink:href="#DejaVuSans-32"/>
      </g>
     </g>
    </g>
    <g id="xtick_3">
     <g id="line2d_5">
      <path d="M 225.333125 411.037969 
L 225.333125 50.677969 
" clip-path="url(#pfd24375b72)" style="fill: none; stroke-dasharray: 0.8,1.32; stroke-dashoffset: 0; stroke: #b0b0b0; stroke-opacity: 0.4; stroke-width: 0.8"/>
     </g>
     <g id="line2d_6">
      <g>
       <use xlink:href="#m7a8164b6cb" x="225.333125" y="402.592031" style="stroke: #000000"/>
      </g>
     </g>
     <g id="text_3">
      <!-- 4 -->
      <g transform="translate(222.151875 413.690469) scale(0.1 -0.1)">
       <defs>
        <path id="DejaVuSans-34" d="M 2419 4116 
L 825 1625 
L 2419 1625 
L 2419 4116 
z
M 2253 4666 
L 3047 4666 
L 3047 1625 
L 3713 1625 
L 3713 1100 
L 3047 1100 
L 3047 0 
L 2419 0 
L 2419 1100 
L 313 1100 
L 313 1709 
L 2253 4666 
z
" transform="scale(0.015625)"/>
       </defs>
       <use xlink:href="#DejaVuSans-34"/>
      </g>
     </g>
    </g>
    <g id="xtick_4">
     <g id="line2d_7">
      <path d="M 295.083125 411.037969 
L 295.083125 50.677969 
" clip-path="url(#pfd24375b72)" style="fill: none; stroke-dasharray: 0.8,1.32; stroke-dashoffset: 0; stroke: #b0b0b0; stroke-opacity: 0.4; stroke-width: 0.8"/>
     </g>
     <g id="line2d_8">
      <g>
       <use xlink:href="#m7a8164b6cb" x="295.083125" y="402.592031" style="stroke: #000000"/>
      </g>
     </g>
     <g id="text_4">
      <!-- 6 -->
      <g transform="translate(291.901875 413.690469) scale(0.1 -0.1)">
       <defs>
        <path id="DejaVuSans-36" d="M 2113 2584 
Q 1688 2584 1439 2293 
Q 1191 2003 1191 1497 
Q 1191 994 1439 701 
Q 1688 409 2113 409 
Q 2538 409 2786 701 
Q 3034 994 3034 1497 
Q 3034 2003 2786 2293 
Q 2538 2584 2113 2584 
z
M 3366 4563 
L 3366 3988 
Q 3128 4100 2886 4159 
Q 2644 4219 2406 4219 
Q 1781 4219 1451 3797 
Q 1122 3375 1075 2522 
Q 1259 2794 1537 2939 
Q 1816 3084 2150 3084 
Q 2853 3084 3261 2657 
Q 3669 2231 3669 1497 
Q 3669 778 3244 343 
Q 2819 -91 2113 -91 
Q 1303 -91 875 529 
Q 447 1150 447 2328 
Q 447 3434 972 4092 
Q 1497 4750 2381 4750 
Q 2619 4750 2861 4703 
Q 3103 4656 3366 4563 
z
" transform="scale(0.015625)"/>
       </defs>
       <use xlink:href="#DejaVuSans-36"/>
      </g>
     </g>
    </g>
    <g id="xtick_5">
     <g id="line2d_9">
      <path d="M 364.833125 411.037969 
L 364.833125 50.677969 
" clip-path="url(#pfd24375b72)" style="fill: none; stroke-dasharray: 0.8,1.32; stroke-dashoffset: 0; stroke: #b0b0b0; stroke-opacity: 0.4; stroke-width: 0.8"/>
     </g>
     <g id="line2d_10">
      <g>
       <use xlink:href="#m7a8164b6cb" x="364.833125" y="402.592031" style="stroke: #000000"/>
      </g>
     </g>
     <g id="text_5">
      <!-- 8 -->
      <g transform="translate(361.651875 413.690469) scale(0.1 -0.1)">
       <defs>
        <path id="DejaVuSans-38" d="M 2034 2216 
Q 1584 2216 1326 1975 
Q 1069 1734 1069 1313 
Q 1069 891 1326 650 
Q 1584 409 2034 409 
Q 2484 409 2743 651 
Q 3003 894 3003 1313 
Q 3003 1734 2745 1975 
Q 2488 2216 2034 2216 
z
M 1403 2484 
Q 997 2584 770 2862 
Q 544 3141 544 3541 
Q 544 4100 942 4425 
Q 1341 4750 2034 4750 
Q 2731 4750 3128 4425 
Q 3525 4100 3525 3541 
Q 3525 3141 3298 2862 
Q 3072 2584 2669 2484 
Q 3125 2378 3379 2068 
Q 3634 1759 3634 1313 
Q 3634 634 3220 271 
Q 2806 -91 2034 -91 
Q 1263 -91 848 271 
Q 434 634 434 1313 
Q 434 1759 690 2068 
Q 947 2378 1403 2484 
z
M 1172 3481 
Q 1172 3119 1398 2916 
Q 1625 2713 2034 2713 
Q 2441 2713 2670 2916 
Q 2900 3119 2900 3481 
Q 2900 3844 2670 4047 
Q 2441 4250 2034 4250 
Q 1625 4250 1398 4047 
Q 1172 3844 1172 3481 
z
" transform="scale(0.015625)"/>
       </defs>
       <use xlink:href="#DejaVuSans-38"/>
      </g>
     </g>
    </g>
    <g id="xtick_6">
     <g id="line2d_11">
      <path d="M 434.583125 411.037969 
L 434.583125 50.677969 
" clip-path="url(#pfd24375b72)" style="fill: none; stroke-dasharray: 0.8,1.32; stroke-dashoffset: 0; stroke: #b0b0b0; stroke-opacity: 0.4; stroke-width: 0.8"/>
     </g>
     <g id="line2d_12">
      <g>
       <use xlink:href="#m7a8164b6cb" x="434.583125" y="402.592031" style="stroke: #000000"/>
      </g>
     </g>
     <g id="text_6">
      <!-- 10 -->
      <g transform="translate(428.220625 413.690469) scale(0.1 -0.1)">
       <defs>
        <path id="DejaVuSans-31" d="M 794 531 
L 1825 531 
L 1825 4091 
L 703 3866 
L 703 4441 
L 1819 4666 
L 2450 4666 
L 2450 531 
L 3481 531 
L 3481 0 
L 794 0 
L 794 531 
z
" transform="scale(0.015625)"/>
       </defs>
       <use xlink:href="#DejaVuSans-31"/>
       <use xlink:href="#DejaVuSans-30" x="63.623047"/>
      </g>
     </g>
    </g>
    <g id="xtick_7">
     <g id="line2d_13">
      <path d="M 504.333125 411.037969 
L 504.333125 50.677969 
" clip-path="url(#pfd24375b72)" style="fill: none; stroke-dasharray: 0.8,1.32; stroke-dashoffset: 0; stroke: #b0b0b0; stroke-opacity: 0.4; stroke-width: 0.8"/>
     </g>
     <g id="line2d_14">
      <g>
       <use xlink:href="#m7a8164b6cb" x="504.333125" y="402.592031" style="stroke: #000000"/>
      </g>
     </g>
     <g id="text_7">
      <!-- 12 -->
      <g transform="translate(497.970625 413.690469) scale(0.1 -0.1)">
       <use xlink:href="#DejaVuSans-31"/>
       <use xlink:href="#DejaVuSans-32" x="63.623047"/>
      </g>
     </g>
    </g>
    <g id="text_8">
     <!-- Bien X -->
     <g transform="translate(478.4 422.888281) scale(0.12 -0.12)">
      <defs>
       <path id="DejaVuSans-Bold-42" d="M 2456 2859 
Q 2741 2859 2887 2984 
Q 3034 3109 3034 3353 
Q 3034 3594 2887 3720 
Q 2741 3847 2456 3847 
L 1791 3847 
L 1791 2859 
L 2456 2859 
z
M 2497 819 
Q 2859 819 3042 972 
Q 3225 1125 3225 1434 
Q 3225 1738 3044 1889 
Q 2863 2041 2497 2041 
L 1791 2041 
L 1791 819 
L 2497 819 
z
M 3616 2497 
Q 4003 2384 4215 2081 
Q 4428 1778 4428 1338 
Q 4428 663 3972 331 
Q 3516 0 2584 0 
L 588 0 
L 588 4666 
L 2394 4666 
Q 3366 4666 3802 4372 
Q 4238 4078 4238 3431 
Q 4238 3091 4078 2852 
Q 3919 2613 3616 2497 
z
" transform="scale(0.015625)"/>
       <path id="DejaVuSans-Bold-69" d="M 538 3500 
L 1656 3500 
L 1656 0 
L 538 0 
L 538 3500 
z
M 538 4863 
L 1656 4863 
L 1656 3950 
L 538 3950 
L 538 4863 
z
" transform="scale(0.015625)"/>
       <path id="DejaVuSans-Bold-65" d="M 4031 1759 
L 4031 1441 
L 1416 1441 
Q 1456 1047 1700 850 
Q 1944 653 2381 653 
Q 2734 653 3104 758 
Q 3475 863 3866 1075 
L 3866 213 
Q 3469 63 3072 -14 
Q 2675 -91 2278 -91 
Q 1328 -91 801 392 
Q 275 875 275 1747 
Q 275 2603 792 3093 
Q 1309 3584 2216 3584 
Q 3041 3584 3536 3087 
Q 4031 2591 4031 1759 
z
M 2881 2131 
Q 2881 2450 2695 2645 
Q 2509 2841 2209 2841 
Q 1884 2841 1681 2658 
Q 1478 2475 1428 2131 
L 2881 2131 
z
" transform="scale(0.015625)"/>
       <path id="DejaVuSans-Bold-6e" d="M 4056 2131 
L 4056 0 
L 2931 0 
L 2931 347 
L 2931 1631 
Q 2931 2084 2911 2256 
Q 2891 2428 2841 2509 
Q 2775 2619 2662 2680 
Q 2550 2741 2406 2741 
Q 2056 2741 1856 2470 
Q 1656 2200 1656 1722 
L 1656 0 
L 538 0 
L 538 3500 
L 1656 3500 
L 1656 2988 
Q 1909 3294 2193 3439 
Q 2478 3584 2822 3584 
Q 3428 3584 3742 3212 
Q 4056 2841 4056 2131 
z
" transform="scale(0.015625)"/>
       <path id="DejaVuSans-Bold-20" transform="scale(0.015625)"/>
       <path id="DejaVuSans-Bold-58" d="M 3188 2381 
L 4806 0 
L 3553 0 
L 2463 1594 
L 1381 0 
L 122 0 
L 1741 2381 
L 184 4666 
L 1441 4666 
L 2463 3163 
L 3481 4666 
L 4744 4666 
L 3188 2381 
z
" transform="scale(0.015625)"/>
      </defs>
      <use xlink:href="#DejaVuSans-Bold-42"/>
      <use xlink:href="#DejaVuSans-Bold-69" x="76.220703"/>
      <use xlink:href="#DejaVuSans-Bold-65" x="110.498047"/>
      <use xlink:href="#DejaVuSans-Bold-6e" x="178.320312"/>
      <use xlink:href="#DejaVuSans-Bold-20" x="249.511719"/>
      <use xlink:href="#DejaVuSans-Bold-58" x="284.326172"/>
     </g>
    </g>
   </g>
   <g id="matplotlib.axis_2">
    <g id="ytick_1">
     <g id="line2d_15">
      <path d="M 75.370625 402.592031 
L 521.770625 402.592031 
" clip-path="url(#pfd24375b72)" style="fill: none; stroke-dasharray: 0.8,1.32; stroke-dashoffset: 0; stroke: #b0b0b0; stroke-opacity: 0.4; stroke-width: 0.8"/>
     </g>
     <g id="line2d_16">
      <defs>
       <path id="m0d45a31958" d="M 0 0 
L 4 0 
" style="stroke: #000000"/>
      </defs>
      <g>
       <use xlink:href="#m0d45a31958" x="85.833125" y="402.592031" style="stroke: #000000"/>
      </g>
     </g>
     <g id="text_9">
      <!-- 0 -->
      <g transform="translate(75.970625 406.39125) scale(0.1 -0.1)">
       <use xlink:href="#DejaVuSans-30"/>
      </g>
     </g>
    </g>
    <g id="ytick_2">
     <g id="line2d_17">
      <path d="M 75.370625 346.285781 
L 521.770625 346.285781 
" clip-path="url(#pfd24375b72)" style="fill: none; stroke-dasharray: 0.8,1.32; stroke-dashoffset: 0; stroke: #b0b0b0; stroke-opacity: 0.4; stroke-width: 0.8"/>
     </g>
     <g id="line2d_18">
      <g>
       <use xlink:href="#m0d45a31958" x="85.833125" y="346.285781" style="stroke: #000000"/>
      </g>
     </g>
     <g id="text_10">
      <!-- 2 -->
      <g transform="translate(75.970625 350.085) scale(0.1 -0.1)">
       <use xlink:href="#DejaVuSans-32"/>
      </g>
     </g>
    </g>
    <g id="ytick_3">
     <g id="line2d_19">
      <path d="M 75.370625 289.979531 
L 521.770625 289.979531 
" clip-path="url(#pfd24375b72)" style="fill: none; stroke-dasharray: 0.8,1.32; stroke-dashoffset: 0; stroke: #b0b0b0; stroke-opacity: 0.4; stroke-width: 0.8"/>
     </g>
     <g id="line2d_20">
      <g>
       <use xlink:href="#m0d45a31958" x="85.833125" y="289.979531" style="stroke: #000000"/>
      </g>
     </g>
     <g id="text_11">
      <!-- 4 -->
      <g transform="translate(75.970625 293.77875) scale(0.1 -0.1)">
       <use xlink:href="#DejaVuSans-34"/>
      </g>
     </g>
    </g>
    <g id="ytick_4">
     <g id="line2d_21">
      <path d="M 75.370625 233.673281 
L 521.770625 233.673281 
" clip-path="url(#pfd24375b72)" style="fill: none; stroke-dasharray: 0.8,1.32; stroke-dashoffset: 0; stroke: #b0b0b0; stroke-opacity: 0.4; stroke-width: 0.8"/>
     </g>
     <g id="line2d_22">
      <g>
       <use xlink:href="#m0d45a31958" x="85.833125" y="233.673281" style="stroke: #000000"/>
      </g>
     </g>
     <g id="text_12">
      <!-- 6 -->
      <g transform="translate(75.970625 237.4725) scale(0.1 -0.1)">
       <use xlink:href="#DejaVuSans-36"/>
      </g>
     </g>
    </g>
    <g id="ytick_5">
     <g id="line2d_23">
      <path d="M 75.370625 177.367031 
L 521.770625 177.367031 
" clip-path="url(#pfd24375b72)" style="fill: none; stroke-dasharray: 0.8,1.32; stroke-dashoffset: 0; stroke: #b0b0b0; stroke-opacity: 0.4; stroke-width: 0.8"/>
     </g>
     <g id="line2d_24">
      <g>
       <use xlink:href="#m0d45a31958" x="85.833125" y="177.367031" style="stroke: #000000"/>
      </g>
     </g>
     <g id="text_13">
      <!-- 8 -->
      <g transform="translate(75.970625 181.16625) scale(0.1 -0.1)">
       <use xlink:href="#DejaVuSans-38"/>
      </g>
     </g>
    </g>
    <g id="ytick_6">
     <g id="line2d_25">
      <path d="M 75.370625 121.060781 
L 521.770625 121.060781 
" clip-path="url(#pfd24375b72)" style="fill: none; stroke-dasharray: 0.8,1.32; stroke-dashoffset: 0; stroke: #b0b0b0; stroke-opacity: 0.4; stroke-width: 0.8"/>
     </g>
     <g id="line2d_26">
      <g>
       <use xlink:href="#m0d45a31958" x="85.833125" y="121.060781" style="stroke: #000000"/>
      </g>
     </g>
     <g id="text_14">
      <!-- 10 -->
      <g transform="translate(69.608125 124.86) scale(0.1 -0.1)">
       <use xlink:href="#DejaVuSans-31"/>
       <use xlink:href="#DejaVuSans-30" x="63.623047"/>
      </g>
     </g>
    </g>
    <g id="ytick_7">
     <g id="line2d_27">
      <path d="M 75.370625 64.754531 
L 521.770625 64.754531 
" clip-path="url(#pfd24375b72)" style="fill: none; stroke-dasharray: 0.8,1.32; stroke-dashoffset: 0; stroke: #b0b0b0; stroke-opacity: 0.4; stroke-width: 0.8"/>
     </g>
     <g id="line2d_28">
      <g>
       <use xlink:href="#m0d45a31958" x="85.833125" y="64.754531" style="stroke: #000000"/>
      </g>
     </g>
     <g id="text_15">
      <!-- 12 -->
      <g transform="translate(69.608125 68.55375) scale(0.1 -0.1)">
       <use xlink:href="#DejaVuSans-31"/>
       <use xlink:href="#DejaVuSans-32" x="63.623047"/>
      </g>
     </g>
    </g>
    <g id="text_16">
     <!-- Bien Y -->
     <g transform="translate(28.8 48.182344) scale(0.12 -0.12)">
      <defs>
       <path id="DejaVuSans-Bold-59" d="M -63 4666 
L 1253 4666 
L 2316 3003 
L 3378 4666 
L 4697 4666 
L 2919 1966 
L 2919 0 
L 1716 0 
L 1716 1966 
L -63 4666 
z
" transform="scale(0.015625)"/>
      </defs>
      <use xlink:href="#DejaVuSans-Bold-42"/>
      <use xlink:href="#DejaVuSans-Bold-69" x="76.220703"/>
      <use xlink:href="#DejaVuSans-Bold-65" x="110.498047"/>
      <use xlink:href="#DejaVuSans-Bold-6e" x="178.320312"/>
      <use xlink:href="#DejaVuSans-Bold-20" x="249.511719"/>
      <use xlink:href="#DejaVuSans-Bold-59" x="284.326172"/>
     </g>
    </g>
   </g>
   <g id="line2d_29">
    <path d="M 85.833125 121.060781 
L 96.3482 121.188776 
L 106.863276 121.573109 
L 117.378351 122.214836 
L 127.893427 123.115729 
L 138.408502 124.278305 
L 148.923577 125.70586 
L 157.68614 127.100853 
L 166.448703 128.685562 
L 175.211266 130.463302 
L 183.973829 132.437883 
L 192.736391 134.613656 
L 201.498954 136.995567 
L 210.261517 139.589215 
L 219.02408 142.400933 
L 227.786643 145.437873 
L 236.549205 148.708118 
L 245.311768 152.220809 
L 254.074331 155.986307 
L 262.836894 160.016385 
L 271.599457 164.324466 
L 280.362019 168.925928 
L 287.37207 172.830139 
L 294.38212 176.943721 
L 301.39217 181.278349 
L 308.40222 185.847284 
L 315.412271 190.665681 
L 322.422321 195.750972 
L 329.432371 201.123367 
L 336.442421 206.806498 
L 343.452472 212.828282 
L 350.462522 219.222079 
L 355.72006 224.285545 
L 360.977597 229.601164 
L 366.235135 235.192954 
L 371.492673 241.089599 
L 376.75021 247.325828 
L 382.007748 253.944374 
L 387.265286 260.99884 
L 392.522823 268.558039 
L 396.027849 273.921589 
L 399.532874 279.583727 
L 403.037899 285.587796 
L 406.542924 291.989465 
L 410.047949 298.862322 
L 413.552974 306.307215 
L 417.057999 314.469007 
L 420.563024 323.56952 
L 422.315537 328.578533 
L 424.06805 333.981277 
L 425.820562 339.879431 
L 427.573075 346.428858 
L 429.325587 353.891611 
L 431.0781 362.778003 
L 432.830612 374.403738 
L 434.583125 402.592031 
L 434.583125 402.592031 
" clip-path="url(#pfd24375b72)" style="fill: none; stroke: #2980b9; stroke-width: 3; stroke-linecap: square"/>
   </g>
   <g id="line2d_30">
    <defs>
     <path id="me2688016cd" d="M 4 0 
L -4 -4 
L -4 4 
z
" style="stroke: #000000; stroke-linejoin: miter"/>
    </defs>
    <g>
     <use xlink:href="#me2688016cd" x="521.770625" y="402.592031" style="stroke: #000000; stroke-linejoin: miter"/>
    </g>
   </g>
   <g id="line2d_31">
    <defs>
     <path id="m1f4e955f10" d="M 0 -4 
L -4 4 
L 4 4 
z
" style="stroke: #000000; stroke-linejoin: miter"/>
    </defs>
    <g>
     <use xlink:href="#m1f4e955f10" x="85.833125" y="50.677969" style="stroke: #000000; stroke-linejoin: miter"/>
    </g>
   </g>
   <g id="patch_3">
    <path d="M 85.833125 411.037969 
L 85.833125 50.677969 
" style="fill: none; stroke: #000000; stroke-width: 1.4; stroke-linejoin: miter; stroke-linecap: square"/>
   </g>
   <g id="patch_4">
    <path d="M 75.370625 402.592031 
L 521.770625 402.592031 
" style="fill: none; stroke: #000000; stroke-width: 1.4; stroke-linejoin: miter; stroke-linecap: square"/>
   </g>
   <g id="patch_5">
    <path d="M 261.876416 159.880923 
Q 303.802177 187.577914 344.328654 214.350511 
" style="fill: none; stroke: #34495e; stroke-width: 1.5; stroke-linecap: round"/>
    <path d="M 341.646557 209.702247 
L 344.328654 214.350511 
L 339.000785 213.707231 
" style="fill: none; stroke: #34495e; stroke-width: 1.5; stroke-linecap: round"/>
   </g>
   <g id="text_17">
    <!-- Frontera de Posibilidades de Producción (FPP) -->
    <g transform="translate(128.415859 38.677969) scale(0.13 -0.13)">
     <defs>
      <path id="DejaVuSans-Bold-46" d="M 588 4666 
L 3834 4666 
L 3834 3756 
L 1791 3756 
L 1791 2888 
L 3713 2888 
L 3713 1978 
L 1791 1978 
L 1791 0 
L 588 0 
L 588 4666 
z
" transform="scale(0.015625)"/>
      <path id="DejaVuSans-Bold-72" d="M 3138 2547 
Q 2991 2616 2845 2648 
Q 2700 2681 2553 2681 
Q 2122 2681 1889 2404 
Q 1656 2128 1656 1613 
L 1656 0 
L 538 0 
L 538 3500 
L 1656 3500 
L 1656 2925 
Q 1872 3269 2151 3426 
Q 2431 3584 2822 3584 
Q 2878 3584 2943 3579 
Q 3009 3575 3134 3559 
L 3138 2547 
z
" transform="scale(0.015625)"/>
      <path id="DejaVuSans-Bold-6f" d="M 2203 2784 
Q 1831 2784 1636 2517 
Q 1441 2250 1441 1747 
Q 1441 1244 1636 976 
Q 1831 709 2203 709 
Q 2569 709 2762 976 
Q 2956 1244 2956 1747 
Q 2956 2250 2762 2517 
Q 2569 2784 2203 2784 
z
M 2203 3584 
Q 3106 3584 3614 3096 
Q 4122 2609 4122 1747 
Q 4122 884 3614 396 
Q 3106 -91 2203 -91 
Q 1297 -91 786 396 
Q 275 884 275 1747 
Q 275 2609 786 3096 
Q 1297 3584 2203 3584 
z
" transform="scale(0.015625)"/>
      <path id="DejaVuSans-Bold-74" d="M 1759 4494 
L 1759 3500 
L 2913 3500 
L 2913 2700 
L 1759 2700 
L 1759 1216 
Q 1759 972 1856 886 
Q 1953 800 2241 800 
L 2816 800 
L 2816 0 
L 1856 0 
Q 1194 0 917 276 
Q 641 553 641 1216 
L 641 2700 
L 84 2700 
L 84 3500 
L 641 3500 
L 641 4494 
L 1759 4494 
z
" transform="scale(0.015625)"/>
      <path id="DejaVuSans-Bold-61" d="M 2106 1575 
Q 1756 1575 1579 1456 
Q 1403 1338 1403 1106 
Q 1403 894 1545 773 
Q 1688 653 1941 653 
Q 2256 653 2472 879 
Q 2688 1106 2688 1447 
L 2688 1575 
L 2106 1575 
z
M 3816 1997 
L 3816 0 
L 2688 0 
L 2688 519 
Q 2463 200 2181 54 
Q 1900 -91 1497 -91 
Q 953 -91 614 226 
Q 275 544 275 1050 
Q 275 1666 698 1953 
Q 1122 2241 2028 2241 
L 2688 2241 
L 2688 2328 
Q 2688 2594 2478 2717 
Q 2269 2841 1825 2841 
Q 1466 2841 1156 2769 
Q 847 2697 581 2553 
L 581 3406 
Q 941 3494 1303 3539 
Q 1666 3584 2028 3584 
Q 2975 3584 3395 3211 
Q 3816 2838 3816 1997 
z
" transform="scale(0.015625)"/>
      <path id="DejaVuSans-Bold-64" d="M 2919 2988 
L 2919 4863 
L 4044 4863 
L 4044 0 
L 2919 0 
L 2919 506 
Q 2688 197 2409 53 
Q 2131 -91 1766 -91 
Q 1119 -91 703 423 
Q 288 938 288 1747 
Q 288 2556 703 3070 
Q 1119 3584 1766 3584 
Q 2128 3584 2408 3439 
Q 2688 3294 2919 2988 
z
M 2181 722 
Q 2541 722 2730 984 
Q 2919 1247 2919 1747 
Q 2919 2247 2730 2509 
Q 2541 2772 2181 2772 
Q 1825 2772 1636 2509 
Q 1447 2247 1447 1747 
Q 1447 1247 1636 984 
Q 1825 722 2181 722 
z
" transform="scale(0.015625)"/>
      <path id="DejaVuSans-Bold-50" d="M 588 4666 
L 2584 4666 
Q 3475 4666 3951 4270 
Q 4428 3875 4428 3144 
Q 4428 2409 3951 2014 
Q 3475 1619 2584 1619 
L 1791 1619 
L 1791 0 
L 588 0 
L 588 4666 
z
M 1791 3794 
L 1791 2491 
L 2456 2491 
Q 2806 2491 2997 2661 
Q 3188 2831 3188 3144 
Q 3188 3456 2997 3625 
Q 2806 3794 2456 3794 
L 1791 3794 
z
" transform="scale(0.015625)"/>
      <path id="DejaVuSans-Bold-73" d="M 3272 3391 
L 3272 2541 
Q 2913 2691 2578 2766 
Q 2244 2841 1947 2841 
Q 1628 2841 1473 2761 
Q 1319 2681 1319 2516 
Q 1319 2381 1436 2309 
Q 1553 2238 1856 2203 
L 2053 2175 
Q 2913 2066 3209 1816 
Q 3506 1566 3506 1031 
Q 3506 472 3093 190 
Q 2681 -91 1863 -91 
Q 1516 -91 1145 -36 
Q 775 19 384 128 
L 384 978 
Q 719 816 1070 734 
Q 1422 653 1784 653 
Q 2113 653 2278 743 
Q 2444 834 2444 1013 
Q 2444 1163 2330 1236 
Q 2216 1309 1875 1350 
L 1678 1375 
Q 931 1469 631 1722 
Q 331 1975 331 2491 
Q 331 3047 712 3315 
Q 1094 3584 1881 3584 
Q 2191 3584 2531 3537 
Q 2872 3491 3272 3391 
z
" transform="scale(0.015625)"/>
      <path id="DejaVuSans-Bold-62" d="M 2400 722 
Q 2759 722 2948 984 
Q 3138 1247 3138 1747 
Q 3138 2247 2948 2509 
Q 2759 2772 2400 2772 
Q 2041 2772 1848 2508 
Q 1656 2244 1656 1747 
Q 1656 1250 1848 986 
Q 2041 722 2400 722 
z
M 1656 2988 
Q 1888 3294 2169 3439 
Q 2450 3584 2816 3584 
Q 3463 3584 3878 3070 
Q 4294 2556 4294 1747 
Q 4294 938 3878 423 
Q 3463 -91 2816 -91 
Q 2450 -91 2169 54 
Q 1888 200 1656 506 
L 1656 0 
L 538 0 
L 538 4863 
L 1656 4863 
L 1656 2988 
z
" transform="scale(0.015625)"/>
      <path id="DejaVuSans-Bold-6c" d="M 538 4863 
L 1656 4863 
L 1656 0 
L 538 0 
L 538 4863 
z
" transform="scale(0.015625)"/>
      <path id="DejaVuSans-Bold-75" d="M 500 1363 
L 500 3500 
L 1625 3500 
L 1625 3150 
Q 1625 2866 1622 2436 
Q 1619 2006 1619 1863 
Q 1619 1441 1641 1255 
Q 1663 1069 1716 984 
Q 1784 875 1895 815 
Q 2006 756 2150 756 
Q 2500 756 2700 1025 
Q 2900 1294 2900 1772 
L 2900 3500 
L 4019 3500 
L 4019 0 
L 2900 0 
L 2900 506 
Q 2647 200 2364 54 
Q 2081 -91 1741 -91 
Q 1134 -91 817 281 
Q 500 653 500 1363 
z
" transform="scale(0.015625)"/>
      <path id="DejaVuSans-Bold-63" d="M 3366 3391 
L 3366 2478 
Q 3138 2634 2908 2709 
Q 2678 2784 2431 2784 
Q 1963 2784 1702 2511 
Q 1441 2238 1441 1747 
Q 1441 1256 1702 982 
Q 1963 709 2431 709 
Q 2694 709 2930 787 
Q 3166 866 3366 1019 
L 3366 103 
Q 3103 6 2833 -42 
Q 2563 -91 2291 -91 
Q 1344 -91 809 395 
Q 275 881 275 1747 
Q 275 2613 809 3098 
Q 1344 3584 2291 3584 
Q 2566 3584 2833 3536 
Q 3100 3488 3366 3391 
z
" transform="scale(0.015625)"/>
      <path id="DejaVuSans-Bold-f3" d="M 2203 2784 
Q 1831 2784 1636 2517 
Q 1441 2250 1441 1747 
Q 1441 1244 1636 976 
Q 1831 709 2203 709 
Q 2569 709 2762 976 
Q 2956 1244 2956 1747 
Q 2956 2250 2762 2517 
Q 2569 2784 2203 2784 
z
M 2203 3584 
Q 3106 3584 3614 3096 
Q 4122 2609 4122 1747 
Q 4122 884 3614 396 
Q 3106 -91 2203 -91 
Q 1297 -91 786 396 
Q 275 884 275 1747 
Q 275 2609 786 3096 
Q 1297 3584 2203 3584 
z
M 2694 5119 
L 3578 5119 
L 2425 3944 
L 1813 3944 
L 2694 5119 
z
" transform="scale(0.015625)"/>
      <path id="DejaVuSans-Bold-28" d="M 2413 -844 
L 1484 -844 
Q 1006 -72 778 623 
Q 550 1319 550 2003 
Q 550 2688 779 3389 
Q 1009 4091 1484 4856 
L 2413 4856 
Q 2013 4116 1813 3408 
Q 1613 2700 1613 2009 
Q 1613 1319 1811 609 
Q 2009 -100 2413 -844 
z
" transform="scale(0.015625)"/>
      <path id="DejaVuSans-Bold-29" d="M 513 -844 
Q 913 -100 1113 609 
Q 1313 1319 1313 2009 
Q 1313 2700 1113 3408 
Q 913 4116 513 4856 
L 1441 4856 
Q 1916 4091 2145 3389 
Q 2375 2688 2375 2003 
Q 2375 1319 2147 623 
Q 1919 -72 1441 -844 
L 513 -844 
z
" transform="scale(0.015625)"/>
     </defs>
     <use xlink:href="#DejaVuSans-Bold-46"/>
     <use xlink:href="#DejaVuSans-Bold-72" x="61.935547"/>
     <use xlink:href="#DejaVuSans-Bold-6f" x="111.251953"/>
     <use xlink:href="#DejaVuSans-Bold-6e" x="179.953125"/>
     <use xlink:href="#DejaVuSans-Bold-74" x="251.144531"/>
     <use xlink:href="#DejaVuSans-Bold-65" x="298.947266"/>
     <use xlink:href="#DejaVuSans-Bold-72" x="366.769531"/>
     <use xlink:href="#DejaVuSans-Bold-61" x="416.085938"/>
     <use xlink:href="#DejaVuSans-Bold-20" x="483.566406"/>
     <use xlink:href="#DejaVuSans-Bold-64" x="518.380859"/>
     <use xlink:href="#DejaVuSans-Bold-65" x="589.962891"/>
     <use xlink:href="#DejaVuSans-Bold-20" x="657.785156"/>
     <use xlink:href="#DejaVuSans-Bold-50" x="692.599609"/>
     <use xlink:href="#DejaVuSans-Bold-6f" x="765.890625"/>
     <use xlink:href="#DejaVuSans-Bold-73" x="834.591797"/>
     <use xlink:href="#DejaVuSans-Bold-69" x="894.113281"/>
     <use xlink:href="#DejaVuSans-Bold-62" x="928.390625"/>
     <use xlink:href="#DejaVuSans-Bold-69" x="999.972656"/>
     <use xlink:href="#DejaVuSans-Bold-6c" x="1034.25"/>
     <use xlink:href="#DejaVuSans-Bold-69" x="1068.527344"/>
     <use xlink:href="#DejaVuSans-Bold-64" x="1102.804688"/>
     <use xlink:href="#DejaVuSans-Bold-61" x="1174.386719"/>
     <use xlink:href="#DejaVuSans-Bold-64" x="1241.867188"/>
     <use xlink:href="#DejaVuSans-Bold-65" x="1313.449219"/>
     <use xlink:href="#DejaVuSans-Bold-73" x="1381.271484"/>
     <use xlink:href="#DejaVuSans-Bold-20" x="1440.792969"/>
     <use xlink:href="#DejaVuSans-Bold-64" x="1475.607422"/>
     <use xlink:href="#DejaVuSans-Bold-65" x="1547.189453"/>
     <use xlink:href="#DejaVuSans-Bold-20" x="1615.011719"/>
     <use xlink:href="#DejaVuSans-Bold-50" x="1649.826172"/>
     <use xlink:href="#DejaVuSans-Bold-72" x="1723.117188"/>
     <use xlink:href="#DejaVuSans-Bold-6f" x="1772.433594"/>
     <use xlink:href="#DejaVuSans-Bold-64" x="1841.134766"/>
     <use xlink:href="#DejaVuSans-Bold-75" x="1912.716797"/>
     <use xlink:href="#DejaVuSans-Bold-63" x="1983.908203"/>
     <use xlink:href="#DejaVuSans-Bold-63" x="2043.185547"/>
     <use xlink:href="#DejaVuSans-Bold-69" x="2102.462891"/>
     <use xlink:href="#DejaVuSans-Bold-f3" x="2136.740234"/>
     <use xlink:href="#DejaVuSans-Bold-6e" x="2205.441406"/>
     <use xlink:href="#DejaVuSans-Bold-20" x="2276.632812"/>
     <use xlink:href="#DejaVuSans-Bold-28" x="2311.447266"/>
     <use xlink:href="#DejaVuSans-Bold-46" x="2357.150391"/>
     <use xlink:href="#DejaVuSans-Bold-50" x="2425.460938"/>
     <use xlink:href="#DejaVuSans-Bold-50" x="2498.751953"/>
     <use xlink:href="#DejaVuSans-Bold-29" x="2572.042969"/>
    </g>
   </g>
   <g id="line2d_32">
    <defs>
     <path id="md829d91236" d="M 0 6 
C 1.591219 6 3.117479 5.367802 4.242641 4.242641 
C 5.367802 3.117479 6 1.591219 6 0 
C 6 -1.591219 5.367802 -3.117479 4.242641 -4.242641 
C 3.117479 -5.367802 1.591219 -6 0 -6 
C -1.591219 -6 -3.117479 -5.367802 -4.242641 -4.242641 
C -5.367802 -3.117479 -6 -1.591219 -6 0 
C -6 1.591219 -5.367802 3.117479 -4.242641 4.242641 
C -3.117479 5.367802 -1.591219 6 0 6 
z
" style="stroke: #27ae60"/>
    </defs>
    <g clip-path="url(#pfd24375b72)">
     <use xlink:href="#md829d91236" x="225.333125" y="144.564379" style="fill: #27ae60; stroke: #27ae60"/>
    </g>
   </g>
   <g id="line2d_33">
    <defs>
     <path id="mf137a8b2ac" d="M -5.5 5.5 
L 5.5 5.5 
L 5.5 -5.5 
L -5.5 -5.5 
z
" style="stroke: #7f8c8d; stroke-linejoin: miter"/>
    </defs>
    <g clip-path="url(#pfd24375b72)">
     <use xlink:href="#mf137a8b2ac" x="190.458125" y="289.979531" style="fill: #7f8c8d; stroke: #7f8c8d; stroke-linejoin: miter"/>
    </g>
   </g>
   <g id="line2d_34">
    <defs>
     <path id="m3d0aab1491" d="M -3.5 7 
L 0 3.5 
L 3.5 7 
L 7 3.5 
L 3.5 0 
L 7 -3.5 
L 3.5 -7 
L 0 -3.5 
L -3.5 -7 
L -7 -3.5 
L -3.5 0 
L -7 3.5 
z
" style="stroke: #c0392b; stroke-linejoin: miter"/>
    </defs>
    <g clip-path="url(#pfd24375b72)">
     <use xlink:href="#m3d0aab1491" x="364.833125" y="177.367031" style="fill: #c0392b; stroke: #c0392b; stroke-linejoin: miter"/>
    </g>
   </g>
   <g id="patch_6">
    <path d="M 169.706749 92.370586 
Q 196.791674 117.784159 222.898209 142.279716 
" style="fill: none; stroke: #27ae60; stroke-width: 1.2; stroke-linecap: round"/>
    <path d="M 221.194861 137.664675 
L 222.898209 142.279716 
L 218.184167 140.87337 
" style="fill: none; stroke: #27ae60; stroke-width: 1.2; stroke-linecap: round"/>
   </g>
   <g id="text_18">
    <g id="patch_7">
     <path d="M 120.708125 90.599375 
L 195.3775 90.599375 
Q 199.2275 90.599375 199.2275 86.749375 
L 199.2275 76.103437 
Q 199.2275 72.253437 195.3775 72.253437 
L 120.708125 72.253437 
Q 116.858125 72.253437 116.858125 76.103437 
L 116.858125 86.749375 
Q 116.858125 90.599375 120.708125 90.599375 
z
" style="fill: #ffffff; opacity: 0.97; stroke: #bdc3c7; stroke-width: 0.8; stroke-linejoin: miter"/>
    </g>
    <!-- A · eficiente -->
    <g style="fill: #27ae60" transform="translate(120.708125 84.461719) scale(0.11 -0.11)">
     <defs>
      <path id="DejaVuSans-Bold-41" d="M 3419 850 
L 1538 850 
L 1241 0 
L 31 0 
L 1759 4666 
L 3194 4666 
L 4922 0 
L 3713 0 
L 3419 850 
z
M 1838 1716 
L 3116 1716 
L 2478 3572 
L 1838 1716 
z
" transform="scale(0.015625)"/>
      <path id="DejaVuSans-Bold-b7" d="M 653 2828 
L 1778 2828 
L 1778 1619 
L 653 1619 
L 653 2828 
z
" transform="scale(0.015625)"/>
      <path id="DejaVuSans-Bold-66" d="M 2841 4863 
L 2841 4128 
L 2222 4128 
Q 1984 4128 1890 4042 
Q 1797 3956 1797 3744 
L 1797 3500 
L 2753 3500 
L 2753 2700 
L 1797 2700 
L 1797 0 
L 678 0 
L 678 2700 
L 122 2700 
L 122 3500 
L 678 3500 
L 678 3744 
Q 678 4316 997 4589 
Q 1316 4863 1984 4863 
L 2841 4863 
z
" transform="scale(0.015625)"/>
     </defs>
     <use xlink:href="#DejaVuSans-Bold-41"/>
     <use xlink:href="#DejaVuSans-Bold-20" x="77.392578"/>
     <use xlink:href="#DejaVuSans-Bold-b7" x="112.207031"/>
     <use xlink:href="#DejaVuSans-Bold-20" x="150.195312"/>
     <use xlink:href="#DejaVuSans-Bold-65" x="185.009766"/>
     <use xlink:href="#DejaVuSans-Bold-66" x="252.832031"/>
     <use xlink:href="#DejaVuSans-Bold-69" x="296.337891"/>
     <use xlink:href="#DejaVuSans-Bold-63" x="330.615234"/>
     <use xlink:href="#DejaVuSans-Bold-69" x="389.892578"/>
     <use xlink:href="#DejaVuSans-Bold-65" x="424.169922"/>
     <use xlink:href="#DejaVuSans-Bold-6e" x="491.992188"/>
     <use xlink:href="#DejaVuSans-Bold-74" x="563.183594"/>
     <use xlink:href="#DejaVuSans-Bold-65" x="610.986328"/>
    </g>
   </g>
   <g id="patch_8">
    <path d="M 138.328067 336.335694 
Q 163.646972 313.821097 188.130394 292.049445 
" style="fill: none; stroke: #7f8c8d; stroke-linecap: round"/>
    <path d="M 183.812257 293.21293 
L 188.130394 292.049445 
L 186.4703 296.202045 
" style="fill: none; stroke: #7f8c8d; stroke-linecap: round"/>
   </g>
   <g id="text_19">
    <g id="patch_9">
     <path d="M 75.43 365.942031 
L 165.98625 365.942031 
Q 169.48625 365.942031 169.48625 362.442031 
L 169.48625 341.566094 
Q 169.48625 338.066094 165.98625 338.066094 
L 75.43 338.066094 
Q 71.93 338.066094 71.93 341.566094 
L 71.93 362.442031 
Q 71.93 365.942031 75.43 365.942031 
z
" style="fill: #ffffff; opacity: 0.97; stroke: #bdc3c7; stroke-width: 0.8; stroke-linejoin: miter"/>
    </g>
    <!-- B · ineficiente -->
    <g style="fill: #7f8c8d" transform="translate(86.306562 349.164531) scale(0.1 -0.1)">
     <defs>
      <path id="DejaVuSans-42" d="M 1259 2228 
L 1259 519 
L 2272 519 
Q 2781 519 3026 730 
Q 3272 941 3272 1375 
Q 3272 1813 3026 2020 
Q 2781 2228 2272 2228 
L 1259 2228 
z
M 1259 4147 
L 1259 2741 
L 2194 2741 
Q 2656 2741 2882 2914 
Q 3109 3088 3109 3444 
Q 3109 3797 2882 3972 
Q 2656 4147 2194 4147 
L 1259 4147 
z
M 628 4666 
L 2241 4666 
Q 2963 4666 3353 4366 
Q 3744 4066 3744 3513 
Q 3744 3084 3544 2831 
Q 3344 2578 2956 2516 
Q 3422 2416 3680 2098 
Q 3938 1781 3938 1306 
Q 3938 681 3513 340 
Q 3088 0 2303 0 
L 628 0 
L 628 4666 
z
" transform="scale(0.015625)"/>
      <path id="DejaVuSans-20" transform="scale(0.015625)"/>
      <path id="DejaVuSans-b7" d="M 684 2619 
L 1344 2619 
L 1344 1825 
L 684 1825 
L 684 2619 
z
" transform="scale(0.015625)"/>
      <path id="DejaVuSans-69" d="M 603 3500 
L 1178 3500 
L 1178 0 
L 603 0 
L 603 3500 
z
M 603 4863 
L 1178 4863 
L 1178 4134 
L 603 4134 
L 603 4863 
z
" transform="scale(0.015625)"/>
      <path id="DejaVuSans-6e" d="M 3513 2113 
L 3513 0 
L 2938 0 
L 2938 2094 
Q 2938 2591 2744 2837 
Q 2550 3084 2163 3084 
Q 1697 3084 1428 2787 
Q 1159 2491 1159 1978 
L 1159 0 
L 581 0 
L 581 3500 
L 1159 3500 
L 1159 2956 
Q 1366 3272 1645 3428 
Q 1925 3584 2291 3584 
Q 2894 3584 3203 3211 
Q 3513 2838 3513 2113 
z
" transform="scale(0.015625)"/>
      <path id="DejaVuSans-65" d="M 3597 1894 
L 3597 1613 
L 953 1613 
Q 991 1019 1311 708 
Q 1631 397 2203 397 
Q 2534 397 2845 478 
Q 3156 559 3463 722 
L 3463 178 
Q 3153 47 2828 -22 
Q 2503 -91 2169 -91 
Q 1331 -91 842 396 
Q 353 884 353 1716 
Q 353 2575 817 3079 
Q 1281 3584 2069 3584 
Q 2775 3584 3186 3129 
Q 3597 2675 3597 1894 
z
M 3022 2063 
Q 3016 2534 2758 2815 
Q 2500 3097 2075 3097 
Q 1594 3097 1305 2825 
Q 1016 2553 972 2059 
L 3022 2063 
z
" transform="scale(0.015625)"/>
      <path id="DejaVuSans-66" d="M 2375 4863 
L 2375 4384 
L 1825 4384 
Q 1516 4384 1395 4259 
Q 1275 4134 1275 3809 
L 1275 3500 
L 2222 3500 
L 2222 3053 
L 1275 3053 
L 1275 0 
L 697 0 
L 697 3053 
L 147 3053 
L 147 3500 
L 697 3500 
L 697 3744 
Q 697 4328 969 4595 
Q 1241 4863 1831 4863 
L 2375 4863 
z
" transform="scale(0.015625)"/>
      <path id="DejaVuSans-63" d="M 3122 3366 
L 3122 2828 
Q 2878 2963 2633 3030 
Q 2388 3097 2138 3097 
Q 1578 3097 1268 2742 
Q 959 2388 959 1747 
Q 959 1106 1268 751 
Q 1578 397 2138 397 
Q 2388 397 2633 464 
Q 2878 531 3122 666 
L 3122 134 
Q 2881 22 2623 -34 
Q 2366 -91 2075 -91 
Q 1284 -91 818 406 
Q 353 903 353 1747 
Q 353 2603 823 3093 
Q 1294 3584 2113 3584 
Q 2378 3584 2631 3529 
Q 2884 3475 3122 3366 
z
" transform="scale(0.015625)"/>
      <path id="DejaVuSans-74" d="M 1172 4494 
L 1172 3500 
L 2356 3500 
L 2356 3053 
L 1172 3053 
L 1172 1153 
Q 1172 725 1289 603 
Q 1406 481 1766 481 
L 2356 481 
L 2356 0 
L 1766 0 
Q 1100 0 847 248 
Q 594 497 594 1153 
L 594 3053 
L 172 3053 
L 172 3500 
L 594 3500 
L 594 4494 
L 1172 4494 
z
" transform="scale(0.015625)"/>
     </defs>
     <use xlink:href="#DejaVuSans-42"/>
     <use xlink:href="#DejaVuSans-20" x="68.603516"/>
     <use xlink:href="#DejaVuSans-b7" x="100.390625"/>
     <use xlink:href="#DejaVuSans-20" x="132.177734"/>
     <use xlink:href="#DejaVuSans-69" x="163.964844"/>
     <use xlink:href="#DejaVuSans-6e" x="191.748047"/>
     <use xlink:href="#DejaVuSans-65" x="255.126953"/>
     <use xlink:href="#DejaVuSans-66" x="316.650391"/>
     <use xlink:href="#DejaVuSans-69" x="351.855469"/>
     <use xlink:href="#DejaVuSans-63" x="379.638672"/>
     <use xlink:href="#DejaVuSans-69" x="434.619141"/>
     <use xlink:href="#DejaVuSans-65" x="462.402344"/>
     <use xlink:href="#DejaVuSans-6e" x="523.925781"/>
     <use xlink:href="#DejaVuSans-74" x="587.304688"/>
     <use xlink:href="#DejaVuSans-65" x="626.513672"/>
    </g>
    <!-- (recursos ociosos) -->
    <g style="fill: #7f8c8d" transform="translate(75.43 360.362344) scale(0.1 -0.1)">
     <defs>
      <path id="DejaVuSans-28" d="M 1984 4856 
Q 1566 4138 1362 3434 
Q 1159 2731 1159 2009 
Q 1159 1288 1364 580 
Q 1569 -128 1984 -844 
L 1484 -844 
Q 1016 -109 783 600 
Q 550 1309 550 2009 
Q 550 2706 781 3412 
Q 1013 4119 1484 4856 
L 1984 4856 
z
" transform="scale(0.015625)"/>
      <path id="DejaVuSans-72" d="M 2631 2963 
Q 2534 3019 2420 3045 
Q 2306 3072 2169 3072 
Q 1681 3072 1420 2755 
Q 1159 2438 1159 1844 
L 1159 0 
L 581 0 
L 581 3500 
L 1159 3500 
L 1159 2956 
Q 1341 3275 1631 3429 
Q 1922 3584 2338 3584 
Q 2397 3584 2469 3576 
Q 2541 3569 2628 3553 
L 2631 2963 
z
" transform="scale(0.015625)"/>
      <path id="DejaVuSans-75" d="M 544 1381 
L 544 3500 
L 1119 3500 
L 1119 1403 
Q 1119 906 1312 657 
Q 1506 409 1894 409 
Q 2359 409 2629 706 
Q 2900 1003 2900 1516 
L 2900 3500 
L 3475 3500 
L 3475 0 
L 2900 0 
L 2900 538 
Q 2691 219 2414 64 
Q 2138 -91 1772 -91 
Q 1169 -91 856 284 
Q 544 659 544 1381 
z
M 1991 3584 
L 1991 3584 
z
" transform="scale(0.015625)"/>
      <path id="DejaVuSans-73" d="M 2834 3397 
L 2834 2853 
Q 2591 2978 2328 3040 
Q 2066 3103 1784 3103 
Q 1356 3103 1142 2972 
Q 928 2841 928 2578 
Q 928 2378 1081 2264 
Q 1234 2150 1697 2047 
L 1894 2003 
Q 2506 1872 2764 1633 
Q 3022 1394 3022 966 
Q 3022 478 2636 193 
Q 2250 -91 1575 -91 
Q 1294 -91 989 -36 
Q 684 19 347 128 
L 347 722 
Q 666 556 975 473 
Q 1284 391 1588 391 
Q 1994 391 2212 530 
Q 2431 669 2431 922 
Q 2431 1156 2273 1281 
Q 2116 1406 1581 1522 
L 1381 1569 
Q 847 1681 609 1914 
Q 372 2147 372 2553 
Q 372 3047 722 3315 
Q 1072 3584 1716 3584 
Q 2034 3584 2315 3537 
Q 2597 3491 2834 3397 
z
" transform="scale(0.015625)"/>
      <path id="DejaVuSans-6f" d="M 1959 3097 
Q 1497 3097 1228 2736 
Q 959 2375 959 1747 
Q 959 1119 1226 758 
Q 1494 397 1959 397 
Q 2419 397 2687 759 
Q 2956 1122 2956 1747 
Q 2956 2369 2687 2733 
Q 2419 3097 1959 3097 
z
M 1959 3584 
Q 2709 3584 3137 3096 
Q 3566 2609 3566 1747 
Q 3566 888 3137 398 
Q 2709 -91 1959 -91 
Q 1206 -91 779 398 
Q 353 888 353 1747 
Q 353 2609 779 3096 
Q 1206 3584 1959 3584 
z
" transform="scale(0.015625)"/>
      <path id="DejaVuSans-29" d="M 513 4856 
L 1013 4856 
Q 1481 4119 1714 3412 
Q 1947 2706 1947 2009 
Q 1947 1309 1714 600 
Q 1481 -109 1013 -844 
L 513 -844 
Q 928 -128 1133 580 
Q 1338 1288 1338 2009 
Q 1338 2731 1133 3434 
Q 928 4138 513 4856 
z
" transform="scale(0.015625)"/>
     </defs>
     <use xlink:href="#DejaVuSans-28"/>
     <use xlink:href="#DejaVuSans-72" x="39.013672"/>
     <use xlink:href="#DejaVuSans-65" x="77.876953"/>
     <use xlink:href="#DejaVuSans-63" x="139.400391"/>
     <use xlink:href="#DejaVuSans-75" x="194.380859"/>
     <use xlink:href="#DejaVuSans-72" x="257.759766"/>
     <use xlink:href="#DejaVuSans-73" x="298.873047"/>
     <use xlink:href="#DejaVuSans-6f" x="350.972656"/>
     <use xlink:href="#DejaVuSans-73" x="412.154297"/>
     <use xlink:href="#DejaVuSans-20" x="464.253906"/>
     <use xlink:href="#DejaVuSans-6f" x="496.041016"/>
     <use xlink:href="#DejaVuSans-63" x="557.222656"/>
     <use xlink:href="#DejaVuSans-69" x="612.203125"/>
     <use xlink:href="#DejaVuSans-6f" x="639.986328"/>
     <use xlink:href="#DejaVuSans-73" x="701.167969"/>
     <use xlink:href="#DejaVuSans-6f" x="753.267578"/>
     <use xlink:href="#DejaVuSans-73" x="814.449219"/>
     <use xlink:href="#DejaVuSans-29" x="866.548828"/>
    </g>
   </g>
   <g id="text_20">
    <g id="patch_10">
     <path d="M 385.758125 141.275 
L 483.17 141.275 
Q 487.02 141.275 487.02 137.425 
L 487.02 126.779062 
Q 487.02 122.929062 483.17 122.929062 
L 385.758125 122.929062 
Q 381.908125 122.929062 381.908125 126.779062 
L 381.908125 137.425 
Q 381.908125 141.275 385.758125 141.275 
z
" style="fill: #ffffff; opacity: 0.97; stroke: #bdc3c7; stroke-width: 0.8; stroke-linejoin: miter"/>
    </g>
    <!-- C · inalcanzable -->
    <g style="fill: #c0392b" transform="translate(385.758125 135.137344) scale(0.11 -0.11)">
     <defs>
      <path id="DejaVuSans-Bold-43" d="M 4288 256 
Q 3956 84 3597 -3 
Q 3238 -91 2847 -91 
Q 1681 -91 1000 561 
Q 319 1213 319 2328 
Q 319 3447 1000 4098 
Q 1681 4750 2847 4750 
Q 3238 4750 3597 4662 
Q 3956 4575 4288 4403 
L 4288 3438 
Q 3953 3666 3628 3772 
Q 3303 3878 2944 3878 
Q 2300 3878 1931 3465 
Q 1563 3053 1563 2328 
Q 1563 1606 1931 1193 
Q 2300 781 2944 781 
Q 3303 781 3628 887 
Q 3953 994 4288 1222 
L 4288 256 
z
" transform="scale(0.015625)"/>
      <path id="DejaVuSans-Bold-7a" d="M 366 3500 
L 3419 3500 
L 3419 2719 
L 1575 800 
L 3419 800 
L 3419 0 
L 288 0 
L 288 781 
L 2131 2700 
L 366 2700 
L 366 3500 
z
" transform="scale(0.015625)"/>
     </defs>
     <use xlink:href="#DejaVuSans-Bold-43"/>
     <use xlink:href="#DejaVuSans-Bold-20" x="73.388672"/>
     <use xlink:href="#DejaVuSans-Bold-b7" x="108.203125"/>
     <use xlink:href="#DejaVuSans-Bold-20" x="146.191406"/>
     <use xlink:href="#DejaVuSans-Bold-69" x="181.005859"/>
     <use xlink:href="#DejaVuSans-Bold-6e" x="215.283203"/>
     <use xlink:href="#DejaVuSans-Bold-61" x="286.474609"/>
     <use xlink:href="#DejaVuSans-Bold-6c" x="353.955078"/>
     <use xlink:href="#DejaVuSans-Bold-63" x="388.232422"/>
     <use xlink:href="#DejaVuSans-Bold-61" x="447.509766"/>
     <use xlink:href="#DejaVuSans-Bold-6e" x="514.990234"/>
     <use xlink:href="#DejaVuSans-Bold-7a" x="586.181641"/>
     <use xlink:href="#DejaVuSans-Bold-61" x="644.384766"/>
     <use xlink:href="#DejaVuSans-Bold-62" x="711.865234"/>
     <use xlink:href="#DejaVuSans-Bold-6c" x="783.447266"/>
     <use xlink:href="#DejaVuSans-Bold-65" x="817.724609"/>
    </g>
   </g>
   <g id="text_21">
    <g id="patch_11">
     <path d="M 408.819063 295.059219 
L 481.272188 295.059219 
Q 484.272188 295.059219 484.272188 292.059219 
L 484.272188 271.183281 
Q 484.272188 268.183281 481.272188 268.183281 
L 408.819063 268.183281 
Q 405.819063 268.183281 405.819063 271.183281 
L 405.819063 292.059219 
Q 405.819063 295.059219 408.819063 295.059219 
z
" style="fill: #fffbeb; opacity: 0.97; stroke: #f39c12; stroke-width: 0.7; stroke-linejoin: miter"/>
    </g>
    <!-- Costo de -->
    <g style="fill: #34495e" transform="translate(423.030781 278.781719) scale(0.1 -0.1)">
     <defs>
      <path id="DejaVuSans-Oblique-43" d="M 4447 4306 
L 4319 3641 
Q 4019 3944 3683 4091 
Q 3347 4238 2956 4238 
Q 2422 4238 2017 3981 
Q 1613 3725 1319 3200 
Q 1131 2863 1032 2486 
Q 934 2109 934 1728 
Q 934 1091 1264 756 
Q 1594 422 2222 422 
Q 2656 422 3056 561 
Q 3456 700 3834 978 
L 3688 231 
Q 3316 72 2936 -9 
Q 2556 -91 2175 -91 
Q 1278 -91 773 396 
Q 269 884 269 1753 
Q 269 2309 461 2846 
Q 653 3384 1013 3828 
Q 1394 4300 1883 4525 
Q 2372 4750 3022 4750 
Q 3422 4750 3780 4639 
Q 4138 4528 4447 4306 
z
" transform="scale(0.015625)"/>
      <path id="DejaVuSans-Oblique-6f" d="M 1625 -91 
Q 1009 -91 651 289 
Q 294 669 294 1325 
Q 294 1706 417 2101 
Q 541 2497 738 2766 
Q 1047 3184 1428 3384 
Q 1809 3584 2291 3584 
Q 2888 3584 3255 3212 
Q 3622 2841 3622 2241 
Q 3622 1825 3500 1412 
Q 3378 1000 3181 728 
Q 2875 309 2494 109 
Q 2113 -91 1625 -91 
z
M 891 1344 
Q 891 869 1089 633 
Q 1288 397 1691 397 
Q 2269 397 2648 901 
Q 3028 1406 3028 2181 
Q 3028 2634 2825 2865 
Q 2622 3097 2228 3097 
Q 1903 3097 1650 2945 
Q 1397 2794 1197 2484 
Q 1050 2253 970 1956 
Q 891 1659 891 1344 
z
" transform="scale(0.015625)"/>
      <path id="DejaVuSans-Oblique-73" d="M 3200 3397 
L 3091 2853 
Q 2863 2978 2609 3040 
Q 2356 3103 2088 3103 
Q 1634 3103 1373 2948 
Q 1113 2794 1113 2528 
Q 1113 2219 1719 2053 
Q 1766 2041 1788 2034 
L 1972 1978 
Q 2547 1819 2739 1644 
Q 2931 1469 2931 1166 
Q 2931 609 2489 259 
Q 2047 -91 1331 -91 
Q 1053 -91 747 -37 
Q 441 16 72 128 
L 184 722 
Q 500 559 806 475 
Q 1113 391 1394 391 
Q 1816 391 2080 572 
Q 2344 753 2344 1031 
Q 2344 1331 1650 1516 
L 1591 1531 
L 1394 1581 
Q 956 1697 753 1886 
Q 550 2075 550 2369 
Q 550 2928 970 3256 
Q 1391 3584 2113 3584 
Q 2397 3584 2667 3537 
Q 2938 3491 3200 3397 
z
" transform="scale(0.015625)"/>
      <path id="DejaVuSans-Oblique-74" d="M 2706 3500 
L 2619 3053 
L 1472 3053 
L 1100 1153 
Q 1081 1047 1072 975 
Q 1063 903 1063 863 
Q 1063 663 1183 572 
Q 1303 481 1569 481 
L 2150 481 
L 2053 0 
L 1503 0 
Q 991 0 739 200 
Q 488 400 488 806 
Q 488 878 497 964 
Q 506 1050 525 1153 
L 897 3053 
L 409 3053 
L 500 3500 
L 978 3500 
L 1172 4494 
L 1747 4494 
L 1556 3500 
L 2706 3500 
z
" transform="scale(0.015625)"/>
      <path id="DejaVuSans-Oblique-20" transform="scale(0.015625)"/>
      <path id="DejaVuSans-Oblique-64" d="M 2675 525 
Q 2444 222 2128 65 
Q 1813 -91 1428 -91 
Q 903 -91 598 267 
Q 294 625 294 1247 
Q 294 1766 478 2236 
Q 663 2706 1013 3078 
Q 1244 3325 1534 3454 
Q 1825 3584 2144 3584 
Q 2481 3584 2739 3421 
Q 2997 3259 3138 2956 
L 3513 4863 
L 4091 4863 
L 3144 0 
L 2566 0 
L 2675 525 
z
M 891 1350 
Q 891 897 1095 644 
Q 1300 391 1663 391 
Q 1931 391 2161 520 
Q 2391 650 2566 903 
Q 2750 1166 2856 1509 
Q 2963 1853 2963 2188 
Q 2963 2622 2758 2865 
Q 2553 3109 2194 3109 
Q 1922 3109 1687 2981 
Q 1453 2853 1288 2613 
Q 1106 2353 998 2009 
Q 891 1666 891 1350 
z
" transform="scale(0.015625)"/>
      <path id="DejaVuSans-Oblique-65" d="M 3078 2063 
Q 3088 2113 3092 2166 
Q 3097 2219 3097 2272 
Q 3097 2653 2873 2875 
Q 2650 3097 2266 3097 
Q 1838 3097 1509 2826 
Q 1181 2556 1013 2059 
L 3078 2063 
z
M 3578 1613 
L 903 1613 
Q 884 1494 878 1425 
Q 872 1356 872 1306 
Q 872 872 1139 634 
Q 1406 397 1894 397 
Q 2269 397 2603 481 
Q 2938 566 3225 728 
L 3116 159 
Q 2806 34 2476 -28 
Q 2147 -91 1806 -91 
Q 1078 -91 686 257 
Q 294 606 294 1247 
Q 294 1794 489 2264 
Q 684 2734 1063 3103 
Q 1306 3334 1642 3459 
Q 1978 3584 2356 3584 
Q 2950 3584 3301 3228 
Q 3653 2872 3653 2272 
Q 3653 2128 3634 1964 
Q 3616 1800 3578 1613 
z
" transform="scale(0.015625)"/>
     </defs>
     <use xlink:href="#DejaVuSans-Oblique-43"/>
     <use xlink:href="#DejaVuSans-Oblique-6f" x="69.824219"/>
     <use xlink:href="#DejaVuSans-Oblique-73" x="131.005859"/>
     <use xlink:href="#DejaVuSans-Oblique-74" x="183.105469"/>
     <use xlink:href="#DejaVuSans-Oblique-6f" x="222.314453"/>
     <use xlink:href="#DejaVuSans-Oblique-20" x="283.496094"/>
     <use xlink:href="#DejaVuSans-Oblique-64" x="315.283203"/>
     <use xlink:href="#DejaVuSans-Oblique-65" x="378.759766"/>
    </g>
    <!-- oportunidad ↑ -->
    <g style="fill: #34495e" transform="translate(408.819063 289.979531) scale(0.1 -0.1)">
     <defs>
      <path id="DejaVuSans-Oblique-70" d="M 3175 2156 
Q 3175 2616 2975 2859 
Q 2775 3103 2400 3103 
Q 2144 3103 1911 2972 
Q 1678 2841 1497 2591 
Q 1319 2344 1212 1994 
Q 1106 1644 1106 1300 
Q 1106 863 1306 627 
Q 1506 391 1875 391 
Q 2147 391 2380 519 
Q 2613 647 2778 891 
Q 2956 1147 3065 1494 
Q 3175 1841 3175 2156 
z
M 1394 2969 
Q 1625 3272 1939 3428 
Q 2253 3584 2638 3584 
Q 3175 3584 3472 3232 
Q 3769 2881 3769 2247 
Q 3769 1728 3584 1258 
Q 3400 788 3053 416 
Q 2822 169 2531 39 
Q 2241 -91 1919 -91 
Q 1547 -91 1294 64 
Q 1041 219 916 525 
L 556 -1331 
L -19 -1331 
L 922 3500 
L 1497 3500 
L 1394 2969 
z
" transform="scale(0.015625)"/>
      <path id="DejaVuSans-Oblique-72" d="M 2853 2969 
Q 2766 3016 2653 3041 
Q 2541 3066 2413 3066 
Q 1953 3066 1609 2717 
Q 1266 2369 1153 1784 
L 800 0 
L 225 0 
L 909 3500 
L 1484 3500 
L 1375 2956 
Q 1603 3259 1920 3421 
Q 2238 3584 2597 3584 
Q 2691 3584 2781 3573 
Q 2872 3563 2963 3538 
L 2853 2969 
z
" transform="scale(0.015625)"/>
      <path id="DejaVuSans-Oblique-75" d="M 428 1388 
L 838 3500 
L 1416 3500 
L 1006 1409 
Q 975 1256 961 1147 
Q 947 1038 947 966 
Q 947 700 1109 554 
Q 1272 409 1569 409 
Q 2031 409 2368 721 
Q 2706 1034 2809 1563 
L 3194 3500 
L 3769 3500 
L 3091 0 
L 2516 0 
L 2631 550 
Q 2388 244 2052 76 
Q 1716 -91 1338 -91 
Q 878 -91 622 161 
Q 366 413 366 863 
Q 366 956 381 1097 
Q 397 1238 428 1388 
z
" transform="scale(0.015625)"/>
      <path id="DejaVuSans-Oblique-6e" d="M 3566 2113 
L 3156 0 
L 2578 0 
L 2988 2091 
Q 3016 2238 3031 2350 
Q 3047 2463 3047 2528 
Q 3047 2791 2881 2937 
Q 2716 3084 2419 3084 
Q 1956 3084 1622 2776 
Q 1288 2469 1184 1941 
L 800 0 
L 225 0 
L 903 3500 
L 1478 3500 
L 1363 2950 
Q 1603 3253 1940 3418 
Q 2278 3584 2650 3584 
Q 3113 3584 3367 3334 
Q 3622 3084 3622 2631 
Q 3622 2519 3608 2391 
Q 3594 2263 3566 2113 
z
" transform="scale(0.015625)"/>
      <path id="DejaVuSans-Oblique-69" d="M 1172 4863 
L 1747 4863 
L 1606 4134 
L 1031 4134 
L 1172 4863 
z
M 909 3500 
L 1484 3500 
L 800 0 
L 225 0 
L 909 3500 
z
" transform="scale(0.015625)"/>
      <path id="DejaVuSans-Oblique-61" d="M 3438 1997 
L 3047 0 
L 2472 0 
L 2578 531 
Q 2325 219 2001 64 
Q 1678 -91 1281 -91 
Q 834 -91 548 182 
Q 263 456 263 884 
Q 263 1497 752 1853 
Q 1241 2209 2100 2209 
L 2900 2209 
L 2931 2363 
Q 2938 2388 2941 2417 
Q 2944 2447 2944 2509 
Q 2944 2788 2717 2942 
Q 2491 3097 2081 3097 
Q 1800 3097 1504 3025 
Q 1209 2953 897 2809 
L 997 3341 
Q 1322 3463 1633 3523 
Q 1944 3584 2234 3584 
Q 2853 3584 3176 3315 
Q 3500 3047 3500 2534 
Q 3500 2431 3484 2292 
Q 3469 2153 3438 1997 
z
M 2816 1759 
L 2241 1759 
Q 1534 1759 1195 1570 
Q 856 1381 856 984 
Q 856 709 1029 553 
Q 1203 397 1509 397 
Q 1978 397 2328 733 
Q 2678 1069 2791 1631 
L 2816 1759 
z
" transform="scale(0.015625)"/>
      <path id="DejaVuSans-Oblique-2191" d="M 2541 4688 
L 2822 4688 
L 4047 3456 
L 3672 3081 
L 2947 3813 
L 2947 0 
L 2416 0 
L 2416 3813 
L 1684 3081 
L 1309 3456 
L 2541 4688 
z
" transform="scale(0.015625)"/>
     </defs>
     <use xlink:href="#DejaVuSans-Oblique-6f"/>
     <use xlink:href="#DejaVuSans-Oblique-70" x="61.181641"/>
     <use xlink:href="#DejaVuSans-Oblique-6f" x="124.658203"/>
     <use xlink:href="#DejaVuSans-Oblique-72" x="185.839844"/>
     <use xlink:href="#DejaVuSans-Oblique-74" x="226.953125"/>
     <use xlink:href="#DejaVuSans-Oblique-75" x="266.162109"/>
     <use xlink:href="#DejaVuSans-Oblique-6e" x="329.541016"/>
     <use xlink:href="#DejaVuSans-Oblique-69" x="392.919922"/>
     <use xlink:href="#DejaVuSans-Oblique-64" x="420.703125"/>
     <use xlink:href="#DejaVuSans-Oblique-61" x="484.179688"/>
     <use xlink:href="#DejaVuSans-Oblique-64" x="545.458984"/>
     <use xlink:href="#DejaVuSans-Oblique-20" x="608.935547"/>
     <use xlink:href="#DejaVuSans-Oblique-2191" x="640.722656"/>
    </g>
   </g>
  </g>
 </g>
 <defs>
  <clipPath id="pfd24375b72">
   <rect x="75.370625" y="50.677969" width="446.4" height="360.36"/>
  </clipPath>
 </defs>
</svg>
