<?xml version="1.0" encoding="utf-8" standalone="no"?>
<!DOCTYPE svg PUBLIC "-//W3C//DTD SVG 1.1//EN"
  "http://www.w3.org/Graphics/SVG/1.1/DTD/svg11.dtd">
<svg xmlns:xlink="http://www.w3.org/1999/xlink" width="1612.16162pt" height="533.961415pt" viewBox="0 0 1612.16162 533.961415" xmlns="http://www.w3.org/2000/svg" version="1.1">
 <metadata>
  <rdf:RDF xmlns:dc="http://purl.org/dc/elements/1.1/" xmlns:cc="http://creativecommons.org/ns#" xmlns:rdf="http://www.w3.org/1999/02/22-rdf-syntax-ns#">
   <cc:Work>
    <dc:type rdf:resource="http://purl.org/dc/dcmitype/StillImage"/>
    <dc:date>2026-04-28T17:41:35.981231</dc:date>
    <dc:format>image/svg+xml</dc:format>
    <dc:creator>
     <cc:Agent>
      <dc:title>Matplotlib v3.9.2, https://matplotlib.org/</dc:title>
     </cc:Agent>
    </dc:creator>
   </cc:Work>
  </rdf:RDF>
 </metadata>
 <defs>
  <style type="text/css">*{stroke-linejoin: round; stroke-linecap: butt}</style>
 </defs>
 <g id="figure_1">
  <g id="patch_1">
   <path d="M 0 533.961415 
L 1612.16162 533.961415 
L 1612.16162 0 
L 0 0 
z
" style="fill: #ffffff"/>
  </g>
  <g id="axes_1">
   <g id="patch_2">
    <path d="M 38.750988 492.331653 
L 531.040655 492.331653 
L 531.040655 50.677969 
L 38.750988 50.677969 
z
" style="fill: #ffffff"/>
   </g>
   <g id="matplotlib.axis_1">
    <g id="xtick_1">
     <g id="line2d_1">
      <path d="M 51.820625 492.331653 
L 51.820625 50.677969 
" clip-path="url(#p20f5bf3493)" style="fill: none; stroke-dasharray: 0.8,1.32; stroke-dashoffset: 0; stroke: #b0b0b0; stroke-opacity: 0.4; stroke-width: 0.8"/>
     </g>
     <g id="line2d_2">
      <defs>
       <path id="m9f1b0e72bc" d="M 0 0 
L 0 -4 
" style="stroke: #000000"/>
      </defs>
      <g>
       <use xlink:href="#m9f1b0e72bc" x="51.820625" y="480.606334" style="stroke: #000000"/>
      </g>
     </g>
     <g id="text_1">
      <!-- 0 -->
      <g transform="translate(48.639375 491.704771) scale(0.1 -0.1)">
       <defs>
        <path id="DejaVuSans-30" d="M 2034 4250 
Q 1547 4250 1301 3770 
Q 1056 3291 1056 2328 
Q 1056 1369 1301 889 
Q 1547 409 2034 409 
Q 2525 409 2770 889 
Q 3016 1369 3016 2328 
Q 3016 3291 2770 3770 
Q 2525 4250 2034 4250 
z
M 2034 4750 
Q 2819 4750 3233 4129 
Q 3647 3509 3647 2328 
Q 3647 1150 3233 529 
Q 2819 -91 2034 -91 
Q 1250 -91 836 529 
Q 422 1150 422 2328 
Q 422 3509 836 4129 
Q 1250 4750 2034 4750 
z
" transform="scale(0.015625)"/>
       </defs>
       <use xlink:href="#DejaVuSans-30"/>
      </g>
     </g>
    </g>
    <g id="xtick_2">
     <g id="line2d_3">
      <path d="M 138.951539 492.331653 
L 138.951539 50.677969 
" clip-path="url(#p20f5bf3493)" style="fill: none; stroke-dasharray: 0.8,1.32; stroke-dashoffset: 0; stroke: #b0b0b0; stroke-opacity: 0.4; stroke-width: 0.8"/>
     </g>
     <g id="line2d_4">
      <g>
       <use xlink:href="#m9f1b0e72bc" x="138.951539" y="480.606334" style="stroke: #000000"/>
      </g>
     </g>
     <g id="text_2">
      <!-- 2 -->
      <g transform="translate(135.770289 491.704771) scale(0.1 -0.1)">
       <defs>
        <path id="DejaVuSans-32" d="M 1228 531 
L 3431 531 
L 3431 0 
L 469 0 
L 469 531 
Q 828 903 1448 1529 
Q 2069 2156 2228 2338 
Q 2531 2678 2651 2914 
Q 2772 3150 2772 3378 
Q 2772 3750 2511 3984 
Q 2250 4219 1831 4219 
Q 1534 4219 1204 4116 
Q 875 4013 500 3803 
L 500 4441 
Q 881 4594 1212 4672 
Q 1544 4750 1819 4750 
Q 2544 4750 2975 4387 
Q 3406 4025 3406 3419 
Q 3406 3131 3298 2873 
Q 3191 2616 2906 2266 
Q 2828 2175 2409 1742 
Q 1991 1309 1228 531 
z
" transform="scale(0.015625)"/>
       </defs>
       <use xlink:href="#DejaVuSans-32"/>
      </g>
     </g>
    </g>
    <g id="xtick_3">
     <g id="line2d_5">
      <path d="M 226.082454 492.331653 
L 226.082454 50.677969 
" clip-path="url(#p20f5bf3493)" style="fill: none; stroke-dasharray: 0.8,1.32; stroke-dashoffset: 0; stroke: #b0b0b0; stroke-opacity: 0.4; stroke-width: 0.8"/>
     </g>
     <g id="line2d_6">
      <g>
       <use xlink:href="#m9f1b0e72bc" x="226.082454" y="480.606334" style="stroke: #000000"/>
      </g>
     </g>
     <g id="text_3">
      <!-- 4 -->
      <g transform="translate(222.901204 491.704771) scale(0.1 -0.1)">
       <defs>
        <path id="DejaVuSans-34" d="M 2419 4116 
L 825 1625 
L 2419 1625 
L 2419 4116 
z
M 2253 4666 
L 3047 4666 
L 3047 1625 
L 3713 1625 
L 3713 1100 
L 3047 1100 
L 3047 0 
L 2419 0 
L 2419 1100 
L 313 1100 
L 313 1709 
L 2253 4666 
z
" transform="scale(0.015625)"/>
       </defs>
       <use xlink:href="#DejaVuSans-34"/>
      </g>
     </g>
    </g>
    <g id="xtick_4">
     <g id="line2d_7">
      <path d="M 313.213368 492.331653 
L 313.213368 50.677969 
" clip-path="url(#p20f5bf3493)" style="fill: none; stroke-dasharray: 0.8,1.32; stroke-dashoffset: 0; stroke: #b0b0b0; stroke-opacity: 0.4; stroke-width: 0.8"/>
     </g>
     <g id="line2d_8">
      <g>
       <use xlink:href="#m9f1b0e72bc" x="313.213368" y="480.606334" style="stroke: #000000"/>
      </g>
     </g>
     <g id="text_4">
      <!-- 6 -->
      <g transform="translate(310.032118 491.704771) scale(0.1 -0.1)">
       <defs>
        <path id="DejaVuSans-36" d="M 2113 2584 
Q 1688 2584 1439 2293 
Q 1191 2003 1191 1497 
Q 1191 994 1439 701 
Q 1688 409 2113 409 
Q 2538 409 2786 701 
Q 3034 994 3034 1497 
Q 3034 2003 2786 2293 
Q 2538 2584 2113 2584 
z
M 3366 4563 
L 3366 3988 
Q 3128 4100 2886 4159 
Q 2644 4219 2406 4219 
Q 1781 4219 1451 3797 
Q 1122 3375 1075 2522 
Q 1259 2794 1537 2939 
Q 1816 3084 2150 3084 
Q 2853 3084 3261 2657 
Q 3669 2231 3669 1497 
Q 3669 778 3244 343 
Q 2819 -91 2113 -91 
Q 1303 -91 875 529 
Q 447 1150 447 2328 
Q 447 3434 972 4092 
Q 1497 4750 2381 4750 
Q 2619 4750 2861 4703 
Q 3103 4656 3366 4563 
z
" transform="scale(0.015625)"/>
       </defs>
       <use xlink:href="#DejaVuSans-36"/>
      </g>
     </g>
    </g>
    <g id="xtick_5">
     <g id="line2d_9">
      <path d="M 400.344283 492.331653 
L 400.344283 50.677969 
" clip-path="url(#p20f5bf3493)" style="fill: none; stroke-dasharray: 0.8,1.32; stroke-dashoffset: 0; stroke: #b0b0b0; stroke-opacity: 0.4; stroke-width: 0.8"/>
     </g>
     <g id="line2d_10">
      <g>
       <use xlink:href="#m9f1b0e72bc" x="400.344283" y="480.606334" style="stroke: #000000"/>
      </g>
     </g>
     <g id="text_5">
      <!-- 8 -->
      <g transform="translate(397.163033 491.704771) scale(0.1 -0.1)">
       <defs>
        <path id="DejaVuSans-38" d="M 2034 2216 
Q 1584 2216 1326 1975 
Q 1069 1734 1069 1313 
Q 1069 891 1326 650 
Q 1584 409 2034 409 
Q 2484 409 2743 651 
Q 3003 894 3003 1313 
Q 3003 1734 2745 1975 
Q 2488 2216 2034 2216 
z
M 1403 2484 
Q 997 2584 770 2862 
Q 544 3141 544 3541 
Q 544 4100 942 4425 
Q 1341 4750 2034 4750 
Q 2731 4750 3128 4425 
Q 3525 4100 3525 3541 
Q 3525 3141 3298 2862 
Q 3072 2584 2669 2484 
Q 3125 2378 3379 2068 
Q 3634 1759 3634 1313 
Q 3634 634 3220 271 
Q 2806 -91 2034 -91 
Q 1263 -91 848 271 
Q 434 634 434 1313 
Q 434 1759 690 2068 
Q 947 2378 1403 2484 
z
M 1172 3481 
Q 1172 3119 1398 2916 
Q 1625 2713 2034 2713 
Q 2441 2713 2670 2916 
Q 2900 3119 2900 3481 
Q 2900 3844 2670 4047 
Q 2441 4250 2034 4250 
Q 1625 4250 1398 4047 
Q 1172 3844 1172 3481 
z
" transform="scale(0.015625)"/>
       </defs>
       <use xlink:href="#DejaVuSans-38"/>
      </g>
     </g>
    </g>
    <g id="xtick_6">
     <g id="line2d_11">
      <path d="M 487.475197 492.331653 
L 487.475197 50.677969 
" clip-path="url(#p20f5bf3493)" style="fill: none; stroke-dasharray: 0.8,1.32; stroke-dashoffset: 0; stroke: #b0b0b0; stroke-opacity: 0.4; stroke-width: 0.8"/>
     </g>
     <g id="line2d_12">
      <g>
       <use xlink:href="#m9f1b0e72bc" x="487.475197" y="480.606334" style="stroke: #000000"/>
      </g>
     </g>
     <g id="text_6">
      <!-- 10 -->
      <g transform="translate(481.112697 491.704771) scale(0.1 -0.1)">
       <defs>
        <path id="DejaVuSans-31" d="M 794 531 
L 1825 531 
L 1825 4091 
L 703 3866 
L 703 4441 
L 1819 4666 
L 2450 4666 
L 2450 531 
L 3481 531 
L 3481 0 
L 794 0 
L 794 531 
z
" transform="scale(0.015625)"/>
       </defs>
       <use xlink:href="#DejaVuSans-31"/>
       <use xlink:href="#DejaVuSans-30" x="63.623047"/>
      </g>
     </g>
    </g>
    <g id="text_7">
     <!-- Q (pasajes) -->
     <g transform="translate(454.37003 500.902584) scale(0.12 -0.12)">
      <defs>
       <path id="DejaVuSans-Bold-51" d="M 2847 -84 
L 2753 -84 
Q 1600 -84 959 553 
Q 319 1191 319 2328 
Q 319 3463 958 4106 
Q 1597 4750 2719 4750 
Q 3853 4750 4486 4112 
Q 5119 3475 5119 2328 
Q 5119 1541 4783 972 
Q 4447 403 3816 116 
L 4756 -934 
L 3609 -934 
L 2847 -84 
z
M 2719 3878 
Q 2169 3878 1866 3472 
Q 1563 3066 1563 2328 
Q 1563 1578 1859 1179 
Q 2156 781 2719 781 
Q 3272 781 3575 1187 
Q 3878 1594 3878 2328 
Q 3878 3066 3575 3472 
Q 3272 3878 2719 3878 
z
" transform="scale(0.015625)"/>
       <path id="DejaVuSans-Bold-20" transform="scale(0.015625)"/>
       <path id="DejaVuSans-Bold-28" d="M 2413 -844 
L 1484 -844 
Q 1006 -72 778 623 
Q 550 1319 550 2003 
Q 550 2688 779 3389 
Q 1009 4091 1484 4856 
L 2413 4856 
Q 2013 4116 1813 3408 
Q 1613 2700 1613 2009 
Q 1613 1319 1811 609 
Q 2009 -100 2413 -844 
z
" transform="scale(0.015625)"/>
       <path id="DejaVuSans-Bold-70" d="M 1656 506 
L 1656 -1331 
L 538 -1331 
L 538 3500 
L 1656 3500 
L 1656 2988 
Q 1888 3294 2169 3439 
Q 2450 3584 2816 3584 
Q 3463 3584 3878 3070 
Q 4294 2556 4294 1747 
Q 4294 938 3878 423 
Q 3463 -91 2816 -91 
Q 2450 -91 2169 54 
Q 1888 200 1656 506 
z
M 2400 2772 
Q 2041 2772 1848 2508 
Q 1656 2244 1656 1747 
Q 1656 1250 1848 986 
Q 2041 722 2400 722 
Q 2759 722 2948 984 
Q 3138 1247 3138 1747 
Q 3138 2247 2948 2509 
Q 2759 2772 2400 2772 
z
" transform="scale(0.015625)"/>
       <path id="DejaVuSans-Bold-61" d="M 2106 1575 
Q 1756 1575 1579 1456 
Q 1403 1338 1403 1106 
Q 1403 894 1545 773 
Q 1688 653 1941 653 
Q 2256 653 2472 879 
Q 2688 1106 2688 1447 
L 2688 1575 
L 2106 1575 
z
M 3816 1997 
L 3816 0 
L 2688 0 
L 2688 519 
Q 2463 200 2181 54 
Q 1900 -91 1497 -91 
Q 953 -91 614 226 
Q 275 544 275 1050 
Q 275 1666 698 1953 
Q 1122 2241 2028 2241 
L 2688 2241 
L 2688 2328 
Q 2688 2594 2478 2717 
Q 2269 2841 1825 2841 
Q 1466 2841 1156 2769 
Q 847 2697 581 2553 
L 581 3406 
Q 941 3494 1303 3539 
Q 1666 3584 2028 3584 
Q 2975 3584 3395 3211 
Q 3816 2838 3816 1997 
z
" transform="scale(0.015625)"/>
       <path id="DejaVuSans-Bold-73" d="M 3272 3391 
L 3272 2541 
Q 2913 2691 2578 2766 
Q 2244 2841 1947 2841 
Q 1628 2841 1473 2761 
Q 1319 2681 1319 2516 
Q 1319 2381 1436 2309 
Q 1553 2238 1856 2203 
L 2053 2175 
Q 2913 2066 3209 1816 
Q 3506 1566 3506 1031 
Q 3506 472 3093 190 
Q 2681 -91 1863 -91 
Q 1516 -91 1145 -36 
Q 775 19 384 128 
L 384 978 
Q 719 816 1070 734 
Q 1422 653 1784 653 
Q 2113 653 2278 743 
Q 2444 834 2444 1013 
Q 2444 1163 2330 1236 
Q 2216 1309 1875 1350 
L 1678 1375 
Q 931 1469 631 1722 
Q 331 1975 331 2491 
Q 331 3047 712 3315 
Q 1094 3584 1881 3584 
Q 2191 3584 2531 3537 
Q 2872 3491 3272 3391 
z
" transform="scale(0.015625)"/>
       <path id="DejaVuSans-Bold-6a" d="M 538 3500 
L 1656 3500 
L 1656 63 
Q 1656 -641 1318 -1011 
Q 981 -1381 341 -1381 
L -213 -1381 
L -213 -647 
L -19 -647 
Q 300 -647 419 -503 
Q 538 -359 538 63 
L 538 3500 
z
M 538 4863 
L 1656 4863 
L 1656 3950 
L 538 3950 
L 538 4863 
z
" transform="scale(0.015625)"/>
       <path id="DejaVuSans-Bold-65" d="M 4031 1759 
L 4031 1441 
L 1416 1441 
Q 1456 1047 1700 850 
Q 1944 653 2381 653 
Q 2734 653 3104 758 
Q 3475 863 3866 1075 
L 3866 213 
Q 3469 63 3072 -14 
Q 2675 -91 2278 -91 
Q 1328 -91 801 392 
Q 275 875 275 1747 
Q 275 2603 792 3093 
Q 1309 3584 2216 3584 
Q 3041 3584 3536 3087 
Q 4031 2591 4031 1759 
z
M 2881 2131 
Q 2881 2450 2695 2645 
Q 2509 2841 2209 2841 
Q 1884 2841 1681 2658 
Q 1478 2475 1428 2131 
L 2881 2131 
z
" transform="scale(0.015625)"/>
       <path id="DejaVuSans-Bold-29" d="M 513 -844 
Q 913 -100 1113 609 
Q 1313 1319 1313 2009 
Q 1313 2700 1113 3408 
Q 913 4116 513 4856 
L 1441 4856 
Q 1916 4091 2145 3389 
Q 2375 2688 2375 2003 
Q 2375 1319 2147 623 
Q 1919 -72 1441 -844 
L 513 -844 
z
" transform="scale(0.015625)"/>
      </defs>
      <use xlink:href="#DejaVuSans-Bold-51"/>
      <use xlink:href="#DejaVuSans-Bold-20" x="85.009766"/>
      <use xlink:href="#DejaVuSans-Bold-28" x="119.824219"/>
      <use xlink:href="#DejaVuSans-Bold-70" x="165.527344"/>
      <use xlink:href="#DejaVuSans-Bold-61" x="237.109375"/>
      <use xlink:href="#DejaVuSans-Bold-73" x="304.589844"/>
      <use xlink:href="#DejaVuSans-Bold-61" x="364.111328"/>
      <use xlink:href="#DejaVuSans-Bold-6a" x="431.591797"/>
      <use xlink:href="#DejaVuSans-Bold-65" x="465.869141"/>
      <use xlink:href="#DejaVuSans-Bold-73" x="533.691406"/>
      <use xlink:href="#DejaVuSans-Bold-29" x="593.212891"/>
     </g>
    </g>
   </g>
   <g id="matplotlib.axis_2">
    <g id="ytick_1">
     <g id="line2d_13">
      <path d="M 38.750988 480.606334 
L 531.040655 480.606334 
" clip-path="url(#p20f5bf3493)" style="fill: none; stroke-dasharray: 0.8,1.32; stroke-dashoffset: 0; stroke: #b0b0b0; stroke-opacity: 0.4; stroke-width: 0.8"/>
     </g>
     <g id="line2d_14">
      <defs>
       <path id="m361b9f579c" d="M 0 0 
L 4 0 
" style="stroke: #000000"/>
      </defs>
      <g>
       <use xlink:href="#m361b9f579c" x="51.820625" y="480.606334" style="stroke: #000000"/>
      </g>
     </g>
     <g id="text_8">
      <!-- 0 -->
      <g transform="translate(41.958125 484.405553) scale(0.1 -0.1)">
       <use xlink:href="#DejaVuSans-30"/>
      </g>
     </g>
    </g>
    <g id="ytick_2">
     <g id="line2d_15">
      <path d="M 38.750988 402.43754 
L 531.040655 402.43754 
" clip-path="url(#p20f5bf3493)" style="fill: none; stroke-dasharray: 0.8,1.32; stroke-dashoffset: 0; stroke: #b0b0b0; stroke-opacity: 0.4; stroke-width: 0.8"/>
     </g>
     <g id="line2d_16">
      <g>
       <use xlink:href="#m361b9f579c" x="51.820625" y="402.43754" style="stroke: #000000"/>
      </g>
     </g>
     <g id="text_9">
      <!-- 2 -->
      <g transform="translate(41.958125 406.236759) scale(0.1 -0.1)">
       <use xlink:href="#DejaVuSans-32"/>
      </g>
     </g>
    </g>
    <g id="ytick_3">
     <g id="line2d_17">
      <path d="M 38.750988 324.268747 
L 531.040655 324.268747 
" clip-path="url(#p20f5bf3493)" style="fill: none; stroke-dasharray: 0.8,1.32; stroke-dashoffset: 0; stroke: #b0b0b0; stroke-opacity: 0.4; stroke-width: 0.8"/>
     </g>
     <g id="line2d_18">
      <g>
       <use xlink:href="#m361b9f579c" x="51.820625" y="324.268747" style="stroke: #000000"/>
      </g>
     </g>
     <g id="text_10">
      <!-- 4 -->
      <g transform="translate(41.958125 328.067965) scale(0.1 -0.1)">
       <use xlink:href="#DejaVuSans-34"/>
      </g>
     </g>
    </g>
    <g id="ytick_4">
     <g id="line2d_19">
      <path d="M 38.750988 246.099953 
L 531.040655 246.099953 
" clip-path="url(#p20f5bf3493)" style="fill: none; stroke-dasharray: 0.8,1.32; stroke-dashoffset: 0; stroke: #b0b0b0; stroke-opacity: 0.4; stroke-width: 0.8"/>
     </g>
     <g id="line2d_20">
      <g>
       <use xlink:href="#m361b9f579c" x="51.820625" y="246.099953" style="stroke: #000000"/>
      </g>
     </g>
     <g id="text_11">
      <!-- 6 -->
      <g transform="translate(41.958125 249.899172) scale(0.1 -0.1)">
       <use xlink:href="#DejaVuSans-36"/>
      </g>
     </g>
    </g>
    <g id="ytick_5">
     <g id="line2d_21">
      <path d="M 38.750988 167.931159 
L 531.040655 167.931159 
" clip-path="url(#p20f5bf3493)" style="fill: none; stroke-dasharray: 0.8,1.32; stroke-dashoffset: 0; stroke: #b0b0b0; stroke-opacity: 0.4; stroke-width: 0.8"/>
     </g>
     <g id="line2d_22">
      <g>
       <use xlink:href="#m361b9f579c" x="51.820625" y="167.931159" style="stroke: #000000"/>
      </g>
     </g>
     <g id="text_12">
      <!-- 8 -->
      <g transform="translate(41.958125 171.730378) scale(0.1 -0.1)">
       <use xlink:href="#DejaVuSans-38"/>
      </g>
     </g>
    </g>
    <g id="ytick_6">
     <g id="line2d_23">
      <path d="M 38.750988 89.762366 
L 531.040655 89.762366 
" clip-path="url(#p20f5bf3493)" style="fill: none; stroke-dasharray: 0.8,1.32; stroke-dashoffset: 0; stroke: #b0b0b0; stroke-opacity: 0.4; stroke-width: 0.8"/>
     </g>
     <g id="line2d_24">
      <g>
       <use xlink:href="#m361b9f579c" x="51.820625" y="89.762366" style="stroke: #000000"/>
      </g>
     </g>
     <g id="text_13">
      <!-- 10 -->
      <g transform="translate(35.595625 93.561584) scale(0.1 -0.1)">
       <use xlink:href="#DejaVuSans-31"/>
       <use xlink:href="#DejaVuSans-30" x="63.623047"/>
      </g>
     </g>
    </g>
    <g id="text_14">
     <!-- P -->
     <g transform="translate(28.8 48.182344) scale(0.12 -0.12)">
      <defs>
       <path id="DejaVuSans-Bold-50" d="M 588 4666 
L 2584 4666 
Q 3475 4666 3951 4270 
Q 4428 3875 4428 3144 
Q 4428 2409 3951 2014 
Q 3475 1619 2584 1619 
L 1791 1619 
L 1791 0 
L 588 0 
L 588 4666 
z
M 1791 3794 
L 1791 2491 
L 2456 2491 
Q 2806 2491 2997 2661 
Q 3188 2831 3188 3144 
Q 3188 3456 2997 3625 
Q 2806 3794 2456 3794 
L 1791 3794 
z
" transform="scale(0.015625)"/>
      </defs>
      <use xlink:href="#DejaVuSans-Bold-50"/>
     </g>
    </g>
   </g>
   <g id="line2d_25">
    <path d="M 51.820625 89.762366 
L 487.475197 480.606334 
L 487.475197 480.606334 
" clip-path="url(#p20f5bf3493)" style="fill: none; stroke: #c0392b; stroke-width: 3; stroke-linecap: square"/>
   </g>
   <g id="line2d_26">
    <path d="M 51.820625 441.521937 
L 487.475197 50.677969 
L 487.475197 50.677969 
" clip-path="url(#p20f5bf3493)" style="fill: none; stroke: #2980b9; stroke-width: 3; stroke-linecap: square"/>
   </g>
   <g id="line2d_27">
    <path d="M 51.820625 324.268747 
L 414.381719 -1 
L 414.381719 -1 
" clip-path="url(#p20f5bf3493)" style="fill: none; stroke-dasharray: 11.1,4.8; stroke-dashoffset: 0; stroke: #2980b9; stroke-width: 3"/>
   </g>
   <g id="line2d_28">
    <defs>
     <path id="m574c8f9e45" d="M 4 0 
L -4 -4 
L -4 4 
z
" style="stroke: #000000; stroke-linejoin: miter"/>
    </defs>
    <g>
     <use xlink:href="#m574c8f9e45" x="531.040655" y="480.606334" style="stroke: #000000; stroke-linejoin: miter"/>
    </g>
   </g>
   <g id="line2d_29">
    <defs>
     <path id="mb4a58ef889" d="M 0 -4 
L -4 4 
L 4 4 
z
" style="stroke: #000000; stroke-linejoin: miter"/>
    </defs>
    <g>
     <use xlink:href="#mb4a58ef889" x="51.820625" y="50.677969" style="stroke: #000000; stroke-linejoin: miter"/>
    </g>
   </g>
   <g id="patch_3">
    <path d="M 51.820625 492.331653 
L 51.820625 50.677969 
" style="fill: none; stroke: #000000; stroke-width: 1.4; stroke-linejoin: miter; stroke-linecap: square"/>
   </g>
   <g id="patch_4">
    <path d="M 38.750988 480.606334 
L 531.040655 480.606334 
" style="fill: none; stroke: #000000; stroke-width: 1.4; stroke-linejoin: miter; stroke-linecap: square"/>
   </g>
   <g id="patch_5">
    <path d="M 224.255704 284.364923 
Q 182.51607 265.641736 143.020665 247.925245 
" style="fill: none; stroke: #2980b9; stroke-width: 2.2; stroke-linecap: round"/>
    <path d="M 146.417955 252.07957 
L 143.020665 247.925245 
L 148.3825 247.700008 
" style="fill: none; stroke: #2980b9; stroke-width: 2.2; stroke-linecap: round"/>
   </g>
   <g id="text_15">
    <!-- (a) Shock negativo de oferta -->
    <g transform="translate(179.991915 38.677969) scale(0.13 -0.13)">
     <defs>
      <path id="DejaVuSans-Bold-53" d="M 3834 4519 
L 3834 3531 
Q 3450 3703 3084 3790 
Q 2719 3878 2394 3878 
Q 1963 3878 1756 3759 
Q 1550 3641 1550 3391 
Q 1550 3203 1689 3098 
Q 1828 2994 2194 2919 
L 2706 2816 
Q 3484 2659 3812 2340 
Q 4141 2022 4141 1434 
Q 4141 663 3683 286 
Q 3225 -91 2284 -91 
Q 1841 -91 1394 -6 
Q 947 78 500 244 
L 500 1259 
Q 947 1022 1364 901 
Q 1781 781 2169 781 
Q 2563 781 2772 912 
Q 2981 1044 2981 1288 
Q 2981 1506 2839 1625 
Q 2697 1744 2272 1838 
L 1806 1941 
Q 1106 2091 782 2419 
Q 459 2747 459 3303 
Q 459 4000 909 4375 
Q 1359 4750 2203 4750 
Q 2588 4750 2994 4692 
Q 3400 4634 3834 4519 
z
" transform="scale(0.015625)"/>
      <path id="DejaVuSans-Bold-68" d="M 4056 2131 
L 4056 0 
L 2931 0 
L 2931 347 
L 2931 1625 
Q 2931 2084 2911 2256 
Q 2891 2428 2841 2509 
Q 2775 2619 2662 2680 
Q 2550 2741 2406 2741 
Q 2056 2741 1856 2470 
Q 1656 2200 1656 1722 
L 1656 0 
L 538 0 
L 538 4863 
L 1656 4863 
L 1656 2988 
Q 1909 3294 2193 3439 
Q 2478 3584 2822 3584 
Q 3428 3584 3742 3212 
Q 4056 2841 4056 2131 
z
" transform="scale(0.015625)"/>
      <path id="DejaVuSans-Bold-6f" d="M 2203 2784 
Q 1831 2784 1636 2517 
Q 1441 2250 1441 1747 
Q 1441 1244 1636 976 
Q 1831 709 2203 709 
Q 2569 709 2762 976 
Q 2956 1244 2956 1747 
Q 2956 2250 2762 2517 
Q 2569 2784 2203 2784 
z
M 2203 3584 
Q 3106 3584 3614 3096 
Q 4122 2609 4122 1747 
Q 4122 884 3614 396 
Q 3106 -91 2203 -91 
Q 1297 -91 786 396 
Q 275 884 275 1747 
Q 275 2609 786 3096 
Q 1297 3584 2203 3584 
z
" transform="scale(0.015625)"/>
      <path id="DejaVuSans-Bold-63" d="M 3366 3391 
L 3366 2478 
Q 3138 2634 2908 2709 
Q 2678 2784 2431 2784 
Q 1963 2784 1702 2511 
Q 1441 2238 1441 1747 
Q 1441 1256 1702 982 
Q 1963 709 2431 709 
Q 2694 709 2930 787 
Q 3166 866 3366 1019 
L 3366 103 
Q 3103 6 2833 -42 
Q 2563 -91 2291 -91 
Q 1344 -91 809 395 
Q 275 881 275 1747 
Q 275 2613 809 3098 
Q 1344 3584 2291 3584 
Q 2566 3584 2833 3536 
Q 3100 3488 3366 3391 
z
" transform="scale(0.015625)"/>
      <path id="DejaVuSans-Bold-6b" d="M 538 4863 
L 1656 4863 
L 1656 2216 
L 2944 3500 
L 4244 3500 
L 2534 1894 
L 4378 0 
L 3022 0 
L 1656 1459 
L 1656 0 
L 538 0 
L 538 4863 
z
" transform="scale(0.015625)"/>
      <path id="DejaVuSans-Bold-6e" d="M 4056 2131 
L 4056 0 
L 2931 0 
L 2931 347 
L 2931 1631 
Q 2931 2084 2911 2256 
Q 2891 2428 2841 2509 
Q 2775 2619 2662 2680 
Q 2550 2741 2406 2741 
Q 2056 2741 1856 2470 
Q 1656 2200 1656 1722 
L 1656 0 
L 538 0 
L 538 3500 
L 1656 3500 
L 1656 2988 
Q 1909 3294 2193 3439 
Q 2478 3584 2822 3584 
Q 3428 3584 3742 3212 
Q 4056 2841 4056 2131 
z
" transform="scale(0.015625)"/>
      <path id="DejaVuSans-Bold-67" d="M 2919 594 
Q 2688 288 2409 144 
Q 2131 0 1766 0 
Q 1125 0 706 504 
Q 288 1009 288 1791 
Q 288 2575 706 3076 
Q 1125 3578 1766 3578 
Q 2131 3578 2409 3434 
Q 2688 3291 2919 2981 
L 2919 3500 
L 4044 3500 
L 4044 353 
Q 4044 -491 3511 -936 
Q 2978 -1381 1966 -1381 
Q 1638 -1381 1331 -1331 
Q 1025 -1281 716 -1178 
L 716 -306 
Q 1009 -475 1290 -558 
Q 1572 -641 1856 -641 
Q 2406 -641 2662 -400 
Q 2919 -159 2919 353 
L 2919 594 
z
M 2181 2772 
Q 1834 2772 1640 2515 
Q 1447 2259 1447 1791 
Q 1447 1309 1634 1061 
Q 1822 813 2181 813 
Q 2531 813 2725 1069 
Q 2919 1325 2919 1791 
Q 2919 2259 2725 2515 
Q 2531 2772 2181 2772 
z
" transform="scale(0.015625)"/>
      <path id="DejaVuSans-Bold-74" d="M 1759 4494 
L 1759 3500 
L 2913 3500 
L 2913 2700 
L 1759 2700 
L 1759 1216 
Q 1759 972 1856 886 
Q 1953 800 2241 800 
L 2816 800 
L 2816 0 
L 1856 0 
Q 1194 0 917 276 
Q 641 553 641 1216 
L 641 2700 
L 84 2700 
L 84 3500 
L 641 3500 
L 641 4494 
L 1759 4494 
z
" transform="scale(0.015625)"/>
      <path id="DejaVuSans-Bold-69" d="M 538 3500 
L 1656 3500 
L 1656 0 
L 538 0 
L 538 3500 
z
M 538 4863 
L 1656 4863 
L 1656 3950 
L 538 3950 
L 538 4863 
z
" transform="scale(0.015625)"/>
      <path id="DejaVuSans-Bold-76" d="M 97 3500 
L 1216 3500 
L 2088 1081 
L 2956 3500 
L 4078 3500 
L 2700 0 
L 1472 0 
L 97 3500 
z
" transform="scale(0.015625)"/>
      <path id="DejaVuSans-Bold-64" d="M 2919 2988 
L 2919 4863 
L 4044 4863 
L 4044 0 
L 2919 0 
L 2919 506 
Q 2688 197 2409 53 
Q 2131 -91 1766 -91 
Q 1119 -91 703 423 
Q 288 938 288 1747 
Q 288 2556 703 3070 
Q 1119 3584 1766 3584 
Q 2128 3584 2408 3439 
Q 2688 3294 2919 2988 
z
M 2181 722 
Q 2541 722 2730 984 
Q 2919 1247 2919 1747 
Q 2919 2247 2730 2509 
Q 2541 2772 2181 2772 
Q 1825 2772 1636 2509 
Q 1447 2247 1447 1747 
Q 1447 1247 1636 984 
Q 1825 722 2181 722 
z
" transform="scale(0.015625)"/>
      <path id="DejaVuSans-Bold-66" d="M 2841 4863 
L 2841 4128 
L 2222 4128 
Q 1984 4128 1890 4042 
Q 1797 3956 1797 3744 
L 1797 3500 
L 2753 3500 
L 2753 2700 
L 1797 2700 
L 1797 0 
L 678 0 
L 678 2700 
L 122 2700 
L 122 3500 
L 678 3500 
L 678 3744 
Q 678 4316 997 4589 
Q 1316 4863 1984 4863 
L 2841 4863 
z
" transform="scale(0.015625)"/>
      <path id="DejaVuSans-Bold-72" d="M 3138 2547 
Q 2991 2616 2845 2648 
Q 2700 2681 2553 2681 
Q 2122 2681 1889 2404 
Q 1656 2128 1656 1613 
L 1656 0 
L 538 0 
L 538 3500 
L 1656 3500 
L 1656 2925 
Q 1872 3269 2151 3426 
Q 2431 3584 2822 3584 
Q 2878 3584 2943 3579 
Q 3009 3575 3134 3559 
L 3138 2547 
z
" transform="scale(0.015625)"/>
     </defs>
     <use xlink:href="#DejaVuSans-Bold-28"/>
     <use xlink:href="#DejaVuSans-Bold-61" x="45.703125"/>
     <use xlink:href="#DejaVuSans-Bold-29" x="113.183594"/>
     <use xlink:href="#DejaVuSans-Bold-20" x="158.886719"/>
     <use xlink:href="#DejaVuSans-Bold-53" x="193.701172"/>
     <use xlink:href="#DejaVuSans-Bold-68" x="265.722656"/>
     <use xlink:href="#DejaVuSans-Bold-6f" x="336.914062"/>
     <use xlink:href="#DejaVuSans-Bold-63" x="405.615234"/>
     <use xlink:href="#DejaVuSans-Bold-6b" x="464.892578"/>
     <use xlink:href="#DejaVuSans-Bold-20" x="531.396484"/>
     <use xlink:href="#DejaVuSans-Bold-6e" x="566.210938"/>
     <use xlink:href="#DejaVuSans-Bold-65" x="637.402344"/>
     <use xlink:href="#DejaVuSans-Bold-67" x="705.224609"/>
     <use xlink:href="#DejaVuSans-Bold-61" x="776.806641"/>
     <use xlink:href="#DejaVuSans-Bold-74" x="844.287109"/>
     <use xlink:href="#DejaVuSans-Bold-69" x="892.089844"/>
     <use xlink:href="#DejaVuSans-Bold-76" x="926.367188"/>
     <use xlink:href="#DejaVuSans-Bold-6f" x="991.552734"/>
     <use xlink:href="#DejaVuSans-Bold-20" x="1060.253906"/>
     <use xlink:href="#DejaVuSans-Bold-64" x="1095.068359"/>
     <use xlink:href="#DejaVuSans-Bold-65" x="1166.650391"/>
     <use xlink:href="#DejaVuSans-Bold-20" x="1234.472656"/>
     <use xlink:href="#DejaVuSans-Bold-6f" x="1269.287109"/>
     <use xlink:href="#DejaVuSans-Bold-66" x="1337.988281"/>
     <use xlink:href="#DejaVuSans-Bold-65" x="1381.494141"/>
     <use xlink:href="#DejaVuSans-Bold-72" x="1449.316406"/>
     <use xlink:href="#DejaVuSans-Bold-74" x="1498.632812"/>
     <use xlink:href="#DejaVuSans-Bold-61" x="1546.435547"/>
    </g>
   </g>
   <g id="legend_1">
    <g id="patch_6">
     <path d="M 45.050988 487.831653 
L 135.688019 487.831653 
Q 137.488019 487.831653 137.488019 486.031653 
L 137.488019 447.300715 
Q 137.488019 445.500715 135.688019 445.500715 
L 45.050988 445.500715 
Q 43.250988 445.500715 43.250988 447.300715 
L 43.250988 486.031653 
Q 43.250988 487.831653 45.050988 487.831653 
z
" style="fill: #ffffff; opacity: 0.8; stroke: #cccccc; stroke-linejoin: miter"/>
    </g>
    <g id="line2d_30">
     <path d="M 46.850988 452.789309 
L 55.850988 452.789309 
L 64.850988 452.789309 
" style="fill: none; stroke: #c0392b; stroke-width: 3; stroke-linecap: square"/>
    </g>
    <g id="text_16">
     <!-- D -->
     <g transform="translate(72.050988 455.939309) scale(0.09 -0.09)">
      <defs>
       <path id="DejaVuSans-44" d="M 1259 4147 
L 1259 519 
L 2022 519 
Q 2988 519 3436 956 
Q 3884 1394 3884 2338 
Q 3884 3275 3436 3711 
Q 2988 4147 2022 4147 
L 1259 4147 
z
M 628 4666 
L 1925 4666 
Q 3281 4666 3915 4102 
Q 4550 3538 4550 2338 
Q 4550 1131 3912 565 
Q 3275 0 1925 0 
L 628 0 
L 628 4666 
z
" transform="scale(0.015625)"/>
      </defs>
      <use xlink:href="#DejaVuSans-44"/>
     </g>
    </g>
    <g id="line2d_31">
     <path d="M 46.850988 465.999622 
L 55.850988 465.999622 
L 64.850988 465.999622 
" style="fill: none; stroke: #2980b9; stroke-width: 3; stroke-linecap: square"/>
    </g>
    <g id="text_17">
     <!-- S₀ -->
     <g transform="translate(72.050988 469.149622) scale(0.09 -0.09)">
      <defs>
       <path id="DejaVuSans-53" d="M 3425 4513 
L 3425 3897 
Q 3066 4069 2747 4153 
Q 2428 4238 2131 4238 
Q 1616 4238 1336 4038 
Q 1056 3838 1056 3469 
Q 1056 3159 1242 3001 
Q 1428 2844 1947 2747 
L 2328 2669 
Q 3034 2534 3370 2195 
Q 3706 1856 3706 1288 
Q 3706 609 3251 259 
Q 2797 -91 1919 -91 
Q 1588 -91 1214 -16 
Q 841 59 441 206 
L 441 856 
Q 825 641 1194 531 
Q 1563 422 1919 422 
Q 2459 422 2753 634 
Q 3047 847 3047 1241 
Q 3047 1584 2836 1778 
Q 2625 1972 2144 2069 
L 1759 2144 
Q 1053 2284 737 2584 
Q 422 2884 422 3419 
Q 422 4038 858 4394 
Q 1294 4750 2059 4750 
Q 2388 4750 2728 4690 
Q 3069 4631 3425 4513 
z
" transform="scale(0.015625)"/>
       <path id="DejaVuSans-2080" d="M 1781 2091 
Q 1625 2360 1309 2360 
Q 994 2360 838 2091 
Q 678 1822 678 1285 
Q 678 744 838 476 
Q 994 207 1309 207 
Q 1625 207 1781 476 
Q 1941 744 1941 1285 
Q 1941 1822 1781 2091 
z
M 1309 2638 
Q 1813 2638 2078 2291 
Q 2344 1944 2344 1285 
Q 2344 622 2078 275 
Q 1813 -71 1309 -71 
Q 803 -71 537 275 
Q 272 622 272 1285 
Q 272 1944 537 2291 
Q 803 2638 1309 2638 
z
" transform="scale(0.015625)"/>
      </defs>
      <use xlink:href="#DejaVuSans-53"/>
      <use xlink:href="#DejaVuSans-2080" x="63.476562"/>
     </g>
    </g>
    <g id="line2d_32">
     <path d="M 46.850988 479.209934 
L 55.850988 479.209934 
L 64.850988 479.209934 
" style="fill: none; stroke-dasharray: 11.1,4.8; stroke-dashoffset: 0; stroke: #2980b9; stroke-width: 3"/>
    </g>
    <g id="text_18">
     <!-- S₁ (contraída) -->
     <g transform="translate(72.050988 482.359934) scale(0.09 -0.09)">
      <defs>
       <path id="DejaVuSans-2081" d="M 488 319 
L 1125 319 
L 1125 2229 
L 428 2101 
L 428 2463 
L 1147 2585 
L 1575 2585 
L 1575 319 
L 2216 319 
L 2216 -24 
L 488 -24 
L 488 319 
z
" transform="scale(0.015625)"/>
       <path id="DejaVuSans-20" transform="scale(0.015625)"/>
       <path id="DejaVuSans-28" d="M 1984 4856 
Q 1566 4138 1362 3434 
Q 1159 2731 1159 2009 
Q 1159 1288 1364 580 
Q 1569 -128 1984 -844 
L 1484 -844 
Q 1016 -109 783 600 
Q 550 1309 550 2009 
Q 550 2706 781 3412 
Q 1013 4119 1484 4856 
L 1984 4856 
z
" transform="scale(0.015625)"/>
       <path id="DejaVuSans-63" d="M 3122 3366 
L 3122 2828 
Q 2878 2963 2633 3030 
Q 2388 3097 2138 3097 
Q 1578 3097 1268 2742 
Q 959 2388 959 1747 
Q 959 1106 1268 751 
Q 1578 397 2138 397 
Q 2388 397 2633 464 
Q 2878 531 3122 666 
L 3122 134 
Q 2881 22 2623 -34 
Q 2366 -91 2075 -91 
Q 1284 -91 818 406 
Q 353 903 353 1747 
Q 353 2603 823 3093 
Q 1294 3584 2113 3584 
Q 2378 3584 2631 3529 
Q 2884 3475 3122 3366 
z
" transform="scale(0.015625)"/>
       <path id="DejaVuSans-6f" d="M 1959 3097 
Q 1497 3097 1228 2736 
Q 959 2375 959 1747 
Q 959 1119 1226 758 
Q 1494 397 1959 397 
Q 2419 397 2687 759 
Q 2956 1122 2956 1747 
Q 2956 2369 2687 2733 
Q 2419 3097 1959 3097 
z
M 1959 3584 
Q 2709 3584 3137 3096 
Q 3566 2609 3566 1747 
Q 3566 888 3137 398 
Q 2709 -91 1959 -91 
Q 1206 -91 779 398 
Q 353 888 353 1747 
Q 353 2609 779 3096 
Q 1206 3584 1959 3584 
z
" transform="scale(0.015625)"/>
       <path id="DejaVuSans-6e" d="M 3513 2113 
L 3513 0 
L 2938 0 
L 2938 2094 
Q 2938 2591 2744 2837 
Q 2550 3084 2163 3084 
Q 1697 3084 1428 2787 
Q 1159 2491 1159 1978 
L 1159 0 
L 581 0 
L 581 3500 
L 1159 3500 
L 1159 2956 
Q 1366 3272 1645 3428 
Q 1925 3584 2291 3584 
Q 2894 3584 3203 3211 
Q 3513 2838 3513 2113 
z
" transform="scale(0.015625)"/>
       <path id="DejaVuSans-74" d="M 1172 4494 
L 1172 3500 
L 2356 3500 
L 2356 3053 
L 1172 3053 
L 1172 1153 
Q 1172 725 1289 603 
Q 1406 481 1766 481 
L 2356 481 
L 2356 0 
L 1766 0 
Q 1100 0 847 248 
Q 594 497 594 1153 
L 594 3053 
L 172 3053 
L 172 3500 
L 594 3500 
L 594 4494 
L 1172 4494 
z
" transform="scale(0.015625)"/>
       <path id="DejaVuSans-72" d="M 2631 2963 
Q 2534 3019 2420 3045 
Q 2306 3072 2169 3072 
Q 1681 3072 1420 2755 
Q 1159 2438 1159 1844 
L 1159 0 
L 581 0 
L 581 3500 
L 1159 3500 
L 1159 2956 
Q 1341 3275 1631 3429 
Q 1922 3584 2338 3584 
Q 2397 3584 2469 3576 
Q 2541 3569 2628 3553 
L 2631 2963 
z
" transform="scale(0.015625)"/>
       <path id="DejaVuSans-61" d="M 2194 1759 
Q 1497 1759 1228 1600 
Q 959 1441 959 1056 
Q 959 750 1161 570 
Q 1363 391 1709 391 
Q 2188 391 2477 730 
Q 2766 1069 2766 1631 
L 2766 1759 
L 2194 1759 
z
M 3341 1997 
L 3341 0 
L 2766 0 
L 2766 531 
Q 2569 213 2275 61 
Q 1981 -91 1556 -91 
Q 1019 -91 701 211 
Q 384 513 384 1019 
Q 384 1609 779 1909 
Q 1175 2209 1959 2209 
L 2766 2209 
L 2766 2266 
Q 2766 2663 2505 2880 
Q 2244 3097 1772 3097 
Q 1472 3097 1187 3025 
Q 903 2953 641 2809 
L 641 3341 
Q 956 3463 1253 3523 
Q 1550 3584 1831 3584 
Q 2591 3584 2966 3190 
Q 3341 2797 3341 1997 
z
" transform="scale(0.015625)"/>
       <path id="DejaVuSans-ed" d="M 1322 5119 
L 1944 5119 
L 926 3944 
L 447 3944 
L 1322 5119 
z
M 603 3500 
L 1178 3500 
L 1178 0 
L 603 0 
L 603 3500 
z
M 891 3584 
L 891 3584 
z
" transform="scale(0.015625)"/>
       <path id="DejaVuSans-64" d="M 2906 2969 
L 2906 4863 
L 3481 4863 
L 3481 0 
L 2906 0 
L 2906 525 
Q 2725 213 2448 61 
Q 2172 -91 1784 -91 
Q 1150 -91 751 415 
Q 353 922 353 1747 
Q 353 2572 751 3078 
Q 1150 3584 1784 3584 
Q 2172 3584 2448 3432 
Q 2725 3281 2906 2969 
z
M 947 1747 
Q 947 1113 1208 752 
Q 1469 391 1925 391 
Q 2381 391 2643 752 
Q 2906 1113 2906 1747 
Q 2906 2381 2643 2742 
Q 2381 3103 1925 3103 
Q 1469 3103 1208 2742 
Q 947 2381 947 1747 
z
" transform="scale(0.015625)"/>
       <path id="DejaVuSans-29" d="M 513 4856 
L 1013 4856 
Q 1481 4119 1714 3412 
Q 1947 2706 1947 2009 
Q 1947 1309 1714 600 
Q 1481 -109 1013 -844 
L 513 -844 
Q 928 -128 1133 580 
Q 1338 1288 1338 2009 
Q 1338 2731 1133 3434 
Q 928 4138 513 4856 
z
" transform="scale(0.015625)"/>
      </defs>
      <use xlink:href="#DejaVuSans-53"/>
      <use xlink:href="#DejaVuSans-2081" x="63.476562"/>
      <use xlink:href="#DejaVuSans-20" x="103.564453"/>
      <use xlink:href="#DejaVuSans-28" x="135.351562"/>
      <use xlink:href="#DejaVuSans-63" x="174.365234"/>
      <use xlink:href="#DejaVuSans-6f" x="229.345703"/>
      <use xlink:href="#DejaVuSans-6e" x="290.527344"/>
      <use xlink:href="#DejaVuSans-74" x="353.90625"/>
      <use xlink:href="#DejaVuSans-72" x="393.115234"/>
      <use xlink:href="#DejaVuSans-61" x="434.228516"/>
      <use xlink:href="#DejaVuSans-ed" x="495.507812"/>
      <use xlink:href="#DejaVuSans-64" x="523.291016"/>
      <use xlink:href="#DejaVuSans-61" x="586.767578"/>
      <use xlink:href="#DejaVuSans-29" x="648.046875"/>
     </g>
    </g>
   </g>
   <g id="line2d_33">
    <defs>
     <path id="mf2bc6c7008" d="M 0 4.5 
C 1.193414 4.5 2.338109 4.025852 3.181981 3.181981 
C 4.025852 2.338109 4.5 1.193414 4.5 0 
C 4.5 -1.193414 4.025852 -2.338109 3.181981 -3.181981 
C 2.338109 -4.025852 1.193414 -4.5 0 -4.5 
C -1.193414 -4.5 -2.338109 -4.025852 -3.181981 -3.181981 
C -4.025852 -2.338109 -4.5 -1.193414 -4.5 0 
C -4.5 1.193414 -4.025852 2.338109 -3.181981 3.181981 
C -2.338109 4.025852 -1.193414 4.5 0 4.5 
z
" style="stroke: #000000"/>
    </defs>
    <g clip-path="url(#p20f5bf3493)">
     <use xlink:href="#mf2bc6c7008" x="247.865183" y="265.642151" style="stroke: #000000"/>
    </g>
   </g>
   <g id="line2d_34">
    <defs>
     <path id="mdd401f1664" d="M 0 5 
C 1.326016 5 2.597899 4.473168 3.535534 3.535534 
C 4.473168 2.597899 5 1.326016 5 0 
C 5 -1.326016 4.473168 -2.597899 3.535534 -3.535534 
C 2.597899 -4.473168 1.326016 -5 0 -5 
C -1.326016 -5 -2.597899 -4.473168 -3.535534 -3.535534 
C -4.473168 -2.597899 -5 -1.326016 -5 0 
C -5 1.326016 -4.473168 2.597899 -3.535534 3.535534 
C -2.597899 4.473168 -1.326016 5 0 5 
z
" style="stroke: #c0392b"/>
    </defs>
    <g clip-path="url(#p20f5bf3493)">
     <use xlink:href="#mdd401f1664" x="182.516997" y="207.015556" style="fill: #c0392b; stroke: #c0392b"/>
    </g>
   </g>
   <g id="patch_7">
    <path d="M 342.515733 331.176117 
Q 296.012238 298.978117 250.427951 267.416556 
" style="fill: none; stroke: #000000; stroke-linecap: round"/>
    <path d="M 252.578113 271.337882 
L 250.427951 267.416556 
L 254.855109 268.049222 
" style="fill: none; stroke: #000000; stroke-linecap: round"/>
   </g>
   <g id="text_19">
    <g id="patch_8">
     <path d="M 328.927263 349.390632 
L 384.630388 349.390632 
Q 388.130388 349.390632 388.130388 345.890632 
L 388.130388 336.212507 
Q 388.130388 332.712507 384.630388 332.712507 
L 328.927263 332.712507 
Q 325.427263 332.712507 325.427263 336.212507 
L 325.427263 345.890632 
Q 325.427263 349.390632 328.927263 349.390632 
z
" style="fill: #ffffff; opacity: 0.97; stroke: #bdc3c7; stroke-width: 0.8; stroke-linejoin: miter"/>
    </g>
    <!-- E₀ (P₀, Q₀) -->
    <g transform="translate(328.927263 343.810945) scale(0.1 -0.1)">
     <defs>
      <path id="DejaVuSans-Bold-45" d="M 588 4666 
L 3834 4666 
L 3834 3756 
L 1791 3756 
L 1791 2888 
L 3713 2888 
L 3713 1978 
L 1791 1978 
L 1791 909 
L 3903 909 
L 3903 0 
L 588 0 
L 588 4666 
z
" transform="scale(0.015625)"/>
      <path id="DejaVuSans-Bold-2080" d="M 1806 1288 
Q 1806 1779 1706 1979 
Q 1606 2179 1368 2179 
Q 1131 2179 1028 1979 
Q 928 1779 928 1288 
Q 928 791 1028 588 
Q 1131 385 1369 385 
Q 1603 385 1706 588 
Q 1806 791 1806 1288 
z
M 2547 1285 
Q 2547 626 2241 279 
Q 1931 -71 1369 -71 
Q 797 -71 494 279 
Q 188 632 188 1285 
Q 188 1935 494 2285 
Q 803 2638 1369 2638 
Q 1931 2638 2241 2285 
Q 2547 1935 2547 1285 
z
" transform="scale(0.015625)"/>
      <path id="DejaVuSans-Bold-2c" d="M 653 1209 
L 1778 1209 
L 1778 256 
L 1006 -909 
L 341 -909 
L 653 256 
L 653 1209 
z
" transform="scale(0.015625)"/>
     </defs>
     <use xlink:href="#DejaVuSans-Bold-45"/>
     <use xlink:href="#DejaVuSans-Bold-2080" x="68.310547"/>
     <use xlink:href="#DejaVuSans-Bold-20" x="112.109375"/>
     <use xlink:href="#DejaVuSans-Bold-28" x="146.923828"/>
     <use xlink:href="#DejaVuSans-Bold-50" x="192.626953"/>
     <use xlink:href="#DejaVuSans-Bold-2080" x="265.917969"/>
     <use xlink:href="#DejaVuSans-Bold-2c" x="309.716797"/>
     <use xlink:href="#DejaVuSans-Bold-20" x="347.705078"/>
     <use xlink:href="#DejaVuSans-Bold-51" x="382.519531"/>
     <use xlink:href="#DejaVuSans-Bold-2080" x="467.529297"/>
     <use xlink:href="#DejaVuSans-Bold-29" x="511.328125"/>
    </g>
   </g>
   <g id="patch_9">
    <path d="M 109.425531 155.520739 
Q 145.153758 180.692194 179.968004 205.219725 
" style="fill: none; stroke: #c0392b; stroke-linecap: round"/>
    <path d="M 177.849929 201.280974 
L 179.968004 205.219725 
L 175.546158 204.550934 
" style="fill: none; stroke: #c0392b; stroke-linecap: round"/>
   </g>
   <g id="text_20">
    <g id="patch_10">
     <path d="M 63.53452 153.968648 
L 127.237645 153.968648 
Q 130.737645 153.968648 130.737645 150.468648 
L 130.737645 140.790523 
Q 130.737645 137.290523 127.237645 137.290523 
L 63.53452 137.290523 
Q 60.03452 137.290523 60.03452 140.790523 
L 60.03452 150.468648 
Q 60.03452 153.968648 63.53452 153.968648 
z
" style="fill: #ffffff; opacity: 0.97; stroke: #bdc3c7; stroke-width: 0.8; stroke-linejoin: miter"/>
    </g>
    <!-- E₁ (P↑, Q↓) -->
    <g style="fill: #c0392b" transform="translate(63.53452 148.388961) scale(0.1 -0.1)">
     <defs>
      <path id="DejaVuSans-Bold-2081" d="M 441 466 
L 1088 466 
L 1088 2094 
L 384 1932 
L 384 2432 
L 1100 2585 
L 1806 2585 
L 1806 466 
L 2444 466 
L 2444 -24 
L 441 -24 
L 441 466 
z
" transform="scale(0.015625)"/>
      <path id="DejaVuSans-Bold-2191" d="M 2466 4688 
L 2903 4688 
L 4131 3459 
L 3678 3006 
L 3059 3625 
L 3059 0 
L 2309 0 
L 2309 3625 
L 1691 3006 
L 1238 3459 
L 2466 4688 
z
" transform="scale(0.015625)"/>
      <path id="DejaVuSans-Bold-2193" d="M 2903 -22 
L 2466 -22 
L 1238 1206 
L 1691 1659 
L 2309 1041 
L 2309 4666 
L 3059 4666 
L 3059 1041 
L 3678 1659 
L 4131 1206 
L 2903 -22 
z
" transform="scale(0.015625)"/>
     </defs>
     <use xlink:href="#DejaVuSans-Bold-45"/>
     <use xlink:href="#DejaVuSans-Bold-2081" x="68.310547"/>
     <use xlink:href="#DejaVuSans-Bold-20" x="112.109375"/>
     <use xlink:href="#DejaVuSans-Bold-28" x="146.923828"/>
     <use xlink:href="#DejaVuSans-Bold-50" x="192.626953"/>
     <use xlink:href="#DejaVuSans-Bold-2191" x="265.917969"/>
     <use xlink:href="#DejaVuSans-Bold-2c" x="349.707031"/>
     <use xlink:href="#DejaVuSans-Bold-20" x="387.695312"/>
     <use xlink:href="#DejaVuSans-Bold-51" x="422.509766"/>
     <use xlink:href="#DejaVuSans-Bold-2193" x="507.519531"/>
     <use xlink:href="#DejaVuSans-Bold-29" x="591.308594"/>
    </g>
   </g>
  </g>
  <g id="axes_2">
   <g id="patch_11">
    <path d="M 562.911471 492.331653 
L 1055.201137 492.331653 
L 1055.201137 50.677969 
L 562.911471 50.677969 
z
" style="fill: #ffffff"/>
   </g>
   <g id="matplotlib.axis_3">
    <g id="xtick_7">
     <g id="line2d_35">
      <path d="M 575.981108 492.331653 
L 575.981108 50.677969 
" clip-path="url(#p00dc88f97a)" style="fill: none; stroke-dasharray: 0.8,1.32; stroke-dashoffset: 0; stroke: #b0b0b0; stroke-opacity: 0.4; stroke-width: 0.8"/>
     </g>
     <g id="line2d_36">
      <g>
       <use xlink:href="#m9f1b0e72bc" x="575.981108" y="480.606334" style="stroke: #000000"/>
      </g>
     </g>
     <g id="text_21">
      <!-- 0 -->
      <g transform="translate(572.799858 491.704771) scale(0.1 -0.1)">
       <use xlink:href="#DejaVuSans-30"/>
      </g>
     </g>
    </g>
    <g id="xtick_8">
     <g id="line2d_37">
      <path d="M 663.112022 492.331653 
L 663.112022 50.677969 
" clip-path="url(#p00dc88f97a)" style="fill: none; stroke-dasharray: 0.8,1.32; stroke-dashoffset: 0; stroke: #b0b0b0; stroke-opacity: 0.4; stroke-width: 0.8"/>
     </g>
     <g id="line2d_38">
      <g>
       <use xlink:href="#m9f1b0e72bc" x="663.112022" y="480.606334" style="stroke: #000000"/>
      </g>
     </g>
     <g id="text_22">
      <!-- 2 -->
      <g transform="translate(659.930772 491.704771) scale(0.1 -0.1)">
       <use xlink:href="#DejaVuSans-32"/>
      </g>
     </g>
    </g>
    <g id="xtick_9">
     <g id="line2d_39">
      <path d="M 750.242937 492.331653 
L 750.242937 50.677969 
" clip-path="url(#p00dc88f97a)" style="fill: none; stroke-dasharray: 0.8,1.32; stroke-dashoffset: 0; stroke: #b0b0b0; stroke-opacity: 0.4; stroke-width: 0.8"/>
     </g>
     <g id="line2d_40">
      <g>
       <use xlink:href="#m9f1b0e72bc" x="750.242937" y="480.606334" style="stroke: #000000"/>
      </g>
     </g>
     <g id="text_23">
      <!-- 4 -->
      <g transform="translate(747.061687 491.704771) scale(0.1 -0.1)">
       <use xlink:href="#DejaVuSans-34"/>
      </g>
     </g>
    </g>
    <g id="xtick_10">
     <g id="line2d_41">
      <path d="M 837.373851 492.331653 
L 837.373851 50.677969 
" clip-path="url(#p00dc88f97a)" style="fill: none; stroke-dasharray: 0.8,1.32; stroke-dashoffset: 0; stroke: #b0b0b0; stroke-opacity: 0.4; stroke-width: 0.8"/>
     </g>
     <g id="line2d_42">
      <g>
       <use xlink:href="#m9f1b0e72bc" x="837.373851" y="480.606334" style="stroke: #000000"/>
      </g>
     </g>
     <g id="text_24">
      <!-- 6 -->
      <g transform="translate(834.192601 491.704771) scale(0.1 -0.1)">
       <use xlink:href="#DejaVuSans-36"/>
      </g>
     </g>
    </g>
    <g id="xtick_11">
     <g id="line2d_43">
      <path d="M 924.504766 492.331653 
L 924.504766 50.677969 
" clip-path="url(#p00dc88f97a)" style="fill: none; stroke-dasharray: 0.8,1.32; stroke-dashoffset: 0; stroke: #b0b0b0; stroke-opacity: 0.4; stroke-width: 0.8"/>
     </g>
     <g id="line2d_44">
      <g>
       <use xlink:href="#m9f1b0e72bc" x="924.504766" y="480.606334" style="stroke: #000000"/>
      </g>
     </g>
     <g id="text_25">
      <!-- 8 -->
      <g transform="translate(921.323516 491.704771) scale(0.1 -0.1)">
       <use xlink:href="#DejaVuSans-38"/>
      </g>
     </g>
    </g>
    <g id="xtick_12">
     <g id="line2d_45">
      <path d="M 1011.63568 492.331653 
L 1011.63568 50.677969 
" clip-path="url(#p00dc88f97a)" style="fill: none; stroke-dasharray: 0.8,1.32; stroke-dashoffset: 0; stroke: #b0b0b0; stroke-opacity: 0.4; stroke-width: 0.8"/>
     </g>
     <g id="line2d_46">
      <g>
       <use xlink:href="#m9f1b0e72bc" x="1011.63568" y="480.606334" style="stroke: #000000"/>
      </g>
     </g>
     <g id="text_26">
      <!-- 10 -->
      <g transform="translate(1005.27318 491.704771) scale(0.1 -0.1)">
       <use xlink:href="#DejaVuSans-31"/>
       <use xlink:href="#DejaVuSans-30" x="63.623047"/>
      </g>
     </g>
    </g>
    <g id="text_27">
     <!-- Q -->
     <g transform="translate(1044.999262 500.902584) scale(0.12 -0.12)">
      <use xlink:href="#DejaVuSans-Bold-51"/>
     </g>
    </g>
   </g>
   <g id="matplotlib.axis_4">
    <g id="ytick_7">
     <g id="line2d_47">
      <path d="M 562.911471 480.606334 
L 1055.201137 480.606334 
" clip-path="url(#p00dc88f97a)" style="fill: none; stroke-dasharray: 0.8,1.32; stroke-dashoffset: 0; stroke: #b0b0b0; stroke-opacity: 0.4; stroke-width: 0.8"/>
     </g>
     <g id="line2d_48">
      <g>
       <use xlink:href="#m361b9f579c" x="575.981108" y="480.606334" style="stroke: #000000"/>
      </g>
     </g>
     <g id="text_28">
      <!-- 0 -->
      <g transform="translate(566.118608 484.405553) scale(0.1 -0.1)">
       <use xlink:href="#DejaVuSans-30"/>
      </g>
     </g>
    </g>
    <g id="ytick_8">
     <g id="line2d_49">
      <path d="M 562.911471 402.43754 
L 1055.201137 402.43754 
" clip-path="url(#p00dc88f97a)" style="fill: none; stroke-dasharray: 0.8,1.32; stroke-dashoffset: 0; stroke: #b0b0b0; stroke-opacity: 0.4; stroke-width: 0.8"/>
     </g>
     <g id="line2d_50">
      <g>
       <use xlink:href="#m361b9f579c" x="575.981108" y="402.43754" style="stroke: #000000"/>
      </g>
     </g>
     <g id="text_29">
      <!-- 2 -->
      <g transform="translate(566.118608 406.236759) scale(0.1 -0.1)">
       <use xlink:href="#DejaVuSans-32"/>
      </g>
     </g>
    </g>
    <g id="ytick_9">
     <g id="line2d_51">
      <path d="M 562.911471 324.268747 
L 1055.201137 324.268747 
" clip-path="url(#p00dc88f97a)" style="fill: none; stroke-dasharray: 0.8,1.32; stroke-dashoffset: 0; stroke: #b0b0b0; stroke-opacity: 0.4; stroke-width: 0.8"/>
     </g>
     <g id="line2d_52">
      <g>
       <use xlink:href="#m361b9f579c" x="575.981108" y="324.268747" style="stroke: #000000"/>
      </g>
     </g>
     <g id="text_30">
      <!-- 4 -->
      <g transform="translate(566.118608 328.067965) scale(0.1 -0.1)">
       <use xlink:href="#DejaVuSans-34"/>
      </g>
     </g>
    </g>
    <g id="ytick_10">
     <g id="line2d_53">
      <path d="M 562.911471 246.099953 
L 1055.201137 246.099953 
" clip-path="url(#p00dc88f97a)" style="fill: none; stroke-dasharray: 0.8,1.32; stroke-dashoffset: 0; stroke: #b0b0b0; stroke-opacity: 0.4; stroke-width: 0.8"/>
     </g>
     <g id="line2d_54">
      <g>
       <use xlink:href="#m361b9f579c" x="575.981108" y="246.099953" style="stroke: #000000"/>
      </g>
     </g>
     <g id="text_31">
      <!-- 6 -->
      <g transform="translate(566.118608 249.899172) scale(0.1 -0.1)">
       <use xlink:href="#DejaVuSans-36"/>
      </g>
     </g>
    </g>
    <g id="ytick_11">
     <g id="line2d_55">
      <path d="M 562.911471 167.931159 
L 1055.201137 167.931159 
" clip-path="url(#p00dc88f97a)" style="fill: none; stroke-dasharray: 0.8,1.32; stroke-dashoffset: 0; stroke: #b0b0b0; stroke-opacity: 0.4; stroke-width: 0.8"/>
     </g>
     <g id="line2d_56">
      <g>
       <use xlink:href="#m361b9f579c" x="575.981108" y="167.931159" style="stroke: #000000"/>
      </g>
     </g>
     <g id="text_32">
      <!-- 8 -->
      <g transform="translate(566.118608 171.730378) scale(0.1 -0.1)">
       <use xlink:href="#DejaVuSans-38"/>
      </g>
     </g>
    </g>
    <g id="ytick_12">
     <g id="line2d_57">
      <path d="M 562.911471 89.762366 
L 1055.201137 89.762366 
" clip-path="url(#p00dc88f97a)" style="fill: none; stroke-dasharray: 0.8,1.32; stroke-dashoffset: 0; stroke: #b0b0b0; stroke-opacity: 0.4; stroke-width: 0.8"/>
     </g>
     <g id="line2d_58">
      <g>
       <use xlink:href="#m361b9f579c" x="575.981108" y="89.762366" style="stroke: #000000"/>
      </g>
     </g>
     <g id="text_33">
      <!-- 10 -->
      <g transform="translate(559.756108 93.561584) scale(0.1 -0.1)">
       <use xlink:href="#DejaVuSans-31"/>
       <use xlink:href="#DejaVuSans-30" x="63.623047"/>
      </g>
     </g>
    </g>
    <g id="text_34">
     <!-- P -->
     <g transform="translate(552.960483 48.182344) scale(0.12 -0.12)">
      <use xlink:href="#DejaVuSans-Bold-50"/>
     </g>
    </g>
   </g>
   <g id="line2d_59">
    <path d="M 575.981108 89.762366 
L 1011.63568 480.606334 
L 1011.63568 480.606334 
" clip-path="url(#p00dc88f97a)" style="fill: none; stroke: #c0392b; stroke-width: 3; stroke-linecap: square"/>
   </g>
   <g id="line2d_60">
    <path d="M 575.981108 207.015556 
L 941.526247 534.961415 
L 941.526247 534.961415 
" clip-path="url(#p00dc88f97a)" style="fill: none; stroke-dasharray: 11.1,4.8; stroke-dashoffset: 0; stroke: #c0392b; stroke-width: 3"/>
   </g>
   <g id="line2d_61">
    <path d="M 575.981108 441.521937 
L 1011.63568 50.677969 
L 1011.63568 50.677969 
" clip-path="url(#p00dc88f97a)" style="fill: none; stroke: #2980b9; stroke-opacity: 0.4; stroke-width: 3; stroke-linecap: square"/>
   </g>
   <g id="line2d_62">
    <path d="M 575.981108 324.268747 
L 938.542202 -1 
L 938.542202 -1 
" clip-path="url(#p00dc88f97a)" style="fill: none; stroke: #2980b9; stroke-width: 3; stroke-linecap: square"/>
   </g>
   <g id="line2d_63">
    <defs>
     <path id="m120ec9aac5" d="M 0 4.5 
C 1.193414 4.5 2.338109 4.025852 3.181981 3.181981 
C 4.025852 2.338109 4.5 1.193414 4.5 0 
C 4.5 -1.193414 4.025852 -2.338109 3.181981 -3.181981 
C 2.338109 -4.025852 1.193414 -4.5 0 -4.5 
C -1.193414 -4.5 -2.338109 -4.025852 -3.181981 -3.181981 
C -4.025852 -2.338109 -4.5 -1.193414 -4.5 0 
C -4.5 1.193414 -4.025852 2.338109 -3.181981 3.181981 
C -2.338109 4.025852 -1.193414 4.5 0 4.5 
z
" style="stroke: #000000; stroke-opacity: 0.4"/>
    </defs>
    <g clip-path="url(#p00dc88f97a)">
     <use xlink:href="#m120ec9aac5" x="772.025665" y="265.642151" style="fill-opacity: 0.4; stroke: #000000; stroke-opacity: 0.4"/>
    </g>
   </g>
   <g id="line2d_64">
    <g>
     <use xlink:href="#m574c8f9e45" x="1055.201137" y="480.606334" style="stroke: #000000; stroke-linejoin: miter"/>
    </g>
   </g>
   <g id="line2d_65">
    <g>
     <use xlink:href="#mb4a58ef889" x="575.981108" y="50.677969" style="stroke: #000000; stroke-linejoin: miter"/>
    </g>
   </g>
   <g id="patch_12">
    <path d="M 575.981108 492.331653 
L 575.981108 50.677969 
" style="fill: none; stroke: #000000; stroke-width: 1.4; stroke-linejoin: miter; stroke-linecap: square"/>
   </g>
   <g id="patch_13">
    <path d="M 562.911471 480.606334 
L 1055.201137 480.606334 
" style="fill: none; stroke: #000000; stroke-width: 1.4; stroke-linejoin: miter; stroke-linecap: square"/>
   </g>
   <g id="patch_14">
    <path d="M 813.764373 305.545975 
Q 772.024739 324.269162 732.529334 341.985653 
" style="fill: none; stroke: #c0392b; stroke-width: 2.2; stroke-linecap: round"/>
    <path d="M 737.891168 342.21089 
L 732.529334 341.985653 
L 735.926624 337.831328 
" style="fill: none; stroke: #c0392b; stroke-width: 2.2; stroke-linecap: round"/>
   </g>
   <g id="text_35">
    <!-- (b) Mantener P₀ → ↑ P_valijas -->
    <g transform="translate(701.826617 38.677969) scale(0.13 -0.13)">
     <defs>
      <path id="DejaVuSans-Bold-62" d="M 2400 722 
Q 2759 722 2948 984 
Q 3138 1247 3138 1747 
Q 3138 2247 2948 2509 
Q 2759 2772 2400 2772 
Q 2041 2772 1848 2508 
Q 1656 2244 1656 1747 
Q 1656 1250 1848 986 
Q 2041 722 2400 722 
z
M 1656 2988 
Q 1888 3294 2169 3439 
Q 2450 3584 2816 3584 
Q 3463 3584 3878 3070 
Q 4294 2556 4294 1747 
Q 4294 938 3878 423 
Q 3463 -91 2816 -91 
Q 2450 -91 2169 54 
Q 1888 200 1656 506 
L 1656 0 
L 538 0 
L 538 4863 
L 1656 4863 
L 1656 2988 
z
" transform="scale(0.015625)"/>
      <path id="DejaVuSans-Bold-4d" d="M 588 4666 
L 2119 4666 
L 3181 2169 
L 4250 4666 
L 5778 4666 
L 5778 0 
L 4641 0 
L 4641 3413 
L 3566 897 
L 2803 897 
L 1728 3413 
L 1728 0 
L 588 0 
L 588 4666 
z
" transform="scale(0.015625)"/>
      <path id="DejaVuSans-Bold-2192" d="M 5050 2225 
L 5050 1788 
L 3822 559 
L 3369 1013 
L 3988 1631 
L 366 1631 
L 366 2381 
L 3988 2381 
L 3369 3000 
L 3822 3453 
L 5050 2225 
z
" transform="scale(0.015625)"/>
      <path id="DejaVuSans-Bold-5f" d="M 3200 -916 
L 3200 -1509 
L 0 -1509 
L 0 -916 
L 3200 -916 
z
" transform="scale(0.015625)"/>
      <path id="DejaVuSans-Bold-6c" d="M 538 4863 
L 1656 4863 
L 1656 0 
L 538 0 
L 538 4863 
z
" transform="scale(0.015625)"/>
     </defs>
     <use xlink:href="#DejaVuSans-Bold-28"/>
     <use xlink:href="#DejaVuSans-Bold-62" x="45.703125"/>
     <use xlink:href="#DejaVuSans-Bold-29" x="117.285156"/>
     <use xlink:href="#DejaVuSans-Bold-20" x="162.988281"/>
     <use xlink:href="#DejaVuSans-Bold-4d" x="197.802734"/>
     <use xlink:href="#DejaVuSans-Bold-61" x="297.314453"/>
     <use xlink:href="#DejaVuSans-Bold-6e" x="364.794922"/>
     <use xlink:href="#DejaVuSans-Bold-74" x="435.986328"/>
     <use xlink:href="#DejaVuSans-Bold-65" x="483.789062"/>
     <use xlink:href="#DejaVuSans-Bold-6e" x="551.611328"/>
     <use xlink:href="#DejaVuSans-Bold-65" x="622.802734"/>
     <use xlink:href="#DejaVuSans-Bold-72" x="690.625"/>
     <use xlink:href="#DejaVuSans-Bold-20" x="739.941406"/>
     <use xlink:href="#DejaVuSans-Bold-50" x="774.755859"/>
     <use xlink:href="#DejaVuSans-Bold-2080" x="848.046875"/>
     <use xlink:href="#DejaVuSans-Bold-20" x="891.845703"/>
     <use xlink:href="#DejaVuSans-Bold-2192" x="926.660156"/>
     <use xlink:href="#DejaVuSans-Bold-20" x="1010.449219"/>
     <use xlink:href="#DejaVuSans-Bold-2191" x="1045.263672"/>
     <use xlink:href="#DejaVuSans-Bold-20" x="1129.052734"/>
     <use xlink:href="#DejaVuSans-Bold-50" x="1163.867188"/>
     <use xlink:href="#DejaVuSans-Bold-5f" x="1237.158203"/>
     <use xlink:href="#DejaVuSans-Bold-76" x="1287.158203"/>
     <use xlink:href="#DejaVuSans-Bold-61" x="1352.34375"/>
     <use xlink:href="#DejaVuSans-Bold-6c" x="1419.824219"/>
     <use xlink:href="#DejaVuSans-Bold-69" x="1454.101562"/>
     <use xlink:href="#DejaVuSans-Bold-6a" x="1488.378906"/>
     <use xlink:href="#DejaVuSans-Bold-61" x="1522.65625"/>
     <use xlink:href="#DejaVuSans-Bold-73" x="1590.136719"/>
    </g>
   </g>
   <g id="legend_2">
    <g id="patch_15">
     <path d="M 569.211471 487.831653 
L 692.631002 487.831653 
Q 694.431002 487.831653 694.431002 486.031653 
L 694.431002 447.050403 
Q 694.431002 445.250403 692.631002 445.250403 
L 569.211471 445.250403 
Q 567.411471 445.250403 567.411471 447.050403 
L 567.411471 486.031653 
Q 567.411471 487.831653 569.211471 487.831653 
z
" style="fill: #ffffff; opacity: 0.8; stroke: #cccccc; stroke-linejoin: miter"/>
    </g>
    <g id="line2d_66">
     <path d="M 571.011471 452.538997 
L 580.011471 452.538997 
L 589.011471 452.538997 
" style="fill: none; stroke: #c0392b; stroke-width: 3; stroke-linecap: square"/>
    </g>
    <g id="text_36">
     <!-- D₀ -->
     <g transform="translate(596.211471 455.688997) scale(0.09 -0.09)">
      <use xlink:href="#DejaVuSans-44"/>
      <use xlink:href="#DejaVuSans-2080" x="77.001953"/>
     </g>
    </g>
    <g id="line2d_67">
     <path d="M 571.011471 465.749309 
L 580.011471 465.749309 
L 589.011471 465.749309 
" style="fill: none; stroke-dasharray: 11.1,4.8; stroke-dashoffset: 0; stroke: #c0392b; stroke-width: 3"/>
    </g>
    <g id="text_37">
     <!-- D₁ (↓ por ↑P_valijas) -->
     <g transform="translate(596.211471 468.899309) scale(0.09 -0.09)">
      <defs>
       <path id="DejaVuSans-2193" d="M 2822 -22 
L 2541 -22 
L 1309 1209 
L 1684 1584 
L 2416 853 
L 2416 4666 
L 2947 4666 
L 2947 853 
L 3672 1584 
L 4047 1209 
L 2822 -22 
z
" transform="scale(0.015625)"/>
       <path id="DejaVuSans-70" d="M 1159 525 
L 1159 -1331 
L 581 -1331 
L 581 3500 
L 1159 3500 
L 1159 2969 
Q 1341 3281 1617 3432 
Q 1894 3584 2278 3584 
Q 2916 3584 3314 3078 
Q 3713 2572 3713 1747 
Q 3713 922 3314 415 
Q 2916 -91 2278 -91 
Q 1894 -91 1617 61 
Q 1341 213 1159 525 
z
M 3116 1747 
Q 3116 2381 2855 2742 
Q 2594 3103 2138 3103 
Q 1681 3103 1420 2742 
Q 1159 2381 1159 1747 
Q 1159 1113 1420 752 
Q 1681 391 2138 391 
Q 2594 391 2855 752 
Q 3116 1113 3116 1747 
z
" transform="scale(0.015625)"/>
       <path id="DejaVuSans-2191" d="M 2541 4688 
L 2822 4688 
L 4047 3456 
L 3672 3081 
L 2947 3813 
L 2947 0 
L 2416 0 
L 2416 3813 
L 1684 3081 
L 1309 3456 
L 2541 4688 
z
" transform="scale(0.015625)"/>
       <path id="DejaVuSans-50" d="M 1259 4147 
L 1259 2394 
L 2053 2394 
Q 2494 2394 2734 2622 
Q 2975 2850 2975 3272 
Q 2975 3691 2734 3919 
Q 2494 4147 2053 4147 
L 1259 4147 
z
M 628 4666 
L 2053 4666 
Q 2838 4666 3239 4311 
Q 3641 3956 3641 3272 
Q 3641 2581 3239 2228 
Q 2838 1875 2053 1875 
L 1259 1875 
L 1259 0 
L 628 0 
L 628 4666 
z
" transform="scale(0.015625)"/>
       <path id="DejaVuSans-5f" d="M 3263 -1063 
L 3263 -1509 
L -63 -1509 
L -63 -1063 
L 3263 -1063 
z
" transform="scale(0.015625)"/>
       <path id="DejaVuSans-76" d="M 191 3500 
L 800 3500 
L 1894 563 
L 2988 3500 
L 3597 3500 
L 2284 0 
L 1503 0 
L 191 3500 
z
" transform="scale(0.015625)"/>
       <path id="DejaVuSans-6c" d="M 603 4863 
L 1178 4863 
L 1178 0 
L 603 0 
L 603 4863 
z
" transform="scale(0.015625)"/>
       <path id="DejaVuSans-69" d="M 603 3500 
L 1178 3500 
L 1178 0 
L 603 0 
L 603 3500 
z
M 603 4863 
L 1178 4863 
L 1178 4134 
L 603 4134 
L 603 4863 
z
" transform="scale(0.015625)"/>
       <path id="DejaVuSans-6a" d="M 603 3500 
L 1178 3500 
L 1178 -63 
Q 1178 -731 923 -1031 
Q 669 -1331 103 -1331 
L -116 -1331 
L -116 -844 
L 38 -844 
Q 366 -844 484 -692 
Q 603 -541 603 -63 
L 603 3500 
z
M 603 4863 
L 1178 4863 
L 1178 4134 
L 603 4134 
L 603 4863 
z
" transform="scale(0.015625)"/>
       <path id="DejaVuSans-73" d="M 2834 3397 
L 2834 2853 
Q 2591 2978 2328 3040 
Q 2066 3103 1784 3103 
Q 1356 3103 1142 2972 
Q 928 2841 928 2578 
Q 928 2378 1081 2264 
Q 1234 2150 1697 2047 
L 1894 2003 
Q 2506 1872 2764 1633 
Q 3022 1394 3022 966 
Q 3022 478 2636 193 
Q 2250 -91 1575 -91 
Q 1294 -91 989 -36 
Q 684 19 347 128 
L 347 722 
Q 666 556 975 473 
Q 1284 391 1588 391 
Q 1994 391 2212 530 
Q 2431 669 2431 922 
Q 2431 1156 2273 1281 
Q 2116 1406 1581 1522 
L 1381 1569 
Q 847 1681 609 1914 
Q 372 2147 372 2553 
Q 372 3047 722 3315 
Q 1072 3584 1716 3584 
Q 2034 3584 2315 3537 
Q 2597 3491 2834 3397 
z
" transform="scale(0.015625)"/>
      </defs>
      <use xlink:href="#DejaVuSans-44"/>
      <use xlink:href="#DejaVuSans-2081" x="77.001953"/>
      <use xlink:href="#DejaVuSans-20" x="117.089844"/>
      <use xlink:href="#DejaVuSans-28" x="148.876953"/>
      <use xlink:href="#DejaVuSans-2193" x="187.890625"/>
      <use xlink:href="#DejaVuSans-20" x="271.679688"/>
      <use xlink:href="#DejaVuSans-70" x="303.466797"/>
      <use xlink:href="#DejaVuSans-6f" x="366.943359"/>
      <use xlink:href="#DejaVuSans-72" x="428.125"/>
      <use xlink:href="#DejaVuSans-20" x="469.238281"/>
      <use xlink:href="#DejaVuSans-2191" x="501.025391"/>
      <use xlink:href="#DejaVuSans-50" x="584.814453"/>
      <use xlink:href="#DejaVuSans-5f" x="645.117188"/>
      <use xlink:href="#DejaVuSans-76" x="695.117188"/>
      <use xlink:href="#DejaVuSans-61" x="754.296875"/>
      <use xlink:href="#DejaVuSans-6c" x="815.576172"/>
      <use xlink:href="#DejaVuSans-69" x="843.359375"/>
      <use xlink:href="#DejaVuSans-6a" x="871.142578"/>
      <use xlink:href="#DejaVuSans-61" x="898.925781"/>
      <use xlink:href="#DejaVuSans-73" x="960.205078"/>
      <use xlink:href="#DejaVuSans-29" x="1012.304688"/>
     </g>
    </g>
    <g id="line2d_68">
     <path d="M 571.011471 479.209934 
L 580.011471 479.209934 
L 589.011471 479.209934 
" style="fill: none; stroke: #2980b9; stroke-width: 3; stroke-linecap: square"/>
    </g>
    <g id="text_38">
     <!-- S₁ -->
     <g transform="translate(596.211471 482.359934) scale(0.09 -0.09)">
      <use xlink:href="#DejaVuSans-53"/>
      <use xlink:href="#DejaVuSans-2081" x="63.476562"/>
     </g>
    </g>
   </g>
   <g id="line2d_69">
    <defs>
     <path id="mf52d5faf2e" d="M 0 5.5 
C 1.458617 5.5 2.857689 4.920485 3.889087 3.889087 
C 4.920485 2.857689 5.5 1.458617 5.5 0 
C 5.5 -1.458617 4.920485 -2.857689 3.889087 -3.889087 
C 2.857689 -4.920485 1.458617 -5.5 0 -5.5 
C -1.458617 -5.5 -2.857689 -4.920485 -3.889087 -3.889087 
C -4.920485 -2.857689 -5.5 -1.458617 -5.5 0 
C -5.5 1.458617 -4.920485 2.857689 -3.889087 3.889087 
C -2.857689 4.920485 -1.458617 5.5 0 5.5 
z
" style="stroke: #27ae60"/>
    </defs>
    <g clip-path="url(#p00dc88f97a)">
     <use xlink:href="#mf52d5faf2e" x="641.329294" y="265.642151" style="fill: #27ae60; stroke: #27ae60"/>
    </g>
   </g>
   <g id="patch_16">
    <path d="M 716.013507 319.932009 
Q 679.47937 293.374414 643.849577 267.474209 
" style="fill: none; stroke: #27ae60; stroke-linecap: round"/>
    <path d="M 645.90908 271.443901 
L 643.849577 267.474209 
L 648.261032 268.208422 
" style="fill: none; stroke: #27ae60; stroke-linecap: round"/>
   </g>
   <g id="text_39">
    <g id="patch_17">
     <path d="M 697.070175 348.890632 
L 777.276425 348.890632 
Q 780.276425 348.890632 780.276425 345.890632 
L 780.276425 324.458445 
Q 780.276425 321.458445 777.276425 321.458445 
L 697.070175 321.458445 
Q 694.070175 321.458445 694.070175 324.458445 
L 694.070175 345.890632 
Q 694.070175 348.890632 697.070175 348.890632 
z
" style="fill: #fffbeb; opacity: 0.97; stroke: #f39c12; stroke-width: 0.7; stroke-linejoin: miter"/>
    </g>
    <!-- E_b (P₀, Q↓) -->
    <g style="fill: #27ae60" transform="translate(703.432675 332.335007) scale(0.1 -0.1)">
     <use xlink:href="#DejaVuSans-Bold-45"/>
     <use xlink:href="#DejaVuSans-Bold-5f" x="68.310547"/>
     <use xlink:href="#DejaVuSans-Bold-62" x="118.310547"/>
     <use xlink:href="#DejaVuSans-Bold-20" x="189.892578"/>
     <use xlink:href="#DejaVuSans-Bold-28" x="224.707031"/>
     <use xlink:href="#DejaVuSans-Bold-50" x="270.410156"/>
     <use xlink:href="#DejaVuSans-Bold-2080" x="343.701172"/>
     <use xlink:href="#DejaVuSans-Bold-2c" x="387.5"/>
     <use xlink:href="#DejaVuSans-Bold-20" x="425.488281"/>
     <use xlink:href="#DejaVuSans-Bold-51" x="460.302734"/>
     <use xlink:href="#DejaVuSans-Bold-2193" x="545.3125"/>
     <use xlink:href="#DejaVuSans-Bold-29" x="629.101562"/>
    </g>
    <!-- P se mantiene -->
    <g style="fill: #27ae60" transform="translate(697.070175 343.810945) scale(0.1 -0.1)">
     <defs>
      <path id="DejaVuSans-Bold-6d" d="M 3781 2919 
Q 3994 3244 4286 3414 
Q 4578 3584 4928 3584 
Q 5531 3584 5847 3212 
Q 6163 2841 6163 2131 
L 6163 0 
L 5038 0 
L 5038 1825 
Q 5041 1866 5042 1909 
Q 5044 1953 5044 2034 
Q 5044 2406 4934 2573 
Q 4825 2741 4581 2741 
Q 4263 2741 4089 2478 
Q 3916 2216 3909 1719 
L 3909 0 
L 2784 0 
L 2784 1825 
Q 2784 2406 2684 2573 
Q 2584 2741 2328 2741 
Q 2006 2741 1831 2477 
Q 1656 2213 1656 1722 
L 1656 0 
L 531 0 
L 531 3500 
L 1656 3500 
L 1656 2988 
Q 1863 3284 2130 3434 
Q 2397 3584 2719 3584 
Q 3081 3584 3359 3409 
Q 3638 3234 3781 2919 
z
" transform="scale(0.015625)"/>
     </defs>
     <use xlink:href="#DejaVuSans-Bold-50"/>
     <use xlink:href="#DejaVuSans-Bold-20" x="73.291016"/>
     <use xlink:href="#DejaVuSans-Bold-73" x="108.105469"/>
     <use xlink:href="#DejaVuSans-Bold-65" x="167.626953"/>
     <use xlink:href="#DejaVuSans-Bold-20" x="235.449219"/>
     <use xlink:href="#DejaVuSans-Bold-6d" x="270.263672"/>
     <use xlink:href="#DejaVuSans-Bold-61" x="374.462891"/>
     <use xlink:href="#DejaVuSans-Bold-6e" x="441.943359"/>
     <use xlink:href="#DejaVuSans-Bold-74" x="513.134766"/>
     <use xlink:href="#DejaVuSans-Bold-69" x="560.9375"/>
     <use xlink:href="#DejaVuSans-Bold-65" x="595.214844"/>
     <use xlink:href="#DejaVuSans-Bold-6e" x="663.037109"/>
     <use xlink:href="#DejaVuSans-Bold-65" x="734.228516"/>
    </g>
   </g>
   <g id="text_40">
    <g id="patch_18">
     <path d="M 895.883588 134.004575 
L 996.691401 134.004575 
Q 999.691401 134.004575 999.691401 131.004575 
L 999.691401 98.374575 
Q 999.691401 95.374575 996.691401 95.374575 
L 895.883588 95.374575 
Q 892.883588 95.374575 892.883588 98.374575 
L 892.883588 131.004575 
Q 892.883588 134.004575 895.883588 134.004575 
z
" style="fill: #fffbeb; opacity: 0.97; stroke: #f39c12; stroke-width: 0.7; stroke-linejoin: miter"/>
    </g>
    <!-- ↑ P_valijas -->
    <g style="fill: #c0392b" transform="translate(916.066401 106.173012) scale(0.1 -0.1)">
     <use xlink:href="#DejaVuSans-Bold-2191"/>
     <use xlink:href="#DejaVuSans-Bold-20" x="83.789062"/>
     <use xlink:href="#DejaVuSans-Bold-50" x="118.603516"/>
     <use xlink:href="#DejaVuSans-Bold-5f" x="191.894531"/>
     <use xlink:href="#DejaVuSans-Bold-76" x="241.894531"/>
     <use xlink:href="#DejaVuSans-Bold-61" x="307.080078"/>
     <use xlink:href="#DejaVuSans-Bold-6c" x="374.560547"/>
     <use xlink:href="#DejaVuSans-Bold-69" x="408.837891"/>
     <use xlink:href="#DejaVuSans-Bold-6a" x="443.115234"/>
     <use xlink:href="#DejaVuSans-Bold-61" x="477.392578"/>
     <use xlink:href="#DejaVuSans-Bold-73" x="544.873047"/>
    </g>
    <!-- (complementario) -->
    <g style="fill: #c0392b" transform="translate(895.883588 117.64895) scale(0.1 -0.1)">
     <use xlink:href="#DejaVuSans-Bold-28"/>
     <use xlink:href="#DejaVuSans-Bold-63" x="45.703125"/>
     <use xlink:href="#DejaVuSans-Bold-6f" x="104.980469"/>
     <use xlink:href="#DejaVuSans-Bold-6d" x="173.681641"/>
     <use xlink:href="#DejaVuSans-Bold-70" x="277.880859"/>
     <use xlink:href="#DejaVuSans-Bold-6c" x="349.462891"/>
     <use xlink:href="#DejaVuSans-Bold-65" x="383.740234"/>
     <use xlink:href="#DejaVuSans-Bold-6d" x="451.5625"/>
     <use xlink:href="#DejaVuSans-Bold-65" x="555.761719"/>
     <use xlink:href="#DejaVuSans-Bold-6e" x="623.583984"/>
     <use xlink:href="#DejaVuSans-Bold-74" x="694.775391"/>
     <use xlink:href="#DejaVuSans-Bold-61" x="742.578125"/>
     <use xlink:href="#DejaVuSans-Bold-72" x="810.058594"/>
     <use xlink:href="#DejaVuSans-Bold-69" x="859.375"/>
     <use xlink:href="#DejaVuSans-Bold-6f" x="893.652344"/>
     <use xlink:href="#DejaVuSans-Bold-29" x="962.353516"/>
    </g>
    <!-- → ↓D pasajes -->
    <g style="fill: #c0392b" transform="translate(908.891401 128.846762) scale(0.1 -0.1)">
     <defs>
      <path id="DejaVuSans-Bold-44" d="M 1791 3756 
L 1791 909 
L 2222 909 
Q 2959 909 3348 1275 
Q 3738 1641 3738 2338 
Q 3738 3031 3350 3393 
Q 2963 3756 2222 3756 
L 1791 3756 
z
M 588 4666 
L 1856 4666 
Q 2919 4666 3439 4514 
Q 3959 4363 4331 4000 
Q 4659 3684 4818 3271 
Q 4978 2859 4978 2338 
Q 4978 1809 4818 1395 
Q 4659 981 4331 666 
Q 3956 303 3431 151 
Q 2906 0 1856 0 
L 588 0 
L 588 4666 
z
" transform="scale(0.015625)"/>
     </defs>
     <use xlink:href="#DejaVuSans-Bold-2192"/>
     <use xlink:href="#DejaVuSans-Bold-20" x="83.789062"/>
     <use xlink:href="#DejaVuSans-Bold-2193" x="118.603516"/>
     <use xlink:href="#DejaVuSans-Bold-44" x="202.392578"/>
     <use xlink:href="#DejaVuSans-Bold-20" x="285.400391"/>
     <use xlink:href="#DejaVuSans-Bold-70" x="320.214844"/>
     <use xlink:href="#DejaVuSans-Bold-61" x="391.796875"/>
     <use xlink:href="#DejaVuSans-Bold-73" x="459.277344"/>
     <use xlink:href="#DejaVuSans-Bold-61" x="518.798828"/>
     <use xlink:href="#DejaVuSans-Bold-6a" x="586.279297"/>
     <use xlink:href="#DejaVuSans-Bold-65" x="620.556641"/>
     <use xlink:href="#DejaVuSans-Bold-73" x="688.378906"/>
    </g>
   </g>
  </g>
  <g id="axes_3">
   <g id="patch_19">
    <path d="M 1087.071953 492.331653 
L 1579.36162 492.331653 
L 1579.36162 50.677969 
L 1087.071953 50.677969 
z
" style="fill: #ffffff"/>
   </g>
   <g id="matplotlib.axis_5">
    <g id="xtick_13">
     <g id="line2d_70">
      <path d="M 1098.176232 492.331653 
L 1098.176232 50.677969 
" clip-path="url(#pcb162709ec)" style="fill: none; stroke-dasharray: 0.8,1.32; stroke-dashoffset: 0; stroke: #b0b0b0; stroke-opacity: 0.4; stroke-width: 0.8"/>
     </g>
     <g id="line2d_71">
      <g>
       <use xlink:href="#m9f1b0e72bc" x="1098.176232" y="482.36954" style="stroke: #000000"/>
      </g>
     </g>
     <g id="text_41">
      <!-- 0 -->
      <g transform="translate(1094.994982 493.467977) scale(0.1 -0.1)">
       <use xlink:href="#DejaVuSans-30"/>
      </g>
     </g>
    </g>
    <g id="xtick_14">
     <g id="line2d_72">
      <path d="M 1172.204753 492.331653 
L 1172.204753 50.677969 
" clip-path="url(#pcb162709ec)" style="fill: none; stroke-dasharray: 0.8,1.32; stroke-dashoffset: 0; stroke: #b0b0b0; stroke-opacity: 0.4; stroke-width: 0.8"/>
     </g>
     <g id="line2d_73">
      <g>
       <use xlink:href="#m9f1b0e72bc" x="1172.204753" y="482.36954" style="stroke: #000000"/>
      </g>
     </g>
     <g id="text_42">
      <!-- 2 -->
      <g transform="translate(1169.023503 493.467977) scale(0.1 -0.1)">
       <use xlink:href="#DejaVuSans-32"/>
      </g>
     </g>
    </g>
    <g id="xtick_15">
     <g id="line2d_74">
      <path d="M 1246.233274 492.331653 
L 1246.233274 50.677969 
" clip-path="url(#pcb162709ec)" style="fill: none; stroke-dasharray: 0.8,1.32; stroke-dashoffset: 0; stroke: #b0b0b0; stroke-opacity: 0.4; stroke-width: 0.8"/>
     </g>
     <g id="line2d_75">
      <g>
       <use xlink:href="#m9f1b0e72bc" x="1246.233274" y="482.36954" style="stroke: #000000"/>
      </g>
     </g>
     <g id="text_43">
      <!-- 4 -->
      <g transform="translate(1243.052024 493.467977) scale(0.1 -0.1)">
       <use xlink:href="#DejaVuSans-34"/>
      </g>
     </g>
    </g>
    <g id="xtick_16">
     <g id="line2d_76">
      <path d="M 1320.261796 492.331653 
L 1320.261796 50.677969 
" clip-path="url(#pcb162709ec)" style="fill: none; stroke-dasharray: 0.8,1.32; stroke-dashoffset: 0; stroke: #b0b0b0; stroke-opacity: 0.4; stroke-width: 0.8"/>
     </g>
     <g id="line2d_77">
      <g>
       <use xlink:href="#m9f1b0e72bc" x="1320.261796" y="482.36954" style="stroke: #000000"/>
      </g>
     </g>
     <g id="text_44">
      <!-- 6 -->
      <g transform="translate(1317.080546 493.467977) scale(0.1 -0.1)">
       <use xlink:href="#DejaVuSans-36"/>
      </g>
     </g>
    </g>
    <g id="xtick_17">
     <g id="line2d_78">
      <path d="M 1394.290317 492.331653 
L 1394.290317 50.677969 
" clip-path="url(#pcb162709ec)" style="fill: none; stroke-dasharray: 0.8,1.32; stroke-dashoffset: 0; stroke: #b0b0b0; stroke-opacity: 0.4; stroke-width: 0.8"/>
     </g>
     <g id="line2d_79">
      <g>
       <use xlink:href="#m9f1b0e72bc" x="1394.290317" y="482.36954" style="stroke: #000000"/>
      </g>
     </g>
     <g id="text_45">
      <!-- 8 -->
      <g transform="translate(1391.109067 493.467977) scale(0.1 -0.1)">
       <use xlink:href="#DejaVuSans-38"/>
      </g>
     </g>
    </g>
    <g id="xtick_18">
     <g id="line2d_80">
      <path d="M 1468.318838 492.331653 
L 1468.318838 50.677969 
" clip-path="url(#pcb162709ec)" style="fill: none; stroke-dasharray: 0.8,1.32; stroke-dashoffset: 0; stroke: #b0b0b0; stroke-opacity: 0.4; stroke-width: 0.8"/>
     </g>
     <g id="line2d_81">
      <g>
       <use xlink:href="#m9f1b0e72bc" x="1468.318838" y="482.36954" style="stroke: #000000"/>
      </g>
     </g>
     <g id="text_46">
      <!-- 10 -->
      <g transform="translate(1461.956338 493.467977) scale(0.1 -0.1)">
       <use xlink:href="#DejaVuSans-31"/>
       <use xlink:href="#DejaVuSans-30" x="63.623047"/>
      </g>
     </g>
    </g>
    <g id="xtick_19">
     <g id="line2d_82">
      <path d="M 1542.34736 492.331653 
L 1542.34736 50.677969 
" clip-path="url(#pcb162709ec)" style="fill: none; stroke-dasharray: 0.8,1.32; stroke-dashoffset: 0; stroke: #b0b0b0; stroke-opacity: 0.4; stroke-width: 0.8"/>
     </g>
     <g id="line2d_83">
      <g>
       <use xlink:href="#m9f1b0e72bc" x="1542.34736" y="482.36954" style="stroke: #000000"/>
      </g>
     </g>
     <g id="text_47">
      <!-- 12 -->
      <g transform="translate(1535.98486 493.467977) scale(0.1 -0.1)">
       <use xlink:href="#DejaVuSans-31"/>
       <use xlink:href="#DejaVuSans-32" x="63.623047"/>
      </g>
     </g>
    </g>
    <g id="text_48">
     <!-- Q -->
     <g transform="translate(1569.159745 502.66579) scale(0.12 -0.12)">
      <use xlink:href="#DejaVuSans-Bold-51"/>
     </g>
    </g>
   </g>
   <g id="matplotlib.axis_6">
    <g id="ytick_13">
     <g id="line2d_84">
      <path d="M 1087.071953 482.36954 
L 1579.36162 482.36954 
" clip-path="url(#pcb162709ec)" style="fill: none; stroke-dasharray: 0.8,1.32; stroke-dashoffset: 0; stroke: #b0b0b0; stroke-opacity: 0.4; stroke-width: 0.8"/>
     </g>
     <g id="line2d_85">
      <g>
       <use xlink:href="#m361b9f579c" x="1098.176232" y="482.36954" style="stroke: #000000"/>
      </g>
     </g>
     <g id="text_49">
      <!-- 0 -->
      <g transform="translate(1088.313732 486.168759) scale(0.1 -0.1)">
       <use xlink:href="#DejaVuSans-30"/>
      </g>
     </g>
    </g>
    <g id="ytick_14">
     <g id="line2d_86">
      <path d="M 1087.071953 415.955452 
L 1579.36162 415.955452 
" clip-path="url(#pcb162709ec)" style="fill: none; stroke-dasharray: 0.8,1.32; stroke-dashoffset: 0; stroke: #b0b0b0; stroke-opacity: 0.4; stroke-width: 0.8"/>
     </g>
     <g id="line2d_87">
      <g>
       <use xlink:href="#m361b9f579c" x="1098.176232" y="415.955452" style="stroke: #000000"/>
      </g>
     </g>
     <g id="text_50">
      <!-- 2 -->
      <g transform="translate(1088.313732 419.754671) scale(0.1 -0.1)">
       <use xlink:href="#DejaVuSans-32"/>
      </g>
     </g>
    </g>
    <g id="ytick_15">
     <g id="line2d_88">
      <path d="M 1087.071953 349.541364 
L 1579.36162 349.541364 
" clip-path="url(#pcb162709ec)" style="fill: none; stroke-dasharray: 0.8,1.32; stroke-dashoffset: 0; stroke: #b0b0b0; stroke-opacity: 0.4; stroke-width: 0.8"/>
     </g>
     <g id="line2d_89">
      <g>
       <use xlink:href="#m361b9f579c" x="1098.176232" y="349.541364" style="stroke: #000000"/>
      </g>
     </g>
     <g id="text_51">
      <!-- 4 -->
      <g transform="translate(1088.313732 353.340583) scale(0.1 -0.1)">
       <use xlink:href="#DejaVuSans-34"/>
      </g>
     </g>
    </g>
    <g id="ytick_16">
     <g id="line2d_90">
      <path d="M 1087.071953 283.127276 
L 1579.36162 283.127276 
" clip-path="url(#pcb162709ec)" style="fill: none; stroke-dasharray: 0.8,1.32; stroke-dashoffset: 0; stroke: #b0b0b0; stroke-opacity: 0.4; stroke-width: 0.8"/>
     </g>
     <g id="line2d_91">
      <g>
       <use xlink:href="#m361b9f579c" x="1098.176232" y="283.127276" style="stroke: #000000"/>
      </g>
     </g>
     <g id="text_52">
      <!-- 6 -->
      <g transform="translate(1088.313732 286.926495) scale(0.1 -0.1)">
       <use xlink:href="#DejaVuSans-36"/>
      </g>
     </g>
    </g>
    <g id="ytick_17">
     <g id="line2d_92">
      <path d="M 1087.071953 216.713188 
L 1579.36162 216.713188 
" clip-path="url(#pcb162709ec)" style="fill: none; stroke-dasharray: 0.8,1.32; stroke-dashoffset: 0; stroke: #b0b0b0; stroke-opacity: 0.4; stroke-width: 0.8"/>
     </g>
     <g id="line2d_93">
      <g>
       <use xlink:href="#m361b9f579c" x="1098.176232" y="216.713188" style="stroke: #000000"/>
      </g>
     </g>
     <g id="text_53">
      <!-- 8 -->
      <g transform="translate(1088.313732 220.512407) scale(0.1 -0.1)">
       <use xlink:href="#DejaVuSans-38"/>
      </g>
     </g>
    </g>
    <g id="ytick_18">
     <g id="line2d_94">
      <path d="M 1087.071953 150.299101 
L 1579.36162 150.299101 
" clip-path="url(#pcb162709ec)" style="fill: none; stroke-dasharray: 0.8,1.32; stroke-dashoffset: 0; stroke: #b0b0b0; stroke-opacity: 0.4; stroke-width: 0.8"/>
     </g>
     <g id="line2d_95">
      <g>
       <use xlink:href="#m361b9f579c" x="1098.176232" y="150.299101" style="stroke: #000000"/>
      </g>
     </g>
     <g id="text_54">
      <!-- 10 -->
      <g transform="translate(1081.951232 154.098319) scale(0.1 -0.1)">
       <use xlink:href="#DejaVuSans-31"/>
       <use xlink:href="#DejaVuSans-30" x="63.623047"/>
      </g>
     </g>
    </g>
    <g id="ytick_19">
     <g id="line2d_96">
      <path d="M 1087.071953 83.885013 
L 1579.36162 83.885013 
" clip-path="url(#pcb162709ec)" style="fill: none; stroke-dasharray: 0.8,1.32; stroke-dashoffset: 0; stroke: #b0b0b0; stroke-opacity: 0.4; stroke-width: 0.8"/>
     </g>
     <g id="line2d_97">
      <g>
       <use xlink:href="#m361b9f579c" x="1098.176232" y="83.885013" style="stroke: #000000"/>
      </g>
     </g>
     <g id="text_55">
      <!-- 12 -->
      <g transform="translate(1081.951232 87.684231) scale(0.1 -0.1)">
       <use xlink:href="#DejaVuSans-31"/>
       <use xlink:href="#DejaVuSans-32" x="63.623047"/>
      </g>
     </g>
    </g>
    <g id="text_56">
     <!-- P -->
     <g transform="translate(1075.155607 48.182344) scale(0.12 -0.12)">
      <use xlink:href="#DejaVuSans-Bold-50"/>
     </g>
    </g>
   </g>
   <g id="line2d_98">
    <path d="M 1098.176232 150.299101 
L 1468.318838 482.36954 
L 1468.318838 482.36954 
" clip-path="url(#pcb162709ec)" style="fill: none; stroke: #c0392b; stroke-width: 3; stroke-linecap: square"/>
   </g>
   <g id="line2d_99">
    <path d="M 1098.176232 83.885013 
L 1468.318838 415.955452 
L 1468.318838 415.955452 
" clip-path="url(#pcb162709ec)" style="fill: none; stroke-dasharray: 11.1,4.8; stroke-dashoffset: 0; stroke: #c0392b; stroke-width: 3"/>
   </g>
   <g id="line2d_100">
    <path d="M 1098.176232 449.162496 
L 1468.318838 117.092057 
L 1468.318838 117.092057 
" clip-path="url(#pcb162709ec)" style="fill: none; stroke: #2980b9; stroke-opacity: 0.4; stroke-width: 3; stroke-linecap: square"/>
   </g>
   <g id="line2d_101">
    <path d="M 1098.176232 349.541364 
L 1468.318838 17.470925 
L 1468.318838 17.470925 
" clip-path="url(#pcb162709ec)" style="fill: none; stroke: #2980b9; stroke-width: 3; stroke-linecap: square"/>
   </g>
   <g id="line2d_102">
    <g clip-path="url(#pcb162709ec)">
     <use xlink:href="#m120ec9aac5" x="1264.740405" y="299.730798" style="fill-opacity: 0.4; stroke: #000000; stroke-opacity: 0.4"/>
    </g>
   </g>
   <g id="line2d_103">
    <g>
     <use xlink:href="#m574c8f9e45" x="1579.36162" y="482.36954" style="stroke: #000000; stroke-linejoin: miter"/>
    </g>
   </g>
   <g id="line2d_104">
    <g>
     <use xlink:href="#mb4a58ef889" x="1098.176232" y="50.677969" style="stroke: #000000; stroke-linejoin: miter"/>
    </g>
   </g>
   <g id="patch_20">
    <path d="M 1098.176232 492.331653 
L 1098.176232 50.677969 
" style="fill: none; stroke: #000000; stroke-width: 1.4; stroke-linejoin: miter; stroke-linecap: square"/>
   </g>
   <g id="patch_21">
    <path d="M 1087.071953 482.36954 
L 1579.36162 482.36954 
" style="fill: none; stroke: #000000; stroke-width: 1.4; stroke-linejoin: miter; stroke-linecap: square"/>
   </g>
   <g id="patch_22">
    <path d="M 1322.263421 349.541364 
Q 1357.27674 349.541364 1389.830384 349.541364 
" style="fill: none; stroke: #c0392b; stroke-width: 2.2; stroke-linecap: round"/>
    <path d="M 1385.030384 347.141364 
L 1389.830384 349.541364 
L 1385.030384 351.941364 
" style="fill: none; stroke: #c0392b; stroke-width: 2.2; stroke-linecap: round"/>
   </g>
   <g id="text_57">
    <!-- (c) Mantener Q₀ → ↓ P_valijas -->
    <g transform="translate(1226.024678 38.677969) scale(0.13 -0.13)">
     <use xlink:href="#DejaVuSans-Bold-28"/>
     <use xlink:href="#DejaVuSans-Bold-63" x="45.703125"/>
     <use xlink:href="#DejaVuSans-Bold-29" x="104.980469"/>
     <use xlink:href="#DejaVuSans-Bold-20" x="150.683594"/>
     <use xlink:href="#DejaVuSans-Bold-4d" x="185.498047"/>
     <use xlink:href="#DejaVuSans-Bold-61" x="285.009766"/>
     <use xlink:href="#DejaVuSans-Bold-6e" x="352.490234"/>
     <use xlink:href="#DejaVuSans-Bold-74" x="423.681641"/>
     <use xlink:href="#DejaVuSans-Bold-65" x="471.484375"/>
     <use xlink:href="#DejaVuSans-Bold-6e" x="539.306641"/>
     <use xlink:href="#DejaVuSans-Bold-65" x="610.498047"/>
     <use xlink:href="#DejaVuSans-Bold-72" x="678.320312"/>
     <use xlink:href="#DejaVuSans-Bold-20" x="727.636719"/>
     <use xlink:href="#DejaVuSans-Bold-51" x="762.451172"/>
     <use xlink:href="#DejaVuSans-Bold-2080" x="847.460938"/>
     <use xlink:href="#DejaVuSans-Bold-20" x="891.259766"/>
     <use xlink:href="#DejaVuSans-Bold-2192" x="926.074219"/>
     <use xlink:href="#DejaVuSans-Bold-20" x="1009.863281"/>
     <use xlink:href="#DejaVuSans-Bold-2193" x="1044.677734"/>
     <use xlink:href="#DejaVuSans-Bold-20" x="1128.466797"/>
     <use xlink:href="#DejaVuSans-Bold-50" x="1163.28125"/>
     <use xlink:href="#DejaVuSans-Bold-5f" x="1236.572266"/>
     <use xlink:href="#DejaVuSans-Bold-76" x="1286.572266"/>
     <use xlink:href="#DejaVuSans-Bold-61" x="1351.757812"/>
     <use xlink:href="#DejaVuSans-Bold-6c" x="1419.238281"/>
     <use xlink:href="#DejaVuSans-Bold-69" x="1453.515625"/>
     <use xlink:href="#DejaVuSans-Bold-6a" x="1487.792969"/>
     <use xlink:href="#DejaVuSans-Bold-61" x="1522.070312"/>
     <use xlink:href="#DejaVuSans-Bold-73" x="1589.550781"/>
    </g>
   </g>
   <g id="legend_3">
    <g id="patch_23">
     <path d="M 1093.371953 487.831653 
L 1216.791485 487.831653 
Q 1218.591485 487.831653 1218.591485 486.031653 
L 1218.591485 447.050403 
Q 1218.591485 445.250403 1216.791485 445.250403 
L 1093.371953 445.250403 
Q 1091.571953 445.250403 1091.571953 447.050403 
L 1091.571953 486.031653 
Q 1091.571953 487.831653 1093.371953 487.831653 
z
" style="fill: #ffffff; opacity: 0.8; stroke: #cccccc; stroke-linejoin: miter"/>
    </g>
    <g id="line2d_105">
     <path d="M 1095.171953 452.538997 
L 1104.171953 452.538997 
L 1113.171953 452.538997 
" style="fill: none; stroke: #c0392b; stroke-width: 3; stroke-linecap: square"/>
    </g>
    <g id="text_58">
     <!-- D₀ -->
     <g transform="translate(1120.371953 455.688997) scale(0.09 -0.09)">
      <use xlink:href="#DejaVuSans-44"/>
      <use xlink:href="#DejaVuSans-2080" x="77.001953"/>
     </g>
    </g>
    <g id="line2d_106">
     <path d="M 1095.171953 465.749309 
L 1104.171953 465.749309 
L 1113.171953 465.749309 
" style="fill: none; stroke-dasharray: 11.1,4.8; stroke-dashoffset: 0; stroke: #c0392b; stroke-width: 3"/>
    </g>
    <g id="text_59">
     <!-- D₂ (↑ por ↓P_valijas) -->
     <g transform="translate(1120.371953 468.899309) scale(0.09 -0.09)">
      <defs>
       <path id="DejaVuSans-2082" d="M 838 332 
L 2163 332 
L 2163 -24 
L 294 -24 
L 294 319 
Q 400 416 597 591 
Q 1672 1544 1672 1838 
Q 1672 2044 1509 2170 
Q 1347 2297 1081 2297 
Q 919 2297 728 2242 
Q 538 2188 313 2079 
L 313 2463 
Q 553 2551 761 2594 
Q 969 2638 1147 2638 
Q 1600 2638 1872 2432 
Q 2144 2226 2144 1888 
Q 2144 1454 1109 566 
Q 934 416 838 332 
z
" transform="scale(0.015625)"/>
      </defs>
      <use xlink:href="#DejaVuSans-44"/>
      <use xlink:href="#DejaVuSans-2082" x="77.001953"/>
      <use xlink:href="#DejaVuSans-20" x="117.089844"/>
      <use xlink:href="#DejaVuSans-28" x="148.876953"/>
      <use xlink:href="#DejaVuSans-2191" x="187.890625"/>
      <use xlink:href="#DejaVuSans-20" x="271.679688"/>
      <use xlink:href="#DejaVuSans-70" x="303.466797"/>
      <use xlink:href="#DejaVuSans-6f" x="366.943359"/>
      <use xlink:href="#DejaVuSans-72" x="428.125"/>
      <use xlink:href="#DejaVuSans-20" x="469.238281"/>
      <use xlink:href="#DejaVuSans-2193" x="501.025391"/>
      <use xlink:href="#DejaVuSans-50" x="584.814453"/>
      <use xlink:href="#DejaVuSans-5f" x="645.117188"/>
      <use xlink:href="#DejaVuSans-76" x="695.117188"/>
      <use xlink:href="#DejaVuSans-61" x="754.296875"/>
      <use xlink:href="#DejaVuSans-6c" x="815.576172"/>
      <use xlink:href="#DejaVuSans-69" x="843.359375"/>
      <use xlink:href="#DejaVuSans-6a" x="871.142578"/>
      <use xlink:href="#DejaVuSans-61" x="898.925781"/>
      <use xlink:href="#DejaVuSans-73" x="960.205078"/>
      <use xlink:href="#DejaVuSans-29" x="1012.304688"/>
     </g>
    </g>
    <g id="line2d_107">
     <path d="M 1095.171953 479.209934 
L 1104.171953 479.209934 
L 1113.171953 479.209934 
" style="fill: none; stroke: #2980b9; stroke-width: 3; stroke-linecap: square"/>
    </g>
    <g id="text_60">
     <!-- S₁ -->
     <g transform="translate(1120.371953 482.359934) scale(0.09 -0.09)">
      <use xlink:href="#DejaVuSans-53"/>
      <use xlink:href="#DejaVuSans-2081" x="63.476562"/>
     </g>
    </g>
   </g>
   <g id="line2d_108">
    <g clip-path="url(#pcb162709ec)">
     <use xlink:href="#mf52d5faf2e" x="1246.233274" y="216.713188" style="fill: #27ae60; stroke: #27ae60"/>
    </g>
   </g>
   <g id="patch_24">
    <path d="M 1320.011712 156.990856 
Q 1283.9004 186.22232 1248.658092 214.750342 
" style="fill: none; stroke: #27ae60; stroke-linecap: round"/>
    <path d="M 1253.025492 213.788148 
L 1248.658092 214.750342 
L 1250.508777 210.679106 
" style="fill: none; stroke: #27ae60; stroke-linecap: round"/>
   </g>
   <g id="text_61">
    <g id="patch_25">
     <path d="M 1298.079864 155.378788 
L 1379.457989 155.378788 
Q 1382.457989 155.378788 1382.457989 152.378788 
L 1382.457989 130.957538 
Q 1382.457989 127.957538 1379.457989 127.957538 
L 1298.079864 127.957538 
Q 1295.079864 127.957538 1295.079864 130.957538 
L 1295.079864 152.378788 
Q 1295.079864 155.378788 1298.079864 155.378788 
z
" style="fill: #fffbeb; opacity: 0.97; stroke: #f39c12; stroke-width: 0.7; stroke-linejoin: miter"/>
    </g>
    <!-- E_c (P↑↑, Q₀) -->
    <g style="fill: #27ae60" transform="translate(1301.453301 138.823163) scale(0.1 -0.1)">
     <use xlink:href="#DejaVuSans-Bold-45"/>
     <use xlink:href="#DejaVuSans-Bold-5f" x="68.310547"/>
     <use xlink:href="#DejaVuSans-Bold-63" x="118.310547"/>
     <use xlink:href="#DejaVuSans-Bold-20" x="177.587891"/>
     <use xlink:href="#DejaVuSans-Bold-28" x="212.402344"/>
     <use xlink:href="#DejaVuSans-Bold-50" x="258.105469"/>
     <use xlink:href="#DejaVuSans-Bold-2191" x="331.396484"/>
     <use xlink:href="#DejaVuSans-Bold-2191" x="415.185547"/>
     <use xlink:href="#DejaVuSans-Bold-2c" x="498.974609"/>
     <use xlink:href="#DejaVuSans-Bold-20" x="536.962891"/>
     <use xlink:href="#DejaVuSans-Bold-51" x="571.777344"/>
     <use xlink:href="#DejaVuSans-Bold-2080" x="656.787109"/>
     <use xlink:href="#DejaVuSans-Bold-29" x="700.585938"/>
    </g>
    <!-- Q se mantiene -->
    <g style="fill: #27ae60" transform="translate(1298.079864 150.299101) scale(0.1 -0.1)">
     <use xlink:href="#DejaVuSans-Bold-51"/>
     <use xlink:href="#DejaVuSans-Bold-20" x="85.009766"/>
     <use xlink:href="#DejaVuSans-Bold-73" x="119.824219"/>
     <use xlink:href="#DejaVuSans-Bold-65" x="179.345703"/>
     <use xlink:href="#DejaVuSans-Bold-20" x="247.167969"/>
     <use xlink:href="#DejaVuSans-Bold-6d" x="281.982422"/>
     <use xlink:href="#DejaVuSans-Bold-61" x="386.181641"/>
     <use xlink:href="#DejaVuSans-Bold-6e" x="453.662109"/>
     <use xlink:href="#DejaVuSans-Bold-74" x="524.853516"/>
     <use xlink:href="#DejaVuSans-Bold-69" x="572.65625"/>
     <use xlink:href="#DejaVuSans-Bold-65" x="606.933594"/>
     <use xlink:href="#DejaVuSans-Bold-6e" x="674.755859"/>
     <use xlink:href="#DejaVuSans-Bold-65" x="745.947266"/>
    </g>
   </g>
   <g id="text_62">
    <g id="patch_26">
     <path d="M 1380.900671 437.716786 
L 1481.708484 437.716786 
Q 1484.708484 437.716786 1484.708484 434.716786 
L 1484.708484 402.086786 
Q 1484.708484 399.086786 1481.708484 399.086786 
L 1380.900671 399.086786 
Q 1377.900671 399.086786 1377.900671 402.086786 
L 1377.900671 434.716786 
Q 1377.900671 437.716786 1380.900671 437.716786 
z
" style="fill: #fffbeb; opacity: 0.97; stroke: #f39c12; stroke-width: 0.7; stroke-linejoin: miter"/>
    </g>
    <!-- ↓ P_valijas -->
    <g style="fill: #c0392b" transform="translate(1401.083484 409.885224) scale(0.1 -0.1)">
     <use xlink:href="#DejaVuSans-Bold-2193"/>
     <use xlink:href="#DejaVuSans-Bold-20" x="83.789062"/>
     <use xlink:href="#DejaVuSans-Bold-50" x="118.603516"/>
     <use xlink:href="#DejaVuSans-Bold-5f" x="191.894531"/>
     <use xlink:href="#DejaVuSans-Bold-76" x="241.894531"/>
     <use xlink:href="#DejaVuSans-Bold-61" x="307.080078"/>
     <use xlink:href="#DejaVuSans-Bold-6c" x="374.560547"/>
     <use xlink:href="#DejaVuSans-Bold-69" x="408.837891"/>
     <use xlink:href="#DejaVuSans-Bold-6a" x="443.115234"/>
     <use xlink:href="#DejaVuSans-Bold-61" x="477.392578"/>
     <use xlink:href="#DejaVuSans-Bold-73" x="544.873047"/>
    </g>
    <!-- (complementario) -->
    <g style="fill: #c0392b" transform="translate(1380.900671 421.361161) scale(0.1 -0.1)">
     <use xlink:href="#DejaVuSans-Bold-28"/>
     <use xlink:href="#DejaVuSans-Bold-63" x="45.703125"/>
     <use xlink:href="#DejaVuSans-Bold-6f" x="104.980469"/>
     <use xlink:href="#DejaVuSans-Bold-6d" x="173.681641"/>
     <use xlink:href="#DejaVuSans-Bold-70" x="277.880859"/>
     <use xlink:href="#DejaVuSans-Bold-6c" x="349.462891"/>
     <use xlink:href="#DejaVuSans-Bold-65" x="383.740234"/>
     <use xlink:href="#DejaVuSans-Bold-6d" x="451.5625"/>
     <use xlink:href="#DejaVuSans-Bold-65" x="555.761719"/>
     <use xlink:href="#DejaVuSans-Bold-6e" x="623.583984"/>
     <use xlink:href="#DejaVuSans-Bold-74" x="694.775391"/>
     <use xlink:href="#DejaVuSans-Bold-61" x="742.578125"/>
     <use xlink:href="#DejaVuSans-Bold-72" x="810.058594"/>
     <use xlink:href="#DejaVuSans-Bold-69" x="859.375"/>
     <use xlink:href="#DejaVuSans-Bold-6f" x="893.652344"/>
     <use xlink:href="#DejaVuSans-Bold-29" x="962.353516"/>
    </g>
    <!-- → ↑D pasajes -->
    <g style="fill: #c0392b" transform="translate(1393.908484 432.558974) scale(0.1 -0.1)">
     <use xlink:href="#DejaVuSans-Bold-2192"/>
     <use xlink:href="#DejaVuSans-Bold-20" x="83.789062"/>
     <use xlink:href="#DejaVuSans-Bold-2191" x="118.603516"/>
     <use xlink:href="#DejaVuSans-Bold-44" x="202.392578"/>
     <use xlink:href="#DejaVuSans-Bold-20" x="285.400391"/>
     <use xlink:href="#DejaVuSans-Bold-70" x="320.214844"/>
     <use xlink:href="#DejaVuSans-Bold-61" x="391.796875"/>
     <use xlink:href="#DejaVuSans-Bold-73" x="459.277344"/>
     <use xlink:href="#DejaVuSans-Bold-61" x="518.798828"/>
     <use xlink:href="#DejaVuSans-Bold-6a" x="586.279297"/>
     <use xlink:href="#DejaVuSans-Bold-65" x="620.556641"/>
     <use xlink:href="#DejaVuSans-Bold-73" x="688.378906"/>
    </g>
   </g>
  </g>
 </g>
 <defs>
  <clipPath id="p20f5bf3493">
   <rect x="38.750988" y="50.677969" width="492.289667" height="441.653684"/>
  </clipPath>
  <clipPath id="p00dc88f97a">
   <rect x="562.911471" y="50.677969" width="492.289667" height="441.653684"/>
  </clipPath>
  <clipPath id="pcb162709ec">
   <rect x="1087.071953" y="50.677969" width="492.289667" height="441.653684"/>
  </clipPath>
 </defs>
</svg>
