<?xml version="1.0" encoding="utf-8" standalone="no"?>
<!DOCTYPE svg PUBLIC "-//W3C//DTD SVG 1.1//EN"
  "http://www.w3.org/Graphics/SVG/1.1/DTD/svg11.dtd">
<svg xmlns:xlink="http://www.w3.org/1999/xlink" width="1250.051991pt" height="534.92pt" viewBox="0 0 1250.051991 534.92" xmlns="http://www.w3.org/2000/svg" version="1.1">
 <metadata>
  <rdf:RDF xmlns:dc="http://purl.org/dc/elements/1.1/" xmlns:cc="http://creativecommons.org/ns#" xmlns:rdf="http://www.w3.org/1999/02/22-rdf-syntax-ns#">
   <cc:Work>
    <dc:type rdf:resource="http://purl.org/dc/dcmitype/StillImage"/>
    <dc:date>2026-04-28T17:41:35.811438</dc:date>
    <dc:format>image/svg+xml</dc:format>
    <dc:creator>
     <cc:Agent>
      <dc:title>Matplotlib v3.9.2, https://matplotlib.org/</dc:title>
     </cc:Agent>
    </dc:creator>
   </cc:Work>
  </rdf:RDF>
 </metadata>
 <defs>
  <style type="text/css">*{stroke-linejoin: round; stroke-linecap: butt}</style>
 </defs>
 <g id="figure_1">
  <g id="patch_1">
   <path d="M 0 534.92 
L 1250.051991 534.92 
L 1250.051991 0 
L 0 0 
z
" style="fill: #ffffff"/>
  </g>
  <g id="axes_1">
   <g id="patch_2">
    <path d="M 51.437579 506.12 
L 612.586357 506.12 
L 612.586357 51.2 
L 51.437579 51.2 
z
" style="fill: #ffffff"/>
   </g>
   <g id="matplotlib.axis_1">
    <g id="xtick_1">
     <g id="line2d_1">
      <path d="M 75.31625 506.12 
L 75.31625 51.2 
" clip-path="url(#p2d7e59c549)" style="fill: none; stroke-dasharray: 0.8,1.32; stroke-dashoffset: 0; stroke: #b0b0b0; stroke-opacity: 0.4; stroke-width: 0.8"/>
     </g>
     <g id="line2d_2">
      <defs>
       <path id="me83d1c6010" d="M 0 0 
L 0 -4 
" style="stroke: #000000"/>
      </defs>
      <g>
       <use xlink:href="#me83d1c6010" x="75.31625" y="461.37377" style="stroke: #000000"/>
      </g>
     </g>
     <g id="text_1">
      <!-- 0 -->
      <g transform="translate(72.135 472.472208) scale(0.1 -0.1)">
       <defs>
        <path id="DejaVuSans-30" d="M 2034 4250 
Q 1547 4250 1301 3770 
Q 1056 3291 1056 2328 
Q 1056 1369 1301 889 
Q 1547 409 2034 409 
Q 2525 409 2770 889 
Q 3016 1369 3016 2328 
Q 3016 3291 2770 3770 
Q 2525 4250 2034 4250 
z
M 2034 4750 
Q 2819 4750 3233 4129 
Q 3647 3509 3647 2328 
Q 3647 1150 3233 529 
Q 2819 -91 2034 -91 
Q 1250 -91 836 529 
Q 422 1150 422 2328 
Q 422 3509 836 4129 
Q 1250 4750 2034 4750 
z
" transform="scale(0.015625)"/>
       </defs>
       <use xlink:href="#DejaVuSans-30"/>
      </g>
     </g>
    </g>
    <g id="xtick_2">
     <g id="line2d_3">
      <path d="M 194.709607 506.12 
L 194.709607 51.2 
" clip-path="url(#p2d7e59c549)" style="fill: none; stroke-dasharray: 0.8,1.32; stroke-dashoffset: 0; stroke: #b0b0b0; stroke-opacity: 0.4; stroke-width: 0.8"/>
     </g>
     <g id="line2d_4">
      <g>
       <use xlink:href="#me83d1c6010" x="194.709607" y="461.37377" style="stroke: #000000"/>
      </g>
     </g>
     <g id="text_2">
      <!-- 10000 -->
      <g transform="translate(178.803357 472.472208) scale(0.1 -0.1)">
       <defs>
        <path id="DejaVuSans-31" d="M 794 531 
L 1825 531 
L 1825 4091 
L 703 3866 
L 703 4441 
L 1819 4666 
L 2450 4666 
L 2450 531 
L 3481 531 
L 3481 0 
L 794 0 
L 794 531 
z
" transform="scale(0.015625)"/>
       </defs>
       <use xlink:href="#DejaVuSans-31"/>
       <use xlink:href="#DejaVuSans-30" x="63.623047"/>
       <use xlink:href="#DejaVuSans-30" x="127.246094"/>
       <use xlink:href="#DejaVuSans-30" x="190.869141"/>
       <use xlink:href="#DejaVuSans-30" x="254.492188"/>
      </g>
     </g>
    </g>
    <g id="xtick_3">
     <g id="line2d_5">
      <path d="M 314.102964 506.12 
L 314.102964 51.2 
" clip-path="url(#p2d7e59c549)" style="fill: none; stroke-dasharray: 0.8,1.32; stroke-dashoffset: 0; stroke: #b0b0b0; stroke-opacity: 0.4; stroke-width: 0.8"/>
     </g>
     <g id="line2d_6">
      <g>
       <use xlink:href="#me83d1c6010" x="314.102964" y="461.37377" style="stroke: #000000"/>
      </g>
     </g>
     <g id="text_3">
      <!-- 20000 -->
      <g transform="translate(298.196714 472.472208) scale(0.1 -0.1)">
       <defs>
        <path id="DejaVuSans-32" d="M 1228 531 
L 3431 531 
L 3431 0 
L 469 0 
L 469 531 
Q 828 903 1448 1529 
Q 2069 2156 2228 2338 
Q 2531 2678 2651 2914 
Q 2772 3150 2772 3378 
Q 2772 3750 2511 3984 
Q 2250 4219 1831 4219 
Q 1534 4219 1204 4116 
Q 875 4013 500 3803 
L 500 4441 
Q 881 4594 1212 4672 
Q 1544 4750 1819 4750 
Q 2544 4750 2975 4387 
Q 3406 4025 3406 3419 
Q 3406 3131 3298 2873 
Q 3191 2616 2906 2266 
Q 2828 2175 2409 1742 
Q 1991 1309 1228 531 
z
" transform="scale(0.015625)"/>
       </defs>
       <use xlink:href="#DejaVuSans-32"/>
       <use xlink:href="#DejaVuSans-30" x="63.623047"/>
       <use xlink:href="#DejaVuSans-30" x="127.246094"/>
       <use xlink:href="#DejaVuSans-30" x="190.869141"/>
       <use xlink:href="#DejaVuSans-30" x="254.492188"/>
      </g>
     </g>
    </g>
    <g id="xtick_4">
     <g id="line2d_7">
      <path d="M 433.496321 506.12 
L 433.496321 51.2 
" clip-path="url(#p2d7e59c549)" style="fill: none; stroke-dasharray: 0.8,1.32; stroke-dashoffset: 0; stroke: #b0b0b0; stroke-opacity: 0.4; stroke-width: 0.8"/>
     </g>
     <g id="line2d_8">
      <g>
       <use xlink:href="#me83d1c6010" x="433.496321" y="461.37377" style="stroke: #000000"/>
      </g>
     </g>
     <g id="text_4">
      <!-- 30000 -->
      <g transform="translate(417.590071 472.472208) scale(0.1 -0.1)">
       <defs>
        <path id="DejaVuSans-33" d="M 2597 2516 
Q 3050 2419 3304 2112 
Q 3559 1806 3559 1356 
Q 3559 666 3084 287 
Q 2609 -91 1734 -91 
Q 1441 -91 1130 -33 
Q 819 25 488 141 
L 488 750 
Q 750 597 1062 519 
Q 1375 441 1716 441 
Q 2309 441 2620 675 
Q 2931 909 2931 1356 
Q 2931 1769 2642 2001 
Q 2353 2234 1838 2234 
L 1294 2234 
L 1294 2753 
L 1863 2753 
Q 2328 2753 2575 2939 
Q 2822 3125 2822 3475 
Q 2822 3834 2567 4026 
Q 2313 4219 1838 4219 
Q 1578 4219 1281 4162 
Q 984 4106 628 3988 
L 628 4550 
Q 988 4650 1302 4700 
Q 1616 4750 1894 4750 
Q 2613 4750 3031 4423 
Q 3450 4097 3450 3541 
Q 3450 3153 3228 2886 
Q 3006 2619 2597 2516 
z
" transform="scale(0.015625)"/>
       </defs>
       <use xlink:href="#DejaVuSans-33"/>
       <use xlink:href="#DejaVuSans-30" x="63.623047"/>
       <use xlink:href="#DejaVuSans-30" x="127.246094"/>
       <use xlink:href="#DejaVuSans-30" x="190.869141"/>
       <use xlink:href="#DejaVuSans-30" x="254.492188"/>
      </g>
     </g>
    </g>
    <g id="xtick_5">
     <g id="line2d_9">
      <path d="M 552.889678 506.12 
L 552.889678 51.2 
" clip-path="url(#p2d7e59c549)" style="fill: none; stroke-dasharray: 0.8,1.32; stroke-dashoffset: 0; stroke: #b0b0b0; stroke-opacity: 0.4; stroke-width: 0.8"/>
     </g>
     <g id="line2d_10">
      <g>
       <use xlink:href="#me83d1c6010" x="552.889678" y="461.37377" style="stroke: #000000"/>
      </g>
     </g>
     <g id="text_5">
      <!-- 40000 -->
      <g transform="translate(536.983428 472.472208) scale(0.1 -0.1)">
       <defs>
        <path id="DejaVuSans-34" d="M 2419 4116 
L 825 1625 
L 2419 1625 
L 2419 4116 
z
M 2253 4666 
L 3047 4666 
L 3047 1625 
L 3713 1625 
L 3713 1100 
L 3047 1100 
L 3047 0 
L 2419 0 
L 2419 1100 
L 313 1100 
L 313 1709 
L 2253 4666 
z
" transform="scale(0.015625)"/>
       </defs>
       <use xlink:href="#DejaVuSans-34"/>
       <use xlink:href="#DejaVuSans-30" x="63.623047"/>
       <use xlink:href="#DejaVuSans-30" x="127.246094"/>
       <use xlink:href="#DejaVuSans-30" x="190.869141"/>
       <use xlink:href="#DejaVuSans-30" x="254.492188"/>
      </g>
     </g>
    </g>
    <g id="text_6">
     <!-- Q (canchas-hora) -->
     <g transform="translate(496.805107 481.67002) scale(0.12 -0.12)">
      <defs>
       <path id="DejaVuSans-Bold-51" d="M 2847 -84 
L 2753 -84 
Q 1600 -84 959 553 
Q 319 1191 319 2328 
Q 319 3463 958 4106 
Q 1597 4750 2719 4750 
Q 3853 4750 4486 4112 
Q 5119 3475 5119 2328 
Q 5119 1541 4783 972 
Q 4447 403 3816 116 
L 4756 -934 
L 3609 -934 
L 2847 -84 
z
M 2719 3878 
Q 2169 3878 1866 3472 
Q 1563 3066 1563 2328 
Q 1563 1578 1859 1179 
Q 2156 781 2719 781 
Q 3272 781 3575 1187 
Q 3878 1594 3878 2328 
Q 3878 3066 3575 3472 
Q 3272 3878 2719 3878 
z
" transform="scale(0.015625)"/>
       <path id="DejaVuSans-Bold-20" transform="scale(0.015625)"/>
       <path id="DejaVuSans-Bold-28" d="M 2413 -844 
L 1484 -844 
Q 1006 -72 778 623 
Q 550 1319 550 2003 
Q 550 2688 779 3389 
Q 1009 4091 1484 4856 
L 2413 4856 
Q 2013 4116 1813 3408 
Q 1613 2700 1613 2009 
Q 1613 1319 1811 609 
Q 2009 -100 2413 -844 
z
" transform="scale(0.015625)"/>
       <path id="DejaVuSans-Bold-63" d="M 3366 3391 
L 3366 2478 
Q 3138 2634 2908 2709 
Q 2678 2784 2431 2784 
Q 1963 2784 1702 2511 
Q 1441 2238 1441 1747 
Q 1441 1256 1702 982 
Q 1963 709 2431 709 
Q 2694 709 2930 787 
Q 3166 866 3366 1019 
L 3366 103 
Q 3103 6 2833 -42 
Q 2563 -91 2291 -91 
Q 1344 -91 809 395 
Q 275 881 275 1747 
Q 275 2613 809 3098 
Q 1344 3584 2291 3584 
Q 2566 3584 2833 3536 
Q 3100 3488 3366 3391 
z
" transform="scale(0.015625)"/>
       <path id="DejaVuSans-Bold-61" d="M 2106 1575 
Q 1756 1575 1579 1456 
Q 1403 1338 1403 1106 
Q 1403 894 1545 773 
Q 1688 653 1941 653 
Q 2256 653 2472 879 
Q 2688 1106 2688 1447 
L 2688 1575 
L 2106 1575 
z
M 3816 1997 
L 3816 0 
L 2688 0 
L 2688 519 
Q 2463 200 2181 54 
Q 1900 -91 1497 -91 
Q 953 -91 614 226 
Q 275 544 275 1050 
Q 275 1666 698 1953 
Q 1122 2241 2028 2241 
L 2688 2241 
L 2688 2328 
Q 2688 2594 2478 2717 
Q 2269 2841 1825 2841 
Q 1466 2841 1156 2769 
Q 847 2697 581 2553 
L 581 3406 
Q 941 3494 1303 3539 
Q 1666 3584 2028 3584 
Q 2975 3584 3395 3211 
Q 3816 2838 3816 1997 
z
" transform="scale(0.015625)"/>
       <path id="DejaVuSans-Bold-6e" d="M 4056 2131 
L 4056 0 
L 2931 0 
L 2931 347 
L 2931 1631 
Q 2931 2084 2911 2256 
Q 2891 2428 2841 2509 
Q 2775 2619 2662 2680 
Q 2550 2741 2406 2741 
Q 2056 2741 1856 2470 
Q 1656 2200 1656 1722 
L 1656 0 
L 538 0 
L 538 3500 
L 1656 3500 
L 1656 2988 
Q 1909 3294 2193 3439 
Q 2478 3584 2822 3584 
Q 3428 3584 3742 3212 
Q 4056 2841 4056 2131 
z
" transform="scale(0.015625)"/>
       <path id="DejaVuSans-Bold-68" d="M 4056 2131 
L 4056 0 
L 2931 0 
L 2931 347 
L 2931 1625 
Q 2931 2084 2911 2256 
Q 2891 2428 2841 2509 
Q 2775 2619 2662 2680 
Q 2550 2741 2406 2741 
Q 2056 2741 1856 2470 
Q 1656 2200 1656 1722 
L 1656 0 
L 538 0 
L 538 4863 
L 1656 4863 
L 1656 2988 
Q 1909 3294 2193 3439 
Q 2478 3584 2822 3584 
Q 3428 3584 3742 3212 
Q 4056 2841 4056 2131 
z
" transform="scale(0.015625)"/>
       <path id="DejaVuSans-Bold-73" d="M 3272 3391 
L 3272 2541 
Q 2913 2691 2578 2766 
Q 2244 2841 1947 2841 
Q 1628 2841 1473 2761 
Q 1319 2681 1319 2516 
Q 1319 2381 1436 2309 
Q 1553 2238 1856 2203 
L 2053 2175 
Q 2913 2066 3209 1816 
Q 3506 1566 3506 1031 
Q 3506 472 3093 190 
Q 2681 -91 1863 -91 
Q 1516 -91 1145 -36 
Q 775 19 384 128 
L 384 978 
Q 719 816 1070 734 
Q 1422 653 1784 653 
Q 2113 653 2278 743 
Q 2444 834 2444 1013 
Q 2444 1163 2330 1236 
Q 2216 1309 1875 1350 
L 1678 1375 
Q 931 1469 631 1722 
Q 331 1975 331 2491 
Q 331 3047 712 3315 
Q 1094 3584 1881 3584 
Q 2191 3584 2531 3537 
Q 2872 3491 3272 3391 
z
" transform="scale(0.015625)"/>
       <path id="DejaVuSans-Bold-2d" d="M 347 2297 
L 2309 2297 
L 2309 1388 
L 347 1388 
L 347 2297 
z
" transform="scale(0.015625)"/>
       <path id="DejaVuSans-Bold-6f" d="M 2203 2784 
Q 1831 2784 1636 2517 
Q 1441 2250 1441 1747 
Q 1441 1244 1636 976 
Q 1831 709 2203 709 
Q 2569 709 2762 976 
Q 2956 1244 2956 1747 
Q 2956 2250 2762 2517 
Q 2569 2784 2203 2784 
z
M 2203 3584 
Q 3106 3584 3614 3096 
Q 4122 2609 4122 1747 
Q 4122 884 3614 396 
Q 3106 -91 2203 -91 
Q 1297 -91 786 396 
Q 275 884 275 1747 
Q 275 2609 786 3096 
Q 1297 3584 2203 3584 
z
" transform="scale(0.015625)"/>
       <path id="DejaVuSans-Bold-72" d="M 3138 2547 
Q 2991 2616 2845 2648 
Q 2700 2681 2553 2681 
Q 2122 2681 1889 2404 
Q 1656 2128 1656 1613 
L 1656 0 
L 538 0 
L 538 3500 
L 1656 3500 
L 1656 2925 
Q 1872 3269 2151 3426 
Q 2431 3584 2822 3584 
Q 2878 3584 2943 3579 
Q 3009 3575 3134 3559 
L 3138 2547 
z
" transform="scale(0.015625)"/>
       <path id="DejaVuSans-Bold-29" d="M 513 -844 
Q 913 -100 1113 609 
Q 1313 1319 1313 2009 
Q 1313 2700 1113 3408 
Q 913 4116 513 4856 
L 1441 4856 
Q 1916 4091 2145 3389 
Q 2375 2688 2375 2003 
Q 2375 1319 2147 623 
Q 1919 -72 1441 -844 
L 513 -844 
z
" transform="scale(0.015625)"/>
      </defs>
      <use xlink:href="#DejaVuSans-Bold-51"/>
      <use xlink:href="#DejaVuSans-Bold-20" x="85.009766"/>
      <use xlink:href="#DejaVuSans-Bold-28" x="119.824219"/>
      <use xlink:href="#DejaVuSans-Bold-63" x="165.527344"/>
      <use xlink:href="#DejaVuSans-Bold-61" x="224.804688"/>
      <use xlink:href="#DejaVuSans-Bold-6e" x="292.285156"/>
      <use xlink:href="#DejaVuSans-Bold-63" x="363.476562"/>
      <use xlink:href="#DejaVuSans-Bold-68" x="422.753906"/>
      <use xlink:href="#DejaVuSans-Bold-61" x="493.945312"/>
      <use xlink:href="#DejaVuSans-Bold-73" x="561.425781"/>
      <use xlink:href="#DejaVuSans-Bold-2d" x="620.947266"/>
      <use xlink:href="#DejaVuSans-Bold-68" x="662.451172"/>
      <use xlink:href="#DejaVuSans-Bold-6f" x="733.642578"/>
      <use xlink:href="#DejaVuSans-Bold-72" x="802.34375"/>
      <use xlink:href="#DejaVuSans-Bold-61" x="851.660156"/>
      <use xlink:href="#DejaVuSans-Bold-29" x="919.140625"/>
     </g>
    </g>
   </g>
   <g id="matplotlib.axis_2">
    <g id="ytick_1">
     <g id="line2d_11">
      <path d="M 51.437579 461.37377 
L 612.586357 461.37377 
" clip-path="url(#p2d7e59c549)" style="fill: none; stroke-dasharray: 0.8,1.32; stroke-dashoffset: 0; stroke: #b0b0b0; stroke-opacity: 0.4; stroke-width: 0.8"/>
     </g>
     <g id="line2d_12">
      <defs>
       <path id="m20a3cfd5b6" d="M 0 0 
L 4 0 
" style="stroke: #000000"/>
      </defs>
      <g>
       <use xlink:href="#m20a3cfd5b6" x="75.31625" y="461.37377" style="stroke: #000000"/>
      </g>
     </g>
     <g id="text_7">
      <!-- 0 -->
      <g transform="translate(65.45375 465.172989) scale(0.1 -0.1)">
       <use xlink:href="#DejaVuSans-30"/>
      </g>
     </g>
    </g>
    <g id="ytick_2">
     <g id="line2d_13">
      <path d="M 51.437579 386.796721 
L 612.586357 386.796721 
" clip-path="url(#p2d7e59c549)" style="fill: none; stroke-dasharray: 0.8,1.32; stroke-dashoffset: 0; stroke: #b0b0b0; stroke-opacity: 0.4; stroke-width: 0.8"/>
     </g>
     <g id="line2d_14">
      <g>
       <use xlink:href="#m20a3cfd5b6" x="75.31625" y="386.796721" style="stroke: #000000"/>
      </g>
     </g>
     <g id="text_8">
      <!-- 2 -->
      <g transform="translate(65.45375 390.59594) scale(0.1 -0.1)">
       <use xlink:href="#DejaVuSans-32"/>
      </g>
     </g>
    </g>
    <g id="ytick_3">
     <g id="line2d_15">
      <path d="M 51.437579 312.219672 
L 612.586357 312.219672 
" clip-path="url(#p2d7e59c549)" style="fill: none; stroke-dasharray: 0.8,1.32; stroke-dashoffset: 0; stroke: #b0b0b0; stroke-opacity: 0.4; stroke-width: 0.8"/>
     </g>
     <g id="line2d_16">
      <g>
       <use xlink:href="#m20a3cfd5b6" x="75.31625" y="312.219672" style="stroke: #000000"/>
      </g>
     </g>
     <g id="text_9">
      <!-- 4 -->
      <g transform="translate(65.45375 316.018891) scale(0.1 -0.1)">
       <use xlink:href="#DejaVuSans-34"/>
      </g>
     </g>
    </g>
    <g id="ytick_4">
     <g id="line2d_17">
      <path d="M 51.437579 237.642623 
L 612.586357 237.642623 
" clip-path="url(#p2d7e59c549)" style="fill: none; stroke-dasharray: 0.8,1.32; stroke-dashoffset: 0; stroke: #b0b0b0; stroke-opacity: 0.4; stroke-width: 0.8"/>
     </g>
     <g id="line2d_18">
      <g>
       <use xlink:href="#m20a3cfd5b6" x="75.31625" y="237.642623" style="stroke: #000000"/>
      </g>
     </g>
     <g id="text_10">
      <!-- 6 -->
      <g transform="translate(65.45375 241.441842) scale(0.1 -0.1)">
       <defs>
        <path id="DejaVuSans-36" d="M 2113 2584 
Q 1688 2584 1439 2293 
Q 1191 2003 1191 1497 
Q 1191 994 1439 701 
Q 1688 409 2113 409 
Q 2538 409 2786 701 
Q 3034 994 3034 1497 
Q 3034 2003 2786 2293 
Q 2538 2584 2113 2584 
z
M 3366 4563 
L 3366 3988 
Q 3128 4100 2886 4159 
Q 2644 4219 2406 4219 
Q 1781 4219 1451 3797 
Q 1122 3375 1075 2522 
Q 1259 2794 1537 2939 
Q 1816 3084 2150 3084 
Q 2853 3084 3261 2657 
Q 3669 2231 3669 1497 
Q 3669 778 3244 343 
Q 2819 -91 2113 -91 
Q 1303 -91 875 529 
Q 447 1150 447 2328 
Q 447 3434 972 4092 
Q 1497 4750 2381 4750 
Q 2619 4750 2861 4703 
Q 3103 4656 3366 4563 
z
" transform="scale(0.015625)"/>
       </defs>
       <use xlink:href="#DejaVuSans-36"/>
      </g>
     </g>
    </g>
    <g id="ytick_5">
     <g id="line2d_19">
      <path d="M 51.437579 163.065574 
L 612.586357 163.065574 
" clip-path="url(#p2d7e59c549)" style="fill: none; stroke-dasharray: 0.8,1.32; stroke-dashoffset: 0; stroke: #b0b0b0; stroke-opacity: 0.4; stroke-width: 0.8"/>
     </g>
     <g id="line2d_20">
      <g>
       <use xlink:href="#m20a3cfd5b6" x="75.31625" y="163.065574" style="stroke: #000000"/>
      </g>
     </g>
     <g id="text_11">
      <!-- 8 -->
      <g transform="translate(65.45375 166.864793) scale(0.1 -0.1)">
       <defs>
        <path id="DejaVuSans-38" d="M 2034 2216 
Q 1584 2216 1326 1975 
Q 1069 1734 1069 1313 
Q 1069 891 1326 650 
Q 1584 409 2034 409 
Q 2484 409 2743 651 
Q 3003 894 3003 1313 
Q 3003 1734 2745 1975 
Q 2488 2216 2034 2216 
z
M 1403 2484 
Q 997 2584 770 2862 
Q 544 3141 544 3541 
Q 544 4100 942 4425 
Q 1341 4750 2034 4750 
Q 2731 4750 3128 4425 
Q 3525 4100 3525 3541 
Q 3525 3141 3298 2862 
Q 3072 2584 2669 2484 
Q 3125 2378 3379 2068 
Q 3634 1759 3634 1313 
Q 3634 634 3220 271 
Q 2806 -91 2034 -91 
Q 1263 -91 848 271 
Q 434 634 434 1313 
Q 434 1759 690 2068 
Q 947 2378 1403 2484 
z
M 1172 3481 
Q 1172 3119 1398 2916 
Q 1625 2713 2034 2713 
Q 2441 2713 2670 2916 
Q 2900 3119 2900 3481 
Q 2900 3844 2670 4047 
Q 2441 4250 2034 4250 
Q 1625 4250 1398 4047 
Q 1172 3844 1172 3481 
z
" transform="scale(0.015625)"/>
       </defs>
       <use xlink:href="#DejaVuSans-38"/>
      </g>
     </g>
    </g>
    <g id="ytick_6">
     <g id="line2d_21">
      <path d="M 51.437579 88.488525 
L 612.586357 88.488525 
" clip-path="url(#p2d7e59c549)" style="fill: none; stroke-dasharray: 0.8,1.32; stroke-dashoffset: 0; stroke: #b0b0b0; stroke-opacity: 0.4; stroke-width: 0.8"/>
     </g>
     <g id="line2d_22">
      <g>
       <use xlink:href="#m20a3cfd5b6" x="75.31625" y="88.488525" style="stroke: #000000"/>
      </g>
     </g>
     <g id="text_12">
      <!-- 10 -->
      <g transform="translate(59.09125 92.287743) scale(0.1 -0.1)">
       <use xlink:href="#DejaVuSans-31"/>
       <use xlink:href="#DejaVuSans-30" x="63.623047"/>
      </g>
     </g>
    </g>
    <g id="text_13">
     <!-- P ($) -->
     <g transform="translate(28.8 48.704375) scale(0.12 -0.12)">
      <defs>
       <path id="DejaVuSans-Bold-50" d="M 588 4666 
L 2584 4666 
Q 3475 4666 3951 4270 
Q 4428 3875 4428 3144 
Q 4428 2409 3951 2014 
Q 3475 1619 2584 1619 
L 1791 1619 
L 1791 0 
L 588 0 
L 588 4666 
z
M 1791 3794 
L 1791 2491 
L 2456 2491 
Q 2806 2491 2997 2661 
Q 3188 2831 3188 3144 
Q 3188 3456 2997 3625 
Q 2806 3794 2456 3794 
L 1791 3794 
z
" transform="scale(0.015625)"/>
       <path id="DejaVuSans-Bold-24" d="M 2484 -941 
L 1978 -941 
L 1975 0 
Q 1584 16 1218 87 
Q 853 159 506 288 
L 506 1106 
Q 866 922 1233 823 
Q 1600 725 1978 713 
L 1978 1684 
L 1875 1703 
Q 1128 1834 814 2115 
Q 500 2397 500 2925 
Q 500 3484 883 3798 
Q 1266 4113 1975 4141 
L 1978 4863 
L 2484 4863 
L 2484 4153 
Q 2797 4128 3109 4075 
Q 3422 4022 3738 3938 
L 3738 3144 
Q 3425 3275 3112 3348 
Q 2800 3422 2484 3438 
L 2484 2541 
L 2584 2522 
Q 3378 2397 3698 2105 
Q 4019 1813 4019 1241 
Q 4019 666 3637 358 
Q 3256 50 2484 6 
L 2484 -941 
z
M 1978 2613 
L 1978 3428 
Q 1756 3416 1623 3308 
Q 1491 3200 1491 3034 
Q 1491 2850 1612 2745 
Q 1734 2641 1978 2613 
z
M 2484 1594 
L 2484 725 
Q 2756 728 2892 831 
Q 3028 934 3028 1141 
Q 3028 1353 2903 1458 
Q 2778 1563 2484 1594 
z
" transform="scale(0.015625)"/>
      </defs>
      <use xlink:href="#DejaVuSans-Bold-50"/>
      <use xlink:href="#DejaVuSans-Bold-20" x="73.291016"/>
      <use xlink:href="#DejaVuSans-Bold-28" x="108.105469"/>
      <use xlink:href="#DejaVuSans-Bold-24" x="153.808594"/>
      <use xlink:href="#DejaVuSans-Bold-29" x="223.388672"/>
     </g>
    </g>
   </g>
   <g id="line2d_23">
    <path d="M 552.889678 461.37377 
L 266.345621 13.911475 
L 266.345621 13.911475 
" clip-path="url(#p2d7e59c549)" style="fill: none; stroke: #c0392b; stroke-width: 3; stroke-linecap: square"/>
   </g>
   <g id="line2d_24">
    <path d="M -1 434.466381 
L 672.283035 13.911475 
L 672.283035 13.911475 
" clip-path="url(#p2d7e59c549)" style="fill: none; stroke: #2980b9; stroke-width: 3; stroke-linecap: square"/>
   </g>
   <g id="line2d_25">
    <path d="M 51.437579 274.931148 
L 612.586357 274.931148 
" clip-path="url(#p2d7e59c549)" style="fill: none; stroke-dasharray: 9.25,4; stroke-dashoffset: 0; stroke: #7d3c98; stroke-width: 2.5"/>
   </g>
   <g id="line2d_26">
    <defs>
     <path id="mddee0e44e9" d="M 4 0 
L -4 -4 
L -4 4 
z
" style="stroke: #000000; stroke-linejoin: miter"/>
    </defs>
    <g>
     <use xlink:href="#mddee0e44e9" x="612.586357" y="461.37377" style="stroke: #000000; stroke-linejoin: miter"/>
    </g>
   </g>
   <g id="line2d_27">
    <defs>
     <path id="m8b74491026" d="M 0 -4 
L -4 4 
L 4 4 
z
" style="stroke: #000000; stroke-linejoin: miter"/>
    </defs>
    <g>
     <use xlink:href="#m8b74491026" x="75.31625" y="51.2" style="stroke: #000000; stroke-linejoin: miter"/>
    </g>
   </g>
   <g id="patch_3">
    <path d="M 75.31625 506.12 
L 75.31625 51.2 
" style="fill: none; stroke: #000000; stroke-width: 1.4; stroke-linejoin: miter; stroke-linecap: square"/>
   </g>
   <g id="patch_4">
    <path d="M 51.437579 461.37377 
L 612.586357 461.37377 
" style="fill: none; stroke: #000000; stroke-width: 1.4; stroke-linejoin: miter; stroke-linecap: square"/>
   </g>
   <g id="patch_5">
    <path d="M 259.198972 256.286885 
Q 343.948933 256.286885 428.698894 256.286885 
" style="fill: none; stroke: #c0392b; stroke-width: 2.5; stroke-linecap: round"/>
    <path d="M 263.998972 258.686885 
L 259.198972 256.286885 
L 263.998972 253.886885 
" style="fill: none; stroke: #c0392b; stroke-width: 2.5; stroke-linecap: round"/>
    <path d="M 423.898894 253.886885 
L 428.698894 256.286885 
L 423.898894 258.686885 
" style="fill: none; stroke: #c0392b; stroke-width: 2.5; stroke-linecap: round"/>
   </g>
   <g id="text_14">
    <!-- (a) Demanda original — tope EFECTIVO ($5 &lt; $7.14) -->
    <g transform="translate(152.676968 39.2) scale(0.13 -0.13)">
     <defs>
      <path id="DejaVuSans-Bold-44" d="M 1791 3756 
L 1791 909 
L 2222 909 
Q 2959 909 3348 1275 
Q 3738 1641 3738 2338 
Q 3738 3031 3350 3393 
Q 2963 3756 2222 3756 
L 1791 3756 
z
M 588 4666 
L 1856 4666 
Q 2919 4666 3439 4514 
Q 3959 4363 4331 4000 
Q 4659 3684 4818 3271 
Q 4978 2859 4978 2338 
Q 4978 1809 4818 1395 
Q 4659 981 4331 666 
Q 3956 303 3431 151 
Q 2906 0 1856 0 
L 588 0 
L 588 4666 
z
" transform="scale(0.015625)"/>
      <path id="DejaVuSans-Bold-65" d="M 4031 1759 
L 4031 1441 
L 1416 1441 
Q 1456 1047 1700 850 
Q 1944 653 2381 653 
Q 2734 653 3104 758 
Q 3475 863 3866 1075 
L 3866 213 
Q 3469 63 3072 -14 
Q 2675 -91 2278 -91 
Q 1328 -91 801 392 
Q 275 875 275 1747 
Q 275 2603 792 3093 
Q 1309 3584 2216 3584 
Q 3041 3584 3536 3087 
Q 4031 2591 4031 1759 
z
M 2881 2131 
Q 2881 2450 2695 2645 
Q 2509 2841 2209 2841 
Q 1884 2841 1681 2658 
Q 1478 2475 1428 2131 
L 2881 2131 
z
" transform="scale(0.015625)"/>
      <path id="DejaVuSans-Bold-6d" d="M 3781 2919 
Q 3994 3244 4286 3414 
Q 4578 3584 4928 3584 
Q 5531 3584 5847 3212 
Q 6163 2841 6163 2131 
L 6163 0 
L 5038 0 
L 5038 1825 
Q 5041 1866 5042 1909 
Q 5044 1953 5044 2034 
Q 5044 2406 4934 2573 
Q 4825 2741 4581 2741 
Q 4263 2741 4089 2478 
Q 3916 2216 3909 1719 
L 3909 0 
L 2784 0 
L 2784 1825 
Q 2784 2406 2684 2573 
Q 2584 2741 2328 2741 
Q 2006 2741 1831 2477 
Q 1656 2213 1656 1722 
L 1656 0 
L 531 0 
L 531 3500 
L 1656 3500 
L 1656 2988 
Q 1863 3284 2130 3434 
Q 2397 3584 2719 3584 
Q 3081 3584 3359 3409 
Q 3638 3234 3781 2919 
z
" transform="scale(0.015625)"/>
      <path id="DejaVuSans-Bold-64" d="M 2919 2988 
L 2919 4863 
L 4044 4863 
L 4044 0 
L 2919 0 
L 2919 506 
Q 2688 197 2409 53 
Q 2131 -91 1766 -91 
Q 1119 -91 703 423 
Q 288 938 288 1747 
Q 288 2556 703 3070 
Q 1119 3584 1766 3584 
Q 2128 3584 2408 3439 
Q 2688 3294 2919 2988 
z
M 2181 722 
Q 2541 722 2730 984 
Q 2919 1247 2919 1747 
Q 2919 2247 2730 2509 
Q 2541 2772 2181 2772 
Q 1825 2772 1636 2509 
Q 1447 2247 1447 1747 
Q 1447 1247 1636 984 
Q 1825 722 2181 722 
z
" transform="scale(0.015625)"/>
      <path id="DejaVuSans-Bold-69" d="M 538 3500 
L 1656 3500 
L 1656 0 
L 538 0 
L 538 3500 
z
M 538 4863 
L 1656 4863 
L 1656 3950 
L 538 3950 
L 538 4863 
z
" transform="scale(0.015625)"/>
      <path id="DejaVuSans-Bold-67" d="M 2919 594 
Q 2688 288 2409 144 
Q 2131 0 1766 0 
Q 1125 0 706 504 
Q 288 1009 288 1791 
Q 288 2575 706 3076 
Q 1125 3578 1766 3578 
Q 2131 3578 2409 3434 
Q 2688 3291 2919 2981 
L 2919 3500 
L 4044 3500 
L 4044 353 
Q 4044 -491 3511 -936 
Q 2978 -1381 1966 -1381 
Q 1638 -1381 1331 -1331 
Q 1025 -1281 716 -1178 
L 716 -306 
Q 1009 -475 1290 -558 
Q 1572 -641 1856 -641 
Q 2406 -641 2662 -400 
Q 2919 -159 2919 353 
L 2919 594 
z
M 2181 2772 
Q 1834 2772 1640 2515 
Q 1447 2259 1447 1791 
Q 1447 1309 1634 1061 
Q 1822 813 2181 813 
Q 2531 813 2725 1069 
Q 2919 1325 2919 1791 
Q 2919 2259 2725 2515 
Q 2531 2772 2181 2772 
z
" transform="scale(0.015625)"/>
      <path id="DejaVuSans-Bold-6c" d="M 538 4863 
L 1656 4863 
L 1656 0 
L 538 0 
L 538 4863 
z
" transform="scale(0.015625)"/>
      <path id="DejaVuSansDisplay-2014" d="M 313 1978 
L 6088 1978 
L 6088 1528 
L 313 1528 
L 313 1978 
z
" transform="scale(0.015625)"/>
      <path id="DejaVuSans-Bold-74" d="M 1759 4494 
L 1759 3500 
L 2913 3500 
L 2913 2700 
L 1759 2700 
L 1759 1216 
Q 1759 972 1856 886 
Q 1953 800 2241 800 
L 2816 800 
L 2816 0 
L 1856 0 
Q 1194 0 917 276 
Q 641 553 641 1216 
L 641 2700 
L 84 2700 
L 84 3500 
L 641 3500 
L 641 4494 
L 1759 4494 
z
" transform="scale(0.015625)"/>
      <path id="DejaVuSans-Bold-70" d="M 1656 506 
L 1656 -1331 
L 538 -1331 
L 538 3500 
L 1656 3500 
L 1656 2988 
Q 1888 3294 2169 3439 
Q 2450 3584 2816 3584 
Q 3463 3584 3878 3070 
Q 4294 2556 4294 1747 
Q 4294 938 3878 423 
Q 3463 -91 2816 -91 
Q 2450 -91 2169 54 
Q 1888 200 1656 506 
z
M 2400 2772 
Q 2041 2772 1848 2508 
Q 1656 2244 1656 1747 
Q 1656 1250 1848 986 
Q 2041 722 2400 722 
Q 2759 722 2948 984 
Q 3138 1247 3138 1747 
Q 3138 2247 2948 2509 
Q 2759 2772 2400 2772 
z
" transform="scale(0.015625)"/>
      <path id="DejaVuSans-Bold-45" d="M 588 4666 
L 3834 4666 
L 3834 3756 
L 1791 3756 
L 1791 2888 
L 3713 2888 
L 3713 1978 
L 1791 1978 
L 1791 909 
L 3903 909 
L 3903 0 
L 588 0 
L 588 4666 
z
" transform="scale(0.015625)"/>
      <path id="DejaVuSans-Bold-46" d="M 588 4666 
L 3834 4666 
L 3834 3756 
L 1791 3756 
L 1791 2888 
L 3713 2888 
L 3713 1978 
L 1791 1978 
L 1791 0 
L 588 0 
L 588 4666 
z
" transform="scale(0.015625)"/>
      <path id="DejaVuSans-Bold-43" d="M 4288 256 
Q 3956 84 3597 -3 
Q 3238 -91 2847 -91 
Q 1681 -91 1000 561 
Q 319 1213 319 2328 
Q 319 3447 1000 4098 
Q 1681 4750 2847 4750 
Q 3238 4750 3597 4662 
Q 3956 4575 4288 4403 
L 4288 3438 
Q 3953 3666 3628 3772 
Q 3303 3878 2944 3878 
Q 2300 3878 1931 3465 
Q 1563 3053 1563 2328 
Q 1563 1606 1931 1193 
Q 2300 781 2944 781 
Q 3303 781 3628 887 
Q 3953 994 4288 1222 
L 4288 256 
z
" transform="scale(0.015625)"/>
      <path id="DejaVuSans-Bold-54" d="M 31 4666 
L 4331 4666 
L 4331 3756 
L 2784 3756 
L 2784 0 
L 1581 0 
L 1581 3756 
L 31 3756 
L 31 4666 
z
" transform="scale(0.015625)"/>
      <path id="DejaVuSans-Bold-49" d="M 588 4666 
L 1791 4666 
L 1791 0 
L 588 0 
L 588 4666 
z
" transform="scale(0.015625)"/>
      <path id="DejaVuSans-Bold-56" d="M 31 4666 
L 1241 4666 
L 2478 1222 
L 3713 4666 
L 4922 4666 
L 3194 0 
L 1759 0 
L 31 4666 
z
" transform="scale(0.015625)"/>
      <path id="DejaVuSans-Bold-4f" d="M 2719 3878 
Q 2169 3878 1866 3472 
Q 1563 3066 1563 2328 
Q 1563 1594 1866 1187 
Q 2169 781 2719 781 
Q 3272 781 3575 1187 
Q 3878 1594 3878 2328 
Q 3878 3066 3575 3472 
Q 3272 3878 2719 3878 
z
M 2719 4750 
Q 3844 4750 4481 4106 
Q 5119 3463 5119 2328 
Q 5119 1197 4481 553 
Q 3844 -91 2719 -91 
Q 1597 -91 958 553 
Q 319 1197 319 2328 
Q 319 3463 958 4106 
Q 1597 4750 2719 4750 
z
" transform="scale(0.015625)"/>
      <path id="DejaVuSans-35" d="M 691 4666 
L 3169 4666 
L 3169 4134 
L 1269 4134 
L 1269 2991 
Q 1406 3038 1543 3061 
Q 1681 3084 1819 3084 
Q 2600 3084 3056 2656 
Q 3513 2228 3513 1497 
Q 3513 744 3044 326 
Q 2575 -91 1722 -91 
Q 1428 -91 1123 -41 
Q 819 9 494 109 
L 494 744 
Q 775 591 1075 516 
Q 1375 441 1709 441 
Q 2250 441 2565 725 
Q 2881 1009 2881 1497 
Q 2881 1984 2565 2268 
Q 2250 2553 1709 2553 
Q 1456 2553 1204 2497 
Q 953 2441 691 2322 
L 691 4666 
z
" transform="scale(0.015625)"/>
      <path id="DejaVuSans-3c" d="M 4684 3150 
L 1459 2003 
L 4684 863 
L 4684 294 
L 678 1747 
L 678 2266 
L 4684 3719 
L 4684 3150 
z
" transform="scale(0.015625)"/>
      <path id="DejaVuSans-Bold-37" d="M 428 4666 
L 3944 4666 
L 3944 3988 
L 2125 0 
L 953 0 
L 2675 3781 
L 428 3781 
L 428 4666 
z
" transform="scale(0.015625)"/>
      <path id="DejaVuSans-Bold-2e" d="M 653 1209 
L 1778 1209 
L 1778 0 
L 653 0 
L 653 1209 
z
" transform="scale(0.015625)"/>
      <path id="DejaVuSans-Bold-31" d="M 750 831 
L 1813 831 
L 1813 3847 
L 722 3622 
L 722 4441 
L 1806 4666 
L 2950 4666 
L 2950 831 
L 4013 831 
L 4013 0 
L 750 0 
L 750 831 
z
" transform="scale(0.015625)"/>
      <path id="DejaVuSans-Bold-34" d="M 2356 3675 
L 1038 1722 
L 2356 1722 
L 2356 3675 
z
M 2156 4666 
L 3494 4666 
L 3494 1722 
L 4159 1722 
L 4159 850 
L 3494 850 
L 3494 0 
L 2356 0 
L 2356 850 
L 288 850 
L 288 1881 
L 2156 4666 
z
" transform="scale(0.015625)"/>
     </defs>
     <use xlink:href="#DejaVuSans-Bold-28" transform="translate(0 0.015625)"/>
     <use xlink:href="#DejaVuSans-Bold-61" transform="translate(45.703125 0.015625)"/>
     <use xlink:href="#DejaVuSans-Bold-29" transform="translate(113.183594 0.015625)"/>
     <use xlink:href="#DejaVuSans-Bold-20" transform="translate(158.886719 0.015625)"/>
     <use xlink:href="#DejaVuSans-Bold-44" transform="translate(193.701172 0.015625)"/>
     <use xlink:href="#DejaVuSans-Bold-65" transform="translate(276.708984 0.015625)"/>
     <use xlink:href="#DejaVuSans-Bold-6d" transform="translate(344.53125 0.015625)"/>
     <use xlink:href="#DejaVuSans-Bold-61" transform="translate(448.730469 0.015625)"/>
     <use xlink:href="#DejaVuSans-Bold-6e" transform="translate(516.210938 0.015625)"/>
     <use xlink:href="#DejaVuSans-Bold-64" transform="translate(587.402344 0.015625)"/>
     <use xlink:href="#DejaVuSans-Bold-61" transform="translate(658.984375 0.015625)"/>
     <use xlink:href="#DejaVuSans-Bold-20" transform="translate(726.464844 0.015625)"/>
     <use xlink:href="#DejaVuSans-Bold-6f" transform="translate(761.279297 0.015625)"/>
     <use xlink:href="#DejaVuSans-Bold-72" transform="translate(829.980469 0.015625)"/>
     <use xlink:href="#DejaVuSans-Bold-69" transform="translate(879.296875 0.015625)"/>
     <use xlink:href="#DejaVuSans-Bold-67" transform="translate(913.574219 0.015625)"/>
     <use xlink:href="#DejaVuSans-Bold-69" transform="translate(985.15625 0.015625)"/>
     <use xlink:href="#DejaVuSans-Bold-6e" transform="translate(1019.433594 0.015625)"/>
     <use xlink:href="#DejaVuSans-Bold-61" transform="translate(1090.625 0.015625)"/>
     <use xlink:href="#DejaVuSans-Bold-6c" transform="translate(1158.105469 0.015625)"/>
     <use xlink:href="#DejaVuSans-Bold-20" transform="translate(1192.382812 0.015625)"/>
     <use xlink:href="#DejaVuSansDisplay-2014" transform="translate(1227.197266 0.015625)"/>
     <use xlink:href="#DejaVuSans-Bold-20" transform="translate(1327.197266 0.015625)"/>
     <use xlink:href="#DejaVuSans-Bold-74" transform="translate(1362.011719 0.015625)"/>
     <use xlink:href="#DejaVuSans-Bold-6f" transform="translate(1409.814453 0.015625)"/>
     <use xlink:href="#DejaVuSans-Bold-70" transform="translate(1478.515625 0.015625)"/>
     <use xlink:href="#DejaVuSans-Bold-65" transform="translate(1550.097656 0.015625)"/>
     <use xlink:href="#DejaVuSans-Bold-20" transform="translate(1617.919922 0.015625)"/>
     <use xlink:href="#DejaVuSans-Bold-45" transform="translate(1652.734375 0.015625)"/>
     <use xlink:href="#DejaVuSans-Bold-46" transform="translate(1721.044922 0.015625)"/>
     <use xlink:href="#DejaVuSans-Bold-45" transform="translate(1789.355469 0.015625)"/>
     <use xlink:href="#DejaVuSans-Bold-43" transform="translate(1857.666016 0.015625)"/>
     <use xlink:href="#DejaVuSans-Bold-54" transform="translate(1931.054688 0.015625)"/>
     <use xlink:href="#DejaVuSans-Bold-49" transform="translate(1999.267578 0.015625)"/>
     <use xlink:href="#DejaVuSans-Bold-56" transform="translate(2036.474609 0.015625)"/>
     <use xlink:href="#DejaVuSans-Bold-4f" transform="translate(2113.867188 0.015625)"/>
     <use xlink:href="#DejaVuSans-Bold-20" transform="translate(2198.876953 0.015625)"/>
     <use xlink:href="#DejaVuSans-Bold-28" transform="translate(2233.691406 0.015625)"/>
     <use xlink:href="#DejaVuSans-35" transform="translate(2279.394531 0.015625)"/>
     <use xlink:href="#DejaVuSans-3c" transform="translate(2362.5 0.015625)"/>
     <use xlink:href="#DejaVuSans-Bold-37" transform="translate(2465.771484 0.015625)"/>
     <use xlink:href="#DejaVuSans-Bold-2e" transform="translate(2535.351562 0.015625)"/>
     <use xlink:href="#DejaVuSans-Bold-31" transform="translate(2573.339844 0.015625)"/>
     <use xlink:href="#DejaVuSans-Bold-34" transform="translate(2642.919922 0.015625)"/>
     <use xlink:href="#DejaVuSans-Bold-29" transform="translate(2712.5 0.015625)"/>
    </g>
   </g>
   <g id="legend_1">
    <g id="patch_6">
     <path d="M 463.078076 501.62 
L 606.286357 501.62 
Q 608.086357 501.62 608.086357 499.82 
L 608.086357 460.83875 
Q 608.086357 459.03875 606.286357 459.03875 
L 463.078076 459.03875 
Q 461.278076 459.03875 461.278076 460.83875 
L 461.278076 499.82 
Q 461.278076 501.62 463.078076 501.62 
z
" style="fill: #ffffff; opacity: 0.8; stroke: #cccccc; stroke-linejoin: miter"/>
    </g>
    <g id="line2d_28">
     <path d="M 464.878076 466.327344 
L 473.878076 466.327344 
L 482.878076 466.327344 
" style="fill: none; stroke: #c0392b; stroke-width: 3; stroke-linecap: square"/>
    </g>
    <g id="text_15">
     <!-- D: Qd = 40000 − 2000P -->
     <g transform="translate(490.078076 469.477344) scale(0.09 -0.09)">
      <defs>
       <path id="DejaVuSans-44" d="M 1259 4147 
L 1259 519 
L 2022 519 
Q 2988 519 3436 956 
Q 3884 1394 3884 2338 
Q 3884 3275 3436 3711 
Q 2988 4147 2022 4147 
L 1259 4147 
z
M 628 4666 
L 1925 4666 
Q 3281 4666 3915 4102 
Q 4550 3538 4550 2338 
Q 4550 1131 3912 565 
Q 3275 0 1925 0 
L 628 0 
L 628 4666 
z
" transform="scale(0.015625)"/>
       <path id="DejaVuSans-3a" d="M 750 794 
L 1409 794 
L 1409 0 
L 750 0 
L 750 794 
z
M 750 3309 
L 1409 3309 
L 1409 2516 
L 750 2516 
L 750 3309 
z
" transform="scale(0.015625)"/>
       <path id="DejaVuSans-20" transform="scale(0.015625)"/>
       <path id="DejaVuSans-51" d="M 2522 4238 
Q 1834 4238 1429 3725 
Q 1025 3213 1025 2328 
Q 1025 1447 1429 934 
Q 1834 422 2522 422 
Q 3209 422 3611 934 
Q 4013 1447 4013 2328 
Q 4013 3213 3611 3725 
Q 3209 4238 2522 4238 
z
M 3406 84 
L 4238 -825 
L 3475 -825 
L 2784 -78 
Q 2681 -84 2626 -87 
Q 2572 -91 2522 -91 
Q 1538 -91 948 567 
Q 359 1225 359 2328 
Q 359 3434 948 4092 
Q 1538 4750 2522 4750 
Q 3503 4750 4090 4092 
Q 4678 3434 4678 2328 
Q 4678 1516 4351 937 
Q 4025 359 3406 84 
z
" transform="scale(0.015625)"/>
       <path id="DejaVuSans-64" d="M 2906 2969 
L 2906 4863 
L 3481 4863 
L 3481 0 
L 2906 0 
L 2906 525 
Q 2725 213 2448 61 
Q 2172 -91 1784 -91 
Q 1150 -91 751 415 
Q 353 922 353 1747 
Q 353 2572 751 3078 
Q 1150 3584 1784 3584 
Q 2172 3584 2448 3432 
Q 2725 3281 2906 2969 
z
M 947 1747 
Q 947 1113 1208 752 
Q 1469 391 1925 391 
Q 2381 391 2643 752 
Q 2906 1113 2906 1747 
Q 2906 2381 2643 2742 
Q 2381 3103 1925 3103 
Q 1469 3103 1208 2742 
Q 947 2381 947 1747 
z
" transform="scale(0.015625)"/>
       <path id="DejaVuSans-3d" d="M 678 2906 
L 4684 2906 
L 4684 2381 
L 678 2381 
L 678 2906 
z
M 678 1631 
L 4684 1631 
L 4684 1100 
L 678 1100 
L 678 1631 
z
" transform="scale(0.015625)"/>
       <path id="DejaVuSans-2212" d="M 678 2272 
L 4684 2272 
L 4684 1741 
L 678 1741 
L 678 2272 
z
" transform="scale(0.015625)"/>
       <path id="DejaVuSans-50" d="M 1259 4147 
L 1259 2394 
L 2053 2394 
Q 2494 2394 2734 2622 
Q 2975 2850 2975 3272 
Q 2975 3691 2734 3919 
Q 2494 4147 2053 4147 
L 1259 4147 
z
M 628 4666 
L 2053 4666 
Q 2838 4666 3239 4311 
Q 3641 3956 3641 3272 
Q 3641 2581 3239 2228 
Q 2838 1875 2053 1875 
L 1259 1875 
L 1259 0 
L 628 0 
L 628 4666 
z
" transform="scale(0.015625)"/>
      </defs>
      <use xlink:href="#DejaVuSans-44"/>
      <use xlink:href="#DejaVuSans-3a" x="77.001953"/>
      <use xlink:href="#DejaVuSans-20" x="110.693359"/>
      <use xlink:href="#DejaVuSans-51" x="142.480469"/>
      <use xlink:href="#DejaVuSans-64" x="221.191406"/>
      <use xlink:href="#DejaVuSans-20" x="284.667969"/>
      <use xlink:href="#DejaVuSans-3d" x="316.455078"/>
      <use xlink:href="#DejaVuSans-20" x="400.244141"/>
      <use xlink:href="#DejaVuSans-34" x="432.03125"/>
      <use xlink:href="#DejaVuSans-30" x="495.654297"/>
      <use xlink:href="#DejaVuSans-30" x="559.277344"/>
      <use xlink:href="#DejaVuSans-30" x="622.900391"/>
      <use xlink:href="#DejaVuSans-30" x="686.523438"/>
      <use xlink:href="#DejaVuSans-20" x="750.146484"/>
      <use xlink:href="#DejaVuSans-2212" x="781.933594"/>
      <use xlink:href="#DejaVuSans-20" x="865.722656"/>
      <use xlink:href="#DejaVuSans-32" x="897.509766"/>
      <use xlink:href="#DejaVuSans-30" x="961.132812"/>
      <use xlink:href="#DejaVuSans-30" x="1024.755859"/>
      <use xlink:href="#DejaVuSans-30" x="1088.378906"/>
      <use xlink:href="#DejaVuSans-50" x="1152.001953"/>
     </g>
    </g>
    <g id="line2d_29">
     <path d="M 464.878076 479.537656 
L 473.878076 479.537656 
L 482.878076 479.537656 
" style="fill: none; stroke: #2980b9; stroke-width: 3; stroke-linecap: square"/>
    </g>
    <g id="text_16">
     <!-- S: Qs = −10000 + 5000P -->
     <g transform="translate(490.078076 482.687656) scale(0.09 -0.09)">
      <defs>
       <path id="DejaVuSans-53" d="M 3425 4513 
L 3425 3897 
Q 3066 4069 2747 4153 
Q 2428 4238 2131 4238 
Q 1616 4238 1336 4038 
Q 1056 3838 1056 3469 
Q 1056 3159 1242 3001 
Q 1428 2844 1947 2747 
L 2328 2669 
Q 3034 2534 3370 2195 
Q 3706 1856 3706 1288 
Q 3706 609 3251 259 
Q 2797 -91 1919 -91 
Q 1588 -91 1214 -16 
Q 841 59 441 206 
L 441 856 
Q 825 641 1194 531 
Q 1563 422 1919 422 
Q 2459 422 2753 634 
Q 3047 847 3047 1241 
Q 3047 1584 2836 1778 
Q 2625 1972 2144 2069 
L 1759 2144 
Q 1053 2284 737 2584 
Q 422 2884 422 3419 
Q 422 4038 858 4394 
Q 1294 4750 2059 4750 
Q 2388 4750 2728 4690 
Q 3069 4631 3425 4513 
z
" transform="scale(0.015625)"/>
       <path id="DejaVuSans-73" d="M 2834 3397 
L 2834 2853 
Q 2591 2978 2328 3040 
Q 2066 3103 1784 3103 
Q 1356 3103 1142 2972 
Q 928 2841 928 2578 
Q 928 2378 1081 2264 
Q 1234 2150 1697 2047 
L 1894 2003 
Q 2506 1872 2764 1633 
Q 3022 1394 3022 966 
Q 3022 478 2636 193 
Q 2250 -91 1575 -91 
Q 1294 -91 989 -36 
Q 684 19 347 128 
L 347 722 
Q 666 556 975 473 
Q 1284 391 1588 391 
Q 1994 391 2212 530 
Q 2431 669 2431 922 
Q 2431 1156 2273 1281 
Q 2116 1406 1581 1522 
L 1381 1569 
Q 847 1681 609 1914 
Q 372 2147 372 2553 
Q 372 3047 722 3315 
Q 1072 3584 1716 3584 
Q 2034 3584 2315 3537 
Q 2597 3491 2834 3397 
z
" transform="scale(0.015625)"/>
       <path id="DejaVuSans-2b" d="M 2944 4013 
L 2944 2272 
L 4684 2272 
L 4684 1741 
L 2944 1741 
L 2944 0 
L 2419 0 
L 2419 1741 
L 678 1741 
L 678 2272 
L 2419 2272 
L 2419 4013 
L 2944 4013 
z
" transform="scale(0.015625)"/>
      </defs>
      <use xlink:href="#DejaVuSans-53"/>
      <use xlink:href="#DejaVuSans-3a" x="63.476562"/>
      <use xlink:href="#DejaVuSans-20" x="97.167969"/>
      <use xlink:href="#DejaVuSans-51" x="128.955078"/>
      <use xlink:href="#DejaVuSans-73" x="207.666016"/>
      <use xlink:href="#DejaVuSans-20" x="259.765625"/>
      <use xlink:href="#DejaVuSans-3d" x="291.552734"/>
      <use xlink:href="#DejaVuSans-20" x="375.341797"/>
      <use xlink:href="#DejaVuSans-2212" x="407.128906"/>
      <use xlink:href="#DejaVuSans-31" x="490.917969"/>
      <use xlink:href="#DejaVuSans-30" x="554.541016"/>
      <use xlink:href="#DejaVuSans-30" x="618.164062"/>
      <use xlink:href="#DejaVuSans-30" x="681.787109"/>
      <use xlink:href="#DejaVuSans-30" x="745.410156"/>
      <use xlink:href="#DejaVuSans-20" x="809.033203"/>
      <use xlink:href="#DejaVuSans-2b" x="840.820312"/>
      <use xlink:href="#DejaVuSans-20" x="924.609375"/>
      <use xlink:href="#DejaVuSans-35" x="956.396484"/>
      <use xlink:href="#DejaVuSans-30" x="1020.019531"/>
      <use xlink:href="#DejaVuSans-30" x="1083.642578"/>
      <use xlink:href="#DejaVuSans-30" x="1147.265625"/>
      <use xlink:href="#DejaVuSans-50" x="1210.888672"/>
     </g>
    </g>
    <g id="line2d_30">
     <path d="M 464.878076 492.747969 
L 473.878076 492.747969 
L 482.878076 492.747969 
" style="fill: none; stroke-dasharray: 9.25,4; stroke-dashoffset: 0; stroke: #7d3c98; stroke-width: 2.5"/>
    </g>
    <g id="text_17">
     <!-- P_max = $5 -->
     <g transform="translate(490.078076 495.897969) scale(0.09 -0.09)">
      <defs>
       <path id="DejaVuSans-5f" d="M 3263 -1063 
L 3263 -1509 
L -63 -1509 
L -63 -1063 
L 3263 -1063 
z
" transform="scale(0.015625)"/>
       <path id="DejaVuSans-6d" d="M 3328 2828 
Q 3544 3216 3844 3400 
Q 4144 3584 4550 3584 
Q 5097 3584 5394 3201 
Q 5691 2819 5691 2113 
L 5691 0 
L 5113 0 
L 5113 2094 
Q 5113 2597 4934 2840 
Q 4756 3084 4391 3084 
Q 3944 3084 3684 2787 
Q 3425 2491 3425 1978 
L 3425 0 
L 2847 0 
L 2847 2094 
Q 2847 2600 2669 2842 
Q 2491 3084 2119 3084 
Q 1678 3084 1418 2786 
Q 1159 2488 1159 1978 
L 1159 0 
L 581 0 
L 581 3500 
L 1159 3500 
L 1159 2956 
Q 1356 3278 1631 3431 
Q 1906 3584 2284 3584 
Q 2666 3584 2933 3390 
Q 3200 3197 3328 2828 
z
" transform="scale(0.015625)"/>
       <path id="DejaVuSans-61" d="M 2194 1759 
Q 1497 1759 1228 1600 
Q 959 1441 959 1056 
Q 959 750 1161 570 
Q 1363 391 1709 391 
Q 2188 391 2477 730 
Q 2766 1069 2766 1631 
L 2766 1759 
L 2194 1759 
z
M 3341 1997 
L 3341 0 
L 2766 0 
L 2766 531 
Q 2569 213 2275 61 
Q 1981 -91 1556 -91 
Q 1019 -91 701 211 
Q 384 513 384 1019 
Q 384 1609 779 1909 
Q 1175 2209 1959 2209 
L 2766 2209 
L 2766 2266 
Q 2766 2663 2505 2880 
Q 2244 3097 1772 3097 
Q 1472 3097 1187 3025 
Q 903 2953 641 2809 
L 641 3341 
Q 956 3463 1253 3523 
Q 1550 3584 1831 3584 
Q 2591 3584 2966 3190 
Q 3341 2797 3341 1997 
z
" transform="scale(0.015625)"/>
       <path id="DejaVuSans-78" d="M 3513 3500 
L 2247 1797 
L 3578 0 
L 2900 0 
L 1881 1375 
L 863 0 
L 184 0 
L 1544 1831 
L 300 3500 
L 978 3500 
L 1906 2253 
L 2834 3500 
L 3513 3500 
z
" transform="scale(0.015625)"/>
       <path id="DejaVuSans-24" d="M 2163 -941 
L 1850 -941 
L 1847 0 
Q 1519 6 1191 76 
Q 863 147 531 288 
L 531 850 
Q 850 650 1176 548 
Q 1503 447 1850 444 
L 1850 1869 
Q 1159 1981 845 2250 
Q 531 2519 531 2988 
Q 531 3497 872 3790 
Q 1213 4084 1850 4128 
L 1850 4863 
L 2163 4863 
L 2163 4138 
Q 2453 4125 2725 4076 
Q 2997 4028 3256 3944 
L 3256 3397 
Q 2997 3528 2723 3600 
Q 2450 3672 2163 3684 
L 2163 2350 
Q 2872 2241 3206 1959 
Q 3541 1678 3541 1191 
Q 3541 663 3186 358 
Q 2831 53 2163 6 
L 2163 -941 
z
M 1850 2406 
L 1850 3688 
Q 1488 3647 1297 3481 
Q 1106 3316 1106 3041 
Q 1106 2772 1282 2622 
Q 1459 2472 1850 2406 
z
M 2163 1806 
L 2163 453 
Q 2559 506 2761 678 
Q 2963 850 2963 1131 
Q 2963 1406 2770 1568 
Q 2578 1731 2163 1806 
z
" transform="scale(0.015625)"/>
      </defs>
      <use xlink:href="#DejaVuSans-50"/>
      <use xlink:href="#DejaVuSans-5f" x="60.302734"/>
      <use xlink:href="#DejaVuSans-6d" x="110.302734"/>
      <use xlink:href="#DejaVuSans-61" x="207.714844"/>
      <use xlink:href="#DejaVuSans-78" x="268.994141"/>
      <use xlink:href="#DejaVuSans-20" x="328.173828"/>
      <use xlink:href="#DejaVuSans-3d" x="359.960938"/>
      <use xlink:href="#DejaVuSans-20" x="443.75"/>
      <use xlink:href="#DejaVuSans-24" x="475.537109"/>
      <use xlink:href="#DejaVuSans-35" x="539.160156"/>
     </g>
    </g>
   </g>
   <g id="line2d_31">
    <defs>
     <path id="m78ef883461" d="M 0 5 
C 1.326016 5 2.597899 4.473168 3.535534 3.535534 
C 4.473168 2.597899 5 1.326016 5 0 
C 5 -1.326016 4.473168 -2.597899 3.535534 -3.535534 
C 2.597899 -4.473168 1.326016 -5 0 -5 
C -1.326016 -5 -2.597899 -4.473168 -3.535534 -3.535534 
C -4.473168 -2.597899 -5 -1.326016 -5 0 
C -5 1.326016 -4.473168 2.597899 -3.535534 3.535534 
C -2.597899 4.473168 -1.326016 5 0 5 
z
" style="stroke: #000000"/>
    </defs>
    <g clip-path="url(#p2d7e59c549)">
     <use xlink:href="#m78ef883461" x="382.32774" y="195.027166" style="stroke: #000000"/>
    </g>
   </g>
   <g id="line2d_32">
    <defs>
     <path id="m62712fcefd" d="M -0 6 
L 6 -6 
L -6 -6 
z
" style="stroke: #c0392b; stroke-linejoin: miter"/>
    </defs>
    <g clip-path="url(#p2d7e59c549)">
     <use xlink:href="#m62712fcefd" x="433.496321" y="274.931148" style="fill: #c0392b; stroke: #c0392b; stroke-linejoin: miter"/>
    </g>
   </g>
   <g id="line2d_33">
    <defs>
     <path id="mfdb00f265c" d="M 0 -6 
L -6 6 
L 6 6 
z
" style="stroke: #2980b9; stroke-linejoin: miter"/>
    </defs>
    <g clip-path="url(#p2d7e59c549)">
     <use xlink:href="#mfdb00f265c" x="254.406286" y="274.931148" style="fill: #2980b9; stroke: #2980b9; stroke-linejoin: miter"/>
    </g>
   </g>
   <g id="patch_7">
    <path d="M 448.540672 135.229691 
Q 416.176798 164.457787 384.642668 192.936534 
" style="fill: none; stroke: #000000; stroke-linecap: round"/>
    <path d="M 388.951728 191.739873 
L 384.642668 192.936534 
L 386.270774 188.771289 
" style="fill: none; stroke: #000000; stroke-linecap: round"/>
   </g>
   <g id="text_18">
    <g id="patch_8">
     <path d="M 438.527308 133.48751 
L 493.278871 133.48751 
Q 496.778871 133.48751 496.778871 129.98751 
L 496.778871 109.111572 
Q 496.778871 105.611572 493.278871 105.611572 
L 438.527308 105.611572 
Q 435.027308 105.611572 435.027308 109.111572 
L 435.027308 129.98751 
Q 435.027308 133.48751 438.527308 133.48751 
z
" style="fill: #ffffff; opacity: 0.97; stroke: #bdc3c7; stroke-width: 0.8; stroke-linejoin: miter"/>
    </g>
    <!-- E libre -->
    <g transform="translate(447.882777 116.71001) scale(0.1 -0.1)">
     <defs>
      <path id="DejaVuSans-Bold-62" d="M 2400 722 
Q 2759 722 2948 984 
Q 3138 1247 3138 1747 
Q 3138 2247 2948 2509 
Q 2759 2772 2400 2772 
Q 2041 2772 1848 2508 
Q 1656 2244 1656 1747 
Q 1656 1250 1848 986 
Q 2041 722 2400 722 
z
M 1656 2988 
Q 1888 3294 2169 3439 
Q 2450 3584 2816 3584 
Q 3463 3584 3878 3070 
Q 4294 2556 4294 1747 
Q 4294 938 3878 423 
Q 3463 -91 2816 -91 
Q 2450 -91 2169 54 
Q 1888 200 1656 506 
L 1656 0 
L 538 0 
L 538 4863 
L 1656 4863 
L 1656 2988 
z
" transform="scale(0.015625)"/>
     </defs>
     <use xlink:href="#DejaVuSans-Bold-45"/>
     <use xlink:href="#DejaVuSans-Bold-20" x="68.310547"/>
     <use xlink:href="#DejaVuSans-Bold-6c" x="103.125"/>
     <use xlink:href="#DejaVuSans-Bold-69" x="137.402344"/>
     <use xlink:href="#DejaVuSans-Bold-62" x="171.679688"/>
     <use xlink:href="#DejaVuSans-Bold-72" x="243.261719"/>
     <use xlink:href="#DejaVuSans-Bold-65" x="292.578125"/>
    </g>
    <!-- (P*≈7.14) -->
    <g transform="translate(438.527308 127.907822) scale(0.1 -0.1)">
     <defs>
      <path id="DejaVuSans-Bold-2a" d="M 3219 3803 
L 2188 3263 
L 3219 2719 
L 2981 2278 
L 1941 2853 
L 1941 1778 
L 1409 1778 
L 1409 2853 
L 366 2278 
L 128 2719 
L 1172 3263 
L 128 3803 
L 366 4244 
L 1409 3675 
L 1409 4750 
L 1941 4750 
L 1941 3675 
L 2981 4244 
L 3219 3803 
z
" transform="scale(0.015625)"/>
      <path id="DejaVuSans-Bold-2248" d="M 4684 3309 
L 4684 2547 
Q 4353 2297 4073 2189 
Q 3794 2081 3494 2081 
Q 3159 2081 2713 2263 
Q 2669 2281 2644 2291 
Q 2622 2300 2575 2319 
Q 2091 2509 1797 2509 
Q 1522 2509 1253 2389 
Q 984 2269 678 2009 
L 678 2772 
Q 1006 3016 1286 3123 
Q 1566 3231 1869 3231 
Q 2213 3231 2672 3047 
Q 2703 3034 2719 3028 
Q 2744 3019 2788 3000 
Q 3272 2809 3566 2809 
Q 3834 2809 4098 2926 
Q 4363 3044 4684 3309 
z
M 4684 2003 
L 4684 1241 
Q 4353 991 4073 883 
Q 3794 775 3494 775 
Q 3159 775 2713 956 
Q 2669 975 2641 988 
Q 2622 994 2575 1013 
Q 2091 1203 1797 1203 
Q 1522 1203 1253 1084 
Q 984 966 678 703 
L 678 1466 
Q 1013 1716 1291 1823 
Q 1569 1931 1869 1931 
Q 2203 1931 2650 1750 
Q 2697 1731 2719 1722 
Q 2744 1713 2788 1697 
Q 3272 1503 3566 1503 
Q 3834 1503 4098 1620 
Q 4363 1738 4684 2003 
z
" transform="scale(0.015625)"/>
     </defs>
     <use xlink:href="#DejaVuSans-Bold-28"/>
     <use xlink:href="#DejaVuSans-Bold-50" x="45.703125"/>
     <use xlink:href="#DejaVuSans-Bold-2a" x="118.994141"/>
     <use xlink:href="#DejaVuSans-Bold-2248" x="171.289062"/>
     <use xlink:href="#DejaVuSans-Bold-37" x="255.078125"/>
     <use xlink:href="#DejaVuSans-Bold-2e" x="324.658203"/>
     <use xlink:href="#DejaVuSans-Bold-31" x="362.646484"/>
     <use xlink:href="#DejaVuSans-Bold-34" x="432.226562"/>
     <use xlink:href="#DejaVuSans-Bold-29" x="501.806641"/>
    </g>
   </g>
   <g id="text_19">
    <g id="patch_9">
     <path d="M 398.70179 485.59772 
L 468.290852 485.59772 
Q 471.790852 485.59772 471.790852 482.09772 
L 471.790852 472.419595 
Q 471.790852 468.919595 468.290852 468.919595 
L 398.70179 468.919595 
Q 395.20179 468.919595 395.20179 472.419595 
L 395.20179 482.09772 
Q 395.20179 485.59772 398.70179 485.59772 
z
" style="fill: #ffffff; opacity: 0.97; stroke: #bdc3c7; stroke-width: 0.8; stroke-linejoin: miter"/>
    </g>
    <!-- Qd = 30.000 -->
    <g style="fill: #c0392b" transform="translate(398.70179 480.018033) scale(0.1 -0.1)">
     <defs>
      <path id="DejaVuSans-Bold-3d" d="M 678 3084 
L 4684 3084 
L 4684 2350 
L 678 2350 
L 678 3084 
z
M 678 1663 
L 4684 1663 
L 4684 922 
L 678 922 
L 678 1663 
z
" transform="scale(0.015625)"/>
      <path id="DejaVuSans-Bold-33" d="M 2981 2516 
Q 3453 2394 3698 2092 
Q 3944 1791 3944 1325 
Q 3944 631 3412 270 
Q 2881 -91 1863 -91 
Q 1503 -91 1142 -33 
Q 781 25 428 141 
L 428 1069 
Q 766 900 1098 814 
Q 1431 728 1753 728 
Q 2231 728 2486 893 
Q 2741 1059 2741 1369 
Q 2741 1688 2480 1852 
Q 2219 2016 1709 2016 
L 1228 2016 
L 1228 2791 
L 1734 2791 
Q 2188 2791 2409 2933 
Q 2631 3075 2631 3366 
Q 2631 3634 2415 3781 
Q 2200 3928 1806 3928 
Q 1516 3928 1219 3862 
Q 922 3797 628 3669 
L 628 4550 
Q 984 4650 1334 4700 
Q 1684 4750 2022 4750 
Q 2931 4750 3382 4451 
Q 3834 4153 3834 3553 
Q 3834 3144 3618 2883 
Q 3403 2622 2981 2516 
z
" transform="scale(0.015625)"/>
      <path id="DejaVuSans-Bold-30" d="M 2944 2338 
Q 2944 3213 2780 3570 
Q 2616 3928 2228 3928 
Q 1841 3928 1675 3570 
Q 1509 3213 1509 2338 
Q 1509 1453 1675 1090 
Q 1841 728 2228 728 
Q 2613 728 2778 1090 
Q 2944 1453 2944 2338 
z
M 4147 2328 
Q 4147 1169 3647 539 
Q 3147 -91 2228 -91 
Q 1306 -91 806 539 
Q 306 1169 306 2328 
Q 306 3491 806 4120 
Q 1306 4750 2228 4750 
Q 3147 4750 3647 4120 
Q 4147 3491 4147 2328 
z
" transform="scale(0.015625)"/>
     </defs>
     <use xlink:href="#DejaVuSans-Bold-51"/>
     <use xlink:href="#DejaVuSans-Bold-64" x="85.009766"/>
     <use xlink:href="#DejaVuSans-Bold-20" x="156.591797"/>
     <use xlink:href="#DejaVuSans-Bold-3d" x="191.40625"/>
     <use xlink:href="#DejaVuSans-Bold-20" x="275.195312"/>
     <use xlink:href="#DejaVuSans-Bold-33" x="310.009766"/>
     <use xlink:href="#DejaVuSans-Bold-30" x="379.589844"/>
     <use xlink:href="#DejaVuSans-Bold-2e" x="449.169922"/>
     <use xlink:href="#DejaVuSans-Bold-30" x="487.158203"/>
     <use xlink:href="#DejaVuSans-Bold-30" x="556.738281"/>
     <use xlink:href="#DejaVuSans-Bold-30" x="626.318359"/>
    </g>
   </g>
   <g id="text_20">
    <g id="patch_10">
     <path d="M 220.214879 485.59772 
L 288.597692 485.59772 
Q 292.097692 485.59772 292.097692 482.09772 
L 292.097692 472.419595 
Q 292.097692 468.919595 288.597692 468.919595 
L 220.214879 468.919595 
Q 216.714879 468.919595 216.714879 472.419595 
L 216.714879 482.09772 
Q 216.714879 485.59772 220.214879 485.59772 
z
" style="fill: #ffffff; opacity: 0.97; stroke: #bdc3c7; stroke-width: 0.8; stroke-linejoin: miter"/>
    </g>
    <!-- Qs = 15.000 -->
    <g style="fill: #2980b9" transform="translate(220.214879 480.018033) scale(0.1 -0.1)">
     <defs>
      <path id="DejaVuSans-Bold-35" d="M 678 4666 
L 3669 4666 
L 3669 3781 
L 1638 3781 
L 1638 3059 
Q 1775 3097 1914 3117 
Q 2053 3138 2203 3138 
Q 3056 3138 3531 2711 
Q 4006 2284 4006 1522 
Q 4006 766 3489 337 
Q 2972 -91 2053 -91 
Q 1656 -91 1267 -14 
Q 878 63 494 219 
L 494 1166 
Q 875 947 1217 837 
Q 1559 728 1863 728 
Q 2300 728 2551 942 
Q 2803 1156 2803 1522 
Q 2803 1891 2551 2103 
Q 2300 2316 1863 2316 
Q 1603 2316 1309 2248 
Q 1016 2181 678 2041 
L 678 4666 
z
" transform="scale(0.015625)"/>
     </defs>
     <use xlink:href="#DejaVuSans-Bold-51"/>
     <use xlink:href="#DejaVuSans-Bold-73" x="85.009766"/>
     <use xlink:href="#DejaVuSans-Bold-20" x="144.53125"/>
     <use xlink:href="#DejaVuSans-Bold-3d" x="179.345703"/>
     <use xlink:href="#DejaVuSans-Bold-20" x="263.134766"/>
     <use xlink:href="#DejaVuSans-Bold-31" x="297.949219"/>
     <use xlink:href="#DejaVuSans-Bold-35" x="367.529297"/>
     <use xlink:href="#DejaVuSans-Bold-2e" x="437.109375"/>
     <use xlink:href="#DejaVuSans-Bold-30" x="475.097656"/>
     <use xlink:href="#DejaVuSans-Bold-30" x="544.677734"/>
     <use xlink:href="#DejaVuSans-Bold-30" x="614.257812"/>
    </g>
   </g>
   <g id="text_21">
    <g id="patch_11">
     <path d="M 290.082241 239.501427 
L 397.820366 239.501427 
Q 401.120366 239.501427 401.120366 236.201427 
L 401.120366 225.555489 
Q 401.120366 222.255489 397.820366 222.255489 
L 290.082241 222.255489 
Q 286.782241 222.255489 286.782241 225.555489 
L 286.782241 236.201427 
Q 286.782241 239.501427 290.082241 239.501427 
z
" style="fill: #fffbeb; opacity: 0.97; stroke: #f39c12; stroke-width: 0.7; stroke-linejoin: miter"/>
    </g>
    <!-- Escasez = 15.000 -->
    <g style="fill: #c0392b" transform="translate(290.082241 233.91377) scale(0.11 -0.11)">
     <defs>
      <path id="DejaVuSans-Bold-7a" d="M 366 3500 
L 3419 3500 
L 3419 2719 
L 1575 800 
L 3419 800 
L 3419 0 
L 288 0 
L 288 781 
L 2131 2700 
L 366 2700 
L 366 3500 
z
" transform="scale(0.015625)"/>
     </defs>
     <use xlink:href="#DejaVuSans-Bold-45"/>
     <use xlink:href="#DejaVuSans-Bold-73" x="68.310547"/>
     <use xlink:href="#DejaVuSans-Bold-63" x="127.832031"/>
     <use xlink:href="#DejaVuSans-Bold-61" x="187.109375"/>
     <use xlink:href="#DejaVuSans-Bold-73" x="254.589844"/>
     <use xlink:href="#DejaVuSans-Bold-65" x="314.111328"/>
     <use xlink:href="#DejaVuSans-Bold-7a" x="381.933594"/>
     <use xlink:href="#DejaVuSans-Bold-20" x="440.136719"/>
     <use xlink:href="#DejaVuSans-Bold-3d" x="474.951172"/>
     <use xlink:href="#DejaVuSans-Bold-20" x="558.740234"/>
     <use xlink:href="#DejaVuSans-Bold-31" x="593.554688"/>
     <use xlink:href="#DejaVuSans-Bold-35" x="663.134766"/>
     <use xlink:href="#DejaVuSans-Bold-2e" x="732.714844"/>
     <use xlink:href="#DejaVuSans-Bold-30" x="770.703125"/>
     <use xlink:href="#DejaVuSans-Bold-30" x="840.283203"/>
     <use xlink:href="#DejaVuSans-Bold-30" x="909.863281"/>
    </g>
   </g>
  </g>
  <g id="axes_2">
   <g id="patch_12">
    <path d="M 644.196963 506.12 
L 1205.345741 506.12 
L 1205.345741 51.2 
L 644.196963 51.2 
z
" style="fill: #ffffff"/>
   </g>
   <g id="matplotlib.axis_3">
    <g id="xtick_6">
     <g id="line2d_34">
      <path d="M 685.763539 506.12 
L 685.763539 51.2 
" clip-path="url(#p26b05fa95e)" style="fill: none; stroke-dasharray: 0.8,1.32; stroke-dashoffset: 0; stroke: #b0b0b0; stroke-opacity: 0.4; stroke-width: 0.8"/>
     </g>
     <g id="line2d_35">
      <g>
       <use xlink:href="#me83d1c6010" x="685.763539" y="461.37377" style="stroke: #000000"/>
      </g>
     </g>
     <g id="text_22">
      <!-- 0 -->
      <g transform="translate(682.582289 472.472208) scale(0.1 -0.1)">
       <use xlink:href="#DejaVuSans-30"/>
      </g>
     </g>
    </g>
    <g id="xtick_7">
     <g id="line2d_36">
      <path d="M 789.679979 506.12 
L 789.679979 51.2 
" clip-path="url(#p26b05fa95e)" style="fill: none; stroke-dasharray: 0.8,1.32; stroke-dashoffset: 0; stroke: #b0b0b0; stroke-opacity: 0.4; stroke-width: 0.8"/>
     </g>
     <g id="line2d_37">
      <g>
       <use xlink:href="#me83d1c6010" x="789.679979" y="461.37377" style="stroke: #000000"/>
      </g>
     </g>
     <g id="text_23">
      <!-- 5000 -->
      <g transform="translate(776.954979 472.472208) scale(0.1 -0.1)">
       <use xlink:href="#DejaVuSans-35"/>
       <use xlink:href="#DejaVuSans-30" x="63.623047"/>
       <use xlink:href="#DejaVuSans-30" x="127.246094"/>
       <use xlink:href="#DejaVuSans-30" x="190.869141"/>
      </g>
     </g>
    </g>
    <g id="xtick_8">
     <g id="line2d_38">
      <path d="M 893.59642 506.12 
L 893.59642 51.2 
" clip-path="url(#p26b05fa95e)" style="fill: none; stroke-dasharray: 0.8,1.32; stroke-dashoffset: 0; stroke: #b0b0b0; stroke-opacity: 0.4; stroke-width: 0.8"/>
     </g>
     <g id="line2d_39">
      <g>
       <use xlink:href="#me83d1c6010" x="893.59642" y="461.37377" style="stroke: #000000"/>
      </g>
     </g>
     <g id="text_24">
      <!-- 10000 -->
      <g transform="translate(877.69017 472.472208) scale(0.1 -0.1)">
       <use xlink:href="#DejaVuSans-31"/>
       <use xlink:href="#DejaVuSans-30" x="63.623047"/>
       <use xlink:href="#DejaVuSans-30" x="127.246094"/>
       <use xlink:href="#DejaVuSans-30" x="190.869141"/>
       <use xlink:href="#DejaVuSans-30" x="254.492188"/>
      </g>
     </g>
    </g>
    <g id="xtick_9">
     <g id="line2d_40">
      <path d="M 997.51286 506.12 
L 997.51286 51.2 
" clip-path="url(#p26b05fa95e)" style="fill: none; stroke-dasharray: 0.8,1.32; stroke-dashoffset: 0; stroke: #b0b0b0; stroke-opacity: 0.4; stroke-width: 0.8"/>
     </g>
     <g id="line2d_41">
      <g>
       <use xlink:href="#me83d1c6010" x="997.51286" y="461.37377" style="stroke: #000000"/>
      </g>
     </g>
     <g id="text_25">
      <!-- 15000 -->
      <g transform="translate(981.60661 472.472208) scale(0.1 -0.1)">
       <use xlink:href="#DejaVuSans-31"/>
       <use xlink:href="#DejaVuSans-35" x="63.623047"/>
       <use xlink:href="#DejaVuSans-30" x="127.246094"/>
       <use xlink:href="#DejaVuSans-30" x="190.869141"/>
       <use xlink:href="#DejaVuSans-30" x="254.492188"/>
      </g>
     </g>
    </g>
    <g id="xtick_10">
     <g id="line2d_42">
      <path d="M 1101.429301 506.12 
L 1101.429301 51.2 
" clip-path="url(#p26b05fa95e)" style="fill: none; stroke-dasharray: 0.8,1.32; stroke-dashoffset: 0; stroke: #b0b0b0; stroke-opacity: 0.4; stroke-width: 0.8"/>
     </g>
     <g id="line2d_43">
      <g>
       <use xlink:href="#me83d1c6010" x="1101.429301" y="461.37377" style="stroke: #000000"/>
      </g>
     </g>
     <g id="text_26">
      <!-- 20000 -->
      <g transform="translate(1085.523051 472.472208) scale(0.1 -0.1)">
       <use xlink:href="#DejaVuSans-32"/>
       <use xlink:href="#DejaVuSans-30" x="63.623047"/>
       <use xlink:href="#DejaVuSans-30" x="127.246094"/>
       <use xlink:href="#DejaVuSans-30" x="190.869141"/>
       <use xlink:href="#DejaVuSans-30" x="254.492188"/>
      </g>
     </g>
    </g>
    <g id="xtick_11">
     <g id="line2d_44">
      <path d="M 1205.345741 506.12 
L 1205.345741 51.2 
" clip-path="url(#p26b05fa95e)" style="fill: none; stroke-dasharray: 0.8,1.32; stroke-dashoffset: 0; stroke: #b0b0b0; stroke-opacity: 0.4; stroke-width: 0.8"/>
     </g>
     <g id="line2d_45">
      <g>
       <use xlink:href="#me83d1c6010" x="1205.345741" y="461.37377" style="stroke: #000000"/>
      </g>
     </g>
     <g id="text_27">
      <!-- 25000 -->
      <g transform="translate(1189.439491 472.472208) scale(0.1 -0.1)">
       <use xlink:href="#DejaVuSans-32"/>
       <use xlink:href="#DejaVuSans-35" x="63.623047"/>
       <use xlink:href="#DejaVuSans-30" x="127.246094"/>
       <use xlink:href="#DejaVuSans-30" x="190.869141"/>
       <use xlink:href="#DejaVuSans-30" x="254.492188"/>
      </g>
     </g>
    </g>
    <g id="text_28">
     <!-- Q (canchas-hora) -->
     <g transform="translate(1089.564491 481.67002) scale(0.12 -0.12)">
      <use xlink:href="#DejaVuSans-Bold-51"/>
      <use xlink:href="#DejaVuSans-Bold-20" x="85.009766"/>
      <use xlink:href="#DejaVuSans-Bold-28" x="119.824219"/>
      <use xlink:href="#DejaVuSans-Bold-63" x="165.527344"/>
      <use xlink:href="#DejaVuSans-Bold-61" x="224.804688"/>
      <use xlink:href="#DejaVuSans-Bold-6e" x="292.285156"/>
      <use xlink:href="#DejaVuSans-Bold-63" x="363.476562"/>
      <use xlink:href="#DejaVuSans-Bold-68" x="422.753906"/>
      <use xlink:href="#DejaVuSans-Bold-61" x="493.945312"/>
      <use xlink:href="#DejaVuSans-Bold-73" x="561.425781"/>
      <use xlink:href="#DejaVuSans-Bold-2d" x="620.947266"/>
      <use xlink:href="#DejaVuSans-Bold-68" x="662.451172"/>
      <use xlink:href="#DejaVuSans-Bold-6f" x="733.642578"/>
      <use xlink:href="#DejaVuSans-Bold-72" x="802.34375"/>
      <use xlink:href="#DejaVuSans-Bold-61" x="851.660156"/>
      <use xlink:href="#DejaVuSans-Bold-29" x="919.140625"/>
     </g>
    </g>
   </g>
   <g id="matplotlib.axis_4">
    <g id="ytick_7">
     <g id="line2d_46">
      <path d="M 644.196963 461.37377 
L 1205.345741 461.37377 
" clip-path="url(#p26b05fa95e)" style="fill: none; stroke-dasharray: 0.8,1.32; stroke-dashoffset: 0; stroke: #b0b0b0; stroke-opacity: 0.4; stroke-width: 0.8"/>
     </g>
     <g id="line2d_47">
      <g>
       <use xlink:href="#m20a3cfd5b6" x="685.763539" y="461.37377" style="stroke: #000000"/>
      </g>
     </g>
     <g id="text_29">
      <!-- 0 -->
      <g transform="translate(675.901039 465.172989) scale(0.1 -0.1)">
       <use xlink:href="#DejaVuSans-30"/>
      </g>
     </g>
    </g>
    <g id="ytick_8">
     <g id="line2d_48">
      <path d="M 644.196963 386.796721 
L 1205.345741 386.796721 
" clip-path="url(#p26b05fa95e)" style="fill: none; stroke-dasharray: 0.8,1.32; stroke-dashoffset: 0; stroke: #b0b0b0; stroke-opacity: 0.4; stroke-width: 0.8"/>
     </g>
     <g id="line2d_49">
      <g>
       <use xlink:href="#m20a3cfd5b6" x="685.763539" y="386.796721" style="stroke: #000000"/>
      </g>
     </g>
     <g id="text_30">
      <!-- 2 -->
      <g transform="translate(675.901039 390.59594) scale(0.1 -0.1)">
       <use xlink:href="#DejaVuSans-32"/>
      </g>
     </g>
    </g>
    <g id="ytick_9">
     <g id="line2d_50">
      <path d="M 644.196963 312.219672 
L 1205.345741 312.219672 
" clip-path="url(#p26b05fa95e)" style="fill: none; stroke-dasharray: 0.8,1.32; stroke-dashoffset: 0; stroke: #b0b0b0; stroke-opacity: 0.4; stroke-width: 0.8"/>
     </g>
     <g id="line2d_51">
      <g>
       <use xlink:href="#m20a3cfd5b6" x="685.763539" y="312.219672" style="stroke: #000000"/>
      </g>
     </g>
     <g id="text_31">
      <!-- 4 -->
      <g transform="translate(675.901039 316.018891) scale(0.1 -0.1)">
       <use xlink:href="#DejaVuSans-34"/>
      </g>
     </g>
    </g>
    <g id="ytick_10">
     <g id="line2d_52">
      <path d="M 644.196963 237.642623 
L 1205.345741 237.642623 
" clip-path="url(#p26b05fa95e)" style="fill: none; stroke-dasharray: 0.8,1.32; stroke-dashoffset: 0; stroke: #b0b0b0; stroke-opacity: 0.4; stroke-width: 0.8"/>
     </g>
     <g id="line2d_53">
      <g>
       <use xlink:href="#m20a3cfd5b6" x="685.763539" y="237.642623" style="stroke: #000000"/>
      </g>
     </g>
     <g id="text_32">
      <!-- 6 -->
      <g transform="translate(675.901039 241.441842) scale(0.1 -0.1)">
       <use xlink:href="#DejaVuSans-36"/>
      </g>
     </g>
    </g>
    <g id="ytick_11">
     <g id="line2d_54">
      <path d="M 644.196963 163.065574 
L 1205.345741 163.065574 
" clip-path="url(#p26b05fa95e)" style="fill: none; stroke-dasharray: 0.8,1.32; stroke-dashoffset: 0; stroke: #b0b0b0; stroke-opacity: 0.4; stroke-width: 0.8"/>
     </g>
     <g id="line2d_55">
      <g>
       <use xlink:href="#m20a3cfd5b6" x="685.763539" y="163.065574" style="stroke: #000000"/>
      </g>
     </g>
     <g id="text_33">
      <!-- 8 -->
      <g transform="translate(675.901039 166.864793) scale(0.1 -0.1)">
       <use xlink:href="#DejaVuSans-38"/>
      </g>
     </g>
    </g>
    <g id="ytick_12">
     <g id="line2d_56">
      <path d="M 644.196963 88.488525 
L 1205.345741 88.488525 
" clip-path="url(#p26b05fa95e)" style="fill: none; stroke-dasharray: 0.8,1.32; stroke-dashoffset: 0; stroke: #b0b0b0; stroke-opacity: 0.4; stroke-width: 0.8"/>
     </g>
     <g id="line2d_57">
      <g>
       <use xlink:href="#m20a3cfd5b6" x="685.763539" y="88.488525" style="stroke: #000000"/>
      </g>
     </g>
     <g id="text_34">
      <!-- 10 -->
      <g transform="translate(669.538539 92.287743) scale(0.1 -0.1)">
       <use xlink:href="#DejaVuSans-31"/>
       <use xlink:href="#DejaVuSans-30" x="63.623047"/>
      </g>
     </g>
    </g>
    <g id="text_35">
     <!-- P ($) -->
     <g transform="translate(639.247289 48.704375) scale(0.12 -0.12)">
      <use xlink:href="#DejaVuSans-Bold-50"/>
      <use xlink:href="#DejaVuSans-Bold-20" x="73.291016"/>
      <use xlink:href="#DejaVuSans-Bold-28" x="108.105469"/>
      <use xlink:href="#DejaVuSans-Bold-24" x="153.808594"/>
      <use xlink:href="#DejaVuSans-Bold-29" x="223.388672"/>
     </g>
    </g>
   </g>
   <g id="line2d_58">
    <path d="M 1101.429301 461.37377 
L 602.630387 13.911475 
L 602.630387 13.911475 
" clip-path="url(#p26b05fa95e)" style="fill: none; stroke: #c0392b; stroke-width: 3; stroke-linecap: square"/>
   </g>
   <g id="line2d_59">
    <path d="M 477.930658 461.37377 
L 1251.051991 183.953242 
L 1251.051991 183.953242 
" clip-path="url(#p26b05fa95e)" style="fill: none; stroke: #2980b9; stroke-width: 3; stroke-linecap: square"/>
   </g>
   <g id="line2d_60">
    <path d="M 644.196963 274.931148 
L 1205.345741 274.931148 
" clip-path="url(#p26b05fa95e)" style="fill: none; stroke-dasharray: 9.25,4; stroke-dashoffset: 0; stroke: #7d3c98; stroke-width: 2.5"/>
   </g>
   <g id="line2d_61">
    <path d="M 923.286831 461.37377 
L 923.286831 301.565808 
" clip-path="url(#p26b05fa95e)" style="fill: none; stroke-dasharray: 3.7,1.6; stroke-dashoffset: 0; stroke: #34495e; stroke-opacity: 0.6"/>
   </g>
   <g id="line2d_62">
    <path d="M 685.763539 301.565808 
L 923.286831 301.565808 
" clip-path="url(#p26b05fa95e)" style="fill: none; stroke-dasharray: 3.7,1.6; stroke-dashoffset: 0; stroke: #34495e; stroke-opacity: 0.6"/>
   </g>
   <g id="line2d_63">
    <g>
     <use xlink:href="#mddee0e44e9" x="1205.345741" y="461.37377" style="stroke: #000000; stroke-linejoin: miter"/>
    </g>
   </g>
   <g id="line2d_64">
    <g>
     <use xlink:href="#m8b74491026" x="685.763539" y="51.2" style="stroke: #000000; stroke-linejoin: miter"/>
    </g>
   </g>
   <g id="patch_13">
    <path d="M 685.763539 506.12 
L 685.763539 51.2 
" style="fill: none; stroke: #000000; stroke-width: 1.4; stroke-linejoin: miter; stroke-linecap: square"/>
   </g>
   <g id="patch_14">
    <path d="M 644.196963 461.37377 
L 1205.345741 461.37377 
" style="fill: none; stroke: #000000; stroke-width: 1.4; stroke-linejoin: miter; stroke-linecap: square"/>
   </g>
   <g id="text_36">
    <!-- (b) Demanda caída — tope NO EFECTIVO ($5 &gt; $4.29) -->
    <g transform="translate(740.951352 39.2) scale(0.13 -0.13)">
     <defs>
      <path id="DejaVuSans-Bold-ed" d="M 538 3500 
L 1656 3500 
L 1656 0 
L 538 0 
L 538 3500 
z
M 1590 5119 
L 2474 5119 
L 1321 3944 
L 709 3944 
L 1590 5119 
z
" transform="scale(0.015625)"/>
      <path id="DejaVuSans-Bold-4e" d="M 588 4666 
L 1931 4666 
L 3628 1466 
L 3628 4666 
L 4769 4666 
L 4769 0 
L 3425 0 
L 1728 3200 
L 1728 0 
L 588 0 
L 588 4666 
z
" transform="scale(0.015625)"/>
      <path id="DejaVuSans-3e" d="M 678 3150 
L 678 3719 
L 4684 2266 
L 4684 1747 
L 678 294 
L 678 863 
L 3897 2003 
L 678 3150 
z
" transform="scale(0.015625)"/>
      <path id="DejaVuSans-Bold-32" d="M 1844 884 
L 3897 884 
L 3897 0 
L 506 0 
L 506 884 
L 2209 2388 
Q 2438 2594 2547 2791 
Q 2656 2988 2656 3200 
Q 2656 3528 2436 3728 
Q 2216 3928 1850 3928 
Q 1569 3928 1234 3808 
Q 900 3688 519 3450 
L 519 4475 
Q 925 4609 1322 4679 
Q 1719 4750 2100 4750 
Q 2938 4750 3402 4381 
Q 3866 4013 3866 3353 
Q 3866 2972 3669 2642 
Q 3472 2313 2841 1759 
L 1844 884 
z
" transform="scale(0.015625)"/>
      <path id="DejaVuSans-Bold-39" d="M 641 103 
L 641 966 
Q 928 831 1190 764 
Q 1453 697 1709 697 
Q 2247 697 2547 995 
Q 2847 1294 2900 1881 
Q 2688 1725 2447 1647 
Q 2206 1569 1925 1569 
Q 1209 1569 770 1986 
Q 331 2403 331 3084 
Q 331 3838 820 4291 
Q 1309 4744 2131 4744 
Q 3044 4744 3544 4128 
Q 4044 3513 4044 2388 
Q 4044 1231 3459 570 
Q 2875 -91 1856 -91 
Q 1528 -91 1228 -42 
Q 928 6 641 103 
z
M 2125 2350 
Q 2441 2350 2600 2554 
Q 2759 2759 2759 3169 
Q 2759 3575 2600 3781 
Q 2441 3988 2125 3988 
Q 1809 3988 1650 3781 
Q 1491 3575 1491 3169 
Q 1491 2759 1650 2554 
Q 1809 2350 2125 2350 
z
" transform="scale(0.015625)"/>
     </defs>
     <use xlink:href="#DejaVuSans-Bold-28" transform="translate(0 0.015625)"/>
     <use xlink:href="#DejaVuSans-Bold-62" transform="translate(45.703125 0.015625)"/>
     <use xlink:href="#DejaVuSans-Bold-29" transform="translate(117.285156 0.015625)"/>
     <use xlink:href="#DejaVuSans-Bold-20" transform="translate(162.988281 0.015625)"/>
     <use xlink:href="#DejaVuSans-Bold-44" transform="translate(197.802734 0.015625)"/>
     <use xlink:href="#DejaVuSans-Bold-65" transform="translate(280.810547 0.015625)"/>
     <use xlink:href="#DejaVuSans-Bold-6d" transform="translate(348.632812 0.015625)"/>
     <use xlink:href="#DejaVuSans-Bold-61" transform="translate(452.832031 0.015625)"/>
     <use xlink:href="#DejaVuSans-Bold-6e" transform="translate(520.3125 0.015625)"/>
     <use xlink:href="#DejaVuSans-Bold-64" transform="translate(591.503906 0.015625)"/>
     <use xlink:href="#DejaVuSans-Bold-61" transform="translate(663.085938 0.015625)"/>
     <use xlink:href="#DejaVuSans-Bold-20" transform="translate(730.566406 0.015625)"/>
     <use xlink:href="#DejaVuSans-Bold-63" transform="translate(765.380859 0.015625)"/>
     <use xlink:href="#DejaVuSans-Bold-61" transform="translate(824.658203 0.015625)"/>
     <use xlink:href="#DejaVuSans-Bold-ed" transform="translate(892.138672 0.015625)"/>
     <use xlink:href="#DejaVuSans-Bold-64" transform="translate(926.416016 0.015625)"/>
     <use xlink:href="#DejaVuSans-Bold-61" transform="translate(997.998047 0.015625)"/>
     <use xlink:href="#DejaVuSans-Bold-20" transform="translate(1065.478516 0.015625)"/>
     <use xlink:href="#DejaVuSansDisplay-2014" transform="translate(1100.292969 0.015625)"/>
     <use xlink:href="#DejaVuSans-Bold-20" transform="translate(1200.292969 0.015625)"/>
     <use xlink:href="#DejaVuSans-Bold-74" transform="translate(1235.107422 0.015625)"/>
     <use xlink:href="#DejaVuSans-Bold-6f" transform="translate(1282.910156 0.015625)"/>
     <use xlink:href="#DejaVuSans-Bold-70" transform="translate(1351.611328 0.015625)"/>
     <use xlink:href="#DejaVuSans-Bold-65" transform="translate(1423.193359 0.015625)"/>
     <use xlink:href="#DejaVuSans-Bold-20" transform="translate(1491.015625 0.015625)"/>
     <use xlink:href="#DejaVuSans-Bold-4e" transform="translate(1525.830078 0.015625)"/>
     <use xlink:href="#DejaVuSans-Bold-4f" transform="translate(1609.521484 0.015625)"/>
     <use xlink:href="#DejaVuSans-Bold-20" transform="translate(1694.53125 0.015625)"/>
     <use xlink:href="#DejaVuSans-Bold-45" transform="translate(1729.345703 0.015625)"/>
     <use xlink:href="#DejaVuSans-Bold-46" transform="translate(1797.65625 0.015625)"/>
     <use xlink:href="#DejaVuSans-Bold-45" transform="translate(1865.966797 0.015625)"/>
     <use xlink:href="#DejaVuSans-Bold-43" transform="translate(1934.277344 0.015625)"/>
     <use xlink:href="#DejaVuSans-Bold-54" transform="translate(2007.666016 0.015625)"/>
     <use xlink:href="#DejaVuSans-Bold-49" transform="translate(2075.878906 0.015625)"/>
     <use xlink:href="#DejaVuSans-Bold-56" transform="translate(2113.085938 0.015625)"/>
     <use xlink:href="#DejaVuSans-Bold-4f" transform="translate(2190.478516 0.015625)"/>
     <use xlink:href="#DejaVuSans-Bold-20" transform="translate(2275.488281 0.015625)"/>
     <use xlink:href="#DejaVuSans-Bold-28" transform="translate(2310.302734 0.015625)"/>
     <use xlink:href="#DejaVuSans-35" transform="translate(2356.005859 0.015625)"/>
     <use xlink:href="#DejaVuSans-3e" transform="translate(2439.111328 0.015625)"/>
     <use xlink:href="#DejaVuSans-Bold-34" transform="translate(2542.382812 0.015625)"/>
     <use xlink:href="#DejaVuSans-Bold-2e" transform="translate(2611.962891 0.015625)"/>
     <use xlink:href="#DejaVuSans-Bold-32" transform="translate(2645.451172 0.015625)"/>
     <use xlink:href="#DejaVuSans-Bold-39" transform="translate(2712.40625 0.015625)"/>
     <use xlink:href="#DejaVuSans-Bold-29" transform="translate(2781.986328 0.015625)"/>
    </g>
   </g>
   <g id="legend_2">
    <g id="patch_15">
     <path d="M 1055.83746 501.62 
L 1199.045741 501.62 
Q 1200.845741 501.62 1200.845741 499.82 
L 1200.845741 460.83875 
Q 1200.845741 459.03875 1199.045741 459.03875 
L 1055.83746 459.03875 
Q 1054.03746 459.03875 1054.03746 460.83875 
L 1054.03746 499.82 
Q 1054.03746 501.62 1055.83746 501.62 
z
" style="fill: #ffffff; opacity: 0.8; stroke: #cccccc; stroke-linejoin: miter"/>
    </g>
    <g id="line2d_65">
     <path d="M 1057.63746 466.327344 
L 1066.63746 466.327344 
L 1075.63746 466.327344 
" style="fill: none; stroke: #c0392b; stroke-width: 3; stroke-linecap: square"/>
    </g>
    <g id="text_37">
     <!-- D: Qd = 20000 − 2000P -->
     <g transform="translate(1082.83746 469.477344) scale(0.09 -0.09)">
      <use xlink:href="#DejaVuSans-44"/>
      <use xlink:href="#DejaVuSans-3a" x="77.001953"/>
      <use xlink:href="#DejaVuSans-20" x="110.693359"/>
      <use xlink:href="#DejaVuSans-51" x="142.480469"/>
      <use xlink:href="#DejaVuSans-64" x="221.191406"/>
      <use xlink:href="#DejaVuSans-20" x="284.667969"/>
      <use xlink:href="#DejaVuSans-3d" x="316.455078"/>
      <use xlink:href="#DejaVuSans-20" x="400.244141"/>
      <use xlink:href="#DejaVuSans-32" x="432.03125"/>
      <use xlink:href="#DejaVuSans-30" x="495.654297"/>
      <use xlink:href="#DejaVuSans-30" x="559.277344"/>
      <use xlink:href="#DejaVuSans-30" x="622.900391"/>
      <use xlink:href="#DejaVuSans-30" x="686.523438"/>
      <use xlink:href="#DejaVuSans-20" x="750.146484"/>
      <use xlink:href="#DejaVuSans-2212" x="781.933594"/>
      <use xlink:href="#DejaVuSans-20" x="865.722656"/>
      <use xlink:href="#DejaVuSans-32" x="897.509766"/>
      <use xlink:href="#DejaVuSans-30" x="961.132812"/>
      <use xlink:href="#DejaVuSans-30" x="1024.755859"/>
      <use xlink:href="#DejaVuSans-30" x="1088.378906"/>
      <use xlink:href="#DejaVuSans-50" x="1152.001953"/>
     </g>
    </g>
    <g id="line2d_66">
     <path d="M 1057.63746 479.537656 
L 1066.63746 479.537656 
L 1075.63746 479.537656 
" style="fill: none; stroke: #2980b9; stroke-width: 3; stroke-linecap: square"/>
    </g>
    <g id="text_38">
     <!-- S: Qs = −10000 + 5000P -->
     <g transform="translate(1082.83746 482.687656) scale(0.09 -0.09)">
      <use xlink:href="#DejaVuSans-53"/>
      <use xlink:href="#DejaVuSans-3a" x="63.476562"/>
      <use xlink:href="#DejaVuSans-20" x="97.167969"/>
      <use xlink:href="#DejaVuSans-51" x="128.955078"/>
      <use xlink:href="#DejaVuSans-73" x="207.666016"/>
      <use xlink:href="#DejaVuSans-20" x="259.765625"/>
      <use xlink:href="#DejaVuSans-3d" x="291.552734"/>
      <use xlink:href="#DejaVuSans-20" x="375.341797"/>
      <use xlink:href="#DejaVuSans-2212" x="407.128906"/>
      <use xlink:href="#DejaVuSans-31" x="490.917969"/>
      <use xlink:href="#DejaVuSans-30" x="554.541016"/>
      <use xlink:href="#DejaVuSans-30" x="618.164062"/>
      <use xlink:href="#DejaVuSans-30" x="681.787109"/>
      <use xlink:href="#DejaVuSans-30" x="745.410156"/>
      <use xlink:href="#DejaVuSans-20" x="809.033203"/>
      <use xlink:href="#DejaVuSans-2b" x="840.820312"/>
      <use xlink:href="#DejaVuSans-20" x="924.609375"/>
      <use xlink:href="#DejaVuSans-35" x="956.396484"/>
      <use xlink:href="#DejaVuSans-30" x="1020.019531"/>
      <use xlink:href="#DejaVuSans-30" x="1083.642578"/>
      <use xlink:href="#DejaVuSans-30" x="1147.265625"/>
      <use xlink:href="#DejaVuSans-50" x="1210.888672"/>
     </g>
    </g>
    <g id="line2d_67">
     <path d="M 1057.63746 492.747969 
L 1066.63746 492.747969 
L 1075.63746 492.747969 
" style="fill: none; stroke-dasharray: 9.25,4; stroke-dashoffset: 0; stroke: #7d3c98; stroke-width: 2.5"/>
    </g>
    <g id="text_39">
     <!-- P_max = $5 -->
     <g transform="translate(1082.83746 495.897969) scale(0.09 -0.09)">
      <use xlink:href="#DejaVuSans-50"/>
      <use xlink:href="#DejaVuSans-5f" x="60.302734"/>
      <use xlink:href="#DejaVuSans-6d" x="110.302734"/>
      <use xlink:href="#DejaVuSans-61" x="207.714844"/>
      <use xlink:href="#DejaVuSans-78" x="268.994141"/>
      <use xlink:href="#DejaVuSans-20" x="328.173828"/>
      <use xlink:href="#DejaVuSans-3d" x="359.960938"/>
      <use xlink:href="#DejaVuSans-20" x="443.75"/>
      <use xlink:href="#DejaVuSans-24" x="475.537109"/>
      <use xlink:href="#DejaVuSans-35" x="539.160156"/>
     </g>
    </g>
   </g>
   <g id="line2d_68">
    <g clip-path="url(#p26b05fa95e)">
     <use xlink:href="#m78ef883461" x="923.286831" y="301.565808" style="stroke: #000000"/>
    </g>
   </g>
   <g id="patch_16">
    <path d="M 1005.846275 241.600409 
Q 965.376577 270.994764 925.811479 299.732081 
" style="fill: none; stroke: #000000; stroke-linecap: round"/>
    <path d="M 930.223219 298.999588 
L 925.811479 299.732081 
L 927.872529 295.763192 
" style="fill: none; stroke: #000000; stroke-linecap: round"/>
   </g>
   <g id="text_40">
    <g id="patch_17">
     <path d="M 999.827491 240.026151 
L 1054.579053 240.026151 
Q 1058.079053 240.026151 1058.079053 236.526151 
L 1058.079053 215.650214 
Q 1058.079053 212.150214 1054.579053 212.150214 
L 999.827491 212.150214 
Q 996.327491 212.150214 996.327491 215.650214 
L 996.327491 236.526151 
Q 996.327491 240.026151 999.827491 240.026151 
z
" style="fill: #ffffff; opacity: 0.97; stroke: #bdc3c7; stroke-width: 0.8; stroke-linejoin: miter"/>
    </g>
    <!-- E libre -->
    <g transform="translate(1009.182959 223.248651) scale(0.1 -0.1)">
     <use xlink:href="#DejaVuSans-Bold-45"/>
     <use xlink:href="#DejaVuSans-Bold-20" x="68.310547"/>
     <use xlink:href="#DejaVuSans-Bold-6c" x="103.125"/>
     <use xlink:href="#DejaVuSans-Bold-69" x="137.402344"/>
     <use xlink:href="#DejaVuSans-Bold-62" x="171.679688"/>
     <use xlink:href="#DejaVuSans-Bold-72" x="243.261719"/>
     <use xlink:href="#DejaVuSans-Bold-65" x="292.578125"/>
    </g>
    <!-- (P*≈4.29) -->
    <g transform="translate(999.827491 234.446464) scale(0.1 -0.1)">
     <use xlink:href="#DejaVuSans-Bold-28"/>
     <use xlink:href="#DejaVuSans-Bold-50" x="45.703125"/>
     <use xlink:href="#DejaVuSans-Bold-2a" x="118.994141"/>
     <use xlink:href="#DejaVuSans-Bold-2248" x="171.289062"/>
     <use xlink:href="#DejaVuSans-Bold-34" x="255.078125"/>
     <use xlink:href="#DejaVuSans-Bold-2e" x="324.658203"/>
     <use xlink:href="#DejaVuSans-Bold-32" x="362.646484"/>
     <use xlink:href="#DejaVuSans-Bold-39" x="432.226562"/>
     <use xlink:href="#DejaVuSans-Bold-29" x="501.806641"/>
    </g>
   </g>
   <g id="text_41">
    <g id="patch_18">
     <path d="M 1012.022269 112.212474 
L 1190.836332 112.212474 
Q 1193.836332 112.212474 1193.836332 109.212474 
L 1193.836332 88.336537 
Q 1193.836332 85.336537 1190.836332 85.336537 
L 1012.022269 85.336537 
Q 1009.022269 85.336537 1009.022269 88.336537 
L 1009.022269 109.212474 
Q 1009.022269 112.212474 1012.022269 112.212474 
z
" style="fill: #fffbeb; opacity: 0.97; stroke: #f39c12; stroke-width: 0.7; stroke-linejoin: miter"/>
    </g>
    <!-- Tope POR ENCIMA del equilibrio -->
    <g style="fill: #7d3c98" transform="translate(1012.022269 95.934974) scale(0.1 -0.1)">
     <defs>
      <path id="DejaVuSans-Bold-52" d="M 2297 2597 
Q 2675 2597 2839 2737 
Q 3003 2878 3003 3200 
Q 3003 3519 2839 3656 
Q 2675 3794 2297 3794 
L 1791 3794 
L 1791 2597 
L 2297 2597 
z
M 1791 1766 
L 1791 0 
L 588 0 
L 588 4666 
L 2425 4666 
Q 3347 4666 3776 4356 
Q 4206 4047 4206 3378 
Q 4206 2916 3982 2619 
Q 3759 2322 3309 2181 
Q 3556 2125 3751 1926 
Q 3947 1728 4147 1325 
L 4800 0 
L 3519 0 
L 2950 1159 
Q 2778 1509 2601 1637 
Q 2425 1766 2131 1766 
L 1791 1766 
z
" transform="scale(0.015625)"/>
      <path id="DejaVuSans-Bold-4d" d="M 588 4666 
L 2119 4666 
L 3181 2169 
L 4250 4666 
L 5778 4666 
L 5778 0 
L 4641 0 
L 4641 3413 
L 3566 897 
L 2803 897 
L 1728 3413 
L 1728 0 
L 588 0 
L 588 4666 
z
" transform="scale(0.015625)"/>
      <path id="DejaVuSans-Bold-41" d="M 3419 850 
L 1538 850 
L 1241 0 
L 31 0 
L 1759 4666 
L 3194 4666 
L 4922 0 
L 3713 0 
L 3419 850 
z
M 1838 1716 
L 3116 1716 
L 2478 3572 
L 1838 1716 
z
" transform="scale(0.015625)"/>
      <path id="DejaVuSans-Bold-71" d="M 2181 2772 
Q 1825 2772 1636 2509 
Q 1447 2247 1447 1747 
Q 1447 1247 1636 984 
Q 1825 722 2181 722 
Q 2541 722 2730 984 
Q 2919 1247 2919 1747 
Q 2919 2247 2730 2509 
Q 2541 2772 2181 2772 
z
M 2919 506 
Q 2688 197 2409 53 
Q 2131 -91 1766 -91 
Q 1119 -91 703 423 
Q 288 938 288 1747 
Q 288 2556 703 3067 
Q 1119 3578 1766 3578 
Q 2131 3578 2409 3434 
Q 2688 3291 2919 2981 
L 2919 3500 
L 4044 3500 
L 4044 -1331 
L 2919 -1331 
L 2919 506 
z
" transform="scale(0.015625)"/>
      <path id="DejaVuSans-Bold-75" d="M 500 1363 
L 500 3500 
L 1625 3500 
L 1625 3150 
Q 1625 2866 1622 2436 
Q 1619 2006 1619 1863 
Q 1619 1441 1641 1255 
Q 1663 1069 1716 984 
Q 1784 875 1895 815 
Q 2006 756 2150 756 
Q 2500 756 2700 1025 
Q 2900 1294 2900 1772 
L 2900 3500 
L 4019 3500 
L 4019 0 
L 2900 0 
L 2900 506 
Q 2647 200 2364 54 
Q 2081 -91 1741 -91 
Q 1134 -91 817 281 
Q 500 653 500 1363 
z
" transform="scale(0.015625)"/>
     </defs>
     <use xlink:href="#DejaVuSans-Bold-54"/>
     <use xlink:href="#DejaVuSans-Bold-6f" x="54.962891"/>
     <use xlink:href="#DejaVuSans-Bold-70" x="123.664062"/>
     <use xlink:href="#DejaVuSans-Bold-65" x="195.246094"/>
     <use xlink:href="#DejaVuSans-Bold-20" x="263.068359"/>
     <use xlink:href="#DejaVuSans-Bold-50" x="297.882812"/>
     <use xlink:href="#DejaVuSans-Bold-4f" x="371.173828"/>
     <use xlink:href="#DejaVuSans-Bold-52" x="456.183594"/>
     <use xlink:href="#DejaVuSans-Bold-20" x="533.185547"/>
     <use xlink:href="#DejaVuSans-Bold-45" x="568"/>
     <use xlink:href="#DejaVuSans-Bold-4e" x="636.310547"/>
     <use xlink:href="#DejaVuSans-Bold-43" x="720.001953"/>
     <use xlink:href="#DejaVuSans-Bold-49" x="793.390625"/>
     <use xlink:href="#DejaVuSans-Bold-4d" x="830.597656"/>
     <use xlink:href="#DejaVuSans-Bold-41" x="930.109375"/>
     <use xlink:href="#DejaVuSans-Bold-20" x="1007.501953"/>
     <use xlink:href="#DejaVuSans-Bold-64" x="1042.316406"/>
     <use xlink:href="#DejaVuSans-Bold-65" x="1113.898438"/>
     <use xlink:href="#DejaVuSans-Bold-6c" x="1181.720703"/>
     <use xlink:href="#DejaVuSans-Bold-20" x="1215.998047"/>
     <use xlink:href="#DejaVuSans-Bold-65" x="1250.8125"/>
     <use xlink:href="#DejaVuSans-Bold-71" x="1318.634766"/>
     <use xlink:href="#DejaVuSans-Bold-75" x="1390.216797"/>
     <use xlink:href="#DejaVuSans-Bold-69" x="1461.408203"/>
     <use xlink:href="#DejaVuSans-Bold-6c" x="1495.685547"/>
     <use xlink:href="#DejaVuSans-Bold-69" x="1529.962891"/>
     <use xlink:href="#DejaVuSans-Bold-62" x="1564.240234"/>
     <use xlink:href="#DejaVuSans-Bold-72" x="1635.822266"/>
     <use xlink:href="#DejaVuSans-Bold-69" x="1685.138672"/>
     <use xlink:href="#DejaVuSans-Bold-6f" x="1719.416016"/>
    </g>
    <!-- → no es vinculante -->
    <g style="fill: #7d3c98" transform="translate(1049.170707 107.132787) scale(0.1 -0.1)">
     <defs>
      <path id="DejaVuSans-Bold-2192" d="M 5050 2225 
L 5050 1788 
L 3822 559 
L 3369 1013 
L 3988 1631 
L 366 1631 
L 366 2381 
L 3988 2381 
L 3369 3000 
L 3822 3453 
L 5050 2225 
z
" transform="scale(0.015625)"/>
      <path id="DejaVuSans-Bold-76" d="M 97 3500 
L 1216 3500 
L 2088 1081 
L 2956 3500 
L 4078 3500 
L 2700 0 
L 1472 0 
L 97 3500 
z
" transform="scale(0.015625)"/>
     </defs>
     <use xlink:href="#DejaVuSans-Bold-2192"/>
     <use xlink:href="#DejaVuSans-Bold-20" x="83.789062"/>
     <use xlink:href="#DejaVuSans-Bold-6e" x="118.603516"/>
     <use xlink:href="#DejaVuSans-Bold-6f" x="189.794922"/>
     <use xlink:href="#DejaVuSans-Bold-20" x="258.496094"/>
     <use xlink:href="#DejaVuSans-Bold-65" x="293.310547"/>
     <use xlink:href="#DejaVuSans-Bold-73" x="361.132812"/>
     <use xlink:href="#DejaVuSans-Bold-20" x="420.654297"/>
     <use xlink:href="#DejaVuSans-Bold-76" x="455.46875"/>
     <use xlink:href="#DejaVuSans-Bold-69" x="520.654297"/>
     <use xlink:href="#DejaVuSans-Bold-6e" x="554.931641"/>
     <use xlink:href="#DejaVuSans-Bold-63" x="626.123047"/>
     <use xlink:href="#DejaVuSans-Bold-75" x="685.400391"/>
     <use xlink:href="#DejaVuSans-Bold-6c" x="756.591797"/>
     <use xlink:href="#DejaVuSans-Bold-61" x="790.869141"/>
     <use xlink:href="#DejaVuSans-Bold-6e" x="858.349609"/>
     <use xlink:href="#DejaVuSans-Bold-74" x="929.541016"/>
     <use xlink:href="#DejaVuSans-Bold-65" x="977.34375"/>
    </g>
   </g>
  </g>
 </g>
 <defs>
  <clipPath id="p2d7e59c549">
   <rect x="51.437579" y="51.2" width="561.148778" height="454.92"/>
  </clipPath>
  <clipPath id="p26b05fa95e">
   <rect x="644.196963" y="51.2" width="561.148778" height="454.92"/>
  </clipPath>
 </defs>
</svg>
