<?xml version="1.0" encoding="utf-8" standalone="no"?>
<!DOCTYPE svg PUBLIC "-//W3C//DTD SVG 1.1//EN"
  "http://www.w3.org/Graphics/SVG/1.1/DTD/svg11.dtd">
<svg xmlns:xlink="http://www.w3.org/1999/xlink" width="789.313493pt" height="442.199768pt" viewBox="0 0 789.313493 442.199768" xmlns="http://www.w3.org/2000/svg" version="1.1">
 <metadata>
  <rdf:RDF xmlns:dc="http://purl.org/dc/elements/1.1/" xmlns:cc="http://creativecommons.org/ns#" xmlns:rdf="http://www.w3.org/1999/02/22-rdf-syntax-ns#">
   <cc:Work>
    <dc:type rdf:resource="http://purl.org/dc/dcmitype/StillImage"/>
    <dc:date>2026-04-28T17:41:35.645561</dc:date>
    <dc:format>image/svg+xml</dc:format>
    <dc:creator>
     <cc:Agent>
      <dc:title>Matplotlib v3.9.2, https://matplotlib.org/</dc:title>
     </cc:Agent>
    </dc:creator>
   </cc:Work>
  </rdf:RDF>
 </metadata>
 <defs>
  <style type="text/css">*{stroke-linejoin: round; stroke-linecap: butt}</style>
 </defs>
 <g id="figure_1">
  <g id="patch_1">
   <path d="M 0 442.199768 
L 789.313493 442.199768 
L 789.313493 0 
L 0 0 
z
" style="fill: #ffffff"/>
  </g>
  <g id="axes_1">
   <g id="patch_2">
    <path d="M 79.997243 411.037969 
L 637.997243 411.037969 
L 637.997243 50.677969 
L 79.997243 50.677969 
z
" style="fill: #ffffff"/>
   </g>
   <g id="matplotlib.axis_1">
    <g id="xtick_1">
     <g id="line2d_1">
      <path d="M 102.92875 411.037969 
L 102.92875 50.677969 
" clip-path="url(#pfe8eec9683)" style="fill: none; stroke-dasharray: 0.8,1.32; stroke-dashoffset: 0; stroke: #b0b0b0; stroke-opacity: 0.4; stroke-width: 0.8"/>
     </g>
     <g id="line2d_2">
      <defs>
       <path id="mabd98790a7" d="M 0 0 
L 0 -4 
" style="stroke: #000000"/>
      </defs>
      <g>
       <use xlink:href="#mabd98790a7" x="102.92875" y="382.043486" style="stroke: #000000"/>
      </g>
     </g>
     <g id="text_1">
      <!-- 0 -->
      <g transform="translate(99.7475 393.141923) scale(0.1 -0.1)">
       <defs>
        <path id="DejaVuSans-30" d="M 2034 4250 
Q 1547 4250 1301 3770 
Q 1056 3291 1056 2328 
Q 1056 1369 1301 889 
Q 1547 409 2034 409 
Q 2525 409 2770 889 
Q 3016 1369 3016 2328 
Q 3016 3291 2770 3770 
Q 2525 4250 2034 4250 
z
M 2034 4750 
Q 2819 4750 3233 4129 
Q 3647 3509 3647 2328 
Q 3647 1150 3233 529 
Q 2819 -91 2034 -91 
Q 1250 -91 836 529 
Q 422 1150 422 2328 
Q 422 3509 836 4129 
Q 1250 4750 2034 4750 
z
" transform="scale(0.015625)"/>
       </defs>
       <use xlink:href="#DejaVuSans-30"/>
      </g>
     </g>
    </g>
    <g id="xtick_2">
     <g id="line2d_3">
      <path d="M 179.367106 411.037969 
L 179.367106 50.677969 
" clip-path="url(#pfe8eec9683)" style="fill: none; stroke-dasharray: 0.8,1.32; stroke-dashoffset: 0; stroke: #b0b0b0; stroke-opacity: 0.4; stroke-width: 0.8"/>
     </g>
     <g id="line2d_4">
      <g>
       <use xlink:href="#mabd98790a7" x="179.367106" y="382.043486" style="stroke: #000000"/>
      </g>
     </g>
     <g id="text_2">
      <!-- 5 -->
      <g transform="translate(176.185856 393.141923) scale(0.1 -0.1)">
       <defs>
        <path id="DejaVuSans-35" d="M 691 4666 
L 3169 4666 
L 3169 4134 
L 1269 4134 
L 1269 2991 
Q 1406 3038 1543 3061 
Q 1681 3084 1819 3084 
Q 2600 3084 3056 2656 
Q 3513 2228 3513 1497 
Q 3513 744 3044 326 
Q 2575 -91 1722 -91 
Q 1428 -91 1123 -41 
Q 819 9 494 109 
L 494 744 
Q 775 591 1075 516 
Q 1375 441 1709 441 
Q 2250 441 2565 725 
Q 2881 1009 2881 1497 
Q 2881 1984 2565 2268 
Q 2250 2553 1709 2553 
Q 1456 2553 1204 2497 
Q 953 2441 691 2322 
L 691 4666 
z
" transform="scale(0.015625)"/>
       </defs>
       <use xlink:href="#DejaVuSans-35"/>
      </g>
     </g>
    </g>
    <g id="xtick_3">
     <g id="line2d_5">
      <path d="M 255.805462 411.037969 
L 255.805462 50.677969 
" clip-path="url(#pfe8eec9683)" style="fill: none; stroke-dasharray: 0.8,1.32; stroke-dashoffset: 0; stroke: #b0b0b0; stroke-opacity: 0.4; stroke-width: 0.8"/>
     </g>
     <g id="line2d_6">
      <g>
       <use xlink:href="#mabd98790a7" x="255.805462" y="382.043486" style="stroke: #000000"/>
      </g>
     </g>
     <g id="text_3">
      <!-- 10 -->
      <g transform="translate(249.442962 393.141923) scale(0.1 -0.1)">
       <defs>
        <path id="DejaVuSans-31" d="M 794 531 
L 1825 531 
L 1825 4091 
L 703 3866 
L 703 4441 
L 1819 4666 
L 2450 4666 
L 2450 531 
L 3481 531 
L 3481 0 
L 794 0 
L 794 531 
z
" transform="scale(0.015625)"/>
       </defs>
       <use xlink:href="#DejaVuSans-31"/>
       <use xlink:href="#DejaVuSans-30" x="63.623047"/>
      </g>
     </g>
    </g>
    <g id="xtick_4">
     <g id="line2d_7">
      <path d="M 332.243818 411.037969 
L 332.243818 50.677969 
" clip-path="url(#pfe8eec9683)" style="fill: none; stroke-dasharray: 0.8,1.32; stroke-dashoffset: 0; stroke: #b0b0b0; stroke-opacity: 0.4; stroke-width: 0.8"/>
     </g>
     <g id="line2d_8">
      <g>
       <use xlink:href="#mabd98790a7" x="332.243818" y="382.043486" style="stroke: #000000"/>
      </g>
     </g>
     <g id="text_4">
      <!-- 15 -->
      <g transform="translate(325.881318 393.141923) scale(0.1 -0.1)">
       <use xlink:href="#DejaVuSans-31"/>
       <use xlink:href="#DejaVuSans-35" x="63.623047"/>
      </g>
     </g>
    </g>
    <g id="xtick_5">
     <g id="line2d_9">
      <path d="M 408.682175 411.037969 
L 408.682175 50.677969 
" clip-path="url(#pfe8eec9683)" style="fill: none; stroke-dasharray: 0.8,1.32; stroke-dashoffset: 0; stroke: #b0b0b0; stroke-opacity: 0.4; stroke-width: 0.8"/>
     </g>
     <g id="line2d_10">
      <g>
       <use xlink:href="#mabd98790a7" x="408.682175" y="382.043486" style="stroke: #000000"/>
      </g>
     </g>
     <g id="text_5">
      <!-- 20 -->
      <g transform="translate(402.319675 393.141923) scale(0.1 -0.1)">
       <defs>
        <path id="DejaVuSans-32" d="M 1228 531 
L 3431 531 
L 3431 0 
L 469 0 
L 469 531 
Q 828 903 1448 1529 
Q 2069 2156 2228 2338 
Q 2531 2678 2651 2914 
Q 2772 3150 2772 3378 
Q 2772 3750 2511 3984 
Q 2250 4219 1831 4219 
Q 1534 4219 1204 4116 
Q 875 4013 500 3803 
L 500 4441 
Q 881 4594 1212 4672 
Q 1544 4750 1819 4750 
Q 2544 4750 2975 4387 
Q 3406 4025 3406 3419 
Q 3406 3131 3298 2873 
Q 3191 2616 2906 2266 
Q 2828 2175 2409 1742 
Q 1991 1309 1228 531 
z
" transform="scale(0.015625)"/>
       </defs>
       <use xlink:href="#DejaVuSans-32"/>
       <use xlink:href="#DejaVuSans-30" x="63.623047"/>
      </g>
     </g>
    </g>
    <g id="xtick_6">
     <g id="line2d_11">
      <path d="M 485.120531 411.037969 
L 485.120531 50.677969 
" clip-path="url(#pfe8eec9683)" style="fill: none; stroke-dasharray: 0.8,1.32; stroke-dashoffset: 0; stroke: #b0b0b0; stroke-opacity: 0.4; stroke-width: 0.8"/>
     </g>
     <g id="line2d_12">
      <g>
       <use xlink:href="#mabd98790a7" x="485.120531" y="382.043486" style="stroke: #000000"/>
      </g>
     </g>
     <g id="text_6">
      <!-- 25 -->
      <g transform="translate(478.758031 393.141923) scale(0.1 -0.1)">
       <use xlink:href="#DejaVuSans-32"/>
       <use xlink:href="#DejaVuSans-35" x="63.623047"/>
      </g>
     </g>
    </g>
    <g id="xtick_7">
     <g id="line2d_13">
      <path d="M 561.558887 411.037969 
L 561.558887 50.677969 
" clip-path="url(#pfe8eec9683)" style="fill: none; stroke-dasharray: 0.8,1.32; stroke-dashoffset: 0; stroke: #b0b0b0; stroke-opacity: 0.4; stroke-width: 0.8"/>
     </g>
     <g id="line2d_14">
      <g>
       <use xlink:href="#mabd98790a7" x="561.558887" y="382.043486" style="stroke: #000000"/>
      </g>
     </g>
     <g id="text_7">
      <!-- 30 -->
      <g transform="translate(555.196387 393.141923) scale(0.1 -0.1)">
       <defs>
        <path id="DejaVuSans-33" d="M 2597 2516 
Q 3050 2419 3304 2112 
Q 3559 1806 3559 1356 
Q 3559 666 3084 287 
Q 2609 -91 1734 -91 
Q 1441 -91 1130 -33 
Q 819 25 488 141 
L 488 750 
Q 750 597 1062 519 
Q 1375 441 1716 441 
Q 2309 441 2620 675 
Q 2931 909 2931 1356 
Q 2931 1769 2642 2001 
Q 2353 2234 1838 2234 
L 1294 2234 
L 1294 2753 
L 1863 2753 
Q 2328 2753 2575 2939 
Q 2822 3125 2822 3475 
Q 2822 3834 2567 4026 
Q 2313 4219 1838 4219 
Q 1578 4219 1281 4162 
Q 984 4106 628 3988 
L 628 4550 
Q 988 4650 1302 4700 
Q 1616 4750 1894 4750 
Q 2613 4750 3031 4423 
Q 3450 4097 3450 3541 
Q 3450 3153 3228 2886 
Q 3006 2619 2597 2516 
z
" transform="scale(0.015625)"/>
       </defs>
       <use xlink:href="#DejaVuSans-33"/>
       <use xlink:href="#DejaVuSans-30" x="63.623047"/>
      </g>
     </g>
    </g>
    <g id="xtick_8">
     <g id="line2d_15">
      <path d="M 637.997243 411.037969 
L 637.997243 50.677969 
" clip-path="url(#pfe8eec9683)" style="fill: none; stroke-dasharray: 0.8,1.32; stroke-dashoffset: 0; stroke: #b0b0b0; stroke-opacity: 0.4; stroke-width: 0.8"/>
     </g>
     <g id="line2d_16">
      <g>
       <use xlink:href="#mabd98790a7" x="637.997243" y="382.043486" style="stroke: #000000"/>
      </g>
     </g>
     <g id="text_8">
      <!-- 35 -->
      <g transform="translate(631.634743 393.141923) scale(0.1 -0.1)">
       <use xlink:href="#DejaVuSans-33"/>
       <use xlink:href="#DejaVuSans-35" x="63.623047"/>
      </g>
     </g>
    </g>
    <g id="text_9">
     <!-- Cantidad (Q) -->
     <g transform="translate(552.075368 402.339736) scale(0.12 -0.12)">
      <defs>
       <path id="DejaVuSans-Bold-43" d="M 4288 256 
Q 3956 84 3597 -3 
Q 3238 -91 2847 -91 
Q 1681 -91 1000 561 
Q 319 1213 319 2328 
Q 319 3447 1000 4098 
Q 1681 4750 2847 4750 
Q 3238 4750 3597 4662 
Q 3956 4575 4288 4403 
L 4288 3438 
Q 3953 3666 3628 3772 
Q 3303 3878 2944 3878 
Q 2300 3878 1931 3465 
Q 1563 3053 1563 2328 
Q 1563 1606 1931 1193 
Q 2300 781 2944 781 
Q 3303 781 3628 887 
Q 3953 994 4288 1222 
L 4288 256 
z
" transform="scale(0.015625)"/>
       <path id="DejaVuSans-Bold-61" d="M 2106 1575 
Q 1756 1575 1579 1456 
Q 1403 1338 1403 1106 
Q 1403 894 1545 773 
Q 1688 653 1941 653 
Q 2256 653 2472 879 
Q 2688 1106 2688 1447 
L 2688 1575 
L 2106 1575 
z
M 3816 1997 
L 3816 0 
L 2688 0 
L 2688 519 
Q 2463 200 2181 54 
Q 1900 -91 1497 -91 
Q 953 -91 614 226 
Q 275 544 275 1050 
Q 275 1666 698 1953 
Q 1122 2241 2028 2241 
L 2688 2241 
L 2688 2328 
Q 2688 2594 2478 2717 
Q 2269 2841 1825 2841 
Q 1466 2841 1156 2769 
Q 847 2697 581 2553 
L 581 3406 
Q 941 3494 1303 3539 
Q 1666 3584 2028 3584 
Q 2975 3584 3395 3211 
Q 3816 2838 3816 1997 
z
" transform="scale(0.015625)"/>
       <path id="DejaVuSans-Bold-6e" d="M 4056 2131 
L 4056 0 
L 2931 0 
L 2931 347 
L 2931 1631 
Q 2931 2084 2911 2256 
Q 2891 2428 2841 2509 
Q 2775 2619 2662 2680 
Q 2550 2741 2406 2741 
Q 2056 2741 1856 2470 
Q 1656 2200 1656 1722 
L 1656 0 
L 538 0 
L 538 3500 
L 1656 3500 
L 1656 2988 
Q 1909 3294 2193 3439 
Q 2478 3584 2822 3584 
Q 3428 3584 3742 3212 
Q 4056 2841 4056 2131 
z
" transform="scale(0.015625)"/>
       <path id="DejaVuSans-Bold-74" d="M 1759 4494 
L 1759 3500 
L 2913 3500 
L 2913 2700 
L 1759 2700 
L 1759 1216 
Q 1759 972 1856 886 
Q 1953 800 2241 800 
L 2816 800 
L 2816 0 
L 1856 0 
Q 1194 0 917 276 
Q 641 553 641 1216 
L 641 2700 
L 84 2700 
L 84 3500 
L 641 3500 
L 641 4494 
L 1759 4494 
z
" transform="scale(0.015625)"/>
       <path id="DejaVuSans-Bold-69" d="M 538 3500 
L 1656 3500 
L 1656 0 
L 538 0 
L 538 3500 
z
M 538 4863 
L 1656 4863 
L 1656 3950 
L 538 3950 
L 538 4863 
z
" transform="scale(0.015625)"/>
       <path id="DejaVuSans-Bold-64" d="M 2919 2988 
L 2919 4863 
L 4044 4863 
L 4044 0 
L 2919 0 
L 2919 506 
Q 2688 197 2409 53 
Q 2131 -91 1766 -91 
Q 1119 -91 703 423 
Q 288 938 288 1747 
Q 288 2556 703 3070 
Q 1119 3584 1766 3584 
Q 2128 3584 2408 3439 
Q 2688 3294 2919 2988 
z
M 2181 722 
Q 2541 722 2730 984 
Q 2919 1247 2919 1747 
Q 2919 2247 2730 2509 
Q 2541 2772 2181 2772 
Q 1825 2772 1636 2509 
Q 1447 2247 1447 1747 
Q 1447 1247 1636 984 
Q 1825 722 2181 722 
z
" transform="scale(0.015625)"/>
       <path id="DejaVuSans-Bold-20" transform="scale(0.015625)"/>
       <path id="DejaVuSans-Bold-28" d="M 2413 -844 
L 1484 -844 
Q 1006 -72 778 623 
Q 550 1319 550 2003 
Q 550 2688 779 3389 
Q 1009 4091 1484 4856 
L 2413 4856 
Q 2013 4116 1813 3408 
Q 1613 2700 1613 2009 
Q 1613 1319 1811 609 
Q 2009 -100 2413 -844 
z
" transform="scale(0.015625)"/>
       <path id="DejaVuSans-Bold-51" d="M 2847 -84 
L 2753 -84 
Q 1600 -84 959 553 
Q 319 1191 319 2328 
Q 319 3463 958 4106 
Q 1597 4750 2719 4750 
Q 3853 4750 4486 4112 
Q 5119 3475 5119 2328 
Q 5119 1541 4783 972 
Q 4447 403 3816 116 
L 4756 -934 
L 3609 -934 
L 2847 -84 
z
M 2719 3878 
Q 2169 3878 1866 3472 
Q 1563 3066 1563 2328 
Q 1563 1578 1859 1179 
Q 2156 781 2719 781 
Q 3272 781 3575 1187 
Q 3878 1594 3878 2328 
Q 3878 3066 3575 3472 
Q 3272 3878 2719 3878 
z
" transform="scale(0.015625)"/>
       <path id="DejaVuSans-Bold-29" d="M 513 -844 
Q 913 -100 1113 609 
Q 1313 1319 1313 2009 
Q 1313 2700 1113 3408 
Q 913 4116 513 4856 
L 1441 4856 
Q 1916 4091 2145 3389 
Q 2375 2688 2375 2003 
Q 2375 1319 2147 623 
Q 1919 -72 1441 -844 
L 513 -844 
z
" transform="scale(0.015625)"/>
      </defs>
      <use xlink:href="#DejaVuSans-Bold-43"/>
      <use xlink:href="#DejaVuSans-Bold-61" x="73.388672"/>
      <use xlink:href="#DejaVuSans-Bold-6e" x="140.869141"/>
      <use xlink:href="#DejaVuSans-Bold-74" x="212.060547"/>
      <use xlink:href="#DejaVuSans-Bold-69" x="259.863281"/>
      <use xlink:href="#DejaVuSans-Bold-64" x="294.140625"/>
      <use xlink:href="#DejaVuSans-Bold-61" x="365.722656"/>
      <use xlink:href="#DejaVuSans-Bold-64" x="433.203125"/>
      <use xlink:href="#DejaVuSans-Bold-20" x="504.785156"/>
      <use xlink:href="#DejaVuSans-Bold-28" x="539.599609"/>
      <use xlink:href="#DejaVuSans-Bold-51" x="585.302734"/>
      <use xlink:href="#DejaVuSans-Bold-29" x="670.3125"/>
     </g>
    </g>
   </g>
   <g id="matplotlib.axis_2">
    <g id="ytick_1">
     <g id="line2d_17">
      <path d="M 79.997243 382.043486 
L 637.997243 382.043486 
" clip-path="url(#pfe8eec9683)" style="fill: none; stroke-dasharray: 0.8,1.32; stroke-dashoffset: 0; stroke: #b0b0b0; stroke-opacity: 0.4; stroke-width: 0.8"/>
     </g>
     <g id="line2d_18">
      <defs>
       <path id="md545f84fd3" d="M 0 0 
L 4 0 
" style="stroke: #000000"/>
      </defs>
      <g>
       <use xlink:href="#md545f84fd3" x="102.92875" y="382.043486" style="stroke: #000000"/>
      </g>
     </g>
     <g id="text_10">
      <!-- 0 -->
      <g transform="translate(93.06625 385.842705) scale(0.1 -0.1)">
       <use xlink:href="#DejaVuSans-30"/>
      </g>
     </g>
    </g>
    <g id="ytick_2">
     <g id="line2d_19">
      <path d="M 79.997243 340.622796 
L 637.997243 340.622796 
" clip-path="url(#pfe8eec9683)" style="fill: none; stroke-dasharray: 0.8,1.32; stroke-dashoffset: 0; stroke: #b0b0b0; stroke-opacity: 0.4; stroke-width: 0.8"/>
     </g>
     <g id="line2d_20">
      <g>
       <use xlink:href="#md545f84fd3" x="102.92875" y="340.622796" style="stroke: #000000"/>
      </g>
     </g>
     <g id="text_11">
      <!-- 1 -->
      <g transform="translate(93.06625 344.422015) scale(0.1 -0.1)">
       <use xlink:href="#DejaVuSans-31"/>
      </g>
     </g>
    </g>
    <g id="ytick_3">
     <g id="line2d_21">
      <path d="M 79.997243 257.781417 
L 637.997243 257.781417 
" clip-path="url(#pfe8eec9683)" style="fill: none; stroke-dasharray: 0.8,1.32; stroke-dashoffset: 0; stroke: #b0b0b0; stroke-opacity: 0.4; stroke-width: 0.8"/>
     </g>
     <g id="line2d_22">
      <g>
       <use xlink:href="#md545f84fd3" x="102.92875" y="257.781417" style="stroke: #000000"/>
      </g>
     </g>
     <g id="text_12">
      <!-- 3 -->
      <g transform="translate(93.06625 261.580636) scale(0.1 -0.1)">
       <use xlink:href="#DejaVuSans-33"/>
      </g>
     </g>
    </g>
    <g id="ytick_4">
     <g id="line2d_23">
      <path d="M 79.997243 216.360727 
L 637.997243 216.360727 
" clip-path="url(#pfe8eec9683)" style="fill: none; stroke-dasharray: 0.8,1.32; stroke-dashoffset: 0; stroke: #b0b0b0; stroke-opacity: 0.4; stroke-width: 0.8"/>
     </g>
     <g id="line2d_24">
      <g>
       <use xlink:href="#md545f84fd3" x="102.92875" y="216.360727" style="stroke: #000000"/>
      </g>
     </g>
     <g id="text_13">
      <!-- 4 -->
      <g transform="translate(93.06625 220.159946) scale(0.1 -0.1)">
       <defs>
        <path id="DejaVuSans-34" d="M 2419 4116 
L 825 1625 
L 2419 1625 
L 2419 4116 
z
M 2253 4666 
L 3047 4666 
L 3047 1625 
L 3713 1625 
L 3713 1100 
L 3047 1100 
L 3047 0 
L 2419 0 
L 2419 1100 
L 313 1100 
L 313 1709 
L 2253 4666 
z
" transform="scale(0.015625)"/>
       </defs>
       <use xlink:href="#DejaVuSans-34"/>
      </g>
     </g>
    </g>
    <g id="ytick_5">
     <g id="line2d_25">
      <path d="M 79.997243 174.940038 
L 637.997243 174.940038 
" clip-path="url(#pfe8eec9683)" style="fill: none; stroke-dasharray: 0.8,1.32; stroke-dashoffset: 0; stroke: #b0b0b0; stroke-opacity: 0.4; stroke-width: 0.8"/>
     </g>
     <g id="line2d_26">
      <g>
       <use xlink:href="#md545f84fd3" x="102.92875" y="174.940038" style="stroke: #000000"/>
      </g>
     </g>
     <g id="text_14">
      <!-- 5 -->
      <g transform="translate(93.06625 178.739256) scale(0.1 -0.1)">
       <use xlink:href="#DejaVuSans-35"/>
      </g>
     </g>
    </g>
    <g id="ytick_6">
     <g id="line2d_27">
      <path d="M 79.997243 133.519348 
L 637.997243 133.519348 
" clip-path="url(#pfe8eec9683)" style="fill: none; stroke-dasharray: 0.8,1.32; stroke-dashoffset: 0; stroke: #b0b0b0; stroke-opacity: 0.4; stroke-width: 0.8"/>
     </g>
     <g id="line2d_28">
      <g>
       <use xlink:href="#md545f84fd3" x="102.92875" y="133.519348" style="stroke: #000000"/>
      </g>
     </g>
     <g id="text_15">
      <!-- 6 -->
      <g transform="translate(93.06625 137.318567) scale(0.1 -0.1)">
       <defs>
        <path id="DejaVuSans-36" d="M 2113 2584 
Q 1688 2584 1439 2293 
Q 1191 2003 1191 1497 
Q 1191 994 1439 701 
Q 1688 409 2113 409 
Q 2538 409 2786 701 
Q 3034 994 3034 1497 
Q 3034 2003 2786 2293 
Q 2538 2584 2113 2584 
z
M 3366 4563 
L 3366 3988 
Q 3128 4100 2886 4159 
Q 2644 4219 2406 4219 
Q 1781 4219 1451 3797 
Q 1122 3375 1075 2522 
Q 1259 2794 1537 2939 
Q 1816 3084 2150 3084 
Q 2853 3084 3261 2657 
Q 3669 2231 3669 1497 
Q 3669 778 3244 343 
Q 2819 -91 2113 -91 
Q 1303 -91 875 529 
Q 447 1150 447 2328 
Q 447 3434 972 4092 
Q 1497 4750 2381 4750 
Q 2619 4750 2861 4703 
Q 3103 4656 3366 4563 
z
" transform="scale(0.015625)"/>
       </defs>
       <use xlink:href="#DejaVuSans-36"/>
      </g>
     </g>
    </g>
    <g id="ytick_7">
     <g id="line2d_29">
      <path d="M 79.997243 92.098658 
L 637.997243 92.098658 
" clip-path="url(#pfe8eec9683)" style="fill: none; stroke-dasharray: 0.8,1.32; stroke-dashoffset: 0; stroke: #b0b0b0; stroke-opacity: 0.4; stroke-width: 0.8"/>
     </g>
     <g id="line2d_30">
      <g>
       <use xlink:href="#md545f84fd3" x="102.92875" y="92.098658" style="stroke: #000000"/>
      </g>
     </g>
     <g id="text_16">
      <!-- 7 -->
      <g transform="translate(93.06625 95.897877) scale(0.1 -0.1)">
       <defs>
        <path id="DejaVuSans-37" d="M 525 4666 
L 3525 4666 
L 3525 4397 
L 1831 0 
L 1172 0 
L 2766 4134 
L 525 4134 
L 525 4666 
z
" transform="scale(0.015625)"/>
       </defs>
       <use xlink:href="#DejaVuSans-37"/>
      </g>
     </g>
    </g>
    <g id="text_17">
     <!-- Precio (P) -->
     <g transform="translate(28.8 48.182344) scale(0.12 -0.12)">
      <defs>
       <path id="DejaVuSans-Bold-50" d="M 588 4666 
L 2584 4666 
Q 3475 4666 3951 4270 
Q 4428 3875 4428 3144 
Q 4428 2409 3951 2014 
Q 3475 1619 2584 1619 
L 1791 1619 
L 1791 0 
L 588 0 
L 588 4666 
z
M 1791 3794 
L 1791 2491 
L 2456 2491 
Q 2806 2491 2997 2661 
Q 3188 2831 3188 3144 
Q 3188 3456 2997 3625 
Q 2806 3794 2456 3794 
L 1791 3794 
z
" transform="scale(0.015625)"/>
       <path id="DejaVuSans-Bold-72" d="M 3138 2547 
Q 2991 2616 2845 2648 
Q 2700 2681 2553 2681 
Q 2122 2681 1889 2404 
Q 1656 2128 1656 1613 
L 1656 0 
L 538 0 
L 538 3500 
L 1656 3500 
L 1656 2925 
Q 1872 3269 2151 3426 
Q 2431 3584 2822 3584 
Q 2878 3584 2943 3579 
Q 3009 3575 3134 3559 
L 3138 2547 
z
" transform="scale(0.015625)"/>
       <path id="DejaVuSans-Bold-65" d="M 4031 1759 
L 4031 1441 
L 1416 1441 
Q 1456 1047 1700 850 
Q 1944 653 2381 653 
Q 2734 653 3104 758 
Q 3475 863 3866 1075 
L 3866 213 
Q 3469 63 3072 -14 
Q 2675 -91 2278 -91 
Q 1328 -91 801 392 
Q 275 875 275 1747 
Q 275 2603 792 3093 
Q 1309 3584 2216 3584 
Q 3041 3584 3536 3087 
Q 4031 2591 4031 1759 
z
M 2881 2131 
Q 2881 2450 2695 2645 
Q 2509 2841 2209 2841 
Q 1884 2841 1681 2658 
Q 1478 2475 1428 2131 
L 2881 2131 
z
" transform="scale(0.015625)"/>
       <path id="DejaVuSans-Bold-63" d="M 3366 3391 
L 3366 2478 
Q 3138 2634 2908 2709 
Q 2678 2784 2431 2784 
Q 1963 2784 1702 2511 
Q 1441 2238 1441 1747 
Q 1441 1256 1702 982 
Q 1963 709 2431 709 
Q 2694 709 2930 787 
Q 3166 866 3366 1019 
L 3366 103 
Q 3103 6 2833 -42 
Q 2563 -91 2291 -91 
Q 1344 -91 809 395 
Q 275 881 275 1747 
Q 275 2613 809 3098 
Q 1344 3584 2291 3584 
Q 2566 3584 2833 3536 
Q 3100 3488 3366 3391 
z
" transform="scale(0.015625)"/>
       <path id="DejaVuSans-Bold-6f" d="M 2203 2784 
Q 1831 2784 1636 2517 
Q 1441 2250 1441 1747 
Q 1441 1244 1636 976 
Q 1831 709 2203 709 
Q 2569 709 2762 976 
Q 2956 1244 2956 1747 
Q 2956 2250 2762 2517 
Q 2569 2784 2203 2784 
z
M 2203 3584 
Q 3106 3584 3614 3096 
Q 4122 2609 4122 1747 
Q 4122 884 3614 396 
Q 3106 -91 2203 -91 
Q 1297 -91 786 396 
Q 275 884 275 1747 
Q 275 2609 786 3096 
Q 1297 3584 2203 3584 
z
" transform="scale(0.015625)"/>
      </defs>
      <use xlink:href="#DejaVuSans-Bold-50"/>
      <use xlink:href="#DejaVuSans-Bold-72" x="73.291016"/>
      <use xlink:href="#DejaVuSans-Bold-65" x="122.607422"/>
      <use xlink:href="#DejaVuSans-Bold-63" x="190.429688"/>
      <use xlink:href="#DejaVuSans-Bold-69" x="249.707031"/>
      <use xlink:href="#DejaVuSans-Bold-6f" x="283.984375"/>
      <use xlink:href="#DejaVuSans-Bold-20" x="352.685547"/>
      <use xlink:href="#DejaVuSans-Bold-28" x="387.5"/>
      <use xlink:href="#DejaVuSans-Bold-50" x="433.203125"/>
      <use xlink:href="#DejaVuSans-Bold-29" x="506.494141"/>
     </g>
    </g>
   </g>
   <g id="line2d_31">
    <path d="M 408.682175 382.043486 
L 286.380805 50.677969 
L 286.380805 50.677969 
" clip-path="url(#pfe8eec9683)" style="fill: none; stroke: #c0392b; stroke-width: 3; stroke-linecap: square"/>
   </g>
   <g id="line2d_32">
    <path d="M 255.805462 382.043486 
L 745.010942 50.677969 
L 745.010942 50.677969 
" clip-path="url(#pfe8eec9683)" style="fill: none; stroke: #2980b9; stroke-width: 3; stroke-linecap: square"/>
   </g>
   <g id="line2d_33">
    <path d="M 378.106832 382.043486 
L 378.106832 299.202107 
" clip-path="url(#pfe8eec9683)" style="fill: none; stroke-dasharray: 3.7,1.6; stroke-dashoffset: 0; stroke: #34495e; stroke-opacity: 0.6"/>
   </g>
   <g id="line2d_34">
    <path d="M 102.92875 299.202107 
L 378.106832 299.202107 
" clip-path="url(#pfe8eec9683)" style="fill: none; stroke-dasharray: 3.7,1.6; stroke-dashoffset: 0; stroke: #34495e; stroke-opacity: 0.6"/>
   </g>
   <g id="line2d_35">
    <defs>
     <path id="mf4a382f22d" d="M 4 0 
L -4 -4 
L -4 4 
z
" style="stroke: #000000; stroke-linejoin: miter"/>
    </defs>
    <g>
     <use xlink:href="#mf4a382f22d" x="637.997243" y="382.043486" style="stroke: #000000; stroke-linejoin: miter"/>
    </g>
   </g>
   <g id="line2d_36">
    <defs>
     <path id="m361b196f61" d="M 0 -4 
L -4 4 
L 4 4 
z
" style="stroke: #000000; stroke-linejoin: miter"/>
    </defs>
    <g>
     <use xlink:href="#m361b196f61" x="102.92875" y="50.677969" style="stroke: #000000; stroke-linejoin: miter"/>
    </g>
   </g>
   <g id="patch_3">
    <path d="M 102.92875 411.037969 
L 102.92875 50.677969 
" style="fill: none; stroke: #000000; stroke-width: 1.4; stroke-linejoin: miter; stroke-linecap: square"/>
   </g>
   <g id="patch_4">
    <path d="M 79.997243 382.043486 
L 637.997243 382.043486 
" style="fill: none; stroke: #000000; stroke-width: 1.4; stroke-linejoin: miter; stroke-linecap: square"/>
   </g>
   <g id="text_18">
    <!-- Ej 2 — Equilibrio y elasticidad en P = 5 -->
    <g transform="translate(217.976696 38.677969) scale(0.13 -0.13)">
     <defs>
      <path id="DejaVuSans-Bold-45" d="M 588 4666 
L 3834 4666 
L 3834 3756 
L 1791 3756 
L 1791 2888 
L 3713 2888 
L 3713 1978 
L 1791 1978 
L 1791 909 
L 3903 909 
L 3903 0 
L 588 0 
L 588 4666 
z
" transform="scale(0.015625)"/>
      <path id="DejaVuSans-Bold-6a" d="M 538 3500 
L 1656 3500 
L 1656 63 
Q 1656 -641 1318 -1011 
Q 981 -1381 341 -1381 
L -213 -1381 
L -213 -647 
L -19 -647 
Q 300 -647 419 -503 
Q 538 -359 538 63 
L 538 3500 
z
M 538 4863 
L 1656 4863 
L 1656 3950 
L 538 3950 
L 538 4863 
z
" transform="scale(0.015625)"/>
      <path id="DejaVuSans-Bold-32" d="M 1844 884 
L 3897 884 
L 3897 0 
L 506 0 
L 506 884 
L 2209 2388 
Q 2438 2594 2547 2791 
Q 2656 2988 2656 3200 
Q 2656 3528 2436 3728 
Q 2216 3928 1850 3928 
Q 1569 3928 1234 3808 
Q 900 3688 519 3450 
L 519 4475 
Q 925 4609 1322 4679 
Q 1719 4750 2100 4750 
Q 2938 4750 3402 4381 
Q 3866 4013 3866 3353 
Q 3866 2972 3669 2642 
Q 3472 2313 2841 1759 
L 1844 884 
z
" transform="scale(0.015625)"/>
      <path id="DejaVuSans-Bold-2014" d="M 344 2156 
L 6056 2156 
L 6056 1350 
L 344 1350 
L 344 2156 
z
" transform="scale(0.015625)"/>
      <path id="DejaVuSans-Bold-71" d="M 2181 2772 
Q 1825 2772 1636 2509 
Q 1447 2247 1447 1747 
Q 1447 1247 1636 984 
Q 1825 722 2181 722 
Q 2541 722 2730 984 
Q 2919 1247 2919 1747 
Q 2919 2247 2730 2509 
Q 2541 2772 2181 2772 
z
M 2919 506 
Q 2688 197 2409 53 
Q 2131 -91 1766 -91 
Q 1119 -91 703 423 
Q 288 938 288 1747 
Q 288 2556 703 3067 
Q 1119 3578 1766 3578 
Q 2131 3578 2409 3434 
Q 2688 3291 2919 2981 
L 2919 3500 
L 4044 3500 
L 4044 -1331 
L 2919 -1331 
L 2919 506 
z
" transform="scale(0.015625)"/>
      <path id="DejaVuSans-Bold-75" d="M 500 1363 
L 500 3500 
L 1625 3500 
L 1625 3150 
Q 1625 2866 1622 2436 
Q 1619 2006 1619 1863 
Q 1619 1441 1641 1255 
Q 1663 1069 1716 984 
Q 1784 875 1895 815 
Q 2006 756 2150 756 
Q 2500 756 2700 1025 
Q 2900 1294 2900 1772 
L 2900 3500 
L 4019 3500 
L 4019 0 
L 2900 0 
L 2900 506 
Q 2647 200 2364 54 
Q 2081 -91 1741 -91 
Q 1134 -91 817 281 
Q 500 653 500 1363 
z
" transform="scale(0.015625)"/>
      <path id="DejaVuSans-Bold-6c" d="M 538 4863 
L 1656 4863 
L 1656 0 
L 538 0 
L 538 4863 
z
" transform="scale(0.015625)"/>
      <path id="DejaVuSans-Bold-62" d="M 2400 722 
Q 2759 722 2948 984 
Q 3138 1247 3138 1747 
Q 3138 2247 2948 2509 
Q 2759 2772 2400 2772 
Q 2041 2772 1848 2508 
Q 1656 2244 1656 1747 
Q 1656 1250 1848 986 
Q 2041 722 2400 722 
z
M 1656 2988 
Q 1888 3294 2169 3439 
Q 2450 3584 2816 3584 
Q 3463 3584 3878 3070 
Q 4294 2556 4294 1747 
Q 4294 938 3878 423 
Q 3463 -91 2816 -91 
Q 2450 -91 2169 54 
Q 1888 200 1656 506 
L 1656 0 
L 538 0 
L 538 4863 
L 1656 4863 
L 1656 2988 
z
" transform="scale(0.015625)"/>
      <path id="DejaVuSans-Bold-79" d="M 78 3500 
L 1197 3500 
L 2138 1125 
L 2938 3500 
L 4056 3500 
L 2584 -331 
Q 2363 -916 2067 -1148 
Q 1772 -1381 1288 -1381 
L 641 -1381 
L 641 -647 
L 991 -647 
Q 1275 -647 1404 -556 
Q 1534 -466 1606 -231 
L 1638 -134 
L 78 3500 
z
" transform="scale(0.015625)"/>
      <path id="DejaVuSans-Bold-73" d="M 3272 3391 
L 3272 2541 
Q 2913 2691 2578 2766 
Q 2244 2841 1947 2841 
Q 1628 2841 1473 2761 
Q 1319 2681 1319 2516 
Q 1319 2381 1436 2309 
Q 1553 2238 1856 2203 
L 2053 2175 
Q 2913 2066 3209 1816 
Q 3506 1566 3506 1031 
Q 3506 472 3093 190 
Q 2681 -91 1863 -91 
Q 1516 -91 1145 -36 
Q 775 19 384 128 
L 384 978 
Q 719 816 1070 734 
Q 1422 653 1784 653 
Q 2113 653 2278 743 
Q 2444 834 2444 1013 
Q 2444 1163 2330 1236 
Q 2216 1309 1875 1350 
L 1678 1375 
Q 931 1469 631 1722 
Q 331 1975 331 2491 
Q 331 3047 712 3315 
Q 1094 3584 1881 3584 
Q 2191 3584 2531 3537 
Q 2872 3491 3272 3391 
z
" transform="scale(0.015625)"/>
      <path id="DejaVuSans-Bold-3d" d="M 678 3084 
L 4684 3084 
L 4684 2350 
L 678 2350 
L 678 3084 
z
M 678 1663 
L 4684 1663 
L 4684 922 
L 678 922 
L 678 1663 
z
" transform="scale(0.015625)"/>
      <path id="DejaVuSans-Bold-35" d="M 678 4666 
L 3669 4666 
L 3669 3781 
L 1638 3781 
L 1638 3059 
Q 1775 3097 1914 3117 
Q 2053 3138 2203 3138 
Q 3056 3138 3531 2711 
Q 4006 2284 4006 1522 
Q 4006 766 3489 337 
Q 2972 -91 2053 -91 
Q 1656 -91 1267 -14 
Q 878 63 494 219 
L 494 1166 
Q 875 947 1217 837 
Q 1559 728 1863 728 
Q 2300 728 2551 942 
Q 2803 1156 2803 1522 
Q 2803 1891 2551 2103 
Q 2300 2316 1863 2316 
Q 1603 2316 1309 2248 
Q 1016 2181 678 2041 
L 678 4666 
z
" transform="scale(0.015625)"/>
     </defs>
     <use xlink:href="#DejaVuSans-Bold-45"/>
     <use xlink:href="#DejaVuSans-Bold-6a" x="68.310547"/>
     <use xlink:href="#DejaVuSans-Bold-20" x="102.587891"/>
     <use xlink:href="#DejaVuSans-Bold-32" x="137.402344"/>
     <use xlink:href="#DejaVuSans-Bold-20" x="206.982422"/>
     <use xlink:href="#DejaVuSans-Bold-2014" x="241.796875"/>
     <use xlink:href="#DejaVuSans-Bold-20" x="341.796875"/>
     <use xlink:href="#DejaVuSans-Bold-45" x="376.611328"/>
     <use xlink:href="#DejaVuSans-Bold-71" x="444.921875"/>
     <use xlink:href="#DejaVuSans-Bold-75" x="516.503906"/>
     <use xlink:href="#DejaVuSans-Bold-69" x="587.695312"/>
     <use xlink:href="#DejaVuSans-Bold-6c" x="621.972656"/>
     <use xlink:href="#DejaVuSans-Bold-69" x="656.25"/>
     <use xlink:href="#DejaVuSans-Bold-62" x="690.527344"/>
     <use xlink:href="#DejaVuSans-Bold-72" x="762.109375"/>
     <use xlink:href="#DejaVuSans-Bold-69" x="811.425781"/>
     <use xlink:href="#DejaVuSans-Bold-6f" x="845.703125"/>
     <use xlink:href="#DejaVuSans-Bold-20" x="914.404297"/>
     <use xlink:href="#DejaVuSans-Bold-79" x="949.21875"/>
     <use xlink:href="#DejaVuSans-Bold-20" x="1014.404297"/>
     <use xlink:href="#DejaVuSans-Bold-65" x="1049.21875"/>
     <use xlink:href="#DejaVuSans-Bold-6c" x="1117.041016"/>
     <use xlink:href="#DejaVuSans-Bold-61" x="1151.318359"/>
     <use xlink:href="#DejaVuSans-Bold-73" x="1218.798828"/>
     <use xlink:href="#DejaVuSans-Bold-74" x="1278.320312"/>
     <use xlink:href="#DejaVuSans-Bold-69" x="1326.123047"/>
     <use xlink:href="#DejaVuSans-Bold-63" x="1360.400391"/>
     <use xlink:href="#DejaVuSans-Bold-69" x="1419.677734"/>
     <use xlink:href="#DejaVuSans-Bold-64" x="1453.955078"/>
     <use xlink:href="#DejaVuSans-Bold-61" x="1525.537109"/>
     <use xlink:href="#DejaVuSans-Bold-64" x="1593.017578"/>
     <use xlink:href="#DejaVuSans-Bold-20" x="1664.599609"/>
     <use xlink:href="#DejaVuSans-Bold-65" x="1699.414062"/>
     <use xlink:href="#DejaVuSans-Bold-6e" x="1767.236328"/>
     <use xlink:href="#DejaVuSans-Bold-20" x="1838.427734"/>
     <use xlink:href="#DejaVuSans-Bold-50" x="1873.242188"/>
     <use xlink:href="#DejaVuSans-Bold-20" x="1946.533203"/>
     <use xlink:href="#DejaVuSans-Bold-3d" x="1981.347656"/>
     <use xlink:href="#DejaVuSans-Bold-20" x="2065.136719"/>
     <use xlink:href="#DejaVuSans-Bold-35" x="2099.951172"/>
    </g>
   </g>
   <g id="legend_1">
    <g id="patch_5">
     <path d="M 651.157243 83.034219 
L 758.513493 83.034219 
Q 760.513493 83.034219 760.513493 81.034219 
L 760.513493 52.677969 
Q 760.513493 50.677969 758.513493 50.677969 
L 651.157243 50.677969 
Q 649.157243 50.677969 649.157243 52.677969 
L 649.157243 81.034219 
Q 649.157243 83.034219 651.157243 83.034219 
z
" style="fill: #ffffff; opacity: 0.8; stroke: #cccccc; stroke-linejoin: miter"/>
    </g>
    <g id="line2d_37">
     <path d="M 653.157243 58.776406 
L 663.157243 58.776406 
L 673.157243 58.776406 
" style="fill: none; stroke: #c0392b; stroke-width: 3; stroke-linecap: square"/>
    </g>
    <g id="text_19">
     <!-- D: Q = 20 − P -->
     <g transform="translate(681.157243 62.276406) scale(0.1 -0.1)">
      <defs>
       <path id="DejaVuSans-44" d="M 1259 4147 
L 1259 519 
L 2022 519 
Q 2988 519 3436 956 
Q 3884 1394 3884 2338 
Q 3884 3275 3436 3711 
Q 2988 4147 2022 4147 
L 1259 4147 
z
M 628 4666 
L 1925 4666 
Q 3281 4666 3915 4102 
Q 4550 3538 4550 2338 
Q 4550 1131 3912 565 
Q 3275 0 1925 0 
L 628 0 
L 628 4666 
z
" transform="scale(0.015625)"/>
       <path id="DejaVuSans-3a" d="M 750 794 
L 1409 794 
L 1409 0 
L 750 0 
L 750 794 
z
M 750 3309 
L 1409 3309 
L 1409 2516 
L 750 2516 
L 750 3309 
z
" transform="scale(0.015625)"/>
       <path id="DejaVuSans-20" transform="scale(0.015625)"/>
       <path id="DejaVuSans-51" d="M 2522 4238 
Q 1834 4238 1429 3725 
Q 1025 3213 1025 2328 
Q 1025 1447 1429 934 
Q 1834 422 2522 422 
Q 3209 422 3611 934 
Q 4013 1447 4013 2328 
Q 4013 3213 3611 3725 
Q 3209 4238 2522 4238 
z
M 3406 84 
L 4238 -825 
L 3475 -825 
L 2784 -78 
Q 2681 -84 2626 -87 
Q 2572 -91 2522 -91 
Q 1538 -91 948 567 
Q 359 1225 359 2328 
Q 359 3434 948 4092 
Q 1538 4750 2522 4750 
Q 3503 4750 4090 4092 
Q 4678 3434 4678 2328 
Q 4678 1516 4351 937 
Q 4025 359 3406 84 
z
" transform="scale(0.015625)"/>
       <path id="DejaVuSans-3d" d="M 678 2906 
L 4684 2906 
L 4684 2381 
L 678 2381 
L 678 2906 
z
M 678 1631 
L 4684 1631 
L 4684 1100 
L 678 1100 
L 678 1631 
z
" transform="scale(0.015625)"/>
       <path id="DejaVuSans-2212" d="M 678 2272 
L 4684 2272 
L 4684 1741 
L 678 1741 
L 678 2272 
z
" transform="scale(0.015625)"/>
       <path id="DejaVuSans-50" d="M 1259 4147 
L 1259 2394 
L 2053 2394 
Q 2494 2394 2734 2622 
Q 2975 2850 2975 3272 
Q 2975 3691 2734 3919 
Q 2494 4147 2053 4147 
L 1259 4147 
z
M 628 4666 
L 2053 4666 
Q 2838 4666 3239 4311 
Q 3641 3956 3641 3272 
Q 3641 2581 3239 2228 
Q 2838 1875 2053 1875 
L 1259 1875 
L 1259 0 
L 628 0 
L 628 4666 
z
" transform="scale(0.015625)"/>
      </defs>
      <use xlink:href="#DejaVuSans-44"/>
      <use xlink:href="#DejaVuSans-3a" x="77.001953"/>
      <use xlink:href="#DejaVuSans-20" x="110.693359"/>
      <use xlink:href="#DejaVuSans-51" x="142.480469"/>
      <use xlink:href="#DejaVuSans-20" x="221.191406"/>
      <use xlink:href="#DejaVuSans-3d" x="252.978516"/>
      <use xlink:href="#DejaVuSans-20" x="336.767578"/>
      <use xlink:href="#DejaVuSans-32" x="368.554688"/>
      <use xlink:href="#DejaVuSans-30" x="432.177734"/>
      <use xlink:href="#DejaVuSans-20" x="495.800781"/>
      <use xlink:href="#DejaVuSans-2212" x="527.587891"/>
      <use xlink:href="#DejaVuSans-20" x="611.376953"/>
      <use xlink:href="#DejaVuSans-50" x="643.164062"/>
     </g>
    </g>
    <g id="line2d_38">
     <path d="M 653.157243 73.454531 
L 663.157243 73.454531 
L 673.157243 73.454531 
" style="fill: none; stroke: #2980b9; stroke-width: 3; stroke-linecap: square"/>
    </g>
    <g id="text_20">
     <!-- S: Q = 10 + 4P -->
     <g transform="translate(681.157243 76.954531) scale(0.1 -0.1)">
      <defs>
       <path id="DejaVuSans-53" d="M 3425 4513 
L 3425 3897 
Q 3066 4069 2747 4153 
Q 2428 4238 2131 4238 
Q 1616 4238 1336 4038 
Q 1056 3838 1056 3469 
Q 1056 3159 1242 3001 
Q 1428 2844 1947 2747 
L 2328 2669 
Q 3034 2534 3370 2195 
Q 3706 1856 3706 1288 
Q 3706 609 3251 259 
Q 2797 -91 1919 -91 
Q 1588 -91 1214 -16 
Q 841 59 441 206 
L 441 856 
Q 825 641 1194 531 
Q 1563 422 1919 422 
Q 2459 422 2753 634 
Q 3047 847 3047 1241 
Q 3047 1584 2836 1778 
Q 2625 1972 2144 2069 
L 1759 2144 
Q 1053 2284 737 2584 
Q 422 2884 422 3419 
Q 422 4038 858 4394 
Q 1294 4750 2059 4750 
Q 2388 4750 2728 4690 
Q 3069 4631 3425 4513 
z
" transform="scale(0.015625)"/>
       <path id="DejaVuSans-2b" d="M 2944 4013 
L 2944 2272 
L 4684 2272 
L 4684 1741 
L 2944 1741 
L 2944 0 
L 2419 0 
L 2419 1741 
L 678 1741 
L 678 2272 
L 2419 2272 
L 2419 4013 
L 2944 4013 
z
" transform="scale(0.015625)"/>
      </defs>
      <use xlink:href="#DejaVuSans-53"/>
      <use xlink:href="#DejaVuSans-3a" x="63.476562"/>
      <use xlink:href="#DejaVuSans-20" x="97.167969"/>
      <use xlink:href="#DejaVuSans-51" x="128.955078"/>
      <use xlink:href="#DejaVuSans-20" x="207.666016"/>
      <use xlink:href="#DejaVuSans-3d" x="239.453125"/>
      <use xlink:href="#DejaVuSans-20" x="323.242188"/>
      <use xlink:href="#DejaVuSans-31" x="355.029297"/>
      <use xlink:href="#DejaVuSans-30" x="418.652344"/>
      <use xlink:href="#DejaVuSans-20" x="482.275391"/>
      <use xlink:href="#DejaVuSans-2b" x="514.0625"/>
      <use xlink:href="#DejaVuSans-20" x="597.851562"/>
      <use xlink:href="#DejaVuSans-34" x="629.638672"/>
      <use xlink:href="#DejaVuSans-50" x="693.261719"/>
     </g>
    </g>
   </g>
   <g id="line2d_39">
    <defs>
     <path id="m8347bafae5" d="M 0 5 
C 1.326016 5 2.597899 4.473168 3.535534 3.535534 
C 4.473168 2.597899 5 1.326016 5 0 
C 5 -1.326016 4.473168 -2.597899 3.535534 -3.535534 
C 2.597899 -4.473168 1.326016 -5 0 -5 
C -1.326016 -5 -2.597899 -4.473168 -3.535534 -3.535534 
C -4.473168 -2.597899 -5 -1.326016 -5 0 
C -5 1.326016 -4.473168 2.597899 -3.535534 3.535534 
C -2.597899 4.473168 -1.326016 5 0 5 
z
" style="stroke: #000000"/>
    </defs>
    <g clip-path="url(#pfe8eec9683)">
     <use xlink:href="#m8347bafae5" x="378.106832" y="299.202107" style="stroke: #000000"/>
    </g>
   </g>
   <g id="line2d_40">
    <defs>
     <path id="md902aef750" d="M -6 6 
L 6 6 
L 6 -6 
L -6 -6 
z
" style="stroke: #27ae60; stroke-linejoin: miter"/>
    </defs>
    <g clip-path="url(#pfe8eec9683)">
     <use xlink:href="#md902aef750" x="332.243818" y="174.940038" style="fill: #27ae60; stroke: #27ae60; stroke-linejoin: miter"/>
    </g>
   </g>
   <g id="patch_6">
    <path d="M 428.37468 318.997463 
Q 404.171926 309.466478 381.009451 300.345151 
" style="fill: none; stroke: #000000; stroke-linecap: round"/>
    <path d="M 384.297343 304.004354 
L 381.009451 300.345151 
L 385.909549 299.910359 
" style="fill: none; stroke: #000000; stroke-linecap: round"/>
   </g>
   <g id="text_21">
    <g id="patch_7">
     <path d="M 404.684251 338.476315 
L 504.406126 338.476315 
Q 508.256126 338.476315 508.256126 334.626315 
L 508.256126 323.980377 
Q 508.256126 320.130377 504.406126 320.130377 
L 404.684251 320.130377 
Q 400.834251 320.130377 400.834251 323.980377 
L 400.834251 334.626315 
Q 400.834251 338.476315 404.684251 338.476315 
z
" style="fill: #ffffff; opacity: 0.97; stroke: #bdc3c7; stroke-width: 0.8; stroke-linejoin: miter"/>
    </g>
    <!-- E (Q*=18, P*=2) -->
    <g transform="translate(404.684251 332.338658) scale(0.11 -0.11)">
     <defs>
      <path id="DejaVuSans-Bold-2a" d="M 3219 3803 
L 2188 3263 
L 3219 2719 
L 2981 2278 
L 1941 2853 
L 1941 1778 
L 1409 1778 
L 1409 2853 
L 366 2278 
L 128 2719 
L 1172 3263 
L 128 3803 
L 366 4244 
L 1409 3675 
L 1409 4750 
L 1941 4750 
L 1941 3675 
L 2981 4244 
L 3219 3803 
z
" transform="scale(0.015625)"/>
      <path id="DejaVuSans-Bold-31" d="M 750 831 
L 1813 831 
L 1813 3847 
L 722 3622 
L 722 4441 
L 1806 4666 
L 2950 4666 
L 2950 831 
L 4013 831 
L 4013 0 
L 750 0 
L 750 831 
z
" transform="scale(0.015625)"/>
      <path id="DejaVuSans-Bold-38" d="M 2228 2088 
Q 1891 2088 1709 1903 
Q 1528 1719 1528 1375 
Q 1528 1031 1709 848 
Q 1891 666 2228 666 
Q 2563 666 2741 848 
Q 2919 1031 2919 1375 
Q 2919 1722 2741 1905 
Q 2563 2088 2228 2088 
z
M 1350 2484 
Q 925 2613 709 2878 
Q 494 3144 494 3541 
Q 494 4131 934 4440 
Q 1375 4750 2228 4750 
Q 3075 4750 3515 4442 
Q 3956 4134 3956 3541 
Q 3956 3144 3739 2878 
Q 3522 2613 3097 2484 
Q 3572 2353 3814 2058 
Q 4056 1763 4056 1313 
Q 4056 619 3595 264 
Q 3134 -91 2228 -91 
Q 1319 -91 855 264 
Q 391 619 391 1313 
Q 391 1763 633 2058 
Q 875 2353 1350 2484 
z
M 1631 3419 
Q 1631 3141 1786 2991 
Q 1941 2841 2228 2841 
Q 2509 2841 2662 2991 
Q 2816 3141 2816 3419 
Q 2816 3697 2662 3845 
Q 2509 3994 2228 3994 
Q 1941 3994 1786 3844 
Q 1631 3694 1631 3419 
z
" transform="scale(0.015625)"/>
      <path id="DejaVuSans-Bold-2c" d="M 653 1209 
L 1778 1209 
L 1778 256 
L 1006 -909 
L 341 -909 
L 653 256 
L 653 1209 
z
" transform="scale(0.015625)"/>
     </defs>
     <use xlink:href="#DejaVuSans-Bold-45"/>
     <use xlink:href="#DejaVuSans-Bold-20" x="68.310547"/>
     <use xlink:href="#DejaVuSans-Bold-28" x="103.125"/>
     <use xlink:href="#DejaVuSans-Bold-51" x="148.828125"/>
     <use xlink:href="#DejaVuSans-Bold-2a" x="233.837891"/>
     <use xlink:href="#DejaVuSans-Bold-3d" x="286.132812"/>
     <use xlink:href="#DejaVuSans-Bold-31" x="369.921875"/>
     <use xlink:href="#DejaVuSans-Bold-38" x="439.501953"/>
     <use xlink:href="#DejaVuSans-Bold-2c" x="509.082031"/>
     <use xlink:href="#DejaVuSans-Bold-20" x="547.070312"/>
     <use xlink:href="#DejaVuSans-Bold-50" x="581.884766"/>
     <use xlink:href="#DejaVuSans-Bold-2a" x="655.175781"/>
     <use xlink:href="#DejaVuSans-Bold-3d" x="707.470703"/>
     <use xlink:href="#DejaVuSans-Bold-32" x="791.259766"/>
     <use xlink:href="#DejaVuSans-Bold-29" x="860.839844"/>
    </g>
   </g>
   <g id="text_22">
    <g id="patch_8">
     <path d="M 49.295766 308.375075 
L 87.641079 308.375075 
Q 91.491079 308.375075 91.491079 304.525075 
L 91.491079 293.879138 
Q 91.491079 290.029138 87.641079 290.029138 
L 49.295766 290.029138 
Q 45.445766 290.029138 45.445766 293.879138 
L 45.445766 304.525075 
Q 45.445766 308.375075 49.295766 308.375075 
z
" style="fill: #ffffff; opacity: 0.97; stroke: #bdc3c7; stroke-width: 0.8; stroke-linejoin: miter"/>
    </g>
    <!-- P* = 2 -->
    <g style="fill: #34495e" transform="translate(49.295766 302.237419) scale(0.11 -0.11)">
     <use xlink:href="#DejaVuSans-Bold-50"/>
     <use xlink:href="#DejaVuSans-Bold-2a" x="73.291016"/>
     <use xlink:href="#DejaVuSans-Bold-20" x="125.585938"/>
     <use xlink:href="#DejaVuSans-Bold-3d" x="160.400391"/>
     <use xlink:href="#DejaVuSans-Bold-20" x="244.189453"/>
     <use xlink:href="#DejaVuSans-Bold-32" x="279.003906"/>
    </g>
   </g>
   <g id="text_23">
    <g id="patch_9">
     <path d="M 354.462848 417.249768 
L 401.750817 417.249768 
Q 405.600817 417.249768 405.600817 413.399768 
L 405.600817 402.753831 
Q 405.600817 398.903831 401.750817 398.903831 
L 354.462848 398.903831 
Q 350.612848 398.903831 350.612848 402.753831 
L 350.612848 413.399768 
Q 350.612848 417.249768 354.462848 417.249768 
z
" style="fill: #ffffff; opacity: 0.97; stroke: #bdc3c7; stroke-width: 0.8; stroke-linejoin: miter"/>
    </g>
    <!-- Q* = 18 -->
    <g style="fill: #34495e" transform="translate(354.462848 411.112112) scale(0.11 -0.11)">
     <use xlink:href="#DejaVuSans-Bold-51"/>
     <use xlink:href="#DejaVuSans-Bold-2a" x="85.009766"/>
     <use xlink:href="#DejaVuSans-Bold-20" x="137.304688"/>
     <use xlink:href="#DejaVuSans-Bold-3d" x="172.119141"/>
     <use xlink:href="#DejaVuSans-Bold-20" x="255.908203"/>
     <use xlink:href="#DejaVuSans-Bold-31" x="290.722656"/>
     <use xlink:href="#DejaVuSans-Bold-38" x="360.302734"/>
    </g>
   </g>
   <g id="patch_10">
    <path d="M 243.081557 119.293916 
Q 286.815091 146.587992 329.600151 173.290126 
" style="fill: none; stroke: #27ae60; stroke-linecap: round"/>
    <path d="M 327.265684 169.475645 
L 329.600151 173.290126 
L 325.147886 172.869011 
" style="fill: none; stroke: #27ae60; stroke-linecap: round"/>
   </g>
   <g id="text_24">
    <g id="patch_11">
     <path d="M 152.25573 117.888691 
L 267.629167 117.888691 
Q 270.629167 117.888691 270.629167 114.888691 
L 270.629167 82.334941 
Q 270.629167 79.334941 267.629167 79.334941 
L 152.25573 79.334941 
Q 149.25573 79.334941 149.25573 82.334941 
L 149.25573 114.888691 
Q 149.25573 117.888691 152.25573 117.888691 
z
" style="fill: #fffbeb; opacity: 0.97; stroke: #f39c12; stroke-width: 0.7; stroke-linejoin: miter"/>
    </g>
    <!-- Punto de evaluación -->
    <g style="fill: #27ae60" transform="translate(152.53698 89.933378) scale(0.1 -0.1)">
     <defs>
      <path id="DejaVuSans-Bold-76" d="M 97 3500 
L 1216 3500 
L 2088 1081 
L 2956 3500 
L 4078 3500 
L 2700 0 
L 1472 0 
L 97 3500 
z
" transform="scale(0.015625)"/>
      <path id="DejaVuSans-Bold-f3" d="M 2203 2784 
Q 1831 2784 1636 2517 
Q 1441 2250 1441 1747 
Q 1441 1244 1636 976 
Q 1831 709 2203 709 
Q 2569 709 2762 976 
Q 2956 1244 2956 1747 
Q 2956 2250 2762 2517 
Q 2569 2784 2203 2784 
z
M 2203 3584 
Q 3106 3584 3614 3096 
Q 4122 2609 4122 1747 
Q 4122 884 3614 396 
Q 3106 -91 2203 -91 
Q 1297 -91 786 396 
Q 275 884 275 1747 
Q 275 2609 786 3096 
Q 1297 3584 2203 3584 
z
M 2694 5119 
L 3578 5119 
L 2425 3944 
L 1813 3944 
L 2694 5119 
z
" transform="scale(0.015625)"/>
     </defs>
     <use xlink:href="#DejaVuSans-Bold-50"/>
     <use xlink:href="#DejaVuSans-Bold-75" x="73.291016"/>
     <use xlink:href="#DejaVuSans-Bold-6e" x="144.482422"/>
     <use xlink:href="#DejaVuSans-Bold-74" x="215.673828"/>
     <use xlink:href="#DejaVuSans-Bold-6f" x="263.476562"/>
     <use xlink:href="#DejaVuSans-Bold-20" x="332.177734"/>
     <use xlink:href="#DejaVuSans-Bold-64" x="366.992188"/>
     <use xlink:href="#DejaVuSans-Bold-65" x="438.574219"/>
     <use xlink:href="#DejaVuSans-Bold-20" x="506.396484"/>
     <use xlink:href="#DejaVuSans-Bold-65" x="541.210938"/>
     <use xlink:href="#DejaVuSans-Bold-76" x="609.033203"/>
     <use xlink:href="#DejaVuSans-Bold-61" x="674.21875"/>
     <use xlink:href="#DejaVuSans-Bold-6c" x="741.699219"/>
     <use xlink:href="#DejaVuSans-Bold-75" x="775.976562"/>
     <use xlink:href="#DejaVuSans-Bold-61" x="847.167969"/>
     <use xlink:href="#DejaVuSans-Bold-63" x="914.648438"/>
     <use xlink:href="#DejaVuSans-Bold-69" x="973.925781"/>
     <use xlink:href="#DejaVuSans-Bold-f3" x="1008.203125"/>
     <use xlink:href="#DejaVuSans-Bold-6e" x="1076.904297"/>
    </g>
    <!-- (P=5, Q=15) -->
    <g style="fill: #27ae60" transform="translate(175.000261 101.131191) scale(0.1 -0.1)">
     <use xlink:href="#DejaVuSans-Bold-28"/>
     <use xlink:href="#DejaVuSans-Bold-50" x="45.703125"/>
     <use xlink:href="#DejaVuSans-Bold-3d" x="118.994141"/>
     <use xlink:href="#DejaVuSans-Bold-35" x="202.783203"/>
     <use xlink:href="#DejaVuSans-Bold-2c" x="272.363281"/>
     <use xlink:href="#DejaVuSans-Bold-20" x="310.351562"/>
     <use xlink:href="#DejaVuSans-Bold-51" x="345.166016"/>
     <use xlink:href="#DejaVuSans-Bold-3d" x="430.175781"/>
     <use xlink:href="#DejaVuSans-Bold-31" x="513.964844"/>
     <use xlink:href="#DejaVuSans-Bold-35" x="583.544922"/>
     <use xlink:href="#DejaVuSans-Bold-29" x="653.125"/>
    </g>
    <!-- η = −1/3 (inelástica) -->
    <g style="fill: #27ae60" transform="translate(152.25573 112.809003) scale(0.1 -0.1)">
     <defs>
      <path id="DejaVuSans-Bold-3b7" d="M 4056 2131 
L 4056 -1331 
L 2931 -1331 
L 2931 347 
L 2931 1631 
Q 2931 2084 2911 2256 
Q 2891 2428 2841 2509 
Q 2775 2619 2662 2680 
Q 2550 2741 2406 2741 
Q 2056 2741 1856 2470 
Q 1656 2200 1656 1722 
L 1656 0 
L 538 0 
L 538 3500 
L 1656 3500 
L 1656 2988 
Q 1909 3294 2193 3439 
Q 2478 3584 2822 3584 
Q 3428 3584 3742 3212 
Q 4056 2841 4056 2131 
z
" transform="scale(0.015625)"/>
      <path id="DejaVuSans-Bold-2212" d="M 678 2375 
L 4684 2375 
L 4684 1638 
L 678 1638 
L 678 2375 
z
" transform="scale(0.015625)"/>
      <path id="DejaVuSans-Bold-2f" d="M 1644 4666 
L 2338 4666 
L 691 -594 
L 0 -594 
L 1644 4666 
z
" transform="scale(0.015625)"/>
      <path id="DejaVuSans-Bold-33" d="M 2981 2516 
Q 3453 2394 3698 2092 
Q 3944 1791 3944 1325 
Q 3944 631 3412 270 
Q 2881 -91 1863 -91 
Q 1503 -91 1142 -33 
Q 781 25 428 141 
L 428 1069 
Q 766 900 1098 814 
Q 1431 728 1753 728 
Q 2231 728 2486 893 
Q 2741 1059 2741 1369 
Q 2741 1688 2480 1852 
Q 2219 2016 1709 2016 
L 1228 2016 
L 1228 2791 
L 1734 2791 
Q 2188 2791 2409 2933 
Q 2631 3075 2631 3366 
Q 2631 3634 2415 3781 
Q 2200 3928 1806 3928 
Q 1516 3928 1219 3862 
Q 922 3797 628 3669 
L 628 4550 
Q 984 4650 1334 4700 
Q 1684 4750 2022 4750 
Q 2931 4750 3382 4451 
Q 3834 4153 3834 3553 
Q 3834 3144 3618 2883 
Q 3403 2622 2981 2516 
z
" transform="scale(0.015625)"/>
      <path id="DejaVuSans-Bold-e1" d="M 2106 1575 
Q 1756 1575 1579 1456 
Q 1403 1338 1403 1106 
Q 1403 894 1545 773 
Q 1688 653 1941 653 
Q 2256 653 2472 879 
Q 2688 1106 2688 1447 
L 2688 1575 
L 2106 1575 
z
M 3816 1997 
L 3816 0 
L 2688 0 
L 2688 519 
Q 2463 200 2181 54 
Q 1900 -91 1497 -91 
Q 953 -91 614 226 
Q 275 544 275 1050 
Q 275 1666 698 1953 
Q 1122 2241 2028 2241 
L 2688 2241 
L 2688 2328 
Q 2688 2594 2478 2717 
Q 2269 2841 1825 2841 
Q 1466 2841 1156 2769 
Q 847 2697 581 2553 
L 581 3406 
Q 941 3494 1303 3539 
Q 1666 3584 2028 3584 
Q 2975 3584 3395 3211 
Q 3816 2838 3816 1997 
z
M 2606 5119 
L 3490 5119 
L 2337 3944 
L 1725 3944 
L 2606 5119 
z
" transform="scale(0.015625)"/>
     </defs>
     <use xlink:href="#DejaVuSans-Bold-3b7"/>
     <use xlink:href="#DejaVuSans-Bold-20" x="71.191406"/>
     <use xlink:href="#DejaVuSans-Bold-3d" x="106.005859"/>
     <use xlink:href="#DejaVuSans-Bold-20" x="189.794922"/>
     <use xlink:href="#DejaVuSans-Bold-2212" x="224.609375"/>
     <use xlink:href="#DejaVuSans-Bold-31" x="308.398438"/>
     <use xlink:href="#DejaVuSans-Bold-2f" x="377.978516"/>
     <use xlink:href="#DejaVuSans-Bold-33" x="414.501953"/>
     <use xlink:href="#DejaVuSans-Bold-20" x="484.082031"/>
     <use xlink:href="#DejaVuSans-Bold-28" x="518.896484"/>
     <use xlink:href="#DejaVuSans-Bold-69" x="564.599609"/>
     <use xlink:href="#DejaVuSans-Bold-6e" x="598.876953"/>
     <use xlink:href="#DejaVuSans-Bold-65" x="670.068359"/>
     <use xlink:href="#DejaVuSans-Bold-6c" x="737.890625"/>
     <use xlink:href="#DejaVuSans-Bold-e1" x="772.167969"/>
     <use xlink:href="#DejaVuSans-Bold-73" x="839.648438"/>
     <use xlink:href="#DejaVuSans-Bold-74" x="899.169922"/>
     <use xlink:href="#DejaVuSans-Bold-69" x="946.972656"/>
     <use xlink:href="#DejaVuSans-Bold-63" x="981.25"/>
     <use xlink:href="#DejaVuSans-Bold-61" x="1040.527344"/>
     <use xlink:href="#DejaVuSans-Bold-29" x="1108.007812"/>
    </g>
   </g>
  </g>
 </g>
 <defs>
  <clipPath id="pfe8eec9683">
   <rect x="79.997243" y="50.677969" width="558" height="360.36"/>
  </clipPath>
 </defs>
</svg>
