<?xml version="1.0" encoding="utf-8" standalone="no"?>
<!DOCTYPE svg PUBLIC "-//W3C//DTD SVG 1.1//EN"
  "http://www.w3.org/Graphics/SVG/1.1/DTD/svg11.dtd">
<svg xmlns:xlink="http://www.w3.org/1999/xlink" width="915.260688pt" height="463.149844pt" viewBox="0 0 915.260688 463.149844" xmlns="http://www.w3.org/2000/svg" version="1.1">
 <metadata>
  <rdf:RDF xmlns:dc="http://purl.org/dc/elements/1.1/" xmlns:cc="http://creativecommons.org/ns#" xmlns:rdf="http://www.w3.org/1999/02/22-rdf-syntax-ns#">
   <cc:Work>
    <dc:type rdf:resource="http://purl.org/dc/dcmitype/StillImage"/>
    <dc:date>2026-04-28T17:41:36.682707</dc:date>
    <dc:format>image/svg+xml</dc:format>
    <dc:creator>
     <cc:Agent>
      <dc:title>Matplotlib v3.9.2, https://matplotlib.org/</dc:title>
     </cc:Agent>
    </dc:creator>
   </cc:Work>
  </rdf:RDF>
 </metadata>
 <defs>
  <style type="text/css">*{stroke-linejoin: round; stroke-linecap: butt}</style>
 </defs>
 <g id="figure_1">
  <g id="patch_1">
   <path d="M 0 463.149844 
L 915.260687 463.149844 
L 915.260687 0 
L 0 0 
z
" style="fill: #ffffff"/>
  </g>
  <g id="axes_1">
   <g id="patch_2">
    <path d="M 195.78 411.557969 
L 809.58 411.557969 
L 809.58 51.197969 
L 195.78 51.197969 
z
" style="fill: #ffffff"/>
   </g>
   <g id="matplotlib.axis_1">
    <g id="xtick_1">
     <g id="line2d_1">
      <path d="M 298.08 411.557969 
L 298.08 51.197969 
" clip-path="url(#pfc935da3df)" style="fill: none; stroke-dasharray: 0.8,1.32; stroke-dashoffset: 0; stroke: #b0b0b0; stroke-opacity: 0.4; stroke-width: 0.8"/>
     </g>
     <g id="line2d_2">
      <defs>
       <path id="m83452b08ac" d="M 0 0 
L 0 -4 
" style="stroke: #000000"/>
      </defs>
      <g>
       <use xlink:href="#m83452b08ac" x="298.08" y="411.557969" style="stroke: #000000"/>
      </g>
     </g>
     <g id="text_1">
      <!-- 13 -->
      <g transform="translate(291.7175 422.656406) scale(0.1 -0.1)">
       <defs>
        <path id="DejaVuSans-31" d="M 794 531 
L 1825 531 
L 1825 4091 
L 703 3866 
L 703 4441 
L 1819 4666 
L 2450 4666 
L 2450 531 
L 3481 531 
L 3481 0 
L 794 0 
L 794 531 
z
" transform="scale(0.015625)"/>
        <path id="DejaVuSans-33" d="M 2597 2516 
Q 3050 2419 3304 2112 
Q 3559 1806 3559 1356 
Q 3559 666 3084 287 
Q 2609 -91 1734 -91 
Q 1441 -91 1130 -33 
Q 819 25 488 141 
L 488 750 
Q 750 597 1062 519 
Q 1375 441 1716 441 
Q 2309 441 2620 675 
Q 2931 909 2931 1356 
Q 2931 1769 2642 2001 
Q 2353 2234 1838 2234 
L 1294 2234 
L 1294 2753 
L 1863 2753 
Q 2328 2753 2575 2939 
Q 2822 3125 2822 3475 
Q 2822 3834 2567 4026 
Q 2313 4219 1838 4219 
Q 1578 4219 1281 4162 
Q 984 4106 628 3988 
L 628 4550 
Q 988 4650 1302 4700 
Q 1616 4750 1894 4750 
Q 2613 4750 3031 4423 
Q 3450 4097 3450 3541 
Q 3450 3153 3228 2886 
Q 3006 2619 2597 2516 
z
" transform="scale(0.015625)"/>
       </defs>
       <use xlink:href="#DejaVuSans-31"/>
       <use xlink:href="#DejaVuSans-33" x="63.623047"/>
      </g>
     </g>
    </g>
    <g id="xtick_2">
     <g id="line2d_3">
      <path d="M 400.38 411.557969 
L 400.38 51.197969 
" clip-path="url(#pfc935da3df)" style="fill: none; stroke-dasharray: 0.8,1.32; stroke-dashoffset: 0; stroke: #b0b0b0; stroke-opacity: 0.4; stroke-width: 0.8"/>
     </g>
     <g id="line2d_4">
      <g>
       <use xlink:href="#m83452b08ac" x="400.38" y="411.557969" style="stroke: #000000"/>
      </g>
     </g>
     <g id="text_2">
      <!-- 14 -->
      <g transform="translate(394.0175 422.656406) scale(0.1 -0.1)">
       <defs>
        <path id="DejaVuSans-34" d="M 2419 4116 
L 825 1625 
L 2419 1625 
L 2419 4116 
z
M 2253 4666 
L 3047 4666 
L 3047 1625 
L 3713 1625 
L 3713 1100 
L 3047 1100 
L 3047 0 
L 2419 0 
L 2419 1100 
L 313 1100 
L 313 1709 
L 2253 4666 
z
" transform="scale(0.015625)"/>
       </defs>
       <use xlink:href="#DejaVuSans-31"/>
       <use xlink:href="#DejaVuSans-34" x="63.623047"/>
      </g>
     </g>
    </g>
    <g id="xtick_3">
     <g id="line2d_5">
      <path d="M 502.68 411.557969 
L 502.68 51.197969 
" clip-path="url(#pfc935da3df)" style="fill: none; stroke-dasharray: 0.8,1.32; stroke-dashoffset: 0; stroke: #b0b0b0; stroke-opacity: 0.4; stroke-width: 0.8"/>
     </g>
     <g id="line2d_6">
      <g>
       <use xlink:href="#m83452b08ac" x="502.68" y="411.557969" style="stroke: #000000"/>
      </g>
     </g>
     <g id="text_3">
      <!-- 15 -->
      <g transform="translate(496.3175 422.656406) scale(0.1 -0.1)">
       <defs>
        <path id="DejaVuSans-35" d="M 691 4666 
L 3169 4666 
L 3169 4134 
L 1269 4134 
L 1269 2991 
Q 1406 3038 1543 3061 
Q 1681 3084 1819 3084 
Q 2600 3084 3056 2656 
Q 3513 2228 3513 1497 
Q 3513 744 3044 326 
Q 2575 -91 1722 -91 
Q 1428 -91 1123 -41 
Q 819 9 494 109 
L 494 744 
Q 775 591 1075 516 
Q 1375 441 1709 441 
Q 2250 441 2565 725 
Q 2881 1009 2881 1497 
Q 2881 1984 2565 2268 
Q 2250 2553 1709 2553 
Q 1456 2553 1204 2497 
Q 953 2441 691 2322 
L 691 4666 
z
" transform="scale(0.015625)"/>
       </defs>
       <use xlink:href="#DejaVuSans-31"/>
       <use xlink:href="#DejaVuSans-35" x="63.623047"/>
      </g>
     </g>
    </g>
    <g id="xtick_4">
     <g id="line2d_7">
      <path d="M 604.98 411.557969 
L 604.98 51.197969 
" clip-path="url(#pfc935da3df)" style="fill: none; stroke-dasharray: 0.8,1.32; stroke-dashoffset: 0; stroke: #b0b0b0; stroke-opacity: 0.4; stroke-width: 0.8"/>
     </g>
     <g id="line2d_8">
      <g>
       <use xlink:href="#m83452b08ac" x="604.98" y="411.557969" style="stroke: #000000"/>
      </g>
     </g>
     <g id="text_4">
      <!-- 16 -->
      <g transform="translate(598.6175 422.656406) scale(0.1 -0.1)">
       <defs>
        <path id="DejaVuSans-36" d="M 2113 2584 
Q 1688 2584 1439 2293 
Q 1191 2003 1191 1497 
Q 1191 994 1439 701 
Q 1688 409 2113 409 
Q 2538 409 2786 701 
Q 3034 994 3034 1497 
Q 3034 2003 2786 2293 
Q 2538 2584 2113 2584 
z
M 3366 4563 
L 3366 3988 
Q 3128 4100 2886 4159 
Q 2644 4219 2406 4219 
Q 1781 4219 1451 3797 
Q 1122 3375 1075 2522 
Q 1259 2794 1537 2939 
Q 1816 3084 2150 3084 
Q 2853 3084 3261 2657 
Q 3669 2231 3669 1497 
Q 3669 778 3244 343 
Q 2819 -91 2113 -91 
Q 1303 -91 875 529 
Q 447 1150 447 2328 
Q 447 3434 972 4092 
Q 1497 4750 2381 4750 
Q 2619 4750 2861 4703 
Q 3103 4656 3366 4563 
z
" transform="scale(0.015625)"/>
       </defs>
       <use xlink:href="#DejaVuSans-31"/>
       <use xlink:href="#DejaVuSans-36" x="63.623047"/>
      </g>
     </g>
    </g>
    <g id="xtick_5">
     <g id="line2d_9">
      <path d="M 707.28 411.557969 
L 707.28 51.197969 
" clip-path="url(#pfc935da3df)" style="fill: none; stroke-dasharray: 0.8,1.32; stroke-dashoffset: 0; stroke: #b0b0b0; stroke-opacity: 0.4; stroke-width: 0.8"/>
     </g>
     <g id="line2d_10">
      <g>
       <use xlink:href="#m83452b08ac" x="707.28" y="411.557969" style="stroke: #000000"/>
      </g>
     </g>
     <g id="text_5">
      <!-- 17 -->
      <g transform="translate(700.9175 422.656406) scale(0.1 -0.1)">
       <defs>
        <path id="DejaVuSans-37" d="M 525 4666 
L 3525 4666 
L 3525 4397 
L 1831 0 
L 1172 0 
L 2766 4134 
L 525 4134 
L 525 4666 
z
" transform="scale(0.015625)"/>
       </defs>
       <use xlink:href="#DejaVuSans-31"/>
       <use xlink:href="#DejaVuSans-37" x="63.623047"/>
      </g>
     </g>
    </g>
    <g id="text_6">
     <!-- Q -->
     <g transform="translate(799.378125 431.854219) scale(0.12 -0.12)">
      <defs>
       <path id="DejaVuSans-Bold-51" d="M 2847 -84 
L 2753 -84 
Q 1600 -84 959 553 
Q 319 1191 319 2328 
Q 319 3463 958 4106 
Q 1597 4750 2719 4750 
Q 3853 4750 4486 4112 
Q 5119 3475 5119 2328 
Q 5119 1541 4783 972 
Q 4447 403 3816 116 
L 4756 -934 
L 3609 -934 
L 2847 -84 
z
M 2719 3878 
Q 2169 3878 1866 3472 
Q 1563 3066 1563 2328 
Q 1563 1578 1859 1179 
Q 2156 781 2719 781 
Q 3272 781 3575 1187 
Q 3878 1594 3878 2328 
Q 3878 3066 3575 3472 
Q 3272 3878 2719 3878 
z
" transform="scale(0.015625)"/>
      </defs>
      <use xlink:href="#DejaVuSans-Bold-51"/>
     </g>
    </g>
   </g>
   <g id="matplotlib.axis_2">
    <g id="ytick_1">
     <g id="line2d_11">
      <path d="M 195.78 411.557969 
L 809.58 411.557969 
" clip-path="url(#pfc935da3df)" style="fill: none; stroke-dasharray: 0.8,1.32; stroke-dashoffset: 0; stroke: #b0b0b0; stroke-opacity: 0.4; stroke-width: 0.8"/>
     </g>
     <g id="line2d_12">
      <defs>
       <path id="m2a8d97829a" d="M 0 0 
L 4 0 
" style="stroke: #000000"/>
      </defs>
      <g>
       <use xlink:href="#m2a8d97829a" x="195.78" y="411.557969" style="stroke: #000000"/>
      </g>
     </g>
     <g id="text_7">
      <!-- 60 -->
      <g transform="translate(179.555 415.357188) scale(0.1 -0.1)">
       <defs>
        <path id="DejaVuSans-30" d="M 2034 4250 
Q 1547 4250 1301 3770 
Q 1056 3291 1056 2328 
Q 1056 1369 1301 889 
Q 1547 409 2034 409 
Q 2525 409 2770 889 
Q 3016 1369 3016 2328 
Q 3016 3291 2770 3770 
Q 2525 4250 2034 4250 
z
M 2034 4750 
Q 2819 4750 3233 4129 
Q 3647 3509 3647 2328 
Q 3647 1150 3233 529 
Q 2819 -91 2034 -91 
Q 1250 -91 836 529 
Q 422 1150 422 2328 
Q 422 3509 836 4129 
Q 1250 4750 2034 4750 
z
" transform="scale(0.015625)"/>
       </defs>
       <use xlink:href="#DejaVuSans-36"/>
       <use xlink:href="#DejaVuSans-30" x="63.623047"/>
      </g>
     </g>
    </g>
    <g id="ytick_2">
     <g id="line2d_13">
      <path d="M 195.78 360.077969 
L 809.58 360.077969 
" clip-path="url(#pfc935da3df)" style="fill: none; stroke-dasharray: 0.8,1.32; stroke-dashoffset: 0; stroke: #b0b0b0; stroke-opacity: 0.4; stroke-width: 0.8"/>
     </g>
     <g id="line2d_14">
      <g>
       <use xlink:href="#m2a8d97829a" x="195.78" y="360.077969" style="stroke: #000000"/>
      </g>
     </g>
     <g id="text_8">
      <!-- 80 -->
      <g transform="translate(179.555 363.877188) scale(0.1 -0.1)">
       <defs>
        <path id="DejaVuSans-38" d="M 2034 2216 
Q 1584 2216 1326 1975 
Q 1069 1734 1069 1313 
Q 1069 891 1326 650 
Q 1584 409 2034 409 
Q 2484 409 2743 651 
Q 3003 894 3003 1313 
Q 3003 1734 2745 1975 
Q 2488 2216 2034 2216 
z
M 1403 2484 
Q 997 2584 770 2862 
Q 544 3141 544 3541 
Q 544 4100 942 4425 
Q 1341 4750 2034 4750 
Q 2731 4750 3128 4425 
Q 3525 4100 3525 3541 
Q 3525 3141 3298 2862 
Q 3072 2584 2669 2484 
Q 3125 2378 3379 2068 
Q 3634 1759 3634 1313 
Q 3634 634 3220 271 
Q 2806 -91 2034 -91 
Q 1263 -91 848 271 
Q 434 634 434 1313 
Q 434 1759 690 2068 
Q 947 2378 1403 2484 
z
M 1172 3481 
Q 1172 3119 1398 2916 
Q 1625 2713 2034 2713 
Q 2441 2713 2670 2916 
Q 2900 3119 2900 3481 
Q 2900 3844 2670 4047 
Q 2441 4250 2034 4250 
Q 1625 4250 1398 4047 
Q 1172 3844 1172 3481 
z
" transform="scale(0.015625)"/>
       </defs>
       <use xlink:href="#DejaVuSans-38"/>
       <use xlink:href="#DejaVuSans-30" x="63.623047"/>
      </g>
     </g>
    </g>
    <g id="ytick_3">
     <g id="line2d_15">
      <path d="M 195.78 308.597969 
L 809.58 308.597969 
" clip-path="url(#pfc935da3df)" style="fill: none; stroke-dasharray: 0.8,1.32; stroke-dashoffset: 0; stroke: #b0b0b0; stroke-opacity: 0.4; stroke-width: 0.8"/>
     </g>
     <g id="line2d_16">
      <g>
       <use xlink:href="#m2a8d97829a" x="195.78" y="308.597969" style="stroke: #000000"/>
      </g>
     </g>
     <g id="text_9">
      <!-- 100 -->
      <g transform="translate(173.1925 312.397188) scale(0.1 -0.1)">
       <use xlink:href="#DejaVuSans-31"/>
       <use xlink:href="#DejaVuSans-30" x="63.623047"/>
       <use xlink:href="#DejaVuSans-30" x="127.246094"/>
      </g>
     </g>
    </g>
    <g id="ytick_4">
     <g id="line2d_17">
      <path d="M 195.78 257.117969 
L 809.58 257.117969 
" clip-path="url(#pfc935da3df)" style="fill: none; stroke-dasharray: 0.8,1.32; stroke-dashoffset: 0; stroke: #b0b0b0; stroke-opacity: 0.4; stroke-width: 0.8"/>
     </g>
     <g id="line2d_18">
      <g>
       <use xlink:href="#m2a8d97829a" x="195.78" y="257.117969" style="stroke: #000000"/>
      </g>
     </g>
     <g id="text_10">
      <!-- 120 -->
      <g transform="translate(173.1925 260.917188) scale(0.1 -0.1)">
       <defs>
        <path id="DejaVuSans-32" d="M 1228 531 
L 3431 531 
L 3431 0 
L 469 0 
L 469 531 
Q 828 903 1448 1529 
Q 2069 2156 2228 2338 
Q 2531 2678 2651 2914 
Q 2772 3150 2772 3378 
Q 2772 3750 2511 3984 
Q 2250 4219 1831 4219 
Q 1534 4219 1204 4116 
Q 875 4013 500 3803 
L 500 4441 
Q 881 4594 1212 4672 
Q 1544 4750 1819 4750 
Q 2544 4750 2975 4387 
Q 3406 4025 3406 3419 
Q 3406 3131 3298 2873 
Q 3191 2616 2906 2266 
Q 2828 2175 2409 1742 
Q 1991 1309 1228 531 
z
" transform="scale(0.015625)"/>
       </defs>
       <use xlink:href="#DejaVuSans-31"/>
       <use xlink:href="#DejaVuSans-32" x="63.623047"/>
       <use xlink:href="#DejaVuSans-30" x="127.246094"/>
      </g>
     </g>
    </g>
    <g id="ytick_5">
     <g id="line2d_19">
      <path d="M 195.78 205.637969 
L 809.58 205.637969 
" clip-path="url(#pfc935da3df)" style="fill: none; stroke-dasharray: 0.8,1.32; stroke-dashoffset: 0; stroke: #b0b0b0; stroke-opacity: 0.4; stroke-width: 0.8"/>
     </g>
     <g id="line2d_20">
      <g>
       <use xlink:href="#m2a8d97829a" x="195.78" y="205.637969" style="stroke: #000000"/>
      </g>
     </g>
     <g id="text_11">
      <!-- 140 -->
      <g transform="translate(173.1925 209.437188) scale(0.1 -0.1)">
       <use xlink:href="#DejaVuSans-31"/>
       <use xlink:href="#DejaVuSans-34" x="63.623047"/>
       <use xlink:href="#DejaVuSans-30" x="127.246094"/>
      </g>
     </g>
    </g>
    <g id="ytick_6">
     <g id="line2d_21">
      <path d="M 195.78 154.157969 
L 809.58 154.157969 
" clip-path="url(#pfc935da3df)" style="fill: none; stroke-dasharray: 0.8,1.32; stroke-dashoffset: 0; stroke: #b0b0b0; stroke-opacity: 0.4; stroke-width: 0.8"/>
     </g>
     <g id="line2d_22">
      <g>
       <use xlink:href="#m2a8d97829a" x="195.78" y="154.157969" style="stroke: #000000"/>
      </g>
     </g>
     <g id="text_12">
      <!-- 160 -->
      <g transform="translate(173.1925 157.957188) scale(0.1 -0.1)">
       <use xlink:href="#DejaVuSans-31"/>
       <use xlink:href="#DejaVuSans-36" x="63.623047"/>
       <use xlink:href="#DejaVuSans-30" x="127.246094"/>
      </g>
     </g>
    </g>
    <g id="ytick_7">
     <g id="line2d_23">
      <path d="M 195.78 102.677969 
L 809.58 102.677969 
" clip-path="url(#pfc935da3df)" style="fill: none; stroke-dasharray: 0.8,1.32; stroke-dashoffset: 0; stroke: #b0b0b0; stroke-opacity: 0.4; stroke-width: 0.8"/>
     </g>
     <g id="line2d_24">
      <g>
       <use xlink:href="#m2a8d97829a" x="195.78" y="102.677969" style="stroke: #000000"/>
      </g>
     </g>
     <g id="text_13">
      <!-- 180 -->
      <g transform="translate(173.1925 106.477188) scale(0.1 -0.1)">
       <use xlink:href="#DejaVuSans-31"/>
       <use xlink:href="#DejaVuSans-38" x="63.623047"/>
       <use xlink:href="#DejaVuSans-30" x="127.246094"/>
      </g>
     </g>
    </g>
    <g id="ytick_8">
     <g id="line2d_25">
      <path d="M 195.78 51.197969 
L 809.58 51.197969 
" clip-path="url(#pfc935da3df)" style="fill: none; stroke-dasharray: 0.8,1.32; stroke-dashoffset: 0; stroke: #b0b0b0; stroke-opacity: 0.4; stroke-width: 0.8"/>
     </g>
     <g id="line2d_26">
      <g>
       <use xlink:href="#m2a8d97829a" x="195.78" y="51.197969" style="stroke: #000000"/>
      </g>
     </g>
     <g id="text_14">
      <!-- 200 -->
      <g transform="translate(173.1925 54.997188) scale(0.1 -0.1)">
       <use xlink:href="#DejaVuSans-32"/>
       <use xlink:href="#DejaVuSans-30" x="63.623047"/>
       <use xlink:href="#DejaVuSans-30" x="127.246094"/>
      </g>
     </g>
    </g>
    <g id="text_15">
     <!-- Costos por unidad ($) -->
     <g transform="translate(28.8 48.702344) scale(0.12 -0.12)">
      <defs>
       <path id="DejaVuSans-Bold-43" d="M 4288 256 
Q 3956 84 3597 -3 
Q 3238 -91 2847 -91 
Q 1681 -91 1000 561 
Q 319 1213 319 2328 
Q 319 3447 1000 4098 
Q 1681 4750 2847 4750 
Q 3238 4750 3597 4662 
Q 3956 4575 4288 4403 
L 4288 3438 
Q 3953 3666 3628 3772 
Q 3303 3878 2944 3878 
Q 2300 3878 1931 3465 
Q 1563 3053 1563 2328 
Q 1563 1606 1931 1193 
Q 2300 781 2944 781 
Q 3303 781 3628 887 
Q 3953 994 4288 1222 
L 4288 256 
z
" transform="scale(0.015625)"/>
       <path id="DejaVuSans-Bold-6f" d="M 2203 2784 
Q 1831 2784 1636 2517 
Q 1441 2250 1441 1747 
Q 1441 1244 1636 976 
Q 1831 709 2203 709 
Q 2569 709 2762 976 
Q 2956 1244 2956 1747 
Q 2956 2250 2762 2517 
Q 2569 2784 2203 2784 
z
M 2203 3584 
Q 3106 3584 3614 3096 
Q 4122 2609 4122 1747 
Q 4122 884 3614 396 
Q 3106 -91 2203 -91 
Q 1297 -91 786 396 
Q 275 884 275 1747 
Q 275 2609 786 3096 
Q 1297 3584 2203 3584 
z
" transform="scale(0.015625)"/>
       <path id="DejaVuSans-Bold-73" d="M 3272 3391 
L 3272 2541 
Q 2913 2691 2578 2766 
Q 2244 2841 1947 2841 
Q 1628 2841 1473 2761 
Q 1319 2681 1319 2516 
Q 1319 2381 1436 2309 
Q 1553 2238 1856 2203 
L 2053 2175 
Q 2913 2066 3209 1816 
Q 3506 1566 3506 1031 
Q 3506 472 3093 190 
Q 2681 -91 1863 -91 
Q 1516 -91 1145 -36 
Q 775 19 384 128 
L 384 978 
Q 719 816 1070 734 
Q 1422 653 1784 653 
Q 2113 653 2278 743 
Q 2444 834 2444 1013 
Q 2444 1163 2330 1236 
Q 2216 1309 1875 1350 
L 1678 1375 
Q 931 1469 631 1722 
Q 331 1975 331 2491 
Q 331 3047 712 3315 
Q 1094 3584 1881 3584 
Q 2191 3584 2531 3537 
Q 2872 3491 3272 3391 
z
" transform="scale(0.015625)"/>
       <path id="DejaVuSans-Bold-74" d="M 1759 4494 
L 1759 3500 
L 2913 3500 
L 2913 2700 
L 1759 2700 
L 1759 1216 
Q 1759 972 1856 886 
Q 1953 800 2241 800 
L 2816 800 
L 2816 0 
L 1856 0 
Q 1194 0 917 276 
Q 641 553 641 1216 
L 641 2700 
L 84 2700 
L 84 3500 
L 641 3500 
L 641 4494 
L 1759 4494 
z
" transform="scale(0.015625)"/>
       <path id="DejaVuSans-Bold-20" transform="scale(0.015625)"/>
       <path id="DejaVuSans-Bold-70" d="M 1656 506 
L 1656 -1331 
L 538 -1331 
L 538 3500 
L 1656 3500 
L 1656 2988 
Q 1888 3294 2169 3439 
Q 2450 3584 2816 3584 
Q 3463 3584 3878 3070 
Q 4294 2556 4294 1747 
Q 4294 938 3878 423 
Q 3463 -91 2816 -91 
Q 2450 -91 2169 54 
Q 1888 200 1656 506 
z
M 2400 2772 
Q 2041 2772 1848 2508 
Q 1656 2244 1656 1747 
Q 1656 1250 1848 986 
Q 2041 722 2400 722 
Q 2759 722 2948 984 
Q 3138 1247 3138 1747 
Q 3138 2247 2948 2509 
Q 2759 2772 2400 2772 
z
" transform="scale(0.015625)"/>
       <path id="DejaVuSans-Bold-72" d="M 3138 2547 
Q 2991 2616 2845 2648 
Q 2700 2681 2553 2681 
Q 2122 2681 1889 2404 
Q 1656 2128 1656 1613 
L 1656 0 
L 538 0 
L 538 3500 
L 1656 3500 
L 1656 2925 
Q 1872 3269 2151 3426 
Q 2431 3584 2822 3584 
Q 2878 3584 2943 3579 
Q 3009 3575 3134 3559 
L 3138 2547 
z
" transform="scale(0.015625)"/>
       <path id="DejaVuSans-Bold-75" d="M 500 1363 
L 500 3500 
L 1625 3500 
L 1625 3150 
Q 1625 2866 1622 2436 
Q 1619 2006 1619 1863 
Q 1619 1441 1641 1255 
Q 1663 1069 1716 984 
Q 1784 875 1895 815 
Q 2006 756 2150 756 
Q 2500 756 2700 1025 
Q 2900 1294 2900 1772 
L 2900 3500 
L 4019 3500 
L 4019 0 
L 2900 0 
L 2900 506 
Q 2647 200 2364 54 
Q 2081 -91 1741 -91 
Q 1134 -91 817 281 
Q 500 653 500 1363 
z
" transform="scale(0.015625)"/>
       <path id="DejaVuSans-Bold-6e" d="M 4056 2131 
L 4056 0 
L 2931 0 
L 2931 347 
L 2931 1631 
Q 2931 2084 2911 2256 
Q 2891 2428 2841 2509 
Q 2775 2619 2662 2680 
Q 2550 2741 2406 2741 
Q 2056 2741 1856 2470 
Q 1656 2200 1656 1722 
L 1656 0 
L 538 0 
L 538 3500 
L 1656 3500 
L 1656 2988 
Q 1909 3294 2193 3439 
Q 2478 3584 2822 3584 
Q 3428 3584 3742 3212 
Q 4056 2841 4056 2131 
z
" transform="scale(0.015625)"/>
       <path id="DejaVuSans-Bold-69" d="M 538 3500 
L 1656 3500 
L 1656 0 
L 538 0 
L 538 3500 
z
M 538 4863 
L 1656 4863 
L 1656 3950 
L 538 3950 
L 538 4863 
z
" transform="scale(0.015625)"/>
       <path id="DejaVuSans-Bold-64" d="M 2919 2988 
L 2919 4863 
L 4044 4863 
L 4044 0 
L 2919 0 
L 2919 506 
Q 2688 197 2409 53 
Q 2131 -91 1766 -91 
Q 1119 -91 703 423 
Q 288 938 288 1747 
Q 288 2556 703 3070 
Q 1119 3584 1766 3584 
Q 2128 3584 2408 3439 
Q 2688 3294 2919 2988 
z
M 2181 722 
Q 2541 722 2730 984 
Q 2919 1247 2919 1747 
Q 2919 2247 2730 2509 
Q 2541 2772 2181 2772 
Q 1825 2772 1636 2509 
Q 1447 2247 1447 1747 
Q 1447 1247 1636 984 
Q 1825 722 2181 722 
z
" transform="scale(0.015625)"/>
       <path id="DejaVuSans-Bold-61" d="M 2106 1575 
Q 1756 1575 1579 1456 
Q 1403 1338 1403 1106 
Q 1403 894 1545 773 
Q 1688 653 1941 653 
Q 2256 653 2472 879 
Q 2688 1106 2688 1447 
L 2688 1575 
L 2106 1575 
z
M 3816 1997 
L 3816 0 
L 2688 0 
L 2688 519 
Q 2463 200 2181 54 
Q 1900 -91 1497 -91 
Q 953 -91 614 226 
Q 275 544 275 1050 
Q 275 1666 698 1953 
Q 1122 2241 2028 2241 
L 2688 2241 
L 2688 2328 
Q 2688 2594 2478 2717 
Q 2269 2841 1825 2841 
Q 1466 2841 1156 2769 
Q 847 2697 581 2553 
L 581 3406 
Q 941 3494 1303 3539 
Q 1666 3584 2028 3584 
Q 2975 3584 3395 3211 
Q 3816 2838 3816 1997 
z
" transform="scale(0.015625)"/>
       <path id="DejaVuSans-Bold-28" d="M 2413 -844 
L 1484 -844 
Q 1006 -72 778 623 
Q 550 1319 550 2003 
Q 550 2688 779 3389 
Q 1009 4091 1484 4856 
L 2413 4856 
Q 2013 4116 1813 3408 
Q 1613 2700 1613 2009 
Q 1613 1319 1811 609 
Q 2009 -100 2413 -844 
z
" transform="scale(0.015625)"/>
       <path id="DejaVuSans-Bold-24" d="M 2484 -941 
L 1978 -941 
L 1975 0 
Q 1584 16 1218 87 
Q 853 159 506 288 
L 506 1106 
Q 866 922 1233 823 
Q 1600 725 1978 713 
L 1978 1684 
L 1875 1703 
Q 1128 1834 814 2115 
Q 500 2397 500 2925 
Q 500 3484 883 3798 
Q 1266 4113 1975 4141 
L 1978 4863 
L 2484 4863 
L 2484 4153 
Q 2797 4128 3109 4075 
Q 3422 4022 3738 3938 
L 3738 3144 
Q 3425 3275 3112 3348 
Q 2800 3422 2484 3438 
L 2484 2541 
L 2584 2522 
Q 3378 2397 3698 2105 
Q 4019 1813 4019 1241 
Q 4019 666 3637 358 
Q 3256 50 2484 6 
L 2484 -941 
z
M 1978 2613 
L 1978 3428 
Q 1756 3416 1623 3308 
Q 1491 3200 1491 3034 
Q 1491 2850 1612 2745 
Q 1734 2641 1978 2613 
z
M 2484 1594 
L 2484 725 
Q 2756 728 2892 831 
Q 3028 934 3028 1141 
Q 3028 1353 2903 1458 
Q 2778 1563 2484 1594 
z
" transform="scale(0.015625)"/>
       <path id="DejaVuSans-Bold-29" d="M 513 -844 
Q 913 -100 1113 609 
Q 1313 1319 1313 2009 
Q 1313 2700 1113 3408 
Q 913 4116 513 4856 
L 1441 4856 
Q 1916 4091 2145 3389 
Q 2375 2688 2375 2003 
Q 2375 1319 2147 623 
Q 1919 -72 1441 -844 
L 513 -844 
z
" transform="scale(0.015625)"/>
      </defs>
      <use xlink:href="#DejaVuSans-Bold-43"/>
      <use xlink:href="#DejaVuSans-Bold-6f" x="73.388672"/>
      <use xlink:href="#DejaVuSans-Bold-73" x="142.089844"/>
      <use xlink:href="#DejaVuSans-Bold-74" x="201.611328"/>
      <use xlink:href="#DejaVuSans-Bold-6f" x="249.414062"/>
      <use xlink:href="#DejaVuSans-Bold-73" x="318.115234"/>
      <use xlink:href="#DejaVuSans-Bold-20" x="377.636719"/>
      <use xlink:href="#DejaVuSans-Bold-70" x="412.451172"/>
      <use xlink:href="#DejaVuSans-Bold-6f" x="484.033203"/>
      <use xlink:href="#DejaVuSans-Bold-72" x="552.734375"/>
      <use xlink:href="#DejaVuSans-Bold-20" x="602.050781"/>
      <use xlink:href="#DejaVuSans-Bold-75" x="636.865234"/>
      <use xlink:href="#DejaVuSans-Bold-6e" x="708.056641"/>
      <use xlink:href="#DejaVuSans-Bold-69" x="779.248047"/>
      <use xlink:href="#DejaVuSans-Bold-64" x="813.525391"/>
      <use xlink:href="#DejaVuSans-Bold-61" x="885.107422"/>
      <use xlink:href="#DejaVuSans-Bold-64" x="952.587891"/>
      <use xlink:href="#DejaVuSans-Bold-20" x="1024.169922"/>
      <use xlink:href="#DejaVuSans-Bold-28" x="1058.984375"/>
      <use xlink:href="#DejaVuSans-Bold-24" x="1104.6875"/>
      <use xlink:href="#DejaVuSans-Bold-29" x="1174.267578"/>
     </g>
    </g>
   </g>
   <g id="line2d_27">
    <path d="M 298.08 150.194009 
L 400.38 153.231329 
L 502.68 154.157969 
L 604.98 153.360029 
L 707.28 151.120649 
" clip-path="url(#pfc935da3df)" style="fill: none; stroke: #16a085; stroke-width: 3; stroke-linecap: square"/>
    <defs>
     <path id="m66f0fc4eb8" d="M 0 5.5 
C 1.458617 5.5 2.857689 4.920485 3.889087 3.889087 
C 4.920485 2.857689 5.5 1.458617 5.5 0 
C 5.5 -1.458617 4.920485 -2.857689 3.889087 -3.889087 
C 2.857689 -4.920485 1.458617 -5.5 0 -5.5 
C -1.458617 -5.5 -2.857689 -4.920485 -3.889087 -3.889087 
C -4.920485 -2.857689 -5.5 -1.458617 -5.5 0 
C -5.5 1.458617 -4.920485 2.857689 -3.889087 3.889087 
C -2.857689 4.920485 -1.458617 5.5 0 5.5 
z
" style="stroke: #16a085"/>
    </defs>
    <g clip-path="url(#pfc935da3df)">
     <use xlink:href="#m66f0fc4eb8" x="298.08" y="150.194009" style="fill: #16a085; stroke: #16a085"/>
     <use xlink:href="#m66f0fc4eb8" x="400.38" y="153.231329" style="fill: #16a085; stroke: #16a085"/>
     <use xlink:href="#m66f0fc4eb8" x="502.68" y="154.157969" style="fill: #16a085; stroke: #16a085"/>
     <use xlink:href="#m66f0fc4eb8" x="604.98" y="153.360029" style="fill: #16a085; stroke: #16a085"/>
     <use xlink:href="#m66f0fc4eb8" x="707.28" y="151.120649" style="fill: #16a085; stroke: #16a085"/>
    </g>
   </g>
   <g id="line2d_28">
    <path d="M 298.08 372.947969 
L 400.38 360.077969 
L 502.68 347.207969 
L 604.98 334.337969 
L 707.28 321.467969 
" clip-path="url(#pfc935da3df)" style="fill: none; stroke: #8e44ad; stroke-width: 3; stroke-linecap: square"/>
    <defs>
     <path id="mc10d9a2245" d="M -5.5 5.5 
L 5.5 5.5 
L 5.5 -5.5 
L -5.5 -5.5 
z
" style="stroke: #8e44ad; stroke-linejoin: miter"/>
    </defs>
    <g clip-path="url(#pfc935da3df)">
     <use xlink:href="#mc10d9a2245" x="298.08" y="372.947969" style="fill: #8e44ad; stroke: #8e44ad; stroke-linejoin: miter"/>
     <use xlink:href="#mc10d9a2245" x="400.38" y="360.077969" style="fill: #8e44ad; stroke: #8e44ad; stroke-linejoin: miter"/>
     <use xlink:href="#mc10d9a2245" x="502.68" y="347.207969" style="fill: #8e44ad; stroke: #8e44ad; stroke-linejoin: miter"/>
     <use xlink:href="#mc10d9a2245" x="604.98" y="334.337969" style="fill: #8e44ad; stroke: #8e44ad; stroke-linejoin: miter"/>
     <use xlink:href="#mc10d9a2245" x="707.28" y="321.467969" style="fill: #8e44ad; stroke: #8e44ad; stroke-linejoin: miter"/>
    </g>
   </g>
   <g id="line2d_29">
    <path d="M 400.38 192.767969 
L 502.68 167.027969 
L 604.98 141.287969 
L 707.28 115.547969 
" clip-path="url(#pfc935da3df)" style="fill: none; stroke: #e67e22; stroke-width: 3; stroke-linecap: square"/>
    <defs>
     <path id="mc5ecd8d98b" d="M 0 -5.5 
L -5.5 5.5 
L 5.5 5.5 
z
" style="stroke: #e67e22; stroke-linejoin: miter"/>
    </defs>
    <g clip-path="url(#pfc935da3df)">
     <use xlink:href="#mc5ecd8d98b" x="400.38" y="192.767969" style="fill: #e67e22; stroke: #e67e22; stroke-linejoin: miter"/>
     <use xlink:href="#mc5ecd8d98b" x="502.68" y="167.027969" style="fill: #e67e22; stroke: #e67e22; stroke-linejoin: miter"/>
     <use xlink:href="#mc5ecd8d98b" x="604.98" y="141.287969" style="fill: #e67e22; stroke: #e67e22; stroke-linejoin: miter"/>
     <use xlink:href="#mc5ecd8d98b" x="707.28" y="115.547969" style="fill: #e67e22; stroke: #e67e22; stroke-linejoin: miter"/>
    </g>
   </g>
   <g id="line2d_30">
    <defs>
     <path id="m6342ae5e20" d="M 4 0 
L -4 -4 
L -4 4 
z
" style="stroke: #000000; stroke-linejoin: miter"/>
    </defs>
    <g>
     <use xlink:href="#m6342ae5e20" x="809.58" y="411.557969" style="stroke: #000000; stroke-linejoin: miter"/>
    </g>
   </g>
   <g id="line2d_31">
    <defs>
     <path id="m268596ff1b" d="M 0 -4 
L -4 4 
L 4 4 
z
" style="stroke: #000000; stroke-linejoin: miter"/>
    </defs>
    <g>
     <use xlink:href="#m268596ff1b" x="195.78" y="51.197969" style="stroke: #000000; stroke-linejoin: miter"/>
    </g>
   </g>
   <g id="patch_3">
    <path d="M 195.78 411.557969 
L 195.78 51.197969 
" style="fill: none; stroke: #000000; stroke-width: 1.4; stroke-linejoin: miter; stroke-linecap: square"/>
   </g>
   <g id="patch_4">
    <path d="M 195.78 411.557969 
L 809.58 411.557969 
" style="fill: none; stroke: #000000; stroke-width: 1.4; stroke-linejoin: miter; stroke-linecap: square"/>
   </g>
   <g id="text_16">
    <!-- Ej 9 — Familia de costos: CTMe en U, CMg cruza en mínimo -->
    <g transform="translate(287.512734 39.197969) scale(0.13 -0.13)">
     <defs>
      <path id="DejaVuSans-Bold-45" d="M 588 4666 
L 3834 4666 
L 3834 3756 
L 1791 3756 
L 1791 2888 
L 3713 2888 
L 3713 1978 
L 1791 1978 
L 1791 909 
L 3903 909 
L 3903 0 
L 588 0 
L 588 4666 
z
" transform="scale(0.015625)"/>
      <path id="DejaVuSans-Bold-6a" d="M 538 3500 
L 1656 3500 
L 1656 63 
Q 1656 -641 1318 -1011 
Q 981 -1381 341 -1381 
L -213 -1381 
L -213 -647 
L -19 -647 
Q 300 -647 419 -503 
Q 538 -359 538 63 
L 538 3500 
z
M 538 4863 
L 1656 4863 
L 1656 3950 
L 538 3950 
L 538 4863 
z
" transform="scale(0.015625)"/>
      <path id="DejaVuSans-Bold-39" d="M 641 103 
L 641 966 
Q 928 831 1190 764 
Q 1453 697 1709 697 
Q 2247 697 2547 995 
Q 2847 1294 2900 1881 
Q 2688 1725 2447 1647 
Q 2206 1569 1925 1569 
Q 1209 1569 770 1986 
Q 331 2403 331 3084 
Q 331 3838 820 4291 
Q 1309 4744 2131 4744 
Q 3044 4744 3544 4128 
Q 4044 3513 4044 2388 
Q 4044 1231 3459 570 
Q 2875 -91 1856 -91 
Q 1528 -91 1228 -42 
Q 928 6 641 103 
z
M 2125 2350 
Q 2441 2350 2600 2554 
Q 2759 2759 2759 3169 
Q 2759 3575 2600 3781 
Q 2441 3988 2125 3988 
Q 1809 3988 1650 3781 
Q 1491 3575 1491 3169 
Q 1491 2759 1650 2554 
Q 1809 2350 2125 2350 
z
" transform="scale(0.015625)"/>
      <path id="DejaVuSans-Bold-2014" d="M 344 2156 
L 6056 2156 
L 6056 1350 
L 344 1350 
L 344 2156 
z
" transform="scale(0.015625)"/>
      <path id="DejaVuSans-Bold-46" d="M 588 4666 
L 3834 4666 
L 3834 3756 
L 1791 3756 
L 1791 2888 
L 3713 2888 
L 3713 1978 
L 1791 1978 
L 1791 0 
L 588 0 
L 588 4666 
z
" transform="scale(0.015625)"/>
      <path id="DejaVuSans-Bold-6d" d="M 3781 2919 
Q 3994 3244 4286 3414 
Q 4578 3584 4928 3584 
Q 5531 3584 5847 3212 
Q 6163 2841 6163 2131 
L 6163 0 
L 5038 0 
L 5038 1825 
Q 5041 1866 5042 1909 
Q 5044 1953 5044 2034 
Q 5044 2406 4934 2573 
Q 4825 2741 4581 2741 
Q 4263 2741 4089 2478 
Q 3916 2216 3909 1719 
L 3909 0 
L 2784 0 
L 2784 1825 
Q 2784 2406 2684 2573 
Q 2584 2741 2328 2741 
Q 2006 2741 1831 2477 
Q 1656 2213 1656 1722 
L 1656 0 
L 531 0 
L 531 3500 
L 1656 3500 
L 1656 2988 
Q 1863 3284 2130 3434 
Q 2397 3584 2719 3584 
Q 3081 3584 3359 3409 
Q 3638 3234 3781 2919 
z
" transform="scale(0.015625)"/>
      <path id="DejaVuSans-Bold-6c" d="M 538 4863 
L 1656 4863 
L 1656 0 
L 538 0 
L 538 4863 
z
" transform="scale(0.015625)"/>
      <path id="DejaVuSans-Bold-65" d="M 4031 1759 
L 4031 1441 
L 1416 1441 
Q 1456 1047 1700 850 
Q 1944 653 2381 653 
Q 2734 653 3104 758 
Q 3475 863 3866 1075 
L 3866 213 
Q 3469 63 3072 -14 
Q 2675 -91 2278 -91 
Q 1328 -91 801 392 
Q 275 875 275 1747 
Q 275 2603 792 3093 
Q 1309 3584 2216 3584 
Q 3041 3584 3536 3087 
Q 4031 2591 4031 1759 
z
M 2881 2131 
Q 2881 2450 2695 2645 
Q 2509 2841 2209 2841 
Q 1884 2841 1681 2658 
Q 1478 2475 1428 2131 
L 2881 2131 
z
" transform="scale(0.015625)"/>
      <path id="DejaVuSans-Bold-63" d="M 3366 3391 
L 3366 2478 
Q 3138 2634 2908 2709 
Q 2678 2784 2431 2784 
Q 1963 2784 1702 2511 
Q 1441 2238 1441 1747 
Q 1441 1256 1702 982 
Q 1963 709 2431 709 
Q 2694 709 2930 787 
Q 3166 866 3366 1019 
L 3366 103 
Q 3103 6 2833 -42 
Q 2563 -91 2291 -91 
Q 1344 -91 809 395 
Q 275 881 275 1747 
Q 275 2613 809 3098 
Q 1344 3584 2291 3584 
Q 2566 3584 2833 3536 
Q 3100 3488 3366 3391 
z
" transform="scale(0.015625)"/>
      <path id="DejaVuSans-Bold-3a" d="M 716 3500 
L 1844 3500 
L 1844 2291 
L 716 2291 
L 716 3500 
z
M 716 1209 
L 1844 1209 
L 1844 0 
L 716 0 
L 716 1209 
z
" transform="scale(0.015625)"/>
      <path id="DejaVuSans-Bold-54" d="M 31 4666 
L 4331 4666 
L 4331 3756 
L 2784 3756 
L 2784 0 
L 1581 0 
L 1581 3756 
L 31 3756 
L 31 4666 
z
" transform="scale(0.015625)"/>
      <path id="DejaVuSans-Bold-4d" d="M 588 4666 
L 2119 4666 
L 3181 2169 
L 4250 4666 
L 5778 4666 
L 5778 0 
L 4641 0 
L 4641 3413 
L 3566 897 
L 2803 897 
L 1728 3413 
L 1728 0 
L 588 0 
L 588 4666 
z
" transform="scale(0.015625)"/>
      <path id="DejaVuSans-Bold-55" d="M 588 4666 
L 1791 4666 
L 1791 1869 
Q 1791 1291 1980 1042 
Q 2169 794 2597 794 
Q 3028 794 3217 1042 
Q 3406 1291 3406 1869 
L 3406 4666 
L 4609 4666 
L 4609 1869 
Q 4609 878 4112 393 
Q 3616 -91 2597 -91 
Q 1581 -91 1084 393 
Q 588 878 588 1869 
L 588 4666 
z
" transform="scale(0.015625)"/>
      <path id="DejaVuSans-Bold-2c" d="M 653 1209 
L 1778 1209 
L 1778 256 
L 1006 -909 
L 341 -909 
L 653 256 
L 653 1209 
z
" transform="scale(0.015625)"/>
      <path id="DejaVuSans-Bold-67" d="M 2919 594 
Q 2688 288 2409 144 
Q 2131 0 1766 0 
Q 1125 0 706 504 
Q 288 1009 288 1791 
Q 288 2575 706 3076 
Q 1125 3578 1766 3578 
Q 2131 3578 2409 3434 
Q 2688 3291 2919 2981 
L 2919 3500 
L 4044 3500 
L 4044 353 
Q 4044 -491 3511 -936 
Q 2978 -1381 1966 -1381 
Q 1638 -1381 1331 -1331 
Q 1025 -1281 716 -1178 
L 716 -306 
Q 1009 -475 1290 -558 
Q 1572 -641 1856 -641 
Q 2406 -641 2662 -400 
Q 2919 -159 2919 353 
L 2919 594 
z
M 2181 2772 
Q 1834 2772 1640 2515 
Q 1447 2259 1447 1791 
Q 1447 1309 1634 1061 
Q 1822 813 2181 813 
Q 2531 813 2725 1069 
Q 2919 1325 2919 1791 
Q 2919 2259 2725 2515 
Q 2531 2772 2181 2772 
z
" transform="scale(0.015625)"/>
      <path id="DejaVuSans-Bold-7a" d="M 366 3500 
L 3419 3500 
L 3419 2719 
L 1575 800 
L 3419 800 
L 3419 0 
L 288 0 
L 288 781 
L 2131 2700 
L 366 2700 
L 366 3500 
z
" transform="scale(0.015625)"/>
      <path id="DejaVuSans-Bold-ed" d="M 538 3500 
L 1656 3500 
L 1656 0 
L 538 0 
L 538 3500 
z
M 1590 5119 
L 2474 5119 
L 1321 3944 
L 709 3944 
L 1590 5119 
z
" transform="scale(0.015625)"/>
     </defs>
     <use xlink:href="#DejaVuSans-Bold-45"/>
     <use xlink:href="#DejaVuSans-Bold-6a" x="68.310547"/>
     <use xlink:href="#DejaVuSans-Bold-20" x="102.587891"/>
     <use xlink:href="#DejaVuSans-Bold-39" x="137.402344"/>
     <use xlink:href="#DejaVuSans-Bold-20" x="206.982422"/>
     <use xlink:href="#DejaVuSans-Bold-2014" x="241.796875"/>
     <use xlink:href="#DejaVuSans-Bold-20" x="341.796875"/>
     <use xlink:href="#DejaVuSans-Bold-46" x="376.611328"/>
     <use xlink:href="#DejaVuSans-Bold-61" x="439.046875"/>
     <use xlink:href="#DejaVuSans-Bold-6d" x="506.527344"/>
     <use xlink:href="#DejaVuSans-Bold-69" x="610.726562"/>
     <use xlink:href="#DejaVuSans-Bold-6c" x="645.003906"/>
     <use xlink:href="#DejaVuSans-Bold-69" x="679.28125"/>
     <use xlink:href="#DejaVuSans-Bold-61" x="713.558594"/>
     <use xlink:href="#DejaVuSans-Bold-20" x="781.039062"/>
     <use xlink:href="#DejaVuSans-Bold-64" x="815.853516"/>
     <use xlink:href="#DejaVuSans-Bold-65" x="887.435547"/>
     <use xlink:href="#DejaVuSans-Bold-20" x="955.257812"/>
     <use xlink:href="#DejaVuSans-Bold-63" x="990.072266"/>
     <use xlink:href="#DejaVuSans-Bold-6f" x="1049.349609"/>
     <use xlink:href="#DejaVuSans-Bold-73" x="1118.050781"/>
     <use xlink:href="#DejaVuSans-Bold-74" x="1177.572266"/>
     <use xlink:href="#DejaVuSans-Bold-6f" x="1225.375"/>
     <use xlink:href="#DejaVuSans-Bold-73" x="1294.076172"/>
     <use xlink:href="#DejaVuSans-Bold-3a" x="1353.597656"/>
     <use xlink:href="#DejaVuSans-Bold-20" x="1393.587891"/>
     <use xlink:href="#DejaVuSans-Bold-43" x="1428.402344"/>
     <use xlink:href="#DejaVuSans-Bold-54" x="1501.791016"/>
     <use xlink:href="#DejaVuSans-Bold-4d" x="1570.003906"/>
     <use xlink:href="#DejaVuSans-Bold-65" x="1669.515625"/>
     <use xlink:href="#DejaVuSans-Bold-20" x="1737.337891"/>
     <use xlink:href="#DejaVuSans-Bold-65" x="1772.152344"/>
     <use xlink:href="#DejaVuSans-Bold-6e" x="1839.974609"/>
     <use xlink:href="#DejaVuSans-Bold-20" x="1911.166016"/>
     <use xlink:href="#DejaVuSans-Bold-55" x="1945.980469"/>
     <use xlink:href="#DejaVuSans-Bold-2c" x="2027.181641"/>
     <use xlink:href="#DejaVuSans-Bold-20" x="2065.169922"/>
     <use xlink:href="#DejaVuSans-Bold-43" x="2099.984375"/>
     <use xlink:href="#DejaVuSans-Bold-4d" x="2173.373047"/>
     <use xlink:href="#DejaVuSans-Bold-67" x="2272.884766"/>
     <use xlink:href="#DejaVuSans-Bold-20" x="2344.466797"/>
     <use xlink:href="#DejaVuSans-Bold-63" x="2379.28125"/>
     <use xlink:href="#DejaVuSans-Bold-72" x="2438.558594"/>
     <use xlink:href="#DejaVuSans-Bold-75" x="2487.875"/>
     <use xlink:href="#DejaVuSans-Bold-7a" x="2559.066406"/>
     <use xlink:href="#DejaVuSans-Bold-61" x="2617.269531"/>
     <use xlink:href="#DejaVuSans-Bold-20" x="2684.75"/>
     <use xlink:href="#DejaVuSans-Bold-65" x="2719.564453"/>
     <use xlink:href="#DejaVuSans-Bold-6e" x="2787.386719"/>
     <use xlink:href="#DejaVuSans-Bold-20" x="2858.578125"/>
     <use xlink:href="#DejaVuSans-Bold-6d" x="2893.392578"/>
     <use xlink:href="#DejaVuSans-Bold-ed" x="2997.591797"/>
     <use xlink:href="#DejaVuSans-Bold-6e" x="3031.869141"/>
     <use xlink:href="#DejaVuSans-Bold-69" x="3103.060547"/>
     <use xlink:href="#DejaVuSans-Bold-6d" x="3137.337891"/>
     <use xlink:href="#DejaVuSans-Bold-6f" x="3241.537109"/>
    </g>
   </g>
   <g id="legend_1">
    <g id="patch_5">
     <path d="M 823.856 98.232344 
L 884.460688 98.232344 
Q 886.460688 98.232344 886.460688 96.232344 
L 886.460688 53.197969 
Q 886.460688 51.197969 884.460688 51.197969 
L 823.856 51.197969 
Q 821.856 51.197969 821.856 53.197969 
L 821.856 96.232344 
Q 821.856 98.232344 823.856 98.232344 
z
" style="fill: #ffffff; opacity: 0.8; stroke: #cccccc; stroke-linejoin: miter"/>
    </g>
    <g id="line2d_32">
     <path d="M 825.856 59.296406 
L 835.856 59.296406 
L 845.856 59.296406 
" style="fill: none; stroke: #16a085; stroke-width: 3; stroke-linecap: square"/>
     <g>
      <use xlink:href="#m66f0fc4eb8" x="835.856" y="59.296406" style="fill: #16a085; stroke: #16a085"/>
     </g>
    </g>
    <g id="text_17">
     <!-- CTMe -->
     <g transform="translate(853.856 62.796406) scale(0.1 -0.1)">
      <defs>
       <path id="DejaVuSans-43" d="M 4122 4306 
L 4122 3641 
Q 3803 3938 3442 4084 
Q 3081 4231 2675 4231 
Q 1875 4231 1450 3742 
Q 1025 3253 1025 2328 
Q 1025 1406 1450 917 
Q 1875 428 2675 428 
Q 3081 428 3442 575 
Q 3803 722 4122 1019 
L 4122 359 
Q 3791 134 3420 21 
Q 3050 -91 2638 -91 
Q 1578 -91 968 557 
Q 359 1206 359 2328 
Q 359 3453 968 4101 
Q 1578 4750 2638 4750 
Q 3056 4750 3426 4639 
Q 3797 4528 4122 4306 
z
" transform="scale(0.015625)"/>
       <path id="DejaVuSans-54" d="M -19 4666 
L 3928 4666 
L 3928 4134 
L 2272 4134 
L 2272 0 
L 1638 0 
L 1638 4134 
L -19 4134 
L -19 4666 
z
" transform="scale(0.015625)"/>
       <path id="DejaVuSans-4d" d="M 628 4666 
L 1569 4666 
L 2759 1491 
L 3956 4666 
L 4897 4666 
L 4897 0 
L 4281 0 
L 4281 4097 
L 3078 897 
L 2444 897 
L 1241 4097 
L 1241 0 
L 628 0 
L 628 4666 
z
" transform="scale(0.015625)"/>
       <path id="DejaVuSans-65" d="M 3597 1894 
L 3597 1613 
L 953 1613 
Q 991 1019 1311 708 
Q 1631 397 2203 397 
Q 2534 397 2845 478 
Q 3156 559 3463 722 
L 3463 178 
Q 3153 47 2828 -22 
Q 2503 -91 2169 -91 
Q 1331 -91 842 396 
Q 353 884 353 1716 
Q 353 2575 817 3079 
Q 1281 3584 2069 3584 
Q 2775 3584 3186 3129 
Q 3597 2675 3597 1894 
z
M 3022 2063 
Q 3016 2534 2758 2815 
Q 2500 3097 2075 3097 
Q 1594 3097 1305 2825 
Q 1016 2553 972 2059 
L 3022 2063 
z
" transform="scale(0.015625)"/>
      </defs>
      <use xlink:href="#DejaVuSans-43"/>
      <use xlink:href="#DejaVuSans-54" x="69.824219"/>
      <use xlink:href="#DejaVuSans-4d" x="130.908203"/>
      <use xlink:href="#DejaVuSans-65" x="217.1875"/>
     </g>
    </g>
    <g id="line2d_33">
     <path d="M 825.856 73.974531 
L 835.856 73.974531 
L 845.856 73.974531 
" style="fill: none; stroke: #8e44ad; stroke-width: 3; stroke-linecap: square"/>
     <g>
      <use xlink:href="#mc10d9a2245" x="835.856" y="73.974531" style="fill: #8e44ad; stroke: #8e44ad; stroke-linejoin: miter"/>
     </g>
    </g>
    <g id="text_18">
     <!-- CVMe -->
     <g transform="translate(853.856 77.474531) scale(0.1 -0.1)">
      <defs>
       <path id="DejaVuSans-56" d="M 1831 0 
L 50 4666 
L 709 4666 
L 2188 738 
L 3669 4666 
L 4325 4666 
L 2547 0 
L 1831 0 
z
" transform="scale(0.015625)"/>
      </defs>
      <use xlink:href="#DejaVuSans-43"/>
      <use xlink:href="#DejaVuSans-56" x="69.824219"/>
      <use xlink:href="#DejaVuSans-4d" x="138.232422"/>
      <use xlink:href="#DejaVuSans-65" x="224.511719"/>
     </g>
    </g>
    <g id="line2d_34">
     <path d="M 825.856 88.652656 
L 835.856 88.652656 
L 845.856 88.652656 
" style="fill: none; stroke: #e67e22; stroke-width: 3; stroke-linecap: square"/>
     <g>
      <use xlink:href="#mc5ecd8d98b" x="835.856" y="88.652656" style="fill: #e67e22; stroke: #e67e22; stroke-linejoin: miter"/>
     </g>
    </g>
    <g id="text_19">
     <!-- CMg -->
     <g transform="translate(853.856 92.152656) scale(0.1 -0.1)">
      <defs>
       <path id="DejaVuSans-67" d="M 2906 1791 
Q 2906 2416 2648 2759 
Q 2391 3103 1925 3103 
Q 1463 3103 1205 2759 
Q 947 2416 947 1791 
Q 947 1169 1205 825 
Q 1463 481 1925 481 
Q 2391 481 2648 825 
Q 2906 1169 2906 1791 
z
M 3481 434 
Q 3481 -459 3084 -895 
Q 2688 -1331 1869 -1331 
Q 1566 -1331 1297 -1286 
Q 1028 -1241 775 -1147 
L 775 -588 
Q 1028 -725 1275 -790 
Q 1522 -856 1778 -856 
Q 2344 -856 2625 -561 
Q 2906 -266 2906 331 
L 2906 616 
Q 2728 306 2450 153 
Q 2172 0 1784 0 
Q 1141 0 747 490 
Q 353 981 353 1791 
Q 353 2603 747 3093 
Q 1141 3584 1784 3584 
Q 2172 3584 2450 3431 
Q 2728 3278 2906 2969 
L 2906 3500 
L 3481 3500 
L 3481 434 
z
" transform="scale(0.015625)"/>
      </defs>
      <use xlink:href="#DejaVuSans-43"/>
      <use xlink:href="#DejaVuSans-4d" x="69.824219"/>
      <use xlink:href="#DejaVuSans-67" x="156.103516"/>
     </g>
    </g>
   </g>
   <g id="line2d_35">
    <defs>
     <path id="m3229da16ee" d="M 0 7 
C 1.856422 7 3.637059 6.262436 4.949747 4.949747 
C 6.262436 3.637059 7 1.856422 7 0 
C 7 -1.856422 6.262436 -3.637059 4.949747 -4.949747 
C 3.637059 -6.262436 1.856422 -7 0 -7 
C -1.856422 -7 -3.637059 -6.262436 -4.949747 -4.949747 
C -6.262436 -3.637059 -7 -1.856422 -7 0 
C -7 1.856422 -6.262436 3.637059 -4.949747 4.949747 
C -3.637059 6.262436 -1.856422 7 0 7 
z
" style="stroke: #000000"/>
    </defs>
    <g clip-path="url(#pfc935da3df)">
     <use xlink:href="#m3229da16ee" x="502.68" y="154.157969" style="stroke: #000000"/>
    </g>
   </g>
   <g id="patch_6">
    <path d="M 612.440929 199.508563 
Q 558.48329 177.214555 505.558958 155.347485 
" style="fill: none; stroke: #16a085; stroke-linecap: round"/>
    <path d="M 508.492101 158.723381 
L 505.558958 155.347485 
L 510.01956 155.026508 
" style="fill: none; stroke: #16a085; stroke-linecap: round"/>
   </g>
   <g id="text_20">
    <g id="patch_7">
     <path d="M 618.605781 237.735781 
L 693.654219 237.735781 
Q 697.654219 237.735781 697.654219 233.735781 
L 697.654219 201.662031 
Q 697.654219 197.662031 693.654219 197.662031 
L 618.605781 197.662031 
Q 614.605781 197.662031 614.605781 201.662031 
L 614.605781 233.735781 
Q 614.605781 237.735781 618.605781 237.735781 
z
" style="fill: #e8f8f5; opacity: 0.97; stroke: #16a085; stroke-linejoin: miter"/>
    </g>
    <!-- Mín CTMe -->
    <g style="fill: #16a085" transform="translate(628.6925 208.982344) scale(0.1 -0.1)">
     <use xlink:href="#DejaVuSans-Bold-4d"/>
     <use xlink:href="#DejaVuSans-Bold-ed" x="99.511719"/>
     <use xlink:href="#DejaVuSans-Bold-6e" x="133.789062"/>
     <use xlink:href="#DejaVuSans-Bold-20" x="204.980469"/>
     <use xlink:href="#DejaVuSans-Bold-43" x="239.794922"/>
     <use xlink:href="#DejaVuSans-Bold-54" x="313.183594"/>
     <use xlink:href="#DejaVuSans-Bold-4d" x="381.396484"/>
     <use xlink:href="#DejaVuSans-Bold-65" x="480.908203"/>
    </g>
    <!-- (Q=15, $160) -->
    <g style="fill: #16a085" transform="translate(618.605781 220.180156) scale(0.1 -0.1)">
     <defs>
      <path id="DejaVuSans-Bold-3d" d="M 678 3084 
L 4684 3084 
L 4684 2350 
L 678 2350 
L 678 3084 
z
M 678 1663 
L 4684 1663 
L 4684 922 
L 678 922 
L 678 1663 
z
" transform="scale(0.015625)"/>
      <path id="DejaVuSans-Bold-31" d="M 750 831 
L 1813 831 
L 1813 3847 
L 722 3622 
L 722 4441 
L 1806 4666 
L 2950 4666 
L 2950 831 
L 4013 831 
L 4013 0 
L 750 0 
L 750 831 
z
" transform="scale(0.015625)"/>
      <path id="DejaVuSans-Bold-35" d="M 678 4666 
L 3669 4666 
L 3669 3781 
L 1638 3781 
L 1638 3059 
Q 1775 3097 1914 3117 
Q 2053 3138 2203 3138 
Q 3056 3138 3531 2711 
Q 4006 2284 4006 1522 
Q 4006 766 3489 337 
Q 2972 -91 2053 -91 
Q 1656 -91 1267 -14 
Q 878 63 494 219 
L 494 1166 
Q 875 947 1217 837 
Q 1559 728 1863 728 
Q 2300 728 2551 942 
Q 2803 1156 2803 1522 
Q 2803 1891 2551 2103 
Q 2300 2316 1863 2316 
Q 1603 2316 1309 2248 
Q 1016 2181 678 2041 
L 678 4666 
z
" transform="scale(0.015625)"/>
      <path id="DejaVuSans-Bold-36" d="M 2316 2303 
Q 2000 2303 1842 2098 
Q 1684 1894 1684 1484 
Q 1684 1075 1842 870 
Q 2000 666 2316 666 
Q 2634 666 2792 870 
Q 2950 1075 2950 1484 
Q 2950 1894 2792 2098 
Q 2634 2303 2316 2303 
z
M 3803 4544 
L 3803 3681 
Q 3506 3822 3243 3889 
Q 2981 3956 2731 3956 
Q 2194 3956 1894 3657 
Q 1594 3359 1544 2772 
Q 1750 2925 1990 3001 
Q 2231 3078 2516 3078 
Q 3231 3078 3670 2659 
Q 4109 2241 4109 1563 
Q 4109 813 3618 361 
Q 3128 -91 2303 -91 
Q 1394 -91 895 523 
Q 397 1138 397 2266 
Q 397 3422 980 4083 
Q 1563 4744 2578 4744 
Q 2900 4744 3203 4694 
Q 3506 4644 3803 4544 
z
" transform="scale(0.015625)"/>
      <path id="DejaVuSans-Bold-30" d="M 2944 2338 
Q 2944 3213 2780 3570 
Q 2616 3928 2228 3928 
Q 1841 3928 1675 3570 
Q 1509 3213 1509 2338 
Q 1509 1453 1675 1090 
Q 1841 728 2228 728 
Q 2613 728 2778 1090 
Q 2944 1453 2944 2338 
z
M 4147 2328 
Q 4147 1169 3647 539 
Q 3147 -91 2228 -91 
Q 1306 -91 806 539 
Q 306 1169 306 2328 
Q 306 3491 806 4120 
Q 1306 4750 2228 4750 
Q 3147 4750 3647 4120 
Q 4147 3491 4147 2328 
z
" transform="scale(0.015625)"/>
     </defs>
     <use xlink:href="#DejaVuSans-Bold-28"/>
     <use xlink:href="#DejaVuSans-Bold-51" x="45.703125"/>
     <use xlink:href="#DejaVuSans-Bold-3d" x="130.712891"/>
     <use xlink:href="#DejaVuSans-Bold-31" x="214.501953"/>
     <use xlink:href="#DejaVuSans-Bold-35" x="284.082031"/>
     <use xlink:href="#DejaVuSans-Bold-2c" x="353.662109"/>
     <use xlink:href="#DejaVuSans-Bold-20" x="391.650391"/>
     <use xlink:href="#DejaVuSans-Bold-24" x="426.464844"/>
     <use xlink:href="#DejaVuSans-Bold-31" x="496.044922"/>
     <use xlink:href="#DejaVuSans-Bold-36" x="565.625"/>
     <use xlink:href="#DejaVuSans-Bold-30" x="635.205078"/>
     <use xlink:href="#DejaVuSans-Bold-29" x="704.785156"/>
    </g>
    <!-- P_UR = $160 -->
    <g style="fill: #16a085" transform="translate(620.468281 231.377969) scale(0.1 -0.1)">
     <defs>
      <path id="DejaVuSans-Bold-50" d="M 588 4666 
L 2584 4666 
Q 3475 4666 3951 4270 
Q 4428 3875 4428 3144 
Q 4428 2409 3951 2014 
Q 3475 1619 2584 1619 
L 1791 1619 
L 1791 0 
L 588 0 
L 588 4666 
z
M 1791 3794 
L 1791 2491 
L 2456 2491 
Q 2806 2491 2997 2661 
Q 3188 2831 3188 3144 
Q 3188 3456 2997 3625 
Q 2806 3794 2456 3794 
L 1791 3794 
z
" transform="scale(0.015625)"/>
      <path id="DejaVuSans-Bold-5f" d="M 3200 -916 
L 3200 -1509 
L 0 -1509 
L 0 -916 
L 3200 -916 
z
" transform="scale(0.015625)"/>
      <path id="DejaVuSans-Bold-52" d="M 2297 2597 
Q 2675 2597 2839 2737 
Q 3003 2878 3003 3200 
Q 3003 3519 2839 3656 
Q 2675 3794 2297 3794 
L 1791 3794 
L 1791 2597 
L 2297 2597 
z
M 1791 1766 
L 1791 0 
L 588 0 
L 588 4666 
L 2425 4666 
Q 3347 4666 3776 4356 
Q 4206 4047 4206 3378 
Q 4206 2916 3982 2619 
Q 3759 2322 3309 2181 
Q 3556 2125 3751 1926 
Q 3947 1728 4147 1325 
L 4800 0 
L 3519 0 
L 2950 1159 
Q 2778 1509 2601 1637 
Q 2425 1766 2131 1766 
L 1791 1766 
z
" transform="scale(0.015625)"/>
     </defs>
     <use xlink:href="#DejaVuSans-Bold-50"/>
     <use xlink:href="#DejaVuSans-Bold-5f" x="73.291016"/>
     <use xlink:href="#DejaVuSans-Bold-55" x="123.291016"/>
     <use xlink:href="#DejaVuSans-Bold-52" x="204.492188"/>
     <use xlink:href="#DejaVuSans-Bold-20" x="281.494141"/>
     <use xlink:href="#DejaVuSans-Bold-3d" x="316.308594"/>
     <use xlink:href="#DejaVuSans-Bold-20" x="400.097656"/>
     <use xlink:href="#DejaVuSans-Bold-24" x="434.912109"/>
     <use xlink:href="#DejaVuSans-Bold-31" x="504.492188"/>
     <use xlink:href="#DejaVuSans-Bold-36" x="574.072266"/>
     <use xlink:href="#DejaVuSans-Bold-30" x="643.652344"/>
    </g>
   </g>
   <g id="patch_8">
    <path d="M 636.384925 95.93769 
Q 595.930039 123.837047 556.395539 151.101668 
" style="fill: none; stroke: #e67e22; stroke-linecap: round"/>
    <path d="M 560.381029 150.53965 
L 556.395539 151.101668 
L 558.337219 147.576064 
" style="fill: none; stroke: #e67e22; stroke-linecap: round"/>
   </g>
   <g id="text_21">
    <g id="patch_9">
     <path d="M 607.101797 94.45 
L 705.158203 94.45 
Q 707.858203 94.45 707.858203 91.75 
L 707.858203 72.891344 
Q 707.858203 70.191344 705.158203 70.191344 
L 607.101797 70.191344 
Q 604.401797 70.191344 604.401797 72.891344 
L 604.401797 91.75 
Q 604.401797 94.45 607.101797 94.45 
z
" style="fill: #fffbeb; opacity: 0.97; stroke: #f39c12; stroke-width: 0.7; stroke-linejoin: miter"/>
    </g>
    <!-- CMg cruza CTMe -->
    <g style="fill: #e67e22" transform="translate(614.346094 79.659625) scale(0.09 -0.09)">
     <use xlink:href="#DejaVuSans-Bold-43"/>
     <use xlink:href="#DejaVuSans-Bold-4d" x="73.388672"/>
     <use xlink:href="#DejaVuSans-Bold-67" x="172.900391"/>
     <use xlink:href="#DejaVuSans-Bold-20" x="244.482422"/>
     <use xlink:href="#DejaVuSans-Bold-63" x="279.296875"/>
     <use xlink:href="#DejaVuSans-Bold-72" x="338.574219"/>
     <use xlink:href="#DejaVuSans-Bold-75" x="387.890625"/>
     <use xlink:href="#DejaVuSans-Bold-7a" x="459.082031"/>
     <use xlink:href="#DejaVuSans-Bold-61" x="517.285156"/>
     <use xlink:href="#DejaVuSans-Bold-20" x="584.765625"/>
     <use xlink:href="#DejaVuSans-Bold-43" x="619.580078"/>
     <use xlink:href="#DejaVuSans-Bold-54" x="692.96875"/>
     <use xlink:href="#DejaVuSans-Bold-4d" x="761.181641"/>
     <use xlink:href="#DejaVuSans-Bold-65" x="860.693359"/>
    </g>
    <!-- entre Q=15 y Q=16 -->
    <g style="fill: #e67e22" transform="translate(607.101797 89.807969) scale(0.09 -0.09)">
     <defs>
      <path id="DejaVuSans-Bold-79" d="M 78 3500 
L 1197 3500 
L 2138 1125 
L 2938 3500 
L 4056 3500 
L 2584 -331 
Q 2363 -916 2067 -1148 
Q 1772 -1381 1288 -1381 
L 641 -1381 
L 641 -647 
L 991 -647 
Q 1275 -647 1404 -556 
Q 1534 -466 1606 -231 
L 1638 -134 
L 78 3500 
z
" transform="scale(0.015625)"/>
     </defs>
     <use xlink:href="#DejaVuSans-Bold-65"/>
     <use xlink:href="#DejaVuSans-Bold-6e" x="67.822266"/>
     <use xlink:href="#DejaVuSans-Bold-74" x="139.013672"/>
     <use xlink:href="#DejaVuSans-Bold-72" x="186.816406"/>
     <use xlink:href="#DejaVuSans-Bold-65" x="236.132812"/>
     <use xlink:href="#DejaVuSans-Bold-20" x="303.955078"/>
     <use xlink:href="#DejaVuSans-Bold-51" x="338.769531"/>
     <use xlink:href="#DejaVuSans-Bold-3d" x="423.779297"/>
     <use xlink:href="#DejaVuSans-Bold-31" x="507.568359"/>
     <use xlink:href="#DejaVuSans-Bold-35" x="577.148438"/>
     <use xlink:href="#DejaVuSans-Bold-20" x="646.728516"/>
     <use xlink:href="#DejaVuSans-Bold-79" x="681.542969"/>
     <use xlink:href="#DejaVuSans-Bold-20" x="746.728516"/>
     <use xlink:href="#DejaVuSans-Bold-51" x="781.542969"/>
     <use xlink:href="#DejaVuSans-Bold-3d" x="866.552734"/>
     <use xlink:href="#DejaVuSans-Bold-31" x="950.341797"/>
     <use xlink:href="#DejaVuSans-Bold-36" x="1019.921875"/>
    </g>
   </g>
  </g>
 </g>
 <defs>
  <clipPath id="pfc935da3df">
   <rect x="195.78" y="51.197969" width="613.8" height="360.36"/>
  </clipPath>
 </defs>
</svg>
