<?xml version="1.0" encoding="utf-8" standalone="no"?>
<!DOCTYPE svg PUBLIC "-//W3C//DTD SVG 1.1//EN"
  "http://www.w3.org/Graphics/SVG/1.1/DTD/svg11.dtd">
<svg xmlns:xlink="http://www.w3.org/1999/xlink" width="1610.87557pt" height="532.330753pt" viewBox="0 0 1610.87557 532.330753" xmlns="http://www.w3.org/2000/svg" version="1.1">
 <metadata>
  <rdf:RDF xmlns:dc="http://purl.org/dc/elements/1.1/" xmlns:cc="http://creativecommons.org/ns#" xmlns:rdf="http://www.w3.org/1999/02/22-rdf-syntax-ns#">
   <cc:Work>
    <dc:type rdf:resource="http://purl.org/dc/dcmitype/StillImage"/>
    <dc:date>2026-04-28T17:41:36.358598</dc:date>
    <dc:format>image/svg+xml</dc:format>
    <dc:creator>
     <cc:Agent>
      <dc:title>Matplotlib v3.9.2, https://matplotlib.org/</dc:title>
     </cc:Agent>
    </dc:creator>
   </cc:Work>
  </rdf:RDF>
 </metadata>
 <defs>
  <style type="text/css">*{stroke-linejoin: round; stroke-linecap: butt}</style>
 </defs>
 <g id="figure_1">
  <g id="patch_1">
   <path d="M 0 532.330753 
L 1610.87557 532.330753 
L 1610.87557 0 
L 0 0 
z
" style="fill: #ffffff"/>
  </g>
  <g id="axes_1">
   <g id="patch_2">
    <path d="M 61.05236 501.217969 
L 530.71557 501.217969 
L 530.71557 50.677969 
L 61.05236 50.677969 
z
" style="fill: #ffffff"/>
   </g>
   <g id="matplotlib.axis_1">
    <g id="xtick_1">
     <g id="line2d_1">
      <path d="M 81.4725 501.217969 
L 81.4725 50.677969 
" clip-path="url(#pe70dfc5227)" style="fill: none; stroke-dasharray: 0.8,1.32; stroke-dashoffset: 0; stroke: #b0b0b0; stroke-opacity: 0.4; stroke-width: 0.8"/>
     </g>
     <g id="line2d_2">
      <defs>
       <path id="m98bfb4df6d" d="M 0 0 
L 0 -4 
" style="stroke: #000000"/>
      </defs>
      <g>
       <use xlink:href="#m98bfb4df6d" x="81.4725" y="480.738878" style="stroke: #000000"/>
      </g>
     </g>
     <g id="text_1">
      <!-- 0 -->
      <g transform="translate(78.29125 491.837315) scale(0.1 -0.1)">
       <defs>
        <path id="DejaVuSans-30" d="M 2034 4250 
Q 1547 4250 1301 3770 
Q 1056 3291 1056 2328 
Q 1056 1369 1301 889 
Q 1547 409 2034 409 
Q 2525 409 2770 889 
Q 3016 1369 3016 2328 
Q 3016 3291 2770 3770 
Q 2525 4250 2034 4250 
z
M 2034 4750 
Q 2819 4750 3233 4129 
Q 3647 3509 3647 2328 
Q 3647 1150 3233 529 
Q 2819 -91 2034 -91 
Q 1250 -91 836 529 
Q 422 1150 422 2328 
Q 422 3509 836 4129 
Q 1250 4750 2034 4750 
z
" transform="scale(0.015625)"/>
       </defs>
       <use xlink:href="#DejaVuSans-30"/>
      </g>
     </g>
    </g>
    <g id="xtick_2">
     <g id="line2d_3">
      <path d="M 163.153058 501.217969 
L 163.153058 50.677969 
" clip-path="url(#pe70dfc5227)" style="fill: none; stroke-dasharray: 0.8,1.32; stroke-dashoffset: 0; stroke: #b0b0b0; stroke-opacity: 0.4; stroke-width: 0.8"/>
     </g>
     <g id="line2d_4">
      <g>
       <use xlink:href="#m98bfb4df6d" x="163.153058" y="480.738878" style="stroke: #000000"/>
      </g>
     </g>
     <g id="text_2">
      <!-- 200 -->
      <g transform="translate(153.609308 491.837315) scale(0.1 -0.1)">
       <defs>
        <path id="DejaVuSans-32" d="M 1228 531 
L 3431 531 
L 3431 0 
L 469 0 
L 469 531 
Q 828 903 1448 1529 
Q 2069 2156 2228 2338 
Q 2531 2678 2651 2914 
Q 2772 3150 2772 3378 
Q 2772 3750 2511 3984 
Q 2250 4219 1831 4219 
Q 1534 4219 1204 4116 
Q 875 4013 500 3803 
L 500 4441 
Q 881 4594 1212 4672 
Q 1544 4750 1819 4750 
Q 2544 4750 2975 4387 
Q 3406 4025 3406 3419 
Q 3406 3131 3298 2873 
Q 3191 2616 2906 2266 
Q 2828 2175 2409 1742 
Q 1991 1309 1228 531 
z
" transform="scale(0.015625)"/>
       </defs>
       <use xlink:href="#DejaVuSans-32"/>
       <use xlink:href="#DejaVuSans-30" x="63.623047"/>
       <use xlink:href="#DejaVuSans-30" x="127.246094"/>
      </g>
     </g>
    </g>
    <g id="xtick_3">
     <g id="line2d_5">
      <path d="M 244.833616 501.217969 
L 244.833616 50.677969 
" clip-path="url(#pe70dfc5227)" style="fill: none; stroke-dasharray: 0.8,1.32; stroke-dashoffset: 0; stroke: #b0b0b0; stroke-opacity: 0.4; stroke-width: 0.8"/>
     </g>
     <g id="line2d_6">
      <g>
       <use xlink:href="#m98bfb4df6d" x="244.833616" y="480.738878" style="stroke: #000000"/>
      </g>
     </g>
     <g id="text_3">
      <!-- 400 -->
      <g transform="translate(235.289866 491.837315) scale(0.1 -0.1)">
       <defs>
        <path id="DejaVuSans-34" d="M 2419 4116 
L 825 1625 
L 2419 1625 
L 2419 4116 
z
M 2253 4666 
L 3047 4666 
L 3047 1625 
L 3713 1625 
L 3713 1100 
L 3047 1100 
L 3047 0 
L 2419 0 
L 2419 1100 
L 313 1100 
L 313 1709 
L 2253 4666 
z
" transform="scale(0.015625)"/>
       </defs>
       <use xlink:href="#DejaVuSans-34"/>
       <use xlink:href="#DejaVuSans-30" x="63.623047"/>
       <use xlink:href="#DejaVuSans-30" x="127.246094"/>
      </g>
     </g>
    </g>
    <g id="xtick_4">
     <g id="line2d_7">
      <path d="M 326.514175 501.217969 
L 326.514175 50.677969 
" clip-path="url(#pe70dfc5227)" style="fill: none; stroke-dasharray: 0.8,1.32; stroke-dashoffset: 0; stroke: #b0b0b0; stroke-opacity: 0.4; stroke-width: 0.8"/>
     </g>
     <g id="line2d_8">
      <g>
       <use xlink:href="#m98bfb4df6d" x="326.514175" y="480.738878" style="stroke: #000000"/>
      </g>
     </g>
     <g id="text_4">
      <!-- 600 -->
      <g transform="translate(316.970425 491.837315) scale(0.1 -0.1)">
       <defs>
        <path id="DejaVuSans-36" d="M 2113 2584 
Q 1688 2584 1439 2293 
Q 1191 2003 1191 1497 
Q 1191 994 1439 701 
Q 1688 409 2113 409 
Q 2538 409 2786 701 
Q 3034 994 3034 1497 
Q 3034 2003 2786 2293 
Q 2538 2584 2113 2584 
z
M 3366 4563 
L 3366 3988 
Q 3128 4100 2886 4159 
Q 2644 4219 2406 4219 
Q 1781 4219 1451 3797 
Q 1122 3375 1075 2522 
Q 1259 2794 1537 2939 
Q 1816 3084 2150 3084 
Q 2853 3084 3261 2657 
Q 3669 2231 3669 1497 
Q 3669 778 3244 343 
Q 2819 -91 2113 -91 
Q 1303 -91 875 529 
Q 447 1150 447 2328 
Q 447 3434 972 4092 
Q 1497 4750 2381 4750 
Q 2619 4750 2861 4703 
Q 3103 4656 3366 4563 
z
" transform="scale(0.015625)"/>
       </defs>
       <use xlink:href="#DejaVuSans-36"/>
       <use xlink:href="#DejaVuSans-30" x="63.623047"/>
       <use xlink:href="#DejaVuSans-30" x="127.246094"/>
      </g>
     </g>
    </g>
    <g id="xtick_5">
     <g id="line2d_9">
      <path d="M 408.194733 501.217969 
L 408.194733 50.677969 
" clip-path="url(#pe70dfc5227)" style="fill: none; stroke-dasharray: 0.8,1.32; stroke-dashoffset: 0; stroke: #b0b0b0; stroke-opacity: 0.4; stroke-width: 0.8"/>
     </g>
     <g id="line2d_10">
      <g>
       <use xlink:href="#m98bfb4df6d" x="408.194733" y="480.738878" style="stroke: #000000"/>
      </g>
     </g>
     <g id="text_5">
      <!-- 800 -->
      <g transform="translate(398.650983 491.837315) scale(0.1 -0.1)">
       <defs>
        <path id="DejaVuSans-38" d="M 2034 2216 
Q 1584 2216 1326 1975 
Q 1069 1734 1069 1313 
Q 1069 891 1326 650 
Q 1584 409 2034 409 
Q 2484 409 2743 651 
Q 3003 894 3003 1313 
Q 3003 1734 2745 1975 
Q 2488 2216 2034 2216 
z
M 1403 2484 
Q 997 2584 770 2862 
Q 544 3141 544 3541 
Q 544 4100 942 4425 
Q 1341 4750 2034 4750 
Q 2731 4750 3128 4425 
Q 3525 4100 3525 3541 
Q 3525 3141 3298 2862 
Q 3072 2584 2669 2484 
Q 3125 2378 3379 2068 
Q 3634 1759 3634 1313 
Q 3634 634 3220 271 
Q 2806 -91 2034 -91 
Q 1263 -91 848 271 
Q 434 634 434 1313 
Q 434 1759 690 2068 
Q 947 2378 1403 2484 
z
M 1172 3481 
Q 1172 3119 1398 2916 
Q 1625 2713 2034 2713 
Q 2441 2713 2670 2916 
Q 2900 3119 2900 3481 
Q 2900 3844 2670 4047 
Q 2441 4250 2034 4250 
Q 1625 4250 1398 4047 
Q 1172 3844 1172 3481 
z
" transform="scale(0.015625)"/>
       </defs>
       <use xlink:href="#DejaVuSans-38"/>
       <use xlink:href="#DejaVuSans-30" x="63.623047"/>
       <use xlink:href="#DejaVuSans-30" x="127.246094"/>
      </g>
     </g>
    </g>
    <g id="xtick_6">
     <g id="line2d_11">
      <path d="M 489.875291 501.217969 
L 489.875291 50.677969 
" clip-path="url(#pe70dfc5227)" style="fill: none; stroke-dasharray: 0.8,1.32; stroke-dashoffset: 0; stroke: #b0b0b0; stroke-opacity: 0.4; stroke-width: 0.8"/>
     </g>
     <g id="line2d_12">
      <g>
       <use xlink:href="#m98bfb4df6d" x="489.875291" y="480.738878" style="stroke: #000000"/>
      </g>
     </g>
     <g id="text_6">
      <!-- 1000 -->
      <g transform="translate(477.150291 491.837315) scale(0.1 -0.1)">
       <defs>
        <path id="DejaVuSans-31" d="M 794 531 
L 1825 531 
L 1825 4091 
L 703 3866 
L 703 4441 
L 1819 4666 
L 2450 4666 
L 2450 531 
L 3481 531 
L 3481 0 
L 794 0 
L 794 531 
z
" transform="scale(0.015625)"/>
       </defs>
       <use xlink:href="#DejaVuSans-31"/>
       <use xlink:href="#DejaVuSans-30" x="63.623047"/>
       <use xlink:href="#DejaVuSans-30" x="127.246094"/>
       <use xlink:href="#DejaVuSans-30" x="190.869141"/>
      </g>
     </g>
    </g>
    <g id="text_7">
     <!-- Q (libros) -->
     <g transform="translate(467.24682 501.035128) scale(0.12 -0.12)">
      <defs>
       <path id="DejaVuSans-Bold-51" d="M 2847 -84 
L 2753 -84 
Q 1600 -84 959 553 
Q 319 1191 319 2328 
Q 319 3463 958 4106 
Q 1597 4750 2719 4750 
Q 3853 4750 4486 4112 
Q 5119 3475 5119 2328 
Q 5119 1541 4783 972 
Q 4447 403 3816 116 
L 4756 -934 
L 3609 -934 
L 2847 -84 
z
M 2719 3878 
Q 2169 3878 1866 3472 
Q 1563 3066 1563 2328 
Q 1563 1578 1859 1179 
Q 2156 781 2719 781 
Q 3272 781 3575 1187 
Q 3878 1594 3878 2328 
Q 3878 3066 3575 3472 
Q 3272 3878 2719 3878 
z
" transform="scale(0.015625)"/>
       <path id="DejaVuSans-Bold-20" transform="scale(0.015625)"/>
       <path id="DejaVuSans-Bold-28" d="M 2413 -844 
L 1484 -844 
Q 1006 -72 778 623 
Q 550 1319 550 2003 
Q 550 2688 779 3389 
Q 1009 4091 1484 4856 
L 2413 4856 
Q 2013 4116 1813 3408 
Q 1613 2700 1613 2009 
Q 1613 1319 1811 609 
Q 2009 -100 2413 -844 
z
" transform="scale(0.015625)"/>
       <path id="DejaVuSans-Bold-6c" d="M 538 4863 
L 1656 4863 
L 1656 0 
L 538 0 
L 538 4863 
z
" transform="scale(0.015625)"/>
       <path id="DejaVuSans-Bold-69" d="M 538 3500 
L 1656 3500 
L 1656 0 
L 538 0 
L 538 3500 
z
M 538 4863 
L 1656 4863 
L 1656 3950 
L 538 3950 
L 538 4863 
z
" transform="scale(0.015625)"/>
       <path id="DejaVuSans-Bold-62" d="M 2400 722 
Q 2759 722 2948 984 
Q 3138 1247 3138 1747 
Q 3138 2247 2948 2509 
Q 2759 2772 2400 2772 
Q 2041 2772 1848 2508 
Q 1656 2244 1656 1747 
Q 1656 1250 1848 986 
Q 2041 722 2400 722 
z
M 1656 2988 
Q 1888 3294 2169 3439 
Q 2450 3584 2816 3584 
Q 3463 3584 3878 3070 
Q 4294 2556 4294 1747 
Q 4294 938 3878 423 
Q 3463 -91 2816 -91 
Q 2450 -91 2169 54 
Q 1888 200 1656 506 
L 1656 0 
L 538 0 
L 538 4863 
L 1656 4863 
L 1656 2988 
z
" transform="scale(0.015625)"/>
       <path id="DejaVuSans-Bold-72" d="M 3138 2547 
Q 2991 2616 2845 2648 
Q 2700 2681 2553 2681 
Q 2122 2681 1889 2404 
Q 1656 2128 1656 1613 
L 1656 0 
L 538 0 
L 538 3500 
L 1656 3500 
L 1656 2925 
Q 1872 3269 2151 3426 
Q 2431 3584 2822 3584 
Q 2878 3584 2943 3579 
Q 3009 3575 3134 3559 
L 3138 2547 
z
" transform="scale(0.015625)"/>
       <path id="DejaVuSans-Bold-6f" d="M 2203 2784 
Q 1831 2784 1636 2517 
Q 1441 2250 1441 1747 
Q 1441 1244 1636 976 
Q 1831 709 2203 709 
Q 2569 709 2762 976 
Q 2956 1244 2956 1747 
Q 2956 2250 2762 2517 
Q 2569 2784 2203 2784 
z
M 2203 3584 
Q 3106 3584 3614 3096 
Q 4122 2609 4122 1747 
Q 4122 884 3614 396 
Q 3106 -91 2203 -91 
Q 1297 -91 786 396 
Q 275 884 275 1747 
Q 275 2609 786 3096 
Q 1297 3584 2203 3584 
z
" transform="scale(0.015625)"/>
       <path id="DejaVuSans-Bold-73" d="M 3272 3391 
L 3272 2541 
Q 2913 2691 2578 2766 
Q 2244 2841 1947 2841 
Q 1628 2841 1473 2761 
Q 1319 2681 1319 2516 
Q 1319 2381 1436 2309 
Q 1553 2238 1856 2203 
L 2053 2175 
Q 2913 2066 3209 1816 
Q 3506 1566 3506 1031 
Q 3506 472 3093 190 
Q 2681 -91 1863 -91 
Q 1516 -91 1145 -36 
Q 775 19 384 128 
L 384 978 
Q 719 816 1070 734 
Q 1422 653 1784 653 
Q 2113 653 2278 743 
Q 2444 834 2444 1013 
Q 2444 1163 2330 1236 
Q 2216 1309 1875 1350 
L 1678 1375 
Q 931 1469 631 1722 
Q 331 1975 331 2491 
Q 331 3047 712 3315 
Q 1094 3584 1881 3584 
Q 2191 3584 2531 3537 
Q 2872 3491 3272 3391 
z
" transform="scale(0.015625)"/>
       <path id="DejaVuSans-Bold-29" d="M 513 -844 
Q 913 -100 1113 609 
Q 1313 1319 1313 2009 
Q 1313 2700 1113 3408 
Q 913 4116 513 4856 
L 1441 4856 
Q 1916 4091 2145 3389 
Q 2375 2688 2375 2003 
Q 2375 1319 2147 623 
Q 1919 -72 1441 -844 
L 513 -844 
z
" transform="scale(0.015625)"/>
      </defs>
      <use xlink:href="#DejaVuSans-Bold-51"/>
      <use xlink:href="#DejaVuSans-Bold-20" x="85.009766"/>
      <use xlink:href="#DejaVuSans-Bold-28" x="119.824219"/>
      <use xlink:href="#DejaVuSans-Bold-6c" x="165.527344"/>
      <use xlink:href="#DejaVuSans-Bold-69" x="199.804688"/>
      <use xlink:href="#DejaVuSans-Bold-62" x="234.082031"/>
      <use xlink:href="#DejaVuSans-Bold-72" x="305.664062"/>
      <use xlink:href="#DejaVuSans-Bold-6f" x="354.980469"/>
      <use xlink:href="#DejaVuSans-Bold-73" x="423.681641"/>
      <use xlink:href="#DejaVuSans-Bold-29" x="483.203125"/>
     </g>
    </g>
   </g>
   <g id="matplotlib.axis_2">
    <g id="ytick_1">
     <g id="line2d_13">
      <path d="M 61.05236 480.738878 
L 530.71557 480.738878 
" clip-path="url(#pe70dfc5227)" style="fill: none; stroke-dasharray: 0.8,1.32; stroke-dashoffset: 0; stroke: #b0b0b0; stroke-opacity: 0.4; stroke-width: 0.8"/>
     </g>
     <g id="line2d_14">
      <defs>
       <path id="me90594bd09" d="M 0 0 
L 4 0 
" style="stroke: #000000"/>
      </defs>
      <g>
       <use xlink:href="#me90594bd09" x="81.4725" y="480.738878" style="stroke: #000000"/>
      </g>
     </g>
     <g id="text_8">
      <!-- 0 -->
      <g transform="translate(71.61 484.538097) scale(0.1 -0.1)">
       <use xlink:href="#DejaVuSans-30"/>
      </g>
     </g>
    </g>
    <g id="ytick_2">
     <g id="line2d_15">
      <path d="M 61.05236 398.822514 
L 530.71557 398.822514 
" clip-path="url(#pe70dfc5227)" style="fill: none; stroke-dasharray: 0.8,1.32; stroke-dashoffset: 0; stroke: #b0b0b0; stroke-opacity: 0.4; stroke-width: 0.8"/>
     </g>
     <g id="line2d_16">
      <g>
       <use xlink:href="#me90594bd09" x="81.4725" y="398.822514" style="stroke: #000000"/>
      </g>
     </g>
     <g id="text_9">
      <!-- 20 -->
      <g transform="translate(65.2475 402.621733) scale(0.1 -0.1)">
       <use xlink:href="#DejaVuSans-32"/>
       <use xlink:href="#DejaVuSans-30" x="63.623047"/>
      </g>
     </g>
    </g>
    <g id="ytick_3">
     <g id="line2d_17">
      <path d="M 61.05236 316.906151 
L 530.71557 316.906151 
" clip-path="url(#pe70dfc5227)" style="fill: none; stroke-dasharray: 0.8,1.32; stroke-dashoffset: 0; stroke: #b0b0b0; stroke-opacity: 0.4; stroke-width: 0.8"/>
     </g>
     <g id="line2d_18">
      <g>
       <use xlink:href="#me90594bd09" x="81.4725" y="316.906151" style="stroke: #000000"/>
      </g>
     </g>
     <g id="text_10">
      <!-- 40 -->
      <g transform="translate(65.2475 320.705369) scale(0.1 -0.1)">
       <use xlink:href="#DejaVuSans-34"/>
       <use xlink:href="#DejaVuSans-30" x="63.623047"/>
      </g>
     </g>
    </g>
    <g id="ytick_4">
     <g id="line2d_19">
      <path d="M 61.05236 234.989787 
L 530.71557 234.989787 
" clip-path="url(#pe70dfc5227)" style="fill: none; stroke-dasharray: 0.8,1.32; stroke-dashoffset: 0; stroke: #b0b0b0; stroke-opacity: 0.4; stroke-width: 0.8"/>
     </g>
     <g id="line2d_20">
      <g>
       <use xlink:href="#me90594bd09" x="81.4725" y="234.989787" style="stroke: #000000"/>
      </g>
     </g>
     <g id="text_11">
      <!-- 60 -->
      <g transform="translate(65.2475 238.789006) scale(0.1 -0.1)">
       <use xlink:href="#DejaVuSans-36"/>
       <use xlink:href="#DejaVuSans-30" x="63.623047"/>
      </g>
     </g>
    </g>
    <g id="ytick_5">
     <g id="line2d_21">
      <path d="M 61.05236 153.073423 
L 530.71557 153.073423 
" clip-path="url(#pe70dfc5227)" style="fill: none; stroke-dasharray: 0.8,1.32; stroke-dashoffset: 0; stroke: #b0b0b0; stroke-opacity: 0.4; stroke-width: 0.8"/>
     </g>
     <g id="line2d_22">
      <g>
       <use xlink:href="#me90594bd09" x="81.4725" y="153.073423" style="stroke: #000000"/>
      </g>
     </g>
     <g id="text_12">
      <!-- 80 -->
      <g transform="translate(65.2475 156.872642) scale(0.1 -0.1)">
       <use xlink:href="#DejaVuSans-38"/>
       <use xlink:href="#DejaVuSans-30" x="63.623047"/>
      </g>
     </g>
    </g>
    <g id="ytick_6">
     <g id="line2d_23">
      <path d="M 61.05236 71.15706 
L 530.71557 71.15706 
" clip-path="url(#pe70dfc5227)" style="fill: none; stroke-dasharray: 0.8,1.32; stroke-dashoffset: 0; stroke: #b0b0b0; stroke-opacity: 0.4; stroke-width: 0.8"/>
     </g>
     <g id="line2d_24">
      <g>
       <use xlink:href="#me90594bd09" x="81.4725" y="71.15706" style="stroke: #000000"/>
      </g>
     </g>
     <g id="text_13">
      <!-- 100 -->
      <g transform="translate(58.885 74.956278) scale(0.1 -0.1)">
       <use xlink:href="#DejaVuSans-31"/>
       <use xlink:href="#DejaVuSans-30" x="63.623047"/>
       <use xlink:href="#DejaVuSans-30" x="127.246094"/>
      </g>
     </g>
    </g>
    <g id="text_14">
     <!-- p ($) -->
     <g transform="translate(28.8 48.182344) scale(0.12 -0.12)">
      <defs>
       <path id="DejaVuSans-Bold-70" d="M 1656 506 
L 1656 -1331 
L 538 -1331 
L 538 3500 
L 1656 3500 
L 1656 2988 
Q 1888 3294 2169 3439 
Q 2450 3584 2816 3584 
Q 3463 3584 3878 3070 
Q 4294 2556 4294 1747 
Q 4294 938 3878 423 
Q 3463 -91 2816 -91 
Q 2450 -91 2169 54 
Q 1888 200 1656 506 
z
M 2400 2772 
Q 2041 2772 1848 2508 
Q 1656 2244 1656 1747 
Q 1656 1250 1848 986 
Q 2041 722 2400 722 
Q 2759 722 2948 984 
Q 3138 1247 3138 1747 
Q 3138 2247 2948 2509 
Q 2759 2772 2400 2772 
z
" transform="scale(0.015625)"/>
       <path id="DejaVuSans-Bold-24" d="M 2484 -941 
L 1978 -941 
L 1975 0 
Q 1584 16 1218 87 
Q 853 159 506 288 
L 506 1106 
Q 866 922 1233 823 
Q 1600 725 1978 713 
L 1978 1684 
L 1875 1703 
Q 1128 1834 814 2115 
Q 500 2397 500 2925 
Q 500 3484 883 3798 
Q 1266 4113 1975 4141 
L 1978 4863 
L 2484 4863 
L 2484 4153 
Q 2797 4128 3109 4075 
Q 3422 4022 3738 3938 
L 3738 3144 
Q 3425 3275 3112 3348 
Q 2800 3422 2484 3438 
L 2484 2541 
L 2584 2522 
Q 3378 2397 3698 2105 
Q 4019 1813 4019 1241 
Q 4019 666 3637 358 
Q 3256 50 2484 6 
L 2484 -941 
z
M 1978 2613 
L 1978 3428 
Q 1756 3416 1623 3308 
Q 1491 3200 1491 3034 
Q 1491 2850 1612 2745 
Q 1734 2641 1978 2613 
z
M 2484 1594 
L 2484 725 
Q 2756 728 2892 831 
Q 3028 934 3028 1141 
Q 3028 1353 2903 1458 
Q 2778 1563 2484 1594 
z
" transform="scale(0.015625)"/>
      </defs>
      <use xlink:href="#DejaVuSans-Bold-70"/>
      <use xlink:href="#DejaVuSans-Bold-20" x="71.582031"/>
      <use xlink:href="#DejaVuSans-Bold-28" x="106.396484"/>
      <use xlink:href="#DejaVuSans-Bold-24" x="152.099609"/>
      <use xlink:href="#DejaVuSans-Bold-29" x="221.679688"/>
     </g>
    </g>
   </g>
   <g id="line2d_25">
    <path d="M 489.875291 480.738878 
L 81.4725 71.15706 
L 81.4725 71.15706 
" clip-path="url(#pe70dfc5227)" style="fill: none; stroke: #c0392b; stroke-width: 3; stroke-linecap: square"/>
   </g>
   <g id="line2d_26">
    <path d="M 81.4725 480.738878 
L 81.4725 379.887073 
L 82.498638 377.828873 
L 694.076687 71.15706 
L 694.076687 71.15706 
" clip-path="url(#pe70dfc5227)" style="fill: none; stroke: #2980b9; stroke-width: 3; stroke-linecap: square"/>
   </g>
   <g id="line2d_27">
    <path d="M 285.673896 480.738878 
L 285.673896 275.947969 
" clip-path="url(#pe70dfc5227)" style="fill: none; stroke-dasharray: 3.7,1.6; stroke-dashoffset: 0; stroke: #34495e; stroke-opacity: 0.6"/>
   </g>
   <g id="line2d_28">
    <path d="M 81.4725 275.947969 
L 285.673896 275.947969 
" clip-path="url(#pe70dfc5227)" style="fill: none; stroke-dasharray: 3.7,1.6; stroke-dashoffset: 0; stroke: #34495e; stroke-opacity: 0.6"/>
   </g>
   <g id="line2d_29">
    <defs>
     <path id="m7e5c001cb9" d="M 4 0 
L -4 -4 
L -4 4 
z
" style="stroke: #000000; stroke-linejoin: miter"/>
    </defs>
    <g>
     <use xlink:href="#m7e5c001cb9" x="530.71557" y="480.738878" style="stroke: #000000; stroke-linejoin: miter"/>
    </g>
   </g>
   <g id="line2d_30">
    <defs>
     <path id="mc6e6a8356d" d="M 0 -4 
L -4 4 
L 4 4 
z
" style="stroke: #000000; stroke-linejoin: miter"/>
    </defs>
    <g>
     <use xlink:href="#mc6e6a8356d" x="81.4725" y="50.677969" style="stroke: #000000; stroke-linejoin: miter"/>
    </g>
   </g>
   <g id="patch_3">
    <path d="M 81.4725 501.217969 
L 81.4725 50.677969 
" style="fill: none; stroke: #000000; stroke-width: 1.4; stroke-linejoin: miter; stroke-linecap: square"/>
   </g>
   <g id="patch_4">
    <path d="M 61.05236 480.738878 
L 530.71557 480.738878 
" style="fill: none; stroke: #000000; stroke-width: 1.4; stroke-linejoin: miter; stroke-linecap: square"/>
   </g>
   <g id="text_15">
    <!-- (a) Equilibrio libre: p* = $50, Q* = 500 -->
    <g transform="translate(155.699278 38.677969) scale(0.13 -0.13)">
     <defs>
      <path id="DejaVuSans-Bold-61" d="M 2106 1575 
Q 1756 1575 1579 1456 
Q 1403 1338 1403 1106 
Q 1403 894 1545 773 
Q 1688 653 1941 653 
Q 2256 653 2472 879 
Q 2688 1106 2688 1447 
L 2688 1575 
L 2106 1575 
z
M 3816 1997 
L 3816 0 
L 2688 0 
L 2688 519 
Q 2463 200 2181 54 
Q 1900 -91 1497 -91 
Q 953 -91 614 226 
Q 275 544 275 1050 
Q 275 1666 698 1953 
Q 1122 2241 2028 2241 
L 2688 2241 
L 2688 2328 
Q 2688 2594 2478 2717 
Q 2269 2841 1825 2841 
Q 1466 2841 1156 2769 
Q 847 2697 581 2553 
L 581 3406 
Q 941 3494 1303 3539 
Q 1666 3584 2028 3584 
Q 2975 3584 3395 3211 
Q 3816 2838 3816 1997 
z
" transform="scale(0.015625)"/>
      <path id="DejaVuSans-Bold-45" d="M 588 4666 
L 3834 4666 
L 3834 3756 
L 1791 3756 
L 1791 2888 
L 3713 2888 
L 3713 1978 
L 1791 1978 
L 1791 909 
L 3903 909 
L 3903 0 
L 588 0 
L 588 4666 
z
" transform="scale(0.015625)"/>
      <path id="DejaVuSans-Bold-71" d="M 2181 2772 
Q 1825 2772 1636 2509 
Q 1447 2247 1447 1747 
Q 1447 1247 1636 984 
Q 1825 722 2181 722 
Q 2541 722 2730 984 
Q 2919 1247 2919 1747 
Q 2919 2247 2730 2509 
Q 2541 2772 2181 2772 
z
M 2919 506 
Q 2688 197 2409 53 
Q 2131 -91 1766 -91 
Q 1119 -91 703 423 
Q 288 938 288 1747 
Q 288 2556 703 3067 
Q 1119 3578 1766 3578 
Q 2131 3578 2409 3434 
Q 2688 3291 2919 2981 
L 2919 3500 
L 4044 3500 
L 4044 -1331 
L 2919 -1331 
L 2919 506 
z
" transform="scale(0.015625)"/>
      <path id="DejaVuSans-Bold-75" d="M 500 1363 
L 500 3500 
L 1625 3500 
L 1625 3150 
Q 1625 2866 1622 2436 
Q 1619 2006 1619 1863 
Q 1619 1441 1641 1255 
Q 1663 1069 1716 984 
Q 1784 875 1895 815 
Q 2006 756 2150 756 
Q 2500 756 2700 1025 
Q 2900 1294 2900 1772 
L 2900 3500 
L 4019 3500 
L 4019 0 
L 2900 0 
L 2900 506 
Q 2647 200 2364 54 
Q 2081 -91 1741 -91 
Q 1134 -91 817 281 
Q 500 653 500 1363 
z
" transform="scale(0.015625)"/>
      <path id="DejaVuSans-Bold-65" d="M 4031 1759 
L 4031 1441 
L 1416 1441 
Q 1456 1047 1700 850 
Q 1944 653 2381 653 
Q 2734 653 3104 758 
Q 3475 863 3866 1075 
L 3866 213 
Q 3469 63 3072 -14 
Q 2675 -91 2278 -91 
Q 1328 -91 801 392 
Q 275 875 275 1747 
Q 275 2603 792 3093 
Q 1309 3584 2216 3584 
Q 3041 3584 3536 3087 
Q 4031 2591 4031 1759 
z
M 2881 2131 
Q 2881 2450 2695 2645 
Q 2509 2841 2209 2841 
Q 1884 2841 1681 2658 
Q 1478 2475 1428 2131 
L 2881 2131 
z
" transform="scale(0.015625)"/>
      <path id="DejaVuSans-Bold-3a" d="M 716 3500 
L 1844 3500 
L 1844 2291 
L 716 2291 
L 716 3500 
z
M 716 1209 
L 1844 1209 
L 1844 0 
L 716 0 
L 716 1209 
z
" transform="scale(0.015625)"/>
      <path id="DejaVuSans-Bold-2a" d="M 3219 3803 
L 2188 3263 
L 3219 2719 
L 2981 2278 
L 1941 2853 
L 1941 1778 
L 1409 1778 
L 1409 2853 
L 366 2278 
L 128 2719 
L 1172 3263 
L 128 3803 
L 366 4244 
L 1409 3675 
L 1409 4750 
L 1941 4750 
L 1941 3675 
L 2981 4244 
L 3219 3803 
z
" transform="scale(0.015625)"/>
      <path id="DejaVuSans-Bold-3d" d="M 678 3084 
L 4684 3084 
L 4684 2350 
L 678 2350 
L 678 3084 
z
M 678 1663 
L 4684 1663 
L 4684 922 
L 678 922 
L 678 1663 
z
" transform="scale(0.015625)"/>
      <path id="DejaVuSans-Bold-35" d="M 678 4666 
L 3669 4666 
L 3669 3781 
L 1638 3781 
L 1638 3059 
Q 1775 3097 1914 3117 
Q 2053 3138 2203 3138 
Q 3056 3138 3531 2711 
Q 4006 2284 4006 1522 
Q 4006 766 3489 337 
Q 2972 -91 2053 -91 
Q 1656 -91 1267 -14 
Q 878 63 494 219 
L 494 1166 
Q 875 947 1217 837 
Q 1559 728 1863 728 
Q 2300 728 2551 942 
Q 2803 1156 2803 1522 
Q 2803 1891 2551 2103 
Q 2300 2316 1863 2316 
Q 1603 2316 1309 2248 
Q 1016 2181 678 2041 
L 678 4666 
z
" transform="scale(0.015625)"/>
      <path id="DejaVuSans-Bold-30" d="M 2944 2338 
Q 2944 3213 2780 3570 
Q 2616 3928 2228 3928 
Q 1841 3928 1675 3570 
Q 1509 3213 1509 2338 
Q 1509 1453 1675 1090 
Q 1841 728 2228 728 
Q 2613 728 2778 1090 
Q 2944 1453 2944 2338 
z
M 4147 2328 
Q 4147 1169 3647 539 
Q 3147 -91 2228 -91 
Q 1306 -91 806 539 
Q 306 1169 306 2328 
Q 306 3491 806 4120 
Q 1306 4750 2228 4750 
Q 3147 4750 3647 4120 
Q 4147 3491 4147 2328 
z
" transform="scale(0.015625)"/>
      <path id="DejaVuSans-Bold-2c" d="M 653 1209 
L 1778 1209 
L 1778 256 
L 1006 -909 
L 341 -909 
L 653 256 
L 653 1209 
z
" transform="scale(0.015625)"/>
     </defs>
     <use xlink:href="#DejaVuSans-Bold-28"/>
     <use xlink:href="#DejaVuSans-Bold-61" x="45.703125"/>
     <use xlink:href="#DejaVuSans-Bold-29" x="113.183594"/>
     <use xlink:href="#DejaVuSans-Bold-20" x="158.886719"/>
     <use xlink:href="#DejaVuSans-Bold-45" x="193.701172"/>
     <use xlink:href="#DejaVuSans-Bold-71" x="262.011719"/>
     <use xlink:href="#DejaVuSans-Bold-75" x="333.59375"/>
     <use xlink:href="#DejaVuSans-Bold-69" x="404.785156"/>
     <use xlink:href="#DejaVuSans-Bold-6c" x="439.0625"/>
     <use xlink:href="#DejaVuSans-Bold-69" x="473.339844"/>
     <use xlink:href="#DejaVuSans-Bold-62" x="507.617188"/>
     <use xlink:href="#DejaVuSans-Bold-72" x="579.199219"/>
     <use xlink:href="#DejaVuSans-Bold-69" x="628.515625"/>
     <use xlink:href="#DejaVuSans-Bold-6f" x="662.792969"/>
     <use xlink:href="#DejaVuSans-Bold-20" x="731.494141"/>
     <use xlink:href="#DejaVuSans-Bold-6c" x="766.308594"/>
     <use xlink:href="#DejaVuSans-Bold-69" x="800.585938"/>
     <use xlink:href="#DejaVuSans-Bold-62" x="834.863281"/>
     <use xlink:href="#DejaVuSans-Bold-72" x="906.445312"/>
     <use xlink:href="#DejaVuSans-Bold-65" x="955.761719"/>
     <use xlink:href="#DejaVuSans-Bold-3a" x="1023.583984"/>
     <use xlink:href="#DejaVuSans-Bold-20" x="1063.574219"/>
     <use xlink:href="#DejaVuSans-Bold-70" x="1098.388672"/>
     <use xlink:href="#DejaVuSans-Bold-2a" x="1169.970703"/>
     <use xlink:href="#DejaVuSans-Bold-20" x="1222.265625"/>
     <use xlink:href="#DejaVuSans-Bold-3d" x="1257.080078"/>
     <use xlink:href="#DejaVuSans-Bold-20" x="1340.869141"/>
     <use xlink:href="#DejaVuSans-Bold-24" x="1375.683594"/>
     <use xlink:href="#DejaVuSans-Bold-35" x="1445.263672"/>
     <use xlink:href="#DejaVuSans-Bold-30" x="1514.84375"/>
     <use xlink:href="#DejaVuSans-Bold-2c" x="1584.423828"/>
     <use xlink:href="#DejaVuSans-Bold-20" x="1622.412109"/>
     <use xlink:href="#DejaVuSans-Bold-51" x="1657.226562"/>
     <use xlink:href="#DejaVuSans-Bold-2a" x="1742.236328"/>
     <use xlink:href="#DejaVuSans-Bold-20" x="1794.53125"/>
     <use xlink:href="#DejaVuSans-Bold-3d" x="1829.345703"/>
     <use xlink:href="#DejaVuSans-Bold-20" x="1913.134766"/>
     <use xlink:href="#DejaVuSans-Bold-35" x="1947.949219"/>
     <use xlink:href="#DejaVuSans-Bold-30" x="2017.529297"/>
     <use xlink:href="#DejaVuSans-Bold-30" x="2087.109375"/>
    </g>
   </g>
   <g id="legend_1">
    <g id="patch_5">
     <path d="M 67.35236 496.717969 
L 170.277204 496.717969 
Q 172.077204 496.717969 172.077204 494.917969 
L 172.077204 469.397344 
Q 172.077204 467.597344 170.277204 467.597344 
L 67.35236 467.597344 
Q 65.55236 467.597344 65.55236 469.397344 
L 65.55236 494.917969 
Q 65.55236 496.717969 67.35236 496.717969 
z
" style="fill: #ffffff; opacity: 0.8; stroke: #cccccc; stroke-linejoin: miter"/>
    </g>
    <g id="line2d_31">
     <path d="M 69.15236 474.885938 
L 78.15236 474.885938 
L 87.15236 474.885938 
" style="fill: none; stroke: #c0392b; stroke-width: 3; stroke-linecap: square"/>
    </g>
    <g id="text_16">
     <!-- D = 1000 − 10p -->
     <g transform="translate(94.35236 478.035937) scale(0.09 -0.09)">
      <defs>
       <path id="DejaVuSans-44" d="M 1259 4147 
L 1259 519 
L 2022 519 
Q 2988 519 3436 956 
Q 3884 1394 3884 2338 
Q 3884 3275 3436 3711 
Q 2988 4147 2022 4147 
L 1259 4147 
z
M 628 4666 
L 1925 4666 
Q 3281 4666 3915 4102 
Q 4550 3538 4550 2338 
Q 4550 1131 3912 565 
Q 3275 0 1925 0 
L 628 0 
L 628 4666 
z
" transform="scale(0.015625)"/>
       <path id="DejaVuSans-20" transform="scale(0.015625)"/>
       <path id="DejaVuSans-3d" d="M 678 2906 
L 4684 2906 
L 4684 2381 
L 678 2381 
L 678 2906 
z
M 678 1631 
L 4684 1631 
L 4684 1100 
L 678 1100 
L 678 1631 
z
" transform="scale(0.015625)"/>
       <path id="DejaVuSans-2212" d="M 678 2272 
L 4684 2272 
L 4684 1741 
L 678 1741 
L 678 2272 
z
" transform="scale(0.015625)"/>
       <path id="DejaVuSans-70" d="M 1159 525 
L 1159 -1331 
L 581 -1331 
L 581 3500 
L 1159 3500 
L 1159 2969 
Q 1341 3281 1617 3432 
Q 1894 3584 2278 3584 
Q 2916 3584 3314 3078 
Q 3713 2572 3713 1747 
Q 3713 922 3314 415 
Q 2916 -91 2278 -91 
Q 1894 -91 1617 61 
Q 1341 213 1159 525 
z
M 3116 1747 
Q 3116 2381 2855 2742 
Q 2594 3103 2138 3103 
Q 1681 3103 1420 2742 
Q 1159 2381 1159 1747 
Q 1159 1113 1420 752 
Q 1681 391 2138 391 
Q 2594 391 2855 752 
Q 3116 1113 3116 1747 
z
" transform="scale(0.015625)"/>
      </defs>
      <use xlink:href="#DejaVuSans-44"/>
      <use xlink:href="#DejaVuSans-20" x="77.001953"/>
      <use xlink:href="#DejaVuSans-3d" x="108.789062"/>
      <use xlink:href="#DejaVuSans-20" x="192.578125"/>
      <use xlink:href="#DejaVuSans-31" x="224.365234"/>
      <use xlink:href="#DejaVuSans-30" x="287.988281"/>
      <use xlink:href="#DejaVuSans-30" x="351.611328"/>
      <use xlink:href="#DejaVuSans-30" x="415.234375"/>
      <use xlink:href="#DejaVuSans-20" x="478.857422"/>
      <use xlink:href="#DejaVuSans-2212" x="510.644531"/>
      <use xlink:href="#DejaVuSans-20" x="594.433594"/>
      <use xlink:href="#DejaVuSans-31" x="626.220703"/>
      <use xlink:href="#DejaVuSans-30" x="689.84375"/>
      <use xlink:href="#DejaVuSans-70" x="753.466797"/>
     </g>
    </g>
    <g id="line2d_32">
     <path d="M 69.15236 488.09625 
L 78.15236 488.09625 
L 87.15236 488.09625 
" style="fill: none; stroke: #2980b9; stroke-width: 3; stroke-linecap: square"/>
    </g>
    <g id="text_17">
     <!-- S = −500 + 20p -->
     <g transform="translate(94.35236 491.24625) scale(0.09 -0.09)">
      <defs>
       <path id="DejaVuSans-53" d="M 3425 4513 
L 3425 3897 
Q 3066 4069 2747 4153 
Q 2428 4238 2131 4238 
Q 1616 4238 1336 4038 
Q 1056 3838 1056 3469 
Q 1056 3159 1242 3001 
Q 1428 2844 1947 2747 
L 2328 2669 
Q 3034 2534 3370 2195 
Q 3706 1856 3706 1288 
Q 3706 609 3251 259 
Q 2797 -91 1919 -91 
Q 1588 -91 1214 -16 
Q 841 59 441 206 
L 441 856 
Q 825 641 1194 531 
Q 1563 422 1919 422 
Q 2459 422 2753 634 
Q 3047 847 3047 1241 
Q 3047 1584 2836 1778 
Q 2625 1972 2144 2069 
L 1759 2144 
Q 1053 2284 737 2584 
Q 422 2884 422 3419 
Q 422 4038 858 4394 
Q 1294 4750 2059 4750 
Q 2388 4750 2728 4690 
Q 3069 4631 3425 4513 
z
" transform="scale(0.015625)"/>
       <path id="DejaVuSans-35" d="M 691 4666 
L 3169 4666 
L 3169 4134 
L 1269 4134 
L 1269 2991 
Q 1406 3038 1543 3061 
Q 1681 3084 1819 3084 
Q 2600 3084 3056 2656 
Q 3513 2228 3513 1497 
Q 3513 744 3044 326 
Q 2575 -91 1722 -91 
Q 1428 -91 1123 -41 
Q 819 9 494 109 
L 494 744 
Q 775 591 1075 516 
Q 1375 441 1709 441 
Q 2250 441 2565 725 
Q 2881 1009 2881 1497 
Q 2881 1984 2565 2268 
Q 2250 2553 1709 2553 
Q 1456 2553 1204 2497 
Q 953 2441 691 2322 
L 691 4666 
z
" transform="scale(0.015625)"/>
       <path id="DejaVuSans-2b" d="M 2944 4013 
L 2944 2272 
L 4684 2272 
L 4684 1741 
L 2944 1741 
L 2944 0 
L 2419 0 
L 2419 1741 
L 678 1741 
L 678 2272 
L 2419 2272 
L 2419 4013 
L 2944 4013 
z
" transform="scale(0.015625)"/>
      </defs>
      <use xlink:href="#DejaVuSans-53"/>
      <use xlink:href="#DejaVuSans-20" x="63.476562"/>
      <use xlink:href="#DejaVuSans-3d" x="95.263672"/>
      <use xlink:href="#DejaVuSans-20" x="179.052734"/>
      <use xlink:href="#DejaVuSans-2212" x="210.839844"/>
      <use xlink:href="#DejaVuSans-35" x="294.628906"/>
      <use xlink:href="#DejaVuSans-30" x="358.251953"/>
      <use xlink:href="#DejaVuSans-30" x="421.875"/>
      <use xlink:href="#DejaVuSans-20" x="485.498047"/>
      <use xlink:href="#DejaVuSans-2b" x="517.285156"/>
      <use xlink:href="#DejaVuSans-20" x="601.074219"/>
      <use xlink:href="#DejaVuSans-32" x="632.861328"/>
      <use xlink:href="#DejaVuSans-30" x="696.484375"/>
      <use xlink:href="#DejaVuSans-70" x="760.107422"/>
     </g>
    </g>
   </g>
   <g id="line2d_33">
    <defs>
     <path id="m71104ee4dc" d="M 0 5.5 
C 1.458617 5.5 2.857689 4.920485 3.889087 3.889087 
C 4.920485 2.857689 5.5 1.458617 5.5 0 
C 5.5 -1.458617 4.920485 -2.857689 3.889087 -3.889087 
C 2.857689 -4.920485 1.458617 -5.5 0 -5.5 
C -1.458617 -5.5 -2.857689 -4.920485 -3.889087 -3.889087 
C -4.920485 -2.857689 -5.5 -1.458617 -5.5 0 
C -5.5 1.458617 -4.920485 2.857689 -3.889087 3.889087 
C -2.857689 4.920485 -1.458617 5.5 0 5.5 
z
" style="stroke: #000000"/>
    </defs>
    <g clip-path="url(#pe70dfc5227)">
     <use xlink:href="#m71104ee4dc" x="285.673896" y="275.947969" style="stroke: #000000"/>
    </g>
   </g>
   <g id="patch_6">
    <path d="M 377.1139 181.525599 
Q 332.090134 228.017839 287.844152 273.706928 
" style="fill: none; stroke: #000000; stroke-linecap: round"/>
    <path d="M 292.485498 272.076617 
L 287.844152 273.706928 
L 289.324711 269.015665 
" style="fill: none; stroke: #000000; stroke-linecap: round"/>
   </g>
   <g id="text_18">
    <g id="patch_7">
     <path d="M 332.280453 179.69017 
L 443.268734 179.69017 
Q 447.118734 179.69017 447.118734 175.84017 
L 447.118734 165.194233 
Q 447.118734 161.344233 443.268734 161.344233 
L 332.280453 161.344233 
Q 328.430453 161.344233 328.430453 165.194233 
L 328.430453 175.84017 
Q 328.430453 179.69017 332.280453 179.69017 
z
" style="fill: #ffffff; opacity: 0.97; stroke: #bdc3c7; stroke-width: 0.8; stroke-linejoin: miter"/>
    </g>
    <!-- E (Q=500, p=$50) -->
    <g transform="translate(332.280453 173.552514) scale(0.11 -0.11)">
     <use xlink:href="#DejaVuSans-Bold-45"/>
     <use xlink:href="#DejaVuSans-Bold-20" x="68.310547"/>
     <use xlink:href="#DejaVuSans-Bold-28" x="103.125"/>
     <use xlink:href="#DejaVuSans-Bold-51" x="148.828125"/>
     <use xlink:href="#DejaVuSans-Bold-3d" x="233.837891"/>
     <use xlink:href="#DejaVuSans-Bold-35" x="317.626953"/>
     <use xlink:href="#DejaVuSans-Bold-30" x="387.207031"/>
     <use xlink:href="#DejaVuSans-Bold-30" x="456.787109"/>
     <use xlink:href="#DejaVuSans-Bold-2c" x="526.367188"/>
     <use xlink:href="#DejaVuSans-Bold-20" x="564.355469"/>
     <use xlink:href="#DejaVuSans-Bold-70" x="599.169922"/>
     <use xlink:href="#DejaVuSans-Bold-3d" x="670.751953"/>
     <use xlink:href="#DejaVuSans-Bold-24" x="754.541016"/>
     <use xlink:href="#DejaVuSans-Bold-35" x="824.121094"/>
     <use xlink:href="#DejaVuSans-Bold-30" x="893.701172"/>
     <use xlink:href="#DejaVuSans-Bold-29" x="963.28125"/>
    </g>
   </g>
  </g>
  <g id="axes_2">
   <g id="patch_8">
    <path d="M 584.73236 501.217969 
L 1054.39557 501.217969 
L 1054.39557 50.677969 
L 584.73236 50.677969 
z
" style="fill: #ffffff"/>
   </g>
   <g id="matplotlib.axis_3">
    <g id="xtick_7">
     <g id="line2d_34">
      <path d="M 605.1525 501.217969 
L 605.1525 50.677969 
" clip-path="url(#pd894f9748f)" style="fill: none; stroke-dasharray: 0.8,1.32; stroke-dashoffset: 0; stroke: #b0b0b0; stroke-opacity: 0.4; stroke-width: 0.8"/>
     </g>
     <g id="line2d_35">
      <g>
       <use xlink:href="#m98bfb4df6d" x="605.1525" y="480.738878" style="stroke: #000000"/>
      </g>
     </g>
     <g id="text_19">
      <!-- 0 -->
      <g transform="translate(601.97125 491.837315) scale(0.1 -0.1)">
       <use xlink:href="#DejaVuSans-30"/>
      </g>
     </g>
    </g>
    <g id="xtick_8">
     <g id="line2d_36">
      <path d="M 686.833058 501.217969 
L 686.833058 50.677969 
" clip-path="url(#pd894f9748f)" style="fill: none; stroke-dasharray: 0.8,1.32; stroke-dashoffset: 0; stroke: #b0b0b0; stroke-opacity: 0.4; stroke-width: 0.8"/>
     </g>
     <g id="line2d_37">
      <g>
       <use xlink:href="#m98bfb4df6d" x="686.833058" y="480.738878" style="stroke: #000000"/>
      </g>
     </g>
     <g id="text_20">
      <!-- 200 -->
      <g transform="translate(677.289308 491.837315) scale(0.1 -0.1)">
       <use xlink:href="#DejaVuSans-32"/>
       <use xlink:href="#DejaVuSans-30" x="63.623047"/>
       <use xlink:href="#DejaVuSans-30" x="127.246094"/>
      </g>
     </g>
    </g>
    <g id="xtick_9">
     <g id="line2d_38">
      <path d="M 768.513616 501.217969 
L 768.513616 50.677969 
" clip-path="url(#pd894f9748f)" style="fill: none; stroke-dasharray: 0.8,1.32; stroke-dashoffset: 0; stroke: #b0b0b0; stroke-opacity: 0.4; stroke-width: 0.8"/>
     </g>
     <g id="line2d_39">
      <g>
       <use xlink:href="#m98bfb4df6d" x="768.513616" y="480.738878" style="stroke: #000000"/>
      </g>
     </g>
     <g id="text_21">
      <!-- 400 -->
      <g transform="translate(758.969866 491.837315) scale(0.1 -0.1)">
       <use xlink:href="#DejaVuSans-34"/>
       <use xlink:href="#DejaVuSans-30" x="63.623047"/>
       <use xlink:href="#DejaVuSans-30" x="127.246094"/>
      </g>
     </g>
    </g>
    <g id="xtick_10">
     <g id="line2d_40">
      <path d="M 850.194175 501.217969 
L 850.194175 50.677969 
" clip-path="url(#pd894f9748f)" style="fill: none; stroke-dasharray: 0.8,1.32; stroke-dashoffset: 0; stroke: #b0b0b0; stroke-opacity: 0.4; stroke-width: 0.8"/>
     </g>
     <g id="line2d_41">
      <g>
       <use xlink:href="#m98bfb4df6d" x="850.194175" y="480.738878" style="stroke: #000000"/>
      </g>
     </g>
     <g id="text_22">
      <!-- 600 -->
      <g transform="translate(840.650425 491.837315) scale(0.1 -0.1)">
       <use xlink:href="#DejaVuSans-36"/>
       <use xlink:href="#DejaVuSans-30" x="63.623047"/>
       <use xlink:href="#DejaVuSans-30" x="127.246094"/>
      </g>
     </g>
    </g>
    <g id="xtick_11">
     <g id="line2d_42">
      <path d="M 931.874733 501.217969 
L 931.874733 50.677969 
" clip-path="url(#pd894f9748f)" style="fill: none; stroke-dasharray: 0.8,1.32; stroke-dashoffset: 0; stroke: #b0b0b0; stroke-opacity: 0.4; stroke-width: 0.8"/>
     </g>
     <g id="line2d_43">
      <g>
       <use xlink:href="#m98bfb4df6d" x="931.874733" y="480.738878" style="stroke: #000000"/>
      </g>
     </g>
     <g id="text_23">
      <!-- 800 -->
      <g transform="translate(922.330983 491.837315) scale(0.1 -0.1)">
       <use xlink:href="#DejaVuSans-38"/>
       <use xlink:href="#DejaVuSans-30" x="63.623047"/>
       <use xlink:href="#DejaVuSans-30" x="127.246094"/>
      </g>
     </g>
    </g>
    <g id="xtick_12">
     <g id="line2d_44">
      <path d="M 1013.555291 501.217969 
L 1013.555291 50.677969 
" clip-path="url(#pd894f9748f)" style="fill: none; stroke-dasharray: 0.8,1.32; stroke-dashoffset: 0; stroke: #b0b0b0; stroke-opacity: 0.4; stroke-width: 0.8"/>
     </g>
     <g id="line2d_45">
      <g>
       <use xlink:href="#m98bfb4df6d" x="1013.555291" y="480.738878" style="stroke: #000000"/>
      </g>
     </g>
     <g id="text_24">
      <!-- 1000 -->
      <g transform="translate(1000.830291 491.837315) scale(0.1 -0.1)">
       <use xlink:href="#DejaVuSans-31"/>
       <use xlink:href="#DejaVuSans-30" x="63.623047"/>
       <use xlink:href="#DejaVuSans-30" x="127.246094"/>
       <use xlink:href="#DejaVuSans-30" x="190.869141"/>
      </g>
     </g>
    </g>
    <g id="text_25">
     <!-- Q (libros) -->
     <g transform="translate(990.92682 501.035128) scale(0.12 -0.12)">
      <use xlink:href="#DejaVuSans-Bold-51"/>
      <use xlink:href="#DejaVuSans-Bold-20" x="85.009766"/>
      <use xlink:href="#DejaVuSans-Bold-28" x="119.824219"/>
      <use xlink:href="#DejaVuSans-Bold-6c" x="165.527344"/>
      <use xlink:href="#DejaVuSans-Bold-69" x="199.804688"/>
      <use xlink:href="#DejaVuSans-Bold-62" x="234.082031"/>
      <use xlink:href="#DejaVuSans-Bold-72" x="305.664062"/>
      <use xlink:href="#DejaVuSans-Bold-6f" x="354.980469"/>
      <use xlink:href="#DejaVuSans-Bold-73" x="423.681641"/>
      <use xlink:href="#DejaVuSans-Bold-29" x="483.203125"/>
     </g>
    </g>
   </g>
   <g id="matplotlib.axis_4">
    <g id="ytick_7">
     <g id="line2d_46">
      <path d="M 584.73236 480.738878 
L 1054.39557 480.738878 
" clip-path="url(#pd894f9748f)" style="fill: none; stroke-dasharray: 0.8,1.32; stroke-dashoffset: 0; stroke: #b0b0b0; stroke-opacity: 0.4; stroke-width: 0.8"/>
     </g>
     <g id="line2d_47">
      <g>
       <use xlink:href="#me90594bd09" x="605.1525" y="480.738878" style="stroke: #000000"/>
      </g>
     </g>
     <g id="text_26">
      <!-- 0 -->
      <g transform="translate(595.29 484.538097) scale(0.1 -0.1)">
       <use xlink:href="#DejaVuSans-30"/>
      </g>
     </g>
    </g>
    <g id="ytick_8">
     <g id="line2d_48">
      <path d="M 584.73236 398.822514 
L 1054.39557 398.822514 
" clip-path="url(#pd894f9748f)" style="fill: none; stroke-dasharray: 0.8,1.32; stroke-dashoffset: 0; stroke: #b0b0b0; stroke-opacity: 0.4; stroke-width: 0.8"/>
     </g>
     <g id="line2d_49">
      <g>
       <use xlink:href="#me90594bd09" x="605.1525" y="398.822514" style="stroke: #000000"/>
      </g>
     </g>
     <g id="text_27">
      <!-- 20 -->
      <g transform="translate(588.9275 402.621733) scale(0.1 -0.1)">
       <use xlink:href="#DejaVuSans-32"/>
       <use xlink:href="#DejaVuSans-30" x="63.623047"/>
      </g>
     </g>
    </g>
    <g id="ytick_9">
     <g id="line2d_50">
      <path d="M 584.73236 316.906151 
L 1054.39557 316.906151 
" clip-path="url(#pd894f9748f)" style="fill: none; stroke-dasharray: 0.8,1.32; stroke-dashoffset: 0; stroke: #b0b0b0; stroke-opacity: 0.4; stroke-width: 0.8"/>
     </g>
     <g id="line2d_51">
      <g>
       <use xlink:href="#me90594bd09" x="605.1525" y="316.906151" style="stroke: #000000"/>
      </g>
     </g>
     <g id="text_28">
      <!-- 40 -->
      <g transform="translate(588.9275 320.705369) scale(0.1 -0.1)">
       <use xlink:href="#DejaVuSans-34"/>
       <use xlink:href="#DejaVuSans-30" x="63.623047"/>
      </g>
     </g>
    </g>
    <g id="ytick_10">
     <g id="line2d_52">
      <path d="M 584.73236 234.989787 
L 1054.39557 234.989787 
" clip-path="url(#pd894f9748f)" style="fill: none; stroke-dasharray: 0.8,1.32; stroke-dashoffset: 0; stroke: #b0b0b0; stroke-opacity: 0.4; stroke-width: 0.8"/>
     </g>
     <g id="line2d_53">
      <g>
       <use xlink:href="#me90594bd09" x="605.1525" y="234.989787" style="stroke: #000000"/>
      </g>
     </g>
     <g id="text_29">
      <!-- 60 -->
      <g transform="translate(588.9275 238.789006) scale(0.1 -0.1)">
       <use xlink:href="#DejaVuSans-36"/>
       <use xlink:href="#DejaVuSans-30" x="63.623047"/>
      </g>
     </g>
    </g>
    <g id="ytick_11">
     <g id="line2d_54">
      <path d="M 584.73236 153.073423 
L 1054.39557 153.073423 
" clip-path="url(#pd894f9748f)" style="fill: none; stroke-dasharray: 0.8,1.32; stroke-dashoffset: 0; stroke: #b0b0b0; stroke-opacity: 0.4; stroke-width: 0.8"/>
     </g>
     <g id="line2d_55">
      <g>
       <use xlink:href="#me90594bd09" x="605.1525" y="153.073423" style="stroke: #000000"/>
      </g>
     </g>
     <g id="text_30">
      <!-- 80 -->
      <g transform="translate(588.9275 156.872642) scale(0.1 -0.1)">
       <use xlink:href="#DejaVuSans-38"/>
       <use xlink:href="#DejaVuSans-30" x="63.623047"/>
      </g>
     </g>
    </g>
    <g id="ytick_12">
     <g id="line2d_56">
      <path d="M 584.73236 71.15706 
L 1054.39557 71.15706 
" clip-path="url(#pd894f9748f)" style="fill: none; stroke-dasharray: 0.8,1.32; stroke-dashoffset: 0; stroke: #b0b0b0; stroke-opacity: 0.4; stroke-width: 0.8"/>
     </g>
     <g id="line2d_57">
      <g>
       <use xlink:href="#me90594bd09" x="605.1525" y="71.15706" style="stroke: #000000"/>
      </g>
     </g>
     <g id="text_31">
      <!-- 100 -->
      <g transform="translate(582.565 74.956278) scale(0.1 -0.1)">
       <use xlink:href="#DejaVuSans-31"/>
       <use xlink:href="#DejaVuSans-30" x="63.623047"/>
       <use xlink:href="#DejaVuSans-30" x="127.246094"/>
      </g>
     </g>
    </g>
    <g id="text_32">
     <!-- p ($) -->
     <g transform="translate(552.48 48.182344) scale(0.12 -0.12)">
      <use xlink:href="#DejaVuSans-Bold-70"/>
      <use xlink:href="#DejaVuSans-Bold-20" x="71.582031"/>
      <use xlink:href="#DejaVuSans-Bold-28" x="106.396484"/>
      <use xlink:href="#DejaVuSans-Bold-24" x="152.099609"/>
      <use xlink:href="#DejaVuSans-Bold-29" x="221.679688"/>
     </g>
    </g>
   </g>
   <g id="line2d_58">
    <path d="M 1013.555291 480.738878 
L 605.1525 71.15706 
L 605.1525 71.15706 
" clip-path="url(#pd894f9748f)" style="fill: none; stroke: #c0392b; stroke-width: 3; stroke-linecap: square"/>
   </g>
   <g id="line2d_59">
    <path d="M 605.1525 480.738878 
L 605.1525 379.887073 
L 606.178638 377.828873 
L 1217.756687 71.15706 
L 1217.756687 71.15706 
" clip-path="url(#pd894f9748f)" style="fill: none; stroke: #2980b9; stroke-width: 3; stroke-linecap: square"/>
   </g>
   <g id="line2d_60">
    <path d="M 645.992779 480.738878 
L 1462.798361 71.15706 
L 1462.798361 71.15706 
" clip-path="url(#pd894f9748f)" style="fill: none; stroke-dasharray: 11.1,4.8; stroke-dashoffset: 0; stroke: #2980b9; stroke-width: 3"/>
   </g>
   <g id="line2d_61">
    <g>
     <use xlink:href="#m7e5c001cb9" x="1054.39557" y="480.738878" style="stroke: #000000; stroke-linejoin: miter"/>
    </g>
   </g>
   <g id="line2d_62">
    <g>
     <use xlink:href="#mc6e6a8356d" x="605.1525" y="50.677969" style="stroke: #000000; stroke-linejoin: miter"/>
    </g>
   </g>
   <g id="patch_9">
    <path d="M 605.1525 501.217969 
L 605.1525 50.677969 
" style="fill: none; stroke: #000000; stroke-width: 1.4; stroke-linejoin: miter; stroke-linecap: square"/>
   </g>
   <g id="patch_10">
    <path d="M 584.73236 480.738878 
L 1054.39557 480.738878 
" style="fill: none; stroke: #000000; stroke-width: 1.4; stroke-linejoin: miter; stroke-linecap: square"/>
   </g>
   <g id="patch_11">
    <path d="M 891.034454 353.405996 
Q 891.034454 296.429249 891.034454 239.452501 
" style="fill: none; stroke: #27ae60; stroke-width: 2.2; stroke-linecap: round"/>
    <path d="M 893.434454 348.605996 
L 891.034454 353.405996 
L 888.634454 348.605996 
" style="fill: none; stroke: #27ae60; stroke-width: 2.2; stroke-linecap: round"/>
    <path d="M 888.634454 244.252501 
L 891.034454 239.452501 
L 893.434454 244.252501 
" style="fill: none; stroke: #27ae60; stroke-width: 2.2; stroke-linecap: round"/>
   </g>
   <g id="text_33">
    <!-- (b) Subvención $30 → Q = 700 -->
    <g transform="translate(709.42959 38.677969) scale(0.13 -0.13)">
     <defs>
      <path id="DejaVuSans-Bold-53" d="M 3834 4519 
L 3834 3531 
Q 3450 3703 3084 3790 
Q 2719 3878 2394 3878 
Q 1963 3878 1756 3759 
Q 1550 3641 1550 3391 
Q 1550 3203 1689 3098 
Q 1828 2994 2194 2919 
L 2706 2816 
Q 3484 2659 3812 2340 
Q 4141 2022 4141 1434 
Q 4141 663 3683 286 
Q 3225 -91 2284 -91 
Q 1841 -91 1394 -6 
Q 947 78 500 244 
L 500 1259 
Q 947 1022 1364 901 
Q 1781 781 2169 781 
Q 2563 781 2772 912 
Q 2981 1044 2981 1288 
Q 2981 1506 2839 1625 
Q 2697 1744 2272 1838 
L 1806 1941 
Q 1106 2091 782 2419 
Q 459 2747 459 3303 
Q 459 4000 909 4375 
Q 1359 4750 2203 4750 
Q 2588 4750 2994 4692 
Q 3400 4634 3834 4519 
z
" transform="scale(0.015625)"/>
      <path id="DejaVuSans-Bold-76" d="M 97 3500 
L 1216 3500 
L 2088 1081 
L 2956 3500 
L 4078 3500 
L 2700 0 
L 1472 0 
L 97 3500 
z
" transform="scale(0.015625)"/>
      <path id="DejaVuSans-Bold-6e" d="M 4056 2131 
L 4056 0 
L 2931 0 
L 2931 347 
L 2931 1631 
Q 2931 2084 2911 2256 
Q 2891 2428 2841 2509 
Q 2775 2619 2662 2680 
Q 2550 2741 2406 2741 
Q 2056 2741 1856 2470 
Q 1656 2200 1656 1722 
L 1656 0 
L 538 0 
L 538 3500 
L 1656 3500 
L 1656 2988 
Q 1909 3294 2193 3439 
Q 2478 3584 2822 3584 
Q 3428 3584 3742 3212 
Q 4056 2841 4056 2131 
z
" transform="scale(0.015625)"/>
      <path id="DejaVuSans-Bold-63" d="M 3366 3391 
L 3366 2478 
Q 3138 2634 2908 2709 
Q 2678 2784 2431 2784 
Q 1963 2784 1702 2511 
Q 1441 2238 1441 1747 
Q 1441 1256 1702 982 
Q 1963 709 2431 709 
Q 2694 709 2930 787 
Q 3166 866 3366 1019 
L 3366 103 
Q 3103 6 2833 -42 
Q 2563 -91 2291 -91 
Q 1344 -91 809 395 
Q 275 881 275 1747 
Q 275 2613 809 3098 
Q 1344 3584 2291 3584 
Q 2566 3584 2833 3536 
Q 3100 3488 3366 3391 
z
" transform="scale(0.015625)"/>
      <path id="DejaVuSans-Bold-f3" d="M 2203 2784 
Q 1831 2784 1636 2517 
Q 1441 2250 1441 1747 
Q 1441 1244 1636 976 
Q 1831 709 2203 709 
Q 2569 709 2762 976 
Q 2956 1244 2956 1747 
Q 2956 2250 2762 2517 
Q 2569 2784 2203 2784 
z
M 2203 3584 
Q 3106 3584 3614 3096 
Q 4122 2609 4122 1747 
Q 4122 884 3614 396 
Q 3106 -91 2203 -91 
Q 1297 -91 786 396 
Q 275 884 275 1747 
Q 275 2609 786 3096 
Q 1297 3584 2203 3584 
z
M 2694 5119 
L 3578 5119 
L 2425 3944 
L 1813 3944 
L 2694 5119 
z
" transform="scale(0.015625)"/>
      <path id="DejaVuSans-Bold-33" d="M 2981 2516 
Q 3453 2394 3698 2092 
Q 3944 1791 3944 1325 
Q 3944 631 3412 270 
Q 2881 -91 1863 -91 
Q 1503 -91 1142 -33 
Q 781 25 428 141 
L 428 1069 
Q 766 900 1098 814 
Q 1431 728 1753 728 
Q 2231 728 2486 893 
Q 2741 1059 2741 1369 
Q 2741 1688 2480 1852 
Q 2219 2016 1709 2016 
L 1228 2016 
L 1228 2791 
L 1734 2791 
Q 2188 2791 2409 2933 
Q 2631 3075 2631 3366 
Q 2631 3634 2415 3781 
Q 2200 3928 1806 3928 
Q 1516 3928 1219 3862 
Q 922 3797 628 3669 
L 628 4550 
Q 984 4650 1334 4700 
Q 1684 4750 2022 4750 
Q 2931 4750 3382 4451 
Q 3834 4153 3834 3553 
Q 3834 3144 3618 2883 
Q 3403 2622 2981 2516 
z
" transform="scale(0.015625)"/>
      <path id="DejaVuSans-Bold-2192" d="M 5050 2225 
L 5050 1788 
L 3822 559 
L 3369 1013 
L 3988 1631 
L 366 1631 
L 366 2381 
L 3988 2381 
L 3369 3000 
L 3822 3453 
L 5050 2225 
z
" transform="scale(0.015625)"/>
      <path id="DejaVuSans-Bold-37" d="M 428 4666 
L 3944 4666 
L 3944 3988 
L 2125 0 
L 953 0 
L 2675 3781 
L 428 3781 
L 428 4666 
z
" transform="scale(0.015625)"/>
     </defs>
     <use xlink:href="#DejaVuSans-Bold-28"/>
     <use xlink:href="#DejaVuSans-Bold-62" x="45.703125"/>
     <use xlink:href="#DejaVuSans-Bold-29" x="117.285156"/>
     <use xlink:href="#DejaVuSans-Bold-20" x="162.988281"/>
     <use xlink:href="#DejaVuSans-Bold-53" x="197.802734"/>
     <use xlink:href="#DejaVuSans-Bold-75" x="269.824219"/>
     <use xlink:href="#DejaVuSans-Bold-62" x="341.015625"/>
     <use xlink:href="#DejaVuSans-Bold-76" x="412.597656"/>
     <use xlink:href="#DejaVuSans-Bold-65" x="477.783203"/>
     <use xlink:href="#DejaVuSans-Bold-6e" x="545.605469"/>
     <use xlink:href="#DejaVuSans-Bold-63" x="616.796875"/>
     <use xlink:href="#DejaVuSans-Bold-69" x="676.074219"/>
     <use xlink:href="#DejaVuSans-Bold-f3" x="710.351562"/>
     <use xlink:href="#DejaVuSans-Bold-6e" x="779.052734"/>
     <use xlink:href="#DejaVuSans-Bold-20" x="850.244141"/>
     <use xlink:href="#DejaVuSans-Bold-24" x="885.058594"/>
     <use xlink:href="#DejaVuSans-Bold-33" x="954.638672"/>
     <use xlink:href="#DejaVuSans-Bold-30" x="1024.21875"/>
     <use xlink:href="#DejaVuSans-Bold-20" x="1093.798828"/>
     <use xlink:href="#DejaVuSans-Bold-2192" x="1128.613281"/>
     <use xlink:href="#DejaVuSans-Bold-20" x="1212.402344"/>
     <use xlink:href="#DejaVuSans-Bold-51" x="1247.216797"/>
     <use xlink:href="#DejaVuSans-Bold-20" x="1332.226562"/>
     <use xlink:href="#DejaVuSans-Bold-3d" x="1367.041016"/>
     <use xlink:href="#DejaVuSans-Bold-20" x="1450.830078"/>
     <use xlink:href="#DejaVuSans-Bold-37" x="1485.644531"/>
     <use xlink:href="#DejaVuSans-Bold-30" x="1555.224609"/>
     <use xlink:href="#DejaVuSans-Bold-30" x="1624.804688"/>
    </g>
   </g>
   <g id="legend_2">
    <g id="patch_12">
     <path d="M 591.03236 496.717969 
L 713.976579 496.717969 
Q 715.776579 496.717969 715.776579 494.917969 
L 715.776579 456.187031 
Q 715.776579 454.387031 713.976579 454.387031 
L 591.03236 454.387031 
Q 589.23236 454.387031 589.23236 456.187031 
L 589.23236 494.917969 
Q 589.23236 496.717969 591.03236 496.717969 
z
" style="fill: #ffffff; opacity: 0.8; stroke: #cccccc; stroke-linejoin: miter"/>
    </g>
    <g id="line2d_63">
     <path d="M 592.83236 461.675625 
L 601.83236 461.675625 
L 610.83236 461.675625 
" style="fill: none; stroke: #c0392b; stroke-width: 3; stroke-linecap: square"/>
    </g>
    <g id="text_34">
     <!-- D -->
     <g transform="translate(618.03236 464.825625) scale(0.09 -0.09)">
      <use xlink:href="#DejaVuSans-44"/>
     </g>
    </g>
    <g id="line2d_64">
     <path d="M 592.83236 474.885938 
L 601.83236 474.885938 
L 610.83236 474.885938 
" style="fill: none; stroke: #2980b9; stroke-width: 3; stroke-linecap: square"/>
    </g>
    <g id="text_35">
     <!-- S -->
     <g transform="translate(618.03236 478.035937) scale(0.09 -0.09)">
      <use xlink:href="#DejaVuSans-53"/>
     </g>
    </g>
    <g id="line2d_65">
     <path d="M 592.83236 488.09625 
L 601.83236 488.09625 
L 610.83236 488.09625 
" style="fill: none; stroke-dasharray: 11.1,4.8; stroke-dashoffset: 0; stroke: #2980b9; stroke-width: 3"/>
    </g>
    <g id="text_36">
     <!-- S' (con subsidio $30) -->
     <g transform="translate(618.03236 491.24625) scale(0.09 -0.09)">
      <defs>
       <path id="DejaVuSans-27" d="M 1147 4666 
L 1147 2931 
L 616 2931 
L 616 4666 
L 1147 4666 
z
" transform="scale(0.015625)"/>
       <path id="DejaVuSans-28" d="M 1984 4856 
Q 1566 4138 1362 3434 
Q 1159 2731 1159 2009 
Q 1159 1288 1364 580 
Q 1569 -128 1984 -844 
L 1484 -844 
Q 1016 -109 783 600 
Q 550 1309 550 2009 
Q 550 2706 781 3412 
Q 1013 4119 1484 4856 
L 1984 4856 
z
" transform="scale(0.015625)"/>
       <path id="DejaVuSans-63" d="M 3122 3366 
L 3122 2828 
Q 2878 2963 2633 3030 
Q 2388 3097 2138 3097 
Q 1578 3097 1268 2742 
Q 959 2388 959 1747 
Q 959 1106 1268 751 
Q 1578 397 2138 397 
Q 2388 397 2633 464 
Q 2878 531 3122 666 
L 3122 134 
Q 2881 22 2623 -34 
Q 2366 -91 2075 -91 
Q 1284 -91 818 406 
Q 353 903 353 1747 
Q 353 2603 823 3093 
Q 1294 3584 2113 3584 
Q 2378 3584 2631 3529 
Q 2884 3475 3122 3366 
z
" transform="scale(0.015625)"/>
       <path id="DejaVuSans-6f" d="M 1959 3097 
Q 1497 3097 1228 2736 
Q 959 2375 959 1747 
Q 959 1119 1226 758 
Q 1494 397 1959 397 
Q 2419 397 2687 759 
Q 2956 1122 2956 1747 
Q 2956 2369 2687 2733 
Q 2419 3097 1959 3097 
z
M 1959 3584 
Q 2709 3584 3137 3096 
Q 3566 2609 3566 1747 
Q 3566 888 3137 398 
Q 2709 -91 1959 -91 
Q 1206 -91 779 398 
Q 353 888 353 1747 
Q 353 2609 779 3096 
Q 1206 3584 1959 3584 
z
" transform="scale(0.015625)"/>
       <path id="DejaVuSans-6e" d="M 3513 2113 
L 3513 0 
L 2938 0 
L 2938 2094 
Q 2938 2591 2744 2837 
Q 2550 3084 2163 3084 
Q 1697 3084 1428 2787 
Q 1159 2491 1159 1978 
L 1159 0 
L 581 0 
L 581 3500 
L 1159 3500 
L 1159 2956 
Q 1366 3272 1645 3428 
Q 1925 3584 2291 3584 
Q 2894 3584 3203 3211 
Q 3513 2838 3513 2113 
z
" transform="scale(0.015625)"/>
       <path id="DejaVuSans-73" d="M 2834 3397 
L 2834 2853 
Q 2591 2978 2328 3040 
Q 2066 3103 1784 3103 
Q 1356 3103 1142 2972 
Q 928 2841 928 2578 
Q 928 2378 1081 2264 
Q 1234 2150 1697 2047 
L 1894 2003 
Q 2506 1872 2764 1633 
Q 3022 1394 3022 966 
Q 3022 478 2636 193 
Q 2250 -91 1575 -91 
Q 1294 -91 989 -36 
Q 684 19 347 128 
L 347 722 
Q 666 556 975 473 
Q 1284 391 1588 391 
Q 1994 391 2212 530 
Q 2431 669 2431 922 
Q 2431 1156 2273 1281 
Q 2116 1406 1581 1522 
L 1381 1569 
Q 847 1681 609 1914 
Q 372 2147 372 2553 
Q 372 3047 722 3315 
Q 1072 3584 1716 3584 
Q 2034 3584 2315 3537 
Q 2597 3491 2834 3397 
z
" transform="scale(0.015625)"/>
       <path id="DejaVuSans-75" d="M 544 1381 
L 544 3500 
L 1119 3500 
L 1119 1403 
Q 1119 906 1312 657 
Q 1506 409 1894 409 
Q 2359 409 2629 706 
Q 2900 1003 2900 1516 
L 2900 3500 
L 3475 3500 
L 3475 0 
L 2900 0 
L 2900 538 
Q 2691 219 2414 64 
Q 2138 -91 1772 -91 
Q 1169 -91 856 284 
Q 544 659 544 1381 
z
M 1991 3584 
L 1991 3584 
z
" transform="scale(0.015625)"/>
       <path id="DejaVuSans-62" d="M 3116 1747 
Q 3116 2381 2855 2742 
Q 2594 3103 2138 3103 
Q 1681 3103 1420 2742 
Q 1159 2381 1159 1747 
Q 1159 1113 1420 752 
Q 1681 391 2138 391 
Q 2594 391 2855 752 
Q 3116 1113 3116 1747 
z
M 1159 2969 
Q 1341 3281 1617 3432 
Q 1894 3584 2278 3584 
Q 2916 3584 3314 3078 
Q 3713 2572 3713 1747 
Q 3713 922 3314 415 
Q 2916 -91 2278 -91 
Q 1894 -91 1617 61 
Q 1341 213 1159 525 
L 1159 0 
L 581 0 
L 581 4863 
L 1159 4863 
L 1159 2969 
z
" transform="scale(0.015625)"/>
       <path id="DejaVuSans-69" d="M 603 3500 
L 1178 3500 
L 1178 0 
L 603 0 
L 603 3500 
z
M 603 4863 
L 1178 4863 
L 1178 4134 
L 603 4134 
L 603 4863 
z
" transform="scale(0.015625)"/>
       <path id="DejaVuSans-64" d="M 2906 2969 
L 2906 4863 
L 3481 4863 
L 3481 0 
L 2906 0 
L 2906 525 
Q 2725 213 2448 61 
Q 2172 -91 1784 -91 
Q 1150 -91 751 415 
Q 353 922 353 1747 
Q 353 2572 751 3078 
Q 1150 3584 1784 3584 
Q 2172 3584 2448 3432 
Q 2725 3281 2906 2969 
z
M 947 1747 
Q 947 1113 1208 752 
Q 1469 391 1925 391 
Q 2381 391 2643 752 
Q 2906 1113 2906 1747 
Q 2906 2381 2643 2742 
Q 2381 3103 1925 3103 
Q 1469 3103 1208 2742 
Q 947 2381 947 1747 
z
" transform="scale(0.015625)"/>
       <path id="DejaVuSans-24" d="M 2163 -941 
L 1850 -941 
L 1847 0 
Q 1519 6 1191 76 
Q 863 147 531 288 
L 531 850 
Q 850 650 1176 548 
Q 1503 447 1850 444 
L 1850 1869 
Q 1159 1981 845 2250 
Q 531 2519 531 2988 
Q 531 3497 872 3790 
Q 1213 4084 1850 4128 
L 1850 4863 
L 2163 4863 
L 2163 4138 
Q 2453 4125 2725 4076 
Q 2997 4028 3256 3944 
L 3256 3397 
Q 2997 3528 2723 3600 
Q 2450 3672 2163 3684 
L 2163 2350 
Q 2872 2241 3206 1959 
Q 3541 1678 3541 1191 
Q 3541 663 3186 358 
Q 2831 53 2163 6 
L 2163 -941 
z
M 1850 2406 
L 1850 3688 
Q 1488 3647 1297 3481 
Q 1106 3316 1106 3041 
Q 1106 2772 1282 2622 
Q 1459 2472 1850 2406 
z
M 2163 1806 
L 2163 453 
Q 2559 506 2761 678 
Q 2963 850 2963 1131 
Q 2963 1406 2770 1568 
Q 2578 1731 2163 1806 
z
" transform="scale(0.015625)"/>
       <path id="DejaVuSans-33" d="M 2597 2516 
Q 3050 2419 3304 2112 
Q 3559 1806 3559 1356 
Q 3559 666 3084 287 
Q 2609 -91 1734 -91 
Q 1441 -91 1130 -33 
Q 819 25 488 141 
L 488 750 
Q 750 597 1062 519 
Q 1375 441 1716 441 
Q 2309 441 2620 675 
Q 2931 909 2931 1356 
Q 2931 1769 2642 2001 
Q 2353 2234 1838 2234 
L 1294 2234 
L 1294 2753 
L 1863 2753 
Q 2328 2753 2575 2939 
Q 2822 3125 2822 3475 
Q 2822 3834 2567 4026 
Q 2313 4219 1838 4219 
Q 1578 4219 1281 4162 
Q 984 4106 628 3988 
L 628 4550 
Q 988 4650 1302 4700 
Q 1616 4750 1894 4750 
Q 2613 4750 3031 4423 
Q 3450 4097 3450 3541 
Q 3450 3153 3228 2886 
Q 3006 2619 2597 2516 
z
" transform="scale(0.015625)"/>
       <path id="DejaVuSans-29" d="M 513 4856 
L 1013 4856 
Q 1481 4119 1714 3412 
Q 1947 2706 1947 2009 
Q 1947 1309 1714 600 
Q 1481 -109 1013 -844 
L 513 -844 
Q 928 -128 1133 580 
Q 1338 1288 1338 2009 
Q 1338 2731 1133 3434 
Q 928 4138 513 4856 
z
" transform="scale(0.015625)"/>
      </defs>
      <use xlink:href="#DejaVuSans-53"/>
      <use xlink:href="#DejaVuSans-27" x="63.476562"/>
      <use xlink:href="#DejaVuSans-20" x="90.966797"/>
      <use xlink:href="#DejaVuSans-28" x="122.753906"/>
      <use xlink:href="#DejaVuSans-63" x="161.767578"/>
      <use xlink:href="#DejaVuSans-6f" x="216.748047"/>
      <use xlink:href="#DejaVuSans-6e" x="277.929688"/>
      <use xlink:href="#DejaVuSans-20" x="341.308594"/>
      <use xlink:href="#DejaVuSans-73" x="373.095703"/>
      <use xlink:href="#DejaVuSans-75" x="425.195312"/>
      <use xlink:href="#DejaVuSans-62" x="488.574219"/>
      <use xlink:href="#DejaVuSans-73" x="552.050781"/>
      <use xlink:href="#DejaVuSans-69" x="604.150391"/>
      <use xlink:href="#DejaVuSans-64" x="631.933594"/>
      <use xlink:href="#DejaVuSans-69" x="695.410156"/>
      <use xlink:href="#DejaVuSans-6f" x="723.193359"/>
      <use xlink:href="#DejaVuSans-20" x="784.375"/>
      <use xlink:href="#DejaVuSans-24" x="816.162109"/>
      <use xlink:href="#DejaVuSans-33" x="879.785156"/>
      <use xlink:href="#DejaVuSans-30" x="943.408203"/>
      <use xlink:href="#DejaVuSans-29" x="1007.03125"/>
     </g>
    </g>
   </g>
   <g id="line2d_66">
    <defs>
     <path id="m7389244919" d="M 0 6 
C 1.591219 6 3.117479 5.367802 4.242641 4.242641 
C 5.367802 3.117479 6 1.591219 6 0 
C 6 -1.591219 5.367802 -3.117479 4.242641 -4.242641 
C 3.117479 -5.367802 1.591219 -6 0 -6 
C -1.591219 -6 -3.117479 -5.367802 -4.242641 -4.242641 
C -5.367802 -3.117479 -6 -1.591219 -6 0 
C -6 1.591219 -5.367802 3.117479 -4.242641 4.242641 
C -3.117479 5.367802 -1.591219 6 0 6 
z
" style="stroke: #27ae60"/>
    </defs>
    <g clip-path="url(#pd894f9748f)">
     <use xlink:href="#m7389244919" x="891.034454" y="357.864332" style="fill: #27ae60; stroke: #27ae60"/>
    </g>
   </g>
   <g id="line2d_67">
    <g clip-path="url(#pd894f9748f)">
     <use xlink:href="#m7389244919" x="891.034454" y="234.989787" style="fill: #27ae60; stroke: #27ae60"/>
    </g>
   </g>
   <g id="text_37">
    <g id="patch_13">
     <path d="M 911.454593 309.865028 
L 950.062406 309.865028 
Q 953.062406 309.865028 953.062406 306.865028 
L 953.062406 285.989091 
Q 953.062406 282.989091 950.062406 282.989091 
L 911.454593 282.989091 
Q 908.454593 282.989091 908.454593 285.989091 
L 908.454593 306.865028 
Q 908.454593 309.865028 911.454593 309.865028 
z
" style="fill: #fffbeb; opacity: 0.97; stroke: #f39c12; stroke-width: 0.7; stroke-linejoin: miter"/>
    </g>
    <!-- subv = -->
    <g style="fill: #27ae60" transform="translate(911.454593 293.587528) scale(0.1 -0.1)">
     <use xlink:href="#DejaVuSans-Bold-73"/>
     <use xlink:href="#DejaVuSans-Bold-75" x="59.521484"/>
     <use xlink:href="#DejaVuSans-Bold-62" x="130.712891"/>
     <use xlink:href="#DejaVuSans-Bold-76" x="202.294922"/>
     <use xlink:href="#DejaVuSans-Bold-20" x="267.480469"/>
     <use xlink:href="#DejaVuSans-Bold-3d" x="302.294922"/>
    </g>
    <!-- $30/u -->
    <g style="fill: #27ae60" transform="translate(911.454593 304.785341) scale(0.1 -0.1)">
     <defs>
      <path id="DejaVuSans-Bold-2f" d="M 1644 4666 
L 2338 4666 
L 691 -594 
L 0 -594 
L 1644 4666 
z
" transform="scale(0.015625)"/>
     </defs>
     <use xlink:href="#DejaVuSans-Bold-24"/>
     <use xlink:href="#DejaVuSans-Bold-33" x="69.580078"/>
     <use xlink:href="#DejaVuSans-Bold-30" x="139.160156"/>
     <use xlink:href="#DejaVuSans-Bold-2f" x="208.740234"/>
     <use xlink:href="#DejaVuSans-Bold-75" x="245.263672"/>
    </g>
   </g>
   <g id="text_38">
    <g id="patch_14">
     <path d="M 866.750079 396.48869 
L 915.318829 396.48869 
Q 918.818829 396.48869 918.818829 392.98869 
L 918.818829 383.03244 
Q 918.818829 379.53244 915.318829 379.53244 
L 866.750079 379.53244 
Q 863.250079 379.53244 863.250079 383.03244 
L 863.250079 392.98869 
Q 863.250079 396.48869 866.750079 396.48869 
z
" style="fill: #ffffff; opacity: 0.97; stroke: #bdc3c7; stroke-width: 0.8; stroke-linejoin: miter"/>
    </g>
    <!-- p_d=$30 -->
    <g style="fill: #c0392b" transform="translate(866.750079 390.630878) scale(0.1 -0.1)">
     <defs>
      <path id="DejaVuSans-Bold-5f" d="M 3200 -916 
L 3200 -1509 
L 0 -1509 
L 0 -916 
L 3200 -916 
z
" transform="scale(0.015625)"/>
      <path id="DejaVuSans-Bold-64" d="M 2919 2988 
L 2919 4863 
L 4044 4863 
L 4044 0 
L 2919 0 
L 2919 506 
Q 2688 197 2409 53 
Q 2131 -91 1766 -91 
Q 1119 -91 703 423 
Q 288 938 288 1747 
Q 288 2556 703 3070 
Q 1119 3584 1766 3584 
Q 2128 3584 2408 3439 
Q 2688 3294 2919 2988 
z
M 2181 722 
Q 2541 722 2730 984 
Q 2919 1247 2919 1747 
Q 2919 2247 2730 2509 
Q 2541 2772 2181 2772 
Q 1825 2772 1636 2509 
Q 1447 2247 1447 1747 
Q 1447 1247 1636 984 
Q 1825 722 2181 722 
z
" transform="scale(0.015625)"/>
     </defs>
     <use xlink:href="#DejaVuSans-Bold-70"/>
     <use xlink:href="#DejaVuSans-Bold-5f" x="71.582031"/>
     <use xlink:href="#DejaVuSans-Bold-64" x="121.582031"/>
     <use xlink:href="#DejaVuSans-Bold-3d" x="193.164062"/>
     <use xlink:href="#DejaVuSans-Bold-24" x="276.953125"/>
     <use xlink:href="#DejaVuSans-Bold-33" x="346.533203"/>
     <use xlink:href="#DejaVuSans-Bold-30" x="416.113281"/>
    </g>
   </g>
   <g id="text_39">
    <g id="patch_15">
     <path d="M 867.06961 208.081054 
L 914.999297 208.081054 
Q 918.499297 208.081054 918.499297 204.581054 
L 918.499297 194.624804 
Q 918.499297 191.124804 914.999297 191.124804 
L 867.06961 191.124804 
Q 863.56961 191.124804 863.56961 194.624804 
L 863.56961 204.581054 
Q 863.56961 208.081054 867.06961 208.081054 
z
" style="fill: #ffffff; opacity: 0.97; stroke: #bdc3c7; stroke-width: 0.8; stroke-linejoin: miter"/>
    </g>
    <!-- p_v=$60 -->
    <g style="fill: #2980b9" transform="translate(867.06961 202.223241) scale(0.1 -0.1)">
     <defs>
      <path id="DejaVuSans-Bold-36" d="M 2316 2303 
Q 2000 2303 1842 2098 
Q 1684 1894 1684 1484 
Q 1684 1075 1842 870 
Q 2000 666 2316 666 
Q 2634 666 2792 870 
Q 2950 1075 2950 1484 
Q 2950 1894 2792 2098 
Q 2634 2303 2316 2303 
z
M 3803 4544 
L 3803 3681 
Q 3506 3822 3243 3889 
Q 2981 3956 2731 3956 
Q 2194 3956 1894 3657 
Q 1594 3359 1544 2772 
Q 1750 2925 1990 3001 
Q 2231 3078 2516 3078 
Q 3231 3078 3670 2659 
Q 4109 2241 4109 1563 
Q 4109 813 3618 361 
Q 3128 -91 2303 -91 
Q 1394 -91 895 523 
Q 397 1138 397 2266 
Q 397 3422 980 4083 
Q 1563 4744 2578 4744 
Q 2900 4744 3203 4694 
Q 3506 4644 3803 4544 
z
" transform="scale(0.015625)"/>
     </defs>
     <use xlink:href="#DejaVuSans-Bold-70"/>
     <use xlink:href="#DejaVuSans-Bold-5f" x="71.582031"/>
     <use xlink:href="#DejaVuSans-Bold-76" x="121.582031"/>
     <use xlink:href="#DejaVuSans-Bold-3d" x="186.767578"/>
     <use xlink:href="#DejaVuSans-Bold-24" x="270.556641"/>
     <use xlink:href="#DejaVuSans-Bold-36" x="340.136719"/>
     <use xlink:href="#DejaVuSans-Bold-30" x="409.716797"/>
    </g>
   </g>
   <g id="text_40">
    <g id="patch_16">
     <path d="M 940.151731 118.194929 
L 1005.278293 118.194929 
Q 1009.278293 118.194929 1009.278293 114.194929 
L 1009.278293 82.121179 
Q 1009.278293 78.121179 1005.278293 78.121179 
L 940.151731 78.121179 
Q 936.151731 78.121179 936.151731 82.121179 
L 936.151731 114.194929 
Q 936.151731 118.194929 940.151731 118.194929 
z
" style="fill: #e8f8f5; opacity: 0.97; stroke: #16a085; stroke-linejoin: miter"/>
    </g>
    <!-- Costo fiscal -->
    <g style="fill: #7d3c98" transform="translate(940.151731 89.719616) scale(0.1 -0.1)">
     <defs>
      <path id="DejaVuSans-Bold-43" d="M 4288 256 
Q 3956 84 3597 -3 
Q 3238 -91 2847 -91 
Q 1681 -91 1000 561 
Q 319 1213 319 2328 
Q 319 3447 1000 4098 
Q 1681 4750 2847 4750 
Q 3238 4750 3597 4662 
Q 3956 4575 4288 4403 
L 4288 3438 
Q 3953 3666 3628 3772 
Q 3303 3878 2944 3878 
Q 2300 3878 1931 3465 
Q 1563 3053 1563 2328 
Q 1563 1606 1931 1193 
Q 2300 781 2944 781 
Q 3303 781 3628 887 
Q 3953 994 4288 1222 
L 4288 256 
z
" transform="scale(0.015625)"/>
      <path id="DejaVuSans-Bold-74" d="M 1759 4494 
L 1759 3500 
L 2913 3500 
L 2913 2700 
L 1759 2700 
L 1759 1216 
Q 1759 972 1856 886 
Q 1953 800 2241 800 
L 2816 800 
L 2816 0 
L 1856 0 
Q 1194 0 917 276 
Q 641 553 641 1216 
L 641 2700 
L 84 2700 
L 84 3500 
L 641 3500 
L 641 4494 
L 1759 4494 
z
" transform="scale(0.015625)"/>
      <path id="DejaVuSans-Bold-66" d="M 2841 4863 
L 2841 4128 
L 2222 4128 
Q 1984 4128 1890 4042 
Q 1797 3956 1797 3744 
L 1797 3500 
L 2753 3500 
L 2753 2700 
L 1797 2700 
L 1797 0 
L 678 0 
L 678 2700 
L 122 2700 
L 122 3500 
L 678 3500 
L 678 3744 
Q 678 4316 997 4589 
Q 1316 4863 1984 4863 
L 2841 4863 
z
" transform="scale(0.015625)"/>
     </defs>
     <use xlink:href="#DejaVuSans-Bold-43"/>
     <use xlink:href="#DejaVuSans-Bold-6f" x="73.388672"/>
     <use xlink:href="#DejaVuSans-Bold-73" x="142.089844"/>
     <use xlink:href="#DejaVuSans-Bold-74" x="201.611328"/>
     <use xlink:href="#DejaVuSans-Bold-6f" x="249.414062"/>
     <use xlink:href="#DejaVuSans-Bold-20" x="318.115234"/>
     <use xlink:href="#DejaVuSans-Bold-66" x="352.929688"/>
     <use xlink:href="#DejaVuSans-Bold-69" x="396.435547"/>
     <use xlink:href="#DejaVuSans-Bold-73" x="430.712891"/>
     <use xlink:href="#DejaVuSans-Bold-63" x="490.234375"/>
     <use xlink:href="#DejaVuSans-Bold-61" x="549.511719"/>
     <use xlink:href="#DejaVuSans-Bold-6c" x="616.992188"/>
    </g>
    <!-- = 30 × 700 -->
    <g style="fill: #7d3c98" transform="translate(941.718918 100.917429) scale(0.1 -0.1)">
     <defs>
      <path id="DejaVuSans-Bold-d7" d="M 4563 3359 
L 3206 2003 
L 4563 653 
L 4038 128 
L 2681 1478 
L 1325 128 
L 800 653 
L 2156 2003 
L 800 3359 
L 1325 3884 
L 2681 2528 
L 4038 3884 
L 4563 3359 
z
" transform="scale(0.015625)"/>
     </defs>
     <use xlink:href="#DejaVuSans-Bold-3d"/>
     <use xlink:href="#DejaVuSans-Bold-20" x="83.789062"/>
     <use xlink:href="#DejaVuSans-Bold-33" x="118.603516"/>
     <use xlink:href="#DejaVuSans-Bold-30" x="188.183594"/>
     <use xlink:href="#DejaVuSans-Bold-20" x="257.763672"/>
     <use xlink:href="#DejaVuSans-Bold-d7" x="292.578125"/>
     <use xlink:href="#DejaVuSans-Bold-20" x="376.367188"/>
     <use xlink:href="#DejaVuSans-Bold-37" x="411.181641"/>
     <use xlink:href="#DejaVuSans-Bold-30" x="480.761719"/>
     <use xlink:href="#DejaVuSans-Bold-30" x="550.341797"/>
    </g>
    <!-- = $21.000 -->
    <g style="fill: #7d3c98" transform="translate(944.011887 112.115241) scale(0.1 -0.1)">
     <defs>
      <path id="DejaVuSans-Bold-32" d="M 1844 884 
L 3897 884 
L 3897 0 
L 506 0 
L 506 884 
L 2209 2388 
Q 2438 2594 2547 2791 
Q 2656 2988 2656 3200 
Q 2656 3528 2436 3728 
Q 2216 3928 1850 3928 
Q 1569 3928 1234 3808 
Q 900 3688 519 3450 
L 519 4475 
Q 925 4609 1322 4679 
Q 1719 4750 2100 4750 
Q 2938 4750 3402 4381 
Q 3866 4013 3866 3353 
Q 3866 2972 3669 2642 
Q 3472 2313 2841 1759 
L 1844 884 
z
" transform="scale(0.015625)"/>
      <path id="DejaVuSans-Bold-31" d="M 750 831 
L 1813 831 
L 1813 3847 
L 722 3622 
L 722 4441 
L 1806 4666 
L 2950 4666 
L 2950 831 
L 4013 831 
L 4013 0 
L 750 0 
L 750 831 
z
" transform="scale(0.015625)"/>
      <path id="DejaVuSans-Bold-2e" d="M 653 1209 
L 1778 1209 
L 1778 0 
L 653 0 
L 653 1209 
z
" transform="scale(0.015625)"/>
     </defs>
     <use xlink:href="#DejaVuSans-Bold-3d"/>
     <use xlink:href="#DejaVuSans-Bold-20" x="83.789062"/>
     <use xlink:href="#DejaVuSans-Bold-24" x="118.603516"/>
     <use xlink:href="#DejaVuSans-Bold-32" x="188.183594"/>
     <use xlink:href="#DejaVuSans-Bold-31" x="257.763672"/>
     <use xlink:href="#DejaVuSans-Bold-2e" x="327.34375"/>
     <use xlink:href="#DejaVuSans-Bold-30" x="365.332031"/>
     <use xlink:href="#DejaVuSans-Bold-30" x="434.912109"/>
     <use xlink:href="#DejaVuSans-Bold-30" x="504.492188"/>
    </g>
   </g>
  </g>
  <g id="axes_3">
   <g id="patch_17">
    <path d="M 1108.41236 501.217969 
L 1578.07557 501.217969 
L 1578.07557 50.677969 
L 1108.41236 50.677969 
z
" style="fill: #ffffff"/>
   </g>
   <g id="matplotlib.axis_5">
    <g id="xtick_13">
     <g id="line2d_68">
      <path d="M 1128.8325 501.217969 
L 1128.8325 50.677969 
" clip-path="url(#p5ee6be2f44)" style="fill: none; stroke-dasharray: 0.8,1.32; stroke-dashoffset: 0; stroke: #b0b0b0; stroke-opacity: 0.4; stroke-width: 0.8"/>
     </g>
     <g id="line2d_69">
      <g>
       <use xlink:href="#m98bfb4df6d" x="1128.8325" y="473.059219" style="stroke: #000000"/>
      </g>
     </g>
     <g id="text_41">
      <!-- 0 -->
      <g transform="translate(1125.65125 484.157656) scale(0.1 -0.1)">
       <use xlink:href="#DejaVuSans-30"/>
      </g>
     </g>
    </g>
    <g id="xtick_14">
     <g id="line2d_70">
      <path d="M 1210.513058 501.217969 
L 1210.513058 50.677969 
" clip-path="url(#p5ee6be2f44)" style="fill: none; stroke-dasharray: 0.8,1.32; stroke-dashoffset: 0; stroke: #b0b0b0; stroke-opacity: 0.4; stroke-width: 0.8"/>
     </g>
     <g id="line2d_71">
      <g>
       <use xlink:href="#m98bfb4df6d" x="1210.513058" y="473.059219" style="stroke: #000000"/>
      </g>
     </g>
     <g id="text_42">
      <!-- 200 -->
      <g transform="translate(1200.969308 484.157656) scale(0.1 -0.1)">
       <use xlink:href="#DejaVuSans-32"/>
       <use xlink:href="#DejaVuSans-30" x="63.623047"/>
       <use xlink:href="#DejaVuSans-30" x="127.246094"/>
      </g>
     </g>
    </g>
    <g id="xtick_15">
     <g id="line2d_72">
      <path d="M 1292.193616 501.217969 
L 1292.193616 50.677969 
" clip-path="url(#p5ee6be2f44)" style="fill: none; stroke-dasharray: 0.8,1.32; stroke-dashoffset: 0; stroke: #b0b0b0; stroke-opacity: 0.4; stroke-width: 0.8"/>
     </g>
     <g id="line2d_73">
      <g>
       <use xlink:href="#m98bfb4df6d" x="1292.193616" y="473.059219" style="stroke: #000000"/>
      </g>
     </g>
     <g id="text_43">
      <!-- 400 -->
      <g transform="translate(1282.649866 484.157656) scale(0.1 -0.1)">
       <use xlink:href="#DejaVuSans-34"/>
       <use xlink:href="#DejaVuSans-30" x="63.623047"/>
       <use xlink:href="#DejaVuSans-30" x="127.246094"/>
      </g>
     </g>
    </g>
    <g id="xtick_16">
     <g id="line2d_74">
      <path d="M 1373.874175 501.217969 
L 1373.874175 50.677969 
" clip-path="url(#p5ee6be2f44)" style="fill: none; stroke-dasharray: 0.8,1.32; stroke-dashoffset: 0; stroke: #b0b0b0; stroke-opacity: 0.4; stroke-width: 0.8"/>
     </g>
     <g id="line2d_75">
      <g>
       <use xlink:href="#m98bfb4df6d" x="1373.874175" y="473.059219" style="stroke: #000000"/>
      </g>
     </g>
     <g id="text_44">
      <!-- 600 -->
      <g transform="translate(1364.330425 484.157656) scale(0.1 -0.1)">
       <use xlink:href="#DejaVuSans-36"/>
       <use xlink:href="#DejaVuSans-30" x="63.623047"/>
       <use xlink:href="#DejaVuSans-30" x="127.246094"/>
      </g>
     </g>
    </g>
    <g id="xtick_17">
     <g id="line2d_76">
      <path d="M 1455.554733 501.217969 
L 1455.554733 50.677969 
" clip-path="url(#p5ee6be2f44)" style="fill: none; stroke-dasharray: 0.8,1.32; stroke-dashoffset: 0; stroke: #b0b0b0; stroke-opacity: 0.4; stroke-width: 0.8"/>
     </g>
     <g id="line2d_77">
      <g>
       <use xlink:href="#m98bfb4df6d" x="1455.554733" y="473.059219" style="stroke: #000000"/>
      </g>
     </g>
     <g id="text_45">
      <!-- 800 -->
      <g transform="translate(1446.010983 484.157656) scale(0.1 -0.1)">
       <use xlink:href="#DejaVuSans-38"/>
       <use xlink:href="#DejaVuSans-30" x="63.623047"/>
       <use xlink:href="#DejaVuSans-30" x="127.246094"/>
      </g>
     </g>
    </g>
    <g id="xtick_18">
     <g id="line2d_78">
      <path d="M 1537.235291 501.217969 
L 1537.235291 50.677969 
" clip-path="url(#p5ee6be2f44)" style="fill: none; stroke-dasharray: 0.8,1.32; stroke-dashoffset: 0; stroke: #b0b0b0; stroke-opacity: 0.4; stroke-width: 0.8"/>
     </g>
     <g id="line2d_79">
      <g>
       <use xlink:href="#m98bfb4df6d" x="1537.235291" y="473.059219" style="stroke: #000000"/>
      </g>
     </g>
     <g id="text_46">
      <!-- 1000 -->
      <g transform="translate(1524.510291 484.157656) scale(0.1 -0.1)">
       <use xlink:href="#DejaVuSans-31"/>
       <use xlink:href="#DejaVuSans-30" x="63.623047"/>
       <use xlink:href="#DejaVuSans-30" x="127.246094"/>
       <use xlink:href="#DejaVuSans-30" x="190.869141"/>
      </g>
     </g>
    </g>
    <g id="text_47">
     <!-- Q (libros) -->
     <g transform="translate(1514.60682 493.355469) scale(0.12 -0.12)">
      <use xlink:href="#DejaVuSans-Bold-51"/>
      <use xlink:href="#DejaVuSans-Bold-20" x="85.009766"/>
      <use xlink:href="#DejaVuSans-Bold-28" x="119.824219"/>
      <use xlink:href="#DejaVuSans-Bold-6c" x="165.527344"/>
      <use xlink:href="#DejaVuSans-Bold-69" x="199.804688"/>
      <use xlink:href="#DejaVuSans-Bold-62" x="234.082031"/>
      <use xlink:href="#DejaVuSans-Bold-72" x="305.664062"/>
      <use xlink:href="#DejaVuSans-Bold-6f" x="354.980469"/>
      <use xlink:href="#DejaVuSans-Bold-73" x="423.681641"/>
      <use xlink:href="#DejaVuSans-Bold-29" x="483.203125"/>
     </g>
    </g>
   </g>
   <g id="matplotlib.axis_6">
    <g id="ytick_13">
     <g id="line2d_80">
      <path d="M 1108.41236 473.059219 
L 1578.07557 473.059219 
" clip-path="url(#p5ee6be2f44)" style="fill: none; stroke-dasharray: 0.8,1.32; stroke-dashoffset: 0; stroke: #b0b0b0; stroke-opacity: 0.4; stroke-width: 0.8"/>
     </g>
     <g id="line2d_81">
      <g>
       <use xlink:href="#me90594bd09" x="1128.8325" y="473.059219" style="stroke: #000000"/>
      </g>
     </g>
     <g id="text_48">
      <!-- 0 -->
      <g transform="translate(1118.97 476.858437) scale(0.1 -0.1)">
       <use xlink:href="#DejaVuSans-30"/>
      </g>
     </g>
    </g>
    <g id="ytick_14">
     <g id="line2d_82">
      <path d="M 1108.41236 392.605647 
L 1578.07557 392.605647 
" clip-path="url(#p5ee6be2f44)" style="fill: none; stroke-dasharray: 0.8,1.32; stroke-dashoffset: 0; stroke: #b0b0b0; stroke-opacity: 0.4; stroke-width: 0.8"/>
     </g>
     <g id="line2d_83">
      <g>
       <use xlink:href="#me90594bd09" x="1128.8325" y="392.605647" style="stroke: #000000"/>
      </g>
     </g>
     <g id="text_49">
      <!-- 20 -->
      <g transform="translate(1112.6075 396.404866) scale(0.1 -0.1)">
       <use xlink:href="#DejaVuSans-32"/>
       <use xlink:href="#DejaVuSans-30" x="63.623047"/>
      </g>
     </g>
    </g>
    <g id="ytick_15">
     <g id="line2d_84">
      <path d="M 1108.41236 312.152076 
L 1578.07557 312.152076 
" clip-path="url(#p5ee6be2f44)" style="fill: none; stroke-dasharray: 0.8,1.32; stroke-dashoffset: 0; stroke: #b0b0b0; stroke-opacity: 0.4; stroke-width: 0.8"/>
     </g>
     <g id="line2d_85">
      <g>
       <use xlink:href="#me90594bd09" x="1128.8325" y="312.152076" style="stroke: #000000"/>
      </g>
     </g>
     <g id="text_50">
      <!-- 40 -->
      <g transform="translate(1112.6075 315.951295) scale(0.1 -0.1)">
       <use xlink:href="#DejaVuSans-34"/>
       <use xlink:href="#DejaVuSans-30" x="63.623047"/>
      </g>
     </g>
    </g>
    <g id="ytick_16">
     <g id="line2d_86">
      <path d="M 1108.41236 231.698504 
L 1578.07557 231.698504 
" clip-path="url(#p5ee6be2f44)" style="fill: none; stroke-dasharray: 0.8,1.32; stroke-dashoffset: 0; stroke: #b0b0b0; stroke-opacity: 0.4; stroke-width: 0.8"/>
     </g>
     <g id="line2d_87">
      <g>
       <use xlink:href="#me90594bd09" x="1128.8325" y="231.698504" style="stroke: #000000"/>
      </g>
     </g>
     <g id="text_51">
      <!-- 60 -->
      <g transform="translate(1112.6075 235.497723) scale(0.1 -0.1)">
       <use xlink:href="#DejaVuSans-36"/>
       <use xlink:href="#DejaVuSans-30" x="63.623047"/>
      </g>
     </g>
    </g>
    <g id="ytick_17">
     <g id="line2d_88">
      <path d="M 1108.41236 151.244933 
L 1578.07557 151.244933 
" clip-path="url(#p5ee6be2f44)" style="fill: none; stroke-dasharray: 0.8,1.32; stroke-dashoffset: 0; stroke: #b0b0b0; stroke-opacity: 0.4; stroke-width: 0.8"/>
     </g>
     <g id="line2d_89">
      <g>
       <use xlink:href="#me90594bd09" x="1128.8325" y="151.244933" style="stroke: #000000"/>
      </g>
     </g>
     <g id="text_52">
      <!-- 80 -->
      <g transform="translate(1112.6075 155.044152) scale(0.1 -0.1)">
       <use xlink:href="#DejaVuSans-38"/>
       <use xlink:href="#DejaVuSans-30" x="63.623047"/>
      </g>
     </g>
    </g>
    <g id="ytick_18">
     <g id="line2d_90">
      <path d="M 1108.41236 70.791362 
L 1578.07557 70.791362 
" clip-path="url(#p5ee6be2f44)" style="fill: none; stroke-dasharray: 0.8,1.32; stroke-dashoffset: 0; stroke: #b0b0b0; stroke-opacity: 0.4; stroke-width: 0.8"/>
     </g>
     <g id="line2d_91">
      <g>
       <use xlink:href="#me90594bd09" x="1128.8325" y="70.791362" style="stroke: #000000"/>
      </g>
     </g>
     <g id="text_53">
      <!-- 100 -->
      <g transform="translate(1106.245 74.59058) scale(0.1 -0.1)">
       <use xlink:href="#DejaVuSans-31"/>
       <use xlink:href="#DejaVuSans-30" x="63.623047"/>
       <use xlink:href="#DejaVuSans-30" x="127.246094"/>
      </g>
     </g>
    </g>
    <g id="text_54">
     <!-- p ($) -->
     <g transform="translate(1076.16 48.182344) scale(0.12 -0.12)">
      <use xlink:href="#DejaVuSans-Bold-70"/>
      <use xlink:href="#DejaVuSans-Bold-20" x="71.582031"/>
      <use xlink:href="#DejaVuSans-Bold-28" x="106.396484"/>
      <use xlink:href="#DejaVuSans-Bold-24" x="152.099609"/>
      <use xlink:href="#DejaVuSans-Bold-29" x="221.679688"/>
     </g>
    </g>
   </g>
   <g id="line2d_92">
    <path d="M 1537.235291 473.059219 
L 1128.8325 70.791362 
L 1128.8325 70.791362 
" clip-path="url(#p5ee6be2f44)" style="fill: none; stroke: #c0392b; stroke-width: 3; stroke-linecap: square"/>
   </g>
   <g id="line2d_93">
    <path d="M 1128.8325 473.059219 
L 1128.8325 374.008339 
L 1129.858638 371.986893 
L 1611.87557 134.598801 
L 1611.87557 134.598801 
" clip-path="url(#p5ee6be2f44)" style="fill: none; stroke: #2980b9; stroke-width: 3; stroke-linecap: square"/>
   </g>
   <g id="line2d_94">
    <path d="M 1108.41236 352.378862 
L 1578.07557 352.378862 
" clip-path="url(#p5ee6be2f44)" style="fill: none; stroke-dasharray: 9.25,4; stroke-dashoffset: 0; stroke: #7d3c98; stroke-width: 2.5"/>
   </g>
   <g id="line2d_95">
    <g>
     <use xlink:href="#m7e5c001cb9" x="1578.07557" y="473.059219" style="stroke: #000000; stroke-linejoin: miter"/>
    </g>
   </g>
   <g id="line2d_96">
    <g>
     <use xlink:href="#mc6e6a8356d" x="1128.8325" y="50.677969" style="stroke: #000000; stroke-linejoin: miter"/>
    </g>
   </g>
   <g id="patch_18">
    <path d="M 1128.8325 501.217969 
L 1128.8325 50.677969 
" style="fill: none; stroke: #000000; stroke-width: 1.4; stroke-linejoin: miter; stroke-linecap: square"/>
   </g>
   <g id="patch_19">
    <path d="M 1108.41236 473.059219 
L 1578.07557 473.059219 
" style="fill: none; stroke: #000000; stroke-width: 1.4; stroke-linejoin: miter; stroke-linecap: square"/>
   </g>
   <g id="patch_20">
    <path d="M 1174.46825 332.265469 
Q 1292.194364 332.265469 1409.920479 332.265469 
" style="fill: none; stroke: #c0392b; stroke-width: 2.5; stroke-linecap: round"/>
    <path d="M 1179.26825 334.665469 
L 1174.46825 332.265469 
L 1179.26825 329.865469 
" style="fill: none; stroke: #c0392b; stroke-width: 2.5; stroke-linecap: round"/>
    <path d="M 1405.120479 329.865469 
L 1409.920479 332.265469 
L 1405.120479 334.665469 
" style="fill: none; stroke: #c0392b; stroke-width: 2.5; stroke-linecap: round"/>
   </g>
   <g id="text_55">
    <!-- (c) Precio máx $30 → escasez -->
    <g transform="translate(1236.265137 38.677969) scale(0.13 -0.13)">
     <defs>
      <path id="DejaVuSans-Bold-50" d="M 588 4666 
L 2584 4666 
Q 3475 4666 3951 4270 
Q 4428 3875 4428 3144 
Q 4428 2409 3951 2014 
Q 3475 1619 2584 1619 
L 1791 1619 
L 1791 0 
L 588 0 
L 588 4666 
z
M 1791 3794 
L 1791 2491 
L 2456 2491 
Q 2806 2491 2997 2661 
Q 3188 2831 3188 3144 
Q 3188 3456 2997 3625 
Q 2806 3794 2456 3794 
L 1791 3794 
z
" transform="scale(0.015625)"/>
      <path id="DejaVuSans-Bold-6d" d="M 3781 2919 
Q 3994 3244 4286 3414 
Q 4578 3584 4928 3584 
Q 5531 3584 5847 3212 
Q 6163 2841 6163 2131 
L 6163 0 
L 5038 0 
L 5038 1825 
Q 5041 1866 5042 1909 
Q 5044 1953 5044 2034 
Q 5044 2406 4934 2573 
Q 4825 2741 4581 2741 
Q 4263 2741 4089 2478 
Q 3916 2216 3909 1719 
L 3909 0 
L 2784 0 
L 2784 1825 
Q 2784 2406 2684 2573 
Q 2584 2741 2328 2741 
Q 2006 2741 1831 2477 
Q 1656 2213 1656 1722 
L 1656 0 
L 531 0 
L 531 3500 
L 1656 3500 
L 1656 2988 
Q 1863 3284 2130 3434 
Q 2397 3584 2719 3584 
Q 3081 3584 3359 3409 
Q 3638 3234 3781 2919 
z
" transform="scale(0.015625)"/>
      <path id="DejaVuSans-Bold-e1" d="M 2106 1575 
Q 1756 1575 1579 1456 
Q 1403 1338 1403 1106 
Q 1403 894 1545 773 
Q 1688 653 1941 653 
Q 2256 653 2472 879 
Q 2688 1106 2688 1447 
L 2688 1575 
L 2106 1575 
z
M 3816 1997 
L 3816 0 
L 2688 0 
L 2688 519 
Q 2463 200 2181 54 
Q 1900 -91 1497 -91 
Q 953 -91 614 226 
Q 275 544 275 1050 
Q 275 1666 698 1953 
Q 1122 2241 2028 2241 
L 2688 2241 
L 2688 2328 
Q 2688 2594 2478 2717 
Q 2269 2841 1825 2841 
Q 1466 2841 1156 2769 
Q 847 2697 581 2553 
L 581 3406 
Q 941 3494 1303 3539 
Q 1666 3584 2028 3584 
Q 2975 3584 3395 3211 
Q 3816 2838 3816 1997 
z
M 2606 5119 
L 3490 5119 
L 2337 3944 
L 1725 3944 
L 2606 5119 
z
" transform="scale(0.015625)"/>
      <path id="DejaVuSans-Bold-78" d="M 1422 1791 
L 159 3500 
L 1344 3500 
L 2059 2463 
L 2784 3500 
L 3969 3500 
L 2706 1797 
L 4031 0 
L 2847 0 
L 2059 1106 
L 1281 0 
L 97 0 
L 1422 1791 
z
" transform="scale(0.015625)"/>
      <path id="DejaVuSans-Bold-7a" d="M 366 3500 
L 3419 3500 
L 3419 2719 
L 1575 800 
L 3419 800 
L 3419 0 
L 288 0 
L 288 781 
L 2131 2700 
L 366 2700 
L 366 3500 
z
" transform="scale(0.015625)"/>
     </defs>
     <use xlink:href="#DejaVuSans-Bold-28"/>
     <use xlink:href="#DejaVuSans-Bold-63" x="45.703125"/>
     <use xlink:href="#DejaVuSans-Bold-29" x="104.980469"/>
     <use xlink:href="#DejaVuSans-Bold-20" x="150.683594"/>
     <use xlink:href="#DejaVuSans-Bold-50" x="185.498047"/>
     <use xlink:href="#DejaVuSans-Bold-72" x="258.789062"/>
     <use xlink:href="#DejaVuSans-Bold-65" x="308.105469"/>
     <use xlink:href="#DejaVuSans-Bold-63" x="375.927734"/>
     <use xlink:href="#DejaVuSans-Bold-69" x="435.205078"/>
     <use xlink:href="#DejaVuSans-Bold-6f" x="469.482422"/>
     <use xlink:href="#DejaVuSans-Bold-20" x="538.183594"/>
     <use xlink:href="#DejaVuSans-Bold-6d" x="572.998047"/>
     <use xlink:href="#DejaVuSans-Bold-e1" x="677.197266"/>
     <use xlink:href="#DejaVuSans-Bold-78" x="744.677734"/>
     <use xlink:href="#DejaVuSans-Bold-20" x="809.179688"/>
     <use xlink:href="#DejaVuSans-Bold-24" x="843.994141"/>
     <use xlink:href="#DejaVuSans-Bold-33" x="913.574219"/>
     <use xlink:href="#DejaVuSans-Bold-30" x="983.154297"/>
     <use xlink:href="#DejaVuSans-Bold-20" x="1052.734375"/>
     <use xlink:href="#DejaVuSans-Bold-2192" x="1087.548828"/>
     <use xlink:href="#DejaVuSans-Bold-20" x="1171.337891"/>
     <use xlink:href="#DejaVuSans-Bold-65" x="1206.152344"/>
     <use xlink:href="#DejaVuSans-Bold-73" x="1273.974609"/>
     <use xlink:href="#DejaVuSans-Bold-63" x="1333.496094"/>
     <use xlink:href="#DejaVuSans-Bold-61" x="1392.773438"/>
     <use xlink:href="#DejaVuSans-Bold-73" x="1460.253906"/>
     <use xlink:href="#DejaVuSans-Bold-65" x="1519.775391"/>
     <use xlink:href="#DejaVuSans-Bold-7a" x="1587.597656"/>
    </g>
   </g>
   <g id="legend_3">
    <g id="patch_21">
     <path d="M 1482.999008 97.759219 
L 1571.77557 97.759219 
Q 1573.57557 97.759219 1573.57557 95.959219 
L 1573.57557 56.977969 
Q 1573.57557 55.177969 1571.77557 55.177969 
L 1482.999008 55.177969 
Q 1481.199008 55.177969 1481.199008 56.977969 
L 1481.199008 95.959219 
Q 1481.199008 97.759219 1482.999008 97.759219 
z
" style="fill: #ffffff; opacity: 0.8; stroke: #cccccc; stroke-linejoin: miter"/>
    </g>
    <g id="line2d_97">
     <path d="M 1484.799008 62.466562 
L 1493.799008 62.466562 
L 1502.799008 62.466562 
" style="fill: none; stroke: #c0392b; stroke-width: 3; stroke-linecap: square"/>
    </g>
    <g id="text_56">
     <!-- D -->
     <g transform="translate(1509.999008 65.616562) scale(0.09 -0.09)">
      <use xlink:href="#DejaVuSans-44"/>
     </g>
    </g>
    <g id="line2d_98">
     <path d="M 1484.799008 75.676875 
L 1493.799008 75.676875 
L 1502.799008 75.676875 
" style="fill: none; stroke: #2980b9; stroke-width: 3; stroke-linecap: square"/>
    </g>
    <g id="text_57">
     <!-- S -->
     <g transform="translate(1509.999008 78.826875) scale(0.09 -0.09)">
      <use xlink:href="#DejaVuSans-53"/>
     </g>
    </g>
    <g id="line2d_99">
     <path d="M 1484.799008 88.887187 
L 1493.799008 88.887187 
L 1502.799008 88.887187 
" style="fill: none; stroke-dasharray: 9.25,4; stroke-dashoffset: 0; stroke: #7d3c98; stroke-width: 2.5"/>
    </g>
    <g id="text_58">
     <!-- P_max = $30 -->
     <g transform="translate(1509.999008 92.037187) scale(0.09 -0.09)">
      <defs>
       <path id="DejaVuSans-50" d="M 1259 4147 
L 1259 2394 
L 2053 2394 
Q 2494 2394 2734 2622 
Q 2975 2850 2975 3272 
Q 2975 3691 2734 3919 
Q 2494 4147 2053 4147 
L 1259 4147 
z
M 628 4666 
L 2053 4666 
Q 2838 4666 3239 4311 
Q 3641 3956 3641 3272 
Q 3641 2581 3239 2228 
Q 2838 1875 2053 1875 
L 1259 1875 
L 1259 0 
L 628 0 
L 628 4666 
z
" transform="scale(0.015625)"/>
       <path id="DejaVuSans-5f" d="M 3263 -1063 
L 3263 -1509 
L -63 -1509 
L -63 -1063 
L 3263 -1063 
z
" transform="scale(0.015625)"/>
       <path id="DejaVuSans-6d" d="M 3328 2828 
Q 3544 3216 3844 3400 
Q 4144 3584 4550 3584 
Q 5097 3584 5394 3201 
Q 5691 2819 5691 2113 
L 5691 0 
L 5113 0 
L 5113 2094 
Q 5113 2597 4934 2840 
Q 4756 3084 4391 3084 
Q 3944 3084 3684 2787 
Q 3425 2491 3425 1978 
L 3425 0 
L 2847 0 
L 2847 2094 
Q 2847 2600 2669 2842 
Q 2491 3084 2119 3084 
Q 1678 3084 1418 2786 
Q 1159 2488 1159 1978 
L 1159 0 
L 581 0 
L 581 3500 
L 1159 3500 
L 1159 2956 
Q 1356 3278 1631 3431 
Q 1906 3584 2284 3584 
Q 2666 3584 2933 3390 
Q 3200 3197 3328 2828 
z
" transform="scale(0.015625)"/>
       <path id="DejaVuSans-61" d="M 2194 1759 
Q 1497 1759 1228 1600 
Q 959 1441 959 1056 
Q 959 750 1161 570 
Q 1363 391 1709 391 
Q 2188 391 2477 730 
Q 2766 1069 2766 1631 
L 2766 1759 
L 2194 1759 
z
M 3341 1997 
L 3341 0 
L 2766 0 
L 2766 531 
Q 2569 213 2275 61 
Q 1981 -91 1556 -91 
Q 1019 -91 701 211 
Q 384 513 384 1019 
Q 384 1609 779 1909 
Q 1175 2209 1959 2209 
L 2766 2209 
L 2766 2266 
Q 2766 2663 2505 2880 
Q 2244 3097 1772 3097 
Q 1472 3097 1187 3025 
Q 903 2953 641 2809 
L 641 3341 
Q 956 3463 1253 3523 
Q 1550 3584 1831 3584 
Q 2591 3584 2966 3190 
Q 3341 2797 3341 1997 
z
" transform="scale(0.015625)"/>
       <path id="DejaVuSans-78" d="M 3513 3500 
L 2247 1797 
L 3578 0 
L 2900 0 
L 1881 1375 
L 863 0 
L 184 0 
L 1544 1831 
L 300 3500 
L 978 3500 
L 1906 2253 
L 2834 3500 
L 3513 3500 
z
" transform="scale(0.015625)"/>
      </defs>
      <use xlink:href="#DejaVuSans-50"/>
      <use xlink:href="#DejaVuSans-5f" x="60.302734"/>
      <use xlink:href="#DejaVuSans-6d" x="110.302734"/>
      <use xlink:href="#DejaVuSans-61" x="207.714844"/>
      <use xlink:href="#DejaVuSans-78" x="268.994141"/>
      <use xlink:href="#DejaVuSans-20" x="328.173828"/>
      <use xlink:href="#DejaVuSans-3d" x="359.960938"/>
      <use xlink:href="#DejaVuSans-20" x="443.75"/>
      <use xlink:href="#DejaVuSans-24" x="475.537109"/>
      <use xlink:href="#DejaVuSans-33" x="539.160156"/>
      <use xlink:href="#DejaVuSans-30" x="602.783203"/>
     </g>
    </g>
   </g>
   <g id="line2d_100">
    <defs>
     <path id="m2859e909ea" d="M -0 7 
L 7 -7 
L -7 -7 
z
" style="stroke: #c0392b; stroke-linejoin: miter"/>
    </defs>
    <g clip-path="url(#p5ee6be2f44)">
     <use xlink:href="#m2859e909ea" x="1414.714454" y="352.378862" style="fill: #c0392b; stroke: #c0392b; stroke-linejoin: miter"/>
    </g>
   </g>
   <g id="line2d_101">
    <defs>
     <path id="m88410f938e" d="M 0 -7 
L -7 7 
L 7 7 
z
" style="stroke: #2980b9; stroke-linejoin: miter"/>
    </defs>
    <g clip-path="url(#p5ee6be2f44)">
     <use xlink:href="#m88410f938e" x="1169.672779" y="352.378862" style="fill: #2980b9; stroke: #2980b9; stroke-linejoin: miter"/>
    </g>
   </g>
   <g id="text_59">
    <g id="patch_22">
     <path d="M 1388.776954 494.282701 
L 1440.651954 494.282701 
Q 1444.151954 494.282701 1444.151954 490.782701 
L 1444.151954 481.104576 
Q 1444.151954 477.604576 1440.651954 477.604576 
L 1388.776954 477.604576 
Q 1385.276954 477.604576 1385.276954 481.104576 
L 1385.276954 490.782701 
Q 1385.276954 494.282701 1388.776954 494.282701 
z
" style="fill: #ffffff; opacity: 0.97; stroke: #bdc3c7; stroke-width: 0.8; stroke-linejoin: miter"/>
    </g>
    <!-- Qd = 700 -->
    <g style="fill: #c0392b" transform="translate(1388.776954 488.703013) scale(0.1 -0.1)">
     <use xlink:href="#DejaVuSans-Bold-51"/>
     <use xlink:href="#DejaVuSans-Bold-64" x="85.009766"/>
     <use xlink:href="#DejaVuSans-Bold-20" x="156.591797"/>
     <use xlink:href="#DejaVuSans-Bold-3d" x="191.40625"/>
     <use xlink:href="#DejaVuSans-Bold-20" x="275.195312"/>
     <use xlink:href="#DejaVuSans-Bold-37" x="310.009766"/>
     <use xlink:href="#DejaVuSans-Bold-30" x="379.589844"/>
     <use xlink:href="#DejaVuSans-Bold-30" x="449.169922"/>
    </g>
   </g>
   <g id="text_60">
    <g id="patch_23">
     <path d="M 1144.338404 494.282701 
L 1195.007154 494.282701 
Q 1198.507154 494.282701 1198.507154 490.782701 
L 1198.507154 481.104576 
Q 1198.507154 477.604576 1195.007154 477.604576 
L 1144.338404 477.604576 
Q 1140.838404 477.604576 1140.838404 481.104576 
L 1140.838404 490.782701 
Q 1140.838404 494.282701 1144.338404 494.282701 
z
" style="fill: #ffffff; opacity: 0.97; stroke: #bdc3c7; stroke-width: 0.8; stroke-linejoin: miter"/>
    </g>
    <!-- Qs = 100 -->
    <g style="fill: #2980b9" transform="translate(1144.338404 488.703013) scale(0.1 -0.1)">
     <use xlink:href="#DejaVuSans-Bold-51"/>
     <use xlink:href="#DejaVuSans-Bold-73" x="85.009766"/>
     <use xlink:href="#DejaVuSans-Bold-20" x="144.53125"/>
     <use xlink:href="#DejaVuSans-Bold-3d" x="179.345703"/>
     <use xlink:href="#DejaVuSans-Bold-20" x="263.134766"/>
     <use xlink:href="#DejaVuSans-Bold-31" x="297.949219"/>
     <use xlink:href="#DejaVuSans-Bold-30" x="367.529297"/>
     <use xlink:href="#DejaVuSans-Bold-30" x="437.109375"/>
    </g>
   </g>
   <g id="text_61">
    <g id="patch_24">
     <path d="M 1211.824866 309.694375 
L 1372.562366 309.694375 
Q 1375.862366 309.694375 1375.862366 306.394375 
L 1375.862366 282.730969 
Q 1375.862366 279.430969 1372.562366 279.430969 
L 1211.824866 279.430969 
Q 1208.524866 279.430969 1208.524866 282.730969 
L 1208.524866 306.394375 
Q 1208.524866 309.694375 1211.824866 309.694375 
z
" style="fill: #fffbeb; opacity: 0.97; stroke: #f39c12; stroke-width: 0.7; stroke-linejoin: miter"/>
    </g>
    <!-- Escasez = 600 ejemplares -->
    <g style="fill: #c0392b" transform="translate(1211.824866 291.175187) scale(0.11 -0.11)">
     <defs>
      <path id="DejaVuSans-Bold-6a" d="M 538 3500 
L 1656 3500 
L 1656 63 
Q 1656 -641 1318 -1011 
Q 981 -1381 341 -1381 
L -213 -1381 
L -213 -647 
L -19 -647 
Q 300 -647 419 -503 
Q 538 -359 538 63 
L 538 3500 
z
M 538 4863 
L 1656 4863 
L 1656 3950 
L 538 3950 
L 538 4863 
z
" transform="scale(0.015625)"/>
     </defs>
     <use xlink:href="#DejaVuSans-Bold-45"/>
     <use xlink:href="#DejaVuSans-Bold-73" x="68.310547"/>
     <use xlink:href="#DejaVuSans-Bold-63" x="127.832031"/>
     <use xlink:href="#DejaVuSans-Bold-61" x="187.109375"/>
     <use xlink:href="#DejaVuSans-Bold-73" x="254.589844"/>
     <use xlink:href="#DejaVuSans-Bold-65" x="314.111328"/>
     <use xlink:href="#DejaVuSans-Bold-7a" x="381.933594"/>
     <use xlink:href="#DejaVuSans-Bold-20" x="440.136719"/>
     <use xlink:href="#DejaVuSans-Bold-3d" x="474.951172"/>
     <use xlink:href="#DejaVuSans-Bold-20" x="558.740234"/>
     <use xlink:href="#DejaVuSans-Bold-36" x="593.554688"/>
     <use xlink:href="#DejaVuSans-Bold-30" x="663.134766"/>
     <use xlink:href="#DejaVuSans-Bold-30" x="732.714844"/>
     <use xlink:href="#DejaVuSans-Bold-20" x="802.294922"/>
     <use xlink:href="#DejaVuSans-Bold-65" x="837.109375"/>
     <use xlink:href="#DejaVuSans-Bold-6a" x="904.931641"/>
     <use xlink:href="#DejaVuSans-Bold-65" x="939.208984"/>
     <use xlink:href="#DejaVuSans-Bold-6d" x="1007.03125"/>
     <use xlink:href="#DejaVuSans-Bold-70" x="1111.230469"/>
     <use xlink:href="#DejaVuSans-Bold-6c" x="1182.8125"/>
     <use xlink:href="#DejaVuSans-Bold-61" x="1217.089844"/>
     <use xlink:href="#DejaVuSans-Bold-72" x="1284.570312"/>
     <use xlink:href="#DejaVuSans-Bold-65" x="1333.886719"/>
     <use xlink:href="#DejaVuSans-Bold-73" x="1401.708984"/>
    </g>
    <!-- → ↑ piratería -->
    <g style="fill: #c0392b" transform="translate(1252.23182 304.106719) scale(0.11 -0.11)">
     <defs>
      <path id="DejaVuSans-Bold-2191" d="M 2466 4688 
L 2903 4688 
L 4131 3459 
L 3678 3006 
L 3059 3625 
L 3059 0 
L 2309 0 
L 2309 3625 
L 1691 3006 
L 1238 3459 
L 2466 4688 
z
" transform="scale(0.015625)"/>
      <path id="DejaVuSans-Bold-ed" d="M 538 3500 
L 1656 3500 
L 1656 0 
L 538 0 
L 538 3500 
z
M 1590 5119 
L 2474 5119 
L 1321 3944 
L 709 3944 
L 1590 5119 
z
" transform="scale(0.015625)"/>
     </defs>
     <use xlink:href="#DejaVuSans-Bold-2192"/>
     <use xlink:href="#DejaVuSans-Bold-20" x="83.789062"/>
     <use xlink:href="#DejaVuSans-Bold-2191" x="118.603516"/>
     <use xlink:href="#DejaVuSans-Bold-20" x="202.392578"/>
     <use xlink:href="#DejaVuSans-Bold-70" x="237.207031"/>
     <use xlink:href="#DejaVuSans-Bold-69" x="308.789062"/>
     <use xlink:href="#DejaVuSans-Bold-72" x="343.066406"/>
     <use xlink:href="#DejaVuSans-Bold-61" x="392.382812"/>
     <use xlink:href="#DejaVuSans-Bold-74" x="459.863281"/>
     <use xlink:href="#DejaVuSans-Bold-65" x="507.666016"/>
     <use xlink:href="#DejaVuSans-Bold-72" x="575.488281"/>
     <use xlink:href="#DejaVuSans-Bold-ed" x="624.804688"/>
     <use xlink:href="#DejaVuSans-Bold-61" x="659.082031"/>
    </g>
   </g>
  </g>
 </g>
 <defs>
  <clipPath id="pe70dfc5227">
   <rect x="61.05236" y="50.677969" width="469.66321" height="450.54"/>
  </clipPath>
  <clipPath id="pd894f9748f">
   <rect x="584.73236" y="50.677969" width="469.66321" height="450.54"/>
  </clipPath>
  <clipPath id="p5ee6be2f44">
   <rect x="1108.41236" y="50.677969" width="469.66321" height="450.54"/>
  </clipPath>
 </defs>
</svg>
