<?xml version="1.0" encoding="utf-8" standalone="no"?>
<!DOCTYPE svg PUBLIC "-//W3C//DTD SVG 1.1//EN"
  "http://www.w3.org/Graphics/SVG/1.1/DTD/svg11.dtd">
<svg xmlns:xlink="http://www.w3.org/1999/xlink" width="1254.070425pt" height="535.817969pt" viewBox="0 0 1254.070425 535.817969" xmlns="http://www.w3.org/2000/svg" version="1.1">
 <metadata>
  <rdf:RDF xmlns:dc="http://purl.org/dc/elements/1.1/" xmlns:cc="http://creativecommons.org/ns#" xmlns:rdf="http://www.w3.org/1999/02/22-rdf-syntax-ns#">
   <cc:Work>
    <dc:type rdf:resource="http://purl.org/dc/dcmitype/StillImage"/>
    <dc:date>2026-04-28T17:41:36.765690</dc:date>
    <dc:format>image/svg+xml</dc:format>
    <dc:creator>
     <cc:Agent>
      <dc:title>Matplotlib v3.9.2, https://matplotlib.org/</dc:title>
     </cc:Agent>
    </dc:creator>
   </cc:Work>
  </rdf:RDF>
 </metadata>
 <defs>
  <style type="text/css">*{stroke-linejoin: round; stroke-linecap: butt}</style>
 </defs>
 <g id="figure_1">
  <g id="patch_1">
   <path d="M 0 535.817969 
L 1254.070425 535.817969 
L 1254.070425 0 
L 0 0 
z
" style="fill: #ffffff"/>
  </g>
  <g id="axes_1">
   <g id="patch_2">
    <path d="M 80.520756 507.017969 
L 595.072925 507.017969 
L 595.072925 51.197969 
L 80.520756 51.197969 
z
" style="fill: #ffffff"/>
   </g>
   <g id="matplotlib.axis_1">
    <g id="xtick_1">
     <g id="line2d_1">
      <path d="M 89.87625 507.017969 
L 89.87625 51.197969 
" clip-path="url(#p2d05e731ab)" style="fill: none; stroke-dasharray: 0.8,1.32; stroke-dashoffset: 0; stroke: #b0b0b0; stroke-opacity: 0.4; stroke-width: 0.8"/>
     </g>
     <g id="line2d_2">
      <defs>
       <path id="m7b2ccf0791" d="M 0 0 
L 0 -4 
" style="stroke: #000000"/>
      </defs>
      <g>
       <use xlink:href="#m7b2ccf0791" x="89.87625" y="478.529219" style="stroke: #000000"/>
      </g>
     </g>
     <g id="text_1">
      <!-- 0 -->
      <g transform="translate(86.695 489.627656) scale(0.1 -0.1)">
       <defs>
        <path id="DejaVuSans-30" d="M 2034 4250 
Q 1547 4250 1301 3770 
Q 1056 3291 1056 2328 
Q 1056 1369 1301 889 
Q 1547 409 2034 409 
Q 2525 409 2770 889 
Q 3016 1369 3016 2328 
Q 3016 3291 2770 3770 
Q 2525 4250 2034 4250 
z
M 2034 4750 
Q 2819 4750 3233 4129 
Q 3647 3509 3647 2328 
Q 3647 1150 3233 529 
Q 2819 -91 2034 -91 
Q 1250 -91 836 529 
Q 422 1150 422 2328 
Q 422 3509 836 4129 
Q 1250 4750 2034 4750 
z
" transform="scale(0.015625)"/>
       </defs>
       <use xlink:href="#DejaVuSans-30"/>
      </g>
     </g>
    </g>
    <g id="xtick_2">
     <g id="line2d_3">
      <path d="M 183.43119 507.017969 
L 183.43119 51.197969 
" clip-path="url(#p2d05e731ab)" style="fill: none; stroke-dasharray: 0.8,1.32; stroke-dashoffset: 0; stroke: #b0b0b0; stroke-opacity: 0.4; stroke-width: 0.8"/>
     </g>
     <g id="line2d_4">
      <g>
       <use xlink:href="#m7b2ccf0791" x="183.43119" y="478.529219" style="stroke: #000000"/>
      </g>
     </g>
     <g id="text_2">
      <!-- 50 -->
      <g transform="translate(177.06869 489.627656) scale(0.1 -0.1)">
       <defs>
        <path id="DejaVuSans-35" d="M 691 4666 
L 3169 4666 
L 3169 4134 
L 1269 4134 
L 1269 2991 
Q 1406 3038 1543 3061 
Q 1681 3084 1819 3084 
Q 2600 3084 3056 2656 
Q 3513 2228 3513 1497 
Q 3513 744 3044 326 
Q 2575 -91 1722 -91 
Q 1428 -91 1123 -41 
Q 819 9 494 109 
L 494 744 
Q 775 591 1075 516 
Q 1375 441 1709 441 
Q 2250 441 2565 725 
Q 2881 1009 2881 1497 
Q 2881 1984 2565 2268 
Q 2250 2553 1709 2553 
Q 1456 2553 1204 2497 
Q 953 2441 691 2322 
L 691 4666 
z
" transform="scale(0.015625)"/>
       </defs>
       <use xlink:href="#DejaVuSans-35"/>
       <use xlink:href="#DejaVuSans-30" x="63.623047"/>
      </g>
     </g>
    </g>
    <g id="xtick_3">
     <g id="line2d_5">
      <path d="M 276.98613 507.017969 
L 276.98613 51.197969 
" clip-path="url(#p2d05e731ab)" style="fill: none; stroke-dasharray: 0.8,1.32; stroke-dashoffset: 0; stroke: #b0b0b0; stroke-opacity: 0.4; stroke-width: 0.8"/>
     </g>
     <g id="line2d_6">
      <g>
       <use xlink:href="#m7b2ccf0791" x="276.98613" y="478.529219" style="stroke: #000000"/>
      </g>
     </g>
     <g id="text_3">
      <!-- 100 -->
      <g transform="translate(267.44238 489.627656) scale(0.1 -0.1)">
       <defs>
        <path id="DejaVuSans-31" d="M 794 531 
L 1825 531 
L 1825 4091 
L 703 3866 
L 703 4441 
L 1819 4666 
L 2450 4666 
L 2450 531 
L 3481 531 
L 3481 0 
L 794 0 
L 794 531 
z
" transform="scale(0.015625)"/>
       </defs>
       <use xlink:href="#DejaVuSans-31"/>
       <use xlink:href="#DejaVuSans-30" x="63.623047"/>
       <use xlink:href="#DejaVuSans-30" x="127.246094"/>
      </g>
     </g>
    </g>
    <g id="xtick_4">
     <g id="line2d_7">
      <path d="M 370.54107 507.017969 
L 370.54107 51.197969 
" clip-path="url(#p2d05e731ab)" style="fill: none; stroke-dasharray: 0.8,1.32; stroke-dashoffset: 0; stroke: #b0b0b0; stroke-opacity: 0.4; stroke-width: 0.8"/>
     </g>
     <g id="line2d_8">
      <g>
       <use xlink:href="#m7b2ccf0791" x="370.54107" y="478.529219" style="stroke: #000000"/>
      </g>
     </g>
     <g id="text_4">
      <!-- 150 -->
      <g transform="translate(360.99732 489.627656) scale(0.1 -0.1)">
       <use xlink:href="#DejaVuSans-31"/>
       <use xlink:href="#DejaVuSans-35" x="63.623047"/>
       <use xlink:href="#DejaVuSans-30" x="127.246094"/>
      </g>
     </g>
    </g>
    <g id="xtick_5">
     <g id="line2d_9">
      <path d="M 464.09601 507.017969 
L 464.09601 51.197969 
" clip-path="url(#p2d05e731ab)" style="fill: none; stroke-dasharray: 0.8,1.32; stroke-dashoffset: 0; stroke: #b0b0b0; stroke-opacity: 0.4; stroke-width: 0.8"/>
     </g>
     <g id="line2d_10">
      <g>
       <use xlink:href="#m7b2ccf0791" x="464.09601" y="478.529219" style="stroke: #000000"/>
      </g>
     </g>
     <g id="text_5">
      <!-- 200 -->
      <g transform="translate(454.55226 489.627656) scale(0.1 -0.1)">
       <defs>
        <path id="DejaVuSans-32" d="M 1228 531 
L 3431 531 
L 3431 0 
L 469 0 
L 469 531 
Q 828 903 1448 1529 
Q 2069 2156 2228 2338 
Q 2531 2678 2651 2914 
Q 2772 3150 2772 3378 
Q 2772 3750 2511 3984 
Q 2250 4219 1831 4219 
Q 1534 4219 1204 4116 
Q 875 4013 500 3803 
L 500 4441 
Q 881 4594 1212 4672 
Q 1544 4750 1819 4750 
Q 2544 4750 2975 4387 
Q 3406 4025 3406 3419 
Q 3406 3131 3298 2873 
Q 3191 2616 2906 2266 
Q 2828 2175 2409 1742 
Q 1991 1309 1228 531 
z
" transform="scale(0.015625)"/>
       </defs>
       <use xlink:href="#DejaVuSans-32"/>
       <use xlink:href="#DejaVuSans-30" x="63.623047"/>
       <use xlink:href="#DejaVuSans-30" x="127.246094"/>
      </g>
     </g>
    </g>
    <g id="xtick_6">
     <g id="line2d_11">
      <path d="M 557.650949 507.017969 
L 557.650949 51.197969 
" clip-path="url(#p2d05e731ab)" style="fill: none; stroke-dasharray: 0.8,1.32; stroke-dashoffset: 0; stroke: #b0b0b0; stroke-opacity: 0.4; stroke-width: 0.8"/>
     </g>
     <g id="line2d_12">
      <g>
       <use xlink:href="#m7b2ccf0791" x="557.650949" y="478.529219" style="stroke: #000000"/>
      </g>
     </g>
     <g id="text_6">
      <!-- 250 -->
      <g transform="translate(548.107199 489.627656) scale(0.1 -0.1)">
       <use xlink:href="#DejaVuSans-32"/>
       <use xlink:href="#DejaVuSans-35" x="63.623047"/>
       <use xlink:href="#DejaVuSans-30" x="127.246094"/>
      </g>
     </g>
    </g>
    <g id="text_7">
     <!-- Q (palos) -->
     <g transform="translate(533.5373 498.825469) scale(0.12 -0.12)">
      <defs>
       <path id="DejaVuSans-Bold-51" d="M 2847 -84 
L 2753 -84 
Q 1600 -84 959 553 
Q 319 1191 319 2328 
Q 319 3463 958 4106 
Q 1597 4750 2719 4750 
Q 3853 4750 4486 4112 
Q 5119 3475 5119 2328 
Q 5119 1541 4783 972 
Q 4447 403 3816 116 
L 4756 -934 
L 3609 -934 
L 2847 -84 
z
M 2719 3878 
Q 2169 3878 1866 3472 
Q 1563 3066 1563 2328 
Q 1563 1578 1859 1179 
Q 2156 781 2719 781 
Q 3272 781 3575 1187 
Q 3878 1594 3878 2328 
Q 3878 3066 3575 3472 
Q 3272 3878 2719 3878 
z
" transform="scale(0.015625)"/>
       <path id="DejaVuSans-Bold-20" transform="scale(0.015625)"/>
       <path id="DejaVuSans-Bold-28" d="M 2413 -844 
L 1484 -844 
Q 1006 -72 778 623 
Q 550 1319 550 2003 
Q 550 2688 779 3389 
Q 1009 4091 1484 4856 
L 2413 4856 
Q 2013 4116 1813 3408 
Q 1613 2700 1613 2009 
Q 1613 1319 1811 609 
Q 2009 -100 2413 -844 
z
" transform="scale(0.015625)"/>
       <path id="DejaVuSans-Bold-70" d="M 1656 506 
L 1656 -1331 
L 538 -1331 
L 538 3500 
L 1656 3500 
L 1656 2988 
Q 1888 3294 2169 3439 
Q 2450 3584 2816 3584 
Q 3463 3584 3878 3070 
Q 4294 2556 4294 1747 
Q 4294 938 3878 423 
Q 3463 -91 2816 -91 
Q 2450 -91 2169 54 
Q 1888 200 1656 506 
z
M 2400 2772 
Q 2041 2772 1848 2508 
Q 1656 2244 1656 1747 
Q 1656 1250 1848 986 
Q 2041 722 2400 722 
Q 2759 722 2948 984 
Q 3138 1247 3138 1747 
Q 3138 2247 2948 2509 
Q 2759 2772 2400 2772 
z
" transform="scale(0.015625)"/>
       <path id="DejaVuSans-Bold-61" d="M 2106 1575 
Q 1756 1575 1579 1456 
Q 1403 1338 1403 1106 
Q 1403 894 1545 773 
Q 1688 653 1941 653 
Q 2256 653 2472 879 
Q 2688 1106 2688 1447 
L 2688 1575 
L 2106 1575 
z
M 3816 1997 
L 3816 0 
L 2688 0 
L 2688 519 
Q 2463 200 2181 54 
Q 1900 -91 1497 -91 
Q 953 -91 614 226 
Q 275 544 275 1050 
Q 275 1666 698 1953 
Q 1122 2241 2028 2241 
L 2688 2241 
L 2688 2328 
Q 2688 2594 2478 2717 
Q 2269 2841 1825 2841 
Q 1466 2841 1156 2769 
Q 847 2697 581 2553 
L 581 3406 
Q 941 3494 1303 3539 
Q 1666 3584 2028 3584 
Q 2975 3584 3395 3211 
Q 3816 2838 3816 1997 
z
" transform="scale(0.015625)"/>
       <path id="DejaVuSans-Bold-6c" d="M 538 4863 
L 1656 4863 
L 1656 0 
L 538 0 
L 538 4863 
z
" transform="scale(0.015625)"/>
       <path id="DejaVuSans-Bold-6f" d="M 2203 2784 
Q 1831 2784 1636 2517 
Q 1441 2250 1441 1747 
Q 1441 1244 1636 976 
Q 1831 709 2203 709 
Q 2569 709 2762 976 
Q 2956 1244 2956 1747 
Q 2956 2250 2762 2517 
Q 2569 2784 2203 2784 
z
M 2203 3584 
Q 3106 3584 3614 3096 
Q 4122 2609 4122 1747 
Q 4122 884 3614 396 
Q 3106 -91 2203 -91 
Q 1297 -91 786 396 
Q 275 884 275 1747 
Q 275 2609 786 3096 
Q 1297 3584 2203 3584 
z
" transform="scale(0.015625)"/>
       <path id="DejaVuSans-Bold-73" d="M 3272 3391 
L 3272 2541 
Q 2913 2691 2578 2766 
Q 2244 2841 1947 2841 
Q 1628 2841 1473 2761 
Q 1319 2681 1319 2516 
Q 1319 2381 1436 2309 
Q 1553 2238 1856 2203 
L 2053 2175 
Q 2913 2066 3209 1816 
Q 3506 1566 3506 1031 
Q 3506 472 3093 190 
Q 2681 -91 1863 -91 
Q 1516 -91 1145 -36 
Q 775 19 384 128 
L 384 978 
Q 719 816 1070 734 
Q 1422 653 1784 653 
Q 2113 653 2278 743 
Q 2444 834 2444 1013 
Q 2444 1163 2330 1236 
Q 2216 1309 1875 1350 
L 1678 1375 
Q 931 1469 631 1722 
Q 331 1975 331 2491 
Q 331 3047 712 3315 
Q 1094 3584 1881 3584 
Q 2191 3584 2531 3537 
Q 2872 3491 3272 3391 
z
" transform="scale(0.015625)"/>
       <path id="DejaVuSans-Bold-29" d="M 513 -844 
Q 913 -100 1113 609 
Q 1313 1319 1313 2009 
Q 1313 2700 1113 3408 
Q 913 4116 513 4856 
L 1441 4856 
Q 1916 4091 2145 3389 
Q 2375 2688 2375 2003 
Q 2375 1319 2147 623 
Q 1919 -72 1441 -844 
L 513 -844 
z
" transform="scale(0.015625)"/>
      </defs>
      <use xlink:href="#DejaVuSans-Bold-51"/>
      <use xlink:href="#DejaVuSans-Bold-20" x="85.009766"/>
      <use xlink:href="#DejaVuSans-Bold-28" x="119.824219"/>
      <use xlink:href="#DejaVuSans-Bold-70" x="165.527344"/>
      <use xlink:href="#DejaVuSans-Bold-61" x="237.109375"/>
      <use xlink:href="#DejaVuSans-Bold-6c" x="304.589844"/>
      <use xlink:href="#DejaVuSans-Bold-6f" x="338.867188"/>
      <use xlink:href="#DejaVuSans-Bold-73" x="407.568359"/>
      <use xlink:href="#DejaVuSans-Bold-29" x="467.089844"/>
     </g>
    </g>
   </g>
   <g id="matplotlib.axis_2">
    <g id="ytick_1">
     <g id="line2d_13">
      <path d="M 80.520756 478.529219 
L 595.072925 478.529219 
" clip-path="url(#p2d05e731ab)" style="fill: none; stroke-dasharray: 0.8,1.32; stroke-dashoffset: 0; stroke: #b0b0b0; stroke-opacity: 0.4; stroke-width: 0.8"/>
     </g>
     <g id="line2d_14">
      <defs>
       <path id="mc2ace98210" d="M 0 0 
L 4 0 
" style="stroke: #000000"/>
      </defs>
      <g>
       <use xlink:href="#mc2ace98210" x="89.87625" y="478.529219" style="stroke: #000000"/>
      </g>
     </g>
     <g id="text_8">
      <!-- 0 -->
      <g transform="translate(80.01375 482.328438) scale(0.1 -0.1)">
       <use xlink:href="#DejaVuSans-30"/>
      </g>
     </g>
    </g>
    <g id="ytick_2">
     <g id="line2d_15">
      <path d="M 80.520756 421.551719 
L 595.072925 421.551719 
" clip-path="url(#p2d05e731ab)" style="fill: none; stroke-dasharray: 0.8,1.32; stroke-dashoffset: 0; stroke: #b0b0b0; stroke-opacity: 0.4; stroke-width: 0.8"/>
     </g>
     <g id="line2d_16">
      <g>
       <use xlink:href="#mc2ace98210" x="89.87625" y="421.551719" style="stroke: #000000"/>
      </g>
     </g>
     <g id="text_9">
      <!-- 100 -->
      <g transform="translate(67.28875 425.350938) scale(0.1 -0.1)">
       <use xlink:href="#DejaVuSans-31"/>
       <use xlink:href="#DejaVuSans-30" x="63.623047"/>
       <use xlink:href="#DejaVuSans-30" x="127.246094"/>
      </g>
     </g>
    </g>
    <g id="ytick_3">
     <g id="line2d_17">
      <path d="M 80.520756 364.574219 
L 595.072925 364.574219 
" clip-path="url(#p2d05e731ab)" style="fill: none; stroke-dasharray: 0.8,1.32; stroke-dashoffset: 0; stroke: #b0b0b0; stroke-opacity: 0.4; stroke-width: 0.8"/>
     </g>
     <g id="line2d_18">
      <g>
       <use xlink:href="#mc2ace98210" x="89.87625" y="364.574219" style="stroke: #000000"/>
      </g>
     </g>
     <g id="text_10">
      <!-- 200 -->
      <g transform="translate(67.28875 368.373438) scale(0.1 -0.1)">
       <use xlink:href="#DejaVuSans-32"/>
       <use xlink:href="#DejaVuSans-30" x="63.623047"/>
       <use xlink:href="#DejaVuSans-30" x="127.246094"/>
      </g>
     </g>
    </g>
    <g id="ytick_4">
     <g id="line2d_19">
      <path d="M 80.520756 307.596719 
L 595.072925 307.596719 
" clip-path="url(#p2d05e731ab)" style="fill: none; stroke-dasharray: 0.8,1.32; stroke-dashoffset: 0; stroke: #b0b0b0; stroke-opacity: 0.4; stroke-width: 0.8"/>
     </g>
     <g id="line2d_20">
      <g>
       <use xlink:href="#mc2ace98210" x="89.87625" y="307.596719" style="stroke: #000000"/>
      </g>
     </g>
     <g id="text_11">
      <!-- 300 -->
      <g transform="translate(67.28875 311.395938) scale(0.1 -0.1)">
       <defs>
        <path id="DejaVuSans-33" d="M 2597 2516 
Q 3050 2419 3304 2112 
Q 3559 1806 3559 1356 
Q 3559 666 3084 287 
Q 2609 -91 1734 -91 
Q 1441 -91 1130 -33 
Q 819 25 488 141 
L 488 750 
Q 750 597 1062 519 
Q 1375 441 1716 441 
Q 2309 441 2620 675 
Q 2931 909 2931 1356 
Q 2931 1769 2642 2001 
Q 2353 2234 1838 2234 
L 1294 2234 
L 1294 2753 
L 1863 2753 
Q 2328 2753 2575 2939 
Q 2822 3125 2822 3475 
Q 2822 3834 2567 4026 
Q 2313 4219 1838 4219 
Q 1578 4219 1281 4162 
Q 984 4106 628 3988 
L 628 4550 
Q 988 4650 1302 4700 
Q 1616 4750 1894 4750 
Q 2613 4750 3031 4423 
Q 3450 4097 3450 3541 
Q 3450 3153 3228 2886 
Q 3006 2619 2597 2516 
z
" transform="scale(0.015625)"/>
       </defs>
       <use xlink:href="#DejaVuSans-33"/>
       <use xlink:href="#DejaVuSans-30" x="63.623047"/>
       <use xlink:href="#DejaVuSans-30" x="127.246094"/>
      </g>
     </g>
    </g>
    <g id="ytick_5">
     <g id="line2d_21">
      <path d="M 80.520756 250.619219 
L 595.072925 250.619219 
" clip-path="url(#p2d05e731ab)" style="fill: none; stroke-dasharray: 0.8,1.32; stroke-dashoffset: 0; stroke: #b0b0b0; stroke-opacity: 0.4; stroke-width: 0.8"/>
     </g>
     <g id="line2d_22">
      <g>
       <use xlink:href="#mc2ace98210" x="89.87625" y="250.619219" style="stroke: #000000"/>
      </g>
     </g>
     <g id="text_12">
      <!-- 400 -->
      <g transform="translate(67.28875 254.418438) scale(0.1 -0.1)">
       <defs>
        <path id="DejaVuSans-34" d="M 2419 4116 
L 825 1625 
L 2419 1625 
L 2419 4116 
z
M 2253 4666 
L 3047 4666 
L 3047 1625 
L 3713 1625 
L 3713 1100 
L 3047 1100 
L 3047 0 
L 2419 0 
L 2419 1100 
L 313 1100 
L 313 1709 
L 2253 4666 
z
" transform="scale(0.015625)"/>
       </defs>
       <use xlink:href="#DejaVuSans-34"/>
       <use xlink:href="#DejaVuSans-30" x="63.623047"/>
       <use xlink:href="#DejaVuSans-30" x="127.246094"/>
      </g>
     </g>
    </g>
    <g id="ytick_6">
     <g id="line2d_23">
      <path d="M 80.520756 193.641719 
L 595.072925 193.641719 
" clip-path="url(#p2d05e731ab)" style="fill: none; stroke-dasharray: 0.8,1.32; stroke-dashoffset: 0; stroke: #b0b0b0; stroke-opacity: 0.4; stroke-width: 0.8"/>
     </g>
     <g id="line2d_24">
      <g>
       <use xlink:href="#mc2ace98210" x="89.87625" y="193.641719" style="stroke: #000000"/>
      </g>
     </g>
     <g id="text_13">
      <!-- 500 -->
      <g transform="translate(67.28875 197.440938) scale(0.1 -0.1)">
       <use xlink:href="#DejaVuSans-35"/>
       <use xlink:href="#DejaVuSans-30" x="63.623047"/>
       <use xlink:href="#DejaVuSans-30" x="127.246094"/>
      </g>
     </g>
    </g>
    <g id="ytick_7">
     <g id="line2d_25">
      <path d="M 80.520756 136.664219 
L 595.072925 136.664219 
" clip-path="url(#p2d05e731ab)" style="fill: none; stroke-dasharray: 0.8,1.32; stroke-dashoffset: 0; stroke: #b0b0b0; stroke-opacity: 0.4; stroke-width: 0.8"/>
     </g>
     <g id="line2d_26">
      <g>
       <use xlink:href="#mc2ace98210" x="89.87625" y="136.664219" style="stroke: #000000"/>
      </g>
     </g>
     <g id="text_14">
      <!-- 600 -->
      <g transform="translate(67.28875 140.463438) scale(0.1 -0.1)">
       <defs>
        <path id="DejaVuSans-36" d="M 2113 2584 
Q 1688 2584 1439 2293 
Q 1191 2003 1191 1497 
Q 1191 994 1439 701 
Q 1688 409 2113 409 
Q 2538 409 2786 701 
Q 3034 994 3034 1497 
Q 3034 2003 2786 2293 
Q 2538 2584 2113 2584 
z
M 3366 4563 
L 3366 3988 
Q 3128 4100 2886 4159 
Q 2644 4219 2406 4219 
Q 1781 4219 1451 3797 
Q 1122 3375 1075 2522 
Q 1259 2794 1537 2939 
Q 1816 3084 2150 3084 
Q 2853 3084 3261 2657 
Q 3669 2231 3669 1497 
Q 3669 778 3244 343 
Q 2819 -91 2113 -91 
Q 1303 -91 875 529 
Q 447 1150 447 2328 
Q 447 3434 972 4092 
Q 1497 4750 2381 4750 
Q 2619 4750 2861 4703 
Q 3103 4656 3366 4563 
z
" transform="scale(0.015625)"/>
       </defs>
       <use xlink:href="#DejaVuSans-36"/>
       <use xlink:href="#DejaVuSans-30" x="63.623047"/>
       <use xlink:href="#DejaVuSans-30" x="127.246094"/>
      </g>
     </g>
    </g>
    <g id="ytick_8">
     <g id="line2d_27">
      <path d="M 80.520756 79.686719 
L 595.072925 79.686719 
" clip-path="url(#p2d05e731ab)" style="fill: none; stroke-dasharray: 0.8,1.32; stroke-dashoffset: 0; stroke: #b0b0b0; stroke-opacity: 0.4; stroke-width: 0.8"/>
     </g>
     <g id="line2d_28">
      <g>
       <use xlink:href="#mc2ace98210" x="89.87625" y="79.686719" style="stroke: #000000"/>
      </g>
     </g>
     <g id="text_15">
      <!-- 700 -->
      <g transform="translate(67.28875 83.485938) scale(0.1 -0.1)">
       <defs>
        <path id="DejaVuSans-37" d="M 525 4666 
L 3525 4666 
L 3525 4397 
L 1831 0 
L 1172 0 
L 2766 4134 
L 525 4134 
L 525 4666 
z
" transform="scale(0.015625)"/>
       </defs>
       <use xlink:href="#DejaVuSans-37"/>
       <use xlink:href="#DejaVuSans-30" x="63.623047"/>
       <use xlink:href="#DejaVuSans-30" x="127.246094"/>
      </g>
     </g>
    </g>
    <g id="text_16">
     <!-- CT ($) -->
     <g transform="translate(28.8 48.702344) scale(0.12 -0.12)">
      <defs>
       <path id="DejaVuSans-Bold-43" d="M 4288 256 
Q 3956 84 3597 -3 
Q 3238 -91 2847 -91 
Q 1681 -91 1000 561 
Q 319 1213 319 2328 
Q 319 3447 1000 4098 
Q 1681 4750 2847 4750 
Q 3238 4750 3597 4662 
Q 3956 4575 4288 4403 
L 4288 3438 
Q 3953 3666 3628 3772 
Q 3303 3878 2944 3878 
Q 2300 3878 1931 3465 
Q 1563 3053 1563 2328 
Q 1563 1606 1931 1193 
Q 2300 781 2944 781 
Q 3303 781 3628 887 
Q 3953 994 4288 1222 
L 4288 256 
z
" transform="scale(0.015625)"/>
       <path id="DejaVuSans-Bold-54" d="M 31 4666 
L 4331 4666 
L 4331 3756 
L 2784 3756 
L 2784 0 
L 1581 0 
L 1581 3756 
L 31 3756 
L 31 4666 
z
" transform="scale(0.015625)"/>
       <path id="DejaVuSans-Bold-24" d="M 2484 -941 
L 1978 -941 
L 1975 0 
Q 1584 16 1218 87 
Q 853 159 506 288 
L 506 1106 
Q 866 922 1233 823 
Q 1600 725 1978 713 
L 1978 1684 
L 1875 1703 
Q 1128 1834 814 2115 
Q 500 2397 500 2925 
Q 500 3484 883 3798 
Q 1266 4113 1975 4141 
L 1978 4863 
L 2484 4863 
L 2484 4153 
Q 2797 4128 3109 4075 
Q 3422 4022 3738 3938 
L 3738 3144 
Q 3425 3275 3112 3348 
Q 2800 3422 2484 3438 
L 2484 2541 
L 2584 2522 
Q 3378 2397 3698 2105 
Q 4019 1813 4019 1241 
Q 4019 666 3637 358 
Q 3256 50 2484 6 
L 2484 -941 
z
M 1978 2613 
L 1978 3428 
Q 1756 3416 1623 3308 
Q 1491 3200 1491 3034 
Q 1491 2850 1612 2745 
Q 1734 2641 1978 2613 
z
M 2484 1594 
L 2484 725 
Q 2756 728 2892 831 
Q 3028 934 3028 1141 
Q 3028 1353 2903 1458 
Q 2778 1563 2484 1594 
z
" transform="scale(0.015625)"/>
      </defs>
      <use xlink:href="#DejaVuSans-Bold-43"/>
      <use xlink:href="#DejaVuSans-Bold-54" x="73.388672"/>
      <use xlink:href="#DejaVuSans-Bold-20" x="141.601562"/>
      <use xlink:href="#DejaVuSans-Bold-28" x="176.416016"/>
      <use xlink:href="#DejaVuSans-Bold-24" x="222.119141"/>
      <use xlink:href="#DejaVuSans-Bold-29" x="291.699219"/>
     </g>
    </g>
   </g>
   <g id="line2d_29">
    <path d="M 127.298226 419.272619 
L 135.948532 418.097185 
L 144.598838 416.678194 
L 153.249144 415.015644 
L 161.89945 413.109535 
L 170.549756 410.959869 
L 179.200062 408.566644 
L 187.850368 405.929861 
L 196.500674 403.04952 
L 205.15098 399.92562 
L 213.801286 396.558162 
L 222.451592 392.947146 
L 231.101898 389.092572 
L 239.752204 384.994439 
L 248.40251 380.652748 
L 257.052816 376.067499 
L 265.703122 371.238691 
L 274.353428 366.166326 
L 283.003734 360.850402 
L 291.65404 355.290919 
L 300.304346 349.487879 
L 308.954652 343.44128 
L 317.604958 337.151123 
L 326.255264 330.617407 
L 334.90557 323.840133 
L 343.555876 316.819301 
L 352.206182 309.554911 
L 360.856488 302.046963 
L 369.506794 294.295456 
L 378.1571 286.300391 
L 388.969982 275.964056 
L 399.782865 265.247161 
L 410.595747 254.149706 
L 421.40863 242.671691 
L 432.221512 230.813117 
L 443.034395 218.573983 
L 453.847277 205.954289 
L 464.66016 192.954035 
L 475.473042 179.573221 
L 486.285925 165.811848 
L 497.098807 151.669915 
L 507.91169 137.147422 
L 518.724572 122.244369 
L 529.537455 106.960756 
L 540.350337 91.296584 
L 551.16322 75.251852 
L 557.650949 65.442344 
L 557.650949 65.442344 
" clip-path="url(#p2d05e731ab)" style="fill: none; stroke: #2980b9; stroke-width: 3; stroke-linecap: square"/>
   </g>
   <g id="line2d_30">
    <path d="M 80.520756 421.551719 
L 595.072925 421.551719 
" clip-path="url(#p2d05e731ab)" style="fill: none; stroke-dasharray: 1.5,2.475; stroke-dashoffset: 0; stroke: #95a5a6; stroke-width: 1.5"/>
   </g>
   <g id="line2d_31">
    <defs>
     <path id="m3f3f000c65" d="M 4 0 
L -4 -4 
L -4 4 
z
" style="stroke: #000000; stroke-linejoin: miter"/>
    </defs>
    <g>
     <use xlink:href="#m3f3f000c65" x="595.072925" y="478.529219" style="stroke: #000000; stroke-linejoin: miter"/>
    </g>
   </g>
   <g id="line2d_32">
    <defs>
     <path id="m9138ff8041" d="M 0 -4 
L -4 4 
L 4 4 
z
" style="stroke: #000000; stroke-linejoin: miter"/>
    </defs>
    <g>
     <use xlink:href="#m9138ff8041" x="89.87625" y="51.197969" style="stroke: #000000; stroke-linejoin: miter"/>
    </g>
   </g>
   <g id="patch_3">
    <path d="M 89.87625 507.017969 
L 89.87625 51.197969 
" style="fill: none; stroke: #000000; stroke-width: 1.4; stroke-linejoin: miter; stroke-linecap: square"/>
   </g>
   <g id="patch_4">
    <path d="M 80.520756 478.529219 
L 595.072925 478.529219 
" style="fill: none; stroke: #000000; stroke-width: 1.4; stroke-linejoin: miter; stroke-linecap: square"/>
   </g>
   <g id="text_17">
    <!-- (a) Costo Total — cuadrática + CF -->
    <g transform="translate(215.611059 39.197969) scale(0.13 -0.13)">
     <defs>
      <path id="DejaVuSans-Bold-74" d="M 1759 4494 
L 1759 3500 
L 2913 3500 
L 2913 2700 
L 1759 2700 
L 1759 1216 
Q 1759 972 1856 886 
Q 1953 800 2241 800 
L 2816 800 
L 2816 0 
L 1856 0 
Q 1194 0 917 276 
Q 641 553 641 1216 
L 641 2700 
L 84 2700 
L 84 3500 
L 641 3500 
L 641 4494 
L 1759 4494 
z
" transform="scale(0.015625)"/>
      <path id="DejaVuSans-Bold-2014" d="M 344 2156 
L 6056 2156 
L 6056 1350 
L 344 1350 
L 344 2156 
z
" transform="scale(0.015625)"/>
      <path id="DejaVuSans-Bold-63" d="M 3366 3391 
L 3366 2478 
Q 3138 2634 2908 2709 
Q 2678 2784 2431 2784 
Q 1963 2784 1702 2511 
Q 1441 2238 1441 1747 
Q 1441 1256 1702 982 
Q 1963 709 2431 709 
Q 2694 709 2930 787 
Q 3166 866 3366 1019 
L 3366 103 
Q 3103 6 2833 -42 
Q 2563 -91 2291 -91 
Q 1344 -91 809 395 
Q 275 881 275 1747 
Q 275 2613 809 3098 
Q 1344 3584 2291 3584 
Q 2566 3584 2833 3536 
Q 3100 3488 3366 3391 
z
" transform="scale(0.015625)"/>
      <path id="DejaVuSans-Bold-75" d="M 500 1363 
L 500 3500 
L 1625 3500 
L 1625 3150 
Q 1625 2866 1622 2436 
Q 1619 2006 1619 1863 
Q 1619 1441 1641 1255 
Q 1663 1069 1716 984 
Q 1784 875 1895 815 
Q 2006 756 2150 756 
Q 2500 756 2700 1025 
Q 2900 1294 2900 1772 
L 2900 3500 
L 4019 3500 
L 4019 0 
L 2900 0 
L 2900 506 
Q 2647 200 2364 54 
Q 2081 -91 1741 -91 
Q 1134 -91 817 281 
Q 500 653 500 1363 
z
" transform="scale(0.015625)"/>
      <path id="DejaVuSans-Bold-64" d="M 2919 2988 
L 2919 4863 
L 4044 4863 
L 4044 0 
L 2919 0 
L 2919 506 
Q 2688 197 2409 53 
Q 2131 -91 1766 -91 
Q 1119 -91 703 423 
Q 288 938 288 1747 
Q 288 2556 703 3070 
Q 1119 3584 1766 3584 
Q 2128 3584 2408 3439 
Q 2688 3294 2919 2988 
z
M 2181 722 
Q 2541 722 2730 984 
Q 2919 1247 2919 1747 
Q 2919 2247 2730 2509 
Q 2541 2772 2181 2772 
Q 1825 2772 1636 2509 
Q 1447 2247 1447 1747 
Q 1447 1247 1636 984 
Q 1825 722 2181 722 
z
" transform="scale(0.015625)"/>
      <path id="DejaVuSans-Bold-72" d="M 3138 2547 
Q 2991 2616 2845 2648 
Q 2700 2681 2553 2681 
Q 2122 2681 1889 2404 
Q 1656 2128 1656 1613 
L 1656 0 
L 538 0 
L 538 3500 
L 1656 3500 
L 1656 2925 
Q 1872 3269 2151 3426 
Q 2431 3584 2822 3584 
Q 2878 3584 2943 3579 
Q 3009 3575 3134 3559 
L 3138 2547 
z
" transform="scale(0.015625)"/>
      <path id="DejaVuSans-Bold-e1" d="M 2106 1575 
Q 1756 1575 1579 1456 
Q 1403 1338 1403 1106 
Q 1403 894 1545 773 
Q 1688 653 1941 653 
Q 2256 653 2472 879 
Q 2688 1106 2688 1447 
L 2688 1575 
L 2106 1575 
z
M 3816 1997 
L 3816 0 
L 2688 0 
L 2688 519 
Q 2463 200 2181 54 
Q 1900 -91 1497 -91 
Q 953 -91 614 226 
Q 275 544 275 1050 
Q 275 1666 698 1953 
Q 1122 2241 2028 2241 
L 2688 2241 
L 2688 2328 
Q 2688 2594 2478 2717 
Q 2269 2841 1825 2841 
Q 1466 2841 1156 2769 
Q 847 2697 581 2553 
L 581 3406 
Q 941 3494 1303 3539 
Q 1666 3584 2028 3584 
Q 2975 3584 3395 3211 
Q 3816 2838 3816 1997 
z
M 2606 5119 
L 3490 5119 
L 2337 3944 
L 1725 3944 
L 2606 5119 
z
" transform="scale(0.015625)"/>
      <path id="DejaVuSans-Bold-69" d="M 538 3500 
L 1656 3500 
L 1656 0 
L 538 0 
L 538 3500 
z
M 538 4863 
L 1656 4863 
L 1656 3950 
L 538 3950 
L 538 4863 
z
" transform="scale(0.015625)"/>
      <path id="DejaVuSans-Bold-2b" d="M 3053 4013 
L 3053 2375 
L 4684 2375 
L 4684 1638 
L 3053 1638 
L 3053 0 
L 2309 0 
L 2309 1638 
L 678 1638 
L 678 2375 
L 2309 2375 
L 2309 4013 
L 3053 4013 
z
" transform="scale(0.015625)"/>
      <path id="DejaVuSans-Bold-46" d="M 588 4666 
L 3834 4666 
L 3834 3756 
L 1791 3756 
L 1791 2888 
L 3713 2888 
L 3713 1978 
L 1791 1978 
L 1791 0 
L 588 0 
L 588 4666 
z
" transform="scale(0.015625)"/>
     </defs>
     <use xlink:href="#DejaVuSans-Bold-28"/>
     <use xlink:href="#DejaVuSans-Bold-61" x="45.703125"/>
     <use xlink:href="#DejaVuSans-Bold-29" x="113.183594"/>
     <use xlink:href="#DejaVuSans-Bold-20" x="158.886719"/>
     <use xlink:href="#DejaVuSans-Bold-43" x="193.701172"/>
     <use xlink:href="#DejaVuSans-Bold-6f" x="267.089844"/>
     <use xlink:href="#DejaVuSans-Bold-73" x="335.791016"/>
     <use xlink:href="#DejaVuSans-Bold-74" x="395.3125"/>
     <use xlink:href="#DejaVuSans-Bold-6f" x="443.115234"/>
     <use xlink:href="#DejaVuSans-Bold-20" x="511.816406"/>
     <use xlink:href="#DejaVuSans-Bold-54" x="546.630859"/>
     <use xlink:href="#DejaVuSans-Bold-6f" x="601.59375"/>
     <use xlink:href="#DejaVuSans-Bold-74" x="670.294922"/>
     <use xlink:href="#DejaVuSans-Bold-61" x="718.097656"/>
     <use xlink:href="#DejaVuSans-Bold-6c" x="785.578125"/>
     <use xlink:href="#DejaVuSans-Bold-20" x="819.855469"/>
     <use xlink:href="#DejaVuSans-Bold-2014" x="854.669922"/>
     <use xlink:href="#DejaVuSans-Bold-20" x="954.669922"/>
     <use xlink:href="#DejaVuSans-Bold-63" x="989.484375"/>
     <use xlink:href="#DejaVuSans-Bold-75" x="1048.761719"/>
     <use xlink:href="#DejaVuSans-Bold-61" x="1119.953125"/>
     <use xlink:href="#DejaVuSans-Bold-64" x="1187.433594"/>
     <use xlink:href="#DejaVuSans-Bold-72" x="1259.015625"/>
     <use xlink:href="#DejaVuSans-Bold-e1" x="1308.332031"/>
     <use xlink:href="#DejaVuSans-Bold-74" x="1375.8125"/>
     <use xlink:href="#DejaVuSans-Bold-69" x="1423.615234"/>
     <use xlink:href="#DejaVuSans-Bold-63" x="1457.892578"/>
     <use xlink:href="#DejaVuSans-Bold-61" x="1517.169922"/>
     <use xlink:href="#DejaVuSans-Bold-20" x="1584.650391"/>
     <use xlink:href="#DejaVuSans-Bold-2b" x="1619.464844"/>
     <use xlink:href="#DejaVuSans-Bold-20" x="1703.253906"/>
     <use xlink:href="#DejaVuSans-Bold-43" x="1738.068359"/>
     <use xlink:href="#DejaVuSans-Bold-46" x="1811.457031"/>
    </g>
   </g>
   <g id="legend_1">
    <g id="patch_5">
     <path d="M 87.520756 88.554219 
L 231.183256 88.554219 
Q 233.183256 88.554219 233.183256 86.554219 
L 233.183256 58.197969 
Q 233.183256 56.197969 231.183256 56.197969 
L 87.520756 56.197969 
Q 85.520756 56.197969 85.520756 58.197969 
L 85.520756 86.554219 
Q 85.520756 88.554219 87.520756 88.554219 
z
" style="fill: #ffffff; opacity: 0.8; stroke: #cccccc; stroke-linejoin: miter"/>
    </g>
    <g id="line2d_33">
     <path d="M 89.520756 64.296406 
L 99.520756 64.296406 
L 109.520756 64.296406 
" style="fill: none; stroke: #2980b9; stroke-width: 3; stroke-linecap: square"/>
    </g>
    <g id="text_18">
     <!-- CT(Q) = Q²/100 + 100 -->
     <g transform="translate(117.520756 67.796406) scale(0.1 -0.1)">
      <defs>
       <path id="DejaVuSans-43" d="M 4122 4306 
L 4122 3641 
Q 3803 3938 3442 4084 
Q 3081 4231 2675 4231 
Q 1875 4231 1450 3742 
Q 1025 3253 1025 2328 
Q 1025 1406 1450 917 
Q 1875 428 2675 428 
Q 3081 428 3442 575 
Q 3803 722 4122 1019 
L 4122 359 
Q 3791 134 3420 21 
Q 3050 -91 2638 -91 
Q 1578 -91 968 557 
Q 359 1206 359 2328 
Q 359 3453 968 4101 
Q 1578 4750 2638 4750 
Q 3056 4750 3426 4639 
Q 3797 4528 4122 4306 
z
" transform="scale(0.015625)"/>
       <path id="DejaVuSans-54" d="M -19 4666 
L 3928 4666 
L 3928 4134 
L 2272 4134 
L 2272 0 
L 1638 0 
L 1638 4134 
L -19 4134 
L -19 4666 
z
" transform="scale(0.015625)"/>
       <path id="DejaVuSans-28" d="M 1984 4856 
Q 1566 4138 1362 3434 
Q 1159 2731 1159 2009 
Q 1159 1288 1364 580 
Q 1569 -128 1984 -844 
L 1484 -844 
Q 1016 -109 783 600 
Q 550 1309 550 2009 
Q 550 2706 781 3412 
Q 1013 4119 1484 4856 
L 1984 4856 
z
" transform="scale(0.015625)"/>
       <path id="DejaVuSans-51" d="M 2522 4238 
Q 1834 4238 1429 3725 
Q 1025 3213 1025 2328 
Q 1025 1447 1429 934 
Q 1834 422 2522 422 
Q 3209 422 3611 934 
Q 4013 1447 4013 2328 
Q 4013 3213 3611 3725 
Q 3209 4238 2522 4238 
z
M 3406 84 
L 4238 -825 
L 3475 -825 
L 2784 -78 
Q 2681 -84 2626 -87 
Q 2572 -91 2522 -91 
Q 1538 -91 948 567 
Q 359 1225 359 2328 
Q 359 3434 948 4092 
Q 1538 4750 2522 4750 
Q 3503 4750 4090 4092 
Q 4678 3434 4678 2328 
Q 4678 1516 4351 937 
Q 4025 359 3406 84 
z
" transform="scale(0.015625)"/>
       <path id="DejaVuSans-29" d="M 513 4856 
L 1013 4856 
Q 1481 4119 1714 3412 
Q 1947 2706 1947 2009 
Q 1947 1309 1714 600 
Q 1481 -109 1013 -844 
L 513 -844 
Q 928 -128 1133 580 
Q 1338 1288 1338 2009 
Q 1338 2731 1133 3434 
Q 928 4138 513 4856 
z
" transform="scale(0.015625)"/>
       <path id="DejaVuSans-20" transform="scale(0.015625)"/>
       <path id="DejaVuSans-3d" d="M 678 2906 
L 4684 2906 
L 4684 2381 
L 678 2381 
L 678 2906 
z
M 678 1631 
L 4684 1631 
L 4684 1100 
L 678 1100 
L 678 1631 
z
" transform="scale(0.015625)"/>
       <path id="DejaVuSans-b2" d="M 838 2444 
L 2163 2444 
L 2163 2088 
L 294 2088 
L 294 2431 
Q 400 2528 597 2703 
Q 1672 3656 1672 3950 
Q 1672 4156 1509 4282 
Q 1347 4409 1081 4409 
Q 919 4409 728 4354 
Q 538 4300 313 4191 
L 313 4575 
Q 553 4663 761 4706 
Q 969 4750 1147 4750 
Q 1600 4750 1872 4544 
Q 2144 4338 2144 4000 
Q 2144 3566 1109 2678 
Q 934 2528 838 2444 
z
" transform="scale(0.015625)"/>
       <path id="DejaVuSans-2f" d="M 1625 4666 
L 2156 4666 
L 531 -594 
L 0 -594 
L 1625 4666 
z
" transform="scale(0.015625)"/>
       <path id="DejaVuSans-2b" d="M 2944 4013 
L 2944 2272 
L 4684 2272 
L 4684 1741 
L 2944 1741 
L 2944 0 
L 2419 0 
L 2419 1741 
L 678 1741 
L 678 2272 
L 2419 2272 
L 2419 4013 
L 2944 4013 
z
" transform="scale(0.015625)"/>
      </defs>
      <use xlink:href="#DejaVuSans-43"/>
      <use xlink:href="#DejaVuSans-54" x="69.824219"/>
      <use xlink:href="#DejaVuSans-28" x="130.908203"/>
      <use xlink:href="#DejaVuSans-51" x="169.921875"/>
      <use xlink:href="#DejaVuSans-29" x="248.632812"/>
      <use xlink:href="#DejaVuSans-20" x="287.646484"/>
      <use xlink:href="#DejaVuSans-3d" x="319.433594"/>
      <use xlink:href="#DejaVuSans-20" x="403.222656"/>
      <use xlink:href="#DejaVuSans-51" x="435.009766"/>
      <use xlink:href="#DejaVuSans-b2" x="513.720703"/>
      <use xlink:href="#DejaVuSans-2f" x="553.808594"/>
      <use xlink:href="#DejaVuSans-31" x="587.5"/>
      <use xlink:href="#DejaVuSans-30" x="651.123047"/>
      <use xlink:href="#DejaVuSans-30" x="714.746094"/>
      <use xlink:href="#DejaVuSans-20" x="778.369141"/>
      <use xlink:href="#DejaVuSans-2b" x="810.15625"/>
      <use xlink:href="#DejaVuSans-20" x="893.945312"/>
      <use xlink:href="#DejaVuSans-31" x="925.732422"/>
      <use xlink:href="#DejaVuSans-30" x="989.355469"/>
      <use xlink:href="#DejaVuSans-30" x="1052.978516"/>
     </g>
    </g>
    <g id="line2d_34">
     <path d="M 89.520756 78.974531 
L 99.520756 78.974531 
L 109.520756 78.974531 
" style="fill: none; stroke-dasharray: 1.5,2.475; stroke-dashoffset: 0; stroke: #95a5a6; stroke-width: 1.5"/>
    </g>
    <g id="text_19">
     <!-- CF = 100 -->
     <g transform="translate(117.520756 82.474531) scale(0.1 -0.1)">
      <defs>
       <path id="DejaVuSans-46" d="M 628 4666 
L 3309 4666 
L 3309 4134 
L 1259 4134 
L 1259 2759 
L 3109 2759 
L 3109 2228 
L 1259 2228 
L 1259 0 
L 628 0 
L 628 4666 
z
" transform="scale(0.015625)"/>
      </defs>
      <use xlink:href="#DejaVuSans-43"/>
      <use xlink:href="#DejaVuSans-46" x="69.824219"/>
      <use xlink:href="#DejaVuSans-20" x="127.34375"/>
      <use xlink:href="#DejaVuSans-3d" x="159.130859"/>
      <use xlink:href="#DejaVuSans-20" x="242.919922"/>
      <use xlink:href="#DejaVuSans-31" x="274.707031"/>
      <use xlink:href="#DejaVuSans-30" x="338.330078"/>
      <use xlink:href="#DejaVuSans-30" x="401.953125"/>
     </g>
    </g>
   </g>
   <g id="text_20">
    <g id="patch_6">
     <path d="M 468.908611 381.549406 
L 534.127361 381.549406 
Q 537.627361 381.549406 537.627361 378.049406 
L 537.627361 357.173469 
Q 537.627361 353.673469 534.127361 353.673469 
L 468.908611 353.673469 
Q 465.408611 353.673469 465.408611 357.173469 
L 465.408611 378.049406 
Q 465.408611 381.549406 468.908611 381.549406 
z
" style="fill: #ffffff; opacity: 0.97; stroke: #bdc3c7; stroke-width: 0.8; stroke-linejoin: miter"/>
    </g>
    <!-- CF = 100 -->
    <g style="fill: #95a5a6" transform="translate(476.325017 364.771906) scale(0.1 -0.1)">
     <defs>
      <path id="DejaVuSans-Bold-3d" d="M 678 3084 
L 4684 3084 
L 4684 2350 
L 678 2350 
L 678 3084 
z
M 678 1663 
L 4684 1663 
L 4684 922 
L 678 922 
L 678 1663 
z
" transform="scale(0.015625)"/>
      <path id="DejaVuSans-Bold-31" d="M 750 831 
L 1813 831 
L 1813 3847 
L 722 3622 
L 722 4441 
L 1806 4666 
L 2950 4666 
L 2950 831 
L 4013 831 
L 4013 0 
L 750 0 
L 750 831 
z
" transform="scale(0.015625)"/>
      <path id="DejaVuSans-Bold-30" d="M 2944 2338 
Q 2944 3213 2780 3570 
Q 2616 3928 2228 3928 
Q 1841 3928 1675 3570 
Q 1509 3213 1509 2338 
Q 1509 1453 1675 1090 
Q 1841 728 2228 728 
Q 2613 728 2778 1090 
Q 2944 1453 2944 2338 
z
M 4147 2328 
Q 4147 1169 3647 539 
Q 3147 -91 2228 -91 
Q 1306 -91 806 539 
Q 306 1169 306 2328 
Q 306 3491 806 4120 
Q 1306 4750 2228 4750 
Q 3147 4750 3647 4120 
Q 4147 3491 4147 2328 
z
" transform="scale(0.015625)"/>
     </defs>
     <use xlink:href="#DejaVuSans-Bold-43"/>
     <use xlink:href="#DejaVuSans-Bold-46" x="73.388672"/>
     <use xlink:href="#DejaVuSans-Bold-20" x="141.699219"/>
     <use xlink:href="#DejaVuSans-Bold-3d" x="176.513672"/>
     <use xlink:href="#DejaVuSans-Bold-20" x="260.302734"/>
     <use xlink:href="#DejaVuSans-Bold-31" x="295.117188"/>
     <use xlink:href="#DejaVuSans-Bold-30" x="364.697266"/>
     <use xlink:href="#DejaVuSans-Bold-30" x="434.277344"/>
    </g>
    <!-- (constante) -->
    <g style="fill: #95a5a6" transform="translate(468.908611 375.969719) scale(0.1 -0.1)">
     <defs>
      <path id="DejaVuSans-Bold-6e" d="M 4056 2131 
L 4056 0 
L 2931 0 
L 2931 347 
L 2931 1631 
Q 2931 2084 2911 2256 
Q 2891 2428 2841 2509 
Q 2775 2619 2662 2680 
Q 2550 2741 2406 2741 
Q 2056 2741 1856 2470 
Q 1656 2200 1656 1722 
L 1656 0 
L 538 0 
L 538 3500 
L 1656 3500 
L 1656 2988 
Q 1909 3294 2193 3439 
Q 2478 3584 2822 3584 
Q 3428 3584 3742 3212 
Q 4056 2841 4056 2131 
z
" transform="scale(0.015625)"/>
      <path id="DejaVuSans-Bold-65" d="M 4031 1759 
L 4031 1441 
L 1416 1441 
Q 1456 1047 1700 850 
Q 1944 653 2381 653 
Q 2734 653 3104 758 
Q 3475 863 3866 1075 
L 3866 213 
Q 3469 63 3072 -14 
Q 2675 -91 2278 -91 
Q 1328 -91 801 392 
Q 275 875 275 1747 
Q 275 2603 792 3093 
Q 1309 3584 2216 3584 
Q 3041 3584 3536 3087 
Q 4031 2591 4031 1759 
z
M 2881 2131 
Q 2881 2450 2695 2645 
Q 2509 2841 2209 2841 
Q 1884 2841 1681 2658 
Q 1478 2475 1428 2131 
L 2881 2131 
z
" transform="scale(0.015625)"/>
     </defs>
     <use xlink:href="#DejaVuSans-Bold-28"/>
     <use xlink:href="#DejaVuSans-Bold-63" x="45.703125"/>
     <use xlink:href="#DejaVuSans-Bold-6f" x="104.980469"/>
     <use xlink:href="#DejaVuSans-Bold-6e" x="173.681641"/>
     <use xlink:href="#DejaVuSans-Bold-73" x="244.873047"/>
     <use xlink:href="#DejaVuSans-Bold-74" x="304.394531"/>
     <use xlink:href="#DejaVuSans-Bold-61" x="352.197266"/>
     <use xlink:href="#DejaVuSans-Bold-6e" x="419.677734"/>
     <use xlink:href="#DejaVuSans-Bold-74" x="490.869141"/>
     <use xlink:href="#DejaVuSans-Bold-65" x="538.671875"/>
     <use xlink:href="#DejaVuSans-Bold-29" x="606.494141"/>
    </g>
   </g>
  </g>
  <g id="axes_2">
   <g id="patch_7">
    <path d="M 706.718256 507.017969 
L 1221.270425 507.017969 
L 1221.270425 51.197969 
L 706.718256 51.197969 
z
" style="fill: #ffffff"/>
   </g>
   <g id="matplotlib.axis_3">
    <g id="xtick_7">
     <g id="line2d_35">
      <path d="M 716.07375 507.017969 
L 716.07375 51.197969 
" clip-path="url(#p56b35323e9)" style="fill: none; stroke-dasharray: 0.8,1.32; stroke-dashoffset: 0; stroke: #b0b0b0; stroke-opacity: 0.4; stroke-width: 0.8"/>
     </g>
     <g id="line2d_36">
      <g>
       <use xlink:href="#m7b2ccf0791" x="716.07375" y="471.954892" style="stroke: #000000"/>
      </g>
     </g>
     <g id="text_21">
      <!-- 0 -->
      <g transform="translate(712.8925 483.053329) scale(0.1 -0.1)">
       <use xlink:href="#DejaVuSans-30"/>
      </g>
     </g>
    </g>
    <g id="xtick_8">
     <g id="line2d_37">
      <path d="M 809.62869 507.017969 
L 809.62869 51.197969 
" clip-path="url(#p56b35323e9)" style="fill: none; stroke-dasharray: 0.8,1.32; stroke-dashoffset: 0; stroke: #b0b0b0; stroke-opacity: 0.4; stroke-width: 0.8"/>
     </g>
     <g id="line2d_38">
      <g>
       <use xlink:href="#m7b2ccf0791" x="809.62869" y="471.954892" style="stroke: #000000"/>
      </g>
     </g>
     <g id="text_22">
      <!-- 50 -->
      <g transform="translate(803.26619 483.053329) scale(0.1 -0.1)">
       <use xlink:href="#DejaVuSans-35"/>
       <use xlink:href="#DejaVuSans-30" x="63.623047"/>
      </g>
     </g>
    </g>
    <g id="xtick_9">
     <g id="line2d_39">
      <path d="M 903.18363 507.017969 
L 903.18363 51.197969 
" clip-path="url(#p56b35323e9)" style="fill: none; stroke-dasharray: 0.8,1.32; stroke-dashoffset: 0; stroke: #b0b0b0; stroke-opacity: 0.4; stroke-width: 0.8"/>
     </g>
     <g id="line2d_40">
      <g>
       <use xlink:href="#m7b2ccf0791" x="903.18363" y="471.954892" style="stroke: #000000"/>
      </g>
     </g>
     <g id="text_23">
      <!-- 100 -->
      <g transform="translate(893.63988 483.053329) scale(0.1 -0.1)">
       <use xlink:href="#DejaVuSans-31"/>
       <use xlink:href="#DejaVuSans-30" x="63.623047"/>
       <use xlink:href="#DejaVuSans-30" x="127.246094"/>
      </g>
     </g>
    </g>
    <g id="xtick_10">
     <g id="line2d_41">
      <path d="M 996.73857 507.017969 
L 996.73857 51.197969 
" clip-path="url(#p56b35323e9)" style="fill: none; stroke-dasharray: 0.8,1.32; stroke-dashoffset: 0; stroke: #b0b0b0; stroke-opacity: 0.4; stroke-width: 0.8"/>
     </g>
     <g id="line2d_42">
      <g>
       <use xlink:href="#m7b2ccf0791" x="996.73857" y="471.954892" style="stroke: #000000"/>
      </g>
     </g>
     <g id="text_24">
      <!-- 150 -->
      <g transform="translate(987.19482 483.053329) scale(0.1 -0.1)">
       <use xlink:href="#DejaVuSans-31"/>
       <use xlink:href="#DejaVuSans-35" x="63.623047"/>
       <use xlink:href="#DejaVuSans-30" x="127.246094"/>
      </g>
     </g>
    </g>
    <g id="xtick_11">
     <g id="line2d_43">
      <path d="M 1090.29351 507.017969 
L 1090.29351 51.197969 
" clip-path="url(#p56b35323e9)" style="fill: none; stroke-dasharray: 0.8,1.32; stroke-dashoffset: 0; stroke: #b0b0b0; stroke-opacity: 0.4; stroke-width: 0.8"/>
     </g>
     <g id="line2d_44">
      <g>
       <use xlink:href="#m7b2ccf0791" x="1090.29351" y="471.954892" style="stroke: #000000"/>
      </g>
     </g>
     <g id="text_25">
      <!-- 200 -->
      <g transform="translate(1080.74976 483.053329) scale(0.1 -0.1)">
       <use xlink:href="#DejaVuSans-32"/>
       <use xlink:href="#DejaVuSans-30" x="63.623047"/>
       <use xlink:href="#DejaVuSans-30" x="127.246094"/>
      </g>
     </g>
    </g>
    <g id="xtick_12">
     <g id="line2d_45">
      <path d="M 1183.848449 507.017969 
L 1183.848449 51.197969 
" clip-path="url(#p56b35323e9)" style="fill: none; stroke-dasharray: 0.8,1.32; stroke-dashoffset: 0; stroke: #b0b0b0; stroke-opacity: 0.4; stroke-width: 0.8"/>
     </g>
     <g id="line2d_46">
      <g>
       <use xlink:href="#m7b2ccf0791" x="1183.848449" y="471.954892" style="stroke: #000000"/>
      </g>
     </g>
     <g id="text_26">
      <!-- 250 -->
      <g transform="translate(1174.304699 483.053329) scale(0.1 -0.1)">
       <use xlink:href="#DejaVuSans-32"/>
       <use xlink:href="#DejaVuSans-35" x="63.623047"/>
       <use xlink:href="#DejaVuSans-30" x="127.246094"/>
      </g>
     </g>
    </g>
    <g id="text_27">
     <!-- Q -->
     <g transform="translate(1211.06855 492.251142) scale(0.12 -0.12)">
      <use xlink:href="#DejaVuSans-Bold-51"/>
     </g>
    </g>
   </g>
   <g id="matplotlib.axis_4">
    <g id="ytick_9">
     <g id="line2d_47">
      <path d="M 706.718256 471.954892 
L 1221.270425 471.954892 
" clip-path="url(#p56b35323e9)" style="fill: none; stroke-dasharray: 0.8,1.32; stroke-dashoffset: 0; stroke: #b0b0b0; stroke-opacity: 0.4; stroke-width: 0.8"/>
     </g>
     <g id="line2d_48">
      <g>
       <use xlink:href="#mc2ace98210" x="716.07375" y="471.954892" style="stroke: #000000"/>
      </g>
     </g>
     <g id="text_28">
      <!-- 0 -->
      <g transform="translate(706.21125 475.754111) scale(0.1 -0.1)">
       <use xlink:href="#DejaVuSans-30"/>
      </g>
     </g>
    </g>
    <g id="ytick_10">
     <g id="line2d_49">
      <path d="M 706.718256 401.828738 
L 1221.270425 401.828738 
" clip-path="url(#p56b35323e9)" style="fill: none; stroke-dasharray: 0.8,1.32; stroke-dashoffset: 0; stroke: #b0b0b0; stroke-opacity: 0.4; stroke-width: 0.8"/>
     </g>
     <g id="line2d_50">
      <g>
       <use xlink:href="#mc2ace98210" x="716.07375" y="401.828738" style="stroke: #000000"/>
      </g>
     </g>
     <g id="text_29">
      <!-- 1 -->
      <g transform="translate(706.21125 405.627957) scale(0.1 -0.1)">
       <use xlink:href="#DejaVuSans-31"/>
      </g>
     </g>
    </g>
    <g id="ytick_11">
     <g id="line2d_51">
      <path d="M 706.718256 331.702584 
L 1221.270425 331.702584 
" clip-path="url(#p56b35323e9)" style="fill: none; stroke-dasharray: 0.8,1.32; stroke-dashoffset: 0; stroke: #b0b0b0; stroke-opacity: 0.4; stroke-width: 0.8"/>
     </g>
     <g id="line2d_52">
      <g>
       <use xlink:href="#mc2ace98210" x="716.07375" y="331.702584" style="stroke: #000000"/>
      </g>
     </g>
     <g id="text_30">
      <!-- 2 -->
      <g transform="translate(706.21125 335.501803) scale(0.1 -0.1)">
       <use xlink:href="#DejaVuSans-32"/>
      </g>
     </g>
    </g>
    <g id="ytick_12">
     <g id="line2d_53">
      <path d="M 706.718256 261.57643 
L 1221.270425 261.57643 
" clip-path="url(#p56b35323e9)" style="fill: none; stroke-dasharray: 0.8,1.32; stroke-dashoffset: 0; stroke: #b0b0b0; stroke-opacity: 0.4; stroke-width: 0.8"/>
     </g>
     <g id="line2d_54">
      <g>
       <use xlink:href="#mc2ace98210" x="716.07375" y="261.57643" style="stroke: #000000"/>
      </g>
     </g>
     <g id="text_31">
      <!-- 3 -->
      <g transform="translate(706.21125 265.375649) scale(0.1 -0.1)">
       <use xlink:href="#DejaVuSans-33"/>
      </g>
     </g>
    </g>
    <g id="ytick_13">
     <g id="line2d_55">
      <path d="M 706.718256 191.450276 
L 1221.270425 191.450276 
" clip-path="url(#p56b35323e9)" style="fill: none; stroke-dasharray: 0.8,1.32; stroke-dashoffset: 0; stroke: #b0b0b0; stroke-opacity: 0.4; stroke-width: 0.8"/>
     </g>
     <g id="line2d_56">
      <g>
       <use xlink:href="#mc2ace98210" x="716.07375" y="191.450276" style="stroke: #000000"/>
      </g>
     </g>
     <g id="text_32">
      <!-- 4 -->
      <g transform="translate(706.21125 195.249495) scale(0.1 -0.1)">
       <use xlink:href="#DejaVuSans-34"/>
      </g>
     </g>
    </g>
    <g id="ytick_14">
     <g id="line2d_57">
      <path d="M 706.718256 121.324123 
L 1221.270425 121.324123 
" clip-path="url(#p56b35323e9)" style="fill: none; stroke-dasharray: 0.8,1.32; stroke-dashoffset: 0; stroke: #b0b0b0; stroke-opacity: 0.4; stroke-width: 0.8"/>
     </g>
     <g id="line2d_58">
      <g>
       <use xlink:href="#mc2ace98210" x="716.07375" y="121.324123" style="stroke: #000000"/>
      </g>
     </g>
     <g id="text_33">
      <!-- 5 -->
      <g transform="translate(706.21125 125.123341) scale(0.1 -0.1)">
       <use xlink:href="#DejaVuSans-35"/>
      </g>
     </g>
    </g>
    <g id="ytick_15">
     <g id="line2d_59">
      <path d="M 706.718256 51.197969 
L 1221.270425 51.197969 
" clip-path="url(#p56b35323e9)" style="fill: none; stroke-dasharray: 0.8,1.32; stroke-dashoffset: 0; stroke: #b0b0b0; stroke-opacity: 0.4; stroke-width: 0.8"/>
     </g>
     <g id="line2d_60">
      <g>
       <use xlink:href="#mc2ace98210" x="716.07375" y="51.197969" style="stroke: #000000"/>
      </g>
     </g>
     <g id="text_34">
      <!-- 6 -->
      <g transform="translate(706.21125 54.997188) scale(0.1 -0.1)">
       <use xlink:href="#DejaVuSans-36"/>
      </g>
     </g>
    </g>
    <g id="text_35">
     <!-- CMe / CMg ($) -->
     <g transform="translate(613.750625 48.608594) scale(0.12 -0.12)">
      <defs>
       <path id="DejaVuSans-Bold-4d" d="M 588 4666 
L 2119 4666 
L 3181 2169 
L 4250 4666 
L 5778 4666 
L 5778 0 
L 4641 0 
L 4641 3413 
L 3566 897 
L 2803 897 
L 1728 3413 
L 1728 0 
L 588 0 
L 588 4666 
z
" transform="scale(0.015625)"/>
       <path id="DejaVuSans-Bold-2f" d="M 1644 4666 
L 2338 4666 
L 691 -594 
L 0 -594 
L 1644 4666 
z
" transform="scale(0.015625)"/>
       <path id="DejaVuSans-Bold-67" d="M 2919 594 
Q 2688 288 2409 144 
Q 2131 0 1766 0 
Q 1125 0 706 504 
Q 288 1009 288 1791 
Q 288 2575 706 3076 
Q 1125 3578 1766 3578 
Q 2131 3578 2409 3434 
Q 2688 3291 2919 2981 
L 2919 3500 
L 4044 3500 
L 4044 353 
Q 4044 -491 3511 -936 
Q 2978 -1381 1966 -1381 
Q 1638 -1381 1331 -1331 
Q 1025 -1281 716 -1178 
L 716 -306 
Q 1009 -475 1290 -558 
Q 1572 -641 1856 -641 
Q 2406 -641 2662 -400 
Q 2919 -159 2919 353 
L 2919 594 
z
M 2181 2772 
Q 1834 2772 1640 2515 
Q 1447 2259 1447 1791 
Q 1447 1309 1634 1061 
Q 1822 813 2181 813 
Q 2531 813 2725 1069 
Q 2919 1325 2919 1791 
Q 2919 2259 2725 2515 
Q 2531 2772 2181 2772 
z
" transform="scale(0.015625)"/>
      </defs>
      <use xlink:href="#DejaVuSans-Bold-43"/>
      <use xlink:href="#DejaVuSans-Bold-4d" x="73.388672"/>
      <use xlink:href="#DejaVuSans-Bold-65" x="172.900391"/>
      <use xlink:href="#DejaVuSans-Bold-20" x="240.722656"/>
      <use xlink:href="#DejaVuSans-Bold-2f" x="275.537109"/>
      <use xlink:href="#DejaVuSans-Bold-20" x="312.060547"/>
      <use xlink:href="#DejaVuSans-Bold-43" x="346.875"/>
      <use xlink:href="#DejaVuSans-Bold-4d" x="420.263672"/>
      <use xlink:href="#DejaVuSans-Bold-67" x="519.775391"/>
      <use xlink:href="#DejaVuSans-Bold-20" x="591.357422"/>
      <use xlink:href="#DejaVuSans-Bold-28" x="626.171875"/>
      <use xlink:href="#DejaVuSans-Bold-24" x="671.875"/>
      <use xlink:href="#DejaVuSans-Bold-29" x="741.455078"/>
     </g>
    </g>
   </g>
   <g id="line2d_61">
    <path d="M 753.495726 107.298892 
L 755.658302 125.643989 
L 757.820879 142.004496 
L 759.983455 156.673641 
L 762.146032 169.889595 
L 764.308608 181.847815 
L 766.471185 192.710212 
L 768.633761 202.612048 
L 770.796338 211.667205 
L 772.958914 219.972245 
L 775.121491 227.609587 
L 777.284067 234.649999 
L 779.446644 241.154592 
L 781.60922 247.176409 
L 783.771797 252.761718 
L 785.934373 257.951054 
L 788.09695 262.780086 
L 790.259526 267.280324 
L 792.422103 271.479708 
L 794.584679 275.403097 
L 796.747256 279.072688 
L 798.909832 282.508359 
L 801.072409 285.727962 
L 805.397562 291.581744 
L 809.722715 296.745084 
L 814.047868 301.309421 
L 818.373021 305.350733 
L 822.698174 308.932669 
L 827.023327 312.108951 
L 831.34848 314.925241 
L 835.673633 317.420594 
L 839.998786 319.628614 
L 844.323939 321.578372 
L 848.649092 323.295143 
L 852.974245 324.801011 
L 857.299398 326.115353 
L 861.624551 327.255242 
L 868.11228 328.670547 
L 874.60001 329.770987 
L 881.087739 330.593702 
L 887.575469 331.170208 
L 894.063198 331.52743 
L 900.550928 331.688503 
L 909.201234 331.632311 
L 917.85154 331.302965 
L 926.501846 330.73415 
L 935.152152 329.954232 
L 945.965034 328.718776 
L 956.777917 327.230225 
L 967.590799 325.52122 
L 980.566258 323.217486 
L 993.541717 320.674387 
L 1006.517176 317.924005 
L 1021.655212 314.48847 
L 1038.955824 310.305182 
L 1056.256436 305.887878 
L 1075.719624 300.680738 
L 1097.345389 294.645077 
L 1121.133731 287.750638 
L 1147.084649 279.97499 
L 1175.198143 271.302564 
L 1183.848449 268.589046 
L 1183.848449 268.589046 
" clip-path="url(#p56b35323e9)" style="fill: none; stroke: #16a085; stroke-width: 3; stroke-linecap: square"/>
   </g>
   <g id="line2d_62">
    <path d="M 753.495726 443.90443 
L 1183.848449 121.324123 
L 1183.848449 121.324123 
" clip-path="url(#p56b35323e9)" style="fill: none; stroke: #e67e22; stroke-width: 3; stroke-linecap: square"/>
   </g>
   <g id="line2d_63">
    <path d="M 903.18363 471.954892 
L 903.18363 331.702584 
" clip-path="url(#p56b35323e9)" style="fill: none; stroke-dasharray: 3.7,1.6; stroke-dashoffset: 0; stroke: #34495e; stroke-opacity: 0.6"/>
   </g>
   <g id="line2d_64">
    <path d="M 716.07375 331.702584 
L 903.18363 331.702584 
" clip-path="url(#p56b35323e9)" style="fill: none; stroke-dasharray: 3.7,1.6; stroke-dashoffset: 0; stroke: #34495e; stroke-opacity: 0.6"/>
   </g>
   <g id="line2d_65">
    <g>
     <use xlink:href="#m3f3f000c65" x="1221.270425" y="471.954892" style="stroke: #000000; stroke-linejoin: miter"/>
    </g>
   </g>
   <g id="line2d_66">
    <g>
     <use xlink:href="#m9138ff8041" x="716.07375" y="51.197969" style="stroke: #000000; stroke-linejoin: miter"/>
    </g>
   </g>
   <g id="patch_8">
    <path d="M 716.07375 507.017969 
L 716.07375 51.197969 
" style="fill: none; stroke: #000000; stroke-width: 1.4; stroke-linejoin: miter; stroke-linecap: square"/>
   </g>
   <g id="patch_9">
    <path d="M 706.718256 471.954892 
L 1221.270425 471.954892 
" style="fill: none; stroke: #000000; stroke-width: 1.4; stroke-linejoin: miter; stroke-linecap: square"/>
   </g>
   <g id="text_36">
    <!-- (b) CMg corta CMe en su mínimo (Q=100) -->
    <g transform="translate(811.894341 39.197969) scale(0.13 -0.13)">
     <defs>
      <path id="DejaVuSans-Bold-62" d="M 2400 722 
Q 2759 722 2948 984 
Q 3138 1247 3138 1747 
Q 3138 2247 2948 2509 
Q 2759 2772 2400 2772 
Q 2041 2772 1848 2508 
Q 1656 2244 1656 1747 
Q 1656 1250 1848 986 
Q 2041 722 2400 722 
z
M 1656 2988 
Q 1888 3294 2169 3439 
Q 2450 3584 2816 3584 
Q 3463 3584 3878 3070 
Q 4294 2556 4294 1747 
Q 4294 938 3878 423 
Q 3463 -91 2816 -91 
Q 2450 -91 2169 54 
Q 1888 200 1656 506 
L 1656 0 
L 538 0 
L 538 4863 
L 1656 4863 
L 1656 2988 
z
" transform="scale(0.015625)"/>
      <path id="DejaVuSans-Bold-6d" d="M 3781 2919 
Q 3994 3244 4286 3414 
Q 4578 3584 4928 3584 
Q 5531 3584 5847 3212 
Q 6163 2841 6163 2131 
L 6163 0 
L 5038 0 
L 5038 1825 
Q 5041 1866 5042 1909 
Q 5044 1953 5044 2034 
Q 5044 2406 4934 2573 
Q 4825 2741 4581 2741 
Q 4263 2741 4089 2478 
Q 3916 2216 3909 1719 
L 3909 0 
L 2784 0 
L 2784 1825 
Q 2784 2406 2684 2573 
Q 2584 2741 2328 2741 
Q 2006 2741 1831 2477 
Q 1656 2213 1656 1722 
L 1656 0 
L 531 0 
L 531 3500 
L 1656 3500 
L 1656 2988 
Q 1863 3284 2130 3434 
Q 2397 3584 2719 3584 
Q 3081 3584 3359 3409 
Q 3638 3234 3781 2919 
z
" transform="scale(0.015625)"/>
      <path id="DejaVuSans-Bold-ed" d="M 538 3500 
L 1656 3500 
L 1656 0 
L 538 0 
L 538 3500 
z
M 1590 5119 
L 2474 5119 
L 1321 3944 
L 709 3944 
L 1590 5119 
z
" transform="scale(0.015625)"/>
     </defs>
     <use xlink:href="#DejaVuSans-Bold-28"/>
     <use xlink:href="#DejaVuSans-Bold-62" x="45.703125"/>
     <use xlink:href="#DejaVuSans-Bold-29" x="117.285156"/>
     <use xlink:href="#DejaVuSans-Bold-20" x="162.988281"/>
     <use xlink:href="#DejaVuSans-Bold-43" x="197.802734"/>
     <use xlink:href="#DejaVuSans-Bold-4d" x="271.191406"/>
     <use xlink:href="#DejaVuSans-Bold-67" x="370.703125"/>
     <use xlink:href="#DejaVuSans-Bold-20" x="442.285156"/>
     <use xlink:href="#DejaVuSans-Bold-63" x="477.099609"/>
     <use xlink:href="#DejaVuSans-Bold-6f" x="536.376953"/>
     <use xlink:href="#DejaVuSans-Bold-72" x="605.078125"/>
     <use xlink:href="#DejaVuSans-Bold-74" x="654.394531"/>
     <use xlink:href="#DejaVuSans-Bold-61" x="702.197266"/>
     <use xlink:href="#DejaVuSans-Bold-20" x="769.677734"/>
     <use xlink:href="#DejaVuSans-Bold-43" x="804.492188"/>
     <use xlink:href="#DejaVuSans-Bold-4d" x="877.880859"/>
     <use xlink:href="#DejaVuSans-Bold-65" x="977.392578"/>
     <use xlink:href="#DejaVuSans-Bold-20" x="1045.214844"/>
     <use xlink:href="#DejaVuSans-Bold-65" x="1080.029297"/>
     <use xlink:href="#DejaVuSans-Bold-6e" x="1147.851562"/>
     <use xlink:href="#DejaVuSans-Bold-20" x="1219.042969"/>
     <use xlink:href="#DejaVuSans-Bold-73" x="1253.857422"/>
     <use xlink:href="#DejaVuSans-Bold-75" x="1313.378906"/>
     <use xlink:href="#DejaVuSans-Bold-20" x="1384.570312"/>
     <use xlink:href="#DejaVuSans-Bold-6d" x="1419.384766"/>
     <use xlink:href="#DejaVuSans-Bold-ed" x="1523.583984"/>
     <use xlink:href="#DejaVuSans-Bold-6e" x="1557.861328"/>
     <use xlink:href="#DejaVuSans-Bold-69" x="1629.052734"/>
     <use xlink:href="#DejaVuSans-Bold-6d" x="1663.330078"/>
     <use xlink:href="#DejaVuSans-Bold-6f" x="1767.529297"/>
     <use xlink:href="#DejaVuSans-Bold-20" x="1836.230469"/>
     <use xlink:href="#DejaVuSans-Bold-28" x="1871.044922"/>
     <use xlink:href="#DejaVuSans-Bold-51" x="1916.748047"/>
     <use xlink:href="#DejaVuSans-Bold-3d" x="2001.757812"/>
     <use xlink:href="#DejaVuSans-Bold-31" x="2085.546875"/>
     <use xlink:href="#DejaVuSans-Bold-30" x="2155.126953"/>
     <use xlink:href="#DejaVuSans-Bold-30" x="2224.707031"/>
     <use xlink:href="#DejaVuSans-Bold-29" x="2294.287109"/>
    </g>
   </g>
   <g id="legend_2">
    <g id="patch_10">
     <path d="M 713.718256 88.554219 
L 857.610444 88.554219 
Q 859.610444 88.554219 859.610444 86.554219 
L 859.610444 58.197969 
Q 859.610444 56.197969 857.610444 56.197969 
L 713.718256 56.197969 
Q 711.718256 56.197969 711.718256 58.197969 
L 711.718256 86.554219 
Q 711.718256 88.554219 713.718256 88.554219 
z
" style="fill: #ffffff; opacity: 0.8; stroke: #cccccc; stroke-linejoin: miter"/>
    </g>
    <g id="line2d_67">
     <path d="M 715.718256 64.296406 
L 725.718256 64.296406 
L 735.718256 64.296406 
" style="fill: none; stroke: #16a085; stroke-width: 3; stroke-linecap: square"/>
    </g>
    <g id="text_37">
     <!-- CMe = Q/100 + 100/Q -->
     <g transform="translate(743.718256 67.796406) scale(0.1 -0.1)">
      <defs>
       <path id="DejaVuSans-4d" d="M 628 4666 
L 1569 4666 
L 2759 1491 
L 3956 4666 
L 4897 4666 
L 4897 0 
L 4281 0 
L 4281 4097 
L 3078 897 
L 2444 897 
L 1241 4097 
L 1241 0 
L 628 0 
L 628 4666 
z
" transform="scale(0.015625)"/>
       <path id="DejaVuSans-65" d="M 3597 1894 
L 3597 1613 
L 953 1613 
Q 991 1019 1311 708 
Q 1631 397 2203 397 
Q 2534 397 2845 478 
Q 3156 559 3463 722 
L 3463 178 
Q 3153 47 2828 -22 
Q 2503 -91 2169 -91 
Q 1331 -91 842 396 
Q 353 884 353 1716 
Q 353 2575 817 3079 
Q 1281 3584 2069 3584 
Q 2775 3584 3186 3129 
Q 3597 2675 3597 1894 
z
M 3022 2063 
Q 3016 2534 2758 2815 
Q 2500 3097 2075 3097 
Q 1594 3097 1305 2825 
Q 1016 2553 972 2059 
L 3022 2063 
z
" transform="scale(0.015625)"/>
      </defs>
      <use xlink:href="#DejaVuSans-43"/>
      <use xlink:href="#DejaVuSans-4d" x="69.824219"/>
      <use xlink:href="#DejaVuSans-65" x="156.103516"/>
      <use xlink:href="#DejaVuSans-20" x="217.626953"/>
      <use xlink:href="#DejaVuSans-3d" x="249.414062"/>
      <use xlink:href="#DejaVuSans-20" x="333.203125"/>
      <use xlink:href="#DejaVuSans-51" x="364.990234"/>
      <use xlink:href="#DejaVuSans-2f" x="443.701172"/>
      <use xlink:href="#DejaVuSans-31" x="477.392578"/>
      <use xlink:href="#DejaVuSans-30" x="541.015625"/>
      <use xlink:href="#DejaVuSans-30" x="604.638672"/>
      <use xlink:href="#DejaVuSans-20" x="668.261719"/>
      <use xlink:href="#DejaVuSans-2b" x="700.048828"/>
      <use xlink:href="#DejaVuSans-20" x="783.837891"/>
      <use xlink:href="#DejaVuSans-31" x="815.625"/>
      <use xlink:href="#DejaVuSans-30" x="879.248047"/>
      <use xlink:href="#DejaVuSans-30" x="942.871094"/>
      <use xlink:href="#DejaVuSans-2f" x="1006.494141"/>
      <use xlink:href="#DejaVuSans-51" x="1040.185547"/>
     </g>
    </g>
    <g id="line2d_68">
     <path d="M 715.718256 78.974531 
L 725.718256 78.974531 
L 735.718256 78.974531 
" style="fill: none; stroke: #e67e22; stroke-width: 3; stroke-linecap: square"/>
    </g>
    <g id="text_38">
     <!-- CMg = Q/50 -->
     <g transform="translate(743.718256 82.474531) scale(0.1 -0.1)">
      <defs>
       <path id="DejaVuSans-67" d="M 2906 1791 
Q 2906 2416 2648 2759 
Q 2391 3103 1925 3103 
Q 1463 3103 1205 2759 
Q 947 2416 947 1791 
Q 947 1169 1205 825 
Q 1463 481 1925 481 
Q 2391 481 2648 825 
Q 2906 1169 2906 1791 
z
M 3481 434 
Q 3481 -459 3084 -895 
Q 2688 -1331 1869 -1331 
Q 1566 -1331 1297 -1286 
Q 1028 -1241 775 -1147 
L 775 -588 
Q 1028 -725 1275 -790 
Q 1522 -856 1778 -856 
Q 2344 -856 2625 -561 
Q 2906 -266 2906 331 
L 2906 616 
Q 2728 306 2450 153 
Q 2172 0 1784 0 
Q 1141 0 747 490 
Q 353 981 353 1791 
Q 353 2603 747 3093 
Q 1141 3584 1784 3584 
Q 2172 3584 2450 3431 
Q 2728 3278 2906 2969 
L 2906 3500 
L 3481 3500 
L 3481 434 
z
" transform="scale(0.015625)"/>
      </defs>
      <use xlink:href="#DejaVuSans-43"/>
      <use xlink:href="#DejaVuSans-4d" x="69.824219"/>
      <use xlink:href="#DejaVuSans-67" x="156.103516"/>
      <use xlink:href="#DejaVuSans-20" x="219.580078"/>
      <use xlink:href="#DejaVuSans-3d" x="251.367188"/>
      <use xlink:href="#DejaVuSans-20" x="335.15625"/>
      <use xlink:href="#DejaVuSans-51" x="366.943359"/>
      <use xlink:href="#DejaVuSans-2f" x="445.654297"/>
      <use xlink:href="#DejaVuSans-35" x="479.345703"/>
      <use xlink:href="#DejaVuSans-30" x="542.96875"/>
     </g>
    </g>
   </g>
   <g id="line2d_69">
    <defs>
     <path id="mb6cff60b36" d="M 0 6.5 
C 1.72382 6.5 3.377269 5.815119 4.596194 4.596194 
C 5.815119 3.377269 6.5 1.72382 6.5 0 
C 6.5 -1.72382 5.815119 -3.377269 4.596194 -4.596194 
C 3.377269 -5.815119 1.72382 -6.5 0 -6.5 
C -1.72382 -6.5 -3.377269 -5.815119 -4.596194 -4.596194 
C -5.815119 -3.377269 -6.5 -1.72382 -6.5 0 
C -6.5 1.72382 -5.815119 3.377269 -4.596194 4.596194 
C -3.377269 5.815119 -1.72382 6.5 0 6.5 
z
" style="stroke: #000000"/>
    </defs>
    <g clip-path="url(#p56b35323e9)">
     <use xlink:href="#mb6cff60b36" x="903.18363" y="331.702584" style="stroke: #000000"/>
    </g>
   </g>
   <g id="patch_11">
    <path d="M 1018.78661 164.612154 
Q 961.553998 247.335124 904.957502 329.138662 
" style="fill: none; stroke: #27ae60; stroke-linecap: round"/>
    <path d="M 908.878073 326.987123 
L 904.957502 329.138662 
L 905.588614 324.711281 
" style="fill: none; stroke: #27ae60; stroke-linecap: round"/>
   </g>
   <g id="text_39">
    <g id="patch_12">
     <path d="M 985.365233 162.466887 
L 1082.955858 162.466887 
Q 1086.955858 162.466887 1086.955858 158.466887 
L 1086.955858 126.315012 
Q 1086.955858 122.315012 1082.955858 122.315012 
L 985.365233 122.315012 
Q 981.365233 122.315012 981.365233 126.315012 
L 981.365233 158.466887 
Q 981.365233 162.466887 985.365233 162.466887 
z
" style="fill: #e8f8f5; opacity: 0.97; stroke: #16a085; stroke-linejoin: miter"/>
    </g>
    <!-- Q* = 100 -->
    <g style="fill: #27ae60" transform="translate(1009.187108 133.91345) scale(0.1 -0.1)">
     <defs>
      <path id="DejaVuSans-Bold-2a" d="M 3219 3803 
L 2188 3263 
L 3219 2719 
L 2981 2278 
L 1941 2853 
L 1941 1778 
L 1409 1778 
L 1409 2853 
L 366 2278 
L 128 2719 
L 1172 3263 
L 128 3803 
L 366 4244 
L 1409 3675 
L 1409 4750 
L 1941 4750 
L 1941 3675 
L 2981 4244 
L 3219 3803 
z
" transform="scale(0.015625)"/>
     </defs>
     <use xlink:href="#DejaVuSans-Bold-51"/>
     <use xlink:href="#DejaVuSans-Bold-2a" x="85.009766"/>
     <use xlink:href="#DejaVuSans-Bold-20" x="137.304688"/>
     <use xlink:href="#DejaVuSans-Bold-3d" x="172.119141"/>
     <use xlink:href="#DejaVuSans-Bold-20" x="255.908203"/>
     <use xlink:href="#DejaVuSans-Bold-31" x="290.722656"/>
     <use xlink:href="#DejaVuSans-Bold-30" x="360.302734"/>
     <use xlink:href="#DejaVuSans-Bold-30" x="429.882812"/>
    </g>
    <!-- CMg = CMe = 2 -->
    <g style="fill: #27ae60" transform="translate(991.078514 145.111262) scale(0.1 -0.1)">
     <defs>
      <path id="DejaVuSans-Bold-32" d="M 1844 884 
L 3897 884 
L 3897 0 
L 506 0 
L 506 884 
L 2209 2388 
Q 2438 2594 2547 2791 
Q 2656 2988 2656 3200 
Q 2656 3528 2436 3728 
Q 2216 3928 1850 3928 
Q 1569 3928 1234 3808 
Q 900 3688 519 3450 
L 519 4475 
Q 925 4609 1322 4679 
Q 1719 4750 2100 4750 
Q 2938 4750 3402 4381 
Q 3866 4013 3866 3353 
Q 3866 2972 3669 2642 
Q 3472 2313 2841 1759 
L 1844 884 
z
" transform="scale(0.015625)"/>
     </defs>
     <use xlink:href="#DejaVuSans-Bold-43"/>
     <use xlink:href="#DejaVuSans-Bold-4d" x="73.388672"/>
     <use xlink:href="#DejaVuSans-Bold-67" x="172.900391"/>
     <use xlink:href="#DejaVuSans-Bold-20" x="244.482422"/>
     <use xlink:href="#DejaVuSans-Bold-3d" x="279.296875"/>
     <use xlink:href="#DejaVuSans-Bold-20" x="363.085938"/>
     <use xlink:href="#DejaVuSans-Bold-43" x="397.900391"/>
     <use xlink:href="#DejaVuSans-Bold-4d" x="471.289062"/>
     <use xlink:href="#DejaVuSans-Bold-65" x="570.800781"/>
     <use xlink:href="#DejaVuSans-Bold-20" x="638.623047"/>
     <use xlink:href="#DejaVuSans-Bold-3d" x="673.4375"/>
     <use xlink:href="#DejaVuSans-Bold-20" x="757.226562"/>
     <use xlink:href="#DejaVuSans-Bold-32" x="792.041016"/>
    </g>
    <!-- (escala eficiente) -->
    <g style="fill: #27ae60" transform="translate(985.365233 156.3872) scale(0.1 -0.1)">
     <defs>
      <path id="DejaVuSans-Bold-66" d="M 2841 4863 
L 2841 4128 
L 2222 4128 
Q 1984 4128 1890 4042 
Q 1797 3956 1797 3744 
L 1797 3500 
L 2753 3500 
L 2753 2700 
L 1797 2700 
L 1797 0 
L 678 0 
L 678 2700 
L 122 2700 
L 122 3500 
L 678 3500 
L 678 3744 
Q 678 4316 997 4589 
Q 1316 4863 1984 4863 
L 2841 4863 
z
" transform="scale(0.015625)"/>
     </defs>
     <use xlink:href="#DejaVuSans-Bold-28"/>
     <use xlink:href="#DejaVuSans-Bold-65" x="45.703125"/>
     <use xlink:href="#DejaVuSans-Bold-73" x="113.525391"/>
     <use xlink:href="#DejaVuSans-Bold-63" x="173.046875"/>
     <use xlink:href="#DejaVuSans-Bold-61" x="232.324219"/>
     <use xlink:href="#DejaVuSans-Bold-6c" x="299.804688"/>
     <use xlink:href="#DejaVuSans-Bold-61" x="334.082031"/>
     <use xlink:href="#DejaVuSans-Bold-20" x="401.5625"/>
     <use xlink:href="#DejaVuSans-Bold-65" x="436.376953"/>
     <use xlink:href="#DejaVuSans-Bold-66" x="504.199219"/>
     <use xlink:href="#DejaVuSans-Bold-69" x="547.705078"/>
     <use xlink:href="#DejaVuSans-Bold-63" x="581.982422"/>
     <use xlink:href="#DejaVuSans-Bold-69" x="641.259766"/>
     <use xlink:href="#DejaVuSans-Bold-65" x="675.537109"/>
     <use xlink:href="#DejaVuSans-Bold-6e" x="743.359375"/>
     <use xlink:href="#DejaVuSans-Bold-74" x="814.550781"/>
     <use xlink:href="#DejaVuSans-Bold-65" x="862.353516"/>
     <use xlink:href="#DejaVuSans-Bold-29" x="930.175781"/>
    </g>
   </g>
  </g>
 </g>
 <defs>
  <clipPath id="p2d05e731ab">
   <rect x="80.520756" y="51.197969" width="514.552169" height="455.82"/>
  </clipPath>
  <clipPath id="p56b35323e9">
   <rect x="706.718256" y="51.197969" width="514.552169" height="455.82"/>
  </clipPath>
 </defs>
</svg>
