<?xml version="1.0" encoding="utf-8" standalone="no"?>
<!DOCTYPE svg PUBLIC "-//W3C//DTD SVG 1.1//EN"
  "http://www.w3.org/Graphics/SVG/1.1/DTD/svg11.dtd">
<svg xmlns:xlink="http://www.w3.org/1999/xlink" width="769.657243pt" height="451.005328pt" viewBox="0 0 769.657243 451.005328" xmlns="http://www.w3.org/2000/svg" version="1.1">
 <metadata>
  <rdf:RDF xmlns:dc="http://purl.org/dc/elements/1.1/" xmlns:cc="http://creativecommons.org/ns#" xmlns:rdf="http://www.w3.org/1999/02/22-rdf-syntax-ns#">
   <cc:Work>
    <dc:type rdf:resource="http://purl.org/dc/dcmitype/StillImage"/>
    <dc:date>2026-04-28T17:41:36.180631</dc:date>
    <dc:format>image/svg+xml</dc:format>
    <dc:creator>
     <cc:Agent>
      <dc:title>Matplotlib v3.9.2, https://matplotlib.org/</dc:title>
     </cc:Agent>
    </dc:creator>
   </cc:Work>
  </rdf:RDF>
 </metadata>
 <defs>
  <style type="text/css">*{stroke-linejoin: round; stroke-linecap: butt}</style>
 </defs>
 <g id="figure_1">
  <g id="patch_1">
   <path d="M 0 451.005328 
L 769.657243 451.005328 
L 769.657243 0 
L 0 0 
z
" style="fill: #ffffff"/>
  </g>
  <g id="axes_1">
   <g id="patch_2">
    <path d="M 178.857243 411.037969 
L 736.857243 411.037969 
L 736.857243 50.677969 
L 178.857243 50.677969 
z
" style="fill: #ffffff"/>
   </g>
   <g id="patch_3">
    <path d="M 201.78875 399.413453 
L 278.227106 399.413453 
L 278.227106 120.425066 
L 201.78875 120.425066 
L 201.78875 399.413453 
z
" clip-path="url(#p32c7fcd489)" style="fill: none; stroke: #c0392b; stroke-width: 2.5; stroke-linejoin: miter"/>
   </g>
   <g id="patch_4">
    <path d="M 278.227106 399.413453 
L 354.665462 399.413453 
L 354.665462 201.796678 
L 278.227106 201.796678 
L 278.227106 399.413453 
z
" clip-path="url(#p32c7fcd489)" style="fill: none; stroke: #c0392b; stroke-width: 2.5; stroke-linejoin: miter"/>
   </g>
   <g id="patch_5">
    <path d="M 354.665462 399.413453 
L 431.103818 399.413453 
L 431.103818 306.417324 
L 354.665462 306.417324 
L 354.665462 399.413453 
z
" clip-path="url(#p32c7fcd489)" style="fill: none; stroke: #c0392b; stroke-width: 2.5; stroke-linejoin: miter"/>
   </g>
   <g id="patch_6">
    <path d="M 431.103818 399.413453 
L 507.542175 399.413453 
L 507.542175 376.16442 
L 431.103818 376.16442 
L 431.103818 399.413453 
z
" clip-path="url(#p32c7fcd489)" style="fill: none; stroke: #c0392b; stroke-width: 2.5; stroke-linejoin: miter"/>
   </g>
   <g id="patch_7">
    <path d="M 201.78875 225.045711 
L 278.227106 225.045711 
L 278.227106 120.425066 
L 201.78875 120.425066 
z
" clip-path="url(#p32c7fcd489)" style="fill: #27ae60; opacity: 0.35; stroke: #27ae60; stroke-linejoin: miter"/>
   </g>
   <g id="patch_8">
    <path d="M 278.227106 225.045711 
L 354.665462 225.045711 
L 354.665462 201.796678 
L 278.227106 201.796678 
z
" clip-path="url(#p32c7fcd489)" style="fill: #27ae60; opacity: 0.35; stroke: #27ae60; stroke-linejoin: miter"/>
   </g>
   <g id="matplotlib.axis_1">
    <g id="xtick_1">
     <g id="line2d_1">
      <path d="M 240.007928 411.037969 
L 240.007928 50.677969 
" clip-path="url(#p32c7fcd489)" style="fill: none; stroke-dasharray: 0.8,1.32; stroke-dashoffset: 0; stroke: #b0b0b0; stroke-opacity: 0.4; stroke-width: 0.8"/>
     </g>
     <g id="line2d_2">
      <defs>
       <path id="m4129df0308" d="M 0 0 
L 0 -4 
" style="stroke: #000000"/>
      </defs>
      <g>
       <use xlink:href="#m4129df0308" x="240.007928" y="399.413453" style="stroke: #000000"/>
      </g>
     </g>
     <g id="text_1">
      <!-- 1ª h -->
      <g transform="translate(229.712616 410.51189) scale(0.1 -0.1)">
       <defs>
        <path id="DejaVuSans-31" d="M 794 531 
L 1825 531 
L 1825 4091 
L 703 3866 
L 703 4441 
L 1819 4666 
L 2450 4666 
L 2450 531 
L 3481 531 
L 3481 0 
L 794 0 
L 794 531 
z
" transform="scale(0.015625)"/>
        <path id="DejaVuSans-aa" d="M 434 1850 
L 2584 1850 
L 2584 1466 
L 434 1466 
L 434 1850 
z
M 2578 3641 
L 2578 2241 
L 2113 2241 
L 2113 2591 
Q 1975 2394 1750 2287 
Q 1525 2181 1234 2181 
Q 834 2181 596 2392 
Q 359 2603 359 2956 
Q 359 3378 657 3593 
Q 956 3809 1544 3809 
L 2113 3809 
L 2113 3822 
Q 2113 4106 1930 4248 
Q 1747 4391 1381 4391 
Q 1188 4391 975 4337 
Q 763 4284 550 4178 
L 550 4575 
Q 778 4663 1004 4706 
Q 1231 4750 1447 4750 
Q 2019 4750 2298 4475 
Q 2578 4200 2578 3641 
z
M 1716 3450 
Q 1213 3450 1016 3345 
Q 819 3241 819 2994 
Q 819 2794 972 2673 
Q 1125 2553 1381 2553 
Q 1706 2553 1909 2778 
Q 2113 3003 2113 3359 
L 2113 3450 
L 1716 3450 
z
" transform="scale(0.015625)"/>
        <path id="DejaVuSans-20" transform="scale(0.015625)"/>
        <path id="DejaVuSans-68" d="M 3513 2113 
L 3513 0 
L 2938 0 
L 2938 2094 
Q 2938 2591 2744 2837 
Q 2550 3084 2163 3084 
Q 1697 3084 1428 2787 
Q 1159 2491 1159 1978 
L 1159 0 
L 581 0 
L 581 4863 
L 1159 4863 
L 1159 2956 
Q 1366 3272 1645 3428 
Q 1925 3584 2291 3584 
Q 2894 3584 3203 3211 
Q 3513 2838 3513 2113 
z
" transform="scale(0.015625)"/>
       </defs>
       <use xlink:href="#DejaVuSans-31"/>
       <use xlink:href="#DejaVuSans-aa" x="63.623047"/>
       <use xlink:href="#DejaVuSans-20" x="110.742188"/>
       <use xlink:href="#DejaVuSans-68" x="142.529297"/>
      </g>
     </g>
    </g>
    <g id="xtick_2">
     <g id="line2d_3">
      <path d="M 316.446284 411.037969 
L 316.446284 50.677969 
" clip-path="url(#p32c7fcd489)" style="fill: none; stroke-dasharray: 0.8,1.32; stroke-dashoffset: 0; stroke: #b0b0b0; stroke-opacity: 0.4; stroke-width: 0.8"/>
     </g>
     <g id="line2d_4">
      <g>
       <use xlink:href="#m4129df0308" x="316.446284" y="399.413453" style="stroke: #000000"/>
      </g>
     </g>
     <g id="text_2">
      <!-- 2ª h -->
      <g transform="translate(306.150972 410.51189) scale(0.1 -0.1)">
       <defs>
        <path id="DejaVuSans-32" d="M 1228 531 
L 3431 531 
L 3431 0 
L 469 0 
L 469 531 
Q 828 903 1448 1529 
Q 2069 2156 2228 2338 
Q 2531 2678 2651 2914 
Q 2772 3150 2772 3378 
Q 2772 3750 2511 3984 
Q 2250 4219 1831 4219 
Q 1534 4219 1204 4116 
Q 875 4013 500 3803 
L 500 4441 
Q 881 4594 1212 4672 
Q 1544 4750 1819 4750 
Q 2544 4750 2975 4387 
Q 3406 4025 3406 3419 
Q 3406 3131 3298 2873 
Q 3191 2616 2906 2266 
Q 2828 2175 2409 1742 
Q 1991 1309 1228 531 
z
" transform="scale(0.015625)"/>
       </defs>
       <use xlink:href="#DejaVuSans-32"/>
       <use xlink:href="#DejaVuSans-aa" x="63.623047"/>
       <use xlink:href="#DejaVuSans-20" x="110.742188"/>
       <use xlink:href="#DejaVuSans-68" x="142.529297"/>
      </g>
     </g>
    </g>
    <g id="xtick_3">
     <g id="line2d_5">
      <path d="M 392.88464 411.037969 
L 392.88464 50.677969 
" clip-path="url(#p32c7fcd489)" style="fill: none; stroke-dasharray: 0.8,1.32; stroke-dashoffset: 0; stroke: #b0b0b0; stroke-opacity: 0.4; stroke-width: 0.8"/>
     </g>
     <g id="line2d_6">
      <g>
       <use xlink:href="#m4129df0308" x="392.88464" y="399.413453" style="stroke: #000000"/>
      </g>
     </g>
     <g id="text_3">
      <!-- 3ª h -->
      <g transform="translate(382.589328 410.51189) scale(0.1 -0.1)">
       <defs>
        <path id="DejaVuSans-33" d="M 2597 2516 
Q 3050 2419 3304 2112 
Q 3559 1806 3559 1356 
Q 3559 666 3084 287 
Q 2609 -91 1734 -91 
Q 1441 -91 1130 -33 
Q 819 25 488 141 
L 488 750 
Q 750 597 1062 519 
Q 1375 441 1716 441 
Q 2309 441 2620 675 
Q 2931 909 2931 1356 
Q 2931 1769 2642 2001 
Q 2353 2234 1838 2234 
L 1294 2234 
L 1294 2753 
L 1863 2753 
Q 2328 2753 2575 2939 
Q 2822 3125 2822 3475 
Q 2822 3834 2567 4026 
Q 2313 4219 1838 4219 
Q 1578 4219 1281 4162 
Q 984 4106 628 3988 
L 628 4550 
Q 988 4650 1302 4700 
Q 1616 4750 1894 4750 
Q 2613 4750 3031 4423 
Q 3450 4097 3450 3541 
Q 3450 3153 3228 2886 
Q 3006 2619 2597 2516 
z
" transform="scale(0.015625)"/>
       </defs>
       <use xlink:href="#DejaVuSans-33"/>
       <use xlink:href="#DejaVuSans-aa" x="63.623047"/>
       <use xlink:href="#DejaVuSans-20" x="110.742188"/>
       <use xlink:href="#DejaVuSans-68" x="142.529297"/>
      </g>
     </g>
    </g>
    <g id="xtick_4">
     <g id="line2d_7">
      <path d="M 469.322997 411.037969 
L 469.322997 50.677969 
" clip-path="url(#p32c7fcd489)" style="fill: none; stroke-dasharray: 0.8,1.32; stroke-dashoffset: 0; stroke: #b0b0b0; stroke-opacity: 0.4; stroke-width: 0.8"/>
     </g>
     <g id="line2d_8">
      <g>
       <use xlink:href="#m4129df0308" x="469.322997" y="399.413453" style="stroke: #000000"/>
      </g>
     </g>
     <g id="text_4">
      <!-- 4ª h -->
      <g transform="translate(459.027684 410.51189) scale(0.1 -0.1)">
       <defs>
        <path id="DejaVuSans-34" d="M 2419 4116 
L 825 1625 
L 2419 1625 
L 2419 4116 
z
M 2253 4666 
L 3047 4666 
L 3047 1625 
L 3713 1625 
L 3713 1100 
L 3047 1100 
L 3047 0 
L 2419 0 
L 2419 1100 
L 313 1100 
L 313 1709 
L 2253 4666 
z
" transform="scale(0.015625)"/>
       </defs>
       <use xlink:href="#DejaVuSans-34"/>
       <use xlink:href="#DejaVuSans-aa" x="63.623047"/>
       <use xlink:href="#DejaVuSans-20" x="110.742188"/>
       <use xlink:href="#DejaVuSans-68" x="142.529297"/>
      </g>
     </g>
    </g>
    <g id="text_5">
     <!-- Hora consumida -->
     <g transform="translate(627.486618 419.709703) scale(0.12 -0.12)">
      <defs>
       <path id="DejaVuSans-Bold-48" d="M 588 4666 
L 1791 4666 
L 1791 2888 
L 3566 2888 
L 3566 4666 
L 4769 4666 
L 4769 0 
L 3566 0 
L 3566 1978 
L 1791 1978 
L 1791 0 
L 588 0 
L 588 4666 
z
" transform="scale(0.015625)"/>
       <path id="DejaVuSans-Bold-6f" d="M 2203 2784 
Q 1831 2784 1636 2517 
Q 1441 2250 1441 1747 
Q 1441 1244 1636 976 
Q 1831 709 2203 709 
Q 2569 709 2762 976 
Q 2956 1244 2956 1747 
Q 2956 2250 2762 2517 
Q 2569 2784 2203 2784 
z
M 2203 3584 
Q 3106 3584 3614 3096 
Q 4122 2609 4122 1747 
Q 4122 884 3614 396 
Q 3106 -91 2203 -91 
Q 1297 -91 786 396 
Q 275 884 275 1747 
Q 275 2609 786 3096 
Q 1297 3584 2203 3584 
z
" transform="scale(0.015625)"/>
       <path id="DejaVuSans-Bold-72" d="M 3138 2547 
Q 2991 2616 2845 2648 
Q 2700 2681 2553 2681 
Q 2122 2681 1889 2404 
Q 1656 2128 1656 1613 
L 1656 0 
L 538 0 
L 538 3500 
L 1656 3500 
L 1656 2925 
Q 1872 3269 2151 3426 
Q 2431 3584 2822 3584 
Q 2878 3584 2943 3579 
Q 3009 3575 3134 3559 
L 3138 2547 
z
" transform="scale(0.015625)"/>
       <path id="DejaVuSans-Bold-61" d="M 2106 1575 
Q 1756 1575 1579 1456 
Q 1403 1338 1403 1106 
Q 1403 894 1545 773 
Q 1688 653 1941 653 
Q 2256 653 2472 879 
Q 2688 1106 2688 1447 
L 2688 1575 
L 2106 1575 
z
M 3816 1997 
L 3816 0 
L 2688 0 
L 2688 519 
Q 2463 200 2181 54 
Q 1900 -91 1497 -91 
Q 953 -91 614 226 
Q 275 544 275 1050 
Q 275 1666 698 1953 
Q 1122 2241 2028 2241 
L 2688 2241 
L 2688 2328 
Q 2688 2594 2478 2717 
Q 2269 2841 1825 2841 
Q 1466 2841 1156 2769 
Q 847 2697 581 2553 
L 581 3406 
Q 941 3494 1303 3539 
Q 1666 3584 2028 3584 
Q 2975 3584 3395 3211 
Q 3816 2838 3816 1997 
z
" transform="scale(0.015625)"/>
       <path id="DejaVuSans-Bold-20" transform="scale(0.015625)"/>
       <path id="DejaVuSans-Bold-63" d="M 3366 3391 
L 3366 2478 
Q 3138 2634 2908 2709 
Q 2678 2784 2431 2784 
Q 1963 2784 1702 2511 
Q 1441 2238 1441 1747 
Q 1441 1256 1702 982 
Q 1963 709 2431 709 
Q 2694 709 2930 787 
Q 3166 866 3366 1019 
L 3366 103 
Q 3103 6 2833 -42 
Q 2563 -91 2291 -91 
Q 1344 -91 809 395 
Q 275 881 275 1747 
Q 275 2613 809 3098 
Q 1344 3584 2291 3584 
Q 2566 3584 2833 3536 
Q 3100 3488 3366 3391 
z
" transform="scale(0.015625)"/>
       <path id="DejaVuSans-Bold-6e" d="M 4056 2131 
L 4056 0 
L 2931 0 
L 2931 347 
L 2931 1631 
Q 2931 2084 2911 2256 
Q 2891 2428 2841 2509 
Q 2775 2619 2662 2680 
Q 2550 2741 2406 2741 
Q 2056 2741 1856 2470 
Q 1656 2200 1656 1722 
L 1656 0 
L 538 0 
L 538 3500 
L 1656 3500 
L 1656 2988 
Q 1909 3294 2193 3439 
Q 2478 3584 2822 3584 
Q 3428 3584 3742 3212 
Q 4056 2841 4056 2131 
z
" transform="scale(0.015625)"/>
       <path id="DejaVuSans-Bold-73" d="M 3272 3391 
L 3272 2541 
Q 2913 2691 2578 2766 
Q 2244 2841 1947 2841 
Q 1628 2841 1473 2761 
Q 1319 2681 1319 2516 
Q 1319 2381 1436 2309 
Q 1553 2238 1856 2203 
L 2053 2175 
Q 2913 2066 3209 1816 
Q 3506 1566 3506 1031 
Q 3506 472 3093 190 
Q 2681 -91 1863 -91 
Q 1516 -91 1145 -36 
Q 775 19 384 128 
L 384 978 
Q 719 816 1070 734 
Q 1422 653 1784 653 
Q 2113 653 2278 743 
Q 2444 834 2444 1013 
Q 2444 1163 2330 1236 
Q 2216 1309 1875 1350 
L 1678 1375 
Q 931 1469 631 1722 
Q 331 1975 331 2491 
Q 331 3047 712 3315 
Q 1094 3584 1881 3584 
Q 2191 3584 2531 3537 
Q 2872 3491 3272 3391 
z
" transform="scale(0.015625)"/>
       <path id="DejaVuSans-Bold-75" d="M 500 1363 
L 500 3500 
L 1625 3500 
L 1625 3150 
Q 1625 2866 1622 2436 
Q 1619 2006 1619 1863 
Q 1619 1441 1641 1255 
Q 1663 1069 1716 984 
Q 1784 875 1895 815 
Q 2006 756 2150 756 
Q 2500 756 2700 1025 
Q 2900 1294 2900 1772 
L 2900 3500 
L 4019 3500 
L 4019 0 
L 2900 0 
L 2900 506 
Q 2647 200 2364 54 
Q 2081 -91 1741 -91 
Q 1134 -91 817 281 
Q 500 653 500 1363 
z
" transform="scale(0.015625)"/>
       <path id="DejaVuSans-Bold-6d" d="M 3781 2919 
Q 3994 3244 4286 3414 
Q 4578 3584 4928 3584 
Q 5531 3584 5847 3212 
Q 6163 2841 6163 2131 
L 6163 0 
L 5038 0 
L 5038 1825 
Q 5041 1866 5042 1909 
Q 5044 1953 5044 2034 
Q 5044 2406 4934 2573 
Q 4825 2741 4581 2741 
Q 4263 2741 4089 2478 
Q 3916 2216 3909 1719 
L 3909 0 
L 2784 0 
L 2784 1825 
Q 2784 2406 2684 2573 
Q 2584 2741 2328 2741 
Q 2006 2741 1831 2477 
Q 1656 2213 1656 1722 
L 1656 0 
L 531 0 
L 531 3500 
L 1656 3500 
L 1656 2988 
Q 1863 3284 2130 3434 
Q 2397 3584 2719 3584 
Q 3081 3584 3359 3409 
Q 3638 3234 3781 2919 
z
" transform="scale(0.015625)"/>
       <path id="DejaVuSans-Bold-69" d="M 538 3500 
L 1656 3500 
L 1656 0 
L 538 0 
L 538 3500 
z
M 538 4863 
L 1656 4863 
L 1656 3950 
L 538 3950 
L 538 4863 
z
" transform="scale(0.015625)"/>
       <path id="DejaVuSans-Bold-64" d="M 2919 2988 
L 2919 4863 
L 4044 4863 
L 4044 0 
L 2919 0 
L 2919 506 
Q 2688 197 2409 53 
Q 2131 -91 1766 -91 
Q 1119 -91 703 423 
Q 288 938 288 1747 
Q 288 2556 703 3070 
Q 1119 3584 1766 3584 
Q 2128 3584 2408 3439 
Q 2688 3294 2919 2988 
z
M 2181 722 
Q 2541 722 2730 984 
Q 2919 1247 2919 1747 
Q 2919 2247 2730 2509 
Q 2541 2772 2181 2772 
Q 1825 2772 1636 2509 
Q 1447 2247 1447 1747 
Q 1447 1247 1636 984 
Q 1825 722 2181 722 
z
" transform="scale(0.015625)"/>
      </defs>
      <use xlink:href="#DejaVuSans-Bold-48"/>
      <use xlink:href="#DejaVuSans-Bold-6f" x="83.691406"/>
      <use xlink:href="#DejaVuSans-Bold-72" x="152.392578"/>
      <use xlink:href="#DejaVuSans-Bold-61" x="201.708984"/>
      <use xlink:href="#DejaVuSans-Bold-20" x="269.189453"/>
      <use xlink:href="#DejaVuSans-Bold-63" x="304.003906"/>
      <use xlink:href="#DejaVuSans-Bold-6f" x="363.28125"/>
      <use xlink:href="#DejaVuSans-Bold-6e" x="431.982422"/>
      <use xlink:href="#DejaVuSans-Bold-73" x="503.173828"/>
      <use xlink:href="#DejaVuSans-Bold-75" x="562.695312"/>
      <use xlink:href="#DejaVuSans-Bold-6d" x="633.886719"/>
      <use xlink:href="#DejaVuSans-Bold-69" x="738.085938"/>
      <use xlink:href="#DejaVuSans-Bold-64" x="772.363281"/>
      <use xlink:href="#DejaVuSans-Bold-61" x="843.945312"/>
     </g>
    </g>
   </g>
   <g id="matplotlib.axis_2">
    <g id="ytick_1">
     <g id="line2d_9">
      <path d="M 178.857243 399.413453 
L 736.857243 399.413453 
" clip-path="url(#p32c7fcd489)" style="fill: none; stroke-dasharray: 0.8,1.32; stroke-dashoffset: 0; stroke: #b0b0b0; stroke-opacity: 0.4; stroke-width: 0.8"/>
     </g>
     <g id="line2d_10">
      <defs>
       <path id="m8c79da731b" d="M 0 0 
L 4 0 
" style="stroke: #000000"/>
      </defs>
      <g>
       <use xlink:href="#m8c79da731b" x="201.78875" y="399.413453" style="stroke: #000000"/>
      </g>
     </g>
     <g id="text_6">
      <!-- 0 -->
      <g transform="translate(191.92625 403.212671) scale(0.1 -0.1)">
       <defs>
        <path id="DejaVuSans-30" d="M 2034 4250 
Q 1547 4250 1301 3770 
Q 1056 3291 1056 2328 
Q 1056 1369 1301 889 
Q 1547 409 2034 409 
Q 2525 409 2770 889 
Q 3016 1369 3016 2328 
Q 3016 3291 2770 3770 
Q 2525 4250 2034 4250 
z
M 2034 4750 
Q 2819 4750 3233 4129 
Q 3647 3509 3647 2328 
Q 3647 1150 3233 529 
Q 2819 -91 2034 -91 
Q 1250 -91 836 529 
Q 422 1150 422 2328 
Q 422 3509 836 4129 
Q 1250 4750 2034 4750 
z
" transform="scale(0.015625)"/>
       </defs>
       <use xlink:href="#DejaVuSans-30"/>
      </g>
     </g>
    </g>
    <g id="ytick_2">
     <g id="line2d_11">
      <path d="M 178.857243 341.290872 
L 736.857243 341.290872 
" clip-path="url(#p32c7fcd489)" style="fill: none; stroke-dasharray: 0.8,1.32; stroke-dashoffset: 0; stroke: #b0b0b0; stroke-opacity: 0.4; stroke-width: 0.8"/>
     </g>
     <g id="line2d_12">
      <g>
       <use xlink:href="#m8c79da731b" x="201.78875" y="341.290872" style="stroke: #000000"/>
      </g>
     </g>
     <g id="text_7">
      <!-- 5 -->
      <g transform="translate(191.92625 345.090091) scale(0.1 -0.1)">
       <defs>
        <path id="DejaVuSans-35" d="M 691 4666 
L 3169 4666 
L 3169 4134 
L 1269 4134 
L 1269 2991 
Q 1406 3038 1543 3061 
Q 1681 3084 1819 3084 
Q 2600 3084 3056 2656 
Q 3513 2228 3513 1497 
Q 3513 744 3044 326 
Q 2575 -91 1722 -91 
Q 1428 -91 1123 -41 
Q 819 9 494 109 
L 494 744 
Q 775 591 1075 516 
Q 1375 441 1709 441 
Q 2250 441 2565 725 
Q 2881 1009 2881 1497 
Q 2881 1984 2565 2268 
Q 2250 2553 1709 2553 
Q 1456 2553 1204 2497 
Q 953 2441 691 2322 
L 691 4666 
z
" transform="scale(0.015625)"/>
       </defs>
       <use xlink:href="#DejaVuSans-35"/>
      </g>
     </g>
    </g>
    <g id="ytick_3">
     <g id="line2d_13">
      <path d="M 178.857243 283.168291 
L 736.857243 283.168291 
" clip-path="url(#p32c7fcd489)" style="fill: none; stroke-dasharray: 0.8,1.32; stroke-dashoffset: 0; stroke: #b0b0b0; stroke-opacity: 0.4; stroke-width: 0.8"/>
     </g>
     <g id="line2d_14">
      <g>
       <use xlink:href="#m8c79da731b" x="201.78875" y="283.168291" style="stroke: #000000"/>
      </g>
     </g>
     <g id="text_8">
      <!-- 10 -->
      <g transform="translate(185.56375 286.96751) scale(0.1 -0.1)">
       <use xlink:href="#DejaVuSans-31"/>
       <use xlink:href="#DejaVuSans-30" x="63.623047"/>
      </g>
     </g>
    </g>
    <g id="ytick_4">
     <g id="line2d_15">
      <path d="M 178.857243 225.045711 
L 736.857243 225.045711 
" clip-path="url(#p32c7fcd489)" style="fill: none; stroke-dasharray: 0.8,1.32; stroke-dashoffset: 0; stroke: #b0b0b0; stroke-opacity: 0.4; stroke-width: 0.8"/>
     </g>
     <g id="line2d_16">
      <g>
       <use xlink:href="#m8c79da731b" x="201.78875" y="225.045711" style="stroke: #000000"/>
      </g>
     </g>
     <g id="text_9">
      <!-- 15 -->
      <g transform="translate(185.56375 228.844929) scale(0.1 -0.1)">
       <use xlink:href="#DejaVuSans-31"/>
       <use xlink:href="#DejaVuSans-35" x="63.623047"/>
      </g>
     </g>
    </g>
    <g id="ytick_5">
     <g id="line2d_17">
      <path d="M 178.857243 166.92313 
L 736.857243 166.92313 
" clip-path="url(#p32c7fcd489)" style="fill: none; stroke-dasharray: 0.8,1.32; stroke-dashoffset: 0; stroke: #b0b0b0; stroke-opacity: 0.4; stroke-width: 0.8"/>
     </g>
     <g id="line2d_18">
      <g>
       <use xlink:href="#m8c79da731b" x="201.78875" y="166.92313" style="stroke: #000000"/>
      </g>
     </g>
     <g id="text_10">
      <!-- 20 -->
      <g transform="translate(185.56375 170.722349) scale(0.1 -0.1)">
       <use xlink:href="#DejaVuSans-32"/>
       <use xlink:href="#DejaVuSans-30" x="63.623047"/>
      </g>
     </g>
    </g>
    <g id="ytick_6">
     <g id="line2d_19">
      <path d="M 178.857243 108.800549 
L 736.857243 108.800549 
" clip-path="url(#p32c7fcd489)" style="fill: none; stroke-dasharray: 0.8,1.32; stroke-dashoffset: 0; stroke: #b0b0b0; stroke-opacity: 0.4; stroke-width: 0.8"/>
     </g>
     <g id="line2d_20">
      <g>
       <use xlink:href="#m8c79da731b" x="201.78875" y="108.800549" style="stroke: #000000"/>
      </g>
     </g>
     <g id="text_11">
      <!-- 25 -->
      <g transform="translate(185.56375 112.599768) scale(0.1 -0.1)">
       <use xlink:href="#DejaVuSans-32"/>
       <use xlink:href="#DejaVuSans-35" x="63.623047"/>
      </g>
     </g>
    </g>
    <g id="ytick_7">
     <g id="line2d_21">
      <path d="M 178.857243 50.677969 
L 736.857243 50.677969 
" clip-path="url(#p32c7fcd489)" style="fill: none; stroke-dasharray: 0.8,1.32; stroke-dashoffset: 0; stroke: #b0b0b0; stroke-opacity: 0.4; stroke-width: 0.8"/>
     </g>
     <g id="line2d_22">
      <g>
       <use xlink:href="#m8c79da731b" x="201.78875" y="50.677969" style="stroke: #000000"/>
      </g>
     </g>
     <g id="text_12">
      <!-- 30 -->
      <g transform="translate(185.56375 54.477188) scale(0.1 -0.1)">
       <use xlink:href="#DejaVuSans-33"/>
       <use xlink:href="#DejaVuSans-30" x="63.623047"/>
      </g>
     </g>
    </g>
    <g id="text_13">
     <!-- Valoración marginal ($) -->
     <g transform="translate(28.8 48.088594) scale(0.12 -0.12)">
      <defs>
       <path id="DejaVuSans-Bold-56" d="M 31 4666 
L 1241 4666 
L 2478 1222 
L 3713 4666 
L 4922 4666 
L 3194 0 
L 1759 0 
L 31 4666 
z
" transform="scale(0.015625)"/>
       <path id="DejaVuSans-Bold-6c" d="M 538 4863 
L 1656 4863 
L 1656 0 
L 538 0 
L 538 4863 
z
" transform="scale(0.015625)"/>
       <path id="DejaVuSans-Bold-f3" d="M 2203 2784 
Q 1831 2784 1636 2517 
Q 1441 2250 1441 1747 
Q 1441 1244 1636 976 
Q 1831 709 2203 709 
Q 2569 709 2762 976 
Q 2956 1244 2956 1747 
Q 2956 2250 2762 2517 
Q 2569 2784 2203 2784 
z
M 2203 3584 
Q 3106 3584 3614 3096 
Q 4122 2609 4122 1747 
Q 4122 884 3614 396 
Q 3106 -91 2203 -91 
Q 1297 -91 786 396 
Q 275 884 275 1747 
Q 275 2609 786 3096 
Q 1297 3584 2203 3584 
z
M 2694 5119 
L 3578 5119 
L 2425 3944 
L 1813 3944 
L 2694 5119 
z
" transform="scale(0.015625)"/>
       <path id="DejaVuSans-Bold-67" d="M 2919 594 
Q 2688 288 2409 144 
Q 2131 0 1766 0 
Q 1125 0 706 504 
Q 288 1009 288 1791 
Q 288 2575 706 3076 
Q 1125 3578 1766 3578 
Q 2131 3578 2409 3434 
Q 2688 3291 2919 2981 
L 2919 3500 
L 4044 3500 
L 4044 353 
Q 4044 -491 3511 -936 
Q 2978 -1381 1966 -1381 
Q 1638 -1381 1331 -1331 
Q 1025 -1281 716 -1178 
L 716 -306 
Q 1009 -475 1290 -558 
Q 1572 -641 1856 -641 
Q 2406 -641 2662 -400 
Q 2919 -159 2919 353 
L 2919 594 
z
M 2181 2772 
Q 1834 2772 1640 2515 
Q 1447 2259 1447 1791 
Q 1447 1309 1634 1061 
Q 1822 813 2181 813 
Q 2531 813 2725 1069 
Q 2919 1325 2919 1791 
Q 2919 2259 2725 2515 
Q 2531 2772 2181 2772 
z
" transform="scale(0.015625)"/>
       <path id="DejaVuSans-Bold-28" d="M 2413 -844 
L 1484 -844 
Q 1006 -72 778 623 
Q 550 1319 550 2003 
Q 550 2688 779 3389 
Q 1009 4091 1484 4856 
L 2413 4856 
Q 2013 4116 1813 3408 
Q 1613 2700 1613 2009 
Q 1613 1319 1811 609 
Q 2009 -100 2413 -844 
z
" transform="scale(0.015625)"/>
       <path id="DejaVuSans-Bold-24" d="M 2484 -941 
L 1978 -941 
L 1975 0 
Q 1584 16 1218 87 
Q 853 159 506 288 
L 506 1106 
Q 866 922 1233 823 
Q 1600 725 1978 713 
L 1978 1684 
L 1875 1703 
Q 1128 1834 814 2115 
Q 500 2397 500 2925 
Q 500 3484 883 3798 
Q 1266 4113 1975 4141 
L 1978 4863 
L 2484 4863 
L 2484 4153 
Q 2797 4128 3109 4075 
Q 3422 4022 3738 3938 
L 3738 3144 
Q 3425 3275 3112 3348 
Q 2800 3422 2484 3438 
L 2484 2541 
L 2584 2522 
Q 3378 2397 3698 2105 
Q 4019 1813 4019 1241 
Q 4019 666 3637 358 
Q 3256 50 2484 6 
L 2484 -941 
z
M 1978 2613 
L 1978 3428 
Q 1756 3416 1623 3308 
Q 1491 3200 1491 3034 
Q 1491 2850 1612 2745 
Q 1734 2641 1978 2613 
z
M 2484 1594 
L 2484 725 
Q 2756 728 2892 831 
Q 3028 934 3028 1141 
Q 3028 1353 2903 1458 
Q 2778 1563 2484 1594 
z
" transform="scale(0.015625)"/>
       <path id="DejaVuSans-Bold-29" d="M 513 -844 
Q 913 -100 1113 609 
Q 1313 1319 1313 2009 
Q 1313 2700 1113 3408 
Q 913 4116 513 4856 
L 1441 4856 
Q 1916 4091 2145 3389 
Q 2375 2688 2375 2003 
Q 2375 1319 2147 623 
Q 1919 -72 1441 -844 
L 513 -844 
z
" transform="scale(0.015625)"/>
      </defs>
      <use xlink:href="#DejaVuSans-Bold-56"/>
      <use xlink:href="#DejaVuSans-Bold-61" x="71.892578"/>
      <use xlink:href="#DejaVuSans-Bold-6c" x="139.373047"/>
      <use xlink:href="#DejaVuSans-Bold-6f" x="173.650391"/>
      <use xlink:href="#DejaVuSans-Bold-72" x="242.351562"/>
      <use xlink:href="#DejaVuSans-Bold-61" x="291.667969"/>
      <use xlink:href="#DejaVuSans-Bold-63" x="359.148438"/>
      <use xlink:href="#DejaVuSans-Bold-69" x="418.425781"/>
      <use xlink:href="#DejaVuSans-Bold-f3" x="452.703125"/>
      <use xlink:href="#DejaVuSans-Bold-6e" x="521.404297"/>
      <use xlink:href="#DejaVuSans-Bold-20" x="592.595703"/>
      <use xlink:href="#DejaVuSans-Bold-6d" x="627.410156"/>
      <use xlink:href="#DejaVuSans-Bold-61" x="731.609375"/>
      <use xlink:href="#DejaVuSans-Bold-72" x="799.089844"/>
      <use xlink:href="#DejaVuSans-Bold-67" x="848.40625"/>
      <use xlink:href="#DejaVuSans-Bold-69" x="919.988281"/>
      <use xlink:href="#DejaVuSans-Bold-6e" x="954.265625"/>
      <use xlink:href="#DejaVuSans-Bold-61" x="1025.457031"/>
      <use xlink:href="#DejaVuSans-Bold-6c" x="1092.9375"/>
      <use xlink:href="#DejaVuSans-Bold-20" x="1127.214844"/>
      <use xlink:href="#DejaVuSans-Bold-28" x="1162.029297"/>
      <use xlink:href="#DejaVuSans-Bold-24" x="1207.732422"/>
      <use xlink:href="#DejaVuSans-Bold-29" x="1277.3125"/>
     </g>
    </g>
   </g>
   <g id="line2d_23">
    <path d="M 178.857243 225.045711 
L 736.857243 225.045711 
" clip-path="url(#p32c7fcd489)" style="fill: none; stroke-dasharray: 7.4,3.2; stroke-dashoffset: 0; stroke: #34495e; stroke-width: 2"/>
   </g>
   <g id="line2d_24">
    <defs>
     <path id="m7ede8a572a" d="M 4 0 
L -4 -4 
L -4 4 
z
" style="stroke: #000000; stroke-linejoin: miter"/>
    </defs>
    <g>
     <use xlink:href="#m7ede8a572a" x="736.857243" y="399.413453" style="stroke: #000000; stroke-linejoin: miter"/>
    </g>
   </g>
   <g id="line2d_25">
    <defs>
     <path id="m8a7b358fe1" d="M 0 -4 
L -4 4 
L 4 4 
z
" style="stroke: #000000; stroke-linejoin: miter"/>
    </defs>
    <g>
     <use xlink:href="#m8a7b358fe1" x="201.78875" y="50.677969" style="stroke: #000000; stroke-linejoin: miter"/>
    </g>
   </g>
   <g id="patch_9">
    <path d="M 201.78875 411.037969 
L 201.78875 50.677969 
" style="fill: none; stroke: #000000; stroke-width: 1.4; stroke-linejoin: miter; stroke-linecap: square"/>
   </g>
   <g id="patch_10">
    <path d="M 178.857243 399.413453 
L 736.857243 399.413453 
" style="fill: none; stroke: #000000; stroke-width: 1.4; stroke-linejoin: miter; stroke-linecap: square"/>
   </g>
   <g id="text_14">
    <!-- Ej 2 — Demanda discreta de tenis (Sioli) + EC a P=$15 -->
    <g transform="translate(259.037478 38.677969) scale(0.13 -0.13)">
     <defs>
      <path id="DejaVuSans-Bold-45" d="M 588 4666 
L 3834 4666 
L 3834 3756 
L 1791 3756 
L 1791 2888 
L 3713 2888 
L 3713 1978 
L 1791 1978 
L 1791 909 
L 3903 909 
L 3903 0 
L 588 0 
L 588 4666 
z
" transform="scale(0.015625)"/>
      <path id="DejaVuSans-Bold-6a" d="M 538 3500 
L 1656 3500 
L 1656 63 
Q 1656 -641 1318 -1011 
Q 981 -1381 341 -1381 
L -213 -1381 
L -213 -647 
L -19 -647 
Q 300 -647 419 -503 
Q 538 -359 538 63 
L 538 3500 
z
M 538 4863 
L 1656 4863 
L 1656 3950 
L 538 3950 
L 538 4863 
z
" transform="scale(0.015625)"/>
      <path id="DejaVuSans-Bold-32" d="M 1844 884 
L 3897 884 
L 3897 0 
L 506 0 
L 506 884 
L 2209 2388 
Q 2438 2594 2547 2791 
Q 2656 2988 2656 3200 
Q 2656 3528 2436 3728 
Q 2216 3928 1850 3928 
Q 1569 3928 1234 3808 
Q 900 3688 519 3450 
L 519 4475 
Q 925 4609 1322 4679 
Q 1719 4750 2100 4750 
Q 2938 4750 3402 4381 
Q 3866 4013 3866 3353 
Q 3866 2972 3669 2642 
Q 3472 2313 2841 1759 
L 1844 884 
z
" transform="scale(0.015625)"/>
      <path id="DejaVuSans-Bold-2014" d="M 344 2156 
L 6056 2156 
L 6056 1350 
L 344 1350 
L 344 2156 
z
" transform="scale(0.015625)"/>
      <path id="DejaVuSans-Bold-44" d="M 1791 3756 
L 1791 909 
L 2222 909 
Q 2959 909 3348 1275 
Q 3738 1641 3738 2338 
Q 3738 3031 3350 3393 
Q 2963 3756 2222 3756 
L 1791 3756 
z
M 588 4666 
L 1856 4666 
Q 2919 4666 3439 4514 
Q 3959 4363 4331 4000 
Q 4659 3684 4818 3271 
Q 4978 2859 4978 2338 
Q 4978 1809 4818 1395 
Q 4659 981 4331 666 
Q 3956 303 3431 151 
Q 2906 0 1856 0 
L 588 0 
L 588 4666 
z
" transform="scale(0.015625)"/>
      <path id="DejaVuSans-Bold-65" d="M 4031 1759 
L 4031 1441 
L 1416 1441 
Q 1456 1047 1700 850 
Q 1944 653 2381 653 
Q 2734 653 3104 758 
Q 3475 863 3866 1075 
L 3866 213 
Q 3469 63 3072 -14 
Q 2675 -91 2278 -91 
Q 1328 -91 801 392 
Q 275 875 275 1747 
Q 275 2603 792 3093 
Q 1309 3584 2216 3584 
Q 3041 3584 3536 3087 
Q 4031 2591 4031 1759 
z
M 2881 2131 
Q 2881 2450 2695 2645 
Q 2509 2841 2209 2841 
Q 1884 2841 1681 2658 
Q 1478 2475 1428 2131 
L 2881 2131 
z
" transform="scale(0.015625)"/>
      <path id="DejaVuSans-Bold-74" d="M 1759 4494 
L 1759 3500 
L 2913 3500 
L 2913 2700 
L 1759 2700 
L 1759 1216 
Q 1759 972 1856 886 
Q 1953 800 2241 800 
L 2816 800 
L 2816 0 
L 1856 0 
Q 1194 0 917 276 
Q 641 553 641 1216 
L 641 2700 
L 84 2700 
L 84 3500 
L 641 3500 
L 641 4494 
L 1759 4494 
z
" transform="scale(0.015625)"/>
      <path id="DejaVuSans-Bold-53" d="M 3834 4519 
L 3834 3531 
Q 3450 3703 3084 3790 
Q 2719 3878 2394 3878 
Q 1963 3878 1756 3759 
Q 1550 3641 1550 3391 
Q 1550 3203 1689 3098 
Q 1828 2994 2194 2919 
L 2706 2816 
Q 3484 2659 3812 2340 
Q 4141 2022 4141 1434 
Q 4141 663 3683 286 
Q 3225 -91 2284 -91 
Q 1841 -91 1394 -6 
Q 947 78 500 244 
L 500 1259 
Q 947 1022 1364 901 
Q 1781 781 2169 781 
Q 2563 781 2772 912 
Q 2981 1044 2981 1288 
Q 2981 1506 2839 1625 
Q 2697 1744 2272 1838 
L 1806 1941 
Q 1106 2091 782 2419 
Q 459 2747 459 3303 
Q 459 4000 909 4375 
Q 1359 4750 2203 4750 
Q 2588 4750 2994 4692 
Q 3400 4634 3834 4519 
z
" transform="scale(0.015625)"/>
      <path id="DejaVuSans-Bold-2b" d="M 3053 4013 
L 3053 2375 
L 4684 2375 
L 4684 1638 
L 3053 1638 
L 3053 0 
L 2309 0 
L 2309 1638 
L 678 1638 
L 678 2375 
L 2309 2375 
L 2309 4013 
L 3053 4013 
z
" transform="scale(0.015625)"/>
      <path id="DejaVuSans-Bold-43" d="M 4288 256 
Q 3956 84 3597 -3 
Q 3238 -91 2847 -91 
Q 1681 -91 1000 561 
Q 319 1213 319 2328 
Q 319 3447 1000 4098 
Q 1681 4750 2847 4750 
Q 3238 4750 3597 4662 
Q 3956 4575 4288 4403 
L 4288 3438 
Q 3953 3666 3628 3772 
Q 3303 3878 2944 3878 
Q 2300 3878 1931 3465 
Q 1563 3053 1563 2328 
Q 1563 1606 1931 1193 
Q 2300 781 2944 781 
Q 3303 781 3628 887 
Q 3953 994 4288 1222 
L 4288 256 
z
" transform="scale(0.015625)"/>
      <path id="DejaVuSans-Bold-50" d="M 588 4666 
L 2584 4666 
Q 3475 4666 3951 4270 
Q 4428 3875 4428 3144 
Q 4428 2409 3951 2014 
Q 3475 1619 2584 1619 
L 1791 1619 
L 1791 0 
L 588 0 
L 588 4666 
z
M 1791 3794 
L 1791 2491 
L 2456 2491 
Q 2806 2491 2997 2661 
Q 3188 2831 3188 3144 
Q 3188 3456 2997 3625 
Q 2806 3794 2456 3794 
L 1791 3794 
z
" transform="scale(0.015625)"/>
      <path id="DejaVuSans-Bold-3d" d="M 678 3084 
L 4684 3084 
L 4684 2350 
L 678 2350 
L 678 3084 
z
M 678 1663 
L 4684 1663 
L 4684 922 
L 678 922 
L 678 1663 
z
" transform="scale(0.015625)"/>
      <path id="DejaVuSans-Bold-31" d="M 750 831 
L 1813 831 
L 1813 3847 
L 722 3622 
L 722 4441 
L 1806 4666 
L 2950 4666 
L 2950 831 
L 4013 831 
L 4013 0 
L 750 0 
L 750 831 
z
" transform="scale(0.015625)"/>
      <path id="DejaVuSans-Bold-35" d="M 678 4666 
L 3669 4666 
L 3669 3781 
L 1638 3781 
L 1638 3059 
Q 1775 3097 1914 3117 
Q 2053 3138 2203 3138 
Q 3056 3138 3531 2711 
Q 4006 2284 4006 1522 
Q 4006 766 3489 337 
Q 2972 -91 2053 -91 
Q 1656 -91 1267 -14 
Q 878 63 494 219 
L 494 1166 
Q 875 947 1217 837 
Q 1559 728 1863 728 
Q 2300 728 2551 942 
Q 2803 1156 2803 1522 
Q 2803 1891 2551 2103 
Q 2300 2316 1863 2316 
Q 1603 2316 1309 2248 
Q 1016 2181 678 2041 
L 678 4666 
z
" transform="scale(0.015625)"/>
     </defs>
     <use xlink:href="#DejaVuSans-Bold-45"/>
     <use xlink:href="#DejaVuSans-Bold-6a" x="68.310547"/>
     <use xlink:href="#DejaVuSans-Bold-20" x="102.587891"/>
     <use xlink:href="#DejaVuSans-Bold-32" x="137.402344"/>
     <use xlink:href="#DejaVuSans-Bold-20" x="206.982422"/>
     <use xlink:href="#DejaVuSans-Bold-2014" x="241.796875"/>
     <use xlink:href="#DejaVuSans-Bold-20" x="341.796875"/>
     <use xlink:href="#DejaVuSans-Bold-44" x="376.611328"/>
     <use xlink:href="#DejaVuSans-Bold-65" x="459.619141"/>
     <use xlink:href="#DejaVuSans-Bold-6d" x="527.441406"/>
     <use xlink:href="#DejaVuSans-Bold-61" x="631.640625"/>
     <use xlink:href="#DejaVuSans-Bold-6e" x="699.121094"/>
     <use xlink:href="#DejaVuSans-Bold-64" x="770.3125"/>
     <use xlink:href="#DejaVuSans-Bold-61" x="841.894531"/>
     <use xlink:href="#DejaVuSans-Bold-20" x="909.375"/>
     <use xlink:href="#DejaVuSans-Bold-64" x="944.189453"/>
     <use xlink:href="#DejaVuSans-Bold-69" x="1015.771484"/>
     <use xlink:href="#DejaVuSans-Bold-73" x="1050.048828"/>
     <use xlink:href="#DejaVuSans-Bold-63" x="1109.570312"/>
     <use xlink:href="#DejaVuSans-Bold-72" x="1168.847656"/>
     <use xlink:href="#DejaVuSans-Bold-65" x="1218.164062"/>
     <use xlink:href="#DejaVuSans-Bold-74" x="1285.986328"/>
     <use xlink:href="#DejaVuSans-Bold-61" x="1333.789062"/>
     <use xlink:href="#DejaVuSans-Bold-20" x="1401.269531"/>
     <use xlink:href="#DejaVuSans-Bold-64" x="1436.083984"/>
     <use xlink:href="#DejaVuSans-Bold-65" x="1507.666016"/>
     <use xlink:href="#DejaVuSans-Bold-20" x="1575.488281"/>
     <use xlink:href="#DejaVuSans-Bold-74" x="1610.302734"/>
     <use xlink:href="#DejaVuSans-Bold-65" x="1658.105469"/>
     <use xlink:href="#DejaVuSans-Bold-6e" x="1725.927734"/>
     <use xlink:href="#DejaVuSans-Bold-69" x="1797.119141"/>
     <use xlink:href="#DejaVuSans-Bold-73" x="1831.396484"/>
     <use xlink:href="#DejaVuSans-Bold-20" x="1890.917969"/>
     <use xlink:href="#DejaVuSans-Bold-28" x="1925.732422"/>
     <use xlink:href="#DejaVuSans-Bold-53" x="1971.435547"/>
     <use xlink:href="#DejaVuSans-Bold-69" x="2043.457031"/>
     <use xlink:href="#DejaVuSans-Bold-6f" x="2077.734375"/>
     <use xlink:href="#DejaVuSans-Bold-6c" x="2146.435547"/>
     <use xlink:href="#DejaVuSans-Bold-69" x="2180.712891"/>
     <use xlink:href="#DejaVuSans-Bold-29" x="2214.990234"/>
     <use xlink:href="#DejaVuSans-Bold-20" x="2260.693359"/>
     <use xlink:href="#DejaVuSans-Bold-2b" x="2295.507812"/>
     <use xlink:href="#DejaVuSans-Bold-20" x="2379.296875"/>
     <use xlink:href="#DejaVuSans-Bold-45" x="2414.111328"/>
     <use xlink:href="#DejaVuSans-Bold-43" x="2482.421875"/>
     <use xlink:href="#DejaVuSans-Bold-20" x="2555.810547"/>
     <use xlink:href="#DejaVuSans-Bold-61" x="2590.625"/>
     <use xlink:href="#DejaVuSans-Bold-20" x="2658.105469"/>
     <use xlink:href="#DejaVuSans-Bold-50" x="2692.919922"/>
     <use xlink:href="#DejaVuSans-Bold-3d" x="2766.210938"/>
     <use xlink:href="#DejaVuSans-Bold-24" x="2850"/>
     <use xlink:href="#DejaVuSans-Bold-31" x="2919.580078"/>
     <use xlink:href="#DejaVuSans-Bold-35" x="2989.160156"/>
    </g>
   </g>
   <g id="text_15">
    <!-- $24 -->
    <g style="fill: #c0392b" transform="translate(228.527537 111.125453) scale(0.11 -0.11)">
     <defs>
      <path id="DejaVuSans-Bold-34" d="M 2356 3675 
L 1038 1722 
L 2356 1722 
L 2356 3675 
z
M 2156 4666 
L 3494 4666 
L 3494 1722 
L 4159 1722 
L 4159 850 
L 3494 850 
L 3494 0 
L 2356 0 
L 2356 850 
L 288 850 
L 288 1881 
L 2156 4666 
z
" transform="scale(0.015625)"/>
     </defs>
     <use xlink:href="#DejaVuSans-Bold-24"/>
     <use xlink:href="#DejaVuSans-Bold-32" x="69.580078"/>
     <use xlink:href="#DejaVuSans-Bold-34" x="139.160156"/>
    </g>
   </g>
   <g id="text_16">
    <!-- $17 -->
    <g style="fill: #c0392b" transform="translate(304.965894 192.497066) scale(0.11 -0.11)">
     <defs>
      <path id="DejaVuSans-Bold-37" d="M 428 4666 
L 3944 4666 
L 3944 3988 
L 2125 0 
L 953 0 
L 2675 3781 
L 428 3781 
L 428 4666 
z
" transform="scale(0.015625)"/>
     </defs>
     <use xlink:href="#DejaVuSans-Bold-24"/>
     <use xlink:href="#DejaVuSans-Bold-31" x="69.580078"/>
     <use xlink:href="#DejaVuSans-Bold-37" x="139.160156"/>
    </g>
   </g>
   <g id="text_17">
    <!-- $8 -->
    <g style="fill: #c0392b" transform="translate(385.231047 297.117711) scale(0.11 -0.11)">
     <defs>
      <path id="DejaVuSans-Bold-38" d="M 2228 2088 
Q 1891 2088 1709 1903 
Q 1528 1719 1528 1375 
Q 1528 1031 1709 848 
Q 1891 666 2228 666 
Q 2563 666 2741 848 
Q 2919 1031 2919 1375 
Q 2919 1722 2741 1905 
Q 2563 2088 2228 2088 
z
M 1350 2484 
Q 925 2613 709 2878 
Q 494 3144 494 3541 
Q 494 4131 934 4440 
Q 1375 4750 2228 4750 
Q 3075 4750 3515 4442 
Q 3956 4134 3956 3541 
Q 3956 3144 3739 2878 
Q 3522 2613 3097 2484 
Q 3572 2353 3814 2058 
Q 4056 1763 4056 1313 
Q 4056 619 3595 264 
Q 3134 -91 2228 -91 
Q 1319 -91 855 264 
Q 391 619 391 1313 
Q 391 1763 633 2058 
Q 875 2353 1350 2484 
z
M 1631 3419 
Q 1631 3141 1786 2991 
Q 1941 2841 2228 2841 
Q 2509 2841 2662 2991 
Q 2816 3141 2816 3419 
Q 2816 3697 2662 3845 
Q 2509 3994 2228 3994 
Q 1941 3994 1786 3844 
Q 1631 3694 1631 3419 
z
" transform="scale(0.015625)"/>
     </defs>
     <use xlink:href="#DejaVuSans-Bold-24"/>
     <use xlink:href="#DejaVuSans-Bold-38" x="69.580078"/>
    </g>
   </g>
   <g id="text_18">
    <!-- $2 -->
    <g style="fill: #c0392b" transform="translate(461.669403 366.864807) scale(0.11 -0.11)">
     <use xlink:href="#DejaVuSans-Bold-24"/>
     <use xlink:href="#DejaVuSans-Bold-32" x="69.580078"/>
    </g>
   </g>
   <g id="patch_11">
    <path d="M 381.613947 234.491215 
Q 311.742215 206.887346 242.910311 179.694276 
" style="fill: none; stroke: #27ae60; stroke-linecap: round"/>
    <path d="M 246.492723 183.690065 
L 242.910311 179.694276 
L 248.256389 179.22582 
" style="fill: none; stroke: #27ae60; stroke-linecap: round"/>
   </g>
   <g id="text_19">
    <g id="patch_12">
     <path d="M 351.180749 254.390368 
L 465.163874 254.390368 
Q 468.763874 254.390368 468.763874 250.790368 
L 468.763874 239.176618 
Q 468.763874 235.576618 465.163874 235.576618 
L 351.180749 235.576618 
Q 347.580749 235.576618 347.580749 239.176618 
L 347.580749 250.790368 
Q 347.580749 254.390368 351.180749 254.390368 
z
" style="fill: #fffbeb; opacity: 0.97; stroke: #f39c12; stroke-width: 0.7; stroke-linejoin: miter"/>
    </g>
    <!-- EC = 9 + 2 = $11 -->
    <g style="fill: #27ae60" transform="translate(351.180749 248.294743) scale(0.12 -0.12)">
     <defs>
      <path id="DejaVuSans-Bold-39" d="M 641 103 
L 641 966 
Q 928 831 1190 764 
Q 1453 697 1709 697 
Q 2247 697 2547 995 
Q 2847 1294 2900 1881 
Q 2688 1725 2447 1647 
Q 2206 1569 1925 1569 
Q 1209 1569 770 1986 
Q 331 2403 331 3084 
Q 331 3838 820 4291 
Q 1309 4744 2131 4744 
Q 3044 4744 3544 4128 
Q 4044 3513 4044 2388 
Q 4044 1231 3459 570 
Q 2875 -91 1856 -91 
Q 1528 -91 1228 -42 
Q 928 6 641 103 
z
M 2125 2350 
Q 2441 2350 2600 2554 
Q 2759 2759 2759 3169 
Q 2759 3575 2600 3781 
Q 2441 3988 2125 3988 
Q 1809 3988 1650 3781 
Q 1491 3575 1491 3169 
Q 1491 2759 1650 2554 
Q 1809 2350 2125 2350 
z
" transform="scale(0.015625)"/>
     </defs>
     <use xlink:href="#DejaVuSans-Bold-45"/>
     <use xlink:href="#DejaVuSans-Bold-43" x="68.310547"/>
     <use xlink:href="#DejaVuSans-Bold-20" x="141.699219"/>
     <use xlink:href="#DejaVuSans-Bold-3d" x="176.513672"/>
     <use xlink:href="#DejaVuSans-Bold-20" x="260.302734"/>
     <use xlink:href="#DejaVuSans-Bold-39" x="295.117188"/>
     <use xlink:href="#DejaVuSans-Bold-20" x="364.697266"/>
     <use xlink:href="#DejaVuSans-Bold-2b" x="399.511719"/>
     <use xlink:href="#DejaVuSans-Bold-20" x="483.300781"/>
     <use xlink:href="#DejaVuSans-Bold-32" x="518.115234"/>
     <use xlink:href="#DejaVuSans-Bold-20" x="587.695312"/>
     <use xlink:href="#DejaVuSans-Bold-3d" x="622.509766"/>
     <use xlink:href="#DejaVuSans-Bold-20" x="706.298828"/>
     <use xlink:href="#DejaVuSans-Bold-24" x="741.113281"/>
     <use xlink:href="#DejaVuSans-Bold-31" x="810.693359"/>
     <use xlink:href="#DejaVuSans-Bold-31" x="880.273438"/>
    </g>
   </g>
   <g id="text_20">
    <g id="patch_13">
     <path d="M 470.812376 115.488206 
L 635.998001 115.488206 
Q 640.398001 115.488206 640.398001 111.088206 
L 640.398001 87.512799 
Q 640.398001 83.112799 635.998001 83.112799 
L 470.812376 83.112799 
Q 466.412376 83.112799 466.412376 87.512799 
L 466.412376 111.088206 
Q 466.412376 115.488206 470.812376 115.488206 
z
" style="fill: #e8f8f5; opacity: 0.97; stroke: #16a085; stroke-linejoin: miter"/>
    </g>
    <!-- Tarifa fija máx (tenis libre) -->
    <g style="fill: #e74c3c" transform="translate(470.812376 96.397018) scale(0.11 -0.11)">
     <defs>
      <path id="DejaVuSans-Bold-54" d="M 31 4666 
L 4331 4666 
L 4331 3756 
L 2784 3756 
L 2784 0 
L 1581 0 
L 1581 3756 
L 31 3756 
L 31 4666 
z
" transform="scale(0.015625)"/>
      <path id="DejaVuSans-Bold-66" d="M 2841 4863 
L 2841 4128 
L 2222 4128 
Q 1984 4128 1890 4042 
Q 1797 3956 1797 3744 
L 1797 3500 
L 2753 3500 
L 2753 2700 
L 1797 2700 
L 1797 0 
L 678 0 
L 678 2700 
L 122 2700 
L 122 3500 
L 678 3500 
L 678 3744 
Q 678 4316 997 4589 
Q 1316 4863 1984 4863 
L 2841 4863 
z
" transform="scale(0.015625)"/>
      <path id="DejaVuSans-Bold-e1" d="M 2106 1575 
Q 1756 1575 1579 1456 
Q 1403 1338 1403 1106 
Q 1403 894 1545 773 
Q 1688 653 1941 653 
Q 2256 653 2472 879 
Q 2688 1106 2688 1447 
L 2688 1575 
L 2106 1575 
z
M 3816 1997 
L 3816 0 
L 2688 0 
L 2688 519 
Q 2463 200 2181 54 
Q 1900 -91 1497 -91 
Q 953 -91 614 226 
Q 275 544 275 1050 
Q 275 1666 698 1953 
Q 1122 2241 2028 2241 
L 2688 2241 
L 2688 2328 
Q 2688 2594 2478 2717 
Q 2269 2841 1825 2841 
Q 1466 2841 1156 2769 
Q 847 2697 581 2553 
L 581 3406 
Q 941 3494 1303 3539 
Q 1666 3584 2028 3584 
Q 2975 3584 3395 3211 
Q 3816 2838 3816 1997 
z
M 2606 5119 
L 3490 5119 
L 2337 3944 
L 1725 3944 
L 2606 5119 
z
" transform="scale(0.015625)"/>
      <path id="DejaVuSans-Bold-78" d="M 1422 1791 
L 159 3500 
L 1344 3500 
L 2059 2463 
L 2784 3500 
L 3969 3500 
L 2706 1797 
L 4031 0 
L 2847 0 
L 2059 1106 
L 1281 0 
L 97 0 
L 1422 1791 
z
" transform="scale(0.015625)"/>
      <path id="DejaVuSans-Bold-62" d="M 2400 722 
Q 2759 722 2948 984 
Q 3138 1247 3138 1747 
Q 3138 2247 2948 2509 
Q 2759 2772 2400 2772 
Q 2041 2772 1848 2508 
Q 1656 2244 1656 1747 
Q 1656 1250 1848 986 
Q 2041 722 2400 722 
z
M 1656 2988 
Q 1888 3294 2169 3439 
Q 2450 3584 2816 3584 
Q 3463 3584 3878 3070 
Q 4294 2556 4294 1747 
Q 4294 938 3878 423 
Q 3463 -91 2816 -91 
Q 2450 -91 2169 54 
Q 1888 200 1656 506 
L 1656 0 
L 538 0 
L 538 4863 
L 1656 4863 
L 1656 2988 
z
" transform="scale(0.015625)"/>
     </defs>
     <use xlink:href="#DejaVuSans-Bold-54"/>
     <use xlink:href="#DejaVuSans-Bold-61" x="55.337891"/>
     <use xlink:href="#DejaVuSans-Bold-72" x="122.818359"/>
     <use xlink:href="#DejaVuSans-Bold-69" x="172.134766"/>
     <use xlink:href="#DejaVuSans-Bold-66" x="206.412109"/>
     <use xlink:href="#DejaVuSans-Bold-61" x="249.917969"/>
     <use xlink:href="#DejaVuSans-Bold-20" x="317.398438"/>
     <use xlink:href="#DejaVuSans-Bold-66" x="352.212891"/>
     <use xlink:href="#DejaVuSans-Bold-69" x="395.71875"/>
     <use xlink:href="#DejaVuSans-Bold-6a" x="429.996094"/>
     <use xlink:href="#DejaVuSans-Bold-61" x="464.273438"/>
     <use xlink:href="#DejaVuSans-Bold-20" x="531.753906"/>
     <use xlink:href="#DejaVuSans-Bold-6d" x="566.568359"/>
     <use xlink:href="#DejaVuSans-Bold-e1" x="670.767578"/>
     <use xlink:href="#DejaVuSans-Bold-78" x="738.248047"/>
     <use xlink:href="#DejaVuSans-Bold-20" x="802.75"/>
     <use xlink:href="#DejaVuSans-Bold-28" x="837.564453"/>
     <use xlink:href="#DejaVuSans-Bold-74" x="883.267578"/>
     <use xlink:href="#DejaVuSans-Bold-65" x="931.070312"/>
     <use xlink:href="#DejaVuSans-Bold-6e" x="998.892578"/>
     <use xlink:href="#DejaVuSans-Bold-69" x="1070.083984"/>
     <use xlink:href="#DejaVuSans-Bold-73" x="1104.361328"/>
     <use xlink:href="#DejaVuSans-Bold-20" x="1163.882812"/>
     <use xlink:href="#DejaVuSans-Bold-6c" x="1198.697266"/>
     <use xlink:href="#DejaVuSans-Bold-69" x="1232.974609"/>
     <use xlink:href="#DejaVuSans-Bold-62" x="1267.251953"/>
     <use xlink:href="#DejaVuSans-Bold-72" x="1338.833984"/>
     <use xlink:href="#DejaVuSans-Bold-65" x="1388.150391"/>
     <use xlink:href="#DejaVuSans-Bold-29" x="1455.972656"/>
    </g>
    <!-- = 24+17+8+2 = $51 -->
    <g style="fill: #e74c3c" transform="translate(490.175813 108.800549) scale(0.11 -0.11)">
     <use xlink:href="#DejaVuSans-Bold-3d"/>
     <use xlink:href="#DejaVuSans-Bold-20" x="83.789062"/>
     <use xlink:href="#DejaVuSans-Bold-32" x="118.603516"/>
     <use xlink:href="#DejaVuSans-Bold-34" x="188.183594"/>
     <use xlink:href="#DejaVuSans-Bold-2b" x="257.763672"/>
     <use xlink:href="#DejaVuSans-Bold-31" x="341.552734"/>
     <use xlink:href="#DejaVuSans-Bold-37" x="411.132812"/>
     <use xlink:href="#DejaVuSans-Bold-2b" x="480.712891"/>
     <use xlink:href="#DejaVuSans-Bold-38" x="564.501953"/>
     <use xlink:href="#DejaVuSans-Bold-2b" x="634.082031"/>
     <use xlink:href="#DejaVuSans-Bold-32" x="717.871094"/>
     <use xlink:href="#DejaVuSans-Bold-20" x="787.451172"/>
     <use xlink:href="#DejaVuSans-Bold-3d" x="822.265625"/>
     <use xlink:href="#DejaVuSans-Bold-20" x="906.054688"/>
     <use xlink:href="#DejaVuSans-Bold-24" x="940.869141"/>
     <use xlink:href="#DejaVuSans-Bold-35" x="1010.449219"/>
     <use xlink:href="#DejaVuSans-Bold-31" x="1080.029297"/>
    </g>
   </g>
  </g>
 </g>
 <defs>
  <clipPath id="p32c7fcd489">
   <rect x="178.857243" y="50.677969" width="558" height="360.36"/>
  </clipPath>
 </defs>
</svg>
