<?xml version="1.0" encoding="utf-8" standalone="no"?>
<!DOCTYPE svg PUBLIC "-//W3C//DTD SVG 1.1//EN"
  "http://www.w3.org/Graphics/SVG/1.1/DTD/svg11.dtd">
<svg xmlns:xlink="http://www.w3.org/1999/xlink" width="1255.641875pt" height="533.213178pt" viewBox="0 0 1255.641875 533.213178" xmlns="http://www.w3.org/2000/svg" version="1.1">
 <metadata>
  <rdf:RDF xmlns:dc="http://purl.org/dc/elements/1.1/" xmlns:cc="http://creativecommons.org/ns#" xmlns:rdf="http://www.w3.org/1999/02/22-rdf-syntax-ns#">
   <cc:Work>
    <dc:type rdf:resource="http://purl.org/dc/dcmitype/StillImage"/>
    <dc:date>2026-04-28T17:41:36.630069</dc:date>
    <dc:format>image/svg+xml</dc:format>
    <dc:creator>
     <cc:Agent>
      <dc:title>Matplotlib v3.9.2, https://matplotlib.org/</dc:title>
     </cc:Agent>
    </dc:creator>
   </cc:Work>
  </rdf:RDF>
 </metadata>
 <defs>
  <style type="text/css">*{stroke-linejoin: round; stroke-linecap: butt}</style>
 </defs>
 <g id="figure_1">
  <g id="patch_1">
   <path d="M 0 533.213178 
L 1255.641875 533.213178 
L 1255.641875 0 
L 0 0 
z
" style="fill: #ffffff"/>
  </g>
  <g id="axes_1">
   <g id="patch_2">
    <path d="M 60.006875 497.194811 
L 589.286875 497.194811 
L 589.286875 50.677969 
L 60.006875 50.677969 
z
" style="fill: #ffffff"/>
   </g>
   <g id="matplotlib.axis_1">
    <g id="xtick_1">
     <g id="line2d_1">
      <path d="M 148.220208 497.194811 
L 148.220208 50.677969 
" clip-path="url(#p60ce88ec44)" style="fill: none; stroke-dasharray: 0.8,1.32; stroke-dashoffset: 0; stroke: #b0b0b0; stroke-opacity: 0.4; stroke-width: 0.8"/>
     </g>
     <g id="line2d_2">
      <defs>
       <path id="m367b53000a" d="M 0 0 
L 0 -4 
" style="stroke: #000000"/>
      </defs>
      <g>
       <use xlink:href="#m367b53000a" x="148.220208" y="481.527553" style="stroke: #000000"/>
      </g>
     </g>
     <g id="text_1">
      <!-- 3 -->
      <g transform="translate(145.038958 492.625991) scale(0.1 -0.1)">
       <defs>
        <path id="DejaVuSans-33" d="M 2597 2516 
Q 3050 2419 3304 2112 
Q 3559 1806 3559 1356 
Q 3559 666 3084 287 
Q 2609 -91 1734 -91 
Q 1441 -91 1130 -33 
Q 819 25 488 141 
L 488 750 
Q 750 597 1062 519 
Q 1375 441 1716 441 
Q 2309 441 2620 675 
Q 2931 909 2931 1356 
Q 2931 1769 2642 2001 
Q 2353 2234 1838 2234 
L 1294 2234 
L 1294 2753 
L 1863 2753 
Q 2328 2753 2575 2939 
Q 2822 3125 2822 3475 
Q 2822 3834 2567 4026 
Q 2313 4219 1838 4219 
Q 1578 4219 1281 4162 
Q 984 4106 628 3988 
L 628 4550 
Q 988 4650 1302 4700 
Q 1616 4750 1894 4750 
Q 2613 4750 3031 4423 
Q 3450 4097 3450 3541 
Q 3450 3153 3228 2886 
Q 3006 2619 2597 2516 
z
" transform="scale(0.015625)"/>
       </defs>
       <use xlink:href="#DejaVuSans-33"/>
      </g>
     </g>
    </g>
    <g id="xtick_2">
     <g id="line2d_3">
      <path d="M 236.433542 497.194811 
L 236.433542 50.677969 
" clip-path="url(#p60ce88ec44)" style="fill: none; stroke-dasharray: 0.8,1.32; stroke-dashoffset: 0; stroke: #b0b0b0; stroke-opacity: 0.4; stroke-width: 0.8"/>
     </g>
     <g id="line2d_4">
      <g>
       <use xlink:href="#m367b53000a" x="236.433542" y="481.527553" style="stroke: #000000"/>
      </g>
     </g>
     <g id="text_2">
      <!-- 4 -->
      <g transform="translate(233.252292 492.625991) scale(0.1 -0.1)">
       <defs>
        <path id="DejaVuSans-34" d="M 2419 4116 
L 825 1625 
L 2419 1625 
L 2419 4116 
z
M 2253 4666 
L 3047 4666 
L 3047 1625 
L 3713 1625 
L 3713 1100 
L 3047 1100 
L 3047 0 
L 2419 0 
L 2419 1100 
L 313 1100 
L 313 1709 
L 2253 4666 
z
" transform="scale(0.015625)"/>
       </defs>
       <use xlink:href="#DejaVuSans-34"/>
      </g>
     </g>
    </g>
    <g id="xtick_3">
     <g id="line2d_5">
      <path d="M 324.646875 497.194811 
L 324.646875 50.677969 
" clip-path="url(#p60ce88ec44)" style="fill: none; stroke-dasharray: 0.8,1.32; stroke-dashoffset: 0; stroke: #b0b0b0; stroke-opacity: 0.4; stroke-width: 0.8"/>
     </g>
     <g id="line2d_6">
      <g>
       <use xlink:href="#m367b53000a" x="324.646875" y="481.527553" style="stroke: #000000"/>
      </g>
     </g>
     <g id="text_3">
      <!-- 5 -->
      <g transform="translate(321.465625 492.625991) scale(0.1 -0.1)">
       <defs>
        <path id="DejaVuSans-35" d="M 691 4666 
L 3169 4666 
L 3169 4134 
L 1269 4134 
L 1269 2991 
Q 1406 3038 1543 3061 
Q 1681 3084 1819 3084 
Q 2600 3084 3056 2656 
Q 3513 2228 3513 1497 
Q 3513 744 3044 326 
Q 2575 -91 1722 -91 
Q 1428 -91 1123 -41 
Q 819 9 494 109 
L 494 744 
Q 775 591 1075 516 
Q 1375 441 1709 441 
Q 2250 441 2565 725 
Q 2881 1009 2881 1497 
Q 2881 1984 2565 2268 
Q 2250 2553 1709 2553 
Q 1456 2553 1204 2497 
Q 953 2441 691 2322 
L 691 4666 
z
" transform="scale(0.015625)"/>
       </defs>
       <use xlink:href="#DejaVuSans-35"/>
      </g>
     </g>
    </g>
    <g id="xtick_4">
     <g id="line2d_7">
      <path d="M 412.860208 497.194811 
L 412.860208 50.677969 
" clip-path="url(#p60ce88ec44)" style="fill: none; stroke-dasharray: 0.8,1.32; stroke-dashoffset: 0; stroke: #b0b0b0; stroke-opacity: 0.4; stroke-width: 0.8"/>
     </g>
     <g id="line2d_8">
      <g>
       <use xlink:href="#m367b53000a" x="412.860208" y="481.527553" style="stroke: #000000"/>
      </g>
     </g>
     <g id="text_4">
      <!-- 6 -->
      <g transform="translate(409.678958 492.625991) scale(0.1 -0.1)">
       <defs>
        <path id="DejaVuSans-36" d="M 2113 2584 
Q 1688 2584 1439 2293 
Q 1191 2003 1191 1497 
Q 1191 994 1439 701 
Q 1688 409 2113 409 
Q 2538 409 2786 701 
Q 3034 994 3034 1497 
Q 3034 2003 2786 2293 
Q 2538 2584 2113 2584 
z
M 3366 4563 
L 3366 3988 
Q 3128 4100 2886 4159 
Q 2644 4219 2406 4219 
Q 1781 4219 1451 3797 
Q 1122 3375 1075 2522 
Q 1259 2794 1537 2939 
Q 1816 3084 2150 3084 
Q 2853 3084 3261 2657 
Q 3669 2231 3669 1497 
Q 3669 778 3244 343 
Q 2819 -91 2113 -91 
Q 1303 -91 875 529 
Q 447 1150 447 2328 
Q 447 3434 972 4092 
Q 1497 4750 2381 4750 
Q 2619 4750 2861 4703 
Q 3103 4656 3366 4563 
z
" transform="scale(0.015625)"/>
       </defs>
       <use xlink:href="#DejaVuSans-36"/>
      </g>
     </g>
    </g>
    <g id="text_5">
     <!-- L (trabajo) -->
     <g transform="translate(517.6975 501.823803) scale(0.12 -0.12)">
      <defs>
       <path id="DejaVuSans-Bold-4c" d="M 588 4666 
L 1791 4666 
L 1791 909 
L 3903 909 
L 3903 0 
L 588 0 
L 588 4666 
z
" transform="scale(0.015625)"/>
       <path id="DejaVuSans-Bold-20" transform="scale(0.015625)"/>
       <path id="DejaVuSans-Bold-28" d="M 2413 -844 
L 1484 -844 
Q 1006 -72 778 623 
Q 550 1319 550 2003 
Q 550 2688 779 3389 
Q 1009 4091 1484 4856 
L 2413 4856 
Q 2013 4116 1813 3408 
Q 1613 2700 1613 2009 
Q 1613 1319 1811 609 
Q 2009 -100 2413 -844 
z
" transform="scale(0.015625)"/>
       <path id="DejaVuSans-Bold-74" d="M 1759 4494 
L 1759 3500 
L 2913 3500 
L 2913 2700 
L 1759 2700 
L 1759 1216 
Q 1759 972 1856 886 
Q 1953 800 2241 800 
L 2816 800 
L 2816 0 
L 1856 0 
Q 1194 0 917 276 
Q 641 553 641 1216 
L 641 2700 
L 84 2700 
L 84 3500 
L 641 3500 
L 641 4494 
L 1759 4494 
z
" transform="scale(0.015625)"/>
       <path id="DejaVuSans-Bold-72" d="M 3138 2547 
Q 2991 2616 2845 2648 
Q 2700 2681 2553 2681 
Q 2122 2681 1889 2404 
Q 1656 2128 1656 1613 
L 1656 0 
L 538 0 
L 538 3500 
L 1656 3500 
L 1656 2925 
Q 1872 3269 2151 3426 
Q 2431 3584 2822 3584 
Q 2878 3584 2943 3579 
Q 3009 3575 3134 3559 
L 3138 2547 
z
" transform="scale(0.015625)"/>
       <path id="DejaVuSans-Bold-61" d="M 2106 1575 
Q 1756 1575 1579 1456 
Q 1403 1338 1403 1106 
Q 1403 894 1545 773 
Q 1688 653 1941 653 
Q 2256 653 2472 879 
Q 2688 1106 2688 1447 
L 2688 1575 
L 2106 1575 
z
M 3816 1997 
L 3816 0 
L 2688 0 
L 2688 519 
Q 2463 200 2181 54 
Q 1900 -91 1497 -91 
Q 953 -91 614 226 
Q 275 544 275 1050 
Q 275 1666 698 1953 
Q 1122 2241 2028 2241 
L 2688 2241 
L 2688 2328 
Q 2688 2594 2478 2717 
Q 2269 2841 1825 2841 
Q 1466 2841 1156 2769 
Q 847 2697 581 2553 
L 581 3406 
Q 941 3494 1303 3539 
Q 1666 3584 2028 3584 
Q 2975 3584 3395 3211 
Q 3816 2838 3816 1997 
z
" transform="scale(0.015625)"/>
       <path id="DejaVuSans-Bold-62" d="M 2400 722 
Q 2759 722 2948 984 
Q 3138 1247 3138 1747 
Q 3138 2247 2948 2509 
Q 2759 2772 2400 2772 
Q 2041 2772 1848 2508 
Q 1656 2244 1656 1747 
Q 1656 1250 1848 986 
Q 2041 722 2400 722 
z
M 1656 2988 
Q 1888 3294 2169 3439 
Q 2450 3584 2816 3584 
Q 3463 3584 3878 3070 
Q 4294 2556 4294 1747 
Q 4294 938 3878 423 
Q 3463 -91 2816 -91 
Q 2450 -91 2169 54 
Q 1888 200 1656 506 
L 1656 0 
L 538 0 
L 538 4863 
L 1656 4863 
L 1656 2988 
z
" transform="scale(0.015625)"/>
       <path id="DejaVuSans-Bold-6a" d="M 538 3500 
L 1656 3500 
L 1656 63 
Q 1656 -641 1318 -1011 
Q 981 -1381 341 -1381 
L -213 -1381 
L -213 -647 
L -19 -647 
Q 300 -647 419 -503 
Q 538 -359 538 63 
L 538 3500 
z
M 538 4863 
L 1656 4863 
L 1656 3950 
L 538 3950 
L 538 4863 
z
" transform="scale(0.015625)"/>
       <path id="DejaVuSans-Bold-6f" d="M 2203 2784 
Q 1831 2784 1636 2517 
Q 1441 2250 1441 1747 
Q 1441 1244 1636 976 
Q 1831 709 2203 709 
Q 2569 709 2762 976 
Q 2956 1244 2956 1747 
Q 2956 2250 2762 2517 
Q 2569 2784 2203 2784 
z
M 2203 3584 
Q 3106 3584 3614 3096 
Q 4122 2609 4122 1747 
Q 4122 884 3614 396 
Q 3106 -91 2203 -91 
Q 1297 -91 786 396 
Q 275 884 275 1747 
Q 275 2609 786 3096 
Q 1297 3584 2203 3584 
z
" transform="scale(0.015625)"/>
       <path id="DejaVuSans-Bold-29" d="M 513 -844 
Q 913 -100 1113 609 
Q 1313 1319 1313 2009 
Q 1313 2700 1113 3408 
Q 913 4116 513 4856 
L 1441 4856 
Q 1916 4091 2145 3389 
Q 2375 2688 2375 2003 
Q 2375 1319 2147 623 
Q 1919 -72 1441 -844 
L 513 -844 
z
" transform="scale(0.015625)"/>
      </defs>
      <use xlink:href="#DejaVuSans-Bold-4c"/>
      <use xlink:href="#DejaVuSans-Bold-20" x="63.720703"/>
      <use xlink:href="#DejaVuSans-Bold-28" x="98.535156"/>
      <use xlink:href="#DejaVuSans-Bold-74" x="144.238281"/>
      <use xlink:href="#DejaVuSans-Bold-72" x="192.041016"/>
      <use xlink:href="#DejaVuSans-Bold-61" x="241.357422"/>
      <use xlink:href="#DejaVuSans-Bold-62" x="308.837891"/>
      <use xlink:href="#DejaVuSans-Bold-61" x="380.419922"/>
      <use xlink:href="#DejaVuSans-Bold-6a" x="447.900391"/>
      <use xlink:href="#DejaVuSans-Bold-6f" x="482.177734"/>
      <use xlink:href="#DejaVuSans-Bold-29" x="550.878906"/>
     </g>
    </g>
   </g>
   <g id="matplotlib.axis_2">
    <g id="ytick_1">
     <g id="line2d_9">
      <path d="M 60.006875 481.527553 
L 589.286875 481.527553 
" clip-path="url(#p60ce88ec44)" style="fill: none; stroke-dasharray: 0.8,1.32; stroke-dashoffset: 0; stroke: #b0b0b0; stroke-opacity: 0.4; stroke-width: 0.8"/>
     </g>
     <g id="line2d_10">
      <defs>
       <path id="mca805b780c" d="M 0 0 
L 4 0 
" style="stroke: #000000"/>
      </defs>
      <g>
       <use xlink:href="#mca805b780c" x="60.006875" y="481.527553" style="stroke: #000000"/>
      </g>
     </g>
     <g id="text_6">
      <!-- 0 -->
      <g transform="translate(50.144375 485.326772) scale(0.1 -0.1)">
       <defs>
        <path id="DejaVuSans-30" d="M 2034 4250 
Q 1547 4250 1301 3770 
Q 1056 3291 1056 2328 
Q 1056 1369 1301 889 
Q 1547 409 2034 409 
Q 2525 409 2770 889 
Q 3016 1369 3016 2328 
Q 3016 3291 2770 3770 
Q 2525 4250 2034 4250 
z
M 2034 4750 
Q 2819 4750 3233 4129 
Q 3647 3509 3647 2328 
Q 3647 1150 3233 529 
Q 2819 -91 2034 -91 
Q 1250 -91 836 529 
Q 422 1150 422 2328 
Q 422 3509 836 4129 
Q 1250 4750 2034 4750 
z
" transform="scale(0.015625)"/>
       </defs>
       <use xlink:href="#DejaVuSans-30"/>
      </g>
     </g>
    </g>
    <g id="ytick_2">
     <g id="line2d_11">
      <path d="M 60.006875 403.191265 
L 589.286875 403.191265 
" clip-path="url(#p60ce88ec44)" style="fill: none; stroke-dasharray: 0.8,1.32; stroke-dashoffset: 0; stroke: #b0b0b0; stroke-opacity: 0.4; stroke-width: 0.8"/>
     </g>
     <g id="line2d_12">
      <g>
       <use xlink:href="#mca805b780c" x="60.006875" y="403.191265" style="stroke: #000000"/>
      </g>
     </g>
     <g id="text_7">
      <!-- 10 -->
      <g transform="translate(43.781875 406.990484) scale(0.1 -0.1)">
       <defs>
        <path id="DejaVuSans-31" d="M 794 531 
L 1825 531 
L 1825 4091 
L 703 3866 
L 703 4441 
L 1819 4666 
L 2450 4666 
L 2450 531 
L 3481 531 
L 3481 0 
L 794 0 
L 794 531 
z
" transform="scale(0.015625)"/>
       </defs>
       <use xlink:href="#DejaVuSans-31"/>
       <use xlink:href="#DejaVuSans-30" x="63.623047"/>
      </g>
     </g>
    </g>
    <g id="ytick_3">
     <g id="line2d_13">
      <path d="M 60.006875 324.854977 
L 589.286875 324.854977 
" clip-path="url(#p60ce88ec44)" style="fill: none; stroke-dasharray: 0.8,1.32; stroke-dashoffset: 0; stroke: #b0b0b0; stroke-opacity: 0.4; stroke-width: 0.8"/>
     </g>
     <g id="line2d_14">
      <g>
       <use xlink:href="#mca805b780c" x="60.006875" y="324.854977" style="stroke: #000000"/>
      </g>
     </g>
     <g id="text_8">
      <!-- 20 -->
      <g transform="translate(43.781875 328.654196) scale(0.1 -0.1)">
       <defs>
        <path id="DejaVuSans-32" d="M 1228 531 
L 3431 531 
L 3431 0 
L 469 0 
L 469 531 
Q 828 903 1448 1529 
Q 2069 2156 2228 2338 
Q 2531 2678 2651 2914 
Q 2772 3150 2772 3378 
Q 2772 3750 2511 3984 
Q 2250 4219 1831 4219 
Q 1534 4219 1204 4116 
Q 875 4013 500 3803 
L 500 4441 
Q 881 4594 1212 4672 
Q 1544 4750 1819 4750 
Q 2544 4750 2975 4387 
Q 3406 4025 3406 3419 
Q 3406 3131 3298 2873 
Q 3191 2616 2906 2266 
Q 2828 2175 2409 1742 
Q 1991 1309 1228 531 
z
" transform="scale(0.015625)"/>
       </defs>
       <use xlink:href="#DejaVuSans-32"/>
       <use xlink:href="#DejaVuSans-30" x="63.623047"/>
      </g>
     </g>
    </g>
    <g id="ytick_4">
     <g id="line2d_15">
      <path d="M 60.006875 246.518689 
L 589.286875 246.518689 
" clip-path="url(#p60ce88ec44)" style="fill: none; stroke-dasharray: 0.8,1.32; stroke-dashoffset: 0; stroke: #b0b0b0; stroke-opacity: 0.4; stroke-width: 0.8"/>
     </g>
     <g id="line2d_16">
      <g>
       <use xlink:href="#mca805b780c" x="60.006875" y="246.518689" style="stroke: #000000"/>
      </g>
     </g>
     <g id="text_9">
      <!-- 30 -->
      <g transform="translate(43.781875 250.317908) scale(0.1 -0.1)">
       <use xlink:href="#DejaVuSans-33"/>
       <use xlink:href="#DejaVuSans-30" x="63.623047"/>
      </g>
     </g>
    </g>
    <g id="ytick_5">
     <g id="line2d_17">
      <path d="M 60.006875 168.182401 
L 589.286875 168.182401 
" clip-path="url(#p60ce88ec44)" style="fill: none; stroke-dasharray: 0.8,1.32; stroke-dashoffset: 0; stroke: #b0b0b0; stroke-opacity: 0.4; stroke-width: 0.8"/>
     </g>
     <g id="line2d_18">
      <g>
       <use xlink:href="#mca805b780c" x="60.006875" y="168.182401" style="stroke: #000000"/>
      </g>
     </g>
     <g id="text_10">
      <!-- 40 -->
      <g transform="translate(43.781875 171.98162) scale(0.1 -0.1)">
       <use xlink:href="#DejaVuSans-34"/>
       <use xlink:href="#DejaVuSans-30" x="63.623047"/>
      </g>
     </g>
    </g>
    <g id="ytick_6">
     <g id="line2d_19">
      <path d="M 60.006875 89.846113 
L 589.286875 89.846113 
" clip-path="url(#p60ce88ec44)" style="fill: none; stroke-dasharray: 0.8,1.32; stroke-dashoffset: 0; stroke: #b0b0b0; stroke-opacity: 0.4; stroke-width: 0.8"/>
     </g>
     <g id="line2d_20">
      <g>
       <use xlink:href="#mca805b780c" x="60.006875" y="89.846113" style="stroke: #000000"/>
      </g>
     </g>
     <g id="text_11">
      <!-- 50 -->
      <g transform="translate(43.781875 93.645332) scale(0.1 -0.1)">
       <use xlink:href="#DejaVuSans-35"/>
       <use xlink:href="#DejaVuSans-30" x="63.623047"/>
      </g>
     </g>
    </g>
    <g id="text_12">
     <!-- PT -->
     <g transform="translate(28.8 48.182344) scale(0.12 -0.12)">
      <defs>
       <path id="DejaVuSans-Bold-50" d="M 588 4666 
L 2584 4666 
Q 3475 4666 3951 4270 
Q 4428 3875 4428 3144 
Q 4428 2409 3951 2014 
Q 3475 1619 2584 1619 
L 1791 1619 
L 1791 0 
L 588 0 
L 588 4666 
z
M 1791 3794 
L 1791 2491 
L 2456 2491 
Q 2806 2491 2997 2661 
Q 3188 2831 3188 3144 
Q 3188 3456 2997 3625 
Q 2806 3794 2456 3794 
L 1791 3794 
z
" transform="scale(0.015625)"/>
       <path id="DejaVuSans-Bold-54" d="M 31 4666 
L 4331 4666 
L 4331 3756 
L 2784 3756 
L 2784 0 
L 1581 0 
L 1581 3756 
L 31 3756 
L 31 4666 
z
" transform="scale(0.015625)"/>
      </defs>
      <use xlink:href="#DejaVuSans-Bold-50"/>
      <use xlink:href="#DejaVuSans-Bold-54" x="73.291016"/>
     </g>
    </g>
   </g>
   <g id="line2d_21">
    <path d="M 148.220208 223.017803 
L 236.433542 199.516916 
L 324.646875 168.182401 
L 412.860208 129.014257 
" clip-path="url(#p60ce88ec44)" style="fill: none; stroke: #2980b9; stroke-width: 3; stroke-linecap: square"/>
    <defs>
     <path id="m13d51f4622" d="M 0 5.5 
C 1.458617 5.5 2.857689 4.920485 3.889087 3.889087 
C 4.920485 2.857689 5.5 1.458617 5.5 0 
C 5.5 -1.458617 4.920485 -2.857689 3.889087 -3.889087 
C 2.857689 -4.920485 1.458617 -5.5 0 -5.5 
C -1.458617 -5.5 -2.857689 -4.920485 -3.889087 -3.889087 
C -4.920485 -2.857689 -5.5 -1.458617 -5.5 0 
C -5.5 1.458617 -4.920485 2.857689 -3.889087 3.889087 
C -2.857689 4.920485 -1.458617 5.5 0 5.5 
z
" style="stroke: #2980b9"/>
    </defs>
    <g clip-path="url(#p60ce88ec44)">
     <use xlink:href="#m13d51f4622" x="148.220208" y="223.017803" style="fill: #2980b9; stroke: #2980b9"/>
     <use xlink:href="#m13d51f4622" x="236.433542" y="199.516916" style="fill: #2980b9; stroke: #2980b9"/>
     <use xlink:href="#m13d51f4622" x="324.646875" y="168.182401" style="fill: #2980b9; stroke: #2980b9"/>
     <use xlink:href="#m13d51f4622" x="412.860208" y="129.014257" style="fill: #2980b9; stroke: #2980b9"/>
    </g>
   </g>
   <g id="line2d_22">
    <defs>
     <path id="m546b14eb19" d="M 4 0 
L -4 -4 
L -4 4 
z
" style="stroke: #000000; stroke-linejoin: miter"/>
    </defs>
    <g>
     <use xlink:href="#m546b14eb19" x="589.286875" y="481.527553" style="stroke: #000000; stroke-linejoin: miter"/>
    </g>
   </g>
   <g id="line2d_23">
    <defs>
     <path id="mce8132885c" d="M 0 -4 
L -4 4 
L 4 4 
z
" style="stroke: #000000; stroke-linejoin: miter"/>
    </defs>
    <g>
     <use xlink:href="#mce8132885c" x="60.006875" y="50.677969" style="stroke: #000000; stroke-linejoin: miter"/>
    </g>
   </g>
   <g id="patch_3">
    <path d="M 60.006875 497.194811 
L 60.006875 50.677969 
" style="fill: none; stroke: #000000; stroke-width: 1.4; stroke-linejoin: miter; stroke-linecap: square"/>
   </g>
   <g id="patch_4">
    <path d="M 60.006875 481.527553 
L 589.286875 481.527553 
" style="fill: none; stroke: #000000; stroke-width: 1.4; stroke-linejoin: miter; stroke-linecap: square"/>
   </g>
   <g id="text_13">
    <!-- (a) Producto Total — creciente, cóncavo -->
    <g transform="translate(179.145391 38.677969) scale(0.13 -0.13)">
     <defs>
      <path id="DejaVuSans-Bold-64" d="M 2919 2988 
L 2919 4863 
L 4044 4863 
L 4044 0 
L 2919 0 
L 2919 506 
Q 2688 197 2409 53 
Q 2131 -91 1766 -91 
Q 1119 -91 703 423 
Q 288 938 288 1747 
Q 288 2556 703 3070 
Q 1119 3584 1766 3584 
Q 2128 3584 2408 3439 
Q 2688 3294 2919 2988 
z
M 2181 722 
Q 2541 722 2730 984 
Q 2919 1247 2919 1747 
Q 2919 2247 2730 2509 
Q 2541 2772 2181 2772 
Q 1825 2772 1636 2509 
Q 1447 2247 1447 1747 
Q 1447 1247 1636 984 
Q 1825 722 2181 722 
z
" transform="scale(0.015625)"/>
      <path id="DejaVuSans-Bold-75" d="M 500 1363 
L 500 3500 
L 1625 3500 
L 1625 3150 
Q 1625 2866 1622 2436 
Q 1619 2006 1619 1863 
Q 1619 1441 1641 1255 
Q 1663 1069 1716 984 
Q 1784 875 1895 815 
Q 2006 756 2150 756 
Q 2500 756 2700 1025 
Q 2900 1294 2900 1772 
L 2900 3500 
L 4019 3500 
L 4019 0 
L 2900 0 
L 2900 506 
Q 2647 200 2364 54 
Q 2081 -91 1741 -91 
Q 1134 -91 817 281 
Q 500 653 500 1363 
z
" transform="scale(0.015625)"/>
      <path id="DejaVuSans-Bold-63" d="M 3366 3391 
L 3366 2478 
Q 3138 2634 2908 2709 
Q 2678 2784 2431 2784 
Q 1963 2784 1702 2511 
Q 1441 2238 1441 1747 
Q 1441 1256 1702 982 
Q 1963 709 2431 709 
Q 2694 709 2930 787 
Q 3166 866 3366 1019 
L 3366 103 
Q 3103 6 2833 -42 
Q 2563 -91 2291 -91 
Q 1344 -91 809 395 
Q 275 881 275 1747 
Q 275 2613 809 3098 
Q 1344 3584 2291 3584 
Q 2566 3584 2833 3536 
Q 3100 3488 3366 3391 
z
" transform="scale(0.015625)"/>
      <path id="DejaVuSans-Bold-6c" d="M 538 4863 
L 1656 4863 
L 1656 0 
L 538 0 
L 538 4863 
z
" transform="scale(0.015625)"/>
      <path id="DejaVuSans-Bold-2014" d="M 344 2156 
L 6056 2156 
L 6056 1350 
L 344 1350 
L 344 2156 
z
" transform="scale(0.015625)"/>
      <path id="DejaVuSans-Bold-65" d="M 4031 1759 
L 4031 1441 
L 1416 1441 
Q 1456 1047 1700 850 
Q 1944 653 2381 653 
Q 2734 653 3104 758 
Q 3475 863 3866 1075 
L 3866 213 
Q 3469 63 3072 -14 
Q 2675 -91 2278 -91 
Q 1328 -91 801 392 
Q 275 875 275 1747 
Q 275 2603 792 3093 
Q 1309 3584 2216 3584 
Q 3041 3584 3536 3087 
Q 4031 2591 4031 1759 
z
M 2881 2131 
Q 2881 2450 2695 2645 
Q 2509 2841 2209 2841 
Q 1884 2841 1681 2658 
Q 1478 2475 1428 2131 
L 2881 2131 
z
" transform="scale(0.015625)"/>
      <path id="DejaVuSans-Bold-69" d="M 538 3500 
L 1656 3500 
L 1656 0 
L 538 0 
L 538 3500 
z
M 538 4863 
L 1656 4863 
L 1656 3950 
L 538 3950 
L 538 4863 
z
" transform="scale(0.015625)"/>
      <path id="DejaVuSans-Bold-6e" d="M 4056 2131 
L 4056 0 
L 2931 0 
L 2931 347 
L 2931 1631 
Q 2931 2084 2911 2256 
Q 2891 2428 2841 2509 
Q 2775 2619 2662 2680 
Q 2550 2741 2406 2741 
Q 2056 2741 1856 2470 
Q 1656 2200 1656 1722 
L 1656 0 
L 538 0 
L 538 3500 
L 1656 3500 
L 1656 2988 
Q 1909 3294 2193 3439 
Q 2478 3584 2822 3584 
Q 3428 3584 3742 3212 
Q 4056 2841 4056 2131 
z
" transform="scale(0.015625)"/>
      <path id="DejaVuSans-Bold-2c" d="M 653 1209 
L 1778 1209 
L 1778 256 
L 1006 -909 
L 341 -909 
L 653 256 
L 653 1209 
z
" transform="scale(0.015625)"/>
      <path id="DejaVuSans-Bold-f3" d="M 2203 2784 
Q 1831 2784 1636 2517 
Q 1441 2250 1441 1747 
Q 1441 1244 1636 976 
Q 1831 709 2203 709 
Q 2569 709 2762 976 
Q 2956 1244 2956 1747 
Q 2956 2250 2762 2517 
Q 2569 2784 2203 2784 
z
M 2203 3584 
Q 3106 3584 3614 3096 
Q 4122 2609 4122 1747 
Q 4122 884 3614 396 
Q 3106 -91 2203 -91 
Q 1297 -91 786 396 
Q 275 884 275 1747 
Q 275 2609 786 3096 
Q 1297 3584 2203 3584 
z
M 2694 5119 
L 3578 5119 
L 2425 3944 
L 1813 3944 
L 2694 5119 
z
" transform="scale(0.015625)"/>
      <path id="DejaVuSans-Bold-76" d="M 97 3500 
L 1216 3500 
L 2088 1081 
L 2956 3500 
L 4078 3500 
L 2700 0 
L 1472 0 
L 97 3500 
z
" transform="scale(0.015625)"/>
     </defs>
     <use xlink:href="#DejaVuSans-Bold-28"/>
     <use xlink:href="#DejaVuSans-Bold-61" x="45.703125"/>
     <use xlink:href="#DejaVuSans-Bold-29" x="113.183594"/>
     <use xlink:href="#DejaVuSans-Bold-20" x="158.886719"/>
     <use xlink:href="#DejaVuSans-Bold-50" x="193.701172"/>
     <use xlink:href="#DejaVuSans-Bold-72" x="266.992188"/>
     <use xlink:href="#DejaVuSans-Bold-6f" x="316.308594"/>
     <use xlink:href="#DejaVuSans-Bold-64" x="385.009766"/>
     <use xlink:href="#DejaVuSans-Bold-75" x="456.591797"/>
     <use xlink:href="#DejaVuSans-Bold-63" x="527.783203"/>
     <use xlink:href="#DejaVuSans-Bold-74" x="587.060547"/>
     <use xlink:href="#DejaVuSans-Bold-6f" x="634.863281"/>
     <use xlink:href="#DejaVuSans-Bold-20" x="703.564453"/>
     <use xlink:href="#DejaVuSans-Bold-54" x="738.378906"/>
     <use xlink:href="#DejaVuSans-Bold-6f" x="793.341797"/>
     <use xlink:href="#DejaVuSans-Bold-74" x="862.042969"/>
     <use xlink:href="#DejaVuSans-Bold-61" x="909.845703"/>
     <use xlink:href="#DejaVuSans-Bold-6c" x="977.326172"/>
     <use xlink:href="#DejaVuSans-Bold-20" x="1011.603516"/>
     <use xlink:href="#DejaVuSans-Bold-2014" x="1046.417969"/>
     <use xlink:href="#DejaVuSans-Bold-20" x="1146.417969"/>
     <use xlink:href="#DejaVuSans-Bold-63" x="1181.232422"/>
     <use xlink:href="#DejaVuSans-Bold-72" x="1240.509766"/>
     <use xlink:href="#DejaVuSans-Bold-65" x="1289.826172"/>
     <use xlink:href="#DejaVuSans-Bold-63" x="1357.648438"/>
     <use xlink:href="#DejaVuSans-Bold-69" x="1416.925781"/>
     <use xlink:href="#DejaVuSans-Bold-65" x="1451.203125"/>
     <use xlink:href="#DejaVuSans-Bold-6e" x="1519.025391"/>
     <use xlink:href="#DejaVuSans-Bold-74" x="1590.216797"/>
     <use xlink:href="#DejaVuSans-Bold-65" x="1638.019531"/>
     <use xlink:href="#DejaVuSans-Bold-2c" x="1705.841797"/>
     <use xlink:href="#DejaVuSans-Bold-20" x="1743.830078"/>
     <use xlink:href="#DejaVuSans-Bold-63" x="1778.644531"/>
     <use xlink:href="#DejaVuSans-Bold-f3" x="1837.921875"/>
     <use xlink:href="#DejaVuSans-Bold-6e" x="1906.623047"/>
     <use xlink:href="#DejaVuSans-Bold-63" x="1977.814453"/>
     <use xlink:href="#DejaVuSans-Bold-61" x="2037.091797"/>
     <use xlink:href="#DejaVuSans-Bold-76" x="2104.572266"/>
     <use xlink:href="#DejaVuSans-Bold-6f" x="2169.757812"/>
    </g>
   </g>
   <g id="text_14">
    <g id="patch_5">
     <path d="M 140.566615 213.488201 
L 155.873802 213.488201 
Q 159.723802 213.488201 159.723802 209.638201 
L 159.723802 198.992264 
Q 159.723802 195.142264 155.873802 195.142264 
L 140.566615 195.142264 
Q 136.716615 195.142264 136.716615 198.992264 
L 136.716615 209.638201 
Q 136.716615 213.488201 140.566615 213.488201 
z
" style="fill: #ffffff; opacity: 0.97; stroke: #bdc3c7; stroke-width: 0.8; stroke-linejoin: miter"/>
    </g>
    <!-- 33 -->
    <g style="fill: #2980b9" transform="translate(140.566615 207.350545) scale(0.11 -0.11)">
     <defs>
      <path id="DejaVuSans-Bold-33" d="M 2981 2516 
Q 3453 2394 3698 2092 
Q 3944 1791 3944 1325 
Q 3944 631 3412 270 
Q 2881 -91 1863 -91 
Q 1503 -91 1142 -33 
Q 781 25 428 141 
L 428 1069 
Q 766 900 1098 814 
Q 1431 728 1753 728 
Q 2231 728 2486 893 
Q 2741 1059 2741 1369 
Q 2741 1688 2480 1852 
Q 2219 2016 1709 2016 
L 1228 2016 
L 1228 2791 
L 1734 2791 
Q 2188 2791 2409 2933 
Q 2631 3075 2631 3366 
Q 2631 3634 2415 3781 
Q 2200 3928 1806 3928 
Q 1516 3928 1219 3862 
Q 922 3797 628 3669 
L 628 4550 
Q 984 4650 1334 4700 
Q 1684 4750 2022 4750 
Q 2931 4750 3382 4451 
Q 3834 4153 3834 3553 
Q 3834 3144 3618 2883 
Q 3403 2622 2981 2516 
z
" transform="scale(0.015625)"/>
     </defs>
     <use xlink:href="#DejaVuSans-Bold-33"/>
     <use xlink:href="#DejaVuSans-Bold-33" x="69.580078"/>
    </g>
   </g>
   <g id="text_15">
    <g id="patch_6">
     <path d="M 228.779948 189.987315 
L 244.087135 189.987315 
Q 247.937135 189.987315 247.937135 186.137315 
L 247.937135 175.491377 
Q 247.937135 171.641377 244.087135 171.641377 
L 228.779948 171.641377 
Q 224.929948 171.641377 224.929948 175.491377 
L 224.929948 186.137315 
Q 224.929948 189.987315 228.779948 189.987315 
z
" style="fill: #ffffff; opacity: 0.97; stroke: #bdc3c7; stroke-width: 0.8; stroke-linejoin: miter"/>
    </g>
    <!-- 36 -->
    <g style="fill: #2980b9" transform="translate(228.779948 183.849659) scale(0.11 -0.11)">
     <defs>
      <path id="DejaVuSans-Bold-36" d="M 2316 2303 
Q 2000 2303 1842 2098 
Q 1684 1894 1684 1484 
Q 1684 1075 1842 870 
Q 2000 666 2316 666 
Q 2634 666 2792 870 
Q 2950 1075 2950 1484 
Q 2950 1894 2792 2098 
Q 2634 2303 2316 2303 
z
M 3803 4544 
L 3803 3681 
Q 3506 3822 3243 3889 
Q 2981 3956 2731 3956 
Q 2194 3956 1894 3657 
Q 1594 3359 1544 2772 
Q 1750 2925 1990 3001 
Q 2231 3078 2516 3078 
Q 3231 3078 3670 2659 
Q 4109 2241 4109 1563 
Q 4109 813 3618 361 
Q 3128 -91 2303 -91 
Q 1394 -91 895 523 
Q 397 1138 397 2266 
Q 397 3422 980 4083 
Q 1563 4744 2578 4744 
Q 2900 4744 3203 4694 
Q 3506 4644 3803 4544 
z
" transform="scale(0.015625)"/>
     </defs>
     <use xlink:href="#DejaVuSans-Bold-33"/>
     <use xlink:href="#DejaVuSans-Bold-36" x="69.580078"/>
    </g>
   </g>
   <g id="text_16">
    <g id="patch_7">
     <path d="M 316.993281 158.6528 
L 332.300469 158.6528 
Q 336.150469 158.6528 336.150469 154.8028 
L 336.150469 144.156862 
Q 336.150469 140.306862 332.300469 140.306862 
L 316.993281 140.306862 
Q 313.143281 140.306862 313.143281 144.156862 
L 313.143281 154.8028 
Q 313.143281 158.6528 316.993281 158.6528 
z
" style="fill: #ffffff; opacity: 0.97; stroke: #bdc3c7; stroke-width: 0.8; stroke-linejoin: miter"/>
    </g>
    <!-- 40 -->
    <g style="fill: #2980b9" transform="translate(316.993281 152.515143) scale(0.11 -0.11)">
     <defs>
      <path id="DejaVuSans-Bold-34" d="M 2356 3675 
L 1038 1722 
L 2356 1722 
L 2356 3675 
z
M 2156 4666 
L 3494 4666 
L 3494 1722 
L 4159 1722 
L 4159 850 
L 3494 850 
L 3494 0 
L 2356 0 
L 2356 850 
L 288 850 
L 288 1881 
L 2156 4666 
z
" transform="scale(0.015625)"/>
      <path id="DejaVuSans-Bold-30" d="M 2944 2338 
Q 2944 3213 2780 3570 
Q 2616 3928 2228 3928 
Q 1841 3928 1675 3570 
Q 1509 3213 1509 2338 
Q 1509 1453 1675 1090 
Q 1841 728 2228 728 
Q 2613 728 2778 1090 
Q 2944 1453 2944 2338 
z
M 4147 2328 
Q 4147 1169 3647 539 
Q 3147 -91 2228 -91 
Q 1306 -91 806 539 
Q 306 1169 306 2328 
Q 306 3491 806 4120 
Q 1306 4750 2228 4750 
Q 3147 4750 3647 4120 
Q 4147 3491 4147 2328 
z
" transform="scale(0.015625)"/>
     </defs>
     <use xlink:href="#DejaVuSans-Bold-34"/>
     <use xlink:href="#DejaVuSans-Bold-30" x="69.580078"/>
    </g>
   </g>
   <g id="text_17">
    <g id="patch_8">
     <path d="M 405.206615 119.484655 
L 420.513802 119.484655 
Q 424.363802 119.484655 424.363802 115.634655 
L 424.363802 104.988718 
Q 424.363802 101.138718 420.513802 101.138718 
L 405.206615 101.138718 
Q 401.356615 101.138718 401.356615 104.988718 
L 401.356615 115.634655 
Q 401.356615 119.484655 405.206615 119.484655 
z
" style="fill: #ffffff; opacity: 0.97; stroke: #bdc3c7; stroke-width: 0.8; stroke-linejoin: miter"/>
    </g>
    <!-- 45 -->
    <g style="fill: #2980b9" transform="translate(405.206615 113.346999) scale(0.11 -0.11)">
     <defs>
      <path id="DejaVuSans-Bold-35" d="M 678 4666 
L 3669 4666 
L 3669 3781 
L 1638 3781 
L 1638 3059 
Q 1775 3097 1914 3117 
Q 2053 3138 2203 3138 
Q 3056 3138 3531 2711 
Q 4006 2284 4006 1522 
Q 4006 766 3489 337 
Q 2972 -91 2053 -91 
Q 1656 -91 1267 -14 
Q 878 63 494 219 
L 494 1166 
Q 875 947 1217 837 
Q 1559 728 1863 728 
Q 2300 728 2551 942 
Q 2803 1156 2803 1522 
Q 2803 1891 2551 2103 
Q 2300 2316 1863 2316 
Q 1603 2316 1309 2248 
Q 1016 2181 678 2041 
L 678 4666 
z
" transform="scale(0.015625)"/>
     </defs>
     <use xlink:href="#DejaVuSans-Bold-34"/>
     <use xlink:href="#DejaVuSans-Bold-35" x="69.580078"/>
    </g>
   </g>
  </g>
  <g id="axes_2">
   <g id="patch_9">
    <path d="M 693.561875 497.194811 
L 1222.841875 497.194811 
L 1222.841875 50.677969 
L 693.561875 50.677969 
z
" style="fill: #ffffff"/>
   </g>
   <g id="matplotlib.axis_3">
    <g id="xtick_5">
     <g id="line2d_24">
      <path d="M 781.775208 497.194811 
L 781.775208 50.677969 
" clip-path="url(#p6929dabc78)" style="fill: none; stroke-dasharray: 0.8,1.32; stroke-dashoffset: 0; stroke: #b0b0b0; stroke-opacity: 0.4; stroke-width: 0.8"/>
     </g>
     <g id="line2d_25">
      <g>
       <use xlink:href="#m367b53000a" x="781.775208" y="447.581828" style="stroke: #000000"/>
      </g>
     </g>
     <g id="text_18">
      <!-- 3 -->
      <g transform="translate(778.593958 458.680266) scale(0.1 -0.1)">
       <use xlink:href="#DejaVuSans-33"/>
      </g>
     </g>
    </g>
    <g id="xtick_6">
     <g id="line2d_26">
      <path d="M 869.988542 497.194811 
L 869.988542 50.677969 
" clip-path="url(#p6929dabc78)" style="fill: none; stroke-dasharray: 0.8,1.32; stroke-dashoffset: 0; stroke: #b0b0b0; stroke-opacity: 0.4; stroke-width: 0.8"/>
     </g>
     <g id="line2d_27">
      <g>
       <use xlink:href="#m367b53000a" x="869.988542" y="447.581828" style="stroke: #000000"/>
      </g>
     </g>
     <g id="text_19">
      <!-- 4 -->
      <g transform="translate(866.807292 458.680266) scale(0.1 -0.1)">
       <use xlink:href="#DejaVuSans-34"/>
      </g>
     </g>
    </g>
    <g id="xtick_7">
     <g id="line2d_28">
      <path d="M 958.201875 497.194811 
L 958.201875 50.677969 
" clip-path="url(#p6929dabc78)" style="fill: none; stroke-dasharray: 0.8,1.32; stroke-dashoffset: 0; stroke: #b0b0b0; stroke-opacity: 0.4; stroke-width: 0.8"/>
     </g>
     <g id="line2d_29">
      <g>
       <use xlink:href="#m367b53000a" x="958.201875" y="447.581828" style="stroke: #000000"/>
      </g>
     </g>
     <g id="text_20">
      <!-- 5 -->
      <g transform="translate(955.020625 458.680266) scale(0.1 -0.1)">
       <use xlink:href="#DejaVuSans-35"/>
      </g>
     </g>
    </g>
    <g id="xtick_8">
     <g id="line2d_30">
      <path d="M 1046.415208 497.194811 
L 1046.415208 50.677969 
" clip-path="url(#p6929dabc78)" style="fill: none; stroke-dasharray: 0.8,1.32; stroke-dashoffset: 0; stroke: #b0b0b0; stroke-opacity: 0.4; stroke-width: 0.8"/>
     </g>
     <g id="line2d_31">
      <g>
       <use xlink:href="#m367b53000a" x="1046.415208" y="447.581828" style="stroke: #000000"/>
      </g>
     </g>
     <g id="text_21">
      <!-- 6 -->
      <g transform="translate(1043.233958 458.680266) scale(0.1 -0.1)">
       <use xlink:href="#DejaVuSans-36"/>
      </g>
     </g>
    </g>
    <g id="text_22">
     <!-- L (trabajo) -->
     <g transform="translate(1151.2525 467.878078) scale(0.12 -0.12)">
      <use xlink:href="#DejaVuSans-Bold-4c"/>
      <use xlink:href="#DejaVuSans-Bold-20" x="63.720703"/>
      <use xlink:href="#DejaVuSans-Bold-28" x="98.535156"/>
      <use xlink:href="#DejaVuSans-Bold-74" x="144.238281"/>
      <use xlink:href="#DejaVuSans-Bold-72" x="192.041016"/>
      <use xlink:href="#DejaVuSans-Bold-61" x="241.357422"/>
      <use xlink:href="#DejaVuSans-Bold-62" x="308.837891"/>
      <use xlink:href="#DejaVuSans-Bold-61" x="380.419922"/>
      <use xlink:href="#DejaVuSans-Bold-6a" x="447.900391"/>
      <use xlink:href="#DejaVuSans-Bold-6f" x="482.177734"/>
      <use xlink:href="#DejaVuSans-Bold-29" x="550.878906"/>
     </g>
    </g>
   </g>
   <g id="matplotlib.axis_4">
    <g id="ytick_7">
     <g id="line2d_32">
      <path d="M 693.561875 497.194811 
L 1222.841875 497.194811 
" clip-path="url(#p6929dabc78)" style="fill: none; stroke-dasharray: 0.8,1.32; stroke-dashoffset: 0; stroke: #b0b0b0; stroke-opacity: 0.4; stroke-width: 0.8"/>
     </g>
     <g id="line2d_33">
      <g>
       <use xlink:href="#mca805b780c" x="693.561875" y="497.194811" style="stroke: #000000"/>
      </g>
     </g>
     <g id="text_23">
      <!-- −2 -->
      <g transform="translate(675.319687 500.99403) scale(0.1 -0.1)">
       <defs>
        <path id="DejaVuSans-2212" d="M 678 2272 
L 4684 2272 
L 4684 1741 
L 678 1741 
L 678 2272 
z
" transform="scale(0.015625)"/>
       </defs>
       <use xlink:href="#DejaVuSans-2212"/>
       <use xlink:href="#DejaVuSans-32" x="83.789062"/>
      </g>
     </g>
    </g>
    <g id="ytick_8">
     <g id="line2d_34">
      <path d="M 693.561875 447.581828 
L 1222.841875 447.581828 
" clip-path="url(#p6929dabc78)" style="fill: none; stroke-dasharray: 0.8,1.32; stroke-dashoffset: 0; stroke: #b0b0b0; stroke-opacity: 0.4; stroke-width: 0.8"/>
     </g>
     <g id="line2d_35">
      <g>
       <use xlink:href="#mca805b780c" x="693.561875" y="447.581828" style="stroke: #000000"/>
      </g>
     </g>
     <g id="text_24">
      <!-- 0 -->
      <g transform="translate(683.699375 451.381047) scale(0.1 -0.1)">
       <use xlink:href="#DejaVuSans-30"/>
      </g>
     </g>
    </g>
    <g id="ytick_9">
     <g id="line2d_36">
      <path d="M 693.561875 397.968846 
L 1222.841875 397.968846 
" clip-path="url(#p6929dabc78)" style="fill: none; stroke-dasharray: 0.8,1.32; stroke-dashoffset: 0; stroke: #b0b0b0; stroke-opacity: 0.4; stroke-width: 0.8"/>
     </g>
     <g id="line2d_37">
      <g>
       <use xlink:href="#mca805b780c" x="693.561875" y="397.968846" style="stroke: #000000"/>
      </g>
     </g>
     <g id="text_25">
      <!-- 2 -->
      <g transform="translate(683.699375 401.768065) scale(0.1 -0.1)">
       <use xlink:href="#DejaVuSans-32"/>
      </g>
     </g>
    </g>
    <g id="ytick_10">
     <g id="line2d_38">
      <path d="M 693.561875 348.355863 
L 1222.841875 348.355863 
" clip-path="url(#p6929dabc78)" style="fill: none; stroke-dasharray: 0.8,1.32; stroke-dashoffset: 0; stroke: #b0b0b0; stroke-opacity: 0.4; stroke-width: 0.8"/>
     </g>
     <g id="line2d_39">
      <g>
       <use xlink:href="#mca805b780c" x="693.561875" y="348.355863" style="stroke: #000000"/>
      </g>
     </g>
     <g id="text_26">
      <!-- 4 -->
      <g transform="translate(683.699375 352.155082) scale(0.1 -0.1)">
       <use xlink:href="#DejaVuSans-34"/>
      </g>
     </g>
    </g>
    <g id="ytick_11">
     <g id="line2d_40">
      <path d="M 693.561875 298.742881 
L 1222.841875 298.742881 
" clip-path="url(#p6929dabc78)" style="fill: none; stroke-dasharray: 0.8,1.32; stroke-dashoffset: 0; stroke: #b0b0b0; stroke-opacity: 0.4; stroke-width: 0.8"/>
     </g>
     <g id="line2d_41">
      <g>
       <use xlink:href="#mca805b780c" x="693.561875" y="298.742881" style="stroke: #000000"/>
      </g>
     </g>
     <g id="text_27">
      <!-- 6 -->
      <g transform="translate(683.699375 302.5421) scale(0.1 -0.1)">
       <use xlink:href="#DejaVuSans-36"/>
      </g>
     </g>
    </g>
    <g id="ytick_12">
     <g id="line2d_42">
      <path d="M 693.561875 249.129899 
L 1222.841875 249.129899 
" clip-path="url(#p6929dabc78)" style="fill: none; stroke-dasharray: 0.8,1.32; stroke-dashoffset: 0; stroke: #b0b0b0; stroke-opacity: 0.4; stroke-width: 0.8"/>
     </g>
     <g id="line2d_43">
      <g>
       <use xlink:href="#mca805b780c" x="693.561875" y="249.129899" style="stroke: #000000"/>
      </g>
     </g>
     <g id="text_28">
      <!-- 8 -->
      <g transform="translate(683.699375 252.929117) scale(0.1 -0.1)">
       <defs>
        <path id="DejaVuSans-38" d="M 2034 2216 
Q 1584 2216 1326 1975 
Q 1069 1734 1069 1313 
Q 1069 891 1326 650 
Q 1584 409 2034 409 
Q 2484 409 2743 651 
Q 3003 894 3003 1313 
Q 3003 1734 2745 1975 
Q 2488 2216 2034 2216 
z
M 1403 2484 
Q 997 2584 770 2862 
Q 544 3141 544 3541 
Q 544 4100 942 4425 
Q 1341 4750 2034 4750 
Q 2731 4750 3128 4425 
Q 3525 4100 3525 3541 
Q 3525 3141 3298 2862 
Q 3072 2584 2669 2484 
Q 3125 2378 3379 2068 
Q 3634 1759 3634 1313 
Q 3634 634 3220 271 
Q 2806 -91 2034 -91 
Q 1263 -91 848 271 
Q 434 634 434 1313 
Q 434 1759 690 2068 
Q 947 2378 1403 2484 
z
M 1172 3481 
Q 1172 3119 1398 2916 
Q 1625 2713 2034 2713 
Q 2441 2713 2670 2916 
Q 2900 3119 2900 3481 
Q 2900 3844 2670 4047 
Q 2441 4250 2034 4250 
Q 1625 4250 1398 4047 
Q 1172 3844 1172 3481 
z
" transform="scale(0.015625)"/>
       </defs>
       <use xlink:href="#DejaVuSans-38"/>
      </g>
     </g>
    </g>
    <g id="ytick_13">
     <g id="line2d_44">
      <path d="M 693.561875 199.516916 
L 1222.841875 199.516916 
" clip-path="url(#p6929dabc78)" style="fill: none; stroke-dasharray: 0.8,1.32; stroke-dashoffset: 0; stroke: #b0b0b0; stroke-opacity: 0.4; stroke-width: 0.8"/>
     </g>
     <g id="line2d_45">
      <g>
       <use xlink:href="#mca805b780c" x="693.561875" y="199.516916" style="stroke: #000000"/>
      </g>
     </g>
     <g id="text_29">
      <!-- 10 -->
      <g transform="translate(677.336875 203.316135) scale(0.1 -0.1)">
       <use xlink:href="#DejaVuSans-31"/>
       <use xlink:href="#DejaVuSans-30" x="63.623047"/>
      </g>
     </g>
    </g>
    <g id="ytick_14">
     <g id="line2d_46">
      <path d="M 693.561875 149.903934 
L 1222.841875 149.903934 
" clip-path="url(#p6929dabc78)" style="fill: none; stroke-dasharray: 0.8,1.32; stroke-dashoffset: 0; stroke: #b0b0b0; stroke-opacity: 0.4; stroke-width: 0.8"/>
     </g>
     <g id="line2d_47">
      <g>
       <use xlink:href="#mca805b780c" x="693.561875" y="149.903934" style="stroke: #000000"/>
      </g>
     </g>
     <g id="text_30">
      <!-- 12 -->
      <g transform="translate(677.336875 153.703152) scale(0.1 -0.1)">
       <use xlink:href="#DejaVuSans-31"/>
       <use xlink:href="#DejaVuSans-32" x="63.623047"/>
      </g>
     </g>
    </g>
    <g id="ytick_15">
     <g id="line2d_48">
      <path d="M 693.561875 100.290951 
L 1222.841875 100.290951 
" clip-path="url(#p6929dabc78)" style="fill: none; stroke-dasharray: 0.8,1.32; stroke-dashoffset: 0; stroke: #b0b0b0; stroke-opacity: 0.4; stroke-width: 0.8"/>
     </g>
     <g id="line2d_49">
      <g>
       <use xlink:href="#mca805b780c" x="693.561875" y="100.290951" style="stroke: #000000"/>
      </g>
     </g>
     <g id="text_31">
      <!-- 14 -->
      <g transform="translate(677.336875 104.09017) scale(0.1 -0.1)">
       <use xlink:href="#DejaVuSans-31"/>
       <use xlink:href="#DejaVuSans-34" x="63.623047"/>
      </g>
     </g>
    </g>
    <g id="ytick_16">
     <g id="line2d_50">
      <path d="M 693.561875 50.677969 
L 1222.841875 50.677969 
" clip-path="url(#p6929dabc78)" style="fill: none; stroke-dasharray: 0.8,1.32; stroke-dashoffset: 0; stroke: #b0b0b0; stroke-opacity: 0.4; stroke-width: 0.8"/>
     </g>
     <g id="line2d_51">
      <g>
       <use xlink:href="#mca805b780c" x="693.561875" y="50.677969" style="stroke: #000000"/>
      </g>
     </g>
     <g id="text_32">
      <!-- 16 -->
      <g transform="translate(677.336875 54.477188) scale(0.1 -0.1)">
       <use xlink:href="#DejaVuSans-31"/>
       <use xlink:href="#DejaVuSans-36" x="63.623047"/>
      </g>
     </g>
    </g>
    <g id="text_33">
     <!-- PMe / PMg -->
     <g transform="translate(606.377187 48.088594) scale(0.12 -0.12)">
      <defs>
       <path id="DejaVuSans-Bold-4d" d="M 588 4666 
L 2119 4666 
L 3181 2169 
L 4250 4666 
L 5778 4666 
L 5778 0 
L 4641 0 
L 4641 3413 
L 3566 897 
L 2803 897 
L 1728 3413 
L 1728 0 
L 588 0 
L 588 4666 
z
" transform="scale(0.015625)"/>
       <path id="DejaVuSans-Bold-2f" d="M 1644 4666 
L 2338 4666 
L 691 -594 
L 0 -594 
L 1644 4666 
z
" transform="scale(0.015625)"/>
       <path id="DejaVuSans-Bold-67" d="M 2919 594 
Q 2688 288 2409 144 
Q 2131 0 1766 0 
Q 1125 0 706 504 
Q 288 1009 288 1791 
Q 288 2575 706 3076 
Q 1125 3578 1766 3578 
Q 2131 3578 2409 3434 
Q 2688 3291 2919 2981 
L 2919 3500 
L 4044 3500 
L 4044 353 
Q 4044 -491 3511 -936 
Q 2978 -1381 1966 -1381 
Q 1638 -1381 1331 -1331 
Q 1025 -1281 716 -1178 
L 716 -306 
Q 1009 -475 1290 -558 
Q 1572 -641 1856 -641 
Q 2406 -641 2662 -400 
Q 2919 -159 2919 353 
L 2919 594 
z
M 2181 2772 
Q 1834 2772 1640 2515 
Q 1447 2259 1447 1791 
Q 1447 1309 1634 1061 
Q 1822 813 2181 813 
Q 2531 813 2725 1069 
Q 2919 1325 2919 1791 
Q 2919 2259 2725 2515 
Q 2531 2772 2181 2772 
z
" transform="scale(0.015625)"/>
      </defs>
      <use xlink:href="#DejaVuSans-Bold-50"/>
      <use xlink:href="#DejaVuSans-Bold-4d" x="73.291016"/>
      <use xlink:href="#DejaVuSans-Bold-65" x="172.802734"/>
      <use xlink:href="#DejaVuSans-Bold-20" x="240.625"/>
      <use xlink:href="#DejaVuSans-Bold-2f" x="275.439453"/>
      <use xlink:href="#DejaVuSans-Bold-20" x="311.962891"/>
      <use xlink:href="#DejaVuSans-Bold-50" x="346.777344"/>
      <use xlink:href="#DejaVuSans-Bold-4d" x="420.068359"/>
      <use xlink:href="#DejaVuSans-Bold-67" x="519.580078"/>
     </g>
    </g>
   </g>
   <g id="line2d_52">
    <path d="M 781.775208 174.710425 
L 869.988542 224.323407 
L 958.201875 249.129899 
L 1046.415208 261.533144 
" clip-path="url(#p6929dabc78)" style="fill: none; stroke: #16a085; stroke-width: 3; stroke-linecap: square"/>
    <defs>
     <path id="mfc8466e8ba" d="M -5.5 5.5 
L 5.5 5.5 
L 5.5 -5.5 
L -5.5 -5.5 
z
" style="stroke: #16a085; stroke-linejoin: miter"/>
    </defs>
    <g clip-path="url(#p6929dabc78)">
     <use xlink:href="#mfc8466e8ba" x="781.775208" y="174.710425" style="fill: #16a085; stroke: #16a085; stroke-linejoin: miter"/>
     <use xlink:href="#mfc8466e8ba" x="869.988542" y="224.323407" style="fill: #16a085; stroke: #16a085; stroke-linejoin: miter"/>
     <use xlink:href="#mfc8466e8ba" x="958.201875" y="249.129899" style="fill: #16a085; stroke: #16a085; stroke-linejoin: miter"/>
     <use xlink:href="#mfc8466e8ba" x="1046.415208" y="261.533144" style="fill: #16a085; stroke: #16a085; stroke-linejoin: miter"/>
    </g>
   </g>
   <g id="line2d_53">
    <path d="M 869.988542 373.162355 
L 958.201875 348.355863 
L 1046.415208 323.549372 
" clip-path="url(#p6929dabc78)" style="fill: none; stroke: #e67e22; stroke-width: 3; stroke-linecap: square"/>
    <defs>
     <path id="m7ed19a8e4e" d="M 0 -5.5 
L -5.5 5.5 
L 5.5 5.5 
z
" style="stroke: #e67e22; stroke-linejoin: miter"/>
    </defs>
    <g clip-path="url(#p6929dabc78)">
     <use xlink:href="#m7ed19a8e4e" x="869.988542" y="373.162355" style="fill: #e67e22; stroke: #e67e22; stroke-linejoin: miter"/>
     <use xlink:href="#m7ed19a8e4e" x="958.201875" y="348.355863" style="fill: #e67e22; stroke: #e67e22; stroke-linejoin: miter"/>
     <use xlink:href="#m7ed19a8e4e" x="1046.415208" y="323.549372" style="fill: #e67e22; stroke: #e67e22; stroke-linejoin: miter"/>
    </g>
   </g>
   <g id="line2d_54">
    <g>
     <use xlink:href="#m546b14eb19" x="1222.841875" y="447.581828" style="stroke: #000000; stroke-linejoin: miter"/>
    </g>
   </g>
   <g id="line2d_55">
    <g>
     <use xlink:href="#mce8132885c" x="693.561875" y="50.677969" style="stroke: #000000; stroke-linejoin: miter"/>
    </g>
   </g>
   <g id="patch_10">
    <path d="M 693.561875 497.194811 
L 693.561875 50.677969 
" style="fill: none; stroke: #000000; stroke-width: 1.4; stroke-linejoin: miter; stroke-linecap: square"/>
   </g>
   <g id="patch_11">
    <path d="M 693.561875 447.581828 
L 1222.841875 447.581828 
" style="fill: none; stroke: #000000; stroke-width: 1.4; stroke-linejoin: miter; stroke-linecap: square"/>
   </g>
   <g id="text_34">
    <!-- (b) PMe (decreciente) y PMg (creciente, &lt; PMe) -->
    <g transform="translate(783.301094 38.677969) scale(0.13 -0.13)">
     <defs>
      <path id="DejaVuSans-Bold-79" d="M 78 3500 
L 1197 3500 
L 2138 1125 
L 2938 3500 
L 4056 3500 
L 2584 -331 
Q 2363 -916 2067 -1148 
Q 1772 -1381 1288 -1381 
L 641 -1381 
L 641 -647 
L 991 -647 
Q 1275 -647 1404 -556 
Q 1534 -466 1606 -231 
L 1638 -134 
L 78 3500 
z
" transform="scale(0.015625)"/>
      <path id="DejaVuSans-Bold-3c" d="M 4684 3041 
L 1672 2003 
L 4684 972 
L 4684 191 
L 678 1638 
L 678 2375 
L 4684 3822 
L 4684 3041 
z
" transform="scale(0.015625)"/>
     </defs>
     <use xlink:href="#DejaVuSans-Bold-28"/>
     <use xlink:href="#DejaVuSans-Bold-62" x="45.703125"/>
     <use xlink:href="#DejaVuSans-Bold-29" x="117.285156"/>
     <use xlink:href="#DejaVuSans-Bold-20" x="162.988281"/>
     <use xlink:href="#DejaVuSans-Bold-50" x="197.802734"/>
     <use xlink:href="#DejaVuSans-Bold-4d" x="271.09375"/>
     <use xlink:href="#DejaVuSans-Bold-65" x="370.605469"/>
     <use xlink:href="#DejaVuSans-Bold-20" x="438.427734"/>
     <use xlink:href="#DejaVuSans-Bold-28" x="473.242188"/>
     <use xlink:href="#DejaVuSans-Bold-64" x="518.945312"/>
     <use xlink:href="#DejaVuSans-Bold-65" x="590.527344"/>
     <use xlink:href="#DejaVuSans-Bold-63" x="658.349609"/>
     <use xlink:href="#DejaVuSans-Bold-72" x="717.626953"/>
     <use xlink:href="#DejaVuSans-Bold-65" x="766.943359"/>
     <use xlink:href="#DejaVuSans-Bold-63" x="834.765625"/>
     <use xlink:href="#DejaVuSans-Bold-69" x="894.042969"/>
     <use xlink:href="#DejaVuSans-Bold-65" x="928.320312"/>
     <use xlink:href="#DejaVuSans-Bold-6e" x="996.142578"/>
     <use xlink:href="#DejaVuSans-Bold-74" x="1067.333984"/>
     <use xlink:href="#DejaVuSans-Bold-65" x="1115.136719"/>
     <use xlink:href="#DejaVuSans-Bold-29" x="1182.958984"/>
     <use xlink:href="#DejaVuSans-Bold-20" x="1228.662109"/>
     <use xlink:href="#DejaVuSans-Bold-79" x="1263.476562"/>
     <use xlink:href="#DejaVuSans-Bold-20" x="1328.662109"/>
     <use xlink:href="#DejaVuSans-Bold-50" x="1363.476562"/>
     <use xlink:href="#DejaVuSans-Bold-4d" x="1436.767578"/>
     <use xlink:href="#DejaVuSans-Bold-67" x="1536.279297"/>
     <use xlink:href="#DejaVuSans-Bold-20" x="1607.861328"/>
     <use xlink:href="#DejaVuSans-Bold-28" x="1642.675781"/>
     <use xlink:href="#DejaVuSans-Bold-63" x="1688.378906"/>
     <use xlink:href="#DejaVuSans-Bold-72" x="1747.65625"/>
     <use xlink:href="#DejaVuSans-Bold-65" x="1796.972656"/>
     <use xlink:href="#DejaVuSans-Bold-63" x="1864.794922"/>
     <use xlink:href="#DejaVuSans-Bold-69" x="1924.072266"/>
     <use xlink:href="#DejaVuSans-Bold-65" x="1958.349609"/>
     <use xlink:href="#DejaVuSans-Bold-6e" x="2026.171875"/>
     <use xlink:href="#DejaVuSans-Bold-74" x="2097.363281"/>
     <use xlink:href="#DejaVuSans-Bold-65" x="2145.166016"/>
     <use xlink:href="#DejaVuSans-Bold-2c" x="2212.988281"/>
     <use xlink:href="#DejaVuSans-Bold-20" x="2250.976562"/>
     <use xlink:href="#DejaVuSans-Bold-3c" x="2285.791016"/>
     <use xlink:href="#DejaVuSans-Bold-20" x="2369.580078"/>
     <use xlink:href="#DejaVuSans-Bold-50" x="2404.394531"/>
     <use xlink:href="#DejaVuSans-Bold-4d" x="2477.685547"/>
     <use xlink:href="#DejaVuSans-Bold-65" x="2577.197266"/>
     <use xlink:href="#DejaVuSans-Bold-29" x="2645.019531"/>
    </g>
   </g>
   <g id="legend_1">
    <g id="patch_12">
     <path d="M 700.561875 492.194811 
L 753.568125 492.194811 
Q 755.568125 492.194811 755.568125 490.194811 
L 755.568125 461.838561 
Q 755.568125 459.838561 753.568125 459.838561 
L 700.561875 459.838561 
Q 698.561875 459.838561 698.561875 461.838561 
L 698.561875 490.194811 
Q 698.561875 492.194811 700.561875 492.194811 
z
" style="fill: #ffffff; opacity: 0.8; stroke: #cccccc; stroke-linejoin: miter"/>
    </g>
    <g id="line2d_56">
     <path d="M 702.561875 467.936998 
L 712.561875 467.936998 
L 722.561875 467.936998 
" style="fill: none; stroke: #16a085; stroke-width: 3; stroke-linecap: square"/>
     <g>
      <use xlink:href="#mfc8466e8ba" x="712.561875" y="467.936998" style="fill: #16a085; stroke: #16a085; stroke-linejoin: miter"/>
     </g>
    </g>
    <g id="text_35">
     <!-- PMe -->
     <g transform="translate(730.561875 471.436998) scale(0.1 -0.1)">
      <defs>
       <path id="DejaVuSans-50" d="M 1259 4147 
L 1259 2394 
L 2053 2394 
Q 2494 2394 2734 2622 
Q 2975 2850 2975 3272 
Q 2975 3691 2734 3919 
Q 2494 4147 2053 4147 
L 1259 4147 
z
M 628 4666 
L 2053 4666 
Q 2838 4666 3239 4311 
Q 3641 3956 3641 3272 
Q 3641 2581 3239 2228 
Q 2838 1875 2053 1875 
L 1259 1875 
L 1259 0 
L 628 0 
L 628 4666 
z
" transform="scale(0.015625)"/>
       <path id="DejaVuSans-4d" d="M 628 4666 
L 1569 4666 
L 2759 1491 
L 3956 4666 
L 4897 4666 
L 4897 0 
L 4281 0 
L 4281 4097 
L 3078 897 
L 2444 897 
L 1241 4097 
L 1241 0 
L 628 0 
L 628 4666 
z
" transform="scale(0.015625)"/>
       <path id="DejaVuSans-65" d="M 3597 1894 
L 3597 1613 
L 953 1613 
Q 991 1019 1311 708 
Q 1631 397 2203 397 
Q 2534 397 2845 478 
Q 3156 559 3463 722 
L 3463 178 
Q 3153 47 2828 -22 
Q 2503 -91 2169 -91 
Q 1331 -91 842 396 
Q 353 884 353 1716 
Q 353 2575 817 3079 
Q 1281 3584 2069 3584 
Q 2775 3584 3186 3129 
Q 3597 2675 3597 1894 
z
M 3022 2063 
Q 3016 2534 2758 2815 
Q 2500 3097 2075 3097 
Q 1594 3097 1305 2825 
Q 1016 2553 972 2059 
L 3022 2063 
z
" transform="scale(0.015625)"/>
      </defs>
      <use xlink:href="#DejaVuSans-50"/>
      <use xlink:href="#DejaVuSans-4d" x="60.302734"/>
      <use xlink:href="#DejaVuSans-65" x="146.582031"/>
     </g>
    </g>
    <g id="line2d_57">
     <path d="M 702.561875 482.615123 
L 712.561875 482.615123 
L 722.561875 482.615123 
" style="fill: none; stroke: #e67e22; stroke-width: 3; stroke-linecap: square"/>
     <g>
      <use xlink:href="#m7ed19a8e4e" x="712.561875" y="482.615123" style="fill: #e67e22; stroke: #e67e22; stroke-linejoin: miter"/>
     </g>
    </g>
    <g id="text_36">
     <!-- PMg -->
     <g transform="translate(730.561875 486.115123) scale(0.1 -0.1)">
      <defs>
       <path id="DejaVuSans-67" d="M 2906 1791 
Q 2906 2416 2648 2759 
Q 2391 3103 1925 3103 
Q 1463 3103 1205 2759 
Q 947 2416 947 1791 
Q 947 1169 1205 825 
Q 1463 481 1925 481 
Q 2391 481 2648 825 
Q 2906 1169 2906 1791 
z
M 3481 434 
Q 3481 -459 3084 -895 
Q 2688 -1331 1869 -1331 
Q 1566 -1331 1297 -1286 
Q 1028 -1241 775 -1147 
L 775 -588 
Q 1028 -725 1275 -790 
Q 1522 -856 1778 -856 
Q 2344 -856 2625 -561 
Q 2906 -266 2906 331 
L 2906 616 
Q 2728 306 2450 153 
Q 2172 0 1784 0 
Q 1141 0 747 490 
Q 353 981 353 1791 
Q 353 2603 747 3093 
Q 1141 3584 1784 3584 
Q 2172 3584 2450 3431 
Q 2728 3278 2906 2969 
L 2906 3500 
L 3481 3500 
L 3481 434 
z
" transform="scale(0.015625)"/>
      </defs>
      <use xlink:href="#DejaVuSans-50"/>
      <use xlink:href="#DejaVuSans-4d" x="60.302734"/>
      <use xlink:href="#DejaVuSans-67" x="146.582031"/>
     </g>
    </g>
   </g>
   <g id="text_37">
    <!-- 11.0 -->
    <g style="fill: #16a085" transform="translate(769.439271 152.384583) scale(0.1 -0.1)">
     <defs>
      <path id="DejaVuSans-Bold-31" d="M 750 831 
L 1813 831 
L 1813 3847 
L 722 3622 
L 722 4441 
L 1806 4666 
L 2950 4666 
L 2950 831 
L 4013 831 
L 4013 0 
L 750 0 
L 750 831 
z
" transform="scale(0.015625)"/>
      <path id="DejaVuSans-Bold-2e" d="M 653 1209 
L 1778 1209 
L 1778 0 
L 653 0 
L 653 1209 
z
" transform="scale(0.015625)"/>
     </defs>
     <use xlink:href="#DejaVuSans-Bold-31"/>
     <use xlink:href="#DejaVuSans-Bold-31" x="69.580078"/>
     <use xlink:href="#DejaVuSans-Bold-2e" x="139.160156"/>
     <use xlink:href="#DejaVuSans-Bold-30" x="177.148438"/>
    </g>
   </g>
   <g id="text_38">
    <!-- 9.0 -->
    <g style="fill: #16a085" transform="translate(861.13151 201.997565) scale(0.1 -0.1)">
     <defs>
      <path id="DejaVuSans-Bold-39" d="M 641 103 
L 641 966 
Q 928 831 1190 764 
Q 1453 697 1709 697 
Q 2247 697 2547 995 
Q 2847 1294 2900 1881 
Q 2688 1725 2447 1647 
Q 2206 1569 1925 1569 
Q 1209 1569 770 1986 
Q 331 2403 331 3084 
Q 331 3838 820 4291 
Q 1309 4744 2131 4744 
Q 3044 4744 3544 4128 
Q 4044 3513 4044 2388 
Q 4044 1231 3459 570 
Q 2875 -91 1856 -91 
Q 1528 -91 1228 -42 
Q 928 6 641 103 
z
M 2125 2350 
Q 2441 2350 2600 2554 
Q 2759 2759 2759 3169 
Q 2759 3575 2600 3781 
Q 2441 3988 2125 3988 
Q 1809 3988 1650 3781 
Q 1491 3575 1491 3169 
Q 1491 2759 1650 2554 
Q 1809 2350 2125 2350 
z
" transform="scale(0.015625)"/>
     </defs>
     <use xlink:href="#DejaVuSans-Bold-39"/>
     <use xlink:href="#DejaVuSans-Bold-2e" x="69.580078"/>
     <use xlink:href="#DejaVuSans-Bold-30" x="107.568359"/>
    </g>
   </g>
   <g id="text_39">
    <!-- 8.0 -->
    <g style="fill: #16a085" transform="translate(949.344844 226.804056) scale(0.1 -0.1)">
     <defs>
      <path id="DejaVuSans-Bold-38" d="M 2228 2088 
Q 1891 2088 1709 1903 
Q 1528 1719 1528 1375 
Q 1528 1031 1709 848 
Q 1891 666 2228 666 
Q 2563 666 2741 848 
Q 2919 1031 2919 1375 
Q 2919 1722 2741 1905 
Q 2563 2088 2228 2088 
z
M 1350 2484 
Q 925 2613 709 2878 
Q 494 3144 494 3541 
Q 494 4131 934 4440 
Q 1375 4750 2228 4750 
Q 3075 4750 3515 4442 
Q 3956 4134 3956 3541 
Q 3956 3144 3739 2878 
Q 3522 2613 3097 2484 
Q 3572 2353 3814 2058 
Q 4056 1763 4056 1313 
Q 4056 619 3595 264 
Q 3134 -91 2228 -91 
Q 1319 -91 855 264 
Q 391 619 391 1313 
Q 391 1763 633 2058 
Q 875 2353 1350 2484 
z
M 1631 3419 
Q 1631 3141 1786 2991 
Q 1941 2841 2228 2841 
Q 2509 2841 2662 2991 
Q 2816 3141 2816 3419 
Q 2816 3697 2662 3845 
Q 2509 3994 2228 3994 
Q 1941 3994 1786 3844 
Q 1631 3694 1631 3419 
z
" transform="scale(0.015625)"/>
     </defs>
     <use xlink:href="#DejaVuSans-Bold-38"/>
     <use xlink:href="#DejaVuSans-Bold-2e" x="69.580078"/>
     <use xlink:href="#DejaVuSans-Bold-30" x="107.568359"/>
    </g>
   </g>
   <g id="text_40">
    <!-- 7.5 -->
    <g style="fill: #16a085" transform="translate(1037.558177 239.207302) scale(0.1 -0.1)">
     <defs>
      <path id="DejaVuSans-Bold-37" d="M 428 4666 
L 3944 4666 
L 3944 3988 
L 2125 0 
L 953 0 
L 2675 3781 
L 428 3781 
L 428 4666 
z
" transform="scale(0.015625)"/>
     </defs>
     <use xlink:href="#DejaVuSans-Bold-37"/>
     <use xlink:href="#DejaVuSans-Bold-2e" x="69.580078"/>
     <use xlink:href="#DejaVuSans-Bold-35" x="107.568359"/>
    </g>
   </g>
   <g id="text_41">
    <!-- 3 -->
    <g style="fill: #e67e22" transform="translate(866.509635 400.449495) scale(0.1 -0.1)">
     <use xlink:href="#DejaVuSans-Bold-33"/>
    </g>
   </g>
   <g id="text_42">
    <!-- 4 -->
    <g style="fill: #e67e22" transform="translate(954.722969 375.643004) scale(0.1 -0.1)">
     <use xlink:href="#DejaVuSans-Bold-34"/>
    </g>
   </g>
   <g id="text_43">
    <!-- 5 -->
    <g style="fill: #e67e22" transform="translate(1042.936302 350.836513) scale(0.1 -0.1)">
     <use xlink:href="#DejaVuSans-Bold-35"/>
    </g>
   </g>
   <g id="text_44">
    <g id="patch_13">
     <path d="M 1063.173073 154.983621 
L 1206.08401 154.983621 
Q 1209.08401 154.983621 1209.08401 151.983621 
L 1209.08401 131.029559 
Q 1209.08401 128.029559 1206.08401 128.029559 
L 1063.173073 128.029559 
Q 1060.173073 128.029559 1060.173073 131.029559 
L 1060.173073 151.983621 
Q 1060.173073 154.983621 1063.173073 154.983621 
z
" style="fill: #fffbeb; opacity: 0.97; stroke: #f39c12; stroke-width: 0.7; stroke-linejoin: miter"/>
    </g>
    <!-- PMe ↓ y PMg &lt; PMe -->
    <g style="fill: #34495e" transform="translate(1078.00276 138.627996) scale(0.1 -0.1)">
     <defs>
      <path id="DejaVuSans-Bold-2193" d="M 2903 -22 
L 2466 -22 
L 1238 1206 
L 1691 1659 
L 2309 1041 
L 2309 4666 
L 3059 4666 
L 3059 1041 
L 3678 1659 
L 4131 1206 
L 2903 -22 
z
" transform="scale(0.015625)"/>
     </defs>
     <use xlink:href="#DejaVuSans-Bold-50"/>
     <use xlink:href="#DejaVuSans-Bold-4d" x="73.291016"/>
     <use xlink:href="#DejaVuSans-Bold-65" x="172.802734"/>
     <use xlink:href="#DejaVuSans-Bold-20" x="240.625"/>
     <use xlink:href="#DejaVuSans-Bold-2193" x="275.439453"/>
     <use xlink:href="#DejaVuSans-Bold-20" x="359.228516"/>
     <use xlink:href="#DejaVuSans-Bold-79" x="394.042969"/>
     <use xlink:href="#DejaVuSans-Bold-20" x="459.228516"/>
     <use xlink:href="#DejaVuSans-Bold-50" x="494.042969"/>
     <use xlink:href="#DejaVuSans-Bold-4d" x="567.333984"/>
     <use xlink:href="#DejaVuSans-Bold-67" x="666.845703"/>
     <use xlink:href="#DejaVuSans-Bold-20" x="738.427734"/>
     <use xlink:href="#DejaVuSans-Bold-3c" x="773.242188"/>
     <use xlink:href="#DejaVuSans-Bold-20" x="857.03125"/>
     <use xlink:href="#DejaVuSans-Bold-50" x="891.845703"/>
     <use xlink:href="#DejaVuSans-Bold-4d" x="965.136719"/>
     <use xlink:href="#DejaVuSans-Bold-65" x="1064.648438"/>
    </g>
    <!-- → Etapa II (zona racional) -->
    <g style="fill: #34495e" transform="translate(1063.173073 149.903934) scale(0.1 -0.1)">
     <defs>
      <path id="DejaVuSans-Bold-2192" d="M 5050 2225 
L 5050 1788 
L 3822 559 
L 3369 1013 
L 3988 1631 
L 366 1631 
L 366 2381 
L 3988 2381 
L 3369 3000 
L 3822 3453 
L 5050 2225 
z
" transform="scale(0.015625)"/>
      <path id="DejaVuSans-Bold-45" d="M 588 4666 
L 3834 4666 
L 3834 3756 
L 1791 3756 
L 1791 2888 
L 3713 2888 
L 3713 1978 
L 1791 1978 
L 1791 909 
L 3903 909 
L 3903 0 
L 588 0 
L 588 4666 
z
" transform="scale(0.015625)"/>
      <path id="DejaVuSans-Bold-70" d="M 1656 506 
L 1656 -1331 
L 538 -1331 
L 538 3500 
L 1656 3500 
L 1656 2988 
Q 1888 3294 2169 3439 
Q 2450 3584 2816 3584 
Q 3463 3584 3878 3070 
Q 4294 2556 4294 1747 
Q 4294 938 3878 423 
Q 3463 -91 2816 -91 
Q 2450 -91 2169 54 
Q 1888 200 1656 506 
z
M 2400 2772 
Q 2041 2772 1848 2508 
Q 1656 2244 1656 1747 
Q 1656 1250 1848 986 
Q 2041 722 2400 722 
Q 2759 722 2948 984 
Q 3138 1247 3138 1747 
Q 3138 2247 2948 2509 
Q 2759 2772 2400 2772 
z
" transform="scale(0.015625)"/>
      <path id="DejaVuSans-Bold-49" d="M 588 4666 
L 1791 4666 
L 1791 0 
L 588 0 
L 588 4666 
z
" transform="scale(0.015625)"/>
      <path id="DejaVuSans-Bold-7a" d="M 366 3500 
L 3419 3500 
L 3419 2719 
L 1575 800 
L 3419 800 
L 3419 0 
L 288 0 
L 288 781 
L 2131 2700 
L 366 2700 
L 366 3500 
z
" transform="scale(0.015625)"/>
     </defs>
     <use xlink:href="#DejaVuSans-Bold-2192"/>
     <use xlink:href="#DejaVuSans-Bold-20" x="83.789062"/>
     <use xlink:href="#DejaVuSans-Bold-45" x="118.603516"/>
     <use xlink:href="#DejaVuSans-Bold-74" x="186.914062"/>
     <use xlink:href="#DejaVuSans-Bold-61" x="234.716797"/>
     <use xlink:href="#DejaVuSans-Bold-70" x="302.197266"/>
     <use xlink:href="#DejaVuSans-Bold-61" x="373.779297"/>
     <use xlink:href="#DejaVuSans-Bold-20" x="441.259766"/>
     <use xlink:href="#DejaVuSans-Bold-49" x="476.074219"/>
     <use xlink:href="#DejaVuSans-Bold-49" x="513.28125"/>
     <use xlink:href="#DejaVuSans-Bold-20" x="550.488281"/>
     <use xlink:href="#DejaVuSans-Bold-28" x="585.302734"/>
     <use xlink:href="#DejaVuSans-Bold-7a" x="631.005859"/>
     <use xlink:href="#DejaVuSans-Bold-6f" x="689.208984"/>
     <use xlink:href="#DejaVuSans-Bold-6e" x="757.910156"/>
     <use xlink:href="#DejaVuSans-Bold-61" x="829.101562"/>
     <use xlink:href="#DejaVuSans-Bold-20" x="896.582031"/>
     <use xlink:href="#DejaVuSans-Bold-72" x="931.396484"/>
     <use xlink:href="#DejaVuSans-Bold-61" x="980.712891"/>
     <use xlink:href="#DejaVuSans-Bold-63" x="1048.193359"/>
     <use xlink:href="#DejaVuSans-Bold-69" x="1107.470703"/>
     <use xlink:href="#DejaVuSans-Bold-6f" x="1141.748047"/>
     <use xlink:href="#DejaVuSans-Bold-6e" x="1210.449219"/>
     <use xlink:href="#DejaVuSans-Bold-61" x="1281.640625"/>
     <use xlink:href="#DejaVuSans-Bold-6c" x="1349.121094"/>
     <use xlink:href="#DejaVuSans-Bold-29" x="1383.398438"/>
    </g>
   </g>
  </g>
 </g>
 <defs>
  <clipPath id="p60ce88ec44">
   <rect x="60.006875" y="50.677969" width="529.28" height="446.516842"/>
  </clipPath>
  <clipPath id="p6929dabc78">
   <rect x="693.561875" y="50.677969" width="529.28" height="446.516842"/>
  </clipPath>
 </defs>
</svg>
