<?xml version="1.0" encoding="utf-8" standalone="no"?>
<!DOCTYPE svg PUBLIC "-//W3C//DTD SVG 1.1//EN"
  "http://www.w3.org/Graphics/SVG/1.1/DTD/svg11.dtd">
<svg xmlns:xlink="http://www.w3.org/1999/xlink" width="960.832295pt" height="446.962018pt" viewBox="0 0 960.832295 446.962018" xmlns="http://www.w3.org/2000/svg" version="1.1">
 <metadata>
  <rdf:RDF xmlns:dc="http://purl.org/dc/elements/1.1/" xmlns:cc="http://creativecommons.org/ns#" xmlns:rdf="http://www.w3.org/1999/02/22-rdf-syntax-ns#">
   <cc:Work>
    <dc:type rdf:resource="http://purl.org/dc/dcmitype/StillImage"/>
    <dc:date>2026-04-28T17:41:36.228847</dc:date>
    <dc:format>image/svg+xml</dc:format>
    <dc:creator>
     <cc:Agent>
      <dc:title>Matplotlib v3.9.2, https://matplotlib.org/</dc:title>
     </cc:Agent>
    </dc:creator>
   </cc:Work>
  </rdf:RDF>
 </metadata>
 <defs>
  <style type="text/css">*{stroke-linejoin: round; stroke-linecap: butt}</style>
 </defs>
 <g id="figure_1">
  <g id="patch_1">
   <path d="M 0 446.962018 
L 960.832295 446.962018 
L 960.832295 0 
L 0 0 
z
" style="fill: #ffffff"/>
  </g>
  <g id="axes_1">
   <g id="patch_2">
    <path d="M 119.629732 411.037969 
L 733.429732 411.037969 
L 733.429732 50.677969 
L 119.629732 50.677969 
z
" style="fill: #ffffff"/>
   </g>
   <g id="PolyCollection_1">
    <defs>
     <path id="ma6759dabce" d="M 137.166875 -364.948397 
L 137.166875 -129.931005 
L 138.938304 -129.931005 
L 140.709732 -129.931005 
L 142.481161 -129.931005 
L 144.252589 -129.931005 
L 146.024018 -129.931005 
L 147.795446 -129.931005 
L 149.566875 -129.931005 
L 151.338304 -129.931005 
L 153.109732 -129.931005 
L 154.881161 -129.931005 
L 156.652589 -129.931005 
L 158.424018 -129.931005 
L 160.195446 -129.931005 
L 161.966875 -129.931005 
L 163.738304 -129.931005 
L 165.509732 -129.931005 
L 167.281161 -129.931005 
L 169.052589 -129.931005 
L 170.824018 -129.931005 
L 172.595446 -129.931005 
L 174.366875 -129.931005 
L 176.138304 -129.931005 
L 177.909732 -129.931005 
L 179.681161 -129.931005 
L 181.452589 -129.931005 
L 183.224018 -129.931005 
L 184.995446 -129.931005 
L 186.766875 -129.931005 
L 188.538304 -129.931005 
L 190.309732 -129.931005 
L 192.081161 -129.931005 
L 193.852589 -129.931005 
L 195.624018 -129.931005 
L 197.395446 -129.931005 
L 199.166875 -129.931005 
L 200.938304 -129.931005 
L 202.709732 -129.931005 
L 204.481161 -129.931005 
L 206.252589 -129.931005 
L 208.024018 -129.931005 
L 209.795446 -129.931005 
L 211.566875 -129.931005 
L 213.338304 -129.931005 
L 215.109732 -129.931005 
L 216.881161 -129.931005 
L 218.652589 -129.931005 
L 220.424018 -129.931005 
L 222.195446 -129.931005 
L 223.966875 -129.931005 
L 225.738304 -129.931005 
L 227.509732 -129.931005 
L 229.281161 -129.931005 
L 231.052589 -129.931005 
L 232.824018 -129.931005 
L 234.595446 -129.931005 
L 236.366875 -129.931005 
L 238.138304 -129.931005 
L 239.909732 -129.931005 
L 241.681161 -129.931005 
L 243.452589 -129.931005 
L 245.224018 -129.931005 
L 246.995446 -129.931005 
L 248.766875 -129.931005 
L 250.538304 -129.931005 
L 252.309732 -129.931005 
L 254.081161 -129.931005 
L 255.852589 -129.931005 
L 257.624018 -129.931005 
L 259.395446 -129.931005 
L 261.166875 -129.931005 
L 262.938304 -129.931005 
L 264.709732 -129.931005 
L 266.481161 -129.931005 
L 268.252589 -129.931005 
L 270.024018 -129.931005 
L 271.795446 -129.931005 
L 273.566875 -129.931005 
L 275.338304 -129.931005 
L 277.109732 -129.931005 
L 278.881161 -129.931005 
L 280.652589 -129.931005 
L 282.424018 -129.931005 
L 284.195446 -129.931005 
L 285.966875 -129.931005 
L 287.738304 -129.931005 
L 289.509732 -129.931005 
L 291.281161 -129.931005 
L 293.052589 -129.931005 
L 294.824018 -129.931005 
L 296.595446 -129.931005 
L 298.366875 -129.931005 
L 300.138304 -129.931005 
L 301.909732 -129.931005 
L 303.681161 -129.931005 
L 305.452589 -129.931005 
L 307.224018 -129.931005 
L 308.995446 -129.931005 
L 310.766875 -129.931005 
L 312.538304 -129.931005 
L 312.538304 -286.609266 
L 312.538304 -286.609266 
L 310.766875 -287.400571 
L 308.995446 -288.191875 
L 307.224018 -288.983179 
L 305.452589 -289.774484 
L 303.681161 -290.565788 
L 301.909732 -291.357092 
L 300.138304 -292.148397 
L 298.366875 -292.939701 
L 296.595446 -293.731005 
L 294.824018 -294.52231 
L 293.052589 -295.313614 
L 291.281161 -296.104918 
L 289.509732 -296.896223 
L 287.738304 -297.687527 
L 285.966875 -298.478832 
L 284.195446 -299.270136 
L 282.424018 -300.06144 
L 280.652589 -300.852745 
L 278.881161 -301.644049 
L 277.109732 -302.435353 
L 275.338304 -303.226658 
L 273.566875 -304.017962 
L 271.795446 -304.809266 
L 270.024018 -305.600571 
L 268.252589 -306.391875 
L 266.481161 -307.183179 
L 264.709732 -307.974484 
L 262.938304 -308.765788 
L 261.166875 -309.557092 
L 259.395446 -310.348397 
L 257.624018 -311.139701 
L 255.852589 -311.931005 
L 254.081161 -312.72231 
L 252.309732 -313.513614 
L 250.538304 -314.304918 
L 248.766875 -315.096223 
L 246.995446 -315.887527 
L 245.224018 -316.678832 
L 243.452589 -317.470136 
L 241.681161 -318.26144 
L 239.909732 -319.052745 
L 238.138304 -319.844049 
L 236.366875 -320.635353 
L 234.595446 -321.426658 
L 232.824018 -322.217962 
L 231.052589 -323.009266 
L 229.281161 -323.800571 
L 227.509732 -324.591875 
L 225.738304 -325.383179 
L 223.966875 -326.174484 
L 222.195446 -326.965788 
L 220.424018 -327.757092 
L 218.652589 -328.548397 
L 216.881161 -329.339701 
L 215.109732 -330.131005 
L 213.338304 -330.92231 
L 211.566875 -331.713614 
L 209.795446 -332.504918 
L 208.024018 -333.296223 
L 206.252589 -334.087527 
L 204.481161 -334.878832 
L 202.709732 -335.670136 
L 200.938304 -336.46144 
L 199.166875 -337.252745 
L 197.395446 -338.044049 
L 195.624018 -338.835353 
L 193.852589 -339.626658 
L 192.081161 -340.417962 
L 190.309732 -341.209266 
L 188.538304 -342.000571 
L 186.766875 -342.791875 
L 184.995446 -343.583179 
L 183.224018 -344.374484 
L 181.452589 -345.165788 
L 179.681161 -345.957092 
L 177.909732 -346.748397 
L 176.138304 -347.539701 
L 174.366875 -348.331005 
L 172.595446 -349.12231 
L 170.824018 -349.913614 
L 169.052589 -350.704918 
L 167.281161 -351.496223 
L 165.509732 -352.287527 
L 163.738304 -353.078832 
L 161.966875 -353.870136 
L 160.195446 -354.66144 
L 158.424018 -355.452745 
L 156.652589 -356.244049 
L 154.881161 -357.035353 
L 153.109732 -357.826658 
L 151.338304 -358.617962 
L 149.566875 -359.409266 
L 147.795446 -360.200571 
L 146.024018 -360.991875 
L 144.252589 -361.783179 
L 142.481161 -362.574484 
L 140.709732 -363.365788 
L 138.938304 -364.157092 
L 137.166875 -364.948397 
z
" style="stroke: #27ae60; stroke-opacity: 0.25"/>
    </defs>
    <g clip-path="url(#pe7e3b46942)">
     <use xlink:href="#ma6759dabce" x="0" y="446.962018" style="fill: #27ae60; fill-opacity: 0.25; stroke: #27ae60; stroke-opacity: 0.25"/>
    </g>
   </g>
   <g id="PolyCollection_2">
    <defs>
     <path id="m2ee27940d1" d="M 312.538304 -286.609266 
L 312.538304 -208.270136 
L 314.309732 -208.270136 
L 316.081161 -208.270136 
L 317.852589 -208.270136 
L 319.624018 -208.270136 
L 321.395446 -208.270136 
L 323.166875 -208.270136 
L 324.938304 -208.270136 
L 326.709732 -208.270136 
L 328.481161 -208.270136 
L 330.252589 -208.270136 
L 332.024018 -208.270136 
L 333.795446 -208.270136 
L 335.566875 -208.270136 
L 337.338304 -208.270136 
L 339.109732 -208.270136 
L 340.881161 -208.270136 
L 342.652589 -208.270136 
L 344.424018 -208.270136 
L 346.195446 -208.270136 
L 347.966875 -208.270136 
L 349.738304 -208.270136 
L 351.509732 -208.270136 
L 353.281161 -208.270136 
L 355.052589 -208.270136 
L 356.824018 -208.270136 
L 358.595446 -208.270136 
L 360.366875 -208.270136 
L 362.138304 -208.270136 
L 363.909732 -208.270136 
L 365.681161 -208.270136 
L 367.452589 -208.270136 
L 369.224018 -208.270136 
L 370.995446 -208.270136 
L 372.766875 -208.270136 
L 374.538304 -208.270136 
L 376.309732 -208.270136 
L 378.081161 -208.270136 
L 379.852589 -208.270136 
L 381.624018 -208.270136 
L 383.395446 -208.270136 
L 385.166875 -208.270136 
L 386.938304 -208.270136 
L 388.709732 -208.270136 
L 390.481161 -208.270136 
L 392.252589 -208.270136 
L 394.024018 -208.270136 
L 395.795446 -208.270136 
L 397.566875 -208.270136 
L 399.338304 -208.270136 
L 401.109732 -208.270136 
L 402.881161 -208.270136 
L 404.652589 -208.270136 
L 406.424018 -208.270136 
L 408.195446 -208.270136 
L 409.966875 -208.270136 
L 411.738304 -208.270136 
L 413.509732 -208.270136 
L 415.281161 -208.270136 
L 417.052589 -208.270136 
L 418.824018 -208.270136 
L 420.595446 -208.270136 
L 422.366875 -208.270136 
L 424.138304 -208.270136 
L 425.909732 -208.270136 
L 427.681161 -208.270136 
L 429.452589 -208.270136 
L 431.224018 -208.270136 
L 432.995446 -208.270136 
L 434.766875 -208.270136 
L 436.538304 -208.270136 
L 438.309732 -208.270136 
L 440.081161 -208.270136 
L 441.852589 -208.270136 
L 443.624018 -208.270136 
L 445.395446 -208.270136 
L 447.166875 -208.270136 
L 448.938304 -208.270136 
L 450.709732 -208.270136 
L 452.481161 -208.270136 
L 454.252589 -208.270136 
L 456.024018 -208.270136 
L 457.795446 -208.270136 
L 459.566875 -208.270136 
L 461.338304 -208.270136 
L 463.109732 -208.270136 
L 464.881161 -208.270136 
L 466.652589 -208.270136 
L 468.424018 -208.270136 
L 470.195446 -208.270136 
L 471.966875 -208.270136 
L 473.738304 -208.270136 
L 475.509732 -208.270136 
L 477.281161 -208.270136 
L 479.052589 -208.270136 
L 480.824018 -208.270136 
L 482.595446 -208.270136 
L 484.366875 -208.270136 
L 486.138304 -208.270136 
L 487.909732 -208.270136 
L 487.909732 -208.270136 
L 487.909732 -208.270136 
L 486.138304 -209.06144 
L 484.366875 -209.852745 
L 482.595446 -210.644049 
L 480.824018 -211.435353 
L 479.052589 -212.226658 
L 477.281161 -213.017962 
L 475.509732 -213.809266 
L 473.738304 -214.600571 
L 471.966875 -215.391875 
L 470.195446 -216.183179 
L 468.424018 -216.974484 
L 466.652589 -217.765788 
L 464.881161 -218.557092 
L 463.109732 -219.348397 
L 461.338304 -220.139701 
L 459.566875 -220.931005 
L 457.795446 -221.72231 
L 456.024018 -222.513614 
L 454.252589 -223.304918 
L 452.481161 -224.096223 
L 450.709732 -224.887527 
L 448.938304 -225.678832 
L 447.166875 -226.470136 
L 445.395446 -227.26144 
L 443.624018 -228.052745 
L 441.852589 -228.844049 
L 440.081161 -229.635353 
L 438.309732 -230.426658 
L 436.538304 -231.217962 
L 434.766875 -232.009266 
L 432.995446 -232.800571 
L 431.224018 -233.591875 
L 429.452589 -234.383179 
L 427.681161 -235.174484 
L 425.909732 -235.965788 
L 424.138304 -236.757092 
L 422.366875 -237.548397 
L 420.595446 -238.339701 
L 418.824018 -239.131005 
L 417.052589 -239.92231 
L 415.281161 -240.713614 
L 413.509732 -241.504918 
L 411.738304 -242.296223 
L 409.966875 -243.087527 
L 408.195446 -243.878832 
L 406.424018 -244.670136 
L 404.652589 -245.46144 
L 402.881161 -246.252745 
L 401.109732 -247.044049 
L 399.338304 -247.835353 
L 397.566875 -248.626658 
L 395.795446 -249.417962 
L 394.024018 -250.209266 
L 392.252589 -251.000571 
L 390.481161 -251.791875 
L 388.709732 -252.583179 
L 386.938304 -253.374484 
L 385.166875 -254.165788 
L 383.395446 -254.957092 
L 381.624018 -255.748397 
L 379.852589 -256.539701 
L 378.081161 -257.331005 
L 376.309732 -258.12231 
L 374.538304 -258.913614 
L 372.766875 -259.704918 
L 370.995446 -260.496223 
L 369.224018 -261.287527 
L 367.452589 -262.078832 
L 365.681161 -262.870136 
L 363.909732 -263.66144 
L 362.138304 -264.452745 
L 360.366875 -265.244049 
L 358.595446 -266.035353 
L 356.824018 -266.826658 
L 355.052589 -267.617962 
L 353.281161 -268.409266 
L 351.509732 -269.200571 
L 349.738304 -269.991875 
L 347.966875 -270.783179 
L 346.195446 -271.574484 
L 344.424018 -272.365788 
L 342.652589 -273.157092 
L 340.881161 -273.948397 
L 339.109732 -274.739701 
L 337.338304 -275.531005 
L 335.566875 -276.32231 
L 333.795446 -277.113614 
L 332.024018 -277.904918 
L 330.252589 -278.696223 
L 328.481161 -279.487527 
L 326.709732 -280.278832 
L 324.938304 -281.070136 
L 323.166875 -281.86144 
L 321.395446 -282.652745 
L 319.624018 -283.444049 
L 317.852589 -284.235353 
L 316.081161 -285.026658 
L 314.309732 -285.817962 
L 312.538304 -286.609266 
z
" style="stroke: #3498db; stroke-opacity: 0.3"/>
    </defs>
    <g clip-path="url(#pe7e3b46942)">
     <use xlink:href="#m2ee27940d1" x="0" y="446.962018" style="fill: #3498db; fill-opacity: 0.3; stroke: #3498db; stroke-opacity: 0.3"/>
    </g>
   </g>
   <g id="matplotlib.axis_1">
    <g id="xtick_1">
     <g id="line2d_1">
      <path d="M 137.166875 411.037969 
L 137.166875 50.677969 
" clip-path="url(#pe7e3b46942)" style="fill: none; stroke-dasharray: 0.8,1.32; stroke-dashoffset: 0; stroke: #b0b0b0; stroke-opacity: 0.4; stroke-width: 0.8"/>
     </g>
     <g id="line2d_2">
      <defs>
       <path id="m70c829894c" d="M 0 0 
L 0 -4 
" style="stroke: #000000"/>
      </defs>
      <g>
       <use xlink:href="#m70c829894c" x="137.166875" y="395.370143" style="stroke: #000000"/>
      </g>
     </g>
     <g id="text_1">
      <!-- 0 -->
      <g transform="translate(133.985625 406.46858) scale(0.1 -0.1)">
       <defs>
        <path id="DejaVuSans-30" d="M 2034 4250 
Q 1547 4250 1301 3770 
Q 1056 3291 1056 2328 
Q 1056 1369 1301 889 
Q 1547 409 2034 409 
Q 2525 409 2770 889 
Q 3016 1369 3016 2328 
Q 3016 3291 2770 3770 
Q 2525 4250 2034 4250 
z
M 2034 4750 
Q 2819 4750 3233 4129 
Q 3647 3509 3647 2328 
Q 3647 1150 3233 529 
Q 2819 -91 2034 -91 
Q 1250 -91 836 529 
Q 422 1150 422 2328 
Q 422 3509 836 4129 
Q 1250 4750 2034 4750 
z
" transform="scale(0.015625)"/>
       </defs>
       <use xlink:href="#DejaVuSans-30"/>
      </g>
     </g>
    </g>
    <g id="xtick_2">
     <g id="line2d_3">
      <path d="M 207.315446 411.037969 
L 207.315446 50.677969 
" clip-path="url(#pe7e3b46942)" style="fill: none; stroke-dasharray: 0.8,1.32; stroke-dashoffset: 0; stroke: #b0b0b0; stroke-opacity: 0.4; stroke-width: 0.8"/>
     </g>
     <g id="line2d_4">
      <g>
       <use xlink:href="#m70c829894c" x="207.315446" y="395.370143" style="stroke: #000000"/>
      </g>
     </g>
     <g id="text_2">
      <!-- 200 -->
      <g transform="translate(197.771696 406.46858) scale(0.1 -0.1)">
       <defs>
        <path id="DejaVuSans-32" d="M 1228 531 
L 3431 531 
L 3431 0 
L 469 0 
L 469 531 
Q 828 903 1448 1529 
Q 2069 2156 2228 2338 
Q 2531 2678 2651 2914 
Q 2772 3150 2772 3378 
Q 2772 3750 2511 3984 
Q 2250 4219 1831 4219 
Q 1534 4219 1204 4116 
Q 875 4013 500 3803 
L 500 4441 
Q 881 4594 1212 4672 
Q 1544 4750 1819 4750 
Q 2544 4750 2975 4387 
Q 3406 4025 3406 3419 
Q 3406 3131 3298 2873 
Q 3191 2616 2906 2266 
Q 2828 2175 2409 1742 
Q 1991 1309 1228 531 
z
" transform="scale(0.015625)"/>
       </defs>
       <use xlink:href="#DejaVuSans-32"/>
       <use xlink:href="#DejaVuSans-30" x="63.623047"/>
       <use xlink:href="#DejaVuSans-30" x="127.246094"/>
      </g>
     </g>
    </g>
    <g id="xtick_3">
     <g id="line2d_5">
      <path d="M 277.464018 411.037969 
L 277.464018 50.677969 
" clip-path="url(#pe7e3b46942)" style="fill: none; stroke-dasharray: 0.8,1.32; stroke-dashoffset: 0; stroke: #b0b0b0; stroke-opacity: 0.4; stroke-width: 0.8"/>
     </g>
     <g id="line2d_6">
      <g>
       <use xlink:href="#m70c829894c" x="277.464018" y="395.370143" style="stroke: #000000"/>
      </g>
     </g>
     <g id="text_3">
      <!-- 400 -->
      <g transform="translate(267.920268 406.46858) scale(0.1 -0.1)">
       <defs>
        <path id="DejaVuSans-34" d="M 2419 4116 
L 825 1625 
L 2419 1625 
L 2419 4116 
z
M 2253 4666 
L 3047 4666 
L 3047 1625 
L 3713 1625 
L 3713 1100 
L 3047 1100 
L 3047 0 
L 2419 0 
L 2419 1100 
L 313 1100 
L 313 1709 
L 2253 4666 
z
" transform="scale(0.015625)"/>
       </defs>
       <use xlink:href="#DejaVuSans-34"/>
       <use xlink:href="#DejaVuSans-30" x="63.623047"/>
       <use xlink:href="#DejaVuSans-30" x="127.246094"/>
      </g>
     </g>
    </g>
    <g id="xtick_4">
     <g id="line2d_7">
      <path d="M 347.612589 411.037969 
L 347.612589 50.677969 
" clip-path="url(#pe7e3b46942)" style="fill: none; stroke-dasharray: 0.8,1.32; stroke-dashoffset: 0; stroke: #b0b0b0; stroke-opacity: 0.4; stroke-width: 0.8"/>
     </g>
     <g id="line2d_8">
      <g>
       <use xlink:href="#m70c829894c" x="347.612589" y="395.370143" style="stroke: #000000"/>
      </g>
     </g>
     <g id="text_4">
      <!-- 600 -->
      <g transform="translate(338.068839 406.46858) scale(0.1 -0.1)">
       <defs>
        <path id="DejaVuSans-36" d="M 2113 2584 
Q 1688 2584 1439 2293 
Q 1191 2003 1191 1497 
Q 1191 994 1439 701 
Q 1688 409 2113 409 
Q 2538 409 2786 701 
Q 3034 994 3034 1497 
Q 3034 2003 2786 2293 
Q 2538 2584 2113 2584 
z
M 3366 4563 
L 3366 3988 
Q 3128 4100 2886 4159 
Q 2644 4219 2406 4219 
Q 1781 4219 1451 3797 
Q 1122 3375 1075 2522 
Q 1259 2794 1537 2939 
Q 1816 3084 2150 3084 
Q 2853 3084 3261 2657 
Q 3669 2231 3669 1497 
Q 3669 778 3244 343 
Q 2819 -91 2113 -91 
Q 1303 -91 875 529 
Q 447 1150 447 2328 
Q 447 3434 972 4092 
Q 1497 4750 2381 4750 
Q 2619 4750 2861 4703 
Q 3103 4656 3366 4563 
z
" transform="scale(0.015625)"/>
       </defs>
       <use xlink:href="#DejaVuSans-36"/>
       <use xlink:href="#DejaVuSans-30" x="63.623047"/>
       <use xlink:href="#DejaVuSans-30" x="127.246094"/>
      </g>
     </g>
    </g>
    <g id="xtick_5">
     <g id="line2d_9">
      <path d="M 417.761161 411.037969 
L 417.761161 50.677969 
" clip-path="url(#pe7e3b46942)" style="fill: none; stroke-dasharray: 0.8,1.32; stroke-dashoffset: 0; stroke: #b0b0b0; stroke-opacity: 0.4; stroke-width: 0.8"/>
     </g>
     <g id="line2d_10">
      <g>
       <use xlink:href="#m70c829894c" x="417.761161" y="395.370143" style="stroke: #000000"/>
      </g>
     </g>
     <g id="text_5">
      <!-- 800 -->
      <g transform="translate(408.217411 406.46858) scale(0.1 -0.1)">
       <defs>
        <path id="DejaVuSans-38" d="M 2034 2216 
Q 1584 2216 1326 1975 
Q 1069 1734 1069 1313 
Q 1069 891 1326 650 
Q 1584 409 2034 409 
Q 2484 409 2743 651 
Q 3003 894 3003 1313 
Q 3003 1734 2745 1975 
Q 2488 2216 2034 2216 
z
M 1403 2484 
Q 997 2584 770 2862 
Q 544 3141 544 3541 
Q 544 4100 942 4425 
Q 1341 4750 2034 4750 
Q 2731 4750 3128 4425 
Q 3525 4100 3525 3541 
Q 3525 3141 3298 2862 
Q 3072 2584 2669 2484 
Q 3125 2378 3379 2068 
Q 3634 1759 3634 1313 
Q 3634 634 3220 271 
Q 2806 -91 2034 -91 
Q 1263 -91 848 271 
Q 434 634 434 1313 
Q 434 1759 690 2068 
Q 947 2378 1403 2484 
z
M 1172 3481 
Q 1172 3119 1398 2916 
Q 1625 2713 2034 2713 
Q 2441 2713 2670 2916 
Q 2900 3119 2900 3481 
Q 2900 3844 2670 4047 
Q 2441 4250 2034 4250 
Q 1625 4250 1398 4047 
Q 1172 3844 1172 3481 
z
" transform="scale(0.015625)"/>
       </defs>
       <use xlink:href="#DejaVuSans-38"/>
       <use xlink:href="#DejaVuSans-30" x="63.623047"/>
       <use xlink:href="#DejaVuSans-30" x="127.246094"/>
      </g>
     </g>
    </g>
    <g id="xtick_6">
     <g id="line2d_11">
      <path d="M 487.909732 411.037969 
L 487.909732 50.677969 
" clip-path="url(#pe7e3b46942)" style="fill: none; stroke-dasharray: 0.8,1.32; stroke-dashoffset: 0; stroke: #b0b0b0; stroke-opacity: 0.4; stroke-width: 0.8"/>
     </g>
     <g id="line2d_12">
      <g>
       <use xlink:href="#m70c829894c" x="487.909732" y="395.370143" style="stroke: #000000"/>
      </g>
     </g>
     <g id="text_6">
      <!-- 1000 -->
      <g transform="translate(475.184732 406.46858) scale(0.1 -0.1)">
       <defs>
        <path id="DejaVuSans-31" d="M 794 531 
L 1825 531 
L 1825 4091 
L 703 3866 
L 703 4441 
L 1819 4666 
L 2450 4666 
L 2450 531 
L 3481 531 
L 3481 0 
L 794 0 
L 794 531 
z
" transform="scale(0.015625)"/>
       </defs>
       <use xlink:href="#DejaVuSans-31"/>
       <use xlink:href="#DejaVuSans-30" x="63.623047"/>
       <use xlink:href="#DejaVuSans-30" x="127.246094"/>
       <use xlink:href="#DejaVuSans-30" x="190.869141"/>
      </g>
     </g>
    </g>
    <g id="xtick_7">
     <g id="line2d_13">
      <path d="M 558.058304 411.037969 
L 558.058304 50.677969 
" clip-path="url(#pe7e3b46942)" style="fill: none; stroke-dasharray: 0.8,1.32; stroke-dashoffset: 0; stroke: #b0b0b0; stroke-opacity: 0.4; stroke-width: 0.8"/>
     </g>
     <g id="line2d_14">
      <g>
       <use xlink:href="#m70c829894c" x="558.058304" y="395.370143" style="stroke: #000000"/>
      </g>
     </g>
     <g id="text_7">
      <!-- 1200 -->
      <g transform="translate(545.333304 406.46858) scale(0.1 -0.1)">
       <use xlink:href="#DejaVuSans-31"/>
       <use xlink:href="#DejaVuSans-32" x="63.623047"/>
       <use xlink:href="#DejaVuSans-30" x="127.246094"/>
       <use xlink:href="#DejaVuSans-30" x="190.869141"/>
      </g>
     </g>
    </g>
    <g id="xtick_8">
     <g id="line2d_15">
      <path d="M 628.206875 411.037969 
L 628.206875 50.677969 
" clip-path="url(#pe7e3b46942)" style="fill: none; stroke-dasharray: 0.8,1.32; stroke-dashoffset: 0; stroke: #b0b0b0; stroke-opacity: 0.4; stroke-width: 0.8"/>
     </g>
     <g id="line2d_16">
      <g>
       <use xlink:href="#m70c829894c" x="628.206875" y="395.370143" style="stroke: #000000"/>
      </g>
     </g>
     <g id="text_8">
      <!-- 1400 -->
      <g transform="translate(615.481875 406.46858) scale(0.1 -0.1)">
       <use xlink:href="#DejaVuSans-31"/>
       <use xlink:href="#DejaVuSans-34" x="63.623047"/>
       <use xlink:href="#DejaVuSans-30" x="127.246094"/>
       <use xlink:href="#DejaVuSans-30" x="190.869141"/>
      </g>
     </g>
    </g>
    <g id="xtick_9">
     <g id="line2d_17">
      <path d="M 698.355446 411.037969 
L 698.355446 50.677969 
" clip-path="url(#pe7e3b46942)" style="fill: none; stroke-dasharray: 0.8,1.32; stroke-dashoffset: 0; stroke: #b0b0b0; stroke-opacity: 0.4; stroke-width: 0.8"/>
     </g>
     <g id="line2d_18">
      <g>
       <use xlink:href="#m70c829894c" x="698.355446" y="395.370143" style="stroke: #000000"/>
      </g>
     </g>
     <g id="text_9">
      <!-- 1600 -->
      <g transform="translate(685.630446 406.46858) scale(0.1 -0.1)">
       <use xlink:href="#DejaVuSans-31"/>
       <use xlink:href="#DejaVuSans-36" x="63.623047"/>
       <use xlink:href="#DejaVuSans-30" x="127.246094"/>
       <use xlink:href="#DejaVuSans-30" x="190.869141"/>
      </g>
     </g>
    </g>
    <g id="text_10">
     <!-- Q (kWh/mes) -->
     <g transform="translate(646.154107 415.666393) scale(0.12 -0.12)">
      <defs>
       <path id="DejaVuSans-Bold-51" d="M 2847 -84 
L 2753 -84 
Q 1600 -84 959 553 
Q 319 1191 319 2328 
Q 319 3463 958 4106 
Q 1597 4750 2719 4750 
Q 3853 4750 4486 4112 
Q 5119 3475 5119 2328 
Q 5119 1541 4783 972 
Q 4447 403 3816 116 
L 4756 -934 
L 3609 -934 
L 2847 -84 
z
M 2719 3878 
Q 2169 3878 1866 3472 
Q 1563 3066 1563 2328 
Q 1563 1578 1859 1179 
Q 2156 781 2719 781 
Q 3272 781 3575 1187 
Q 3878 1594 3878 2328 
Q 3878 3066 3575 3472 
Q 3272 3878 2719 3878 
z
" transform="scale(0.015625)"/>
       <path id="DejaVuSans-Bold-20" transform="scale(0.015625)"/>
       <path id="DejaVuSans-Bold-28" d="M 2413 -844 
L 1484 -844 
Q 1006 -72 778 623 
Q 550 1319 550 2003 
Q 550 2688 779 3389 
Q 1009 4091 1484 4856 
L 2413 4856 
Q 2013 4116 1813 3408 
Q 1613 2700 1613 2009 
Q 1613 1319 1811 609 
Q 2009 -100 2413 -844 
z
" transform="scale(0.015625)"/>
       <path id="DejaVuSans-Bold-6b" d="M 538 4863 
L 1656 4863 
L 1656 2216 
L 2944 3500 
L 4244 3500 
L 2534 1894 
L 4378 0 
L 3022 0 
L 1656 1459 
L 1656 0 
L 538 0 
L 538 4863 
z
" transform="scale(0.015625)"/>
       <path id="DejaVuSans-Bold-57" d="M 191 4666 
L 1344 4666 
L 2150 1275 
L 2950 4666 
L 4109 4666 
L 4909 1275 
L 5716 4666 
L 6859 4666 
L 5759 0 
L 4372 0 
L 3525 3547 
L 2688 0 
L 1300 0 
L 191 4666 
z
" transform="scale(0.015625)"/>
       <path id="DejaVuSans-Bold-68" d="M 4056 2131 
L 4056 0 
L 2931 0 
L 2931 347 
L 2931 1625 
Q 2931 2084 2911 2256 
Q 2891 2428 2841 2509 
Q 2775 2619 2662 2680 
Q 2550 2741 2406 2741 
Q 2056 2741 1856 2470 
Q 1656 2200 1656 1722 
L 1656 0 
L 538 0 
L 538 4863 
L 1656 4863 
L 1656 2988 
Q 1909 3294 2193 3439 
Q 2478 3584 2822 3584 
Q 3428 3584 3742 3212 
Q 4056 2841 4056 2131 
z
" transform="scale(0.015625)"/>
       <path id="DejaVuSans-Bold-2f" d="M 1644 4666 
L 2338 4666 
L 691 -594 
L 0 -594 
L 1644 4666 
z
" transform="scale(0.015625)"/>
       <path id="DejaVuSans-Bold-6d" d="M 3781 2919 
Q 3994 3244 4286 3414 
Q 4578 3584 4928 3584 
Q 5531 3584 5847 3212 
Q 6163 2841 6163 2131 
L 6163 0 
L 5038 0 
L 5038 1825 
Q 5041 1866 5042 1909 
Q 5044 1953 5044 2034 
Q 5044 2406 4934 2573 
Q 4825 2741 4581 2741 
Q 4263 2741 4089 2478 
Q 3916 2216 3909 1719 
L 3909 0 
L 2784 0 
L 2784 1825 
Q 2784 2406 2684 2573 
Q 2584 2741 2328 2741 
Q 2006 2741 1831 2477 
Q 1656 2213 1656 1722 
L 1656 0 
L 531 0 
L 531 3500 
L 1656 3500 
L 1656 2988 
Q 1863 3284 2130 3434 
Q 2397 3584 2719 3584 
Q 3081 3584 3359 3409 
Q 3638 3234 3781 2919 
z
" transform="scale(0.015625)"/>
       <path id="DejaVuSans-Bold-65" d="M 4031 1759 
L 4031 1441 
L 1416 1441 
Q 1456 1047 1700 850 
Q 1944 653 2381 653 
Q 2734 653 3104 758 
Q 3475 863 3866 1075 
L 3866 213 
Q 3469 63 3072 -14 
Q 2675 -91 2278 -91 
Q 1328 -91 801 392 
Q 275 875 275 1747 
Q 275 2603 792 3093 
Q 1309 3584 2216 3584 
Q 3041 3584 3536 3087 
Q 4031 2591 4031 1759 
z
M 2881 2131 
Q 2881 2450 2695 2645 
Q 2509 2841 2209 2841 
Q 1884 2841 1681 2658 
Q 1478 2475 1428 2131 
L 2881 2131 
z
" transform="scale(0.015625)"/>
       <path id="DejaVuSans-Bold-73" d="M 3272 3391 
L 3272 2541 
Q 2913 2691 2578 2766 
Q 2244 2841 1947 2841 
Q 1628 2841 1473 2761 
Q 1319 2681 1319 2516 
Q 1319 2381 1436 2309 
Q 1553 2238 1856 2203 
L 2053 2175 
Q 2913 2066 3209 1816 
Q 3506 1566 3506 1031 
Q 3506 472 3093 190 
Q 2681 -91 1863 -91 
Q 1516 -91 1145 -36 
Q 775 19 384 128 
L 384 978 
Q 719 816 1070 734 
Q 1422 653 1784 653 
Q 2113 653 2278 743 
Q 2444 834 2444 1013 
Q 2444 1163 2330 1236 
Q 2216 1309 1875 1350 
L 1678 1375 
Q 931 1469 631 1722 
Q 331 1975 331 2491 
Q 331 3047 712 3315 
Q 1094 3584 1881 3584 
Q 2191 3584 2531 3537 
Q 2872 3491 3272 3391 
z
" transform="scale(0.015625)"/>
       <path id="DejaVuSans-Bold-29" d="M 513 -844 
Q 913 -100 1113 609 
Q 1313 1319 1313 2009 
Q 1313 2700 1113 3408 
Q 913 4116 513 4856 
L 1441 4856 
Q 1916 4091 2145 3389 
Q 2375 2688 2375 2003 
Q 2375 1319 2147 623 
Q 1919 -72 1441 -844 
L 513 -844 
z
" transform="scale(0.015625)"/>
      </defs>
      <use xlink:href="#DejaVuSans-Bold-51"/>
      <use xlink:href="#DejaVuSans-Bold-20" x="85.009766"/>
      <use xlink:href="#DejaVuSans-Bold-28" x="119.824219"/>
      <use xlink:href="#DejaVuSans-Bold-6b" x="165.527344"/>
      <use xlink:href="#DejaVuSans-Bold-57" x="232.03125"/>
      <use xlink:href="#DejaVuSans-Bold-68" x="342.333984"/>
      <use xlink:href="#DejaVuSans-Bold-2f" x="413.525391"/>
      <use xlink:href="#DejaVuSans-Bold-6d" x="450.048828"/>
      <use xlink:href="#DejaVuSans-Bold-65" x="554.248047"/>
      <use xlink:href="#DejaVuSans-Bold-73" x="622.070312"/>
      <use xlink:href="#DejaVuSans-Bold-29" x="681.591797"/>
     </g>
    </g>
   </g>
   <g id="matplotlib.axis_2">
    <g id="ytick_1">
     <g id="line2d_19">
      <path d="M 119.629732 395.370143 
L 733.429732 395.370143 
" clip-path="url(#pe7e3b46942)" style="fill: none; stroke-dasharray: 0.8,1.32; stroke-dashoffset: 0; stroke: #b0b0b0; stroke-opacity: 0.4; stroke-width: 0.8"/>
     </g>
     <g id="line2d_20">
      <defs>
       <path id="m6978337f27" d="M 0 0 
L 4 0 
" style="stroke: #000000"/>
      </defs>
      <g>
       <use xlink:href="#m6978337f27" x="137.166875" y="395.370143" style="stroke: #000000"/>
      </g>
     </g>
     <g id="text_11">
      <!-- 0 -->
      <g transform="translate(127.304375 399.169361) scale(0.1 -0.1)">
       <use xlink:href="#DejaVuSans-30"/>
      </g>
     </g>
    </g>
    <g id="ytick_2">
     <g id="line2d_21">
      <path d="M 119.629732 317.031012 
L 733.429732 317.031012 
" clip-path="url(#pe7e3b46942)" style="fill: none; stroke-dasharray: 0.8,1.32; stroke-dashoffset: 0; stroke: #b0b0b0; stroke-opacity: 0.4; stroke-width: 0.8"/>
     </g>
     <g id="line2d_22">
      <g>
       <use xlink:href="#m6978337f27" x="137.166875" y="317.031012" style="stroke: #000000"/>
      </g>
     </g>
     <g id="text_12">
      <!-- 5 -->
      <g transform="translate(127.304375 320.830231) scale(0.1 -0.1)">
       <defs>
        <path id="DejaVuSans-35" d="M 691 4666 
L 3169 4666 
L 3169 4134 
L 1269 4134 
L 1269 2991 
Q 1406 3038 1543 3061 
Q 1681 3084 1819 3084 
Q 2600 3084 3056 2656 
Q 3513 2228 3513 1497 
Q 3513 744 3044 326 
Q 2575 -91 1722 -91 
Q 1428 -91 1123 -41 
Q 819 9 494 109 
L 494 744 
Q 775 591 1075 516 
Q 1375 441 1709 441 
Q 2250 441 2565 725 
Q 2881 1009 2881 1497 
Q 2881 1984 2565 2268 
Q 2250 2553 1709 2553 
Q 1456 2553 1204 2497 
Q 953 2441 691 2322 
L 691 4666 
z
" transform="scale(0.015625)"/>
       </defs>
       <use xlink:href="#DejaVuSans-35"/>
      </g>
     </g>
    </g>
    <g id="ytick_3">
     <g id="line2d_23">
      <path d="M 119.629732 238.691882 
L 733.429732 238.691882 
" clip-path="url(#pe7e3b46942)" style="fill: none; stroke-dasharray: 0.8,1.32; stroke-dashoffset: 0; stroke: #b0b0b0; stroke-opacity: 0.4; stroke-width: 0.8"/>
     </g>
     <g id="line2d_24">
      <g>
       <use xlink:href="#m6978337f27" x="137.166875" y="238.691882" style="stroke: #000000"/>
      </g>
     </g>
     <g id="text_13">
      <!-- 10 -->
      <g transform="translate(120.941875 242.491101) scale(0.1 -0.1)">
       <use xlink:href="#DejaVuSans-31"/>
       <use xlink:href="#DejaVuSans-30" x="63.623047"/>
      </g>
     </g>
    </g>
    <g id="ytick_4">
     <g id="line2d_25">
      <path d="M 119.629732 160.352751 
L 733.429732 160.352751 
" clip-path="url(#pe7e3b46942)" style="fill: none; stroke-dasharray: 0.8,1.32; stroke-dashoffset: 0; stroke: #b0b0b0; stroke-opacity: 0.4; stroke-width: 0.8"/>
     </g>
     <g id="line2d_26">
      <g>
       <use xlink:href="#m6978337f27" x="137.166875" y="160.352751" style="stroke: #000000"/>
      </g>
     </g>
     <g id="text_14">
      <!-- 15 -->
      <g transform="translate(120.941875 164.15197) scale(0.1 -0.1)">
       <use xlink:href="#DejaVuSans-31"/>
       <use xlink:href="#DejaVuSans-35" x="63.623047"/>
      </g>
     </g>
    </g>
    <g id="ytick_5">
     <g id="line2d_27">
      <path d="M 119.629732 82.013621 
L 733.429732 82.013621 
" clip-path="url(#pe7e3b46942)" style="fill: none; stroke-dasharray: 0.8,1.32; stroke-dashoffset: 0; stroke: #b0b0b0; stroke-opacity: 0.4; stroke-width: 0.8"/>
     </g>
     <g id="line2d_28">
      <g>
       <use xlink:href="#m6978337f27" x="137.166875" y="82.013621" style="stroke: #000000"/>
      </g>
     </g>
     <g id="text_15">
      <!-- 20 -->
      <g transform="translate(120.941875 85.81284) scale(0.1 -0.1)">
       <use xlink:href="#DejaVuSans-32"/>
       <use xlink:href="#DejaVuSans-30" x="63.623047"/>
      </g>
     </g>
    </g>
    <g id="text_16">
     <!-- P (ctvos/kWh) -->
     <g transform="translate(28.8 48.182344) scale(0.12 -0.12)">
      <defs>
       <path id="DejaVuSans-Bold-50" d="M 588 4666 
L 2584 4666 
Q 3475 4666 3951 4270 
Q 4428 3875 4428 3144 
Q 4428 2409 3951 2014 
Q 3475 1619 2584 1619 
L 1791 1619 
L 1791 0 
L 588 0 
L 588 4666 
z
M 1791 3794 
L 1791 2491 
L 2456 2491 
Q 2806 2491 2997 2661 
Q 3188 2831 3188 3144 
Q 3188 3456 2997 3625 
Q 2806 3794 2456 3794 
L 1791 3794 
z
" transform="scale(0.015625)"/>
       <path id="DejaVuSans-Bold-63" d="M 3366 3391 
L 3366 2478 
Q 3138 2634 2908 2709 
Q 2678 2784 2431 2784 
Q 1963 2784 1702 2511 
Q 1441 2238 1441 1747 
Q 1441 1256 1702 982 
Q 1963 709 2431 709 
Q 2694 709 2930 787 
Q 3166 866 3366 1019 
L 3366 103 
Q 3103 6 2833 -42 
Q 2563 -91 2291 -91 
Q 1344 -91 809 395 
Q 275 881 275 1747 
Q 275 2613 809 3098 
Q 1344 3584 2291 3584 
Q 2566 3584 2833 3536 
Q 3100 3488 3366 3391 
z
" transform="scale(0.015625)"/>
       <path id="DejaVuSans-Bold-74" d="M 1759 4494 
L 1759 3500 
L 2913 3500 
L 2913 2700 
L 1759 2700 
L 1759 1216 
Q 1759 972 1856 886 
Q 1953 800 2241 800 
L 2816 800 
L 2816 0 
L 1856 0 
Q 1194 0 917 276 
Q 641 553 641 1216 
L 641 2700 
L 84 2700 
L 84 3500 
L 641 3500 
L 641 4494 
L 1759 4494 
z
" transform="scale(0.015625)"/>
       <path id="DejaVuSans-Bold-76" d="M 97 3500 
L 1216 3500 
L 2088 1081 
L 2956 3500 
L 4078 3500 
L 2700 0 
L 1472 0 
L 97 3500 
z
" transform="scale(0.015625)"/>
       <path id="DejaVuSans-Bold-6f" d="M 2203 2784 
Q 1831 2784 1636 2517 
Q 1441 2250 1441 1747 
Q 1441 1244 1636 976 
Q 1831 709 2203 709 
Q 2569 709 2762 976 
Q 2956 1244 2956 1747 
Q 2956 2250 2762 2517 
Q 2569 2784 2203 2784 
z
M 2203 3584 
Q 3106 3584 3614 3096 
Q 4122 2609 4122 1747 
Q 4122 884 3614 396 
Q 3106 -91 2203 -91 
Q 1297 -91 786 396 
Q 275 884 275 1747 
Q 275 2609 786 3096 
Q 1297 3584 2203 3584 
z
" transform="scale(0.015625)"/>
      </defs>
      <use xlink:href="#DejaVuSans-Bold-50"/>
      <use xlink:href="#DejaVuSans-Bold-20" x="73.291016"/>
      <use xlink:href="#DejaVuSans-Bold-28" x="108.105469"/>
      <use xlink:href="#DejaVuSans-Bold-63" x="153.808594"/>
      <use xlink:href="#DejaVuSans-Bold-74" x="213.085938"/>
      <use xlink:href="#DejaVuSans-Bold-76" x="260.888672"/>
      <use xlink:href="#DejaVuSans-Bold-6f" x="326.074219"/>
      <use xlink:href="#DejaVuSans-Bold-73" x="394.775391"/>
      <use xlink:href="#DejaVuSans-Bold-2f" x="454.296875"/>
      <use xlink:href="#DejaVuSans-Bold-6b" x="490.820312"/>
      <use xlink:href="#DejaVuSans-Bold-57" x="557.324219"/>
      <use xlink:href="#DejaVuSans-Bold-68" x="667.626953"/>
      <use xlink:href="#DejaVuSans-Bold-29" x="738.818359"/>
     </g>
    </g>
   </g>
   <g id="line2d_29">
    <path d="M 137.166875 82.013621 
L 663.281161 317.031012 
L 663.281161 317.031012 
" clip-path="url(#pe7e3b46942)" style="fill: none; stroke: #c0392b; stroke-width: 3; stroke-linecap: square"/>
   </g>
   <g id="line2d_30">
    <path d="M 137.166875 317.031012 
L 312.538304 317.031012 
" clip-path="url(#pe7e3b46942)" style="fill: none; stroke: #2980b9; stroke-width: 3; stroke-linecap: square"/>
   </g>
   <g id="line2d_31">
    <path d="M 312.538304 317.031012 
L 312.538304 238.691882 
" clip-path="url(#pe7e3b46942)" style="fill: none; stroke: #2980b9; stroke-width: 3; stroke-linecap: square"/>
   </g>
   <g id="line2d_32">
    <path d="M 312.538304 238.691882 
L 487.909732 238.691882 
" clip-path="url(#pe7e3b46942)" style="fill: none; stroke: #2980b9; stroke-width: 3; stroke-linecap: square"/>
   </g>
   <g id="line2d_33">
    <path d="M 487.909732 238.691882 
L 487.909732 395.370143 
" clip-path="url(#pe7e3b46942)" style="fill: none; stroke-dasharray: 2,3.3; stroke-dashoffset: 0; stroke: #2980b9; stroke-width: 2"/>
   </g>
   <g id="line2d_34">
    <defs>
     <path id="md3b4f8e867" d="M 4 0 
L -4 -4 
L -4 4 
z
" style="stroke: #000000; stroke-linejoin: miter"/>
    </defs>
    <g>
     <use xlink:href="#md3b4f8e867" x="733.429732" y="395.370143" style="stroke: #000000; stroke-linejoin: miter"/>
    </g>
   </g>
   <g id="line2d_35">
    <defs>
     <path id="m73e461a98a" d="M 0 -4 
L -4 4 
L 4 4 
z
" style="stroke: #000000; stroke-linejoin: miter"/>
    </defs>
    <g>
     <use xlink:href="#m73e461a98a" x="137.166875" y="50.677969" style="stroke: #000000; stroke-linejoin: miter"/>
    </g>
   </g>
   <g id="patch_3">
    <path d="M 137.166875 411.037969 
L 137.166875 50.677969 
" style="fill: none; stroke: #000000; stroke-width: 1.4; stroke-linejoin: miter; stroke-linecap: square"/>
   </g>
   <g id="patch_4">
    <path d="M 119.629732 395.370143 
L 733.429732 395.370143 
" style="fill: none; stroke: #000000; stroke-width: 1.4; stroke-linejoin: miter; stroke-linecap: square"/>
   </g>
   <g id="text_17">
    <!-- Ej 3c — EC con tarifa escalonada por bloques -->
    <g transform="translate(262.093951 38.677969) scale(0.13 -0.13)">
     <defs>
      <path id="DejaVuSans-Bold-45" d="M 588 4666 
L 3834 4666 
L 3834 3756 
L 1791 3756 
L 1791 2888 
L 3713 2888 
L 3713 1978 
L 1791 1978 
L 1791 909 
L 3903 909 
L 3903 0 
L 588 0 
L 588 4666 
z
" transform="scale(0.015625)"/>
      <path id="DejaVuSans-Bold-6a" d="M 538 3500 
L 1656 3500 
L 1656 63 
Q 1656 -641 1318 -1011 
Q 981 -1381 341 -1381 
L -213 -1381 
L -213 -647 
L -19 -647 
Q 300 -647 419 -503 
Q 538 -359 538 63 
L 538 3500 
z
M 538 4863 
L 1656 4863 
L 1656 3950 
L 538 3950 
L 538 4863 
z
" transform="scale(0.015625)"/>
      <path id="DejaVuSans-Bold-33" d="M 2981 2516 
Q 3453 2394 3698 2092 
Q 3944 1791 3944 1325 
Q 3944 631 3412 270 
Q 2881 -91 1863 -91 
Q 1503 -91 1142 -33 
Q 781 25 428 141 
L 428 1069 
Q 766 900 1098 814 
Q 1431 728 1753 728 
Q 2231 728 2486 893 
Q 2741 1059 2741 1369 
Q 2741 1688 2480 1852 
Q 2219 2016 1709 2016 
L 1228 2016 
L 1228 2791 
L 1734 2791 
Q 2188 2791 2409 2933 
Q 2631 3075 2631 3366 
Q 2631 3634 2415 3781 
Q 2200 3928 1806 3928 
Q 1516 3928 1219 3862 
Q 922 3797 628 3669 
L 628 4550 
Q 984 4650 1334 4700 
Q 1684 4750 2022 4750 
Q 2931 4750 3382 4451 
Q 3834 4153 3834 3553 
Q 3834 3144 3618 2883 
Q 3403 2622 2981 2516 
z
" transform="scale(0.015625)"/>
      <path id="DejaVuSans-Bold-2014" d="M 344 2156 
L 6056 2156 
L 6056 1350 
L 344 1350 
L 344 2156 
z
" transform="scale(0.015625)"/>
      <path id="DejaVuSans-Bold-43" d="M 4288 256 
Q 3956 84 3597 -3 
Q 3238 -91 2847 -91 
Q 1681 -91 1000 561 
Q 319 1213 319 2328 
Q 319 3447 1000 4098 
Q 1681 4750 2847 4750 
Q 3238 4750 3597 4662 
Q 3956 4575 4288 4403 
L 4288 3438 
Q 3953 3666 3628 3772 
Q 3303 3878 2944 3878 
Q 2300 3878 1931 3465 
Q 1563 3053 1563 2328 
Q 1563 1606 1931 1193 
Q 2300 781 2944 781 
Q 3303 781 3628 887 
Q 3953 994 4288 1222 
L 4288 256 
z
" transform="scale(0.015625)"/>
      <path id="DejaVuSans-Bold-6e" d="M 4056 2131 
L 4056 0 
L 2931 0 
L 2931 347 
L 2931 1631 
Q 2931 2084 2911 2256 
Q 2891 2428 2841 2509 
Q 2775 2619 2662 2680 
Q 2550 2741 2406 2741 
Q 2056 2741 1856 2470 
Q 1656 2200 1656 1722 
L 1656 0 
L 538 0 
L 538 3500 
L 1656 3500 
L 1656 2988 
Q 1909 3294 2193 3439 
Q 2478 3584 2822 3584 
Q 3428 3584 3742 3212 
Q 4056 2841 4056 2131 
z
" transform="scale(0.015625)"/>
      <path id="DejaVuSans-Bold-61" d="M 2106 1575 
Q 1756 1575 1579 1456 
Q 1403 1338 1403 1106 
Q 1403 894 1545 773 
Q 1688 653 1941 653 
Q 2256 653 2472 879 
Q 2688 1106 2688 1447 
L 2688 1575 
L 2106 1575 
z
M 3816 1997 
L 3816 0 
L 2688 0 
L 2688 519 
Q 2463 200 2181 54 
Q 1900 -91 1497 -91 
Q 953 -91 614 226 
Q 275 544 275 1050 
Q 275 1666 698 1953 
Q 1122 2241 2028 2241 
L 2688 2241 
L 2688 2328 
Q 2688 2594 2478 2717 
Q 2269 2841 1825 2841 
Q 1466 2841 1156 2769 
Q 847 2697 581 2553 
L 581 3406 
Q 941 3494 1303 3539 
Q 1666 3584 2028 3584 
Q 2975 3584 3395 3211 
Q 3816 2838 3816 1997 
z
" transform="scale(0.015625)"/>
      <path id="DejaVuSans-Bold-72" d="M 3138 2547 
Q 2991 2616 2845 2648 
Q 2700 2681 2553 2681 
Q 2122 2681 1889 2404 
Q 1656 2128 1656 1613 
L 1656 0 
L 538 0 
L 538 3500 
L 1656 3500 
L 1656 2925 
Q 1872 3269 2151 3426 
Q 2431 3584 2822 3584 
Q 2878 3584 2943 3579 
Q 3009 3575 3134 3559 
L 3138 2547 
z
" transform="scale(0.015625)"/>
      <path id="DejaVuSans-Bold-69" d="M 538 3500 
L 1656 3500 
L 1656 0 
L 538 0 
L 538 3500 
z
M 538 4863 
L 1656 4863 
L 1656 3950 
L 538 3950 
L 538 4863 
z
" transform="scale(0.015625)"/>
      <path id="DejaVuSans-Bold-66" d="M 2841 4863 
L 2841 4128 
L 2222 4128 
Q 1984 4128 1890 4042 
Q 1797 3956 1797 3744 
L 1797 3500 
L 2753 3500 
L 2753 2700 
L 1797 2700 
L 1797 0 
L 678 0 
L 678 2700 
L 122 2700 
L 122 3500 
L 678 3500 
L 678 3744 
Q 678 4316 997 4589 
Q 1316 4863 1984 4863 
L 2841 4863 
z
" transform="scale(0.015625)"/>
      <path id="DejaVuSans-Bold-6c" d="M 538 4863 
L 1656 4863 
L 1656 0 
L 538 0 
L 538 4863 
z
" transform="scale(0.015625)"/>
      <path id="DejaVuSans-Bold-64" d="M 2919 2988 
L 2919 4863 
L 4044 4863 
L 4044 0 
L 2919 0 
L 2919 506 
Q 2688 197 2409 53 
Q 2131 -91 1766 -91 
Q 1119 -91 703 423 
Q 288 938 288 1747 
Q 288 2556 703 3070 
Q 1119 3584 1766 3584 
Q 2128 3584 2408 3439 
Q 2688 3294 2919 2988 
z
M 2181 722 
Q 2541 722 2730 984 
Q 2919 1247 2919 1747 
Q 2919 2247 2730 2509 
Q 2541 2772 2181 2772 
Q 1825 2772 1636 2509 
Q 1447 2247 1447 1747 
Q 1447 1247 1636 984 
Q 1825 722 2181 722 
z
" transform="scale(0.015625)"/>
      <path id="DejaVuSans-Bold-70" d="M 1656 506 
L 1656 -1331 
L 538 -1331 
L 538 3500 
L 1656 3500 
L 1656 2988 
Q 1888 3294 2169 3439 
Q 2450 3584 2816 3584 
Q 3463 3584 3878 3070 
Q 4294 2556 4294 1747 
Q 4294 938 3878 423 
Q 3463 -91 2816 -91 
Q 2450 -91 2169 54 
Q 1888 200 1656 506 
z
M 2400 2772 
Q 2041 2772 1848 2508 
Q 1656 2244 1656 1747 
Q 1656 1250 1848 986 
Q 2041 722 2400 722 
Q 2759 722 2948 984 
Q 3138 1247 3138 1747 
Q 3138 2247 2948 2509 
Q 2759 2772 2400 2772 
z
" transform="scale(0.015625)"/>
      <path id="DejaVuSans-Bold-62" d="M 2400 722 
Q 2759 722 2948 984 
Q 3138 1247 3138 1747 
Q 3138 2247 2948 2509 
Q 2759 2772 2400 2772 
Q 2041 2772 1848 2508 
Q 1656 2244 1656 1747 
Q 1656 1250 1848 986 
Q 2041 722 2400 722 
z
M 1656 2988 
Q 1888 3294 2169 3439 
Q 2450 3584 2816 3584 
Q 3463 3584 3878 3070 
Q 4294 2556 4294 1747 
Q 4294 938 3878 423 
Q 3463 -91 2816 -91 
Q 2450 -91 2169 54 
Q 1888 200 1656 506 
L 1656 0 
L 538 0 
L 538 4863 
L 1656 4863 
L 1656 2988 
z
" transform="scale(0.015625)"/>
      <path id="DejaVuSans-Bold-71" d="M 2181 2772 
Q 1825 2772 1636 2509 
Q 1447 2247 1447 1747 
Q 1447 1247 1636 984 
Q 1825 722 2181 722 
Q 2541 722 2730 984 
Q 2919 1247 2919 1747 
Q 2919 2247 2730 2509 
Q 2541 2772 2181 2772 
z
M 2919 506 
Q 2688 197 2409 53 
Q 2131 -91 1766 -91 
Q 1119 -91 703 423 
Q 288 938 288 1747 
Q 288 2556 703 3067 
Q 1119 3578 1766 3578 
Q 2131 3578 2409 3434 
Q 2688 3291 2919 2981 
L 2919 3500 
L 4044 3500 
L 4044 -1331 
L 2919 -1331 
L 2919 506 
z
" transform="scale(0.015625)"/>
      <path id="DejaVuSans-Bold-75" d="M 500 1363 
L 500 3500 
L 1625 3500 
L 1625 3150 
Q 1625 2866 1622 2436 
Q 1619 2006 1619 1863 
Q 1619 1441 1641 1255 
Q 1663 1069 1716 984 
Q 1784 875 1895 815 
Q 2006 756 2150 756 
Q 2500 756 2700 1025 
Q 2900 1294 2900 1772 
L 2900 3500 
L 4019 3500 
L 4019 0 
L 2900 0 
L 2900 506 
Q 2647 200 2364 54 
Q 2081 -91 1741 -91 
Q 1134 -91 817 281 
Q 500 653 500 1363 
z
" transform="scale(0.015625)"/>
     </defs>
     <use xlink:href="#DejaVuSans-Bold-45"/>
     <use xlink:href="#DejaVuSans-Bold-6a" x="68.310547"/>
     <use xlink:href="#DejaVuSans-Bold-20" x="102.587891"/>
     <use xlink:href="#DejaVuSans-Bold-33" x="137.402344"/>
     <use xlink:href="#DejaVuSans-Bold-63" x="206.982422"/>
     <use xlink:href="#DejaVuSans-Bold-20" x="266.259766"/>
     <use xlink:href="#DejaVuSans-Bold-2014" x="301.074219"/>
     <use xlink:href="#DejaVuSans-Bold-20" x="401.074219"/>
     <use xlink:href="#DejaVuSans-Bold-45" x="435.888672"/>
     <use xlink:href="#DejaVuSans-Bold-43" x="504.199219"/>
     <use xlink:href="#DejaVuSans-Bold-20" x="577.587891"/>
     <use xlink:href="#DejaVuSans-Bold-63" x="612.402344"/>
     <use xlink:href="#DejaVuSans-Bold-6f" x="671.679688"/>
     <use xlink:href="#DejaVuSans-Bold-6e" x="740.380859"/>
     <use xlink:href="#DejaVuSans-Bold-20" x="811.572266"/>
     <use xlink:href="#DejaVuSans-Bold-74" x="846.386719"/>
     <use xlink:href="#DejaVuSans-Bold-61" x="894.189453"/>
     <use xlink:href="#DejaVuSans-Bold-72" x="961.669922"/>
     <use xlink:href="#DejaVuSans-Bold-69" x="1010.986328"/>
     <use xlink:href="#DejaVuSans-Bold-66" x="1045.263672"/>
     <use xlink:href="#DejaVuSans-Bold-61" x="1088.769531"/>
     <use xlink:href="#DejaVuSans-Bold-20" x="1156.25"/>
     <use xlink:href="#DejaVuSans-Bold-65" x="1191.064453"/>
     <use xlink:href="#DejaVuSans-Bold-73" x="1258.886719"/>
     <use xlink:href="#DejaVuSans-Bold-63" x="1318.408203"/>
     <use xlink:href="#DejaVuSans-Bold-61" x="1377.685547"/>
     <use xlink:href="#DejaVuSans-Bold-6c" x="1445.166016"/>
     <use xlink:href="#DejaVuSans-Bold-6f" x="1479.443359"/>
     <use xlink:href="#DejaVuSans-Bold-6e" x="1548.144531"/>
     <use xlink:href="#DejaVuSans-Bold-61" x="1619.335938"/>
     <use xlink:href="#DejaVuSans-Bold-64" x="1686.816406"/>
     <use xlink:href="#DejaVuSans-Bold-61" x="1758.398438"/>
     <use xlink:href="#DejaVuSans-Bold-20" x="1825.878906"/>
     <use xlink:href="#DejaVuSans-Bold-70" x="1860.693359"/>
     <use xlink:href="#DejaVuSans-Bold-6f" x="1932.275391"/>
     <use xlink:href="#DejaVuSans-Bold-72" x="2000.976562"/>
     <use xlink:href="#DejaVuSans-Bold-20" x="2050.292969"/>
     <use xlink:href="#DejaVuSans-Bold-62" x="2085.107422"/>
     <use xlink:href="#DejaVuSans-Bold-6c" x="2156.689453"/>
     <use xlink:href="#DejaVuSans-Bold-6f" x="2190.966797"/>
     <use xlink:href="#DejaVuSans-Bold-71" x="2259.667969"/>
     <use xlink:href="#DejaVuSans-Bold-75" x="2331.25"/>
     <use xlink:href="#DejaVuSans-Bold-65" x="2402.441406"/>
     <use xlink:href="#DejaVuSans-Bold-73" x="2470.263672"/>
    </g>
   </g>
   <g id="legend_1">
    <g id="patch_5">
     <path d="M 747.705732 83.034219 
L 930.032295 83.034219 
Q 932.032295 83.034219 932.032295 81.034219 
L 932.032295 52.677969 
Q 932.032295 50.677969 930.032295 50.677969 
L 747.705732 50.677969 
Q 745.705732 50.677969 745.705732 52.677969 
L 745.705732 81.034219 
Q 745.705732 83.034219 747.705732 83.034219 
z
" style="fill: #ffffff; opacity: 0.8; stroke: #cccccc; stroke-linejoin: miter"/>
    </g>
    <g id="line2d_36">
     <path d="M 749.705732 58.776406 
L 759.705732 58.776406 
L 769.705732 58.776406 
" style="fill: none; stroke: #c0392b; stroke-width: 3; stroke-linecap: square"/>
    </g>
    <g id="text_18">
     <!-- D: P = 20 − Q/100 -->
     <g transform="translate(777.705732 62.276406) scale(0.1 -0.1)">
      <defs>
       <path id="DejaVuSans-44" d="M 1259 4147 
L 1259 519 
L 2022 519 
Q 2988 519 3436 956 
Q 3884 1394 3884 2338 
Q 3884 3275 3436 3711 
Q 2988 4147 2022 4147 
L 1259 4147 
z
M 628 4666 
L 1925 4666 
Q 3281 4666 3915 4102 
Q 4550 3538 4550 2338 
Q 4550 1131 3912 565 
Q 3275 0 1925 0 
L 628 0 
L 628 4666 
z
" transform="scale(0.015625)"/>
       <path id="DejaVuSans-3a" d="M 750 794 
L 1409 794 
L 1409 0 
L 750 0 
L 750 794 
z
M 750 3309 
L 1409 3309 
L 1409 2516 
L 750 2516 
L 750 3309 
z
" transform="scale(0.015625)"/>
       <path id="DejaVuSans-20" transform="scale(0.015625)"/>
       <path id="DejaVuSans-50" d="M 1259 4147 
L 1259 2394 
L 2053 2394 
Q 2494 2394 2734 2622 
Q 2975 2850 2975 3272 
Q 2975 3691 2734 3919 
Q 2494 4147 2053 4147 
L 1259 4147 
z
M 628 4666 
L 2053 4666 
Q 2838 4666 3239 4311 
Q 3641 3956 3641 3272 
Q 3641 2581 3239 2228 
Q 2838 1875 2053 1875 
L 1259 1875 
L 1259 0 
L 628 0 
L 628 4666 
z
" transform="scale(0.015625)"/>
       <path id="DejaVuSans-3d" d="M 678 2906 
L 4684 2906 
L 4684 2381 
L 678 2381 
L 678 2906 
z
M 678 1631 
L 4684 1631 
L 4684 1100 
L 678 1100 
L 678 1631 
z
" transform="scale(0.015625)"/>
       <path id="DejaVuSans-2212" d="M 678 2272 
L 4684 2272 
L 4684 1741 
L 678 1741 
L 678 2272 
z
" transform="scale(0.015625)"/>
       <path id="DejaVuSans-51" d="M 2522 4238 
Q 1834 4238 1429 3725 
Q 1025 3213 1025 2328 
Q 1025 1447 1429 934 
Q 1834 422 2522 422 
Q 3209 422 3611 934 
Q 4013 1447 4013 2328 
Q 4013 3213 3611 3725 
Q 3209 4238 2522 4238 
z
M 3406 84 
L 4238 -825 
L 3475 -825 
L 2784 -78 
Q 2681 -84 2626 -87 
Q 2572 -91 2522 -91 
Q 1538 -91 948 567 
Q 359 1225 359 2328 
Q 359 3434 948 4092 
Q 1538 4750 2522 4750 
Q 3503 4750 4090 4092 
Q 4678 3434 4678 2328 
Q 4678 1516 4351 937 
Q 4025 359 3406 84 
z
" transform="scale(0.015625)"/>
       <path id="DejaVuSans-2f" d="M 1625 4666 
L 2156 4666 
L 531 -594 
L 0 -594 
L 1625 4666 
z
" transform="scale(0.015625)"/>
      </defs>
      <use xlink:href="#DejaVuSans-44"/>
      <use xlink:href="#DejaVuSans-3a" x="77.001953"/>
      <use xlink:href="#DejaVuSans-20" x="110.693359"/>
      <use xlink:href="#DejaVuSans-50" x="142.480469"/>
      <use xlink:href="#DejaVuSans-20" x="202.783203"/>
      <use xlink:href="#DejaVuSans-3d" x="234.570312"/>
      <use xlink:href="#DejaVuSans-20" x="318.359375"/>
      <use xlink:href="#DejaVuSans-32" x="350.146484"/>
      <use xlink:href="#DejaVuSans-30" x="413.769531"/>
      <use xlink:href="#DejaVuSans-20" x="477.392578"/>
      <use xlink:href="#DejaVuSans-2212" x="509.179688"/>
      <use xlink:href="#DejaVuSans-20" x="592.96875"/>
      <use xlink:href="#DejaVuSans-51" x="624.755859"/>
      <use xlink:href="#DejaVuSans-2f" x="703.466797"/>
      <use xlink:href="#DejaVuSans-31" x="737.158203"/>
      <use xlink:href="#DejaVuSans-30" x="800.78125"/>
      <use xlink:href="#DejaVuSans-30" x="864.404297"/>
     </g>
    </g>
    <g id="line2d_37">
     <path d="M 749.705732 73.454531 
L 759.705732 73.454531 
L 769.705732 73.454531 
" style="fill: none; stroke: #2980b9; stroke-width: 3; stroke-linecap: square"/>
    </g>
    <g id="text_19">
     <!-- Tarifa: 5¢ (0-500), 10¢ (&gt;500) -->
     <g transform="translate(777.705732 76.954531) scale(0.1 -0.1)">
      <defs>
       <path id="DejaVuSans-54" d="M -19 4666 
L 3928 4666 
L 3928 4134 
L 2272 4134 
L 2272 0 
L 1638 0 
L 1638 4134 
L -19 4134 
L -19 4666 
z
" transform="scale(0.015625)"/>
       <path id="DejaVuSans-61" d="M 2194 1759 
Q 1497 1759 1228 1600 
Q 959 1441 959 1056 
Q 959 750 1161 570 
Q 1363 391 1709 391 
Q 2188 391 2477 730 
Q 2766 1069 2766 1631 
L 2766 1759 
L 2194 1759 
z
M 3341 1997 
L 3341 0 
L 2766 0 
L 2766 531 
Q 2569 213 2275 61 
Q 1981 -91 1556 -91 
Q 1019 -91 701 211 
Q 384 513 384 1019 
Q 384 1609 779 1909 
Q 1175 2209 1959 2209 
L 2766 2209 
L 2766 2266 
Q 2766 2663 2505 2880 
Q 2244 3097 1772 3097 
Q 1472 3097 1187 3025 
Q 903 2953 641 2809 
L 641 3341 
Q 956 3463 1253 3523 
Q 1550 3584 1831 3584 
Q 2591 3584 2966 3190 
Q 3341 2797 3341 1997 
z
" transform="scale(0.015625)"/>
       <path id="DejaVuSans-72" d="M 2631 2963 
Q 2534 3019 2420 3045 
Q 2306 3072 2169 3072 
Q 1681 3072 1420 2755 
Q 1159 2438 1159 1844 
L 1159 0 
L 581 0 
L 581 3500 
L 1159 3500 
L 1159 2956 
Q 1341 3275 1631 3429 
Q 1922 3584 2338 3584 
Q 2397 3584 2469 3576 
Q 2541 3569 2628 3553 
L 2631 2963 
z
" transform="scale(0.015625)"/>
       <path id="DejaVuSans-69" d="M 603 3500 
L 1178 3500 
L 1178 0 
L 603 0 
L 603 3500 
z
M 603 4863 
L 1178 4863 
L 1178 4134 
L 603 4134 
L 603 4863 
z
" transform="scale(0.015625)"/>
       <path id="DejaVuSans-66" d="M 2375 4863 
L 2375 4384 
L 1825 4384 
Q 1516 4384 1395 4259 
Q 1275 4134 1275 3809 
L 1275 3500 
L 2222 3500 
L 2222 3053 
L 1275 3053 
L 1275 0 
L 697 0 
L 697 3053 
L 147 3053 
L 147 3500 
L 697 3500 
L 697 3744 
Q 697 4328 969 4595 
Q 1241 4863 1831 4863 
L 2375 4863 
z
" transform="scale(0.015625)"/>
       <path id="DejaVuSans-a2" d="M 2119 409 
L 2119 3084 
Q 1659 3028 1403 2675 
Q 1147 2322 1147 1747 
Q 1147 1169 1403 816 
Q 1659 463 2119 409 
z
M 3309 3366 
L 3309 2828 
Q 3078 2956 2865 3022 
Q 2653 3088 2441 3097 
L 2438 397 
Q 2656 413 2870 478 
Q 3084 544 3309 666 
L 3309 134 
Q 3106 41 2892 -14 
Q 2678 -69 2438 -91 
L 2438 -978 
L 2119 -978 
L 2119 -78 
Q 1366 -16 952 464 
Q 538 944 538 1747 
Q 538 2553 952 3031 
Q 1366 3509 2119 3578 
L 2119 4475 
L 2438 4475 
L 2441 3578 
Q 2669 3566 2883 3514 
Q 3097 3463 3309 3366 
z
" transform="scale(0.015625)"/>
       <path id="DejaVuSans-28" d="M 1984 4856 
Q 1566 4138 1362 3434 
Q 1159 2731 1159 2009 
Q 1159 1288 1364 580 
Q 1569 -128 1984 -844 
L 1484 -844 
Q 1016 -109 783 600 
Q 550 1309 550 2009 
Q 550 2706 781 3412 
Q 1013 4119 1484 4856 
L 1984 4856 
z
" transform="scale(0.015625)"/>
       <path id="DejaVuSans-2d" d="M 313 2009 
L 1997 2009 
L 1997 1497 
L 313 1497 
L 313 2009 
z
" transform="scale(0.015625)"/>
       <path id="DejaVuSans-29" d="M 513 4856 
L 1013 4856 
Q 1481 4119 1714 3412 
Q 1947 2706 1947 2009 
Q 1947 1309 1714 600 
Q 1481 -109 1013 -844 
L 513 -844 
Q 928 -128 1133 580 
Q 1338 1288 1338 2009 
Q 1338 2731 1133 3434 
Q 928 4138 513 4856 
z
" transform="scale(0.015625)"/>
       <path id="DejaVuSans-2c" d="M 750 794 
L 1409 794 
L 1409 256 
L 897 -744 
L 494 -744 
L 750 256 
L 750 794 
z
" transform="scale(0.015625)"/>
       <path id="DejaVuSans-3e" d="M 678 3150 
L 678 3719 
L 4684 2266 
L 4684 1747 
L 678 294 
L 678 863 
L 3897 2003 
L 678 3150 
z
" transform="scale(0.015625)"/>
      </defs>
      <use xlink:href="#DejaVuSans-54"/>
      <use xlink:href="#DejaVuSans-61" x="44.583984"/>
      <use xlink:href="#DejaVuSans-72" x="105.863281"/>
      <use xlink:href="#DejaVuSans-69" x="146.976562"/>
      <use xlink:href="#DejaVuSans-66" x="174.759766"/>
      <use xlink:href="#DejaVuSans-61" x="209.964844"/>
      <use xlink:href="#DejaVuSans-3a" x="271.244141"/>
      <use xlink:href="#DejaVuSans-20" x="304.935547"/>
      <use xlink:href="#DejaVuSans-35" x="336.722656"/>
      <use xlink:href="#DejaVuSans-a2" x="400.345703"/>
      <use xlink:href="#DejaVuSans-20" x="463.96875"/>
      <use xlink:href="#DejaVuSans-28" x="495.755859"/>
      <use xlink:href="#DejaVuSans-30" x="534.769531"/>
      <use xlink:href="#DejaVuSans-2d" x="598.392578"/>
      <use xlink:href="#DejaVuSans-35" x="634.476562"/>
      <use xlink:href="#DejaVuSans-30" x="698.099609"/>
      <use xlink:href="#DejaVuSans-30" x="761.722656"/>
      <use xlink:href="#DejaVuSans-29" x="825.345703"/>
      <use xlink:href="#DejaVuSans-2c" x="864.359375"/>
      <use xlink:href="#DejaVuSans-20" x="896.146484"/>
      <use xlink:href="#DejaVuSans-31" x="927.933594"/>
      <use xlink:href="#DejaVuSans-30" x="991.556641"/>
      <use xlink:href="#DejaVuSans-a2" x="1055.179688"/>
      <use xlink:href="#DejaVuSans-20" x="1118.802734"/>
      <use xlink:href="#DejaVuSans-28" x="1150.589844"/>
      <use xlink:href="#DejaVuSans-3e" x="1189.603516"/>
      <use xlink:href="#DejaVuSans-35" x="1273.392578"/>
      <use xlink:href="#DejaVuSans-30" x="1337.015625"/>
      <use xlink:href="#DejaVuSans-30" x="1400.638672"/>
      <use xlink:href="#DejaVuSans-29" x="1464.261719"/>
     </g>
    </g>
   </g>
   <g id="line2d_38">
    <defs>
     <path id="mfe96de8b0f" d="M 0 4 
C 1.060812 4 2.078319 3.578535 2.828427 2.828427 
C 3.578535 2.078319 4 1.060812 4 0 
C 4 -1.060812 3.578535 -2.078319 2.828427 -2.828427 
C 2.078319 -3.578535 1.060812 -4 0 -4 
C -1.060812 -4 -2.078319 -3.578535 -2.828427 -2.828427 
C -3.578535 -2.078319 -4 -1.060812 -4 0 
C -4 1.060812 -3.578535 2.078319 -2.828427 2.828427 
C -2.078319 3.578535 -1.060812 4 0 4 
z
" style="stroke: #000000"/>
    </defs>
    <g clip-path="url(#pe7e3b46942)">
     <use xlink:href="#mfe96de8b0f" x="312.538304" y="160.352751" style="stroke: #000000"/>
    </g>
   </g>
   <g id="line2d_39">
    <g clip-path="url(#pe7e3b46942)">
     <use xlink:href="#mfe96de8b0f" x="487.909732" y="238.691882" style="stroke: #000000"/>
    </g>
   </g>
   <g id="patch_6">
    <path d="M 220.366809 105.616635 
Q 222.549328 141.776855 224.664489 176.821072 
" style="fill: none; stroke: #27ae60; stroke-linecap: round"/>
    <path d="M 226.595405 172.296521 
L 224.664489 176.821072 
L 222.203398 172.561609 
" style="fill: none; stroke: #27ae60; stroke-linecap: round"/>
   </g>
   <g id="text_20">
    <g id="patch_7">
     <path d="M 165.226304 103.269103 
L 274.183022 103.269103 
Q 277.483022 103.269103 277.483022 99.969103 
L 277.483022 89.323166 
Q 277.483022 86.023166 274.183022 86.023166 
L 165.226304 86.023166 
Q 161.926304 86.023166 161.926304 89.323166 
L 161.926304 99.969103 
Q 161.926304 103.269103 165.226304 103.269103 
z
" style="fill: #fffbeb; opacity: 0.97; stroke: #f39c12; stroke-width: 0.7; stroke-linejoin: miter"/>
    </g>
    <!-- EC₁ = 6.250 ctvos -->
    <g style="fill: #27ae60" transform="translate(165.226304 97.681447) scale(0.11 -0.11)">
     <defs>
      <path id="DejaVuSans-Bold-2081" d="M 441 466 
L 1088 466 
L 1088 2094 
L 384 1932 
L 384 2432 
L 1100 2585 
L 1806 2585 
L 1806 466 
L 2444 466 
L 2444 -24 
L 441 -24 
L 441 466 
z
" transform="scale(0.015625)"/>
      <path id="DejaVuSans-Bold-3d" d="M 678 3084 
L 4684 3084 
L 4684 2350 
L 678 2350 
L 678 3084 
z
M 678 1663 
L 4684 1663 
L 4684 922 
L 678 922 
L 678 1663 
z
" transform="scale(0.015625)"/>
      <path id="DejaVuSans-Bold-36" d="M 2316 2303 
Q 2000 2303 1842 2098 
Q 1684 1894 1684 1484 
Q 1684 1075 1842 870 
Q 2000 666 2316 666 
Q 2634 666 2792 870 
Q 2950 1075 2950 1484 
Q 2950 1894 2792 2098 
Q 2634 2303 2316 2303 
z
M 3803 4544 
L 3803 3681 
Q 3506 3822 3243 3889 
Q 2981 3956 2731 3956 
Q 2194 3956 1894 3657 
Q 1594 3359 1544 2772 
Q 1750 2925 1990 3001 
Q 2231 3078 2516 3078 
Q 3231 3078 3670 2659 
Q 4109 2241 4109 1563 
Q 4109 813 3618 361 
Q 3128 -91 2303 -91 
Q 1394 -91 895 523 
Q 397 1138 397 2266 
Q 397 3422 980 4083 
Q 1563 4744 2578 4744 
Q 2900 4744 3203 4694 
Q 3506 4644 3803 4544 
z
" transform="scale(0.015625)"/>
      <path id="DejaVuSans-Bold-2e" d="M 653 1209 
L 1778 1209 
L 1778 0 
L 653 0 
L 653 1209 
z
" transform="scale(0.015625)"/>
      <path id="DejaVuSans-Bold-32" d="M 1844 884 
L 3897 884 
L 3897 0 
L 506 0 
L 506 884 
L 2209 2388 
Q 2438 2594 2547 2791 
Q 2656 2988 2656 3200 
Q 2656 3528 2436 3728 
Q 2216 3928 1850 3928 
Q 1569 3928 1234 3808 
Q 900 3688 519 3450 
L 519 4475 
Q 925 4609 1322 4679 
Q 1719 4750 2100 4750 
Q 2938 4750 3402 4381 
Q 3866 4013 3866 3353 
Q 3866 2972 3669 2642 
Q 3472 2313 2841 1759 
L 1844 884 
z
" transform="scale(0.015625)"/>
      <path id="DejaVuSans-Bold-35" d="M 678 4666 
L 3669 4666 
L 3669 3781 
L 1638 3781 
L 1638 3059 
Q 1775 3097 1914 3117 
Q 2053 3138 2203 3138 
Q 3056 3138 3531 2711 
Q 4006 2284 4006 1522 
Q 4006 766 3489 337 
Q 2972 -91 2053 -91 
Q 1656 -91 1267 -14 
Q 878 63 494 219 
L 494 1166 
Q 875 947 1217 837 
Q 1559 728 1863 728 
Q 2300 728 2551 942 
Q 2803 1156 2803 1522 
Q 2803 1891 2551 2103 
Q 2300 2316 1863 2316 
Q 1603 2316 1309 2248 
Q 1016 2181 678 2041 
L 678 4666 
z
" transform="scale(0.015625)"/>
      <path id="DejaVuSans-Bold-30" d="M 2944 2338 
Q 2944 3213 2780 3570 
Q 2616 3928 2228 3928 
Q 1841 3928 1675 3570 
Q 1509 3213 1509 2338 
Q 1509 1453 1675 1090 
Q 1841 728 2228 728 
Q 2613 728 2778 1090 
Q 2944 1453 2944 2338 
z
M 4147 2328 
Q 4147 1169 3647 539 
Q 3147 -91 2228 -91 
Q 1306 -91 806 539 
Q 306 1169 306 2328 
Q 306 3491 806 4120 
Q 1306 4750 2228 4750 
Q 3147 4750 3647 4120 
Q 4147 3491 4147 2328 
z
" transform="scale(0.015625)"/>
     </defs>
     <use xlink:href="#DejaVuSans-Bold-45"/>
     <use xlink:href="#DejaVuSans-Bold-43" x="68.310547"/>
     <use xlink:href="#DejaVuSans-Bold-2081" x="141.699219"/>
     <use xlink:href="#DejaVuSans-Bold-20" x="185.498047"/>
     <use xlink:href="#DejaVuSans-Bold-3d" x="220.3125"/>
     <use xlink:href="#DejaVuSans-Bold-20" x="304.101562"/>
     <use xlink:href="#DejaVuSans-Bold-36" x="338.916016"/>
     <use xlink:href="#DejaVuSans-Bold-2e" x="408.496094"/>
     <use xlink:href="#DejaVuSans-Bold-32" x="446.484375"/>
     <use xlink:href="#DejaVuSans-Bold-35" x="516.064453"/>
     <use xlink:href="#DejaVuSans-Bold-30" x="585.644531"/>
     <use xlink:href="#DejaVuSans-Bold-20" x="655.224609"/>
     <use xlink:href="#DejaVuSans-Bold-63" x="690.039062"/>
     <use xlink:href="#DejaVuSans-Bold-74" x="749.316406"/>
     <use xlink:href="#DejaVuSans-Bold-76" x="797.119141"/>
     <use xlink:href="#DejaVuSans-Bold-6f" x="862.304688"/>
     <use xlink:href="#DejaVuSans-Bold-73" x="931.005859"/>
    </g>
   </g>
   <g id="patch_8">
    <path d="M 400.224018 105.61632 
Q 400.224018 151.570593 400.224018 196.406831 
" style="fill: none; stroke: #3498db; stroke-linecap: round"/>
    <path d="M 402.424018 192.006831 
L 400.224018 196.406831 
L 398.024018 192.006831 
" style="fill: none; stroke: #3498db; stroke-linecap: round"/>
   </g>
   <g id="text_21">
    <g id="patch_9">
     <path d="M 345.745658 103.269103 
L 454.702377 103.269103 
Q 458.002377 103.269103 458.002377 99.969103 
L 458.002377 89.323166 
Q 458.002377 86.023166 454.702377 86.023166 
L 345.745658 86.023166 
Q 342.445658 86.023166 342.445658 89.323166 
L 342.445658 99.969103 
Q 342.445658 103.269103 345.745658 103.269103 
z
" style="fill: #fffbeb; opacity: 0.97; stroke: #f39c12; stroke-width: 0.7; stroke-linejoin: miter"/>
    </g>
    <!-- EC₂ = 1.250 ctvos -->
    <g style="fill: #3498db" transform="translate(345.745658 97.681447) scale(0.11 -0.11)">
     <defs>
      <path id="DejaVuSans-Bold-2082" d="M 1288 501 
L 2444 501 
L 2444 -24 
L 341 -24 
L 341 454 
L 1319 1285 
Q 1509 1451 1590 1576 
Q 1672 1701 1672 1826 
Q 1672 1982 1558 2079 
Q 1444 2176 1259 2176 
Q 1066 2176 844 2105 
Q 622 2035 359 1888 
L 359 2469 
Q 631 2554 886 2596 
Q 1141 2638 1375 2638 
Q 1869 2638 2150 2436 
Q 2431 2235 2431 1888 
Q 2431 1663 2320 1474 
Q 2209 1285 1894 1016 
L 1288 501 
z
" transform="scale(0.015625)"/>
      <path id="DejaVuSans-Bold-31" d="M 750 831 
L 1813 831 
L 1813 3847 
L 722 3622 
L 722 4441 
L 1806 4666 
L 2950 4666 
L 2950 831 
L 4013 831 
L 4013 0 
L 750 0 
L 750 831 
z
" transform="scale(0.015625)"/>
     </defs>
     <use xlink:href="#DejaVuSans-Bold-45"/>
     <use xlink:href="#DejaVuSans-Bold-43" x="68.310547"/>
     <use xlink:href="#DejaVuSans-Bold-2082" x="141.699219"/>
     <use xlink:href="#DejaVuSans-Bold-20" x="185.498047"/>
     <use xlink:href="#DejaVuSans-Bold-3d" x="220.3125"/>
     <use xlink:href="#DejaVuSans-Bold-20" x="304.101562"/>
     <use xlink:href="#DejaVuSans-Bold-31" x="338.916016"/>
     <use xlink:href="#DejaVuSans-Bold-2e" x="408.496094"/>
     <use xlink:href="#DejaVuSans-Bold-32" x="446.484375"/>
     <use xlink:href="#DejaVuSans-Bold-35" x="516.064453"/>
     <use xlink:href="#DejaVuSans-Bold-30" x="585.644531"/>
     <use xlink:href="#DejaVuSans-Bold-20" x="655.224609"/>
     <use xlink:href="#DejaVuSans-Bold-63" x="690.039062"/>
     <use xlink:href="#DejaVuSans-Bold-74" x="749.316406"/>
     <use xlink:href="#DejaVuSans-Bold-76" x="797.119141"/>
     <use xlink:href="#DejaVuSans-Bold-6f" x="862.304688"/>
     <use xlink:href="#DejaVuSans-Bold-73" x="931.005859"/>
    </g>
   </g>
   <g id="text_22">
    <g id="patch_10">
     <path d="M 504.596339 182.708234 
L 681.668839 182.708234 
Q 686.068839 182.708234 686.068839 178.308234 
L 686.068839 155.344702 
Q 686.068839 150.944702 681.668839 150.944702 
L 504.596339 150.944702 
Q 500.196339 150.944702 500.196339 155.344702 
L 500.196339 178.308234 
Q 500.196339 182.708234 504.596339 182.708234 
z
" style="fill: #e8f8f5; opacity: 0.97; stroke: #16a085; stroke-linejoin: miter"/>
    </g>
    <!-- EC total = 7.500 ctvos = $75 -->
    <g transform="translate(504.596339 163.702984) scale(0.11 -0.11)">
     <defs>
      <path id="DejaVuSans-Bold-37" d="M 428 4666 
L 3944 4666 
L 3944 3988 
L 2125 0 
L 953 0 
L 2675 3781 
L 428 3781 
L 428 4666 
z
" transform="scale(0.015625)"/>
      <path id="DejaVuSans-Bold-24" d="M 2484 -941 
L 1978 -941 
L 1975 0 
Q 1584 16 1218 87 
Q 853 159 506 288 
L 506 1106 
Q 866 922 1233 823 
Q 1600 725 1978 713 
L 1978 1684 
L 1875 1703 
Q 1128 1834 814 2115 
Q 500 2397 500 2925 
Q 500 3484 883 3798 
Q 1266 4113 1975 4141 
L 1978 4863 
L 2484 4863 
L 2484 4153 
Q 2797 4128 3109 4075 
Q 3422 4022 3738 3938 
L 3738 3144 
Q 3425 3275 3112 3348 
Q 2800 3422 2484 3438 
L 2484 2541 
L 2584 2522 
Q 3378 2397 3698 2105 
Q 4019 1813 4019 1241 
Q 4019 666 3637 358 
Q 3256 50 2484 6 
L 2484 -941 
z
M 1978 2613 
L 1978 3428 
Q 1756 3416 1623 3308 
Q 1491 3200 1491 3034 
Q 1491 2850 1612 2745 
Q 1734 2641 1978 2613 
z
M 2484 1594 
L 2484 725 
Q 2756 728 2892 831 
Q 3028 934 3028 1141 
Q 3028 1353 2903 1458 
Q 2778 1563 2484 1594 
z
" transform="scale(0.015625)"/>
     </defs>
     <use xlink:href="#DejaVuSans-Bold-45"/>
     <use xlink:href="#DejaVuSans-Bold-43" x="68.310547"/>
     <use xlink:href="#DejaVuSans-Bold-20" x="141.699219"/>
     <use xlink:href="#DejaVuSans-Bold-74" x="176.513672"/>
     <use xlink:href="#DejaVuSans-Bold-6f" x="224.316406"/>
     <use xlink:href="#DejaVuSans-Bold-74" x="293.017578"/>
     <use xlink:href="#DejaVuSans-Bold-61" x="340.820312"/>
     <use xlink:href="#DejaVuSans-Bold-6c" x="408.300781"/>
     <use xlink:href="#DejaVuSans-Bold-20" x="442.578125"/>
     <use xlink:href="#DejaVuSans-Bold-3d" x="477.392578"/>
     <use xlink:href="#DejaVuSans-Bold-20" x="561.181641"/>
     <use xlink:href="#DejaVuSans-Bold-37" x="595.996094"/>
     <use xlink:href="#DejaVuSans-Bold-2e" x="665.576172"/>
     <use xlink:href="#DejaVuSans-Bold-35" x="703.564453"/>
     <use xlink:href="#DejaVuSans-Bold-30" x="773.144531"/>
     <use xlink:href="#DejaVuSans-Bold-30" x="842.724609"/>
     <use xlink:href="#DejaVuSans-Bold-20" x="912.304688"/>
     <use xlink:href="#DejaVuSans-Bold-63" x="947.119141"/>
     <use xlink:href="#DejaVuSans-Bold-74" x="1006.396484"/>
     <use xlink:href="#DejaVuSans-Bold-76" x="1054.199219"/>
     <use xlink:href="#DejaVuSans-Bold-6f" x="1119.384766"/>
     <use xlink:href="#DejaVuSans-Bold-73" x="1188.085938"/>
     <use xlink:href="#DejaVuSans-Bold-20" x="1247.607422"/>
     <use xlink:href="#DejaVuSans-Bold-3d" x="1282.421875"/>
     <use xlink:href="#DejaVuSans-Bold-20" x="1366.210938"/>
     <use xlink:href="#DejaVuSans-Bold-24" x="1401.025391"/>
     <use xlink:href="#DejaVuSans-Bold-37" x="1470.605469"/>
     <use xlink:href="#DejaVuSans-Bold-35" x="1540.185547"/>
    </g>
    <!-- Q consumido = 1000 kWh -->
    <g transform="translate(513.767589 176.020577) scale(0.11 -0.11)">
     <use xlink:href="#DejaVuSans-Bold-51"/>
     <use xlink:href="#DejaVuSans-Bold-20" x="85.009766"/>
     <use xlink:href="#DejaVuSans-Bold-63" x="119.824219"/>
     <use xlink:href="#DejaVuSans-Bold-6f" x="179.101562"/>
     <use xlink:href="#DejaVuSans-Bold-6e" x="247.802734"/>
     <use xlink:href="#DejaVuSans-Bold-73" x="318.994141"/>
     <use xlink:href="#DejaVuSans-Bold-75" x="378.515625"/>
     <use xlink:href="#DejaVuSans-Bold-6d" x="449.707031"/>
     <use xlink:href="#DejaVuSans-Bold-69" x="553.90625"/>
     <use xlink:href="#DejaVuSans-Bold-64" x="588.183594"/>
     <use xlink:href="#DejaVuSans-Bold-6f" x="659.765625"/>
     <use xlink:href="#DejaVuSans-Bold-20" x="728.466797"/>
     <use xlink:href="#DejaVuSans-Bold-3d" x="763.28125"/>
     <use xlink:href="#DejaVuSans-Bold-20" x="847.070312"/>
     <use xlink:href="#DejaVuSans-Bold-31" x="881.884766"/>
     <use xlink:href="#DejaVuSans-Bold-30" x="951.464844"/>
     <use xlink:href="#DejaVuSans-Bold-30" x="1021.044922"/>
     <use xlink:href="#DejaVuSans-Bold-30" x="1090.625"/>
     <use xlink:href="#DejaVuSans-Bold-20" x="1160.205078"/>
     <use xlink:href="#DejaVuSans-Bold-6b" x="1195.019531"/>
     <use xlink:href="#DejaVuSans-Bold-57" x="1261.523438"/>
     <use xlink:href="#DejaVuSans-Bold-68" x="1371.826172"/>
    </g>
   </g>
   <g id="text_23">
    <g id="patch_11">
     <path d="M 323.060589 157.540557 
L 364.435277 157.540557 
Q 367.585277 157.540557 367.585277 154.390557 
L 367.585277 145.680245 
Q 367.585277 142.530245 364.435277 142.530245 
L 323.060589 142.530245 
Q 319.910589 142.530245 319.910589 145.680245 
L 319.910589 154.390557 
Q 319.910589 157.540557 323.060589 157.540557 
z
" style="fill: #ffffff; opacity: 0.97; stroke: #bdc3c7; stroke-width: 0.8; stroke-linejoin: miter"/>
    </g>
    <!-- (500, 15) -->
    <g transform="translate(323.060589 152.518838) scale(0.09 -0.09)">
     <use xlink:href="#DejaVuSans-28"/>
     <use xlink:href="#DejaVuSans-35" x="39.013672"/>
     <use xlink:href="#DejaVuSans-30" x="102.636719"/>
     <use xlink:href="#DejaVuSans-30" x="166.259766"/>
     <use xlink:href="#DejaVuSans-2c" x="229.882812"/>
     <use xlink:href="#DejaVuSans-20" x="261.669922"/>
     <use xlink:href="#DejaVuSans-31" x="293.457031"/>
     <use xlink:href="#DejaVuSans-35" x="357.080078"/>
     <use xlink:href="#DejaVuSans-29" x="420.703125"/>
    </g>
   </g>
   <g id="text_24">
    <g id="patch_12">
     <path d="M 498.432018 235.879687 
L 545.532955 235.879687 
Q 548.682955 235.879687 548.682955 232.729687 
L 548.682955 224.019375 
Q 548.682955 220.869375 545.532955 220.869375 
L 498.432018 220.869375 
Q 495.282018 220.869375 495.282018 224.019375 
L 495.282018 232.729687 
Q 495.282018 235.879687 498.432018 235.879687 
z
" style="fill: #ffffff; opacity: 0.97; stroke: #bdc3c7; stroke-width: 0.8; stroke-linejoin: miter"/>
    </g>
    <!-- (1000, 10) -->
    <g transform="translate(498.432018 230.857969) scale(0.09 -0.09)">
     <use xlink:href="#DejaVuSans-28"/>
     <use xlink:href="#DejaVuSans-31" x="39.013672"/>
     <use xlink:href="#DejaVuSans-30" x="102.636719"/>
     <use xlink:href="#DejaVuSans-30" x="166.259766"/>
     <use xlink:href="#DejaVuSans-30" x="229.882812"/>
     <use xlink:href="#DejaVuSans-2c" x="293.505859"/>
     <use xlink:href="#DejaVuSans-20" x="325.292969"/>
     <use xlink:href="#DejaVuSans-31" x="357.080078"/>
     <use xlink:href="#DejaVuSans-30" x="420.703125"/>
     <use xlink:href="#DejaVuSans-29" x="484.326172"/>
    </g>
   </g>
  </g>
 </g>
 <defs>
  <clipPath id="pe7e3b46942">
   <rect x="119.629732" y="50.677969" width="613.8" height="360.36"/>
  </clipPath>
 </defs>
</svg>
