<?xml version="1.0" encoding="utf-8" standalone="no"?>
<!DOCTYPE svg PUBLIC "-//W3C//DTD SVG 1.1//EN"
  "http://www.w3.org/Graphics/SVG/1.1/DTD/svg11.dtd">
<svg xmlns:xlink="http://www.w3.org/1999/xlink" width="890.724533pt" height="440.357969pt" viewBox="0 0 890.724533 440.357969" xmlns="http://www.w3.org/2000/svg" version="1.1">
 <metadata>
  <rdf:RDF xmlns:dc="http://purl.org/dc/elements/1.1/" xmlns:cc="http://creativecommons.org/ns#" xmlns:rdf="http://www.w3.org/1999/02/22-rdf-syntax-ns#">
   <cc:Work>
    <dc:type rdf:resource="http://purl.org/dc/dcmitype/StillImage"/>
    <dc:date>2026-04-28T17:41:37.253289</dc:date>
    <dc:format>image/svg+xml</dc:format>
    <dc:creator>
     <cc:Agent>
      <dc:title>Matplotlib v3.9.2, https://matplotlib.org/</dc:title>
     </cc:Agent>
    </dc:creator>
   </cc:Work>
  </rdf:RDF>
 </metadata>
 <defs>
  <style type="text/css">*{stroke-linejoin: round; stroke-linecap: butt}</style>
 </defs>
 <g id="figure_1">
  <g id="patch_1">
   <path d="M 0 440.357969 
L 890.724533 440.357969 
L 890.724533 0 
L 0 0 
z
" style="fill: #ffffff"/>
  </g>
  <g id="axes_1">
   <g id="patch_2">
    <path d="M 109.997595 411.557969 
L 723.797595 411.557969 
L 723.797595 51.197969 
L 109.997595 51.197969 
z
" style="fill: #ffffff"/>
   </g>
   <g id="PolyCollection_1">
    <defs>
     <path id="m970b562b68" d="M 310.49929 -247.333171 
L 310.49929 -171.425854 
L 312.594858 -172.089766 
L 314.690425 -172.753678 
L 316.785993 -173.417591 
L 318.88156 -174.081503 
L 320.977128 -174.745416 
L 323.072695 -175.409328 
L 325.168263 -176.07324 
L 327.26383 -176.737153 
L 329.359398 -177.401065 
L 331.454966 -178.064978 
L 333.550533 -178.72889 
L 335.646101 -179.392802 
L 337.741668 -180.056715 
L 339.837236 -180.720627 
L 341.932803 -181.38454 
L 344.028371 -182.048452 
L 346.123938 -182.712364 
L 348.219506 -183.376277 
L 350.315073 -184.040189 
L 352.410641 -184.704102 
L 354.506208 -185.368014 
L 356.601776 -186.031926 
L 358.697343 -186.695839 
L 360.792911 -187.359751 
L 362.888478 -188.023664 
L 364.984046 -188.687576 
L 367.079613 -189.351488 
L 369.175181 -190.015401 
L 371.270748 -190.679313 
L 373.366316 -191.343225 
L 375.461884 -192.007138 
L 377.557451 -192.67105 
L 379.653019 -193.334963 
L 381.748586 -193.998875 
L 383.844154 -194.662787 
L 385.939721 -195.3267 
L 388.035289 -195.990612 
L 390.130856 -196.654525 
L 392.226424 -197.318437 
L 394.321991 -197.982349 
L 396.417559 -198.646262 
L 398.513126 -199.310174 
L 400.608694 -199.974087 
L 402.704261 -200.637999 
L 404.799829 -201.301911 
L 406.895396 -201.965824 
L 408.990964 -202.629736 
L 411.086531 -203.293649 
L 413.182099 -203.957561 
L 413.182099 -203.957561 
L 413.182099 -203.957561 
L 411.086531 -204.842778 
L 408.990964 -205.727994 
L 406.895396 -206.613211 
L 404.799829 -207.498427 
L 402.704261 -208.383644 
L 400.608694 -209.26886 
L 398.513126 -210.154077 
L 396.417559 -211.039293 
L 394.321991 -211.92451 
L 392.226424 -212.809726 
L 390.130856 -213.694943 
L 388.035289 -214.580159 
L 385.939721 -215.465376 
L 383.844154 -216.350592 
L 381.748586 -217.235809 
L 379.653019 -218.121025 
L 377.557451 -219.006242 
L 375.461884 -219.891458 
L 373.366316 -220.776675 
L 371.270748 -221.661891 
L 369.175181 -222.547108 
L 367.079613 -223.432325 
L 364.984046 -224.317541 
L 362.888478 -225.202758 
L 360.792911 -226.087974 
L 358.697343 -226.973191 
L 356.601776 -227.858407 
L 354.506208 -228.743624 
L 352.410641 -229.62884 
L 350.315073 -230.514057 
L 348.219506 -231.399273 
L 346.123938 -232.28449 
L 344.028371 -233.169706 
L 341.932803 -234.054923 
L 339.837236 -234.940139 
L 337.741668 -235.825356 
L 335.646101 -236.710572 
L 333.550533 -237.595789 
L 331.454966 -238.481005 
L 329.359398 -239.366222 
L 327.26383 -240.251439 
L 325.168263 -241.136655 
L 323.072695 -242.021872 
L 320.977128 -242.907088 
L 318.88156 -243.792305 
L 316.785993 -244.677521 
L 314.690425 -245.562738 
L 312.594858 -246.447954 
L 310.49929 -247.333171 
z
" style="stroke: #7d3c98; stroke-opacity: 0.4"/>
    </defs>
    <g clip-path="url(#pf88b7c297a)">
     <use xlink:href="#m970b562b68" x="0" y="440.357969" style="fill: #7d3c98; fill-opacity: 0.4; stroke: #7d3c98; stroke-opacity: 0.4"/>
    </g>
   </g>
   <g id="matplotlib.axis_1">
    <g id="xtick_1">
     <g id="line2d_1">
      <path d="M 130.804375 411.557969 
L 130.804375 51.197969 
" clip-path="url(#pf88b7c297a)" style="fill: none; stroke-dasharray: 0.8,1.32; stroke-dashoffset: 0; stroke: #b0b0b0; stroke-opacity: 0.4; stroke-width: 0.8"/>
     </g>
     <g id="line2d_2">
      <defs>
       <path id="macaf8acd2c" d="M 0 0 
L 0 -4 
" style="stroke: #000000"/>
      </defs>
      <g>
       <use xlink:href="#macaf8acd2c" x="130.804375" y="380.79553" style="stroke: #000000"/>
      </g>
     </g>
     <g id="text_1">
      <!-- 0 -->
      <g transform="translate(127.623125 391.893967) scale(0.1 -0.1)">
       <defs>
        <path id="DejaVuSans-30" d="M 2034 4250 
Q 1547 4250 1301 3770 
Q 1056 3291 1056 2328 
Q 1056 1369 1301 889 
Q 1547 409 2034 409 
Q 2525 409 2770 889 
Q 3016 1369 3016 2328 
Q 3016 3291 2770 3770 
Q 2525 4250 2034 4250 
z
M 2034 4750 
Q 2819 4750 3233 4129 
Q 3647 3509 3647 2328 
Q 3647 1150 3233 529 
Q 2819 -91 2034 -91 
Q 1250 -91 836 529 
Q 422 1150 422 2328 
Q 422 3509 836 4129 
Q 1250 4750 2034 4750 
z
" transform="scale(0.015625)"/>
       </defs>
       <use xlink:href="#DejaVuSans-30"/>
      </g>
     </g>
    </g>
    <g id="xtick_2">
     <g id="line2d_3">
      <path d="M 234.838273 411.557969 
L 234.838273 51.197969 
" clip-path="url(#pf88b7c297a)" style="fill: none; stroke-dasharray: 0.8,1.32; stroke-dashoffset: 0; stroke: #b0b0b0; stroke-opacity: 0.4; stroke-width: 0.8"/>
     </g>
     <g id="line2d_4">
      <g>
       <use xlink:href="#macaf8acd2c" x="234.838273" y="380.79553" style="stroke: #000000"/>
      </g>
     </g>
     <g id="text_2">
      <!-- 1 -->
      <g transform="translate(231.657023 391.893967) scale(0.1 -0.1)">
       <defs>
        <path id="DejaVuSans-31" d="M 794 531 
L 1825 531 
L 1825 4091 
L 703 3866 
L 703 4441 
L 1819 4666 
L 2450 4666 
L 2450 531 
L 3481 531 
L 3481 0 
L 794 0 
L 794 531 
z
" transform="scale(0.015625)"/>
       </defs>
       <use xlink:href="#DejaVuSans-31"/>
      </g>
     </g>
    </g>
    <g id="xtick_3">
     <g id="line2d_5">
      <path d="M 338.872172 411.557969 
L 338.872172 51.197969 
" clip-path="url(#pf88b7c297a)" style="fill: none; stroke-dasharray: 0.8,1.32; stroke-dashoffset: 0; stroke: #b0b0b0; stroke-opacity: 0.4; stroke-width: 0.8"/>
     </g>
     <g id="line2d_6">
      <g>
       <use xlink:href="#macaf8acd2c" x="338.872172" y="380.79553" style="stroke: #000000"/>
      </g>
     </g>
     <g id="text_3">
      <!-- 2 -->
      <g transform="translate(335.690922 391.893967) scale(0.1 -0.1)">
       <defs>
        <path id="DejaVuSans-32" d="M 1228 531 
L 3431 531 
L 3431 0 
L 469 0 
L 469 531 
Q 828 903 1448 1529 
Q 2069 2156 2228 2338 
Q 2531 2678 2651 2914 
Q 2772 3150 2772 3378 
Q 2772 3750 2511 3984 
Q 2250 4219 1831 4219 
Q 1534 4219 1204 4116 
Q 875 4013 500 3803 
L 500 4441 
Q 881 4594 1212 4672 
Q 1544 4750 1819 4750 
Q 2544 4750 2975 4387 
Q 3406 4025 3406 3419 
Q 3406 3131 3298 2873 
Q 3191 2616 2906 2266 
Q 2828 2175 2409 1742 
Q 1991 1309 1228 531 
z
" transform="scale(0.015625)"/>
       </defs>
       <use xlink:href="#DejaVuSans-32"/>
      </g>
     </g>
    </g>
    <g id="xtick_4">
     <g id="line2d_7">
      <path d="M 442.90607 411.557969 
L 442.90607 51.197969 
" clip-path="url(#pf88b7c297a)" style="fill: none; stroke-dasharray: 0.8,1.32; stroke-dashoffset: 0; stroke: #b0b0b0; stroke-opacity: 0.4; stroke-width: 0.8"/>
     </g>
     <g id="line2d_8">
      <g>
       <use xlink:href="#macaf8acd2c" x="442.90607" y="380.79553" style="stroke: #000000"/>
      </g>
     </g>
     <g id="text_4">
      <!-- 3 -->
      <g transform="translate(439.72482 391.893967) scale(0.1 -0.1)">
       <defs>
        <path id="DejaVuSans-33" d="M 2597 2516 
Q 3050 2419 3304 2112 
Q 3559 1806 3559 1356 
Q 3559 666 3084 287 
Q 2609 -91 1734 -91 
Q 1441 -91 1130 -33 
Q 819 25 488 141 
L 488 750 
Q 750 597 1062 519 
Q 1375 441 1716 441 
Q 2309 441 2620 675 
Q 2931 909 2931 1356 
Q 2931 1769 2642 2001 
Q 2353 2234 1838 2234 
L 1294 2234 
L 1294 2753 
L 1863 2753 
Q 2328 2753 2575 2939 
Q 2822 3125 2822 3475 
Q 2822 3834 2567 4026 
Q 2313 4219 1838 4219 
Q 1578 4219 1281 4162 
Q 984 4106 628 3988 
L 628 4550 
Q 988 4650 1302 4700 
Q 1616 4750 1894 4750 
Q 2613 4750 3031 4423 
Q 3450 4097 3450 3541 
Q 3450 3153 3228 2886 
Q 3006 2619 2597 2516 
z
" transform="scale(0.015625)"/>
       </defs>
       <use xlink:href="#DejaVuSans-33"/>
      </g>
     </g>
    </g>
    <g id="xtick_5">
     <g id="line2d_9">
      <path d="M 546.939968 411.557969 
L 546.939968 51.197969 
" clip-path="url(#pf88b7c297a)" style="fill: none; stroke-dasharray: 0.8,1.32; stroke-dashoffset: 0; stroke: #b0b0b0; stroke-opacity: 0.4; stroke-width: 0.8"/>
     </g>
     <g id="line2d_10">
      <g>
       <use xlink:href="#macaf8acd2c" x="546.939968" y="380.79553" style="stroke: #000000"/>
      </g>
     </g>
     <g id="text_5">
      <!-- 4 -->
      <g transform="translate(543.758718 391.893967) scale(0.1 -0.1)">
       <defs>
        <path id="DejaVuSans-34" d="M 2419 4116 
L 825 1625 
L 2419 1625 
L 2419 4116 
z
M 2253 4666 
L 3047 4666 
L 3047 1625 
L 3713 1625 
L 3713 1100 
L 3047 1100 
L 3047 0 
L 2419 0 
L 2419 1100 
L 313 1100 
L 313 1709 
L 2253 4666 
z
" transform="scale(0.015625)"/>
       </defs>
       <use xlink:href="#DejaVuSans-34"/>
      </g>
     </g>
    </g>
    <g id="xtick_6">
     <g id="line2d_11">
      <path d="M 650.973867 411.557969 
L 650.973867 51.197969 
" clip-path="url(#pf88b7c297a)" style="fill: none; stroke-dasharray: 0.8,1.32; stroke-dashoffset: 0; stroke: #b0b0b0; stroke-opacity: 0.4; stroke-width: 0.8"/>
     </g>
     <g id="line2d_12">
      <g>
       <use xlink:href="#macaf8acd2c" x="650.973867" y="380.79553" style="stroke: #000000"/>
      </g>
     </g>
     <g id="text_6">
      <!-- 5 -->
      <g transform="translate(647.792617 391.893967) scale(0.1 -0.1)">
       <defs>
        <path id="DejaVuSans-35" d="M 691 4666 
L 3169 4666 
L 3169 4134 
L 1269 4134 
L 1269 2991 
Q 1406 3038 1543 3061 
Q 1681 3084 1819 3084 
Q 2600 3084 3056 2656 
Q 3513 2228 3513 1497 
Q 3513 744 3044 326 
Q 2575 -91 1722 -91 
Q 1428 -91 1123 -41 
Q 819 9 494 109 
L 494 744 
Q 775 591 1075 516 
Q 1375 441 1709 441 
Q 2250 441 2565 725 
Q 2881 1009 2881 1497 
Q 2881 1984 2565 2268 
Q 2250 2553 1709 2553 
Q 1456 2553 1204 2497 
Q 953 2441 691 2322 
L 691 4666 
z
" transform="scale(0.015625)"/>
       </defs>
       <use xlink:href="#DejaVuSans-35"/>
      </g>
     </g>
    </g>
    <g id="text_7">
     <!-- Q (millones kWh) -->
     <g transform="translate(607.600095 401.09178) scale(0.12 -0.12)">
      <defs>
       <path id="DejaVuSans-Bold-51" d="M 2847 -84 
L 2753 -84 
Q 1600 -84 959 553 
Q 319 1191 319 2328 
Q 319 3463 958 4106 
Q 1597 4750 2719 4750 
Q 3853 4750 4486 4112 
Q 5119 3475 5119 2328 
Q 5119 1541 4783 972 
Q 4447 403 3816 116 
L 4756 -934 
L 3609 -934 
L 2847 -84 
z
M 2719 3878 
Q 2169 3878 1866 3472 
Q 1563 3066 1563 2328 
Q 1563 1578 1859 1179 
Q 2156 781 2719 781 
Q 3272 781 3575 1187 
Q 3878 1594 3878 2328 
Q 3878 3066 3575 3472 
Q 3272 3878 2719 3878 
z
" transform="scale(0.015625)"/>
       <path id="DejaVuSans-Bold-20" transform="scale(0.015625)"/>
       <path id="DejaVuSans-Bold-28" d="M 2413 -844 
L 1484 -844 
Q 1006 -72 778 623 
Q 550 1319 550 2003 
Q 550 2688 779 3389 
Q 1009 4091 1484 4856 
L 2413 4856 
Q 2013 4116 1813 3408 
Q 1613 2700 1613 2009 
Q 1613 1319 1811 609 
Q 2009 -100 2413 -844 
z
" transform="scale(0.015625)"/>
       <path id="DejaVuSans-Bold-6d" d="M 3781 2919 
Q 3994 3244 4286 3414 
Q 4578 3584 4928 3584 
Q 5531 3584 5847 3212 
Q 6163 2841 6163 2131 
L 6163 0 
L 5038 0 
L 5038 1825 
Q 5041 1866 5042 1909 
Q 5044 1953 5044 2034 
Q 5044 2406 4934 2573 
Q 4825 2741 4581 2741 
Q 4263 2741 4089 2478 
Q 3916 2216 3909 1719 
L 3909 0 
L 2784 0 
L 2784 1825 
Q 2784 2406 2684 2573 
Q 2584 2741 2328 2741 
Q 2006 2741 1831 2477 
Q 1656 2213 1656 1722 
L 1656 0 
L 531 0 
L 531 3500 
L 1656 3500 
L 1656 2988 
Q 1863 3284 2130 3434 
Q 2397 3584 2719 3584 
Q 3081 3584 3359 3409 
Q 3638 3234 3781 2919 
z
" transform="scale(0.015625)"/>
       <path id="DejaVuSans-Bold-69" d="M 538 3500 
L 1656 3500 
L 1656 0 
L 538 0 
L 538 3500 
z
M 538 4863 
L 1656 4863 
L 1656 3950 
L 538 3950 
L 538 4863 
z
" transform="scale(0.015625)"/>
       <path id="DejaVuSans-Bold-6c" d="M 538 4863 
L 1656 4863 
L 1656 0 
L 538 0 
L 538 4863 
z
" transform="scale(0.015625)"/>
       <path id="DejaVuSans-Bold-6f" d="M 2203 2784 
Q 1831 2784 1636 2517 
Q 1441 2250 1441 1747 
Q 1441 1244 1636 976 
Q 1831 709 2203 709 
Q 2569 709 2762 976 
Q 2956 1244 2956 1747 
Q 2956 2250 2762 2517 
Q 2569 2784 2203 2784 
z
M 2203 3584 
Q 3106 3584 3614 3096 
Q 4122 2609 4122 1747 
Q 4122 884 3614 396 
Q 3106 -91 2203 -91 
Q 1297 -91 786 396 
Q 275 884 275 1747 
Q 275 2609 786 3096 
Q 1297 3584 2203 3584 
z
" transform="scale(0.015625)"/>
       <path id="DejaVuSans-Bold-6e" d="M 4056 2131 
L 4056 0 
L 2931 0 
L 2931 347 
L 2931 1631 
Q 2931 2084 2911 2256 
Q 2891 2428 2841 2509 
Q 2775 2619 2662 2680 
Q 2550 2741 2406 2741 
Q 2056 2741 1856 2470 
Q 1656 2200 1656 1722 
L 1656 0 
L 538 0 
L 538 3500 
L 1656 3500 
L 1656 2988 
Q 1909 3294 2193 3439 
Q 2478 3584 2822 3584 
Q 3428 3584 3742 3212 
Q 4056 2841 4056 2131 
z
" transform="scale(0.015625)"/>
       <path id="DejaVuSans-Bold-65" d="M 4031 1759 
L 4031 1441 
L 1416 1441 
Q 1456 1047 1700 850 
Q 1944 653 2381 653 
Q 2734 653 3104 758 
Q 3475 863 3866 1075 
L 3866 213 
Q 3469 63 3072 -14 
Q 2675 -91 2278 -91 
Q 1328 -91 801 392 
Q 275 875 275 1747 
Q 275 2603 792 3093 
Q 1309 3584 2216 3584 
Q 3041 3584 3536 3087 
Q 4031 2591 4031 1759 
z
M 2881 2131 
Q 2881 2450 2695 2645 
Q 2509 2841 2209 2841 
Q 1884 2841 1681 2658 
Q 1478 2475 1428 2131 
L 2881 2131 
z
" transform="scale(0.015625)"/>
       <path id="DejaVuSans-Bold-73" d="M 3272 3391 
L 3272 2541 
Q 2913 2691 2578 2766 
Q 2244 2841 1947 2841 
Q 1628 2841 1473 2761 
Q 1319 2681 1319 2516 
Q 1319 2381 1436 2309 
Q 1553 2238 1856 2203 
L 2053 2175 
Q 2913 2066 3209 1816 
Q 3506 1566 3506 1031 
Q 3506 472 3093 190 
Q 2681 -91 1863 -91 
Q 1516 -91 1145 -36 
Q 775 19 384 128 
L 384 978 
Q 719 816 1070 734 
Q 1422 653 1784 653 
Q 2113 653 2278 743 
Q 2444 834 2444 1013 
Q 2444 1163 2330 1236 
Q 2216 1309 1875 1350 
L 1678 1375 
Q 931 1469 631 1722 
Q 331 1975 331 2491 
Q 331 3047 712 3315 
Q 1094 3584 1881 3584 
Q 2191 3584 2531 3537 
Q 2872 3491 3272 3391 
z
" transform="scale(0.015625)"/>
       <path id="DejaVuSans-Bold-6b" d="M 538 4863 
L 1656 4863 
L 1656 2216 
L 2944 3500 
L 4244 3500 
L 2534 1894 
L 4378 0 
L 3022 0 
L 1656 1459 
L 1656 0 
L 538 0 
L 538 4863 
z
" transform="scale(0.015625)"/>
       <path id="DejaVuSans-Bold-57" d="M 191 4666 
L 1344 4666 
L 2150 1275 
L 2950 4666 
L 4109 4666 
L 4909 1275 
L 5716 4666 
L 6859 4666 
L 5759 0 
L 4372 0 
L 3525 3547 
L 2688 0 
L 1300 0 
L 191 4666 
z
" transform="scale(0.015625)"/>
       <path id="DejaVuSans-Bold-68" d="M 4056 2131 
L 4056 0 
L 2931 0 
L 2931 347 
L 2931 1625 
Q 2931 2084 2911 2256 
Q 2891 2428 2841 2509 
Q 2775 2619 2662 2680 
Q 2550 2741 2406 2741 
Q 2056 2741 1856 2470 
Q 1656 2200 1656 1722 
L 1656 0 
L 538 0 
L 538 4863 
L 1656 4863 
L 1656 2988 
Q 1909 3294 2193 3439 
Q 2478 3584 2822 3584 
Q 3428 3584 3742 3212 
Q 4056 2841 4056 2131 
z
" transform="scale(0.015625)"/>
       <path id="DejaVuSans-Bold-29" d="M 513 -844 
Q 913 -100 1113 609 
Q 1313 1319 1313 2009 
Q 1313 2700 1113 3408 
Q 913 4116 513 4856 
L 1441 4856 
Q 1916 4091 2145 3389 
Q 2375 2688 2375 2003 
Q 2375 1319 2147 623 
Q 1919 -72 1441 -844 
L 513 -844 
z
" transform="scale(0.015625)"/>
      </defs>
      <use xlink:href="#DejaVuSans-Bold-51"/>
      <use xlink:href="#DejaVuSans-Bold-20" x="85.009766"/>
      <use xlink:href="#DejaVuSans-Bold-28" x="119.824219"/>
      <use xlink:href="#DejaVuSans-Bold-6d" x="165.527344"/>
      <use xlink:href="#DejaVuSans-Bold-69" x="269.726562"/>
      <use xlink:href="#DejaVuSans-Bold-6c" x="304.003906"/>
      <use xlink:href="#DejaVuSans-Bold-6c" x="338.28125"/>
      <use xlink:href="#DejaVuSans-Bold-6f" x="372.558594"/>
      <use xlink:href="#DejaVuSans-Bold-6e" x="441.259766"/>
      <use xlink:href="#DejaVuSans-Bold-65" x="512.451172"/>
      <use xlink:href="#DejaVuSans-Bold-73" x="580.273438"/>
      <use xlink:href="#DejaVuSans-Bold-20" x="639.794922"/>
      <use xlink:href="#DejaVuSans-Bold-6b" x="674.609375"/>
      <use xlink:href="#DejaVuSans-Bold-57" x="741.113281"/>
      <use xlink:href="#DejaVuSans-Bold-68" x="851.416016"/>
      <use xlink:href="#DejaVuSans-Bold-29" x="922.607422"/>
     </g>
    </g>
   </g>
   <g id="matplotlib.axis_2">
    <g id="ytick_1">
     <g id="line2d_13">
      <path d="M 109.997595 380.79553 
L 723.797595 380.79553 
" clip-path="url(#pf88b7c297a)" style="fill: none; stroke-dasharray: 0.8,1.32; stroke-dashoffset: 0; stroke: #b0b0b0; stroke-opacity: 0.4; stroke-width: 0.8"/>
     </g>
     <g id="line2d_14">
      <defs>
       <path id="m09a1ff5d8c" d="M 0 0 
L 4 0 
" style="stroke: #000000"/>
      </defs>
      <g>
       <use xlink:href="#m09a1ff5d8c" x="130.804375" y="380.79553" style="stroke: #000000"/>
      </g>
     </g>
     <g id="text_8">
      <!-- 0 -->
      <g transform="translate(120.941875 384.594748) scale(0.1 -0.1)">
       <use xlink:href="#DejaVuSans-30"/>
      </g>
     </g>
    </g>
    <g id="ytick_2">
     <g id="line2d_15">
      <path d="M 109.997595 336.849188 
L 723.797595 336.849188 
" clip-path="url(#pf88b7c297a)" style="fill: none; stroke-dasharray: 0.8,1.32; stroke-dashoffset: 0; stroke: #b0b0b0; stroke-opacity: 0.4; stroke-width: 0.8"/>
     </g>
     <g id="line2d_16">
      <g>
       <use xlink:href="#m09a1ff5d8c" x="130.804375" y="336.849188" style="stroke: #000000"/>
      </g>
     </g>
     <g id="text_9">
      <!-- 1 -->
      <g transform="translate(120.941875 340.648407) scale(0.1 -0.1)">
       <use xlink:href="#DejaVuSans-31"/>
      </g>
     </g>
    </g>
    <g id="ytick_3">
     <g id="line2d_17">
      <path d="M 109.997595 292.902847 
L 723.797595 292.902847 
" clip-path="url(#pf88b7c297a)" style="fill: none; stroke-dasharray: 0.8,1.32; stroke-dashoffset: 0; stroke: #b0b0b0; stroke-opacity: 0.4; stroke-width: 0.8"/>
     </g>
     <g id="line2d_18">
      <g>
       <use xlink:href="#m09a1ff5d8c" x="130.804375" y="292.902847" style="stroke: #000000"/>
      </g>
     </g>
     <g id="text_10">
      <!-- 2 -->
      <g transform="translate(120.941875 296.702066) scale(0.1 -0.1)">
       <use xlink:href="#DejaVuSans-32"/>
      </g>
     </g>
    </g>
    <g id="ytick_4">
     <g id="line2d_19">
      <path d="M 109.997595 248.956505 
L 723.797595 248.956505 
" clip-path="url(#pf88b7c297a)" style="fill: none; stroke-dasharray: 0.8,1.32; stroke-dashoffset: 0; stroke: #b0b0b0; stroke-opacity: 0.4; stroke-width: 0.8"/>
     </g>
     <g id="line2d_20">
      <g>
       <use xlink:href="#m09a1ff5d8c" x="130.804375" y="248.956505" style="stroke: #000000"/>
      </g>
     </g>
     <g id="text_11">
      <!-- 3 -->
      <g transform="translate(120.941875 252.755724) scale(0.1 -0.1)">
       <use xlink:href="#DejaVuSans-33"/>
      </g>
     </g>
    </g>
    <g id="ytick_5">
     <g id="line2d_21">
      <path d="M 109.997595 205.010164 
L 723.797595 205.010164 
" clip-path="url(#pf88b7c297a)" style="fill: none; stroke-dasharray: 0.8,1.32; stroke-dashoffset: 0; stroke: #b0b0b0; stroke-opacity: 0.4; stroke-width: 0.8"/>
     </g>
     <g id="line2d_22">
      <g>
       <use xlink:href="#m09a1ff5d8c" x="130.804375" y="205.010164" style="stroke: #000000"/>
      </g>
     </g>
     <g id="text_12">
      <!-- 4 -->
      <g transform="translate(120.941875 208.809383) scale(0.1 -0.1)">
       <use xlink:href="#DejaVuSans-34"/>
      </g>
     </g>
    </g>
    <g id="ytick_6">
     <g id="line2d_23">
      <path d="M 109.997595 161.063822 
L 723.797595 161.063822 
" clip-path="url(#pf88b7c297a)" style="fill: none; stroke-dasharray: 0.8,1.32; stroke-dashoffset: 0; stroke: #b0b0b0; stroke-opacity: 0.4; stroke-width: 0.8"/>
     </g>
     <g id="line2d_24">
      <g>
       <use xlink:href="#m09a1ff5d8c" x="130.804375" y="161.063822" style="stroke: #000000"/>
      </g>
     </g>
     <g id="text_13">
      <!-- 5 -->
      <g transform="translate(120.941875 164.863041) scale(0.1 -0.1)">
       <use xlink:href="#DejaVuSans-35"/>
      </g>
     </g>
    </g>
    <g id="ytick_7">
     <g id="line2d_25">
      <path d="M 109.997595 117.117481 
L 723.797595 117.117481 
" clip-path="url(#pf88b7c297a)" style="fill: none; stroke-dasharray: 0.8,1.32; stroke-dashoffset: 0; stroke: #b0b0b0; stroke-opacity: 0.4; stroke-width: 0.8"/>
     </g>
     <g id="line2d_26">
      <g>
       <use xlink:href="#m09a1ff5d8c" x="130.804375" y="117.117481" style="stroke: #000000"/>
      </g>
     </g>
     <g id="text_14">
      <!-- 6 -->
      <g transform="translate(120.941875 120.9167) scale(0.1 -0.1)">
       <defs>
        <path id="DejaVuSans-36" d="M 2113 2584 
Q 1688 2584 1439 2293 
Q 1191 2003 1191 1497 
Q 1191 994 1439 701 
Q 1688 409 2113 409 
Q 2538 409 2786 701 
Q 3034 994 3034 1497 
Q 3034 2003 2786 2293 
Q 2538 2584 2113 2584 
z
M 3366 4563 
L 3366 3988 
Q 3128 4100 2886 4159 
Q 2644 4219 2406 4219 
Q 1781 4219 1451 3797 
Q 1122 3375 1075 2522 
Q 1259 2794 1537 2939 
Q 1816 3084 2150 3084 
Q 2853 3084 3261 2657 
Q 3669 2231 3669 1497 
Q 3669 778 3244 343 
Q 2819 -91 2113 -91 
Q 1303 -91 875 529 
Q 447 1150 447 2328 
Q 447 3434 972 4092 
Q 1497 4750 2381 4750 
Q 2619 4750 2861 4703 
Q 3103 4656 3366 4563 
z
" transform="scale(0.015625)"/>
       </defs>
       <use xlink:href="#DejaVuSans-36"/>
      </g>
     </g>
    </g>
    <g id="ytick_8">
     <g id="line2d_27">
      <path d="M 109.997595 73.171139 
L 723.797595 73.171139 
" clip-path="url(#pf88b7c297a)" style="fill: none; stroke-dasharray: 0.8,1.32; stroke-dashoffset: 0; stroke: #b0b0b0; stroke-opacity: 0.4; stroke-width: 0.8"/>
     </g>
     <g id="line2d_28">
      <g>
       <use xlink:href="#m09a1ff5d8c" x="130.804375" y="73.171139" style="stroke: #000000"/>
      </g>
     </g>
     <g id="text_15">
      <!-- 7 -->
      <g transform="translate(120.941875 76.970358) scale(0.1 -0.1)">
       <defs>
        <path id="DejaVuSans-37" d="M 525 4666 
L 3525 4666 
L 3525 4397 
L 1831 0 
L 1172 0 
L 2766 4134 
L 525 4134 
L 525 4666 
z
" transform="scale(0.015625)"/>
       </defs>
       <use xlink:href="#DejaVuSans-37"/>
      </g>
     </g>
    </g>
    <g id="text_16">
     <!-- P (ctvos/kWh) -->
     <g transform="translate(28.8 48.702344) scale(0.12 -0.12)">
      <defs>
       <path id="DejaVuSans-Bold-50" d="M 588 4666 
L 2584 4666 
Q 3475 4666 3951 4270 
Q 4428 3875 4428 3144 
Q 4428 2409 3951 2014 
Q 3475 1619 2584 1619 
L 1791 1619 
L 1791 0 
L 588 0 
L 588 4666 
z
M 1791 3794 
L 1791 2491 
L 2456 2491 
Q 2806 2491 2997 2661 
Q 3188 2831 3188 3144 
Q 3188 3456 2997 3625 
Q 2806 3794 2456 3794 
L 1791 3794 
z
" transform="scale(0.015625)"/>
       <path id="DejaVuSans-Bold-63" d="M 3366 3391 
L 3366 2478 
Q 3138 2634 2908 2709 
Q 2678 2784 2431 2784 
Q 1963 2784 1702 2511 
Q 1441 2238 1441 1747 
Q 1441 1256 1702 982 
Q 1963 709 2431 709 
Q 2694 709 2930 787 
Q 3166 866 3366 1019 
L 3366 103 
Q 3103 6 2833 -42 
Q 2563 -91 2291 -91 
Q 1344 -91 809 395 
Q 275 881 275 1747 
Q 275 2613 809 3098 
Q 1344 3584 2291 3584 
Q 2566 3584 2833 3536 
Q 3100 3488 3366 3391 
z
" transform="scale(0.015625)"/>
       <path id="DejaVuSans-Bold-74" d="M 1759 4494 
L 1759 3500 
L 2913 3500 
L 2913 2700 
L 1759 2700 
L 1759 1216 
Q 1759 972 1856 886 
Q 1953 800 2241 800 
L 2816 800 
L 2816 0 
L 1856 0 
Q 1194 0 917 276 
Q 641 553 641 1216 
L 641 2700 
L 84 2700 
L 84 3500 
L 641 3500 
L 641 4494 
L 1759 4494 
z
" transform="scale(0.015625)"/>
       <path id="DejaVuSans-Bold-76" d="M 97 3500 
L 1216 3500 
L 2088 1081 
L 2956 3500 
L 4078 3500 
L 2700 0 
L 1472 0 
L 97 3500 
z
" transform="scale(0.015625)"/>
       <path id="DejaVuSans-Bold-2f" d="M 1644 4666 
L 2338 4666 
L 691 -594 
L 0 -594 
L 1644 4666 
z
" transform="scale(0.015625)"/>
      </defs>
      <use xlink:href="#DejaVuSans-Bold-50"/>
      <use xlink:href="#DejaVuSans-Bold-20" x="73.291016"/>
      <use xlink:href="#DejaVuSans-Bold-28" x="108.105469"/>
      <use xlink:href="#DejaVuSans-Bold-63" x="153.808594"/>
      <use xlink:href="#DejaVuSans-Bold-74" x="213.085938"/>
      <use xlink:href="#DejaVuSans-Bold-76" x="260.888672"/>
      <use xlink:href="#DejaVuSans-Bold-6f" x="326.074219"/>
      <use xlink:href="#DejaVuSans-Bold-73" x="394.775391"/>
      <use xlink:href="#DejaVuSans-Bold-2f" x="454.296875"/>
      <use xlink:href="#DejaVuSans-Bold-6b" x="490.820312"/>
      <use xlink:href="#DejaVuSans-Bold-57" x="557.324219"/>
      <use xlink:href="#DejaVuSans-Bold-68" x="667.626953"/>
      <use xlink:href="#DejaVuSans-Bold-29" x="738.818359"/>
     </g>
    </g>
   </g>
   <g id="line2d_29">
    <path d="M 130.804375 117.117481 
L 650.973867 336.849188 
L 650.973867 336.849188 
" clip-path="url(#pf88b7c297a)" style="fill: none; stroke: #c0392b; stroke-width: 3; stroke-linecap: square"/>
   </g>
   <g id="line2d_30">
    <path d="M 130.804375 117.117481 
L 514.590611 441.357969 
L 514.590611 441.357969 
" clip-path="url(#pf88b7c297a)" style="fill: none; stroke-dasharray: 9.25,4; stroke-dashoffset: 0; stroke: #e6796b; stroke-width: 2.5"/>
   </g>
   <g id="line2d_31">
    <path d="M 130.804375 325.862603 
L 650.973867 161.063822 
L 650.973867 161.063822 
" clip-path="url(#pf88b7c297a)" style="fill: none; stroke: #e67e22; stroke-width: 3; stroke-linecap: square"/>
   </g>
   <g id="line2d_32">
    <defs>
     <path id="mc05c8a66e6" d="M 4 0 
L -4 -4 
L -4 4 
z
" style="stroke: #000000; stroke-linejoin: miter"/>
    </defs>
    <g>
     <use xlink:href="#mc05c8a66e6" x="723.797595" y="380.79553" style="stroke: #000000; stroke-linejoin: miter"/>
    </g>
   </g>
   <g id="line2d_33">
    <defs>
     <path id="m85d08ef0bb" d="M 0 -4 
L -4 4 
L 4 4 
z
" style="stroke: #000000; stroke-linejoin: miter"/>
    </defs>
    <g>
     <use xlink:href="#m85d08ef0bb" x="130.804375" y="51.197969" style="stroke: #000000; stroke-linejoin: miter"/>
    </g>
   </g>
   <g id="patch_3">
    <path d="M 130.804375 411.557969 
L 130.804375 51.197969 
" style="fill: none; stroke: #000000; stroke-width: 1.4; stroke-linejoin: miter; stroke-linecap: square"/>
   </g>
   <g id="patch_4">
    <path d="M 109.997595 380.79553 
L 723.797595 380.79553 
" style="fill: none; stroke: #000000; stroke-width: 1.4; stroke-linejoin: miter; stroke-linecap: square"/>
   </g>
   <g id="text_17">
    <!-- Ej 9 — NStar: regulación vs monopolio + DWL -->
    <g transform="translate(250.370642 39.197969) scale(0.13 -0.13)">
     <defs>
      <path id="DejaVuSans-Bold-45" d="M 588 4666 
L 3834 4666 
L 3834 3756 
L 1791 3756 
L 1791 2888 
L 3713 2888 
L 3713 1978 
L 1791 1978 
L 1791 909 
L 3903 909 
L 3903 0 
L 588 0 
L 588 4666 
z
" transform="scale(0.015625)"/>
      <path id="DejaVuSans-Bold-6a" d="M 538 3500 
L 1656 3500 
L 1656 63 
Q 1656 -641 1318 -1011 
Q 981 -1381 341 -1381 
L -213 -1381 
L -213 -647 
L -19 -647 
Q 300 -647 419 -503 
Q 538 -359 538 63 
L 538 3500 
z
M 538 4863 
L 1656 4863 
L 1656 3950 
L 538 3950 
L 538 4863 
z
" transform="scale(0.015625)"/>
      <path id="DejaVuSans-Bold-39" d="M 641 103 
L 641 966 
Q 928 831 1190 764 
Q 1453 697 1709 697 
Q 2247 697 2547 995 
Q 2847 1294 2900 1881 
Q 2688 1725 2447 1647 
Q 2206 1569 1925 1569 
Q 1209 1569 770 1986 
Q 331 2403 331 3084 
Q 331 3838 820 4291 
Q 1309 4744 2131 4744 
Q 3044 4744 3544 4128 
Q 4044 3513 4044 2388 
Q 4044 1231 3459 570 
Q 2875 -91 1856 -91 
Q 1528 -91 1228 -42 
Q 928 6 641 103 
z
M 2125 2350 
Q 2441 2350 2600 2554 
Q 2759 2759 2759 3169 
Q 2759 3575 2600 3781 
Q 2441 3988 2125 3988 
Q 1809 3988 1650 3781 
Q 1491 3575 1491 3169 
Q 1491 2759 1650 2554 
Q 1809 2350 2125 2350 
z
" transform="scale(0.015625)"/>
      <path id="DejaVuSans-Bold-2014" d="M 344 2156 
L 6056 2156 
L 6056 1350 
L 344 1350 
L 344 2156 
z
" transform="scale(0.015625)"/>
      <path id="DejaVuSans-Bold-4e" d="M 588 4666 
L 1931 4666 
L 3628 1466 
L 3628 4666 
L 4769 4666 
L 4769 0 
L 3425 0 
L 1728 3200 
L 1728 0 
L 588 0 
L 588 4666 
z
" transform="scale(0.015625)"/>
      <path id="DejaVuSans-Bold-53" d="M 3834 4519 
L 3834 3531 
Q 3450 3703 3084 3790 
Q 2719 3878 2394 3878 
Q 1963 3878 1756 3759 
Q 1550 3641 1550 3391 
Q 1550 3203 1689 3098 
Q 1828 2994 2194 2919 
L 2706 2816 
Q 3484 2659 3812 2340 
Q 4141 2022 4141 1434 
Q 4141 663 3683 286 
Q 3225 -91 2284 -91 
Q 1841 -91 1394 -6 
Q 947 78 500 244 
L 500 1259 
Q 947 1022 1364 901 
Q 1781 781 2169 781 
Q 2563 781 2772 912 
Q 2981 1044 2981 1288 
Q 2981 1506 2839 1625 
Q 2697 1744 2272 1838 
L 1806 1941 
Q 1106 2091 782 2419 
Q 459 2747 459 3303 
Q 459 4000 909 4375 
Q 1359 4750 2203 4750 
Q 2588 4750 2994 4692 
Q 3400 4634 3834 4519 
z
" transform="scale(0.015625)"/>
      <path id="DejaVuSans-Bold-61" d="M 2106 1575 
Q 1756 1575 1579 1456 
Q 1403 1338 1403 1106 
Q 1403 894 1545 773 
Q 1688 653 1941 653 
Q 2256 653 2472 879 
Q 2688 1106 2688 1447 
L 2688 1575 
L 2106 1575 
z
M 3816 1997 
L 3816 0 
L 2688 0 
L 2688 519 
Q 2463 200 2181 54 
Q 1900 -91 1497 -91 
Q 953 -91 614 226 
Q 275 544 275 1050 
Q 275 1666 698 1953 
Q 1122 2241 2028 2241 
L 2688 2241 
L 2688 2328 
Q 2688 2594 2478 2717 
Q 2269 2841 1825 2841 
Q 1466 2841 1156 2769 
Q 847 2697 581 2553 
L 581 3406 
Q 941 3494 1303 3539 
Q 1666 3584 2028 3584 
Q 2975 3584 3395 3211 
Q 3816 2838 3816 1997 
z
" transform="scale(0.015625)"/>
      <path id="DejaVuSans-Bold-72" d="M 3138 2547 
Q 2991 2616 2845 2648 
Q 2700 2681 2553 2681 
Q 2122 2681 1889 2404 
Q 1656 2128 1656 1613 
L 1656 0 
L 538 0 
L 538 3500 
L 1656 3500 
L 1656 2925 
Q 1872 3269 2151 3426 
Q 2431 3584 2822 3584 
Q 2878 3584 2943 3579 
Q 3009 3575 3134 3559 
L 3138 2547 
z
" transform="scale(0.015625)"/>
      <path id="DejaVuSans-Bold-3a" d="M 716 3500 
L 1844 3500 
L 1844 2291 
L 716 2291 
L 716 3500 
z
M 716 1209 
L 1844 1209 
L 1844 0 
L 716 0 
L 716 1209 
z
" transform="scale(0.015625)"/>
      <path id="DejaVuSans-Bold-67" d="M 2919 594 
Q 2688 288 2409 144 
Q 2131 0 1766 0 
Q 1125 0 706 504 
Q 288 1009 288 1791 
Q 288 2575 706 3076 
Q 1125 3578 1766 3578 
Q 2131 3578 2409 3434 
Q 2688 3291 2919 2981 
L 2919 3500 
L 4044 3500 
L 4044 353 
Q 4044 -491 3511 -936 
Q 2978 -1381 1966 -1381 
Q 1638 -1381 1331 -1331 
Q 1025 -1281 716 -1178 
L 716 -306 
Q 1009 -475 1290 -558 
Q 1572 -641 1856 -641 
Q 2406 -641 2662 -400 
Q 2919 -159 2919 353 
L 2919 594 
z
M 2181 2772 
Q 1834 2772 1640 2515 
Q 1447 2259 1447 1791 
Q 1447 1309 1634 1061 
Q 1822 813 2181 813 
Q 2531 813 2725 1069 
Q 2919 1325 2919 1791 
Q 2919 2259 2725 2515 
Q 2531 2772 2181 2772 
z
" transform="scale(0.015625)"/>
      <path id="DejaVuSans-Bold-75" d="M 500 1363 
L 500 3500 
L 1625 3500 
L 1625 3150 
Q 1625 2866 1622 2436 
Q 1619 2006 1619 1863 
Q 1619 1441 1641 1255 
Q 1663 1069 1716 984 
Q 1784 875 1895 815 
Q 2006 756 2150 756 
Q 2500 756 2700 1025 
Q 2900 1294 2900 1772 
L 2900 3500 
L 4019 3500 
L 4019 0 
L 2900 0 
L 2900 506 
Q 2647 200 2364 54 
Q 2081 -91 1741 -91 
Q 1134 -91 817 281 
Q 500 653 500 1363 
z
" transform="scale(0.015625)"/>
      <path id="DejaVuSans-Bold-f3" d="M 2203 2784 
Q 1831 2784 1636 2517 
Q 1441 2250 1441 1747 
Q 1441 1244 1636 976 
Q 1831 709 2203 709 
Q 2569 709 2762 976 
Q 2956 1244 2956 1747 
Q 2956 2250 2762 2517 
Q 2569 2784 2203 2784 
z
M 2203 3584 
Q 3106 3584 3614 3096 
Q 4122 2609 4122 1747 
Q 4122 884 3614 396 
Q 3106 -91 2203 -91 
Q 1297 -91 786 396 
Q 275 884 275 1747 
Q 275 2609 786 3096 
Q 1297 3584 2203 3584 
z
M 2694 5119 
L 3578 5119 
L 2425 3944 
L 1813 3944 
L 2694 5119 
z
" transform="scale(0.015625)"/>
      <path id="DejaVuSans-Bold-70" d="M 1656 506 
L 1656 -1331 
L 538 -1331 
L 538 3500 
L 1656 3500 
L 1656 2988 
Q 1888 3294 2169 3439 
Q 2450 3584 2816 3584 
Q 3463 3584 3878 3070 
Q 4294 2556 4294 1747 
Q 4294 938 3878 423 
Q 3463 -91 2816 -91 
Q 2450 -91 2169 54 
Q 1888 200 1656 506 
z
M 2400 2772 
Q 2041 2772 1848 2508 
Q 1656 2244 1656 1747 
Q 1656 1250 1848 986 
Q 2041 722 2400 722 
Q 2759 722 2948 984 
Q 3138 1247 3138 1747 
Q 3138 2247 2948 2509 
Q 2759 2772 2400 2772 
z
" transform="scale(0.015625)"/>
      <path id="DejaVuSans-Bold-2b" d="M 3053 4013 
L 3053 2375 
L 4684 2375 
L 4684 1638 
L 3053 1638 
L 3053 0 
L 2309 0 
L 2309 1638 
L 678 1638 
L 678 2375 
L 2309 2375 
L 2309 4013 
L 3053 4013 
z
" transform="scale(0.015625)"/>
      <path id="DejaVuSans-Bold-44" d="M 1791 3756 
L 1791 909 
L 2222 909 
Q 2959 909 3348 1275 
Q 3738 1641 3738 2338 
Q 3738 3031 3350 3393 
Q 2963 3756 2222 3756 
L 1791 3756 
z
M 588 4666 
L 1856 4666 
Q 2919 4666 3439 4514 
Q 3959 4363 4331 4000 
Q 4659 3684 4818 3271 
Q 4978 2859 4978 2338 
Q 4978 1809 4818 1395 
Q 4659 981 4331 666 
Q 3956 303 3431 151 
Q 2906 0 1856 0 
L 588 0 
L 588 4666 
z
" transform="scale(0.015625)"/>
      <path id="DejaVuSans-Bold-4c" d="M 588 4666 
L 1791 4666 
L 1791 909 
L 3903 909 
L 3903 0 
L 588 0 
L 588 4666 
z
" transform="scale(0.015625)"/>
     </defs>
     <use xlink:href="#DejaVuSans-Bold-45"/>
     <use xlink:href="#DejaVuSans-Bold-6a" x="68.310547"/>
     <use xlink:href="#DejaVuSans-Bold-20" x="102.587891"/>
     <use xlink:href="#DejaVuSans-Bold-39" x="137.402344"/>
     <use xlink:href="#DejaVuSans-Bold-20" x="206.982422"/>
     <use xlink:href="#DejaVuSans-Bold-2014" x="241.796875"/>
     <use xlink:href="#DejaVuSans-Bold-20" x="341.796875"/>
     <use xlink:href="#DejaVuSans-Bold-4e" x="376.611328"/>
     <use xlink:href="#DejaVuSans-Bold-53" x="460.302734"/>
     <use xlink:href="#DejaVuSans-Bold-74" x="532.324219"/>
     <use xlink:href="#DejaVuSans-Bold-61" x="580.126953"/>
     <use xlink:href="#DejaVuSans-Bold-72" x="647.607422"/>
     <use xlink:href="#DejaVuSans-Bold-3a" x="696.923828"/>
     <use xlink:href="#DejaVuSans-Bold-20" x="736.914062"/>
     <use xlink:href="#DejaVuSans-Bold-72" x="771.728516"/>
     <use xlink:href="#DejaVuSans-Bold-65" x="821.044922"/>
     <use xlink:href="#DejaVuSans-Bold-67" x="888.867188"/>
     <use xlink:href="#DejaVuSans-Bold-75" x="960.449219"/>
     <use xlink:href="#DejaVuSans-Bold-6c" x="1031.640625"/>
     <use xlink:href="#DejaVuSans-Bold-61" x="1065.917969"/>
     <use xlink:href="#DejaVuSans-Bold-63" x="1133.398438"/>
     <use xlink:href="#DejaVuSans-Bold-69" x="1192.675781"/>
     <use xlink:href="#DejaVuSans-Bold-f3" x="1226.953125"/>
     <use xlink:href="#DejaVuSans-Bold-6e" x="1295.654297"/>
     <use xlink:href="#DejaVuSans-Bold-20" x="1366.845703"/>
     <use xlink:href="#DejaVuSans-Bold-76" x="1401.660156"/>
     <use xlink:href="#DejaVuSans-Bold-73" x="1466.845703"/>
     <use xlink:href="#DejaVuSans-Bold-20" x="1526.367188"/>
     <use xlink:href="#DejaVuSans-Bold-6d" x="1561.181641"/>
     <use xlink:href="#DejaVuSans-Bold-6f" x="1665.380859"/>
     <use xlink:href="#DejaVuSans-Bold-6e" x="1734.082031"/>
     <use xlink:href="#DejaVuSans-Bold-6f" x="1805.273438"/>
     <use xlink:href="#DejaVuSans-Bold-70" x="1873.974609"/>
     <use xlink:href="#DejaVuSans-Bold-6f" x="1945.556641"/>
     <use xlink:href="#DejaVuSans-Bold-6c" x="2014.257812"/>
     <use xlink:href="#DejaVuSans-Bold-69" x="2048.535156"/>
     <use xlink:href="#DejaVuSans-Bold-6f" x="2082.8125"/>
     <use xlink:href="#DejaVuSans-Bold-20" x="2151.513672"/>
     <use xlink:href="#DejaVuSans-Bold-2b" x="2186.328125"/>
     <use xlink:href="#DejaVuSans-Bold-20" x="2270.117188"/>
     <use xlink:href="#DejaVuSans-Bold-44" x="2304.931641"/>
     <use xlink:href="#DejaVuSans-Bold-57" x="2387.939453"/>
     <use xlink:href="#DejaVuSans-Bold-4c" x="2498.242188"/>
    </g>
   </g>
   <g id="legend_1">
    <g id="patch_5">
     <path d="M 737.873595 106.739219 
L 860.124533 106.739219 
Q 861.924533 106.739219 861.924533 104.939219 
L 861.924533 52.997969 
Q 861.924533 51.197969 860.124533 51.197969 
L 737.873595 51.197969 
Q 736.073595 51.197969 736.073595 52.997969 
L 736.073595 104.939219 
Q 736.073595 106.739219 737.873595 106.739219 
z
" style="fill: #ffffff; opacity: 0.8; stroke: #cccccc; stroke-linejoin: miter"/>
    </g>
    <g id="line2d_34">
     <path d="M 739.673595 58.486562 
L 748.673595 58.486562 
L 757.673595 58.486562 
" style="fill: none; stroke: #c0392b; stroke-width: 3; stroke-linecap: square"/>
    </g>
    <g id="text_18">
     <!-- D: P = 6 − Q -->
     <g transform="translate(764.873595 61.636562) scale(0.09 -0.09)">
      <defs>
       <path id="DejaVuSans-44" d="M 1259 4147 
L 1259 519 
L 2022 519 
Q 2988 519 3436 956 
Q 3884 1394 3884 2338 
Q 3884 3275 3436 3711 
Q 2988 4147 2022 4147 
L 1259 4147 
z
M 628 4666 
L 1925 4666 
Q 3281 4666 3915 4102 
Q 4550 3538 4550 2338 
Q 4550 1131 3912 565 
Q 3275 0 1925 0 
L 628 0 
L 628 4666 
z
" transform="scale(0.015625)"/>
       <path id="DejaVuSans-3a" d="M 750 794 
L 1409 794 
L 1409 0 
L 750 0 
L 750 794 
z
M 750 3309 
L 1409 3309 
L 1409 2516 
L 750 2516 
L 750 3309 
z
" transform="scale(0.015625)"/>
       <path id="DejaVuSans-20" transform="scale(0.015625)"/>
       <path id="DejaVuSans-50" d="M 1259 4147 
L 1259 2394 
L 2053 2394 
Q 2494 2394 2734 2622 
Q 2975 2850 2975 3272 
Q 2975 3691 2734 3919 
Q 2494 4147 2053 4147 
L 1259 4147 
z
M 628 4666 
L 2053 4666 
Q 2838 4666 3239 4311 
Q 3641 3956 3641 3272 
Q 3641 2581 3239 2228 
Q 2838 1875 2053 1875 
L 1259 1875 
L 1259 0 
L 628 0 
L 628 4666 
z
" transform="scale(0.015625)"/>
       <path id="DejaVuSans-3d" d="M 678 2906 
L 4684 2906 
L 4684 2381 
L 678 2381 
L 678 2906 
z
M 678 1631 
L 4684 1631 
L 4684 1100 
L 678 1100 
L 678 1631 
z
" transform="scale(0.015625)"/>
       <path id="DejaVuSans-2212" d="M 678 2272 
L 4684 2272 
L 4684 1741 
L 678 1741 
L 678 2272 
z
" transform="scale(0.015625)"/>
       <path id="DejaVuSans-51" d="M 2522 4238 
Q 1834 4238 1429 3725 
Q 1025 3213 1025 2328 
Q 1025 1447 1429 934 
Q 1834 422 2522 422 
Q 3209 422 3611 934 
Q 4013 1447 4013 2328 
Q 4013 3213 3611 3725 
Q 3209 4238 2522 4238 
z
M 3406 84 
L 4238 -825 
L 3475 -825 
L 2784 -78 
Q 2681 -84 2626 -87 
Q 2572 -91 2522 -91 
Q 1538 -91 948 567 
Q 359 1225 359 2328 
Q 359 3434 948 4092 
Q 1538 4750 2522 4750 
Q 3503 4750 4090 4092 
Q 4678 3434 4678 2328 
Q 4678 1516 4351 937 
Q 4025 359 3406 84 
z
" transform="scale(0.015625)"/>
      </defs>
      <use xlink:href="#DejaVuSans-44"/>
      <use xlink:href="#DejaVuSans-3a" x="77.001953"/>
      <use xlink:href="#DejaVuSans-20" x="110.693359"/>
      <use xlink:href="#DejaVuSans-50" x="142.480469"/>
      <use xlink:href="#DejaVuSans-20" x="202.783203"/>
      <use xlink:href="#DejaVuSans-3d" x="234.570312"/>
      <use xlink:href="#DejaVuSans-20" x="318.359375"/>
      <use xlink:href="#DejaVuSans-36" x="350.146484"/>
      <use xlink:href="#DejaVuSans-20" x="413.769531"/>
      <use xlink:href="#DejaVuSans-2212" x="445.556641"/>
      <use xlink:href="#DejaVuSans-20" x="529.345703"/>
      <use xlink:href="#DejaVuSans-51" x="561.132812"/>
     </g>
    </g>
    <g id="line2d_35">
     <path d="M 739.673595 71.696875 
L 748.673595 71.696875 
L 757.673595 71.696875 
" style="fill: none; stroke-dasharray: 9.25,4; stroke-dashoffset: 0; stroke: #e6796b; stroke-width: 2.5"/>
    </g>
    <g id="text_19">
     <!-- IMg = 6 − 2Q -->
     <g transform="translate(764.873595 74.846875) scale(0.09 -0.09)">
      <defs>
       <path id="DejaVuSans-49" d="M 628 4666 
L 1259 4666 
L 1259 0 
L 628 0 
L 628 4666 
z
" transform="scale(0.015625)"/>
       <path id="DejaVuSans-4d" d="M 628 4666 
L 1569 4666 
L 2759 1491 
L 3956 4666 
L 4897 4666 
L 4897 0 
L 4281 0 
L 4281 4097 
L 3078 897 
L 2444 897 
L 1241 4097 
L 1241 0 
L 628 0 
L 628 4666 
z
" transform="scale(0.015625)"/>
       <path id="DejaVuSans-67" d="M 2906 1791 
Q 2906 2416 2648 2759 
Q 2391 3103 1925 3103 
Q 1463 3103 1205 2759 
Q 947 2416 947 1791 
Q 947 1169 1205 825 
Q 1463 481 1925 481 
Q 2391 481 2648 825 
Q 2906 1169 2906 1791 
z
M 3481 434 
Q 3481 -459 3084 -895 
Q 2688 -1331 1869 -1331 
Q 1566 -1331 1297 -1286 
Q 1028 -1241 775 -1147 
L 775 -588 
Q 1028 -725 1275 -790 
Q 1522 -856 1778 -856 
Q 2344 -856 2625 -561 
Q 2906 -266 2906 331 
L 2906 616 
Q 2728 306 2450 153 
Q 2172 0 1784 0 
Q 1141 0 747 490 
Q 353 981 353 1791 
Q 353 2603 747 3093 
Q 1141 3584 1784 3584 
Q 2172 3584 2450 3431 
Q 2728 3278 2906 2969 
L 2906 3500 
L 3481 3500 
L 3481 434 
z
" transform="scale(0.015625)"/>
      </defs>
      <use xlink:href="#DejaVuSans-49"/>
      <use xlink:href="#DejaVuSans-4d" x="29.492188"/>
      <use xlink:href="#DejaVuSans-67" x="115.771484"/>
      <use xlink:href="#DejaVuSans-20" x="179.248047"/>
      <use xlink:href="#DejaVuSans-3d" x="211.035156"/>
      <use xlink:href="#DejaVuSans-20" x="294.824219"/>
      <use xlink:href="#DejaVuSans-36" x="326.611328"/>
      <use xlink:href="#DejaVuSans-20" x="390.234375"/>
      <use xlink:href="#DejaVuSans-2212" x="422.021484"/>
      <use xlink:href="#DejaVuSans-20" x="505.810547"/>
      <use xlink:href="#DejaVuSans-32" x="537.597656"/>
      <use xlink:href="#DejaVuSans-51" x="601.220703"/>
     </g>
    </g>
    <g id="line2d_36">
     <path d="M 739.673595 84.907187 
L 748.673595 84.907187 
L 757.673595 84.907187 
" style="fill: none; stroke: #e67e22; stroke-width: 3; stroke-linecap: square"/>
    </g>
    <g id="text_20">
     <!-- CMg = 1.25 + 0.75Q -->
     <g transform="translate(764.873595 88.057187) scale(0.09 -0.09)">
      <defs>
       <path id="DejaVuSans-43" d="M 4122 4306 
L 4122 3641 
Q 3803 3938 3442 4084 
Q 3081 4231 2675 4231 
Q 1875 4231 1450 3742 
Q 1025 3253 1025 2328 
Q 1025 1406 1450 917 
Q 1875 428 2675 428 
Q 3081 428 3442 575 
Q 3803 722 4122 1019 
L 4122 359 
Q 3791 134 3420 21 
Q 3050 -91 2638 -91 
Q 1578 -91 968 557 
Q 359 1206 359 2328 
Q 359 3453 968 4101 
Q 1578 4750 2638 4750 
Q 3056 4750 3426 4639 
Q 3797 4528 4122 4306 
z
" transform="scale(0.015625)"/>
       <path id="DejaVuSans-2e" d="M 684 794 
L 1344 794 
L 1344 0 
L 684 0 
L 684 794 
z
" transform="scale(0.015625)"/>
       <path id="DejaVuSans-2b" d="M 2944 4013 
L 2944 2272 
L 4684 2272 
L 4684 1741 
L 2944 1741 
L 2944 0 
L 2419 0 
L 2419 1741 
L 678 1741 
L 678 2272 
L 2419 2272 
L 2419 4013 
L 2944 4013 
z
" transform="scale(0.015625)"/>
      </defs>
      <use xlink:href="#DejaVuSans-43"/>
      <use xlink:href="#DejaVuSans-4d" x="69.824219"/>
      <use xlink:href="#DejaVuSans-67" x="156.103516"/>
      <use xlink:href="#DejaVuSans-20" x="219.580078"/>
      <use xlink:href="#DejaVuSans-3d" x="251.367188"/>
      <use xlink:href="#DejaVuSans-20" x="335.15625"/>
      <use xlink:href="#DejaVuSans-31" x="366.943359"/>
      <use xlink:href="#DejaVuSans-2e" x="430.566406"/>
      <use xlink:href="#DejaVuSans-32" x="462.353516"/>
      <use xlink:href="#DejaVuSans-35" x="525.976562"/>
      <use xlink:href="#DejaVuSans-20" x="589.599609"/>
      <use xlink:href="#DejaVuSans-2b" x="621.386719"/>
      <use xlink:href="#DejaVuSans-20" x="705.175781"/>
      <use xlink:href="#DejaVuSans-30" x="736.962891"/>
      <use xlink:href="#DejaVuSans-2e" x="800.585938"/>
      <use xlink:href="#DejaVuSans-37" x="832.373047"/>
      <use xlink:href="#DejaVuSans-35" x="895.996094"/>
      <use xlink:href="#DejaVuSans-51" x="959.619141"/>
     </g>
    </g>
    <g id="patch_6">
     <path d="M 739.673595 101.2675 
L 757.673595 101.2675 
L 757.673595 94.9675 
L 739.673595 94.9675 
z
" style="fill: #7d3c98; fill-opacity: 0.4; stroke: #7d3c98; stroke-opacity: 0.4; stroke-linejoin: miter"/>
    </g>
    <g id="text_21">
     <!-- DWL ≈ 0.85 -->
     <g transform="translate(764.873595 101.2675) scale(0.09 -0.09)">
      <defs>
       <path id="DejaVuSans-57" d="M 213 4666 
L 850 4666 
L 1831 722 
L 2809 4666 
L 3519 4666 
L 4500 722 
L 5478 4666 
L 6119 4666 
L 4947 0 
L 4153 0 
L 3169 4050 
L 2175 0 
L 1381 0 
L 213 4666 
z
" transform="scale(0.015625)"/>
       <path id="DejaVuSans-4c" d="M 628 4666 
L 1259 4666 
L 1259 531 
L 3531 531 
L 3531 0 
L 628 0 
L 628 4666 
z
" transform="scale(0.015625)"/>
       <path id="DejaVuSans-2248" d="M 4684 1947 
L 4684 1388 
Q 4356 1144 4076 1036 
Q 3797 928 3494 928 
Q 3150 928 2694 1113 
Q 2663 1125 2641 1134 
Q 2622 1141 2575 1159 
Q 2091 1350 1797 1350 
Q 1522 1350 1253 1231 
Q 984 1113 678 850 
L 678 1409 
Q 1006 1653 1286 1761 
Q 1566 1869 1869 1869 
Q 2213 1869 2672 1684 
Q 2706 1669 2722 1663 
Q 2741 1656 2788 1638 
Q 3272 1447 3566 1447 
Q 3834 1447 4098 1564 
Q 4363 1681 4684 1947 
z
M 4684 3163 
L 4684 2606 
Q 4356 2359 4076 2251 
Q 3797 2144 3494 2144 
Q 3150 2144 2694 2328 
Q 2663 2341 2641 2350 
Q 2622 2356 2575 2375 
Q 2091 2566 1797 2566 
Q 1522 2566 1253 2447 
Q 984 2328 678 2069 
L 678 2625 
Q 1006 2869 1286 2976 
Q 1566 3084 1869 3084 
Q 2213 3084 2672 2900 
Q 2703 2888 2719 2881 
Q 2741 2872 2788 2853 
Q 3272 2663 3566 2663 
Q 3834 2663 4098 2780 
Q 4363 2897 4684 3163 
z
" transform="scale(0.015625)"/>
       <path id="DejaVuSans-38" d="M 2034 2216 
Q 1584 2216 1326 1975 
Q 1069 1734 1069 1313 
Q 1069 891 1326 650 
Q 1584 409 2034 409 
Q 2484 409 2743 651 
Q 3003 894 3003 1313 
Q 3003 1734 2745 1975 
Q 2488 2216 2034 2216 
z
M 1403 2484 
Q 997 2584 770 2862 
Q 544 3141 544 3541 
Q 544 4100 942 4425 
Q 1341 4750 2034 4750 
Q 2731 4750 3128 4425 
Q 3525 4100 3525 3541 
Q 3525 3141 3298 2862 
Q 3072 2584 2669 2484 
Q 3125 2378 3379 2068 
Q 3634 1759 3634 1313 
Q 3634 634 3220 271 
Q 2806 -91 2034 -91 
Q 1263 -91 848 271 
Q 434 634 434 1313 
Q 434 1759 690 2068 
Q 947 2378 1403 2484 
z
M 1172 3481 
Q 1172 3119 1398 2916 
Q 1625 2713 2034 2713 
Q 2441 2713 2670 2916 
Q 2900 3119 2900 3481 
Q 2900 3844 2670 4047 
Q 2441 4250 2034 4250 
Q 1625 4250 1398 4047 
Q 1172 3844 1172 3481 
z
" transform="scale(0.015625)"/>
      </defs>
      <use xlink:href="#DejaVuSans-44"/>
      <use xlink:href="#DejaVuSans-57" x="77.001953"/>
      <use xlink:href="#DejaVuSans-4c" x="175.878906"/>
      <use xlink:href="#DejaVuSans-20" x="231.591797"/>
      <use xlink:href="#DejaVuSans-2248" x="263.378906"/>
      <use xlink:href="#DejaVuSans-20" x="347.167969"/>
      <use xlink:href="#DejaVuSans-30" x="378.955078"/>
      <use xlink:href="#DejaVuSans-2e" x="442.578125"/>
      <use xlink:href="#DejaVuSans-38" x="474.365234"/>
      <use xlink:href="#DejaVuSans-35" x="537.988281"/>
     </g>
    </g>
   </g>
   <g id="line2d_37">
    <defs>
     <path id="me9877d9cce" d="M 0 6.5 
C 1.72382 6.5 3.377269 5.815119 4.596194 4.596194 
C 5.815119 3.377269 6.5 1.72382 6.5 0 
C 6.5 -1.72382 5.815119 -3.377269 4.596194 -4.596194 
C 3.377269 -5.815119 1.72382 -6.5 0 -6.5 
C -1.72382 -6.5 -3.377269 -5.815119 -4.596194 -4.596194 
C -5.815119 -3.377269 -6.5 -1.72382 -6.5 0 
C -6.5 1.72382 -5.815119 3.377269 -4.596194 4.596194 
C -3.377269 5.815119 -1.72382 6.5 0 6.5 
z
" style="stroke: #27ae60"/>
    </defs>
    <g clip-path="url(#pf88b7c297a)">
     <use xlink:href="#me9877d9cce" x="413.182099" y="236.400408" style="fill: #27ae60; stroke: #27ae60"/>
    </g>
   </g>
   <g id="line2d_38">
    <defs>
     <path id="meecf0e862f" d="M 0 6.5 
C 1.72382 6.5 3.377269 5.815119 4.596194 4.596194 
C 5.815119 3.377269 6.5 1.72382 6.5 0 
C 6.5 -1.72382 5.815119 -3.377269 4.596194 -4.596194 
C 3.377269 -5.815119 1.72382 -6.5 0 -6.5 
C -1.72382 -6.5 -3.377269 -5.815119 -4.596194 -4.596194 
C -5.815119 -3.377269 -6.5 -1.72382 -6.5 0 
C -6.5 1.72382 -5.815119 3.377269 -4.596194 4.596194 
C -3.377269 5.815119 -1.72382 6.5 0 6.5 
z
" style="stroke: #c0392b"/>
    </defs>
    <g clip-path="url(#pf88b7c297a)">
     <use xlink:href="#meecf0e862f" x="310.49929" y="193.024798" style="fill: #c0392b; stroke: #c0392b"/>
    </g>
   </g>
   <g id="line2d_39">
    <defs>
     <path id="m758ba0dacc" d="M 0 5 
C 1.326016 5 2.597899 4.473168 3.535534 3.535534 
C 4.473168 2.597899 5 1.326016 5 0 
C 5 -1.326016 4.473168 -2.597899 3.535534 -3.535534 
C 2.597899 -4.473168 1.326016 -5 0 -5 
C -1.326016 -5 -2.597899 -4.473168 -3.535534 -3.535534 
C -4.473168 -2.597899 -5 -1.326016 -5 0 
C -5 1.326016 -4.473168 2.597899 -3.535534 3.535534 
C -2.597899 4.473168 -1.326016 5 0 5 
z
" style="stroke: #e67e22"/>
    </defs>
    <g clip-path="url(#pf88b7c297a)">
     <use xlink:href="#m758ba0dacc" x="310.49929" y="268.932115" style="fill: #e67e22; stroke: #e67e22"/>
    </g>
   </g>
   <g id="patch_7">
    <path d="M 543.312487 156.136984 
Q 479.099129 195.74329 415.837356 234.762666 
" style="fill: none; stroke: #27ae60; stroke-linecap: round"/>
    <path d="M 420.291781 234.365047 
L 415.837356 234.762666 
L 418.191916 230.960555 
" style="fill: none; stroke: #27ae60; stroke-linecap: round"/>
   </g>
   <g id="text_22">
    <g id="patch_8">
     <path d="M 539.923571 154.587412 
L 598.542321 154.587412 
Q 602.542321 154.587412 602.542321 150.587412 
L 602.542321 129.63335 
Q 602.542321 125.63335 598.542321 125.63335 
L 539.923571 125.63335 
Q 535.923571 125.63335 535.923571 129.63335 
L 535.923571 150.587412 
Q 535.923571 154.587412 539.923571 154.587412 
z
" style="fill: #e8f8f5; opacity: 0.97; stroke: #16a085; stroke-linejoin: miter"/>
    </g>
    <!-- R · P=CMg -->
    <g style="fill: #27ae60" transform="translate(539.923571 137.231787) scale(0.1 -0.1)">
     <defs>
      <path id="DejaVuSans-Bold-52" d="M 2297 2597 
Q 2675 2597 2839 2737 
Q 3003 2878 3003 3200 
Q 3003 3519 2839 3656 
Q 2675 3794 2297 3794 
L 1791 3794 
L 1791 2597 
L 2297 2597 
z
M 1791 1766 
L 1791 0 
L 588 0 
L 588 4666 
L 2425 4666 
Q 3347 4666 3776 4356 
Q 4206 4047 4206 3378 
Q 4206 2916 3982 2619 
Q 3759 2322 3309 2181 
Q 3556 2125 3751 1926 
Q 3947 1728 4147 1325 
L 4800 0 
L 3519 0 
L 2950 1159 
Q 2778 1509 2601 1637 
Q 2425 1766 2131 1766 
L 1791 1766 
z
" transform="scale(0.015625)"/>
      <path id="DejaVuSans-Bold-b7" d="M 653 2828 
L 1778 2828 
L 1778 1619 
L 653 1619 
L 653 2828 
z
" transform="scale(0.015625)"/>
      <path id="DejaVuSans-Bold-3d" d="M 678 3084 
L 4684 3084 
L 4684 2350 
L 678 2350 
L 678 3084 
z
M 678 1663 
L 4684 1663 
L 4684 922 
L 678 922 
L 678 1663 
z
" transform="scale(0.015625)"/>
      <path id="DejaVuSans-Bold-43" d="M 4288 256 
Q 3956 84 3597 -3 
Q 3238 -91 2847 -91 
Q 1681 -91 1000 561 
Q 319 1213 319 2328 
Q 319 3447 1000 4098 
Q 1681 4750 2847 4750 
Q 3238 4750 3597 4662 
Q 3956 4575 4288 4403 
L 4288 3438 
Q 3953 3666 3628 3772 
Q 3303 3878 2944 3878 
Q 2300 3878 1931 3465 
Q 1563 3053 1563 2328 
Q 1563 1606 1931 1193 
Q 2300 781 2944 781 
Q 3303 781 3628 887 
Q 3953 994 4288 1222 
L 4288 256 
z
" transform="scale(0.015625)"/>
      <path id="DejaVuSans-Bold-4d" d="M 588 4666 
L 2119 4666 
L 3181 2169 
L 4250 4666 
L 5778 4666 
L 5778 0 
L 4641 0 
L 4641 3413 
L 3566 897 
L 2803 897 
L 1728 3413 
L 1728 0 
L 588 0 
L 588 4666 
z
" transform="scale(0.015625)"/>
     </defs>
     <use xlink:href="#DejaVuSans-Bold-52"/>
     <use xlink:href="#DejaVuSans-Bold-20" x="77.001953"/>
     <use xlink:href="#DejaVuSans-Bold-b7" x="111.816406"/>
     <use xlink:href="#DejaVuSans-Bold-20" x="149.804688"/>
     <use xlink:href="#DejaVuSans-Bold-50" x="184.619141"/>
     <use xlink:href="#DejaVuSans-Bold-3d" x="257.910156"/>
     <use xlink:href="#DejaVuSans-Bold-43" x="341.699219"/>
     <use xlink:href="#DejaVuSans-Bold-4d" x="415.087891"/>
     <use xlink:href="#DejaVuSans-Bold-67" x="514.599609"/>
    </g>
    <!-- (Q=2.71) -->
    <g style="fill: #27ae60" transform="translate(543.886071 148.507725) scale(0.1 -0.1)">
     <defs>
      <path id="DejaVuSans-Bold-32" d="M 1844 884 
L 3897 884 
L 3897 0 
L 506 0 
L 506 884 
L 2209 2388 
Q 2438 2594 2547 2791 
Q 2656 2988 2656 3200 
Q 2656 3528 2436 3728 
Q 2216 3928 1850 3928 
Q 1569 3928 1234 3808 
Q 900 3688 519 3450 
L 519 4475 
Q 925 4609 1322 4679 
Q 1719 4750 2100 4750 
Q 2938 4750 3402 4381 
Q 3866 4013 3866 3353 
Q 3866 2972 3669 2642 
Q 3472 2313 2841 1759 
L 1844 884 
z
" transform="scale(0.015625)"/>
      <path id="DejaVuSans-Bold-2e" d="M 653 1209 
L 1778 1209 
L 1778 0 
L 653 0 
L 653 1209 
z
" transform="scale(0.015625)"/>
      <path id="DejaVuSans-Bold-37" d="M 428 4666 
L 3944 4666 
L 3944 3988 
L 2125 0 
L 953 0 
L 2675 3781 
L 428 3781 
L 428 4666 
z
" transform="scale(0.015625)"/>
      <path id="DejaVuSans-Bold-31" d="M 750 831 
L 1813 831 
L 1813 3847 
L 722 3622 
L 722 4441 
L 1806 4666 
L 2950 4666 
L 2950 831 
L 4013 831 
L 4013 0 
L 750 0 
L 750 831 
z
" transform="scale(0.015625)"/>
     </defs>
     <use xlink:href="#DejaVuSans-Bold-28"/>
     <use xlink:href="#DejaVuSans-Bold-51" x="45.703125"/>
     <use xlink:href="#DejaVuSans-Bold-3d" x="130.712891"/>
     <use xlink:href="#DejaVuSans-Bold-32" x="214.501953"/>
     <use xlink:href="#DejaVuSans-Bold-2e" x="284.082031"/>
     <use xlink:href="#DejaVuSans-Bold-37" x="322.070312"/>
     <use xlink:href="#DejaVuSans-Bold-31" x="391.650391"/>
     <use xlink:href="#DejaVuSans-Bold-29" x="461.230469"/>
    </g>
   </g>
   <g id="patch_9">
    <path d="M 191.441036 121.529991 
Q 250.114505 156.763569 307.82948 191.421569 
" style="fill: none; stroke: #c0392b; stroke-linecap: round"/>
    <path d="M 305.429894 187.647713 
L 307.82948 191.421569 
L 303.370643 191.076924 
" style="fill: none; stroke: #c0392b; stroke-linecap: round"/>
   </g>
   <g id="text_23">
    <g id="patch_10">
     <path d="M 125.21277 120.001071 
L 204.490895 120.001071 
Q 208.490895 120.001071 208.490895 116.001071 
L 208.490895 95.125133 
Q 208.490895 91.125133 204.490895 91.125133 
L 125.21277 91.125133 
Q 121.21277 91.125133 121.21277 95.125133 
L 121.21277 116.001071 
Q 121.21277 120.001071 125.21277 120.001071 
z
" style="fill: #e8f8f5; opacity: 0.97; stroke: #16a085; stroke-linejoin: miter"/>
    </g>
    <!-- M · Monopolio -->
    <g style="fill: #c0392b" transform="translate(125.21277 102.723571) scale(0.1 -0.1)">
     <use xlink:href="#DejaVuSans-Bold-4d"/>
     <use xlink:href="#DejaVuSans-Bold-20" x="99.511719"/>
     <use xlink:href="#DejaVuSans-Bold-b7" x="134.326172"/>
     <use xlink:href="#DejaVuSans-Bold-20" x="172.314453"/>
     <use xlink:href="#DejaVuSans-Bold-4d" x="207.128906"/>
     <use xlink:href="#DejaVuSans-Bold-6f" x="306.640625"/>
     <use xlink:href="#DejaVuSans-Bold-6e" x="375.341797"/>
     <use xlink:href="#DejaVuSans-Bold-6f" x="446.533203"/>
     <use xlink:href="#DejaVuSans-Bold-70" x="515.234375"/>
     <use xlink:href="#DejaVuSans-Bold-6f" x="586.816406"/>
     <use xlink:href="#DejaVuSans-Bold-6c" x="655.517578"/>
     <use xlink:href="#DejaVuSans-Bold-69" x="689.794922"/>
     <use xlink:href="#DejaVuSans-Bold-6f" x="724.072266"/>
    </g>
    <!-- (P=4.27) -->
    <g style="fill: #c0392b" transform="translate(140.090895 113.921383) scale(0.1 -0.1)">
     <defs>
      <path id="DejaVuSans-Bold-34" d="M 2356 3675 
L 1038 1722 
L 2356 1722 
L 2356 3675 
z
M 2156 4666 
L 3494 4666 
L 3494 1722 
L 4159 1722 
L 4159 850 
L 3494 850 
L 3494 0 
L 2356 0 
L 2356 850 
L 288 850 
L 288 1881 
L 2156 4666 
z
" transform="scale(0.015625)"/>
     </defs>
     <use xlink:href="#DejaVuSans-Bold-28"/>
     <use xlink:href="#DejaVuSans-Bold-50" x="45.703125"/>
     <use xlink:href="#DejaVuSans-Bold-3d" x="118.994141"/>
     <use xlink:href="#DejaVuSans-Bold-34" x="202.783203"/>
     <use xlink:href="#DejaVuSans-Bold-2e" x="272.363281"/>
     <use xlink:href="#DejaVuSans-Bold-32" x="310.351562"/>
     <use xlink:href="#DejaVuSans-Bold-37" x="379.931641"/>
     <use xlink:href="#DejaVuSans-Bold-29" x="449.511719"/>
    </g>
   </g>
   <g id="patch_11">
    <path d="M 539.989774 160.196836 
Q 450.765686 195.419745 362.581532 230.23212 
" style="fill: none; stroke: #7d3c98; stroke-linecap: round"/>
    <path d="M 367.481993 230.662792 
L 362.581532 230.23212 
L 365.866346 226.570154 
" style="fill: none; stroke: #7d3c98; stroke-linecap: round"/>
   </g>
   <g id="text_24">
    <g id="patch_12">
     <path d="M 531.602295 158.96221 
L 603.891201 158.96221 
Q 608.291201 158.96221 608.291201 154.56221 
L 608.291201 143.916273 
Q 608.291201 139.516273 603.891201 139.516273 
L 531.602295 139.516273 
Q 527.202295 139.516273 527.202295 143.916273 
L 527.202295 154.56221 
Q 527.202295 158.96221 531.602295 158.96221 
z
" style="fill: #e8f8f5; opacity: 0.97; stroke: #16a085; stroke-linejoin: miter"/>
    </g>
    <!-- DWL ≈ 0.85 -->
    <g style="fill: #7d3c98" transform="translate(531.602295 152.274554) scale(0.11 -0.11)">
     <defs>
      <path id="DejaVuSans-Bold-2248" d="M 4684 3309 
L 4684 2547 
Q 4353 2297 4073 2189 
Q 3794 2081 3494 2081 
Q 3159 2081 2713 2263 
Q 2669 2281 2644 2291 
Q 2622 2300 2575 2319 
Q 2091 2509 1797 2509 
Q 1522 2509 1253 2389 
Q 984 2269 678 2009 
L 678 2772 
Q 1006 3016 1286 3123 
Q 1566 3231 1869 3231 
Q 2213 3231 2672 3047 
Q 2703 3034 2719 3028 
Q 2744 3019 2788 3000 
Q 3272 2809 3566 2809 
Q 3834 2809 4098 2926 
Q 4363 3044 4684 3309 
z
M 4684 2003 
L 4684 1241 
Q 4353 991 4073 883 
Q 3794 775 3494 775 
Q 3159 775 2713 956 
Q 2669 975 2641 988 
Q 2622 994 2575 1013 
Q 2091 1203 1797 1203 
Q 1522 1203 1253 1084 
Q 984 966 678 703 
L 678 1466 
Q 1013 1716 1291 1823 
Q 1569 1931 1869 1931 
Q 2203 1931 2650 1750 
Q 2697 1731 2719 1722 
Q 2744 1713 2788 1697 
Q 3272 1503 3566 1503 
Q 3834 1503 4098 1620 
Q 4363 1738 4684 2003 
z
" transform="scale(0.015625)"/>
      <path id="DejaVuSans-Bold-30" d="M 2944 2338 
Q 2944 3213 2780 3570 
Q 2616 3928 2228 3928 
Q 1841 3928 1675 3570 
Q 1509 3213 1509 2338 
Q 1509 1453 1675 1090 
Q 1841 728 2228 728 
Q 2613 728 2778 1090 
Q 2944 1453 2944 2338 
z
M 4147 2328 
Q 4147 1169 3647 539 
Q 3147 -91 2228 -91 
Q 1306 -91 806 539 
Q 306 1169 306 2328 
Q 306 3491 806 4120 
Q 1306 4750 2228 4750 
Q 3147 4750 3647 4120 
Q 4147 3491 4147 2328 
z
" transform="scale(0.015625)"/>
      <path id="DejaVuSans-Bold-38" d="M 2228 2088 
Q 1891 2088 1709 1903 
Q 1528 1719 1528 1375 
Q 1528 1031 1709 848 
Q 1891 666 2228 666 
Q 2563 666 2741 848 
Q 2919 1031 2919 1375 
Q 2919 1722 2741 1905 
Q 2563 2088 2228 2088 
z
M 1350 2484 
Q 925 2613 709 2878 
Q 494 3144 494 3541 
Q 494 4131 934 4440 
Q 1375 4750 2228 4750 
Q 3075 4750 3515 4442 
Q 3956 4134 3956 3541 
Q 3956 3144 3739 2878 
Q 3522 2613 3097 2484 
Q 3572 2353 3814 2058 
Q 4056 1763 4056 1313 
Q 4056 619 3595 264 
Q 3134 -91 2228 -91 
Q 1319 -91 855 264 
Q 391 619 391 1313 
Q 391 1763 633 2058 
Q 875 2353 1350 2484 
z
M 1631 3419 
Q 1631 3141 1786 2991 
Q 1941 2841 2228 2841 
Q 2509 2841 2662 2991 
Q 2816 3141 2816 3419 
Q 2816 3697 2662 3845 
Q 2509 3994 2228 3994 
Q 1941 3994 1786 3844 
Q 1631 3694 1631 3419 
z
" transform="scale(0.015625)"/>
      <path id="DejaVuSans-Bold-35" d="M 678 4666 
L 3669 4666 
L 3669 3781 
L 1638 3781 
L 1638 3059 
Q 1775 3097 1914 3117 
Q 2053 3138 2203 3138 
Q 3056 3138 3531 2711 
Q 4006 2284 4006 1522 
Q 4006 766 3489 337 
Q 2972 -91 2053 -91 
Q 1656 -91 1267 -14 
Q 878 63 494 219 
L 494 1166 
Q 875 947 1217 837 
Q 1559 728 1863 728 
Q 2300 728 2551 942 
Q 2803 1156 2803 1522 
Q 2803 1891 2551 2103 
Q 2300 2316 1863 2316 
Q 1603 2316 1309 2248 
Q 1016 2181 678 2041 
L 678 4666 
z
" transform="scale(0.015625)"/>
     </defs>
     <use xlink:href="#DejaVuSans-Bold-44"/>
     <use xlink:href="#DejaVuSans-Bold-57" x="83.007812"/>
     <use xlink:href="#DejaVuSans-Bold-4c" x="193.310547"/>
     <use xlink:href="#DejaVuSans-Bold-20" x="257.03125"/>
     <use xlink:href="#DejaVuSans-Bold-2248" x="291.845703"/>
     <use xlink:href="#DejaVuSans-Bold-20" x="375.634766"/>
     <use xlink:href="#DejaVuSans-Bold-30" x="410.449219"/>
     <use xlink:href="#DejaVuSans-Bold-2e" x="480.029297"/>
     <use xlink:href="#DejaVuSans-Bold-38" x="518.017578"/>
     <use xlink:href="#DejaVuSans-Bold-35" x="587.597656"/>
    </g>
   </g>
  </g>
 </g>
 <defs>
  <clipPath id="pf88b7c297a">
   <rect x="109.997595" y="51.197969" width="613.8" height="360.36"/>
  </clipPath>
 </defs>
</svg>
