<?xml version="1.0" encoding="utf-8" standalone="no"?>
<!DOCTYPE svg PUBLIC "-//W3C//DTD SVG 1.1//EN"
  "http://www.w3.org/Graphics/SVG/1.1/DTD/svg11.dtd">
<svg xmlns:xlink="http://www.w3.org/1999/xlink" width="1611.860589pt" height="535.817969pt" viewBox="0 0 1611.860589 535.817969" xmlns="http://www.w3.org/2000/svg" version="1.1">
 <metadata>
  <rdf:RDF xmlns:dc="http://purl.org/dc/elements/1.1/" xmlns:cc="http://creativecommons.org/ns#" xmlns:rdf="http://www.w3.org/1999/02/22-rdf-syntax-ns#">
   <cc:Work>
    <dc:type rdf:resource="http://purl.org/dc/dcmitype/StillImage"/>
    <dc:date>2026-04-28T17:41:37.369024</dc:date>
    <dc:format>image/svg+xml</dc:format>
    <dc:creator>
     <cc:Agent>
      <dc:title>Matplotlib v3.9.2, https://matplotlib.org/</dc:title>
     </cc:Agent>
    </dc:creator>
   </cc:Work>
  </rdf:RDF>
 </metadata>
 <defs>
  <style type="text/css">*{stroke-linejoin: round; stroke-linecap: butt}</style>
 </defs>
 <g id="figure_1">
  <g id="patch_1">
   <path d="M 0 535.817969 
L 1611.860589 535.817969 
L 1611.860589 -0 
L 0 -0 
z
" style="fill: #ffffff"/>
  </g>
  <g id="axes_1">
   <g id="patch_2">
    <path d="M 58.676858 507.017969 
L 527.021407 507.017969 
L 527.021407 51.197969 
L 58.676858 51.197969 
z
" style="fill: #ffffff"/>
   </g>
   <g id="matplotlib.axis_1">
    <g id="xtick_1">
     <g id="line2d_1">
      <path d="M 75.11 507.017969 
L 75.11 51.197969 
" clip-path="url(#pe78aa1ff5d)" style="fill: none; stroke-dasharray: 0.8,1.32; stroke-dashoffset: 0; stroke: #b0b0b0; stroke-opacity: 0.4; stroke-width: 0.8"/>
     </g>
     <g id="line2d_2">
      <defs>
       <path id="m6c547589db" d="M 0 0 
L 0 -4 
" style="stroke: #000000"/>
      </defs>
      <g>
       <use xlink:href="#m6c547589db" x="75.11" y="462.906356" style="stroke: #000000"/>
      </g>
     </g>
     <g id="text_1">
      <!-- 0 -->
      <g transform="translate(71.92875 474.004793) scale(0.1 -0.1)">
       <defs>
        <path id="DejaVuSans-30" d="M 2034 4250 
Q 1547 4250 1301 3770 
Q 1056 3291 1056 2328 
Q 1056 1369 1301 889 
Q 1547 409 2034 409 
Q 2525 409 2770 889 
Q 3016 1369 3016 2328 
Q 3016 3291 2770 3770 
Q 2525 4250 2034 4250 
z
M 2034 4750 
Q 2819 4750 3233 4129 
Q 3647 3509 3647 2328 
Q 3647 1150 3233 529 
Q 2819 -91 2034 -91 
Q 1250 -91 836 529 
Q 422 1150 422 2328 
Q 422 3509 836 4129 
Q 1250 4750 2034 4750 
z
" transform="scale(0.015625)"/>
       </defs>
       <use xlink:href="#DejaVuSans-30"/>
      </g>
     </g>
    </g>
    <g id="xtick_2">
     <g id="line2d_3">
      <path d="M 157.27571 507.017969 
L 157.27571 51.197969 
" clip-path="url(#pe78aa1ff5d)" style="fill: none; stroke-dasharray: 0.8,1.32; stroke-dashoffset: 0; stroke: #b0b0b0; stroke-opacity: 0.4; stroke-width: 0.8"/>
     </g>
     <g id="line2d_4">
      <g>
       <use xlink:href="#m6c547589db" x="157.27571" y="462.906356" style="stroke: #000000"/>
      </g>
     </g>
     <g id="text_2">
      <!-- 10 -->
      <g transform="translate(150.91321 474.004793) scale(0.1 -0.1)">
       <defs>
        <path id="DejaVuSans-31" d="M 794 531 
L 1825 531 
L 1825 4091 
L 703 3866 
L 703 4441 
L 1819 4666 
L 2450 4666 
L 2450 531 
L 3481 531 
L 3481 0 
L 794 0 
L 794 531 
z
" transform="scale(0.015625)"/>
       </defs>
       <use xlink:href="#DejaVuSans-31"/>
       <use xlink:href="#DejaVuSans-30" x="63.623047"/>
      </g>
     </g>
    </g>
    <g id="xtick_3">
     <g id="line2d_5">
      <path d="M 239.441421 507.017969 
L 239.441421 51.197969 
" clip-path="url(#pe78aa1ff5d)" style="fill: none; stroke-dasharray: 0.8,1.32; stroke-dashoffset: 0; stroke: #b0b0b0; stroke-opacity: 0.4; stroke-width: 0.8"/>
     </g>
     <g id="line2d_6">
      <g>
       <use xlink:href="#m6c547589db" x="239.441421" y="462.906356" style="stroke: #000000"/>
      </g>
     </g>
     <g id="text_3">
      <!-- 20 -->
      <g transform="translate(233.078921 474.004793) scale(0.1 -0.1)">
       <defs>
        <path id="DejaVuSans-32" d="M 1228 531 
L 3431 531 
L 3431 0 
L 469 0 
L 469 531 
Q 828 903 1448 1529 
Q 2069 2156 2228 2338 
Q 2531 2678 2651 2914 
Q 2772 3150 2772 3378 
Q 2772 3750 2511 3984 
Q 2250 4219 1831 4219 
Q 1534 4219 1204 4116 
Q 875 4013 500 3803 
L 500 4441 
Q 881 4594 1212 4672 
Q 1544 4750 1819 4750 
Q 2544 4750 2975 4387 
Q 3406 4025 3406 3419 
Q 3406 3131 3298 2873 
Q 3191 2616 2906 2266 
Q 2828 2175 2409 1742 
Q 1991 1309 1228 531 
z
" transform="scale(0.015625)"/>
       </defs>
       <use xlink:href="#DejaVuSans-32"/>
       <use xlink:href="#DejaVuSans-30" x="63.623047"/>
      </g>
     </g>
    </g>
    <g id="xtick_4">
     <g id="line2d_7">
      <path d="M 321.607131 507.017969 
L 321.607131 51.197969 
" clip-path="url(#pe78aa1ff5d)" style="fill: none; stroke-dasharray: 0.8,1.32; stroke-dashoffset: 0; stroke: #b0b0b0; stroke-opacity: 0.4; stroke-width: 0.8"/>
     </g>
     <g id="line2d_8">
      <g>
       <use xlink:href="#m6c547589db" x="321.607131" y="462.906356" style="stroke: #000000"/>
      </g>
     </g>
     <g id="text_4">
      <!-- 30 -->
      <g transform="translate(315.244631 474.004793) scale(0.1 -0.1)">
       <defs>
        <path id="DejaVuSans-33" d="M 2597 2516 
Q 3050 2419 3304 2112 
Q 3559 1806 3559 1356 
Q 3559 666 3084 287 
Q 2609 -91 1734 -91 
Q 1441 -91 1130 -33 
Q 819 25 488 141 
L 488 750 
Q 750 597 1062 519 
Q 1375 441 1716 441 
Q 2309 441 2620 675 
Q 2931 909 2931 1356 
Q 2931 1769 2642 2001 
Q 2353 2234 1838 2234 
L 1294 2234 
L 1294 2753 
L 1863 2753 
Q 2328 2753 2575 2939 
Q 2822 3125 2822 3475 
Q 2822 3834 2567 4026 
Q 2313 4219 1838 4219 
Q 1578 4219 1281 4162 
Q 984 4106 628 3988 
L 628 4550 
Q 988 4650 1302 4700 
Q 1616 4750 1894 4750 
Q 2613 4750 3031 4423 
Q 3450 4097 3450 3541 
Q 3450 3153 3228 2886 
Q 3006 2619 2597 2516 
z
" transform="scale(0.015625)"/>
       </defs>
       <use xlink:href="#DejaVuSans-33"/>
       <use xlink:href="#DejaVuSans-30" x="63.623047"/>
      </g>
     </g>
    </g>
    <g id="xtick_5">
     <g id="line2d_9">
      <path d="M 403.772841 507.017969 
L 403.772841 51.197969 
" clip-path="url(#pe78aa1ff5d)" style="fill: none; stroke-dasharray: 0.8,1.32; stroke-dashoffset: 0; stroke: #b0b0b0; stroke-opacity: 0.4; stroke-width: 0.8"/>
     </g>
     <g id="line2d_10">
      <g>
       <use xlink:href="#m6c547589db" x="403.772841" y="462.906356" style="stroke: #000000"/>
      </g>
     </g>
     <g id="text_5">
      <!-- 40 -->
      <g transform="translate(397.410341 474.004793) scale(0.1 -0.1)">
       <defs>
        <path id="DejaVuSans-34" d="M 2419 4116 
L 825 1625 
L 2419 1625 
L 2419 4116 
z
M 2253 4666 
L 3047 4666 
L 3047 1625 
L 3713 1625 
L 3713 1100 
L 3047 1100 
L 3047 0 
L 2419 0 
L 2419 1100 
L 313 1100 
L 313 1709 
L 2253 4666 
z
" transform="scale(0.015625)"/>
       </defs>
       <use xlink:href="#DejaVuSans-34"/>
       <use xlink:href="#DejaVuSans-30" x="63.623047"/>
      </g>
     </g>
    </g>
    <g id="xtick_6">
     <g id="line2d_11">
      <path d="M 485.938552 507.017969 
L 485.938552 51.197969 
" clip-path="url(#pe78aa1ff5d)" style="fill: none; stroke-dasharray: 0.8,1.32; stroke-dashoffset: 0; stroke: #b0b0b0; stroke-opacity: 0.4; stroke-width: 0.8"/>
     </g>
     <g id="line2d_12">
      <g>
       <use xlink:href="#m6c547589db" x="485.938552" y="462.906356" style="stroke: #000000"/>
      </g>
     </g>
     <g id="text_6">
      <!-- 50 -->
      <g transform="translate(479.576052 474.004793) scale(0.1 -0.1)">
       <defs>
        <path id="DejaVuSans-35" d="M 691 4666 
L 3169 4666 
L 3169 4134 
L 1269 4134 
L 1269 2991 
Q 1406 3038 1543 3061 
Q 1681 3084 1819 3084 
Q 2600 3084 3056 2656 
Q 3513 2228 3513 1497 
Q 3513 744 3044 326 
Q 2575 -91 1722 -91 
Q 1428 -91 1123 -41 
Q 819 9 494 109 
L 494 744 
Q 775 591 1075 516 
Q 1375 441 1709 441 
Q 2250 441 2565 725 
Q 2881 1009 2881 1497 
Q 2881 1984 2565 2268 
Q 2250 2553 1709 2553 
Q 1456 2553 1204 2497 
Q 953 2441 691 2322 
L 691 4666 
z
" transform="scale(0.015625)"/>
       </defs>
       <use xlink:href="#DejaVuSans-35"/>
       <use xlink:href="#DejaVuSans-30" x="63.623047"/>
      </g>
     </g>
    </g>
    <g id="text_7">
     <!-- y (cantidad) -->
     <g transform="translate(445.172032 483.202606) scale(0.12 -0.12)">
      <defs>
       <path id="DejaVuSans-Bold-79" d="M 78 3500 
L 1197 3500 
L 2138 1125 
L 2938 3500 
L 4056 3500 
L 2584 -331 
Q 2363 -916 2067 -1148 
Q 1772 -1381 1288 -1381 
L 641 -1381 
L 641 -647 
L 991 -647 
Q 1275 -647 1404 -556 
Q 1534 -466 1606 -231 
L 1638 -134 
L 78 3500 
z
" transform="scale(0.015625)"/>
       <path id="DejaVuSans-Bold-20" transform="scale(0.015625)"/>
       <path id="DejaVuSans-Bold-28" d="M 2413 -844 
L 1484 -844 
Q 1006 -72 778 623 
Q 550 1319 550 2003 
Q 550 2688 779 3389 
Q 1009 4091 1484 4856 
L 2413 4856 
Q 2013 4116 1813 3408 
Q 1613 2700 1613 2009 
Q 1613 1319 1811 609 
Q 2009 -100 2413 -844 
z
" transform="scale(0.015625)"/>
       <path id="DejaVuSans-Bold-63" d="M 3366 3391 
L 3366 2478 
Q 3138 2634 2908 2709 
Q 2678 2784 2431 2784 
Q 1963 2784 1702 2511 
Q 1441 2238 1441 1747 
Q 1441 1256 1702 982 
Q 1963 709 2431 709 
Q 2694 709 2930 787 
Q 3166 866 3366 1019 
L 3366 103 
Q 3103 6 2833 -42 
Q 2563 -91 2291 -91 
Q 1344 -91 809 395 
Q 275 881 275 1747 
Q 275 2613 809 3098 
Q 1344 3584 2291 3584 
Q 2566 3584 2833 3536 
Q 3100 3488 3366 3391 
z
" transform="scale(0.015625)"/>
       <path id="DejaVuSans-Bold-61" d="M 2106 1575 
Q 1756 1575 1579 1456 
Q 1403 1338 1403 1106 
Q 1403 894 1545 773 
Q 1688 653 1941 653 
Q 2256 653 2472 879 
Q 2688 1106 2688 1447 
L 2688 1575 
L 2106 1575 
z
M 3816 1997 
L 3816 0 
L 2688 0 
L 2688 519 
Q 2463 200 2181 54 
Q 1900 -91 1497 -91 
Q 953 -91 614 226 
Q 275 544 275 1050 
Q 275 1666 698 1953 
Q 1122 2241 2028 2241 
L 2688 2241 
L 2688 2328 
Q 2688 2594 2478 2717 
Q 2269 2841 1825 2841 
Q 1466 2841 1156 2769 
Q 847 2697 581 2553 
L 581 3406 
Q 941 3494 1303 3539 
Q 1666 3584 2028 3584 
Q 2975 3584 3395 3211 
Q 3816 2838 3816 1997 
z
" transform="scale(0.015625)"/>
       <path id="DejaVuSans-Bold-6e" d="M 4056 2131 
L 4056 0 
L 2931 0 
L 2931 347 
L 2931 1631 
Q 2931 2084 2911 2256 
Q 2891 2428 2841 2509 
Q 2775 2619 2662 2680 
Q 2550 2741 2406 2741 
Q 2056 2741 1856 2470 
Q 1656 2200 1656 1722 
L 1656 0 
L 538 0 
L 538 3500 
L 1656 3500 
L 1656 2988 
Q 1909 3294 2193 3439 
Q 2478 3584 2822 3584 
Q 3428 3584 3742 3212 
Q 4056 2841 4056 2131 
z
" transform="scale(0.015625)"/>
       <path id="DejaVuSans-Bold-74" d="M 1759 4494 
L 1759 3500 
L 2913 3500 
L 2913 2700 
L 1759 2700 
L 1759 1216 
Q 1759 972 1856 886 
Q 1953 800 2241 800 
L 2816 800 
L 2816 0 
L 1856 0 
Q 1194 0 917 276 
Q 641 553 641 1216 
L 641 2700 
L 84 2700 
L 84 3500 
L 641 3500 
L 641 4494 
L 1759 4494 
z
" transform="scale(0.015625)"/>
       <path id="DejaVuSans-Bold-69" d="M 538 3500 
L 1656 3500 
L 1656 0 
L 538 0 
L 538 3500 
z
M 538 4863 
L 1656 4863 
L 1656 3950 
L 538 3950 
L 538 4863 
z
" transform="scale(0.015625)"/>
       <path id="DejaVuSans-Bold-64" d="M 2919 2988 
L 2919 4863 
L 4044 4863 
L 4044 0 
L 2919 0 
L 2919 506 
Q 2688 197 2409 53 
Q 2131 -91 1766 -91 
Q 1119 -91 703 423 
Q 288 938 288 1747 
Q 288 2556 703 3070 
Q 1119 3584 1766 3584 
Q 2128 3584 2408 3439 
Q 2688 3294 2919 2988 
z
M 2181 722 
Q 2541 722 2730 984 
Q 2919 1247 2919 1747 
Q 2919 2247 2730 2509 
Q 2541 2772 2181 2772 
Q 1825 2772 1636 2509 
Q 1447 2247 1447 1747 
Q 1447 1247 1636 984 
Q 1825 722 2181 722 
z
" transform="scale(0.015625)"/>
       <path id="DejaVuSans-Bold-29" d="M 513 -844 
Q 913 -100 1113 609 
Q 1313 1319 1313 2009 
Q 1313 2700 1113 3408 
Q 913 4116 513 4856 
L 1441 4856 
Q 1916 4091 2145 3389 
Q 2375 2688 2375 2003 
Q 2375 1319 2147 623 
Q 1919 -72 1441 -844 
L 513 -844 
z
" transform="scale(0.015625)"/>
      </defs>
      <use xlink:href="#DejaVuSans-Bold-79"/>
      <use xlink:href="#DejaVuSans-Bold-20" x="65.185547"/>
      <use xlink:href="#DejaVuSans-Bold-28" x="100"/>
      <use xlink:href="#DejaVuSans-Bold-63" x="145.703125"/>
      <use xlink:href="#DejaVuSans-Bold-61" x="204.980469"/>
      <use xlink:href="#DejaVuSans-Bold-6e" x="272.460938"/>
      <use xlink:href="#DejaVuSans-Bold-74" x="343.652344"/>
      <use xlink:href="#DejaVuSans-Bold-69" x="391.455078"/>
      <use xlink:href="#DejaVuSans-Bold-64" x="425.732422"/>
      <use xlink:href="#DejaVuSans-Bold-61" x="497.314453"/>
      <use xlink:href="#DejaVuSans-Bold-64" x="564.794922"/>
      <use xlink:href="#DejaVuSans-Bold-29" x="636.376953"/>
     </g>
    </g>
   </g>
   <g id="matplotlib.axis_2">
    <g id="ytick_1">
     <g id="line2d_13">
      <path d="M 58.676858 462.906356 
L 527.021407 462.906356 
" clip-path="url(#pe78aa1ff5d)" style="fill: none; stroke-dasharray: 0.8,1.32; stroke-dashoffset: 0; stroke: #b0b0b0; stroke-opacity: 0.4; stroke-width: 0.8"/>
     </g>
     <g id="line2d_14">
      <defs>
       <path id="mdc89d94d63" d="M 0 0 
L 4 0 
" style="stroke: #000000"/>
      </defs>
      <g>
       <use xlink:href="#mdc89d94d63" x="75.11" y="462.906356" style="stroke: #000000"/>
      </g>
     </g>
     <g id="text_8">
      <!-- 0 -->
      <g transform="translate(65.2475 466.705575) scale(0.1 -0.1)">
       <use xlink:href="#DejaVuSans-30"/>
      </g>
     </g>
    </g>
    <g id="ytick_2">
     <g id="line2d_15">
      <path d="M 58.676858 404.090872 
L 527.021407 404.090872 
" clip-path="url(#pe78aa1ff5d)" style="fill: none; stroke-dasharray: 0.8,1.32; stroke-dashoffset: 0; stroke: #b0b0b0; stroke-opacity: 0.4; stroke-width: 0.8"/>
     </g>
     <g id="line2d_16">
      <g>
       <use xlink:href="#mdc89d94d63" x="75.11" y="404.090872" style="stroke: #000000"/>
      </g>
     </g>
     <g id="text_9">
      <!-- 2 -->
      <g transform="translate(65.2475 407.890091) scale(0.1 -0.1)">
       <use xlink:href="#DejaVuSans-32"/>
      </g>
     </g>
    </g>
    <g id="ytick_3">
     <g id="line2d_17">
      <path d="M 58.676858 345.275388 
L 527.021407 345.275388 
" clip-path="url(#pe78aa1ff5d)" style="fill: none; stroke-dasharray: 0.8,1.32; stroke-dashoffset: 0; stroke: #b0b0b0; stroke-opacity: 0.4; stroke-width: 0.8"/>
     </g>
     <g id="line2d_18">
      <g>
       <use xlink:href="#mdc89d94d63" x="75.11" y="345.275388" style="stroke: #000000"/>
      </g>
     </g>
     <g id="text_10">
      <!-- 4 -->
      <g transform="translate(65.2475 349.074607) scale(0.1 -0.1)">
       <use xlink:href="#DejaVuSans-34"/>
      </g>
     </g>
    </g>
    <g id="ytick_4">
     <g id="line2d_19">
      <path d="M 58.676858 286.459904 
L 527.021407 286.459904 
" clip-path="url(#pe78aa1ff5d)" style="fill: none; stroke-dasharray: 0.8,1.32; stroke-dashoffset: 0; stroke: #b0b0b0; stroke-opacity: 0.4; stroke-width: 0.8"/>
     </g>
     <g id="line2d_20">
      <g>
       <use xlink:href="#mdc89d94d63" x="75.11" y="286.459904" style="stroke: #000000"/>
      </g>
     </g>
     <g id="text_11">
      <!-- 6 -->
      <g transform="translate(65.2475 290.259123) scale(0.1 -0.1)">
       <defs>
        <path id="DejaVuSans-36" d="M 2113 2584 
Q 1688 2584 1439 2293 
Q 1191 2003 1191 1497 
Q 1191 994 1439 701 
Q 1688 409 2113 409 
Q 2538 409 2786 701 
Q 3034 994 3034 1497 
Q 3034 2003 2786 2293 
Q 2538 2584 2113 2584 
z
M 3366 4563 
L 3366 3988 
Q 3128 4100 2886 4159 
Q 2644 4219 2406 4219 
Q 1781 4219 1451 3797 
Q 1122 3375 1075 2522 
Q 1259 2794 1537 2939 
Q 1816 3084 2150 3084 
Q 2853 3084 3261 2657 
Q 3669 2231 3669 1497 
Q 3669 778 3244 343 
Q 2819 -91 2113 -91 
Q 1303 -91 875 529 
Q 447 1150 447 2328 
Q 447 3434 972 4092 
Q 1497 4750 2381 4750 
Q 2619 4750 2861 4703 
Q 3103 4656 3366 4563 
z
" transform="scale(0.015625)"/>
       </defs>
       <use xlink:href="#DejaVuSans-36"/>
      </g>
     </g>
    </g>
    <g id="ytick_5">
     <g id="line2d_21">
      <path d="M 58.676858 227.64442 
L 527.021407 227.64442 
" clip-path="url(#pe78aa1ff5d)" style="fill: none; stroke-dasharray: 0.8,1.32; stroke-dashoffset: 0; stroke: #b0b0b0; stroke-opacity: 0.4; stroke-width: 0.8"/>
     </g>
     <g id="line2d_22">
      <g>
       <use xlink:href="#mdc89d94d63" x="75.11" y="227.64442" style="stroke: #000000"/>
      </g>
     </g>
     <g id="text_12">
      <!-- 8 -->
      <g transform="translate(65.2475 231.443639) scale(0.1 -0.1)">
       <defs>
        <path id="DejaVuSans-38" d="M 2034 2216 
Q 1584 2216 1326 1975 
Q 1069 1734 1069 1313 
Q 1069 891 1326 650 
Q 1584 409 2034 409 
Q 2484 409 2743 651 
Q 3003 894 3003 1313 
Q 3003 1734 2745 1975 
Q 2488 2216 2034 2216 
z
M 1403 2484 
Q 997 2584 770 2862 
Q 544 3141 544 3541 
Q 544 4100 942 4425 
Q 1341 4750 2034 4750 
Q 2731 4750 3128 4425 
Q 3525 4100 3525 3541 
Q 3525 3141 3298 2862 
Q 3072 2584 2669 2484 
Q 3125 2378 3379 2068 
Q 3634 1759 3634 1313 
Q 3634 634 3220 271 
Q 2806 -91 2034 -91 
Q 1263 -91 848 271 
Q 434 634 434 1313 
Q 434 1759 690 2068 
Q 947 2378 1403 2484 
z
M 1172 3481 
Q 1172 3119 1398 2916 
Q 1625 2713 2034 2713 
Q 2441 2713 2670 2916 
Q 2900 3119 2900 3481 
Q 2900 3844 2670 4047 
Q 2441 4250 2034 4250 
Q 1625 4250 1398 4047 
Q 1172 3844 1172 3481 
z
" transform="scale(0.015625)"/>
       </defs>
       <use xlink:href="#DejaVuSans-38"/>
      </g>
     </g>
    </g>
    <g id="ytick_6">
     <g id="line2d_23">
      <path d="M 58.676858 168.828936 
L 527.021407 168.828936 
" clip-path="url(#pe78aa1ff5d)" style="fill: none; stroke-dasharray: 0.8,1.32; stroke-dashoffset: 0; stroke: #b0b0b0; stroke-opacity: 0.4; stroke-width: 0.8"/>
     </g>
     <g id="line2d_24">
      <g>
       <use xlink:href="#mdc89d94d63" x="75.11" y="168.828936" style="stroke: #000000"/>
      </g>
     </g>
     <g id="text_13">
      <!-- 10 -->
      <g transform="translate(58.885 172.628155) scale(0.1 -0.1)">
       <use xlink:href="#DejaVuSans-31"/>
       <use xlink:href="#DejaVuSans-30" x="63.623047"/>
      </g>
     </g>
    </g>
    <g id="ytick_7">
     <g id="line2d_25">
      <path d="M 58.676858 110.013453 
L 527.021407 110.013453 
" clip-path="url(#pe78aa1ff5d)" style="fill: none; stroke-dasharray: 0.8,1.32; stroke-dashoffset: 0; stroke: #b0b0b0; stroke-opacity: 0.4; stroke-width: 0.8"/>
     </g>
     <g id="line2d_26">
      <g>
       <use xlink:href="#mdc89d94d63" x="75.11" y="110.013453" style="stroke: #000000"/>
      </g>
     </g>
     <g id="text_14">
      <!-- 12 -->
      <g transform="translate(58.885 113.812671) scale(0.1 -0.1)">
       <use xlink:href="#DejaVuSans-31"/>
       <use xlink:href="#DejaVuSans-32" x="63.623047"/>
      </g>
     </g>
    </g>
    <g id="ytick_8">
     <g id="line2d_27">
      <path d="M 58.676858 51.197969 
L 527.021407 51.197969 
" clip-path="url(#pe78aa1ff5d)" style="fill: none; stroke-dasharray: 0.8,1.32; stroke-dashoffset: 0; stroke: #b0b0b0; stroke-opacity: 0.4; stroke-width: 0.8"/>
     </g>
     <g id="line2d_28">
      <g>
       <use xlink:href="#mdc89d94d63" x="75.11" y="51.197969" style="stroke: #000000"/>
      </g>
     </g>
     <g id="text_15">
      <!-- 14 -->
      <g transform="translate(58.885 54.997188) scale(0.1 -0.1)">
       <use xlink:href="#DejaVuSans-31"/>
       <use xlink:href="#DejaVuSans-34" x="63.623047"/>
      </g>
     </g>
    </g>
    <g id="text_16">
     <!-- p ($) -->
     <g transform="translate(28.8 48.702344) scale(0.12 -0.12)">
      <defs>
       <path id="DejaVuSans-Bold-70" d="M 1656 506 
L 1656 -1331 
L 538 -1331 
L 538 3500 
L 1656 3500 
L 1656 2988 
Q 1888 3294 2169 3439 
Q 2450 3584 2816 3584 
Q 3463 3584 3878 3070 
Q 4294 2556 4294 1747 
Q 4294 938 3878 423 
Q 3463 -91 2816 -91 
Q 2450 -91 2169 54 
Q 1888 200 1656 506 
z
M 2400 2772 
Q 2041 2772 1848 2508 
Q 1656 2244 1656 1747 
Q 1656 1250 1848 986 
Q 2041 722 2400 722 
Q 2759 722 2948 984 
Q 3138 1247 3138 1747 
Q 3138 2247 2948 2509 
Q 2759 2772 2400 2772 
z
" transform="scale(0.015625)"/>
       <path id="DejaVuSans-Bold-24" d="M 2484 -941 
L 1978 -941 
L 1975 0 
Q 1584 16 1218 87 
Q 853 159 506 288 
L 506 1106 
Q 866 922 1233 823 
Q 1600 725 1978 713 
L 1978 1684 
L 1875 1703 
Q 1128 1834 814 2115 
Q 500 2397 500 2925 
Q 500 3484 883 3798 
Q 1266 4113 1975 4141 
L 1978 4863 
L 2484 4863 
L 2484 4153 
Q 2797 4128 3109 4075 
Q 3422 4022 3738 3938 
L 3738 3144 
Q 3425 3275 3112 3348 
Q 2800 3422 2484 3438 
L 2484 2541 
L 2584 2522 
Q 3378 2397 3698 2105 
Q 4019 1813 4019 1241 
Q 4019 666 3637 358 
Q 3256 50 2484 6 
L 2484 -941 
z
M 1978 2613 
L 1978 3428 
Q 1756 3416 1623 3308 
Q 1491 3200 1491 3034 
Q 1491 2850 1612 2745 
Q 1734 2641 1978 2613 
z
M 2484 1594 
L 2484 725 
Q 2756 728 2892 831 
Q 3028 934 3028 1141 
Q 3028 1353 2903 1458 
Q 2778 1563 2484 1594 
z
" transform="scale(0.015625)"/>
      </defs>
      <use xlink:href="#DejaVuSans-Bold-70"/>
      <use xlink:href="#DejaVuSans-Bold-20" x="71.582031"/>
      <use xlink:href="#DejaVuSans-Bold-28" x="106.396484"/>
      <use xlink:href="#DejaVuSans-Bold-24" x="152.099609"/>
      <use xlink:href="#DejaVuSans-Bold-29" x="221.679688"/>
     </g>
    </g>
   </g>
   <g id="line2d_29">
    <path d="M 75.11 110.013453 
L 485.938552 477.610227 
L 485.938552 477.610227 
" clip-path="url(#pe78aa1ff5d)" style="fill: none; stroke: #c0392b; stroke-width: 3; stroke-linecap: square"/>
   </g>
   <g id="line2d_30">
    <path d="M 75.11 110.013453 
L 313.609755 536.817969 
L 313.609755 536.817969 
" clip-path="url(#pe78aa1ff5d)" style="fill: none; stroke-dasharray: 9.25,4; stroke-dashoffset: 0; stroke: #e6796b; stroke-width: 2.5"/>
   </g>
   <g id="line2d_31">
    <path d="M 58.676858 315.867646 
L 527.021407 315.867646 
" clip-path="url(#pe78aa1ff5d)" style="fill: none; stroke: #e67e22; stroke-width: 3; stroke-linecap: square"/>
   </g>
   <g id="line2d_32">
    <path d="M 190.141994 462.906356 
L 190.141994 212.940549 
" clip-path="url(#pe78aa1ff5d)" style="fill: none; stroke-dasharray: 3.7,1.6; stroke-dashoffset: 0; stroke: #34495e; stroke-opacity: 0.6"/>
   </g>
   <g id="line2d_33">
    <path d="M 75.11 212.940549 
L 190.141994 212.940549 
" clip-path="url(#pe78aa1ff5d)" style="fill: none; stroke-dasharray: 3.7,1.6; stroke-dashoffset: 0; stroke: #34495e; stroke-opacity: 0.6"/>
   </g>
   <g id="line2d_34">
    <defs>
     <path id="mf2c8dcc53a" d="M 4 0 
L -4 -4 
L -4 4 
z
" style="stroke: #000000; stroke-linejoin: miter"/>
    </defs>
    <g>
     <use xlink:href="#mf2c8dcc53a" x="527.021407" y="462.906356" style="stroke: #000000; stroke-linejoin: miter"/>
    </g>
   </g>
   <g id="line2d_35">
    <defs>
     <path id="mf642e0a865" d="M 0 -4 
L -4 4 
L 4 4 
z
" style="stroke: #000000; stroke-linejoin: miter"/>
    </defs>
    <g>
     <use xlink:href="#mf642e0a865" x="75.11" y="51.197969" style="stroke: #000000; stroke-linejoin: miter"/>
    </g>
   </g>
   <g id="patch_3">
    <path d="M 75.11 507.017969 
L 75.11 51.197969 
" style="fill: none; stroke: #000000; stroke-width: 1.4; stroke-linejoin: miter; stroke-linecap: square"/>
   </g>
   <g id="patch_4">
    <path d="M 58.676858 462.906356 
L 527.021407 462.906356 
" style="fill: none; stroke: #000000; stroke-width: 1.4; stroke-linejoin: miter; stroke-linecap: square"/>
   </g>
   <g id="text_17">
    <!-- (a) Sin discriminación: π = 46 -->
    <g transform="translate(184.211789 39.197969) scale(0.13 -0.13)">
     <defs>
      <path id="DejaVuSans-Bold-53" d="M 3834 4519 
L 3834 3531 
Q 3450 3703 3084 3790 
Q 2719 3878 2394 3878 
Q 1963 3878 1756 3759 
Q 1550 3641 1550 3391 
Q 1550 3203 1689 3098 
Q 1828 2994 2194 2919 
L 2706 2816 
Q 3484 2659 3812 2340 
Q 4141 2022 4141 1434 
Q 4141 663 3683 286 
Q 3225 -91 2284 -91 
Q 1841 -91 1394 -6 
Q 947 78 500 244 
L 500 1259 
Q 947 1022 1364 901 
Q 1781 781 2169 781 
Q 2563 781 2772 912 
Q 2981 1044 2981 1288 
Q 2981 1506 2839 1625 
Q 2697 1744 2272 1838 
L 1806 1941 
Q 1106 2091 782 2419 
Q 459 2747 459 3303 
Q 459 4000 909 4375 
Q 1359 4750 2203 4750 
Q 2588 4750 2994 4692 
Q 3400 4634 3834 4519 
z
" transform="scale(0.015625)"/>
      <path id="DejaVuSans-Bold-73" d="M 3272 3391 
L 3272 2541 
Q 2913 2691 2578 2766 
Q 2244 2841 1947 2841 
Q 1628 2841 1473 2761 
Q 1319 2681 1319 2516 
Q 1319 2381 1436 2309 
Q 1553 2238 1856 2203 
L 2053 2175 
Q 2913 2066 3209 1816 
Q 3506 1566 3506 1031 
Q 3506 472 3093 190 
Q 2681 -91 1863 -91 
Q 1516 -91 1145 -36 
Q 775 19 384 128 
L 384 978 
Q 719 816 1070 734 
Q 1422 653 1784 653 
Q 2113 653 2278 743 
Q 2444 834 2444 1013 
Q 2444 1163 2330 1236 
Q 2216 1309 1875 1350 
L 1678 1375 
Q 931 1469 631 1722 
Q 331 1975 331 2491 
Q 331 3047 712 3315 
Q 1094 3584 1881 3584 
Q 2191 3584 2531 3537 
Q 2872 3491 3272 3391 
z
" transform="scale(0.015625)"/>
      <path id="DejaVuSans-Bold-72" d="M 3138 2547 
Q 2991 2616 2845 2648 
Q 2700 2681 2553 2681 
Q 2122 2681 1889 2404 
Q 1656 2128 1656 1613 
L 1656 0 
L 538 0 
L 538 3500 
L 1656 3500 
L 1656 2925 
Q 1872 3269 2151 3426 
Q 2431 3584 2822 3584 
Q 2878 3584 2943 3579 
Q 3009 3575 3134 3559 
L 3138 2547 
z
" transform="scale(0.015625)"/>
      <path id="DejaVuSans-Bold-6d" d="M 3781 2919 
Q 3994 3244 4286 3414 
Q 4578 3584 4928 3584 
Q 5531 3584 5847 3212 
Q 6163 2841 6163 2131 
L 6163 0 
L 5038 0 
L 5038 1825 
Q 5041 1866 5042 1909 
Q 5044 1953 5044 2034 
Q 5044 2406 4934 2573 
Q 4825 2741 4581 2741 
Q 4263 2741 4089 2478 
Q 3916 2216 3909 1719 
L 3909 0 
L 2784 0 
L 2784 1825 
Q 2784 2406 2684 2573 
Q 2584 2741 2328 2741 
Q 2006 2741 1831 2477 
Q 1656 2213 1656 1722 
L 1656 0 
L 531 0 
L 531 3500 
L 1656 3500 
L 1656 2988 
Q 1863 3284 2130 3434 
Q 2397 3584 2719 3584 
Q 3081 3584 3359 3409 
Q 3638 3234 3781 2919 
z
" transform="scale(0.015625)"/>
      <path id="DejaVuSans-Bold-f3" d="M 2203 2784 
Q 1831 2784 1636 2517 
Q 1441 2250 1441 1747 
Q 1441 1244 1636 976 
Q 1831 709 2203 709 
Q 2569 709 2762 976 
Q 2956 1244 2956 1747 
Q 2956 2250 2762 2517 
Q 2569 2784 2203 2784 
z
M 2203 3584 
Q 3106 3584 3614 3096 
Q 4122 2609 4122 1747 
Q 4122 884 3614 396 
Q 3106 -91 2203 -91 
Q 1297 -91 786 396 
Q 275 884 275 1747 
Q 275 2609 786 3096 
Q 1297 3584 2203 3584 
z
M 2694 5119 
L 3578 5119 
L 2425 3944 
L 1813 3944 
L 2694 5119 
z
" transform="scale(0.015625)"/>
      <path id="DejaVuSans-Bold-3a" d="M 716 3500 
L 1844 3500 
L 1844 2291 
L 716 2291 
L 716 3500 
z
M 716 1209 
L 1844 1209 
L 1844 0 
L 716 0 
L 716 1209 
z
" transform="scale(0.015625)"/>
      <path id="DejaVuSans-Bold-3c0" d="M 269 3500 
L 4684 3500 
L 4684 2700 
L 4072 2700 
L 4072 1131 
Q 4072 728 4148 629 
Q 4225 531 4400 531 
Q 4578 531 4678 544 
L 4678 -44 
Q 4484 -122 3822 -122 
Q 3613 -122 3409 -63 
Q 3084 34 2994 319 
Q 2953 453 2953 728 
L 2953 2700 
L 2000 2700 
L 2000 0 
L 881 0 
L 881 2700 
L 269 2700 
L 269 3500 
z
" transform="scale(0.015625)"/>
      <path id="DejaVuSans-Bold-3d" d="M 678 3084 
L 4684 3084 
L 4684 2350 
L 678 2350 
L 678 3084 
z
M 678 1663 
L 4684 1663 
L 4684 922 
L 678 922 
L 678 1663 
z
" transform="scale(0.015625)"/>
      <path id="DejaVuSans-Bold-34" d="M 2356 3675 
L 1038 1722 
L 2356 1722 
L 2356 3675 
z
M 2156 4666 
L 3494 4666 
L 3494 1722 
L 4159 1722 
L 4159 850 
L 3494 850 
L 3494 0 
L 2356 0 
L 2356 850 
L 288 850 
L 288 1881 
L 2156 4666 
z
" transform="scale(0.015625)"/>
      <path id="DejaVuSans-Bold-36" d="M 2316 2303 
Q 2000 2303 1842 2098 
Q 1684 1894 1684 1484 
Q 1684 1075 1842 870 
Q 2000 666 2316 666 
Q 2634 666 2792 870 
Q 2950 1075 2950 1484 
Q 2950 1894 2792 2098 
Q 2634 2303 2316 2303 
z
M 3803 4544 
L 3803 3681 
Q 3506 3822 3243 3889 
Q 2981 3956 2731 3956 
Q 2194 3956 1894 3657 
Q 1594 3359 1544 2772 
Q 1750 2925 1990 3001 
Q 2231 3078 2516 3078 
Q 3231 3078 3670 2659 
Q 4109 2241 4109 1563 
Q 4109 813 3618 361 
Q 3128 -91 2303 -91 
Q 1394 -91 895 523 
Q 397 1138 397 2266 
Q 397 3422 980 4083 
Q 1563 4744 2578 4744 
Q 2900 4744 3203 4694 
Q 3506 4644 3803 4544 
z
" transform="scale(0.015625)"/>
     </defs>
     <use xlink:href="#DejaVuSans-Bold-28"/>
     <use xlink:href="#DejaVuSans-Bold-61" x="45.703125"/>
     <use xlink:href="#DejaVuSans-Bold-29" x="113.183594"/>
     <use xlink:href="#DejaVuSans-Bold-20" x="158.886719"/>
     <use xlink:href="#DejaVuSans-Bold-53" x="193.701172"/>
     <use xlink:href="#DejaVuSans-Bold-69" x="265.722656"/>
     <use xlink:href="#DejaVuSans-Bold-6e" x="300"/>
     <use xlink:href="#DejaVuSans-Bold-20" x="371.191406"/>
     <use xlink:href="#DejaVuSans-Bold-64" x="406.005859"/>
     <use xlink:href="#DejaVuSans-Bold-69" x="477.587891"/>
     <use xlink:href="#DejaVuSans-Bold-73" x="511.865234"/>
     <use xlink:href="#DejaVuSans-Bold-63" x="571.386719"/>
     <use xlink:href="#DejaVuSans-Bold-72" x="630.664062"/>
     <use xlink:href="#DejaVuSans-Bold-69" x="679.980469"/>
     <use xlink:href="#DejaVuSans-Bold-6d" x="714.257812"/>
     <use xlink:href="#DejaVuSans-Bold-69" x="818.457031"/>
     <use xlink:href="#DejaVuSans-Bold-6e" x="852.734375"/>
     <use xlink:href="#DejaVuSans-Bold-61" x="923.925781"/>
     <use xlink:href="#DejaVuSans-Bold-63" x="991.40625"/>
     <use xlink:href="#DejaVuSans-Bold-69" x="1050.683594"/>
     <use xlink:href="#DejaVuSans-Bold-f3" x="1084.960938"/>
     <use xlink:href="#DejaVuSans-Bold-6e" x="1153.662109"/>
     <use xlink:href="#DejaVuSans-Bold-3a" x="1224.853516"/>
     <use xlink:href="#DejaVuSans-Bold-20" x="1264.84375"/>
     <use xlink:href="#DejaVuSans-Bold-3c0" x="1299.658203"/>
     <use xlink:href="#DejaVuSans-Bold-20" x="1378.759766"/>
     <use xlink:href="#DejaVuSans-Bold-3d" x="1413.574219"/>
     <use xlink:href="#DejaVuSans-Bold-20" x="1497.363281"/>
     <use xlink:href="#DejaVuSans-Bold-34" x="1532.177734"/>
     <use xlink:href="#DejaVuSans-Bold-36" x="1601.757812"/>
    </g>
   </g>
   <g id="legend_1">
    <g id="patch_5">
     <path d="M 64.976858 502.517969 
L 161.342952 502.517969 
Q 163.142952 502.517969 163.142952 500.717969 
L 163.142952 461.987031 
Q 163.142952 460.187031 161.342952 460.187031 
L 64.976858 460.187031 
Q 63.176858 460.187031 63.176858 461.987031 
L 63.176858 500.717969 
Q 63.176858 502.517969 64.976858 502.517969 
z
" style="fill: #ffffff; opacity: 0.8; stroke: #cccccc; stroke-linejoin: miter"/>
    </g>
    <g id="line2d_36">
     <path d="M 66.776858 467.475625 
L 75.776858 467.475625 
L 84.776858 467.475625 
" style="fill: none; stroke: #c0392b; stroke-width: 3; stroke-linecap: square"/>
    </g>
    <g id="text_18">
     <!-- D: y = 48 − 4p -->
     <g transform="translate(91.976858 470.625625) scale(0.09 -0.09)">
      <defs>
       <path id="DejaVuSans-44" d="M 1259 4147 
L 1259 519 
L 2022 519 
Q 2988 519 3436 956 
Q 3884 1394 3884 2338 
Q 3884 3275 3436 3711 
Q 2988 4147 2022 4147 
L 1259 4147 
z
M 628 4666 
L 1925 4666 
Q 3281 4666 3915 4102 
Q 4550 3538 4550 2338 
Q 4550 1131 3912 565 
Q 3275 0 1925 0 
L 628 0 
L 628 4666 
z
" transform="scale(0.015625)"/>
       <path id="DejaVuSans-3a" d="M 750 794 
L 1409 794 
L 1409 0 
L 750 0 
L 750 794 
z
M 750 3309 
L 1409 3309 
L 1409 2516 
L 750 2516 
L 750 3309 
z
" transform="scale(0.015625)"/>
       <path id="DejaVuSans-20" transform="scale(0.015625)"/>
       <path id="DejaVuSans-79" d="M 2059 -325 
Q 1816 -950 1584 -1140 
Q 1353 -1331 966 -1331 
L 506 -1331 
L 506 -850 
L 844 -850 
Q 1081 -850 1212 -737 
Q 1344 -625 1503 -206 
L 1606 56 
L 191 3500 
L 800 3500 
L 1894 763 
L 2988 3500 
L 3597 3500 
L 2059 -325 
z
" transform="scale(0.015625)"/>
       <path id="DejaVuSans-3d" d="M 678 2906 
L 4684 2906 
L 4684 2381 
L 678 2381 
L 678 2906 
z
M 678 1631 
L 4684 1631 
L 4684 1100 
L 678 1100 
L 678 1631 
z
" transform="scale(0.015625)"/>
       <path id="DejaVuSans-2212" d="M 678 2272 
L 4684 2272 
L 4684 1741 
L 678 1741 
L 678 2272 
z
" transform="scale(0.015625)"/>
       <path id="DejaVuSans-70" d="M 1159 525 
L 1159 -1331 
L 581 -1331 
L 581 3500 
L 1159 3500 
L 1159 2969 
Q 1341 3281 1617 3432 
Q 1894 3584 2278 3584 
Q 2916 3584 3314 3078 
Q 3713 2572 3713 1747 
Q 3713 922 3314 415 
Q 2916 -91 2278 -91 
Q 1894 -91 1617 61 
Q 1341 213 1159 525 
z
M 3116 1747 
Q 3116 2381 2855 2742 
Q 2594 3103 2138 3103 
Q 1681 3103 1420 2742 
Q 1159 2381 1159 1747 
Q 1159 1113 1420 752 
Q 1681 391 2138 391 
Q 2594 391 2855 752 
Q 3116 1113 3116 1747 
z
" transform="scale(0.015625)"/>
      </defs>
      <use xlink:href="#DejaVuSans-44"/>
      <use xlink:href="#DejaVuSans-3a" x="77.001953"/>
      <use xlink:href="#DejaVuSans-20" x="110.693359"/>
      <use xlink:href="#DejaVuSans-79" x="142.480469"/>
      <use xlink:href="#DejaVuSans-20" x="201.660156"/>
      <use xlink:href="#DejaVuSans-3d" x="233.447266"/>
      <use xlink:href="#DejaVuSans-20" x="317.236328"/>
      <use xlink:href="#DejaVuSans-34" x="349.023438"/>
      <use xlink:href="#DejaVuSans-38" x="412.646484"/>
      <use xlink:href="#DejaVuSans-20" x="476.269531"/>
      <use xlink:href="#DejaVuSans-2212" x="508.056641"/>
      <use xlink:href="#DejaVuSans-20" x="591.845703"/>
      <use xlink:href="#DejaVuSans-34" x="623.632812"/>
      <use xlink:href="#DejaVuSans-70" x="687.255859"/>
     </g>
    </g>
    <g id="line2d_37">
     <path d="M 66.776858 480.685938 
L 75.776858 480.685938 
L 84.776858 480.685938 
" style="fill: none; stroke-dasharray: 9.25,4; stroke-dashoffset: 0; stroke: #e6796b; stroke-width: 2.5"/>
    </g>
    <g id="text_19">
     <!-- IMg -->
     <g transform="translate(91.976858 483.835938) scale(0.09 -0.09)">
      <defs>
       <path id="DejaVuSans-49" d="M 628 4666 
L 1259 4666 
L 1259 0 
L 628 0 
L 628 4666 
z
" transform="scale(0.015625)"/>
       <path id="DejaVuSans-4d" d="M 628 4666 
L 1569 4666 
L 2759 1491 
L 3956 4666 
L 4897 4666 
L 4897 0 
L 4281 0 
L 4281 4097 
L 3078 897 
L 2444 897 
L 1241 4097 
L 1241 0 
L 628 0 
L 628 4666 
z
" transform="scale(0.015625)"/>
       <path id="DejaVuSans-67" d="M 2906 1791 
Q 2906 2416 2648 2759 
Q 2391 3103 1925 3103 
Q 1463 3103 1205 2759 
Q 947 2416 947 1791 
Q 947 1169 1205 825 
Q 1463 481 1925 481 
Q 2391 481 2648 825 
Q 2906 1169 2906 1791 
z
M 3481 434 
Q 3481 -459 3084 -895 
Q 2688 -1331 1869 -1331 
Q 1566 -1331 1297 -1286 
Q 1028 -1241 775 -1147 
L 775 -588 
Q 1028 -725 1275 -790 
Q 1522 -856 1778 -856 
Q 2344 -856 2625 -561 
Q 2906 -266 2906 331 
L 2906 616 
Q 2728 306 2450 153 
Q 2172 0 1784 0 
Q 1141 0 747 490 
Q 353 981 353 1791 
Q 353 2603 747 3093 
Q 1141 3584 1784 3584 
Q 2172 3584 2450 3431 
Q 2728 3278 2906 2969 
L 2906 3500 
L 3481 3500 
L 3481 434 
z
" transform="scale(0.015625)"/>
      </defs>
      <use xlink:href="#DejaVuSans-49"/>
      <use xlink:href="#DejaVuSans-4d" x="29.492188"/>
      <use xlink:href="#DejaVuSans-67" x="115.771484"/>
     </g>
    </g>
    <g id="line2d_38">
     <path d="M 66.776858 493.89625 
L 75.776858 493.89625 
L 84.776858 493.89625 
" style="fill: none; stroke: #e67e22; stroke-width: 3; stroke-linecap: square"/>
    </g>
    <g id="text_20">
     <!-- CMg = 5 -->
     <g transform="translate(91.976858 497.04625) scale(0.09 -0.09)">
      <defs>
       <path id="DejaVuSans-43" d="M 4122 4306 
L 4122 3641 
Q 3803 3938 3442 4084 
Q 3081 4231 2675 4231 
Q 1875 4231 1450 3742 
Q 1025 3253 1025 2328 
Q 1025 1406 1450 917 
Q 1875 428 2675 428 
Q 3081 428 3442 575 
Q 3803 722 4122 1019 
L 4122 359 
Q 3791 134 3420 21 
Q 3050 -91 2638 -91 
Q 1578 -91 968 557 
Q 359 1206 359 2328 
Q 359 3453 968 4101 
Q 1578 4750 2638 4750 
Q 3056 4750 3426 4639 
Q 3797 4528 4122 4306 
z
" transform="scale(0.015625)"/>
      </defs>
      <use xlink:href="#DejaVuSans-43"/>
      <use xlink:href="#DejaVuSans-4d" x="69.824219"/>
      <use xlink:href="#DejaVuSans-67" x="156.103516"/>
      <use xlink:href="#DejaVuSans-20" x="219.580078"/>
      <use xlink:href="#DejaVuSans-3d" x="251.367188"/>
      <use xlink:href="#DejaVuSans-20" x="335.15625"/>
      <use xlink:href="#DejaVuSans-35" x="366.943359"/>
     </g>
    </g>
   </g>
   <g id="line2d_39">
    <defs>
     <path id="m0eac24243b" d="M 0 6 
C 1.591219 6 3.117479 5.367802 4.242641 4.242641 
C 5.367802 3.117479 6 1.591219 6 0 
C 6 -1.591219 5.367802 -3.117479 4.242641 -4.242641 
C 3.117479 -5.367802 1.591219 -6 0 -6 
C -1.591219 -6 -3.117479 -5.367802 -4.242641 -4.242641 
C -5.367802 -3.117479 -6 -1.591219 -6 0 
C -6 1.591219 -5.367802 3.117479 -4.242641 4.242641 
C -3.117479 5.367802 -1.591219 6 0 6 
z
" style="stroke: #000000"/>
    </defs>
    <g clip-path="url(#pe78aa1ff5d)">
     <use xlink:href="#m0eac24243b" x="190.141994" y="212.940549" style="stroke: #000000"/>
    </g>
   </g>
   <g id="patch_6">
    <path d="M 295.884176 147.056374 
Q 243.863399 179.468662 192.791537 211.289714 
" style="fill: none; stroke: #000000; stroke-linecap: round"/>
    <path d="M 197.244114 210.871918 
L 192.791537 211.289714 
L 195.128846 207.476975 
" style="fill: none; stroke: #000000; stroke-linecap: round"/>
   </g>
   <g id="text_21">
    <g id="patch_7">
     <path d="M 282.364162 145.500882 
L 360.8501 145.500882 
Q 364.8501 145.500882 364.8501 141.500882 
L 364.8501 120.479632 
Q 364.8501 116.479632 360.8501 116.479632 
L 282.364162 116.479632 
Q 278.364162 116.479632 278.364162 120.479632 
L 278.364162 141.500882 
Q 278.364162 145.500882 282.364162 145.500882 
z
" style="fill: #e8f8f5; opacity: 0.97; stroke: #16a085; stroke-linejoin: miter"/>
    </g>
    <!-- (y=14, p=8.5) -->
    <g transform="translate(282.364162 128.145257) scale(0.1 -0.1)">
     <defs>
      <path id="DejaVuSans-Bold-31" d="M 750 831 
L 1813 831 
L 1813 3847 
L 722 3622 
L 722 4441 
L 1806 4666 
L 2950 4666 
L 2950 831 
L 4013 831 
L 4013 0 
L 750 0 
L 750 831 
z
" transform="scale(0.015625)"/>
      <path id="DejaVuSans-Bold-2c" d="M 653 1209 
L 1778 1209 
L 1778 256 
L 1006 -909 
L 341 -909 
L 653 256 
L 653 1209 
z
" transform="scale(0.015625)"/>
      <path id="DejaVuSans-Bold-38" d="M 2228 2088 
Q 1891 2088 1709 1903 
Q 1528 1719 1528 1375 
Q 1528 1031 1709 848 
Q 1891 666 2228 666 
Q 2563 666 2741 848 
Q 2919 1031 2919 1375 
Q 2919 1722 2741 1905 
Q 2563 2088 2228 2088 
z
M 1350 2484 
Q 925 2613 709 2878 
Q 494 3144 494 3541 
Q 494 4131 934 4440 
Q 1375 4750 2228 4750 
Q 3075 4750 3515 4442 
Q 3956 4134 3956 3541 
Q 3956 3144 3739 2878 
Q 3522 2613 3097 2484 
Q 3572 2353 3814 2058 
Q 4056 1763 4056 1313 
Q 4056 619 3595 264 
Q 3134 -91 2228 -91 
Q 1319 -91 855 264 
Q 391 619 391 1313 
Q 391 1763 633 2058 
Q 875 2353 1350 2484 
z
M 1631 3419 
Q 1631 3141 1786 2991 
Q 1941 2841 2228 2841 
Q 2509 2841 2662 2991 
Q 2816 3141 2816 3419 
Q 2816 3697 2662 3845 
Q 2509 3994 2228 3994 
Q 1941 3994 1786 3844 
Q 1631 3694 1631 3419 
z
" transform="scale(0.015625)"/>
      <path id="DejaVuSans-Bold-2e" d="M 653 1209 
L 1778 1209 
L 1778 0 
L 653 0 
L 653 1209 
z
" transform="scale(0.015625)"/>
      <path id="DejaVuSans-Bold-35" d="M 678 4666 
L 3669 4666 
L 3669 3781 
L 1638 3781 
L 1638 3059 
Q 1775 3097 1914 3117 
Q 2053 3138 2203 3138 
Q 3056 3138 3531 2711 
Q 4006 2284 4006 1522 
Q 4006 766 3489 337 
Q 2972 -91 2053 -91 
Q 1656 -91 1267 -14 
Q 878 63 494 219 
L 494 1166 
Q 875 947 1217 837 
Q 1559 728 1863 728 
Q 2300 728 2551 942 
Q 2803 1156 2803 1522 
Q 2803 1891 2551 2103 
Q 2300 2316 1863 2316 
Q 1603 2316 1309 2248 
Q 1016 2181 678 2041 
L 678 4666 
z
" transform="scale(0.015625)"/>
     </defs>
     <use xlink:href="#DejaVuSans-Bold-28"/>
     <use xlink:href="#DejaVuSans-Bold-79" x="45.703125"/>
     <use xlink:href="#DejaVuSans-Bold-3d" x="110.888672"/>
     <use xlink:href="#DejaVuSans-Bold-31" x="194.677734"/>
     <use xlink:href="#DejaVuSans-Bold-34" x="264.257812"/>
     <use xlink:href="#DejaVuSans-Bold-2c" x="333.837891"/>
     <use xlink:href="#DejaVuSans-Bold-20" x="371.826172"/>
     <use xlink:href="#DejaVuSans-Bold-70" x="406.640625"/>
     <use xlink:href="#DejaVuSans-Bold-3d" x="478.222656"/>
     <use xlink:href="#DejaVuSans-Bold-38" x="562.011719"/>
     <use xlink:href="#DejaVuSans-Bold-2e" x="631.591797"/>
     <use xlink:href="#DejaVuSans-Bold-35" x="669.580078"/>
     <use xlink:href="#DejaVuSans-Bold-29" x="739.160156"/>
    </g>
    <!-- π = 46 -->
    <g transform="translate(303.022756 139.421195) scale(0.1 -0.1)">
     <use xlink:href="#DejaVuSans-Bold-3c0"/>
     <use xlink:href="#DejaVuSans-Bold-20" x="79.101562"/>
     <use xlink:href="#DejaVuSans-Bold-3d" x="113.916016"/>
     <use xlink:href="#DejaVuSans-Bold-20" x="197.705078"/>
     <use xlink:href="#DejaVuSans-Bold-34" x="232.519531"/>
     <use xlink:href="#DejaVuSans-Bold-36" x="302.099609"/>
    </g>
   </g>
  </g>
  <g id="axes_2">
   <g id="patch_8">
    <path d="M 584.696449 507.017969 
L 1053.040998 507.017969 
L 1053.040998 51.197969 
L 584.696449 51.197969 
z
" style="fill: #ffffff"/>
   </g>
   <g id="matplotlib.axis_3">
    <g id="xtick_7">
     <g id="line2d_40">
      <path d="M 601.42304 507.017969 
L 601.42304 51.197969 
" clip-path="url(#p28bb4309d2)" style="fill: none; stroke-dasharray: 0.8,1.32; stroke-dashoffset: 0; stroke: #b0b0b0; stroke-opacity: 0.4; stroke-width: 0.8"/>
     </g>
     <g id="line2d_41">
      <g>
       <use xlink:href="#m6c547589db" x="601.42304" y="469.655674" style="stroke: #000000"/>
      </g>
     </g>
     <g id="text_22">
      <!-- 0 -->
      <g transform="translate(598.24179 480.754111) scale(0.1 -0.1)">
       <use xlink:href="#DejaVuSans-30"/>
      </g>
     </g>
    </g>
    <g id="xtick_8">
     <g id="line2d_42">
      <path d="M 685.055995 507.017969 
L 685.055995 51.197969 
" clip-path="url(#p28bb4309d2)" style="fill: none; stroke-dasharray: 0.8,1.32; stroke-dashoffset: 0; stroke: #b0b0b0; stroke-opacity: 0.4; stroke-width: 0.8"/>
     </g>
     <g id="line2d_43">
      <g>
       <use xlink:href="#m6c547589db" x="685.055995" y="469.655674" style="stroke: #000000"/>
      </g>
     </g>
     <g id="text_23">
      <!-- 5 -->
      <g transform="translate(681.874745 480.754111) scale(0.1 -0.1)">
       <use xlink:href="#DejaVuSans-35"/>
      </g>
     </g>
    </g>
    <g id="xtick_9">
     <g id="line2d_44">
      <path d="M 768.68895 507.017969 
L 768.68895 51.197969 
" clip-path="url(#p28bb4309d2)" style="fill: none; stroke-dasharray: 0.8,1.32; stroke-dashoffset: 0; stroke: #b0b0b0; stroke-opacity: 0.4; stroke-width: 0.8"/>
     </g>
     <g id="line2d_45">
      <g>
       <use xlink:href="#m6c547589db" x="768.68895" y="469.655674" style="stroke: #000000"/>
      </g>
     </g>
     <g id="text_24">
      <!-- 10 -->
      <g transform="translate(762.32645 480.754111) scale(0.1 -0.1)">
       <use xlink:href="#DejaVuSans-31"/>
       <use xlink:href="#DejaVuSans-30" x="63.623047"/>
      </g>
     </g>
    </g>
    <g id="xtick_10">
     <g id="line2d_46">
      <path d="M 852.321905 507.017969 
L 852.321905 51.197969 
" clip-path="url(#p28bb4309d2)" style="fill: none; stroke-dasharray: 0.8,1.32; stroke-dashoffset: 0; stroke: #b0b0b0; stroke-opacity: 0.4; stroke-width: 0.8"/>
     </g>
     <g id="line2d_47">
      <g>
       <use xlink:href="#m6c547589db" x="852.321905" y="469.655674" style="stroke: #000000"/>
      </g>
     </g>
     <g id="text_25">
      <!-- 15 -->
      <g transform="translate(845.959405 480.754111) scale(0.1 -0.1)">
       <use xlink:href="#DejaVuSans-31"/>
       <use xlink:href="#DejaVuSans-35" x="63.623047"/>
      </g>
     </g>
    </g>
    <g id="xtick_11">
     <g id="line2d_48">
      <path d="M 935.95486 507.017969 
L 935.95486 51.197969 
" clip-path="url(#p28bb4309d2)" style="fill: none; stroke-dasharray: 0.8,1.32; stroke-dashoffset: 0; stroke: #b0b0b0; stroke-opacity: 0.4; stroke-width: 0.8"/>
     </g>
     <g id="line2d_49">
      <g>
       <use xlink:href="#m6c547589db" x="935.95486" y="469.655674" style="stroke: #000000"/>
      </g>
     </g>
     <g id="text_26">
      <!-- 20 -->
      <g transform="translate(929.59236 480.754111) scale(0.1 -0.1)">
       <use xlink:href="#DejaVuSans-32"/>
       <use xlink:href="#DejaVuSans-30" x="63.623047"/>
      </g>
     </g>
    </g>
    <g id="xtick_12">
     <g id="line2d_50">
      <path d="M 1019.587816 507.017969 
L 1019.587816 51.197969 
" clip-path="url(#p28bb4309d2)" style="fill: none; stroke-dasharray: 0.8,1.32; stroke-dashoffset: 0; stroke: #b0b0b0; stroke-opacity: 0.4; stroke-width: 0.8"/>
     </g>
     <g id="line2d_51">
      <g>
       <use xlink:href="#m6c547589db" x="1019.587816" y="469.655674" style="stroke: #000000"/>
      </g>
     </g>
     <g id="text_27">
      <!-- 25 -->
      <g transform="translate(1013.225316 480.754111) scale(0.1 -0.1)">
       <use xlink:href="#DejaVuSans-32"/>
       <use xlink:href="#DejaVuSans-35" x="63.623047"/>
      </g>
     </g>
    </g>
    <g id="text_28">
     <!-- y₁ -->
     <g transform="translate(1039.962873 489.858174) scale(0.12 -0.12)">
      <defs>
       <path id="DejaVuSans-Bold-2081" d="M 441 466 
L 1088 466 
L 1088 2094 
L 384 1932 
L 384 2432 
L 1100 2585 
L 1806 2585 
L 1806 466 
L 2444 466 
L 2444 -24 
L 441 -24 
L 441 466 
z
" transform="scale(0.015625)"/>
      </defs>
      <use xlink:href="#DejaVuSans-Bold-79"/>
      <use xlink:href="#DejaVuSans-Bold-2081" x="65.185547"/>
     </g>
    </g>
   </g>
   <g id="matplotlib.axis_4">
    <g id="ytick_9">
     <g id="line2d_52">
      <path d="M 584.696449 469.655674 
L 1053.040998 469.655674 
" clip-path="url(#p28bb4309d2)" style="fill: none; stroke-dasharray: 0.8,1.32; stroke-dashoffset: 0; stroke: #b0b0b0; stroke-opacity: 0.4; stroke-width: 0.8"/>
     </g>
     <g id="line2d_53">
      <g>
       <use xlink:href="#mdc89d94d63" x="601.42304" y="469.655674" style="stroke: #000000"/>
      </g>
     </g>
     <g id="text_29">
      <!-- 0 -->
      <g transform="translate(591.56054 473.454892) scale(0.1 -0.1)">
       <use xlink:href="#DejaVuSans-30"/>
      </g>
     </g>
    </g>
    <g id="ytick_10">
     <g id="line2d_54">
      <path d="M 584.696449 394.931084 
L 1053.040998 394.931084 
" clip-path="url(#p28bb4309d2)" style="fill: none; stroke-dasharray: 0.8,1.32; stroke-dashoffset: 0; stroke: #b0b0b0; stroke-opacity: 0.4; stroke-width: 0.8"/>
     </g>
     <g id="line2d_55">
      <g>
       <use xlink:href="#mdc89d94d63" x="601.42304" y="394.931084" style="stroke: #000000"/>
      </g>
     </g>
     <g id="text_30">
      <!-- 5 -->
      <g transform="translate(591.56054 398.730302) scale(0.1 -0.1)">
       <use xlink:href="#DejaVuSans-35"/>
      </g>
     </g>
    </g>
    <g id="ytick_11">
     <g id="line2d_56">
      <path d="M 584.696449 320.206493 
L 1053.040998 320.206493 
" clip-path="url(#p28bb4309d2)" style="fill: none; stroke-dasharray: 0.8,1.32; stroke-dashoffset: 0; stroke: #b0b0b0; stroke-opacity: 0.4; stroke-width: 0.8"/>
     </g>
     <g id="line2d_57">
      <g>
       <use xlink:href="#mdc89d94d63" x="601.42304" y="320.206493" style="stroke: #000000"/>
      </g>
     </g>
     <g id="text_31">
      <!-- 10 -->
      <g transform="translate(585.19804 324.005712) scale(0.1 -0.1)">
       <use xlink:href="#DejaVuSans-31"/>
       <use xlink:href="#DejaVuSans-30" x="63.623047"/>
      </g>
     </g>
    </g>
    <g id="ytick_12">
     <g id="line2d_58">
      <path d="M 584.696449 245.481903 
L 1053.040998 245.481903 
" clip-path="url(#p28bb4309d2)" style="fill: none; stroke-dasharray: 0.8,1.32; stroke-dashoffset: 0; stroke: #b0b0b0; stroke-opacity: 0.4; stroke-width: 0.8"/>
     </g>
     <g id="line2d_59">
      <g>
       <use xlink:href="#mdc89d94d63" x="601.42304" y="245.481903" style="stroke: #000000"/>
      </g>
     </g>
     <g id="text_32">
      <!-- 15 -->
      <g transform="translate(585.19804 249.281122) scale(0.1 -0.1)">
       <use xlink:href="#DejaVuSans-31"/>
       <use xlink:href="#DejaVuSans-35" x="63.623047"/>
      </g>
     </g>
    </g>
    <g id="ytick_13">
     <g id="line2d_60">
      <path d="M 584.696449 170.757313 
L 1053.040998 170.757313 
" clip-path="url(#p28bb4309d2)" style="fill: none; stroke-dasharray: 0.8,1.32; stroke-dashoffset: 0; stroke: #b0b0b0; stroke-opacity: 0.4; stroke-width: 0.8"/>
     </g>
     <g id="line2d_61">
      <g>
       <use xlink:href="#mdc89d94d63" x="601.42304" y="170.757313" style="stroke: #000000"/>
      </g>
     </g>
     <g id="text_33">
      <!-- 20 -->
      <g transform="translate(585.19804 174.556532) scale(0.1 -0.1)">
       <use xlink:href="#DejaVuSans-32"/>
       <use xlink:href="#DejaVuSans-30" x="63.623047"/>
      </g>
     </g>
    </g>
    <g id="ytick_14">
     <g id="line2d_62">
      <path d="M 584.696449 96.032723 
L 1053.040998 96.032723 
" clip-path="url(#p28bb4309d2)" style="fill: none; stroke-dasharray: 0.8,1.32; stroke-dashoffset: 0; stroke: #b0b0b0; stroke-opacity: 0.4; stroke-width: 0.8"/>
     </g>
     <g id="line2d_63">
      <g>
       <use xlink:href="#mdc89d94d63" x="601.42304" y="96.032723" style="stroke: #000000"/>
      </g>
     </g>
     <g id="text_34">
      <!-- 25 -->
      <g transform="translate(585.19804 99.831942) scale(0.1 -0.1)">
       <use xlink:href="#DejaVuSans-32"/>
       <use xlink:href="#DejaVuSans-35" x="63.623047"/>
      </g>
     </g>
    </g>
    <g id="text_35">
     <!-- p₁ ($) -->
     <g transform="translate(549.857415 48.702344) scale(0.12 -0.12)">
      <use xlink:href="#DejaVuSans-Bold-70"/>
      <use xlink:href="#DejaVuSans-Bold-2081" x="71.582031"/>
      <use xlink:href="#DejaVuSans-Bold-20" x="115.380859"/>
      <use xlink:href="#DejaVuSans-Bold-28" x="150.195312"/>
      <use xlink:href="#DejaVuSans-Bold-24" x="195.898438"/>
      <use xlink:href="#DejaVuSans-Bold-29" x="265.478516"/>
     </g>
    </g>
   </g>
   <g id="line2d_64">
    <path d="M 601.42304 110.977641 
L 1019.587816 484.600592 
L 1019.587816 484.600592 
" clip-path="url(#p28bb4309d2)" style="fill: none; stroke: #c0392b; stroke-width: 3; stroke-linecap: square"/>
   </g>
   <g id="line2d_65">
    <path d="M 601.42304 110.977641 
L 839.726689 536.817969 
L 839.726689 536.817969 
" clip-path="url(#p28bb4309d2)" style="fill: none; stroke-dasharray: 9.25,4; stroke-dashoffset: 0; stroke: #e6796b; stroke-width: 2.5"/>
   </g>
   <g id="line2d_66">
    <path d="M 584.696449 394.931084 
L 1053.040998 394.931084 
" clip-path="url(#p28bb4309d2)" style="fill: none; stroke: #e67e22; stroke-width: 3; stroke-linecap: square"/>
   </g>
   <g id="line2d_67">
    <path d="M 760.325655 469.655674 
L 760.325655 252.954362 
" clip-path="url(#p28bb4309d2)" style="fill: none; stroke-dasharray: 3.7,1.6; stroke-dashoffset: 0; stroke: #34495e; stroke-opacity: 0.6"/>
   </g>
   <g id="line2d_68">
    <path d="M 601.42304 252.954362 
L 760.325655 252.954362 
" clip-path="url(#p28bb4309d2)" style="fill: none; stroke-dasharray: 3.7,1.6; stroke-dashoffset: 0; stroke: #34495e; stroke-opacity: 0.6"/>
   </g>
   <g id="line2d_69">
    <g>
     <use xlink:href="#mf2c8dcc53a" x="1053.040998" y="469.655674" style="stroke: #000000; stroke-linejoin: miter"/>
    </g>
   </g>
   <g id="line2d_70">
    <g>
     <use xlink:href="#mf642e0a865" x="601.42304" y="51.197969" style="stroke: #000000; stroke-linejoin: miter"/>
    </g>
   </g>
   <g id="patch_9">
    <path d="M 601.42304 507.017969 
L 601.42304 51.197969 
" style="fill: none; stroke: #000000; stroke-width: 1.4; stroke-linejoin: miter; stroke-linecap: square"/>
   </g>
   <g id="patch_10">
    <path d="M 584.696449 469.655674 
L 1053.040998 469.655674 
" style="fill: none; stroke: #000000; stroke-width: 1.4; stroke-linejoin: miter; stroke-linecap: square"/>
   </g>
   <g id="text_36">
    <!-- (b) Segmento 1 (menos elástico): p₁=$14.5 -->
    <g transform="translate(660.578489 39.197969) scale(0.13 -0.13)">
     <defs>
      <path id="DejaVuSans-Bold-62" d="M 2400 722 
Q 2759 722 2948 984 
Q 3138 1247 3138 1747 
Q 3138 2247 2948 2509 
Q 2759 2772 2400 2772 
Q 2041 2772 1848 2508 
Q 1656 2244 1656 1747 
Q 1656 1250 1848 986 
Q 2041 722 2400 722 
z
M 1656 2988 
Q 1888 3294 2169 3439 
Q 2450 3584 2816 3584 
Q 3463 3584 3878 3070 
Q 4294 2556 4294 1747 
Q 4294 938 3878 423 
Q 3463 -91 2816 -91 
Q 2450 -91 2169 54 
Q 1888 200 1656 506 
L 1656 0 
L 538 0 
L 538 4863 
L 1656 4863 
L 1656 2988 
z
" transform="scale(0.015625)"/>
      <path id="DejaVuSans-Bold-65" d="M 4031 1759 
L 4031 1441 
L 1416 1441 
Q 1456 1047 1700 850 
Q 1944 653 2381 653 
Q 2734 653 3104 758 
Q 3475 863 3866 1075 
L 3866 213 
Q 3469 63 3072 -14 
Q 2675 -91 2278 -91 
Q 1328 -91 801 392 
Q 275 875 275 1747 
Q 275 2603 792 3093 
Q 1309 3584 2216 3584 
Q 3041 3584 3536 3087 
Q 4031 2591 4031 1759 
z
M 2881 2131 
Q 2881 2450 2695 2645 
Q 2509 2841 2209 2841 
Q 1884 2841 1681 2658 
Q 1478 2475 1428 2131 
L 2881 2131 
z
" transform="scale(0.015625)"/>
      <path id="DejaVuSans-Bold-67" d="M 2919 594 
Q 2688 288 2409 144 
Q 2131 0 1766 0 
Q 1125 0 706 504 
Q 288 1009 288 1791 
Q 288 2575 706 3076 
Q 1125 3578 1766 3578 
Q 2131 3578 2409 3434 
Q 2688 3291 2919 2981 
L 2919 3500 
L 4044 3500 
L 4044 353 
Q 4044 -491 3511 -936 
Q 2978 -1381 1966 -1381 
Q 1638 -1381 1331 -1331 
Q 1025 -1281 716 -1178 
L 716 -306 
Q 1009 -475 1290 -558 
Q 1572 -641 1856 -641 
Q 2406 -641 2662 -400 
Q 2919 -159 2919 353 
L 2919 594 
z
M 2181 2772 
Q 1834 2772 1640 2515 
Q 1447 2259 1447 1791 
Q 1447 1309 1634 1061 
Q 1822 813 2181 813 
Q 2531 813 2725 1069 
Q 2919 1325 2919 1791 
Q 2919 2259 2725 2515 
Q 2531 2772 2181 2772 
z
" transform="scale(0.015625)"/>
      <path id="DejaVuSans-Bold-6f" d="M 2203 2784 
Q 1831 2784 1636 2517 
Q 1441 2250 1441 1747 
Q 1441 1244 1636 976 
Q 1831 709 2203 709 
Q 2569 709 2762 976 
Q 2956 1244 2956 1747 
Q 2956 2250 2762 2517 
Q 2569 2784 2203 2784 
z
M 2203 3584 
Q 3106 3584 3614 3096 
Q 4122 2609 4122 1747 
Q 4122 884 3614 396 
Q 3106 -91 2203 -91 
Q 1297 -91 786 396 
Q 275 884 275 1747 
Q 275 2609 786 3096 
Q 1297 3584 2203 3584 
z
" transform="scale(0.015625)"/>
      <path id="DejaVuSans-Bold-6c" d="M 538 4863 
L 1656 4863 
L 1656 0 
L 538 0 
L 538 4863 
z
" transform="scale(0.015625)"/>
      <path id="DejaVuSans-Bold-e1" d="M 2106 1575 
Q 1756 1575 1579 1456 
Q 1403 1338 1403 1106 
Q 1403 894 1545 773 
Q 1688 653 1941 653 
Q 2256 653 2472 879 
Q 2688 1106 2688 1447 
L 2688 1575 
L 2106 1575 
z
M 3816 1997 
L 3816 0 
L 2688 0 
L 2688 519 
Q 2463 200 2181 54 
Q 1900 -91 1497 -91 
Q 953 -91 614 226 
Q 275 544 275 1050 
Q 275 1666 698 1953 
Q 1122 2241 2028 2241 
L 2688 2241 
L 2688 2328 
Q 2688 2594 2478 2717 
Q 2269 2841 1825 2841 
Q 1466 2841 1156 2769 
Q 847 2697 581 2553 
L 581 3406 
Q 941 3494 1303 3539 
Q 1666 3584 2028 3584 
Q 2975 3584 3395 3211 
Q 3816 2838 3816 1997 
z
M 2606 5119 
L 3490 5119 
L 2337 3944 
L 1725 3944 
L 2606 5119 
z
" transform="scale(0.015625)"/>
     </defs>
     <use xlink:href="#DejaVuSans-Bold-28"/>
     <use xlink:href="#DejaVuSans-Bold-62" x="45.703125"/>
     <use xlink:href="#DejaVuSans-Bold-29" x="117.285156"/>
     <use xlink:href="#DejaVuSans-Bold-20" x="162.988281"/>
     <use xlink:href="#DejaVuSans-Bold-53" x="197.802734"/>
     <use xlink:href="#DejaVuSans-Bold-65" x="269.824219"/>
     <use xlink:href="#DejaVuSans-Bold-67" x="337.646484"/>
     <use xlink:href="#DejaVuSans-Bold-6d" x="409.228516"/>
     <use xlink:href="#DejaVuSans-Bold-65" x="513.427734"/>
     <use xlink:href="#DejaVuSans-Bold-6e" x="581.25"/>
     <use xlink:href="#DejaVuSans-Bold-74" x="652.441406"/>
     <use xlink:href="#DejaVuSans-Bold-6f" x="700.244141"/>
     <use xlink:href="#DejaVuSans-Bold-20" x="768.945312"/>
     <use xlink:href="#DejaVuSans-Bold-31" x="803.759766"/>
     <use xlink:href="#DejaVuSans-Bold-20" x="873.339844"/>
     <use xlink:href="#DejaVuSans-Bold-28" x="908.154297"/>
     <use xlink:href="#DejaVuSans-Bold-6d" x="953.857422"/>
     <use xlink:href="#DejaVuSans-Bold-65" x="1058.056641"/>
     <use xlink:href="#DejaVuSans-Bold-6e" x="1125.878906"/>
     <use xlink:href="#DejaVuSans-Bold-6f" x="1197.070312"/>
     <use xlink:href="#DejaVuSans-Bold-73" x="1265.771484"/>
     <use xlink:href="#DejaVuSans-Bold-20" x="1325.292969"/>
     <use xlink:href="#DejaVuSans-Bold-65" x="1360.107422"/>
     <use xlink:href="#DejaVuSans-Bold-6c" x="1427.929688"/>
     <use xlink:href="#DejaVuSans-Bold-e1" x="1462.207031"/>
     <use xlink:href="#DejaVuSans-Bold-73" x="1529.6875"/>
     <use xlink:href="#DejaVuSans-Bold-74" x="1589.208984"/>
     <use xlink:href="#DejaVuSans-Bold-69" x="1637.011719"/>
     <use xlink:href="#DejaVuSans-Bold-63" x="1671.289062"/>
     <use xlink:href="#DejaVuSans-Bold-6f" x="1730.566406"/>
     <use xlink:href="#DejaVuSans-Bold-29" x="1799.267578"/>
     <use xlink:href="#DejaVuSans-Bold-3a" x="1844.970703"/>
     <use xlink:href="#DejaVuSans-Bold-20" x="1884.960938"/>
     <use xlink:href="#DejaVuSans-Bold-70" x="1919.775391"/>
     <use xlink:href="#DejaVuSans-Bold-2081" x="1991.357422"/>
     <use xlink:href="#DejaVuSans-Bold-3d" x="2035.15625"/>
     <use xlink:href="#DejaVuSans-Bold-24" x="2118.945312"/>
     <use xlink:href="#DejaVuSans-Bold-31" x="2188.525391"/>
     <use xlink:href="#DejaVuSans-Bold-34" x="2258.105469"/>
     <use xlink:href="#DejaVuSans-Bold-2e" x="2327.685547"/>
     <use xlink:href="#DejaVuSans-Bold-35" x="2365.673828"/>
    </g>
   </g>
   <g id="legend_2">
    <g id="patch_11">
     <path d="M 590.996449 502.517969 
L 692.461605 502.517969 
Q 694.261605 502.517969 694.261605 500.717969 
L 694.261605 461.987031 
Q 694.261605 460.187031 692.461605 460.187031 
L 590.996449 460.187031 
Q 589.196449 460.187031 589.196449 461.987031 
L 589.196449 500.717969 
Q 589.196449 502.517969 590.996449 502.517969 
z
" style="fill: #ffffff; opacity: 0.8; stroke: #cccccc; stroke-linejoin: miter"/>
    </g>
    <g id="line2d_71">
     <path d="M 592.796449 467.475625 
L 601.796449 467.475625 
L 610.796449 467.475625 
" style="fill: none; stroke: #c0392b; stroke-width: 3; stroke-linecap: square"/>
    </g>
    <g id="text_37">
     <!-- D₁: y₁ = 24 − p₁ -->
     <g transform="translate(617.996449 470.625625) scale(0.09 -0.09)">
      <defs>
       <path id="DejaVuSans-2081" d="M 488 319 
L 1125 319 
L 1125 2229 
L 428 2101 
L 428 2463 
L 1147 2585 
L 1575 2585 
L 1575 319 
L 2216 319 
L 2216 -24 
L 488 -24 
L 488 319 
z
" transform="scale(0.015625)"/>
      </defs>
      <use xlink:href="#DejaVuSans-44"/>
      <use xlink:href="#DejaVuSans-2081" x="77.001953"/>
      <use xlink:href="#DejaVuSans-3a" x="117.089844"/>
      <use xlink:href="#DejaVuSans-20" x="150.78125"/>
      <use xlink:href="#DejaVuSans-79" x="182.568359"/>
      <use xlink:href="#DejaVuSans-2081" x="241.748047"/>
      <use xlink:href="#DejaVuSans-20" x="281.835938"/>
      <use xlink:href="#DejaVuSans-3d" x="313.623047"/>
      <use xlink:href="#DejaVuSans-20" x="397.412109"/>
      <use xlink:href="#DejaVuSans-32" x="429.199219"/>
      <use xlink:href="#DejaVuSans-34" x="492.822266"/>
      <use xlink:href="#DejaVuSans-20" x="556.445312"/>
      <use xlink:href="#DejaVuSans-2212" x="588.232422"/>
      <use xlink:href="#DejaVuSans-20" x="672.021484"/>
      <use xlink:href="#DejaVuSans-70" x="703.808594"/>
      <use xlink:href="#DejaVuSans-2081" x="767.285156"/>
     </g>
    </g>
    <g id="line2d_72">
     <path d="M 592.796449 480.685938 
L 601.796449 480.685938 
L 610.796449 480.685938 
" style="fill: none; stroke-dasharray: 9.25,4; stroke-dashoffset: 0; stroke: #e6796b; stroke-width: 2.5"/>
    </g>
    <g id="text_38">
     <!-- IMg₁ -->
     <g transform="translate(617.996449 483.835938) scale(0.09 -0.09)">
      <use xlink:href="#DejaVuSans-49"/>
      <use xlink:href="#DejaVuSans-4d" x="29.492188"/>
      <use xlink:href="#DejaVuSans-67" x="115.771484"/>
      <use xlink:href="#DejaVuSans-2081" x="179.248047"/>
     </g>
    </g>
    <g id="line2d_73">
     <path d="M 592.796449 493.89625 
L 601.796449 493.89625 
L 610.796449 493.89625 
" style="fill: none; stroke: #e67e22; stroke-width: 3; stroke-linecap: square"/>
    </g>
    <g id="text_39">
     <!-- CMg = 5 -->
     <g transform="translate(617.996449 497.04625) scale(0.09 -0.09)">
      <use xlink:href="#DejaVuSans-43"/>
      <use xlink:href="#DejaVuSans-4d" x="69.824219"/>
      <use xlink:href="#DejaVuSans-67" x="156.103516"/>
      <use xlink:href="#DejaVuSans-20" x="219.580078"/>
      <use xlink:href="#DejaVuSans-3d" x="251.367188"/>
      <use xlink:href="#DejaVuSans-20" x="335.15625"/>
      <use xlink:href="#DejaVuSans-35" x="366.943359"/>
     </g>
    </g>
   </g>
   <g id="line2d_74">
    <g clip-path="url(#p28bb4309d2)">
     <use xlink:href="#m0eac24243b" x="760.325655" y="252.954362" style="stroke: #000000"/>
    </g>
   </g>
   <g id="patch_12">
    <path d="M 883.094687 149.018336 
Q 822.472607 200.340872 762.703831 250.941002 
" style="fill: none; stroke: #000000; stroke-linecap: round"/>
    <path d="M 767.048987 249.882881 
L 762.703831 250.941002 
L 764.464428 246.830005 
" style="fill: none; stroke: #000000; stroke-linecap: round"/>
   </g>
   <g id="text_40">
    <g id="patch_13">
     <path d="M 853.500897 147.225289 
L 951.50246 147.225289 
Q 955.50246 147.225289 955.50246 143.225289 
L 955.50246 122.151539 
Q 955.50246 118.151539 951.50246 118.151539 
L 853.500897 118.151539 
Q 849.500897 118.151539 849.500897 122.151539 
L 849.500897 143.225289 
Q 849.500897 147.225289 853.500897 147.225289 
z
" style="fill: #e8f8f5; opacity: 0.97; stroke: #16a085; stroke-linejoin: miter"/>
    </g>
    <!-- (y₁=9.5, p₁=14.5) -->
    <g transform="translate(853.500897 129.539039) scale(0.1 -0.1)">
     <defs>
      <path id="DejaVuSans-Bold-39" d="M 641 103 
L 641 966 
Q 928 831 1190 764 
Q 1453 697 1709 697 
Q 2247 697 2547 995 
Q 2847 1294 2900 1881 
Q 2688 1725 2447 1647 
Q 2206 1569 1925 1569 
Q 1209 1569 770 1986 
Q 331 2403 331 3084 
Q 331 3838 820 4291 
Q 1309 4744 2131 4744 
Q 3044 4744 3544 4128 
Q 4044 3513 4044 2388 
Q 4044 1231 3459 570 
Q 2875 -91 1856 -91 
Q 1528 -91 1228 -42 
Q 928 6 641 103 
z
M 2125 2350 
Q 2441 2350 2600 2554 
Q 2759 2759 2759 3169 
Q 2759 3575 2600 3781 
Q 2441 3988 2125 3988 
Q 1809 3988 1650 3781 
Q 1491 3575 1491 3169 
Q 1491 2759 1650 2554 
Q 1809 2350 2125 2350 
z
" transform="scale(0.015625)"/>
     </defs>
     <use xlink:href="#DejaVuSans-Bold-28"/>
     <use xlink:href="#DejaVuSans-Bold-79" x="45.703125"/>
     <use xlink:href="#DejaVuSans-Bold-2081" x="110.888672"/>
     <use xlink:href="#DejaVuSans-Bold-3d" x="154.6875"/>
     <use xlink:href="#DejaVuSans-Bold-39" x="238.476562"/>
     <use xlink:href="#DejaVuSans-Bold-2e" x="308.056641"/>
     <use xlink:href="#DejaVuSans-Bold-35" x="346.044922"/>
     <use xlink:href="#DejaVuSans-Bold-2c" x="415.625"/>
     <use xlink:href="#DejaVuSans-Bold-20" x="453.613281"/>
     <use xlink:href="#DejaVuSans-Bold-70" x="488.427734"/>
     <use xlink:href="#DejaVuSans-Bold-2081" x="560.009766"/>
     <use xlink:href="#DejaVuSans-Bold-3d" x="603.808594"/>
     <use xlink:href="#DejaVuSans-Bold-31" x="687.597656"/>
     <use xlink:href="#DejaVuSans-Bold-34" x="757.177734"/>
     <use xlink:href="#DejaVuSans-Bold-2e" x="826.757812"/>
     <use xlink:href="#DejaVuSans-Bold-35" x="864.746094"/>
     <use xlink:href="#DejaVuSans-Bold-29" x="934.326172"/>
    </g>
    <!-- |η₁|=1.53 -->
    <g transform="translate(876.573553 140.867477) scale(0.1 -0.1)">
     <defs>
      <path id="DejaVuSans-Bold-7c" d="M 1522 4891 
L 1522 -1509 
L 813 -1509 
L 813 4891 
L 1522 4891 
z
" transform="scale(0.015625)"/>
      <path id="DejaVuSans-Bold-3b7" d="M 4056 2131 
L 4056 -1331 
L 2931 -1331 
L 2931 347 
L 2931 1631 
Q 2931 2084 2911 2256 
Q 2891 2428 2841 2509 
Q 2775 2619 2662 2680 
Q 2550 2741 2406 2741 
Q 2056 2741 1856 2470 
Q 1656 2200 1656 1722 
L 1656 0 
L 538 0 
L 538 3500 
L 1656 3500 
L 1656 2988 
Q 1909 3294 2193 3439 
Q 2478 3584 2822 3584 
Q 3428 3584 3742 3212 
Q 4056 2841 4056 2131 
z
" transform="scale(0.015625)"/>
      <path id="DejaVuSans-Bold-33" d="M 2981 2516 
Q 3453 2394 3698 2092 
Q 3944 1791 3944 1325 
Q 3944 631 3412 270 
Q 2881 -91 1863 -91 
Q 1503 -91 1142 -33 
Q 781 25 428 141 
L 428 1069 
Q 766 900 1098 814 
Q 1431 728 1753 728 
Q 2231 728 2486 893 
Q 2741 1059 2741 1369 
Q 2741 1688 2480 1852 
Q 2219 2016 1709 2016 
L 1228 2016 
L 1228 2791 
L 1734 2791 
Q 2188 2791 2409 2933 
Q 2631 3075 2631 3366 
Q 2631 3634 2415 3781 
Q 2200 3928 1806 3928 
Q 1516 3928 1219 3862 
Q 922 3797 628 3669 
L 628 4550 
Q 984 4650 1334 4700 
Q 1684 4750 2022 4750 
Q 2931 4750 3382 4451 
Q 3834 4153 3834 3553 
Q 3834 3144 3618 2883 
Q 3403 2622 2981 2516 
z
" transform="scale(0.015625)"/>
     </defs>
     <use xlink:href="#DejaVuSans-Bold-7c"/>
     <use xlink:href="#DejaVuSans-Bold-3b7" x="36.523438"/>
     <use xlink:href="#DejaVuSans-Bold-2081" x="107.714844"/>
     <use xlink:href="#DejaVuSans-Bold-7c" x="151.513672"/>
     <use xlink:href="#DejaVuSans-Bold-3d" x="188.037109"/>
     <use xlink:href="#DejaVuSans-Bold-31" x="271.826172"/>
     <use xlink:href="#DejaVuSans-Bold-2e" x="341.40625"/>
     <use xlink:href="#DejaVuSans-Bold-35" x="379.394531"/>
     <use xlink:href="#DejaVuSans-Bold-33" x="448.974609"/>
    </g>
   </g>
  </g>
  <g id="axes_3">
   <g id="patch_14">
    <path d="M 1110.71604 507.017969 
L 1579.060589 507.017969 
L 1579.060589 51.197969 
L 1110.71604 51.197969 
z
" style="fill: #ffffff"/>
   </g>
   <g id="matplotlib.axis_5">
    <g id="xtick_13">
     <g id="line2d_75">
      <path d="M 1127.442631 507.017969 
L 1127.442631 51.197969 
" clip-path="url(#p98f750ba3f)" style="fill: none; stroke-dasharray: 0.8,1.32; stroke-dashoffset: 0; stroke: #b0b0b0; stroke-opacity: 0.4; stroke-width: 0.8"/>
     </g>
     <g id="line2d_76">
      <g>
       <use xlink:href="#m6c547589db" x="1127.442631" y="428.428314" style="stroke: #000000"/>
      </g>
     </g>
     <g id="text_41">
      <!-- 0 -->
      <g transform="translate(1124.261381 439.526751) scale(0.1 -0.1)">
       <use xlink:href="#DejaVuSans-30"/>
      </g>
     </g>
    </g>
    <g id="xtick_14">
     <g id="line2d_77">
      <path d="M 1211.075586 507.017969 
L 1211.075586 51.197969 
" clip-path="url(#p98f750ba3f)" style="fill: none; stroke-dasharray: 0.8,1.32; stroke-dashoffset: 0; stroke: #b0b0b0; stroke-opacity: 0.4; stroke-width: 0.8"/>
     </g>
     <g id="line2d_78">
      <g>
       <use xlink:href="#m6c547589db" x="1211.075586" y="428.428314" style="stroke: #000000"/>
      </g>
     </g>
     <g id="text_42">
      <!-- 5 -->
      <g transform="translate(1207.894336 439.526751) scale(0.1 -0.1)">
       <use xlink:href="#DejaVuSans-35"/>
      </g>
     </g>
    </g>
    <g id="xtick_15">
     <g id="line2d_79">
      <path d="M 1294.708541 507.017969 
L 1294.708541 51.197969 
" clip-path="url(#p98f750ba3f)" style="fill: none; stroke-dasharray: 0.8,1.32; stroke-dashoffset: 0; stroke: #b0b0b0; stroke-opacity: 0.4; stroke-width: 0.8"/>
     </g>
     <g id="line2d_80">
      <g>
       <use xlink:href="#m6c547589db" x="1294.708541" y="428.428314" style="stroke: #000000"/>
      </g>
     </g>
     <g id="text_43">
      <!-- 10 -->
      <g transform="translate(1288.346041 439.526751) scale(0.1 -0.1)">
       <use xlink:href="#DejaVuSans-31"/>
       <use xlink:href="#DejaVuSans-30" x="63.623047"/>
      </g>
     </g>
    </g>
    <g id="xtick_16">
     <g id="line2d_81">
      <path d="M 1378.341496 507.017969 
L 1378.341496 51.197969 
" clip-path="url(#p98f750ba3f)" style="fill: none; stroke-dasharray: 0.8,1.32; stroke-dashoffset: 0; stroke: #b0b0b0; stroke-opacity: 0.4; stroke-width: 0.8"/>
     </g>
     <g id="line2d_82">
      <g>
       <use xlink:href="#m6c547589db" x="1378.341496" y="428.428314" style="stroke: #000000"/>
      </g>
     </g>
     <g id="text_44">
      <!-- 15 -->
      <g transform="translate(1371.978996 439.526751) scale(0.1 -0.1)">
       <use xlink:href="#DejaVuSans-31"/>
       <use xlink:href="#DejaVuSans-35" x="63.623047"/>
      </g>
     </g>
    </g>
    <g id="xtick_17">
     <g id="line2d_83">
      <path d="M 1461.974451 507.017969 
L 1461.974451 51.197969 
" clip-path="url(#p98f750ba3f)" style="fill: none; stroke-dasharray: 0.8,1.32; stroke-dashoffset: 0; stroke: #b0b0b0; stroke-opacity: 0.4; stroke-width: 0.8"/>
     </g>
     <g id="line2d_84">
      <g>
       <use xlink:href="#m6c547589db" x="1461.974451" y="428.428314" style="stroke: #000000"/>
      </g>
     </g>
     <g id="text_45">
      <!-- 20 -->
      <g transform="translate(1455.611951 439.526751) scale(0.1 -0.1)">
       <use xlink:href="#DejaVuSans-32"/>
       <use xlink:href="#DejaVuSans-30" x="63.623047"/>
      </g>
     </g>
    </g>
    <g id="xtick_18">
     <g id="line2d_85">
      <path d="M 1545.607407 507.017969 
L 1545.607407 51.197969 
" clip-path="url(#p98f750ba3f)" style="fill: none; stroke-dasharray: 0.8,1.32; stroke-dashoffset: 0; stroke: #b0b0b0; stroke-opacity: 0.4; stroke-width: 0.8"/>
     </g>
     <g id="line2d_86">
      <g>
       <use xlink:href="#m6c547589db" x="1545.607407" y="428.428314" style="stroke: #000000"/>
      </g>
     </g>
     <g id="text_46">
      <!-- 25 -->
      <g transform="translate(1539.244907 439.526751) scale(0.1 -0.1)">
       <use xlink:href="#DejaVuSans-32"/>
       <use xlink:href="#DejaVuSans-35" x="63.623047"/>
      </g>
     </g>
    </g>
    <g id="text_47">
     <!-- y₂ -->
     <g transform="translate(1565.982464 448.630814) scale(0.12 -0.12)">
      <defs>
       <path id="DejaVuSans-Bold-2082" d="M 1288 501 
L 2444 501 
L 2444 -24 
L 341 -24 
L 341 454 
L 1319 1285 
Q 1509 1451 1590 1576 
Q 1672 1701 1672 1826 
Q 1672 1982 1558 2079 
Q 1444 2176 1259 2176 
Q 1066 2176 844 2105 
Q 622 2035 359 1888 
L 359 2469 
Q 631 2554 886 2596 
Q 1141 2638 1375 2638 
Q 1869 2638 2150 2436 
Q 2431 2235 2431 1888 
Q 2431 1663 2320 1474 
Q 2209 1285 1894 1016 
L 1288 501 
z
" transform="scale(0.015625)"/>
      </defs>
      <use xlink:href="#DejaVuSans-Bold-79"/>
      <use xlink:href="#DejaVuSans-Bold-2082" x="65.185547"/>
     </g>
    </g>
   </g>
   <g id="matplotlib.axis_6">
    <g id="ytick_15">
     <g id="line2d_87">
      <path d="M 1110.71604 491.300038 
L 1579.060589 491.300038 
" clip-path="url(#p98f750ba3f)" style="fill: none; stroke-dasharray: 0.8,1.32; stroke-dashoffset: 0; stroke: #b0b0b0; stroke-opacity: 0.4; stroke-width: 0.8"/>
     </g>
     <g id="line2d_88">
      <g>
       <use xlink:href="#mdc89d94d63" x="1127.442631" y="491.300038" style="stroke: #000000"/>
      </g>
     </g>
     <g id="text_48">
      <!-- −2 -->
      <g transform="translate(1109.200443 495.099256) scale(0.1 -0.1)">
       <use xlink:href="#DejaVuSans-2212"/>
       <use xlink:href="#DejaVuSans-32" x="83.789062"/>
      </g>
     </g>
    </g>
    <g id="ytick_16">
     <g id="line2d_89">
      <path d="M 1110.71604 428.428314 
L 1579.060589 428.428314 
" clip-path="url(#p98f750ba3f)" style="fill: none; stroke-dasharray: 0.8,1.32; stroke-dashoffset: 0; stroke: #b0b0b0; stroke-opacity: 0.4; stroke-width: 0.8"/>
     </g>
     <g id="line2d_90">
      <g>
       <use xlink:href="#mdc89d94d63" x="1127.442631" y="428.428314" style="stroke: #000000"/>
      </g>
     </g>
     <g id="text_49">
      <!-- 0 -->
      <g transform="translate(1117.580131 432.227532) scale(0.1 -0.1)">
       <use xlink:href="#DejaVuSans-30"/>
      </g>
     </g>
    </g>
    <g id="ytick_17">
     <g id="line2d_91">
      <path d="M 1110.71604 365.556589 
L 1579.060589 365.556589 
" clip-path="url(#p98f750ba3f)" style="fill: none; stroke-dasharray: 0.8,1.32; stroke-dashoffset: 0; stroke: #b0b0b0; stroke-opacity: 0.4; stroke-width: 0.8"/>
     </g>
     <g id="line2d_92">
      <g>
       <use xlink:href="#mdc89d94d63" x="1127.442631" y="365.556589" style="stroke: #000000"/>
      </g>
     </g>
     <g id="text_50">
      <!-- 2 -->
      <g transform="translate(1117.580131 369.355808) scale(0.1 -0.1)">
       <use xlink:href="#DejaVuSans-32"/>
      </g>
     </g>
    </g>
    <g id="ytick_18">
     <g id="line2d_93">
      <path d="M 1110.71604 302.684865 
L 1579.060589 302.684865 
" clip-path="url(#p98f750ba3f)" style="fill: none; stroke-dasharray: 0.8,1.32; stroke-dashoffset: 0; stroke: #b0b0b0; stroke-opacity: 0.4; stroke-width: 0.8"/>
     </g>
     <g id="line2d_94">
      <g>
       <use xlink:href="#mdc89d94d63" x="1127.442631" y="302.684865" style="stroke: #000000"/>
      </g>
     </g>
     <g id="text_51">
      <!-- 4 -->
      <g transform="translate(1117.580131 306.484084) scale(0.1 -0.1)">
       <use xlink:href="#DejaVuSans-34"/>
      </g>
     </g>
    </g>
    <g id="ytick_19">
     <g id="line2d_95">
      <path d="M 1110.71604 239.813141 
L 1579.060589 239.813141 
" clip-path="url(#p98f750ba3f)" style="fill: none; stroke-dasharray: 0.8,1.32; stroke-dashoffset: 0; stroke: #b0b0b0; stroke-opacity: 0.4; stroke-width: 0.8"/>
     </g>
     <g id="line2d_96">
      <g>
       <use xlink:href="#mdc89d94d63" x="1127.442631" y="239.813141" style="stroke: #000000"/>
      </g>
     </g>
     <g id="text_52">
      <!-- 6 -->
      <g transform="translate(1117.580131 243.61236) scale(0.1 -0.1)">
       <use xlink:href="#DejaVuSans-36"/>
      </g>
     </g>
    </g>
    <g id="ytick_20">
     <g id="line2d_97">
      <path d="M 1110.71604 176.941417 
L 1579.060589 176.941417 
" clip-path="url(#p98f750ba3f)" style="fill: none; stroke-dasharray: 0.8,1.32; stroke-dashoffset: 0; stroke: #b0b0b0; stroke-opacity: 0.4; stroke-width: 0.8"/>
     </g>
     <g id="line2d_98">
      <g>
       <use xlink:href="#mdc89d94d63" x="1127.442631" y="176.941417" style="stroke: #000000"/>
      </g>
     </g>
     <g id="text_53">
      <!-- 8 -->
      <g transform="translate(1117.580131 180.740636) scale(0.1 -0.1)">
       <use xlink:href="#DejaVuSans-38"/>
      </g>
     </g>
    </g>
    <g id="ytick_21">
     <g id="line2d_99">
      <path d="M 1110.71604 114.069693 
L 1579.060589 114.069693 
" clip-path="url(#p98f750ba3f)" style="fill: none; stroke-dasharray: 0.8,1.32; stroke-dashoffset: 0; stroke: #b0b0b0; stroke-opacity: 0.4; stroke-width: 0.8"/>
     </g>
     <g id="line2d_100">
      <g>
       <use xlink:href="#mdc89d94d63" x="1127.442631" y="114.069693" style="stroke: #000000"/>
      </g>
     </g>
     <g id="text_54">
      <!-- 10 -->
      <g transform="translate(1111.217631 117.868912) scale(0.1 -0.1)">
       <use xlink:href="#DejaVuSans-31"/>
       <use xlink:href="#DejaVuSans-30" x="63.623047"/>
      </g>
     </g>
    </g>
    <g id="ytick_22">
     <g id="line2d_101">
      <path d="M 1110.71604 51.197969 
L 1579.060589 51.197969 
" clip-path="url(#p98f750ba3f)" style="fill: none; stroke-dasharray: 0.8,1.32; stroke-dashoffset: 0; stroke: #b0b0b0; stroke-opacity: 0.4; stroke-width: 0.8"/>
     </g>
     <g id="line2d_102">
      <g>
       <use xlink:href="#mdc89d94d63" x="1127.442631" y="51.197969" style="stroke: #000000"/>
      </g>
     </g>
     <g id="text_55">
      <!-- 12 -->
      <g transform="translate(1111.217631 54.997188) scale(0.1 -0.1)">
       <use xlink:href="#DejaVuSans-31"/>
       <use xlink:href="#DejaVuSans-32" x="63.623047"/>
      </g>
     </g>
    </g>
    <g id="text_56">
     <!-- p₂ ($) -->
     <g transform="translate(1073.859818 48.702344) scale(0.12 -0.12)">
      <use xlink:href="#DejaVuSans-Bold-70"/>
      <use xlink:href="#DejaVuSans-Bold-2082" x="71.582031"/>
      <use xlink:href="#DejaVuSans-Bold-20" x="115.380859"/>
      <use xlink:href="#DejaVuSans-Bold-28" x="150.195312"/>
      <use xlink:href="#DejaVuSans-Bold-24" x="195.898438"/>
      <use xlink:href="#DejaVuSans-Bold-29" x="265.478516"/>
     </g>
    </g>
   </g>
   <g id="line2d_103">
    <path d="M 1127.442631 176.941417 
L 1545.607407 438.906934 
L 1545.607407 438.906934 
" clip-path="url(#p98f750ba3f)" style="fill: none; stroke: #c0392b; stroke-width: 3; stroke-linecap: square"/>
   </g>
   <g id="line2d_104">
    <path d="M 1127.442631 176.941417 
L 1414.670696 536.817969 
L 1414.670696 536.817969 
" clip-path="url(#p98f750ba3f)" style="fill: none; stroke-dasharray: 9.25,4; stroke-dashoffset: 0; stroke: #e6796b; stroke-width: 2.5"/>
   </g>
   <g id="line2d_105">
    <path d="M 1110.71604 271.249003 
L 1579.060589 271.249003 
" clip-path="url(#p98f750ba3f)" style="fill: none; stroke: #e67e22; stroke-width: 3; stroke-linecap: square"/>
   </g>
   <g id="line2d_106">
    <path d="M 1202.71229 428.428314 
L 1202.71229 224.09521 
" clip-path="url(#p98f750ba3f)" style="fill: none; stroke-dasharray: 3.7,1.6; stroke-dashoffset: 0; stroke: #34495e; stroke-opacity: 0.6"/>
   </g>
   <g id="line2d_107">
    <path d="M 1127.442631 224.09521 
L 1202.71229 224.09521 
" clip-path="url(#p98f750ba3f)" style="fill: none; stroke-dasharray: 3.7,1.6; stroke-dashoffset: 0; stroke: #34495e; stroke-opacity: 0.6"/>
   </g>
   <g id="line2d_108">
    <g>
     <use xlink:href="#mf2c8dcc53a" x="1579.060589" y="428.428314" style="stroke: #000000; stroke-linejoin: miter"/>
    </g>
   </g>
   <g id="line2d_109">
    <g>
     <use xlink:href="#mf642e0a865" x="1127.442631" y="51.197969" style="stroke: #000000; stroke-linejoin: miter"/>
    </g>
   </g>
   <g id="patch_15">
    <path d="M 1127.442631 507.017969 
L 1127.442631 51.197969 
" style="fill: none; stroke: #000000; stroke-width: 1.4; stroke-linejoin: miter; stroke-linecap: square"/>
   </g>
   <g id="patch_16">
    <path d="M 1110.71604 428.428314 
L 1579.060589 428.428314 
" style="fill: none; stroke: #000000; stroke-width: 1.4; stroke-linejoin: miter; stroke-linecap: square"/>
   </g>
   <g id="text_57">
    <!-- (c) Segmento 2 (más elástico): p₂=$6.5 -->
    <g transform="translate(1201.035189 39.197969) scale(0.13 -0.13)">
     <defs>
      <path id="DejaVuSans-Bold-32" d="M 1844 884 
L 3897 884 
L 3897 0 
L 506 0 
L 506 884 
L 2209 2388 
Q 2438 2594 2547 2791 
Q 2656 2988 2656 3200 
Q 2656 3528 2436 3728 
Q 2216 3928 1850 3928 
Q 1569 3928 1234 3808 
Q 900 3688 519 3450 
L 519 4475 
Q 925 4609 1322 4679 
Q 1719 4750 2100 4750 
Q 2938 4750 3402 4381 
Q 3866 4013 3866 3353 
Q 3866 2972 3669 2642 
Q 3472 2313 2841 1759 
L 1844 884 
z
" transform="scale(0.015625)"/>
     </defs>
     <use xlink:href="#DejaVuSans-Bold-28"/>
     <use xlink:href="#DejaVuSans-Bold-63" x="45.703125"/>
     <use xlink:href="#DejaVuSans-Bold-29" x="104.980469"/>
     <use xlink:href="#DejaVuSans-Bold-20" x="150.683594"/>
     <use xlink:href="#DejaVuSans-Bold-53" x="185.498047"/>
     <use xlink:href="#DejaVuSans-Bold-65" x="257.519531"/>
     <use xlink:href="#DejaVuSans-Bold-67" x="325.341797"/>
     <use xlink:href="#DejaVuSans-Bold-6d" x="396.923828"/>
     <use xlink:href="#DejaVuSans-Bold-65" x="501.123047"/>
     <use xlink:href="#DejaVuSans-Bold-6e" x="568.945312"/>
     <use xlink:href="#DejaVuSans-Bold-74" x="640.136719"/>
     <use xlink:href="#DejaVuSans-Bold-6f" x="687.939453"/>
     <use xlink:href="#DejaVuSans-Bold-20" x="756.640625"/>
     <use xlink:href="#DejaVuSans-Bold-32" x="791.455078"/>
     <use xlink:href="#DejaVuSans-Bold-20" x="861.035156"/>
     <use xlink:href="#DejaVuSans-Bold-28" x="895.849609"/>
     <use xlink:href="#DejaVuSans-Bold-6d" x="941.552734"/>
     <use xlink:href="#DejaVuSans-Bold-e1" x="1045.751953"/>
     <use xlink:href="#DejaVuSans-Bold-73" x="1113.232422"/>
     <use xlink:href="#DejaVuSans-Bold-20" x="1172.753906"/>
     <use xlink:href="#DejaVuSans-Bold-65" x="1207.568359"/>
     <use xlink:href="#DejaVuSans-Bold-6c" x="1275.390625"/>
     <use xlink:href="#DejaVuSans-Bold-e1" x="1309.667969"/>
     <use xlink:href="#DejaVuSans-Bold-73" x="1377.148438"/>
     <use xlink:href="#DejaVuSans-Bold-74" x="1436.669922"/>
     <use xlink:href="#DejaVuSans-Bold-69" x="1484.472656"/>
     <use xlink:href="#DejaVuSans-Bold-63" x="1518.75"/>
     <use xlink:href="#DejaVuSans-Bold-6f" x="1578.027344"/>
     <use xlink:href="#DejaVuSans-Bold-29" x="1646.728516"/>
     <use xlink:href="#DejaVuSans-Bold-3a" x="1692.431641"/>
     <use xlink:href="#DejaVuSans-Bold-20" x="1732.421875"/>
     <use xlink:href="#DejaVuSans-Bold-70" x="1767.236328"/>
     <use xlink:href="#DejaVuSans-Bold-2082" x="1838.818359"/>
     <use xlink:href="#DejaVuSans-Bold-3d" x="1882.617188"/>
     <use xlink:href="#DejaVuSans-Bold-24" x="1966.40625"/>
     <use xlink:href="#DejaVuSans-Bold-36" x="2035.986328"/>
     <use xlink:href="#DejaVuSans-Bold-2e" x="2105.566406"/>
     <use xlink:href="#DejaVuSans-Bold-35" x="2143.554688"/>
    </g>
   </g>
   <g id="legend_3">
    <g id="patch_17">
     <path d="M 1117.01604 502.517969 
L 1224.207446 502.517969 
Q 1226.007446 502.517969 1226.007446 500.717969 
L 1226.007446 461.987031 
Q 1226.007446 460.187031 1224.207446 460.187031 
L 1117.01604 460.187031 
Q 1115.21604 460.187031 1115.21604 461.987031 
L 1115.21604 500.717969 
Q 1115.21604 502.517969 1117.01604 502.517969 
z
" style="fill: #ffffff; opacity: 0.8; stroke: #cccccc; stroke-linejoin: miter"/>
    </g>
    <g id="line2d_110">
     <path d="M 1118.81604 467.475625 
L 1127.81604 467.475625 
L 1136.81604 467.475625 
" style="fill: none; stroke: #c0392b; stroke-width: 3; stroke-linecap: square"/>
    </g>
    <g id="text_58">
     <!-- D₂: y₂ = 24 − 3p₂ -->
     <g transform="translate(1144.01604 470.625625) scale(0.09 -0.09)">
      <defs>
       <path id="DejaVuSans-2082" d="M 838 332 
L 2163 332 
L 2163 -24 
L 294 -24 
L 294 319 
Q 400 416 597 591 
Q 1672 1544 1672 1838 
Q 1672 2044 1509 2170 
Q 1347 2297 1081 2297 
Q 919 2297 728 2242 
Q 538 2188 313 2079 
L 313 2463 
Q 553 2551 761 2594 
Q 969 2638 1147 2638 
Q 1600 2638 1872 2432 
Q 2144 2226 2144 1888 
Q 2144 1454 1109 566 
Q 934 416 838 332 
z
" transform="scale(0.015625)"/>
      </defs>
      <use xlink:href="#DejaVuSans-44"/>
      <use xlink:href="#DejaVuSans-2082" x="77.001953"/>
      <use xlink:href="#DejaVuSans-3a" x="117.089844"/>
      <use xlink:href="#DejaVuSans-20" x="150.78125"/>
      <use xlink:href="#DejaVuSans-79" x="182.568359"/>
      <use xlink:href="#DejaVuSans-2082" x="241.748047"/>
      <use xlink:href="#DejaVuSans-20" x="281.835938"/>
      <use xlink:href="#DejaVuSans-3d" x="313.623047"/>
      <use xlink:href="#DejaVuSans-20" x="397.412109"/>
      <use xlink:href="#DejaVuSans-32" x="429.199219"/>
      <use xlink:href="#DejaVuSans-34" x="492.822266"/>
      <use xlink:href="#DejaVuSans-20" x="556.445312"/>
      <use xlink:href="#DejaVuSans-2212" x="588.232422"/>
      <use xlink:href="#DejaVuSans-20" x="672.021484"/>
      <use xlink:href="#DejaVuSans-33" x="703.808594"/>
      <use xlink:href="#DejaVuSans-70" x="767.431641"/>
      <use xlink:href="#DejaVuSans-2082" x="830.908203"/>
     </g>
    </g>
    <g id="line2d_111">
     <path d="M 1118.81604 480.685938 
L 1127.81604 480.685938 
L 1136.81604 480.685938 
" style="fill: none; stroke-dasharray: 9.25,4; stroke-dashoffset: 0; stroke: #e6796b; stroke-width: 2.5"/>
    </g>
    <g id="text_59">
     <!-- IMg₂ -->
     <g transform="translate(1144.01604 483.835938) scale(0.09 -0.09)">
      <use xlink:href="#DejaVuSans-49"/>
      <use xlink:href="#DejaVuSans-4d" x="29.492188"/>
      <use xlink:href="#DejaVuSans-67" x="115.771484"/>
      <use xlink:href="#DejaVuSans-2082" x="179.248047"/>
     </g>
    </g>
    <g id="line2d_112">
     <path d="M 1118.81604 493.89625 
L 1127.81604 493.89625 
L 1136.81604 493.89625 
" style="fill: none; stroke: #e67e22; stroke-width: 3; stroke-linecap: square"/>
    </g>
    <g id="text_60">
     <!-- CMg = 5 -->
     <g transform="translate(1144.01604 497.04625) scale(0.09 -0.09)">
      <use xlink:href="#DejaVuSans-43"/>
      <use xlink:href="#DejaVuSans-4d" x="69.824219"/>
      <use xlink:href="#DejaVuSans-67" x="156.103516"/>
      <use xlink:href="#DejaVuSans-20" x="219.580078"/>
      <use xlink:href="#DejaVuSans-3d" x="251.367188"/>
      <use xlink:href="#DejaVuSans-20" x="335.15625"/>
      <use xlink:href="#DejaVuSans-35" x="366.943359"/>
     </g>
    </g>
   </g>
   <g id="line2d_113">
    <g clip-path="url(#p98f750ba3f)">
     <use xlink:href="#m0eac24243b" x="1202.71229" y="224.09521" style="stroke: #000000"/>
    </g>
   </g>
   <g id="patch_18">
    <path d="M 1345.947358 153.249096 
Q 1275.228103 188.227852 1205.510998 222.710929 
" style="fill: none; stroke: #000000; stroke-linecap: round"/>
    <path d="M 1209.983092 222.730239 
L 1205.510998 222.710929 
L 1208.209702 219.14484 
" style="fill: none; stroke: #000000; stroke-linecap: round"/>
   </g>
   <g id="text_61">
    <g id="patch_19">
     <path d="M 1332.819621 151.863367 
L 1423.863371 151.863367 
Q 1427.863371 151.863367 1427.863371 147.863367 
L 1427.863371 126.789617 
Q 1427.863371 122.789617 1423.863371 122.789617 
L 1332.819621 122.789617 
Q 1328.819621 122.789617 1328.819621 126.789617 
L 1328.819621 147.863367 
Q 1328.819621 151.863367 1332.819621 151.863367 
z
" style="fill: #e8f8f5; opacity: 0.97; stroke: #16a085; stroke-linejoin: miter"/>
    </g>
    <!-- (y₂=4.5, p₂=6.5) -->
    <g transform="translate(1332.819621 134.177117) scale(0.1 -0.1)">
     <use xlink:href="#DejaVuSans-Bold-28"/>
     <use xlink:href="#DejaVuSans-Bold-79" x="45.703125"/>
     <use xlink:href="#DejaVuSans-Bold-2082" x="110.888672"/>
     <use xlink:href="#DejaVuSans-Bold-3d" x="154.6875"/>
     <use xlink:href="#DejaVuSans-Bold-34" x="238.476562"/>
     <use xlink:href="#DejaVuSans-Bold-2e" x="308.056641"/>
     <use xlink:href="#DejaVuSans-Bold-35" x="346.044922"/>
     <use xlink:href="#DejaVuSans-Bold-2c" x="415.625"/>
     <use xlink:href="#DejaVuSans-Bold-20" x="453.613281"/>
     <use xlink:href="#DejaVuSans-Bold-70" x="488.427734"/>
     <use xlink:href="#DejaVuSans-Bold-2082" x="560.009766"/>
     <use xlink:href="#DejaVuSans-Bold-3d" x="603.808594"/>
     <use xlink:href="#DejaVuSans-Bold-36" x="687.597656"/>
     <use xlink:href="#DejaVuSans-Bold-2e" x="757.177734"/>
     <use xlink:href="#DejaVuSans-Bold-35" x="795.166016"/>
     <use xlink:href="#DejaVuSans-Bold-29" x="864.746094"/>
    </g>
    <!-- |η₂|=4.33 -->
    <g transform="translate(1352.413371 145.505555) scale(0.1 -0.1)">
     <use xlink:href="#DejaVuSans-Bold-7c"/>
     <use xlink:href="#DejaVuSans-Bold-3b7" x="36.523438"/>
     <use xlink:href="#DejaVuSans-Bold-2082" x="107.714844"/>
     <use xlink:href="#DejaVuSans-Bold-7c" x="151.513672"/>
     <use xlink:href="#DejaVuSans-Bold-3d" x="188.037109"/>
     <use xlink:href="#DejaVuSans-Bold-34" x="271.826172"/>
     <use xlink:href="#DejaVuSans-Bold-2e" x="341.40625"/>
     <use xlink:href="#DejaVuSans-Bold-33" x="379.394531"/>
     <use xlink:href="#DejaVuSans-Bold-33" x="448.974609"/>
    </g>
   </g>
  </g>
 </g>
 <defs>
  <clipPath id="pe78aa1ff5d">
   <rect x="58.676858" y="51.197969" width="468.344549" height="455.82"/>
  </clipPath>
  <clipPath id="p28bb4309d2">
   <rect x="584.696449" y="51.197969" width="468.344549" height="455.82"/>
  </clipPath>
  <clipPath id="p98f750ba3f">
   <rect x="1110.71604" y="51.197969" width="468.344549" height="455.82"/>
  </clipPath>
 </defs>
</svg>
