<?xml version="1.0" encoding="utf-8" standalone="no"?>
<!DOCTYPE svg PUBLIC "-//W3C//DTD SVG 1.1//EN"
  "http://www.w3.org/Graphics/SVG/1.1/DTD/svg11.dtd">
<svg xmlns:xlink="http://www.w3.org/1999/xlink" width="824.602144pt" height="474.963435pt" viewBox="0 0 824.602144 474.963435" xmlns="http://www.w3.org/2000/svg" version="1.1">
 <metadata>
  <rdf:RDF xmlns:dc="http://purl.org/dc/elements/1.1/" xmlns:cc="http://creativecommons.org/ns#" xmlns:rdf="http://www.w3.org/1999/02/22-rdf-syntax-ns#">
   <cc:Work>
    <dc:type rdf:resource="http://purl.org/dc/dcmitype/StillImage"/>
    <dc:date>2026-04-28T17:41:37.118140</dc:date>
    <dc:format>image/svg+xml</dc:format>
    <dc:creator>
     <cc:Agent>
      <dc:title>Matplotlib v3.9.2, https://matplotlib.org/</dc:title>
     </cc:Agent>
    </dc:creator>
   </cc:Work>
  </rdf:RDF>
 </metadata>
 <defs>
  <style type="text/css">*{stroke-linejoin: round; stroke-linecap: butt}</style>
 </defs>
 <g id="figure_1">
  <g id="patch_1">
   <path d="M 0 474.963435 
L 824.602144 474.963435 
L 824.602144 0 
L 0 0 
z
" style="fill: #ffffff"/>
  </g>
  <g id="axes_1">
   <g id="patch_2">
    <path d="M 48.25005 438.757969 
L 662.05005 438.757969 
L 662.05005 50.677969 
L 48.25005 50.677969 
z
" style="fill: #ffffff"/>
   </g>
   <g id="PolyCollection_1">
    <defs>
     <path id="m7bab369227" d="M 64.545625 -235.984096 
L 64.545625 -60.97653 
L 69.76686 -61.373373 
L 74.988096 -61.770215 
L 80.209331 -62.167058 
L 85.430566 -62.5639 
L 90.651802 -62.960743 
L 95.873037 -63.357585 
L 101.094272 -63.754428 
L 106.315508 -64.15127 
L 111.536743 -64.548113 
L 116.757978 -64.944956 
L 121.979214 -65.341798 
L 127.200449 -65.738641 
L 132.421684 -66.135483 
L 137.64292 -66.532326 
L 142.864155 -66.929168 
L 148.08539 -67.326011 
L 153.306626 -67.722853 
L 158.527861 -68.119696 
L 163.749096 -68.516539 
L 168.970332 -68.913381 
L 174.191567 -69.310224 
L 179.412802 -69.707066 
L 184.634037 -70.103909 
L 189.855273 -70.500751 
L 195.076508 -70.897594 
L 200.297743 -71.294436 
L 205.518979 -71.691279 
L 210.740214 -72.088122 
L 215.961449 -72.484964 
L 221.182685 -72.881807 
L 226.40392 -73.278649 
L 231.625155 -73.675492 
L 236.846391 -74.072334 
L 242.067626 -74.469177 
L 247.288861 -74.866019 
L 252.510097 -75.262862 
L 257.731332 -75.659705 
L 262.952567 -76.056547 
L 268.173803 -76.45339 
L 273.395038 -76.850232 
L 278.616273 -77.247075 
L 283.837509 -77.643917 
L 289.058744 -78.04076 
L 294.279979 -78.437602 
L 299.501215 -78.834445 
L 304.72245 -79.231287 
L 309.943685 -79.62813 
L 315.164921 -80.024973 
L 320.386156 -80.421815 
L 320.386156 -235.984096 
L 320.386156 -235.984096 
L 315.164921 -235.984096 
L 309.943685 -235.984096 
L 304.72245 -235.984096 
L 299.501215 -235.984096 
L 294.279979 -235.984096 
L 289.058744 -235.984096 
L 283.837509 -235.984096 
L 278.616273 -235.984096 
L 273.395038 -235.984096 
L 268.173803 -235.984096 
L 262.952567 -235.984096 
L 257.731332 -235.984096 
L 252.510097 -235.984096 
L 247.288861 -235.984096 
L 242.067626 -235.984096 
L 236.846391 -235.984096 
L 231.625155 -235.984096 
L 226.40392 -235.984096 
L 221.182685 -235.984096 
L 215.961449 -235.984096 
L 210.740214 -235.984096 
L 205.518979 -235.984096 
L 200.297743 -235.984096 
L 195.076508 -235.984096 
L 189.855273 -235.984096 
L 184.634037 -235.984096 
L 179.412802 -235.984096 
L 174.191567 -235.984096 
L 168.970332 -235.984096 
L 163.749096 -235.984096 
L 158.527861 -235.984096 
L 153.306626 -235.984096 
L 148.08539 -235.984096 
L 142.864155 -235.984096 
L 137.64292 -235.984096 
L 132.421684 -235.984096 
L 127.200449 -235.984096 
L 121.979214 -235.984096 
L 116.757978 -235.984096 
L 111.536743 -235.984096 
L 106.315508 -235.984096 
L 101.094272 -235.984096 
L 95.873037 -235.984096 
L 90.651802 -235.984096 
L 85.430566 -235.984096 
L 80.209331 -235.984096 
L 74.988096 -235.984096 
L 69.76686 -235.984096 
L 64.545625 -235.984096 
z
" style="stroke: #27ae60; stroke-opacity: 0.15"/>
    </defs>
    <g clip-path="url(#pa70029a80b)">
     <use xlink:href="#m7bab369227" x="0" y="474.963435" style="fill: #27ae60; fill-opacity: 0.15; stroke: #27ae60; stroke-opacity: 0.15"/>
    </g>
   </g>
   <g id="matplotlib.axis_1">
    <g id="xtick_1">
     <g id="line2d_1">
      <path d="M 64.545625 438.757969 
L 64.545625 50.677969 
" clip-path="url(#pa70029a80b)" style="fill: none; stroke-dasharray: 0.8,1.32; stroke-dashoffset: 0; stroke: #b0b0b0; stroke-opacity: 0.4; stroke-width: 0.8"/>
     </g>
     <g id="line2d_2">
      <defs>
       <path id="md25af7e0e4" d="M 0 0 
L 0 -4 
" style="stroke: #000000"/>
      </defs>
      <g>
       <use xlink:href="#md25af7e0e4" x="64.545625" y="413.986905" style="stroke: #000000"/>
      </g>
     </g>
     <g id="text_1">
      <!-- 0 -->
      <g transform="translate(61.364375 425.085342) scale(0.1 -0.1)">
       <defs>
        <path id="DejaVuSans-30" d="M 2034 4250 
Q 1547 4250 1301 3770 
Q 1056 3291 1056 2328 
Q 1056 1369 1301 889 
Q 1547 409 2034 409 
Q 2525 409 2770 889 
Q 3016 1369 3016 2328 
Q 3016 3291 2770 3770 
Q 2525 4250 2034 4250 
z
M 2034 4750 
Q 2819 4750 3233 4129 
Q 3647 3509 3647 2328 
Q 3647 1150 3233 529 
Q 2819 -91 2034 -91 
Q 1250 -91 836 529 
Q 422 1150 422 2328 
Q 422 3509 836 4129 
Q 1250 4750 2034 4750 
z
" transform="scale(0.015625)"/>
       </defs>
       <use xlink:href="#DejaVuSans-30"/>
      </g>
     </g>
    </g>
    <g id="xtick_2">
     <g id="line2d_3">
      <path d="M 173.182793 438.757969 
L 173.182793 50.677969 
" clip-path="url(#pa70029a80b)" style="fill: none; stroke-dasharray: 0.8,1.32; stroke-dashoffset: 0; stroke: #b0b0b0; stroke-opacity: 0.4; stroke-width: 0.8"/>
     </g>
     <g id="line2d_4">
      <g>
       <use xlink:href="#md25af7e0e4" x="173.182793" y="413.986905" style="stroke: #000000"/>
      </g>
     </g>
     <g id="text_2">
      <!-- 200 -->
      <g transform="translate(163.639043 425.085342) scale(0.1 -0.1)">
       <defs>
        <path id="DejaVuSans-32" d="M 1228 531 
L 3431 531 
L 3431 0 
L 469 0 
L 469 531 
Q 828 903 1448 1529 
Q 2069 2156 2228 2338 
Q 2531 2678 2651 2914 
Q 2772 3150 2772 3378 
Q 2772 3750 2511 3984 
Q 2250 4219 1831 4219 
Q 1534 4219 1204 4116 
Q 875 4013 500 3803 
L 500 4441 
Q 881 4594 1212 4672 
Q 1544 4750 1819 4750 
Q 2544 4750 2975 4387 
Q 3406 4025 3406 3419 
Q 3406 3131 3298 2873 
Q 3191 2616 2906 2266 
Q 2828 2175 2409 1742 
Q 1991 1309 1228 531 
z
" transform="scale(0.015625)"/>
       </defs>
       <use xlink:href="#DejaVuSans-32"/>
       <use xlink:href="#DejaVuSans-30" x="63.623047"/>
       <use xlink:href="#DejaVuSans-30" x="127.246094"/>
      </g>
     </g>
    </g>
    <g id="xtick_3">
     <g id="line2d_5">
      <path d="M 281.819961 438.757969 
L 281.819961 50.677969 
" clip-path="url(#pa70029a80b)" style="fill: none; stroke-dasharray: 0.8,1.32; stroke-dashoffset: 0; stroke: #b0b0b0; stroke-opacity: 0.4; stroke-width: 0.8"/>
     </g>
     <g id="line2d_6">
      <g>
       <use xlink:href="#md25af7e0e4" x="281.819961" y="413.986905" style="stroke: #000000"/>
      </g>
     </g>
     <g id="text_3">
      <!-- 400 -->
      <g transform="translate(272.276211 425.085342) scale(0.1 -0.1)">
       <defs>
        <path id="DejaVuSans-34" d="M 2419 4116 
L 825 1625 
L 2419 1625 
L 2419 4116 
z
M 2253 4666 
L 3047 4666 
L 3047 1625 
L 3713 1625 
L 3713 1100 
L 3047 1100 
L 3047 0 
L 2419 0 
L 2419 1100 
L 313 1100 
L 313 1709 
L 2253 4666 
z
" transform="scale(0.015625)"/>
       </defs>
       <use xlink:href="#DejaVuSans-34"/>
       <use xlink:href="#DejaVuSans-30" x="63.623047"/>
       <use xlink:href="#DejaVuSans-30" x="127.246094"/>
      </g>
     </g>
    </g>
    <g id="xtick_4">
     <g id="line2d_7">
      <path d="M 390.457129 438.757969 
L 390.457129 50.677969 
" clip-path="url(#pa70029a80b)" style="fill: none; stroke-dasharray: 0.8,1.32; stroke-dashoffset: 0; stroke: #b0b0b0; stroke-opacity: 0.4; stroke-width: 0.8"/>
     </g>
     <g id="line2d_8">
      <g>
       <use xlink:href="#md25af7e0e4" x="390.457129" y="413.986905" style="stroke: #000000"/>
      </g>
     </g>
     <g id="text_4">
      <!-- 600 -->
      <g transform="translate(380.913379 425.085342) scale(0.1 -0.1)">
       <defs>
        <path id="DejaVuSans-36" d="M 2113 2584 
Q 1688 2584 1439 2293 
Q 1191 2003 1191 1497 
Q 1191 994 1439 701 
Q 1688 409 2113 409 
Q 2538 409 2786 701 
Q 3034 994 3034 1497 
Q 3034 2003 2786 2293 
Q 2538 2584 2113 2584 
z
M 3366 4563 
L 3366 3988 
Q 3128 4100 2886 4159 
Q 2644 4219 2406 4219 
Q 1781 4219 1451 3797 
Q 1122 3375 1075 2522 
Q 1259 2794 1537 2939 
Q 1816 3084 2150 3084 
Q 2853 3084 3261 2657 
Q 3669 2231 3669 1497 
Q 3669 778 3244 343 
Q 2819 -91 2113 -91 
Q 1303 -91 875 529 
Q 447 1150 447 2328 
Q 447 3434 972 4092 
Q 1497 4750 2381 4750 
Q 2619 4750 2861 4703 
Q 3103 4656 3366 4563 
z
" transform="scale(0.015625)"/>
       </defs>
       <use xlink:href="#DejaVuSans-36"/>
       <use xlink:href="#DejaVuSans-30" x="63.623047"/>
       <use xlink:href="#DejaVuSans-30" x="127.246094"/>
      </g>
     </g>
    </g>
    <g id="xtick_5">
     <g id="line2d_9">
      <path d="M 499.094298 438.757969 
L 499.094298 50.677969 
" clip-path="url(#pa70029a80b)" style="fill: none; stroke-dasharray: 0.8,1.32; stroke-dashoffset: 0; stroke: #b0b0b0; stroke-opacity: 0.4; stroke-width: 0.8"/>
     </g>
     <g id="line2d_10">
      <g>
       <use xlink:href="#md25af7e0e4" x="499.094298" y="413.986905" style="stroke: #000000"/>
      </g>
     </g>
     <g id="text_5">
      <!-- 800 -->
      <g transform="translate(489.550548 425.085342) scale(0.1 -0.1)">
       <defs>
        <path id="DejaVuSans-38" d="M 2034 2216 
Q 1584 2216 1326 1975 
Q 1069 1734 1069 1313 
Q 1069 891 1326 650 
Q 1584 409 2034 409 
Q 2484 409 2743 651 
Q 3003 894 3003 1313 
Q 3003 1734 2745 1975 
Q 2488 2216 2034 2216 
z
M 1403 2484 
Q 997 2584 770 2862 
Q 544 3141 544 3541 
Q 544 4100 942 4425 
Q 1341 4750 2034 4750 
Q 2731 4750 3128 4425 
Q 3525 4100 3525 3541 
Q 3525 3141 3298 2862 
Q 3072 2584 2669 2484 
Q 3125 2378 3379 2068 
Q 3634 1759 3634 1313 
Q 3634 634 3220 271 
Q 2806 -91 2034 -91 
Q 1263 -91 848 271 
Q 434 634 434 1313 
Q 434 1759 690 2068 
Q 947 2378 1403 2484 
z
M 1172 3481 
Q 1172 3119 1398 2916 
Q 1625 2713 2034 2713 
Q 2441 2713 2670 2916 
Q 2900 3119 2900 3481 
Q 2900 3844 2670 4047 
Q 2441 4250 2034 4250 
Q 1625 4250 1398 4047 
Q 1172 3844 1172 3481 
z
" transform="scale(0.015625)"/>
       </defs>
       <use xlink:href="#DejaVuSans-38"/>
       <use xlink:href="#DejaVuSans-30" x="63.623047"/>
       <use xlink:href="#DejaVuSans-30" x="127.246094"/>
      </g>
     </g>
    </g>
    <g id="xtick_6">
     <g id="line2d_11">
      <path d="M 607.731466 438.757969 
L 607.731466 50.677969 
" clip-path="url(#pa70029a80b)" style="fill: none; stroke-dasharray: 0.8,1.32; stroke-dashoffset: 0; stroke: #b0b0b0; stroke-opacity: 0.4; stroke-width: 0.8"/>
     </g>
     <g id="line2d_12">
      <g>
       <use xlink:href="#md25af7e0e4" x="607.731466" y="413.986905" style="stroke: #000000"/>
      </g>
     </g>
     <g id="text_6">
      <!-- 1000 -->
      <g transform="translate(595.006466 425.085342) scale(0.1 -0.1)">
       <defs>
        <path id="DejaVuSans-31" d="M 794 531 
L 1825 531 
L 1825 4091 
L 703 3866 
L 703 4441 
L 1819 4666 
L 2450 4666 
L 2450 531 
L 3481 531 
L 3481 0 
L 794 0 
L 794 531 
z
" transform="scale(0.015625)"/>
       </defs>
       <use xlink:href="#DejaVuSans-31"/>
       <use xlink:href="#DejaVuSans-30" x="63.623047"/>
       <use xlink:href="#DejaVuSans-30" x="127.246094"/>
       <use xlink:href="#DejaVuSans-30" x="190.869141"/>
      </g>
     </g>
    </g>
    <g id="text_7">
     <!-- Q -->
     <g transform="translate(651.848175 434.283155) scale(0.12 -0.12)">
      <defs>
       <path id="DejaVuSans-Bold-51" d="M 2847 -84 
L 2753 -84 
Q 1600 -84 959 553 
Q 319 1191 319 2328 
Q 319 3463 958 4106 
Q 1597 4750 2719 4750 
Q 3853 4750 4486 4112 
Q 5119 3475 5119 2328 
Q 5119 1541 4783 972 
Q 4447 403 3816 116 
L 4756 -934 
L 3609 -934 
L 2847 -84 
z
M 2719 3878 
Q 2169 3878 1866 3472 
Q 1563 3066 1563 2328 
Q 1563 1578 1859 1179 
Q 2156 781 2719 781 
Q 3272 781 3575 1187 
Q 3878 1594 3878 2328 
Q 3878 3066 3575 3472 
Q 3272 3878 2719 3878 
z
" transform="scale(0.015625)"/>
      </defs>
      <use xlink:href="#DejaVuSans-Bold-51"/>
     </g>
    </g>
   </g>
   <g id="matplotlib.axis_2">
    <g id="ytick_1">
     <g id="line2d_13">
      <path d="M 48.25005 413.986905 
L 662.05005 413.986905 
" clip-path="url(#pa70029a80b)" style="fill: none; stroke-dasharray: 0.8,1.32; stroke-dashoffset: 0; stroke: #b0b0b0; stroke-opacity: 0.4; stroke-width: 0.8"/>
     </g>
     <g id="line2d_14">
      <defs>
       <path id="m46517e27fe" d="M 0 0 
L 4 0 
" style="stroke: #000000"/>
      </defs>
      <g>
       <use xlink:href="#m46517e27fe" x="64.545625" y="413.986905" style="stroke: #000000"/>
      </g>
     </g>
     <g id="text_8">
      <!-- 0 -->
      <g transform="translate(54.683125 417.786124) scale(0.1 -0.1)">
       <use xlink:href="#DejaVuSans-30"/>
      </g>
     </g>
    </g>
    <g id="ytick_2">
     <g id="line2d_15">
      <path d="M 48.25005 331.416692 
L 662.05005 331.416692 
" clip-path="url(#pa70029a80b)" style="fill: none; stroke-dasharray: 0.8,1.32; stroke-dashoffset: 0; stroke: #b0b0b0; stroke-opacity: 0.4; stroke-width: 0.8"/>
     </g>
     <g id="line2d_16">
      <g>
       <use xlink:href="#m46517e27fe" x="64.545625" y="331.416692" style="stroke: #000000"/>
      </g>
     </g>
     <g id="text_9">
      <!-- 1000 -->
      <g transform="translate(35.595625 335.215911) scale(0.1 -0.1)">
       <use xlink:href="#DejaVuSans-31"/>
       <use xlink:href="#DejaVuSans-30" x="63.623047"/>
       <use xlink:href="#DejaVuSans-30" x="127.246094"/>
       <use xlink:href="#DejaVuSans-30" x="190.869141"/>
      </g>
     </g>
    </g>
    <g id="ytick_3">
     <g id="line2d_17">
      <path d="M 48.25005 248.846479 
L 662.05005 248.846479 
" clip-path="url(#pa70029a80b)" style="fill: none; stroke-dasharray: 0.8,1.32; stroke-dashoffset: 0; stroke: #b0b0b0; stroke-opacity: 0.4; stroke-width: 0.8"/>
     </g>
     <g id="line2d_18">
      <g>
       <use xlink:href="#m46517e27fe" x="64.545625" y="248.846479" style="stroke: #000000"/>
      </g>
     </g>
     <g id="text_10">
      <!-- 2000 -->
      <g transform="translate(35.595625 252.645698) scale(0.1 -0.1)">
       <use xlink:href="#DejaVuSans-32"/>
       <use xlink:href="#DejaVuSans-30" x="63.623047"/>
       <use xlink:href="#DejaVuSans-30" x="127.246094"/>
       <use xlink:href="#DejaVuSans-30" x="190.869141"/>
      </g>
     </g>
    </g>
    <g id="ytick_4">
     <g id="line2d_19">
      <path d="M 48.25005 166.276267 
L 662.05005 166.276267 
" clip-path="url(#pa70029a80b)" style="fill: none; stroke-dasharray: 0.8,1.32; stroke-dashoffset: 0; stroke: #b0b0b0; stroke-opacity: 0.4; stroke-width: 0.8"/>
     </g>
     <g id="line2d_20">
      <g>
       <use xlink:href="#m46517e27fe" x="64.545625" y="166.276267" style="stroke: #000000"/>
      </g>
     </g>
     <g id="text_11">
      <!-- 3000 -->
      <g transform="translate(35.595625 170.075485) scale(0.1 -0.1)">
       <defs>
        <path id="DejaVuSans-33" d="M 2597 2516 
Q 3050 2419 3304 2112 
Q 3559 1806 3559 1356 
Q 3559 666 3084 287 
Q 2609 -91 1734 -91 
Q 1441 -91 1130 -33 
Q 819 25 488 141 
L 488 750 
Q 750 597 1062 519 
Q 1375 441 1716 441 
Q 2309 441 2620 675 
Q 2931 909 2931 1356 
Q 2931 1769 2642 2001 
Q 2353 2234 1838 2234 
L 1294 2234 
L 1294 2753 
L 1863 2753 
Q 2328 2753 2575 2939 
Q 2822 3125 2822 3475 
Q 2822 3834 2567 4026 
Q 2313 4219 1838 4219 
Q 1578 4219 1281 4162 
Q 984 4106 628 3988 
L 628 4550 
Q 988 4650 1302 4700 
Q 1616 4750 1894 4750 
Q 2613 4750 3031 4423 
Q 3450 4097 3450 3541 
Q 3450 3153 3228 2886 
Q 3006 2619 2597 2516 
z
" transform="scale(0.015625)"/>
       </defs>
       <use xlink:href="#DejaVuSans-33"/>
       <use xlink:href="#DejaVuSans-30" x="63.623047"/>
       <use xlink:href="#DejaVuSans-30" x="127.246094"/>
       <use xlink:href="#DejaVuSans-30" x="190.869141"/>
      </g>
     </g>
    </g>
    <g id="ytick_5">
     <g id="line2d_21">
      <path d="M 48.25005 83.706054 
L 662.05005 83.706054 
" clip-path="url(#pa70029a80b)" style="fill: none; stroke-dasharray: 0.8,1.32; stroke-dashoffset: 0; stroke: #b0b0b0; stroke-opacity: 0.4; stroke-width: 0.8"/>
     </g>
     <g id="line2d_22">
      <g>
       <use xlink:href="#m46517e27fe" x="64.545625" y="83.706054" style="stroke: #000000"/>
      </g>
     </g>
     <g id="text_12">
      <!-- 4000 -->
      <g transform="translate(35.595625 87.505273) scale(0.1 -0.1)">
       <use xlink:href="#DejaVuSans-34"/>
       <use xlink:href="#DejaVuSans-30" x="63.623047"/>
       <use xlink:href="#DejaVuSans-30" x="127.246094"/>
       <use xlink:href="#DejaVuSans-30" x="190.869141"/>
      </g>
     </g>
    </g>
    <g id="text_13">
     <!-- P -->
     <g transform="translate(28.8 48.182344) scale(0.12 -0.12)">
      <defs>
       <path id="DejaVuSans-Bold-50" d="M 588 4666 
L 2584 4666 
Q 3475 4666 3951 4270 
Q 4428 3875 4428 3144 
Q 4428 2409 3951 2014 
Q 3475 1619 2584 1619 
L 1791 1619 
L 1791 0 
L 588 0 
L 588 4666 
z
M 1791 3794 
L 1791 2491 
L 2456 2491 
Q 2806 2491 2997 2661 
Q 3188 2831 3188 3144 
Q 3188 3456 2997 3625 
Q 2806 3794 2456 3794 
L 1791 3794 
z
" transform="scale(0.015625)"/>
      </defs>
      <use xlink:href="#DejaVuSans-Bold-50"/>
     </g>
    </g>
   </g>
   <g id="line2d_23">
    <path d="M 64.545625 83.417058 
L 607.731466 413.697909 
L 607.731466 413.697909 
" clip-path="url(#pa70029a80b)" style="fill: none; stroke: #c0392b; stroke-width: 3; stroke-linecap: square"/>
   </g>
   <g id="line2d_24">
    <path d="M 64.545625 83.417058 
L 387.340048 475.963435 
L 387.340048 475.963435 
" clip-path="url(#pa70029a80b)" style="fill: none; stroke-dasharray: 9.25,4; stroke-dashoffset: 0; stroke: #e6796b; stroke-width: 2.5"/>
   </g>
   <g id="line2d_25">
    <path d="M 64.545625 413.986905 
L 607.731466 372.701799 
L 607.731466 372.701799 
" clip-path="url(#pa70029a80b)" style="fill: none; stroke: #e67e22; stroke-width: 3; stroke-linecap: square"/>
   </g>
   <g id="line2d_26">
    <path d="M 320.386156 413.986905 
L 320.386156 238.979339 
" clip-path="url(#pa70029a80b)" style="fill: none; stroke-dasharray: 4.44,1.92; stroke-dashoffset: 0; stroke: #34495e; stroke-opacity: 0.6; stroke-width: 1.2"/>
   </g>
   <g id="line2d_27">
    <path d="M 64.545625 238.979339 
L 320.386156 238.979339 
" clip-path="url(#pa70029a80b)" style="fill: none; stroke-dasharray: 4.44,1.92; stroke-dashoffset: 0; stroke: #34495e; stroke-opacity: 0.6; stroke-width: 1.2"/>
   </g>
   <g id="line2d_28">
    <defs>
     <path id="m22383eb490" d="M 4 0 
L -4 -4 
L -4 4 
z
" style="stroke: #000000; stroke-linejoin: miter"/>
    </defs>
    <g>
     <use xlink:href="#m22383eb490" x="662.05005" y="413.986905" style="stroke: #000000; stroke-linejoin: miter"/>
    </g>
   </g>
   <g id="line2d_29">
    <defs>
     <path id="ma843539488" d="M 0 -4 
L -4 4 
L 4 4 
z
" style="stroke: #000000; stroke-linejoin: miter"/>
    </defs>
    <g>
     <use xlink:href="#ma843539488" x="64.545625" y="50.677969" style="stroke: #000000; stroke-linejoin: miter"/>
    </g>
   </g>
   <g id="patch_3">
    <path d="M 64.545625 438.757969 
L 64.545625 50.677969 
" style="fill: none; stroke: #000000; stroke-width: 1.4; stroke-linejoin: miter; stroke-linecap: square"/>
   </g>
   <g id="patch_4">
    <path d="M 48.25005 413.986905 
L 662.05005 413.986905 
" style="fill: none; stroke: #000000; stroke-width: 1.4; stroke-linejoin: miter; stroke-linecap: square"/>
   </g>
   <g id="text_14">
    <!-- Ej 5 — Monopolio: IMg = CMg → Q* = 471, P* = 2119.5 -->
    <g transform="translate(157.950206 38.677969) scale(0.13 -0.13)">
     <defs>
      <path id="DejaVuSans-Bold-45" d="M 588 4666 
L 3834 4666 
L 3834 3756 
L 1791 3756 
L 1791 2888 
L 3713 2888 
L 3713 1978 
L 1791 1978 
L 1791 909 
L 3903 909 
L 3903 0 
L 588 0 
L 588 4666 
z
" transform="scale(0.015625)"/>
      <path id="DejaVuSans-Bold-6a" d="M 538 3500 
L 1656 3500 
L 1656 63 
Q 1656 -641 1318 -1011 
Q 981 -1381 341 -1381 
L -213 -1381 
L -213 -647 
L -19 -647 
Q 300 -647 419 -503 
Q 538 -359 538 63 
L 538 3500 
z
M 538 4863 
L 1656 4863 
L 1656 3950 
L 538 3950 
L 538 4863 
z
" transform="scale(0.015625)"/>
      <path id="DejaVuSans-Bold-20" transform="scale(0.015625)"/>
      <path id="DejaVuSans-Bold-35" d="M 678 4666 
L 3669 4666 
L 3669 3781 
L 1638 3781 
L 1638 3059 
Q 1775 3097 1914 3117 
Q 2053 3138 2203 3138 
Q 3056 3138 3531 2711 
Q 4006 2284 4006 1522 
Q 4006 766 3489 337 
Q 2972 -91 2053 -91 
Q 1656 -91 1267 -14 
Q 878 63 494 219 
L 494 1166 
Q 875 947 1217 837 
Q 1559 728 1863 728 
Q 2300 728 2551 942 
Q 2803 1156 2803 1522 
Q 2803 1891 2551 2103 
Q 2300 2316 1863 2316 
Q 1603 2316 1309 2248 
Q 1016 2181 678 2041 
L 678 4666 
z
" transform="scale(0.015625)"/>
      <path id="DejaVuSans-Bold-2014" d="M 344 2156 
L 6056 2156 
L 6056 1350 
L 344 1350 
L 344 2156 
z
" transform="scale(0.015625)"/>
      <path id="DejaVuSans-Bold-4d" d="M 588 4666 
L 2119 4666 
L 3181 2169 
L 4250 4666 
L 5778 4666 
L 5778 0 
L 4641 0 
L 4641 3413 
L 3566 897 
L 2803 897 
L 1728 3413 
L 1728 0 
L 588 0 
L 588 4666 
z
" transform="scale(0.015625)"/>
      <path id="DejaVuSans-Bold-6f" d="M 2203 2784 
Q 1831 2784 1636 2517 
Q 1441 2250 1441 1747 
Q 1441 1244 1636 976 
Q 1831 709 2203 709 
Q 2569 709 2762 976 
Q 2956 1244 2956 1747 
Q 2956 2250 2762 2517 
Q 2569 2784 2203 2784 
z
M 2203 3584 
Q 3106 3584 3614 3096 
Q 4122 2609 4122 1747 
Q 4122 884 3614 396 
Q 3106 -91 2203 -91 
Q 1297 -91 786 396 
Q 275 884 275 1747 
Q 275 2609 786 3096 
Q 1297 3584 2203 3584 
z
" transform="scale(0.015625)"/>
      <path id="DejaVuSans-Bold-6e" d="M 4056 2131 
L 4056 0 
L 2931 0 
L 2931 347 
L 2931 1631 
Q 2931 2084 2911 2256 
Q 2891 2428 2841 2509 
Q 2775 2619 2662 2680 
Q 2550 2741 2406 2741 
Q 2056 2741 1856 2470 
Q 1656 2200 1656 1722 
L 1656 0 
L 538 0 
L 538 3500 
L 1656 3500 
L 1656 2988 
Q 1909 3294 2193 3439 
Q 2478 3584 2822 3584 
Q 3428 3584 3742 3212 
Q 4056 2841 4056 2131 
z
" transform="scale(0.015625)"/>
      <path id="DejaVuSans-Bold-70" d="M 1656 506 
L 1656 -1331 
L 538 -1331 
L 538 3500 
L 1656 3500 
L 1656 2988 
Q 1888 3294 2169 3439 
Q 2450 3584 2816 3584 
Q 3463 3584 3878 3070 
Q 4294 2556 4294 1747 
Q 4294 938 3878 423 
Q 3463 -91 2816 -91 
Q 2450 -91 2169 54 
Q 1888 200 1656 506 
z
M 2400 2772 
Q 2041 2772 1848 2508 
Q 1656 2244 1656 1747 
Q 1656 1250 1848 986 
Q 2041 722 2400 722 
Q 2759 722 2948 984 
Q 3138 1247 3138 1747 
Q 3138 2247 2948 2509 
Q 2759 2772 2400 2772 
z
" transform="scale(0.015625)"/>
      <path id="DejaVuSans-Bold-6c" d="M 538 4863 
L 1656 4863 
L 1656 0 
L 538 0 
L 538 4863 
z
" transform="scale(0.015625)"/>
      <path id="DejaVuSans-Bold-69" d="M 538 3500 
L 1656 3500 
L 1656 0 
L 538 0 
L 538 3500 
z
M 538 4863 
L 1656 4863 
L 1656 3950 
L 538 3950 
L 538 4863 
z
" transform="scale(0.015625)"/>
      <path id="DejaVuSans-Bold-3a" d="M 716 3500 
L 1844 3500 
L 1844 2291 
L 716 2291 
L 716 3500 
z
M 716 1209 
L 1844 1209 
L 1844 0 
L 716 0 
L 716 1209 
z
" transform="scale(0.015625)"/>
      <path id="DejaVuSans-Bold-49" d="M 588 4666 
L 1791 4666 
L 1791 0 
L 588 0 
L 588 4666 
z
" transform="scale(0.015625)"/>
      <path id="DejaVuSans-Bold-67" d="M 2919 594 
Q 2688 288 2409 144 
Q 2131 0 1766 0 
Q 1125 0 706 504 
Q 288 1009 288 1791 
Q 288 2575 706 3076 
Q 1125 3578 1766 3578 
Q 2131 3578 2409 3434 
Q 2688 3291 2919 2981 
L 2919 3500 
L 4044 3500 
L 4044 353 
Q 4044 -491 3511 -936 
Q 2978 -1381 1966 -1381 
Q 1638 -1381 1331 -1331 
Q 1025 -1281 716 -1178 
L 716 -306 
Q 1009 -475 1290 -558 
Q 1572 -641 1856 -641 
Q 2406 -641 2662 -400 
Q 2919 -159 2919 353 
L 2919 594 
z
M 2181 2772 
Q 1834 2772 1640 2515 
Q 1447 2259 1447 1791 
Q 1447 1309 1634 1061 
Q 1822 813 2181 813 
Q 2531 813 2725 1069 
Q 2919 1325 2919 1791 
Q 2919 2259 2725 2515 
Q 2531 2772 2181 2772 
z
" transform="scale(0.015625)"/>
      <path id="DejaVuSans-Bold-3d" d="M 678 3084 
L 4684 3084 
L 4684 2350 
L 678 2350 
L 678 3084 
z
M 678 1663 
L 4684 1663 
L 4684 922 
L 678 922 
L 678 1663 
z
" transform="scale(0.015625)"/>
      <path id="DejaVuSans-Bold-43" d="M 4288 256 
Q 3956 84 3597 -3 
Q 3238 -91 2847 -91 
Q 1681 -91 1000 561 
Q 319 1213 319 2328 
Q 319 3447 1000 4098 
Q 1681 4750 2847 4750 
Q 3238 4750 3597 4662 
Q 3956 4575 4288 4403 
L 4288 3438 
Q 3953 3666 3628 3772 
Q 3303 3878 2944 3878 
Q 2300 3878 1931 3465 
Q 1563 3053 1563 2328 
Q 1563 1606 1931 1193 
Q 2300 781 2944 781 
Q 3303 781 3628 887 
Q 3953 994 4288 1222 
L 4288 256 
z
" transform="scale(0.015625)"/>
      <path id="DejaVuSans-Bold-2192" d="M 5050 2225 
L 5050 1788 
L 3822 559 
L 3369 1013 
L 3988 1631 
L 366 1631 
L 366 2381 
L 3988 2381 
L 3369 3000 
L 3822 3453 
L 5050 2225 
z
" transform="scale(0.015625)"/>
      <path id="DejaVuSans-Bold-2a" d="M 3219 3803 
L 2188 3263 
L 3219 2719 
L 2981 2278 
L 1941 2853 
L 1941 1778 
L 1409 1778 
L 1409 2853 
L 366 2278 
L 128 2719 
L 1172 3263 
L 128 3803 
L 366 4244 
L 1409 3675 
L 1409 4750 
L 1941 4750 
L 1941 3675 
L 2981 4244 
L 3219 3803 
z
" transform="scale(0.015625)"/>
      <path id="DejaVuSans-Bold-34" d="M 2356 3675 
L 1038 1722 
L 2356 1722 
L 2356 3675 
z
M 2156 4666 
L 3494 4666 
L 3494 1722 
L 4159 1722 
L 4159 850 
L 3494 850 
L 3494 0 
L 2356 0 
L 2356 850 
L 288 850 
L 288 1881 
L 2156 4666 
z
" transform="scale(0.015625)"/>
      <path id="DejaVuSans-Bold-37" d="M 428 4666 
L 3944 4666 
L 3944 3988 
L 2125 0 
L 953 0 
L 2675 3781 
L 428 3781 
L 428 4666 
z
" transform="scale(0.015625)"/>
      <path id="DejaVuSans-Bold-31" d="M 750 831 
L 1813 831 
L 1813 3847 
L 722 3622 
L 722 4441 
L 1806 4666 
L 2950 4666 
L 2950 831 
L 4013 831 
L 4013 0 
L 750 0 
L 750 831 
z
" transform="scale(0.015625)"/>
      <path id="DejaVuSans-Bold-2c" d="M 653 1209 
L 1778 1209 
L 1778 256 
L 1006 -909 
L 341 -909 
L 653 256 
L 653 1209 
z
" transform="scale(0.015625)"/>
      <path id="DejaVuSans-Bold-32" d="M 1844 884 
L 3897 884 
L 3897 0 
L 506 0 
L 506 884 
L 2209 2388 
Q 2438 2594 2547 2791 
Q 2656 2988 2656 3200 
Q 2656 3528 2436 3728 
Q 2216 3928 1850 3928 
Q 1569 3928 1234 3808 
Q 900 3688 519 3450 
L 519 4475 
Q 925 4609 1322 4679 
Q 1719 4750 2100 4750 
Q 2938 4750 3402 4381 
Q 3866 4013 3866 3353 
Q 3866 2972 3669 2642 
Q 3472 2313 2841 1759 
L 1844 884 
z
" transform="scale(0.015625)"/>
      <path id="DejaVuSans-Bold-39" d="M 641 103 
L 641 966 
Q 928 831 1190 764 
Q 1453 697 1709 697 
Q 2247 697 2547 995 
Q 2847 1294 2900 1881 
Q 2688 1725 2447 1647 
Q 2206 1569 1925 1569 
Q 1209 1569 770 1986 
Q 331 2403 331 3084 
Q 331 3838 820 4291 
Q 1309 4744 2131 4744 
Q 3044 4744 3544 4128 
Q 4044 3513 4044 2388 
Q 4044 1231 3459 570 
Q 2875 -91 1856 -91 
Q 1528 -91 1228 -42 
Q 928 6 641 103 
z
M 2125 2350 
Q 2441 2350 2600 2554 
Q 2759 2759 2759 3169 
Q 2759 3575 2600 3781 
Q 2441 3988 2125 3988 
Q 1809 3988 1650 3781 
Q 1491 3575 1491 3169 
Q 1491 2759 1650 2554 
Q 1809 2350 2125 2350 
z
" transform="scale(0.015625)"/>
      <path id="DejaVuSans-Bold-2e" d="M 653 1209 
L 1778 1209 
L 1778 0 
L 653 0 
L 653 1209 
z
" transform="scale(0.015625)"/>
     </defs>
     <use xlink:href="#DejaVuSans-Bold-45"/>
     <use xlink:href="#DejaVuSans-Bold-6a" x="68.310547"/>
     <use xlink:href="#DejaVuSans-Bold-20" x="102.587891"/>
     <use xlink:href="#DejaVuSans-Bold-35" x="137.402344"/>
     <use xlink:href="#DejaVuSans-Bold-20" x="206.982422"/>
     <use xlink:href="#DejaVuSans-Bold-2014" x="241.796875"/>
     <use xlink:href="#DejaVuSans-Bold-20" x="341.796875"/>
     <use xlink:href="#DejaVuSans-Bold-4d" x="376.611328"/>
     <use xlink:href="#DejaVuSans-Bold-6f" x="476.123047"/>
     <use xlink:href="#DejaVuSans-Bold-6e" x="544.824219"/>
     <use xlink:href="#DejaVuSans-Bold-6f" x="616.015625"/>
     <use xlink:href="#DejaVuSans-Bold-70" x="684.716797"/>
     <use xlink:href="#DejaVuSans-Bold-6f" x="756.298828"/>
     <use xlink:href="#DejaVuSans-Bold-6c" x="825"/>
     <use xlink:href="#DejaVuSans-Bold-69" x="859.277344"/>
     <use xlink:href="#DejaVuSans-Bold-6f" x="893.554688"/>
     <use xlink:href="#DejaVuSans-Bold-3a" x="962.255859"/>
     <use xlink:href="#DejaVuSans-Bold-20" x="1002.246094"/>
     <use xlink:href="#DejaVuSans-Bold-49" x="1037.060547"/>
     <use xlink:href="#DejaVuSans-Bold-4d" x="1074.267578"/>
     <use xlink:href="#DejaVuSans-Bold-67" x="1173.779297"/>
     <use xlink:href="#DejaVuSans-Bold-20" x="1245.361328"/>
     <use xlink:href="#DejaVuSans-Bold-3d" x="1280.175781"/>
     <use xlink:href="#DejaVuSans-Bold-20" x="1363.964844"/>
     <use xlink:href="#DejaVuSans-Bold-43" x="1398.779297"/>
     <use xlink:href="#DejaVuSans-Bold-4d" x="1472.167969"/>
     <use xlink:href="#DejaVuSans-Bold-67" x="1571.679688"/>
     <use xlink:href="#DejaVuSans-Bold-20" x="1643.261719"/>
     <use xlink:href="#DejaVuSans-Bold-2192" x="1678.076172"/>
     <use xlink:href="#DejaVuSans-Bold-20" x="1761.865234"/>
     <use xlink:href="#DejaVuSans-Bold-51" x="1796.679688"/>
     <use xlink:href="#DejaVuSans-Bold-2a" x="1881.689453"/>
     <use xlink:href="#DejaVuSans-Bold-20" x="1933.984375"/>
     <use xlink:href="#DejaVuSans-Bold-3d" x="1968.798828"/>
     <use xlink:href="#DejaVuSans-Bold-20" x="2052.587891"/>
     <use xlink:href="#DejaVuSans-Bold-34" x="2087.402344"/>
     <use xlink:href="#DejaVuSans-Bold-37" x="2156.982422"/>
     <use xlink:href="#DejaVuSans-Bold-31" x="2226.5625"/>
     <use xlink:href="#DejaVuSans-Bold-2c" x="2296.142578"/>
     <use xlink:href="#DejaVuSans-Bold-20" x="2334.130859"/>
     <use xlink:href="#DejaVuSans-Bold-50" x="2368.945312"/>
     <use xlink:href="#DejaVuSans-Bold-2a" x="2442.236328"/>
     <use xlink:href="#DejaVuSans-Bold-20" x="2494.53125"/>
     <use xlink:href="#DejaVuSans-Bold-3d" x="2529.345703"/>
     <use xlink:href="#DejaVuSans-Bold-20" x="2613.134766"/>
     <use xlink:href="#DejaVuSans-Bold-32" x="2647.949219"/>
     <use xlink:href="#DejaVuSans-Bold-31" x="2717.529297"/>
     <use xlink:href="#DejaVuSans-Bold-31" x="2787.109375"/>
     <use xlink:href="#DejaVuSans-Bold-39" x="2856.689453"/>
     <use xlink:href="#DejaVuSans-Bold-2e" x="2926.269531"/>
     <use xlink:href="#DejaVuSans-Bold-35" x="2964.257812"/>
    </g>
   </g>
   <g id="legend_1">
    <g id="patch_5">
     <path d="M 676.12605 93.008906 
L 794.002144 93.008906 
Q 795.802144 93.008906 795.802144 91.208906 
L 795.802144 52.477969 
Q 795.802144 50.677969 794.002144 50.677969 
L 676.12605 50.677969 
Q 674.32605 50.677969 674.32605 52.477969 
L 674.32605 91.208906 
Q 674.32605 93.008906 676.12605 93.008906 
z
" style="fill: #ffffff; opacity: 0.8; stroke: #cccccc; stroke-linejoin: miter"/>
    </g>
    <g id="line2d_30">
     <path d="M 677.92605 57.966562 
L 686.92605 57.966562 
L 695.92605 57.966562 
" style="fill: none; stroke: #c0392b; stroke-width: 3; stroke-linecap: square"/>
    </g>
    <g id="text_15">
     <!-- D: P = 4003.5 − 4Q -->
     <g transform="translate(703.12605 61.116562) scale(0.09 -0.09)">
      <defs>
       <path id="DejaVuSans-44" d="M 1259 4147 
L 1259 519 
L 2022 519 
Q 2988 519 3436 956 
Q 3884 1394 3884 2338 
Q 3884 3275 3436 3711 
Q 2988 4147 2022 4147 
L 1259 4147 
z
M 628 4666 
L 1925 4666 
Q 3281 4666 3915 4102 
Q 4550 3538 4550 2338 
Q 4550 1131 3912 565 
Q 3275 0 1925 0 
L 628 0 
L 628 4666 
z
" transform="scale(0.015625)"/>
       <path id="DejaVuSans-3a" d="M 750 794 
L 1409 794 
L 1409 0 
L 750 0 
L 750 794 
z
M 750 3309 
L 1409 3309 
L 1409 2516 
L 750 2516 
L 750 3309 
z
" transform="scale(0.015625)"/>
       <path id="DejaVuSans-20" transform="scale(0.015625)"/>
       <path id="DejaVuSans-50" d="M 1259 4147 
L 1259 2394 
L 2053 2394 
Q 2494 2394 2734 2622 
Q 2975 2850 2975 3272 
Q 2975 3691 2734 3919 
Q 2494 4147 2053 4147 
L 1259 4147 
z
M 628 4666 
L 2053 4666 
Q 2838 4666 3239 4311 
Q 3641 3956 3641 3272 
Q 3641 2581 3239 2228 
Q 2838 1875 2053 1875 
L 1259 1875 
L 1259 0 
L 628 0 
L 628 4666 
z
" transform="scale(0.015625)"/>
       <path id="DejaVuSans-3d" d="M 678 2906 
L 4684 2906 
L 4684 2381 
L 678 2381 
L 678 2906 
z
M 678 1631 
L 4684 1631 
L 4684 1100 
L 678 1100 
L 678 1631 
z
" transform="scale(0.015625)"/>
       <path id="DejaVuSans-2e" d="M 684 794 
L 1344 794 
L 1344 0 
L 684 0 
L 684 794 
z
" transform="scale(0.015625)"/>
       <path id="DejaVuSans-35" d="M 691 4666 
L 3169 4666 
L 3169 4134 
L 1269 4134 
L 1269 2991 
Q 1406 3038 1543 3061 
Q 1681 3084 1819 3084 
Q 2600 3084 3056 2656 
Q 3513 2228 3513 1497 
Q 3513 744 3044 326 
Q 2575 -91 1722 -91 
Q 1428 -91 1123 -41 
Q 819 9 494 109 
L 494 744 
Q 775 591 1075 516 
Q 1375 441 1709 441 
Q 2250 441 2565 725 
Q 2881 1009 2881 1497 
Q 2881 1984 2565 2268 
Q 2250 2553 1709 2553 
Q 1456 2553 1204 2497 
Q 953 2441 691 2322 
L 691 4666 
z
" transform="scale(0.015625)"/>
       <path id="DejaVuSans-2212" d="M 678 2272 
L 4684 2272 
L 4684 1741 
L 678 1741 
L 678 2272 
z
" transform="scale(0.015625)"/>
       <path id="DejaVuSans-51" d="M 2522 4238 
Q 1834 4238 1429 3725 
Q 1025 3213 1025 2328 
Q 1025 1447 1429 934 
Q 1834 422 2522 422 
Q 3209 422 3611 934 
Q 4013 1447 4013 2328 
Q 4013 3213 3611 3725 
Q 3209 4238 2522 4238 
z
M 3406 84 
L 4238 -825 
L 3475 -825 
L 2784 -78 
Q 2681 -84 2626 -87 
Q 2572 -91 2522 -91 
Q 1538 -91 948 567 
Q 359 1225 359 2328 
Q 359 3434 948 4092 
Q 1538 4750 2522 4750 
Q 3503 4750 4090 4092 
Q 4678 3434 4678 2328 
Q 4678 1516 4351 937 
Q 4025 359 3406 84 
z
" transform="scale(0.015625)"/>
      </defs>
      <use xlink:href="#DejaVuSans-44"/>
      <use xlink:href="#DejaVuSans-3a" x="77.001953"/>
      <use xlink:href="#DejaVuSans-20" x="110.693359"/>
      <use xlink:href="#DejaVuSans-50" x="142.480469"/>
      <use xlink:href="#DejaVuSans-20" x="202.783203"/>
      <use xlink:href="#DejaVuSans-3d" x="234.570312"/>
      <use xlink:href="#DejaVuSans-20" x="318.359375"/>
      <use xlink:href="#DejaVuSans-34" x="350.146484"/>
      <use xlink:href="#DejaVuSans-30" x="413.769531"/>
      <use xlink:href="#DejaVuSans-30" x="477.392578"/>
      <use xlink:href="#DejaVuSans-33" x="541.015625"/>
      <use xlink:href="#DejaVuSans-2e" x="604.638672"/>
      <use xlink:href="#DejaVuSans-35" x="636.425781"/>
      <use xlink:href="#DejaVuSans-20" x="700.048828"/>
      <use xlink:href="#DejaVuSans-2212" x="731.835938"/>
      <use xlink:href="#DejaVuSans-20" x="815.625"/>
      <use xlink:href="#DejaVuSans-34" x="847.412109"/>
      <use xlink:href="#DejaVuSans-51" x="911.035156"/>
     </g>
    </g>
    <g id="line2d_31">
     <path d="M 677.92605 71.176875 
L 686.92605 71.176875 
L 695.92605 71.176875 
" style="fill: none; stroke-dasharray: 9.25,4; stroke-dashoffset: 0; stroke: #e6796b; stroke-width: 2.5"/>
    </g>
    <g id="text_16">
     <!-- IMg = 4003.5 − 8Q -->
     <g transform="translate(703.12605 74.326875) scale(0.09 -0.09)">
      <defs>
       <path id="DejaVuSans-49" d="M 628 4666 
L 1259 4666 
L 1259 0 
L 628 0 
L 628 4666 
z
" transform="scale(0.015625)"/>
       <path id="DejaVuSans-4d" d="M 628 4666 
L 1569 4666 
L 2759 1491 
L 3956 4666 
L 4897 4666 
L 4897 0 
L 4281 0 
L 4281 4097 
L 3078 897 
L 2444 897 
L 1241 4097 
L 1241 0 
L 628 0 
L 628 4666 
z
" transform="scale(0.015625)"/>
       <path id="DejaVuSans-67" d="M 2906 1791 
Q 2906 2416 2648 2759 
Q 2391 3103 1925 3103 
Q 1463 3103 1205 2759 
Q 947 2416 947 1791 
Q 947 1169 1205 825 
Q 1463 481 1925 481 
Q 2391 481 2648 825 
Q 2906 1169 2906 1791 
z
M 3481 434 
Q 3481 -459 3084 -895 
Q 2688 -1331 1869 -1331 
Q 1566 -1331 1297 -1286 
Q 1028 -1241 775 -1147 
L 775 -588 
Q 1028 -725 1275 -790 
Q 1522 -856 1778 -856 
Q 2344 -856 2625 -561 
Q 2906 -266 2906 331 
L 2906 616 
Q 2728 306 2450 153 
Q 2172 0 1784 0 
Q 1141 0 747 490 
Q 353 981 353 1791 
Q 353 2603 747 3093 
Q 1141 3584 1784 3584 
Q 2172 3584 2450 3431 
Q 2728 3278 2906 2969 
L 2906 3500 
L 3481 3500 
L 3481 434 
z
" transform="scale(0.015625)"/>
      </defs>
      <use xlink:href="#DejaVuSans-49"/>
      <use xlink:href="#DejaVuSans-4d" x="29.492188"/>
      <use xlink:href="#DejaVuSans-67" x="115.771484"/>
      <use xlink:href="#DejaVuSans-20" x="179.248047"/>
      <use xlink:href="#DejaVuSans-3d" x="211.035156"/>
      <use xlink:href="#DejaVuSans-20" x="294.824219"/>
      <use xlink:href="#DejaVuSans-34" x="326.611328"/>
      <use xlink:href="#DejaVuSans-30" x="390.234375"/>
      <use xlink:href="#DejaVuSans-30" x="453.857422"/>
      <use xlink:href="#DejaVuSans-33" x="517.480469"/>
      <use xlink:href="#DejaVuSans-2e" x="581.103516"/>
      <use xlink:href="#DejaVuSans-35" x="612.890625"/>
      <use xlink:href="#DejaVuSans-20" x="676.513672"/>
      <use xlink:href="#DejaVuSans-2212" x="708.300781"/>
      <use xlink:href="#DejaVuSans-20" x="792.089844"/>
      <use xlink:href="#DejaVuSans-38" x="823.876953"/>
      <use xlink:href="#DejaVuSans-51" x="887.5"/>
     </g>
    </g>
    <g id="line2d_32">
     <path d="M 677.92605 84.387187 
L 686.92605 84.387187 
L 695.92605 84.387187 
" style="fill: none; stroke: #e67e22; stroke-width: 3; stroke-linecap: square"/>
    </g>
    <g id="text_17">
     <!-- CMg = Q/2 -->
     <g transform="translate(703.12605 87.537187) scale(0.09 -0.09)">
      <defs>
       <path id="DejaVuSans-43" d="M 4122 4306 
L 4122 3641 
Q 3803 3938 3442 4084 
Q 3081 4231 2675 4231 
Q 1875 4231 1450 3742 
Q 1025 3253 1025 2328 
Q 1025 1406 1450 917 
Q 1875 428 2675 428 
Q 3081 428 3442 575 
Q 3803 722 4122 1019 
L 4122 359 
Q 3791 134 3420 21 
Q 3050 -91 2638 -91 
Q 1578 -91 968 557 
Q 359 1206 359 2328 
Q 359 3453 968 4101 
Q 1578 4750 2638 4750 
Q 3056 4750 3426 4639 
Q 3797 4528 4122 4306 
z
" transform="scale(0.015625)"/>
       <path id="DejaVuSans-2f" d="M 1625 4666 
L 2156 4666 
L 531 -594 
L 0 -594 
L 1625 4666 
z
" transform="scale(0.015625)"/>
      </defs>
      <use xlink:href="#DejaVuSans-43"/>
      <use xlink:href="#DejaVuSans-4d" x="69.824219"/>
      <use xlink:href="#DejaVuSans-67" x="156.103516"/>
      <use xlink:href="#DejaVuSans-20" x="219.580078"/>
      <use xlink:href="#DejaVuSans-3d" x="251.367188"/>
      <use xlink:href="#DejaVuSans-20" x="335.15625"/>
      <use xlink:href="#DejaVuSans-51" x="366.943359"/>
      <use xlink:href="#DejaVuSans-2f" x="445.654297"/>
      <use xlink:href="#DejaVuSans-32" x="479.345703"/>
     </g>
    </g>
   </g>
   <g id="line2d_33">
    <defs>
     <path id="maa32f1cbb3" d="M 0 6 
C 1.591219 6 3.117479 5.367802 4.242641 4.242641 
C 5.367802 3.117479 6 1.591219 6 0 
C 6 -1.591219 5.367802 -3.117479 4.242641 -4.242641 
C 3.117479 -5.367802 1.591219 -6 0 -6 
C -1.591219 -6 -3.117479 -5.367802 -4.242641 -4.242641 
C -5.367802 -3.117479 -6 -1.591219 -6 0 
C -6 1.591219 -5.367802 3.117479 -4.242641 4.242641 
C -3.117479 5.367802 -1.591219 6 0 6 
z
" style="stroke: #000000"/>
    </defs>
    <g clip-path="url(#pa70029a80b)">
     <use xlink:href="#maa32f1cbb3" x="320.386156" y="238.979339" style="stroke: #000000"/>
    </g>
   </g>
   <g id="line2d_34">
    <defs>
     <path id="m354feea50a" d="M 0 5.5 
C 1.458617 5.5 2.857689 4.920485 3.889087 3.889087 
C 4.920485 2.857689 5.5 1.458617 5.5 0 
C 5.5 -1.458617 4.920485 -2.857689 3.889087 -3.889087 
C 2.857689 -4.920485 1.458617 -5.5 0 -5.5 
C -1.458617 -5.5 -2.857689 -4.920485 -3.889087 -3.889087 
C -4.920485 -2.857689 -5.5 -1.458617 -5.5 0 
C -5.5 1.458617 -4.920485 2.857689 -3.889087 3.889087 
C -2.857689 4.920485 -1.458617 5.5 0 5.5 
z
" style="stroke: #e67e22"/>
    </defs>
    <g clip-path="url(#pa70029a80b)">
     <use xlink:href="#m354feea50a" x="320.386156" y="394.54162" style="fill: #e67e22; stroke: #e67e22"/>
    </g>
   </g>
   <g id="patch_6">
    <path d="M 440.1496 180.382378 
Q 381.165154 209.241846 323.184979 237.609952 
" style="fill: none; stroke: #000000; stroke-linecap: round"/>
    <path d="M 327.656949 237.648495 
L 323.184979 237.609952 
L 325.898996 234.055502 
" style="fill: none; stroke: #000000; stroke-linecap: round"/>
   </g>
   <g id="text_18">
    <g id="patch_7">
     <path d="M 413.012566 179.002856 
L 531.943816 179.002856 
Q 535.943816 179.002856 535.943816 175.002856 
L 535.943816 154.126919 
Q 535.943816 150.126919 531.943816 150.126919 
L 413.012566 150.126919 
Q 409.012566 150.126919 409.012566 154.126919 
L 409.012566 175.002856 
Q 409.012566 179.002856 413.012566 179.002856 
z
" style="fill: #e8f8f5; opacity: 0.97; stroke: #16a085; stroke-linejoin: miter"/>
    </g>
    <!-- M -->
    <g transform="translate(467.50241 161.725356) scale(0.1 -0.1)">
     <use xlink:href="#DejaVuSans-Bold-4d"/>
    </g>
    <!-- (Q*=471, P*=2119.5) -->
    <g transform="translate(413.012566 172.923169) scale(0.1 -0.1)">
     <defs>
      <path id="DejaVuSans-Bold-28" d="M 2413 -844 
L 1484 -844 
Q 1006 -72 778 623 
Q 550 1319 550 2003 
Q 550 2688 779 3389 
Q 1009 4091 1484 4856 
L 2413 4856 
Q 2013 4116 1813 3408 
Q 1613 2700 1613 2009 
Q 1613 1319 1811 609 
Q 2009 -100 2413 -844 
z
" transform="scale(0.015625)"/>
      <path id="DejaVuSans-Bold-29" d="M 513 -844 
Q 913 -100 1113 609 
Q 1313 1319 1313 2009 
Q 1313 2700 1113 3408 
Q 913 4116 513 4856 
L 1441 4856 
Q 1916 4091 2145 3389 
Q 2375 2688 2375 2003 
Q 2375 1319 2147 623 
Q 1919 -72 1441 -844 
L 513 -844 
z
" transform="scale(0.015625)"/>
     </defs>
     <use xlink:href="#DejaVuSans-Bold-28"/>
     <use xlink:href="#DejaVuSans-Bold-51" x="45.703125"/>
     <use xlink:href="#DejaVuSans-Bold-2a" x="130.712891"/>
     <use xlink:href="#DejaVuSans-Bold-3d" x="183.007812"/>
     <use xlink:href="#DejaVuSans-Bold-34" x="266.796875"/>
     <use xlink:href="#DejaVuSans-Bold-37" x="336.376953"/>
     <use xlink:href="#DejaVuSans-Bold-31" x="405.957031"/>
     <use xlink:href="#DejaVuSans-Bold-2c" x="475.537109"/>
     <use xlink:href="#DejaVuSans-Bold-20" x="513.525391"/>
     <use xlink:href="#DejaVuSans-Bold-50" x="548.339844"/>
     <use xlink:href="#DejaVuSans-Bold-2a" x="621.630859"/>
     <use xlink:href="#DejaVuSans-Bold-3d" x="673.925781"/>
     <use xlink:href="#DejaVuSans-Bold-32" x="757.714844"/>
     <use xlink:href="#DejaVuSans-Bold-31" x="827.294922"/>
     <use xlink:href="#DejaVuSans-Bold-31" x="896.875"/>
     <use xlink:href="#DejaVuSans-Bold-39" x="966.455078"/>
     <use xlink:href="#DejaVuSans-Bold-2e" x="1036.035156"/>
     <use xlink:href="#DejaVuSans-Bold-35" x="1074.023438"/>
     <use xlink:href="#DejaVuSans-Bold-29" x="1143.603516"/>
    </g>
   </g>
   <g id="patch_8">
    <path d="M 433.534379 425.180167 
Q 377.925384 410.12223 323.395558 395.356513 
" style="fill: none; stroke: #e67e22; stroke-linecap: round"/>
    <path d="M 326.733774 398.332469 
L 323.395558 395.356513 
L 327.779253 394.471514 
" style="fill: none; stroke: #e67e22; stroke-linecap: round"/>
   </g>
   <g id="text_19">
    <g id="patch_9">
     <path d="M 438.813348 449.163435 
L 506.143035 449.163435 
Q 509.143035 449.163435 509.143035 446.163435 
L 509.143035 425.209372 
Q 509.143035 422.209372 506.143035 422.209372 
L 438.813348 422.209372 
Q 435.813348 422.209372 435.813348 425.209372 
L 435.813348 446.163435 
Q 435.813348 449.163435 438.813348 449.163435 
z
" style="fill: #fffbeb; opacity: 0.97; stroke: #f39c12; stroke-width: 0.7; stroke-linejoin: miter"/>
    </g>
    <!-- IMg = CMg -->
    <g style="fill: #e67e22" transform="translate(442.168035 432.80781) scale(0.1 -0.1)">
     <use xlink:href="#DejaVuSans-Bold-49"/>
     <use xlink:href="#DejaVuSans-Bold-4d" x="37.207031"/>
     <use xlink:href="#DejaVuSans-Bold-67" x="136.71875"/>
     <use xlink:href="#DejaVuSans-Bold-20" x="208.300781"/>
     <use xlink:href="#DejaVuSans-Bold-3d" x="243.115234"/>
     <use xlink:href="#DejaVuSans-Bold-20" x="326.904297"/>
     <use xlink:href="#DejaVuSans-Bold-43" x="361.71875"/>
     <use xlink:href="#DejaVuSans-Bold-4d" x="435.107422"/>
     <use xlink:href="#DejaVuSans-Bold-67" x="534.619141"/>
    </g>
    <!-- en Q* = 471 -->
    <g style="fill: #e67e22" transform="translate(438.813348 444.083747) scale(0.1 -0.1)">
     <defs>
      <path id="DejaVuSans-Bold-65" d="M 4031 1759 
L 4031 1441 
L 1416 1441 
Q 1456 1047 1700 850 
Q 1944 653 2381 653 
Q 2734 653 3104 758 
Q 3475 863 3866 1075 
L 3866 213 
Q 3469 63 3072 -14 
Q 2675 -91 2278 -91 
Q 1328 -91 801 392 
Q 275 875 275 1747 
Q 275 2603 792 3093 
Q 1309 3584 2216 3584 
Q 3041 3584 3536 3087 
Q 4031 2591 4031 1759 
z
M 2881 2131 
Q 2881 2450 2695 2645 
Q 2509 2841 2209 2841 
Q 1884 2841 1681 2658 
Q 1478 2475 1428 2131 
L 2881 2131 
z
" transform="scale(0.015625)"/>
     </defs>
     <use xlink:href="#DejaVuSans-Bold-65"/>
     <use xlink:href="#DejaVuSans-Bold-6e" x="67.822266"/>
     <use xlink:href="#DejaVuSans-Bold-20" x="139.013672"/>
     <use xlink:href="#DejaVuSans-Bold-51" x="173.828125"/>
     <use xlink:href="#DejaVuSans-Bold-2a" x="258.837891"/>
     <use xlink:href="#DejaVuSans-Bold-20" x="311.132812"/>
     <use xlink:href="#DejaVuSans-Bold-3d" x="345.947266"/>
     <use xlink:href="#DejaVuSans-Bold-20" x="429.736328"/>
     <use xlink:href="#DejaVuSans-Bold-34" x="464.550781"/>
     <use xlink:href="#DejaVuSans-Bold-37" x="534.130859"/>
     <use xlink:href="#DejaVuSans-Bold-31" x="603.710938"/>
    </g>
   </g>
   <g id="text_20">
    <g id="patch_10">
     <path d="M 135.343653 296.819242 
L 211.021934 296.819242 
Q 215.421934 296.819242 215.421934 292.419242 
L 215.421934 281.773305 
Q 215.421934 277.373305 211.021934 277.373305 
L 135.343653 277.373305 
Q 130.943653 277.373305 130.943653 281.773305 
L 130.943653 292.419242 
Q 130.943653 296.819242 135.343653 296.819242 
z
" style="fill: #e8f8f5; opacity: 0.97; stroke: #16a085; stroke-linejoin: miter"/>
    </g>
    <!-- π ≈ 941.824 -->
    <g style="fill: #27ae60" transform="translate(135.343653 290.131586) scale(0.11 -0.11)">
     <defs>
      <path id="DejaVuSans-Bold-3c0" d="M 269 3500 
L 4684 3500 
L 4684 2700 
L 4072 2700 
L 4072 1131 
Q 4072 728 4148 629 
Q 4225 531 4400 531 
Q 4578 531 4678 544 
L 4678 -44 
Q 4484 -122 3822 -122 
Q 3613 -122 3409 -63 
Q 3084 34 2994 319 
Q 2953 453 2953 728 
L 2953 2700 
L 2000 2700 
L 2000 0 
L 881 0 
L 881 2700 
L 269 2700 
L 269 3500 
z
" transform="scale(0.015625)"/>
      <path id="DejaVuSans-Bold-2248" d="M 4684 3309 
L 4684 2547 
Q 4353 2297 4073 2189 
Q 3794 2081 3494 2081 
Q 3159 2081 2713 2263 
Q 2669 2281 2644 2291 
Q 2622 2300 2575 2319 
Q 2091 2509 1797 2509 
Q 1522 2509 1253 2389 
Q 984 2269 678 2009 
L 678 2772 
Q 1006 3016 1286 3123 
Q 1566 3231 1869 3231 
Q 2213 3231 2672 3047 
Q 2703 3034 2719 3028 
Q 2744 3019 2788 3000 
Q 3272 2809 3566 2809 
Q 3834 2809 4098 2926 
Q 4363 3044 4684 3309 
z
M 4684 2003 
L 4684 1241 
Q 4353 991 4073 883 
Q 3794 775 3494 775 
Q 3159 775 2713 956 
Q 2669 975 2641 988 
Q 2622 994 2575 1013 
Q 2091 1203 1797 1203 
Q 1522 1203 1253 1084 
Q 984 966 678 703 
L 678 1466 
Q 1013 1716 1291 1823 
Q 1569 1931 1869 1931 
Q 2203 1931 2650 1750 
Q 2697 1731 2719 1722 
Q 2744 1713 2788 1697 
Q 3272 1503 3566 1503 
Q 3834 1503 4098 1620 
Q 4363 1738 4684 2003 
z
" transform="scale(0.015625)"/>
      <path id="DejaVuSans-Bold-38" d="M 2228 2088 
Q 1891 2088 1709 1903 
Q 1528 1719 1528 1375 
Q 1528 1031 1709 848 
Q 1891 666 2228 666 
Q 2563 666 2741 848 
Q 2919 1031 2919 1375 
Q 2919 1722 2741 1905 
Q 2563 2088 2228 2088 
z
M 1350 2484 
Q 925 2613 709 2878 
Q 494 3144 494 3541 
Q 494 4131 934 4440 
Q 1375 4750 2228 4750 
Q 3075 4750 3515 4442 
Q 3956 4134 3956 3541 
Q 3956 3144 3739 2878 
Q 3522 2613 3097 2484 
Q 3572 2353 3814 2058 
Q 4056 1763 4056 1313 
Q 4056 619 3595 264 
Q 3134 -91 2228 -91 
Q 1319 -91 855 264 
Q 391 619 391 1313 
Q 391 1763 633 2058 
Q 875 2353 1350 2484 
z
M 1631 3419 
Q 1631 3141 1786 2991 
Q 1941 2841 2228 2841 
Q 2509 2841 2662 2991 
Q 2816 3141 2816 3419 
Q 2816 3697 2662 3845 
Q 2509 3994 2228 3994 
Q 1941 3994 1786 3844 
Q 1631 3694 1631 3419 
z
" transform="scale(0.015625)"/>
     </defs>
     <use xlink:href="#DejaVuSans-Bold-3c0"/>
     <use xlink:href="#DejaVuSans-Bold-20" x="79.101562"/>
     <use xlink:href="#DejaVuSans-Bold-2248" x="113.916016"/>
     <use xlink:href="#DejaVuSans-Bold-20" x="197.705078"/>
     <use xlink:href="#DejaVuSans-Bold-39" x="232.519531"/>
     <use xlink:href="#DejaVuSans-Bold-34" x="302.099609"/>
     <use xlink:href="#DejaVuSans-Bold-31" x="371.679688"/>
     <use xlink:href="#DejaVuSans-Bold-2e" x="441.259766"/>
     <use xlink:href="#DejaVuSans-Bold-38" x="479.248047"/>
     <use xlink:href="#DejaVuSans-Bold-32" x="548.828125"/>
     <use xlink:href="#DejaVuSans-Bold-34" x="618.408203"/>
    </g>
   </g>
  </g>
 </g>
 <defs>
  <clipPath id="pa70029a80b">
   <rect x="48.25005" y="50.677969" width="613.8" height="388.08"/>
  </clipPath>
 </defs>
</svg>
