<?xml version="1.0" encoding="utf-8" standalone="no"?>
<!DOCTYPE svg PUBLIC "-//W3C//DTD SVG 1.1//EN"
  "http://www.w3.org/Graphics/SVG/1.1/DTD/svg11.dtd">
<svg xmlns:xlink="http://www.w3.org/1999/xlink" width="922.471469pt" height="479.781844pt" viewBox="0 0 922.471469 479.781844" xmlns="http://www.w3.org/2000/svg" version="1.1">
 <metadata>
  <rdf:RDF xmlns:dc="http://purl.org/dc/elements/1.1/" xmlns:cc="http://creativecommons.org/ns#" xmlns:rdf="http://www.w3.org/1999/02/22-rdf-syntax-ns#">
   <cc:Work>
    <dc:type rdf:resource="http://purl.org/dc/dcmitype/StillImage"/>
    <dc:date>2026-04-28T17:41:34.541033</dc:date>
    <dc:format>image/svg+xml</dc:format>
    <dc:creator>
     <cc:Agent>
      <dc:title>Matplotlib v3.9.2, https://matplotlib.org/</dc:title>
     </cc:Agent>
    </dc:creator>
   </cc:Work>
  </rdf:RDF>
 </metadata>
 <defs>
  <style type="text/css">*{stroke-linejoin: round; stroke-linecap: butt}</style>
 </defs>
 <g id="figure_1">
  <g id="patch_1">
   <path d="M 0 479.781844 
L 922.471469 479.781844 
L 922.471469 0 
L 0 0 
z
" style="fill: #ffffff"/>
  </g>
  <g id="axes_1">
   <g id="patch_2">
    <path d="M 85.18375 439.277969 
L 698.98375 439.277969 
L 698.98375 51.197969 
L 85.18375 51.197969 
z
" style="fill: #ffffff"/>
   </g>
   <g id="matplotlib.axis_1">
    <g id="xtick_1">
     <g id="line2d_1">
      <path d="M 102.23375 439.277969 
L 102.23375 51.197969 
" clip-path="url(#pe705e20f87)" style="fill: none; stroke-dasharray: 0.8,1.32; stroke-dashoffset: 0; stroke: #b0b0b0; stroke-opacity: 0.4; stroke-width: 0.8"/>
     </g>
     <g id="line2d_2">
      <defs>
       <path id="mc8b3a06d07" d="M 0 0 
L 0 -4 
" style="stroke: #000000"/>
      </defs>
      <g>
       <use xlink:href="#mc8b3a06d07" x="102.23375" y="428.189969" style="stroke: #000000"/>
      </g>
     </g>
     <g id="text_1">
      <!-- 0 -->
      <g transform="translate(99.0525 439.288406) scale(0.1 -0.1)">
       <defs>
        <path id="DejaVuSans-30" d="M 2034 4250 
Q 1547 4250 1301 3770 
Q 1056 3291 1056 2328 
Q 1056 1369 1301 889 
Q 1547 409 2034 409 
Q 2525 409 2770 889 
Q 3016 1369 3016 2328 
Q 3016 3291 2770 3770 
Q 2525 4250 2034 4250 
z
M 2034 4750 
Q 2819 4750 3233 4129 
Q 3647 3509 3647 2328 
Q 3647 1150 3233 529 
Q 2819 -91 2034 -91 
Q 1250 -91 836 529 
Q 422 1150 422 2328 
Q 422 3509 836 4129 
Q 1250 4750 2034 4750 
z
" transform="scale(0.015625)"/>
       </defs>
       <use xlink:href="#DejaVuSans-30"/>
      </g>
     </g>
    </g>
    <g id="xtick_2">
     <g id="line2d_3">
      <path d="M 187.48375 439.277969 
L 187.48375 51.197969 
" clip-path="url(#pe705e20f87)" style="fill: none; stroke-dasharray: 0.8,1.32; stroke-dashoffset: 0; stroke: #b0b0b0; stroke-opacity: 0.4; stroke-width: 0.8"/>
     </g>
     <g id="line2d_4">
      <g>
       <use xlink:href="#mc8b3a06d07" x="187.48375" y="428.189969" style="stroke: #000000"/>
      </g>
     </g>
     <g id="text_2">
      <!-- 2 -->
      <g transform="translate(184.3025 439.288406) scale(0.1 -0.1)">
       <defs>
        <path id="DejaVuSans-32" d="M 1228 531 
L 3431 531 
L 3431 0 
L 469 0 
L 469 531 
Q 828 903 1448 1529 
Q 2069 2156 2228 2338 
Q 2531 2678 2651 2914 
Q 2772 3150 2772 3378 
Q 2772 3750 2511 3984 
Q 2250 4219 1831 4219 
Q 1534 4219 1204 4116 
Q 875 4013 500 3803 
L 500 4441 
Q 881 4594 1212 4672 
Q 1544 4750 1819 4750 
Q 2544 4750 2975 4387 
Q 3406 4025 3406 3419 
Q 3406 3131 3298 2873 
Q 3191 2616 2906 2266 
Q 2828 2175 2409 1742 
Q 1991 1309 1228 531 
z
" transform="scale(0.015625)"/>
       </defs>
       <use xlink:href="#DejaVuSans-32"/>
      </g>
     </g>
    </g>
    <g id="xtick_3">
     <g id="line2d_5">
      <path d="M 272.73375 439.277969 
L 272.73375 51.197969 
" clip-path="url(#pe705e20f87)" style="fill: none; stroke-dasharray: 0.8,1.32; stroke-dashoffset: 0; stroke: #b0b0b0; stroke-opacity: 0.4; stroke-width: 0.8"/>
     </g>
     <g id="line2d_6">
      <g>
       <use xlink:href="#mc8b3a06d07" x="272.73375" y="428.189969" style="stroke: #000000"/>
      </g>
     </g>
     <g id="text_3">
      <!-- 4 -->
      <g transform="translate(269.5525 439.288406) scale(0.1 -0.1)">
       <defs>
        <path id="DejaVuSans-34" d="M 2419 4116 
L 825 1625 
L 2419 1625 
L 2419 4116 
z
M 2253 4666 
L 3047 4666 
L 3047 1625 
L 3713 1625 
L 3713 1100 
L 3047 1100 
L 3047 0 
L 2419 0 
L 2419 1100 
L 313 1100 
L 313 1709 
L 2253 4666 
z
" transform="scale(0.015625)"/>
       </defs>
       <use xlink:href="#DejaVuSans-34"/>
      </g>
     </g>
    </g>
    <g id="xtick_4">
     <g id="line2d_7">
      <path d="M 357.98375 439.277969 
L 357.98375 51.197969 
" clip-path="url(#pe705e20f87)" style="fill: none; stroke-dasharray: 0.8,1.32; stroke-dashoffset: 0; stroke: #b0b0b0; stroke-opacity: 0.4; stroke-width: 0.8"/>
     </g>
     <g id="line2d_8">
      <g>
       <use xlink:href="#mc8b3a06d07" x="357.98375" y="428.189969" style="stroke: #000000"/>
      </g>
     </g>
     <g id="text_4">
      <!-- 6 -->
      <g transform="translate(354.8025 439.288406) scale(0.1 -0.1)">
       <defs>
        <path id="DejaVuSans-36" d="M 2113 2584 
Q 1688 2584 1439 2293 
Q 1191 2003 1191 1497 
Q 1191 994 1439 701 
Q 1688 409 2113 409 
Q 2538 409 2786 701 
Q 3034 994 3034 1497 
Q 3034 2003 2786 2293 
Q 2538 2584 2113 2584 
z
M 3366 4563 
L 3366 3988 
Q 3128 4100 2886 4159 
Q 2644 4219 2406 4219 
Q 1781 4219 1451 3797 
Q 1122 3375 1075 2522 
Q 1259 2794 1537 2939 
Q 1816 3084 2150 3084 
Q 2853 3084 3261 2657 
Q 3669 2231 3669 1497 
Q 3669 778 3244 343 
Q 2819 -91 2113 -91 
Q 1303 -91 875 529 
Q 447 1150 447 2328 
Q 447 3434 972 4092 
Q 1497 4750 2381 4750 
Q 2619 4750 2861 4703 
Q 3103 4656 3366 4563 
z
" transform="scale(0.015625)"/>
       </defs>
       <use xlink:href="#DejaVuSans-36"/>
      </g>
     </g>
    </g>
    <g id="xtick_5">
     <g id="line2d_9">
      <path d="M 443.23375 439.277969 
L 443.23375 51.197969 
" clip-path="url(#pe705e20f87)" style="fill: none; stroke-dasharray: 0.8,1.32; stroke-dashoffset: 0; stroke: #b0b0b0; stroke-opacity: 0.4; stroke-width: 0.8"/>
     </g>
     <g id="line2d_10">
      <g>
       <use xlink:href="#mc8b3a06d07" x="443.23375" y="428.189969" style="stroke: #000000"/>
      </g>
     </g>
     <g id="text_5">
      <!-- 8 -->
      <g transform="translate(440.0525 439.288406) scale(0.1 -0.1)">
       <defs>
        <path id="DejaVuSans-38" d="M 2034 2216 
Q 1584 2216 1326 1975 
Q 1069 1734 1069 1313 
Q 1069 891 1326 650 
Q 1584 409 2034 409 
Q 2484 409 2743 651 
Q 3003 894 3003 1313 
Q 3003 1734 2745 1975 
Q 2488 2216 2034 2216 
z
M 1403 2484 
Q 997 2584 770 2862 
Q 544 3141 544 3541 
Q 544 4100 942 4425 
Q 1341 4750 2034 4750 
Q 2731 4750 3128 4425 
Q 3525 4100 3525 3541 
Q 3525 3141 3298 2862 
Q 3072 2584 2669 2484 
Q 3125 2378 3379 2068 
Q 3634 1759 3634 1313 
Q 3634 634 3220 271 
Q 2806 -91 2034 -91 
Q 1263 -91 848 271 
Q 434 634 434 1313 
Q 434 1759 690 2068 
Q 947 2378 1403 2484 
z
M 1172 3481 
Q 1172 3119 1398 2916 
Q 1625 2713 2034 2713 
Q 2441 2713 2670 2916 
Q 2900 3119 2900 3481 
Q 2900 3844 2670 4047 
Q 2441 4250 2034 4250 
Q 1625 4250 1398 4047 
Q 1172 3844 1172 3481 
z
" transform="scale(0.015625)"/>
       </defs>
       <use xlink:href="#DejaVuSans-38"/>
      </g>
     </g>
    </g>
    <g id="xtick_6">
     <g id="line2d_11">
      <path d="M 528.48375 439.277969 
L 528.48375 51.197969 
" clip-path="url(#pe705e20f87)" style="fill: none; stroke-dasharray: 0.8,1.32; stroke-dashoffset: 0; stroke: #b0b0b0; stroke-opacity: 0.4; stroke-width: 0.8"/>
     </g>
     <g id="line2d_12">
      <g>
       <use xlink:href="#mc8b3a06d07" x="528.48375" y="428.189969" style="stroke: #000000"/>
      </g>
     </g>
     <g id="text_6">
      <!-- 10 -->
      <g transform="translate(522.12125 439.288406) scale(0.1 -0.1)">
       <defs>
        <path id="DejaVuSans-31" d="M 794 531 
L 1825 531 
L 1825 4091 
L 703 3866 
L 703 4441 
L 1819 4666 
L 2450 4666 
L 2450 531 
L 3481 531 
L 3481 0 
L 794 0 
L 794 531 
z
" transform="scale(0.015625)"/>
       </defs>
       <use xlink:href="#DejaVuSans-31"/>
       <use xlink:href="#DejaVuSans-30" x="63.623047"/>
      </g>
     </g>
    </g>
    <g id="xtick_7">
     <g id="line2d_13">
      <path d="M 613.73375 439.277969 
L 613.73375 51.197969 
" clip-path="url(#pe705e20f87)" style="fill: none; stroke-dasharray: 0.8,1.32; stroke-dashoffset: 0; stroke: #b0b0b0; stroke-opacity: 0.4; stroke-width: 0.8"/>
     </g>
     <g id="line2d_14">
      <g>
       <use xlink:href="#mc8b3a06d07" x="613.73375" y="428.189969" style="stroke: #000000"/>
      </g>
     </g>
     <g id="text_7">
      <!-- 12 -->
      <g transform="translate(607.37125 439.288406) scale(0.1 -0.1)">
       <use xlink:href="#DejaVuSans-31"/>
       <use xlink:href="#DejaVuSans-32" x="63.623047"/>
      </g>
     </g>
    </g>
    <g id="xtick_8">
     <g id="line2d_15">
      <path d="M 698.98375 439.277969 
L 698.98375 51.197969 
" clip-path="url(#pe705e20f87)" style="fill: none; stroke-dasharray: 0.8,1.32; stroke-dashoffset: 0; stroke: #b0b0b0; stroke-opacity: 0.4; stroke-width: 0.8"/>
     </g>
     <g id="line2d_16">
      <g>
       <use xlink:href="#mc8b3a06d07" x="698.98375" y="428.189969" style="stroke: #000000"/>
      </g>
     </g>
     <g id="text_8">
      <!-- 14 -->
      <g transform="translate(692.62125 439.288406) scale(0.1 -0.1)">
       <use xlink:href="#DejaVuSans-31"/>
       <use xlink:href="#DejaVuSans-34" x="63.623047"/>
      </g>
     </g>
    </g>
    <g id="text_9">
     <!-- q -->
     <g transform="translate(690.394375 448.486219) scale(0.12 -0.12)">
      <defs>
       <path id="DejaVuSans-Bold-71" d="M 2181 2772 
Q 1825 2772 1636 2509 
Q 1447 2247 1447 1747 
Q 1447 1247 1636 984 
Q 1825 722 2181 722 
Q 2541 722 2730 984 
Q 2919 1247 2919 1747 
Q 2919 2247 2730 2509 
Q 2541 2772 2181 2772 
z
M 2919 506 
Q 2688 197 2409 53 
Q 2131 -91 1766 -91 
Q 1119 -91 703 423 
Q 288 938 288 1747 
Q 288 2556 703 3067 
Q 1119 3578 1766 3578 
Q 2131 3578 2409 3434 
Q 2688 3291 2919 2981 
L 2919 3500 
L 4044 3500 
L 4044 -1331 
L 2919 -1331 
L 2919 506 
z
" transform="scale(0.015625)"/>
      </defs>
      <use xlink:href="#DejaVuSans-Bold-71"/>
     </g>
    </g>
   </g>
   <g id="matplotlib.axis_2">
    <g id="ytick_1">
     <g id="line2d_17">
      <path d="M 85.18375 428.189969 
L 698.98375 428.189969 
" clip-path="url(#pe705e20f87)" style="fill: none; stroke-dasharray: 0.8,1.32; stroke-dashoffset: 0; stroke: #b0b0b0; stroke-opacity: 0.4; stroke-width: 0.8"/>
     </g>
     <g id="line2d_18">
      <defs>
       <path id="ma841383d09" d="M 0 0 
L 4 0 
" style="stroke: #000000"/>
      </defs>
      <g>
       <use xlink:href="#ma841383d09" x="102.23375" y="428.189969" style="stroke: #000000"/>
      </g>
     </g>
     <g id="text_10">
      <!-- 0 -->
      <g transform="translate(92.37125 431.989188) scale(0.1 -0.1)">
       <use xlink:href="#DejaVuSans-30"/>
      </g>
     </g>
    </g>
    <g id="ytick_2">
     <g id="line2d_19">
      <path d="M 85.18375 383.837969 
L 698.98375 383.837969 
" clip-path="url(#pe705e20f87)" style="fill: none; stroke-dasharray: 0.8,1.32; stroke-dashoffset: 0; stroke: #b0b0b0; stroke-opacity: 0.4; stroke-width: 0.8"/>
     </g>
     <g id="line2d_20">
      <g>
       <use xlink:href="#ma841383d09" x="102.23375" y="383.837969" style="stroke: #000000"/>
      </g>
     </g>
     <g id="text_11">
      <!-- 2 -->
      <g transform="translate(92.37125 387.637187) scale(0.1 -0.1)">
       <use xlink:href="#DejaVuSans-32"/>
      </g>
     </g>
    </g>
    <g id="ytick_3">
     <g id="line2d_21">
      <path d="M 85.18375 339.485969 
L 698.98375 339.485969 
" clip-path="url(#pe705e20f87)" style="fill: none; stroke-dasharray: 0.8,1.32; stroke-dashoffset: 0; stroke: #b0b0b0; stroke-opacity: 0.4; stroke-width: 0.8"/>
     </g>
     <g id="line2d_22">
      <g>
       <use xlink:href="#ma841383d09" x="102.23375" y="339.485969" style="stroke: #000000"/>
      </g>
     </g>
     <g id="text_12">
      <!-- 4 -->
      <g transform="translate(92.37125 343.285188) scale(0.1 -0.1)">
       <use xlink:href="#DejaVuSans-34"/>
      </g>
     </g>
    </g>
    <g id="ytick_4">
     <g id="line2d_23">
      <path d="M 85.18375 295.133969 
L 698.98375 295.133969 
" clip-path="url(#pe705e20f87)" style="fill: none; stroke-dasharray: 0.8,1.32; stroke-dashoffset: 0; stroke: #b0b0b0; stroke-opacity: 0.4; stroke-width: 0.8"/>
     </g>
     <g id="line2d_24">
      <g>
       <use xlink:href="#ma841383d09" x="102.23375" y="295.133969" style="stroke: #000000"/>
      </g>
     </g>
     <g id="text_13">
      <!-- 6 -->
      <g transform="translate(92.37125 298.933188) scale(0.1 -0.1)">
       <use xlink:href="#DejaVuSans-36"/>
      </g>
     </g>
    </g>
    <g id="ytick_5">
     <g id="line2d_25">
      <path d="M 85.18375 250.781969 
L 698.98375 250.781969 
" clip-path="url(#pe705e20f87)" style="fill: none; stroke-dasharray: 0.8,1.32; stroke-dashoffset: 0; stroke: #b0b0b0; stroke-opacity: 0.4; stroke-width: 0.8"/>
     </g>
     <g id="line2d_26">
      <g>
       <use xlink:href="#ma841383d09" x="102.23375" y="250.781969" style="stroke: #000000"/>
      </g>
     </g>
     <g id="text_14">
      <!-- 8 -->
      <g transform="translate(92.37125 254.581187) scale(0.1 -0.1)">
       <use xlink:href="#DejaVuSans-38"/>
      </g>
     </g>
    </g>
    <g id="ytick_6">
     <g id="line2d_27">
      <path d="M 85.18375 206.429969 
L 698.98375 206.429969 
" clip-path="url(#pe705e20f87)" style="fill: none; stroke-dasharray: 0.8,1.32; stroke-dashoffset: 0; stroke: #b0b0b0; stroke-opacity: 0.4; stroke-width: 0.8"/>
     </g>
     <g id="line2d_28">
      <g>
       <use xlink:href="#ma841383d09" x="102.23375" y="206.429969" style="stroke: #000000"/>
      </g>
     </g>
     <g id="text_15">
      <!-- 10 -->
      <g transform="translate(86.00875 210.229188) scale(0.1 -0.1)">
       <use xlink:href="#DejaVuSans-31"/>
       <use xlink:href="#DejaVuSans-30" x="63.623047"/>
      </g>
     </g>
    </g>
    <g id="ytick_7">
     <g id="line2d_29">
      <path d="M 85.18375 162.077969 
L 698.98375 162.077969 
" clip-path="url(#pe705e20f87)" style="fill: none; stroke-dasharray: 0.8,1.32; stroke-dashoffset: 0; stroke: #b0b0b0; stroke-opacity: 0.4; stroke-width: 0.8"/>
     </g>
     <g id="line2d_30">
      <g>
       <use xlink:href="#ma841383d09" x="102.23375" y="162.077969" style="stroke: #000000"/>
      </g>
     </g>
     <g id="text_16">
      <!-- 12 -->
      <g transform="translate(86.00875 165.877188) scale(0.1 -0.1)">
       <use xlink:href="#DejaVuSans-31"/>
       <use xlink:href="#DejaVuSans-32" x="63.623047"/>
      </g>
     </g>
    </g>
    <g id="ytick_8">
     <g id="line2d_31">
      <path d="M 85.18375 117.725969 
L 698.98375 117.725969 
" clip-path="url(#pe705e20f87)" style="fill: none; stroke-dasharray: 0.8,1.32; stroke-dashoffset: 0; stroke: #b0b0b0; stroke-opacity: 0.4; stroke-width: 0.8"/>
     </g>
     <g id="line2d_32">
      <g>
       <use xlink:href="#ma841383d09" x="102.23375" y="117.725969" style="stroke: #000000"/>
      </g>
     </g>
     <g id="text_17">
      <!-- 14 -->
      <g transform="translate(86.00875 121.525188) scale(0.1 -0.1)">
       <use xlink:href="#DejaVuSans-31"/>
       <use xlink:href="#DejaVuSans-34" x="63.623047"/>
      </g>
     </g>
    </g>
    <g id="ytick_9">
     <g id="line2d_33">
      <path d="M 85.18375 73.373969 
L 698.98375 73.373969 
" clip-path="url(#pe705e20f87)" style="fill: none; stroke-dasharray: 0.8,1.32; stroke-dashoffset: 0; stroke: #b0b0b0; stroke-opacity: 0.4; stroke-width: 0.8"/>
     </g>
     <g id="line2d_34">
      <g>
       <use xlink:href="#ma841383d09" x="102.23375" y="73.373969" style="stroke: #000000"/>
      </g>
     </g>
     <g id="text_18">
      <!-- 16 -->
      <g transform="translate(86.00875 77.173188) scale(0.1 -0.1)">
       <use xlink:href="#DejaVuSans-31"/>
       <use xlink:href="#DejaVuSans-36" x="63.623047"/>
      </g>
     </g>
    </g>
    <g id="text_19">
     <!-- $/unidad -->
     <g transform="translate(28.8 48.702344) scale(0.12 -0.12)">
      <defs>
       <path id="DejaVuSans-Bold-24" d="M 2484 -941 
L 1978 -941 
L 1975 0 
Q 1584 16 1218 87 
Q 853 159 506 288 
L 506 1106 
Q 866 922 1233 823 
Q 1600 725 1978 713 
L 1978 1684 
L 1875 1703 
Q 1128 1834 814 2115 
Q 500 2397 500 2925 
Q 500 3484 883 3798 
Q 1266 4113 1975 4141 
L 1978 4863 
L 2484 4863 
L 2484 4153 
Q 2797 4128 3109 4075 
Q 3422 4022 3738 3938 
L 3738 3144 
Q 3425 3275 3112 3348 
Q 2800 3422 2484 3438 
L 2484 2541 
L 2584 2522 
Q 3378 2397 3698 2105 
Q 4019 1813 4019 1241 
Q 4019 666 3637 358 
Q 3256 50 2484 6 
L 2484 -941 
z
M 1978 2613 
L 1978 3428 
Q 1756 3416 1623 3308 
Q 1491 3200 1491 3034 
Q 1491 2850 1612 2745 
Q 1734 2641 1978 2613 
z
M 2484 1594 
L 2484 725 
Q 2756 728 2892 831 
Q 3028 934 3028 1141 
Q 3028 1353 2903 1458 
Q 2778 1563 2484 1594 
z
" transform="scale(0.015625)"/>
       <path id="DejaVuSans-Bold-2f" d="M 1644 4666 
L 2338 4666 
L 691 -594 
L 0 -594 
L 1644 4666 
z
" transform="scale(0.015625)"/>
       <path id="DejaVuSans-Bold-75" d="M 500 1363 
L 500 3500 
L 1625 3500 
L 1625 3150 
Q 1625 2866 1622 2436 
Q 1619 2006 1619 1863 
Q 1619 1441 1641 1255 
Q 1663 1069 1716 984 
Q 1784 875 1895 815 
Q 2006 756 2150 756 
Q 2500 756 2700 1025 
Q 2900 1294 2900 1772 
L 2900 3500 
L 4019 3500 
L 4019 0 
L 2900 0 
L 2900 506 
Q 2647 200 2364 54 
Q 2081 -91 1741 -91 
Q 1134 -91 817 281 
Q 500 653 500 1363 
z
" transform="scale(0.015625)"/>
       <path id="DejaVuSans-Bold-6e" d="M 4056 2131 
L 4056 0 
L 2931 0 
L 2931 347 
L 2931 1631 
Q 2931 2084 2911 2256 
Q 2891 2428 2841 2509 
Q 2775 2619 2662 2680 
Q 2550 2741 2406 2741 
Q 2056 2741 1856 2470 
Q 1656 2200 1656 1722 
L 1656 0 
L 538 0 
L 538 3500 
L 1656 3500 
L 1656 2988 
Q 1909 3294 2193 3439 
Q 2478 3584 2822 3584 
Q 3428 3584 3742 3212 
Q 4056 2841 4056 2131 
z
" transform="scale(0.015625)"/>
       <path id="DejaVuSans-Bold-69" d="M 538 3500 
L 1656 3500 
L 1656 0 
L 538 0 
L 538 3500 
z
M 538 4863 
L 1656 4863 
L 1656 3950 
L 538 3950 
L 538 4863 
z
" transform="scale(0.015625)"/>
       <path id="DejaVuSans-Bold-64" d="M 2919 2988 
L 2919 4863 
L 4044 4863 
L 4044 0 
L 2919 0 
L 2919 506 
Q 2688 197 2409 53 
Q 2131 -91 1766 -91 
Q 1119 -91 703 423 
Q 288 938 288 1747 
Q 288 2556 703 3070 
Q 1119 3584 1766 3584 
Q 2128 3584 2408 3439 
Q 2688 3294 2919 2988 
z
M 2181 722 
Q 2541 722 2730 984 
Q 2919 1247 2919 1747 
Q 2919 2247 2730 2509 
Q 2541 2772 2181 2772 
Q 1825 2772 1636 2509 
Q 1447 2247 1447 1747 
Q 1447 1247 1636 984 
Q 1825 722 2181 722 
z
" transform="scale(0.015625)"/>
       <path id="DejaVuSans-Bold-61" d="M 2106 1575 
Q 1756 1575 1579 1456 
Q 1403 1338 1403 1106 
Q 1403 894 1545 773 
Q 1688 653 1941 653 
Q 2256 653 2472 879 
Q 2688 1106 2688 1447 
L 2688 1575 
L 2106 1575 
z
M 3816 1997 
L 3816 0 
L 2688 0 
L 2688 519 
Q 2463 200 2181 54 
Q 1900 -91 1497 -91 
Q 953 -91 614 226 
Q 275 544 275 1050 
Q 275 1666 698 1953 
Q 1122 2241 2028 2241 
L 2688 2241 
L 2688 2328 
Q 2688 2594 2478 2717 
Q 2269 2841 1825 2841 
Q 1466 2841 1156 2769 
Q 847 2697 581 2553 
L 581 3406 
Q 941 3494 1303 3539 
Q 1666 3584 2028 3584 
Q 2975 3584 3395 3211 
Q 3816 2838 3816 1997 
z
" transform="scale(0.015625)"/>
      </defs>
      <use xlink:href="#DejaVuSans-Bold-24"/>
      <use xlink:href="#DejaVuSans-Bold-2f" x="69.580078"/>
      <use xlink:href="#DejaVuSans-Bold-75" x="106.103516"/>
      <use xlink:href="#DejaVuSans-Bold-6e" x="177.294922"/>
      <use xlink:href="#DejaVuSans-Bold-69" x="248.486328"/>
      <use xlink:href="#DejaVuSans-Bold-64" x="282.763672"/>
      <use xlink:href="#DejaVuSans-Bold-61" x="354.345703"/>
      <use xlink:href="#DejaVuSans-Bold-64" x="421.826172"/>
     </g>
    </g>
   </g>
   <g id="line2d_35">
    <path d="M 115.02125 269.942033 
L 121.935339 279.636666 
L 128.849427 288.864518 
L 134.380698 295.910715 
L 139.911969 302.658173 
L 145.44324 309.106889 
L 150.974511 315.256865 
L 156.505782 321.108101 
L 162.037053 326.660595 
L 167.568324 331.914349 
L 173.099594 336.869363 
L 178.630865 341.525636 
L 184.162136 345.883168 
L 189.693407 349.94196 
L 195.224678 353.702011 
L 200.755949 357.163321 
L 206.28722 360.325891 
L 211.818491 363.18972 
L 217.349762 365.754809 
L 222.881033 368.021157 
L 228.412304 369.988764 
L 233.943574 371.657631 
L 239.474845 373.027757 
L 245.006116 374.099142 
L 250.537387 374.871787 
L 254.68584 375.255222 
L 258.834293 375.470616 
L 262.982747 375.517968 
L 267.1312 375.397278 
L 271.279653 375.108547 
L 275.428106 374.651774 
L 280.959377 373.781346 
L 286.490648 372.612176 
L 292.021919 371.144267 
L 297.55319 369.377616 
L 303.084461 367.312225 
L 308.615732 364.948094 
L 314.147003 362.285221 
L 319.678273 359.323609 
L 325.209544 356.063255 
L 330.740815 352.504161 
L 336.272086 348.646326 
L 341.803357 344.489751 
L 347.334628 340.034435 
L 352.865899 335.280379 
L 358.39717 330.227581 
L 363.928441 324.876044 
L 369.459712 319.225765 
L 374.990982 313.276746 
L 380.522253 307.028987 
L 386.053524 300.482486 
L 391.584795 293.637245 
L 397.116066 286.493264 
L 402.647337 279.050542 
L 409.561426 269.327035 
L 416.475514 259.136746 
L 423.389603 248.479675 
L 430.303691 237.355822 
L 437.21778 225.765186 
L 444.131869 213.707769 
L 451.045957 201.183569 
L 457.960046 188.192587 
L 464.874135 174.734822 
L 471.788223 160.810276 
L 478.702312 146.418947 
L 485.616401 131.560836 
L 492.530489 116.235943 
L 499.444578 100.444267 
L 507.741484 80.878104 
L 516.03839 60.639775 
L 524.335297 39.729279 
L 528.48375 29.021969 
L 528.48375 29.021969 
" clip-path="url(#pe705e20f87)" style="fill: none; stroke: #e67e22; stroke-width: 3; stroke-linecap: square"/>
   </g>
   <g id="line2d_36">
    <path d="M 123.449169 -1 
L 124.700974 14.853338 
L 126.083792 30.438277 
L 127.46661 44.411254 
L 128.849427 57.022304 
L 130.232245 68.472069 
L 131.615063 78.923415 
L 134.380698 97.342205 
L 137.146334 113.098847 
L 139.911969 126.772704 
L 142.677605 138.784668 
L 145.44324 149.447874 
L 148.208875 159.000109 
L 150.974511 167.625192 
L 153.740146 175.46746 
L 156.505782 182.641829 
L 159.271417 189.240928 
L 162.037053 195.340251 
L 164.802688 201.001943 
L 167.568324 206.277628 
L 170.333959 211.210543 
L 174.482412 218.045512 
L 178.630865 224.291131 
L 182.779319 230.027643 
L 186.927772 235.31957 
L 191.076225 240.219383 
L 195.224678 244.77019 
L 199.373131 249.007734 
L 203.521584 252.961904 
L 207.670038 256.657882 
L 211.818491 260.11704 
L 217.349762 264.392033 
L 222.881033 268.314529 
L 228.412304 271.914515 
L 233.943574 275.216942 
L 239.474845 278.242738 
L 245.006116 281.009585 
L 250.537387 283.532532 
L 256.068658 285.82446 
L 261.599929 287.896462 
L 267.1312 289.758145 
L 272.662471 291.417866 
L 278.193742 292.882932 
L 283.725013 294.15976 
L 290.639101 295.499642 
L 297.55319 296.563841 
L 304.467278 297.360684 
L 311.381367 297.897397 
L 318.295456 298.180283 
L 325.209544 298.21486 
L 332.123633 298.005984 
L 339.037722 297.557944 
L 345.95181 296.874542 
L 352.865899 295.95916 
L 359.779987 294.814817 
L 366.694076 293.444216 
L 373.608165 291.849786 
L 380.522253 290.033713 
L 387.436342 287.997972 
L 394.350431 285.744351 
L 401.264519 283.27447 
L 408.178608 280.589808 
L 415.092696 277.691708 
L 422.006785 274.581399 
L 428.920874 271.260007 
L 435.834962 267.728562 
L 444.131869 263.214889 
L 452.428775 258.401597 
L 460.725681 253.290044 
L 469.022588 247.881465 
L 477.319494 242.176984 
L 485.616401 236.17763 
L 493.913307 229.884343 
L 502.210213 223.297987 
L 510.50712 216.419353 
L 518.804026 209.249171 
L 527.100932 201.788114 
L 528.48375 200.516369 
L 528.48375 200.516369 
" clip-path="url(#pe705e20f87)" style="fill: none; stroke: #16a085; stroke-width: 3; stroke-linecap: square"/>
   </g>
   <g id="line2d_37">
    <path d="M 115.02125 260.428529 
L 123.318156 266.33164 
L 131.615063 271.954681 
L 139.911969 277.297653 
L 148.208875 282.360556 
L 156.505782 287.143389 
L 164.802688 291.646153 
L 173.099594 295.868848 
L 181.396501 299.811474 
L 189.693407 303.47403 
L 197.990314 306.856516 
L 206.28722 309.958934 
L 214.584126 312.781282 
L 221.498215 314.919297 
L 228.412304 316.862819 
L 235.326392 318.611849 
L 242.240481 320.166386 
L 249.154569 321.526431 
L 256.068658 322.691983 
L 262.982747 323.663042 
L 269.896835 324.439609 
L 276.810924 325.021683 
L 283.725013 325.409265 
L 290.639101 325.602354 
L 297.55319 325.60095 
L 304.467278 325.405054 
L 311.381367 325.014665 
L 318.295456 324.429784 
L 325.209544 323.65041 
L 332.123633 322.676544 
L 339.037722 321.508185 
L 345.95181 320.145333 
L 352.865899 318.587989 
L 359.779987 316.836152 
L 366.694076 314.889822 
L 373.608165 312.749 
L 381.905071 309.923284 
L 390.201977 306.817498 
L 398.498884 303.431642 
L 406.79579 299.765718 
L 415.092696 295.819724 
L 423.389603 291.59366 
L 431.686509 287.087528 
L 439.983416 282.301326 
L 448.280322 277.235054 
L 456.577228 271.888714 
L 464.874135 266.262304 
L 473.171041 260.355825 
L 481.467947 254.169276 
L 489.764854 247.702658 
L 498.06176 240.955971 
L 506.358666 233.929214 
L 514.655573 226.622388 
L 522.952479 219.035493 
L 528.48375 213.821969 
L 528.48375 213.821969 
" clip-path="url(#pe705e20f87)" style="fill: none; stroke: #8e44ad; stroke-width: 2.5; stroke-linecap: square"/>
   </g>
   <g id="line2d_38">
    <path d="M 85.18375 217.517969 
L 698.98375 217.517969 
" clip-path="url(#pe705e20f87)" style="fill: none; stroke: #27ae60; stroke-width: 2.5; stroke-linecap: square"/>
   </g>
   <g id="line2d_39">
    <path d="M 85.18375 328.397969 
L 698.98375 328.397969 
" clip-path="url(#pe705e20f87)" style="fill: none; stroke-dasharray: 9.25,4; stroke-dashoffset: 0; stroke: #f39c12; stroke-width: 2.5"/>
   </g>
   <g id="line2d_40">
    <path d="M 85.18375 383.837969 
L 698.98375 383.837969 
" clip-path="url(#pe705e20f87)" style="fill: none; stroke-dasharray: 2.5,4.125; stroke-dashoffset: 0; stroke: #c0392b; stroke-width: 2.5"/>
   </g>
   <g id="line2d_41">
    <defs>
     <path id="mdddad2a2e7" d="M 4 0 
L -4 -4 
L -4 4 
z
" style="stroke: #000000; stroke-linejoin: miter"/>
    </defs>
    <g>
     <use xlink:href="#mdddad2a2e7" x="698.98375" y="428.189969" style="stroke: #000000; stroke-linejoin: miter"/>
    </g>
   </g>
   <g id="line2d_42">
    <defs>
     <path id="m13d3a6be9c" d="M 0 -4 
L -4 4 
L 4 4 
z
" style="stroke: #000000; stroke-linejoin: miter"/>
    </defs>
    <g>
     <use xlink:href="#m13d3a6be9c" x="102.23375" y="51.197969" style="stroke: #000000; stroke-linejoin: miter"/>
    </g>
   </g>
   <g id="patch_3">
    <path d="M 102.23375 439.277969 
L 102.23375 51.197969 
" style="fill: none; stroke: #000000; stroke-width: 1.4; stroke-linejoin: miter; stroke-linecap: square"/>
   </g>
   <g id="patch_4">
    <path d="M 85.18375 428.189969 
L 698.98375 428.189969 
" style="fill: none; stroke: #000000; stroke-width: 1.4; stroke-linejoin: miter; stroke-linecap: square"/>
   </g>
   <g id="text_20">
    <!-- Maximización del beneficio en CP — tres zonas según P -->
    <g transform="translate(189.367031 39.197969) scale(0.13 -0.13)">
     <defs>
      <path id="DejaVuSans-Bold-4d" d="M 588 4666 
L 2119 4666 
L 3181 2169 
L 4250 4666 
L 5778 4666 
L 5778 0 
L 4641 0 
L 4641 3413 
L 3566 897 
L 2803 897 
L 1728 3413 
L 1728 0 
L 588 0 
L 588 4666 
z
" transform="scale(0.015625)"/>
      <path id="DejaVuSans-Bold-78" d="M 1422 1791 
L 159 3500 
L 1344 3500 
L 2059 2463 
L 2784 3500 
L 3969 3500 
L 2706 1797 
L 4031 0 
L 2847 0 
L 2059 1106 
L 1281 0 
L 97 0 
L 1422 1791 
z
" transform="scale(0.015625)"/>
      <path id="DejaVuSans-Bold-6d" d="M 3781 2919 
Q 3994 3244 4286 3414 
Q 4578 3584 4928 3584 
Q 5531 3584 5847 3212 
Q 6163 2841 6163 2131 
L 6163 0 
L 5038 0 
L 5038 1825 
Q 5041 1866 5042 1909 
Q 5044 1953 5044 2034 
Q 5044 2406 4934 2573 
Q 4825 2741 4581 2741 
Q 4263 2741 4089 2478 
Q 3916 2216 3909 1719 
L 3909 0 
L 2784 0 
L 2784 1825 
Q 2784 2406 2684 2573 
Q 2584 2741 2328 2741 
Q 2006 2741 1831 2477 
Q 1656 2213 1656 1722 
L 1656 0 
L 531 0 
L 531 3500 
L 1656 3500 
L 1656 2988 
Q 1863 3284 2130 3434 
Q 2397 3584 2719 3584 
Q 3081 3584 3359 3409 
Q 3638 3234 3781 2919 
z
" transform="scale(0.015625)"/>
      <path id="DejaVuSans-Bold-7a" d="M 366 3500 
L 3419 3500 
L 3419 2719 
L 1575 800 
L 3419 800 
L 3419 0 
L 288 0 
L 288 781 
L 2131 2700 
L 366 2700 
L 366 3500 
z
" transform="scale(0.015625)"/>
      <path id="DejaVuSans-Bold-63" d="M 3366 3391 
L 3366 2478 
Q 3138 2634 2908 2709 
Q 2678 2784 2431 2784 
Q 1963 2784 1702 2511 
Q 1441 2238 1441 1747 
Q 1441 1256 1702 982 
Q 1963 709 2431 709 
Q 2694 709 2930 787 
Q 3166 866 3366 1019 
L 3366 103 
Q 3103 6 2833 -42 
Q 2563 -91 2291 -91 
Q 1344 -91 809 395 
Q 275 881 275 1747 
Q 275 2613 809 3098 
Q 1344 3584 2291 3584 
Q 2566 3584 2833 3536 
Q 3100 3488 3366 3391 
z
" transform="scale(0.015625)"/>
      <path id="DejaVuSans-Bold-f3" d="M 2203 2784 
Q 1831 2784 1636 2517 
Q 1441 2250 1441 1747 
Q 1441 1244 1636 976 
Q 1831 709 2203 709 
Q 2569 709 2762 976 
Q 2956 1244 2956 1747 
Q 2956 2250 2762 2517 
Q 2569 2784 2203 2784 
z
M 2203 3584 
Q 3106 3584 3614 3096 
Q 4122 2609 4122 1747 
Q 4122 884 3614 396 
Q 3106 -91 2203 -91 
Q 1297 -91 786 396 
Q 275 884 275 1747 
Q 275 2609 786 3096 
Q 1297 3584 2203 3584 
z
M 2694 5119 
L 3578 5119 
L 2425 3944 
L 1813 3944 
L 2694 5119 
z
" transform="scale(0.015625)"/>
      <path id="DejaVuSans-Bold-20" transform="scale(0.015625)"/>
      <path id="DejaVuSans-Bold-65" d="M 4031 1759 
L 4031 1441 
L 1416 1441 
Q 1456 1047 1700 850 
Q 1944 653 2381 653 
Q 2734 653 3104 758 
Q 3475 863 3866 1075 
L 3866 213 
Q 3469 63 3072 -14 
Q 2675 -91 2278 -91 
Q 1328 -91 801 392 
Q 275 875 275 1747 
Q 275 2603 792 3093 
Q 1309 3584 2216 3584 
Q 3041 3584 3536 3087 
Q 4031 2591 4031 1759 
z
M 2881 2131 
Q 2881 2450 2695 2645 
Q 2509 2841 2209 2841 
Q 1884 2841 1681 2658 
Q 1478 2475 1428 2131 
L 2881 2131 
z
" transform="scale(0.015625)"/>
      <path id="DejaVuSans-Bold-6c" d="M 538 4863 
L 1656 4863 
L 1656 0 
L 538 0 
L 538 4863 
z
" transform="scale(0.015625)"/>
      <path id="DejaVuSans-Bold-62" d="M 2400 722 
Q 2759 722 2948 984 
Q 3138 1247 3138 1747 
Q 3138 2247 2948 2509 
Q 2759 2772 2400 2772 
Q 2041 2772 1848 2508 
Q 1656 2244 1656 1747 
Q 1656 1250 1848 986 
Q 2041 722 2400 722 
z
M 1656 2988 
Q 1888 3294 2169 3439 
Q 2450 3584 2816 3584 
Q 3463 3584 3878 3070 
Q 4294 2556 4294 1747 
Q 4294 938 3878 423 
Q 3463 -91 2816 -91 
Q 2450 -91 2169 54 
Q 1888 200 1656 506 
L 1656 0 
L 538 0 
L 538 4863 
L 1656 4863 
L 1656 2988 
z
" transform="scale(0.015625)"/>
      <path id="DejaVuSans-Bold-66" d="M 2841 4863 
L 2841 4128 
L 2222 4128 
Q 1984 4128 1890 4042 
Q 1797 3956 1797 3744 
L 1797 3500 
L 2753 3500 
L 2753 2700 
L 1797 2700 
L 1797 0 
L 678 0 
L 678 2700 
L 122 2700 
L 122 3500 
L 678 3500 
L 678 3744 
Q 678 4316 997 4589 
Q 1316 4863 1984 4863 
L 2841 4863 
z
" transform="scale(0.015625)"/>
      <path id="DejaVuSans-Bold-6f" d="M 2203 2784 
Q 1831 2784 1636 2517 
Q 1441 2250 1441 1747 
Q 1441 1244 1636 976 
Q 1831 709 2203 709 
Q 2569 709 2762 976 
Q 2956 1244 2956 1747 
Q 2956 2250 2762 2517 
Q 2569 2784 2203 2784 
z
M 2203 3584 
Q 3106 3584 3614 3096 
Q 4122 2609 4122 1747 
Q 4122 884 3614 396 
Q 3106 -91 2203 -91 
Q 1297 -91 786 396 
Q 275 884 275 1747 
Q 275 2609 786 3096 
Q 1297 3584 2203 3584 
z
" transform="scale(0.015625)"/>
      <path id="DejaVuSans-Bold-43" d="M 4288 256 
Q 3956 84 3597 -3 
Q 3238 -91 2847 -91 
Q 1681 -91 1000 561 
Q 319 1213 319 2328 
Q 319 3447 1000 4098 
Q 1681 4750 2847 4750 
Q 3238 4750 3597 4662 
Q 3956 4575 4288 4403 
L 4288 3438 
Q 3953 3666 3628 3772 
Q 3303 3878 2944 3878 
Q 2300 3878 1931 3465 
Q 1563 3053 1563 2328 
Q 1563 1606 1931 1193 
Q 2300 781 2944 781 
Q 3303 781 3628 887 
Q 3953 994 4288 1222 
L 4288 256 
z
" transform="scale(0.015625)"/>
      <path id="DejaVuSans-Bold-50" d="M 588 4666 
L 2584 4666 
Q 3475 4666 3951 4270 
Q 4428 3875 4428 3144 
Q 4428 2409 3951 2014 
Q 3475 1619 2584 1619 
L 1791 1619 
L 1791 0 
L 588 0 
L 588 4666 
z
M 1791 3794 
L 1791 2491 
L 2456 2491 
Q 2806 2491 2997 2661 
Q 3188 2831 3188 3144 
Q 3188 3456 2997 3625 
Q 2806 3794 2456 3794 
L 1791 3794 
z
" transform="scale(0.015625)"/>
      <path id="DejaVuSans-Bold-2014" d="M 344 2156 
L 6056 2156 
L 6056 1350 
L 344 1350 
L 344 2156 
z
" transform="scale(0.015625)"/>
      <path id="DejaVuSans-Bold-74" d="M 1759 4494 
L 1759 3500 
L 2913 3500 
L 2913 2700 
L 1759 2700 
L 1759 1216 
Q 1759 972 1856 886 
Q 1953 800 2241 800 
L 2816 800 
L 2816 0 
L 1856 0 
Q 1194 0 917 276 
Q 641 553 641 1216 
L 641 2700 
L 84 2700 
L 84 3500 
L 641 3500 
L 641 4494 
L 1759 4494 
z
" transform="scale(0.015625)"/>
      <path id="DejaVuSans-Bold-72" d="M 3138 2547 
Q 2991 2616 2845 2648 
Q 2700 2681 2553 2681 
Q 2122 2681 1889 2404 
Q 1656 2128 1656 1613 
L 1656 0 
L 538 0 
L 538 3500 
L 1656 3500 
L 1656 2925 
Q 1872 3269 2151 3426 
Q 2431 3584 2822 3584 
Q 2878 3584 2943 3579 
Q 3009 3575 3134 3559 
L 3138 2547 
z
" transform="scale(0.015625)"/>
      <path id="DejaVuSans-Bold-73" d="M 3272 3391 
L 3272 2541 
Q 2913 2691 2578 2766 
Q 2244 2841 1947 2841 
Q 1628 2841 1473 2761 
Q 1319 2681 1319 2516 
Q 1319 2381 1436 2309 
Q 1553 2238 1856 2203 
L 2053 2175 
Q 2913 2066 3209 1816 
Q 3506 1566 3506 1031 
Q 3506 472 3093 190 
Q 2681 -91 1863 -91 
Q 1516 -91 1145 -36 
Q 775 19 384 128 
L 384 978 
Q 719 816 1070 734 
Q 1422 653 1784 653 
Q 2113 653 2278 743 
Q 2444 834 2444 1013 
Q 2444 1163 2330 1236 
Q 2216 1309 1875 1350 
L 1678 1375 
Q 931 1469 631 1722 
Q 331 1975 331 2491 
Q 331 3047 712 3315 
Q 1094 3584 1881 3584 
Q 2191 3584 2531 3537 
Q 2872 3491 3272 3391 
z
" transform="scale(0.015625)"/>
      <path id="DejaVuSans-Bold-67" d="M 2919 594 
Q 2688 288 2409 144 
Q 2131 0 1766 0 
Q 1125 0 706 504 
Q 288 1009 288 1791 
Q 288 2575 706 3076 
Q 1125 3578 1766 3578 
Q 2131 3578 2409 3434 
Q 2688 3291 2919 2981 
L 2919 3500 
L 4044 3500 
L 4044 353 
Q 4044 -491 3511 -936 
Q 2978 -1381 1966 -1381 
Q 1638 -1381 1331 -1331 
Q 1025 -1281 716 -1178 
L 716 -306 
Q 1009 -475 1290 -558 
Q 1572 -641 1856 -641 
Q 2406 -641 2662 -400 
Q 2919 -159 2919 353 
L 2919 594 
z
M 2181 2772 
Q 1834 2772 1640 2515 
Q 1447 2259 1447 1791 
Q 1447 1309 1634 1061 
Q 1822 813 2181 813 
Q 2531 813 2725 1069 
Q 2919 1325 2919 1791 
Q 2919 2259 2725 2515 
Q 2531 2772 2181 2772 
z
" transform="scale(0.015625)"/>
      <path id="DejaVuSans-Bold-fa" d="M 500 1363 
L 500 3500 
L 1625 3500 
L 1625 3150 
Q 1625 2866 1622 2436 
Q 1619 2006 1619 1863 
Q 1619 1441 1641 1255 
Q 1663 1069 1716 984 
Q 1784 875 1895 815 
Q 2006 756 2150 756 
Q 2500 756 2700 1025 
Q 2900 1294 2900 1772 
L 2900 3500 
L 4019 3500 
L 4019 0 
L 2900 0 
L 2900 506 
Q 2647 200 2364 54 
Q 2081 -91 1741 -91 
Q 1134 -91 817 281 
Q 500 653 500 1363 
z
M 2782 5119 
L 3666 5119 
L 2513 3944 
L 1901 3944 
L 2782 5119 
z
" transform="scale(0.015625)"/>
     </defs>
     <use xlink:href="#DejaVuSans-Bold-4d"/>
     <use xlink:href="#DejaVuSans-Bold-61" x="99.511719"/>
     <use xlink:href="#DejaVuSans-Bold-78" x="166.992188"/>
     <use xlink:href="#DejaVuSans-Bold-69" x="231.494141"/>
     <use xlink:href="#DejaVuSans-Bold-6d" x="265.771484"/>
     <use xlink:href="#DejaVuSans-Bold-69" x="369.970703"/>
     <use xlink:href="#DejaVuSans-Bold-7a" x="404.248047"/>
     <use xlink:href="#DejaVuSans-Bold-61" x="462.451172"/>
     <use xlink:href="#DejaVuSans-Bold-63" x="529.931641"/>
     <use xlink:href="#DejaVuSans-Bold-69" x="589.208984"/>
     <use xlink:href="#DejaVuSans-Bold-f3" x="623.486328"/>
     <use xlink:href="#DejaVuSans-Bold-6e" x="692.1875"/>
     <use xlink:href="#DejaVuSans-Bold-20" x="763.378906"/>
     <use xlink:href="#DejaVuSans-Bold-64" x="798.193359"/>
     <use xlink:href="#DejaVuSans-Bold-65" x="869.775391"/>
     <use xlink:href="#DejaVuSans-Bold-6c" x="937.597656"/>
     <use xlink:href="#DejaVuSans-Bold-20" x="971.875"/>
     <use xlink:href="#DejaVuSans-Bold-62" x="1006.689453"/>
     <use xlink:href="#DejaVuSans-Bold-65" x="1078.271484"/>
     <use xlink:href="#DejaVuSans-Bold-6e" x="1146.09375"/>
     <use xlink:href="#DejaVuSans-Bold-65" x="1217.285156"/>
     <use xlink:href="#DejaVuSans-Bold-66" x="1285.107422"/>
     <use xlink:href="#DejaVuSans-Bold-69" x="1328.613281"/>
     <use xlink:href="#DejaVuSans-Bold-63" x="1362.890625"/>
     <use xlink:href="#DejaVuSans-Bold-69" x="1422.167969"/>
     <use xlink:href="#DejaVuSans-Bold-6f" x="1456.445312"/>
     <use xlink:href="#DejaVuSans-Bold-20" x="1525.146484"/>
     <use xlink:href="#DejaVuSans-Bold-65" x="1559.960938"/>
     <use xlink:href="#DejaVuSans-Bold-6e" x="1627.783203"/>
     <use xlink:href="#DejaVuSans-Bold-20" x="1698.974609"/>
     <use xlink:href="#DejaVuSans-Bold-43" x="1733.789062"/>
     <use xlink:href="#DejaVuSans-Bold-50" x="1807.177734"/>
     <use xlink:href="#DejaVuSans-Bold-20" x="1880.46875"/>
     <use xlink:href="#DejaVuSans-Bold-2014" x="1915.283203"/>
     <use xlink:href="#DejaVuSans-Bold-20" x="2015.283203"/>
     <use xlink:href="#DejaVuSans-Bold-74" x="2050.097656"/>
     <use xlink:href="#DejaVuSans-Bold-72" x="2097.900391"/>
     <use xlink:href="#DejaVuSans-Bold-65" x="2147.216797"/>
     <use xlink:href="#DejaVuSans-Bold-73" x="2215.039062"/>
     <use xlink:href="#DejaVuSans-Bold-20" x="2274.560547"/>
     <use xlink:href="#DejaVuSans-Bold-7a" x="2309.375"/>
     <use xlink:href="#DejaVuSans-Bold-6f" x="2367.578125"/>
     <use xlink:href="#DejaVuSans-Bold-6e" x="2436.279297"/>
     <use xlink:href="#DejaVuSans-Bold-61" x="2507.470703"/>
     <use xlink:href="#DejaVuSans-Bold-73" x="2574.951172"/>
     <use xlink:href="#DejaVuSans-Bold-20" x="2634.472656"/>
     <use xlink:href="#DejaVuSans-Bold-73" x="2669.287109"/>
     <use xlink:href="#DejaVuSans-Bold-65" x="2728.808594"/>
     <use xlink:href="#DejaVuSans-Bold-67" x="2796.630859"/>
     <use xlink:href="#DejaVuSans-Bold-fa" x="2868.212891"/>
     <use xlink:href="#DejaVuSans-Bold-6e" x="2939.404297"/>
     <use xlink:href="#DejaVuSans-Bold-20" x="3010.595703"/>
     <use xlink:href="#DejaVuSans-Bold-50" x="3045.410156"/>
    </g>
   </g>
   <g id="legend_1">
    <g id="patch_5">
     <path d="M 713.05975 133.519844 
L 891.871469 133.519844 
Q 893.671469 133.519844 893.671469 131.719844 
L 893.671469 52.997969 
Q 893.671469 51.197969 891.871469 51.197969 
L 713.05975 51.197969 
Q 711.25975 51.197969 711.25975 52.997969 
L 711.25975 131.719844 
Q 711.25975 133.519844 713.05975 133.519844 
z
" style="fill: #ffffff; opacity: 0.8; stroke: #cccccc; stroke-linejoin: miter"/>
    </g>
    <g id="line2d_43">
     <path d="M 714.85975 58.486563 
L 723.85975 58.486563 
L 732.85975 58.486563 
" style="fill: none; stroke: #e67e22; stroke-width: 3; stroke-linecap: square"/>
    </g>
    <g id="text_21">
     <!-- CMg -->
     <g transform="translate(740.05975 61.636563) scale(0.09 -0.09)">
      <defs>
       <path id="DejaVuSans-43" d="M 4122 4306 
L 4122 3641 
Q 3803 3938 3442 4084 
Q 3081 4231 2675 4231 
Q 1875 4231 1450 3742 
Q 1025 3253 1025 2328 
Q 1025 1406 1450 917 
Q 1875 428 2675 428 
Q 3081 428 3442 575 
Q 3803 722 4122 1019 
L 4122 359 
Q 3791 134 3420 21 
Q 3050 -91 2638 -91 
Q 1578 -91 968 557 
Q 359 1206 359 2328 
Q 359 3453 968 4101 
Q 1578 4750 2638 4750 
Q 3056 4750 3426 4639 
Q 3797 4528 4122 4306 
z
" transform="scale(0.015625)"/>
       <path id="DejaVuSans-4d" d="M 628 4666 
L 1569 4666 
L 2759 1491 
L 3956 4666 
L 4897 4666 
L 4897 0 
L 4281 0 
L 4281 4097 
L 3078 897 
L 2444 897 
L 1241 4097 
L 1241 0 
L 628 0 
L 628 4666 
z
" transform="scale(0.015625)"/>
       <path id="DejaVuSans-67" d="M 2906 1791 
Q 2906 2416 2648 2759 
Q 2391 3103 1925 3103 
Q 1463 3103 1205 2759 
Q 947 2416 947 1791 
Q 947 1169 1205 825 
Q 1463 481 1925 481 
Q 2391 481 2648 825 
Q 2906 1169 2906 1791 
z
M 3481 434 
Q 3481 -459 3084 -895 
Q 2688 -1331 1869 -1331 
Q 1566 -1331 1297 -1286 
Q 1028 -1241 775 -1147 
L 775 -588 
Q 1028 -725 1275 -790 
Q 1522 -856 1778 -856 
Q 2344 -856 2625 -561 
Q 2906 -266 2906 331 
L 2906 616 
Q 2728 306 2450 153 
Q 2172 0 1784 0 
Q 1141 0 747 490 
Q 353 981 353 1791 
Q 353 2603 747 3093 
Q 1141 3584 1784 3584 
Q 2172 3584 2450 3431 
Q 2728 3278 2906 2969 
L 2906 3500 
L 3481 3500 
L 3481 434 
z
" transform="scale(0.015625)"/>
      </defs>
      <use xlink:href="#DejaVuSans-43"/>
      <use xlink:href="#DejaVuSans-4d" x="69.824219"/>
      <use xlink:href="#DejaVuSans-67" x="156.103516"/>
     </g>
    </g>
    <g id="line2d_44">
     <path d="M 714.85975 71.696875 
L 723.85975 71.696875 
L 732.85975 71.696875 
" style="fill: none; stroke: #16a085; stroke-width: 3; stroke-linecap: square"/>
    </g>
    <g id="text_22">
     <!-- CTMe -->
     <g transform="translate(740.05975 74.846875) scale(0.09 -0.09)">
      <defs>
       <path id="DejaVuSans-54" d="M -19 4666 
L 3928 4666 
L 3928 4134 
L 2272 4134 
L 2272 0 
L 1638 0 
L 1638 4134 
L -19 4134 
L -19 4666 
z
" transform="scale(0.015625)"/>
       <path id="DejaVuSans-65" d="M 3597 1894 
L 3597 1613 
L 953 1613 
Q 991 1019 1311 708 
Q 1631 397 2203 397 
Q 2534 397 2845 478 
Q 3156 559 3463 722 
L 3463 178 
Q 3153 47 2828 -22 
Q 2503 -91 2169 -91 
Q 1331 -91 842 396 
Q 353 884 353 1716 
Q 353 2575 817 3079 
Q 1281 3584 2069 3584 
Q 2775 3584 3186 3129 
Q 3597 2675 3597 1894 
z
M 3022 2063 
Q 3016 2534 2758 2815 
Q 2500 3097 2075 3097 
Q 1594 3097 1305 2825 
Q 1016 2553 972 2059 
L 3022 2063 
z
" transform="scale(0.015625)"/>
      </defs>
      <use xlink:href="#DejaVuSans-43"/>
      <use xlink:href="#DejaVuSans-54" x="69.824219"/>
      <use xlink:href="#DejaVuSans-4d" x="130.908203"/>
      <use xlink:href="#DejaVuSans-65" x="217.1875"/>
     </g>
    </g>
    <g id="line2d_45">
     <path d="M 714.85975 84.907187 
L 723.85975 84.907187 
L 732.85975 84.907187 
" style="fill: none; stroke: #8e44ad; stroke-width: 2.5; stroke-linecap: square"/>
    </g>
    <g id="text_23">
     <!-- CVMe -->
     <g transform="translate(740.05975 88.057187) scale(0.09 -0.09)">
      <defs>
       <path id="DejaVuSans-56" d="M 1831 0 
L 50 4666 
L 709 4666 
L 2188 738 
L 3669 4666 
L 4325 4666 
L 2547 0 
L 1831 0 
z
" transform="scale(0.015625)"/>
      </defs>
      <use xlink:href="#DejaVuSans-43"/>
      <use xlink:href="#DejaVuSans-56" x="69.824219"/>
      <use xlink:href="#DejaVuSans-4d" x="138.232422"/>
      <use xlink:href="#DejaVuSans-65" x="224.511719"/>
     </g>
    </g>
    <g id="line2d_46">
     <path d="M 714.85975 98.1175 
L 723.85975 98.1175 
L 732.85975 98.1175 
" style="fill: none; stroke: #27ae60; stroke-width: 2.5; stroke-linecap: square"/>
    </g>
    <g id="text_24">
     <!-- P₁=9.5 → BENEFICIO -->
     <g transform="translate(740.05975 101.2675) scale(0.09 -0.09)">
      <defs>
       <path id="DejaVuSans-50" d="M 1259 4147 
L 1259 2394 
L 2053 2394 
Q 2494 2394 2734 2622 
Q 2975 2850 2975 3272 
Q 2975 3691 2734 3919 
Q 2494 4147 2053 4147 
L 1259 4147 
z
M 628 4666 
L 2053 4666 
Q 2838 4666 3239 4311 
Q 3641 3956 3641 3272 
Q 3641 2581 3239 2228 
Q 2838 1875 2053 1875 
L 1259 1875 
L 1259 0 
L 628 0 
L 628 4666 
z
" transform="scale(0.015625)"/>
       <path id="DejaVuSans-2081" d="M 488 319 
L 1125 319 
L 1125 2229 
L 428 2101 
L 428 2463 
L 1147 2585 
L 1575 2585 
L 1575 319 
L 2216 319 
L 2216 -24 
L 488 -24 
L 488 319 
z
" transform="scale(0.015625)"/>
       <path id="DejaVuSans-3d" d="M 678 2906 
L 4684 2906 
L 4684 2381 
L 678 2381 
L 678 2906 
z
M 678 1631 
L 4684 1631 
L 4684 1100 
L 678 1100 
L 678 1631 
z
" transform="scale(0.015625)"/>
       <path id="DejaVuSans-39" d="M 703 97 
L 703 672 
Q 941 559 1184 500 
Q 1428 441 1663 441 
Q 2288 441 2617 861 
Q 2947 1281 2994 2138 
Q 2813 1869 2534 1725 
Q 2256 1581 1919 1581 
Q 1219 1581 811 2004 
Q 403 2428 403 3163 
Q 403 3881 828 4315 
Q 1253 4750 1959 4750 
Q 2769 4750 3195 4129 
Q 3622 3509 3622 2328 
Q 3622 1225 3098 567 
Q 2575 -91 1691 -91 
Q 1453 -91 1209 -44 
Q 966 3 703 97 
z
M 1959 2075 
Q 2384 2075 2632 2365 
Q 2881 2656 2881 3163 
Q 2881 3666 2632 3958 
Q 2384 4250 1959 4250 
Q 1534 4250 1286 3958 
Q 1038 3666 1038 3163 
Q 1038 2656 1286 2365 
Q 1534 2075 1959 2075 
z
" transform="scale(0.015625)"/>
       <path id="DejaVuSans-2e" d="M 684 794 
L 1344 794 
L 1344 0 
L 684 0 
L 684 794 
z
" transform="scale(0.015625)"/>
       <path id="DejaVuSans-35" d="M 691 4666 
L 3169 4666 
L 3169 4134 
L 1269 4134 
L 1269 2991 
Q 1406 3038 1543 3061 
Q 1681 3084 1819 3084 
Q 2600 3084 3056 2656 
Q 3513 2228 3513 1497 
Q 3513 744 3044 326 
Q 2575 -91 1722 -91 
Q 1428 -91 1123 -41 
Q 819 9 494 109 
L 494 744 
Q 775 591 1075 516 
Q 1375 441 1709 441 
Q 2250 441 2565 725 
Q 2881 1009 2881 1497 
Q 2881 1984 2565 2268 
Q 2250 2553 1709 2553 
Q 1456 2553 1204 2497 
Q 953 2441 691 2322 
L 691 4666 
z
" transform="scale(0.015625)"/>
       <path id="DejaVuSans-20" transform="scale(0.015625)"/>
       <path id="DejaVuSans-2192" d="M 5050 2147 
L 5050 1866 
L 3822 638 
L 3447 1013 
L 4175 1741 
L 366 1741 
L 366 2272 
L 4175 2272 
L 3447 3000 
L 3822 3375 
L 5050 2147 
z
" transform="scale(0.015625)"/>
       <path id="DejaVuSans-42" d="M 1259 2228 
L 1259 519 
L 2272 519 
Q 2781 519 3026 730 
Q 3272 941 3272 1375 
Q 3272 1813 3026 2020 
Q 2781 2228 2272 2228 
L 1259 2228 
z
M 1259 4147 
L 1259 2741 
L 2194 2741 
Q 2656 2741 2882 2914 
Q 3109 3088 3109 3444 
Q 3109 3797 2882 3972 
Q 2656 4147 2194 4147 
L 1259 4147 
z
M 628 4666 
L 2241 4666 
Q 2963 4666 3353 4366 
Q 3744 4066 3744 3513 
Q 3744 3084 3544 2831 
Q 3344 2578 2956 2516 
Q 3422 2416 3680 2098 
Q 3938 1781 3938 1306 
Q 3938 681 3513 340 
Q 3088 0 2303 0 
L 628 0 
L 628 4666 
z
" transform="scale(0.015625)"/>
       <path id="DejaVuSans-45" d="M 628 4666 
L 3578 4666 
L 3578 4134 
L 1259 4134 
L 1259 2753 
L 3481 2753 
L 3481 2222 
L 1259 2222 
L 1259 531 
L 3634 531 
L 3634 0 
L 628 0 
L 628 4666 
z
" transform="scale(0.015625)"/>
       <path id="DejaVuSans-4e" d="M 628 4666 
L 1478 4666 
L 3547 763 
L 3547 4666 
L 4159 4666 
L 4159 0 
L 3309 0 
L 1241 3903 
L 1241 0 
L 628 0 
L 628 4666 
z
" transform="scale(0.015625)"/>
       <path id="DejaVuSans-46" d="M 628 4666 
L 3309 4666 
L 3309 4134 
L 1259 4134 
L 1259 2759 
L 3109 2759 
L 3109 2228 
L 1259 2228 
L 1259 0 
L 628 0 
L 628 4666 
z
" transform="scale(0.015625)"/>
       <path id="DejaVuSans-49" d="M 628 4666 
L 1259 4666 
L 1259 0 
L 628 0 
L 628 4666 
z
" transform="scale(0.015625)"/>
       <path id="DejaVuSans-4f" d="M 2522 4238 
Q 1834 4238 1429 3725 
Q 1025 3213 1025 2328 
Q 1025 1447 1429 934 
Q 1834 422 2522 422 
Q 3209 422 3611 934 
Q 4013 1447 4013 2328 
Q 4013 3213 3611 3725 
Q 3209 4238 2522 4238 
z
M 2522 4750 
Q 3503 4750 4090 4092 
Q 4678 3434 4678 2328 
Q 4678 1225 4090 567 
Q 3503 -91 2522 -91 
Q 1538 -91 948 565 
Q 359 1222 359 2328 
Q 359 3434 948 4092 
Q 1538 4750 2522 4750 
z
" transform="scale(0.015625)"/>
      </defs>
      <use xlink:href="#DejaVuSans-50"/>
      <use xlink:href="#DejaVuSans-2081" x="60.302734"/>
      <use xlink:href="#DejaVuSans-3d" x="100.390625"/>
      <use xlink:href="#DejaVuSans-39" x="184.179688"/>
      <use xlink:href="#DejaVuSans-2e" x="247.802734"/>
      <use xlink:href="#DejaVuSans-35" x="279.589844"/>
      <use xlink:href="#DejaVuSans-20" x="343.212891"/>
      <use xlink:href="#DejaVuSans-2192" x="375"/>
      <use xlink:href="#DejaVuSans-20" x="458.789062"/>
      <use xlink:href="#DejaVuSans-42" x="490.576172"/>
      <use xlink:href="#DejaVuSans-45" x="559.179688"/>
      <use xlink:href="#DejaVuSans-4e" x="622.363281"/>
      <use xlink:href="#DejaVuSans-45" x="697.167969"/>
      <use xlink:href="#DejaVuSans-46" x="760.351562"/>
      <use xlink:href="#DejaVuSans-49" x="817.871094"/>
      <use xlink:href="#DejaVuSans-43" x="847.363281"/>
      <use xlink:href="#DejaVuSans-49" x="917.1875"/>
      <use xlink:href="#DejaVuSans-4f" x="946.679688"/>
     </g>
    </g>
    <g id="line2d_47">
     <path d="M 714.85975 111.687813 
L 723.85975 111.687813 
L 732.85975 111.687813 
" style="fill: none; stroke-dasharray: 9.25,4; stroke-dashoffset: 0; stroke: #f39c12; stroke-width: 2.5"/>
    </g>
    <g id="text_25">
     <!-- P₂=4.5 → pérdida con producción -->
     <g transform="translate(740.05975 114.837813) scale(0.09 -0.09)">
      <defs>
       <path id="DejaVuSans-2082" d="M 838 332 
L 2163 332 
L 2163 -24 
L 294 -24 
L 294 319 
Q 400 416 597 591 
Q 1672 1544 1672 1838 
Q 1672 2044 1509 2170 
Q 1347 2297 1081 2297 
Q 919 2297 728 2242 
Q 538 2188 313 2079 
L 313 2463 
Q 553 2551 761 2594 
Q 969 2638 1147 2638 
Q 1600 2638 1872 2432 
Q 2144 2226 2144 1888 
Q 2144 1454 1109 566 
Q 934 416 838 332 
z
" transform="scale(0.015625)"/>
       <path id="DejaVuSans-70" d="M 1159 525 
L 1159 -1331 
L 581 -1331 
L 581 3500 
L 1159 3500 
L 1159 2969 
Q 1341 3281 1617 3432 
Q 1894 3584 2278 3584 
Q 2916 3584 3314 3078 
Q 3713 2572 3713 1747 
Q 3713 922 3314 415 
Q 2916 -91 2278 -91 
Q 1894 -91 1617 61 
Q 1341 213 1159 525 
z
M 3116 1747 
Q 3116 2381 2855 2742 
Q 2594 3103 2138 3103 
Q 1681 3103 1420 2742 
Q 1159 2381 1159 1747 
Q 1159 1113 1420 752 
Q 1681 391 2138 391 
Q 2594 391 2855 752 
Q 3116 1113 3116 1747 
z
" transform="scale(0.015625)"/>
       <path id="DejaVuSans-e9" d="M 3597 1894 
L 3597 1613 
L 953 1613 
Q 991 1019 1311 708 
Q 1631 397 2203 397 
Q 2534 397 2845 478 
Q 3156 559 3463 722 
L 3463 178 
Q 3153 47 2828 -22 
Q 2503 -91 2169 -91 
Q 1331 -91 842 396 
Q 353 884 353 1716 
Q 353 2575 817 3079 
Q 1281 3584 2069 3584 
Q 2775 3584 3186 3129 
Q 3597 2675 3597 1894 
z
M 3022 2063 
Q 3016 2534 2758 2815 
Q 2500 3097 2075 3097 
Q 1594 3097 1305 2825 
Q 1016 2553 972 2059 
L 3022 2063 
z
M 2466 5119 
L 3088 5119 
L 2070 3944 
L 1591 3944 
L 2466 5119 
z
" transform="scale(0.015625)"/>
       <path id="DejaVuSans-72" d="M 2631 2963 
Q 2534 3019 2420 3045 
Q 2306 3072 2169 3072 
Q 1681 3072 1420 2755 
Q 1159 2438 1159 1844 
L 1159 0 
L 581 0 
L 581 3500 
L 1159 3500 
L 1159 2956 
Q 1341 3275 1631 3429 
Q 1922 3584 2338 3584 
Q 2397 3584 2469 3576 
Q 2541 3569 2628 3553 
L 2631 2963 
z
" transform="scale(0.015625)"/>
       <path id="DejaVuSans-64" d="M 2906 2969 
L 2906 4863 
L 3481 4863 
L 3481 0 
L 2906 0 
L 2906 525 
Q 2725 213 2448 61 
Q 2172 -91 1784 -91 
Q 1150 -91 751 415 
Q 353 922 353 1747 
Q 353 2572 751 3078 
Q 1150 3584 1784 3584 
Q 2172 3584 2448 3432 
Q 2725 3281 2906 2969 
z
M 947 1747 
Q 947 1113 1208 752 
Q 1469 391 1925 391 
Q 2381 391 2643 752 
Q 2906 1113 2906 1747 
Q 2906 2381 2643 2742 
Q 2381 3103 1925 3103 
Q 1469 3103 1208 2742 
Q 947 2381 947 1747 
z
" transform="scale(0.015625)"/>
       <path id="DejaVuSans-69" d="M 603 3500 
L 1178 3500 
L 1178 0 
L 603 0 
L 603 3500 
z
M 603 4863 
L 1178 4863 
L 1178 4134 
L 603 4134 
L 603 4863 
z
" transform="scale(0.015625)"/>
       <path id="DejaVuSans-61" d="M 2194 1759 
Q 1497 1759 1228 1600 
Q 959 1441 959 1056 
Q 959 750 1161 570 
Q 1363 391 1709 391 
Q 2188 391 2477 730 
Q 2766 1069 2766 1631 
L 2766 1759 
L 2194 1759 
z
M 3341 1997 
L 3341 0 
L 2766 0 
L 2766 531 
Q 2569 213 2275 61 
Q 1981 -91 1556 -91 
Q 1019 -91 701 211 
Q 384 513 384 1019 
Q 384 1609 779 1909 
Q 1175 2209 1959 2209 
L 2766 2209 
L 2766 2266 
Q 2766 2663 2505 2880 
Q 2244 3097 1772 3097 
Q 1472 3097 1187 3025 
Q 903 2953 641 2809 
L 641 3341 
Q 956 3463 1253 3523 
Q 1550 3584 1831 3584 
Q 2591 3584 2966 3190 
Q 3341 2797 3341 1997 
z
" transform="scale(0.015625)"/>
       <path id="DejaVuSans-63" d="M 3122 3366 
L 3122 2828 
Q 2878 2963 2633 3030 
Q 2388 3097 2138 3097 
Q 1578 3097 1268 2742 
Q 959 2388 959 1747 
Q 959 1106 1268 751 
Q 1578 397 2138 397 
Q 2388 397 2633 464 
Q 2878 531 3122 666 
L 3122 134 
Q 2881 22 2623 -34 
Q 2366 -91 2075 -91 
Q 1284 -91 818 406 
Q 353 903 353 1747 
Q 353 2603 823 3093 
Q 1294 3584 2113 3584 
Q 2378 3584 2631 3529 
Q 2884 3475 3122 3366 
z
" transform="scale(0.015625)"/>
       <path id="DejaVuSans-6f" d="M 1959 3097 
Q 1497 3097 1228 2736 
Q 959 2375 959 1747 
Q 959 1119 1226 758 
Q 1494 397 1959 397 
Q 2419 397 2687 759 
Q 2956 1122 2956 1747 
Q 2956 2369 2687 2733 
Q 2419 3097 1959 3097 
z
M 1959 3584 
Q 2709 3584 3137 3096 
Q 3566 2609 3566 1747 
Q 3566 888 3137 398 
Q 2709 -91 1959 -91 
Q 1206 -91 779 398 
Q 353 888 353 1747 
Q 353 2609 779 3096 
Q 1206 3584 1959 3584 
z
" transform="scale(0.015625)"/>
       <path id="DejaVuSans-6e" d="M 3513 2113 
L 3513 0 
L 2938 0 
L 2938 2094 
Q 2938 2591 2744 2837 
Q 2550 3084 2163 3084 
Q 1697 3084 1428 2787 
Q 1159 2491 1159 1978 
L 1159 0 
L 581 0 
L 581 3500 
L 1159 3500 
L 1159 2956 
Q 1366 3272 1645 3428 
Q 1925 3584 2291 3584 
Q 2894 3584 3203 3211 
Q 3513 2838 3513 2113 
z
" transform="scale(0.015625)"/>
       <path id="DejaVuSans-75" d="M 544 1381 
L 544 3500 
L 1119 3500 
L 1119 1403 
Q 1119 906 1312 657 
Q 1506 409 1894 409 
Q 2359 409 2629 706 
Q 2900 1003 2900 1516 
L 2900 3500 
L 3475 3500 
L 3475 0 
L 2900 0 
L 2900 538 
Q 2691 219 2414 64 
Q 2138 -91 1772 -91 
Q 1169 -91 856 284 
Q 544 659 544 1381 
z
M 1991 3584 
L 1991 3584 
z
" transform="scale(0.015625)"/>
       <path id="DejaVuSans-f3" d="M 1959 3097 
Q 1497 3097 1228 2736 
Q 959 2375 959 1747 
Q 959 1119 1226 758 
Q 1494 397 1959 397 
Q 2419 397 2687 759 
Q 2956 1122 2956 1747 
Q 2956 2369 2687 2733 
Q 2419 3097 1959 3097 
z
M 1959 3584 
Q 2709 3584 3137 3096 
Q 3566 2609 3566 1747 
Q 3566 888 3137 398 
Q 2709 -91 1959 -91 
Q 1206 -91 779 398 
Q 353 888 353 1747 
Q 353 2609 779 3096 
Q 1206 3584 1959 3584 
z
M 2394 5119 
L 3016 5119 
L 1998 3944 
L 1519 3944 
L 2394 5119 
z
" transform="scale(0.015625)"/>
      </defs>
      <use xlink:href="#DejaVuSans-50"/>
      <use xlink:href="#DejaVuSans-2082" x="60.302734"/>
      <use xlink:href="#DejaVuSans-3d" x="100.390625"/>
      <use xlink:href="#DejaVuSans-34" x="184.179688"/>
      <use xlink:href="#DejaVuSans-2e" x="247.802734"/>
      <use xlink:href="#DejaVuSans-35" x="279.589844"/>
      <use xlink:href="#DejaVuSans-20" x="343.212891"/>
      <use xlink:href="#DejaVuSans-2192" x="375"/>
      <use xlink:href="#DejaVuSans-20" x="458.789062"/>
      <use xlink:href="#DejaVuSans-70" x="490.576172"/>
      <use xlink:href="#DejaVuSans-e9" x="554.052734"/>
      <use xlink:href="#DejaVuSans-72" x="615.576172"/>
      <use xlink:href="#DejaVuSans-64" x="654.939453"/>
      <use xlink:href="#DejaVuSans-69" x="718.416016"/>
      <use xlink:href="#DejaVuSans-64" x="746.199219"/>
      <use xlink:href="#DejaVuSans-61" x="809.675781"/>
      <use xlink:href="#DejaVuSans-20" x="870.955078"/>
      <use xlink:href="#DejaVuSans-63" x="902.742188"/>
      <use xlink:href="#DejaVuSans-6f" x="957.722656"/>
      <use xlink:href="#DejaVuSans-6e" x="1018.904297"/>
      <use xlink:href="#DejaVuSans-20" x="1082.283203"/>
      <use xlink:href="#DejaVuSans-70" x="1114.070312"/>
      <use xlink:href="#DejaVuSans-72" x="1177.546875"/>
      <use xlink:href="#DejaVuSans-6f" x="1216.410156"/>
      <use xlink:href="#DejaVuSans-64" x="1277.591797"/>
      <use xlink:href="#DejaVuSans-75" x="1341.068359"/>
      <use xlink:href="#DejaVuSans-63" x="1404.447266"/>
      <use xlink:href="#DejaVuSans-63" x="1459.427734"/>
      <use xlink:href="#DejaVuSans-69" x="1514.408203"/>
      <use xlink:href="#DejaVuSans-f3" x="1542.191406"/>
      <use xlink:href="#DejaVuSans-6e" x="1603.373047"/>
     </g>
    </g>
    <g id="line2d_48">
     <path d="M 714.85975 124.898125 
L 723.85975 124.898125 
L 732.85975 124.898125 
" style="fill: none; stroke-dasharray: 2.5,4.125; stroke-dashoffset: 0; stroke: #c0392b; stroke-width: 2.5"/>
    </g>
    <g id="text_26">
     <!-- P₃=2.0 → CIERRE -->
     <g transform="translate(740.05975 128.048125) scale(0.09 -0.09)">
      <defs>
       <path id="DejaVuSans-2083" d="M 1638 1388 
Q 1925 1332 2083 1161 
Q 2241 991 2241 735 
Q 2241 347 1944 138 
Q 1647 -71 1094 -71 
Q 916 -71 720 -38 
Q 525 -6 306 57 
L 306 435 
Q 469 351 655 310 
Q 841 269 1050 269 
Q 1391 269 1578 392 
Q 1766 516 1766 735 
Q 1766 966 1592 1085 
Q 1419 1204 1081 1204 
L 813 1204 
L 813 1541 
L 1106 1541 
Q 1400 1541 1551 1639 
Q 1703 1738 1703 1926 
Q 1703 2107 1547 2202 
Q 1391 2297 1094 2297 
Q 969 2297 809 2269 
Q 650 2241 397 2169 
L 397 2529 
Q 625 2582 825 2610 
Q 1025 2638 1197 2638 
Q 1647 2638 1911 2453 
Q 2175 2269 2175 1960 
Q 2175 1744 2034 1594 
Q 1894 1444 1638 1388 
z
" transform="scale(0.015625)"/>
       <path id="DejaVuSans-52" d="M 2841 2188 
Q 3044 2119 3236 1894 
Q 3428 1669 3622 1275 
L 4263 0 
L 3584 0 
L 2988 1197 
Q 2756 1666 2539 1819 
Q 2322 1972 1947 1972 
L 1259 1972 
L 1259 0 
L 628 0 
L 628 4666 
L 2053 4666 
Q 2853 4666 3247 4331 
Q 3641 3997 3641 3322 
Q 3641 2881 3436 2590 
Q 3231 2300 2841 2188 
z
M 1259 4147 
L 1259 2491 
L 2053 2491 
Q 2509 2491 2742 2702 
Q 2975 2913 2975 3322 
Q 2975 3731 2742 3939 
Q 2509 4147 2053 4147 
L 1259 4147 
z
" transform="scale(0.015625)"/>
      </defs>
      <use xlink:href="#DejaVuSans-50"/>
      <use xlink:href="#DejaVuSans-2083" x="60.302734"/>
      <use xlink:href="#DejaVuSans-3d" x="100.390625"/>
      <use xlink:href="#DejaVuSans-32" x="184.179688"/>
      <use xlink:href="#DejaVuSans-2e" x="247.802734"/>
      <use xlink:href="#DejaVuSans-30" x="279.589844"/>
      <use xlink:href="#DejaVuSans-20" x="343.212891"/>
      <use xlink:href="#DejaVuSans-2192" x="375"/>
      <use xlink:href="#DejaVuSans-20" x="458.789062"/>
      <use xlink:href="#DejaVuSans-43" x="490.576172"/>
      <use xlink:href="#DejaVuSans-49" x="560.400391"/>
      <use xlink:href="#DejaVuSans-45" x="589.892578"/>
      <use xlink:href="#DejaVuSans-52" x="653.076172"/>
      <use xlink:href="#DejaVuSans-52" x="722.558594"/>
      <use xlink:href="#DejaVuSans-45" x="792.041016"/>
     </g>
    </g>
   </g>
   <g id="text_27">
    <g id="patch_6">
     <path d="M 541.27125 237.132969 
L 602.736875 237.132969 
Q 606.236875 237.132969 606.236875 233.632969 
L 606.236875 201.481094 
Q 606.236875 197.981094 602.736875 197.981094 
L 541.27125 197.981094 
Q 537.77125 197.981094 537.77125 201.481094 
L 537.77125 233.632969 
Q 537.77125 237.132969 541.27125 237.132969 
z
" style="fill: #ffffff; opacity: 0.97; stroke: #bdc3c7; stroke-width: 0.8; stroke-linejoin: miter"/>
    </g>
    <!-- P &gt; CTMe -->
    <g style="fill: #27ae60" transform="translate(541.27125 209.001406) scale(0.1 -0.1)">
     <defs>
      <path id="DejaVuSans-Bold-3e" d="M 678 3041 
L 678 3822 
L 4684 2375 
L 4684 1638 
L 678 191 
L 678 972 
L 3694 2003 
L 678 3041 
z
" transform="scale(0.015625)"/>
      <path id="DejaVuSans-Bold-54" d="M 31 4666 
L 4331 4666 
L 4331 3756 
L 2784 3756 
L 2784 0 
L 1581 0 
L 1581 3756 
L 31 3756 
L 31 4666 
z
" transform="scale(0.015625)"/>
     </defs>
     <use xlink:href="#DejaVuSans-Bold-50"/>
     <use xlink:href="#DejaVuSans-Bold-20" x="73.291016"/>
     <use xlink:href="#DejaVuSans-Bold-3e" x="108.105469"/>
     <use xlink:href="#DejaVuSans-Bold-20" x="191.894531"/>
     <use xlink:href="#DejaVuSans-Bold-43" x="226.708984"/>
     <use xlink:href="#DejaVuSans-Bold-54" x="300.097656"/>
     <use xlink:href="#DejaVuSans-Bold-4d" x="368.310547"/>
     <use xlink:href="#DejaVuSans-Bold-65" x="467.822266"/>
    </g>
    <!-- produce y -->
    <g style="fill: #27ae60" transform="translate(541.27125 220.199219) scale(0.1 -0.1)">
     <defs>
      <path id="DejaVuSans-Bold-70" d="M 1656 506 
L 1656 -1331 
L 538 -1331 
L 538 3500 
L 1656 3500 
L 1656 2988 
Q 1888 3294 2169 3439 
Q 2450 3584 2816 3584 
Q 3463 3584 3878 3070 
Q 4294 2556 4294 1747 
Q 4294 938 3878 423 
Q 3463 -91 2816 -91 
Q 2450 -91 2169 54 
Q 1888 200 1656 506 
z
M 2400 2772 
Q 2041 2772 1848 2508 
Q 1656 2244 1656 1747 
Q 1656 1250 1848 986 
Q 2041 722 2400 722 
Q 2759 722 2948 984 
Q 3138 1247 3138 1747 
Q 3138 2247 2948 2509 
Q 2759 2772 2400 2772 
z
" transform="scale(0.015625)"/>
      <path id="DejaVuSans-Bold-79" d="M 78 3500 
L 1197 3500 
L 2138 1125 
L 2938 3500 
L 4056 3500 
L 2584 -331 
Q 2363 -916 2067 -1148 
Q 1772 -1381 1288 -1381 
L 641 -1381 
L 641 -647 
L 991 -647 
Q 1275 -647 1404 -556 
Q 1534 -466 1606 -231 
L 1638 -134 
L 78 3500 
z
" transform="scale(0.015625)"/>
     </defs>
     <use xlink:href="#DejaVuSans-Bold-70"/>
     <use xlink:href="#DejaVuSans-Bold-72" x="71.582031"/>
     <use xlink:href="#DejaVuSans-Bold-6f" x="120.898438"/>
     <use xlink:href="#DejaVuSans-Bold-64" x="189.599609"/>
     <use xlink:href="#DejaVuSans-Bold-75" x="261.181641"/>
     <use xlink:href="#DejaVuSans-Bold-63" x="332.373047"/>
     <use xlink:href="#DejaVuSans-Bold-65" x="391.650391"/>
     <use xlink:href="#DejaVuSans-Bold-20" x="459.472656"/>
     <use xlink:href="#DejaVuSans-Bold-79" x="494.287109"/>
    </g>
    <!-- gana π &gt; 0 -->
    <g style="fill: #27ae60" transform="translate(541.27125 231.475156) scale(0.1 -0.1)">
     <defs>
      <path id="DejaVuSans-Bold-3c0" d="M 269 3500 
L 4684 3500 
L 4684 2700 
L 4072 2700 
L 4072 1131 
Q 4072 728 4148 629 
Q 4225 531 4400 531 
Q 4578 531 4678 544 
L 4678 -44 
Q 4484 -122 3822 -122 
Q 3613 -122 3409 -63 
Q 3084 34 2994 319 
Q 2953 453 2953 728 
L 2953 2700 
L 2000 2700 
L 2000 0 
L 881 0 
L 881 2700 
L 269 2700 
L 269 3500 
z
" transform="scale(0.015625)"/>
      <path id="DejaVuSans-Bold-30" d="M 2944 2338 
Q 2944 3213 2780 3570 
Q 2616 3928 2228 3928 
Q 1841 3928 1675 3570 
Q 1509 3213 1509 2338 
Q 1509 1453 1675 1090 
Q 1841 728 2228 728 
Q 2613 728 2778 1090 
Q 2944 1453 2944 2338 
z
M 4147 2328 
Q 4147 1169 3647 539 
Q 3147 -91 2228 -91 
Q 1306 -91 806 539 
Q 306 1169 306 2328 
Q 306 3491 806 4120 
Q 1306 4750 2228 4750 
Q 3147 4750 3647 4120 
Q 4147 3491 4147 2328 
z
" transform="scale(0.015625)"/>
     </defs>
     <use xlink:href="#DejaVuSans-Bold-67"/>
     <use xlink:href="#DejaVuSans-Bold-61" x="71.582031"/>
     <use xlink:href="#DejaVuSans-Bold-6e" x="139.0625"/>
     <use xlink:href="#DejaVuSans-Bold-61" x="210.253906"/>
     <use xlink:href="#DejaVuSans-Bold-20" x="277.734375"/>
     <use xlink:href="#DejaVuSans-Bold-3c0" x="312.548828"/>
     <use xlink:href="#DejaVuSans-Bold-20" x="391.650391"/>
     <use xlink:href="#DejaVuSans-Bold-3e" x="426.464844"/>
     <use xlink:href="#DejaVuSans-Bold-20" x="510.253906"/>
     <use xlink:href="#DejaVuSans-Bold-30" x="545.068359"/>
    </g>
   </g>
   <g id="text_28">
    <g id="patch_7">
     <path d="M 541.27125 346.197156 
L 633.990938 346.197156 
Q 637.140938 346.197156 637.140938 343.047156 
L 637.140938 313.748781 
Q 637.140938 310.598781 633.990938 310.598781 
L 541.27125 310.598781 
Q 538.12125 310.598781 538.12125 313.748781 
L 538.12125 343.047156 
Q 538.12125 346.197156 541.27125 346.197156 
z
" style="fill: #ffffff; opacity: 0.97; stroke: #bdc3c7; stroke-width: 0.8; stroke-linejoin: miter"/>
    </g>
    <!-- CVMe &lt; P &lt; CTMe -->
    <g style="fill: #e67e22" transform="translate(541.27125 320.587375) scale(0.09 -0.09)">
     <defs>
      <path id="DejaVuSans-Bold-56" d="M 31 4666 
L 1241 4666 
L 2478 1222 
L 3713 4666 
L 4922 4666 
L 3194 0 
L 1759 0 
L 31 4666 
z
" transform="scale(0.015625)"/>
      <path id="DejaVuSans-Bold-3c" d="M 4684 3041 
L 1672 2003 
L 4684 972 
L 4684 191 
L 678 1638 
L 678 2375 
L 4684 3822 
L 4684 3041 
z
" transform="scale(0.015625)"/>
     </defs>
     <use xlink:href="#DejaVuSans-Bold-43"/>
     <use xlink:href="#DejaVuSans-Bold-56" x="73.388672"/>
     <use xlink:href="#DejaVuSans-Bold-4d" x="150.78125"/>
     <use xlink:href="#DejaVuSans-Bold-65" x="250.292969"/>
     <use xlink:href="#DejaVuSans-Bold-20" x="318.115234"/>
     <use xlink:href="#DejaVuSans-Bold-3c" x="352.929688"/>
     <use xlink:href="#DejaVuSans-Bold-20" x="436.71875"/>
     <use xlink:href="#DejaVuSans-Bold-50" x="471.533203"/>
     <use xlink:href="#DejaVuSans-Bold-20" x="544.824219"/>
     <use xlink:href="#DejaVuSans-Bold-3c" x="579.638672"/>
     <use xlink:href="#DejaVuSans-Bold-20" x="663.427734"/>
     <use xlink:href="#DejaVuSans-Bold-43" x="698.242188"/>
     <use xlink:href="#DejaVuSans-Bold-54" x="771.630859"/>
     <use xlink:href="#DejaVuSans-Bold-4d" x="839.84375"/>
     <use xlink:href="#DejaVuSans-Bold-65" x="939.355469"/>
    </g>
    <!-- produce a pérdida -->
    <g style="fill: #e67e22" transform="translate(541.27125 331.097406) scale(0.09 -0.09)">
     <defs>
      <path id="DejaVuSans-Bold-e9" d="M 4031 1759 
L 4031 1441 
L 1416 1441 
Q 1456 1047 1700 850 
Q 1944 653 2381 653 
Q 2734 653 3104 758 
Q 3475 863 3866 1075 
L 3866 213 
Q 3469 63 3072 -14 
Q 2675 -91 2278 -91 
Q 1328 -91 801 392 
Q 275 875 275 1747 
Q 275 2603 792 3093 
Q 1309 3584 2216 3584 
Q 3041 3584 3536 3087 
Q 4031 2591 4031 1759 
z
M 2881 2131 
Q 2881 2450 2695 2645 
Q 2509 2841 2209 2841 
Q 1884 2841 1681 2658 
Q 1478 2475 1428 2131 
L 2881 2131 
z
M 2702 5119 
L 3586 5119 
L 2433 3944 
L 1821 3944 
L 2702 5119 
z
" transform="scale(0.015625)"/>
     </defs>
     <use xlink:href="#DejaVuSans-Bold-70"/>
     <use xlink:href="#DejaVuSans-Bold-72" x="71.582031"/>
     <use xlink:href="#DejaVuSans-Bold-6f" x="120.898438"/>
     <use xlink:href="#DejaVuSans-Bold-64" x="189.599609"/>
     <use xlink:href="#DejaVuSans-Bold-75" x="261.181641"/>
     <use xlink:href="#DejaVuSans-Bold-63" x="332.373047"/>
     <use xlink:href="#DejaVuSans-Bold-65" x="391.650391"/>
     <use xlink:href="#DejaVuSans-Bold-20" x="459.472656"/>
     <use xlink:href="#DejaVuSans-Bold-61" x="494.287109"/>
     <use xlink:href="#DejaVuSans-Bold-20" x="561.767578"/>
     <use xlink:href="#DejaVuSans-Bold-70" x="596.582031"/>
     <use xlink:href="#DejaVuSans-Bold-e9" x="668.164062"/>
     <use xlink:href="#DejaVuSans-Bold-72" x="735.986328"/>
     <use xlink:href="#DejaVuSans-Bold-64" x="785.302734"/>
     <use xlink:href="#DejaVuSans-Bold-69" x="856.884766"/>
     <use xlink:href="#DejaVuSans-Bold-64" x="891.162109"/>
     <use xlink:href="#DejaVuSans-Bold-61" x="962.744141"/>
    </g>
    <!-- (cubre parte CF) -->
    <g style="fill: #e67e22" transform="translate(541.27125 341.175438) scale(0.09 -0.09)">
     <defs>
      <path id="DejaVuSans-Bold-28" d="M 2413 -844 
L 1484 -844 
Q 1006 -72 778 623 
Q 550 1319 550 2003 
Q 550 2688 779 3389 
Q 1009 4091 1484 4856 
L 2413 4856 
Q 2013 4116 1813 3408 
Q 1613 2700 1613 2009 
Q 1613 1319 1811 609 
Q 2009 -100 2413 -844 
z
" transform="scale(0.015625)"/>
      <path id="DejaVuSans-Bold-46" d="M 588 4666 
L 3834 4666 
L 3834 3756 
L 1791 3756 
L 1791 2888 
L 3713 2888 
L 3713 1978 
L 1791 1978 
L 1791 0 
L 588 0 
L 588 4666 
z
" transform="scale(0.015625)"/>
      <path id="DejaVuSans-Bold-29" d="M 513 -844 
Q 913 -100 1113 609 
Q 1313 1319 1313 2009 
Q 1313 2700 1113 3408 
Q 913 4116 513 4856 
L 1441 4856 
Q 1916 4091 2145 3389 
Q 2375 2688 2375 2003 
Q 2375 1319 2147 623 
Q 1919 -72 1441 -844 
L 513 -844 
z
" transform="scale(0.015625)"/>
     </defs>
     <use xlink:href="#DejaVuSans-Bold-28"/>
     <use xlink:href="#DejaVuSans-Bold-63" x="45.703125"/>
     <use xlink:href="#DejaVuSans-Bold-75" x="104.980469"/>
     <use xlink:href="#DejaVuSans-Bold-62" x="176.171875"/>
     <use xlink:href="#DejaVuSans-Bold-72" x="247.753906"/>
     <use xlink:href="#DejaVuSans-Bold-65" x="297.070312"/>
     <use xlink:href="#DejaVuSans-Bold-20" x="364.892578"/>
     <use xlink:href="#DejaVuSans-Bold-70" x="399.707031"/>
     <use xlink:href="#DejaVuSans-Bold-61" x="471.289062"/>
     <use xlink:href="#DejaVuSans-Bold-72" x="538.769531"/>
     <use xlink:href="#DejaVuSans-Bold-74" x="588.085938"/>
     <use xlink:href="#DejaVuSans-Bold-65" x="635.888672"/>
     <use xlink:href="#DejaVuSans-Bold-20" x="703.710938"/>
     <use xlink:href="#DejaVuSans-Bold-43" x="738.525391"/>
     <use xlink:href="#DejaVuSans-Bold-46" x="811.914062"/>
     <use xlink:href="#DejaVuSans-Bold-29" x="880.224609"/>
    </g>
   </g>
   <g id="text_29">
    <g id="patch_8">
     <path d="M 541.27125 403.374844 
L 595.755625 403.374844 
Q 599.255625 403.374844 599.255625 399.874844 
L 599.255625 367.801094 
Q 599.255625 364.301094 595.755625 364.301094 
L 541.27125 364.301094 
Q 537.77125 364.301094 537.77125 367.801094 
L 537.77125 399.874844 
Q 537.77125 403.374844 541.27125 403.374844 
z
" style="fill: #ffffff; opacity: 0.97; stroke: #bdc3c7; stroke-width: 0.8; stroke-linejoin: miter"/>
    </g>
    <!-- P &lt; CVMe -->
    <g style="fill: #c0392b" transform="translate(541.27125 375.399531) scale(0.1 -0.1)">
     <use xlink:href="#DejaVuSans-Bold-50"/>
     <use xlink:href="#DejaVuSans-Bold-20" x="73.291016"/>
     <use xlink:href="#DejaVuSans-Bold-3c" x="108.105469"/>
     <use xlink:href="#DejaVuSans-Bold-20" x="191.894531"/>
     <use xlink:href="#DejaVuSans-Bold-43" x="226.708984"/>
     <use xlink:href="#DejaVuSans-Bold-56" x="300.097656"/>
     <use xlink:href="#DejaVuSans-Bold-4d" x="377.490234"/>
     <use xlink:href="#DejaVuSans-Bold-65" x="477.001953"/>
    </g>
    <!-- cerrar -->
    <g style="fill: #c0392b" transform="translate(541.27125 386.597344) scale(0.1 -0.1)">
     <use xlink:href="#DejaVuSans-Bold-63"/>
     <use xlink:href="#DejaVuSans-Bold-65" x="59.277344"/>
     <use xlink:href="#DejaVuSans-Bold-72" x="127.099609"/>
     <use xlink:href="#DejaVuSans-Bold-72" x="176.416016"/>
     <use xlink:href="#DejaVuSans-Bold-61" x="225.732422"/>
     <use xlink:href="#DejaVuSans-Bold-72" x="293.212891"/>
    </g>
    <!-- q* = 0 -->
    <g style="fill: #c0392b" transform="translate(541.27125 397.795156) scale(0.1 -0.1)">
     <defs>
      <path id="DejaVuSans-Bold-2a" d="M 3219 3803 
L 2188 3263 
L 3219 2719 
L 2981 2278 
L 1941 2853 
L 1941 1778 
L 1409 1778 
L 1409 2853 
L 366 2278 
L 128 2719 
L 1172 3263 
L 128 3803 
L 366 4244 
L 1409 3675 
L 1409 4750 
L 1941 4750 
L 1941 3675 
L 2981 4244 
L 3219 3803 
z
" transform="scale(0.015625)"/>
      <path id="DejaVuSans-Bold-3d" d="M 678 3084 
L 4684 3084 
L 4684 2350 
L 678 2350 
L 678 3084 
z
M 678 1663 
L 4684 1663 
L 4684 922 
L 678 922 
L 678 1663 
z
" transform="scale(0.015625)"/>
     </defs>
     <use xlink:href="#DejaVuSans-Bold-71"/>
     <use xlink:href="#DejaVuSans-Bold-2a" x="71.582031"/>
     <use xlink:href="#DejaVuSans-Bold-20" x="123.876953"/>
     <use xlink:href="#DejaVuSans-Bold-3d" x="158.691406"/>
     <use xlink:href="#DejaVuSans-Bold-20" x="242.480469"/>
     <use xlink:href="#DejaVuSans-Bold-30" x="277.294922"/>
    </g>
   </g>
  </g>
 </g>
 <defs>
  <clipPath id="pe705e20f87">
   <rect x="85.18375" y="51.197969" width="613.8" height="388.08"/>
  </clipPath>
 </defs>
</svg>
