<?xml version="1.0" encoding="utf-8" standalone="no"?>
<!DOCTYPE svg PUBLIC "-//W3C//DTD SVG 1.1//EN"
  "http://www.w3.org/Graphics/SVG/1.1/DTD/svg11.dtd">
<svg xmlns:xlink="http://www.w3.org/1999/xlink" width="788.834549pt" height="446.962018pt" viewBox="0 0 788.834549 446.962018" xmlns="http://www.w3.org/2000/svg" version="1.1">
 <metadata>
  <rdf:RDF xmlns:dc="http://purl.org/dc/elements/1.1/" xmlns:cc="http://creativecommons.org/ns#" xmlns:rdf="http://www.w3.org/1999/02/22-rdf-syntax-ns#">
   <cc:Work>
    <dc:type rdf:resource="http://purl.org/dc/dcmitype/StillImage"/>
    <dc:date>2026-04-28T17:41:35.194957</dc:date>
    <dc:format>image/svg+xml</dc:format>
    <dc:creator>
     <cc:Agent>
      <dc:title>Matplotlib v3.9.2, https://matplotlib.org/</dc:title>
     </cc:Agent>
    </dc:creator>
   </cc:Work>
  </rdf:RDF>
 </metadata>
 <defs>
  <style type="text/css">*{stroke-linejoin: round; stroke-linecap: butt}</style>
 </defs>
 <g id="figure_1">
  <g id="patch_1">
   <path d="M 0 446.962018 
L 788.834549 446.962018 
L 788.834549 0 
L 0 0 
z
" style="fill: #ffffff"/>
  </g>
  <g id="axes_1">
   <g id="patch_2">
    <path d="M 32.999643 411.037969 
L 646.799643 411.037969 
L 646.799643 50.677969 
L 32.999643 50.677969 
z
" style="fill: #ffffff"/>
   </g>
   <g id="matplotlib.axis_1">
    <g id="xtick_1">
     <g id="line2d_1">
      <path d="M 48.9425 411.037969 
L 48.9425 50.677969 
" clip-path="url(#p8d58a947da)" style="fill: none; stroke-dasharray: 0.8,1.32; stroke-dashoffset: 0; stroke: #b0b0b0; stroke-opacity: 0.4; stroke-width: 0.8"/>
     </g>
     <g id="line2d_2">
      <defs>
       <path id="m72efcfe7a9" d="M 0 0 
L 0 -4 
" style="stroke: #000000"/>
      </defs>
      <g>
       <use xlink:href="#m72efcfe7a9" x="48.9425" y="395.370143" style="stroke: #000000"/>
      </g>
     </g>
     <g id="text_1">
      <!-- 0 -->
      <g transform="translate(45.76125 406.46858) scale(0.1 -0.1)">
       <defs>
        <path id="DejaVuSans-30" d="M 2034 4250 
Q 1547 4250 1301 3770 
Q 1056 3291 1056 2328 
Q 1056 1369 1301 889 
Q 1547 409 2034 409 
Q 2525 409 2770 889 
Q 3016 1369 3016 2328 
Q 3016 3291 2770 3770 
Q 2525 4250 2034 4250 
z
M 2034 4750 
Q 2819 4750 3233 4129 
Q 3647 3509 3647 2328 
Q 3647 1150 3233 529 
Q 2819 -91 2034 -91 
Q 1250 -91 836 529 
Q 422 1150 422 2328 
Q 422 3509 836 4129 
Q 1250 4750 2034 4750 
z
" transform="scale(0.015625)"/>
       </defs>
       <use xlink:href="#DejaVuSans-30"/>
      </g>
     </g>
    </g>
    <g id="xtick_2">
     <g id="line2d_3">
      <path d="M 128.656786 411.037969 
L 128.656786 50.677969 
" clip-path="url(#p8d58a947da)" style="fill: none; stroke-dasharray: 0.8,1.32; stroke-dashoffset: 0; stroke: #b0b0b0; stroke-opacity: 0.4; stroke-width: 0.8"/>
     </g>
     <g id="line2d_4">
      <g>
       <use xlink:href="#m72efcfe7a9" x="128.656786" y="395.370143" style="stroke: #000000"/>
      </g>
     </g>
     <g id="text_2">
      <!-- 2 -->
      <g transform="translate(125.475536 406.46858) scale(0.1 -0.1)">
       <defs>
        <path id="DejaVuSans-32" d="M 1228 531 
L 3431 531 
L 3431 0 
L 469 0 
L 469 531 
Q 828 903 1448 1529 
Q 2069 2156 2228 2338 
Q 2531 2678 2651 2914 
Q 2772 3150 2772 3378 
Q 2772 3750 2511 3984 
Q 2250 4219 1831 4219 
Q 1534 4219 1204 4116 
Q 875 4013 500 3803 
L 500 4441 
Q 881 4594 1212 4672 
Q 1544 4750 1819 4750 
Q 2544 4750 2975 4387 
Q 3406 4025 3406 3419 
Q 3406 3131 3298 2873 
Q 3191 2616 2906 2266 
Q 2828 2175 2409 1742 
Q 1991 1309 1228 531 
z
" transform="scale(0.015625)"/>
       </defs>
       <use xlink:href="#DejaVuSans-32"/>
      </g>
     </g>
    </g>
    <g id="xtick_3">
     <g id="line2d_5">
      <path d="M 208.371071 411.037969 
L 208.371071 50.677969 
" clip-path="url(#p8d58a947da)" style="fill: none; stroke-dasharray: 0.8,1.32; stroke-dashoffset: 0; stroke: #b0b0b0; stroke-opacity: 0.4; stroke-width: 0.8"/>
     </g>
     <g id="line2d_6">
      <g>
       <use xlink:href="#m72efcfe7a9" x="208.371071" y="395.370143" style="stroke: #000000"/>
      </g>
     </g>
     <g id="text_3">
      <!-- 4 -->
      <g transform="translate(205.189821 406.46858) scale(0.1 -0.1)">
       <defs>
        <path id="DejaVuSans-34" d="M 2419 4116 
L 825 1625 
L 2419 1625 
L 2419 4116 
z
M 2253 4666 
L 3047 4666 
L 3047 1625 
L 3713 1625 
L 3713 1100 
L 3047 1100 
L 3047 0 
L 2419 0 
L 2419 1100 
L 313 1100 
L 313 1709 
L 2253 4666 
z
" transform="scale(0.015625)"/>
       </defs>
       <use xlink:href="#DejaVuSans-34"/>
      </g>
     </g>
    </g>
    <g id="xtick_4">
     <g id="line2d_7">
      <path d="M 288.085357 411.037969 
L 288.085357 50.677969 
" clip-path="url(#p8d58a947da)" style="fill: none; stroke-dasharray: 0.8,1.32; stroke-dashoffset: 0; stroke: #b0b0b0; stroke-opacity: 0.4; stroke-width: 0.8"/>
     </g>
     <g id="line2d_8">
      <g>
       <use xlink:href="#m72efcfe7a9" x="288.085357" y="395.370143" style="stroke: #000000"/>
      </g>
     </g>
     <g id="text_4">
      <!-- 6 -->
      <g transform="translate(284.904107 406.46858) scale(0.1 -0.1)">
       <defs>
        <path id="DejaVuSans-36" d="M 2113 2584 
Q 1688 2584 1439 2293 
Q 1191 2003 1191 1497 
Q 1191 994 1439 701 
Q 1688 409 2113 409 
Q 2538 409 2786 701 
Q 3034 994 3034 1497 
Q 3034 2003 2786 2293 
Q 2538 2584 2113 2584 
z
M 3366 4563 
L 3366 3988 
Q 3128 4100 2886 4159 
Q 2644 4219 2406 4219 
Q 1781 4219 1451 3797 
Q 1122 3375 1075 2522 
Q 1259 2794 1537 2939 
Q 1816 3084 2150 3084 
Q 2853 3084 3261 2657 
Q 3669 2231 3669 1497 
Q 3669 778 3244 343 
Q 2819 -91 2113 -91 
Q 1303 -91 875 529 
Q 447 1150 447 2328 
Q 447 3434 972 4092 
Q 1497 4750 2381 4750 
Q 2619 4750 2861 4703 
Q 3103 4656 3366 4563 
z
" transform="scale(0.015625)"/>
       </defs>
       <use xlink:href="#DejaVuSans-36"/>
      </g>
     </g>
    </g>
    <g id="xtick_5">
     <g id="line2d_9">
      <path d="M 367.799643 411.037969 
L 367.799643 50.677969 
" clip-path="url(#p8d58a947da)" style="fill: none; stroke-dasharray: 0.8,1.32; stroke-dashoffset: 0; stroke: #b0b0b0; stroke-opacity: 0.4; stroke-width: 0.8"/>
     </g>
     <g id="line2d_10">
      <g>
       <use xlink:href="#m72efcfe7a9" x="367.799643" y="395.370143" style="stroke: #000000"/>
      </g>
     </g>
     <g id="text_5">
      <!-- 8 -->
      <g transform="translate(364.618393 406.46858) scale(0.1 -0.1)">
       <defs>
        <path id="DejaVuSans-38" d="M 2034 2216 
Q 1584 2216 1326 1975 
Q 1069 1734 1069 1313 
Q 1069 891 1326 650 
Q 1584 409 2034 409 
Q 2484 409 2743 651 
Q 3003 894 3003 1313 
Q 3003 1734 2745 1975 
Q 2488 2216 2034 2216 
z
M 1403 2484 
Q 997 2584 770 2862 
Q 544 3141 544 3541 
Q 544 4100 942 4425 
Q 1341 4750 2034 4750 
Q 2731 4750 3128 4425 
Q 3525 4100 3525 3541 
Q 3525 3141 3298 2862 
Q 3072 2584 2669 2484 
Q 3125 2378 3379 2068 
Q 3634 1759 3634 1313 
Q 3634 634 3220 271 
Q 2806 -91 2034 -91 
Q 1263 -91 848 271 
Q 434 634 434 1313 
Q 434 1759 690 2068 
Q 947 2378 1403 2484 
z
M 1172 3481 
Q 1172 3119 1398 2916 
Q 1625 2713 2034 2713 
Q 2441 2713 2670 2916 
Q 2900 3119 2900 3481 
Q 2900 3844 2670 4047 
Q 2441 4250 2034 4250 
Q 1625 4250 1398 4047 
Q 1172 3844 1172 3481 
z
" transform="scale(0.015625)"/>
       </defs>
       <use xlink:href="#DejaVuSans-38"/>
      </g>
     </g>
    </g>
    <g id="xtick_6">
     <g id="line2d_11">
      <path d="M 447.513929 411.037969 
L 447.513929 50.677969 
" clip-path="url(#p8d58a947da)" style="fill: none; stroke-dasharray: 0.8,1.32; stroke-dashoffset: 0; stroke: #b0b0b0; stroke-opacity: 0.4; stroke-width: 0.8"/>
     </g>
     <g id="line2d_12">
      <g>
       <use xlink:href="#m72efcfe7a9" x="447.513929" y="395.370143" style="stroke: #000000"/>
      </g>
     </g>
     <g id="text_6">
      <!-- 10 -->
      <g transform="translate(441.151429 406.46858) scale(0.1 -0.1)">
       <defs>
        <path id="DejaVuSans-31" d="M 794 531 
L 1825 531 
L 1825 4091 
L 703 3866 
L 703 4441 
L 1819 4666 
L 2450 4666 
L 2450 531 
L 3481 531 
L 3481 0 
L 794 0 
L 794 531 
z
" transform="scale(0.015625)"/>
       </defs>
       <use xlink:href="#DejaVuSans-31"/>
       <use xlink:href="#DejaVuSans-30" x="63.623047"/>
      </g>
     </g>
    </g>
    <g id="xtick_7">
     <g id="line2d_13">
      <path d="M 527.228214 411.037969 
L 527.228214 50.677969 
" clip-path="url(#p8d58a947da)" style="fill: none; stroke-dasharray: 0.8,1.32; stroke-dashoffset: 0; stroke: #b0b0b0; stroke-opacity: 0.4; stroke-width: 0.8"/>
     </g>
     <g id="line2d_14">
      <g>
       <use xlink:href="#m72efcfe7a9" x="527.228214" y="395.370143" style="stroke: #000000"/>
      </g>
     </g>
     <g id="text_7">
      <!-- 12 -->
      <g transform="translate(520.865714 406.46858) scale(0.1 -0.1)">
       <use xlink:href="#DejaVuSans-31"/>
       <use xlink:href="#DejaVuSans-32" x="63.623047"/>
      </g>
     </g>
    </g>
    <g id="xtick_8">
     <g id="line2d_15">
      <path d="M 606.9425 411.037969 
L 606.9425 50.677969 
" clip-path="url(#p8d58a947da)" style="fill: none; stroke-dasharray: 0.8,1.32; stroke-dashoffset: 0; stroke: #b0b0b0; stroke-opacity: 0.4; stroke-width: 0.8"/>
     </g>
     <g id="line2d_16">
      <g>
       <use xlink:href="#m72efcfe7a9" x="606.9425" y="395.370143" style="stroke: #000000"/>
      </g>
     </g>
     <g id="text_8">
      <!-- 14 -->
      <g transform="translate(600.58 406.46858) scale(0.1 -0.1)">
       <use xlink:href="#DejaVuSans-31"/>
       <use xlink:href="#DejaVuSans-34" x="63.623047"/>
      </g>
     </g>
    </g>
    <g id="text_9">
     <!-- M -->
     <g transform="translate(634.857768 415.666393) scale(0.12 -0.12)">
      <defs>
       <path id="DejaVuSans-Bold-4d" d="M 588 4666 
L 2119 4666 
L 3181 2169 
L 4250 4666 
L 5778 4666 
L 5778 0 
L 4641 0 
L 4641 3413 
L 3566 897 
L 2803 897 
L 1728 3413 
L 1728 0 
L 588 0 
L 588 4666 
z
" transform="scale(0.015625)"/>
      </defs>
      <use xlink:href="#DejaVuSans-Bold-4d"/>
     </g>
    </g>
   </g>
   <g id="matplotlib.axis_2">
    <g id="ytick_1">
     <g id="line2d_17">
      <path d="M 32.999643 395.370143 
L 646.799643 395.370143 
" clip-path="url(#p8d58a947da)" style="fill: none; stroke-dasharray: 0.8,1.32; stroke-dashoffset: 0; stroke: #b0b0b0; stroke-opacity: 0.4; stroke-width: 0.8"/>
     </g>
     <g id="line2d_18">
      <defs>
       <path id="m617178ff6b" d="M 0 0 
L 4 0 
" style="stroke: #000000"/>
      </defs>
      <g>
       <use xlink:href="#m617178ff6b" x="48.9425" y="395.370143" style="stroke: #000000"/>
      </g>
     </g>
     <g id="text_10">
      <!-- 0 -->
      <g transform="translate(39.08 399.169361) scale(0.1 -0.1)">
       <use xlink:href="#DejaVuSans-30"/>
      </g>
     </g>
    </g>
    <g id="ytick_2">
     <g id="line2d_19">
      <path d="M 32.999643 332.698838 
L 646.799643 332.698838 
" clip-path="url(#p8d58a947da)" style="fill: none; stroke-dasharray: 0.8,1.32; stroke-dashoffset: 0; stroke: #b0b0b0; stroke-opacity: 0.4; stroke-width: 0.8"/>
     </g>
     <g id="line2d_20">
      <g>
       <use xlink:href="#m617178ff6b" x="48.9425" y="332.698838" style="stroke: #000000"/>
      </g>
     </g>
     <g id="text_11">
      <!-- 2 -->
      <g transform="translate(39.08 336.498057) scale(0.1 -0.1)">
       <use xlink:href="#DejaVuSans-32"/>
      </g>
     </g>
    </g>
    <g id="ytick_3">
     <g id="line2d_21">
      <path d="M 32.999643 270.027534 
L 646.799643 270.027534 
" clip-path="url(#p8d58a947da)" style="fill: none; stroke-dasharray: 0.8,1.32; stroke-dashoffset: 0; stroke: #b0b0b0; stroke-opacity: 0.4; stroke-width: 0.8"/>
     </g>
     <g id="line2d_22">
      <g>
       <use xlink:href="#m617178ff6b" x="48.9425" y="270.027534" style="stroke: #000000"/>
      </g>
     </g>
     <g id="text_12">
      <!-- 4 -->
      <g transform="translate(39.08 273.826753) scale(0.1 -0.1)">
       <use xlink:href="#DejaVuSans-34"/>
      </g>
     </g>
    </g>
    <g id="ytick_4">
     <g id="line2d_23">
      <path d="M 32.999643 207.35623 
L 646.799643 207.35623 
" clip-path="url(#p8d58a947da)" style="fill: none; stroke-dasharray: 0.8,1.32; stroke-dashoffset: 0; stroke: #b0b0b0; stroke-opacity: 0.4; stroke-width: 0.8"/>
     </g>
     <g id="line2d_24">
      <g>
       <use xlink:href="#m617178ff6b" x="48.9425" y="207.35623" style="stroke: #000000"/>
      </g>
     </g>
     <g id="text_13">
      <!-- 6 -->
      <g transform="translate(39.08 211.155448) scale(0.1 -0.1)">
       <use xlink:href="#DejaVuSans-36"/>
      </g>
     </g>
    </g>
    <g id="ytick_5">
     <g id="line2d_25">
      <path d="M 32.999643 144.684925 
L 646.799643 144.684925 
" clip-path="url(#p8d58a947da)" style="fill: none; stroke-dasharray: 0.8,1.32; stroke-dashoffset: 0; stroke: #b0b0b0; stroke-opacity: 0.4; stroke-width: 0.8"/>
     </g>
     <g id="line2d_26">
      <g>
       <use xlink:href="#m617178ff6b" x="48.9425" y="144.684925" style="stroke: #000000"/>
      </g>
     </g>
     <g id="text_14">
      <!-- 8 -->
      <g transform="translate(39.08 148.484144) scale(0.1 -0.1)">
       <use xlink:href="#DejaVuSans-38"/>
      </g>
     </g>
    </g>
    <g id="ytick_6">
     <g id="line2d_27">
      <path d="M 32.999643 82.013621 
L 646.799643 82.013621 
" clip-path="url(#p8d58a947da)" style="fill: none; stroke-dasharray: 0.8,1.32; stroke-dashoffset: 0; stroke: #b0b0b0; stroke-opacity: 0.4; stroke-width: 0.8"/>
     </g>
     <g id="line2d_28">
      <g>
       <use xlink:href="#m617178ff6b" x="48.9425" y="82.013621" style="stroke: #000000"/>
      </g>
     </g>
     <g id="text_15">
      <!-- 10 -->
      <g transform="translate(32.7175 85.81284) scale(0.1 -0.1)">
       <use xlink:href="#DejaVuSans-31"/>
       <use xlink:href="#DejaVuSans-30" x="63.623047"/>
      </g>
     </g>
    </g>
    <g id="text_16">
     <!-- r -->
     <g transform="translate(28.8 48.182344) scale(0.12 -0.12)">
      <defs>
       <path id="DejaVuSans-Bold-72" d="M 3138 2547 
Q 2991 2616 2845 2648 
Q 2700 2681 2553 2681 
Q 2122 2681 1889 2404 
Q 1656 2128 1656 1613 
L 1656 0 
L 538 0 
L 538 3500 
L 1656 3500 
L 1656 2925 
Q 1872 3269 2151 3426 
Q 2431 3584 2822 3584 
Q 2878 3584 2943 3579 
Q 3009 3575 3134 3559 
L 3138 2547 
z
" transform="scale(0.015625)"/>
      </defs>
      <use xlink:href="#DejaVuSans-Bold-72"/>
     </g>
    </g>
   </g>
   <g id="line2d_29">
    <path d="M 80.477445 -1 
L 81.468061 11.379979 
L 83.267631 31.511502 
L 85.067201 49.637301 
L 86.866771 66.042902 
L 88.666341 80.962089 
L 90.465911 94.58812 
L 92.265481 107.082143 
L 94.065051 118.579596 
L 95.864621 129.195143 
L 97.664191 139.026504 
L 99.463761 148.157478 
L 101.263331 156.660334 
L 103.062901 164.597729 
L 106.662041 178.987695 
L 110.261181 191.688404 
L 113.860321 202.98082 
L 117.459461 213.086874 
L 121.058601 222.184191 
L 124.657741 230.416622 
L 128.256881 237.901907 
L 131.856021 244.737345 
L 135.455161 251.004041 
L 139.054301 256.770143 
L 142.653441 262.093329 
L 146.252581 267.022745 
L 149.851721 271.600526 
L 153.450861 275.863 
L 157.050001 279.841659 
L 160.649141 283.563937 
L 164.248281 287.053842 
L 169.646991 291.89847 
L 175.045701 296.328282 
L 180.444411 300.39437 
L 185.843121 304.139763 
L 191.241831 307.600962 
L 196.640541 310.809132 
L 202.039251 313.791039 
L 207.437961 316.569806 
L 214.636241 319.993152 
L 221.834521 323.131438 
L 229.032801 326.018847 
L 236.231081 328.684306 
L 245.228931 331.741212 
L 254.226781 334.530143 
L 263.224631 337.084855 
L 272.222481 339.433665 
L 283.019901 342.013878 
L 293.817321 344.36655 
L 306.414311 346.861937 
L 319.011301 349.124536 
L 333.407861 351.464988 
L 347.804421 353.579955 
L 364.000551 355.728256 
L 381.996251 357.870203 
L 399.991951 359.792546 
L 419.78722 361.691638 
L 441.38206 363.544871 
L 464.77647 365.335329 
L 491.77002 367.166169 
L 520.56314 368.888062 
L 552.9554 370.590032 
L 587.14723 372.164297 
L 606.9425 372.987534 
L 606.9425 372.987534 
" clip-path="url(#p8d58a947da)" style="fill: none; stroke: #c0392b; stroke-width: 3; stroke-linecap: square"/>
   </g>
   <g id="line2d_30">
    <path d="M 99.361539 -1 
L 99.463761 -0.170121 
L 101.263331 13.434448 
L 103.062901 26.134281 
L 106.662041 49.158226 
L 110.261181 69.47936 
L 113.860321 87.547227 
L 117.459461 103.716913 
L 121.058601 118.27262 
L 124.657741 131.444509 
L 128.256881 143.420966 
L 131.856021 154.357667 
L 135.455161 164.38438 
L 139.054301 173.610143 
L 142.653441 182.127241 
L 146.252581 190.014307 
L 149.851721 197.338756 
L 153.450861 204.158714 
L 157.050001 210.524569 
L 160.649141 216.480214 
L 164.248281 222.064062 
L 167.847421 227.309874 
L 171.446561 232.247444 
L 175.045701 236.903166 
L 178.644841 241.300502 
L 184.043551 247.457207 
L 189.442261 253.140769 
L 194.840971 258.403711 
L 200.239681 263.291059 
L 205.638391 267.841636 
L 211.037101 272.08909 
L 216.435811 276.062733 
L 221.834521 279.788215 
L 227.233231 283.288079 
L 234.431511 287.637653 
L 241.629791 291.662249 
L 248.828071 295.396978 
L 256.026351 298.872067 
L 263.224631 302.113682 
L 270.422911 305.144587 
L 279.420761 308.666985 
L 288.418611 311.924688 
L 297.416461 314.946452 
L 306.414311 317.757013 
L 317.211731 320.880821 
L 328.009151 323.762901 
L 338.806571 326.430267 
L 351.403561 329.301496 
L 364.000551 331.943123 
L 378.397111 334.714767 
L 392.793671 337.254322 
L 408.989801 339.868565 
L 425.18593 342.257739 
L 443.18163 344.682143 
L 462.9769 347.105571 
L 482.77217 349.307841 
L 504.36701 351.491975 
L 527.76142 353.6358 
L 552.9554 355.721965 
L 579.94895 357.737468 
L 606.9425 359.557969 
L 606.9425 359.557969 
" clip-path="url(#p8d58a947da)" style="fill: none; stroke-dasharray: 11.1,4.8; stroke-dashoffset: 0; stroke: #c0392b; stroke-width: 3"/>
   </g>
   <g id="line2d_31">
    <path d="M 248.228214 411.037969 
L 248.228214 50.677969 
" clip-path="url(#p8d58a947da)" style="fill: none; stroke: #2980b9; stroke-width: 3; stroke-linecap: square"/>
   </g>
   <g id="line2d_32">
    <path d="M 367.799643 411.037969 
L 367.799643 50.677969 
" clip-path="url(#p8d58a947da)" style="fill: none; stroke-dasharray: 11.1,4.8; stroke-dashoffset: 0; stroke: #3498db; stroke-width: 3"/>
   </g>
   <g id="line2d_33">
    <path d="M 48.9425 332.698838 
L 387.728214 332.698838 
" clip-path="url(#p8d58a947da)" style="fill: none; stroke-dasharray: 1,1.65; stroke-dashoffset: 0; stroke: #808080"/>
   </g>
   <g id="line2d_34">
    <defs>
     <path id="m9a713168fb" d="M 4 0 
L -4 -4 
L -4 4 
z
" style="stroke: #000000; stroke-linejoin: miter"/>
    </defs>
    <g>
     <use xlink:href="#m9a713168fb" x="646.799643" y="395.370143" style="stroke: #000000; stroke-linejoin: miter"/>
    </g>
   </g>
   <g id="line2d_35">
    <defs>
     <path id="m559dd52dd0" d="M 0 -4 
L -4 4 
L 4 4 
z
" style="stroke: #000000; stroke-linejoin: miter"/>
    </defs>
    <g>
     <use xlink:href="#m559dd52dd0" x="48.9425" y="50.677969" style="stroke: #000000; stroke-linejoin: miter"/>
    </g>
   </g>
   <g id="patch_3">
    <path d="M 48.9425 411.037969 
L 48.9425 50.677969 
" style="fill: none; stroke: #000000; stroke-width: 1.4; stroke-linejoin: miter; stroke-linecap: square"/>
   </g>
   <g id="patch_4">
    <path d="M 32.999643 395.370143 
L 646.799643 395.370143 
" style="fill: none; stroke: #000000; stroke-width: 1.4; stroke-linejoin: miter; stroke-linecap: square"/>
   </g>
   <g id="patch_5">
    <path d="M 250.20234 334.6019 
Q 308.01587 344.450039 363.625084 353.922687 
" style="fill: none; stroke: #f39c12; stroke-width: 2; stroke-linecap: round"/>
    <path d="M 359.296263 350.750731 
L 363.625084 353.922687 
L 358.490227 355.482571 
" style="fill: none; stroke: #f39c12; stroke-width: 2; stroke-linecap: round"/>
   </g>
   <g id="patch_6">
    <path d="M 367.799643 352.629797 
Q 367.799643 344.449758 367.799643 338.505787 
" style="fill: none; stroke: #27ae60; stroke-width: 2; stroke-linecap: round"/>
    <path d="M 365.399643 343.305787 
L 367.799643 338.505787 
L 370.199643 343.305787 
" style="fill: none; stroke: #27ae60; stroke-width: 2; stroke-linecap: round"/>
   </g>
   <g id="text_17">
    <!-- Neutralidad del dinero (LP): r retorna a su nivel inicial -->
    <g transform="translate(140.884877 38.677969) scale(0.13 -0.13)">
     <defs>
      <path id="DejaVuSans-Bold-4e" d="M 588 4666 
L 1931 4666 
L 3628 1466 
L 3628 4666 
L 4769 4666 
L 4769 0 
L 3425 0 
L 1728 3200 
L 1728 0 
L 588 0 
L 588 4666 
z
" transform="scale(0.015625)"/>
      <path id="DejaVuSans-Bold-65" d="M 4031 1759 
L 4031 1441 
L 1416 1441 
Q 1456 1047 1700 850 
Q 1944 653 2381 653 
Q 2734 653 3104 758 
Q 3475 863 3866 1075 
L 3866 213 
Q 3469 63 3072 -14 
Q 2675 -91 2278 -91 
Q 1328 -91 801 392 
Q 275 875 275 1747 
Q 275 2603 792 3093 
Q 1309 3584 2216 3584 
Q 3041 3584 3536 3087 
Q 4031 2591 4031 1759 
z
M 2881 2131 
Q 2881 2450 2695 2645 
Q 2509 2841 2209 2841 
Q 1884 2841 1681 2658 
Q 1478 2475 1428 2131 
L 2881 2131 
z
" transform="scale(0.015625)"/>
      <path id="DejaVuSans-Bold-75" d="M 500 1363 
L 500 3500 
L 1625 3500 
L 1625 3150 
Q 1625 2866 1622 2436 
Q 1619 2006 1619 1863 
Q 1619 1441 1641 1255 
Q 1663 1069 1716 984 
Q 1784 875 1895 815 
Q 2006 756 2150 756 
Q 2500 756 2700 1025 
Q 2900 1294 2900 1772 
L 2900 3500 
L 4019 3500 
L 4019 0 
L 2900 0 
L 2900 506 
Q 2647 200 2364 54 
Q 2081 -91 1741 -91 
Q 1134 -91 817 281 
Q 500 653 500 1363 
z
" transform="scale(0.015625)"/>
      <path id="DejaVuSans-Bold-74" d="M 1759 4494 
L 1759 3500 
L 2913 3500 
L 2913 2700 
L 1759 2700 
L 1759 1216 
Q 1759 972 1856 886 
Q 1953 800 2241 800 
L 2816 800 
L 2816 0 
L 1856 0 
Q 1194 0 917 276 
Q 641 553 641 1216 
L 641 2700 
L 84 2700 
L 84 3500 
L 641 3500 
L 641 4494 
L 1759 4494 
z
" transform="scale(0.015625)"/>
      <path id="DejaVuSans-Bold-61" d="M 2106 1575 
Q 1756 1575 1579 1456 
Q 1403 1338 1403 1106 
Q 1403 894 1545 773 
Q 1688 653 1941 653 
Q 2256 653 2472 879 
Q 2688 1106 2688 1447 
L 2688 1575 
L 2106 1575 
z
M 3816 1997 
L 3816 0 
L 2688 0 
L 2688 519 
Q 2463 200 2181 54 
Q 1900 -91 1497 -91 
Q 953 -91 614 226 
Q 275 544 275 1050 
Q 275 1666 698 1953 
Q 1122 2241 2028 2241 
L 2688 2241 
L 2688 2328 
Q 2688 2594 2478 2717 
Q 2269 2841 1825 2841 
Q 1466 2841 1156 2769 
Q 847 2697 581 2553 
L 581 3406 
Q 941 3494 1303 3539 
Q 1666 3584 2028 3584 
Q 2975 3584 3395 3211 
Q 3816 2838 3816 1997 
z
" transform="scale(0.015625)"/>
      <path id="DejaVuSans-Bold-6c" d="M 538 4863 
L 1656 4863 
L 1656 0 
L 538 0 
L 538 4863 
z
" transform="scale(0.015625)"/>
      <path id="DejaVuSans-Bold-69" d="M 538 3500 
L 1656 3500 
L 1656 0 
L 538 0 
L 538 3500 
z
M 538 4863 
L 1656 4863 
L 1656 3950 
L 538 3950 
L 538 4863 
z
" transform="scale(0.015625)"/>
      <path id="DejaVuSans-Bold-64" d="M 2919 2988 
L 2919 4863 
L 4044 4863 
L 4044 0 
L 2919 0 
L 2919 506 
Q 2688 197 2409 53 
Q 2131 -91 1766 -91 
Q 1119 -91 703 423 
Q 288 938 288 1747 
Q 288 2556 703 3070 
Q 1119 3584 1766 3584 
Q 2128 3584 2408 3439 
Q 2688 3294 2919 2988 
z
M 2181 722 
Q 2541 722 2730 984 
Q 2919 1247 2919 1747 
Q 2919 2247 2730 2509 
Q 2541 2772 2181 2772 
Q 1825 2772 1636 2509 
Q 1447 2247 1447 1747 
Q 1447 1247 1636 984 
Q 1825 722 2181 722 
z
" transform="scale(0.015625)"/>
      <path id="DejaVuSans-Bold-20" transform="scale(0.015625)"/>
      <path id="DejaVuSans-Bold-6e" d="M 4056 2131 
L 4056 0 
L 2931 0 
L 2931 347 
L 2931 1631 
Q 2931 2084 2911 2256 
Q 2891 2428 2841 2509 
Q 2775 2619 2662 2680 
Q 2550 2741 2406 2741 
Q 2056 2741 1856 2470 
Q 1656 2200 1656 1722 
L 1656 0 
L 538 0 
L 538 3500 
L 1656 3500 
L 1656 2988 
Q 1909 3294 2193 3439 
Q 2478 3584 2822 3584 
Q 3428 3584 3742 3212 
Q 4056 2841 4056 2131 
z
" transform="scale(0.015625)"/>
      <path id="DejaVuSans-Bold-6f" d="M 2203 2784 
Q 1831 2784 1636 2517 
Q 1441 2250 1441 1747 
Q 1441 1244 1636 976 
Q 1831 709 2203 709 
Q 2569 709 2762 976 
Q 2956 1244 2956 1747 
Q 2956 2250 2762 2517 
Q 2569 2784 2203 2784 
z
M 2203 3584 
Q 3106 3584 3614 3096 
Q 4122 2609 4122 1747 
Q 4122 884 3614 396 
Q 3106 -91 2203 -91 
Q 1297 -91 786 396 
Q 275 884 275 1747 
Q 275 2609 786 3096 
Q 1297 3584 2203 3584 
z
" transform="scale(0.015625)"/>
      <path id="DejaVuSans-Bold-28" d="M 2413 -844 
L 1484 -844 
Q 1006 -72 778 623 
Q 550 1319 550 2003 
Q 550 2688 779 3389 
Q 1009 4091 1484 4856 
L 2413 4856 
Q 2013 4116 1813 3408 
Q 1613 2700 1613 2009 
Q 1613 1319 1811 609 
Q 2009 -100 2413 -844 
z
" transform="scale(0.015625)"/>
      <path id="DejaVuSans-Bold-4c" d="M 588 4666 
L 1791 4666 
L 1791 909 
L 3903 909 
L 3903 0 
L 588 0 
L 588 4666 
z
" transform="scale(0.015625)"/>
      <path id="DejaVuSans-Bold-50" d="M 588 4666 
L 2584 4666 
Q 3475 4666 3951 4270 
Q 4428 3875 4428 3144 
Q 4428 2409 3951 2014 
Q 3475 1619 2584 1619 
L 1791 1619 
L 1791 0 
L 588 0 
L 588 4666 
z
M 1791 3794 
L 1791 2491 
L 2456 2491 
Q 2806 2491 2997 2661 
Q 3188 2831 3188 3144 
Q 3188 3456 2997 3625 
Q 2806 3794 2456 3794 
L 1791 3794 
z
" transform="scale(0.015625)"/>
      <path id="DejaVuSans-Bold-29" d="M 513 -844 
Q 913 -100 1113 609 
Q 1313 1319 1313 2009 
Q 1313 2700 1113 3408 
Q 913 4116 513 4856 
L 1441 4856 
Q 1916 4091 2145 3389 
Q 2375 2688 2375 2003 
Q 2375 1319 2147 623 
Q 1919 -72 1441 -844 
L 513 -844 
z
" transform="scale(0.015625)"/>
      <path id="DejaVuSans-Bold-3a" d="M 716 3500 
L 1844 3500 
L 1844 2291 
L 716 2291 
L 716 3500 
z
M 716 1209 
L 1844 1209 
L 1844 0 
L 716 0 
L 716 1209 
z
" transform="scale(0.015625)"/>
      <path id="DejaVuSans-Bold-73" d="M 3272 3391 
L 3272 2541 
Q 2913 2691 2578 2766 
Q 2244 2841 1947 2841 
Q 1628 2841 1473 2761 
Q 1319 2681 1319 2516 
Q 1319 2381 1436 2309 
Q 1553 2238 1856 2203 
L 2053 2175 
Q 2913 2066 3209 1816 
Q 3506 1566 3506 1031 
Q 3506 472 3093 190 
Q 2681 -91 1863 -91 
Q 1516 -91 1145 -36 
Q 775 19 384 128 
L 384 978 
Q 719 816 1070 734 
Q 1422 653 1784 653 
Q 2113 653 2278 743 
Q 2444 834 2444 1013 
Q 2444 1163 2330 1236 
Q 2216 1309 1875 1350 
L 1678 1375 
Q 931 1469 631 1722 
Q 331 1975 331 2491 
Q 331 3047 712 3315 
Q 1094 3584 1881 3584 
Q 2191 3584 2531 3537 
Q 2872 3491 3272 3391 
z
" transform="scale(0.015625)"/>
      <path id="DejaVuSans-Bold-76" d="M 97 3500 
L 1216 3500 
L 2088 1081 
L 2956 3500 
L 4078 3500 
L 2700 0 
L 1472 0 
L 97 3500 
z
" transform="scale(0.015625)"/>
      <path id="DejaVuSans-Bold-63" d="M 3366 3391 
L 3366 2478 
Q 3138 2634 2908 2709 
Q 2678 2784 2431 2784 
Q 1963 2784 1702 2511 
Q 1441 2238 1441 1747 
Q 1441 1256 1702 982 
Q 1963 709 2431 709 
Q 2694 709 2930 787 
Q 3166 866 3366 1019 
L 3366 103 
Q 3103 6 2833 -42 
Q 2563 -91 2291 -91 
Q 1344 -91 809 395 
Q 275 881 275 1747 
Q 275 2613 809 3098 
Q 1344 3584 2291 3584 
Q 2566 3584 2833 3536 
Q 3100 3488 3366 3391 
z
" transform="scale(0.015625)"/>
     </defs>
     <use xlink:href="#DejaVuSans-Bold-4e"/>
     <use xlink:href="#DejaVuSans-Bold-65" x="83.691406"/>
     <use xlink:href="#DejaVuSans-Bold-75" x="151.513672"/>
     <use xlink:href="#DejaVuSans-Bold-74" x="222.705078"/>
     <use xlink:href="#DejaVuSans-Bold-72" x="270.507812"/>
     <use xlink:href="#DejaVuSans-Bold-61" x="319.824219"/>
     <use xlink:href="#DejaVuSans-Bold-6c" x="387.304688"/>
     <use xlink:href="#DejaVuSans-Bold-69" x="421.582031"/>
     <use xlink:href="#DejaVuSans-Bold-64" x="455.859375"/>
     <use xlink:href="#DejaVuSans-Bold-61" x="527.441406"/>
     <use xlink:href="#DejaVuSans-Bold-64" x="594.921875"/>
     <use xlink:href="#DejaVuSans-Bold-20" x="666.503906"/>
     <use xlink:href="#DejaVuSans-Bold-64" x="701.318359"/>
     <use xlink:href="#DejaVuSans-Bold-65" x="772.900391"/>
     <use xlink:href="#DejaVuSans-Bold-6c" x="840.722656"/>
     <use xlink:href="#DejaVuSans-Bold-20" x="875"/>
     <use xlink:href="#DejaVuSans-Bold-64" x="909.814453"/>
     <use xlink:href="#DejaVuSans-Bold-69" x="981.396484"/>
     <use xlink:href="#DejaVuSans-Bold-6e" x="1015.673828"/>
     <use xlink:href="#DejaVuSans-Bold-65" x="1086.865234"/>
     <use xlink:href="#DejaVuSans-Bold-72" x="1154.6875"/>
     <use xlink:href="#DejaVuSans-Bold-6f" x="1204.003906"/>
     <use xlink:href="#DejaVuSans-Bold-20" x="1272.705078"/>
     <use xlink:href="#DejaVuSans-Bold-28" x="1307.519531"/>
     <use xlink:href="#DejaVuSans-Bold-4c" x="1353.222656"/>
     <use xlink:href="#DejaVuSans-Bold-50" x="1416.943359"/>
     <use xlink:href="#DejaVuSans-Bold-29" x="1490.234375"/>
     <use xlink:href="#DejaVuSans-Bold-3a" x="1535.9375"/>
     <use xlink:href="#DejaVuSans-Bold-20" x="1575.927734"/>
     <use xlink:href="#DejaVuSans-Bold-72" x="1610.742188"/>
     <use xlink:href="#DejaVuSans-Bold-20" x="1660.058594"/>
     <use xlink:href="#DejaVuSans-Bold-72" x="1694.873047"/>
     <use xlink:href="#DejaVuSans-Bold-65" x="1744.189453"/>
     <use xlink:href="#DejaVuSans-Bold-74" x="1812.011719"/>
     <use xlink:href="#DejaVuSans-Bold-6f" x="1859.814453"/>
     <use xlink:href="#DejaVuSans-Bold-72" x="1928.515625"/>
     <use xlink:href="#DejaVuSans-Bold-6e" x="1977.832031"/>
     <use xlink:href="#DejaVuSans-Bold-61" x="2049.023438"/>
     <use xlink:href="#DejaVuSans-Bold-20" x="2116.503906"/>
     <use xlink:href="#DejaVuSans-Bold-61" x="2151.318359"/>
     <use xlink:href="#DejaVuSans-Bold-20" x="2218.798828"/>
     <use xlink:href="#DejaVuSans-Bold-73" x="2253.613281"/>
     <use xlink:href="#DejaVuSans-Bold-75" x="2313.134766"/>
     <use xlink:href="#DejaVuSans-Bold-20" x="2384.326172"/>
     <use xlink:href="#DejaVuSans-Bold-6e" x="2419.140625"/>
     <use xlink:href="#DejaVuSans-Bold-69" x="2490.332031"/>
     <use xlink:href="#DejaVuSans-Bold-76" x="2524.609375"/>
     <use xlink:href="#DejaVuSans-Bold-65" x="2589.794922"/>
     <use xlink:href="#DejaVuSans-Bold-6c" x="2657.617188"/>
     <use xlink:href="#DejaVuSans-Bold-20" x="2691.894531"/>
     <use xlink:href="#DejaVuSans-Bold-69" x="2726.708984"/>
     <use xlink:href="#DejaVuSans-Bold-6e" x="2760.986328"/>
     <use xlink:href="#DejaVuSans-Bold-69" x="2832.177734"/>
     <use xlink:href="#DejaVuSans-Bold-63" x="2866.455078"/>
     <use xlink:href="#DejaVuSans-Bold-69" x="2925.732422"/>
     <use xlink:href="#DejaVuSans-Bold-61" x="2960.009766"/>
     <use xlink:href="#DejaVuSans-Bold-6c" x="3027.490234"/>
    </g>
   </g>
   <g id="legend_1">
    <g id="patch_7">
     <path d="M 660.875643 106.219219 
L 758.234549 106.219219 
Q 760.034549 106.219219 760.034549 104.419219 
L 760.034549 52.477969 
Q 760.034549 50.677969 758.234549 50.677969 
L 660.875643 50.677969 
Q 659.075643 50.677969 659.075643 52.477969 
L 659.075643 104.419219 
Q 659.075643 106.219219 660.875643 106.219219 
z
" style="fill: #ffffff; opacity: 0.8; stroke: #cccccc; stroke-linejoin: miter"/>
    </g>
    <g id="line2d_36">
     <path d="M 662.675643 57.966562 
L 671.675643 57.966562 
L 680.675643 57.966562 
" style="fill: none; stroke: #c0392b; stroke-width: 3; stroke-linecap: square"/>
    </g>
    <g id="text_18">
     <!-- MD₁ (P inicial) -->
     <g transform="translate(687.875643 61.116562) scale(0.09 -0.09)">
      <defs>
       <path id="DejaVuSans-4d" d="M 628 4666 
L 1569 4666 
L 2759 1491 
L 3956 4666 
L 4897 4666 
L 4897 0 
L 4281 0 
L 4281 4097 
L 3078 897 
L 2444 897 
L 1241 4097 
L 1241 0 
L 628 0 
L 628 4666 
z
" transform="scale(0.015625)"/>
       <path id="DejaVuSans-44" d="M 1259 4147 
L 1259 519 
L 2022 519 
Q 2988 519 3436 956 
Q 3884 1394 3884 2338 
Q 3884 3275 3436 3711 
Q 2988 4147 2022 4147 
L 1259 4147 
z
M 628 4666 
L 1925 4666 
Q 3281 4666 3915 4102 
Q 4550 3538 4550 2338 
Q 4550 1131 3912 565 
Q 3275 0 1925 0 
L 628 0 
L 628 4666 
z
" transform="scale(0.015625)"/>
       <path id="DejaVuSans-2081" d="M 488 319 
L 1125 319 
L 1125 2229 
L 428 2101 
L 428 2463 
L 1147 2585 
L 1575 2585 
L 1575 319 
L 2216 319 
L 2216 -24 
L 488 -24 
L 488 319 
z
" transform="scale(0.015625)"/>
       <path id="DejaVuSans-20" transform="scale(0.015625)"/>
       <path id="DejaVuSans-28" d="M 1984 4856 
Q 1566 4138 1362 3434 
Q 1159 2731 1159 2009 
Q 1159 1288 1364 580 
Q 1569 -128 1984 -844 
L 1484 -844 
Q 1016 -109 783 600 
Q 550 1309 550 2009 
Q 550 2706 781 3412 
Q 1013 4119 1484 4856 
L 1984 4856 
z
" transform="scale(0.015625)"/>
       <path id="DejaVuSans-50" d="M 1259 4147 
L 1259 2394 
L 2053 2394 
Q 2494 2394 2734 2622 
Q 2975 2850 2975 3272 
Q 2975 3691 2734 3919 
Q 2494 4147 2053 4147 
L 1259 4147 
z
M 628 4666 
L 2053 4666 
Q 2838 4666 3239 4311 
Q 3641 3956 3641 3272 
Q 3641 2581 3239 2228 
Q 2838 1875 2053 1875 
L 1259 1875 
L 1259 0 
L 628 0 
L 628 4666 
z
" transform="scale(0.015625)"/>
       <path id="DejaVuSans-69" d="M 603 3500 
L 1178 3500 
L 1178 0 
L 603 0 
L 603 3500 
z
M 603 4863 
L 1178 4863 
L 1178 4134 
L 603 4134 
L 603 4863 
z
" transform="scale(0.015625)"/>
       <path id="DejaVuSans-6e" d="M 3513 2113 
L 3513 0 
L 2938 0 
L 2938 2094 
Q 2938 2591 2744 2837 
Q 2550 3084 2163 3084 
Q 1697 3084 1428 2787 
Q 1159 2491 1159 1978 
L 1159 0 
L 581 0 
L 581 3500 
L 1159 3500 
L 1159 2956 
Q 1366 3272 1645 3428 
Q 1925 3584 2291 3584 
Q 2894 3584 3203 3211 
Q 3513 2838 3513 2113 
z
" transform="scale(0.015625)"/>
       <path id="DejaVuSans-63" d="M 3122 3366 
L 3122 2828 
Q 2878 2963 2633 3030 
Q 2388 3097 2138 3097 
Q 1578 3097 1268 2742 
Q 959 2388 959 1747 
Q 959 1106 1268 751 
Q 1578 397 2138 397 
Q 2388 397 2633 464 
Q 2878 531 3122 666 
L 3122 134 
Q 2881 22 2623 -34 
Q 2366 -91 2075 -91 
Q 1284 -91 818 406 
Q 353 903 353 1747 
Q 353 2603 823 3093 
Q 1294 3584 2113 3584 
Q 2378 3584 2631 3529 
Q 2884 3475 3122 3366 
z
" transform="scale(0.015625)"/>
       <path id="DejaVuSans-61" d="M 2194 1759 
Q 1497 1759 1228 1600 
Q 959 1441 959 1056 
Q 959 750 1161 570 
Q 1363 391 1709 391 
Q 2188 391 2477 730 
Q 2766 1069 2766 1631 
L 2766 1759 
L 2194 1759 
z
M 3341 1997 
L 3341 0 
L 2766 0 
L 2766 531 
Q 2569 213 2275 61 
Q 1981 -91 1556 -91 
Q 1019 -91 701 211 
Q 384 513 384 1019 
Q 384 1609 779 1909 
Q 1175 2209 1959 2209 
L 2766 2209 
L 2766 2266 
Q 2766 2663 2505 2880 
Q 2244 3097 1772 3097 
Q 1472 3097 1187 3025 
Q 903 2953 641 2809 
L 641 3341 
Q 956 3463 1253 3523 
Q 1550 3584 1831 3584 
Q 2591 3584 2966 3190 
Q 3341 2797 3341 1997 
z
" transform="scale(0.015625)"/>
       <path id="DejaVuSans-6c" d="M 603 4863 
L 1178 4863 
L 1178 0 
L 603 0 
L 603 4863 
z
" transform="scale(0.015625)"/>
       <path id="DejaVuSans-29" d="M 513 4856 
L 1013 4856 
Q 1481 4119 1714 3412 
Q 1947 2706 1947 2009 
Q 1947 1309 1714 600 
Q 1481 -109 1013 -844 
L 513 -844 
Q 928 -128 1133 580 
Q 1338 1288 1338 2009 
Q 1338 2731 1133 3434 
Q 928 4138 513 4856 
z
" transform="scale(0.015625)"/>
      </defs>
      <use xlink:href="#DejaVuSans-4d"/>
      <use xlink:href="#DejaVuSans-44" x="86.279297"/>
      <use xlink:href="#DejaVuSans-2081" x="163.28125"/>
      <use xlink:href="#DejaVuSans-20" x="203.369141"/>
      <use xlink:href="#DejaVuSans-28" x="235.15625"/>
      <use xlink:href="#DejaVuSans-50" x="274.169922"/>
      <use xlink:href="#DejaVuSans-20" x="334.472656"/>
      <use xlink:href="#DejaVuSans-69" x="366.259766"/>
      <use xlink:href="#DejaVuSans-6e" x="394.042969"/>
      <use xlink:href="#DejaVuSans-69" x="457.421875"/>
      <use xlink:href="#DejaVuSans-63" x="485.205078"/>
      <use xlink:href="#DejaVuSans-69" x="540.185547"/>
      <use xlink:href="#DejaVuSans-61" x="567.96875"/>
      <use xlink:href="#DejaVuSans-6c" x="629.248047"/>
      <use xlink:href="#DejaVuSans-29" x="657.03125"/>
     </g>
    </g>
    <g id="line2d_37">
     <path d="M 662.675643 71.176875 
L 671.675643 71.176875 
L 680.675643 71.176875 
" style="fill: none; stroke-dasharray: 11.1,4.8; stroke-dashoffset: 0; stroke: #c0392b; stroke-width: 3"/>
    </g>
    <g id="text_19">
     <!-- MD₂ (P↑ en LP) -->
     <g transform="translate(687.875643 74.326875) scale(0.09 -0.09)">
      <defs>
       <path id="DejaVuSans-2082" d="M 838 332 
L 2163 332 
L 2163 -24 
L 294 -24 
L 294 319 
Q 400 416 597 591 
Q 1672 1544 1672 1838 
Q 1672 2044 1509 2170 
Q 1347 2297 1081 2297 
Q 919 2297 728 2242 
Q 538 2188 313 2079 
L 313 2463 
Q 553 2551 761 2594 
Q 969 2638 1147 2638 
Q 1600 2638 1872 2432 
Q 2144 2226 2144 1888 
Q 2144 1454 1109 566 
Q 934 416 838 332 
z
" transform="scale(0.015625)"/>
       <path id="DejaVuSans-2191" d="M 2541 4688 
L 2822 4688 
L 4047 3456 
L 3672 3081 
L 2947 3813 
L 2947 0 
L 2416 0 
L 2416 3813 
L 1684 3081 
L 1309 3456 
L 2541 4688 
z
" transform="scale(0.015625)"/>
       <path id="DejaVuSans-65" d="M 3597 1894 
L 3597 1613 
L 953 1613 
Q 991 1019 1311 708 
Q 1631 397 2203 397 
Q 2534 397 2845 478 
Q 3156 559 3463 722 
L 3463 178 
Q 3153 47 2828 -22 
Q 2503 -91 2169 -91 
Q 1331 -91 842 396 
Q 353 884 353 1716 
Q 353 2575 817 3079 
Q 1281 3584 2069 3584 
Q 2775 3584 3186 3129 
Q 3597 2675 3597 1894 
z
M 3022 2063 
Q 3016 2534 2758 2815 
Q 2500 3097 2075 3097 
Q 1594 3097 1305 2825 
Q 1016 2553 972 2059 
L 3022 2063 
z
" transform="scale(0.015625)"/>
       <path id="DejaVuSans-4c" d="M 628 4666 
L 1259 4666 
L 1259 531 
L 3531 531 
L 3531 0 
L 628 0 
L 628 4666 
z
" transform="scale(0.015625)"/>
      </defs>
      <use xlink:href="#DejaVuSans-4d"/>
      <use xlink:href="#DejaVuSans-44" x="86.279297"/>
      <use xlink:href="#DejaVuSans-2082" x="163.28125"/>
      <use xlink:href="#DejaVuSans-20" x="203.369141"/>
      <use xlink:href="#DejaVuSans-28" x="235.15625"/>
      <use xlink:href="#DejaVuSans-50" x="274.169922"/>
      <use xlink:href="#DejaVuSans-2191" x="334.472656"/>
      <use xlink:href="#DejaVuSans-20" x="418.261719"/>
      <use xlink:href="#DejaVuSans-65" x="450.048828"/>
      <use xlink:href="#DejaVuSans-6e" x="511.572266"/>
      <use xlink:href="#DejaVuSans-20" x="574.951172"/>
      <use xlink:href="#DejaVuSans-4c" x="606.738281"/>
      <use xlink:href="#DejaVuSans-50" x="662.451172"/>
      <use xlink:href="#DejaVuSans-29" x="722.753906"/>
     </g>
    </g>
    <g id="line2d_38">
     <path d="M 662.675643 84.387187 
L 671.675643 84.387187 
L 680.675643 84.387187 
" style="fill: none; stroke: #2980b9; stroke-width: 3; stroke-linecap: square"/>
    </g>
    <g id="text_20">
     <!-- MS₁ -->
     <g transform="translate(687.875643 87.537187) scale(0.09 -0.09)">
      <defs>
       <path id="DejaVuSans-53" d="M 3425 4513 
L 3425 3897 
Q 3066 4069 2747 4153 
Q 2428 4238 2131 4238 
Q 1616 4238 1336 4038 
Q 1056 3838 1056 3469 
Q 1056 3159 1242 3001 
Q 1428 2844 1947 2747 
L 2328 2669 
Q 3034 2534 3370 2195 
Q 3706 1856 3706 1288 
Q 3706 609 3251 259 
Q 2797 -91 1919 -91 
Q 1588 -91 1214 -16 
Q 841 59 441 206 
L 441 856 
Q 825 641 1194 531 
Q 1563 422 1919 422 
Q 2459 422 2753 634 
Q 3047 847 3047 1241 
Q 3047 1584 2836 1778 
Q 2625 1972 2144 2069 
L 1759 2144 
Q 1053 2284 737 2584 
Q 422 2884 422 3419 
Q 422 4038 858 4394 
Q 1294 4750 2059 4750 
Q 2388 4750 2728 4690 
Q 3069 4631 3425 4513 
z
" transform="scale(0.015625)"/>
      </defs>
      <use xlink:href="#DejaVuSans-4d"/>
      <use xlink:href="#DejaVuSans-53" x="86.279297"/>
      <use xlink:href="#DejaVuSans-2081" x="149.755859"/>
     </g>
    </g>
    <g id="line2d_39">
     <path d="M 662.675643 97.5975 
L 671.675643 97.5975 
L 680.675643 97.5975 
" style="fill: none; stroke-dasharray: 11.1,4.8; stroke-dashoffset: 0; stroke: #3498db; stroke-width: 3"/>
    </g>
    <g id="text_21">
     <!-- MS₂ -->
     <g transform="translate(687.875643 100.7475) scale(0.09 -0.09)">
      <use xlink:href="#DejaVuSans-4d"/>
      <use xlink:href="#DejaVuSans-53" x="86.279297"/>
      <use xlink:href="#DejaVuSans-2082" x="149.755859"/>
     </g>
    </g>
   </g>
   <g id="line2d_40">
    <defs>
     <path id="m5f50040fa1" d="M 0 5.5 
C 1.458617 5.5 2.857689 4.920485 3.889087 3.889087 
C 4.920485 2.857689 5.5 1.458617 5.5 0 
C 5.5 -1.458617 4.920485 -2.857689 3.889087 -3.889087 
C 2.857689 -4.920485 1.458617 -5.5 0 -5.5 
C -1.458617 -5.5 -2.857689 -4.920485 -3.889087 -3.889087 
C -4.920485 -2.857689 -5.5 -1.458617 -5.5 0 
C -5.5 1.458617 -4.920485 2.857689 -3.889087 3.889087 
C -2.857689 4.920485 -1.458617 5.5 0 5.5 
z
" style="stroke: #000000"/>
    </defs>
    <g clip-path="url(#p8d58a947da)">
     <use xlink:href="#m5f50040fa1" x="248.228214" y="332.698838" style="stroke: #000000"/>
    </g>
   </g>
   <g id="line2d_41">
    <defs>
     <path id="mc5adaff596" d="M 0 5.5 
C 1.458617 5.5 2.857689 4.920485 3.889087 3.889087 
C 4.920485 2.857689 5.5 1.458617 5.5 0 
C 5.5 -1.458617 4.920485 -2.857689 3.889087 -3.889087 
C 2.857689 -4.920485 1.458617 -5.5 0 -5.5 
C -1.458617 -5.5 -2.857689 -4.920485 -3.889087 -3.889087 
C -4.920485 -2.857689 -5.5 -1.458617 -5.5 0 
C -5.5 1.458617 -4.920485 2.857689 -3.889087 3.889087 
C -2.857689 4.920485 -1.458617 5.5 0 5.5 
z
" style="stroke: #f39c12"/>
    </defs>
    <g clip-path="url(#p8d58a947da)">
     <use xlink:href="#mc5adaff596" x="367.799643" y="356.200577" style="fill: #f39c12; stroke: #f39c12"/>
    </g>
   </g>
   <g id="line2d_42">
    <defs>
     <path id="m8a37f296e4" d="M 0 5.5 
C 1.458617 5.5 2.857689 4.920485 3.889087 3.889087 
C 4.920485 2.857689 5.5 1.458617 5.5 0 
C 5.5 -1.458617 4.920485 -2.857689 3.889087 -3.889087 
C 2.857689 -4.920485 1.458617 -5.5 0 -5.5 
C -1.458617 -5.5 -2.857689 -4.920485 -3.889087 -3.889087 
C -4.920485 -2.857689 -5.5 -1.458617 -5.5 0 
C -5.5 1.458617 -4.920485 2.857689 -3.889087 3.889087 
C -2.857689 4.920485 -1.458617 5.5 0 5.5 
z
" style="stroke: #27ae60"/>
    </defs>
    <g clip-path="url(#p8d58a947da)">
     <use xlink:href="#m8a37f296e4" x="367.799643" y="332.698838" style="fill: #27ae60; stroke: #27ae60"/>
    </g>
   </g>
   <g id="patch_8">
    <path d="M 200.436612 292.478168 
Q 223.566709 311.944099 245.84139 330.690124 
" style="fill: none; stroke: #000000; stroke-linecap: round"/>
    <path d="M 243.71424 325.763134 
L 245.84139 330.690124 
L 240.623508 329.43565 
" style="fill: none; stroke: #000000; stroke-linecap: round"/>
   </g>
   <g id="text_22">
    <g id="patch_9">
     <path d="M 181.715937 292.390985 
L 195.169062 292.390985 
Q 199.369062 292.390985 199.369062 288.190985 
L 199.369062 276.577235 
Q 199.369062 272.377235 195.169062 272.377235 
L 181.715937 272.377235 
Q 177.515938 272.377235 177.515938 276.577235 
L 177.515938 288.190985 
Q 177.515938 292.390985 181.715937 292.390985 
z
" style="fill: #ffffff; opacity: 0.97; stroke: #bdc3c7; stroke-width: 0.8; stroke-linejoin: miter"/>
    </g>
    <!-- E₁ -->
    <g transform="translate(181.715937 285.69536) scale(0.12 -0.12)">
     <defs>
      <path id="DejaVuSans-Bold-45" d="M 588 4666 
L 3834 4666 
L 3834 3756 
L 1791 3756 
L 1791 2888 
L 3713 2888 
L 3713 1978 
L 1791 1978 
L 1791 909 
L 3903 909 
L 3903 0 
L 588 0 
L 588 4666 
z
" transform="scale(0.015625)"/>
      <path id="DejaVuSans-Bold-2081" d="M 441 466 
L 1088 466 
L 1088 2094 
L 384 1932 
L 384 2432 
L 1100 2585 
L 1806 2585 
L 1806 466 
L 2444 466 
L 2444 -24 
L 441 -24 
L 441 466 
z
" transform="scale(0.015625)"/>
     </defs>
     <use xlink:href="#DejaVuSans-Bold-45"/>
     <use xlink:href="#DejaVuSans-Bold-2081" x="68.310547"/>
    </g>
   </g>
   <g id="patch_10">
    <path d="M 428.144399 362.525034 
Q 398.968314 359.467223 370.904172 356.525949 
" style="fill: none; stroke: #f39c12; stroke-linecap: round"/>
    <path d="M 374.673914 358.931992 
L 370.904172 356.525949 
L 375.090852 354.953781 
" style="fill: none; stroke: #f39c12; stroke-linecap: round"/>
   </g>
   <g id="text_23">
    <g id="patch_11">
     <path d="M 433.487031 380.081656 
L 501.397969 380.081656 
Q 504.397969 380.081656 504.397969 377.081656 
L 504.397969 356.205719 
Q 504.397969 353.205719 501.397969 353.205719 
L 433.487031 353.205719 
Q 430.487031 353.205719 430.487031 356.205719 
L 430.487031 377.081656 
Q 430.487031 380.081656 433.487031 380.081656 
z
" style="fill: #fffbeb; opacity: 0.97; stroke: #f39c12; stroke-width: 0.7; stroke-linejoin: miter"/>
    </g>
    <!-- E₂ (CP) -->
    <g style="fill: #f39c12" transform="translate(448.191719 363.804156) scale(0.1 -0.1)">
     <defs>
      <path id="DejaVuSans-Bold-2082" d="M 1288 501 
L 2444 501 
L 2444 -24 
L 341 -24 
L 341 454 
L 1319 1285 
Q 1509 1451 1590 1576 
Q 1672 1701 1672 1826 
Q 1672 1982 1558 2079 
Q 1444 2176 1259 2176 
Q 1066 2176 844 2105 
Q 622 2035 359 1888 
L 359 2469 
Q 631 2554 886 2596 
Q 1141 2638 1375 2638 
Q 1869 2638 2150 2436 
Q 2431 2235 2431 1888 
Q 2431 1663 2320 1474 
Q 2209 1285 1894 1016 
L 1288 501 
z
" transform="scale(0.015625)"/>
      <path id="DejaVuSans-Bold-43" d="M 4288 256 
Q 3956 84 3597 -3 
Q 3238 -91 2847 -91 
Q 1681 -91 1000 561 
Q 319 1213 319 2328 
Q 319 3447 1000 4098 
Q 1681 4750 2847 4750 
Q 3238 4750 3597 4662 
Q 3956 4575 4288 4403 
L 4288 3438 
Q 3953 3666 3628 3772 
Q 3303 3878 2944 3878 
Q 2300 3878 1931 3465 
Q 1563 3053 1563 2328 
Q 1563 1606 1931 1193 
Q 2300 781 2944 781 
Q 3303 781 3628 887 
Q 3953 994 4288 1222 
L 4288 256 
z
" transform="scale(0.015625)"/>
     </defs>
     <use xlink:href="#DejaVuSans-Bold-45"/>
     <use xlink:href="#DejaVuSans-Bold-2082" x="68.310547"/>
     <use xlink:href="#DejaVuSans-Bold-20" x="112.109375"/>
     <use xlink:href="#DejaVuSans-Bold-28" x="146.923828"/>
     <use xlink:href="#DejaVuSans-Bold-43" x="192.626953"/>
     <use xlink:href="#DejaVuSans-Bold-50" x="266.015625"/>
     <use xlink:href="#DejaVuSans-Bold-29" x="339.306641"/>
    </g>
    <!-- ↓r temporal -->
    <g style="fill: #f39c12" transform="translate(433.487031 375.001969) scale(0.1 -0.1)">
     <defs>
      <path id="DejaVuSans-Bold-2193" d="M 2903 -22 
L 2466 -22 
L 1238 1206 
L 1691 1659 
L 2309 1041 
L 2309 4666 
L 3059 4666 
L 3059 1041 
L 3678 1659 
L 4131 1206 
L 2903 -22 
z
" transform="scale(0.015625)"/>
      <path id="DejaVuSans-Bold-6d" d="M 3781 2919 
Q 3994 3244 4286 3414 
Q 4578 3584 4928 3584 
Q 5531 3584 5847 3212 
Q 6163 2841 6163 2131 
L 6163 0 
L 5038 0 
L 5038 1825 
Q 5041 1866 5042 1909 
Q 5044 1953 5044 2034 
Q 5044 2406 4934 2573 
Q 4825 2741 4581 2741 
Q 4263 2741 4089 2478 
Q 3916 2216 3909 1719 
L 3909 0 
L 2784 0 
L 2784 1825 
Q 2784 2406 2684 2573 
Q 2584 2741 2328 2741 
Q 2006 2741 1831 2477 
Q 1656 2213 1656 1722 
L 1656 0 
L 531 0 
L 531 3500 
L 1656 3500 
L 1656 2988 
Q 1863 3284 2130 3434 
Q 2397 3584 2719 3584 
Q 3081 3584 3359 3409 
Q 3638 3234 3781 2919 
z
" transform="scale(0.015625)"/>
      <path id="DejaVuSans-Bold-70" d="M 1656 506 
L 1656 -1331 
L 538 -1331 
L 538 3500 
L 1656 3500 
L 1656 2988 
Q 1888 3294 2169 3439 
Q 2450 3584 2816 3584 
Q 3463 3584 3878 3070 
Q 4294 2556 4294 1747 
Q 4294 938 3878 423 
Q 3463 -91 2816 -91 
Q 2450 -91 2169 54 
Q 1888 200 1656 506 
z
M 2400 2772 
Q 2041 2772 1848 2508 
Q 1656 2244 1656 1747 
Q 1656 1250 1848 986 
Q 2041 722 2400 722 
Q 2759 722 2948 984 
Q 3138 1247 3138 1747 
Q 3138 2247 2948 2509 
Q 2759 2772 2400 2772 
z
" transform="scale(0.015625)"/>
     </defs>
     <use xlink:href="#DejaVuSans-Bold-2193"/>
     <use xlink:href="#DejaVuSans-Bold-72" x="83.789062"/>
     <use xlink:href="#DejaVuSans-Bold-20" x="133.105469"/>
     <use xlink:href="#DejaVuSans-Bold-74" x="167.919922"/>
     <use xlink:href="#DejaVuSans-Bold-65" x="215.722656"/>
     <use xlink:href="#DejaVuSans-Bold-6d" x="283.544922"/>
     <use xlink:href="#DejaVuSans-Bold-70" x="387.744141"/>
     <use xlink:href="#DejaVuSans-Bold-6f" x="459.326172"/>
     <use xlink:href="#DejaVuSans-Bold-72" x="528.027344"/>
     <use xlink:href="#DejaVuSans-Bold-61" x="577.34375"/>
     <use xlink:href="#DejaVuSans-Bold-6c" x="644.824219"/>
    </g>
   </g>
   <g id="patch_12">
    <path d="M 441.369472 291.823303 
Q 405.459052 311.775199 370.525951 331.184096 
" style="fill: none; stroke: #27ae60; stroke-linecap: round"/>
    <path d="M 374.993859 330.989681 
L 370.525951 331.184096 
L 373.051164 327.493121 
" style="fill: none; stroke: #27ae60; stroke-linecap: round"/>
   </g>
   <g id="text_24">
    <g id="patch_13">
     <path d="M 444.66125 290.775048 
L 490.22375 290.775048 
Q 493.22375 290.775048 493.22375 287.775048 
L 493.22375 266.89911 
Q 493.22375 263.89911 490.22375 263.89911 
L 444.66125 263.89911 
Q 441.66125 263.89911 441.66125 266.89911 
L 441.66125 287.775048 
Q 441.66125 290.775048 444.66125 290.775048 
z
" style="fill: #fffbeb; opacity: 0.97; stroke: #f39c12; stroke-width: 0.7; stroke-linejoin: miter"/>
    </g>
    <!-- E₃ (LP) -->
    <g style="fill: #27ae60" transform="translate(448.675313 274.497548) scale(0.1 -0.1)">
     <defs>
      <path id="DejaVuSans-Bold-2083" d="M 1850 1388 
Q 2138 1332 2297 1160 
Q 2456 988 2456 735 
Q 2456 332 2147 130 
Q 1838 -71 1209 -71 
Q 956 -71 725 -35 
Q 494 1 281 69 
L 281 613 
Q 488 501 688 443 
Q 888 385 1075 385 
Q 1372 385 1534 485 
Q 1697 585 1697 769 
Q 1697 969 1530 1064 
Q 1363 1160 1006 1160 
L 775 1160 
L 775 1588 
L 1038 1588 
Q 1344 1588 1484 1661 
Q 1625 1735 1625 1894 
Q 1625 2035 1503 2105 
Q 1381 2176 1131 2176 
Q 969 2176 776 2135 
Q 584 2094 366 2010 
L 366 2529 
Q 569 2582 805 2610 
Q 1041 2638 1313 2638 
Q 1834 2638 2111 2463 
Q 2388 2288 2388 1960 
Q 2388 1744 2247 1594 
Q 2106 1444 1850 1388 
z
" transform="scale(0.015625)"/>
     </defs>
     <use xlink:href="#DejaVuSans-Bold-45"/>
     <use xlink:href="#DejaVuSans-Bold-2083" x="68.310547"/>
     <use xlink:href="#DejaVuSans-Bold-20" x="112.109375"/>
     <use xlink:href="#DejaVuSans-Bold-28" x="146.923828"/>
     <use xlink:href="#DejaVuSans-Bold-4c" x="192.626953"/>
     <use xlink:href="#DejaVuSans-Bold-50" x="256.347656"/>
     <use xlink:href="#DejaVuSans-Bold-29" x="329.638672"/>
    </g>
    <!-- r vuelve -->
    <g style="fill: #27ae60" transform="translate(444.66125 285.69536) scale(0.1 -0.1)">
     <use xlink:href="#DejaVuSans-Bold-72"/>
     <use xlink:href="#DejaVuSans-Bold-20" x="49.316406"/>
     <use xlink:href="#DejaVuSans-Bold-76" x="84.130859"/>
     <use xlink:href="#DejaVuSans-Bold-75" x="149.316406"/>
     <use xlink:href="#DejaVuSans-Bold-65" x="220.507812"/>
     <use xlink:href="#DejaVuSans-Bold-6c" x="288.330078"/>
     <use xlink:href="#DejaVuSans-Bold-76" x="322.607422"/>
     <use xlink:href="#DejaVuSans-Bold-65" x="387.792969"/>
    </g>
   </g>
   <g id="text_25">
    <g id="patch_14">
     <path d="M 516.789576 118.936929 
L 617.381138 118.936929 
Q 620.681138 118.936929 620.681138 115.636929 
L 620.681138 80.355804 
Q 620.681138 77.055804 617.381138 77.055804 
L 516.789576 77.055804 
Q 513.489576 77.055804 513.489576 80.355804 
L 513.489576 115.636929 
Q 513.489576 118.936929 516.789576 118.936929 
z
" style="fill: #fffbeb; opacity: 0.97; stroke: #f39c12; stroke-width: 0.7; stroke-linejoin: miter"/>
    </g>
    <!-- Neutralidad LP: -->
    <g style="fill: #27ae60" transform="translate(518.77817 88.714086) scale(0.11 -0.11)">
     <use xlink:href="#DejaVuSans-Bold-4e"/>
     <use xlink:href="#DejaVuSans-Bold-65" x="83.691406"/>
     <use xlink:href="#DejaVuSans-Bold-75" x="151.513672"/>
     <use xlink:href="#DejaVuSans-Bold-74" x="222.705078"/>
     <use xlink:href="#DejaVuSans-Bold-72" x="270.507812"/>
     <use xlink:href="#DejaVuSans-Bold-61" x="319.824219"/>
     <use xlink:href="#DejaVuSans-Bold-6c" x="387.304688"/>
     <use xlink:href="#DejaVuSans-Bold-69" x="421.582031"/>
     <use xlink:href="#DejaVuSans-Bold-64" x="455.859375"/>
     <use xlink:href="#DejaVuSans-Bold-61" x="527.441406"/>
     <use xlink:href="#DejaVuSans-Bold-64" x="594.921875"/>
     <use xlink:href="#DejaVuSans-Bold-20" x="666.503906"/>
     <use xlink:href="#DejaVuSans-Bold-4c" x="701.318359"/>
     <use xlink:href="#DejaVuSans-Bold-50" x="765.039062"/>
     <use xlink:href="#DejaVuSans-Bold-3a" x="838.330078"/>
    </g>
    <!-- ↑M solo eleva P, -->
    <g style="fill: #27ae60" transform="translate(516.789576 101.031679) scale(0.11 -0.11)">
     <defs>
      <path id="DejaVuSans-Bold-2191" d="M 2466 4688 
L 2903 4688 
L 4131 3459 
L 3678 3006 
L 3059 3625 
L 3059 0 
L 2309 0 
L 2309 3625 
L 1691 3006 
L 1238 3459 
L 2466 4688 
z
" transform="scale(0.015625)"/>
      <path id="DejaVuSans-Bold-2c" d="M 653 1209 
L 1778 1209 
L 1778 256 
L 1006 -909 
L 341 -909 
L 653 256 
L 653 1209 
z
" transform="scale(0.015625)"/>
     </defs>
     <use xlink:href="#DejaVuSans-Bold-2191"/>
     <use xlink:href="#DejaVuSans-Bold-4d" x="83.789062"/>
     <use xlink:href="#DejaVuSans-Bold-20" x="183.300781"/>
     <use xlink:href="#DejaVuSans-Bold-73" x="218.115234"/>
     <use xlink:href="#DejaVuSans-Bold-6f" x="277.636719"/>
     <use xlink:href="#DejaVuSans-Bold-6c" x="346.337891"/>
     <use xlink:href="#DejaVuSans-Bold-6f" x="380.615234"/>
     <use xlink:href="#DejaVuSans-Bold-20" x="449.316406"/>
     <use xlink:href="#DejaVuSans-Bold-65" x="484.130859"/>
     <use xlink:href="#DejaVuSans-Bold-6c" x="551.953125"/>
     <use xlink:href="#DejaVuSans-Bold-65" x="586.230469"/>
     <use xlink:href="#DejaVuSans-Bold-76" x="654.052734"/>
     <use xlink:href="#DejaVuSans-Bold-61" x="719.238281"/>
     <use xlink:href="#DejaVuSans-Bold-20" x="786.71875"/>
     <use xlink:href="#DejaVuSans-Bold-50" x="821.533203"/>
     <use xlink:href="#DejaVuSans-Bold-2c" x="876.449219"/>
    </g>
    <!-- no afecta r ni Y -->
    <g style="fill: #27ae60" transform="translate(519.801685 113.349273) scale(0.11 -0.11)">
     <defs>
      <path id="DejaVuSans-Bold-66" d="M 2841 4863 
L 2841 4128 
L 2222 4128 
Q 1984 4128 1890 4042 
Q 1797 3956 1797 3744 
L 1797 3500 
L 2753 3500 
L 2753 2700 
L 1797 2700 
L 1797 0 
L 678 0 
L 678 2700 
L 122 2700 
L 122 3500 
L 678 3500 
L 678 3744 
Q 678 4316 997 4589 
Q 1316 4863 1984 4863 
L 2841 4863 
z
" transform="scale(0.015625)"/>
      <path id="DejaVuSans-Bold-59" d="M -63 4666 
L 1253 4666 
L 2316 3003 
L 3378 4666 
L 4697 4666 
L 2919 1966 
L 2919 0 
L 1716 0 
L 1716 1966 
L -63 4666 
z
" transform="scale(0.015625)"/>
     </defs>
     <use xlink:href="#DejaVuSans-Bold-6e"/>
     <use xlink:href="#DejaVuSans-Bold-6f" x="71.191406"/>
     <use xlink:href="#DejaVuSans-Bold-20" x="139.892578"/>
     <use xlink:href="#DejaVuSans-Bold-61" x="174.707031"/>
     <use xlink:href="#DejaVuSans-Bold-66" x="242.1875"/>
     <use xlink:href="#DejaVuSans-Bold-65" x="285.693359"/>
     <use xlink:href="#DejaVuSans-Bold-63" x="353.515625"/>
     <use xlink:href="#DejaVuSans-Bold-74" x="412.792969"/>
     <use xlink:href="#DejaVuSans-Bold-61" x="460.595703"/>
     <use xlink:href="#DejaVuSans-Bold-20" x="528.076172"/>
     <use xlink:href="#DejaVuSans-Bold-72" x="562.890625"/>
     <use xlink:href="#DejaVuSans-Bold-20" x="612.207031"/>
     <use xlink:href="#DejaVuSans-Bold-6e" x="647.021484"/>
     <use xlink:href="#DejaVuSans-Bold-69" x="718.212891"/>
     <use xlink:href="#DejaVuSans-Bold-20" x="752.490234"/>
     <use xlink:href="#DejaVuSans-Bold-59" x="787.304688"/>
    </g>
   </g>
  </g>
 </g>
 <defs>
  <clipPath id="p8d58a947da">
   <rect x="32.999643" y="50.677969" width="613.8" height="360.36"/>
  </clipPath>
 </defs>
</svg>
