<?xml version="1.0" encoding="utf-8" standalone="no"?>
<!DOCTYPE svg PUBLIC "-//W3C//DTD SVG 1.1//EN"
  "http://www.w3.org/Graphics/SVG/1.1/DTD/svg11.dtd">
<svg xmlns:xlink="http://www.w3.org/1999/xlink" width="718.473688pt" height="423.283906pt" viewBox="0 0 718.473688 423.283906" xmlns="http://www.w3.org/2000/svg" version="1.1">
 <metadata>
  <rdf:RDF xmlns:dc="http://purl.org/dc/elements/1.1/" xmlns:cc="http://creativecommons.org/ns#" xmlns:rdf="http://www.w3.org/1999/02/22-rdf-syntax-ns#">
   <cc:Work>
    <dc:type rdf:resource="http://purl.org/dc/dcmitype/StillImage"/>
    <dc:date>2026-04-28T17:41:34.208907</dc:date>
    <dc:format>image/svg+xml</dc:format>
    <dc:creator>
     <cc:Agent>
      <dc:title>Matplotlib v3.9.2, https://matplotlib.org/</dc:title>
     </cc:Agent>
    </dc:creator>
   </cc:Work>
  </rdf:RDF>
 </metadata>
 <defs>
  <style type="text/css">*{stroke-linejoin: round; stroke-linecap: butt}</style>
 </defs>
 <g id="figure_1">
  <g id="patch_1">
   <path d="M 0 423.283906 
L 718.473688 423.283906 
L 718.473688 0 
L 0 0 
z
" style="fill: #ffffff"/>
  </g>
  <g id="axes_1">
   <g id="patch_2">
    <path d="M 39.829688 383.837969 
L 542.029688 383.837969 
L 542.029688 51.197969 
L 39.829688 51.197969 
z
" style="fill: #ffffff"/>
   </g>
   <g id="PolyCollection_1">
    <defs>
     <path id="me0a1d0e2f7" d="M 389.186209 -59.347476 
L 192.673166 -59.347476 
L 192.673166 -258.362861 
L 389.186209 -258.362861 
L 389.186209 -258.362861 
L 389.186209 -59.347476 
z
" style="stroke: #2980b9; stroke-opacity: 0.3; stroke-width: 1.5"/>
    </defs>
    <g clip-path="url(#p6b269e95fb)">
     <use xlink:href="#me0a1d0e2f7" x="0" y="423.283906" style="fill: #2980b9; fill-opacity: 0.3; stroke: #2980b9; stroke-opacity: 0.3; stroke-width: 1.5"/>
    </g>
   </g>
   <g id="matplotlib.axis_1">
    <g id="xtick_1">
     <g id="line2d_1">
      <path d="M 61.66447 383.837969 
L 61.66447 51.197969 
" clip-path="url(#p6b269e95fb)" style="fill: none; stroke-dasharray: 0.8,1.32; stroke-dashoffset: 0; stroke: #b0b0b0; stroke-opacity: 0.4; stroke-width: 0.8"/>
     </g>
     <g id="line2d_2">
      <defs>
       <path id="m6991827126" d="M 0 0 
L 0 -4 
" style="stroke: #000000"/>
      </defs>
      <g>
       <use xlink:href="#m6991827126" x="61.66447" y="363.93643" style="stroke: #000000"/>
      </g>
     </g>
     <g id="text_1">
      <!-- 0 -->
      <g transform="translate(58.48322 375.034868) scale(0.1 -0.1)">
       <defs>
        <path id="DejaVuSans-30" d="M 2034 4250 
Q 1547 4250 1301 3770 
Q 1056 3291 1056 2328 
Q 1056 1369 1301 889 
Q 1547 409 2034 409 
Q 2525 409 2770 889 
Q 3016 1369 3016 2328 
Q 3016 3291 2770 3770 
Q 2525 4250 2034 4250 
z
M 2034 4750 
Q 2819 4750 3233 4129 
Q 3647 3509 3647 2328 
Q 3647 1150 3233 529 
Q 2819 -91 2034 -91 
Q 1250 -91 836 529 
Q 422 1150 422 2328 
Q 422 3509 836 4129 
Q 1250 4750 2034 4750 
z
" transform="scale(0.015625)"/>
       </defs>
       <use xlink:href="#DejaVuSans-30"/>
      </g>
     </g>
    </g>
    <g id="xtick_2">
     <g id="line2d_3">
      <path d="M 149.003601 383.837969 
L 149.003601 51.197969 
" clip-path="url(#p6b269e95fb)" style="fill: none; stroke-dasharray: 0.8,1.32; stroke-dashoffset: 0; stroke: #b0b0b0; stroke-opacity: 0.4; stroke-width: 0.8"/>
     </g>
     <g id="line2d_4">
      <g>
       <use xlink:href="#m6991827126" x="149.003601" y="363.93643" style="stroke: #000000"/>
      </g>
     </g>
     <g id="text_2">
      <!-- 2 -->
      <g transform="translate(145.822351 375.034868) scale(0.1 -0.1)">
       <defs>
        <path id="DejaVuSans-32" d="M 1228 531 
L 3431 531 
L 3431 0 
L 469 0 
L 469 531 
Q 828 903 1448 1529 
Q 2069 2156 2228 2338 
Q 2531 2678 2651 2914 
Q 2772 3150 2772 3378 
Q 2772 3750 2511 3984 
Q 2250 4219 1831 4219 
Q 1534 4219 1204 4116 
Q 875 4013 500 3803 
L 500 4441 
Q 881 4594 1212 4672 
Q 1544 4750 1819 4750 
Q 2544 4750 2975 4387 
Q 3406 4025 3406 3419 
Q 3406 3131 3298 2873 
Q 3191 2616 2906 2266 
Q 2828 2175 2409 1742 
Q 1991 1309 1228 531 
z
" transform="scale(0.015625)"/>
       </defs>
       <use xlink:href="#DejaVuSans-32"/>
      </g>
     </g>
    </g>
    <g id="xtick_3">
     <g id="line2d_5">
      <path d="M 236.342731 383.837969 
L 236.342731 51.197969 
" clip-path="url(#p6b269e95fb)" style="fill: none; stroke-dasharray: 0.8,1.32; stroke-dashoffset: 0; stroke: #b0b0b0; stroke-opacity: 0.4; stroke-width: 0.8"/>
     </g>
     <g id="line2d_6">
      <g>
       <use xlink:href="#m6991827126" x="236.342731" y="363.93643" style="stroke: #000000"/>
      </g>
     </g>
     <g id="text_3">
      <!-- 4 -->
      <g transform="translate(233.161481 375.034868) scale(0.1 -0.1)">
       <defs>
        <path id="DejaVuSans-34" d="M 2419 4116 
L 825 1625 
L 2419 1625 
L 2419 4116 
z
M 2253 4666 
L 3047 4666 
L 3047 1625 
L 3713 1625 
L 3713 1100 
L 3047 1100 
L 3047 0 
L 2419 0 
L 2419 1100 
L 313 1100 
L 313 1709 
L 2253 4666 
z
" transform="scale(0.015625)"/>
       </defs>
       <use xlink:href="#DejaVuSans-34"/>
      </g>
     </g>
    </g>
    <g id="xtick_4">
     <g id="line2d_7">
      <path d="M 323.681861 383.837969 
L 323.681861 51.197969 
" clip-path="url(#p6b269e95fb)" style="fill: none; stroke-dasharray: 0.8,1.32; stroke-dashoffset: 0; stroke: #b0b0b0; stroke-opacity: 0.4; stroke-width: 0.8"/>
     </g>
     <g id="line2d_8">
      <g>
       <use xlink:href="#m6991827126" x="323.681861" y="363.93643" style="stroke: #000000"/>
      </g>
     </g>
     <g id="text_4">
      <!-- 6 -->
      <g transform="translate(320.500611 375.034868) scale(0.1 -0.1)">
       <defs>
        <path id="DejaVuSans-36" d="M 2113 2584 
Q 1688 2584 1439 2293 
Q 1191 2003 1191 1497 
Q 1191 994 1439 701 
Q 1688 409 2113 409 
Q 2538 409 2786 701 
Q 3034 994 3034 1497 
Q 3034 2003 2786 2293 
Q 2538 2584 2113 2584 
z
M 3366 4563 
L 3366 3988 
Q 3128 4100 2886 4159 
Q 2644 4219 2406 4219 
Q 1781 4219 1451 3797 
Q 1122 3375 1075 2522 
Q 1259 2794 1537 2939 
Q 1816 3084 2150 3084 
Q 2853 3084 3261 2657 
Q 3669 2231 3669 1497 
Q 3669 778 3244 343 
Q 2819 -91 2113 -91 
Q 1303 -91 875 529 
Q 447 1150 447 2328 
Q 447 3434 972 4092 
Q 1497 4750 2381 4750 
Q 2619 4750 2861 4703 
Q 3103 4656 3366 4563 
z
" transform="scale(0.015625)"/>
       </defs>
       <use xlink:href="#DejaVuSans-36"/>
      </g>
     </g>
    </g>
    <g id="xtick_5">
     <g id="line2d_9">
      <path d="M 411.020992 383.837969 
L 411.020992 51.197969 
" clip-path="url(#p6b269e95fb)" style="fill: none; stroke-dasharray: 0.8,1.32; stroke-dashoffset: 0; stroke: #b0b0b0; stroke-opacity: 0.4; stroke-width: 0.8"/>
     </g>
     <g id="line2d_10">
      <g>
       <use xlink:href="#m6991827126" x="411.020992" y="363.93643" style="stroke: #000000"/>
      </g>
     </g>
     <g id="text_5">
      <!-- 8 -->
      <g transform="translate(407.839742 375.034868) scale(0.1 -0.1)">
       <defs>
        <path id="DejaVuSans-38" d="M 2034 2216 
Q 1584 2216 1326 1975 
Q 1069 1734 1069 1313 
Q 1069 891 1326 650 
Q 1584 409 2034 409 
Q 2484 409 2743 651 
Q 3003 894 3003 1313 
Q 3003 1734 2745 1975 
Q 2488 2216 2034 2216 
z
M 1403 2484 
Q 997 2584 770 2862 
Q 544 3141 544 3541 
Q 544 4100 942 4425 
Q 1341 4750 2034 4750 
Q 2731 4750 3128 4425 
Q 3525 4100 3525 3541 
Q 3525 3141 3298 2862 
Q 3072 2584 2669 2484 
Q 3125 2378 3379 2068 
Q 3634 1759 3634 1313 
Q 3634 634 3220 271 
Q 2806 -91 2034 -91 
Q 1263 -91 848 271 
Q 434 634 434 1313 
Q 434 1759 690 2068 
Q 947 2378 1403 2484 
z
M 1172 3481 
Q 1172 3119 1398 2916 
Q 1625 2713 2034 2713 
Q 2441 2713 2670 2916 
Q 2900 3119 2900 3481 
Q 2900 3844 2670 4047 
Q 2441 4250 2034 4250 
Q 1625 4250 1398 4047 
Q 1172 3844 1172 3481 
z
" transform="scale(0.015625)"/>
       </defs>
       <use xlink:href="#DejaVuSans-38"/>
      </g>
     </g>
    </g>
    <g id="xtick_6">
     <g id="line2d_11">
      <path d="M 498.360122 383.837969 
L 498.360122 51.197969 
" clip-path="url(#p6b269e95fb)" style="fill: none; stroke-dasharray: 0.8,1.32; stroke-dashoffset: 0; stroke: #b0b0b0; stroke-opacity: 0.4; stroke-width: 0.8"/>
     </g>
     <g id="line2d_12">
      <g>
       <use xlink:href="#m6991827126" x="498.360122" y="363.93643" style="stroke: #000000"/>
      </g>
     </g>
     <g id="text_6">
      <!-- 10 -->
      <g transform="translate(491.997622 375.034868) scale(0.1 -0.1)">
       <defs>
        <path id="DejaVuSans-31" d="M 794 531 
L 1825 531 
L 1825 4091 
L 703 3866 
L 703 4441 
L 1819 4666 
L 2450 4666 
L 2450 531 
L 3481 531 
L 3481 0 
L 794 0 
L 794 531 
z
" transform="scale(0.015625)"/>
       </defs>
       <use xlink:href="#DejaVuSans-31"/>
       <use xlink:href="#DejaVuSans-30" x="63.623047"/>
      </g>
     </g>
    </g>
    <g id="text_7">
     <!-- Q -->
     <g transform="translate(531.827813 384.23268) scale(0.12 -0.12)">
      <defs>
       <path id="DejaVuSans-Bold-51" d="M 2847 -84 
L 2753 -84 
Q 1600 -84 959 553 
Q 319 1191 319 2328 
Q 319 3463 958 4106 
Q 1597 4750 2719 4750 
Q 3853 4750 4486 4112 
Q 5119 3475 5119 2328 
Q 5119 1541 4783 972 
Q 4447 403 3816 116 
L 4756 -934 
L 3609 -934 
L 2847 -84 
z
M 2719 3878 
Q 2169 3878 1866 3472 
Q 1563 3066 1563 2328 
Q 1563 1578 1859 1179 
Q 2156 781 2719 781 
Q 3272 781 3575 1187 
Q 3878 1594 3878 2328 
Q 3878 3066 3575 3472 
Q 3272 3878 2719 3878 
z
" transform="scale(0.015625)"/>
      </defs>
      <use xlink:href="#DejaVuSans-Bold-51"/>
     </g>
    </g>
   </g>
   <g id="matplotlib.axis_2">
    <g id="ytick_1">
     <g id="line2d_13">
      <path d="M 39.829688 363.93643 
L 542.029688 363.93643 
" clip-path="url(#p6b269e95fb)" style="fill: none; stroke-dasharray: 0.8,1.32; stroke-dashoffset: 0; stroke: #b0b0b0; stroke-opacity: 0.4; stroke-width: 0.8"/>
     </g>
     <g id="line2d_14">
      <defs>
       <path id="ma9f131f35a" d="M 0 0 
L 4 0 
" style="stroke: #000000"/>
      </defs>
      <g>
       <use xlink:href="#ma9f131f35a" x="61.66447" y="363.93643" style="stroke: #000000"/>
      </g>
     </g>
     <g id="text_8">
      <!-- 0 -->
      <g transform="translate(51.80197 367.735649) scale(0.1 -0.1)">
       <use xlink:href="#DejaVuSans-30"/>
      </g>
     </g>
    </g>
    <g id="ytick_2">
     <g id="line2d_15">
      <path d="M 39.829688 307.074892 
L 542.029688 307.074892 
" clip-path="url(#p6b269e95fb)" style="fill: none; stroke-dasharray: 0.8,1.32; stroke-dashoffset: 0; stroke: #b0b0b0; stroke-opacity: 0.4; stroke-width: 0.8"/>
     </g>
     <g id="line2d_16">
      <g>
       <use xlink:href="#ma9f131f35a" x="61.66447" y="307.074892" style="stroke: #000000"/>
      </g>
     </g>
     <g id="text_9">
      <!-- 2 -->
      <g transform="translate(51.80197 310.874111) scale(0.1 -0.1)">
       <use xlink:href="#DejaVuSans-32"/>
      </g>
     </g>
    </g>
    <g id="ytick_3">
     <g id="line2d_17">
      <path d="M 39.829688 250.213353 
L 542.029688 250.213353 
" clip-path="url(#p6b269e95fb)" style="fill: none; stroke-dasharray: 0.8,1.32; stroke-dashoffset: 0; stroke: #b0b0b0; stroke-opacity: 0.4; stroke-width: 0.8"/>
     </g>
     <g id="line2d_18">
      <g>
       <use xlink:href="#ma9f131f35a" x="61.66447" y="250.213353" style="stroke: #000000"/>
      </g>
     </g>
     <g id="text_10">
      <!-- 4 -->
      <g transform="translate(51.80197 254.012572) scale(0.1 -0.1)">
       <use xlink:href="#DejaVuSans-34"/>
      </g>
     </g>
    </g>
    <g id="ytick_4">
     <g id="line2d_19">
      <path d="M 39.829688 193.351815 
L 542.029688 193.351815 
" clip-path="url(#p6b269e95fb)" style="fill: none; stroke-dasharray: 0.8,1.32; stroke-dashoffset: 0; stroke: #b0b0b0; stroke-opacity: 0.4; stroke-width: 0.8"/>
     </g>
     <g id="line2d_20">
      <g>
       <use xlink:href="#ma9f131f35a" x="61.66447" y="193.351815" style="stroke: #000000"/>
      </g>
     </g>
     <g id="text_11">
      <!-- 6 -->
      <g transform="translate(51.80197 197.151034) scale(0.1 -0.1)">
       <use xlink:href="#DejaVuSans-36"/>
      </g>
     </g>
    </g>
    <g id="ytick_5">
     <g id="line2d_21">
      <path d="M 39.829688 136.490276 
L 542.029688 136.490276 
" clip-path="url(#p6b269e95fb)" style="fill: none; stroke-dasharray: 0.8,1.32; stroke-dashoffset: 0; stroke: #b0b0b0; stroke-opacity: 0.4; stroke-width: 0.8"/>
     </g>
     <g id="line2d_22">
      <g>
       <use xlink:href="#ma9f131f35a" x="61.66447" y="136.490276" style="stroke: #000000"/>
      </g>
     </g>
     <g id="text_12">
      <!-- 8 -->
      <g transform="translate(51.80197 140.289495) scale(0.1 -0.1)">
       <use xlink:href="#DejaVuSans-38"/>
      </g>
     </g>
    </g>
    <g id="ytick_6">
     <g id="line2d_23">
      <path d="M 39.829688 79.628738 
L 542.029688 79.628738 
" clip-path="url(#p6b269e95fb)" style="fill: none; stroke-dasharray: 0.8,1.32; stroke-dashoffset: 0; stroke: #b0b0b0; stroke-opacity: 0.4; stroke-width: 0.8"/>
     </g>
     <g id="line2d_24">
      <g>
       <use xlink:href="#ma9f131f35a" x="61.66447" y="79.628738" style="stroke: #000000"/>
      </g>
     </g>
     <g id="text_13">
      <!-- 10 -->
      <g transform="translate(45.43947 83.427957) scale(0.1 -0.1)">
       <use xlink:href="#DejaVuSans-31"/>
       <use xlink:href="#DejaVuSans-30" x="63.623047"/>
      </g>
     </g>
    </g>
    <g id="text_14">
     <!-- P -->
     <g transform="translate(38.643845 48.702344) scale(0.12 -0.12)">
      <defs>
       <path id="DejaVuSans-Bold-50" d="M 588 4666 
L 2584 4666 
Q 3475 4666 3951 4270 
Q 4428 3875 4428 3144 
Q 4428 2409 3951 2014 
Q 3475 1619 2584 1619 
L 1791 1619 
L 1791 0 
L 588 0 
L 588 4666 
z
M 1791 3794 
L 1791 2491 
L 2456 2491 
Q 2806 2491 2997 2661 
Q 3188 2831 3188 3144 
Q 3188 3456 2997 3625 
Q 2806 3794 2456 3794 
L 1791 3794 
z
" transform="scale(0.015625)"/>
      </defs>
      <use xlink:href="#DejaVuSans-Bold-50"/>
     </g>
    </g>
   </g>
   <g id="line2d_25">
    <path d="M 61.66447 79.628738 
L 66.075537 82.500533 
L 70.486604 85.372328 
L 74.897672 88.244123 
L 79.308739 91.115917 
L 83.719806 93.987712 
L 88.130873 96.859507 
L 92.54194 99.731302 
L 96.953008 102.603097 
L 101.364075 105.474892 
L 105.775142 108.346687 
L 110.186209 111.218482 
L 114.597276 114.090276 
L 119.008344 116.962071 
L 123.419411 119.833866 
L 127.830478 122.705661 
L 132.241545 125.577456 
L 136.652612 128.449251 
L 141.06368 131.321046 
L 145.474747 134.192841 
L 149.885814 137.064635 
L 154.296881 139.93643 
L 158.707948 142.808225 
L 163.119016 145.68002 
L 167.530083 148.551815 
L 171.94115 151.42361 
L 176.352217 154.295405 
L 180.763284 157.1672 
L 185.174352 160.038994 
L 189.585419 162.910789 
L 193.996486 165.782584 
L 198.407553 168.654379 
L 202.81862 171.526174 
L 207.229688 174.397969 
L 211.640755 177.269764 
L 216.051822 180.141558 
L 220.462889 183.013353 
L 224.873956 185.885148 
L 229.285023 188.756943 
L 233.696091 191.628738 
L 238.107158 194.500533 
L 242.518225 197.372328 
L 246.929292 200.244123 
L 251.340359 203.115917 
L 255.751427 205.987712 
L 260.162494 208.859507 
L 264.573561 211.731302 
L 268.984628 214.603097 
L 273.395695 217.474892 
L 277.806763 220.346687 
L 282.21783 223.218482 
L 286.628897 226.090276 
L 291.039964 228.962071 
L 295.451031 231.833866 
L 299.862099 234.705661 
L 304.273166 237.577456 
L 308.684233 240.449251 
L 313.0953 243.321046 
L 317.506367 246.192841 
L 321.917435 249.064635 
L 326.328502 251.93643 
L 330.739569 254.808225 
L 335.150636 257.68002 
L 339.561703 260.551815 
L 343.972771 263.42361 
L 348.383838 266.295405 
L 352.794905 269.1672 
L 357.205972 272.038994 
L 361.617039 274.910789 
L 366.028106 277.782584 
L 370.439174 280.654379 
L 374.850241 283.526174 
L 379.261308 286.397969 
L 383.672375 289.269764 
L 388.083442 292.141558 
L 392.49451 295.013353 
L 396.905577 297.885148 
L 401.316644 300.756943 
L 405.727711 303.628738 
L 410.138778 306.500533 
L 414.549846 309.372328 
L 418.960913 312.244123 
L 423.37198 315.115917 
L 427.783047 317.987712 
L 432.194114 320.859507 
L 436.605182 323.731302 
L 441.016249 326.603097 
L 445.427316 329.474892 
L 449.838383 332.346687 
L 454.24945 335.218482 
L 458.660518 338.090276 
L 463.071585 340.962071 
L 467.482652 343.833866 
L 471.893719 346.705661 
L 476.304786 349.577456 
L 480.715854 352.449251 
L 485.126921 355.321046 
L 489.537988 358.192841 
L 493.949055 361.064635 
L 498.360122 363.93643 
" clip-path="url(#p6b269e95fb)" style="fill: none; stroke: #c0392b; stroke-width: 3; stroke-linecap: square"/>
   </g>
   <g id="line2d_26">
    <path d="M 61.66447 335.505661 
L 66.075537 333.208225 
L 70.486604 330.910789 
L 74.897672 328.613353 
L 79.308739 326.315917 
L 83.719806 324.018482 
L 88.130873 321.721046 
L 92.54194 319.42361 
L 96.953008 317.126174 
L 101.364075 314.828738 
L 105.775142 312.531302 
L 110.186209 310.233866 
L 114.597276 307.93643 
L 119.008344 305.638994 
L 123.419411 303.341558 
L 127.830478 301.044123 
L 132.241545 298.746687 
L 136.652612 296.449251 
L 141.06368 294.151815 
L 145.474747 291.854379 
L 149.885814 289.556943 
L 154.296881 287.259507 
L 158.707948 284.962071 
L 163.119016 282.664635 
L 167.530083 280.3672 
L 171.94115 278.069764 
L 176.352217 275.772328 
L 180.763284 273.474892 
L 185.174352 271.177456 
L 189.585419 268.88002 
L 193.996486 266.582584 
L 198.407553 264.285148 
L 202.81862 261.987712 
L 207.229688 259.690276 
L 211.640755 257.392841 
L 216.051822 255.095405 
L 220.462889 252.797969 
L 224.873956 250.500533 
L 229.285023 248.203097 
L 233.696091 245.905661 
L 238.107158 243.608225 
L 242.518225 241.310789 
L 246.929292 239.013353 
L 251.340359 236.715917 
L 255.751427 234.418482 
L 260.162494 232.121046 
L 264.573561 229.82361 
L 268.984628 227.526174 
L 273.395695 225.228738 
L 277.806763 222.931302 
L 282.21783 220.633866 
L 286.628897 218.33643 
L 291.039964 216.038994 
L 295.451031 213.741558 
L 299.862099 211.444123 
L 304.273166 209.146687 
L 308.684233 206.849251 
L 313.0953 204.551815 
L 317.506367 202.254379 
L 321.917435 199.956943 
L 326.328502 197.659507 
L 330.739569 195.362071 
L 335.150636 193.064635 
L 339.561703 190.7672 
L 343.972771 188.469764 
L 348.383838 186.172328 
L 352.794905 183.874892 
L 357.205972 181.577456 
L 361.617039 179.28002 
L 366.028106 176.982584 
L 370.439174 174.685148 
L 374.850241 172.387712 
L 379.261308 170.090276 
L 383.672375 167.792841 
L 388.083442 165.495405 
L 392.49451 163.197969 
L 396.905577 160.900533 
L 401.316644 158.603097 
L 405.727711 156.305661 
L 410.138778 154.008225 
L 414.549846 151.710789 
L 418.960913 149.413353 
L 423.37198 147.115917 
L 427.783047 144.818482 
L 432.194114 142.521046 
L 436.605182 140.22361 
L 441.016249 137.926174 
L 445.427316 135.628738 
L 449.838383 133.331302 
L 454.24945 131.033866 
L 458.660518 128.73643 
L 463.071585 126.438994 
L 467.482652 124.141558 
L 471.893719 121.844123 
L 476.304786 119.546687 
L 480.715854 117.249251 
L 485.126921 114.951815 
L 489.537988 112.654379 
L 493.949055 110.356943 
L 498.360122 108.059507 
" clip-path="url(#p6b269e95fb)" style="fill: none; stroke: #2980b9; stroke-width: 3; stroke-linecap: square"/>
   </g>
   <g id="line2d_27">
    <path d="M 39.829688 221.782584 
L 542.029688 221.782584 
" clip-path="url(#p6b269e95fb)" style="fill: none; stroke-dasharray: 0.8,1.32; stroke-dashoffset: 0; stroke: #808080; stroke-opacity: 0.5; stroke-width: 0.8"/>
   </g>
   <g id="line2d_28">
    <path d="M 39.829688 164.921046 
L 542.029688 164.921046 
" clip-path="url(#p6b269e95fb)" style="fill: none; stroke: #000000; stroke-width: 2.5; stroke-linecap: square"/>
   </g>
   <g id="line2d_29">
    <path d="M 389.186209 363.93643 
L 389.186209 164.921046 
" clip-path="url(#p6b269e95fb)" style="fill: none; stroke-dasharray: 3.7,1.6; stroke-dashoffset: 0; stroke: #2980b9"/>
   </g>
   <g id="line2d_30">
    <path d="M 192.673166 363.93643 
L 192.673166 164.921046 
" clip-path="url(#p6b269e95fb)" style="fill: none; stroke-dasharray: 3.7,1.6; stroke-dashoffset: 0; stroke: #c0392b"/>
   </g>
   <g id="line2d_31">
    <defs>
     <path id="me9da86bea9" d="M 4 0 
L -4 -4 
L -4 4 
z
" style="stroke: #000000; stroke-linejoin: miter"/>
    </defs>
    <g>
     <use xlink:href="#me9da86bea9" x="542.029688" y="363.93643" style="stroke: #000000; stroke-linejoin: miter"/>
    </g>
   </g>
   <g id="line2d_32">
    <defs>
     <path id="mf9cb601959" d="M 0 -4 
L -4 4 
L 4 4 
z
" style="stroke: #000000; stroke-linejoin: miter"/>
    </defs>
    <g>
     <use xlink:href="#mf9cb601959" x="61.66447" y="51.197969" style="stroke: #000000; stroke-linejoin: miter"/>
    </g>
   </g>
   <g id="patch_3">
    <path d="M 61.66447 383.837969 
L 61.66447 51.197969 
" style="fill: none; stroke: #000000; stroke-width: 1.4; stroke-linejoin: miter; stroke-linecap: square"/>
   </g>
   <g id="patch_4">
    <path d="M 39.829688 363.93643 
L 542.029688 363.93643 
" style="fill: none; stroke: #000000; stroke-width: 1.4; stroke-linejoin: miter; stroke-linecap: square"/>
   </g>
   <g id="patch_5">
    <path d="M 196.909267 153.548738 
Q 290.930961 153.548738 384.952655 153.548738 
" style="fill: none; stroke: #2980b9; stroke-width: 2; stroke-linecap: round"/>
    <path d="M 201.709267 155.948738 
L 196.909267 153.548738 
L 201.709267 151.148738 
" style="fill: none; stroke: #2980b9; stroke-width: 2; stroke-linecap: round"/>
    <path d="M 380.152655 151.148738 
L 384.952655 153.548738 
L 380.152655 155.948738 
" style="fill: none; stroke: #2980b9; stroke-width: 2; stroke-linecap: round"/>
   </g>
   <g id="text_15">
    <!-- Precio mínimo (piso, encima de P*) → excedente -->
    <g transform="translate(114.42625 39.197969) scale(0.13 -0.13)">
     <defs>
      <path id="DejaVuSans-Bold-72" d="M 3138 2547 
Q 2991 2616 2845 2648 
Q 2700 2681 2553 2681 
Q 2122 2681 1889 2404 
Q 1656 2128 1656 1613 
L 1656 0 
L 538 0 
L 538 3500 
L 1656 3500 
L 1656 2925 
Q 1872 3269 2151 3426 
Q 2431 3584 2822 3584 
Q 2878 3584 2943 3579 
Q 3009 3575 3134 3559 
L 3138 2547 
z
" transform="scale(0.015625)"/>
      <path id="DejaVuSans-Bold-65" d="M 4031 1759 
L 4031 1441 
L 1416 1441 
Q 1456 1047 1700 850 
Q 1944 653 2381 653 
Q 2734 653 3104 758 
Q 3475 863 3866 1075 
L 3866 213 
Q 3469 63 3072 -14 
Q 2675 -91 2278 -91 
Q 1328 -91 801 392 
Q 275 875 275 1747 
Q 275 2603 792 3093 
Q 1309 3584 2216 3584 
Q 3041 3584 3536 3087 
Q 4031 2591 4031 1759 
z
M 2881 2131 
Q 2881 2450 2695 2645 
Q 2509 2841 2209 2841 
Q 1884 2841 1681 2658 
Q 1478 2475 1428 2131 
L 2881 2131 
z
" transform="scale(0.015625)"/>
      <path id="DejaVuSans-Bold-63" d="M 3366 3391 
L 3366 2478 
Q 3138 2634 2908 2709 
Q 2678 2784 2431 2784 
Q 1963 2784 1702 2511 
Q 1441 2238 1441 1747 
Q 1441 1256 1702 982 
Q 1963 709 2431 709 
Q 2694 709 2930 787 
Q 3166 866 3366 1019 
L 3366 103 
Q 3103 6 2833 -42 
Q 2563 -91 2291 -91 
Q 1344 -91 809 395 
Q 275 881 275 1747 
Q 275 2613 809 3098 
Q 1344 3584 2291 3584 
Q 2566 3584 2833 3536 
Q 3100 3488 3366 3391 
z
" transform="scale(0.015625)"/>
      <path id="DejaVuSans-Bold-69" d="M 538 3500 
L 1656 3500 
L 1656 0 
L 538 0 
L 538 3500 
z
M 538 4863 
L 1656 4863 
L 1656 3950 
L 538 3950 
L 538 4863 
z
" transform="scale(0.015625)"/>
      <path id="DejaVuSans-Bold-6f" d="M 2203 2784 
Q 1831 2784 1636 2517 
Q 1441 2250 1441 1747 
Q 1441 1244 1636 976 
Q 1831 709 2203 709 
Q 2569 709 2762 976 
Q 2956 1244 2956 1747 
Q 2956 2250 2762 2517 
Q 2569 2784 2203 2784 
z
M 2203 3584 
Q 3106 3584 3614 3096 
Q 4122 2609 4122 1747 
Q 4122 884 3614 396 
Q 3106 -91 2203 -91 
Q 1297 -91 786 396 
Q 275 884 275 1747 
Q 275 2609 786 3096 
Q 1297 3584 2203 3584 
z
" transform="scale(0.015625)"/>
      <path id="DejaVuSans-Bold-20" transform="scale(0.015625)"/>
      <path id="DejaVuSans-Bold-6d" d="M 3781 2919 
Q 3994 3244 4286 3414 
Q 4578 3584 4928 3584 
Q 5531 3584 5847 3212 
Q 6163 2841 6163 2131 
L 6163 0 
L 5038 0 
L 5038 1825 
Q 5041 1866 5042 1909 
Q 5044 1953 5044 2034 
Q 5044 2406 4934 2573 
Q 4825 2741 4581 2741 
Q 4263 2741 4089 2478 
Q 3916 2216 3909 1719 
L 3909 0 
L 2784 0 
L 2784 1825 
Q 2784 2406 2684 2573 
Q 2584 2741 2328 2741 
Q 2006 2741 1831 2477 
Q 1656 2213 1656 1722 
L 1656 0 
L 531 0 
L 531 3500 
L 1656 3500 
L 1656 2988 
Q 1863 3284 2130 3434 
Q 2397 3584 2719 3584 
Q 3081 3584 3359 3409 
Q 3638 3234 3781 2919 
z
" transform="scale(0.015625)"/>
      <path id="DejaVuSans-Bold-ed" d="M 538 3500 
L 1656 3500 
L 1656 0 
L 538 0 
L 538 3500 
z
M 1590 5119 
L 2474 5119 
L 1321 3944 
L 709 3944 
L 1590 5119 
z
" transform="scale(0.015625)"/>
      <path id="DejaVuSans-Bold-6e" d="M 4056 2131 
L 4056 0 
L 2931 0 
L 2931 347 
L 2931 1631 
Q 2931 2084 2911 2256 
Q 2891 2428 2841 2509 
Q 2775 2619 2662 2680 
Q 2550 2741 2406 2741 
Q 2056 2741 1856 2470 
Q 1656 2200 1656 1722 
L 1656 0 
L 538 0 
L 538 3500 
L 1656 3500 
L 1656 2988 
Q 1909 3294 2193 3439 
Q 2478 3584 2822 3584 
Q 3428 3584 3742 3212 
Q 4056 2841 4056 2131 
z
" transform="scale(0.015625)"/>
      <path id="DejaVuSans-Bold-28" d="M 2413 -844 
L 1484 -844 
Q 1006 -72 778 623 
Q 550 1319 550 2003 
Q 550 2688 779 3389 
Q 1009 4091 1484 4856 
L 2413 4856 
Q 2013 4116 1813 3408 
Q 1613 2700 1613 2009 
Q 1613 1319 1811 609 
Q 2009 -100 2413 -844 
z
" transform="scale(0.015625)"/>
      <path id="DejaVuSans-Bold-70" d="M 1656 506 
L 1656 -1331 
L 538 -1331 
L 538 3500 
L 1656 3500 
L 1656 2988 
Q 1888 3294 2169 3439 
Q 2450 3584 2816 3584 
Q 3463 3584 3878 3070 
Q 4294 2556 4294 1747 
Q 4294 938 3878 423 
Q 3463 -91 2816 -91 
Q 2450 -91 2169 54 
Q 1888 200 1656 506 
z
M 2400 2772 
Q 2041 2772 1848 2508 
Q 1656 2244 1656 1747 
Q 1656 1250 1848 986 
Q 2041 722 2400 722 
Q 2759 722 2948 984 
Q 3138 1247 3138 1747 
Q 3138 2247 2948 2509 
Q 2759 2772 2400 2772 
z
" transform="scale(0.015625)"/>
      <path id="DejaVuSans-Bold-73" d="M 3272 3391 
L 3272 2541 
Q 2913 2691 2578 2766 
Q 2244 2841 1947 2841 
Q 1628 2841 1473 2761 
Q 1319 2681 1319 2516 
Q 1319 2381 1436 2309 
Q 1553 2238 1856 2203 
L 2053 2175 
Q 2913 2066 3209 1816 
Q 3506 1566 3506 1031 
Q 3506 472 3093 190 
Q 2681 -91 1863 -91 
Q 1516 -91 1145 -36 
Q 775 19 384 128 
L 384 978 
Q 719 816 1070 734 
Q 1422 653 1784 653 
Q 2113 653 2278 743 
Q 2444 834 2444 1013 
Q 2444 1163 2330 1236 
Q 2216 1309 1875 1350 
L 1678 1375 
Q 931 1469 631 1722 
Q 331 1975 331 2491 
Q 331 3047 712 3315 
Q 1094 3584 1881 3584 
Q 2191 3584 2531 3537 
Q 2872 3491 3272 3391 
z
" transform="scale(0.015625)"/>
      <path id="DejaVuSans-Bold-2c" d="M 653 1209 
L 1778 1209 
L 1778 256 
L 1006 -909 
L 341 -909 
L 653 256 
L 653 1209 
z
" transform="scale(0.015625)"/>
      <path id="DejaVuSans-Bold-61" d="M 2106 1575 
Q 1756 1575 1579 1456 
Q 1403 1338 1403 1106 
Q 1403 894 1545 773 
Q 1688 653 1941 653 
Q 2256 653 2472 879 
Q 2688 1106 2688 1447 
L 2688 1575 
L 2106 1575 
z
M 3816 1997 
L 3816 0 
L 2688 0 
L 2688 519 
Q 2463 200 2181 54 
Q 1900 -91 1497 -91 
Q 953 -91 614 226 
Q 275 544 275 1050 
Q 275 1666 698 1953 
Q 1122 2241 2028 2241 
L 2688 2241 
L 2688 2328 
Q 2688 2594 2478 2717 
Q 2269 2841 1825 2841 
Q 1466 2841 1156 2769 
Q 847 2697 581 2553 
L 581 3406 
Q 941 3494 1303 3539 
Q 1666 3584 2028 3584 
Q 2975 3584 3395 3211 
Q 3816 2838 3816 1997 
z
" transform="scale(0.015625)"/>
      <path id="DejaVuSans-Bold-64" d="M 2919 2988 
L 2919 4863 
L 4044 4863 
L 4044 0 
L 2919 0 
L 2919 506 
Q 2688 197 2409 53 
Q 2131 -91 1766 -91 
Q 1119 -91 703 423 
Q 288 938 288 1747 
Q 288 2556 703 3070 
Q 1119 3584 1766 3584 
Q 2128 3584 2408 3439 
Q 2688 3294 2919 2988 
z
M 2181 722 
Q 2541 722 2730 984 
Q 2919 1247 2919 1747 
Q 2919 2247 2730 2509 
Q 2541 2772 2181 2772 
Q 1825 2772 1636 2509 
Q 1447 2247 1447 1747 
Q 1447 1247 1636 984 
Q 1825 722 2181 722 
z
" transform="scale(0.015625)"/>
      <path id="DejaVuSans-Bold-2a" d="M 3219 3803 
L 2188 3263 
L 3219 2719 
L 2981 2278 
L 1941 2853 
L 1941 1778 
L 1409 1778 
L 1409 2853 
L 366 2278 
L 128 2719 
L 1172 3263 
L 128 3803 
L 366 4244 
L 1409 3675 
L 1409 4750 
L 1941 4750 
L 1941 3675 
L 2981 4244 
L 3219 3803 
z
" transform="scale(0.015625)"/>
      <path id="DejaVuSans-Bold-29" d="M 513 -844 
Q 913 -100 1113 609 
Q 1313 1319 1313 2009 
Q 1313 2700 1113 3408 
Q 913 4116 513 4856 
L 1441 4856 
Q 1916 4091 2145 3389 
Q 2375 2688 2375 2003 
Q 2375 1319 2147 623 
Q 1919 -72 1441 -844 
L 513 -844 
z
" transform="scale(0.015625)"/>
      <path id="DejaVuSans-Bold-2192" d="M 5050 2225 
L 5050 1788 
L 3822 559 
L 3369 1013 
L 3988 1631 
L 366 1631 
L 366 2381 
L 3988 2381 
L 3369 3000 
L 3822 3453 
L 5050 2225 
z
" transform="scale(0.015625)"/>
      <path id="DejaVuSans-Bold-78" d="M 1422 1791 
L 159 3500 
L 1344 3500 
L 2059 2463 
L 2784 3500 
L 3969 3500 
L 2706 1797 
L 4031 0 
L 2847 0 
L 2059 1106 
L 1281 0 
L 97 0 
L 1422 1791 
z
" transform="scale(0.015625)"/>
      <path id="DejaVuSans-Bold-74" d="M 1759 4494 
L 1759 3500 
L 2913 3500 
L 2913 2700 
L 1759 2700 
L 1759 1216 
Q 1759 972 1856 886 
Q 1953 800 2241 800 
L 2816 800 
L 2816 0 
L 1856 0 
Q 1194 0 917 276 
Q 641 553 641 1216 
L 641 2700 
L 84 2700 
L 84 3500 
L 641 3500 
L 641 4494 
L 1759 4494 
z
" transform="scale(0.015625)"/>
     </defs>
     <use xlink:href="#DejaVuSans-Bold-50"/>
     <use xlink:href="#DejaVuSans-Bold-72" x="73.291016"/>
     <use xlink:href="#DejaVuSans-Bold-65" x="122.607422"/>
     <use xlink:href="#DejaVuSans-Bold-63" x="190.429688"/>
     <use xlink:href="#DejaVuSans-Bold-69" x="249.707031"/>
     <use xlink:href="#DejaVuSans-Bold-6f" x="283.984375"/>
     <use xlink:href="#DejaVuSans-Bold-20" x="352.685547"/>
     <use xlink:href="#DejaVuSans-Bold-6d" x="387.5"/>
     <use xlink:href="#DejaVuSans-Bold-ed" x="491.699219"/>
     <use xlink:href="#DejaVuSans-Bold-6e" x="525.976562"/>
     <use xlink:href="#DejaVuSans-Bold-69" x="597.167969"/>
     <use xlink:href="#DejaVuSans-Bold-6d" x="631.445312"/>
     <use xlink:href="#DejaVuSans-Bold-6f" x="735.644531"/>
     <use xlink:href="#DejaVuSans-Bold-20" x="804.345703"/>
     <use xlink:href="#DejaVuSans-Bold-28" x="839.160156"/>
     <use xlink:href="#DejaVuSans-Bold-70" x="884.863281"/>
     <use xlink:href="#DejaVuSans-Bold-69" x="956.445312"/>
     <use xlink:href="#DejaVuSans-Bold-73" x="990.722656"/>
     <use xlink:href="#DejaVuSans-Bold-6f" x="1050.244141"/>
     <use xlink:href="#DejaVuSans-Bold-2c" x="1118.945312"/>
     <use xlink:href="#DejaVuSans-Bold-20" x="1156.933594"/>
     <use xlink:href="#DejaVuSans-Bold-65" x="1191.748047"/>
     <use xlink:href="#DejaVuSans-Bold-6e" x="1259.570312"/>
     <use xlink:href="#DejaVuSans-Bold-63" x="1330.761719"/>
     <use xlink:href="#DejaVuSans-Bold-69" x="1390.039062"/>
     <use xlink:href="#DejaVuSans-Bold-6d" x="1424.316406"/>
     <use xlink:href="#DejaVuSans-Bold-61" x="1528.515625"/>
     <use xlink:href="#DejaVuSans-Bold-20" x="1595.996094"/>
     <use xlink:href="#DejaVuSans-Bold-64" x="1630.810547"/>
     <use xlink:href="#DejaVuSans-Bold-65" x="1702.392578"/>
     <use xlink:href="#DejaVuSans-Bold-20" x="1770.214844"/>
     <use xlink:href="#DejaVuSans-Bold-50" x="1805.029297"/>
     <use xlink:href="#DejaVuSans-Bold-2a" x="1878.320312"/>
     <use xlink:href="#DejaVuSans-Bold-29" x="1930.615234"/>
     <use xlink:href="#DejaVuSans-Bold-20" x="1976.318359"/>
     <use xlink:href="#DejaVuSans-Bold-2192" x="2011.132812"/>
     <use xlink:href="#DejaVuSans-Bold-20" x="2094.921875"/>
     <use xlink:href="#DejaVuSans-Bold-65" x="2129.736328"/>
     <use xlink:href="#DejaVuSans-Bold-78" x="2197.558594"/>
     <use xlink:href="#DejaVuSans-Bold-63" x="2262.060547"/>
     <use xlink:href="#DejaVuSans-Bold-65" x="2321.337891"/>
     <use xlink:href="#DejaVuSans-Bold-64" x="2389.160156"/>
     <use xlink:href="#DejaVuSans-Bold-65" x="2460.742188"/>
     <use xlink:href="#DejaVuSans-Bold-6e" x="2528.564453"/>
     <use xlink:href="#DejaVuSans-Bold-74" x="2599.755859"/>
     <use xlink:href="#DejaVuSans-Bold-65" x="2647.558594"/>
    </g>
   </g>
   <g id="legend_1">
    <g id="patch_6">
     <path d="M 554.073688 98.232344 
L 687.673688 98.232344 
Q 689.673688 98.232344 689.673688 96.232344 
L 689.673688 53.197969 
Q 689.673688 51.197969 687.673688 51.197969 
L 554.073688 51.197969 
Q 552.073688 51.197969 552.073688 53.197969 
L 552.073688 96.232344 
Q 552.073688 98.232344 554.073688 98.232344 
z
" style="fill: #ffffff; opacity: 0.8; stroke: #cccccc; stroke-linejoin: miter"/>
    </g>
    <g id="line2d_33">
     <path d="M 556.073688 59.296406 
L 566.073688 59.296406 
L 576.073688 59.296406 
" style="fill: none; stroke: #c0392b; stroke-width: 3; stroke-linecap: square"/>
    </g>
    <g id="text_16">
     <!-- Demanda -->
     <g transform="translate(584.073688 62.796406) scale(0.1 -0.1)">
      <defs>
       <path id="DejaVuSans-44" d="M 1259 4147 
L 1259 519 
L 2022 519 
Q 2988 519 3436 956 
Q 3884 1394 3884 2338 
Q 3884 3275 3436 3711 
Q 2988 4147 2022 4147 
L 1259 4147 
z
M 628 4666 
L 1925 4666 
Q 3281 4666 3915 4102 
Q 4550 3538 4550 2338 
Q 4550 1131 3912 565 
Q 3275 0 1925 0 
L 628 0 
L 628 4666 
z
" transform="scale(0.015625)"/>
       <path id="DejaVuSans-65" d="M 3597 1894 
L 3597 1613 
L 953 1613 
Q 991 1019 1311 708 
Q 1631 397 2203 397 
Q 2534 397 2845 478 
Q 3156 559 3463 722 
L 3463 178 
Q 3153 47 2828 -22 
Q 2503 -91 2169 -91 
Q 1331 -91 842 396 
Q 353 884 353 1716 
Q 353 2575 817 3079 
Q 1281 3584 2069 3584 
Q 2775 3584 3186 3129 
Q 3597 2675 3597 1894 
z
M 3022 2063 
Q 3016 2534 2758 2815 
Q 2500 3097 2075 3097 
Q 1594 3097 1305 2825 
Q 1016 2553 972 2059 
L 3022 2063 
z
" transform="scale(0.015625)"/>
       <path id="DejaVuSans-6d" d="M 3328 2828 
Q 3544 3216 3844 3400 
Q 4144 3584 4550 3584 
Q 5097 3584 5394 3201 
Q 5691 2819 5691 2113 
L 5691 0 
L 5113 0 
L 5113 2094 
Q 5113 2597 4934 2840 
Q 4756 3084 4391 3084 
Q 3944 3084 3684 2787 
Q 3425 2491 3425 1978 
L 3425 0 
L 2847 0 
L 2847 2094 
Q 2847 2600 2669 2842 
Q 2491 3084 2119 3084 
Q 1678 3084 1418 2786 
Q 1159 2488 1159 1978 
L 1159 0 
L 581 0 
L 581 3500 
L 1159 3500 
L 1159 2956 
Q 1356 3278 1631 3431 
Q 1906 3584 2284 3584 
Q 2666 3584 2933 3390 
Q 3200 3197 3328 2828 
z
" transform="scale(0.015625)"/>
       <path id="DejaVuSans-61" d="M 2194 1759 
Q 1497 1759 1228 1600 
Q 959 1441 959 1056 
Q 959 750 1161 570 
Q 1363 391 1709 391 
Q 2188 391 2477 730 
Q 2766 1069 2766 1631 
L 2766 1759 
L 2194 1759 
z
M 3341 1997 
L 3341 0 
L 2766 0 
L 2766 531 
Q 2569 213 2275 61 
Q 1981 -91 1556 -91 
Q 1019 -91 701 211 
Q 384 513 384 1019 
Q 384 1609 779 1909 
Q 1175 2209 1959 2209 
L 2766 2209 
L 2766 2266 
Q 2766 2663 2505 2880 
Q 2244 3097 1772 3097 
Q 1472 3097 1187 3025 
Q 903 2953 641 2809 
L 641 3341 
Q 956 3463 1253 3523 
Q 1550 3584 1831 3584 
Q 2591 3584 2966 3190 
Q 3341 2797 3341 1997 
z
" transform="scale(0.015625)"/>
       <path id="DejaVuSans-6e" d="M 3513 2113 
L 3513 0 
L 2938 0 
L 2938 2094 
Q 2938 2591 2744 2837 
Q 2550 3084 2163 3084 
Q 1697 3084 1428 2787 
Q 1159 2491 1159 1978 
L 1159 0 
L 581 0 
L 581 3500 
L 1159 3500 
L 1159 2956 
Q 1366 3272 1645 3428 
Q 1925 3584 2291 3584 
Q 2894 3584 3203 3211 
Q 3513 2838 3513 2113 
z
" transform="scale(0.015625)"/>
       <path id="DejaVuSans-64" d="M 2906 2969 
L 2906 4863 
L 3481 4863 
L 3481 0 
L 2906 0 
L 2906 525 
Q 2725 213 2448 61 
Q 2172 -91 1784 -91 
Q 1150 -91 751 415 
Q 353 922 353 1747 
Q 353 2572 751 3078 
Q 1150 3584 1784 3584 
Q 2172 3584 2448 3432 
Q 2725 3281 2906 2969 
z
M 947 1747 
Q 947 1113 1208 752 
Q 1469 391 1925 391 
Q 2381 391 2643 752 
Q 2906 1113 2906 1747 
Q 2906 2381 2643 2742 
Q 2381 3103 1925 3103 
Q 1469 3103 1208 2742 
Q 947 2381 947 1747 
z
" transform="scale(0.015625)"/>
      </defs>
      <use xlink:href="#DejaVuSans-44"/>
      <use xlink:href="#DejaVuSans-65" x="77.001953"/>
      <use xlink:href="#DejaVuSans-6d" x="138.525391"/>
      <use xlink:href="#DejaVuSans-61" x="235.9375"/>
      <use xlink:href="#DejaVuSans-6e" x="297.216797"/>
      <use xlink:href="#DejaVuSans-64" x="360.595703"/>
      <use xlink:href="#DejaVuSans-61" x="424.072266"/>
     </g>
    </g>
    <g id="line2d_34">
     <path d="M 556.073688 73.974531 
L 566.073688 73.974531 
L 576.073688 73.974531 
" style="fill: none; stroke: #2980b9; stroke-width: 3; stroke-linecap: square"/>
    </g>
    <g id="text_17">
     <!-- Oferta -->
     <g transform="translate(584.073688 77.474531) scale(0.1 -0.1)">
      <defs>
       <path id="DejaVuSans-4f" d="M 2522 4238 
Q 1834 4238 1429 3725 
Q 1025 3213 1025 2328 
Q 1025 1447 1429 934 
Q 1834 422 2522 422 
Q 3209 422 3611 934 
Q 4013 1447 4013 2328 
Q 4013 3213 3611 3725 
Q 3209 4238 2522 4238 
z
M 2522 4750 
Q 3503 4750 4090 4092 
Q 4678 3434 4678 2328 
Q 4678 1225 4090 567 
Q 3503 -91 2522 -91 
Q 1538 -91 948 565 
Q 359 1222 359 2328 
Q 359 3434 948 4092 
Q 1538 4750 2522 4750 
z
" transform="scale(0.015625)"/>
       <path id="DejaVuSans-66" d="M 2375 4863 
L 2375 4384 
L 1825 4384 
Q 1516 4384 1395 4259 
Q 1275 4134 1275 3809 
L 1275 3500 
L 2222 3500 
L 2222 3053 
L 1275 3053 
L 1275 0 
L 697 0 
L 697 3053 
L 147 3053 
L 147 3500 
L 697 3500 
L 697 3744 
Q 697 4328 969 4595 
Q 1241 4863 1831 4863 
L 2375 4863 
z
" transform="scale(0.015625)"/>
       <path id="DejaVuSans-72" d="M 2631 2963 
Q 2534 3019 2420 3045 
Q 2306 3072 2169 3072 
Q 1681 3072 1420 2755 
Q 1159 2438 1159 1844 
L 1159 0 
L 581 0 
L 581 3500 
L 1159 3500 
L 1159 2956 
Q 1341 3275 1631 3429 
Q 1922 3584 2338 3584 
Q 2397 3584 2469 3576 
Q 2541 3569 2628 3553 
L 2631 2963 
z
" transform="scale(0.015625)"/>
       <path id="DejaVuSans-74" d="M 1172 4494 
L 1172 3500 
L 2356 3500 
L 2356 3053 
L 1172 3053 
L 1172 1153 
Q 1172 725 1289 603 
Q 1406 481 1766 481 
L 2356 481 
L 2356 0 
L 1766 0 
Q 1100 0 847 248 
Q 594 497 594 1153 
L 594 3053 
L 172 3053 
L 172 3500 
L 594 3500 
L 594 4494 
L 1172 4494 
z
" transform="scale(0.015625)"/>
      </defs>
      <use xlink:href="#DejaVuSans-4f"/>
      <use xlink:href="#DejaVuSans-66" x="78.710938"/>
      <use xlink:href="#DejaVuSans-65" x="113.916016"/>
      <use xlink:href="#DejaVuSans-72" x="175.439453"/>
      <use xlink:href="#DejaVuSans-74" x="216.552734"/>
      <use xlink:href="#DejaVuSans-61" x="255.761719"/>
     </g>
    </g>
    <g id="line2d_35">
     <path d="M 556.073688 88.652656 
L 566.073688 88.652656 
L 576.073688 88.652656 
" style="fill: none; stroke: #000000; stroke-width: 2.5; stroke-linecap: square"/>
    </g>
    <g id="text_18">
     <!-- Precio mínimo = 7.0 -->
     <g transform="translate(584.073688 92.152656) scale(0.1 -0.1)">
      <defs>
       <path id="DejaVuSans-50" d="M 1259 4147 
L 1259 2394 
L 2053 2394 
Q 2494 2394 2734 2622 
Q 2975 2850 2975 3272 
Q 2975 3691 2734 3919 
Q 2494 4147 2053 4147 
L 1259 4147 
z
M 628 4666 
L 2053 4666 
Q 2838 4666 3239 4311 
Q 3641 3956 3641 3272 
Q 3641 2581 3239 2228 
Q 2838 1875 2053 1875 
L 1259 1875 
L 1259 0 
L 628 0 
L 628 4666 
z
" transform="scale(0.015625)"/>
       <path id="DejaVuSans-63" d="M 3122 3366 
L 3122 2828 
Q 2878 2963 2633 3030 
Q 2388 3097 2138 3097 
Q 1578 3097 1268 2742 
Q 959 2388 959 1747 
Q 959 1106 1268 751 
Q 1578 397 2138 397 
Q 2388 397 2633 464 
Q 2878 531 3122 666 
L 3122 134 
Q 2881 22 2623 -34 
Q 2366 -91 2075 -91 
Q 1284 -91 818 406 
Q 353 903 353 1747 
Q 353 2603 823 3093 
Q 1294 3584 2113 3584 
Q 2378 3584 2631 3529 
Q 2884 3475 3122 3366 
z
" transform="scale(0.015625)"/>
       <path id="DejaVuSans-69" d="M 603 3500 
L 1178 3500 
L 1178 0 
L 603 0 
L 603 3500 
z
M 603 4863 
L 1178 4863 
L 1178 4134 
L 603 4134 
L 603 4863 
z
" transform="scale(0.015625)"/>
       <path id="DejaVuSans-6f" d="M 1959 3097 
Q 1497 3097 1228 2736 
Q 959 2375 959 1747 
Q 959 1119 1226 758 
Q 1494 397 1959 397 
Q 2419 397 2687 759 
Q 2956 1122 2956 1747 
Q 2956 2369 2687 2733 
Q 2419 3097 1959 3097 
z
M 1959 3584 
Q 2709 3584 3137 3096 
Q 3566 2609 3566 1747 
Q 3566 888 3137 398 
Q 2709 -91 1959 -91 
Q 1206 -91 779 398 
Q 353 888 353 1747 
Q 353 2609 779 3096 
Q 1206 3584 1959 3584 
z
" transform="scale(0.015625)"/>
       <path id="DejaVuSans-20" transform="scale(0.015625)"/>
       <path id="DejaVuSans-ed" d="M 1322 5119 
L 1944 5119 
L 926 3944 
L 447 3944 
L 1322 5119 
z
M 603 3500 
L 1178 3500 
L 1178 0 
L 603 0 
L 603 3500 
z
M 891 3584 
L 891 3584 
z
" transform="scale(0.015625)"/>
       <path id="DejaVuSans-3d" d="M 678 2906 
L 4684 2906 
L 4684 2381 
L 678 2381 
L 678 2906 
z
M 678 1631 
L 4684 1631 
L 4684 1100 
L 678 1100 
L 678 1631 
z
" transform="scale(0.015625)"/>
       <path id="DejaVuSans-37" d="M 525 4666 
L 3525 4666 
L 3525 4397 
L 1831 0 
L 1172 0 
L 2766 4134 
L 525 4134 
L 525 4666 
z
" transform="scale(0.015625)"/>
       <path id="DejaVuSans-2e" d="M 684 794 
L 1344 794 
L 1344 0 
L 684 0 
L 684 794 
z
" transform="scale(0.015625)"/>
      </defs>
      <use xlink:href="#DejaVuSans-50"/>
      <use xlink:href="#DejaVuSans-72" x="58.552734"/>
      <use xlink:href="#DejaVuSans-65" x="97.416016"/>
      <use xlink:href="#DejaVuSans-63" x="158.939453"/>
      <use xlink:href="#DejaVuSans-69" x="213.919922"/>
      <use xlink:href="#DejaVuSans-6f" x="241.703125"/>
      <use xlink:href="#DejaVuSans-20" x="302.884766"/>
      <use xlink:href="#DejaVuSans-6d" x="334.671875"/>
      <use xlink:href="#DejaVuSans-ed" x="432.083984"/>
      <use xlink:href="#DejaVuSans-6e" x="459.867188"/>
      <use xlink:href="#DejaVuSans-69" x="523.246094"/>
      <use xlink:href="#DejaVuSans-6d" x="551.029297"/>
      <use xlink:href="#DejaVuSans-6f" x="648.441406"/>
      <use xlink:href="#DejaVuSans-20" x="709.623047"/>
      <use xlink:href="#DejaVuSans-3d" x="741.410156"/>
      <use xlink:href="#DejaVuSans-20" x="825.199219"/>
      <use xlink:href="#DejaVuSans-37" x="856.986328"/>
      <use xlink:href="#DejaVuSans-2e" x="920.609375"/>
      <use xlink:href="#DejaVuSans-30" x="952.396484"/>
     </g>
    </g>
   </g>
   <g id="text_19">
    <g id="patch_7">
     <path d="M 247.465937 293.9415 
L 334.393438 293.9415 
Q 337.693437 293.9415 337.693437 290.6415 
L 337.693437 255.360375 
Q 337.693437 252.060375 334.393438 252.060375 
L 247.465937 252.060375 
Q 244.165937 252.060375 244.165937 255.360375 
L 244.165937 290.6415 
Q 244.165937 293.9415 247.465937 293.9415 
z
" style="fill: #fffbeb; opacity: 0.97; stroke: #f39c12; stroke-width: 0.7; stroke-linejoin: miter"/>
    </g>
    <!-- EXCEDENTE -->
    <g style="fill: #2980b9" transform="translate(254.902969 263.632719) scale(0.11 -0.11)">
     <defs>
      <path id="DejaVuSans-Bold-45" d="M 588 4666 
L 3834 4666 
L 3834 3756 
L 1791 3756 
L 1791 2888 
L 3713 2888 
L 3713 1978 
L 1791 1978 
L 1791 909 
L 3903 909 
L 3903 0 
L 588 0 
L 588 4666 
z
" transform="scale(0.015625)"/>
      <path id="DejaVuSans-Bold-58" d="M 3188 2381 
L 4806 0 
L 3553 0 
L 2463 1594 
L 1381 0 
L 122 0 
L 1741 2381 
L 184 4666 
L 1441 4666 
L 2463 3163 
L 3481 4666 
L 4744 4666 
L 3188 2381 
z
" transform="scale(0.015625)"/>
      <path id="DejaVuSans-Bold-43" d="M 4288 256 
Q 3956 84 3597 -3 
Q 3238 -91 2847 -91 
Q 1681 -91 1000 561 
Q 319 1213 319 2328 
Q 319 3447 1000 4098 
Q 1681 4750 2847 4750 
Q 3238 4750 3597 4662 
Q 3956 4575 4288 4403 
L 4288 3438 
Q 3953 3666 3628 3772 
Q 3303 3878 2944 3878 
Q 2300 3878 1931 3465 
Q 1563 3053 1563 2328 
Q 1563 1606 1931 1193 
Q 2300 781 2944 781 
Q 3303 781 3628 887 
Q 3953 994 4288 1222 
L 4288 256 
z
" transform="scale(0.015625)"/>
      <path id="DejaVuSans-Bold-44" d="M 1791 3756 
L 1791 909 
L 2222 909 
Q 2959 909 3348 1275 
Q 3738 1641 3738 2338 
Q 3738 3031 3350 3393 
Q 2963 3756 2222 3756 
L 1791 3756 
z
M 588 4666 
L 1856 4666 
Q 2919 4666 3439 4514 
Q 3959 4363 4331 4000 
Q 4659 3684 4818 3271 
Q 4978 2859 4978 2338 
Q 4978 1809 4818 1395 
Q 4659 981 4331 666 
Q 3956 303 3431 151 
Q 2906 0 1856 0 
L 588 0 
L 588 4666 
z
" transform="scale(0.015625)"/>
      <path id="DejaVuSans-Bold-4e" d="M 588 4666 
L 1931 4666 
L 3628 1466 
L 3628 4666 
L 4769 4666 
L 4769 0 
L 3425 0 
L 1728 3200 
L 1728 0 
L 588 0 
L 588 4666 
z
" transform="scale(0.015625)"/>
      <path id="DejaVuSans-Bold-54" d="M 31 4666 
L 4331 4666 
L 4331 3756 
L 2784 3756 
L 2784 0 
L 1581 0 
L 1581 3756 
L 31 3756 
L 31 4666 
z
" transform="scale(0.015625)"/>
     </defs>
     <use xlink:href="#DejaVuSans-Bold-45"/>
     <use xlink:href="#DejaVuSans-Bold-58" x="68.310547"/>
     <use xlink:href="#DejaVuSans-Bold-43" x="141.785156"/>
     <use xlink:href="#DejaVuSans-Bold-45" x="215.173828"/>
     <use xlink:href="#DejaVuSans-Bold-44" x="283.484375"/>
     <use xlink:href="#DejaVuSans-Bold-45" x="366.492188"/>
     <use xlink:href="#DejaVuSans-Bold-4e" x="434.802734"/>
     <use xlink:href="#DejaVuSans-Bold-54" x="518.494141"/>
     <use xlink:href="#DejaVuSans-Bold-45" x="586.707031"/>
    </g>
    <!-- (Qs &gt; Qd) -->
    <g style="fill: #2980b9" transform="translate(260.902266 275.950312) scale(0.11 -0.11)">
     <defs>
      <path id="DejaVuSans-Bold-3e" d="M 678 3041 
L 678 3822 
L 4684 2375 
L 4684 1638 
L 678 191 
L 678 972 
L 3694 2003 
L 678 3041 
z
" transform="scale(0.015625)"/>
     </defs>
     <use xlink:href="#DejaVuSans-Bold-28"/>
     <use xlink:href="#DejaVuSans-Bold-51" x="45.703125"/>
     <use xlink:href="#DejaVuSans-Bold-73" x="130.712891"/>
     <use xlink:href="#DejaVuSans-Bold-20" x="190.234375"/>
     <use xlink:href="#DejaVuSans-Bold-3e" x="225.048828"/>
     <use xlink:href="#DejaVuSans-Bold-20" x="308.837891"/>
     <use xlink:href="#DejaVuSans-Bold-51" x="343.652344"/>
     <use xlink:href="#DejaVuSans-Bold-64" x="428.662109"/>
     <use xlink:href="#DejaVuSans-Bold-29" x="500.244141"/>
    </g>
    <!-- ej: desempleo -->
    <g style="fill: #2980b9" transform="translate(247.465937 288.267906) scale(0.11 -0.11)">
     <defs>
      <path id="DejaVuSans-Bold-6a" d="M 538 3500 
L 1656 3500 
L 1656 63 
Q 1656 -641 1318 -1011 
Q 981 -1381 341 -1381 
L -213 -1381 
L -213 -647 
L -19 -647 
Q 300 -647 419 -503 
Q 538 -359 538 63 
L 538 3500 
z
M 538 4863 
L 1656 4863 
L 1656 3950 
L 538 3950 
L 538 4863 
z
" transform="scale(0.015625)"/>
      <path id="DejaVuSans-Bold-3a" d="M 716 3500 
L 1844 3500 
L 1844 2291 
L 716 2291 
L 716 3500 
z
M 716 1209 
L 1844 1209 
L 1844 0 
L 716 0 
L 716 1209 
z
" transform="scale(0.015625)"/>
      <path id="DejaVuSans-Bold-6c" d="M 538 4863 
L 1656 4863 
L 1656 0 
L 538 0 
L 538 4863 
z
" transform="scale(0.015625)"/>
     </defs>
     <use xlink:href="#DejaVuSans-Bold-65"/>
     <use xlink:href="#DejaVuSans-Bold-6a" x="67.822266"/>
     <use xlink:href="#DejaVuSans-Bold-3a" x="102.099609"/>
     <use xlink:href="#DejaVuSans-Bold-20" x="142.089844"/>
     <use xlink:href="#DejaVuSans-Bold-64" x="176.904297"/>
     <use xlink:href="#DejaVuSans-Bold-65" x="248.486328"/>
     <use xlink:href="#DejaVuSans-Bold-73" x="316.308594"/>
     <use xlink:href="#DejaVuSans-Bold-65" x="375.830078"/>
     <use xlink:href="#DejaVuSans-Bold-6d" x="443.652344"/>
     <use xlink:href="#DejaVuSans-Bold-70" x="547.851562"/>
     <use xlink:href="#DejaVuSans-Bold-6c" x="619.433594"/>
     <use xlink:href="#DejaVuSans-Bold-65" x="653.710938"/>
     <use xlink:href="#DejaVuSans-Bold-6f" x="721.533203"/>
    </g>
   </g>
   <g id="text_20">
    <!-- Qd -->
    <g style="fill: #c0392b" transform="translate(184.06051 392.19625) scale(0.11 -0.11)">
     <use xlink:href="#DejaVuSans-Bold-51"/>
     <use xlink:href="#DejaVuSans-Bold-64" x="85.009766"/>
    </g>
   </g>
   <g id="text_21">
    <!-- Qs -->
    <g style="fill: #2980b9" transform="translate(381.23699 392.19625) scale(0.11 -0.11)">
     <use xlink:href="#DejaVuSans-Bold-51"/>
     <use xlink:href="#DejaVuSans-Bold-73" x="85.009766"/>
    </g>
   </g>
   <g id="text_22">
    <!-- P̲ -->
    <g transform="translate(31.034063 167.898546) scale(0.12 -0.12)">
     <defs>
      <path id="DejaVuSans-Bold-332" d="M 0 -916 
L 0 -1509 
L -3200 -1509 
L -3200 -916 
L 0 -916 
z
" transform="scale(0.015625)"/>
     </defs>
     <use xlink:href="#DejaVuSans-Bold-50"/>
     <use xlink:href="#DejaVuSans-Bold-332" x="73.291016"/>
    </g>
   </g>
   <g id="text_23">
    <!-- P* -->
    <g style="fill: #808080" transform="translate(28.8 224.541959) scale(0.1 -0.1)">
     <defs>
      <path id="DejaVuSans-2a" d="M 3009 3897 
L 1888 3291 
L 3009 2681 
L 2828 2375 
L 1778 3009 
L 1778 1831 
L 1422 1831 
L 1422 3009 
L 372 2375 
L 191 2681 
L 1313 3291 
L 191 3897 
L 372 4206 
L 1422 3572 
L 1422 4750 
L 1778 4750 
L 1778 3572 
L 2828 4206 
L 3009 3897 
z
" transform="scale(0.015625)"/>
     </defs>
     <use xlink:href="#DejaVuSans-50"/>
     <use xlink:href="#DejaVuSans-2a" x="60.302734"/>
    </g>
   </g>
   <g id="text_24">
    <g id="patch_8">
     <path d="M 245.11875 146.334579 
L 336.740625 146.334579 
Q 340.240625 146.334579 340.240625 142.834579 
L 340.240625 133.156454 
Q 340.240625 129.656454 336.740625 129.656454 
L 245.11875 129.656454 
Q 241.61875 129.656454 241.61875 133.156454 
L 241.61875 142.834579 
Q 241.61875 146.334579 245.11875 146.334579 
z
" style="fill: #ffffff; opacity: 0.97; stroke: #bdc3c7; stroke-width: 0.8; stroke-linejoin: miter"/>
    </g>
    <!-- excedente = 4.5 -->
    <g style="fill: #2980b9" transform="translate(245.11875 140.754892) scale(0.1 -0.1)">
     <defs>
      <path id="DejaVuSans-Bold-3d" d="M 678 3084 
L 4684 3084 
L 4684 2350 
L 678 2350 
L 678 3084 
z
M 678 1663 
L 4684 1663 
L 4684 922 
L 678 922 
L 678 1663 
z
" transform="scale(0.015625)"/>
      <path id="DejaVuSans-Bold-34" d="M 2356 3675 
L 1038 1722 
L 2356 1722 
L 2356 3675 
z
M 2156 4666 
L 3494 4666 
L 3494 1722 
L 4159 1722 
L 4159 850 
L 3494 850 
L 3494 0 
L 2356 0 
L 2356 850 
L 288 850 
L 288 1881 
L 2156 4666 
z
" transform="scale(0.015625)"/>
      <path id="DejaVuSans-Bold-2e" d="M 653 1209 
L 1778 1209 
L 1778 0 
L 653 0 
L 653 1209 
z
" transform="scale(0.015625)"/>
      <path id="DejaVuSans-Bold-35" d="M 678 4666 
L 3669 4666 
L 3669 3781 
L 1638 3781 
L 1638 3059 
Q 1775 3097 1914 3117 
Q 2053 3138 2203 3138 
Q 3056 3138 3531 2711 
Q 4006 2284 4006 1522 
Q 4006 766 3489 337 
Q 2972 -91 2053 -91 
Q 1656 -91 1267 -14 
Q 878 63 494 219 
L 494 1166 
Q 875 947 1217 837 
Q 1559 728 1863 728 
Q 2300 728 2551 942 
Q 2803 1156 2803 1522 
Q 2803 1891 2551 2103 
Q 2300 2316 1863 2316 
Q 1603 2316 1309 2248 
Q 1016 2181 678 2041 
L 678 4666 
z
" transform="scale(0.015625)"/>
     </defs>
     <use xlink:href="#DejaVuSans-Bold-65"/>
     <use xlink:href="#DejaVuSans-Bold-78" x="67.822266"/>
     <use xlink:href="#DejaVuSans-Bold-63" x="132.324219"/>
     <use xlink:href="#DejaVuSans-Bold-65" x="191.601562"/>
     <use xlink:href="#DejaVuSans-Bold-64" x="259.423828"/>
     <use xlink:href="#DejaVuSans-Bold-65" x="331.005859"/>
     <use xlink:href="#DejaVuSans-Bold-6e" x="398.828125"/>
     <use xlink:href="#DejaVuSans-Bold-74" x="470.019531"/>
     <use xlink:href="#DejaVuSans-Bold-65" x="517.822266"/>
     <use xlink:href="#DejaVuSans-Bold-20" x="585.644531"/>
     <use xlink:href="#DejaVuSans-Bold-3d" x="620.458984"/>
     <use xlink:href="#DejaVuSans-Bold-20" x="704.248047"/>
     <use xlink:href="#DejaVuSans-Bold-34" x="739.0625"/>
     <use xlink:href="#DejaVuSans-Bold-2e" x="808.642578"/>
     <use xlink:href="#DejaVuSans-Bold-35" x="846.630859"/>
    </g>
   </g>
  </g>
 </g>
 <defs>
  <clipPath id="p6b269e95fb">
   <rect x="39.829688" y="51.197969" width="502.2" height="332.64"/>
  </clipPath>
 </defs>
</svg>
