<?xml version="1.0" encoding="utf-8" standalone="no"?>
<!DOCTYPE svg PUBLIC "-//W3C//DTD SVG 1.1//EN"
  "http://www.w3.org/Graphics/SVG/1.1/DTD/svg11.dtd">
<svg xmlns:xlink="http://www.w3.org/1999/xlink" width="751.413437pt" height="688.825625pt" viewBox="0 0 751.413437 688.825625" xmlns="http://www.w3.org/2000/svg" version="1.1">
 <metadata>
  <rdf:RDF xmlns:dc="http://purl.org/dc/elements/1.1/" xmlns:cc="http://creativecommons.org/ns#" xmlns:rdf="http://www.w3.org/1999/02/22-rdf-syntax-ns#">
   <cc:Work>
    <dc:type rdf:resource="http://purl.org/dc/dcmitype/StillImage"/>
    <dc:date>2026-04-28T17:41:34.285680</dc:date>
    <dc:format>image/svg+xml</dc:format>
    <dc:creator>
     <cc:Agent>
      <dc:title>Matplotlib v3.9.2, https://matplotlib.org/</dc:title>
     </cc:Agent>
    </dc:creator>
   </cc:Work>
  </rdf:RDF>
 </metadata>
 <defs>
  <style type="text/css">*{stroke-linejoin: round; stroke-linecap: butt}</style>
 </defs>
 <g id="figure_1">
  <g id="patch_1">
   <path d="M 0 688.825625 
L 751.413437 688.825625 
L 751.413437 0 
L 0 0 
z
" style="fill: #ffffff"/>
  </g>
  <g id="axes_1">
   <g id="patch_2">
    <path d="M 72.518438 361.805455 
L 722.613437 361.805455 
L 722.613437 65.7 
L 72.518438 65.7 
z
" style="fill: #ffffff"/>
   </g>
   <g id="PolyCollection_1">
    <defs>
     <path id="m55d5e7f53e" d="M 78.830039 -328.970898 
L 78.830039 -327.02017 
L 80.919834 -327.02017 
L 83.009629 -327.02017 
L 85.099423 -327.02017 
L 87.189218 -327.02017 
L 89.279013 -327.02017 
L 91.368807 -327.02017 
L 93.458602 -327.02017 
L 95.548396 -327.02017 
L 97.638191 -327.02017 
L 99.727986 -327.02017 
L 101.81778 -327.02017 
L 103.907575 -327.02017 
L 105.99737 -327.02017 
L 108.087164 -327.02017 
L 110.176959 -327.02017 
L 112.266753 -327.02017 
L 114.356548 -327.02017 
L 116.446343 -327.02017 
L 118.536137 -327.02017 
L 120.625932 -327.02017 
L 122.715727 -327.02017 
L 124.805521 -327.02017 
L 126.895316 -327.02017 
L 128.98511 -327.02017 
L 131.074905 -327.02017 
L 133.1647 -327.02017 
L 135.254494 -327.02017 
L 137.344289 -327.02017 
L 139.434084 -327.02017 
L 141.523878 -327.02017 
L 143.613673 -327.02017 
L 145.703467 -327.02017 
L 147.793262 -327.02017 
L 149.883057 -327.02017 
L 151.972851 -327.02017 
L 154.062646 -327.02017 
L 156.15244 -327.02017 
L 158.242235 -327.02017 
L 160.33203 -327.02017 
L 162.421824 -327.02017 
L 164.511619 -327.02017 
L 166.601414 -327.02017 
L 168.691208 -327.02017 
L 170.781003 -327.02017 
L 172.870797 -327.02017 
L 174.960592 -327.02017 
L 177.050387 -327.02017 
L 179.140181 -327.02017 
L 181.229976 -327.02017 
L 183.319771 -327.02017 
L 185.409565 -327.02017 
L 187.49936 -327.02017 
L 189.589154 -327.02017 
L 191.678949 -327.02017 
L 193.768744 -327.02017 
L 195.858538 -327.02017 
L 197.948333 -327.02017 
L 200.038128 -327.02017 
L 202.127922 -327.02017 
L 204.217717 -327.02017 
L 206.307511 -327.02017 
L 208.397306 -327.02017 
L 210.487101 -327.02017 
L 212.576895 -327.02017 
L 214.66669 -327.02017 
L 216.756485 -327.02017 
L 218.846279 -327.02017 
L 220.936074 -327.02017 
L 223.025868 -327.02017 
L 225.115663 -327.02017 
L 227.205458 -327.02017 
L 229.295252 -327.02017 
L 231.385047 -327.02017 
L 233.474842 -327.02017 
L 235.564636 -327.02017 
L 237.654431 -327.02017 
L 239.744225 -327.02017 
L 241.83402 -327.02017 
L 243.923815 -327.02017 
L 246.013609 -327.02017 
L 248.103404 -327.02017 
L 250.193199 -327.02017 
L 252.282993 -327.02017 
L 254.372788 -327.02017 
L 256.462582 -327.02017 
L 258.552377 -327.02017 
L 260.642172 -327.02017 
L 262.731966 -327.02017 
L 264.821761 -327.02017 
L 266.911555 -327.02017 
L 269.00135 -327.02017 
L 271.091145 -327.02017 
L 273.180939 -327.02017 
L 275.270734 -327.02017 
L 277.360529 -327.02017 
L 279.450323 -327.02017 
L 281.540118 -327.02017 
L 283.629912 -327.02017 
L 285.719707 -327.02017 
L 287.809502 -327.02017 
L 289.899296 -327.02017 
L 291.989091 -327.02017 
L 294.078886 -327.02017 
L 296.16868 -327.02017 
L 298.258475 -327.02017 
L 300.348269 -327.02017 
L 302.438064 -327.02017 
L 304.527859 -327.02017 
L 306.617653 -327.02017 
L 308.707448 -327.02017 
L 310.797243 -327.02017 
L 312.887037 -327.02017 
L 314.976832 -327.02017 
L 317.066626 -327.02017 
L 319.156421 -327.02017 
L 321.246216 -327.02017 
L 323.33601 -327.02017 
L 325.425805 -327.02017 
L 327.5156 -327.02017 
L 329.605394 -327.02017 
L 331.695189 -327.02017 
L 333.784983 -327.02017 
L 335.874778 -327.02017 
L 337.964573 -327.02017 
L 340.054367 -327.02017 
L 342.144162 -327.02017 
L 344.233957 -327.02017 
L 346.323751 -327.02017 
L 348.413546 -327.02017 
L 350.50334 -327.02017 
L 352.593135 -327.02017 
L 354.68293 -327.02017 
L 356.772724 -327.02017 
L 358.862519 -327.02017 
L 360.952314 -327.02017 
L 363.042108 -327.02017 
L 365.131903 -327.02017 
L 367.221697 -327.02017 
L 369.311492 -327.02017 
L 371.401287 -327.02017 
L 373.491081 -327.02017 
L 375.580876 -327.02017 
L 377.670671 -327.02017 
L 379.760465 -327.02017 
L 381.85026 -327.02017 
L 383.940054 -327.02017 
L 386.029849 -327.02017 
L 388.119644 -327.02017 
L 390.209438 -327.02017 
L 392.299233 -327.02017 
L 394.389027 -327.02017 
L 396.478822 -327.02017 
L 398.568617 -327.02017 
L 400.658411 -327.02017 
L 402.748206 -327.02017 
L 404.838001 -327.02017 
L 406.927795 -327.02017 
L 409.01759 -327.02017 
L 411.107384 -327.02017 
L 413.197179 -327.02017 
L 415.286974 -327.02017 
L 417.376768 -327.02017 
L 419.466563 -327.02017 
L 421.556358 -327.02017 
L 423.646152 -327.02017 
L 425.735947 -327.02017 
L 427.825741 -327.02017 
L 429.915536 -327.02017 
L 432.005331 -327.02017 
L 434.095125 -327.02017 
L 436.18492 -327.02017 
L 438.274715 -327.02017 
L 440.364509 -327.02017 
L 442.454304 -327.02017 
L 444.544098 -327.02017 
L 446.633893 -327.02017 
L 448.723688 -327.02017 
L 450.813482 -327.02017 
L 452.903277 -327.02017 
L 454.993072 -327.02017 
L 457.082866 -327.02017 
L 459.172661 -327.02017 
L 461.262455 -327.02017 
L 463.35225 -327.02017 
L 465.442045 -327.02017 
L 467.531839 -327.02017 
L 469.621634 -327.02017 
L 471.711429 -327.02017 
L 473.801223 -327.02017 
L 475.891018 -327.02017 
L 477.980812 -327.02017 
L 480.070607 -327.02017 
L 482.160402 -327.02017 
L 484.250196 -327.02017 
L 486.339991 -327.02017 
L 488.429786 -327.02017 
L 490.51958 -327.02017 
L 492.609375 -327.02017 
L 494.699169 -327.02017 
L 496.788964 -327.02017 
L 498.878759 -327.02017 
L 500.968553 -327.02017 
L 503.058348 -327.02017 
L 505.148143 -327.02017 
L 507.237937 -327.02017 
L 509.327732 -327.02017 
L 511.417526 -327.02017 
L 513.507321 -327.02017 
L 515.597116 -327.02017 
L 517.68691 -327.02017 
L 519.776705 -327.02017 
L 521.866499 -327.02017 
L 523.956294 -327.02017 
L 526.046089 -327.02017 
L 528.135883 -327.02017 
L 530.225678 -327.02017 
L 532.315473 -327.02017 
L 534.405267 -327.02017 
L 536.495062 -327.02017 
L 538.584856 -327.02017 
L 540.674651 -327.02017 
L 542.764446 -327.02017 
L 544.85424 -327.02017 
L 546.944035 -327.02017 
L 549.03383 -327.02017 
L 551.123624 -327.02017 
L 553.213419 -327.02017 
L 555.303213 -327.02017 
L 557.393008 -327.02017 
L 559.482803 -327.02017 
L 561.572597 -327.02017 
L 563.662392 -327.02017 
L 565.752187 -327.02017 
L 567.841981 -327.02017 
L 569.931776 -327.02017 
L 572.02157 -327.02017 
L 574.111365 -327.02017 
L 576.20116 -327.02017 
L 578.290954 -327.02017 
L 580.380749 -327.02017 
L 582.470544 -327.02017 
L 584.560338 -327.02017 
L 586.650133 -327.02017 
L 588.739927 -327.02017 
L 590.829722 -327.02017 
L 592.919517 -327.02017 
L 595.009311 -327.02017 
L 597.099106 -327.02017 
L 599.188901 -327.02017 
L 601.278695 -327.02017 
L 603.36849 -327.02017 
L 605.458284 -327.02017 
L 607.548079 -327.02017 
L 609.637874 -327.02017 
L 611.727668 -327.02017 
L 613.817463 -327.02017 
L 615.907258 -327.02017 
L 617.997052 -327.02017 
L 620.086847 -327.02017 
L 622.176641 -327.02017 
L 624.266436 -327.02017 
L 626.356231 -327.02017 
L 628.446025 -327.02017 
L 630.53582 -327.02017 
L 632.625614 -327.02017 
L 634.715409 -327.02017 
L 636.805204 -327.02017 
L 638.894998 -327.02017 
L 640.984793 -327.02017 
L 643.074588 -327.02017 
L 645.164382 -327.02017 
L 647.254177 -327.02017 
L 649.343971 -327.02017 
L 651.433766 -327.02017 
L 653.523561 -327.02017 
L 655.613355 -327.02017 
L 657.70315 -327.02017 
L 659.792945 -327.02017 
L 661.882739 -327.02017 
L 663.972534 -327.02017 
L 666.062328 -327.02017 
L 668.152123 -327.02017 
L 670.241918 -327.02017 
L 672.331712 -327.02017 
L 674.421507 -327.02017 
L 676.511302 -327.02017 
L 678.601096 -327.02017 
L 680.690891 -327.02017 
L 682.780685 -327.02017 
L 684.87048 -327.02017 
L 686.960275 -327.02017 
L 689.050069 -327.02017 
L 691.139864 -327.02017 
L 693.229659 -327.02017 
L 695.319453 -327.02017 
L 697.409248 -327.02017 
L 699.499042 -327.02017 
L 701.588837 -327.02017 
L 703.678632 -327.02017 
L 703.678632 -516.466403 
L 703.678632 -516.466403 
L 701.588837 -517.708489 
L 699.499042 -518.925776 
L 697.409248 -520.118388 
L 695.319453 -521.286449 
L 693.229659 -522.430082 
L 691.139864 -523.549411 
L 689.050069 -524.644561 
L 686.960275 -525.715654 
L 684.87048 -526.762814 
L 682.780685 -527.786166 
L 680.690891 -528.785833 
L 678.601096 -529.761939 
L 676.511302 -530.714607 
L 674.421507 -531.643962 
L 672.331712 -532.550127 
L 670.241918 -533.433227 
L 668.152123 -534.293384 
L 666.062328 -535.130722 
L 663.972534 -535.945366 
L 661.882739 -536.737439 
L 659.792945 -537.507065 
L 657.70315 -538.254367 
L 655.613355 -538.97947 
L 653.523561 -539.682497 
L 651.433766 -540.363572 
L 649.343971 -541.022819 
L 647.254177 -541.660362 
L 645.164382 -542.276324 
L 643.074588 -542.870829 
L 640.984793 -543.444001 
L 638.894998 -543.995963 
L 636.805204 -544.52684 
L 634.715409 -545.036756 
L 632.625614 -545.525833 
L 630.53582 -545.994196 
L 628.446025 -546.441969 
L 626.356231 -546.869275 
L 624.266436 -547.276238 
L 622.176641 -547.662983 
L 620.086847 -548.029632 
L 617.997052 -548.376309 
L 615.907258 -548.703139 
L 613.817463 -549.010245 
L 611.727668 -549.29775 
L 609.637874 -549.565779 
L 607.548079 -549.814456 
L 605.458284 -550.043904 
L 603.36849 -550.254247 
L 601.278695 -550.445608 
L 599.188901 -550.618112 
L 597.099106 -550.771882 
L 595.009311 -550.907043 
L 592.919517 -551.023717 
L 590.829722 -551.122029 
L 588.739927 -551.202102 
L 586.650133 -551.26406 
L 584.560338 -551.308028 
L 582.470544 -551.334128 
L 580.380749 -551.342485 
L 578.290954 -551.333222 
L 576.20116 -551.306463 
L 574.111365 -551.262332 
L 572.02157 -551.200952 
L 569.931776 -551.122448 
L 567.841981 -551.026943 
L 565.752187 -550.914562 
L 563.662392 -550.785427 
L 561.572597 -550.639662 
L 559.482803 -550.477392 
L 557.393008 -550.29874 
L 555.303213 -550.10383 
L 553.213419 -549.892786 
L 551.123624 -549.665731 
L 549.03383 -549.422789 
L 546.944035 -549.164084 
L 544.85424 -548.88974 
L 542.764446 -548.599881 
L 540.674651 -548.29463 
L 538.584856 -547.974111 
L 536.495062 -547.638448 
L 534.405267 -547.287765 
L 532.315473 -546.922185 
L 530.225678 -546.541833 
L 528.135883 -546.146831 
L 526.046089 -545.737304 
L 523.956294 -545.313376 
L 521.866499 -544.875171 
L 519.776705 -544.422811 
L 517.68691 -543.956421 
L 515.597116 -543.476125 
L 513.507321 -542.982047 
L 511.417526 -542.47431 
L 509.327732 -541.953038 
L 507.237937 -541.418354 
L 505.148143 -540.870384 
L 503.058348 -540.309249 
L 500.968553 -539.735075 
L 498.878759 -539.147985 
L 496.788964 -538.548103 
L 494.699169 -537.935552 
L 492.609375 -537.310456 
L 490.51958 -536.67294 
L 488.429786 -536.023126 
L 486.339991 -535.361139 
L 484.250196 -534.687102 
L 482.160402 -534.00114 
L 480.070607 -533.303375 
L 477.980812 -532.593933 
L 475.891018 -531.872935 
L 473.801223 -531.140508 
L 471.711429 -530.396773 
L 469.621634 -529.641855 
L 467.531839 -528.875878 
L 465.442045 -528.098965 
L 463.35225 -527.31124 
L 461.262455 -526.512827 
L 459.172661 -525.703851 
L 457.082866 -524.884433 
L 454.993072 -524.054699 
L 452.903277 -523.214772 
L 450.813482 -522.364776 
L 448.723688 -521.504835 
L 446.633893 -520.635072 
L 444.544098 -519.755612 
L 442.454304 -518.866577 
L 440.364509 -517.968092 
L 438.274715 -517.060281 
L 436.18492 -516.143267 
L 434.095125 -515.217174 
L 432.005331 -514.282127 
L 429.915536 -513.338247 
L 427.825741 -512.385661 
L 425.735947 -511.42449 
L 423.646152 -510.45486 
L 421.556358 -509.476893 
L 419.466563 -508.490714 
L 417.376768 -507.496447 
L 415.286974 -506.494214 
L 413.197179 -505.484141 
L 411.107384 -504.46635 
L 409.01759 -503.440966 
L 406.927795 -502.408112 
L 404.838001 -501.367912 
L 402.748206 -500.32049 
L 400.658411 -499.265969 
L 398.568617 -498.204474 
L 396.478822 -497.136128 
L 394.389027 -496.061055 
L 392.299233 -494.979379 
L 390.209438 -493.891223 
L 388.119644 -492.796711 
L 386.029849 -491.695968 
L 383.940054 -490.589116 
L 381.85026 -489.47628 
L 379.760465 -488.357584 
L 377.670671 -487.23315 
L 375.580876 -486.103104 
L 373.491081 -484.967569 
L 371.401287 -483.826667 
L 369.311492 -482.680525 
L 367.221697 -481.529264 
L 365.131903 -480.373009 
L 363.042108 -479.211884 
L 360.952314 -478.046012 
L 358.862519 -476.875518 
L 356.772724 -475.700524 
L 354.68293 -474.521156 
L 352.593135 -473.337535 
L 350.50334 -472.149788 
L 348.413546 -470.958036 
L 346.323751 -469.762404 
L 344.233957 -468.563016 
L 342.144162 -467.359995 
L 340.054367 -466.153466 
L 337.964573 -464.943551 
L 335.874778 -463.730376 
L 333.784983 -462.514062 
L 331.695189 -461.294736 
L 329.605394 -460.072519 
L 327.5156 -458.847536 
L 325.425805 -457.619911 
L 323.33601 -456.389768 
L 321.246216 -455.15723 
L 319.156421 -453.92242 
L 317.066626 -452.685464 
L 314.976832 -451.446484 
L 312.887037 -450.205605 
L 310.797243 -448.962949 
L 308.707448 -447.718642 
L 306.617653 -446.472806 
L 304.527859 -445.225566 
L 302.438064 -443.977045 
L 300.348269 -442.727367 
L 298.258475 -441.476656 
L 296.16868 -440.225036 
L 294.078886 -438.97263 
L 291.989091 -437.719562 
L 289.899296 -436.465956 
L 287.809502 -435.211936 
L 285.719707 -433.957625 
L 283.629912 -432.703148 
L 281.540118 -431.448628 
L 279.450323 -430.194188 
L 277.360529 -428.939953 
L 275.270734 -427.686047 
L 273.180939 -426.432593 
L 271.091145 -425.179715 
L 269.00135 -423.927536 
L 266.911555 -422.676181 
L 264.821761 -421.425774 
L 262.731966 -420.176437 
L 260.642172 -418.928295 
L 258.552377 -417.681472 
L 256.462582 -416.436092 
L 254.372788 -415.192278 
L 252.282993 -413.950153 
L 250.193199 -412.709843 
L 248.103404 -411.47147 
L 246.013609 -410.235158 
L 243.923815 -409.001031 
L 241.83402 -407.769214 
L 239.744225 -406.539829 
L 237.654431 -405.313 
L 235.564636 -404.088852 
L 233.474842 -402.867507 
L 231.385047 -401.649091 
L 229.295252 -400.433726 
L 227.205458 -399.221536 
L 225.115663 -398.012646 
L 223.025868 -396.807178 
L 220.936074 -395.605257 
L 218.846279 -394.407007 
L 216.756485 -393.212551 
L 214.66669 -392.022013 
L 212.576895 -390.835517 
L 210.487101 -389.653186 
L 208.397306 -388.475145 
L 206.307511 -387.301516 
L 204.217717 -386.132425 
L 202.127922 -384.967995 
L 200.038128 -383.808349 
L 197.948333 -382.653611 
L 195.858538 -381.503905 
L 193.768744 -380.359355 
L 191.678949 -379.220085 
L 189.589154 -378.086218 
L 187.49936 -376.957878 
L 185.409565 -375.83519 
L 183.319771 -374.718276 
L 181.229976 -373.60726 
L 179.140181 -372.502267 
L 177.050387 -371.40342 
L 174.960592 -370.310843 
L 172.870797 -369.224659 
L 170.781003 -368.144993 
L 168.691208 -367.071968 
L 166.601414 -366.005708 
L 164.511619 -364.946336 
L 162.421824 -363.893978 
L 160.33203 -362.848755 
L 158.242235 -361.810793 
L 156.15244 -360.780214 
L 154.062646 -359.757143 
L 151.972851 -358.741704 
L 149.883057 -357.73402 
L 147.793262 -356.734215 
L 145.703467 -355.742412 
L 143.613673 -354.758736 
L 141.523878 -353.783311 
L 139.434084 -352.816259 
L 137.344289 -351.857706 
L 135.254494 -350.907774 
L 133.1647 -349.966588 
L 131.074905 -349.03427 
L 128.98511 -348.110946 
L 126.895316 -347.196739 
L 124.805521 -346.291772 
L 122.715727 -345.39617 
L 120.625932 -344.510055 
L 118.536137 -343.633553 
L 116.446343 -342.766786 
L 114.356548 -341.909879 
L 112.266753 -341.062955 
L 110.176959 -340.226138 
L 108.087164 -339.399552 
L 105.99737 -338.58332 
L 103.907575 -337.777567 
L 101.81778 -336.982416 
L 99.727986 -336.197991 
L 97.638191 -335.424416 
L 95.548396 -334.661814 
L 93.458602 -333.910309 
L 91.368807 -333.170026 
L 89.279013 -332.441087 
L 87.189218 -331.723617 
L 85.099423 -331.017739 
L 83.009629 -330.323578 
L 80.919834 -329.641256 
L 78.830039 -328.970898 
z
" style="stroke: #2980b9; stroke-opacity: 0.05"/>
    </defs>
    <g clip-path="url(#p30b89d178e)">
     <use xlink:href="#m55d5e7f53e" x="0" y="688.825625" style="fill: #2980b9; fill-opacity: 0.05; stroke: #2980b9; stroke-opacity: 0.05"/>
    </g>
   </g>
   <g id="matplotlib.axis_1">
    <g id="xtick_1">
     <g id="line2d_1">
      <path d="M 72.518438 361.805455 
L 72.518438 65.7 
" clip-path="url(#p30b89d178e)" style="fill: none; stroke-dasharray: 0.8,1.32; stroke-dashoffset: 0; stroke: #b0b0b0; stroke-opacity: 0.4; stroke-width: 0.8"/>
     </g>
     <g id="line2d_2">
      <defs>
       <path id="m5408caca38" d="M 0 0 
L 0 3.5 
" style="stroke: #000000; stroke-width: 0.8"/>
      </defs>
      <g>
       <use xlink:href="#m5408caca38" x="72.518438" y="361.805455" style="stroke: #000000; stroke-width: 0.8"/>
      </g>
     </g>
    </g>
    <g id="xtick_2">
     <g id="line2d_3">
      <path d="M 198.750476 361.805455 
L 198.750476 65.7 
" clip-path="url(#p30b89d178e)" style="fill: none; stroke-dasharray: 0.8,1.32; stroke-dashoffset: 0; stroke: #b0b0b0; stroke-opacity: 0.4; stroke-width: 0.8"/>
     </g>
     <g id="line2d_4">
      <g>
       <use xlink:href="#m5408caca38" x="198.750476" y="361.805455" style="stroke: #000000; stroke-width: 0.8"/>
      </g>
     </g>
    </g>
    <g id="xtick_3">
     <g id="line2d_5">
      <path d="M 324.982515 361.805455 
L 324.982515 65.7 
" clip-path="url(#p30b89d178e)" style="fill: none; stroke-dasharray: 0.8,1.32; stroke-dashoffset: 0; stroke: #b0b0b0; stroke-opacity: 0.4; stroke-width: 0.8"/>
     </g>
     <g id="line2d_6">
      <g>
       <use xlink:href="#m5408caca38" x="324.982515" y="361.805455" style="stroke: #000000; stroke-width: 0.8"/>
      </g>
     </g>
    </g>
    <g id="xtick_4">
     <g id="line2d_7">
      <path d="M 451.214554 361.805455 
L 451.214554 65.7 
" clip-path="url(#p30b89d178e)" style="fill: none; stroke-dasharray: 0.8,1.32; stroke-dashoffset: 0; stroke: #b0b0b0; stroke-opacity: 0.4; stroke-width: 0.8"/>
     </g>
     <g id="line2d_8">
      <g>
       <use xlink:href="#m5408caca38" x="451.214554" y="361.805455" style="stroke: #000000; stroke-width: 0.8"/>
      </g>
     </g>
    </g>
    <g id="xtick_5">
     <g id="line2d_9">
      <path d="M 577.446593 361.805455 
L 577.446593 65.7 
" clip-path="url(#p30b89d178e)" style="fill: none; stroke-dasharray: 0.8,1.32; stroke-dashoffset: 0; stroke: #b0b0b0; stroke-opacity: 0.4; stroke-width: 0.8"/>
     </g>
     <g id="line2d_10">
      <g>
       <use xlink:href="#m5408caca38" x="577.446593" y="361.805455" style="stroke: #000000; stroke-width: 0.8"/>
      </g>
     </g>
    </g>
    <g id="xtick_6">
     <g id="line2d_11">
      <path d="M 703.678632 361.805455 
L 703.678632 65.7 
" clip-path="url(#p30b89d178e)" style="fill: none; stroke-dasharray: 0.8,1.32; stroke-dashoffset: 0; stroke: #b0b0b0; stroke-opacity: 0.4; stroke-width: 0.8"/>
     </g>
     <g id="line2d_12">
      <g>
       <use xlink:href="#m5408caca38" x="703.678632" y="361.805455" style="stroke: #000000; stroke-width: 0.8"/>
      </g>
     </g>
    </g>
   </g>
   <g id="matplotlib.axis_2">
    <g id="ytick_1">
     <g id="line2d_13">
      <path d="M 72.518438 361.805455 
L 722.613437 361.805455 
" clip-path="url(#p30b89d178e)" style="fill: none; stroke-dasharray: 0.8,1.32; stroke-dashoffset: 0; stroke: #b0b0b0; stroke-opacity: 0.4; stroke-width: 0.8"/>
     </g>
     <g id="line2d_14">
      <defs>
       <path id="m3ef1b4cb9d" d="M 0 0 
L -3.5 0 
" style="stroke: #000000; stroke-width: 0.8"/>
      </defs>
      <g>
       <use xlink:href="#m3ef1b4cb9d" x="72.518438" y="361.805455" style="stroke: #000000; stroke-width: 0.8"/>
      </g>
     </g>
     <g id="text_1">
      <!-- 0 -->
      <g transform="translate(59.155938 365.604673) scale(0.1 -0.1)">
       <defs>
        <path id="DejaVuSans-30" d="M 2034 4250 
Q 1547 4250 1301 3770 
Q 1056 3291 1056 2328 
Q 1056 1369 1301 889 
Q 1547 409 2034 409 
Q 2525 409 2770 889 
Q 3016 1369 3016 2328 
Q 3016 3291 2770 3770 
Q 2525 4250 2034 4250 
z
M 2034 4750 
Q 2819 4750 3233 4129 
Q 3647 3509 3647 2328 
Q 3647 1150 3233 529 
Q 2819 -91 2034 -91 
Q 1250 -91 836 529 
Q 422 1150 422 2328 
Q 422 3509 836 4129 
Q 1250 4750 2034 4750 
z
" transform="scale(0.015625)"/>
       </defs>
       <use xlink:href="#DejaVuSans-30"/>
      </g>
     </g>
    </g>
    <g id="ytick_2">
     <g id="line2d_15">
      <path d="M 72.518438 323.916208 
L 722.613437 323.916208 
" clip-path="url(#p30b89d178e)" style="fill: none; stroke-dasharray: 0.8,1.32; stroke-dashoffset: 0; stroke: #b0b0b0; stroke-opacity: 0.4; stroke-width: 0.8"/>
     </g>
     <g id="line2d_16">
      <g>
       <use xlink:href="#m3ef1b4cb9d" x="72.518438" y="323.916208" style="stroke: #000000; stroke-width: 0.8"/>
      </g>
     </g>
     <g id="text_2">
      <!-- 20 -->
      <g transform="translate(52.793438 327.715427) scale(0.1 -0.1)">
       <defs>
        <path id="DejaVuSans-32" d="M 1228 531 
L 3431 531 
L 3431 0 
L 469 0 
L 469 531 
Q 828 903 1448 1529 
Q 2069 2156 2228 2338 
Q 2531 2678 2651 2914 
Q 2772 3150 2772 3378 
Q 2772 3750 2511 3984 
Q 2250 4219 1831 4219 
Q 1534 4219 1204 4116 
Q 875 4013 500 3803 
L 500 4441 
Q 881 4594 1212 4672 
Q 1544 4750 1819 4750 
Q 2544 4750 2975 4387 
Q 3406 4025 3406 3419 
Q 3406 3131 3298 2873 
Q 3191 2616 2906 2266 
Q 2828 2175 2409 1742 
Q 1991 1309 1228 531 
z
" transform="scale(0.015625)"/>
       </defs>
       <use xlink:href="#DejaVuSans-32"/>
       <use xlink:href="#DejaVuSans-30" x="63.623047"/>
      </g>
     </g>
    </g>
    <g id="ytick_3">
     <g id="line2d_17">
      <path d="M 72.518438 286.026962 
L 722.613437 286.026962 
" clip-path="url(#p30b89d178e)" style="fill: none; stroke-dasharray: 0.8,1.32; stroke-dashoffset: 0; stroke: #b0b0b0; stroke-opacity: 0.4; stroke-width: 0.8"/>
     </g>
     <g id="line2d_18">
      <g>
       <use xlink:href="#m3ef1b4cb9d" x="72.518438" y="286.026962" style="stroke: #000000; stroke-width: 0.8"/>
      </g>
     </g>
     <g id="text_3">
      <!-- 40 -->
      <g transform="translate(52.793438 289.82618) scale(0.1 -0.1)">
       <defs>
        <path id="DejaVuSans-34" d="M 2419 4116 
L 825 1625 
L 2419 1625 
L 2419 4116 
z
M 2253 4666 
L 3047 4666 
L 3047 1625 
L 3713 1625 
L 3713 1100 
L 3047 1100 
L 3047 0 
L 2419 0 
L 2419 1100 
L 313 1100 
L 313 1709 
L 2253 4666 
z
" transform="scale(0.015625)"/>
       </defs>
       <use xlink:href="#DejaVuSans-34"/>
       <use xlink:href="#DejaVuSans-30" x="63.623047"/>
      </g>
     </g>
    </g>
    <g id="ytick_4">
     <g id="line2d_19">
      <path d="M 72.518438 248.137715 
L 722.613437 248.137715 
" clip-path="url(#p30b89d178e)" style="fill: none; stroke-dasharray: 0.8,1.32; stroke-dashoffset: 0; stroke: #b0b0b0; stroke-opacity: 0.4; stroke-width: 0.8"/>
     </g>
     <g id="line2d_20">
      <g>
       <use xlink:href="#m3ef1b4cb9d" x="72.518438" y="248.137715" style="stroke: #000000; stroke-width: 0.8"/>
      </g>
     </g>
     <g id="text_4">
      <!-- 60 -->
      <g transform="translate(52.793438 251.936934) scale(0.1 -0.1)">
       <defs>
        <path id="DejaVuSans-36" d="M 2113 2584 
Q 1688 2584 1439 2293 
Q 1191 2003 1191 1497 
Q 1191 994 1439 701 
Q 1688 409 2113 409 
Q 2538 409 2786 701 
Q 3034 994 3034 1497 
Q 3034 2003 2786 2293 
Q 2538 2584 2113 2584 
z
M 3366 4563 
L 3366 3988 
Q 3128 4100 2886 4159 
Q 2644 4219 2406 4219 
Q 1781 4219 1451 3797 
Q 1122 3375 1075 2522 
Q 1259 2794 1537 2939 
Q 1816 3084 2150 3084 
Q 2853 3084 3261 2657 
Q 3669 2231 3669 1497 
Q 3669 778 3244 343 
Q 2819 -91 2113 -91 
Q 1303 -91 875 529 
Q 447 1150 447 2328 
Q 447 3434 972 4092 
Q 1497 4750 2381 4750 
Q 2619 4750 2861 4703 
Q 3103 4656 3366 4563 
z
" transform="scale(0.015625)"/>
       </defs>
       <use xlink:href="#DejaVuSans-36"/>
       <use xlink:href="#DejaVuSans-30" x="63.623047"/>
      </g>
     </g>
    </g>
    <g id="ytick_5">
     <g id="line2d_21">
      <path d="M 72.518438 210.248469 
L 722.613437 210.248469 
" clip-path="url(#p30b89d178e)" style="fill: none; stroke-dasharray: 0.8,1.32; stroke-dashoffset: 0; stroke: #b0b0b0; stroke-opacity: 0.4; stroke-width: 0.8"/>
     </g>
     <g id="line2d_22">
      <g>
       <use xlink:href="#m3ef1b4cb9d" x="72.518438" y="210.248469" style="stroke: #000000; stroke-width: 0.8"/>
      </g>
     </g>
     <g id="text_5">
      <!-- 80 -->
      <g transform="translate(52.793438 214.047688) scale(0.1 -0.1)">
       <defs>
        <path id="DejaVuSans-38" d="M 2034 2216 
Q 1584 2216 1326 1975 
Q 1069 1734 1069 1313 
Q 1069 891 1326 650 
Q 1584 409 2034 409 
Q 2484 409 2743 651 
Q 3003 894 3003 1313 
Q 3003 1734 2745 1975 
Q 2488 2216 2034 2216 
z
M 1403 2484 
Q 997 2584 770 2862 
Q 544 3141 544 3541 
Q 544 4100 942 4425 
Q 1341 4750 2034 4750 
Q 2731 4750 3128 4425 
Q 3525 4100 3525 3541 
Q 3525 3141 3298 2862 
Q 3072 2584 2669 2484 
Q 3125 2378 3379 2068 
Q 3634 1759 3634 1313 
Q 3634 634 3220 271 
Q 2806 -91 2034 -91 
Q 1263 -91 848 271 
Q 434 634 434 1313 
Q 434 1759 690 2068 
Q 947 2378 1403 2484 
z
M 1172 3481 
Q 1172 3119 1398 2916 
Q 1625 2713 2034 2713 
Q 2441 2713 2670 2916 
Q 2900 3119 2900 3481 
Q 2900 3844 2670 4047 
Q 2441 4250 2034 4250 
Q 1625 4250 1398 4047 
Q 1172 3844 1172 3481 
z
" transform="scale(0.015625)"/>
       </defs>
       <use xlink:href="#DejaVuSans-38"/>
       <use xlink:href="#DejaVuSans-30" x="63.623047"/>
      </g>
     </g>
    </g>
    <g id="ytick_6">
     <g id="line2d_23">
      <path d="M 72.518438 172.359222 
L 722.613437 172.359222 
" clip-path="url(#p30b89d178e)" style="fill: none; stroke-dasharray: 0.8,1.32; stroke-dashoffset: 0; stroke: #b0b0b0; stroke-opacity: 0.4; stroke-width: 0.8"/>
     </g>
     <g id="line2d_24">
      <g>
       <use xlink:href="#m3ef1b4cb9d" x="72.518438" y="172.359222" style="stroke: #000000; stroke-width: 0.8"/>
      </g>
     </g>
     <g id="text_6">
      <!-- 100 -->
      <g transform="translate(46.430937 176.158441) scale(0.1 -0.1)">
       <defs>
        <path id="DejaVuSans-31" d="M 794 531 
L 1825 531 
L 1825 4091 
L 703 3866 
L 703 4441 
L 1819 4666 
L 2450 4666 
L 2450 531 
L 3481 531 
L 3481 0 
L 794 0 
L 794 531 
z
" transform="scale(0.015625)"/>
       </defs>
       <use xlink:href="#DejaVuSans-31"/>
       <use xlink:href="#DejaVuSans-30" x="63.623047"/>
       <use xlink:href="#DejaVuSans-30" x="127.246094"/>
      </g>
     </g>
    </g>
    <g id="ytick_7">
     <g id="line2d_25">
      <path d="M 72.518438 134.469976 
L 722.613437 134.469976 
" clip-path="url(#p30b89d178e)" style="fill: none; stroke-dasharray: 0.8,1.32; stroke-dashoffset: 0; stroke: #b0b0b0; stroke-opacity: 0.4; stroke-width: 0.8"/>
     </g>
     <g id="line2d_26">
      <g>
       <use xlink:href="#m3ef1b4cb9d" x="72.518438" y="134.469976" style="stroke: #000000; stroke-width: 0.8"/>
      </g>
     </g>
     <g id="text_7">
      <!-- 120 -->
      <g transform="translate(46.430937 138.269195) scale(0.1 -0.1)">
       <use xlink:href="#DejaVuSans-31"/>
       <use xlink:href="#DejaVuSans-32" x="63.623047"/>
       <use xlink:href="#DejaVuSans-30" x="127.246094"/>
      </g>
     </g>
    </g>
    <g id="ytick_8">
     <g id="line2d_27">
      <path d="M 72.518438 96.58073 
L 722.613437 96.58073 
" clip-path="url(#p30b89d178e)" style="fill: none; stroke-dasharray: 0.8,1.32; stroke-dashoffset: 0; stroke: #b0b0b0; stroke-opacity: 0.4; stroke-width: 0.8"/>
     </g>
     <g id="line2d_28">
      <g>
       <use xlink:href="#m3ef1b4cb9d" x="72.518438" y="96.58073" style="stroke: #000000; stroke-width: 0.8"/>
      </g>
     </g>
     <g id="text_8">
      <!-- 140 -->
      <g transform="translate(46.430937 100.379948) scale(0.1 -0.1)">
       <use xlink:href="#DejaVuSans-31"/>
       <use xlink:href="#DejaVuSans-34" x="63.623047"/>
       <use xlink:href="#DejaVuSans-30" x="127.246094"/>
      </g>
     </g>
    </g>
    <g id="text_9">
     <!-- Producto total (PT) -->
     <g transform="translate(39.935312 278.460852) rotate(-90) scale(0.12 -0.12)">
      <defs>
       <path id="DejaVuSans-Bold-50" d="M 588 4666 
L 2584 4666 
Q 3475 4666 3951 4270 
Q 4428 3875 4428 3144 
Q 4428 2409 3951 2014 
Q 3475 1619 2584 1619 
L 1791 1619 
L 1791 0 
L 588 0 
L 588 4666 
z
M 1791 3794 
L 1791 2491 
L 2456 2491 
Q 2806 2491 2997 2661 
Q 3188 2831 3188 3144 
Q 3188 3456 2997 3625 
Q 2806 3794 2456 3794 
L 1791 3794 
z
" transform="scale(0.015625)"/>
       <path id="DejaVuSans-Bold-72" d="M 3138 2547 
Q 2991 2616 2845 2648 
Q 2700 2681 2553 2681 
Q 2122 2681 1889 2404 
Q 1656 2128 1656 1613 
L 1656 0 
L 538 0 
L 538 3500 
L 1656 3500 
L 1656 2925 
Q 1872 3269 2151 3426 
Q 2431 3584 2822 3584 
Q 2878 3584 2943 3579 
Q 3009 3575 3134 3559 
L 3138 2547 
z
" transform="scale(0.015625)"/>
       <path id="DejaVuSans-Bold-6f" d="M 2203 2784 
Q 1831 2784 1636 2517 
Q 1441 2250 1441 1747 
Q 1441 1244 1636 976 
Q 1831 709 2203 709 
Q 2569 709 2762 976 
Q 2956 1244 2956 1747 
Q 2956 2250 2762 2517 
Q 2569 2784 2203 2784 
z
M 2203 3584 
Q 3106 3584 3614 3096 
Q 4122 2609 4122 1747 
Q 4122 884 3614 396 
Q 3106 -91 2203 -91 
Q 1297 -91 786 396 
Q 275 884 275 1747 
Q 275 2609 786 3096 
Q 1297 3584 2203 3584 
z
" transform="scale(0.015625)"/>
       <path id="DejaVuSans-Bold-64" d="M 2919 2988 
L 2919 4863 
L 4044 4863 
L 4044 0 
L 2919 0 
L 2919 506 
Q 2688 197 2409 53 
Q 2131 -91 1766 -91 
Q 1119 -91 703 423 
Q 288 938 288 1747 
Q 288 2556 703 3070 
Q 1119 3584 1766 3584 
Q 2128 3584 2408 3439 
Q 2688 3294 2919 2988 
z
M 2181 722 
Q 2541 722 2730 984 
Q 2919 1247 2919 1747 
Q 2919 2247 2730 2509 
Q 2541 2772 2181 2772 
Q 1825 2772 1636 2509 
Q 1447 2247 1447 1747 
Q 1447 1247 1636 984 
Q 1825 722 2181 722 
z
" transform="scale(0.015625)"/>
       <path id="DejaVuSans-Bold-75" d="M 500 1363 
L 500 3500 
L 1625 3500 
L 1625 3150 
Q 1625 2866 1622 2436 
Q 1619 2006 1619 1863 
Q 1619 1441 1641 1255 
Q 1663 1069 1716 984 
Q 1784 875 1895 815 
Q 2006 756 2150 756 
Q 2500 756 2700 1025 
Q 2900 1294 2900 1772 
L 2900 3500 
L 4019 3500 
L 4019 0 
L 2900 0 
L 2900 506 
Q 2647 200 2364 54 
Q 2081 -91 1741 -91 
Q 1134 -91 817 281 
Q 500 653 500 1363 
z
" transform="scale(0.015625)"/>
       <path id="DejaVuSans-Bold-63" d="M 3366 3391 
L 3366 2478 
Q 3138 2634 2908 2709 
Q 2678 2784 2431 2784 
Q 1963 2784 1702 2511 
Q 1441 2238 1441 1747 
Q 1441 1256 1702 982 
Q 1963 709 2431 709 
Q 2694 709 2930 787 
Q 3166 866 3366 1019 
L 3366 103 
Q 3103 6 2833 -42 
Q 2563 -91 2291 -91 
Q 1344 -91 809 395 
Q 275 881 275 1747 
Q 275 2613 809 3098 
Q 1344 3584 2291 3584 
Q 2566 3584 2833 3536 
Q 3100 3488 3366 3391 
z
" transform="scale(0.015625)"/>
       <path id="DejaVuSans-Bold-74" d="M 1759 4494 
L 1759 3500 
L 2913 3500 
L 2913 2700 
L 1759 2700 
L 1759 1216 
Q 1759 972 1856 886 
Q 1953 800 2241 800 
L 2816 800 
L 2816 0 
L 1856 0 
Q 1194 0 917 276 
Q 641 553 641 1216 
L 641 2700 
L 84 2700 
L 84 3500 
L 641 3500 
L 641 4494 
L 1759 4494 
z
" transform="scale(0.015625)"/>
       <path id="DejaVuSans-Bold-20" transform="scale(0.015625)"/>
       <path id="DejaVuSans-Bold-61" d="M 2106 1575 
Q 1756 1575 1579 1456 
Q 1403 1338 1403 1106 
Q 1403 894 1545 773 
Q 1688 653 1941 653 
Q 2256 653 2472 879 
Q 2688 1106 2688 1447 
L 2688 1575 
L 2106 1575 
z
M 3816 1997 
L 3816 0 
L 2688 0 
L 2688 519 
Q 2463 200 2181 54 
Q 1900 -91 1497 -91 
Q 953 -91 614 226 
Q 275 544 275 1050 
Q 275 1666 698 1953 
Q 1122 2241 2028 2241 
L 2688 2241 
L 2688 2328 
Q 2688 2594 2478 2717 
Q 2269 2841 1825 2841 
Q 1466 2841 1156 2769 
Q 847 2697 581 2553 
L 581 3406 
Q 941 3494 1303 3539 
Q 1666 3584 2028 3584 
Q 2975 3584 3395 3211 
Q 3816 2838 3816 1997 
z
" transform="scale(0.015625)"/>
       <path id="DejaVuSans-Bold-6c" d="M 538 4863 
L 1656 4863 
L 1656 0 
L 538 0 
L 538 4863 
z
" transform="scale(0.015625)"/>
       <path id="DejaVuSans-Bold-28" d="M 2413 -844 
L 1484 -844 
Q 1006 -72 778 623 
Q 550 1319 550 2003 
Q 550 2688 779 3389 
Q 1009 4091 1484 4856 
L 2413 4856 
Q 2013 4116 1813 3408 
Q 1613 2700 1613 2009 
Q 1613 1319 1811 609 
Q 2009 -100 2413 -844 
z
" transform="scale(0.015625)"/>
       <path id="DejaVuSans-Bold-54" d="M 31 4666 
L 4331 4666 
L 4331 3756 
L 2784 3756 
L 2784 0 
L 1581 0 
L 1581 3756 
L 31 3756 
L 31 4666 
z
" transform="scale(0.015625)"/>
       <path id="DejaVuSans-Bold-29" d="M 513 -844 
Q 913 -100 1113 609 
Q 1313 1319 1313 2009 
Q 1313 2700 1113 3408 
Q 913 4116 513 4856 
L 1441 4856 
Q 1916 4091 2145 3389 
Q 2375 2688 2375 2003 
Q 2375 1319 2147 623 
Q 1919 -72 1441 -844 
L 513 -844 
z
" transform="scale(0.015625)"/>
      </defs>
      <use xlink:href="#DejaVuSans-Bold-50"/>
      <use xlink:href="#DejaVuSans-Bold-72" x="73.291016"/>
      <use xlink:href="#DejaVuSans-Bold-6f" x="122.607422"/>
      <use xlink:href="#DejaVuSans-Bold-64" x="191.308594"/>
      <use xlink:href="#DejaVuSans-Bold-75" x="262.890625"/>
      <use xlink:href="#DejaVuSans-Bold-63" x="334.082031"/>
      <use xlink:href="#DejaVuSans-Bold-74" x="393.359375"/>
      <use xlink:href="#DejaVuSans-Bold-6f" x="441.162109"/>
      <use xlink:href="#DejaVuSans-Bold-20" x="509.863281"/>
      <use xlink:href="#DejaVuSans-Bold-74" x="544.677734"/>
      <use xlink:href="#DejaVuSans-Bold-6f" x="592.480469"/>
      <use xlink:href="#DejaVuSans-Bold-74" x="661.181641"/>
      <use xlink:href="#DejaVuSans-Bold-61" x="708.984375"/>
      <use xlink:href="#DejaVuSans-Bold-6c" x="776.464844"/>
      <use xlink:href="#DejaVuSans-Bold-20" x="810.742188"/>
      <use xlink:href="#DejaVuSans-Bold-28" x="845.556641"/>
      <use xlink:href="#DejaVuSans-Bold-50" x="891.259766"/>
      <use xlink:href="#DejaVuSans-Bold-54" x="964.550781"/>
      <use xlink:href="#DejaVuSans-Bold-29" x="1032.763672"/>
     </g>
    </g>
   </g>
   <g id="line2d_29">
    <path d="M 78.830039 359.854727 
L 87.189218 357.102008 
L 97.638191 353.401209 
L 108.087164 349.426073 
L 118.536137 345.192072 
L 128.98511 340.714679 
L 139.434084 336.009366 
L 149.883057 331.091605 
L 162.421824 324.931647 
L 174.960592 318.514782 
L 187.49936 311.867747 
L 202.127922 303.85763 
L 218.846279 294.418618 
L 237.654431 283.512625 
L 260.642172 269.89733 
L 333.784983 226.311563 
L 352.593135 215.48809 
L 369.311492 206.1451 
L 383.940054 198.236509 
L 396.478822 191.689497 
L 409.01759 185.384659 
L 421.556358 179.348732 
L 432.005331 174.543498 
L 442.454304 169.959048 
L 452.903277 165.610853 
L 463.35225 161.514385 
L 473.801223 157.685117 
L 484.250196 154.138523 
L 492.609375 151.515169 
L 500.968553 149.09055 
L 509.327732 146.872587 
L 517.68691 144.869204 
L 526.046089 143.088321 
L 534.405267 141.53786 
L 542.764446 140.225744 
L 551.123624 139.159894 
L 559.482803 138.348233 
L 567.841981 137.798682 
L 576.20116 137.519162 
L 584.560338 137.517597 
L 592.919517 137.801908 
L 599.188901 138.207513 
L 605.458284 138.781721 
L 611.727668 139.527875 
L 617.997052 140.449316 
L 624.266436 141.549387 
L 630.53582 142.831429 
L 636.805204 144.298785 
L 643.074588 145.954796 
L 649.343971 147.802806 
L 655.613355 149.846155 
L 661.882739 152.088186 
L 668.152123 154.532241 
L 674.421507 157.181663 
L 680.690891 160.039792 
L 686.960275 163.109971 
L 693.229659 166.395543 
L 699.499042 169.899849 
L 703.678632 172.359222 
L 703.678632 172.359222 
" clip-path="url(#p30b89d178e)" style="fill: none; stroke: #2980b9; stroke-width: 3; stroke-linecap: square"/>
   </g>
   <g id="line2d_30">
    <path d="M 388.119644 361.805455 
L 388.119644 65.7 
" clip-path="url(#p30b89d178e)" style="fill: none; stroke-dasharray: 3.7,1.6; stroke-dashoffset: 0; stroke: #34495e; stroke-opacity: 0.6"/>
   </g>
   <g id="line2d_31">
    <path d="M 580.380749 361.805455 
L 580.380749 65.7 
" clip-path="url(#p30b89d178e)" style="fill: none; stroke-dasharray: 3.7,1.6; stroke-dashoffset: 0; stroke: #34495e; stroke-opacity: 0.6"/>
   </g>
   <g id="patch_3">
    <path d="M 72.518438 361.805455 
L 72.518438 65.7 
" style="fill: none; stroke: #000000; stroke-width: 1.4; stroke-linejoin: miter; stroke-linecap: square"/>
   </g>
   <g id="patch_4">
    <path d="M 72.518438 361.805455 
L 722.613437 361.805455 
" style="fill: none; stroke: #000000; stroke-width: 1.4; stroke-linejoin: miter; stroke-linecap: square"/>
   </g>
   <g id="legend_1">
    <g id="patch_5">
     <path d="M 590.368125 356.805455 
L 715.613437 356.805455 
Q 717.613437 356.805455 717.613437 354.805455 
L 717.613437 341.12733 
Q 717.613437 339.12733 715.613437 339.12733 
L 590.368125 339.12733 
Q 588.368125 339.12733 588.368125 341.12733 
L 588.368125 354.805455 
Q 588.368125 356.805455 590.368125 356.805455 
z
" style="fill: #ffffff; opacity: 0.8; stroke: #cccccc; stroke-linejoin: miter"/>
    </g>
    <g id="line2d_32">
     <path d="M 592.368125 347.225767 
L 602.368125 347.225767 
L 612.368125 347.225767 
" style="fill: none; stroke: #2980b9; stroke-width: 3; stroke-linecap: square"/>
    </g>
    <g id="text_10">
     <!-- Producto total (PT) -->
     <g transform="translate(620.368125 350.725767) scale(0.1 -0.1)">
      <defs>
       <path id="DejaVuSans-50" d="M 1259 4147 
L 1259 2394 
L 2053 2394 
Q 2494 2394 2734 2622 
Q 2975 2850 2975 3272 
Q 2975 3691 2734 3919 
Q 2494 4147 2053 4147 
L 1259 4147 
z
M 628 4666 
L 2053 4666 
Q 2838 4666 3239 4311 
Q 3641 3956 3641 3272 
Q 3641 2581 3239 2228 
Q 2838 1875 2053 1875 
L 1259 1875 
L 1259 0 
L 628 0 
L 628 4666 
z
" transform="scale(0.015625)"/>
       <path id="DejaVuSans-72" d="M 2631 2963 
Q 2534 3019 2420 3045 
Q 2306 3072 2169 3072 
Q 1681 3072 1420 2755 
Q 1159 2438 1159 1844 
L 1159 0 
L 581 0 
L 581 3500 
L 1159 3500 
L 1159 2956 
Q 1341 3275 1631 3429 
Q 1922 3584 2338 3584 
Q 2397 3584 2469 3576 
Q 2541 3569 2628 3553 
L 2631 2963 
z
" transform="scale(0.015625)"/>
       <path id="DejaVuSans-6f" d="M 1959 3097 
Q 1497 3097 1228 2736 
Q 959 2375 959 1747 
Q 959 1119 1226 758 
Q 1494 397 1959 397 
Q 2419 397 2687 759 
Q 2956 1122 2956 1747 
Q 2956 2369 2687 2733 
Q 2419 3097 1959 3097 
z
M 1959 3584 
Q 2709 3584 3137 3096 
Q 3566 2609 3566 1747 
Q 3566 888 3137 398 
Q 2709 -91 1959 -91 
Q 1206 -91 779 398 
Q 353 888 353 1747 
Q 353 2609 779 3096 
Q 1206 3584 1959 3584 
z
" transform="scale(0.015625)"/>
       <path id="DejaVuSans-64" d="M 2906 2969 
L 2906 4863 
L 3481 4863 
L 3481 0 
L 2906 0 
L 2906 525 
Q 2725 213 2448 61 
Q 2172 -91 1784 -91 
Q 1150 -91 751 415 
Q 353 922 353 1747 
Q 353 2572 751 3078 
Q 1150 3584 1784 3584 
Q 2172 3584 2448 3432 
Q 2725 3281 2906 2969 
z
M 947 1747 
Q 947 1113 1208 752 
Q 1469 391 1925 391 
Q 2381 391 2643 752 
Q 2906 1113 2906 1747 
Q 2906 2381 2643 2742 
Q 2381 3103 1925 3103 
Q 1469 3103 1208 2742 
Q 947 2381 947 1747 
z
" transform="scale(0.015625)"/>
       <path id="DejaVuSans-75" d="M 544 1381 
L 544 3500 
L 1119 3500 
L 1119 1403 
Q 1119 906 1312 657 
Q 1506 409 1894 409 
Q 2359 409 2629 706 
Q 2900 1003 2900 1516 
L 2900 3500 
L 3475 3500 
L 3475 0 
L 2900 0 
L 2900 538 
Q 2691 219 2414 64 
Q 2138 -91 1772 -91 
Q 1169 -91 856 284 
Q 544 659 544 1381 
z
M 1991 3584 
L 1991 3584 
z
" transform="scale(0.015625)"/>
       <path id="DejaVuSans-63" d="M 3122 3366 
L 3122 2828 
Q 2878 2963 2633 3030 
Q 2388 3097 2138 3097 
Q 1578 3097 1268 2742 
Q 959 2388 959 1747 
Q 959 1106 1268 751 
Q 1578 397 2138 397 
Q 2388 397 2633 464 
Q 2878 531 3122 666 
L 3122 134 
Q 2881 22 2623 -34 
Q 2366 -91 2075 -91 
Q 1284 -91 818 406 
Q 353 903 353 1747 
Q 353 2603 823 3093 
Q 1294 3584 2113 3584 
Q 2378 3584 2631 3529 
Q 2884 3475 3122 3366 
z
" transform="scale(0.015625)"/>
       <path id="DejaVuSans-74" d="M 1172 4494 
L 1172 3500 
L 2356 3500 
L 2356 3053 
L 1172 3053 
L 1172 1153 
Q 1172 725 1289 603 
Q 1406 481 1766 481 
L 2356 481 
L 2356 0 
L 1766 0 
Q 1100 0 847 248 
Q 594 497 594 1153 
L 594 3053 
L 172 3053 
L 172 3500 
L 594 3500 
L 594 4494 
L 1172 4494 
z
" transform="scale(0.015625)"/>
       <path id="DejaVuSans-20" transform="scale(0.015625)"/>
       <path id="DejaVuSans-61" d="M 2194 1759 
Q 1497 1759 1228 1600 
Q 959 1441 959 1056 
Q 959 750 1161 570 
Q 1363 391 1709 391 
Q 2188 391 2477 730 
Q 2766 1069 2766 1631 
L 2766 1759 
L 2194 1759 
z
M 3341 1997 
L 3341 0 
L 2766 0 
L 2766 531 
Q 2569 213 2275 61 
Q 1981 -91 1556 -91 
Q 1019 -91 701 211 
Q 384 513 384 1019 
Q 384 1609 779 1909 
Q 1175 2209 1959 2209 
L 2766 2209 
L 2766 2266 
Q 2766 2663 2505 2880 
Q 2244 3097 1772 3097 
Q 1472 3097 1187 3025 
Q 903 2953 641 2809 
L 641 3341 
Q 956 3463 1253 3523 
Q 1550 3584 1831 3584 
Q 2591 3584 2966 3190 
Q 3341 2797 3341 1997 
z
" transform="scale(0.015625)"/>
       <path id="DejaVuSans-6c" d="M 603 4863 
L 1178 4863 
L 1178 0 
L 603 0 
L 603 4863 
z
" transform="scale(0.015625)"/>
       <path id="DejaVuSans-28" d="M 1984 4856 
Q 1566 4138 1362 3434 
Q 1159 2731 1159 2009 
Q 1159 1288 1364 580 
Q 1569 -128 1984 -844 
L 1484 -844 
Q 1016 -109 783 600 
Q 550 1309 550 2009 
Q 550 2706 781 3412 
Q 1013 4119 1484 4856 
L 1984 4856 
z
" transform="scale(0.015625)"/>
       <path id="DejaVuSans-54" d="M -19 4666 
L 3928 4666 
L 3928 4134 
L 2272 4134 
L 2272 0 
L 1638 0 
L 1638 4134 
L -19 4134 
L -19 4666 
z
" transform="scale(0.015625)"/>
       <path id="DejaVuSans-29" d="M 513 4856 
L 1013 4856 
Q 1481 4119 1714 3412 
Q 1947 2706 1947 2009 
Q 1947 1309 1714 600 
Q 1481 -109 1013 -844 
L 513 -844 
Q 928 -128 1133 580 
Q 1338 1288 1338 2009 
Q 1338 2731 1133 3434 
Q 928 4138 513 4856 
z
" transform="scale(0.015625)"/>
      </defs>
      <use xlink:href="#DejaVuSans-50"/>
      <use xlink:href="#DejaVuSans-72" x="58.552734"/>
      <use xlink:href="#DejaVuSans-6f" x="97.416016"/>
      <use xlink:href="#DejaVuSans-64" x="158.597656"/>
      <use xlink:href="#DejaVuSans-75" x="222.074219"/>
      <use xlink:href="#DejaVuSans-63" x="285.453125"/>
      <use xlink:href="#DejaVuSans-74" x="340.433594"/>
      <use xlink:href="#DejaVuSans-6f" x="379.642578"/>
      <use xlink:href="#DejaVuSans-20" x="440.824219"/>
      <use xlink:href="#DejaVuSans-74" x="472.611328"/>
      <use xlink:href="#DejaVuSans-6f" x="511.820312"/>
      <use xlink:href="#DejaVuSans-74" x="573.001953"/>
      <use xlink:href="#DejaVuSans-61" x="612.210938"/>
      <use xlink:href="#DejaVuSans-6c" x="673.490234"/>
      <use xlink:href="#DejaVuSans-20" x="701.273438"/>
      <use xlink:href="#DejaVuSans-28" x="733.060547"/>
      <use xlink:href="#DejaVuSans-50" x="772.074219"/>
      <use xlink:href="#DejaVuSans-54" x="832.376953"/>
      <use xlink:href="#DejaVuSans-29" x="893.460938"/>
     </g>
    </g>
   </g>
   <g id="line2d_33">
    <defs>
     <path id="m2a92eeb113" d="M 0 5 
C 1.326016 5 2.597899 4.473168 3.535534 3.535534 
C 4.473168 2.597899 5 1.326016 5 0 
C 5 -1.326016 4.473168 -2.597899 3.535534 -3.535534 
C 2.597899 -4.473168 1.326016 -5 0 -5 
C -1.326016 -5 -2.597899 -4.473168 -3.535534 -3.535534 
C -4.473168 -2.597899 -5 -1.326016 -5 0 
C -5 1.326016 -4.473168 2.597899 -3.535534 3.535534 
C -2.597899 4.473168 -1.326016 5 0 5 
z
" style="stroke: #000000"/>
    </defs>
    <g clip-path="url(#p30b89d178e)">
     <use xlink:href="#m2a92eeb113" x="580.380749" y="137.48314" style="stroke: #000000"/>
    </g>
   </g>
   <g id="patch_6">
    <path d="M 496.931836 106.296092 
Q 537.720395 121.539847 577.461669 136.392204 
" style="fill: none; stroke: #34495e; stroke-linecap: round"/>
    <path d="M 574.41494 133.118453 
L 577.461669 136.392204 
L 573.014631 136.865337 
" style="fill: none; stroke: #34495e; stroke-linecap: round"/>
   </g>
   <g id="text_11">
    <g id="patch_7">
     <path d="M 441.818008 108.462506 
L 491.72582 108.462506 
Q 494.72582 108.462506 494.72582 105.462506 
L 494.72582 84.586569 
Q 494.72582 81.586569 491.72582 81.586569 
L 441.818008 81.586569 
Q 438.818008 81.586569 438.818008 84.586569 
L 438.818008 105.462506 
Q 438.818008 108.462506 441.818008 108.462506 
z
" style="fill: #fffbeb; opacity: 0.97; stroke: #f39c12; stroke-width: 0.7; stroke-linejoin: miter"/>
    </g>
    <!-- PT máx -->
    <g transform="translate(448.220351 92.185006) scale(0.1 -0.1)">
     <defs>
      <path id="DejaVuSans-6d" d="M 3328 2828 
Q 3544 3216 3844 3400 
Q 4144 3584 4550 3584 
Q 5097 3584 5394 3201 
Q 5691 2819 5691 2113 
L 5691 0 
L 5113 0 
L 5113 2094 
Q 5113 2597 4934 2840 
Q 4756 3084 4391 3084 
Q 3944 3084 3684 2787 
Q 3425 2491 3425 1978 
L 3425 0 
L 2847 0 
L 2847 2094 
Q 2847 2600 2669 2842 
Q 2491 3084 2119 3084 
Q 1678 3084 1418 2786 
Q 1159 2488 1159 1978 
L 1159 0 
L 581 0 
L 581 3500 
L 1159 3500 
L 1159 2956 
Q 1356 3278 1631 3431 
Q 1906 3584 2284 3584 
Q 2666 3584 2933 3390 
Q 3200 3197 3328 2828 
z
" transform="scale(0.015625)"/>
      <path id="DejaVuSans-e1" d="M 2194 1759 
Q 1497 1759 1228 1600 
Q 959 1441 959 1056 
Q 959 750 1161 570 
Q 1363 391 1709 391 
Q 2188 391 2477 730 
Q 2766 1069 2766 1631 
L 2766 1759 
L 2194 1759 
z
M 3341 1997 
L 3341 0 
L 2766 0 
L 2766 531 
Q 2569 213 2275 61 
Q 1981 -91 1556 -91 
Q 1019 -91 701 211 
Q 384 513 384 1019 
Q 384 1609 779 1909 
Q 1175 2209 1959 2209 
L 2766 2209 
L 2766 2266 
Q 2766 2663 2505 2880 
Q 2244 3097 1772 3097 
Q 1472 3097 1187 3025 
Q 903 2953 641 2809 
L 641 3341 
Q 956 3463 1253 3523 
Q 1550 3584 1831 3584 
Q 2591 3584 2966 3190 
Q 3341 2797 3341 1997 
z
M 2290 5119 
L 2912 5119 
L 1894 3944 
L 1415 3944 
L 2290 5119 
z
" transform="scale(0.015625)"/>
      <path id="DejaVuSans-78" d="M 3513 3500 
L 2247 1797 
L 3578 0 
L 2900 0 
L 1881 1375 
L 863 0 
L 184 0 
L 1544 1831 
L 300 3500 
L 978 3500 
L 1906 2253 
L 2834 3500 
L 3513 3500 
z
" transform="scale(0.015625)"/>
     </defs>
     <use xlink:href="#DejaVuSans-50"/>
     <use xlink:href="#DejaVuSans-54" x="60.302734"/>
     <use xlink:href="#DejaVuSans-20" x="121.386719"/>
     <use xlink:href="#DejaVuSans-6d" x="153.173828"/>
     <use xlink:href="#DejaVuSans-e1" x="250.585938"/>
     <use xlink:href="#DejaVuSans-78" x="311.865234"/>
    </g>
    <!-- (PMg = 0) -->
    <g transform="translate(441.818008 103.382819) scale(0.1 -0.1)">
     <defs>
      <path id="DejaVuSans-4d" d="M 628 4666 
L 1569 4666 
L 2759 1491 
L 3956 4666 
L 4897 4666 
L 4897 0 
L 4281 0 
L 4281 4097 
L 3078 897 
L 2444 897 
L 1241 4097 
L 1241 0 
L 628 0 
L 628 4666 
z
" transform="scale(0.015625)"/>
      <path id="DejaVuSans-67" d="M 2906 1791 
Q 2906 2416 2648 2759 
Q 2391 3103 1925 3103 
Q 1463 3103 1205 2759 
Q 947 2416 947 1791 
Q 947 1169 1205 825 
Q 1463 481 1925 481 
Q 2391 481 2648 825 
Q 2906 1169 2906 1791 
z
M 3481 434 
Q 3481 -459 3084 -895 
Q 2688 -1331 1869 -1331 
Q 1566 -1331 1297 -1286 
Q 1028 -1241 775 -1147 
L 775 -588 
Q 1028 -725 1275 -790 
Q 1522 -856 1778 -856 
Q 2344 -856 2625 -561 
Q 2906 -266 2906 331 
L 2906 616 
Q 2728 306 2450 153 
Q 2172 0 1784 0 
Q 1141 0 747 490 
Q 353 981 353 1791 
Q 353 2603 747 3093 
Q 1141 3584 1784 3584 
Q 2172 3584 2450 3431 
Q 2728 3278 2906 2969 
L 2906 3500 
L 3481 3500 
L 3481 434 
z
" transform="scale(0.015625)"/>
      <path id="DejaVuSans-3d" d="M 678 2906 
L 4684 2906 
L 4684 2381 
L 678 2381 
L 678 2906 
z
M 678 1631 
L 4684 1631 
L 4684 1100 
L 678 1100 
L 678 1631 
z
" transform="scale(0.015625)"/>
     </defs>
     <use xlink:href="#DejaVuSans-28"/>
     <use xlink:href="#DejaVuSans-50" x="39.013672"/>
     <use xlink:href="#DejaVuSans-4d" x="99.316406"/>
     <use xlink:href="#DejaVuSans-67" x="185.595703"/>
     <use xlink:href="#DejaVuSans-20" x="249.072266"/>
     <use xlink:href="#DejaVuSans-3d" x="280.859375"/>
     <use xlink:href="#DejaVuSans-20" x="364.648438"/>
     <use xlink:href="#DejaVuSans-30" x="396.435547"/>
     <use xlink:href="#DejaVuSans-29" x="460.058594"/>
    </g>
   </g>
  </g>
  <g id="axes_2">
   <g id="patch_8">
    <path d="M 72.518438 627.64 
L 722.613437 627.64 
L 722.613437 380.885455 
L 72.518438 380.885455 
z
" style="fill: #ffffff"/>
   </g>
   <g id="patch_9">
    <path d="M 72.518438 627.64 
L 388.119644 627.64 
L 388.119644 380.885455 
L 72.518438 380.885455 
z
" clip-path="url(#p6dd8bd75a1)" style="fill: #f39c12; opacity: 0.08; stroke: #f39c12; stroke-linejoin: miter"/>
   </g>
   <g id="patch_10">
    <path d="M 388.119644 627.64 
L 580.380749 627.64 
L 580.380749 380.885455 
L 388.119644 380.885455 
z
" clip-path="url(#p6dd8bd75a1)" style="fill: #27ae60; opacity: 0.08; stroke: #27ae60; stroke-linejoin: miter"/>
   </g>
   <g id="patch_11">
    <path d="M 580.380749 627.64 
L 722.613437 627.64 
L 722.613437 380.885455 
L 580.380749 380.885455 
z
" clip-path="url(#p6dd8bd75a1)" style="fill: #c0392b; opacity: 0.08; stroke: #c0392b; stroke-linejoin: miter"/>
   </g>
   <g id="matplotlib.axis_3">
    <g id="xtick_7">
     <g id="line2d_34">
      <path d="M 72.518438 627.64 
L 72.518438 380.885455 
" clip-path="url(#p6dd8bd75a1)" style="fill: none; stroke-dasharray: 0.8,1.32; stroke-dashoffset: 0; stroke: #b0b0b0; stroke-opacity: 0.4; stroke-width: 0.8"/>
     </g>
     <g id="line2d_35">
      <g>
       <use xlink:href="#m5408caca38" x="72.518438" y="627.64" style="stroke: #000000; stroke-width: 0.8"/>
      </g>
     </g>
     <g id="text_12">
      <!-- 0 -->
      <g transform="translate(69.337187 642.238438) scale(0.1 -0.1)">
       <use xlink:href="#DejaVuSans-30"/>
      </g>
     </g>
    </g>
    <g id="xtick_8">
     <g id="line2d_36">
      <path d="M 198.750476 627.64 
L 198.750476 380.885455 
" clip-path="url(#p6dd8bd75a1)" style="fill: none; stroke-dasharray: 0.8,1.32; stroke-dashoffset: 0; stroke: #b0b0b0; stroke-opacity: 0.4; stroke-width: 0.8"/>
     </g>
     <g id="line2d_37">
      <g>
       <use xlink:href="#m5408caca38" x="198.750476" y="627.64" style="stroke: #000000; stroke-width: 0.8"/>
      </g>
     </g>
     <g id="text_13">
      <!-- 2 -->
      <g transform="translate(195.569226 642.238438) scale(0.1 -0.1)">
       <use xlink:href="#DejaVuSans-32"/>
      </g>
     </g>
    </g>
    <g id="xtick_9">
     <g id="line2d_38">
      <path d="M 324.982515 627.64 
L 324.982515 380.885455 
" clip-path="url(#p6dd8bd75a1)" style="fill: none; stroke-dasharray: 0.8,1.32; stroke-dashoffset: 0; stroke: #b0b0b0; stroke-opacity: 0.4; stroke-width: 0.8"/>
     </g>
     <g id="line2d_39">
      <g>
       <use xlink:href="#m5408caca38" x="324.982515" y="627.64" style="stroke: #000000; stroke-width: 0.8"/>
      </g>
     </g>
     <g id="text_14">
      <!-- 4 -->
      <g transform="translate(321.801265 642.238438) scale(0.1 -0.1)">
       <use xlink:href="#DejaVuSans-34"/>
      </g>
     </g>
    </g>
    <g id="xtick_10">
     <g id="line2d_40">
      <path d="M 451.214554 627.64 
L 451.214554 380.885455 
" clip-path="url(#p6dd8bd75a1)" style="fill: none; stroke-dasharray: 0.8,1.32; stroke-dashoffset: 0; stroke: #b0b0b0; stroke-opacity: 0.4; stroke-width: 0.8"/>
     </g>
     <g id="line2d_41">
      <g>
       <use xlink:href="#m5408caca38" x="451.214554" y="627.64" style="stroke: #000000; stroke-width: 0.8"/>
      </g>
     </g>
     <g id="text_15">
      <!-- 6 -->
      <g transform="translate(448.033304 642.238438) scale(0.1 -0.1)">
       <use xlink:href="#DejaVuSans-36"/>
      </g>
     </g>
    </g>
    <g id="xtick_11">
     <g id="line2d_42">
      <path d="M 577.446593 627.64 
L 577.446593 380.885455 
" clip-path="url(#p6dd8bd75a1)" style="fill: none; stroke-dasharray: 0.8,1.32; stroke-dashoffset: 0; stroke: #b0b0b0; stroke-opacity: 0.4; stroke-width: 0.8"/>
     </g>
     <g id="line2d_43">
      <g>
       <use xlink:href="#m5408caca38" x="577.446593" y="627.64" style="stroke: #000000; stroke-width: 0.8"/>
      </g>
     </g>
     <g id="text_16">
      <!-- 8 -->
      <g transform="translate(574.265343 642.238438) scale(0.1 -0.1)">
       <use xlink:href="#DejaVuSans-38"/>
      </g>
     </g>
    </g>
    <g id="xtick_12">
     <g id="line2d_44">
      <path d="M 703.678632 627.64 
L 703.678632 380.885455 
" clip-path="url(#p6dd8bd75a1)" style="fill: none; stroke-dasharray: 0.8,1.32; stroke-dashoffset: 0; stroke: #b0b0b0; stroke-opacity: 0.4; stroke-width: 0.8"/>
     </g>
     <g id="line2d_45">
      <g>
       <use xlink:href="#m5408caca38" x="703.678632" y="627.64" style="stroke: #000000; stroke-width: 0.8"/>
      </g>
     </g>
     <g id="text_17">
      <!-- 10 -->
      <g transform="translate(697.316132 642.238438) scale(0.1 -0.1)">
       <use xlink:href="#DejaVuSans-31"/>
       <use xlink:href="#DejaVuSans-30" x="63.623047"/>
      </g>
     </g>
    </g>
    <g id="text_18">
     <!-- Trabajo (L) -->
     <g transform="translate(361.205937 657.43625) scale(0.12 -0.12)">
      <defs>
       <path id="DejaVuSans-Bold-62" d="M 2400 722 
Q 2759 722 2948 984 
Q 3138 1247 3138 1747 
Q 3138 2247 2948 2509 
Q 2759 2772 2400 2772 
Q 2041 2772 1848 2508 
Q 1656 2244 1656 1747 
Q 1656 1250 1848 986 
Q 2041 722 2400 722 
z
M 1656 2988 
Q 1888 3294 2169 3439 
Q 2450 3584 2816 3584 
Q 3463 3584 3878 3070 
Q 4294 2556 4294 1747 
Q 4294 938 3878 423 
Q 3463 -91 2816 -91 
Q 2450 -91 2169 54 
Q 1888 200 1656 506 
L 1656 0 
L 538 0 
L 538 4863 
L 1656 4863 
L 1656 2988 
z
" transform="scale(0.015625)"/>
       <path id="DejaVuSans-Bold-6a" d="M 538 3500 
L 1656 3500 
L 1656 63 
Q 1656 -641 1318 -1011 
Q 981 -1381 341 -1381 
L -213 -1381 
L -213 -647 
L -19 -647 
Q 300 -647 419 -503 
Q 538 -359 538 63 
L 538 3500 
z
M 538 4863 
L 1656 4863 
L 1656 3950 
L 538 3950 
L 538 4863 
z
" transform="scale(0.015625)"/>
       <path id="DejaVuSans-Bold-4c" d="M 588 4666 
L 1791 4666 
L 1791 909 
L 3903 909 
L 3903 0 
L 588 0 
L 588 4666 
z
" transform="scale(0.015625)"/>
      </defs>
      <use xlink:href="#DejaVuSans-Bold-54"/>
      <use xlink:href="#DejaVuSans-Bold-72" x="57.212891"/>
      <use xlink:href="#DejaVuSans-Bold-61" x="106.529297"/>
      <use xlink:href="#DejaVuSans-Bold-62" x="174.009766"/>
      <use xlink:href="#DejaVuSans-Bold-61" x="245.591797"/>
      <use xlink:href="#DejaVuSans-Bold-6a" x="313.072266"/>
      <use xlink:href="#DejaVuSans-Bold-6f" x="347.349609"/>
      <use xlink:href="#DejaVuSans-Bold-20" x="416.050781"/>
      <use xlink:href="#DejaVuSans-Bold-28" x="450.865234"/>
      <use xlink:href="#DejaVuSans-Bold-4c" x="496.568359"/>
      <use xlink:href="#DejaVuSans-Bold-29" x="560.289062"/>
     </g>
    </g>
   </g>
   <g id="matplotlib.axis_4">
    <g id="ytick_9">
     <g id="line2d_46">
      <path d="M 72.518438 610.815826 
L 722.613437 610.815826 
" clip-path="url(#p6dd8bd75a1)" style="fill: none; stroke-dasharray: 0.8,1.32; stroke-dashoffset: 0; stroke: #b0b0b0; stroke-opacity: 0.4; stroke-width: 0.8"/>
     </g>
     <g id="line2d_47">
      <g>
       <use xlink:href="#m3ef1b4cb9d" x="72.518438" y="610.815826" style="stroke: #000000; stroke-width: 0.8"/>
      </g>
     </g>
     <g id="text_19">
      <!-- −10 -->
      <g transform="translate(44.41375 614.615045) scale(0.1 -0.1)">
       <defs>
        <path id="DejaVuSans-2212" d="M 678 2272 
L 4684 2272 
L 4684 1741 
L 678 1741 
L 678 2272 
z
" transform="scale(0.015625)"/>
       </defs>
       <use xlink:href="#DejaVuSans-2212"/>
       <use xlink:href="#DejaVuSans-31" x="83.789062"/>
       <use xlink:href="#DejaVuSans-30" x="147.412109"/>
      </g>
     </g>
    </g>
    <g id="ytick_10">
     <g id="line2d_48">
      <path d="M 72.518438 582.775537 
L 722.613437 582.775537 
" clip-path="url(#p6dd8bd75a1)" style="fill: none; stroke-dasharray: 0.8,1.32; stroke-dashoffset: 0; stroke: #b0b0b0; stroke-opacity: 0.4; stroke-width: 0.8"/>
     </g>
     <g id="line2d_49">
      <g>
       <use xlink:href="#m3ef1b4cb9d" x="72.518438" y="582.775537" style="stroke: #000000; stroke-width: 0.8"/>
      </g>
     </g>
     <g id="text_20">
      <!-- −5 -->
      <g transform="translate(50.77625 586.574756) scale(0.1 -0.1)">
       <defs>
        <path id="DejaVuSans-35" d="M 691 4666 
L 3169 4666 
L 3169 4134 
L 1269 4134 
L 1269 2991 
Q 1406 3038 1543 3061 
Q 1681 3084 1819 3084 
Q 2600 3084 3056 2656 
Q 3513 2228 3513 1497 
Q 3513 744 3044 326 
Q 2575 -91 1722 -91 
Q 1428 -91 1123 -41 
Q 819 9 494 109 
L 494 744 
Q 775 591 1075 516 
Q 1375 441 1709 441 
Q 2250 441 2565 725 
Q 2881 1009 2881 1497 
Q 2881 1984 2565 2268 
Q 2250 2553 1709 2553 
Q 1456 2553 1204 2497 
Q 953 2441 691 2322 
L 691 4666 
z
" transform="scale(0.015625)"/>
       </defs>
       <use xlink:href="#DejaVuSans-2212"/>
       <use xlink:href="#DejaVuSans-35" x="83.789062"/>
      </g>
     </g>
    </g>
    <g id="ytick_11">
     <g id="line2d_50">
      <path d="M 72.518438 554.735248 
L 722.613437 554.735248 
" clip-path="url(#p6dd8bd75a1)" style="fill: none; stroke-dasharray: 0.8,1.32; stroke-dashoffset: 0; stroke: #b0b0b0; stroke-opacity: 0.4; stroke-width: 0.8"/>
     </g>
     <g id="line2d_51">
      <g>
       <use xlink:href="#m3ef1b4cb9d" x="72.518438" y="554.735248" style="stroke: #000000; stroke-width: 0.8"/>
      </g>
     </g>
     <g id="text_21">
      <!-- 0 -->
      <g transform="translate(59.155938 558.534467) scale(0.1 -0.1)">
       <use xlink:href="#DejaVuSans-30"/>
      </g>
     </g>
    </g>
    <g id="ytick_12">
     <g id="line2d_52">
      <path d="M 72.518438 526.694959 
L 722.613437 526.694959 
" clip-path="url(#p6dd8bd75a1)" style="fill: none; stroke-dasharray: 0.8,1.32; stroke-dashoffset: 0; stroke: #b0b0b0; stroke-opacity: 0.4; stroke-width: 0.8"/>
     </g>
     <g id="line2d_53">
      <g>
       <use xlink:href="#m3ef1b4cb9d" x="72.518438" y="526.694959" style="stroke: #000000; stroke-width: 0.8"/>
      </g>
     </g>
     <g id="text_22">
      <!-- 5 -->
      <g transform="translate(59.155938 530.494177) scale(0.1 -0.1)">
       <use xlink:href="#DejaVuSans-35"/>
      </g>
     </g>
    </g>
    <g id="ytick_13">
     <g id="line2d_54">
      <path d="M 72.518438 498.654669 
L 722.613437 498.654669 
" clip-path="url(#p6dd8bd75a1)" style="fill: none; stroke-dasharray: 0.8,1.32; stroke-dashoffset: 0; stroke: #b0b0b0; stroke-opacity: 0.4; stroke-width: 0.8"/>
     </g>
     <g id="line2d_55">
      <g>
       <use xlink:href="#m3ef1b4cb9d" x="72.518438" y="498.654669" style="stroke: #000000; stroke-width: 0.8"/>
      </g>
     </g>
     <g id="text_23">
      <!-- 10 -->
      <g transform="translate(52.793438 502.453888) scale(0.1 -0.1)">
       <use xlink:href="#DejaVuSans-31"/>
       <use xlink:href="#DejaVuSans-30" x="63.623047"/>
      </g>
     </g>
    </g>
    <g id="ytick_14">
     <g id="line2d_56">
      <path d="M 72.518438 470.61438 
L 722.613437 470.61438 
" clip-path="url(#p6dd8bd75a1)" style="fill: none; stroke-dasharray: 0.8,1.32; stroke-dashoffset: 0; stroke: #b0b0b0; stroke-opacity: 0.4; stroke-width: 0.8"/>
     </g>
     <g id="line2d_57">
      <g>
       <use xlink:href="#m3ef1b4cb9d" x="72.518438" y="470.61438" style="stroke: #000000; stroke-width: 0.8"/>
      </g>
     </g>
     <g id="text_24">
      <!-- 15 -->
      <g transform="translate(52.793438 474.413599) scale(0.1 -0.1)">
       <use xlink:href="#DejaVuSans-31"/>
       <use xlink:href="#DejaVuSans-35" x="63.623047"/>
      </g>
     </g>
    </g>
    <g id="ytick_15">
     <g id="line2d_58">
      <path d="M 72.518438 442.574091 
L 722.613437 442.574091 
" clip-path="url(#p6dd8bd75a1)" style="fill: none; stroke-dasharray: 0.8,1.32; stroke-dashoffset: 0; stroke: #b0b0b0; stroke-opacity: 0.4; stroke-width: 0.8"/>
     </g>
     <g id="line2d_59">
      <g>
       <use xlink:href="#m3ef1b4cb9d" x="72.518438" y="442.574091" style="stroke: #000000; stroke-width: 0.8"/>
      </g>
     </g>
     <g id="text_25">
      <!-- 20 -->
      <g transform="translate(52.793438 446.37331) scale(0.1 -0.1)">
       <use xlink:href="#DejaVuSans-32"/>
       <use xlink:href="#DejaVuSans-30" x="63.623047"/>
      </g>
     </g>
    </g>
    <g id="ytick_16">
     <g id="line2d_60">
      <path d="M 72.518438 414.533802 
L 722.613437 414.533802 
" clip-path="url(#p6dd8bd75a1)" style="fill: none; stroke-dasharray: 0.8,1.32; stroke-dashoffset: 0; stroke: #b0b0b0; stroke-opacity: 0.4; stroke-width: 0.8"/>
     </g>
     <g id="line2d_61">
      <g>
       <use xlink:href="#m3ef1b4cb9d" x="72.518438" y="414.533802" style="stroke: #000000; stroke-width: 0.8"/>
      </g>
     </g>
     <g id="text_26">
      <!-- 25 -->
      <g transform="translate(52.793438 418.33302) scale(0.1 -0.1)">
       <use xlink:href="#DejaVuSans-32"/>
       <use xlink:href="#DejaVuSans-35" x="63.623047"/>
      </g>
     </g>
    </g>
    <g id="ytick_17">
     <g id="line2d_62">
      <path d="M 72.518438 386.493512 
L 722.613437 386.493512 
" clip-path="url(#p6dd8bd75a1)" style="fill: none; stroke-dasharray: 0.8,1.32; stroke-dashoffset: 0; stroke: #b0b0b0; stroke-opacity: 0.4; stroke-width: 0.8"/>
     </g>
     <g id="line2d_63">
      <g>
       <use xlink:href="#m3ef1b4cb9d" x="72.518438" y="386.493512" style="stroke: #000000; stroke-width: 0.8"/>
      </g>
     </g>
     <g id="text_27">
      <!-- 30 -->
      <g transform="translate(52.793438 390.292731) scale(0.1 -0.1)">
       <defs>
        <path id="DejaVuSans-33" d="M 2597 2516 
Q 3050 2419 3304 2112 
Q 3559 1806 3559 1356 
Q 3559 666 3084 287 
Q 2609 -91 1734 -91 
Q 1441 -91 1130 -33 
Q 819 25 488 141 
L 488 750 
Q 750 597 1062 519 
Q 1375 441 1716 441 
Q 2309 441 2620 675 
Q 2931 909 2931 1356 
Q 2931 1769 2642 2001 
Q 2353 2234 1838 2234 
L 1294 2234 
L 1294 2753 
L 1863 2753 
Q 2328 2753 2575 2939 
Q 2822 3125 2822 3475 
Q 2822 3834 2567 4026 
Q 2313 4219 1838 4219 
Q 1578 4219 1281 4162 
Q 984 4106 628 3988 
L 628 4550 
Q 988 4650 1302 4700 
Q 1616 4750 1894 4750 
Q 2613 4750 3031 4423 
Q 3450 4097 3450 3541 
Q 3450 3153 3228 2886 
Q 3006 2619 2597 2516 
z
" transform="scale(0.015625)"/>
       </defs>
       <use xlink:href="#DejaVuSans-33"/>
       <use xlink:href="#DejaVuSans-30" x="63.623047"/>
      </g>
     </g>
    </g>
    <g id="text_28">
     <!-- PMe, PMg -->
     <g transform="translate(37.824375 537.732415) rotate(-90) scale(0.12 -0.12)">
      <defs>
       <path id="DejaVuSans-Bold-4d" d="M 588 4666 
L 2119 4666 
L 3181 2169 
L 4250 4666 
L 5778 4666 
L 5778 0 
L 4641 0 
L 4641 3413 
L 3566 897 
L 2803 897 
L 1728 3413 
L 1728 0 
L 588 0 
L 588 4666 
z
" transform="scale(0.015625)"/>
       <path id="DejaVuSans-Bold-65" d="M 4031 1759 
L 4031 1441 
L 1416 1441 
Q 1456 1047 1700 850 
Q 1944 653 2381 653 
Q 2734 653 3104 758 
Q 3475 863 3866 1075 
L 3866 213 
Q 3469 63 3072 -14 
Q 2675 -91 2278 -91 
Q 1328 -91 801 392 
Q 275 875 275 1747 
Q 275 2603 792 3093 
Q 1309 3584 2216 3584 
Q 3041 3584 3536 3087 
Q 4031 2591 4031 1759 
z
M 2881 2131 
Q 2881 2450 2695 2645 
Q 2509 2841 2209 2841 
Q 1884 2841 1681 2658 
Q 1478 2475 1428 2131 
L 2881 2131 
z
" transform="scale(0.015625)"/>
       <path id="DejaVuSans-Bold-2c" d="M 653 1209 
L 1778 1209 
L 1778 256 
L 1006 -909 
L 341 -909 
L 653 256 
L 653 1209 
z
" transform="scale(0.015625)"/>
       <path id="DejaVuSans-Bold-67" d="M 2919 594 
Q 2688 288 2409 144 
Q 2131 0 1766 0 
Q 1125 0 706 504 
Q 288 1009 288 1791 
Q 288 2575 706 3076 
Q 1125 3578 1766 3578 
Q 2131 3578 2409 3434 
Q 2688 3291 2919 2981 
L 2919 3500 
L 4044 3500 
L 4044 353 
Q 4044 -491 3511 -936 
Q 2978 -1381 1966 -1381 
Q 1638 -1381 1331 -1331 
Q 1025 -1281 716 -1178 
L 716 -306 
Q 1009 -475 1290 -558 
Q 1572 -641 1856 -641 
Q 2406 -641 2662 -400 
Q 2919 -159 2919 353 
L 2919 594 
z
M 2181 2772 
Q 1834 2772 1640 2515 
Q 1447 2259 1447 1791 
Q 1447 1309 1634 1061 
Q 1822 813 2181 813 
Q 2531 813 2725 1069 
Q 2919 1325 2919 1791 
Q 2919 2259 2725 2515 
Q 2531 2772 2181 2772 
z
" transform="scale(0.015625)"/>
      </defs>
      <use xlink:href="#DejaVuSans-Bold-50"/>
      <use xlink:href="#DejaVuSans-Bold-4d" x="73.291016"/>
      <use xlink:href="#DejaVuSans-Bold-65" x="172.802734"/>
      <use xlink:href="#DejaVuSans-Bold-2c" x="240.625"/>
      <use xlink:href="#DejaVuSans-Bold-20" x="278.613281"/>
      <use xlink:href="#DejaVuSans-Bold-50" x="313.427734"/>
      <use xlink:href="#DejaVuSans-Bold-4d" x="386.71875"/>
      <use xlink:href="#DejaVuSans-Bold-67" x="486.230469"/>
     </g>
    </g>
   </g>
   <g id="line2d_64">
    <path d="M 78.830039 496.989076 
L 95.548396 492.739812 
L 112.266753 488.726634 
L 128.98511 484.949543 
L 145.703467 481.408539 
L 162.421824 478.103622 
L 179.140181 475.034792 
L 195.858538 472.202048 
L 212.576895 469.605391 
L 229.295252 467.244821 
L 246.013609 465.120338 
L 262.731966 463.231942 
L 279.450323 461.579632 
L 296.16868 460.163409 
L 312.887037 458.983273 
L 329.605394 458.039224 
L 346.323751 457.331262 
L 363.042108 456.859386 
L 379.760465 456.623598 
L 396.478822 456.623896 
L 413.197179 456.860281 
L 429.915536 457.332752 
L 446.633893 458.041311 
L 463.35225 458.985956 
L 480.070607 460.166688 
L 496.788964 461.583507 
L 513.507321 463.236413 
L 530.225678 465.125405 
L 546.944035 467.250485 
L 563.662392 469.611651 
L 580.380749 472.208904 
L 597.099106 475.042244 
L 613.817463 478.11167 
L 630.53582 481.417184 
L 647.254177 484.958784 
L 663.972534 488.736471 
L 680.690891 492.750245 
L 697.409248 497.000106 
L 703.678632 498.654669 
L 703.678632 498.654669 
" clip-path="url(#p6dd8bd75a1)" style="fill: none; stroke: #16a085; stroke-width: 3; stroke-linecap: square"/>
   </g>
   <g id="line2d_65">
    <path d="M 78.830039 495.340307 
L 89.279013 490.07521 
L 99.727986 485.086777 
L 110.176959 480.375008 
L 120.625932 475.939904 
L 131.074905 471.781463 
L 141.523878 467.899687 
L 151.972851 464.294575 
L 162.421824 460.966127 
L 172.870797 457.914344 
L 183.319771 455.139225 
L 193.768744 452.64077 
L 204.217717 450.418979 
L 214.66669 448.473853 
L 225.115663 446.80539 
L 235.564636 445.413592 
L 246.013609 444.298458 
L 256.462582 443.459989 
L 266.911555 442.898183 
L 277.360529 442.613042 
L 287.809502 442.604565 
L 298.258475 442.872753 
L 308.707448 443.417604 
L 319.156421 444.23912 
L 329.605394 445.3373 
L 340.054367 446.712144 
L 350.50334 448.363653 
L 360.952314 450.291825 
L 371.401287 452.496662 
L 381.85026 454.978163 
L 392.299233 457.736329 
L 402.748206 460.771158 
L 413.197179 464.082652 
L 423.646152 467.67081 
L 434.095125 471.535633 
L 444.544098 475.677119 
L 454.993072 480.09527 
L 465.442045 484.790085 
L 475.891018 489.761564 
L 486.339991 495.009707 
L 496.788964 500.534515 
L 507.237937 506.335987 
L 517.68691 512.414123 
L 528.135883 518.768923 
L 538.584856 525.400388 
L 549.03383 532.308517 
L 559.482803 539.49331 
L 569.931776 546.954767 
L 580.380749 554.692889 
L 590.829722 562.707674 
L 601.278695 570.999124 
L 611.727668 579.567239 
L 622.176641 588.412017 
L 632.625614 597.53346 
L 643.074588 606.931566 
L 653.523561 616.606338 
L 663.972534 626.557773 
L 674.421507 636.785872 
L 684.87048 647.290636 
L 695.319453 658.072064 
L 703.678632 666.896405 
L 703.678632 666.896405 
" clip-path="url(#p6dd8bd75a1)" style="fill: none; stroke: #e67e22; stroke-width: 3; stroke-linecap: square"/>
   </g>
   <g id="line2d_66">
    <path d="M 388.119644 627.64 
L 388.119644 380.885455 
" clip-path="url(#p6dd8bd75a1)" style="fill: none; stroke-dasharray: 3.7,1.6; stroke-dashoffset: 0; stroke: #34495e; stroke-opacity: 0.6"/>
   </g>
   <g id="line2d_67">
    <path d="M 580.380749 627.64 
L 580.380749 380.885455 
" clip-path="url(#p6dd8bd75a1)" style="fill: none; stroke-dasharray: 3.7,1.6; stroke-dashoffset: 0; stroke: #34495e; stroke-opacity: 0.6"/>
   </g>
   <g id="line2d_68">
    <path d="M 72.518438 554.735248 
L 722.613437 554.735248 
" clip-path="url(#p6dd8bd75a1)" style="fill: none; stroke: #000000; stroke-width: 0.7; stroke-linecap: square"/>
   </g>
   <g id="patch_12">
    <path d="M 72.518438 627.64 
L 72.518438 380.885455 
" style="fill: none; stroke: #000000; stroke-width: 1.4; stroke-linejoin: miter; stroke-linecap: square"/>
   </g>
   <g id="patch_13">
    <path d="M 72.518438 627.64 
L 722.613437 627.64 
" style="fill: none; stroke: #000000; stroke-width: 1.4; stroke-linejoin: miter; stroke-linecap: square"/>
   </g>
   <g id="legend_2">
    <g id="patch_14">
     <path d="M 79.518438 622.64 
L 187.680938 622.64 
Q 189.680938 622.64 189.680938 620.64 
L 189.680938 592.28375 
Q 189.680938 590.28375 187.680938 590.28375 
L 79.518438 590.28375 
Q 77.518438 590.28375 77.518438 592.28375 
L 77.518438 620.64 
Q 77.518438 622.64 79.518438 622.64 
z
" style="fill: #ffffff; opacity: 0.8; stroke: #cccccc; stroke-linejoin: miter"/>
    </g>
    <g id="line2d_69">
     <path d="M 81.518438 598.382188 
L 91.518438 598.382188 
L 101.518438 598.382188 
" style="fill: none; stroke: #16a085; stroke-width: 3; stroke-linecap: square"/>
    </g>
    <g id="text_29">
     <!-- PMe (medio) -->
     <g transform="translate(109.518438 601.882188) scale(0.1 -0.1)">
      <defs>
       <path id="DejaVuSans-65" d="M 3597 1894 
L 3597 1613 
L 953 1613 
Q 991 1019 1311 708 
Q 1631 397 2203 397 
Q 2534 397 2845 478 
Q 3156 559 3463 722 
L 3463 178 
Q 3153 47 2828 -22 
Q 2503 -91 2169 -91 
Q 1331 -91 842 396 
Q 353 884 353 1716 
Q 353 2575 817 3079 
Q 1281 3584 2069 3584 
Q 2775 3584 3186 3129 
Q 3597 2675 3597 1894 
z
M 3022 2063 
Q 3016 2534 2758 2815 
Q 2500 3097 2075 3097 
Q 1594 3097 1305 2825 
Q 1016 2553 972 2059 
L 3022 2063 
z
" transform="scale(0.015625)"/>
       <path id="DejaVuSans-69" d="M 603 3500 
L 1178 3500 
L 1178 0 
L 603 0 
L 603 3500 
z
M 603 4863 
L 1178 4863 
L 1178 4134 
L 603 4134 
L 603 4863 
z
" transform="scale(0.015625)"/>
      </defs>
      <use xlink:href="#DejaVuSans-50"/>
      <use xlink:href="#DejaVuSans-4d" x="60.302734"/>
      <use xlink:href="#DejaVuSans-65" x="146.582031"/>
      <use xlink:href="#DejaVuSans-20" x="208.105469"/>
      <use xlink:href="#DejaVuSans-28" x="239.892578"/>
      <use xlink:href="#DejaVuSans-6d" x="278.90625"/>
      <use xlink:href="#DejaVuSans-65" x="376.318359"/>
      <use xlink:href="#DejaVuSans-64" x="437.841797"/>
      <use xlink:href="#DejaVuSans-69" x="501.318359"/>
      <use xlink:href="#DejaVuSans-6f" x="529.101562"/>
      <use xlink:href="#DejaVuSans-29" x="590.283203"/>
     </g>
    </g>
    <g id="line2d_70">
     <path d="M 81.518438 613.060313 
L 91.518438 613.060313 
L 101.518438 613.060313 
" style="fill: none; stroke: #e67e22; stroke-width: 3; stroke-linecap: square"/>
    </g>
    <g id="text_30">
     <!-- PMg (marginal) -->
     <g transform="translate(109.518438 616.560313) scale(0.1 -0.1)">
      <defs>
       <path id="DejaVuSans-6e" d="M 3513 2113 
L 3513 0 
L 2938 0 
L 2938 2094 
Q 2938 2591 2744 2837 
Q 2550 3084 2163 3084 
Q 1697 3084 1428 2787 
Q 1159 2491 1159 1978 
L 1159 0 
L 581 0 
L 581 3500 
L 1159 3500 
L 1159 2956 
Q 1366 3272 1645 3428 
Q 1925 3584 2291 3584 
Q 2894 3584 3203 3211 
Q 3513 2838 3513 2113 
z
" transform="scale(0.015625)"/>
      </defs>
      <use xlink:href="#DejaVuSans-50"/>
      <use xlink:href="#DejaVuSans-4d" x="60.302734"/>
      <use xlink:href="#DejaVuSans-67" x="146.582031"/>
      <use xlink:href="#DejaVuSans-20" x="210.058594"/>
      <use xlink:href="#DejaVuSans-28" x="241.845703"/>
      <use xlink:href="#DejaVuSans-6d" x="280.859375"/>
      <use xlink:href="#DejaVuSans-61" x="378.271484"/>
      <use xlink:href="#DejaVuSans-72" x="439.550781"/>
      <use xlink:href="#DejaVuSans-67" x="478.914062"/>
      <use xlink:href="#DejaVuSans-69" x="542.390625"/>
      <use xlink:href="#DejaVuSans-6e" x="570.173828"/>
      <use xlink:href="#DejaVuSans-61" x="633.552734"/>
      <use xlink:href="#DejaVuSans-6c" x="694.832031"/>
      <use xlink:href="#DejaVuSans-29" x="722.615234"/>
     </g>
    </g>
   </g>
   <g id="line2d_71">
    <g clip-path="url(#p6dd8bd75a1)">
     <use xlink:href="#m2a92eeb113" x="388.119644" y="456.594236" style="stroke: #000000"/>
    </g>
   </g>
   <g id="patch_15">
    <path d="M 458.000238 486.315061 
Q 423.979086 471.845568 390.98678 457.813654 
" style="fill: none; stroke: #34495e; stroke-linecap: round"/>
    <path d="M 393.595117 460.879038 
L 390.98678 457.813654 
L 395.004089 457.566215 
" style="fill: none; stroke: #34495e; stroke-linecap: round"/>
   </g>
   <g id="text_31">
    <g id="patch_16">
     <path d="M 451.639962 511.638475 
L 526.570587 511.638475 
Q 529.270587 511.638475 529.270587 508.938475 
L 529.270587 490.150131 
Q 529.270587 487.450131 526.570587 487.450131 
L 451.639962 487.450131 
Q 448.939962 487.450131 448.939962 490.150131 
L 448.939962 508.938475 
Q 448.939962 511.638475 451.639962 511.638475 
z
" style="fill: #fffbeb; opacity: 0.97; stroke: #f39c12; stroke-width: 0.7; stroke-linejoin: miter"/>
    </g>
    <!-- PMg corta a PMe -->
    <g transform="translate(451.639962 496.988725) scale(0.09 -0.09)">
     <use xlink:href="#DejaVuSans-50"/>
     <use xlink:href="#DejaVuSans-4d" x="60.302734"/>
     <use xlink:href="#DejaVuSans-67" x="146.582031"/>
     <use xlink:href="#DejaVuSans-20" x="210.058594"/>
     <use xlink:href="#DejaVuSans-63" x="241.845703"/>
     <use xlink:href="#DejaVuSans-6f" x="296.826172"/>
     <use xlink:href="#DejaVuSans-72" x="358.007812"/>
     <use xlink:href="#DejaVuSans-74" x="399.121094"/>
     <use xlink:href="#DejaVuSans-61" x="438.330078"/>
     <use xlink:href="#DejaVuSans-20" x="499.609375"/>
     <use xlink:href="#DejaVuSans-61" x="531.396484"/>
     <use xlink:href="#DejaVuSans-20" x="592.675781"/>
     <use xlink:href="#DejaVuSans-50" x="624.462891"/>
     <use xlink:href="#DejaVuSans-4d" x="684.765625"/>
     <use xlink:href="#DejaVuSans-65" x="771.044922"/>
    </g>
    <!-- en su MÁXIMO -->
    <g transform="translate(456.63215 507.066756) scale(0.09 -0.09)">
     <defs>
      <path id="DejaVuSans-73" d="M 2834 3397 
L 2834 2853 
Q 2591 2978 2328 3040 
Q 2066 3103 1784 3103 
Q 1356 3103 1142 2972 
Q 928 2841 928 2578 
Q 928 2378 1081 2264 
Q 1234 2150 1697 2047 
L 1894 2003 
Q 2506 1872 2764 1633 
Q 3022 1394 3022 966 
Q 3022 478 2636 193 
Q 2250 -91 1575 -91 
Q 1294 -91 989 -36 
Q 684 19 347 128 
L 347 722 
Q 666 556 975 473 
Q 1284 391 1588 391 
Q 1994 391 2212 530 
Q 2431 669 2431 922 
Q 2431 1156 2273 1281 
Q 2116 1406 1581 1522 
L 1381 1569 
Q 847 1681 609 1914 
Q 372 2147 372 2553 
Q 372 3047 722 3315 
Q 1072 3584 1716 3584 
Q 2034 3584 2315 3537 
Q 2597 3491 2834 3397 
z
" transform="scale(0.015625)"/>
      <path id="DejaVuSans-c1" d="M 2188 4044 
L 1331 1722 
L 3047 1722 
L 2188 4044 
z
M 1831 4666 
L 2547 4666 
L 4325 0 
L 3669 0 
L 3244 1197 
L 1141 1197 
L 716 0 
L 50 0 
L 1831 4666 
z
M 2356 5921 
L 2934 5921 
L 2222 5096 
L 1743 5096 
L 2356 5921 
z
" transform="scale(0.015625)"/>
      <path id="DejaVuSans-58" d="M 403 4666 
L 1081 4666 
L 2241 2931 
L 3406 4666 
L 4084 4666 
L 2584 2425 
L 4184 0 
L 3506 0 
L 2194 1984 
L 872 0 
L 191 0 
L 1856 2491 
L 403 4666 
z
" transform="scale(0.015625)"/>
      <path id="DejaVuSans-49" d="M 628 4666 
L 1259 4666 
L 1259 0 
L 628 0 
L 628 4666 
z
" transform="scale(0.015625)"/>
      <path id="DejaVuSans-4f" d="M 2522 4238 
Q 1834 4238 1429 3725 
Q 1025 3213 1025 2328 
Q 1025 1447 1429 934 
Q 1834 422 2522 422 
Q 3209 422 3611 934 
Q 4013 1447 4013 2328 
Q 4013 3213 3611 3725 
Q 3209 4238 2522 4238 
z
M 2522 4750 
Q 3503 4750 4090 4092 
Q 4678 3434 4678 2328 
Q 4678 1225 4090 567 
Q 3503 -91 2522 -91 
Q 1538 -91 948 565 
Q 359 1222 359 2328 
Q 359 3434 948 4092 
Q 1538 4750 2522 4750 
z
" transform="scale(0.015625)"/>
     </defs>
     <use xlink:href="#DejaVuSans-65"/>
     <use xlink:href="#DejaVuSans-6e" x="61.523438"/>
     <use xlink:href="#DejaVuSans-20" x="124.902344"/>
     <use xlink:href="#DejaVuSans-73" x="156.689453"/>
     <use xlink:href="#DejaVuSans-75" x="208.789062"/>
     <use xlink:href="#DejaVuSans-20" x="272.167969"/>
     <use xlink:href="#DejaVuSans-4d" x="303.955078"/>
     <use xlink:href="#DejaVuSans-c1" x="390.234375"/>
     <use xlink:href="#DejaVuSans-58" x="458.642578"/>
     <use xlink:href="#DejaVuSans-49" x="527.148438"/>
     <use xlink:href="#DejaVuSans-4d" x="556.640625"/>
     <use xlink:href="#DejaVuSans-4f" x="642.919922"/>
    </g>
   </g>
   <g id="text_32">
    <g id="patch_17">
     <path d="M 208.612087 411.709371 
L 252.025994 411.709371 
Q 255.325994 411.709371 255.325994 408.409371 
L 255.325994 397.763434 
Q 255.325994 394.463434 252.025994 394.463434 
L 208.612087 394.463434 
Q 205.312087 394.463434 205.312087 397.763434 
L 205.312087 408.409371 
Q 205.312087 411.709371 208.612087 411.709371 
z
" style="fill: #ffffff; stroke: #e67e22; stroke-linejoin: miter"/>
    </g>
    <!-- Etapa I -->
    <g style="fill: #e67e22" transform="translate(208.612087 406.121715) scale(0.11 -0.11)">
     <defs>
      <path id="DejaVuSans-Bold-45" d="M 588 4666 
L 3834 4666 
L 3834 3756 
L 1791 3756 
L 1791 2888 
L 3713 2888 
L 3713 1978 
L 1791 1978 
L 1791 909 
L 3903 909 
L 3903 0 
L 588 0 
L 588 4666 
z
" transform="scale(0.015625)"/>
      <path id="DejaVuSans-Bold-70" d="M 1656 506 
L 1656 -1331 
L 538 -1331 
L 538 3500 
L 1656 3500 
L 1656 2988 
Q 1888 3294 2169 3439 
Q 2450 3584 2816 3584 
Q 3463 3584 3878 3070 
Q 4294 2556 4294 1747 
Q 4294 938 3878 423 
Q 3463 -91 2816 -91 
Q 2450 -91 2169 54 
Q 1888 200 1656 506 
z
M 2400 2772 
Q 2041 2772 1848 2508 
Q 1656 2244 1656 1747 
Q 1656 1250 1848 986 
Q 2041 722 2400 722 
Q 2759 722 2948 984 
Q 3138 1247 3138 1747 
Q 3138 2247 2948 2509 
Q 2759 2772 2400 2772 
z
" transform="scale(0.015625)"/>
      <path id="DejaVuSans-Bold-49" d="M 588 4666 
L 1791 4666 
L 1791 0 
L 588 0 
L 588 4666 
z
" transform="scale(0.015625)"/>
     </defs>
     <use xlink:href="#DejaVuSans-Bold-45"/>
     <use xlink:href="#DejaVuSans-Bold-74" x="68.310547"/>
     <use xlink:href="#DejaVuSans-Bold-61" x="116.113281"/>
     <use xlink:href="#DejaVuSans-Bold-70" x="183.59375"/>
     <use xlink:href="#DejaVuSans-Bold-61" x="255.175781"/>
     <use xlink:href="#DejaVuSans-Bold-20" x="322.65625"/>
     <use xlink:href="#DejaVuSans-Bold-49" x="357.470703"/>
    </g>
   </g>
   <g id="text_33">
    <g id="patch_18">
     <path d="M 454.361993 411.709371 
L 514.138399 411.709371 
Q 517.438399 411.709371 517.438399 408.409371 
L 517.438399 385.44584 
Q 517.438399 382.14584 514.138399 382.14584 
L 454.361993 382.14584 
Q 451.061993 382.14584 451.061993 385.44584 
L 451.061993 408.409371 
Q 451.061993 411.709371 454.361993 411.709371 
z
" style="fill: #ffffff; stroke: #27ae60; stroke-linejoin: miter"/>
    </g>
    <!-- Etapa II -->
    <g style="fill: #27ae60" transform="translate(460.497071 393.804121) scale(0.11 -0.11)">
     <use xlink:href="#DejaVuSans-Bold-45"/>
     <use xlink:href="#DejaVuSans-Bold-74" x="68.310547"/>
     <use xlink:href="#DejaVuSans-Bold-61" x="116.113281"/>
     <use xlink:href="#DejaVuSans-Bold-70" x="183.59375"/>
     <use xlink:href="#DejaVuSans-Bold-61" x="255.175781"/>
     <use xlink:href="#DejaVuSans-Bold-20" x="322.65625"/>
     <use xlink:href="#DejaVuSans-Bold-49" x="357.470703"/>
     <use xlink:href="#DejaVuSans-Bold-49" x="394.677734"/>
    </g>
    <!-- (racional) -->
    <g style="fill: #27ae60" transform="translate(454.361993 406.121715) scale(0.11 -0.11)">
     <defs>
      <path id="DejaVuSans-Bold-69" d="M 538 3500 
L 1656 3500 
L 1656 0 
L 538 0 
L 538 3500 
z
M 538 4863 
L 1656 4863 
L 1656 3950 
L 538 3950 
L 538 4863 
z
" transform="scale(0.015625)"/>
      <path id="DejaVuSans-Bold-6e" d="M 4056 2131 
L 4056 0 
L 2931 0 
L 2931 347 
L 2931 1631 
Q 2931 2084 2911 2256 
Q 2891 2428 2841 2509 
Q 2775 2619 2662 2680 
Q 2550 2741 2406 2741 
Q 2056 2741 1856 2470 
Q 1656 2200 1656 1722 
L 1656 0 
L 538 0 
L 538 3500 
L 1656 3500 
L 1656 2988 
Q 1909 3294 2193 3439 
Q 2478 3584 2822 3584 
Q 3428 3584 3742 3212 
Q 4056 2841 4056 2131 
z
" transform="scale(0.015625)"/>
     </defs>
     <use xlink:href="#DejaVuSans-Bold-28"/>
     <use xlink:href="#DejaVuSans-Bold-72" x="45.703125"/>
     <use xlink:href="#DejaVuSans-Bold-61" x="95.019531"/>
     <use xlink:href="#DejaVuSans-Bold-63" x="162.5"/>
     <use xlink:href="#DejaVuSans-Bold-69" x="221.777344"/>
     <use xlink:href="#DejaVuSans-Bold-6f" x="256.054688"/>
     <use xlink:href="#DejaVuSans-Bold-6e" x="324.755859"/>
     <use xlink:href="#DejaVuSans-Bold-61" x="395.947266"/>
     <use xlink:href="#DejaVuSans-Bold-6c" x="463.427734"/>
     <use xlink:href="#DejaVuSans-Bold-29" x="497.705078"/>
    </g>
   </g>
   <g id="text_34">
    <g id="patch_19">
     <path d="M 616.230393 411.709371 
L 667.828987 411.709371 
Q 671.128987 411.709371 671.128987 408.409371 
L 671.128987 397.763434 
Q 671.128987 394.463434 667.828987 394.463434 
L 616.230393 394.463434 
Q 612.930393 394.463434 612.930393 397.763434 
L 612.930393 408.409371 
Q 612.930393 411.709371 616.230393 411.709371 
z
" style="fill: #ffffff; stroke: #c0392b; stroke-linejoin: miter"/>
    </g>
    <!-- Etapa III -->
    <g style="fill: #c0392b" transform="translate(616.230393 406.121715) scale(0.11 -0.11)">
     <use xlink:href="#DejaVuSans-Bold-45"/>
     <use xlink:href="#DejaVuSans-Bold-74" x="68.310547"/>
     <use xlink:href="#DejaVuSans-Bold-61" x="116.113281"/>
     <use xlink:href="#DejaVuSans-Bold-70" x="183.59375"/>
     <use xlink:href="#DejaVuSans-Bold-61" x="255.175781"/>
     <use xlink:href="#DejaVuSans-Bold-20" x="322.65625"/>
     <use xlink:href="#DejaVuSans-Bold-49" x="357.470703"/>
     <use xlink:href="#DejaVuSans-Bold-49" x="394.677734"/>
     <use xlink:href="#DejaVuSans-Bold-49" x="431.884766"/>
    </g>
   </g>
  </g>
  <g id="text_35">
   <!-- Producción en corto plazo — etapas y productividades -->
   <g transform="translate(161.260781 39.997813) scale(0.14 -0.14)">
    <defs>
     <path id="DejaVuSans-Bold-f3" d="M 2203 2784 
Q 1831 2784 1636 2517 
Q 1441 2250 1441 1747 
Q 1441 1244 1636 976 
Q 1831 709 2203 709 
Q 2569 709 2762 976 
Q 2956 1244 2956 1747 
Q 2956 2250 2762 2517 
Q 2569 2784 2203 2784 
z
M 2203 3584 
Q 3106 3584 3614 3096 
Q 4122 2609 4122 1747 
Q 4122 884 3614 396 
Q 3106 -91 2203 -91 
Q 1297 -91 786 396 
Q 275 884 275 1747 
Q 275 2609 786 3096 
Q 1297 3584 2203 3584 
z
M 2694 5119 
L 3578 5119 
L 2425 3944 
L 1813 3944 
L 2694 5119 
z
" transform="scale(0.015625)"/>
     <path id="DejaVuSans-Bold-7a" d="M 366 3500 
L 3419 3500 
L 3419 2719 
L 1575 800 
L 3419 800 
L 3419 0 
L 288 0 
L 288 781 
L 2131 2700 
L 366 2700 
L 366 3500 
z
" transform="scale(0.015625)"/>
     <path id="DejaVuSans-Bold-2014" d="M 344 2156 
L 6056 2156 
L 6056 1350 
L 344 1350 
L 344 2156 
z
" transform="scale(0.015625)"/>
     <path id="DejaVuSans-Bold-73" d="M 3272 3391 
L 3272 2541 
Q 2913 2691 2578 2766 
Q 2244 2841 1947 2841 
Q 1628 2841 1473 2761 
Q 1319 2681 1319 2516 
Q 1319 2381 1436 2309 
Q 1553 2238 1856 2203 
L 2053 2175 
Q 2913 2066 3209 1816 
Q 3506 1566 3506 1031 
Q 3506 472 3093 190 
Q 2681 -91 1863 -91 
Q 1516 -91 1145 -36 
Q 775 19 384 128 
L 384 978 
Q 719 816 1070 734 
Q 1422 653 1784 653 
Q 2113 653 2278 743 
Q 2444 834 2444 1013 
Q 2444 1163 2330 1236 
Q 2216 1309 1875 1350 
L 1678 1375 
Q 931 1469 631 1722 
Q 331 1975 331 2491 
Q 331 3047 712 3315 
Q 1094 3584 1881 3584 
Q 2191 3584 2531 3537 
Q 2872 3491 3272 3391 
z
" transform="scale(0.015625)"/>
     <path id="DejaVuSans-Bold-79" d="M 78 3500 
L 1197 3500 
L 2138 1125 
L 2938 3500 
L 4056 3500 
L 2584 -331 
Q 2363 -916 2067 -1148 
Q 1772 -1381 1288 -1381 
L 641 -1381 
L 641 -647 
L 991 -647 
Q 1275 -647 1404 -556 
Q 1534 -466 1606 -231 
L 1638 -134 
L 78 3500 
z
" transform="scale(0.015625)"/>
     <path id="DejaVuSans-Bold-76" d="M 97 3500 
L 1216 3500 
L 2088 1081 
L 2956 3500 
L 4078 3500 
L 2700 0 
L 1472 0 
L 97 3500 
z
" transform="scale(0.015625)"/>
    </defs>
    <use xlink:href="#DejaVuSans-Bold-50"/>
    <use xlink:href="#DejaVuSans-Bold-72" x="73.291016"/>
    <use xlink:href="#DejaVuSans-Bold-6f" x="122.607422"/>
    <use xlink:href="#DejaVuSans-Bold-64" x="191.308594"/>
    <use xlink:href="#DejaVuSans-Bold-75" x="262.890625"/>
    <use xlink:href="#DejaVuSans-Bold-63" x="334.082031"/>
    <use xlink:href="#DejaVuSans-Bold-63" x="393.359375"/>
    <use xlink:href="#DejaVuSans-Bold-69" x="452.636719"/>
    <use xlink:href="#DejaVuSans-Bold-f3" x="486.914062"/>
    <use xlink:href="#DejaVuSans-Bold-6e" x="555.615234"/>
    <use xlink:href="#DejaVuSans-Bold-20" x="626.806641"/>
    <use xlink:href="#DejaVuSans-Bold-65" x="661.621094"/>
    <use xlink:href="#DejaVuSans-Bold-6e" x="729.443359"/>
    <use xlink:href="#DejaVuSans-Bold-20" x="800.634766"/>
    <use xlink:href="#DejaVuSans-Bold-63" x="835.449219"/>
    <use xlink:href="#DejaVuSans-Bold-6f" x="894.726562"/>
    <use xlink:href="#DejaVuSans-Bold-72" x="963.427734"/>
    <use xlink:href="#DejaVuSans-Bold-74" x="1012.744141"/>
    <use xlink:href="#DejaVuSans-Bold-6f" x="1060.546875"/>
    <use xlink:href="#DejaVuSans-Bold-20" x="1129.248047"/>
    <use xlink:href="#DejaVuSans-Bold-70" x="1164.0625"/>
    <use xlink:href="#DejaVuSans-Bold-6c" x="1235.644531"/>
    <use xlink:href="#DejaVuSans-Bold-61" x="1269.921875"/>
    <use xlink:href="#DejaVuSans-Bold-7a" x="1337.402344"/>
    <use xlink:href="#DejaVuSans-Bold-6f" x="1395.605469"/>
    <use xlink:href="#DejaVuSans-Bold-20" x="1464.306641"/>
    <use xlink:href="#DejaVuSans-Bold-2014" x="1499.121094"/>
    <use xlink:href="#DejaVuSans-Bold-20" x="1599.121094"/>
    <use xlink:href="#DejaVuSans-Bold-65" x="1633.935547"/>
    <use xlink:href="#DejaVuSans-Bold-74" x="1701.757812"/>
    <use xlink:href="#DejaVuSans-Bold-61" x="1749.560547"/>
    <use xlink:href="#DejaVuSans-Bold-70" x="1817.041016"/>
    <use xlink:href="#DejaVuSans-Bold-61" x="1888.623047"/>
    <use xlink:href="#DejaVuSans-Bold-73" x="1956.103516"/>
    <use xlink:href="#DejaVuSans-Bold-20" x="2015.625"/>
    <use xlink:href="#DejaVuSans-Bold-79" x="2050.439453"/>
    <use xlink:href="#DejaVuSans-Bold-20" x="2115.625"/>
    <use xlink:href="#DejaVuSans-Bold-70" x="2150.439453"/>
    <use xlink:href="#DejaVuSans-Bold-72" x="2222.021484"/>
    <use xlink:href="#DejaVuSans-Bold-6f" x="2271.337891"/>
    <use xlink:href="#DejaVuSans-Bold-64" x="2340.039062"/>
    <use xlink:href="#DejaVuSans-Bold-75" x="2411.621094"/>
    <use xlink:href="#DejaVuSans-Bold-63" x="2482.8125"/>
    <use xlink:href="#DejaVuSans-Bold-74" x="2542.089844"/>
    <use xlink:href="#DejaVuSans-Bold-69" x="2589.892578"/>
    <use xlink:href="#DejaVuSans-Bold-76" x="2624.169922"/>
    <use xlink:href="#DejaVuSans-Bold-69" x="2689.355469"/>
    <use xlink:href="#DejaVuSans-Bold-64" x="2723.632812"/>
    <use xlink:href="#DejaVuSans-Bold-61" x="2795.214844"/>
    <use xlink:href="#DejaVuSans-Bold-64" x="2862.695312"/>
    <use xlink:href="#DejaVuSans-Bold-65" x="2934.277344"/>
    <use xlink:href="#DejaVuSans-Bold-73" x="3002.099609"/>
   </g>
  </g>
 </g>
 <defs>
  <clipPath id="p30b89d178e">
   <rect x="72.518438" y="65.7" width="650.095" height="296.105455"/>
  </clipPath>
  <clipPath id="p6dd8bd75a1">
   <rect x="72.518438" y="380.885455" width="650.095" height="246.754545"/>
  </clipPath>
 </defs>
</svg>
