<?xml version="1.0" encoding="utf-8" standalone="no"?>
<!DOCTYPE svg PUBLIC "-//W3C//DTD SVG 1.1//EN"
  "http://www.w3.org/Graphics/SVG/1.1/DTD/svg11.dtd">
<svg xmlns:xlink="http://www.w3.org/1999/xlink" width="446.890469pt" height="308.095969pt" viewBox="0 0 446.890469 308.095969" xmlns="http://www.w3.org/2000/svg" version="1.1">
 <metadata>
  <rdf:RDF xmlns:dc="http://purl.org/dc/elements/1.1/" xmlns:cc="http://creativecommons.org/ns#" xmlns:rdf="http://www.w3.org/1999/02/22-rdf-syntax-ns#">
   <cc:Work>
    <dc:type rdf:resource="http://purl.org/dc/dcmitype/StillImage"/>
    <dc:date>2026-06-30T11:52:54.656532</dc:date>
    <dc:format>image/svg+xml</dc:format>
    <dc:creator>
     <cc:Agent>
      <dc:title>Matplotlib v3.9.2, https://matplotlib.org/</dc:title>
     </cc:Agent>
    </dc:creator>
   </cc:Work>
  </rdf:RDF>
 </metadata>
 <defs>
  <style type="text/css">*{stroke-linejoin: round; stroke-linecap: butt}</style>
 </defs>
 <g id="figure_1">
  <g id="patch_1">
   <path d="M 0 308.095969 
L 446.890469 308.095969 
L 446.890469 0 
L 0 0 
z
" style="fill: #ffffff"/>
  </g>
  <g id="axes_1">
   <g id="patch_2">
    <path d="M 55.915469 264.768 
L 435.355469 264.768 
L 435.355469 31.92 
L 55.915469 31.92 
z
" style="fill: #ffffff"/>
   </g>
   <g id="matplotlib.axis_1">
    <g id="xtick_1">
     <g id="line2d_1">
      <path d="M 65.401469 264.768 
L 65.401469 31.92 
" clip-path="url(#p32397b3d36)" style="fill: none; stroke-dasharray: 0.8,1.28; stroke-dashoffset: 0; stroke: #b0b0b0; stroke-opacity: 0.3; stroke-width: 0.8"/>
     </g>
     <g id="line2d_2">
      <defs>
       <path id="mfb6cd1c3ed" d="M 0 0 
L 0 3.5 
" style="stroke: #2c3e50; stroke-width: 0.8"/>
      </defs>
      <g>
       <use xlink:href="#mfb6cd1c3ed" x="65.401469" y="264.768" style="fill: #2c3e50; stroke: #2c3e50; stroke-width: 0.8"/>
      </g>
     </g>
     <g id="text_1">
      <!-- 2.5 -->
      <g style="fill: #2c3e50" transform="translate(57.449906 279.366437) scale(0.1 -0.1)">
       <defs>
        <path id="DejaVuSans-32" d="M 1228 531 
L 3431 531 
L 3431 0 
L 469 0 
L 469 531 
Q 828 903 1448 1529 
Q 2069 2156 2228 2338 
Q 2531 2678 2651 2914 
Q 2772 3150 2772 3378 
Q 2772 3750 2511 3984 
Q 2250 4219 1831 4219 
Q 1534 4219 1204 4116 
Q 875 4013 500 3803 
L 500 4441 
Q 881 4594 1212 4672 
Q 1544 4750 1819 4750 
Q 2544 4750 2975 4387 
Q 3406 4025 3406 3419 
Q 3406 3131 3298 2873 
Q 3191 2616 2906 2266 
Q 2828 2175 2409 1742 
Q 1991 1309 1228 531 
z
" transform="scale(0.015625)"/>
        <path id="DejaVuSans-2e" d="M 684 794 
L 1344 794 
L 1344 0 
L 684 0 
L 684 794 
z
" transform="scale(0.015625)"/>
        <path id="DejaVuSans-35" d="M 691 4666 
L 3169 4666 
L 3169 4134 
L 1269 4134 
L 1269 2991 
Q 1406 3038 1543 3061 
Q 1681 3084 1819 3084 
Q 2600 3084 3056 2656 
Q 3513 2228 3513 1497 
Q 3513 744 3044 326 
Q 2575 -91 1722 -91 
Q 1428 -91 1123 -41 
Q 819 9 494 109 
L 494 744 
Q 775 591 1075 516 
Q 1375 441 1709 441 
Q 2250 441 2565 725 
Q 2881 1009 2881 1497 
Q 2881 1984 2565 2268 
Q 2250 2553 1709 2553 
Q 1456 2553 1204 2497 
Q 953 2441 691 2322 
L 691 4666 
z
" transform="scale(0.015625)"/>
       </defs>
       <use xlink:href="#DejaVuSans-32"/>
       <use xlink:href="#DejaVuSans-2e" x="63.623047"/>
       <use xlink:href="#DejaVuSans-35" x="95.410156"/>
      </g>
     </g>
    </g>
    <g id="xtick_2">
     <g id="line2d_3">
      <path d="M 112.831469 264.768 
L 112.831469 31.92 
" clip-path="url(#p32397b3d36)" style="fill: none; stroke-dasharray: 0.8,1.28; stroke-dashoffset: 0; stroke: #b0b0b0; stroke-opacity: 0.3; stroke-width: 0.8"/>
     </g>
     <g id="line2d_4">
      <g>
       <use xlink:href="#mfb6cd1c3ed" x="112.831469" y="264.768" style="fill: #2c3e50; stroke: #2c3e50; stroke-width: 0.8"/>
      </g>
     </g>
     <g id="text_2">
      <!-- 5.0 -->
      <g style="fill: #2c3e50" transform="translate(104.879906 279.366437) scale(0.1 -0.1)">
       <defs>
        <path id="DejaVuSans-30" d="M 2034 4250 
Q 1547 4250 1301 3770 
Q 1056 3291 1056 2328 
Q 1056 1369 1301 889 
Q 1547 409 2034 409 
Q 2525 409 2770 889 
Q 3016 1369 3016 2328 
Q 3016 3291 2770 3770 
Q 2525 4250 2034 4250 
z
M 2034 4750 
Q 2819 4750 3233 4129 
Q 3647 3509 3647 2328 
Q 3647 1150 3233 529 
Q 2819 -91 2034 -91 
Q 1250 -91 836 529 
Q 422 1150 422 2328 
Q 422 3509 836 4129 
Q 1250 4750 2034 4750 
z
" transform="scale(0.015625)"/>
       </defs>
       <use xlink:href="#DejaVuSans-35"/>
       <use xlink:href="#DejaVuSans-2e" x="63.623047"/>
       <use xlink:href="#DejaVuSans-30" x="95.410156"/>
      </g>
     </g>
    </g>
    <g id="xtick_3">
     <g id="line2d_5">
      <path d="M 160.261469 264.768 
L 160.261469 31.92 
" clip-path="url(#p32397b3d36)" style="fill: none; stroke-dasharray: 0.8,1.28; stroke-dashoffset: 0; stroke: #b0b0b0; stroke-opacity: 0.3; stroke-width: 0.8"/>
     </g>
     <g id="line2d_6">
      <g>
       <use xlink:href="#mfb6cd1c3ed" x="160.261469" y="264.768" style="fill: #2c3e50; stroke: #2c3e50; stroke-width: 0.8"/>
      </g>
     </g>
     <g id="text_3">
      <!-- 7.5 -->
      <g style="fill: #2c3e50" transform="translate(152.309906 279.366437) scale(0.1 -0.1)">
       <defs>
        <path id="DejaVuSans-37" d="M 525 4666 
L 3525 4666 
L 3525 4397 
L 1831 0 
L 1172 0 
L 2766 4134 
L 525 4134 
L 525 4666 
z
" transform="scale(0.015625)"/>
       </defs>
       <use xlink:href="#DejaVuSans-37"/>
       <use xlink:href="#DejaVuSans-2e" x="63.623047"/>
       <use xlink:href="#DejaVuSans-35" x="95.410156"/>
      </g>
     </g>
    </g>
    <g id="xtick_4">
     <g id="line2d_7">
      <path d="M 207.691469 264.768 
L 207.691469 31.92 
" clip-path="url(#p32397b3d36)" style="fill: none; stroke-dasharray: 0.8,1.28; stroke-dashoffset: 0; stroke: #b0b0b0; stroke-opacity: 0.3; stroke-width: 0.8"/>
     </g>
     <g id="line2d_8">
      <g>
       <use xlink:href="#mfb6cd1c3ed" x="207.691469" y="264.768" style="fill: #2c3e50; stroke: #2c3e50; stroke-width: 0.8"/>
      </g>
     </g>
     <g id="text_4">
      <!-- 10.0 -->
      <g style="fill: #2c3e50" transform="translate(196.558656 279.366437) scale(0.1 -0.1)">
       <defs>
        <path id="DejaVuSans-31" d="M 794 531 
L 1825 531 
L 1825 4091 
L 703 3866 
L 703 4441 
L 1819 4666 
L 2450 4666 
L 2450 531 
L 3481 531 
L 3481 0 
L 794 0 
L 794 531 
z
" transform="scale(0.015625)"/>
       </defs>
       <use xlink:href="#DejaVuSans-31"/>
       <use xlink:href="#DejaVuSans-30" x="63.623047"/>
       <use xlink:href="#DejaVuSans-2e" x="127.246094"/>
       <use xlink:href="#DejaVuSans-30" x="159.033203"/>
      </g>
     </g>
    </g>
    <g id="xtick_5">
     <g id="line2d_9">
      <path d="M 255.121469 264.768 
L 255.121469 31.92 
" clip-path="url(#p32397b3d36)" style="fill: none; stroke-dasharray: 0.8,1.28; stroke-dashoffset: 0; stroke: #b0b0b0; stroke-opacity: 0.3; stroke-width: 0.8"/>
     </g>
     <g id="line2d_10">
      <g>
       <use xlink:href="#mfb6cd1c3ed" x="255.121469" y="264.768" style="fill: #2c3e50; stroke: #2c3e50; stroke-width: 0.8"/>
      </g>
     </g>
     <g id="text_5">
      <!-- 12.5 -->
      <g style="fill: #2c3e50" transform="translate(243.988656 279.366437) scale(0.1 -0.1)">
       <use xlink:href="#DejaVuSans-31"/>
       <use xlink:href="#DejaVuSans-32" x="63.623047"/>
       <use xlink:href="#DejaVuSans-2e" x="127.246094"/>
       <use xlink:href="#DejaVuSans-35" x="159.033203"/>
      </g>
     </g>
    </g>
    <g id="xtick_6">
     <g id="line2d_11">
      <path d="M 302.551469 264.768 
L 302.551469 31.92 
" clip-path="url(#p32397b3d36)" style="fill: none; stroke-dasharray: 0.8,1.28; stroke-dashoffset: 0; stroke: #b0b0b0; stroke-opacity: 0.3; stroke-width: 0.8"/>
     </g>
     <g id="line2d_12">
      <g>
       <use xlink:href="#mfb6cd1c3ed" x="302.551469" y="264.768" style="fill: #2c3e50; stroke: #2c3e50; stroke-width: 0.8"/>
      </g>
     </g>
     <g id="text_6">
      <!-- 15.0 -->
      <g style="fill: #2c3e50" transform="translate(291.418656 279.366437) scale(0.1 -0.1)">
       <use xlink:href="#DejaVuSans-31"/>
       <use xlink:href="#DejaVuSans-35" x="63.623047"/>
       <use xlink:href="#DejaVuSans-2e" x="127.246094"/>
       <use xlink:href="#DejaVuSans-30" x="159.033203"/>
      </g>
     </g>
    </g>
    <g id="xtick_7">
     <g id="line2d_13">
      <path d="M 349.981469 264.768 
L 349.981469 31.92 
" clip-path="url(#p32397b3d36)" style="fill: none; stroke-dasharray: 0.8,1.28; stroke-dashoffset: 0; stroke: #b0b0b0; stroke-opacity: 0.3; stroke-width: 0.8"/>
     </g>
     <g id="line2d_14">
      <g>
       <use xlink:href="#mfb6cd1c3ed" x="349.981469" y="264.768" style="fill: #2c3e50; stroke: #2c3e50; stroke-width: 0.8"/>
      </g>
     </g>
     <g id="text_7">
      <!-- 17.5 -->
      <g style="fill: #2c3e50" transform="translate(338.848656 279.366437) scale(0.1 -0.1)">
       <use xlink:href="#DejaVuSans-31"/>
       <use xlink:href="#DejaVuSans-37" x="63.623047"/>
       <use xlink:href="#DejaVuSans-2e" x="127.246094"/>
       <use xlink:href="#DejaVuSans-35" x="159.033203"/>
      </g>
     </g>
    </g>
    <g id="xtick_8">
     <g id="line2d_15">
      <path d="M 397.411469 264.768 
L 397.411469 31.92 
" clip-path="url(#p32397b3d36)" style="fill: none; stroke-dasharray: 0.8,1.28; stroke-dashoffset: 0; stroke: #b0b0b0; stroke-opacity: 0.3; stroke-width: 0.8"/>
     </g>
     <g id="line2d_16">
      <g>
       <use xlink:href="#mfb6cd1c3ed" x="397.411469" y="264.768" style="fill: #2c3e50; stroke: #2c3e50; stroke-width: 0.8"/>
      </g>
     </g>
     <g id="text_8">
      <!-- 20.0 -->
      <g style="fill: #2c3e50" transform="translate(386.278656 279.366437) scale(0.1 -0.1)">
       <use xlink:href="#DejaVuSans-32"/>
       <use xlink:href="#DejaVuSans-30" x="63.623047"/>
       <use xlink:href="#DejaVuSans-2e" x="127.246094"/>
       <use xlink:href="#DejaVuSans-30" x="159.033203"/>
      </g>
     </g>
    </g>
    <g id="text_9">
     <!-- k -->
     <g transform="translate(241.811719 294.184328) scale(0.115 -0.115)">
      <defs>
       <path id="DejaVuSans-Bold-6b" d="M 538 4863 
L 1656 4863 
L 1656 2216 
L 2944 3500 
L 4244 3500 
L 2534 1894 
L 4378 0 
L 3022 0 
L 1656 1459 
L 1656 0 
L 538 0 
L 538 4863 
z
" transform="scale(0.015625)"/>
      </defs>
      <use xlink:href="#DejaVuSans-Bold-6b"/>
     </g>
    </g>
   </g>
   <g id="matplotlib.axis_2">
    <g id="ytick_1">
     <g id="line2d_17">
      <path d="M 55.915469 264.768 
L 435.355469 264.768 
" clip-path="url(#p32397b3d36)" style="fill: none; stroke-dasharray: 0.8,1.28; stroke-dashoffset: 0; stroke: #b0b0b0; stroke-opacity: 0.3; stroke-width: 0.8"/>
     </g>
     <g id="line2d_18">
      <defs>
       <path id="md99ef595a0" d="M 0 0 
L -3.5 0 
" style="stroke: #2c3e50; stroke-width: 0.8"/>
      </defs>
      <g>
       <use xlink:href="#md99ef595a0" x="55.915469" y="264.768" style="fill: #2c3e50; stroke: #2c3e50; stroke-width: 0.8"/>
      </g>
     </g>
     <g id="text_10">
      <!-- 0.00 -->
      <g style="fill: #2c3e50" transform="translate(26.649844 268.567219) scale(0.1 -0.1)">
       <use xlink:href="#DejaVuSans-30"/>
       <use xlink:href="#DejaVuSans-2e" x="63.623047"/>
       <use xlink:href="#DejaVuSans-30" x="95.410156"/>
       <use xlink:href="#DejaVuSans-30" x="159.033203"/>
      </g>
     </g>
    </g>
    <g id="ytick_2">
     <g id="line2d_19">
      <path d="M 55.915469 234.93606 
L 435.355469 234.93606 
" clip-path="url(#p32397b3d36)" style="fill: none; stroke-dasharray: 0.8,1.28; stroke-dashoffset: 0; stroke: #b0b0b0; stroke-opacity: 0.3; stroke-width: 0.8"/>
     </g>
     <g id="line2d_20">
      <g>
       <use xlink:href="#md99ef595a0" x="55.915469" y="234.93606" style="fill: #2c3e50; stroke: #2c3e50; stroke-width: 0.8"/>
      </g>
     </g>
     <g id="text_11">
      <!-- 0.02 -->
      <g style="fill: #2c3e50" transform="translate(26.649844 238.735279) scale(0.1 -0.1)">
       <use xlink:href="#DejaVuSans-30"/>
       <use xlink:href="#DejaVuSans-2e" x="63.623047"/>
       <use xlink:href="#DejaVuSans-30" x="95.410156"/>
       <use xlink:href="#DejaVuSans-32" x="159.033203"/>
      </g>
     </g>
    </g>
    <g id="ytick_3">
     <g id="line2d_21">
      <path d="M 55.915469 205.10412 
L 435.355469 205.10412 
" clip-path="url(#p32397b3d36)" style="fill: none; stroke-dasharray: 0.8,1.28; stroke-dashoffset: 0; stroke: #b0b0b0; stroke-opacity: 0.3; stroke-width: 0.8"/>
     </g>
     <g id="line2d_22">
      <g>
       <use xlink:href="#md99ef595a0" x="55.915469" y="205.10412" style="fill: #2c3e50; stroke: #2c3e50; stroke-width: 0.8"/>
      </g>
     </g>
     <g id="text_12">
      <!-- 0.04 -->
      <g style="fill: #2c3e50" transform="translate(26.649844 208.903339) scale(0.1 -0.1)">
       <defs>
        <path id="DejaVuSans-34" d="M 2419 4116 
L 825 1625 
L 2419 1625 
L 2419 4116 
z
M 2253 4666 
L 3047 4666 
L 3047 1625 
L 3713 1625 
L 3713 1100 
L 3047 1100 
L 3047 0 
L 2419 0 
L 2419 1100 
L 313 1100 
L 313 1709 
L 2253 4666 
z
" transform="scale(0.015625)"/>
       </defs>
       <use xlink:href="#DejaVuSans-30"/>
       <use xlink:href="#DejaVuSans-2e" x="63.623047"/>
       <use xlink:href="#DejaVuSans-30" x="95.410156"/>
       <use xlink:href="#DejaVuSans-34" x="159.033203"/>
      </g>
     </g>
    </g>
    <g id="ytick_4">
     <g id="line2d_23">
      <path d="M 55.915469 175.27218 
L 435.355469 175.27218 
" clip-path="url(#p32397b3d36)" style="fill: none; stroke-dasharray: 0.8,1.28; stroke-dashoffset: 0; stroke: #b0b0b0; stroke-opacity: 0.3; stroke-width: 0.8"/>
     </g>
     <g id="line2d_24">
      <g>
       <use xlink:href="#md99ef595a0" x="55.915469" y="175.27218" style="fill: #2c3e50; stroke: #2c3e50; stroke-width: 0.8"/>
      </g>
     </g>
     <g id="text_13">
      <!-- 0.06 -->
      <g style="fill: #2c3e50" transform="translate(26.649844 179.071399) scale(0.1 -0.1)">
       <defs>
        <path id="DejaVuSans-36" d="M 2113 2584 
Q 1688 2584 1439 2293 
Q 1191 2003 1191 1497 
Q 1191 994 1439 701 
Q 1688 409 2113 409 
Q 2538 409 2786 701 
Q 3034 994 3034 1497 
Q 3034 2003 2786 2293 
Q 2538 2584 2113 2584 
z
M 3366 4563 
L 3366 3988 
Q 3128 4100 2886 4159 
Q 2644 4219 2406 4219 
Q 1781 4219 1451 3797 
Q 1122 3375 1075 2522 
Q 1259 2794 1537 2939 
Q 1816 3084 2150 3084 
Q 2853 3084 3261 2657 
Q 3669 2231 3669 1497 
Q 3669 778 3244 343 
Q 2819 -91 2113 -91 
Q 1303 -91 875 529 
Q 447 1150 447 2328 
Q 447 3434 972 4092 
Q 1497 4750 2381 4750 
Q 2619 4750 2861 4703 
Q 3103 4656 3366 4563 
z
" transform="scale(0.015625)"/>
       </defs>
       <use xlink:href="#DejaVuSans-30"/>
       <use xlink:href="#DejaVuSans-2e" x="63.623047"/>
       <use xlink:href="#DejaVuSans-30" x="95.410156"/>
       <use xlink:href="#DejaVuSans-36" x="159.033203"/>
      </g>
     </g>
    </g>
    <g id="ytick_5">
     <g id="line2d_25">
      <path d="M 55.915469 145.440241 
L 435.355469 145.440241 
" clip-path="url(#p32397b3d36)" style="fill: none; stroke-dasharray: 0.8,1.28; stroke-dashoffset: 0; stroke: #b0b0b0; stroke-opacity: 0.3; stroke-width: 0.8"/>
     </g>
     <g id="line2d_26">
      <g>
       <use xlink:href="#md99ef595a0" x="55.915469" y="145.440241" style="fill: #2c3e50; stroke: #2c3e50; stroke-width: 0.8"/>
      </g>
     </g>
     <g id="text_14">
      <!-- 0.08 -->
      <g style="fill: #2c3e50" transform="translate(26.649844 149.239459) scale(0.1 -0.1)">
       <defs>
        <path id="DejaVuSans-38" d="M 2034 2216 
Q 1584 2216 1326 1975 
Q 1069 1734 1069 1313 
Q 1069 891 1326 650 
Q 1584 409 2034 409 
Q 2484 409 2743 651 
Q 3003 894 3003 1313 
Q 3003 1734 2745 1975 
Q 2488 2216 2034 2216 
z
M 1403 2484 
Q 997 2584 770 2862 
Q 544 3141 544 3541 
Q 544 4100 942 4425 
Q 1341 4750 2034 4750 
Q 2731 4750 3128 4425 
Q 3525 4100 3525 3541 
Q 3525 3141 3298 2862 
Q 3072 2584 2669 2484 
Q 3125 2378 3379 2068 
Q 3634 1759 3634 1313 
Q 3634 634 3220 271 
Q 2806 -91 2034 -91 
Q 1263 -91 848 271 
Q 434 634 434 1313 
Q 434 1759 690 2068 
Q 947 2378 1403 2484 
z
M 1172 3481 
Q 1172 3119 1398 2916 
Q 1625 2713 2034 2713 
Q 2441 2713 2670 2916 
Q 2900 3119 2900 3481 
Q 2900 3844 2670 4047 
Q 2441 4250 2034 4250 
Q 1625 4250 1398 4047 
Q 1172 3844 1172 3481 
z
" transform="scale(0.015625)"/>
       </defs>
       <use xlink:href="#DejaVuSans-30"/>
       <use xlink:href="#DejaVuSans-2e" x="63.623047"/>
       <use xlink:href="#DejaVuSans-30" x="95.410156"/>
       <use xlink:href="#DejaVuSans-38" x="159.033203"/>
      </g>
     </g>
    </g>
    <g id="ytick_6">
     <g id="line2d_27">
      <path d="M 55.915469 115.608301 
L 435.355469 115.608301 
" clip-path="url(#p32397b3d36)" style="fill: none; stroke-dasharray: 0.8,1.28; stroke-dashoffset: 0; stroke: #b0b0b0; stroke-opacity: 0.3; stroke-width: 0.8"/>
     </g>
     <g id="line2d_28">
      <g>
       <use xlink:href="#md99ef595a0" x="55.915469" y="115.608301" style="fill: #2c3e50; stroke: #2c3e50; stroke-width: 0.8"/>
      </g>
     </g>
     <g id="text_15">
      <!-- 0.10 -->
      <g style="fill: #2c3e50" transform="translate(26.649844 119.407519) scale(0.1 -0.1)">
       <use xlink:href="#DejaVuSans-30"/>
       <use xlink:href="#DejaVuSans-2e" x="63.623047"/>
       <use xlink:href="#DejaVuSans-31" x="95.410156"/>
       <use xlink:href="#DejaVuSans-30" x="159.033203"/>
      </g>
     </g>
    </g>
    <g id="ytick_7">
     <g id="line2d_29">
      <path d="M 55.915469 85.776361 
L 435.355469 85.776361 
" clip-path="url(#p32397b3d36)" style="fill: none; stroke-dasharray: 0.8,1.28; stroke-dashoffset: 0; stroke: #b0b0b0; stroke-opacity: 0.3; stroke-width: 0.8"/>
     </g>
     <g id="line2d_30">
      <g>
       <use xlink:href="#md99ef595a0" x="55.915469" y="85.776361" style="fill: #2c3e50; stroke: #2c3e50; stroke-width: 0.8"/>
      </g>
     </g>
     <g id="text_16">
      <!-- 0.12 -->
      <g style="fill: #2c3e50" transform="translate(26.649844 89.57558) scale(0.1 -0.1)">
       <use xlink:href="#DejaVuSans-30"/>
       <use xlink:href="#DejaVuSans-2e" x="63.623047"/>
       <use xlink:href="#DejaVuSans-31" x="95.410156"/>
       <use xlink:href="#DejaVuSans-32" x="159.033203"/>
      </g>
     </g>
    </g>
    <g id="ytick_8">
     <g id="line2d_31">
      <path d="M 55.915469 55.944421 
L 435.355469 55.944421 
" clip-path="url(#p32397b3d36)" style="fill: none; stroke-dasharray: 0.8,1.28; stroke-dashoffset: 0; stroke: #b0b0b0; stroke-opacity: 0.3; stroke-width: 0.8"/>
     </g>
     <g id="line2d_32">
      <g>
       <use xlink:href="#md99ef595a0" x="55.915469" y="55.944421" style="fill: #2c3e50; stroke: #2c3e50; stroke-width: 0.8"/>
      </g>
     </g>
     <g id="text_17">
      <!-- 0.14 -->
      <g style="fill: #2c3e50" transform="translate(26.649844 59.74364) scale(0.1 -0.1)">
       <use xlink:href="#DejaVuSans-30"/>
       <use xlink:href="#DejaVuSans-2e" x="63.623047"/>
       <use xlink:href="#DejaVuSans-31" x="95.410156"/>
       <use xlink:href="#DejaVuSans-34" x="159.033203"/>
      </g>
     </g>
    </g>
    <g id="text_18">
     <!-- probabilidad -->
     <g transform="translate(20.258203 189.382828) rotate(-90) scale(0.115 -0.115)">
      <defs>
       <path id="DejaVuSans-Bold-70" d="M 1656 506 
L 1656 -1331 
L 538 -1331 
L 538 3500 
L 1656 3500 
L 1656 2988 
Q 1888 3294 2169 3439 
Q 2450 3584 2816 3584 
Q 3463 3584 3878 3070 
Q 4294 2556 4294 1747 
Q 4294 938 3878 423 
Q 3463 -91 2816 -91 
Q 2450 -91 2169 54 
Q 1888 200 1656 506 
z
M 2400 2772 
Q 2041 2772 1848 2508 
Q 1656 2244 1656 1747 
Q 1656 1250 1848 986 
Q 2041 722 2400 722 
Q 2759 722 2948 984 
Q 3138 1247 3138 1747 
Q 3138 2247 2948 2509 
Q 2759 2772 2400 2772 
z
" transform="scale(0.015625)"/>
       <path id="DejaVuSans-Bold-72" d="M 3138 2547 
Q 2991 2616 2845 2648 
Q 2700 2681 2553 2681 
Q 2122 2681 1889 2404 
Q 1656 2128 1656 1613 
L 1656 0 
L 538 0 
L 538 3500 
L 1656 3500 
L 1656 2925 
Q 1872 3269 2151 3426 
Q 2431 3584 2822 3584 
Q 2878 3584 2943 3579 
Q 3009 3575 3134 3559 
L 3138 2547 
z
" transform="scale(0.015625)"/>
       <path id="DejaVuSans-Bold-6f" d="M 2203 2784 
Q 1831 2784 1636 2517 
Q 1441 2250 1441 1747 
Q 1441 1244 1636 976 
Q 1831 709 2203 709 
Q 2569 709 2762 976 
Q 2956 1244 2956 1747 
Q 2956 2250 2762 2517 
Q 2569 2784 2203 2784 
z
M 2203 3584 
Q 3106 3584 3614 3096 
Q 4122 2609 4122 1747 
Q 4122 884 3614 396 
Q 3106 -91 2203 -91 
Q 1297 -91 786 396 
Q 275 884 275 1747 
Q 275 2609 786 3096 
Q 1297 3584 2203 3584 
z
" transform="scale(0.015625)"/>
       <path id="DejaVuSans-Bold-62" d="M 2400 722 
Q 2759 722 2948 984 
Q 3138 1247 3138 1747 
Q 3138 2247 2948 2509 
Q 2759 2772 2400 2772 
Q 2041 2772 1848 2508 
Q 1656 2244 1656 1747 
Q 1656 1250 1848 986 
Q 2041 722 2400 722 
z
M 1656 2988 
Q 1888 3294 2169 3439 
Q 2450 3584 2816 3584 
Q 3463 3584 3878 3070 
Q 4294 2556 4294 1747 
Q 4294 938 3878 423 
Q 3463 -91 2816 -91 
Q 2450 -91 2169 54 
Q 1888 200 1656 506 
L 1656 0 
L 538 0 
L 538 4863 
L 1656 4863 
L 1656 2988 
z
" transform="scale(0.015625)"/>
       <path id="DejaVuSans-Bold-61" d="M 2106 1575 
Q 1756 1575 1579 1456 
Q 1403 1338 1403 1106 
Q 1403 894 1545 773 
Q 1688 653 1941 653 
Q 2256 653 2472 879 
Q 2688 1106 2688 1447 
L 2688 1575 
L 2106 1575 
z
M 3816 1997 
L 3816 0 
L 2688 0 
L 2688 519 
Q 2463 200 2181 54 
Q 1900 -91 1497 -91 
Q 953 -91 614 226 
Q 275 544 275 1050 
Q 275 1666 698 1953 
Q 1122 2241 2028 2241 
L 2688 2241 
L 2688 2328 
Q 2688 2594 2478 2717 
Q 2269 2841 1825 2841 
Q 1466 2841 1156 2769 
Q 847 2697 581 2553 
L 581 3406 
Q 941 3494 1303 3539 
Q 1666 3584 2028 3584 
Q 2975 3584 3395 3211 
Q 3816 2838 3816 1997 
z
" transform="scale(0.015625)"/>
       <path id="DejaVuSans-Bold-69" d="M 538 3500 
L 1656 3500 
L 1656 0 
L 538 0 
L 538 3500 
z
M 538 4863 
L 1656 4863 
L 1656 3950 
L 538 3950 
L 538 4863 
z
" transform="scale(0.015625)"/>
       <path id="DejaVuSans-Bold-6c" d="M 538 4863 
L 1656 4863 
L 1656 0 
L 538 0 
L 538 4863 
z
" transform="scale(0.015625)"/>
       <path id="DejaVuSans-Bold-64" d="M 2919 2988 
L 2919 4863 
L 4044 4863 
L 4044 0 
L 2919 0 
L 2919 506 
Q 2688 197 2409 53 
Q 2131 -91 1766 -91 
Q 1119 -91 703 423 
Q 288 938 288 1747 
Q 288 2556 703 3070 
Q 1119 3584 1766 3584 
Q 2128 3584 2408 3439 
Q 2688 3294 2919 2988 
z
M 2181 722 
Q 2541 722 2730 984 
Q 2919 1247 2919 1747 
Q 2919 2247 2730 2509 
Q 2541 2772 2181 2772 
Q 1825 2772 1636 2509 
Q 1447 2247 1447 1747 
Q 1447 1247 1636 984 
Q 1825 722 2181 722 
z
" transform="scale(0.015625)"/>
      </defs>
      <use xlink:href="#DejaVuSans-Bold-70"/>
      <use xlink:href="#DejaVuSans-Bold-72" x="71.582031"/>
      <use xlink:href="#DejaVuSans-Bold-6f" x="120.898438"/>
      <use xlink:href="#DejaVuSans-Bold-62" x="189.599609"/>
      <use xlink:href="#DejaVuSans-Bold-61" x="261.181641"/>
      <use xlink:href="#DejaVuSans-Bold-62" x="328.662109"/>
      <use xlink:href="#DejaVuSans-Bold-69" x="400.244141"/>
      <use xlink:href="#DejaVuSans-Bold-6c" x="434.521484"/>
      <use xlink:href="#DejaVuSans-Bold-69" x="468.798828"/>
      <use xlink:href="#DejaVuSans-Bold-64" x="503.076172"/>
      <use xlink:href="#DejaVuSans-Bold-61" x="574.658203"/>
      <use xlink:href="#DejaVuSans-Bold-64" x="642.138672"/>
     </g>
    </g>
   </g>
   <g id="patch_3">
    <path d="M 9.908369 264.768 
L 26.034569 264.768 
L 26.034569 264.76767 
L 9.908369 264.76767 
z
" clip-path="url(#p32397b3d36)" style="fill: #2980b9; opacity: 0.55; stroke: #ffffff; stroke-width: 0.4; stroke-linejoin: miter"/>
   </g>
   <g id="patch_4">
    <path d="M 28.880369 264.768 
L 45.006569 264.768 
L 45.006569 264.761405 
L 28.880369 264.761405 
z
" clip-path="url(#p32397b3d36)" style="fill: #2980b9; opacity: 0.55; stroke: #ffffff; stroke-width: 0.4; stroke-linejoin: miter"/>
   </g>
   <g id="patch_5">
    <path d="M 47.852369 264.768 
L 63.978569 264.768 
L 63.978569 264.704248 
L 47.852369 264.704248 
z
" clip-path="url(#p32397b3d36)" style="fill: #2980b9; opacity: 0.55; stroke: #ffffff; stroke-width: 0.4; stroke-linejoin: miter"/>
   </g>
   <g id="patch_6">
    <path d="M 66.824369 264.768 
L 82.950569 264.768 
L 82.950569 264.371319 
L 66.824369 264.371319 
z
" clip-path="url(#p32397b3d36)" style="fill: #2980b9; opacity: 0.55; stroke: #ffffff; stroke-width: 0.4; stroke-linejoin: miter"/>
   </g>
   <g id="patch_7">
    <path d="M 85.796369 264.768 
L 101.922569 264.768 
L 101.922569 262.982936 
L 85.796369 262.982936 
z
" clip-path="url(#p32397b3d36)" style="fill: #2980b9; opacity: 0.55; stroke: #ffffff; stroke-width: 0.4; stroke-linejoin: miter"/>
   </g>
   <g id="patch_8">
    <path d="M 104.768369 264.768 
L 120.894569 264.768 
L 120.894569 258.579778 
L 104.768369 258.579778 
z
" clip-path="url(#p32397b3d36)" style="fill: #2980b9; opacity: 0.55; stroke: #ffffff; stroke-width: 0.4; stroke-linejoin: miter"/>
   </g>
   <g id="patch_9">
    <path d="M 123.740369 264.768 
L 139.866569 264.768 
L 139.866569 247.578495 
L 123.740369 247.578495 
z
" clip-path="url(#p32397b3d36)" style="fill: #2980b9; opacity: 0.55; stroke: #ffffff; stroke-width: 0.4; stroke-linejoin: miter"/>
   </g>
   <g id="patch_10">
    <path d="M 142.712369 264.768 
L 158.838569 264.768 
L 158.838569 225.477703 
L 142.712369 225.477703 
z
" clip-path="url(#p32397b3d36)" style="fill: #2980b9; opacity: 0.55; stroke: #ffffff; stroke-width: 0.4; stroke-linejoin: miter"/>
   </g>
   <g id="patch_11">
    <path d="M 161.684369 264.768 
L 177.810569 264.768 
L 177.810569 189.461598 
L 161.684369 189.461598 
z
" clip-path="url(#p32397b3d36)" style="fill: #2980b9; opacity: 0.55; stroke: #ffffff; stroke-width: 0.4; stroke-linejoin: miter"/>
   </g>
   <g id="patch_12">
    <path d="M 180.656369 264.768 
L 196.782569 264.768 
L 196.782569 142.046456 
L 180.656369 142.046456 
z
" clip-path="url(#p32397b3d36)" style="fill: #2980b9; opacity: 0.55; stroke: #ffffff; stroke-width: 0.4; stroke-linejoin: miter"/>
   </g>
   <g id="patch_13">
    <path d="M 199.628369 264.768 
L 215.754569 264.768 
L 215.754569 92.957839 
L 199.628369 92.957839 
z
" clip-path="url(#p32397b3d36)" style="fill: #2980b9; opacity: 0.55; stroke: #ffffff; stroke-width: 0.4; stroke-linejoin: miter"/>
   </g>
   <g id="patch_14">
    <path d="M 218.600369 264.768 
L 234.726569 264.768 
L 234.726569 56.513259 
L 218.600369 56.513259 
z
" clip-path="url(#p32397b3d36)" style="fill: #2980b9; opacity: 0.55; stroke: #ffffff; stroke-width: 0.4; stroke-linejoin: miter"/>
   </g>
   <g id="patch_15">
    <path d="M 237.572369 264.768 
L 253.698569 264.768 
L 253.698569 44.943551 
L 237.572369 44.943551 
z
" clip-path="url(#p32397b3d36)" style="fill: #2980b9; opacity: 0.55; stroke: #ffffff; stroke-width: 0.4; stroke-linejoin: miter"/>
   </g>
   <g id="patch_16">
    <path d="M 256.544369 264.768 
L 272.670569 264.768 
L 272.670569 61.853124 
L 256.544369 61.853124 
z
" clip-path="url(#p32397b3d36)" style="fill: #2980b9; opacity: 0.55; stroke: #ffffff; stroke-width: 0.4; stroke-linejoin: miter"/>
   </g>
   <g id="patch_17">
    <path d="M 275.516369 264.768 
L 291.642569 264.768 
L 291.642569 100.503577 
L 275.516369 100.503577 
z
" clip-path="url(#p32397b3d36)" style="fill: #2980b9; opacity: 0.55; stroke: #ffffff; stroke-width: 0.4; stroke-linejoin: miter"/>
   </g>
   <g id="patch_18">
    <path d="M 294.488369 264.768 
L 310.614569 264.768 
L 310.614569 147.957743 
L 294.488369 147.957743 
z
" clip-path="url(#p32397b3d36)" style="fill: #2980b9; opacity: 0.55; stroke: #ffffff; stroke-width: 0.4; stroke-linejoin: miter"/>
   </g>
   <g id="patch_19">
    <path d="M 313.460369 264.768 
L 329.586569 264.768 
L 329.586569 191.76159 
L 313.460369 191.76159 
z
" clip-path="url(#p32397b3d36)" style="fill: #2980b9; opacity: 0.55; stroke: #ffffff; stroke-width: 0.4; stroke-linejoin: miter"/>
   </g>
   <g id="patch_20">
    <path d="M 332.432369 264.768 
L 348.558569 264.768 
L 348.558569 224.686049 
L 332.432369 224.686049 
z
" clip-path="url(#p32397b3d36)" style="fill: #2980b9; opacity: 0.55; stroke: #ffffff; stroke-width: 0.4; stroke-linejoin: miter"/>
   </g>
   <g id="patch_21">
    <path d="M 351.404369 264.768 
L 367.530569 264.768 
L 367.530569 245.469283 
L 351.404369 245.469283 
z
" clip-path="url(#p32397b3d36)" style="fill: #2980b9; opacity: 0.55; stroke: #ffffff; stroke-width: 0.4; stroke-linejoin: miter"/>
   </g>
   <g id="patch_22">
    <path d="M 370.376369 264.768 
L 386.502569 264.768 
L 386.502569 256.642224 
L 370.376369 256.642224 
z
" clip-path="url(#p32397b3d36)" style="fill: #2980b9; opacity: 0.55; stroke: #ffffff; stroke-width: 0.4; stroke-linejoin: miter"/>
   </g>
   <g id="patch_23">
    <path d="M 389.348369 264.768 
L 405.474569 264.768 
L 405.474569 261.788549 
L 389.348369 261.788549 
z
" clip-path="url(#p32397b3d36)" style="fill: #2980b9; opacity: 0.55; stroke: #ffffff; stroke-width: 0.4; stroke-linejoin: miter"/>
   </g>
   <g id="patch_24">
    <path d="M 408.320369 264.768 
L 424.446569 264.768 
L 424.446569 263.822143 
L 408.320369 263.822143 
z
" clip-path="url(#p32397b3d36)" style="fill: #2980b9; opacity: 0.55; stroke: #ffffff; stroke-width: 0.4; stroke-linejoin: miter"/>
   </g>
   <g id="patch_25">
    <path d="M 427.292369 264.768 
L 443.418569 264.768 
L 443.418569 264.510039 
L 427.292369 264.510039 
z
" clip-path="url(#p32397b3d36)" style="fill: #2980b9; opacity: 0.55; stroke: #ffffff; stroke-width: 0.4; stroke-linejoin: miter"/>
   </g>
   <g id="patch_26">
    <path d="M 446.264369 264.768 
L 462.390569 264.768 
L 462.390569 264.708183 
L 446.264369 264.708183 
z
" clip-path="url(#p32397b3d36)" style="fill: #2980b9; opacity: 0.55; stroke: #ffffff; stroke-width: 0.4; stroke-linejoin: miter"/>
   </g>
   <g id="patch_27">
    <path d="M 465.236369 264.768 
L 481.362569 264.768 
L 481.362569 264.756369 
L 465.236369 264.756369 
z
" clip-path="url(#p32397b3d36)" style="fill: #2980b9; opacity: 0.55; stroke: #ffffff; stroke-width: 0.4; stroke-linejoin: miter"/>
   </g>
   <g id="patch_28">
    <path d="M 484.208369 264.768 
L 500.334569 264.768 
L 500.334569 264.766139 
L 484.208369 264.766139 
z
" clip-path="url(#p32397b3d36)" style="fill: #2980b9; opacity: 0.55; stroke: #ffffff; stroke-width: 0.4; stroke-linejoin: miter"/>
   </g>
   <g id="patch_29">
    <path d="M 503.180369 264.768 
L 519.306569 264.768 
L 519.306569 264.767761 
L 503.180369 264.767761 
z
" clip-path="url(#p32397b3d36)" style="fill: #2980b9; opacity: 0.55; stroke: #ffffff; stroke-width: 0.4; stroke-linejoin: miter"/>
   </g>
   <g id="patch_30">
    <path d="M 522.152369 264.768 
L 538.278569 264.768 
L 538.278569 264.767976 
L 522.152369 264.767976 
z
" clip-path="url(#p32397b3d36)" style="fill: #2980b9; opacity: 0.55; stroke: #ffffff; stroke-width: 0.4; stroke-linejoin: miter"/>
   </g>
   <g id="patch_31">
    <path d="M 541.124369 264.768 
L 557.250569 264.768 
L 557.250569 264.767998 
L 541.124369 264.767998 
z
" clip-path="url(#p32397b3d36)" style="fill: #2980b9; opacity: 0.55; stroke: #ffffff; stroke-width: 0.4; stroke-linejoin: miter"/>
   </g>
   <g id="patch_32">
    <path d="M 560.096369 264.768 
L 576.222569 264.768 
L 576.222569 264.768 
L 560.096369 264.768 
z
" clip-path="url(#p32397b3d36)" style="fill: #2980b9; opacity: 0.55; stroke: #ffffff; stroke-width: 0.4; stroke-linejoin: miter"/>
   </g>
   <g id="patch_33">
    <path d="M 579.068369 264.768 
L 595.194569 264.768 
L 595.194569 264.768 
L 579.068369 264.768 
z
" clip-path="url(#p32397b3d36)" style="fill: #2980b9; opacity: 0.55; stroke: #ffffff; stroke-width: 0.4; stroke-linejoin: miter"/>
   </g>
   <g id="line2d_33">
    <path d="M 17.971469 264.757932 
L 51.227896 264.616962 
L 65.480651 264.344936 
L 74.982487 263.963165 
L 82.583956 263.455032 
L 89.235242 262.789712 
L 94.936344 261.99474 
L 99.687262 261.128173 
L 104.43818 260.032255 
L 108.238914 258.958871 
L 112.039649 257.681809 
L 115.840384 256.172049 
L 119.641118 254.398587 
L 123.441853 252.328767 
L 127.242587 249.928741 
L 130.093138 247.8913 
L 132.943689 245.634203 
L 135.79424 243.143152 
L 138.644791 240.404299 
L 141.495342 237.404494 
L 144.345893 234.131543 
L 147.196444 230.574495 
L 150.046995 226.723928 
L 152.897546 222.572254 
L 155.748096 218.114027 
L 159.548831 211.688065 
L 163.349566 204.712704 
L 167.1503 197.198385 
L 170.951035 189.16644 
L 174.751769 180.649937 
L 179.502687 169.393311 
L 184.253606 157.568073 
L 190.904891 140.343541 
L 205.157646 103.105917 
L 209.908564 91.409979 
L 213.709298 82.592845 
L 217.510033 74.391409 
L 220.360584 68.717395 
L 223.211135 63.506306 
L 226.061686 58.803509 
L 228.912237 54.650668 
L 230.812604 52.206278 
L 232.712971 50.032901 
L 234.613339 48.139391 
L 236.513706 46.533512 
L 238.414073 45.221886 
L 240.31444 44.209945 
L 242.214808 43.501896 
L 244.115175 43.100689 
L 246.015542 43.008 
L 247.915909 43.224215 
L 249.816277 43.748431 
L 251.716644 44.578462 
L 253.617011 45.710851 
L 255.517379 47.140897 
L 257.417746 48.862689 
L 259.318113 50.86914 
L 261.21848 53.152044 
L 263.118848 55.702125 
L 265.969399 60.005462 
L 268.81995 64.848042 
L 271.6705 70.187151 
L 274.521051 75.976546 
L 278.321786 84.310984 
L 282.122521 93.236296 
L 286.873439 105.031771 
L 293.524724 122.295371 
L 306.827295 157.085218 
L 312.528397 171.235983 
L 317.279315 182.390003 
L 321.08005 190.812827 
L 324.880784 198.743506 
L 328.681519 206.151377 
L 332.482253 213.017364 
L 336.282988 219.333078 
L 340.083723 225.099748 
L 342.934273 229.06996 
L 345.784824 232.743381 
L 348.635375 236.128735 
L 351.485926 239.236399 
L 354.336477 242.078102 
L 357.187028 244.666646 
L 360.037579 247.015628 
L 362.88813 249.139196 
L 366.688864 251.644993 
L 370.489599 253.810281 
L 374.290334 255.669157 
L 378.091068 257.254689 
L 381.891803 258.598418 
L 385.692537 259.729987 
L 390.443455 260.887752 
L 395.194374 261.805372 
L 400.895475 262.64932 
L 406.596577 263.27174 
L 413.247863 263.786506 
L 421.799515 264.211385 
L 432.251536 264.500182 
L 447.890469 264.685103 
L 447.890469 264.685103 
" clip-path="url(#p32397b3d36)" style="fill: none; stroke: #c0392b; stroke-width: 2.6; stroke-linecap: square"/>
   </g>
   <g id="line2d_34">
    <path d="M 245.635469 264.768 
L 245.635469 31.92 
" clip-path="url(#p32397b3d36)" style="fill: none; stroke-dasharray: 5.18,2.24; stroke-dashoffset: 0; stroke: #34495e; stroke-opacity: 0.7; stroke-width: 1.4"/>
   </g>
   <g id="patch_34">
    <path d="M 55.915469 264.768 
L 55.915469 31.92 
" style="fill: none; stroke: #2c3e50; stroke-width: 1.2; stroke-linejoin: miter; stroke-linecap: square"/>
   </g>
   <g id="patch_35">
    <path d="M 55.915469 264.768 
L 435.355469 264.768 
" style="fill: none; stroke: #2c3e50; stroke-width: 1.2; stroke-linejoin: miter; stroke-linecap: square"/>
   </g>
   <g id="text_19">
    <!-- Aproximación Normal de la Binomial ($n=30,\ p=0.4$) -->
    <g transform="translate(55.900469 21.92) scale(0.13 -0.13)">
     <defs>
      <path id="DejaVuSans-Bold-41" d="M 3419 850 
L 1538 850 
L 1241 0 
L 31 0 
L 1759 4666 
L 3194 4666 
L 4922 0 
L 3713 0 
L 3419 850 
z
M 1838 1716 
L 3116 1716 
L 2478 3572 
L 1838 1716 
z
" transform="scale(0.015625)"/>
      <path id="DejaVuSans-Bold-78" d="M 1422 1791 
L 159 3500 
L 1344 3500 
L 2059 2463 
L 2784 3500 
L 3969 3500 
L 2706 1797 
L 4031 0 
L 2847 0 
L 2059 1106 
L 1281 0 
L 97 0 
L 1422 1791 
z
" transform="scale(0.015625)"/>
      <path id="DejaVuSans-Bold-6d" d="M 3781 2919 
Q 3994 3244 4286 3414 
Q 4578 3584 4928 3584 
Q 5531 3584 5847 3212 
Q 6163 2841 6163 2131 
L 6163 0 
L 5038 0 
L 5038 1825 
Q 5041 1866 5042 1909 
Q 5044 1953 5044 2034 
Q 5044 2406 4934 2573 
Q 4825 2741 4581 2741 
Q 4263 2741 4089 2478 
Q 3916 2216 3909 1719 
L 3909 0 
L 2784 0 
L 2784 1825 
Q 2784 2406 2684 2573 
Q 2584 2741 2328 2741 
Q 2006 2741 1831 2477 
Q 1656 2213 1656 1722 
L 1656 0 
L 531 0 
L 531 3500 
L 1656 3500 
L 1656 2988 
Q 1863 3284 2130 3434 
Q 2397 3584 2719 3584 
Q 3081 3584 3359 3409 
Q 3638 3234 3781 2919 
z
" transform="scale(0.015625)"/>
      <path id="DejaVuSans-Bold-63" d="M 3366 3391 
L 3366 2478 
Q 3138 2634 2908 2709 
Q 2678 2784 2431 2784 
Q 1963 2784 1702 2511 
Q 1441 2238 1441 1747 
Q 1441 1256 1702 982 
Q 1963 709 2431 709 
Q 2694 709 2930 787 
Q 3166 866 3366 1019 
L 3366 103 
Q 3103 6 2833 -42 
Q 2563 -91 2291 -91 
Q 1344 -91 809 395 
Q 275 881 275 1747 
Q 275 2613 809 3098 
Q 1344 3584 2291 3584 
Q 2566 3584 2833 3536 
Q 3100 3488 3366 3391 
z
" transform="scale(0.015625)"/>
      <path id="DejaVuSans-Bold-f3" d="M 2203 2784 
Q 1831 2784 1636 2517 
Q 1441 2250 1441 1747 
Q 1441 1244 1636 976 
Q 1831 709 2203 709 
Q 2569 709 2762 976 
Q 2956 1244 2956 1747 
Q 2956 2250 2762 2517 
Q 2569 2784 2203 2784 
z
M 2203 3584 
Q 3106 3584 3614 3096 
Q 4122 2609 4122 1747 
Q 4122 884 3614 396 
Q 3106 -91 2203 -91 
Q 1297 -91 786 396 
Q 275 884 275 1747 
Q 275 2609 786 3096 
Q 1297 3584 2203 3584 
z
M 2694 5119 
L 3578 5119 
L 2425 3944 
L 1813 3944 
L 2694 5119 
z
" transform="scale(0.015625)"/>
      <path id="DejaVuSans-Bold-6e" d="M 4056 2131 
L 4056 0 
L 2931 0 
L 2931 347 
L 2931 1631 
Q 2931 2084 2911 2256 
Q 2891 2428 2841 2509 
Q 2775 2619 2662 2680 
Q 2550 2741 2406 2741 
Q 2056 2741 1856 2470 
Q 1656 2200 1656 1722 
L 1656 0 
L 538 0 
L 538 3500 
L 1656 3500 
L 1656 2988 
Q 1909 3294 2193 3439 
Q 2478 3584 2822 3584 
Q 3428 3584 3742 3212 
Q 4056 2841 4056 2131 
z
" transform="scale(0.015625)"/>
      <path id="DejaVuSans-Bold-20" transform="scale(0.015625)"/>
      <path id="DejaVuSans-Bold-4e" d="M 588 4666 
L 1931 4666 
L 3628 1466 
L 3628 4666 
L 4769 4666 
L 4769 0 
L 3425 0 
L 1728 3200 
L 1728 0 
L 588 0 
L 588 4666 
z
" transform="scale(0.015625)"/>
      <path id="DejaVuSans-Bold-65" d="M 4031 1759 
L 4031 1441 
L 1416 1441 
Q 1456 1047 1700 850 
Q 1944 653 2381 653 
Q 2734 653 3104 758 
Q 3475 863 3866 1075 
L 3866 213 
Q 3469 63 3072 -14 
Q 2675 -91 2278 -91 
Q 1328 -91 801 392 
Q 275 875 275 1747 
Q 275 2603 792 3093 
Q 1309 3584 2216 3584 
Q 3041 3584 3536 3087 
Q 4031 2591 4031 1759 
z
M 2881 2131 
Q 2881 2450 2695 2645 
Q 2509 2841 2209 2841 
Q 1884 2841 1681 2658 
Q 1478 2475 1428 2131 
L 2881 2131 
z
" transform="scale(0.015625)"/>
      <path id="DejaVuSans-Bold-42" d="M 2456 2859 
Q 2741 2859 2887 2984 
Q 3034 3109 3034 3353 
Q 3034 3594 2887 3720 
Q 2741 3847 2456 3847 
L 1791 3847 
L 1791 2859 
L 2456 2859 
z
M 2497 819 
Q 2859 819 3042 972 
Q 3225 1125 3225 1434 
Q 3225 1738 3044 1889 
Q 2863 2041 2497 2041 
L 1791 2041 
L 1791 819 
L 2497 819 
z
M 3616 2497 
Q 4003 2384 4215 2081 
Q 4428 1778 4428 1338 
Q 4428 663 3972 331 
Q 3516 0 2584 0 
L 588 0 
L 588 4666 
L 2394 4666 
Q 3366 4666 3802 4372 
Q 4238 4078 4238 3431 
Q 4238 3091 4078 2852 
Q 3919 2613 3616 2497 
z
" transform="scale(0.015625)"/>
      <path id="DejaVuSans-Bold-28" d="M 2413 -844 
L 1484 -844 
Q 1006 -72 778 623 
Q 550 1319 550 2003 
Q 550 2688 779 3389 
Q 1009 4091 1484 4856 
L 2413 4856 
Q 2013 4116 1813 3408 
Q 1613 2700 1613 2009 
Q 1613 1319 1811 609 
Q 2009 -100 2413 -844 
z
" transform="scale(0.015625)"/>
      <path id="DejaVuSans-Oblique-6e" d="M 3566 2113 
L 3156 0 
L 2578 0 
L 2988 2091 
Q 3016 2238 3031 2350 
Q 3047 2463 3047 2528 
Q 3047 2791 2881 2937 
Q 2716 3084 2419 3084 
Q 1956 3084 1622 2776 
Q 1288 2469 1184 1941 
L 800 0 
L 225 0 
L 903 3500 
L 1478 3500 
L 1363 2950 
Q 1603 3253 1940 3418 
Q 2278 3584 2650 3584 
Q 3113 3584 3367 3334 
Q 3622 3084 3622 2631 
Q 3622 2519 3608 2391 
Q 3594 2263 3566 2113 
z
" transform="scale(0.015625)"/>
      <path id="DejaVuSans-3d" d="M 678 2906 
L 4684 2906 
L 4684 2381 
L 678 2381 
L 678 2906 
z
M 678 1631 
L 4684 1631 
L 4684 1100 
L 678 1100 
L 678 1631 
z
" transform="scale(0.015625)"/>
      <path id="DejaVuSans-33" d="M 2597 2516 
Q 3050 2419 3304 2112 
Q 3559 1806 3559 1356 
Q 3559 666 3084 287 
Q 2609 -91 1734 -91 
Q 1441 -91 1130 -33 
Q 819 25 488 141 
L 488 750 
Q 750 597 1062 519 
Q 1375 441 1716 441 
Q 2309 441 2620 675 
Q 2931 909 2931 1356 
Q 2931 1769 2642 2001 
Q 2353 2234 1838 2234 
L 1294 2234 
L 1294 2753 
L 1863 2753 
Q 2328 2753 2575 2939 
Q 2822 3125 2822 3475 
Q 2822 3834 2567 4026 
Q 2313 4219 1838 4219 
Q 1578 4219 1281 4162 
Q 984 4106 628 3988 
L 628 4550 
Q 988 4650 1302 4700 
Q 1616 4750 1894 4750 
Q 2613 4750 3031 4423 
Q 3450 4097 3450 3541 
Q 3450 3153 3228 2886 
Q 3006 2619 2597 2516 
z
" transform="scale(0.015625)"/>
      <path id="DejaVuSans-2c" d="M 750 794 
L 1409 794 
L 1409 256 
L 897 -744 
L 494 -744 
L 750 256 
L 750 794 
z
" transform="scale(0.015625)"/>
      <path id="DejaVuSans-Oblique-70" d="M 3175 2156 
Q 3175 2616 2975 2859 
Q 2775 3103 2400 3103 
Q 2144 3103 1911 2972 
Q 1678 2841 1497 2591 
Q 1319 2344 1212 1994 
Q 1106 1644 1106 1300 
Q 1106 863 1306 627 
Q 1506 391 1875 391 
Q 2147 391 2380 519 
Q 2613 647 2778 891 
Q 2956 1147 3065 1494 
Q 3175 1841 3175 2156 
z
M 1394 2969 
Q 1625 3272 1939 3428 
Q 2253 3584 2638 3584 
Q 3175 3584 3472 3232 
Q 3769 2881 3769 2247 
Q 3769 1728 3584 1258 
Q 3400 788 3053 416 
Q 2822 169 2531 39 
Q 2241 -91 1919 -91 
Q 1547 -91 1294 64 
Q 1041 219 916 525 
L 556 -1331 
L -19 -1331 
L 922 3500 
L 1497 3500 
L 1394 2969 
z
" transform="scale(0.015625)"/>
      <path id="DejaVuSans-Bold-29" d="M 513 -844 
Q 913 -100 1113 609 
Q 1313 1319 1313 2009 
Q 1313 2700 1113 3408 
Q 913 4116 513 4856 
L 1441 4856 
Q 1916 4091 2145 3389 
Q 2375 2688 2375 2003 
Q 2375 1319 2147 623 
Q 1919 -72 1441 -844 
L 513 -844 
z
" transform="scale(0.015625)"/>
     </defs>
     <use xlink:href="#DejaVuSans-Bold-41" transform="translate(0 0.015625)"/>
     <use xlink:href="#DejaVuSans-Bold-70" transform="translate(77.392578 0.015625)"/>
     <use xlink:href="#DejaVuSans-Bold-72" transform="translate(148.974609 0.015625)"/>
     <use xlink:href="#DejaVuSans-Bold-6f" transform="translate(198.291016 0.015625)"/>
     <use xlink:href="#DejaVuSans-Bold-78" transform="translate(266.992188 0.015625)"/>
     <use xlink:href="#DejaVuSans-Bold-69" transform="translate(331.494141 0.015625)"/>
     <use xlink:href="#DejaVuSans-Bold-6d" transform="translate(365.771484 0.015625)"/>
     <use xlink:href="#DejaVuSans-Bold-61" transform="translate(469.970703 0.015625)"/>
     <use xlink:href="#DejaVuSans-Bold-63" transform="translate(537.451172 0.015625)"/>
     <use xlink:href="#DejaVuSans-Bold-69" transform="translate(596.728516 0.015625)"/>
     <use xlink:href="#DejaVuSans-Bold-f3" transform="translate(631.005859 0.015625)"/>
     <use xlink:href="#DejaVuSans-Bold-6e" transform="translate(699.707031 0.015625)"/>
     <use xlink:href="#DejaVuSans-Bold-20" transform="translate(770.898438 0.015625)"/>
     <use xlink:href="#DejaVuSans-Bold-4e" transform="translate(805.712891 0.015625)"/>
     <use xlink:href="#DejaVuSans-Bold-6f" transform="translate(889.404297 0.015625)"/>
     <use xlink:href="#DejaVuSans-Bold-72" transform="translate(958.105469 0.015625)"/>
     <use xlink:href="#DejaVuSans-Bold-6d" transform="translate(1007.421875 0.015625)"/>
     <use xlink:href="#DejaVuSans-Bold-61" transform="translate(1111.621094 0.015625)"/>
     <use xlink:href="#DejaVuSans-Bold-6c" transform="translate(1179.101562 0.015625)"/>
     <use xlink:href="#DejaVuSans-Bold-20" transform="translate(1213.378906 0.015625)"/>
     <use xlink:href="#DejaVuSans-Bold-64" transform="translate(1248.193359 0.015625)"/>
     <use xlink:href="#DejaVuSans-Bold-65" transform="translate(1319.775391 0.015625)"/>
     <use xlink:href="#DejaVuSans-Bold-20" transform="translate(1387.597656 0.015625)"/>
     <use xlink:href="#DejaVuSans-Bold-6c" transform="translate(1422.412109 0.015625)"/>
     <use xlink:href="#DejaVuSans-Bold-61" transform="translate(1456.689453 0.015625)"/>
     <use xlink:href="#DejaVuSans-Bold-20" transform="translate(1524.169922 0.015625)"/>
     <use xlink:href="#DejaVuSans-Bold-42" transform="translate(1558.984375 0.015625)"/>
     <use xlink:href="#DejaVuSans-Bold-69" transform="translate(1635.205078 0.015625)"/>
     <use xlink:href="#DejaVuSans-Bold-6e" transform="translate(1669.482422 0.015625)"/>
     <use xlink:href="#DejaVuSans-Bold-6f" transform="translate(1740.673828 0.015625)"/>
     <use xlink:href="#DejaVuSans-Bold-6d" transform="translate(1809.375 0.015625)"/>
     <use xlink:href="#DejaVuSans-Bold-69" transform="translate(1913.574219 0.015625)"/>
     <use xlink:href="#DejaVuSans-Bold-61" transform="translate(1947.851562 0.015625)"/>
     <use xlink:href="#DejaVuSans-Bold-6c" transform="translate(2015.332031 0.015625)"/>
     <use xlink:href="#DejaVuSans-Bold-20" transform="translate(2049.609375 0.015625)"/>
     <use xlink:href="#DejaVuSans-Bold-28" transform="translate(2084.423828 0.015625)"/>
     <use xlink:href="#DejaVuSans-Oblique-6e" transform="translate(2130.126953 0.015625)"/>
     <use xlink:href="#DejaVuSans-3d" transform="translate(2212.988281 0.015625)"/>
     <use xlink:href="#DejaVuSans-33" transform="translate(2316.259766 0.015625)"/>
     <use xlink:href="#DejaVuSans-30" transform="translate(2379.882812 0.015625)"/>
     <use xlink:href="#DejaVuSans-2c" transform="translate(2443.505859 0.015625)"/>
     <use xlink:href="#DejaVuSans-Oblique-70" transform="translate(2527.245769 0.015625)"/>
     <use xlink:href="#DejaVuSans-3d" transform="translate(2610.204753 0.015625)"/>
     <use xlink:href="#DejaVuSans-30" transform="translate(2713.476238 0.015625)"/>
     <use xlink:href="#DejaVuSans-2e" transform="translate(2777.099285 0.015625)"/>
     <use xlink:href="#DejaVuSans-34" transform="translate(2808.886394 0.015625)"/>
     <use xlink:href="#DejaVuSans-Bold-29" transform="translate(2872.509441 0.015625)"/>
    </g>
   </g>
   <g id="legend_1">
    <g id="patch_36">
     <path d="M 310.715469 84.907734 
L 428.705469 84.907734 
Q 430.605469 84.907734 430.605469 83.007734 
L 430.605469 38.57 
Q 430.605469 36.67 428.705469 36.67 
L 310.715469 36.67 
Q 308.815469 36.67 308.815469 38.57 
L 308.815469 83.007734 
Q 308.815469 84.907734 310.715469 84.907734 
z
" style="fill: #ffffff; opacity: 0.92; stroke: #cccccc; stroke-linejoin: miter"/>
    </g>
    <g id="line2d_35">
     <path d="M 312.615469 47.88 
L 322.115469 47.88 
L 331.615469 47.88 
" style="fill: none; stroke: #c0392b; stroke-width: 2.6; stroke-linecap: square"/>
    </g>
    <g id="text_20">
     <!-- $\mathcal{N}(np,\,\sqrt{np(1-p)})$ -->
     <g transform="translate(339.215469 51.205) scale(0.095 -0.095)">
      <defs>
       <path id="STIXNonUnicode-Italic-e23a" d="M 4294 800 
L 4301 800 
Q 5293 4070 5408 4378 
Q 5472 4538 5523 4614 
Q 5830 5088 6253 5088 
Q 6490 5088 6650 4931 
Q 6810 4774 6810 4550 
Q 6810 4378 6720 4272 
Q 6630 4166 6470 4166 
Q 6368 4166 6297 4224 
Q 6227 4282 6198 4349 
Q 6170 4416 6118 4473 
Q 6067 4531 6003 4531 
Q 5939 4531 5881 4508 
Q 5824 4486 5785 4457 
Q 5747 4429 5705 4371 
Q 5664 4314 5638 4275 
Q 5613 4237 5584 4163 
Q 5555 4090 5545 4058 
Q 5536 4026 5510 3952 
Q 5485 3878 5485 3866 
L 4262 -154 
L 4134 -154 
Q 3078 1280 2483 2893 
L 2470 2893 
Q 2406 2579 2358 2361 
Q 2310 2144 2214 1792 
Q 2118 1440 2028 1190 
Q 1939 941 1804 653 
Q 1670 365 1529 185 
Q 1389 6 1203 -115 
Q 1018 -237 813 -237 
Q 576 -237 416 -80 
Q 256 77 256 301 
Q 256 474 345 579 
Q 435 685 595 685 
Q 698 685 768 627 
Q 838 570 867 502 
Q 896 435 947 377 
Q 998 320 1062 320 
Q 1222 320 1369 480 
Q 1517 640 1638 928 
Q 1760 1216 1862 1542 
Q 1965 1869 2057 2288 
Q 2150 2707 2214 3033 
Q 2278 3360 2348 3741 
Q 2419 4122 2458 4294 
L 2630 4294 
Q 2682 4166 2874 3680 
Q 3066 3194 3142 3008 
Q 3219 2822 3392 2422 
Q 3565 2022 3683 1798 
Q 3802 1574 3968 1292 
Q 4134 1011 4294 800 
z
" transform="scale(0.015625)"/>
       <path id="DejaVuSans-28" d="M 1984 4856 
Q 1566 4138 1362 3434 
Q 1159 2731 1159 2009 
Q 1159 1288 1364 580 
Q 1569 -128 1984 -844 
L 1484 -844 
Q 1016 -109 783 600 
Q 550 1309 550 2009 
Q 550 2706 781 3412 
Q 1013 4119 1484 4856 
L 1984 4856 
z
" transform="scale(0.015625)"/>
       <path id="STIXSizeOneSym-Regular-221a" d="M 6970 9933 
L 3373 -1888 
L 3104 -1888 
L 1626 2918 
Q 1555 3149 1465 3251 
Q 1376 3354 1229 3354 
Q 1011 3354 794 3181 
L 717 3309 
L 1766 4115 
L 1926 4115 
L 3379 -602 
L 3405 -602 
L 6605 9933 
L 6970 9933 
z
" transform="scale(0.015625)"/>
       <path id="DejaVuSans-2212" d="M 678 2272 
L 4684 2272 
L 4684 1741 
L 678 1741 
L 678 2272 
z
" transform="scale(0.015625)"/>
       <path id="DejaVuSans-29" d="M 513 4856 
L 1013 4856 
Q 1481 4119 1714 3412 
Q 1947 2706 1947 2009 
Q 1947 1309 1714 600 
Q 1481 -109 1013 -844 
L 513 -844 
Q 928 -128 1133 580 
Q 1338 1288 1338 2009 
Q 1338 2731 1133 3434 
Q 928 4138 513 4856 
z
" transform="scale(0.015625)"/>
      </defs>
      <use xlink:href="#STIXNonUnicode-Italic-e23a" transform="translate(0 0.34375)"/>
      <use xlink:href="#DejaVuSans-28" transform="translate(95.699982 0.34375)"/>
      <use xlink:href="#DejaVuSans-Oblique-6e" transform="translate(134.713654 0.34375)"/>
      <use xlink:href="#DejaVuSans-Oblique-70" transform="translate(198.09256 0.34375)"/>
      <use xlink:href="#DejaVuSans-2c" transform="translate(261.569122 0.34375)"/>
      <use xlink:href="#STIXSizeOneSym-Regular-221a" transform="translate(329.07433 -0.09375) scale(0.692581)"/>
      <use xlink:href="#DejaVuSans-Oblique-6e" transform="translate(414.771565 -0.125)"/>
      <use xlink:href="#DejaVuSans-Oblique-70" transform="translate(478.150471 -0.125)"/>
      <use xlink:href="#DejaVuSans-28" transform="translate(541.627034 -0.125)"/>
      <use xlink:href="#DejaVuSans-31" transform="translate(580.640706 -0.125)"/>
      <use xlink:href="#DejaVuSans-2212" transform="translate(663.746174 -0.125)"/>
      <use xlink:href="#DejaVuSans-Oblique-70" transform="translate(767.017659 -0.125)"/>
      <use xlink:href="#DejaVuSans-29" transform="translate(830.494221 -0.125)"/>
      <use xlink:href="#DejaVuSans-29" transform="translate(882.007893 0.34375)"/>
      <path d="M 402.271565 100.5 
L 402.271565 106.75 
L 882.007893 106.75 
L 882.007893 100.5 
L 402.271565 100.5 
z
"/>
     </g>
    </g>
    <g id="line2d_36">
     <path d="M 312.615469 61.843516 
L 322.115469 61.843516 
L 331.615469 61.843516 
" style="fill: none; stroke-dasharray: 5.18,2.24; stroke-dashoffset: 0; stroke: #34495e; stroke-opacity: 0.7; stroke-width: 1.4"/>
    </g>
    <g id="text_21">
     <!-- $\mu = np = 12$ -->
     <g transform="translate(339.215469 65.168516) scale(0.095 -0.095)">
      <defs>
       <path id="DejaVuSans-Oblique-3bc" d="M -84 -1331 
L 856 3500 
L 1434 3500 
L 1009 1322 
Q 997 1256 987 1175 
Q 978 1094 978 1013 
Q 978 722 1161 565 
Q 1344 409 1684 409 
Q 2147 409 2431 671 
Q 2716 934 2816 1459 
L 3213 3500 
L 3788 3500 
L 3266 809 
Q 3253 750 3248 706 
Q 3244 663 3244 628 
Q 3244 531 3283 486 
Q 3322 441 3406 441 
Q 3438 441 3492 456 
Q 3547 472 3647 513 
L 3559 50 
Q 3422 -19 3297 -55 
Q 3172 -91 3053 -91 
Q 2847 -91 2730 40 
Q 2613 172 2613 403 
Q 2438 153 2195 31 
Q 1953 -91 1625 -91 
Q 1334 -91 1117 43 
Q 900 178 831 397 
L 494 -1331 
L -84 -1331 
z
" transform="scale(0.015625)"/>
      </defs>
      <use xlink:href="#DejaVuSans-Oblique-3bc" transform="translate(0 0.78125)"/>
      <use xlink:href="#DejaVuSans-3d" transform="translate(83.105469 0.78125)"/>
      <use xlink:href="#DejaVuSans-Oblique-6e" transform="translate(186.376953 0.78125)"/>
      <use xlink:href="#DejaVuSans-Oblique-70" transform="translate(249.755859 0.78125)"/>
      <use xlink:href="#DejaVuSans-3d" transform="translate(332.714844 0.78125)"/>
      <use xlink:href="#DejaVuSans-31" transform="translate(435.986328 0.78125)"/>
      <use xlink:href="#DejaVuSans-32" transform="translate(499.609375 0.78125)"/>
     </g>
    </g>
    <g id="patch_37">
     <path d="M 312.615469 79.132031 
L 331.615469 79.132031 
L 331.615469 72.482031 
L 312.615469 72.482031 
z
" style="fill: #2980b9; opacity: 0.55; stroke: #ffffff; stroke-width: 0.4; stroke-linejoin: miter"/>
    </g>
    <g id="text_22">
     <!-- Binomial(30, 0.4) -->
     <g transform="translate(339.215469 79.132031) scale(0.095 -0.095)">
      <defs>
       <path id="DejaVuSans-42" d="M 1259 2228 
L 1259 519 
L 2272 519 
Q 2781 519 3026 730 
Q 3272 941 3272 1375 
Q 3272 1813 3026 2020 
Q 2781 2228 2272 2228 
L 1259 2228 
z
M 1259 4147 
L 1259 2741 
L 2194 2741 
Q 2656 2741 2882 2914 
Q 3109 3088 3109 3444 
Q 3109 3797 2882 3972 
Q 2656 4147 2194 4147 
L 1259 4147 
z
M 628 4666 
L 2241 4666 
Q 2963 4666 3353 4366 
Q 3744 4066 3744 3513 
Q 3744 3084 3544 2831 
Q 3344 2578 2956 2516 
Q 3422 2416 3680 2098 
Q 3938 1781 3938 1306 
Q 3938 681 3513 340 
Q 3088 0 2303 0 
L 628 0 
L 628 4666 
z
" transform="scale(0.015625)"/>
       <path id="DejaVuSans-69" d="M 603 3500 
L 1178 3500 
L 1178 0 
L 603 0 
L 603 3500 
z
M 603 4863 
L 1178 4863 
L 1178 4134 
L 603 4134 
L 603 4863 
z
" transform="scale(0.015625)"/>
       <path id="DejaVuSans-6e" d="M 3513 2113 
L 3513 0 
L 2938 0 
L 2938 2094 
Q 2938 2591 2744 2837 
Q 2550 3084 2163 3084 
Q 1697 3084 1428 2787 
Q 1159 2491 1159 1978 
L 1159 0 
L 581 0 
L 581 3500 
L 1159 3500 
L 1159 2956 
Q 1366 3272 1645 3428 
Q 1925 3584 2291 3584 
Q 2894 3584 3203 3211 
Q 3513 2838 3513 2113 
z
" transform="scale(0.015625)"/>
       <path id="DejaVuSans-6f" d="M 1959 3097 
Q 1497 3097 1228 2736 
Q 959 2375 959 1747 
Q 959 1119 1226 758 
Q 1494 397 1959 397 
Q 2419 397 2687 759 
Q 2956 1122 2956 1747 
Q 2956 2369 2687 2733 
Q 2419 3097 1959 3097 
z
M 1959 3584 
Q 2709 3584 3137 3096 
Q 3566 2609 3566 1747 
Q 3566 888 3137 398 
Q 2709 -91 1959 -91 
Q 1206 -91 779 398 
Q 353 888 353 1747 
Q 353 2609 779 3096 
Q 1206 3584 1959 3584 
z
" transform="scale(0.015625)"/>
       <path id="DejaVuSans-6d" d="M 3328 2828 
Q 3544 3216 3844 3400 
Q 4144 3584 4550 3584 
Q 5097 3584 5394 3201 
Q 5691 2819 5691 2113 
L 5691 0 
L 5113 0 
L 5113 2094 
Q 5113 2597 4934 2840 
Q 4756 3084 4391 3084 
Q 3944 3084 3684 2787 
Q 3425 2491 3425 1978 
L 3425 0 
L 2847 0 
L 2847 2094 
Q 2847 2600 2669 2842 
Q 2491 3084 2119 3084 
Q 1678 3084 1418 2786 
Q 1159 2488 1159 1978 
L 1159 0 
L 581 0 
L 581 3500 
L 1159 3500 
L 1159 2956 
Q 1356 3278 1631 3431 
Q 1906 3584 2284 3584 
Q 2666 3584 2933 3390 
Q 3200 3197 3328 2828 
z
" transform="scale(0.015625)"/>
       <path id="DejaVuSans-61" d="M 2194 1759 
Q 1497 1759 1228 1600 
Q 959 1441 959 1056 
Q 959 750 1161 570 
Q 1363 391 1709 391 
Q 2188 391 2477 730 
Q 2766 1069 2766 1631 
L 2766 1759 
L 2194 1759 
z
M 3341 1997 
L 3341 0 
L 2766 0 
L 2766 531 
Q 2569 213 2275 61 
Q 1981 -91 1556 -91 
Q 1019 -91 701 211 
Q 384 513 384 1019 
Q 384 1609 779 1909 
Q 1175 2209 1959 2209 
L 2766 2209 
L 2766 2266 
Q 2766 2663 2505 2880 
Q 2244 3097 1772 3097 
Q 1472 3097 1187 3025 
Q 903 2953 641 2809 
L 641 3341 
Q 956 3463 1253 3523 
Q 1550 3584 1831 3584 
Q 2591 3584 2966 3190 
Q 3341 2797 3341 1997 
z
" transform="scale(0.015625)"/>
       <path id="DejaVuSans-6c" d="M 603 4863 
L 1178 4863 
L 1178 0 
L 603 0 
L 603 4863 
z
" transform="scale(0.015625)"/>
       <path id="DejaVuSans-20" transform="scale(0.015625)"/>
      </defs>
      <use xlink:href="#DejaVuSans-42"/>
      <use xlink:href="#DejaVuSans-69" x="68.603516"/>
      <use xlink:href="#DejaVuSans-6e" x="96.386719"/>
      <use xlink:href="#DejaVuSans-6f" x="159.765625"/>
      <use xlink:href="#DejaVuSans-6d" x="220.947266"/>
      <use xlink:href="#DejaVuSans-69" x="318.359375"/>
      <use xlink:href="#DejaVuSans-61" x="346.142578"/>
      <use xlink:href="#DejaVuSans-6c" x="407.421875"/>
      <use xlink:href="#DejaVuSans-28" x="435.205078"/>
      <use xlink:href="#DejaVuSans-33" x="474.21875"/>
      <use xlink:href="#DejaVuSans-30" x="537.841797"/>
      <use xlink:href="#DejaVuSans-2c" x="601.464844"/>
      <use xlink:href="#DejaVuSans-20" x="633.251953"/>
      <use xlink:href="#DejaVuSans-30" x="665.039062"/>
      <use xlink:href="#DejaVuSans-2e" x="728.662109"/>
      <use xlink:href="#DejaVuSans-34" x="760.449219"/>
      <use xlink:href="#DejaVuSans-29" x="824.072266"/>
     </g>
    </g>
   </g>
  </g>
 </g>
 <defs>
  <clipPath id="p32397b3d36">
   <rect x="55.915469" y="31.92" width="379.44" height="232.848"/>
  </clipPath>
 </defs>
</svg>
