<?xml version="1.0" encoding="utf-8" standalone="no"?>
<!DOCTYPE svg PUBLIC "-//W3C//DTD SVG 1.1//EN"
  "http://www.w3.org/Graphics/SVG/1.1/DTD/svg11.dtd">
<svg xmlns:xlink="http://www.w3.org/1999/xlink" width="435.740625pt" height="302.031969pt" viewBox="0 0 435.740625 302.031969" xmlns="http://www.w3.org/2000/svg" version="1.1">
 <metadata>
  <rdf:RDF xmlns:dc="http://purl.org/dc/elements/1.1/" xmlns:cc="http://creativecommons.org/ns#" xmlns:rdf="http://www.w3.org/1999/02/22-rdf-syntax-ns#">
   <cc:Work>
    <dc:type rdf:resource="http://purl.org/dc/dcmitype/StillImage"/>
    <dc:date>2026-06-30T11:50:41.129197</dc:date>
    <dc:format>image/svg+xml</dc:format>
    <dc:creator>
     <cc:Agent>
      <dc:title>Matplotlib v3.9.2, https://matplotlib.org/</dc:title>
     </cc:Agent>
    </dc:creator>
   </cc:Work>
  </rdf:RDF>
 </metadata>
 <defs>
  <style type="text/css">*{stroke-linejoin: round; stroke-linecap: butt}</style>
 </defs>
 <g id="figure_1">
  <g id="patch_1">
   <path d="M 0 302.031969 
L 435.740625 302.031969 
L 435.740625 0 
L 0 0 
z
" style="fill: #ffffff"/>
  </g>
  <g id="axes_1">
   <g id="patch_2">
    <path d="M 55.940625 258.704 
L 424.220625 258.704 
L 424.220625 31.4 
L 55.940625 31.4 
z
" style="fill: #ffffff"/>
   </g>
   <g id="matplotlib.axis_1">
    <g id="xtick_1">
     <g id="line2d_1">
      <path d="M 66.363644 258.704 
L 66.363644 31.4 
" clip-path="url(#pd321cedfc6)" style="fill: none; stroke-dasharray: 0.8,1.28; stroke-dashoffset: 0; stroke: #b0b0b0; stroke-opacity: 0.3; stroke-width: 0.8"/>
     </g>
     <g id="line2d_2">
      <defs>
       <path id="mf1741873f9" d="M 0 0 
L 0 3.5 
" style="stroke: #2c3e50; stroke-width: 0.8"/>
      </defs>
      <g>
       <use xlink:href="#mf1741873f9" x="66.363644" y="258.704" style="fill: #2c3e50; stroke: #2c3e50; stroke-width: 0.8"/>
      </g>
     </g>
     <g id="text_1">
      <!-- 0 -->
      <g style="fill: #2c3e50" transform="translate(63.182394 273.302437) scale(0.1 -0.1)">
       <defs>
        <path id="DejaVuSans-30" d="M 2034 4250 
Q 1547 4250 1301 3770 
Q 1056 3291 1056 2328 
Q 1056 1369 1301 889 
Q 1547 409 2034 409 
Q 2525 409 2770 889 
Q 3016 1369 3016 2328 
Q 3016 3291 2770 3770 
Q 2525 4250 2034 4250 
z
M 2034 4750 
Q 2819 4750 3233 4129 
Q 3647 3509 3647 2328 
Q 3647 1150 3233 529 
Q 2819 -91 2034 -91 
Q 1250 -91 836 529 
Q 422 1150 422 2328 
Q 422 3509 836 4129 
Q 1250 4750 2034 4750 
z
" transform="scale(0.015625)"/>
       </defs>
       <use xlink:href="#DejaVuSans-30"/>
      </g>
     </g>
    </g>
    <g id="xtick_2">
     <g id="line2d_3">
      <path d="M 101.10704 258.704 
L 101.10704 31.4 
" clip-path="url(#pd321cedfc6)" style="fill: none; stroke-dasharray: 0.8,1.28; stroke-dashoffset: 0; stroke: #b0b0b0; stroke-opacity: 0.3; stroke-width: 0.8"/>
     </g>
     <g id="line2d_4">
      <g>
       <use xlink:href="#mf1741873f9" x="101.10704" y="258.704" style="fill: #2c3e50; stroke: #2c3e50; stroke-width: 0.8"/>
      </g>
     </g>
     <g id="text_2">
      <!-- 2 -->
      <g style="fill: #2c3e50" transform="translate(97.92579 273.302437) scale(0.1 -0.1)">
       <defs>
        <path id="DejaVuSans-32" d="M 1228 531 
L 3431 531 
L 3431 0 
L 469 0 
L 469 531 
Q 828 903 1448 1529 
Q 2069 2156 2228 2338 
Q 2531 2678 2651 2914 
Q 2772 3150 2772 3378 
Q 2772 3750 2511 3984 
Q 2250 4219 1831 4219 
Q 1534 4219 1204 4116 
Q 875 4013 500 3803 
L 500 4441 
Q 881 4594 1212 4672 
Q 1544 4750 1819 4750 
Q 2544 4750 2975 4387 
Q 3406 4025 3406 3419 
Q 3406 3131 3298 2873 
Q 3191 2616 2906 2266 
Q 2828 2175 2409 1742 
Q 1991 1309 1228 531 
z
" transform="scale(0.015625)"/>
       </defs>
       <use xlink:href="#DejaVuSans-32"/>
      </g>
     </g>
    </g>
    <g id="xtick_3">
     <g id="line2d_5">
      <path d="M 135.850436 258.704 
L 135.850436 31.4 
" clip-path="url(#pd321cedfc6)" style="fill: none; stroke-dasharray: 0.8,1.28; stroke-dashoffset: 0; stroke: #b0b0b0; stroke-opacity: 0.3; stroke-width: 0.8"/>
     </g>
     <g id="line2d_6">
      <g>
       <use xlink:href="#mf1741873f9" x="135.850436" y="258.704" style="fill: #2c3e50; stroke: #2c3e50; stroke-width: 0.8"/>
      </g>
     </g>
     <g id="text_3">
      <!-- 4 -->
      <g style="fill: #2c3e50" transform="translate(132.669186 273.302437) scale(0.1 -0.1)">
       <defs>
        <path id="DejaVuSans-34" d="M 2419 4116 
L 825 1625 
L 2419 1625 
L 2419 4116 
z
M 2253 4666 
L 3047 4666 
L 3047 1625 
L 3713 1625 
L 3713 1100 
L 3047 1100 
L 3047 0 
L 2419 0 
L 2419 1100 
L 313 1100 
L 313 1709 
L 2253 4666 
z
" transform="scale(0.015625)"/>
       </defs>
       <use xlink:href="#DejaVuSans-34"/>
      </g>
     </g>
    </g>
    <g id="xtick_4">
     <g id="line2d_7">
      <path d="M 170.593833 258.704 
L 170.593833 31.4 
" clip-path="url(#pd321cedfc6)" style="fill: none; stroke-dasharray: 0.8,1.28; stroke-dashoffset: 0; stroke: #b0b0b0; stroke-opacity: 0.3; stroke-width: 0.8"/>
     </g>
     <g id="line2d_8">
      <g>
       <use xlink:href="#mf1741873f9" x="170.593833" y="258.704" style="fill: #2c3e50; stroke: #2c3e50; stroke-width: 0.8"/>
      </g>
     </g>
     <g id="text_4">
      <!-- 6 -->
      <g style="fill: #2c3e50" transform="translate(167.412583 273.302437) scale(0.1 -0.1)">
       <defs>
        <path id="DejaVuSans-36" d="M 2113 2584 
Q 1688 2584 1439 2293 
Q 1191 2003 1191 1497 
Q 1191 994 1439 701 
Q 1688 409 2113 409 
Q 2538 409 2786 701 
Q 3034 994 3034 1497 
Q 3034 2003 2786 2293 
Q 2538 2584 2113 2584 
z
M 3366 4563 
L 3366 3988 
Q 3128 4100 2886 4159 
Q 2644 4219 2406 4219 
Q 1781 4219 1451 3797 
Q 1122 3375 1075 2522 
Q 1259 2794 1537 2939 
Q 1816 3084 2150 3084 
Q 2853 3084 3261 2657 
Q 3669 2231 3669 1497 
Q 3669 778 3244 343 
Q 2819 -91 2113 -91 
Q 1303 -91 875 529 
Q 447 1150 447 2328 
Q 447 3434 972 4092 
Q 1497 4750 2381 4750 
Q 2619 4750 2861 4703 
Q 3103 4656 3366 4563 
z
" transform="scale(0.015625)"/>
       </defs>
       <use xlink:href="#DejaVuSans-36"/>
      </g>
     </g>
    </g>
    <g id="xtick_5">
     <g id="line2d_9">
      <path d="M 205.337229 258.704 
L 205.337229 31.4 
" clip-path="url(#pd321cedfc6)" style="fill: none; stroke-dasharray: 0.8,1.28; stroke-dashoffset: 0; stroke: #b0b0b0; stroke-opacity: 0.3; stroke-width: 0.8"/>
     </g>
     <g id="line2d_10">
      <g>
       <use xlink:href="#mf1741873f9" x="205.337229" y="258.704" style="fill: #2c3e50; stroke: #2c3e50; stroke-width: 0.8"/>
      </g>
     </g>
     <g id="text_5">
      <!-- 8 -->
      <g style="fill: #2c3e50" transform="translate(202.155979 273.302437) scale(0.1 -0.1)">
       <defs>
        <path id="DejaVuSans-38" d="M 2034 2216 
Q 1584 2216 1326 1975 
Q 1069 1734 1069 1313 
Q 1069 891 1326 650 
Q 1584 409 2034 409 
Q 2484 409 2743 651 
Q 3003 894 3003 1313 
Q 3003 1734 2745 1975 
Q 2488 2216 2034 2216 
z
M 1403 2484 
Q 997 2584 770 2862 
Q 544 3141 544 3541 
Q 544 4100 942 4425 
Q 1341 4750 2034 4750 
Q 2731 4750 3128 4425 
Q 3525 4100 3525 3541 
Q 3525 3141 3298 2862 
Q 3072 2584 2669 2484 
Q 3125 2378 3379 2068 
Q 3634 1759 3634 1313 
Q 3634 634 3220 271 
Q 2806 -91 2034 -91 
Q 1263 -91 848 271 
Q 434 634 434 1313 
Q 434 1759 690 2068 
Q 947 2378 1403 2484 
z
M 1172 3481 
Q 1172 3119 1398 2916 
Q 1625 2713 2034 2713 
Q 2441 2713 2670 2916 
Q 2900 3119 2900 3481 
Q 2900 3844 2670 4047 
Q 2441 4250 2034 4250 
Q 1625 4250 1398 4047 
Q 1172 3844 1172 3481 
z
" transform="scale(0.015625)"/>
       </defs>
       <use xlink:href="#DejaVuSans-38"/>
      </g>
     </g>
    </g>
    <g id="xtick_6">
     <g id="line2d_11">
      <path d="M 240.080625 258.704 
L 240.080625 31.4 
" clip-path="url(#pd321cedfc6)" style="fill: none; stroke-dasharray: 0.8,1.28; stroke-dashoffset: 0; stroke: #b0b0b0; stroke-opacity: 0.3; stroke-width: 0.8"/>
     </g>
     <g id="line2d_12">
      <g>
       <use xlink:href="#mf1741873f9" x="240.080625" y="258.704" style="fill: #2c3e50; stroke: #2c3e50; stroke-width: 0.8"/>
      </g>
     </g>
     <g id="text_6">
      <!-- 10 -->
      <g style="fill: #2c3e50" transform="translate(233.718125 273.302437) scale(0.1 -0.1)">
       <defs>
        <path id="DejaVuSans-31" d="M 794 531 
L 1825 531 
L 1825 4091 
L 703 3866 
L 703 4441 
L 1819 4666 
L 2450 4666 
L 2450 531 
L 3481 531 
L 3481 0 
L 794 0 
L 794 531 
z
" transform="scale(0.015625)"/>
       </defs>
       <use xlink:href="#DejaVuSans-31"/>
       <use xlink:href="#DejaVuSans-30" x="63.623047"/>
      </g>
     </g>
    </g>
    <g id="xtick_7">
     <g id="line2d_13">
      <path d="M 274.824021 258.704 
L 274.824021 31.4 
" clip-path="url(#pd321cedfc6)" style="fill: none; stroke-dasharray: 0.8,1.28; stroke-dashoffset: 0; stroke: #b0b0b0; stroke-opacity: 0.3; stroke-width: 0.8"/>
     </g>
     <g id="line2d_14">
      <g>
       <use xlink:href="#mf1741873f9" x="274.824021" y="258.704" style="fill: #2c3e50; stroke: #2c3e50; stroke-width: 0.8"/>
      </g>
     </g>
     <g id="text_7">
      <!-- 12 -->
      <g style="fill: #2c3e50" transform="translate(268.461521 273.302437) scale(0.1 -0.1)">
       <use xlink:href="#DejaVuSans-31"/>
       <use xlink:href="#DejaVuSans-32" x="63.623047"/>
      </g>
     </g>
    </g>
    <g id="xtick_8">
     <g id="line2d_15">
      <path d="M 309.567417 258.704 
L 309.567417 31.4 
" clip-path="url(#pd321cedfc6)" style="fill: none; stroke-dasharray: 0.8,1.28; stroke-dashoffset: 0; stroke: #b0b0b0; stroke-opacity: 0.3; stroke-width: 0.8"/>
     </g>
     <g id="line2d_16">
      <g>
       <use xlink:href="#mf1741873f9" x="309.567417" y="258.704" style="fill: #2c3e50; stroke: #2c3e50; stroke-width: 0.8"/>
      </g>
     </g>
     <g id="text_8">
      <!-- 14 -->
      <g style="fill: #2c3e50" transform="translate(303.204917 273.302437) scale(0.1 -0.1)">
       <use xlink:href="#DejaVuSans-31"/>
       <use xlink:href="#DejaVuSans-34" x="63.623047"/>
      </g>
     </g>
    </g>
    <g id="xtick_9">
     <g id="line2d_17">
      <path d="M 344.310814 258.704 
L 344.310814 31.4 
" clip-path="url(#pd321cedfc6)" style="fill: none; stroke-dasharray: 0.8,1.28; stroke-dashoffset: 0; stroke: #b0b0b0; stroke-opacity: 0.3; stroke-width: 0.8"/>
     </g>
     <g id="line2d_18">
      <g>
       <use xlink:href="#mf1741873f9" x="344.310814" y="258.704" style="fill: #2c3e50; stroke: #2c3e50; stroke-width: 0.8"/>
      </g>
     </g>
     <g id="text_9">
      <!-- 16 -->
      <g style="fill: #2c3e50" transform="translate(337.948314 273.302437) scale(0.1 -0.1)">
       <use xlink:href="#DejaVuSans-31"/>
       <use xlink:href="#DejaVuSans-36" x="63.623047"/>
      </g>
     </g>
    </g>
    <g id="xtick_10">
     <g id="line2d_19">
      <path d="M 379.05421 258.704 
L 379.05421 31.4 
" clip-path="url(#pd321cedfc6)" style="fill: none; stroke-dasharray: 0.8,1.28; stroke-dashoffset: 0; stroke: #b0b0b0; stroke-opacity: 0.3; stroke-width: 0.8"/>
     </g>
     <g id="line2d_20">
      <g>
       <use xlink:href="#mf1741873f9" x="379.05421" y="258.704" style="fill: #2c3e50; stroke: #2c3e50; stroke-width: 0.8"/>
      </g>
     </g>
     <g id="text_10">
      <!-- 18 -->
      <g style="fill: #2c3e50" transform="translate(372.69171 273.302437) scale(0.1 -0.1)">
       <use xlink:href="#DejaVuSans-31"/>
       <use xlink:href="#DejaVuSans-38" x="63.623047"/>
      </g>
     </g>
    </g>
    <g id="xtick_11">
     <g id="line2d_21">
      <path d="M 413.797606 258.704 
L 413.797606 31.4 
" clip-path="url(#pd321cedfc6)" style="fill: none; stroke-dasharray: 0.8,1.28; stroke-dashoffset: 0; stroke: #b0b0b0; stroke-opacity: 0.3; stroke-width: 0.8"/>
     </g>
     <g id="line2d_22">
      <g>
       <use xlink:href="#mf1741873f9" x="413.797606" y="258.704" style="fill: #2c3e50; stroke: #2c3e50; stroke-width: 0.8"/>
      </g>
     </g>
     <g id="text_11">
      <!-- 20 -->
      <g style="fill: #2c3e50" transform="translate(407.435106 273.302437) scale(0.1 -0.1)">
       <use xlink:href="#DejaVuSans-32"/>
       <use xlink:href="#DejaVuSans-30" x="63.623047"/>
      </g>
     </g>
    </g>
    <g id="text_12">
     <!-- $k$ (éxitos) -->
     <g transform="translate(209.778125 288.120328) scale(0.115 -0.115)">
      <defs>
       <path id="DejaVuSans-Oblique-6b" d="M 1172 4863 
L 1747 4863 
L 1197 2028 
L 3169 3500 
L 3916 3500 
L 1716 1825 
L 3322 0 
L 2625 0 
L 1131 1709 
L 800 0 
L 225 0 
L 1172 4863 
z
" transform="scale(0.015625)"/>
       <path id="DejaVuSans-Bold-20" transform="scale(0.015625)"/>
       <path id="DejaVuSans-Bold-28" d="M 2413 -844 
L 1484 -844 
Q 1006 -72 778 623 
Q 550 1319 550 2003 
Q 550 2688 779 3389 
Q 1009 4091 1484 4856 
L 2413 4856 
Q 2013 4116 1813 3408 
Q 1613 2700 1613 2009 
Q 1613 1319 1811 609 
Q 2009 -100 2413 -844 
z
" transform="scale(0.015625)"/>
       <path id="DejaVuSans-Bold-e9" d="M 4031 1759 
L 4031 1441 
L 1416 1441 
Q 1456 1047 1700 850 
Q 1944 653 2381 653 
Q 2734 653 3104 758 
Q 3475 863 3866 1075 
L 3866 213 
Q 3469 63 3072 -14 
Q 2675 -91 2278 -91 
Q 1328 -91 801 392 
Q 275 875 275 1747 
Q 275 2603 792 3093 
Q 1309 3584 2216 3584 
Q 3041 3584 3536 3087 
Q 4031 2591 4031 1759 
z
M 2881 2131 
Q 2881 2450 2695 2645 
Q 2509 2841 2209 2841 
Q 1884 2841 1681 2658 
Q 1478 2475 1428 2131 
L 2881 2131 
z
M 2702 5119 
L 3586 5119 
L 2433 3944 
L 1821 3944 
L 2702 5119 
z
" transform="scale(0.015625)"/>
       <path id="DejaVuSans-Bold-78" d="M 1422 1791 
L 159 3500 
L 1344 3500 
L 2059 2463 
L 2784 3500 
L 3969 3500 
L 2706 1797 
L 4031 0 
L 2847 0 
L 2059 1106 
L 1281 0 
L 97 0 
L 1422 1791 
z
" transform="scale(0.015625)"/>
       <path id="DejaVuSans-Bold-69" d="M 538 3500 
L 1656 3500 
L 1656 0 
L 538 0 
L 538 3500 
z
M 538 4863 
L 1656 4863 
L 1656 3950 
L 538 3950 
L 538 4863 
z
" transform="scale(0.015625)"/>
       <path id="DejaVuSans-Bold-74" d="M 1759 4494 
L 1759 3500 
L 2913 3500 
L 2913 2700 
L 1759 2700 
L 1759 1216 
Q 1759 972 1856 886 
Q 1953 800 2241 800 
L 2816 800 
L 2816 0 
L 1856 0 
Q 1194 0 917 276 
Q 641 553 641 1216 
L 641 2700 
L 84 2700 
L 84 3500 
L 641 3500 
L 641 4494 
L 1759 4494 
z
" transform="scale(0.015625)"/>
       <path id="DejaVuSans-Bold-6f" d="M 2203 2784 
Q 1831 2784 1636 2517 
Q 1441 2250 1441 1747 
Q 1441 1244 1636 976 
Q 1831 709 2203 709 
Q 2569 709 2762 976 
Q 2956 1244 2956 1747 
Q 2956 2250 2762 2517 
Q 2569 2784 2203 2784 
z
M 2203 3584 
Q 3106 3584 3614 3096 
Q 4122 2609 4122 1747 
Q 4122 884 3614 396 
Q 3106 -91 2203 -91 
Q 1297 -91 786 396 
Q 275 884 275 1747 
Q 275 2609 786 3096 
Q 1297 3584 2203 3584 
z
" transform="scale(0.015625)"/>
       <path id="DejaVuSans-Bold-73" d="M 3272 3391 
L 3272 2541 
Q 2913 2691 2578 2766 
Q 2244 2841 1947 2841 
Q 1628 2841 1473 2761 
Q 1319 2681 1319 2516 
Q 1319 2381 1436 2309 
Q 1553 2238 1856 2203 
L 2053 2175 
Q 2913 2066 3209 1816 
Q 3506 1566 3506 1031 
Q 3506 472 3093 190 
Q 2681 -91 1863 -91 
Q 1516 -91 1145 -36 
Q 775 19 384 128 
L 384 978 
Q 719 816 1070 734 
Q 1422 653 1784 653 
Q 2113 653 2278 743 
Q 2444 834 2444 1013 
Q 2444 1163 2330 1236 
Q 2216 1309 1875 1350 
L 1678 1375 
Q 931 1469 631 1722 
Q 331 1975 331 2491 
Q 331 3047 712 3315 
Q 1094 3584 1881 3584 
Q 2191 3584 2531 3537 
Q 2872 3491 3272 3391 
z
" transform="scale(0.015625)"/>
       <path id="DejaVuSans-Bold-29" d="M 513 -844 
Q 913 -100 1113 609 
Q 1313 1319 1313 2009 
Q 1313 2700 1113 3408 
Q 913 4116 513 4856 
L 1441 4856 
Q 1916 4091 2145 3389 
Q 2375 2688 2375 2003 
Q 2375 1319 2147 623 
Q 1919 -72 1441 -844 
L 513 -844 
z
" transform="scale(0.015625)"/>
      </defs>
      <use xlink:href="#DejaVuSans-Oblique-6b" transform="translate(0 0.015625)"/>
      <use xlink:href="#DejaVuSans-Bold-20" transform="translate(57.910156 0.015625)"/>
      <use xlink:href="#DejaVuSans-Bold-28" transform="translate(92.724609 0.015625)"/>
      <use xlink:href="#DejaVuSans-Bold-e9" transform="translate(138.427734 0.015625)"/>
      <use xlink:href="#DejaVuSans-Bold-78" transform="translate(206.25 0.015625)"/>
      <use xlink:href="#DejaVuSans-Bold-69" transform="translate(270.751953 0.015625)"/>
      <use xlink:href="#DejaVuSans-Bold-74" transform="translate(305.029297 0.015625)"/>
      <use xlink:href="#DejaVuSans-Bold-6f" transform="translate(352.832031 0.015625)"/>
      <use xlink:href="#DejaVuSans-Bold-73" transform="translate(421.533203 0.015625)"/>
      <use xlink:href="#DejaVuSans-Bold-29" transform="translate(481.054688 0.015625)"/>
     </g>
    </g>
   </g>
   <g id="matplotlib.axis_2">
    <g id="ytick_1">
     <g id="line2d_23">
      <path d="M 55.940625 258.704 
L 424.220625 258.704 
" clip-path="url(#pd321cedfc6)" style="fill: none; stroke-dasharray: 0.8,1.28; stroke-dashoffset: 0; stroke: #b0b0b0; stroke-opacity: 0.3; stroke-width: 0.8"/>
     </g>
     <g id="line2d_24">
      <defs>
       <path id="me38328ad2d" d="M 0 0 
L -3.5 0 
" style="stroke: #2c3e50; stroke-width: 0.8"/>
      </defs>
      <g>
       <use xlink:href="#me38328ad2d" x="55.940625" y="258.704" style="fill: #2c3e50; stroke: #2c3e50; stroke-width: 0.8"/>
      </g>
     </g>
     <g id="text_13">
      <!-- 0.00 -->
      <g style="fill: #2c3e50" transform="translate(26.675 262.503219) scale(0.1 -0.1)">
       <defs>
        <path id="DejaVuSans-2e" d="M 684 794 
L 1344 794 
L 1344 0 
L 684 0 
L 684 794 
z
" transform="scale(0.015625)"/>
       </defs>
       <use xlink:href="#DejaVuSans-30"/>
       <use xlink:href="#DejaVuSans-2e" x="63.623047"/>
       <use xlink:href="#DejaVuSans-30" x="95.410156"/>
       <use xlink:href="#DejaVuSans-30" x="159.033203"/>
      </g>
     </g>
    </g>
    <g id="ytick_2">
     <g id="line2d_25">
      <path d="M 55.940625 218.138532 
L 424.220625 218.138532 
" clip-path="url(#pd321cedfc6)" style="fill: none; stroke-dasharray: 0.8,1.28; stroke-dashoffset: 0; stroke: #b0b0b0; stroke-opacity: 0.3; stroke-width: 0.8"/>
     </g>
     <g id="line2d_26">
      <g>
       <use xlink:href="#me38328ad2d" x="55.940625" y="218.138532" style="fill: #2c3e50; stroke: #2c3e50; stroke-width: 0.8"/>
      </g>
     </g>
     <g id="text_14">
      <!-- 0.05 -->
      <g style="fill: #2c3e50" transform="translate(26.675 221.937751) scale(0.1 -0.1)">
       <defs>
        <path id="DejaVuSans-35" d="M 691 4666 
L 3169 4666 
L 3169 4134 
L 1269 4134 
L 1269 2991 
Q 1406 3038 1543 3061 
Q 1681 3084 1819 3084 
Q 2600 3084 3056 2656 
Q 3513 2228 3513 1497 
Q 3513 744 3044 326 
Q 2575 -91 1722 -91 
Q 1428 -91 1123 -41 
Q 819 9 494 109 
L 494 744 
Q 775 591 1075 516 
Q 1375 441 1709 441 
Q 2250 441 2565 725 
Q 2881 1009 2881 1497 
Q 2881 1984 2565 2268 
Q 2250 2553 1709 2553 
Q 1456 2553 1204 2497 
Q 953 2441 691 2322 
L 691 4666 
z
" transform="scale(0.015625)"/>
       </defs>
       <use xlink:href="#DejaVuSans-30"/>
       <use xlink:href="#DejaVuSans-2e" x="63.623047"/>
       <use xlink:href="#DejaVuSans-30" x="95.410156"/>
       <use xlink:href="#DejaVuSans-35" x="159.033203"/>
      </g>
     </g>
    </g>
    <g id="ytick_3">
     <g id="line2d_27">
      <path d="M 55.940625 177.573064 
L 424.220625 177.573064 
" clip-path="url(#pd321cedfc6)" style="fill: none; stroke-dasharray: 0.8,1.28; stroke-dashoffset: 0; stroke: #b0b0b0; stroke-opacity: 0.3; stroke-width: 0.8"/>
     </g>
     <g id="line2d_28">
      <g>
       <use xlink:href="#me38328ad2d" x="55.940625" y="177.573064" style="fill: #2c3e50; stroke: #2c3e50; stroke-width: 0.8"/>
      </g>
     </g>
     <g id="text_15">
      <!-- 0.10 -->
      <g style="fill: #2c3e50" transform="translate(26.675 181.372282) scale(0.1 -0.1)">
       <use xlink:href="#DejaVuSans-30"/>
       <use xlink:href="#DejaVuSans-2e" x="63.623047"/>
       <use xlink:href="#DejaVuSans-31" x="95.410156"/>
       <use xlink:href="#DejaVuSans-30" x="159.033203"/>
      </g>
     </g>
    </g>
    <g id="ytick_4">
     <g id="line2d_29">
      <path d="M 55.940625 137.007595 
L 424.220625 137.007595 
" clip-path="url(#pd321cedfc6)" style="fill: none; stroke-dasharray: 0.8,1.28; stroke-dashoffset: 0; stroke: #b0b0b0; stroke-opacity: 0.3; stroke-width: 0.8"/>
     </g>
     <g id="line2d_30">
      <g>
       <use xlink:href="#me38328ad2d" x="55.940625" y="137.007595" style="fill: #2c3e50; stroke: #2c3e50; stroke-width: 0.8"/>
      </g>
     </g>
     <g id="text_16">
      <!-- 0.15 -->
      <g style="fill: #2c3e50" transform="translate(26.675 140.806814) scale(0.1 -0.1)">
       <use xlink:href="#DejaVuSans-30"/>
       <use xlink:href="#DejaVuSans-2e" x="63.623047"/>
       <use xlink:href="#DejaVuSans-31" x="95.410156"/>
       <use xlink:href="#DejaVuSans-35" x="159.033203"/>
      </g>
     </g>
    </g>
    <g id="ytick_5">
     <g id="line2d_31">
      <path d="M 55.940625 96.442127 
L 424.220625 96.442127 
" clip-path="url(#pd321cedfc6)" style="fill: none; stroke-dasharray: 0.8,1.28; stroke-dashoffset: 0; stroke: #b0b0b0; stroke-opacity: 0.3; stroke-width: 0.8"/>
     </g>
     <g id="line2d_32">
      <g>
       <use xlink:href="#me38328ad2d" x="55.940625" y="96.442127" style="fill: #2c3e50; stroke: #2c3e50; stroke-width: 0.8"/>
      </g>
     </g>
     <g id="text_17">
      <!-- 0.20 -->
      <g style="fill: #2c3e50" transform="translate(26.675 100.241346) scale(0.1 -0.1)">
       <use xlink:href="#DejaVuSans-30"/>
       <use xlink:href="#DejaVuSans-2e" x="63.623047"/>
       <use xlink:href="#DejaVuSans-32" x="95.410156"/>
       <use xlink:href="#DejaVuSans-30" x="159.033203"/>
      </g>
     </g>
    </g>
    <g id="ytick_6">
     <g id="line2d_33">
      <path d="M 55.940625 55.876659 
L 424.220625 55.876659 
" clip-path="url(#pd321cedfc6)" style="fill: none; stroke-dasharray: 0.8,1.28; stroke-dashoffset: 0; stroke: #b0b0b0; stroke-opacity: 0.3; stroke-width: 0.8"/>
     </g>
     <g id="line2d_34">
      <g>
       <use xlink:href="#me38328ad2d" x="55.940625" y="55.876659" style="fill: #2c3e50; stroke: #2c3e50; stroke-width: 0.8"/>
      </g>
     </g>
     <g id="text_18">
      <!-- 0.25 -->
      <g style="fill: #2c3e50" transform="translate(26.675 59.675878) scale(0.1 -0.1)">
       <use xlink:href="#DejaVuSans-30"/>
       <use xlink:href="#DejaVuSans-2e" x="63.623047"/>
       <use xlink:href="#DejaVuSans-32" x="95.410156"/>
       <use xlink:href="#DejaVuSans-35" x="159.033203"/>
      </g>
     </g>
    </g>
    <g id="text_19">
     <!-- $p_X(k)$ -->
     <g transform="translate(20.26 159.4845) rotate(-90) scale(0.115 -0.115)">
      <defs>
       <path id="DejaVuSans-Oblique-70" d="M 3175 2156 
Q 3175 2616 2975 2859 
Q 2775 3103 2400 3103 
Q 2144 3103 1911 2972 
Q 1678 2841 1497 2591 
Q 1319 2344 1212 1994 
Q 1106 1644 1106 1300 
Q 1106 863 1306 627 
Q 1506 391 1875 391 
Q 2147 391 2380 519 
Q 2613 647 2778 891 
Q 2956 1147 3065 1494 
Q 3175 1841 3175 2156 
z
M 1394 2969 
Q 1625 3272 1939 3428 
Q 2253 3584 2638 3584 
Q 3175 3584 3472 3232 
Q 3769 2881 3769 2247 
Q 3769 1728 3584 1258 
Q 3400 788 3053 416 
Q 2822 169 2531 39 
Q 2241 -91 1919 -91 
Q 1547 -91 1294 64 
Q 1041 219 916 525 
L 556 -1331 
L -19 -1331 
L 922 3500 
L 1497 3500 
L 1394 2969 
z
" transform="scale(0.015625)"/>
       <path id="DejaVuSans-Oblique-58" d="M 878 4666 
L 1516 4666 
L 2316 2981 
L 3763 4666 
L 4500 4666 
L 2578 2438 
L 3738 0 
L 3103 0 
L 2163 1966 
L 459 0 
L -275 0 
L 1906 2509 
L 878 4666 
z
" transform="scale(0.015625)"/>
       <path id="DejaVuSans-28" d="M 1984 4856 
Q 1566 4138 1362 3434 
Q 1159 2731 1159 2009 
Q 1159 1288 1364 580 
Q 1569 -128 1984 -844 
L 1484 -844 
Q 1016 -109 783 600 
Q 550 1309 550 2009 
Q 550 2706 781 3412 
Q 1013 4119 1484 4856 
L 1984 4856 
z
" transform="scale(0.015625)"/>
       <path id="DejaVuSans-29" d="M 513 4856 
L 1013 4856 
Q 1481 4119 1714 3412 
Q 1947 2706 1947 2009 
Q 1947 1309 1714 600 
Q 1481 -109 1013 -844 
L 513 -844 
Q 928 -128 1133 580 
Q 1338 1288 1338 2009 
Q 1338 2731 1133 3434 
Q 928 4138 513 4856 
z
" transform="scale(0.015625)"/>
      </defs>
      <use xlink:href="#DejaVuSans-Oblique-70" transform="translate(0 0.015625)"/>
      <use xlink:href="#DejaVuSans-Oblique-58" transform="translate(63.476562 -16.390625) scale(0.7)"/>
      <use xlink:href="#DejaVuSans-28" transform="translate(114.165039 0.015625)"/>
      <use xlink:href="#DejaVuSans-Oblique-6b" transform="translate(153.178711 0.015625)"/>
      <use xlink:href="#DejaVuSans-29" transform="translate(211.088867 0.015625)"/>
     </g>
    </g>
   </g>
   <g id="patch_3">
    <path d="M 55.940625 258.704 
L 55.940625 31.4 
" style="fill: none; stroke: #2c3e50; stroke-width: 1.2; stroke-linejoin: miter; stroke-linecap: square"/>
   </g>
   <g id="patch_4">
    <path d="M 55.940625 258.704 
L 424.220625 258.704 
" style="fill: none; stroke: #2c3e50; stroke-width: 1.2; stroke-linejoin: miter; stroke-linecap: square"/>
   </g>
   <g id="patch_5">
    <path d="M 60.978417 258.704 
L 64.568568 258.704 
L 64.568568 235.786519 
L 60.978417 235.786519 
z
" clip-path="url(#pd321cedfc6)" style="fill: #2980b9; opacity: 0.85; stroke: #ffffff; stroke-width: 0.4; stroke-linejoin: miter"/>
   </g>
   <g id="patch_6">
    <path d="M 78.350116 258.704 
L 81.940267 258.704 
L 81.940267 160.486222 
L 78.350116 160.486222 
z
" clip-path="url(#pd321cedfc6)" style="fill: #2980b9; opacity: 0.85; stroke: #ffffff; stroke-width: 0.4; stroke-linejoin: miter"/>
   </g>
   <g id="patch_7">
    <path d="M 95.721814 258.704 
L 99.311965 258.704 
L 99.311965 69.284 
L 95.721814 69.284 
z
" clip-path="url(#pd321cedfc6)" style="fill: #2980b9; opacity: 0.85; stroke: #ffffff; stroke-width: 0.4; stroke-linejoin: miter"/>
   </g>
   <g id="patch_8">
    <path d="M 113.093512 258.704 
L 116.683663 258.704 
L 116.683663 42.224 
L 113.093512 42.224 
z
" clip-path="url(#pd321cedfc6)" style="fill: #2980b9; opacity: 0.85; stroke: #ffffff; stroke-width: 0.4; stroke-linejoin: miter"/>
   </g>
   <g id="patch_9">
    <path d="M 130.46521 258.704 
L 134.055361 258.704 
L 134.055361 96.344 
L 130.46521 96.344 
z
" clip-path="url(#pd321cedfc6)" style="fill: #2980b9; opacity: 0.85; stroke: #ffffff; stroke-width: 0.4; stroke-linejoin: miter"/>
   </g>
   <g id="patch_10">
    <path d="M 147.836908 258.704 
L 151.427059 258.704 
L 151.427059 175.204571 
L 147.836908 175.204571 
z
" clip-path="url(#pd321cedfc6)" style="fill: #2980b9; opacity: 0.85; stroke: #ffffff; stroke-width: 0.4; stroke-linejoin: miter"/>
   </g>
   <g id="patch_11">
    <path d="M 165.208606 258.704 
L 168.798757 258.704 
L 168.798757 228.882776 
L 165.208606 228.882776 
z
" clip-path="url(#pd321cedfc6)" style="fill: #2980b9; opacity: 0.85; stroke: #ffffff; stroke-width: 0.4; stroke-linejoin: miter"/>
   </g>
   <g id="patch_12">
    <path d="M 182.580304 258.704 
L 186.170455 258.704 
L 186.170455 251.400843 
L 182.580304 251.400843 
z
" clip-path="url(#pd321cedfc6)" style="fill: #2980b9; opacity: 0.85; stroke: #ffffff; stroke-width: 0.4; stroke-linejoin: miter"/>
   </g>
   <g id="patch_13">
    <path d="M 199.952002 258.704 
L 203.542153 258.704 
L 203.542153 257.530278 
L 199.952002 257.530278 
z
" clip-path="url(#pd321cedfc6)" style="fill: #2980b9; opacity: 0.85; stroke: #ffffff; stroke-width: 0.4; stroke-linejoin: miter"/>
   </g>
   <g id="patch_14">
    <path d="M 217.3237 258.704 
L 220.913851 258.704 
L 220.913851 258.592217 
L 217.3237 258.592217 
z
" clip-path="url(#pd321cedfc6)" style="fill: #2980b9; opacity: 0.85; stroke: #ffffff; stroke-width: 0.4; stroke-linejoin: miter"/>
   </g>
   <g id="patch_15">
    <path d="M 234.695399 258.704 
L 238.28555 258.704 
L 238.28555 258.699209 
L 234.695399 258.699209 
z
" clip-path="url(#pd321cedfc6)" style="fill: #2980b9; opacity: 0.85; stroke: #ffffff; stroke-width: 0.4; stroke-linejoin: miter"/>
   </g>
   <g id="patch_16">
    <path d="M 252.067097 258.704 
L 255.657248 258.704 
L 255.657248 258.704 
L 252.067097 258.704 
z
" clip-path="url(#pd321cedfc6)" style="fill: #2980b9; opacity: 0.85; stroke: #ffffff; stroke-width: 0.4; stroke-linejoin: miter"/>
   </g>
   <g id="patch_17">
    <path d="M 269.438795 258.704 
L 273.028946 258.704 
L 273.028946 258.704 
L 269.438795 258.704 
z
" clip-path="url(#pd321cedfc6)" style="fill: #2980b9; opacity: 0.85; stroke: #ffffff; stroke-width: 0.4; stroke-linejoin: miter"/>
   </g>
   <g id="patch_18">
    <path d="M 286.810493 258.704 
L 290.400644 258.704 
L 290.400644 258.704 
L 286.810493 258.704 
z
" clip-path="url(#pd321cedfc6)" style="fill: #2980b9; opacity: 0.85; stroke: #ffffff; stroke-width: 0.4; stroke-linejoin: miter"/>
   </g>
   <g id="patch_19">
    <path d="M 304.182191 258.704 
L 307.772342 258.704 
L 307.772342 258.704 
L 304.182191 258.704 
z
" clip-path="url(#pd321cedfc6)" style="fill: #2980b9; opacity: 0.85; stroke: #ffffff; stroke-width: 0.4; stroke-linejoin: miter"/>
   </g>
   <g id="patch_20">
    <path d="M 321.553889 258.704 
L 325.14404 258.704 
L 325.14404 258.704 
L 321.553889 258.704 
z
" clip-path="url(#pd321cedfc6)" style="fill: #2980b9; opacity: 0.85; stroke: #ffffff; stroke-width: 0.4; stroke-linejoin: miter"/>
   </g>
   <g id="patch_21">
    <path d="M 338.925587 258.704 
L 342.515738 258.704 
L 342.515738 258.704 
L 338.925587 258.704 
z
" clip-path="url(#pd321cedfc6)" style="fill: #2980b9; opacity: 0.85; stroke: #ffffff; stroke-width: 0.4; stroke-linejoin: miter"/>
   </g>
   <g id="patch_22">
    <path d="M 356.297285 258.704 
L 359.887436 258.704 
L 359.887436 258.704 
L 356.297285 258.704 
z
" clip-path="url(#pd321cedfc6)" style="fill: #2980b9; opacity: 0.85; stroke: #ffffff; stroke-width: 0.4; stroke-linejoin: miter"/>
   </g>
   <g id="patch_23">
    <path d="M 373.668983 258.704 
L 377.259134 258.704 
L 377.259134 258.704 
L 373.668983 258.704 
z
" clip-path="url(#pd321cedfc6)" style="fill: #2980b9; opacity: 0.85; stroke: #ffffff; stroke-width: 0.4; stroke-linejoin: miter"/>
   </g>
   <g id="patch_24">
    <path d="M 391.040682 258.704 
L 394.630833 258.704 
L 394.630833 258.704 
L 391.040682 258.704 
z
" clip-path="url(#pd321cedfc6)" style="fill: #2980b9; opacity: 0.85; stroke: #ffffff; stroke-width: 0.4; stroke-linejoin: miter"/>
   </g>
   <g id="patch_25">
    <path d="M 408.41238 258.704 
L 412.002531 258.704 
L 412.002531 258.704 
L 408.41238 258.704 
z
" clip-path="url(#pd321cedfc6)" style="fill: #2980b9; opacity: 0.85; stroke: #ffffff; stroke-width: 0.4; stroke-linejoin: miter"/>
   </g>
   <g id="patch_26">
    <path d="M 64.568568 258.704 
L 68.158719 258.704 
L 68.158719 257.911706 
L 64.568568 257.911706 
z
" clip-path="url(#pd321cedfc6)" style="fill: #c0392b; opacity: 0.85; stroke: #ffffff; stroke-width: 0.4; stroke-linejoin: miter"/>
   </g>
   <g id="patch_27">
    <path d="M 81.940267 258.704 
L 85.530417 258.704 
L 85.530417 250.781057 
L 81.940267 250.781057 
z
" clip-path="url(#pd321cedfc6)" style="fill: #c0392b; opacity: 0.85; stroke: #ffffff; stroke-width: 0.4; stroke-linejoin: miter"/>
   </g>
   <g id="patch_28">
    <path d="M 99.311965 258.704 
L 102.902116 258.704 
L 102.902116 223.050756 
L 99.311965 223.050756 
z
" clip-path="url(#pd321cedfc6)" style="fill: #c0392b; opacity: 0.85; stroke: #ffffff; stroke-width: 0.4; stroke-linejoin: miter"/>
   </g>
   <g id="patch_29">
    <path d="M 116.683663 258.704 
L 120.273814 258.704 
L 120.273814 163.628684 
L 116.683663 163.628684 
z
" clip-path="url(#pd321cedfc6)" style="fill: #c0392b; opacity: 0.85; stroke: #ffffff; stroke-width: 0.4; stroke-linejoin: miter"/>
   </g>
   <g id="patch_30">
    <path d="M 134.055361 258.704 
L 137.645512 258.704 
L 137.645512 92.322197 
L 134.055361 92.322197 
z
" clip-path="url(#pd321cedfc6)" style="fill: #c0392b; opacity: 0.85; stroke: #ffffff; stroke-width: 0.4; stroke-linejoin: miter"/>
   </g>
   <g id="patch_31">
    <path d="M 151.427059 258.704 
L 155.01721 258.704 
L 155.01721 59.045836 
L 151.427059 59.045836 
z
" clip-path="url(#pd321cedfc6)" style="fill: #c0392b; opacity: 0.85; stroke: #ffffff; stroke-width: 0.4; stroke-linejoin: miter"/>
   </g>
   <g id="patch_32">
    <path d="M 168.798757 258.704 
L 172.388908 258.704 
L 172.388908 92.322197 
L 168.798757 92.322197 
z
" clip-path="url(#pd321cedfc6)" style="fill: #c0392b; opacity: 0.85; stroke: #ffffff; stroke-width: 0.4; stroke-linejoin: miter"/>
   </g>
   <g id="patch_33">
    <path d="M 186.170455 258.704 
L 189.760606 258.704 
L 189.760606 163.628684 
L 186.170455 163.628684 
z
" clip-path="url(#pd321cedfc6)" style="fill: #c0392b; opacity: 0.85; stroke: #ffffff; stroke-width: 0.4; stroke-linejoin: miter"/>
   </g>
   <g id="patch_34">
    <path d="M 203.542153 258.704 
L 207.132304 258.704 
L 207.132304 223.050756 
L 203.542153 223.050756 
z
" clip-path="url(#pd321cedfc6)" style="fill: #c0392b; opacity: 0.85; stroke: #ffffff; stroke-width: 0.4; stroke-linejoin: miter"/>
   </g>
   <g id="patch_35">
    <path d="M 220.913851 258.704 
L 224.504002 258.704 
L 224.504002 250.781057 
L 220.913851 250.781057 
z
" clip-path="url(#pd321cedfc6)" style="fill: #c0392b; opacity: 0.85; stroke: #ffffff; stroke-width: 0.4; stroke-linejoin: miter"/>
   </g>
   <g id="patch_36">
    <path d="M 238.28555 258.704 
L 241.8757 258.704 
L 241.8757 257.911706 
L 238.28555 257.911706 
z
" clip-path="url(#pd321cedfc6)" style="fill: #c0392b; opacity: 0.85; stroke: #ffffff; stroke-width: 0.4; stroke-linejoin: miter"/>
   </g>
   <g id="patch_37">
    <path d="M 255.657248 258.704 
L 259.247399 258.704 
L 259.247399 258.704 
L 255.657248 258.704 
z
" clip-path="url(#pd321cedfc6)" style="fill: #c0392b; opacity: 0.85; stroke: #ffffff; stroke-width: 0.4; stroke-linejoin: miter"/>
   </g>
   <g id="patch_38">
    <path d="M 273.028946 258.704 
L 276.619097 258.704 
L 276.619097 258.704 
L 273.028946 258.704 
z
" clip-path="url(#pd321cedfc6)" style="fill: #c0392b; opacity: 0.85; stroke: #ffffff; stroke-width: 0.4; stroke-linejoin: miter"/>
   </g>
   <g id="patch_39">
    <path d="M 290.400644 258.704 
L 293.990795 258.704 
L 293.990795 258.704 
L 290.400644 258.704 
z
" clip-path="url(#pd321cedfc6)" style="fill: #c0392b; opacity: 0.85; stroke: #ffffff; stroke-width: 0.4; stroke-linejoin: miter"/>
   </g>
   <g id="patch_40">
    <path d="M 307.772342 258.704 
L 311.362493 258.704 
L 311.362493 258.704 
L 307.772342 258.704 
z
" clip-path="url(#pd321cedfc6)" style="fill: #c0392b; opacity: 0.85; stroke: #ffffff; stroke-width: 0.4; stroke-linejoin: miter"/>
   </g>
   <g id="patch_41">
    <path d="M 325.14404 258.704 
L 328.734191 258.704 
L 328.734191 258.704 
L 325.14404 258.704 
z
" clip-path="url(#pd321cedfc6)" style="fill: #c0392b; opacity: 0.85; stroke: #ffffff; stroke-width: 0.4; stroke-linejoin: miter"/>
   </g>
   <g id="patch_42">
    <path d="M 342.515738 258.704 
L 346.105889 258.704 
L 346.105889 258.704 
L 342.515738 258.704 
z
" clip-path="url(#pd321cedfc6)" style="fill: #c0392b; opacity: 0.85; stroke: #ffffff; stroke-width: 0.4; stroke-linejoin: miter"/>
   </g>
   <g id="patch_43">
    <path d="M 359.887436 258.704 
L 363.477587 258.704 
L 363.477587 258.704 
L 359.887436 258.704 
z
" clip-path="url(#pd321cedfc6)" style="fill: #c0392b; opacity: 0.85; stroke: #ffffff; stroke-width: 0.4; stroke-linejoin: miter"/>
   </g>
   <g id="patch_44">
    <path d="M 377.259134 258.704 
L 380.849285 258.704 
L 380.849285 258.704 
L 377.259134 258.704 
z
" clip-path="url(#pd321cedfc6)" style="fill: #c0392b; opacity: 0.85; stroke: #ffffff; stroke-width: 0.4; stroke-linejoin: miter"/>
   </g>
   <g id="patch_45">
    <path d="M 394.630833 258.704 
L 398.220983 258.704 
L 398.220983 258.704 
L 394.630833 258.704 
z
" clip-path="url(#pd321cedfc6)" style="fill: #c0392b; opacity: 0.85; stroke: #ffffff; stroke-width: 0.4; stroke-linejoin: miter"/>
   </g>
   <g id="patch_46">
    <path d="M 412.002531 258.704 
L 415.592682 258.704 
L 415.592682 258.704 
L 412.002531 258.704 
z
" clip-path="url(#pd321cedfc6)" style="fill: #c0392b; opacity: 0.85; stroke: #ffffff; stroke-width: 0.4; stroke-linejoin: miter"/>
   </g>
   <g id="patch_47">
    <path d="M 68.158719 258.704 
L 71.74887 258.704 
L 71.74887 258.703226 
L 68.158719 258.703226 
z
" clip-path="url(#pd321cedfc6)" style="fill: #27ae60; opacity: 0.85; stroke: #ffffff; stroke-width: 0.4; stroke-linejoin: miter"/>
   </g>
   <g id="patch_48">
    <path d="M 85.530417 258.704 
L 89.120568 258.704 
L 89.120568 258.688526 
L 85.530417 258.688526 
z
" clip-path="url(#pd321cedfc6)" style="fill: #27ae60; opacity: 0.85; stroke: #ffffff; stroke-width: 0.4; stroke-linejoin: miter"/>
   </g>
   <g id="patch_49">
    <path d="M 102.902116 258.704 
L 106.492267 258.704 
L 106.492267 258.556992 
L 102.902116 258.556992 
z
" clip-path="url(#pd321cedfc6)" style="fill: #27ae60; opacity: 0.85; stroke: #ffffff; stroke-width: 0.4; stroke-linejoin: miter"/>
   </g>
   <g id="patch_50">
    <path d="M 120.273814 258.704 
L 123.863965 258.704 
L 123.863965 257.821954 
L 120.273814 257.821954 
z
" clip-path="url(#pd321cedfc6)" style="fill: #27ae60; opacity: 0.85; stroke: #ffffff; stroke-width: 0.4; stroke-linejoin: miter"/>
   </g>
   <g id="patch_51">
    <path d="M 137.645512 258.704 
L 141.235663 258.704 
L 141.235663 254.955303 
L 137.645512 254.955303 
z
" clip-path="url(#pd321cedfc6)" style="fill: #27ae60; opacity: 0.85; stroke: #ffffff; stroke-width: 0.4; stroke-linejoin: miter"/>
   </g>
   <g id="patch_52">
    <path d="M 155.01721 258.704 
L 158.607361 258.704 
L 158.607361 246.708169 
L 155.01721 246.708169 
z
" clip-path="url(#pd321cedfc6)" style="fill: #27ae60; opacity: 0.85; stroke: #ffffff; stroke-width: 0.4; stroke-linejoin: miter"/>
   </g>
   <g id="patch_53">
    <path d="M 172.388908 258.704 
L 175.979059 258.704 
L 175.979059 228.714423 
L 172.388908 228.714423 
z
" clip-path="url(#pd321cedfc6)" style="fill: #27ae60; opacity: 0.85; stroke: #ffffff; stroke-width: 0.4; stroke-linejoin: miter"/>
   </g>
   <g id="patch_54">
    <path d="M 189.760606 258.704 
L 193.350757 258.704 
L 193.350757 198.724845 
L 189.760606 198.724845 
z
" clip-path="url(#pd321cedfc6)" style="fill: #27ae60; opacity: 0.85; stroke: #ffffff; stroke-width: 0.4; stroke-linejoin: miter"/>
   </g>
   <g id="patch_55">
    <path d="M 207.132304 258.704 
L 210.722455 258.704 
L 210.722455 161.237874 
L 207.132304 161.237874 
z
" clip-path="url(#pd321cedfc6)" style="fill: #27ae60; opacity: 0.85; stroke: #ffffff; stroke-width: 0.4; stroke-linejoin: miter"/>
   </g>
   <g id="patch_56">
    <path d="M 224.504002 258.704 
L 228.094153 258.704 
L 228.094153 128.749165 
L 224.504002 128.749165 
z
" clip-path="url(#pd321cedfc6)" style="fill: #27ae60; opacity: 0.85; stroke: #ffffff; stroke-width: 0.4; stroke-linejoin: miter"/>
   </g>
   <g id="patch_57">
    <path d="M 241.8757 258.704 
L 245.465851 258.704 
L 245.465851 115.753682 
L 241.8757 115.753682 
z
" clip-path="url(#pd321cedfc6)" style="fill: #27ae60; opacity: 0.85; stroke: #ffffff; stroke-width: 0.4; stroke-linejoin: miter"/>
   </g>
   <g id="patch_58">
    <path d="M 259.247399 258.704 
L 262.83755 258.704 
L 262.83755 128.749165 
L 259.247399 128.749165 
z
" clip-path="url(#pd321cedfc6)" style="fill: #27ae60; opacity: 0.85; stroke: #ffffff; stroke-width: 0.4; stroke-linejoin: miter"/>
   </g>
   <g id="patch_59">
    <path d="M 276.619097 258.704 
L 280.209248 258.704 
L 280.209248 161.237874 
L 276.619097 161.237874 
z
" clip-path="url(#pd321cedfc6)" style="fill: #27ae60; opacity: 0.85; stroke: #ffffff; stroke-width: 0.4; stroke-linejoin: miter"/>
   </g>
   <g id="patch_60">
    <path d="M 293.990795 258.704 
L 297.580946 258.704 
L 297.580946 198.724845 
L 293.990795 198.724845 
z
" clip-path="url(#pd321cedfc6)" style="fill: #27ae60; opacity: 0.85; stroke: #ffffff; stroke-width: 0.4; stroke-linejoin: miter"/>
   </g>
   <g id="patch_61">
    <path d="M 311.362493 258.704 
L 314.952644 258.704 
L 314.952644 228.714423 
L 311.362493 228.714423 
z
" clip-path="url(#pd321cedfc6)" style="fill: #27ae60; opacity: 0.85; stroke: #ffffff; stroke-width: 0.4; stroke-linejoin: miter"/>
   </g>
   <g id="patch_62">
    <path d="M 328.734191 258.704 
L 332.324342 258.704 
L 332.324342 246.708169 
L 328.734191 246.708169 
z
" clip-path="url(#pd321cedfc6)" style="fill: #27ae60; opacity: 0.85; stroke: #ffffff; stroke-width: 0.4; stroke-linejoin: miter"/>
   </g>
   <g id="patch_63">
    <path d="M 346.105889 258.704 
L 349.69604 258.704 
L 349.69604 254.955303 
L 346.105889 254.955303 
z
" clip-path="url(#pd321cedfc6)" style="fill: #27ae60; opacity: 0.85; stroke: #ffffff; stroke-width: 0.4; stroke-linejoin: miter"/>
   </g>
   <g id="patch_64">
    <path d="M 363.477587 258.704 
L 367.067738 258.704 
L 367.067738 257.821954 
L 363.477587 257.821954 
z
" clip-path="url(#pd321cedfc6)" style="fill: #27ae60; opacity: 0.85; stroke: #ffffff; stroke-width: 0.4; stroke-linejoin: miter"/>
   </g>
   <g id="patch_65">
    <path d="M 380.849285 258.704 
L 384.439436 258.704 
L 384.439436 258.556992 
L 380.849285 258.556992 
z
" clip-path="url(#pd321cedfc6)" style="fill: #27ae60; opacity: 0.85; stroke: #ffffff; stroke-width: 0.4; stroke-linejoin: miter"/>
   </g>
   <g id="patch_66">
    <path d="M 398.220983 258.704 
L 401.811134 258.704 
L 401.811134 258.688526 
L 398.220983 258.688526 
z
" clip-path="url(#pd321cedfc6)" style="fill: #27ae60; opacity: 0.85; stroke: #ffffff; stroke-width: 0.4; stroke-linejoin: miter"/>
   </g>
   <g id="patch_67">
    <path d="M 415.592682 258.704 
L 419.182833 258.704 
L 419.182833 258.703226 
L 415.592682 258.703226 
z
" clip-path="url(#pd321cedfc6)" style="fill: #27ae60; opacity: 0.85; stroke: #ffffff; stroke-width: 0.4; stroke-linejoin: miter"/>
   </g>
   <g id="text_20">
    <!-- PMF Binomial — efecto de $n$ y $p$ -->
    <g transform="translate(125.550625 21.4) scale(0.13 -0.13)">
     <defs>
      <path id="DejaVuSans-Bold-50" d="M 588 4666 
L 2584 4666 
Q 3475 4666 3951 4270 
Q 4428 3875 4428 3144 
Q 4428 2409 3951 2014 
Q 3475 1619 2584 1619 
L 1791 1619 
L 1791 0 
L 588 0 
L 588 4666 
z
M 1791 3794 
L 1791 2491 
L 2456 2491 
Q 2806 2491 2997 2661 
Q 3188 2831 3188 3144 
Q 3188 3456 2997 3625 
Q 2806 3794 2456 3794 
L 1791 3794 
z
" transform="scale(0.015625)"/>
      <path id="DejaVuSans-Bold-4d" d="M 588 4666 
L 2119 4666 
L 3181 2169 
L 4250 4666 
L 5778 4666 
L 5778 0 
L 4641 0 
L 4641 3413 
L 3566 897 
L 2803 897 
L 1728 3413 
L 1728 0 
L 588 0 
L 588 4666 
z
" transform="scale(0.015625)"/>
      <path id="DejaVuSans-Bold-46" d="M 588 4666 
L 3834 4666 
L 3834 3756 
L 1791 3756 
L 1791 2888 
L 3713 2888 
L 3713 1978 
L 1791 1978 
L 1791 0 
L 588 0 
L 588 4666 
z
" transform="scale(0.015625)"/>
      <path id="DejaVuSans-Bold-42" d="M 2456 2859 
Q 2741 2859 2887 2984 
Q 3034 3109 3034 3353 
Q 3034 3594 2887 3720 
Q 2741 3847 2456 3847 
L 1791 3847 
L 1791 2859 
L 2456 2859 
z
M 2497 819 
Q 2859 819 3042 972 
Q 3225 1125 3225 1434 
Q 3225 1738 3044 1889 
Q 2863 2041 2497 2041 
L 1791 2041 
L 1791 819 
L 2497 819 
z
M 3616 2497 
Q 4003 2384 4215 2081 
Q 4428 1778 4428 1338 
Q 4428 663 3972 331 
Q 3516 0 2584 0 
L 588 0 
L 588 4666 
L 2394 4666 
Q 3366 4666 3802 4372 
Q 4238 4078 4238 3431 
Q 4238 3091 4078 2852 
Q 3919 2613 3616 2497 
z
" transform="scale(0.015625)"/>
      <path id="DejaVuSans-Bold-6e" d="M 4056 2131 
L 4056 0 
L 2931 0 
L 2931 347 
L 2931 1631 
Q 2931 2084 2911 2256 
Q 2891 2428 2841 2509 
Q 2775 2619 2662 2680 
Q 2550 2741 2406 2741 
Q 2056 2741 1856 2470 
Q 1656 2200 1656 1722 
L 1656 0 
L 538 0 
L 538 3500 
L 1656 3500 
L 1656 2988 
Q 1909 3294 2193 3439 
Q 2478 3584 2822 3584 
Q 3428 3584 3742 3212 
Q 4056 2841 4056 2131 
z
" transform="scale(0.015625)"/>
      <path id="DejaVuSans-Bold-6d" d="M 3781 2919 
Q 3994 3244 4286 3414 
Q 4578 3584 4928 3584 
Q 5531 3584 5847 3212 
Q 6163 2841 6163 2131 
L 6163 0 
L 5038 0 
L 5038 1825 
Q 5041 1866 5042 1909 
Q 5044 1953 5044 2034 
Q 5044 2406 4934 2573 
Q 4825 2741 4581 2741 
Q 4263 2741 4089 2478 
Q 3916 2216 3909 1719 
L 3909 0 
L 2784 0 
L 2784 1825 
Q 2784 2406 2684 2573 
Q 2584 2741 2328 2741 
Q 2006 2741 1831 2477 
Q 1656 2213 1656 1722 
L 1656 0 
L 531 0 
L 531 3500 
L 1656 3500 
L 1656 2988 
Q 1863 3284 2130 3434 
Q 2397 3584 2719 3584 
Q 3081 3584 3359 3409 
Q 3638 3234 3781 2919 
z
" transform="scale(0.015625)"/>
      <path id="DejaVuSans-Bold-61" d="M 2106 1575 
Q 1756 1575 1579 1456 
Q 1403 1338 1403 1106 
Q 1403 894 1545 773 
Q 1688 653 1941 653 
Q 2256 653 2472 879 
Q 2688 1106 2688 1447 
L 2688 1575 
L 2106 1575 
z
M 3816 1997 
L 3816 0 
L 2688 0 
L 2688 519 
Q 2463 200 2181 54 
Q 1900 -91 1497 -91 
Q 953 -91 614 226 
Q 275 544 275 1050 
Q 275 1666 698 1953 
Q 1122 2241 2028 2241 
L 2688 2241 
L 2688 2328 
Q 2688 2594 2478 2717 
Q 2269 2841 1825 2841 
Q 1466 2841 1156 2769 
Q 847 2697 581 2553 
L 581 3406 
Q 941 3494 1303 3539 
Q 1666 3584 2028 3584 
Q 2975 3584 3395 3211 
Q 3816 2838 3816 1997 
z
" transform="scale(0.015625)"/>
      <path id="DejaVuSans-Bold-6c" d="M 538 4863 
L 1656 4863 
L 1656 0 
L 538 0 
L 538 4863 
z
" transform="scale(0.015625)"/>
      <path id="DejaVuSansDisplay-2014" d="M 313 1978 
L 6088 1978 
L 6088 1528 
L 313 1528 
L 313 1978 
z
" transform="scale(0.015625)"/>
      <path id="DejaVuSans-Bold-65" d="M 4031 1759 
L 4031 1441 
L 1416 1441 
Q 1456 1047 1700 850 
Q 1944 653 2381 653 
Q 2734 653 3104 758 
Q 3475 863 3866 1075 
L 3866 213 
Q 3469 63 3072 -14 
Q 2675 -91 2278 -91 
Q 1328 -91 801 392 
Q 275 875 275 1747 
Q 275 2603 792 3093 
Q 1309 3584 2216 3584 
Q 3041 3584 3536 3087 
Q 4031 2591 4031 1759 
z
M 2881 2131 
Q 2881 2450 2695 2645 
Q 2509 2841 2209 2841 
Q 1884 2841 1681 2658 
Q 1478 2475 1428 2131 
L 2881 2131 
z
" transform="scale(0.015625)"/>
      <path id="DejaVuSans-Bold-66" d="M 2841 4863 
L 2841 4128 
L 2222 4128 
Q 1984 4128 1890 4042 
Q 1797 3956 1797 3744 
L 1797 3500 
L 2753 3500 
L 2753 2700 
L 1797 2700 
L 1797 0 
L 678 0 
L 678 2700 
L 122 2700 
L 122 3500 
L 678 3500 
L 678 3744 
Q 678 4316 997 4589 
Q 1316 4863 1984 4863 
L 2841 4863 
z
" transform="scale(0.015625)"/>
      <path id="DejaVuSans-Bold-63" d="M 3366 3391 
L 3366 2478 
Q 3138 2634 2908 2709 
Q 2678 2784 2431 2784 
Q 1963 2784 1702 2511 
Q 1441 2238 1441 1747 
Q 1441 1256 1702 982 
Q 1963 709 2431 709 
Q 2694 709 2930 787 
Q 3166 866 3366 1019 
L 3366 103 
Q 3103 6 2833 -42 
Q 2563 -91 2291 -91 
Q 1344 -91 809 395 
Q 275 881 275 1747 
Q 275 2613 809 3098 
Q 1344 3584 2291 3584 
Q 2566 3584 2833 3536 
Q 3100 3488 3366 3391 
z
" transform="scale(0.015625)"/>
      <path id="DejaVuSans-Bold-64" d="M 2919 2988 
L 2919 4863 
L 4044 4863 
L 4044 0 
L 2919 0 
L 2919 506 
Q 2688 197 2409 53 
Q 2131 -91 1766 -91 
Q 1119 -91 703 423 
Q 288 938 288 1747 
Q 288 2556 703 3070 
Q 1119 3584 1766 3584 
Q 2128 3584 2408 3439 
Q 2688 3294 2919 2988 
z
M 2181 722 
Q 2541 722 2730 984 
Q 2919 1247 2919 1747 
Q 2919 2247 2730 2509 
Q 2541 2772 2181 2772 
Q 1825 2772 1636 2509 
Q 1447 2247 1447 1747 
Q 1447 1247 1636 984 
Q 1825 722 2181 722 
z
" transform="scale(0.015625)"/>
      <path id="DejaVuSans-Oblique-6e" d="M 3566 2113 
L 3156 0 
L 2578 0 
L 2988 2091 
Q 3016 2238 3031 2350 
Q 3047 2463 3047 2528 
Q 3047 2791 2881 2937 
Q 2716 3084 2419 3084 
Q 1956 3084 1622 2776 
Q 1288 2469 1184 1941 
L 800 0 
L 225 0 
L 903 3500 
L 1478 3500 
L 1363 2950 
Q 1603 3253 1940 3418 
Q 2278 3584 2650 3584 
Q 3113 3584 3367 3334 
Q 3622 3084 3622 2631 
Q 3622 2519 3608 2391 
Q 3594 2263 3566 2113 
z
" transform="scale(0.015625)"/>
      <path id="DejaVuSans-Bold-79" d="M 78 3500 
L 1197 3500 
L 2138 1125 
L 2938 3500 
L 4056 3500 
L 2584 -331 
Q 2363 -916 2067 -1148 
Q 1772 -1381 1288 -1381 
L 641 -1381 
L 641 -647 
L 991 -647 
Q 1275 -647 1404 -556 
Q 1534 -466 1606 -231 
L 1638 -134 
L 78 3500 
z
" transform="scale(0.015625)"/>
     </defs>
     <use xlink:href="#DejaVuSans-Bold-50" transform="translate(0 0.015625)"/>
     <use xlink:href="#DejaVuSans-Bold-4d" transform="translate(73.291016 0.015625)"/>
     <use xlink:href="#DejaVuSans-Bold-46" transform="translate(172.802734 0.015625)"/>
     <use xlink:href="#DejaVuSans-Bold-20" transform="translate(241.113281 0.015625)"/>
     <use xlink:href="#DejaVuSans-Bold-42" transform="translate(275.927734 0.015625)"/>
     <use xlink:href="#DejaVuSans-Bold-69" transform="translate(352.148438 0.015625)"/>
     <use xlink:href="#DejaVuSans-Bold-6e" transform="translate(386.425781 0.015625)"/>
     <use xlink:href="#DejaVuSans-Bold-6f" transform="translate(457.617188 0.015625)"/>
     <use xlink:href="#DejaVuSans-Bold-6d" transform="translate(526.318359 0.015625)"/>
     <use xlink:href="#DejaVuSans-Bold-69" transform="translate(630.517578 0.015625)"/>
     <use xlink:href="#DejaVuSans-Bold-61" transform="translate(664.794922 0.015625)"/>
     <use xlink:href="#DejaVuSans-Bold-6c" transform="translate(732.275391 0.015625)"/>
     <use xlink:href="#DejaVuSans-Bold-20" transform="translate(766.552734 0.015625)"/>
     <use xlink:href="#DejaVuSansDisplay-2014" transform="translate(801.367188 0.015625)"/>
     <use xlink:href="#DejaVuSans-Bold-20" transform="translate(901.367188 0.015625)"/>
     <use xlink:href="#DejaVuSans-Bold-65" transform="translate(936.181641 0.015625)"/>
     <use xlink:href="#DejaVuSans-Bold-66" transform="translate(1004.003906 0.015625)"/>
     <use xlink:href="#DejaVuSans-Bold-65" transform="translate(1047.509766 0.015625)"/>
     <use xlink:href="#DejaVuSans-Bold-63" transform="translate(1115.332031 0.015625)"/>
     <use xlink:href="#DejaVuSans-Bold-74" transform="translate(1174.609375 0.015625)"/>
     <use xlink:href="#DejaVuSans-Bold-6f" transform="translate(1222.412109 0.015625)"/>
     <use xlink:href="#DejaVuSans-Bold-20" transform="translate(1291.113281 0.015625)"/>
     <use xlink:href="#DejaVuSans-Bold-64" transform="translate(1325.927734 0.015625)"/>
     <use xlink:href="#DejaVuSans-Bold-65" transform="translate(1397.509766 0.015625)"/>
     <use xlink:href="#DejaVuSans-Bold-20" transform="translate(1465.332031 0.015625)"/>
     <use xlink:href="#DejaVuSans-Oblique-6e" transform="translate(1500.146484 0.015625)"/>
     <use xlink:href="#DejaVuSans-Bold-20" transform="translate(1563.525391 0.015625)"/>
     <use xlink:href="#DejaVuSans-Bold-79" transform="translate(1598.339844 0.015625)"/>
     <use xlink:href="#DejaVuSans-Bold-20" transform="translate(1663.525391 0.015625)"/>
     <use xlink:href="#DejaVuSans-Oblique-70" transform="translate(1698.339844 0.015625)"/>
    </g>
   </g>
   <g id="legend_1">
    <g id="patch_68">
     <path d="M 316.585625 80.890547 
L 417.570625 80.890547 
Q 419.470625 80.890547 419.470625 78.990547 
L 419.470625 38.05 
Q 419.470625 36.15 417.570625 36.15 
L 316.585625 36.15 
Q 314.685625 36.15 314.685625 38.05 
L 314.685625 78.990547 
Q 314.685625 80.890547 316.585625 80.890547 
z
" style="fill: #ffffff; opacity: 0.92; stroke: #cccccc; stroke-linejoin: miter"/>
    </g>
    <g id="patch_69">
     <path d="M 318.485625 47.168516 
L 337.485625 47.168516 
L 337.485625 40.518516 
L 318.485625 40.518516 
z
" style="fill: #2980b9; opacity: 0.85; stroke: #ffffff; stroke-width: 0.4; stroke-linejoin: miter"/>
    </g>
    <g id="text_21">
     <!-- $n=10,\ p=0{,}3$ -->
     <g transform="translate(345.085625 47.168516) scale(0.095 -0.095)">
      <defs>
       <path id="DejaVuSans-3d" d="M 678 2906 
L 4684 2906 
L 4684 2381 
L 678 2381 
L 678 2906 
z
M 678 1631 
L 4684 1631 
L 4684 1100 
L 678 1100 
L 678 1631 
z
" transform="scale(0.015625)"/>
       <path id="DejaVuSans-2c" d="M 750 794 
L 1409 794 
L 1409 256 
L 897 -744 
L 494 -744 
L 750 256 
L 750 794 
z
" transform="scale(0.015625)"/>
       <path id="DejaVuSans-33" d="M 2597 2516 
Q 3050 2419 3304 2112 
Q 3559 1806 3559 1356 
Q 3559 666 3084 287 
Q 2609 -91 1734 -91 
Q 1441 -91 1130 -33 
Q 819 25 488 141 
L 488 750 
Q 750 597 1062 519 
Q 1375 441 1716 441 
Q 2309 441 2620 675 
Q 2931 909 2931 1356 
Q 2931 1769 2642 2001 
Q 2353 2234 1838 2234 
L 1294 2234 
L 1294 2753 
L 1863 2753 
Q 2328 2753 2575 2939 
Q 2822 3125 2822 3475 
Q 2822 3834 2567 4026 
Q 2313 4219 1838 4219 
Q 1578 4219 1281 4162 
Q 984 4106 628 3988 
L 628 4550 
Q 988 4650 1302 4700 
Q 1616 4750 1894 4750 
Q 2613 4750 3031 4423 
Q 3450 4097 3450 3541 
Q 3450 3153 3228 2886 
Q 3006 2619 2597 2516 
z
" transform="scale(0.015625)"/>
      </defs>
      <use xlink:href="#DejaVuSans-Oblique-6e" transform="translate(0 0.78125)"/>
      <use xlink:href="#DejaVuSans-3d" transform="translate(82.861328 0.78125)"/>
      <use xlink:href="#DejaVuSans-31" transform="translate(186.132812 0.78125)"/>
      <use xlink:href="#DejaVuSans-30" transform="translate(249.755859 0.78125)"/>
      <use xlink:href="#DejaVuSans-2c" transform="translate(313.378906 0.78125)"/>
      <use xlink:href="#DejaVuSans-Oblique-70" transform="translate(397.118816 0.78125)"/>
      <use xlink:href="#DejaVuSans-3d" transform="translate(480.0778 0.78125)"/>
      <use xlink:href="#DejaVuSans-30" transform="translate(583.349285 0.78125)"/>
      <use xlink:href="#DejaVuSans-2c" transform="translate(646.972332 0.78125)"/>
      <use xlink:href="#DejaVuSans-33" transform="translate(678.759441 0.78125)"/>
     </g>
    </g>
    <g id="patch_70">
     <path d="M 318.485625 61.132031 
L 337.485625 61.132031 
L 337.485625 54.482031 
L 318.485625 54.482031 
z
" style="fill: #c0392b; opacity: 0.85; stroke: #ffffff; stroke-width: 0.4; stroke-linejoin: miter"/>
    </g>
    <g id="text_22">
     <!-- $n=10,\ p=0{,}5$ -->
     <g transform="translate(345.085625 61.132031) scale(0.095 -0.095)">
      <use xlink:href="#DejaVuSans-Oblique-6e" transform="translate(0 0.78125)"/>
      <use xlink:href="#DejaVuSans-3d" transform="translate(82.861328 0.78125)"/>
      <use xlink:href="#DejaVuSans-31" transform="translate(186.132812 0.78125)"/>
      <use xlink:href="#DejaVuSans-30" transform="translate(249.755859 0.78125)"/>
      <use xlink:href="#DejaVuSans-2c" transform="translate(313.378906 0.78125)"/>
      <use xlink:href="#DejaVuSans-Oblique-70" transform="translate(397.118816 0.78125)"/>
      <use xlink:href="#DejaVuSans-3d" transform="translate(480.0778 0.78125)"/>
      <use xlink:href="#DejaVuSans-30" transform="translate(583.349285 0.78125)"/>
      <use xlink:href="#DejaVuSans-2c" transform="translate(646.972332 0.78125)"/>
      <use xlink:href="#DejaVuSans-35" transform="translate(678.759441 0.78125)"/>
     </g>
    </g>
    <g id="patch_71">
     <path d="M 318.485625 75.095547 
L 337.485625 75.095547 
L 337.485625 68.445547 
L 318.485625 68.445547 
z
" style="fill: #27ae60; opacity: 0.85; stroke: #ffffff; stroke-width: 0.4; stroke-linejoin: miter"/>
    </g>
    <g id="text_23">
     <!-- $n=20,\ p=0{,}5$ -->
     <g transform="translate(345.085625 75.095547) scale(0.095 -0.095)">
      <use xlink:href="#DejaVuSans-Oblique-6e" transform="translate(0 0.78125)"/>
      <use xlink:href="#DejaVuSans-3d" transform="translate(82.861328 0.78125)"/>
      <use xlink:href="#DejaVuSans-32" transform="translate(186.132812 0.78125)"/>
      <use xlink:href="#DejaVuSans-30" transform="translate(249.755859 0.78125)"/>
      <use xlink:href="#DejaVuSans-2c" transform="translate(313.378906 0.78125)"/>
      <use xlink:href="#DejaVuSans-Oblique-70" transform="translate(397.118816 0.78125)"/>
      <use xlink:href="#DejaVuSans-3d" transform="translate(480.0778 0.78125)"/>
      <use xlink:href="#DejaVuSans-30" transform="translate(583.349285 0.78125)"/>
      <use xlink:href="#DejaVuSans-2c" transform="translate(646.972332 0.78125)"/>
      <use xlink:href="#DejaVuSans-35" transform="translate(678.759441 0.78125)"/>
     </g>
    </g>
   </g>
  </g>
 </g>
 <defs>
  <clipPath id="pd321cedfc6">
   <rect x="55.940625" y="31.4" width="368.28" height="227.304"/>
  </clipPath>
 </defs>
</svg>
