<?xml version="1.0" encoding="utf-8" standalone="no"?>
<!DOCTYPE svg PUBLIC "-//W3C//DTD SVG 1.1//EN"
  "http://www.w3.org/Graphics/SVG/1.1/DTD/svg11.dtd">
<svg xmlns:xlink="http://www.w3.org/1999/xlink" width="488.738281pt" height="313.119969pt" viewBox="0 0 488.738281 313.119969" xmlns="http://www.w3.org/2000/svg" version="1.1">
 <metadata>
  <rdf:RDF xmlns:dc="http://purl.org/dc/elements/1.1/" xmlns:cc="http://creativecommons.org/ns#" xmlns:rdf="http://www.w3.org/1999/02/22-rdf-syntax-ns#">
   <cc:Work>
    <dc:type rdf:resource="http://purl.org/dc/dcmitype/StillImage"/>
    <dc:date>2026-06-30T11:57:15.178031</dc:date>
    <dc:format>image/svg+xml</dc:format>
    <dc:creator>
     <cc:Agent>
      <dc:title>Matplotlib v3.9.2, https://matplotlib.org/</dc:title>
     </cc:Agent>
    </dc:creator>
   </cc:Work>
  </rdf:RDF>
 </metadata>
 <defs>
  <style type="text/css">*{stroke-linejoin: round; stroke-linecap: butt}</style>
 </defs>
 <g id="figure_1">
  <g id="patch_1">
   <path d="M 0 313.119969 
L 488.738281 313.119969 
L 488.738281 0 
L 0 0 
z
" style="fill: #ffffff"/>
  </g>
  <g id="axes_1">
   <g id="patch_2">
    <path d="M 54.754531 269.792 
L 467.674531 269.792 
L 467.674531 31.4 
L 54.754531 31.4 
z
" style="fill: #ffffff"/>
   </g>
   <g id="matplotlib.axis_1">
    <g id="xtick_1">
     <g id="line2d_1">
      <path d="M 54.754531 269.792 
L 54.754531 31.4 
" clip-path="url(#p037738c464)" style="fill: none; stroke-dasharray: 0.8,1.28; stroke-dashoffset: 0; stroke: #b0b0b0; stroke-opacity: 0.3; stroke-width: 0.8"/>
     </g>
     <g id="line2d_2">
      <defs>
       <path id="m4baf57e250" d="M 0 0 
L 0 3.5 
" style="stroke: #2c3e50; stroke-width: 0.8"/>
      </defs>
      <g>
       <use xlink:href="#m4baf57e250" x="54.754531" y="269.792" style="fill: #2c3e50; stroke: #2c3e50; stroke-width: 0.8"/>
      </g>
     </g>
     <g id="text_1">
      <!-- 0 -->
      <g style="fill: #2c3e50" transform="translate(51.573281 284.390438) scale(0.1 -0.1)">
       <defs>
        <path id="DejaVuSans-30" d="M 2034 4250 
Q 1547 4250 1301 3770 
Q 1056 3291 1056 2328 
Q 1056 1369 1301 889 
Q 1547 409 2034 409 
Q 2525 409 2770 889 
Q 3016 1369 3016 2328 
Q 3016 3291 2770 3770 
Q 2525 4250 2034 4250 
z
M 2034 4750 
Q 2819 4750 3233 4129 
Q 3647 3509 3647 2328 
Q 3647 1150 3233 529 
Q 2819 -91 2034 -91 
Q 1250 -91 836 529 
Q 422 1150 422 2328 
Q 422 3509 836 4129 
Q 1250 4750 2034 4750 
z
" transform="scale(0.015625)"/>
       </defs>
       <use xlink:href="#DejaVuSans-30"/>
      </g>
     </g>
    </g>
    <g id="xtick_2">
     <g id="line2d_3">
      <path d="M 137.338531 269.792 
L 137.338531 31.4 
" clip-path="url(#p037738c464)" style="fill: none; stroke-dasharray: 0.8,1.28; stroke-dashoffset: 0; stroke: #b0b0b0; stroke-opacity: 0.3; stroke-width: 0.8"/>
     </g>
     <g id="line2d_4">
      <g>
       <use xlink:href="#m4baf57e250" x="137.338531" y="269.792" style="fill: #2c3e50; stroke: #2c3e50; stroke-width: 0.8"/>
      </g>
     </g>
     <g id="text_2">
      <!-- 20 -->
      <g style="fill: #2c3e50" transform="translate(130.976031 284.390438) scale(0.1 -0.1)">
       <defs>
        <path id="DejaVuSans-32" d="M 1228 531 
L 3431 531 
L 3431 0 
L 469 0 
L 469 531 
Q 828 903 1448 1529 
Q 2069 2156 2228 2338 
Q 2531 2678 2651 2914 
Q 2772 3150 2772 3378 
Q 2772 3750 2511 3984 
Q 2250 4219 1831 4219 
Q 1534 4219 1204 4116 
Q 875 4013 500 3803 
L 500 4441 
Q 881 4594 1212 4672 
Q 1544 4750 1819 4750 
Q 2544 4750 2975 4387 
Q 3406 4025 3406 3419 
Q 3406 3131 3298 2873 
Q 3191 2616 2906 2266 
Q 2828 2175 2409 1742 
Q 1991 1309 1228 531 
z
" transform="scale(0.015625)"/>
       </defs>
       <use xlink:href="#DejaVuSans-32"/>
       <use xlink:href="#DejaVuSans-30" x="63.623047"/>
      </g>
     </g>
    </g>
    <g id="xtick_3">
     <g id="line2d_5">
      <path d="M 219.922531 269.792 
L 219.922531 31.4 
" clip-path="url(#p037738c464)" style="fill: none; stroke-dasharray: 0.8,1.28; stroke-dashoffset: 0; stroke: #b0b0b0; stroke-opacity: 0.3; stroke-width: 0.8"/>
     </g>
     <g id="line2d_6">
      <g>
       <use xlink:href="#m4baf57e250" x="219.922531" y="269.792" style="fill: #2c3e50; stroke: #2c3e50; stroke-width: 0.8"/>
      </g>
     </g>
     <g id="text_3">
      <!-- 40 -->
      <g style="fill: #2c3e50" transform="translate(213.560031 284.390438) scale(0.1 -0.1)">
       <defs>
        <path id="DejaVuSans-34" d="M 2419 4116 
L 825 1625 
L 2419 1625 
L 2419 4116 
z
M 2253 4666 
L 3047 4666 
L 3047 1625 
L 3713 1625 
L 3713 1100 
L 3047 1100 
L 3047 0 
L 2419 0 
L 2419 1100 
L 313 1100 
L 313 1709 
L 2253 4666 
z
" transform="scale(0.015625)"/>
       </defs>
       <use xlink:href="#DejaVuSans-34"/>
       <use xlink:href="#DejaVuSans-30" x="63.623047"/>
      </g>
     </g>
    </g>
    <g id="xtick_4">
     <g id="line2d_7">
      <path d="M 302.506531 269.792 
L 302.506531 31.4 
" clip-path="url(#p037738c464)" style="fill: none; stroke-dasharray: 0.8,1.28; stroke-dashoffset: 0; stroke: #b0b0b0; stroke-opacity: 0.3; stroke-width: 0.8"/>
     </g>
     <g id="line2d_8">
      <g>
       <use xlink:href="#m4baf57e250" x="302.506531" y="269.792" style="fill: #2c3e50; stroke: #2c3e50; stroke-width: 0.8"/>
      </g>
     </g>
     <g id="text_4">
      <!-- 60 -->
      <g style="fill: #2c3e50" transform="translate(296.144031 284.390438) scale(0.1 -0.1)">
       <defs>
        <path id="DejaVuSans-36" d="M 2113 2584 
Q 1688 2584 1439 2293 
Q 1191 2003 1191 1497 
Q 1191 994 1439 701 
Q 1688 409 2113 409 
Q 2538 409 2786 701 
Q 3034 994 3034 1497 
Q 3034 2003 2786 2293 
Q 2538 2584 2113 2584 
z
M 3366 4563 
L 3366 3988 
Q 3128 4100 2886 4159 
Q 2644 4219 2406 4219 
Q 1781 4219 1451 3797 
Q 1122 3375 1075 2522 
Q 1259 2794 1537 2939 
Q 1816 3084 2150 3084 
Q 2853 3084 3261 2657 
Q 3669 2231 3669 1497 
Q 3669 778 3244 343 
Q 2819 -91 2113 -91 
Q 1303 -91 875 529 
Q 447 1150 447 2328 
Q 447 3434 972 4092 
Q 1497 4750 2381 4750 
Q 2619 4750 2861 4703 
Q 3103 4656 3366 4563 
z
" transform="scale(0.015625)"/>
       </defs>
       <use xlink:href="#DejaVuSans-36"/>
       <use xlink:href="#DejaVuSans-30" x="63.623047"/>
      </g>
     </g>
    </g>
    <g id="xtick_5">
     <g id="line2d_9">
      <path d="M 385.090531 269.792 
L 385.090531 31.4 
" clip-path="url(#p037738c464)" style="fill: none; stroke-dasharray: 0.8,1.28; stroke-dashoffset: 0; stroke: #b0b0b0; stroke-opacity: 0.3; stroke-width: 0.8"/>
     </g>
     <g id="line2d_10">
      <g>
       <use xlink:href="#m4baf57e250" x="385.090531" y="269.792" style="fill: #2c3e50; stroke: #2c3e50; stroke-width: 0.8"/>
      </g>
     </g>
     <g id="text_5">
      <!-- 80 -->
      <g style="fill: #2c3e50" transform="translate(378.728031 284.390438) scale(0.1 -0.1)">
       <defs>
        <path id="DejaVuSans-38" d="M 2034 2216 
Q 1584 2216 1326 1975 
Q 1069 1734 1069 1313 
Q 1069 891 1326 650 
Q 1584 409 2034 409 
Q 2484 409 2743 651 
Q 3003 894 3003 1313 
Q 3003 1734 2745 1975 
Q 2488 2216 2034 2216 
z
M 1403 2484 
Q 997 2584 770 2862 
Q 544 3141 544 3541 
Q 544 4100 942 4425 
Q 1341 4750 2034 4750 
Q 2731 4750 3128 4425 
Q 3525 4100 3525 3541 
Q 3525 3141 3298 2862 
Q 3072 2584 2669 2484 
Q 3125 2378 3379 2068 
Q 3634 1759 3634 1313 
Q 3634 634 3220 271 
Q 2806 -91 2034 -91 
Q 1263 -91 848 271 
Q 434 634 434 1313 
Q 434 1759 690 2068 
Q 947 2378 1403 2484 
z
M 1172 3481 
Q 1172 3119 1398 2916 
Q 1625 2713 2034 2713 
Q 2441 2713 2670 2916 
Q 2900 3119 2900 3481 
Q 2900 3844 2670 4047 
Q 2441 4250 2034 4250 
Q 1625 4250 1398 4047 
Q 1172 3844 1172 3481 
z
" transform="scale(0.015625)"/>
       </defs>
       <use xlink:href="#DejaVuSans-38"/>
       <use xlink:href="#DejaVuSans-30" x="63.623047"/>
      </g>
     </g>
    </g>
    <g id="xtick_6">
     <g id="line2d_11">
      <path d="M 467.674531 269.792 
L 467.674531 31.4 
" clip-path="url(#p037738c464)" style="fill: none; stroke-dasharray: 0.8,1.28; stroke-dashoffset: 0; stroke: #b0b0b0; stroke-opacity: 0.3; stroke-width: 0.8"/>
     </g>
     <g id="line2d_12">
      <g>
       <use xlink:href="#m4baf57e250" x="467.674531" y="269.792" style="fill: #2c3e50; stroke: #2c3e50; stroke-width: 0.8"/>
      </g>
     </g>
     <g id="text_6">
      <!-- 100 -->
      <g style="fill: #2c3e50" transform="translate(458.130781 284.390438) scale(0.1 -0.1)">
       <defs>
        <path id="DejaVuSans-31" d="M 794 531 
L 1825 531 
L 1825 4091 
L 703 3866 
L 703 4441 
L 1819 4666 
L 2450 4666 
L 2450 531 
L 3481 531 
L 3481 0 
L 794 0 
L 794 531 
z
" transform="scale(0.015625)"/>
       </defs>
       <use xlink:href="#DejaVuSans-31"/>
       <use xlink:href="#DejaVuSans-30" x="63.623047"/>
       <use xlink:href="#DejaVuSans-30" x="127.246094"/>
      </g>
     </g>
    </g>
    <g id="text_7">
     <!-- paso $n$ -->
     <g transform="translate(240.169531 299.184969) scale(0.115 -0.115)">
      <defs>
       <path id="DejaVuSans-Bold-70" d="M 1656 506 
L 1656 -1331 
L 538 -1331 
L 538 3500 
L 1656 3500 
L 1656 2988 
Q 1888 3294 2169 3439 
Q 2450 3584 2816 3584 
Q 3463 3584 3878 3070 
Q 4294 2556 4294 1747 
Q 4294 938 3878 423 
Q 3463 -91 2816 -91 
Q 2450 -91 2169 54 
Q 1888 200 1656 506 
z
M 2400 2772 
Q 2041 2772 1848 2508 
Q 1656 2244 1656 1747 
Q 1656 1250 1848 986 
Q 2041 722 2400 722 
Q 2759 722 2948 984 
Q 3138 1247 3138 1747 
Q 3138 2247 2948 2509 
Q 2759 2772 2400 2772 
z
" transform="scale(0.015625)"/>
       <path id="DejaVuSans-Bold-61" d="M 2106 1575 
Q 1756 1575 1579 1456 
Q 1403 1338 1403 1106 
Q 1403 894 1545 773 
Q 1688 653 1941 653 
Q 2256 653 2472 879 
Q 2688 1106 2688 1447 
L 2688 1575 
L 2106 1575 
z
M 3816 1997 
L 3816 0 
L 2688 0 
L 2688 519 
Q 2463 200 2181 54 
Q 1900 -91 1497 -91 
Q 953 -91 614 226 
Q 275 544 275 1050 
Q 275 1666 698 1953 
Q 1122 2241 2028 2241 
L 2688 2241 
L 2688 2328 
Q 2688 2594 2478 2717 
Q 2269 2841 1825 2841 
Q 1466 2841 1156 2769 
Q 847 2697 581 2553 
L 581 3406 
Q 941 3494 1303 3539 
Q 1666 3584 2028 3584 
Q 2975 3584 3395 3211 
Q 3816 2838 3816 1997 
z
" transform="scale(0.015625)"/>
       <path id="DejaVuSans-Bold-73" d="M 3272 3391 
L 3272 2541 
Q 2913 2691 2578 2766 
Q 2244 2841 1947 2841 
Q 1628 2841 1473 2761 
Q 1319 2681 1319 2516 
Q 1319 2381 1436 2309 
Q 1553 2238 1856 2203 
L 2053 2175 
Q 2913 2066 3209 1816 
Q 3506 1566 3506 1031 
Q 3506 472 3093 190 
Q 2681 -91 1863 -91 
Q 1516 -91 1145 -36 
Q 775 19 384 128 
L 384 978 
Q 719 816 1070 734 
Q 1422 653 1784 653 
Q 2113 653 2278 743 
Q 2444 834 2444 1013 
Q 2444 1163 2330 1236 
Q 2216 1309 1875 1350 
L 1678 1375 
Q 931 1469 631 1722 
Q 331 1975 331 2491 
Q 331 3047 712 3315 
Q 1094 3584 1881 3584 
Q 2191 3584 2531 3537 
Q 2872 3491 3272 3391 
z
" transform="scale(0.015625)"/>
       <path id="DejaVuSans-Bold-6f" d="M 2203 2784 
Q 1831 2784 1636 2517 
Q 1441 2250 1441 1747 
Q 1441 1244 1636 976 
Q 1831 709 2203 709 
Q 2569 709 2762 976 
Q 2956 1244 2956 1747 
Q 2956 2250 2762 2517 
Q 2569 2784 2203 2784 
z
M 2203 3584 
Q 3106 3584 3614 3096 
Q 4122 2609 4122 1747 
Q 4122 884 3614 396 
Q 3106 -91 2203 -91 
Q 1297 -91 786 396 
Q 275 884 275 1747 
Q 275 2609 786 3096 
Q 1297 3584 2203 3584 
z
" transform="scale(0.015625)"/>
       <path id="DejaVuSans-Bold-20" transform="scale(0.015625)"/>
       <path id="DejaVuSans-Oblique-6e" d="M 3566 2113 
L 3156 0 
L 2578 0 
L 2988 2091 
Q 3016 2238 3031 2350 
Q 3047 2463 3047 2528 
Q 3047 2791 2881 2937 
Q 2716 3084 2419 3084 
Q 1956 3084 1622 2776 
Q 1288 2469 1184 1941 
L 800 0 
L 225 0 
L 903 3500 
L 1478 3500 
L 1363 2950 
Q 1603 3253 1940 3418 
Q 2278 3584 2650 3584 
Q 3113 3584 3367 3334 
Q 3622 3084 3622 2631 
Q 3622 2519 3608 2391 
Q 3594 2263 3566 2113 
z
" transform="scale(0.015625)"/>
      </defs>
      <use xlink:href="#DejaVuSans-Bold-70"/>
      <use xlink:href="#DejaVuSans-Bold-61" transform="translate(71.582031 0)"/>
      <use xlink:href="#DejaVuSans-Bold-73" transform="translate(139.0625 0)"/>
      <use xlink:href="#DejaVuSans-Bold-6f" transform="translate(198.583984 0)"/>
      <use xlink:href="#DejaVuSans-Bold-20" transform="translate(267.285156 0)"/>
      <use xlink:href="#DejaVuSans-Oblique-6e" transform="translate(302.099609 0)"/>
     </g>
    </g>
   </g>
   <g id="matplotlib.axis_2">
    <g id="ytick_1">
     <g id="line2d_13">
      <path d="M 54.754531 239.254182 
L 467.674531 239.254182 
" clip-path="url(#p037738c464)" style="fill: none; stroke-dasharray: 0.8,1.28; stroke-dashoffset: 0; stroke: #b0b0b0; stroke-opacity: 0.3; stroke-width: 0.8"/>
     </g>
     <g id="line2d_14">
      <defs>
       <path id="mef0f415a22" d="M 0 0 
L -3.5 0 
" style="stroke: #2c3e50; stroke-width: 0.8"/>
      </defs>
      <g>
       <use xlink:href="#mef0f415a22" x="54.754531" y="239.254182" style="fill: #2c3e50; stroke: #2c3e50; stroke-width: 0.8"/>
      </g>
     </g>
     <g id="text_8">
      <!-- −15 -->
      <g style="fill: #2c3e50" transform="translate(26.649844 243.053401) scale(0.1 -0.1)">
       <defs>
        <path id="DejaVuSans-2212" d="M 678 2272 
L 4684 2272 
L 4684 1741 
L 678 1741 
L 678 2272 
z
" transform="scale(0.015625)"/>
        <path id="DejaVuSans-35" d="M 691 4666 
L 3169 4666 
L 3169 4134 
L 1269 4134 
L 1269 2991 
Q 1406 3038 1543 3061 
Q 1681 3084 1819 3084 
Q 2600 3084 3056 2656 
Q 3513 2228 3513 1497 
Q 3513 744 3044 326 
Q 2575 -91 1722 -91 
Q 1428 -91 1123 -41 
Q 819 9 494 109 
L 494 744 
Q 775 591 1075 516 
Q 1375 441 1709 441 
Q 2250 441 2565 725 
Q 2881 1009 2881 1497 
Q 2881 1984 2565 2268 
Q 2250 2553 1709 2553 
Q 1456 2553 1204 2497 
Q 953 2441 691 2322 
L 691 4666 
z
" transform="scale(0.015625)"/>
       </defs>
       <use xlink:href="#DejaVuSans-2212"/>
       <use xlink:href="#DejaVuSans-31" x="83.789062"/>
       <use xlink:href="#DejaVuSans-35" x="147.412109"/>
      </g>
     </g>
    </g>
    <g id="ytick_2">
     <g id="line2d_15">
      <path d="M 54.754531 206.417818 
L 467.674531 206.417818 
" clip-path="url(#p037738c464)" style="fill: none; stroke-dasharray: 0.8,1.28; stroke-dashoffset: 0; stroke: #b0b0b0; stroke-opacity: 0.3; stroke-width: 0.8"/>
     </g>
     <g id="line2d_16">
      <g>
       <use xlink:href="#mef0f415a22" x="54.754531" y="206.417818" style="fill: #2c3e50; stroke: #2c3e50; stroke-width: 0.8"/>
      </g>
     </g>
     <g id="text_9">
      <!-- −10 -->
      <g style="fill: #2c3e50" transform="translate(26.649844 210.217037) scale(0.1 -0.1)">
       <use xlink:href="#DejaVuSans-2212"/>
       <use xlink:href="#DejaVuSans-31" x="83.789062"/>
       <use xlink:href="#DejaVuSans-30" x="147.412109"/>
      </g>
     </g>
    </g>
    <g id="ytick_3">
     <g id="line2d_17">
      <path d="M 54.754531 173.581455 
L 467.674531 173.581455 
" clip-path="url(#p037738c464)" style="fill: none; stroke-dasharray: 0.8,1.28; stroke-dashoffset: 0; stroke: #b0b0b0; stroke-opacity: 0.3; stroke-width: 0.8"/>
     </g>
     <g id="line2d_18">
      <g>
       <use xlink:href="#mef0f415a22" x="54.754531" y="173.581455" style="fill: #2c3e50; stroke: #2c3e50; stroke-width: 0.8"/>
      </g>
     </g>
     <g id="text_10">
      <!-- −5 -->
      <g style="fill: #2c3e50" transform="translate(33.012344 177.380673) scale(0.1 -0.1)">
       <use xlink:href="#DejaVuSans-2212"/>
       <use xlink:href="#DejaVuSans-35" x="83.789062"/>
      </g>
     </g>
    </g>
    <g id="ytick_4">
     <g id="line2d_19">
      <path d="M 54.754531 140.745091 
L 467.674531 140.745091 
" clip-path="url(#p037738c464)" style="fill: none; stroke-dasharray: 0.8,1.28; stroke-dashoffset: 0; stroke: #b0b0b0; stroke-opacity: 0.3; stroke-width: 0.8"/>
     </g>
     <g id="line2d_20">
      <g>
       <use xlink:href="#mef0f415a22" x="54.754531" y="140.745091" style="fill: #2c3e50; stroke: #2c3e50; stroke-width: 0.8"/>
      </g>
     </g>
     <g id="text_11">
      <!-- 0 -->
      <g style="fill: #2c3e50" transform="translate(41.392031 144.54431) scale(0.1 -0.1)">
       <use xlink:href="#DejaVuSans-30"/>
      </g>
     </g>
    </g>
    <g id="ytick_5">
     <g id="line2d_21">
      <path d="M 54.754531 107.908727 
L 467.674531 107.908727 
" clip-path="url(#p037738c464)" style="fill: none; stroke-dasharray: 0.8,1.28; stroke-dashoffset: 0; stroke: #b0b0b0; stroke-opacity: 0.3; stroke-width: 0.8"/>
     </g>
     <g id="line2d_22">
      <g>
       <use xlink:href="#mef0f415a22" x="54.754531" y="107.908727" style="fill: #2c3e50; stroke: #2c3e50; stroke-width: 0.8"/>
      </g>
     </g>
     <g id="text_12">
      <!-- 5 -->
      <g style="fill: #2c3e50" transform="translate(41.392031 111.707946) scale(0.1 -0.1)">
       <use xlink:href="#DejaVuSans-35"/>
      </g>
     </g>
    </g>
    <g id="ytick_6">
     <g id="line2d_23">
      <path d="M 54.754531 75.072364 
L 467.674531 75.072364 
" clip-path="url(#p037738c464)" style="fill: none; stroke-dasharray: 0.8,1.28; stroke-dashoffset: 0; stroke: #b0b0b0; stroke-opacity: 0.3; stroke-width: 0.8"/>
     </g>
     <g id="line2d_24">
      <g>
       <use xlink:href="#mef0f415a22" x="54.754531" y="75.072364" style="fill: #2c3e50; stroke: #2c3e50; stroke-width: 0.8"/>
      </g>
     </g>
     <g id="text_13">
      <!-- 10 -->
      <g style="fill: #2c3e50" transform="translate(35.029531 78.871582) scale(0.1 -0.1)">
       <use xlink:href="#DejaVuSans-31"/>
       <use xlink:href="#DejaVuSans-30" x="63.623047"/>
      </g>
     </g>
    </g>
    <g id="ytick_7">
     <g id="line2d_25">
      <path d="M 54.754531 42.236 
L 467.674531 42.236 
" clip-path="url(#p037738c464)" style="fill: none; stroke-dasharray: 0.8,1.28; stroke-dashoffset: 0; stroke: #b0b0b0; stroke-opacity: 0.3; stroke-width: 0.8"/>
     </g>
     <g id="line2d_26">
      <g>
       <use xlink:href="#mef0f415a22" x="54.754531" y="42.236" style="fill: #2c3e50; stroke: #2c3e50; stroke-width: 0.8"/>
      </g>
     </g>
     <g id="text_14">
      <!-- 15 -->
      <g style="fill: #2c3e50" transform="translate(35.029531 46.035219) scale(0.1 -0.1)">
       <use xlink:href="#DejaVuSans-31"/>
       <use xlink:href="#DejaVuSans-35" x="63.623047"/>
      </g>
     </g>
    </g>
    <g id="text_15">
     <!-- $S_n$ -->
     <g transform="translate(20.258203 156.9785) rotate(-90) scale(0.115 -0.115)">
      <defs>
       <path id="DejaVuSans-Oblique-53" d="M 3859 4513 
L 3738 3897 
Q 3422 4066 3111 4152 
Q 2800 4238 2509 4238 
Q 1944 4238 1609 3991 
Q 1275 3744 1275 3334 
Q 1275 3109 1398 2989 
Q 1522 2869 2034 2731 
L 2413 2638 
Q 3053 2472 3303 2217 
Q 3553 1963 3553 1503 
Q 3553 797 2998 353 
Q 2444 -91 1538 -91 
Q 1166 -91 791 -17 
Q 416 56 38 206 
L 166 856 
Q 513 641 861 531 
Q 1209 422 1556 422 
Q 2147 422 2503 684 
Q 2859 947 2859 1369 
Q 2859 1650 2717 1795 
Q 2575 1941 2106 2059 
L 1728 2156 
Q 1081 2325 845 2545 
Q 609 2766 609 3163 
Q 609 3859 1145 4304 
Q 1681 4750 2541 4750 
Q 2875 4750 3203 4690 
Q 3531 4631 3859 4513 
z
" transform="scale(0.015625)"/>
      </defs>
      <use xlink:href="#DejaVuSans-Oblique-53" transform="translate(0 0.78125)"/>
      <use xlink:href="#DejaVuSans-Oblique-6e" transform="translate(63.476562 -15.625) scale(0.7)"/>
     </g>
    </g>
   </g>
   <g id="line2d_27">
    <path d="M 54.754531 140.745091 
L 58.883731 140.745091 
L 58.883731 147.312364 
L 63.012931 147.312364 
L 63.012931 140.745091 
L 67.142131 140.745091 
L 67.142131 147.312364 
L 71.271331 147.312364 
L 71.271331 140.745091 
L 75.400531 140.745091 
L 75.400531 147.312364 
L 79.529731 147.312364 
L 79.529731 153.879636 
L 83.658931 153.879636 
L 83.658931 160.446909 
L 87.788131 160.446909 
L 87.788131 167.014182 
L 91.917331 167.014182 
L 91.917331 160.446909 
L 96.046531 160.446909 
L 96.046531 167.014182 
L 100.175731 167.014182 
L 100.175731 173.581455 
L 104.304931 173.581455 
L 104.304931 167.014182 
L 108.434131 167.014182 
L 108.434131 160.446909 
L 112.563331 160.446909 
L 112.563331 153.879636 
L 116.692531 153.879636 
L 116.692531 147.312364 
L 120.821731 147.312364 
L 120.821731 153.879636 
L 124.950931 153.879636 
L 124.950931 160.446909 
L 129.080131 160.446909 
L 129.080131 153.879636 
L 133.209331 153.879636 
L 133.209331 160.446909 
L 137.338531 160.446909 
L 137.338531 167.014182 
L 141.467731 167.014182 
L 141.467731 173.581455 
L 145.596931 173.581455 
L 145.596931 167.014182 
L 149.726131 167.014182 
L 149.726131 173.581455 
L 153.855331 173.581455 
L 153.855331 180.148727 
L 157.984531 180.148727 
L 157.984531 186.716 
L 162.113731 186.716 
L 162.113731 193.283273 
L 166.242931 193.283273 
L 166.242931 199.850545 
L 170.372131 199.850545 
L 170.372131 193.283273 
L 174.501331 193.283273 
L 174.501331 186.716 
L 178.630531 186.716 
L 178.630531 193.283273 
L 182.759731 193.283273 
L 182.759731 186.716 
L 186.888931 186.716 
L 186.888931 193.283273 
L 191.018131 193.283273 
L 191.018131 186.716 
L 195.147331 186.716 
L 195.147331 193.283273 
L 199.276531 193.283273 
L 199.276531 186.716 
L 203.405731 186.716 
L 203.405731 193.283273 
L 207.534931 193.283273 
L 207.534931 186.716 
L 211.664131 186.716 
L 211.664131 180.148727 
L 215.793331 180.148727 
L 215.793331 173.581455 
L 219.922531 173.581455 
L 219.922531 180.148727 
L 224.051731 180.148727 
L 224.051731 186.716 
L 228.180931 186.716 
L 228.180931 193.283273 
L 232.310131 193.283273 
L 232.310131 186.716 
L 236.439331 186.716 
L 236.439331 193.283273 
L 240.568531 193.283273 
L 240.568531 186.716 
L 244.697731 186.716 
L 244.697731 180.148727 
L 248.826931 180.148727 
L 248.826931 186.716 
L 252.956131 186.716 
L 252.956131 180.148727 
L 257.085331 180.148727 
L 257.085331 173.581455 
L 261.214531 173.581455 
L 261.214531 180.148727 
L 265.343731 180.148727 
L 265.343731 173.581455 
L 269.472931 173.581455 
L 269.472931 180.148727 
L 273.602131 180.148727 
L 273.602131 173.581455 
L 277.731331 173.581455 
L 277.731331 167.014182 
L 281.860531 167.014182 
L 281.860531 160.446909 
L 285.989731 160.446909 
L 285.989731 167.014182 
L 290.118931 167.014182 
L 290.118931 173.581455 
L 294.248131 173.581455 
L 294.248131 180.148727 
L 298.377331 180.148727 
L 298.377331 173.581455 
L 302.506531 173.581455 
L 302.506531 167.014182 
L 306.635731 167.014182 
L 306.635731 173.581455 
L 310.764931 173.581455 
L 310.764931 167.014182 
L 314.894131 167.014182 
L 314.894131 173.581455 
L 319.023331 173.581455 
L 319.023331 180.148727 
L 323.152531 180.148727 
L 323.152531 186.716 
L 327.281731 186.716 
L 327.281731 193.283273 
L 331.410931 193.283273 
L 331.410931 186.716 
L 335.540131 186.716 
L 335.540131 193.283273 
L 339.669331 193.283273 
L 339.669331 186.716 
L 343.798531 186.716 
L 343.798531 193.283273 
L 347.927731 193.283273 
L 347.927731 199.850545 
L 352.056931 199.850545 
L 352.056931 206.417818 
L 356.186131 206.417818 
L 356.186131 212.985091 
L 360.315331 212.985091 
L 360.315331 219.552364 
L 364.444531 219.552364 
L 364.444531 226.119636 
L 368.573731 226.119636 
L 368.573731 219.552364 
L 372.702931 219.552364 
L 372.702931 226.119636 
L 376.832131 226.119636 
L 376.832131 232.686909 
L 380.961331 232.686909 
L 380.961331 239.254182 
L 385.090531 239.254182 
L 385.090531 232.686909 
L 389.219731 232.686909 
L 389.219731 239.254182 
L 393.348931 239.254182 
L 393.348931 245.821455 
L 397.478131 245.821455 
L 397.478131 239.254182 
L 401.607331 239.254182 
L 401.607331 232.686909 
L 405.736531 232.686909 
L 405.736531 226.119636 
L 409.865731 226.119636 
L 409.865731 232.686909 
L 413.994931 232.686909 
L 413.994931 226.119636 
L 418.124131 226.119636 
L 418.124131 219.552364 
L 422.253331 219.552364 
L 422.253331 212.985091 
L 426.382531 212.985091 
L 426.382531 219.552364 
L 430.511731 219.552364 
L 430.511731 226.119636 
L 434.640931 226.119636 
L 434.640931 232.686909 
L 438.770131 232.686909 
L 438.770131 226.119636 
L 442.899331 226.119636 
L 442.899331 219.552364 
L 447.028531 219.552364 
L 447.028531 226.119636 
L 451.157731 226.119636 
L 451.157731 232.686909 
L 455.286931 232.686909 
L 455.286931 239.254182 
L 459.416131 239.254182 
L 459.416131 245.821455 
L 463.545331 245.821455 
L 463.545331 252.388727 
L 467.674531 252.388727 
L 467.674531 258.956 
L 467.674531 258.956 
" clip-path="url(#p037738c464)" style="fill: none; stroke: #2980b9; stroke-opacity: 0.9; stroke-width: 2.2; stroke-linecap: square"/>
   </g>
   <g id="line2d_28">
    <path d="M 54.754531 140.745091 
L 58.883731 140.745091 
L 58.883731 134.177818 
L 63.012931 134.177818 
L 63.012931 127.610545 
L 67.142131 127.610545 
L 67.142131 134.177818 
L 71.271331 134.177818 
L 71.271331 140.745091 
L 75.400531 140.745091 
L 75.400531 147.312364 
L 79.529731 147.312364 
L 79.529731 153.879636 
L 83.658931 153.879636 
L 83.658931 160.446909 
L 87.788131 160.446909 
L 87.788131 167.014182 
L 91.917331 167.014182 
L 91.917331 173.581455 
L 96.046531 173.581455 
L 96.046531 180.148727 
L 100.175731 180.148727 
L 100.175731 173.581455 
L 104.304931 173.581455 
L 104.304931 167.014182 
L 108.434131 167.014182 
L 108.434131 160.446909 
L 112.563331 160.446909 
L 112.563331 167.014182 
L 116.692531 167.014182 
L 116.692531 160.446909 
L 120.821731 160.446909 
L 120.821731 153.879636 
L 124.950931 153.879636 
L 124.950931 147.312364 
L 129.080131 147.312364 
L 129.080131 153.879636 
L 133.209331 153.879636 
L 133.209331 160.446909 
L 137.338531 160.446909 
L 137.338531 153.879636 
L 141.467731 153.879636 
L 141.467731 147.312364 
L 145.596931 147.312364 
L 145.596931 140.745091 
L 149.726131 140.745091 
L 149.726131 134.177818 
L 153.855331 134.177818 
L 153.855331 140.745091 
L 157.984531 140.745091 
L 157.984531 134.177818 
L 162.113731 134.177818 
L 162.113731 127.610545 
L 166.242931 127.610545 
L 166.242931 134.177818 
L 170.372131 134.177818 
L 170.372131 140.745091 
L 174.501331 140.745091 
L 174.501331 134.177818 
L 178.630531 134.177818 
L 178.630531 140.745091 
L 182.759731 140.745091 
L 182.759731 134.177818 
L 186.888931 134.177818 
L 186.888931 140.745091 
L 191.018131 140.745091 
L 191.018131 147.312364 
L 195.147331 147.312364 
L 195.147331 153.879636 
L 199.276531 153.879636 
L 199.276531 147.312364 
L 203.405731 147.312364 
L 203.405731 140.745091 
L 207.534931 140.745091 
L 207.534931 147.312364 
L 211.664131 147.312364 
L 211.664131 140.745091 
L 215.793331 140.745091 
L 215.793331 147.312364 
L 219.922531 147.312364 
L 219.922531 153.879636 
L 224.051731 153.879636 
L 224.051731 147.312364 
L 228.180931 147.312364 
L 228.180931 140.745091 
L 232.310131 140.745091 
L 232.310131 134.177818 
L 236.439331 134.177818 
L 236.439331 140.745091 
L 240.568531 140.745091 
L 240.568531 147.312364 
L 244.697731 147.312364 
L 244.697731 153.879636 
L 248.826931 153.879636 
L 248.826931 160.446909 
L 252.956131 160.446909 
L 252.956131 167.014182 
L 257.085331 167.014182 
L 257.085331 160.446909 
L 261.214531 160.446909 
L 261.214531 167.014182 
L 265.343731 167.014182 
L 265.343731 173.581455 
L 269.472931 173.581455 
L 269.472931 167.014182 
L 273.602131 167.014182 
L 273.602131 173.581455 
L 277.731331 173.581455 
L 277.731331 180.148727 
L 281.860531 180.148727 
L 281.860531 186.716 
L 285.989731 186.716 
L 285.989731 180.148727 
L 290.118931 180.148727 
L 290.118931 173.581455 
L 294.248131 173.581455 
L 294.248131 167.014182 
L 298.377331 167.014182 
L 298.377331 173.581455 
L 302.506531 173.581455 
L 302.506531 167.014182 
L 306.635731 167.014182 
L 306.635731 160.446909 
L 310.764931 160.446909 
L 310.764931 153.879636 
L 314.894131 153.879636 
L 314.894131 147.312364 
L 319.023331 147.312364 
L 319.023331 140.745091 
L 323.152531 140.745091 
L 323.152531 147.312364 
L 327.281731 147.312364 
L 327.281731 153.879636 
L 331.410931 153.879636 
L 331.410931 160.446909 
L 335.540131 160.446909 
L 335.540131 153.879636 
L 339.669331 153.879636 
L 339.669331 160.446909 
L 343.798531 160.446909 
L 343.798531 153.879636 
L 347.927731 153.879636 
L 347.927731 147.312364 
L 352.056931 147.312364 
L 352.056931 140.745091 
L 356.186131 140.745091 
L 356.186131 147.312364 
L 360.315331 147.312364 
L 360.315331 153.879636 
L 364.444531 153.879636 
L 364.444531 147.312364 
L 368.573731 147.312364 
L 368.573731 153.879636 
L 372.702931 153.879636 
L 372.702931 147.312364 
L 376.832131 147.312364 
L 376.832131 140.745091 
L 380.961331 140.745091 
L 380.961331 134.177818 
L 385.090531 134.177818 
L 385.090531 127.610545 
L 389.219731 127.610545 
L 389.219731 134.177818 
L 393.348931 134.177818 
L 393.348931 140.745091 
L 397.478131 140.745091 
L 397.478131 134.177818 
L 401.607331 134.177818 
L 401.607331 140.745091 
L 405.736531 140.745091 
L 405.736531 147.312364 
L 409.865731 147.312364 
L 409.865731 153.879636 
L 413.994931 153.879636 
L 413.994931 160.446909 
L 418.124131 160.446909 
L 418.124131 167.014182 
L 422.253331 167.014182 
L 422.253331 173.581455 
L 426.382531 173.581455 
L 426.382531 167.014182 
L 430.511731 167.014182 
L 430.511731 173.581455 
L 434.640931 173.581455 
L 434.640931 180.148727 
L 438.770131 180.148727 
L 438.770131 186.716 
L 442.899331 186.716 
L 442.899331 193.283273 
L 447.028531 193.283273 
L 447.028531 199.850545 
L 451.157731 199.850545 
L 451.157731 206.417818 
L 455.286931 206.417818 
L 455.286931 199.850545 
L 459.416131 199.850545 
L 459.416131 206.417818 
L 463.545331 206.417818 
L 463.545331 212.985091 
L 467.674531 212.985091 
L 467.674531 206.417818 
L 467.674531 206.417818 
" clip-path="url(#p037738c464)" style="fill: none; stroke: #c0392b; stroke-opacity: 0.9; stroke-width: 2.2; stroke-linecap: square"/>
   </g>
   <g id="line2d_29">
    <path d="M 54.754531 140.745091 
L 58.883731 140.745091 
L 58.883731 134.177818 
L 63.012931 134.177818 
L 63.012931 127.610545 
L 67.142131 127.610545 
L 67.142131 121.043273 
L 71.271331 121.043273 
L 71.271331 127.610545 
L 75.400531 127.610545 
L 75.400531 121.043273 
L 79.529731 121.043273 
L 79.529731 127.610545 
L 83.658931 127.610545 
L 83.658931 134.177818 
L 87.788131 134.177818 
L 87.788131 140.745091 
L 91.917331 140.745091 
L 91.917331 134.177818 
L 96.046531 134.177818 
L 96.046531 140.745091 
L 100.175731 140.745091 
L 100.175731 134.177818 
L 104.304931 134.177818 
L 104.304931 140.745091 
L 108.434131 140.745091 
L 108.434131 134.177818 
L 112.563331 134.177818 
L 112.563331 140.745091 
L 116.692531 140.745091 
L 116.692531 147.312364 
L 120.821731 147.312364 
L 120.821731 140.745091 
L 124.950931 140.745091 
L 124.950931 134.177818 
L 129.080131 134.177818 
L 129.080131 127.610545 
L 133.209331 127.610545 
L 133.209331 121.043273 
L 137.338531 121.043273 
L 137.338531 127.610545 
L 141.467731 127.610545 
L 141.467731 121.043273 
L 145.596931 121.043273 
L 145.596931 114.476 
L 149.726131 114.476 
L 149.726131 107.908727 
L 153.855331 107.908727 
L 153.855331 114.476 
L 157.984531 114.476 
L 157.984531 107.908727 
L 162.113731 107.908727 
L 162.113731 101.341455 
L 166.242931 101.341455 
L 166.242931 107.908727 
L 170.372131 107.908727 
L 170.372131 114.476 
L 174.501331 114.476 
L 174.501331 121.043273 
L 178.630531 121.043273 
L 178.630531 127.610545 
L 182.759731 127.610545 
L 182.759731 121.043273 
L 186.888931 121.043273 
L 186.888931 127.610545 
L 191.018131 127.610545 
L 191.018131 134.177818 
L 195.147331 134.177818 
L 195.147331 127.610545 
L 199.276531 127.610545 
L 199.276531 121.043273 
L 203.405731 121.043273 
L 203.405731 114.476 
L 207.534931 114.476 
L 207.534931 107.908727 
L 211.664131 107.908727 
L 211.664131 101.341455 
L 215.793331 101.341455 
L 215.793331 107.908727 
L 219.922531 107.908727 
L 219.922531 101.341455 
L 224.051731 101.341455 
L 224.051731 94.774182 
L 228.180931 94.774182 
L 228.180931 88.206909 
L 232.310131 88.206909 
L 232.310131 81.639636 
L 236.439331 81.639636 
L 236.439331 75.072364 
L 240.568531 75.072364 
L 240.568531 68.505091 
L 244.697731 68.505091 
L 244.697731 61.937818 
L 248.826931 61.937818 
L 248.826931 55.370545 
L 252.956131 55.370545 
L 252.956131 48.803273 
L 257.085331 48.803273 
L 257.085331 55.370545 
L 261.214531 55.370545 
L 261.214531 48.803273 
L 265.343731 48.803273 
L 265.343731 42.236 
L 269.472931 42.236 
L 269.472931 48.803273 
L 273.602131 48.803273 
L 273.602131 55.370545 
L 277.731331 55.370545 
L 277.731331 61.937818 
L 281.860531 61.937818 
L 281.860531 68.505091 
L 285.989731 68.505091 
L 285.989731 61.937818 
L 290.118931 61.937818 
L 290.118931 55.370545 
L 294.248131 55.370545 
L 294.248131 61.937818 
L 298.377331 61.937818 
L 298.377331 55.370545 
L 302.506531 55.370545 
L 302.506531 61.937818 
L 306.635731 61.937818 
L 306.635731 68.505091 
L 310.764931 68.505091 
L 310.764931 75.072364 
L 314.894131 75.072364 
L 314.894131 81.639636 
L 319.023331 81.639636 
L 319.023331 75.072364 
L 323.152531 75.072364 
L 323.152531 81.639636 
L 327.281731 81.639636 
L 327.281731 75.072364 
L 331.410931 75.072364 
L 331.410931 68.505091 
L 335.540131 68.505091 
L 335.540131 61.937818 
L 339.669331 61.937818 
L 339.669331 68.505091 
L 343.798531 68.505091 
L 343.798531 61.937818 
L 347.927731 61.937818 
L 347.927731 68.505091 
L 352.056931 68.505091 
L 352.056931 61.937818 
L 356.186131 61.937818 
L 356.186131 55.370545 
L 360.315331 55.370545 
L 360.315331 61.937818 
L 364.444531 61.937818 
L 364.444531 68.505091 
L 368.573731 68.505091 
L 368.573731 61.937818 
L 372.702931 61.937818 
L 372.702931 68.505091 
L 376.832131 68.505091 
L 376.832131 61.937818 
L 380.961331 61.937818 
L 380.961331 68.505091 
L 385.090531 68.505091 
L 385.090531 61.937818 
L 389.219731 61.937818 
L 389.219731 68.505091 
L 393.348931 68.505091 
L 393.348931 75.072364 
L 397.478131 75.072364 
L 397.478131 68.505091 
L 401.607331 68.505091 
L 401.607331 75.072364 
L 405.736531 75.072364 
L 405.736531 81.639636 
L 409.865731 81.639636 
L 409.865731 88.206909 
L 413.994931 88.206909 
L 413.994931 81.639636 
L 418.124131 81.639636 
L 418.124131 75.072364 
L 422.253331 75.072364 
L 422.253331 81.639636 
L 426.382531 81.639636 
L 426.382531 88.206909 
L 430.511731 88.206909 
L 430.511731 94.774182 
L 434.640931 94.774182 
L 434.640931 88.206909 
L 438.770131 88.206909 
L 438.770131 81.639636 
L 442.899331 81.639636 
L 442.899331 88.206909 
L 447.028531 88.206909 
L 447.028531 81.639636 
L 451.157731 81.639636 
L 451.157731 88.206909 
L 455.286931 88.206909 
L 455.286931 94.774182 
L 459.416131 94.774182 
L 459.416131 88.206909 
L 463.545331 88.206909 
L 463.545331 94.774182 
L 467.674531 94.774182 
L 467.674531 88.206909 
L 467.674531 88.206909 
" clip-path="url(#p037738c464)" style="fill: none; stroke: #27ae60; stroke-opacity: 0.9; stroke-width: 2.2; stroke-linecap: square"/>
   </g>
   <g id="line2d_30">
    <path d="M 54.754531 140.745091 
L 58.883731 140.745091 
L 58.883731 147.312364 
L 63.012931 147.312364 
L 63.012931 153.879636 
L 67.142131 153.879636 
L 67.142131 147.312364 
L 71.271331 147.312364 
L 71.271331 153.879636 
L 75.400531 153.879636 
L 75.400531 147.312364 
L 79.529731 147.312364 
L 79.529731 153.879636 
L 83.658931 153.879636 
L 83.658931 147.312364 
L 87.788131 147.312364 
L 87.788131 140.745091 
L 91.917331 140.745091 
L 91.917331 134.177818 
L 96.046531 134.177818 
L 96.046531 140.745091 
L 100.175731 140.745091 
L 100.175731 134.177818 
L 104.304931 134.177818 
L 104.304931 127.610545 
L 108.434131 127.610545 
L 108.434131 121.043273 
L 112.563331 121.043273 
L 112.563331 114.476 
L 116.692531 114.476 
L 116.692531 107.908727 
L 120.821731 107.908727 
L 120.821731 101.341455 
L 124.950931 101.341455 
L 124.950931 107.908727 
L 129.080131 107.908727 
L 129.080131 101.341455 
L 133.209331 101.341455 
L 133.209331 94.774182 
L 137.338531 94.774182 
L 137.338531 101.341455 
L 141.467731 101.341455 
L 141.467731 107.908727 
L 145.596931 107.908727 
L 145.596931 101.341455 
L 149.726131 101.341455 
L 149.726131 94.774182 
L 153.855331 94.774182 
L 153.855331 101.341455 
L 157.984531 101.341455 
L 157.984531 107.908727 
L 162.113731 107.908727 
L 162.113731 114.476 
L 166.242931 114.476 
L 166.242931 121.043273 
L 170.372131 121.043273 
L 170.372131 114.476 
L 174.501331 114.476 
L 174.501331 121.043273 
L 178.630531 121.043273 
L 178.630531 114.476 
L 182.759731 114.476 
L 182.759731 121.043273 
L 186.888931 121.043273 
L 186.888931 114.476 
L 191.018131 114.476 
L 191.018131 107.908727 
L 195.147331 107.908727 
L 195.147331 101.341455 
L 199.276531 101.341455 
L 199.276531 94.774182 
L 203.405731 94.774182 
L 203.405731 88.206909 
L 207.534931 88.206909 
L 207.534931 94.774182 
L 211.664131 94.774182 
L 211.664131 101.341455 
L 215.793331 101.341455 
L 215.793331 107.908727 
L 219.922531 107.908727 
L 219.922531 101.341455 
L 224.051731 101.341455 
L 224.051731 94.774182 
L 228.180931 94.774182 
L 228.180931 101.341455 
L 232.310131 101.341455 
L 232.310131 94.774182 
L 236.439331 94.774182 
L 236.439331 101.341455 
L 240.568531 101.341455 
L 240.568531 107.908727 
L 244.697731 107.908727 
L 244.697731 101.341455 
L 248.826931 101.341455 
L 248.826931 94.774182 
L 252.956131 94.774182 
L 252.956131 88.206909 
L 257.085331 88.206909 
L 257.085331 94.774182 
L 261.214531 94.774182 
L 261.214531 88.206909 
L 265.343731 88.206909 
L 265.343731 94.774182 
L 269.472931 94.774182 
L 269.472931 101.341455 
L 273.602131 101.341455 
L 273.602131 94.774182 
L 277.731331 94.774182 
L 277.731331 101.341455 
L 281.860531 101.341455 
L 281.860531 107.908727 
L 285.989731 107.908727 
L 285.989731 101.341455 
L 290.118931 101.341455 
L 290.118931 94.774182 
L 294.248131 94.774182 
L 294.248131 88.206909 
L 298.377331 88.206909 
L 298.377331 94.774182 
L 302.506531 94.774182 
L 302.506531 101.341455 
L 306.635731 101.341455 
L 306.635731 107.908727 
L 310.764931 107.908727 
L 310.764931 101.341455 
L 314.894131 101.341455 
L 314.894131 107.908727 
L 319.023331 107.908727 
L 319.023331 101.341455 
L 323.152531 101.341455 
L 323.152531 94.774182 
L 327.281731 94.774182 
L 327.281731 88.206909 
L 331.410931 88.206909 
L 331.410931 94.774182 
L 335.540131 94.774182 
L 335.540131 88.206909 
L 339.669331 88.206909 
L 339.669331 94.774182 
L 343.798531 94.774182 
L 343.798531 88.206909 
L 347.927731 88.206909 
L 347.927731 81.639636 
L 352.056931 81.639636 
L 352.056931 75.072364 
L 356.186131 75.072364 
L 356.186131 68.505091 
L 360.315331 68.505091 
L 360.315331 75.072364 
L 364.444531 75.072364 
L 364.444531 81.639636 
L 368.573731 81.639636 
L 368.573731 75.072364 
L 372.702931 75.072364 
L 372.702931 81.639636 
L 376.832131 81.639636 
L 376.832131 88.206909 
L 380.961331 88.206909 
L 380.961331 94.774182 
L 385.090531 94.774182 
L 385.090531 88.206909 
L 389.219731 88.206909 
L 389.219731 81.639636 
L 393.348931 81.639636 
L 393.348931 75.072364 
L 397.478131 75.072364 
L 397.478131 81.639636 
L 401.607331 81.639636 
L 401.607331 75.072364 
L 405.736531 75.072364 
L 405.736531 81.639636 
L 409.865731 81.639636 
L 409.865731 75.072364 
L 413.994931 75.072364 
L 413.994931 81.639636 
L 418.124131 81.639636 
L 418.124131 88.206909 
L 422.253331 88.206909 
L 422.253331 94.774182 
L 426.382531 94.774182 
L 426.382531 101.341455 
L 430.511731 101.341455 
L 430.511731 107.908727 
L 434.640931 107.908727 
L 434.640931 114.476 
L 438.770131 114.476 
L 438.770131 121.043273 
L 442.899331 121.043273 
L 442.899331 114.476 
L 447.028531 114.476 
L 447.028531 107.908727 
L 451.157731 107.908727 
L 451.157731 101.341455 
L 455.286931 101.341455 
L 455.286931 94.774182 
L 459.416131 94.774182 
L 459.416131 101.341455 
L 463.545331 101.341455 
L 463.545331 94.774182 
L 467.674531 94.774182 
L 467.674531 101.341455 
L 467.674531 101.341455 
" clip-path="url(#p037738c464)" style="fill: none; stroke: #7d3c98; stroke-opacity: 0.9; stroke-width: 2.2; stroke-linecap: square"/>
   </g>
   <g id="line2d_31">
    <path d="M 54.754531 140.745091 
L 467.674531 140.745091 
" clip-path="url(#p037738c464)" style="fill: none; stroke-dasharray: 5.18,2.24; stroke-dashoffset: 0; stroke: #34495e; stroke-opacity: 0.8; stroke-width: 1.4"/>
   </g>
   <g id="patch_3">
    <path d="M 54.754531 269.792 
L 54.754531 31.4 
" style="fill: none; stroke: #2c3e50; stroke-width: 1.2; stroke-linejoin: miter; stroke-linecap: square"/>
   </g>
   <g id="patch_4">
    <path d="M 54.754531 269.792 
L 467.674531 269.792 
" style="fill: none; stroke: #2c3e50; stroke-width: 1.2; stroke-linejoin: miter; stroke-linecap: square"/>
   </g>
   <g id="text_16">
    <!-- Caminata aleatoria simple ($\pm1$) -->
    <g transform="translate(147.269531 21.4) scale(0.13 -0.13)">
     <defs>
      <path id="DejaVuSans-Bold-43" d="M 4288 256 
Q 3956 84 3597 -3 
Q 3238 -91 2847 -91 
Q 1681 -91 1000 561 
Q 319 1213 319 2328 
Q 319 3447 1000 4098 
Q 1681 4750 2847 4750 
Q 3238 4750 3597 4662 
Q 3956 4575 4288 4403 
L 4288 3438 
Q 3953 3666 3628 3772 
Q 3303 3878 2944 3878 
Q 2300 3878 1931 3465 
Q 1563 3053 1563 2328 
Q 1563 1606 1931 1193 
Q 2300 781 2944 781 
Q 3303 781 3628 887 
Q 3953 994 4288 1222 
L 4288 256 
z
" transform="scale(0.015625)"/>
      <path id="DejaVuSans-Bold-6d" d="M 3781 2919 
Q 3994 3244 4286 3414 
Q 4578 3584 4928 3584 
Q 5531 3584 5847 3212 
Q 6163 2841 6163 2131 
L 6163 0 
L 5038 0 
L 5038 1825 
Q 5041 1866 5042 1909 
Q 5044 1953 5044 2034 
Q 5044 2406 4934 2573 
Q 4825 2741 4581 2741 
Q 4263 2741 4089 2478 
Q 3916 2216 3909 1719 
L 3909 0 
L 2784 0 
L 2784 1825 
Q 2784 2406 2684 2573 
Q 2584 2741 2328 2741 
Q 2006 2741 1831 2477 
Q 1656 2213 1656 1722 
L 1656 0 
L 531 0 
L 531 3500 
L 1656 3500 
L 1656 2988 
Q 1863 3284 2130 3434 
Q 2397 3584 2719 3584 
Q 3081 3584 3359 3409 
Q 3638 3234 3781 2919 
z
" transform="scale(0.015625)"/>
      <path id="DejaVuSans-Bold-69" d="M 538 3500 
L 1656 3500 
L 1656 0 
L 538 0 
L 538 3500 
z
M 538 4863 
L 1656 4863 
L 1656 3950 
L 538 3950 
L 538 4863 
z
" transform="scale(0.015625)"/>
      <path id="DejaVuSans-Bold-6e" d="M 4056 2131 
L 4056 0 
L 2931 0 
L 2931 347 
L 2931 1631 
Q 2931 2084 2911 2256 
Q 2891 2428 2841 2509 
Q 2775 2619 2662 2680 
Q 2550 2741 2406 2741 
Q 2056 2741 1856 2470 
Q 1656 2200 1656 1722 
L 1656 0 
L 538 0 
L 538 3500 
L 1656 3500 
L 1656 2988 
Q 1909 3294 2193 3439 
Q 2478 3584 2822 3584 
Q 3428 3584 3742 3212 
Q 4056 2841 4056 2131 
z
" transform="scale(0.015625)"/>
      <path id="DejaVuSans-Bold-74" d="M 1759 4494 
L 1759 3500 
L 2913 3500 
L 2913 2700 
L 1759 2700 
L 1759 1216 
Q 1759 972 1856 886 
Q 1953 800 2241 800 
L 2816 800 
L 2816 0 
L 1856 0 
Q 1194 0 917 276 
Q 641 553 641 1216 
L 641 2700 
L 84 2700 
L 84 3500 
L 641 3500 
L 641 4494 
L 1759 4494 
z
" transform="scale(0.015625)"/>
      <path id="DejaVuSans-Bold-6c" d="M 538 4863 
L 1656 4863 
L 1656 0 
L 538 0 
L 538 4863 
z
" transform="scale(0.015625)"/>
      <path id="DejaVuSans-Bold-65" d="M 4031 1759 
L 4031 1441 
L 1416 1441 
Q 1456 1047 1700 850 
Q 1944 653 2381 653 
Q 2734 653 3104 758 
Q 3475 863 3866 1075 
L 3866 213 
Q 3469 63 3072 -14 
Q 2675 -91 2278 -91 
Q 1328 -91 801 392 
Q 275 875 275 1747 
Q 275 2603 792 3093 
Q 1309 3584 2216 3584 
Q 3041 3584 3536 3087 
Q 4031 2591 4031 1759 
z
M 2881 2131 
Q 2881 2450 2695 2645 
Q 2509 2841 2209 2841 
Q 1884 2841 1681 2658 
Q 1478 2475 1428 2131 
L 2881 2131 
z
" transform="scale(0.015625)"/>
      <path id="DejaVuSans-Bold-72" d="M 3138 2547 
Q 2991 2616 2845 2648 
Q 2700 2681 2553 2681 
Q 2122 2681 1889 2404 
Q 1656 2128 1656 1613 
L 1656 0 
L 538 0 
L 538 3500 
L 1656 3500 
L 1656 2925 
Q 1872 3269 2151 3426 
Q 2431 3584 2822 3584 
Q 2878 3584 2943 3579 
Q 3009 3575 3134 3559 
L 3138 2547 
z
" transform="scale(0.015625)"/>
      <path id="DejaVuSans-Bold-28" d="M 2413 -844 
L 1484 -844 
Q 1006 -72 778 623 
Q 550 1319 550 2003 
Q 550 2688 779 3389 
Q 1009 4091 1484 4856 
L 2413 4856 
Q 2013 4116 1813 3408 
Q 1613 2700 1613 2009 
Q 1613 1319 1811 609 
Q 2009 -100 2413 -844 
z
" transform="scale(0.015625)"/>
      <path id="DejaVuSans-b1" d="M 2944 4013 
L 2944 2803 
L 4684 2803 
L 4684 2272 
L 2944 2272 
L 2944 1063 
L 2419 1063 
L 2419 2272 
L 678 2272 
L 678 2803 
L 2419 2803 
L 2419 4013 
L 2944 4013 
z
M 678 531 
L 4684 531 
L 4684 0 
L 678 0 
L 678 531 
z
" transform="scale(0.015625)"/>
      <path id="DejaVuSans-Bold-29" d="M 513 -844 
Q 913 -100 1113 609 
Q 1313 1319 1313 2009 
Q 1313 2700 1113 3408 
Q 913 4116 513 4856 
L 1441 4856 
Q 1916 4091 2145 3389 
Q 2375 2688 2375 2003 
Q 2375 1319 2147 623 
Q 1919 -72 1441 -844 
L 513 -844 
z
" transform="scale(0.015625)"/>
     </defs>
     <use xlink:href="#DejaVuSans-Bold-43" transform="translate(0 0.015625)"/>
     <use xlink:href="#DejaVuSans-Bold-61" transform="translate(73.388672 0.015625)"/>
     <use xlink:href="#DejaVuSans-Bold-6d" transform="translate(140.869141 0.015625)"/>
     <use xlink:href="#DejaVuSans-Bold-69" transform="translate(245.068359 0.015625)"/>
     <use xlink:href="#DejaVuSans-Bold-6e" transform="translate(279.345703 0.015625)"/>
     <use xlink:href="#DejaVuSans-Bold-61" transform="translate(350.537109 0.015625)"/>
     <use xlink:href="#DejaVuSans-Bold-74" transform="translate(418.017578 0.015625)"/>
     <use xlink:href="#DejaVuSans-Bold-61" transform="translate(465.820312 0.015625)"/>
     <use xlink:href="#DejaVuSans-Bold-20" transform="translate(533.300781 0.015625)"/>
     <use xlink:href="#DejaVuSans-Bold-61" transform="translate(568.115234 0.015625)"/>
     <use xlink:href="#DejaVuSans-Bold-6c" transform="translate(635.595703 0.015625)"/>
     <use xlink:href="#DejaVuSans-Bold-65" transform="translate(669.873047 0.015625)"/>
     <use xlink:href="#DejaVuSans-Bold-61" transform="translate(737.695312 0.015625)"/>
     <use xlink:href="#DejaVuSans-Bold-74" transform="translate(805.175781 0.015625)"/>
     <use xlink:href="#DejaVuSans-Bold-6f" transform="translate(852.978516 0.015625)"/>
     <use xlink:href="#DejaVuSans-Bold-72" transform="translate(921.679688 0.015625)"/>
     <use xlink:href="#DejaVuSans-Bold-69" transform="translate(970.996094 0.015625)"/>
     <use xlink:href="#DejaVuSans-Bold-61" transform="translate(1005.273438 0.015625)"/>
     <use xlink:href="#DejaVuSans-Bold-20" transform="translate(1072.753906 0.015625)"/>
     <use xlink:href="#DejaVuSans-Bold-73" transform="translate(1107.568359 0.015625)"/>
     <use xlink:href="#DejaVuSans-Bold-69" transform="translate(1167.089844 0.015625)"/>
     <use xlink:href="#DejaVuSans-Bold-6d" transform="translate(1201.367188 0.015625)"/>
     <use xlink:href="#DejaVuSans-Bold-70" transform="translate(1305.566406 0.015625)"/>
     <use xlink:href="#DejaVuSans-Bold-6c" transform="translate(1377.148438 0.015625)"/>
     <use xlink:href="#DejaVuSans-Bold-65" transform="translate(1411.425781 0.015625)"/>
     <use xlink:href="#DejaVuSans-Bold-20" transform="translate(1479.248047 0.015625)"/>
     <use xlink:href="#DejaVuSans-Bold-28" transform="translate(1514.0625 0.015625)"/>
     <use xlink:href="#DejaVuSans-b1" transform="translate(1559.765625 0.015625)"/>
     <use xlink:href="#DejaVuSans-31" transform="translate(1643.554688 0.015625)"/>
     <use xlink:href="#DejaVuSans-Bold-29" transform="translate(1707.177734 0.015625)"/>
    </g>
   </g>
   <g id="legend_1">
    <g id="patch_5">
     <path d="M 61.404531 265.042 
L 259.625 265.042 
Q 261.525 265.042 261.525 263.142 
L 261.525 236.203562 
Q 261.525 234.303562 259.625 234.303562 
L 61.404531 234.303562 
Q 59.504531 234.303562 59.504531 236.203562 
L 59.504531 263.142 
Q 59.504531 265.042 61.404531 265.042 
z
" style="fill: #ffffff; opacity: 0.92; stroke: #cccccc; stroke-linejoin: miter"/>
    </g>
    <g id="line2d_32">
     <path d="M 63.304531 241.997078 
L 72.804531 241.997078 
L 72.804531 241.997078 
L 82.304531 241.997078 
L 82.304531 241.997078 
" style="fill: none; stroke: #2980b9; stroke-opacity: 0.9; stroke-width: 2.2; stroke-linecap: square"/>
    </g>
    <g id="text_17">
     <!-- trayectoria 1 -->
     <g transform="translate(89.904531 245.322078) scale(0.095 -0.095)">
      <defs>
       <path id="DejaVuSans-74" d="M 1172 4494 
L 1172 3500 
L 2356 3500 
L 2356 3053 
L 1172 3053 
L 1172 1153 
Q 1172 725 1289 603 
Q 1406 481 1766 481 
L 2356 481 
L 2356 0 
L 1766 0 
Q 1100 0 847 248 
Q 594 497 594 1153 
L 594 3053 
L 172 3053 
L 172 3500 
L 594 3500 
L 594 4494 
L 1172 4494 
z
" transform="scale(0.015625)"/>
       <path id="DejaVuSans-72" d="M 2631 2963 
Q 2534 3019 2420 3045 
Q 2306 3072 2169 3072 
Q 1681 3072 1420 2755 
Q 1159 2438 1159 1844 
L 1159 0 
L 581 0 
L 581 3500 
L 1159 3500 
L 1159 2956 
Q 1341 3275 1631 3429 
Q 1922 3584 2338 3584 
Q 2397 3584 2469 3576 
Q 2541 3569 2628 3553 
L 2631 2963 
z
" transform="scale(0.015625)"/>
       <path id="DejaVuSans-61" d="M 2194 1759 
Q 1497 1759 1228 1600 
Q 959 1441 959 1056 
Q 959 750 1161 570 
Q 1363 391 1709 391 
Q 2188 391 2477 730 
Q 2766 1069 2766 1631 
L 2766 1759 
L 2194 1759 
z
M 3341 1997 
L 3341 0 
L 2766 0 
L 2766 531 
Q 2569 213 2275 61 
Q 1981 -91 1556 -91 
Q 1019 -91 701 211 
Q 384 513 384 1019 
Q 384 1609 779 1909 
Q 1175 2209 1959 2209 
L 2766 2209 
L 2766 2266 
Q 2766 2663 2505 2880 
Q 2244 3097 1772 3097 
Q 1472 3097 1187 3025 
Q 903 2953 641 2809 
L 641 3341 
Q 956 3463 1253 3523 
Q 1550 3584 1831 3584 
Q 2591 3584 2966 3190 
Q 3341 2797 3341 1997 
z
" transform="scale(0.015625)"/>
       <path id="DejaVuSans-79" d="M 2059 -325 
Q 1816 -950 1584 -1140 
Q 1353 -1331 966 -1331 
L 506 -1331 
L 506 -850 
L 844 -850 
Q 1081 -850 1212 -737 
Q 1344 -625 1503 -206 
L 1606 56 
L 191 3500 
L 800 3500 
L 1894 763 
L 2988 3500 
L 3597 3500 
L 2059 -325 
z
" transform="scale(0.015625)"/>
       <path id="DejaVuSans-65" d="M 3597 1894 
L 3597 1613 
L 953 1613 
Q 991 1019 1311 708 
Q 1631 397 2203 397 
Q 2534 397 2845 478 
Q 3156 559 3463 722 
L 3463 178 
Q 3153 47 2828 -22 
Q 2503 -91 2169 -91 
Q 1331 -91 842 396 
Q 353 884 353 1716 
Q 353 2575 817 3079 
Q 1281 3584 2069 3584 
Q 2775 3584 3186 3129 
Q 3597 2675 3597 1894 
z
M 3022 2063 
Q 3016 2534 2758 2815 
Q 2500 3097 2075 3097 
Q 1594 3097 1305 2825 
Q 1016 2553 972 2059 
L 3022 2063 
z
" transform="scale(0.015625)"/>
       <path id="DejaVuSans-63" d="M 3122 3366 
L 3122 2828 
Q 2878 2963 2633 3030 
Q 2388 3097 2138 3097 
Q 1578 3097 1268 2742 
Q 959 2388 959 1747 
Q 959 1106 1268 751 
Q 1578 397 2138 397 
Q 2388 397 2633 464 
Q 2878 531 3122 666 
L 3122 134 
Q 2881 22 2623 -34 
Q 2366 -91 2075 -91 
Q 1284 -91 818 406 
Q 353 903 353 1747 
Q 353 2603 823 3093 
Q 1294 3584 2113 3584 
Q 2378 3584 2631 3529 
Q 2884 3475 3122 3366 
z
" transform="scale(0.015625)"/>
       <path id="DejaVuSans-6f" d="M 1959 3097 
Q 1497 3097 1228 2736 
Q 959 2375 959 1747 
Q 959 1119 1226 758 
Q 1494 397 1959 397 
Q 2419 397 2687 759 
Q 2956 1122 2956 1747 
Q 2956 2369 2687 2733 
Q 2419 3097 1959 3097 
z
M 1959 3584 
Q 2709 3584 3137 3096 
Q 3566 2609 3566 1747 
Q 3566 888 3137 398 
Q 2709 -91 1959 -91 
Q 1206 -91 779 398 
Q 353 888 353 1747 
Q 353 2609 779 3096 
Q 1206 3584 1959 3584 
z
" transform="scale(0.015625)"/>
       <path id="DejaVuSans-69" d="M 603 3500 
L 1178 3500 
L 1178 0 
L 603 0 
L 603 3500 
z
M 603 4863 
L 1178 4863 
L 1178 4134 
L 603 4134 
L 603 4863 
z
" transform="scale(0.015625)"/>
       <path id="DejaVuSans-20" transform="scale(0.015625)"/>
      </defs>
      <use xlink:href="#DejaVuSans-74"/>
      <use xlink:href="#DejaVuSans-72" x="39.208984"/>
      <use xlink:href="#DejaVuSans-61" x="80.322266"/>
      <use xlink:href="#DejaVuSans-79" x="141.601562"/>
      <use xlink:href="#DejaVuSans-65" x="200.78125"/>
      <use xlink:href="#DejaVuSans-63" x="262.304688"/>
      <use xlink:href="#DejaVuSans-74" x="317.285156"/>
      <use xlink:href="#DejaVuSans-6f" x="356.494141"/>
      <use xlink:href="#DejaVuSans-72" x="417.675781"/>
      <use xlink:href="#DejaVuSans-69" x="458.789062"/>
      <use xlink:href="#DejaVuSans-61" x="486.572266"/>
      <use xlink:href="#DejaVuSans-20" x="547.851562"/>
      <use xlink:href="#DejaVuSans-31" x="579.638672"/>
     </g>
    </g>
    <g id="line2d_33">
     <path d="M 63.304531 255.941297 
L 72.804531 255.941297 
L 72.804531 255.941297 
L 82.304531 255.941297 
L 82.304531 255.941297 
" style="fill: none; stroke: #c0392b; stroke-opacity: 0.9; stroke-width: 2.2; stroke-linecap: square"/>
    </g>
    <g id="text_18">
     <!-- trayectoria 2 -->
     <g transform="translate(89.904531 259.266297) scale(0.095 -0.095)">
      <use xlink:href="#DejaVuSans-74"/>
      <use xlink:href="#DejaVuSans-72" x="39.208984"/>
      <use xlink:href="#DejaVuSans-61" x="80.322266"/>
      <use xlink:href="#DejaVuSans-79" x="141.601562"/>
      <use xlink:href="#DejaVuSans-65" x="200.78125"/>
      <use xlink:href="#DejaVuSans-63" x="262.304688"/>
      <use xlink:href="#DejaVuSans-74" x="317.285156"/>
      <use xlink:href="#DejaVuSans-6f" x="356.494141"/>
      <use xlink:href="#DejaVuSans-72" x="417.675781"/>
      <use xlink:href="#DejaVuSans-69" x="458.789062"/>
      <use xlink:href="#DejaVuSans-61" x="486.572266"/>
      <use xlink:href="#DejaVuSans-20" x="547.851562"/>
      <use xlink:href="#DejaVuSans-32" x="579.638672"/>
     </g>
    </g>
    <g id="line2d_34">
     <path d="M 170.014766 241.997078 
L 179.514766 241.997078 
L 179.514766 241.997078 
L 189.014766 241.997078 
L 189.014766 241.997078 
" style="fill: none; stroke: #27ae60; stroke-opacity: 0.9; stroke-width: 2.2; stroke-linecap: square"/>
    </g>
    <g id="text_19">
     <!-- trayectoria 3 -->
     <g transform="translate(196.614766 245.322078) scale(0.095 -0.095)">
      <defs>
       <path id="DejaVuSans-33" d="M 2597 2516 
Q 3050 2419 3304 2112 
Q 3559 1806 3559 1356 
Q 3559 666 3084 287 
Q 2609 -91 1734 -91 
Q 1441 -91 1130 -33 
Q 819 25 488 141 
L 488 750 
Q 750 597 1062 519 
Q 1375 441 1716 441 
Q 2309 441 2620 675 
Q 2931 909 2931 1356 
Q 2931 1769 2642 2001 
Q 2353 2234 1838 2234 
L 1294 2234 
L 1294 2753 
L 1863 2753 
Q 2328 2753 2575 2939 
Q 2822 3125 2822 3475 
Q 2822 3834 2567 4026 
Q 2313 4219 1838 4219 
Q 1578 4219 1281 4162 
Q 984 4106 628 3988 
L 628 4550 
Q 988 4650 1302 4700 
Q 1616 4750 1894 4750 
Q 2613 4750 3031 4423 
Q 3450 4097 3450 3541 
Q 3450 3153 3228 2886 
Q 3006 2619 2597 2516 
z
" transform="scale(0.015625)"/>
      </defs>
      <use xlink:href="#DejaVuSans-74"/>
      <use xlink:href="#DejaVuSans-72" x="39.208984"/>
      <use xlink:href="#DejaVuSans-61" x="80.322266"/>
      <use xlink:href="#DejaVuSans-79" x="141.601562"/>
      <use xlink:href="#DejaVuSans-65" x="200.78125"/>
      <use xlink:href="#DejaVuSans-63" x="262.304688"/>
      <use xlink:href="#DejaVuSans-74" x="317.285156"/>
      <use xlink:href="#DejaVuSans-6f" x="356.494141"/>
      <use xlink:href="#DejaVuSans-72" x="417.675781"/>
      <use xlink:href="#DejaVuSans-69" x="458.789062"/>
      <use xlink:href="#DejaVuSans-61" x="486.572266"/>
      <use xlink:href="#DejaVuSans-20" x="547.851562"/>
      <use xlink:href="#DejaVuSans-33" x="579.638672"/>
     </g>
    </g>
    <g id="line2d_35">
     <path d="M 170.014766 255.941297 
L 179.514766 255.941297 
L 179.514766 255.941297 
L 189.014766 255.941297 
L 189.014766 255.941297 
" style="fill: none; stroke: #7d3c98; stroke-opacity: 0.9; stroke-width: 2.2; stroke-linecap: square"/>
    </g>
    <g id="text_20">
     <!-- trayectoria 4 -->
     <g transform="translate(196.614766 259.266297) scale(0.095 -0.095)">
      <use xlink:href="#DejaVuSans-74"/>
      <use xlink:href="#DejaVuSans-72" x="39.208984"/>
      <use xlink:href="#DejaVuSans-61" x="80.322266"/>
      <use xlink:href="#DejaVuSans-79" x="141.601562"/>
      <use xlink:href="#DejaVuSans-65" x="200.78125"/>
      <use xlink:href="#DejaVuSans-63" x="262.304688"/>
      <use xlink:href="#DejaVuSans-74" x="317.285156"/>
      <use xlink:href="#DejaVuSans-6f" x="356.494141"/>
      <use xlink:href="#DejaVuSans-72" x="417.675781"/>
      <use xlink:href="#DejaVuSans-69" x="458.789062"/>
      <use xlink:href="#DejaVuSans-61" x="486.572266"/>
      <use xlink:href="#DejaVuSans-20" x="547.851562"/>
      <use xlink:href="#DejaVuSans-34" x="579.638672"/>
     </g>
    </g>
   </g>
  </g>
 </g>
 <defs>
  <clipPath id="p037738c464">
   <rect x="54.754531" y="31.4" width="412.92" height="238.392"/>
  </clipPath>
 </defs>
</svg>
