<?xml version="1.0" encoding="utf-8" standalone="no"?>
<!DOCTYPE svg PUBLIC "-//W3C//DTD SVG 1.1//EN"
  "http://www.w3.org/Graphics/SVG/1.1/DTD/svg11.dtd">
<svg xmlns:xlink="http://www.w3.org/1999/xlink" width="448.464531pt" height="309.525969pt" viewBox="0 0 448.464531 309.525969" xmlns="http://www.w3.org/2000/svg" version="1.1">
 <metadata>
  <rdf:RDF xmlns:dc="http://purl.org/dc/elements/1.1/" xmlns:cc="http://creativecommons.org/ns#" xmlns:rdf="http://www.w3.org/1999/02/22-rdf-syntax-ns#">
   <cc:Work>
    <dc:type rdf:resource="http://purl.org/dc/dcmitype/StillImage"/>
    <dc:date>2026-06-30T11:52:54.605894</dc:date>
    <dc:format>image/svg+xml</dc:format>
    <dc:creator>
     <cc:Agent>
      <dc:title>Matplotlib v3.9.2, https://matplotlib.org/</dc:title>
     </cc:Agent>
    </dc:creator>
   </cc:Work>
  </rdf:RDF>
 </metadata>
 <defs>
  <style type="text/css">*{stroke-linejoin: round; stroke-linecap: butt}</style>
 </defs>
 <g id="figure_1">
  <g id="patch_1">
   <path d="M 0 309.525969 
L 448.464531 309.525969 
L 448.464531 0 
L 0 0 
z
" style="fill: #ffffff"/>
  </g>
  <g id="axes_1">
   <g id="patch_2">
    <path d="M 49.552969 266.198 
L 428.992969 266.198 
L 428.992969 33.35 
L 49.552969 33.35 
z
" style="fill: #ffffff"/>
   </g>
   <g id="matplotlib.axis_1">
    <g id="xtick_1">
     <g id="line2d_1">
      <path d="M 49.552969 266.198 
L 49.552969 33.35 
" clip-path="url(#pfbbac9014f)" style="fill: none; stroke-dasharray: 0.8,1.28; stroke-dashoffset: 0; stroke: #b0b0b0; stroke-opacity: 0.3; stroke-width: 0.8"/>
     </g>
     <g id="line2d_2">
      <defs>
       <path id="md68994dffb" d="M 0 0 
L 0 3.5 
" style="stroke: #2c3e50; stroke-width: 0.8"/>
      </defs>
      <g>
       <use xlink:href="#md68994dffb" x="49.552969" y="266.198" style="fill: #2c3e50; stroke: #2c3e50; stroke-width: 0.8"/>
      </g>
     </g>
     <g id="text_1">
      <!-- 1.0 -->
      <g style="fill: #2c3e50" transform="translate(41.601406 280.796437) scale(0.1 -0.1)">
       <defs>
        <path id="DejaVuSans-31" d="M 794 531 
L 1825 531 
L 1825 4091 
L 703 3866 
L 703 4441 
L 1819 4666 
L 2450 4666 
L 2450 531 
L 3481 531 
L 3481 0 
L 794 0 
L 794 531 
z
" transform="scale(0.015625)"/>
        <path id="DejaVuSans-2e" d="M 684 794 
L 1344 794 
L 1344 0 
L 684 0 
L 684 794 
z
" transform="scale(0.015625)"/>
        <path id="DejaVuSans-30" d="M 2034 4250 
Q 1547 4250 1301 3770 
Q 1056 3291 1056 2328 
Q 1056 1369 1301 889 
Q 1547 409 2034 409 
Q 2525 409 2770 889 
Q 3016 1369 3016 2328 
Q 3016 3291 2770 3770 
Q 2525 4250 2034 4250 
z
M 2034 4750 
Q 2819 4750 3233 4129 
Q 3647 3509 3647 2328 
Q 3647 1150 3233 529 
Q 2819 -91 2034 -91 
Q 1250 -91 836 529 
Q 422 1150 422 2328 
Q 422 3509 836 4129 
Q 1250 4750 2034 4750 
z
" transform="scale(0.015625)"/>
       </defs>
       <use xlink:href="#DejaVuSans-31"/>
       <use xlink:href="#DejaVuSans-2e" x="63.623047"/>
       <use xlink:href="#DejaVuSans-30" x="95.410156"/>
      </g>
     </g>
    </g>
    <g id="xtick_2">
     <g id="line2d_3">
      <path d="M 112.792969 266.198 
L 112.792969 33.35 
" clip-path="url(#pfbbac9014f)" style="fill: none; stroke-dasharray: 0.8,1.28; stroke-dashoffset: 0; stroke: #b0b0b0; stroke-opacity: 0.3; stroke-width: 0.8"/>
     </g>
     <g id="line2d_4">
      <g>
       <use xlink:href="#md68994dffb" x="112.792969" y="266.198" style="fill: #2c3e50; stroke: #2c3e50; stroke-width: 0.8"/>
      </g>
     </g>
     <g id="text_2">
      <!-- 1.5 -->
      <g style="fill: #2c3e50" transform="translate(104.841406 280.796437) scale(0.1 -0.1)">
       <defs>
        <path id="DejaVuSans-35" d="M 691 4666 
L 3169 4666 
L 3169 4134 
L 1269 4134 
L 1269 2991 
Q 1406 3038 1543 3061 
Q 1681 3084 1819 3084 
Q 2600 3084 3056 2656 
Q 3513 2228 3513 1497 
Q 3513 744 3044 326 
Q 2575 -91 1722 -91 
Q 1428 -91 1123 -41 
Q 819 9 494 109 
L 494 744 
Q 775 591 1075 516 
Q 1375 441 1709 441 
Q 2250 441 2565 725 
Q 2881 1009 2881 1497 
Q 2881 1984 2565 2268 
Q 2250 2553 1709 2553 
Q 1456 2553 1204 2497 
Q 953 2441 691 2322 
L 691 4666 
z
" transform="scale(0.015625)"/>
       </defs>
       <use xlink:href="#DejaVuSans-31"/>
       <use xlink:href="#DejaVuSans-2e" x="63.623047"/>
       <use xlink:href="#DejaVuSans-35" x="95.410156"/>
      </g>
     </g>
    </g>
    <g id="xtick_3">
     <g id="line2d_5">
      <path d="M 176.032969 266.198 
L 176.032969 33.35 
" clip-path="url(#pfbbac9014f)" style="fill: none; stroke-dasharray: 0.8,1.28; stroke-dashoffset: 0; stroke: #b0b0b0; stroke-opacity: 0.3; stroke-width: 0.8"/>
     </g>
     <g id="line2d_6">
      <g>
       <use xlink:href="#md68994dffb" x="176.032969" y="266.198" style="fill: #2c3e50; stroke: #2c3e50; stroke-width: 0.8"/>
      </g>
     </g>
     <g id="text_3">
      <!-- 2.0 -->
      <g style="fill: #2c3e50" transform="translate(168.081406 280.796437) scale(0.1 -0.1)">
       <defs>
        <path id="DejaVuSans-32" d="M 1228 531 
L 3431 531 
L 3431 0 
L 469 0 
L 469 531 
Q 828 903 1448 1529 
Q 2069 2156 2228 2338 
Q 2531 2678 2651 2914 
Q 2772 3150 2772 3378 
Q 2772 3750 2511 3984 
Q 2250 4219 1831 4219 
Q 1534 4219 1204 4116 
Q 875 4013 500 3803 
L 500 4441 
Q 881 4594 1212 4672 
Q 1544 4750 1819 4750 
Q 2544 4750 2975 4387 
Q 3406 4025 3406 3419 
Q 3406 3131 3298 2873 
Q 3191 2616 2906 2266 
Q 2828 2175 2409 1742 
Q 1991 1309 1228 531 
z
" transform="scale(0.015625)"/>
       </defs>
       <use xlink:href="#DejaVuSans-32"/>
       <use xlink:href="#DejaVuSans-2e" x="63.623047"/>
       <use xlink:href="#DejaVuSans-30" x="95.410156"/>
      </g>
     </g>
    </g>
    <g id="xtick_4">
     <g id="line2d_7">
      <path d="M 239.272969 266.198 
L 239.272969 33.35 
" clip-path="url(#pfbbac9014f)" style="fill: none; stroke-dasharray: 0.8,1.28; stroke-dashoffset: 0; stroke: #b0b0b0; stroke-opacity: 0.3; stroke-width: 0.8"/>
     </g>
     <g id="line2d_8">
      <g>
       <use xlink:href="#md68994dffb" x="239.272969" y="266.198" style="fill: #2c3e50; stroke: #2c3e50; stroke-width: 0.8"/>
      </g>
     </g>
     <g id="text_4">
      <!-- 2.5 -->
      <g style="fill: #2c3e50" transform="translate(231.321406 280.796437) scale(0.1 -0.1)">
       <use xlink:href="#DejaVuSans-32"/>
       <use xlink:href="#DejaVuSans-2e" x="63.623047"/>
       <use xlink:href="#DejaVuSans-35" x="95.410156"/>
      </g>
     </g>
    </g>
    <g id="xtick_5">
     <g id="line2d_9">
      <path d="M 302.512969 266.198 
L 302.512969 33.35 
" clip-path="url(#pfbbac9014f)" style="fill: none; stroke-dasharray: 0.8,1.28; stroke-dashoffset: 0; stroke: #b0b0b0; stroke-opacity: 0.3; stroke-width: 0.8"/>
     </g>
     <g id="line2d_10">
      <g>
       <use xlink:href="#md68994dffb" x="302.512969" y="266.198" style="fill: #2c3e50; stroke: #2c3e50; stroke-width: 0.8"/>
      </g>
     </g>
     <g id="text_5">
      <!-- 3.0 -->
      <g style="fill: #2c3e50" transform="translate(294.561406 280.796437) scale(0.1 -0.1)">
       <defs>
        <path id="DejaVuSans-33" d="M 2597 2516 
Q 3050 2419 3304 2112 
Q 3559 1806 3559 1356 
Q 3559 666 3084 287 
Q 2609 -91 1734 -91 
Q 1441 -91 1130 -33 
Q 819 25 488 141 
L 488 750 
Q 750 597 1062 519 
Q 1375 441 1716 441 
Q 2309 441 2620 675 
Q 2931 909 2931 1356 
Q 2931 1769 2642 2001 
Q 2353 2234 1838 2234 
L 1294 2234 
L 1294 2753 
L 1863 2753 
Q 2328 2753 2575 2939 
Q 2822 3125 2822 3475 
Q 2822 3834 2567 4026 
Q 2313 4219 1838 4219 
Q 1578 4219 1281 4162 
Q 984 4106 628 3988 
L 628 4550 
Q 988 4650 1302 4700 
Q 1616 4750 1894 4750 
Q 2613 4750 3031 4423 
Q 3450 4097 3450 3541 
Q 3450 3153 3228 2886 
Q 3006 2619 2597 2516 
z
" transform="scale(0.015625)"/>
       </defs>
       <use xlink:href="#DejaVuSans-33"/>
       <use xlink:href="#DejaVuSans-2e" x="63.623047"/>
       <use xlink:href="#DejaVuSans-30" x="95.410156"/>
      </g>
     </g>
    </g>
    <g id="xtick_6">
     <g id="line2d_11">
      <path d="M 365.752969 266.198 
L 365.752969 33.35 
" clip-path="url(#pfbbac9014f)" style="fill: none; stroke-dasharray: 0.8,1.28; stroke-dashoffset: 0; stroke: #b0b0b0; stroke-opacity: 0.3; stroke-width: 0.8"/>
     </g>
     <g id="line2d_12">
      <g>
       <use xlink:href="#md68994dffb" x="365.752969" y="266.198" style="fill: #2c3e50; stroke: #2c3e50; stroke-width: 0.8"/>
      </g>
     </g>
     <g id="text_6">
      <!-- 3.5 -->
      <g style="fill: #2c3e50" transform="translate(357.801406 280.796437) scale(0.1 -0.1)">
       <use xlink:href="#DejaVuSans-33"/>
       <use xlink:href="#DejaVuSans-2e" x="63.623047"/>
       <use xlink:href="#DejaVuSans-35" x="95.410156"/>
      </g>
     </g>
    </g>
    <g id="xtick_7">
     <g id="line2d_13">
      <path d="M 428.992969 266.198 
L 428.992969 33.35 
" clip-path="url(#pfbbac9014f)" style="fill: none; stroke-dasharray: 0.8,1.28; stroke-dashoffset: 0; stroke: #b0b0b0; stroke-opacity: 0.3; stroke-width: 0.8"/>
     </g>
     <g id="line2d_14">
      <g>
       <use xlink:href="#md68994dffb" x="428.992969" y="266.198" style="fill: #2c3e50; stroke: #2c3e50; stroke-width: 0.8"/>
      </g>
     </g>
     <g id="text_7">
      <!-- 4.0 -->
      <g style="fill: #2c3e50" transform="translate(421.041406 280.796437) scale(0.1 -0.1)">
       <defs>
        <path id="DejaVuSans-34" d="M 2419 4116 
L 825 1625 
L 2419 1625 
L 2419 4116 
z
M 2253 4666 
L 3047 4666 
L 3047 1625 
L 3713 1625 
L 3713 1100 
L 3047 1100 
L 3047 0 
L 2419 0 
L 2419 1100 
L 313 1100 
L 313 1709 
L 2253 4666 
z
" transform="scale(0.015625)"/>
       </defs>
       <use xlink:href="#DejaVuSans-34"/>
       <use xlink:href="#DejaVuSans-2e" x="63.623047"/>
       <use xlink:href="#DejaVuSans-30" x="95.410156"/>
      </g>
     </g>
    </g>
    <g id="text_8">
     <!-- $k$  (cantidad de desvíos) -->
     <g transform="translate(161.877969 295.614328) scale(0.115 -0.115)">
      <defs>
       <path id="DejaVuSans-Oblique-6b" d="M 1172 4863 
L 1747 4863 
L 1197 2028 
L 3169 3500 
L 3916 3500 
L 1716 1825 
L 3322 0 
L 2625 0 
L 1131 1709 
L 800 0 
L 225 0 
L 1172 4863 
z
" transform="scale(0.015625)"/>
       <path id="DejaVuSans-Bold-20" transform="scale(0.015625)"/>
       <path id="DejaVuSans-Bold-28" d="M 2413 -844 
L 1484 -844 
Q 1006 -72 778 623 
Q 550 1319 550 2003 
Q 550 2688 779 3389 
Q 1009 4091 1484 4856 
L 2413 4856 
Q 2013 4116 1813 3408 
Q 1613 2700 1613 2009 
Q 1613 1319 1811 609 
Q 2009 -100 2413 -844 
z
" transform="scale(0.015625)"/>
       <path id="DejaVuSans-Bold-63" d="M 3366 3391 
L 3366 2478 
Q 3138 2634 2908 2709 
Q 2678 2784 2431 2784 
Q 1963 2784 1702 2511 
Q 1441 2238 1441 1747 
Q 1441 1256 1702 982 
Q 1963 709 2431 709 
Q 2694 709 2930 787 
Q 3166 866 3366 1019 
L 3366 103 
Q 3103 6 2833 -42 
Q 2563 -91 2291 -91 
Q 1344 -91 809 395 
Q 275 881 275 1747 
Q 275 2613 809 3098 
Q 1344 3584 2291 3584 
Q 2566 3584 2833 3536 
Q 3100 3488 3366 3391 
z
" transform="scale(0.015625)"/>
       <path id="DejaVuSans-Bold-61" d="M 2106 1575 
Q 1756 1575 1579 1456 
Q 1403 1338 1403 1106 
Q 1403 894 1545 773 
Q 1688 653 1941 653 
Q 2256 653 2472 879 
Q 2688 1106 2688 1447 
L 2688 1575 
L 2106 1575 
z
M 3816 1997 
L 3816 0 
L 2688 0 
L 2688 519 
Q 2463 200 2181 54 
Q 1900 -91 1497 -91 
Q 953 -91 614 226 
Q 275 544 275 1050 
Q 275 1666 698 1953 
Q 1122 2241 2028 2241 
L 2688 2241 
L 2688 2328 
Q 2688 2594 2478 2717 
Q 2269 2841 1825 2841 
Q 1466 2841 1156 2769 
Q 847 2697 581 2553 
L 581 3406 
Q 941 3494 1303 3539 
Q 1666 3584 2028 3584 
Q 2975 3584 3395 3211 
Q 3816 2838 3816 1997 
z
" transform="scale(0.015625)"/>
       <path id="DejaVuSans-Bold-6e" d="M 4056 2131 
L 4056 0 
L 2931 0 
L 2931 347 
L 2931 1631 
Q 2931 2084 2911 2256 
Q 2891 2428 2841 2509 
Q 2775 2619 2662 2680 
Q 2550 2741 2406 2741 
Q 2056 2741 1856 2470 
Q 1656 2200 1656 1722 
L 1656 0 
L 538 0 
L 538 3500 
L 1656 3500 
L 1656 2988 
Q 1909 3294 2193 3439 
Q 2478 3584 2822 3584 
Q 3428 3584 3742 3212 
Q 4056 2841 4056 2131 
z
" transform="scale(0.015625)"/>
       <path id="DejaVuSans-Bold-74" d="M 1759 4494 
L 1759 3500 
L 2913 3500 
L 2913 2700 
L 1759 2700 
L 1759 1216 
Q 1759 972 1856 886 
Q 1953 800 2241 800 
L 2816 800 
L 2816 0 
L 1856 0 
Q 1194 0 917 276 
Q 641 553 641 1216 
L 641 2700 
L 84 2700 
L 84 3500 
L 641 3500 
L 641 4494 
L 1759 4494 
z
" transform="scale(0.015625)"/>
       <path id="DejaVuSans-Bold-69" d="M 538 3500 
L 1656 3500 
L 1656 0 
L 538 0 
L 538 3500 
z
M 538 4863 
L 1656 4863 
L 1656 3950 
L 538 3950 
L 538 4863 
z
" transform="scale(0.015625)"/>
       <path id="DejaVuSans-Bold-64" d="M 2919 2988 
L 2919 4863 
L 4044 4863 
L 4044 0 
L 2919 0 
L 2919 506 
Q 2688 197 2409 53 
Q 2131 -91 1766 -91 
Q 1119 -91 703 423 
Q 288 938 288 1747 
Q 288 2556 703 3070 
Q 1119 3584 1766 3584 
Q 2128 3584 2408 3439 
Q 2688 3294 2919 2988 
z
M 2181 722 
Q 2541 722 2730 984 
Q 2919 1247 2919 1747 
Q 2919 2247 2730 2509 
Q 2541 2772 2181 2772 
Q 1825 2772 1636 2509 
Q 1447 2247 1447 1747 
Q 1447 1247 1636 984 
Q 1825 722 2181 722 
z
" transform="scale(0.015625)"/>
       <path id="DejaVuSans-Bold-65" d="M 4031 1759 
L 4031 1441 
L 1416 1441 
Q 1456 1047 1700 850 
Q 1944 653 2381 653 
Q 2734 653 3104 758 
Q 3475 863 3866 1075 
L 3866 213 
Q 3469 63 3072 -14 
Q 2675 -91 2278 -91 
Q 1328 -91 801 392 
Q 275 875 275 1747 
Q 275 2603 792 3093 
Q 1309 3584 2216 3584 
Q 3041 3584 3536 3087 
Q 4031 2591 4031 1759 
z
M 2881 2131 
Q 2881 2450 2695 2645 
Q 2509 2841 2209 2841 
Q 1884 2841 1681 2658 
Q 1478 2475 1428 2131 
L 2881 2131 
z
" transform="scale(0.015625)"/>
       <path id="DejaVuSans-Bold-73" d="M 3272 3391 
L 3272 2541 
Q 2913 2691 2578 2766 
Q 2244 2841 1947 2841 
Q 1628 2841 1473 2761 
Q 1319 2681 1319 2516 
Q 1319 2381 1436 2309 
Q 1553 2238 1856 2203 
L 2053 2175 
Q 2913 2066 3209 1816 
Q 3506 1566 3506 1031 
Q 3506 472 3093 190 
Q 2681 -91 1863 -91 
Q 1516 -91 1145 -36 
Q 775 19 384 128 
L 384 978 
Q 719 816 1070 734 
Q 1422 653 1784 653 
Q 2113 653 2278 743 
Q 2444 834 2444 1013 
Q 2444 1163 2330 1236 
Q 2216 1309 1875 1350 
L 1678 1375 
Q 931 1469 631 1722 
Q 331 1975 331 2491 
Q 331 3047 712 3315 
Q 1094 3584 1881 3584 
Q 2191 3584 2531 3537 
Q 2872 3491 3272 3391 
z
" transform="scale(0.015625)"/>
       <path id="DejaVuSans-Bold-76" d="M 97 3500 
L 1216 3500 
L 2088 1081 
L 2956 3500 
L 4078 3500 
L 2700 0 
L 1472 0 
L 97 3500 
z
" transform="scale(0.015625)"/>
       <path id="DejaVuSans-Bold-ed" d="M 538 3500 
L 1656 3500 
L 1656 0 
L 538 0 
L 538 3500 
z
M 1590 5119 
L 2474 5119 
L 1321 3944 
L 709 3944 
L 1590 5119 
z
" transform="scale(0.015625)"/>
       <path id="DejaVuSans-Bold-6f" d="M 2203 2784 
Q 1831 2784 1636 2517 
Q 1441 2250 1441 1747 
Q 1441 1244 1636 976 
Q 1831 709 2203 709 
Q 2569 709 2762 976 
Q 2956 1244 2956 1747 
Q 2956 2250 2762 2517 
Q 2569 2784 2203 2784 
z
M 2203 3584 
Q 3106 3584 3614 3096 
Q 4122 2609 4122 1747 
Q 4122 884 3614 396 
Q 3106 -91 2203 -91 
Q 1297 -91 786 396 
Q 275 884 275 1747 
Q 275 2609 786 3096 
Q 1297 3584 2203 3584 
z
" transform="scale(0.015625)"/>
       <path id="DejaVuSans-Bold-29" d="M 513 -844 
Q 913 -100 1113 609 
Q 1313 1319 1313 2009 
Q 1313 2700 1113 3408 
Q 913 4116 513 4856 
L 1441 4856 
Q 1916 4091 2145 3389 
Q 2375 2688 2375 2003 
Q 2375 1319 2147 623 
Q 1919 -72 1441 -844 
L 513 -844 
z
" transform="scale(0.015625)"/>
      </defs>
      <use xlink:href="#DejaVuSans-Oblique-6b" transform="translate(0 0.015625)"/>
      <use xlink:href="#DejaVuSans-Bold-20" transform="translate(57.910156 0.015625)"/>
      <use xlink:href="#DejaVuSans-Bold-20" transform="translate(92.724609 0.015625)"/>
      <use xlink:href="#DejaVuSans-Bold-28" transform="translate(127.539062 0.015625)"/>
      <use xlink:href="#DejaVuSans-Bold-63" transform="translate(173.242188 0.015625)"/>
      <use xlink:href="#DejaVuSans-Bold-61" transform="translate(232.519531 0.015625)"/>
      <use xlink:href="#DejaVuSans-Bold-6e" transform="translate(300 0.015625)"/>
      <use xlink:href="#DejaVuSans-Bold-74" transform="translate(371.191406 0.015625)"/>
      <use xlink:href="#DejaVuSans-Bold-69" transform="translate(418.994141 0.015625)"/>
      <use xlink:href="#DejaVuSans-Bold-64" transform="translate(453.271484 0.015625)"/>
      <use xlink:href="#DejaVuSans-Bold-61" transform="translate(524.853516 0.015625)"/>
      <use xlink:href="#DejaVuSans-Bold-64" transform="translate(592.333984 0.015625)"/>
      <use xlink:href="#DejaVuSans-Bold-20" transform="translate(663.916016 0.015625)"/>
      <use xlink:href="#DejaVuSans-Bold-64" transform="translate(698.730469 0.015625)"/>
      <use xlink:href="#DejaVuSans-Bold-65" transform="translate(770.3125 0.015625)"/>
      <use xlink:href="#DejaVuSans-Bold-20" transform="translate(838.134766 0.015625)"/>
      <use xlink:href="#DejaVuSans-Bold-64" transform="translate(872.949219 0.015625)"/>
      <use xlink:href="#DejaVuSans-Bold-65" transform="translate(944.53125 0.015625)"/>
      <use xlink:href="#DejaVuSans-Bold-73" transform="translate(1012.353516 0.015625)"/>
      <use xlink:href="#DejaVuSans-Bold-76" transform="translate(1071.875 0.015625)"/>
      <use xlink:href="#DejaVuSans-Bold-ed" transform="translate(1137.060547 0.015625)"/>
      <use xlink:href="#DejaVuSans-Bold-6f" transform="translate(1171.337891 0.015625)"/>
      <use xlink:href="#DejaVuSans-Bold-73" transform="translate(1240.039062 0.015625)"/>
      <use xlink:href="#DejaVuSans-Bold-29" transform="translate(1299.560547 0.015625)"/>
     </g>
    </g>
   </g>
   <g id="matplotlib.axis_2">
    <g id="ytick_1">
     <g id="line2d_15">
      <path d="M 49.552969 266.198 
L 428.992969 266.198 
" clip-path="url(#pfbbac9014f)" style="fill: none; stroke-dasharray: 0.8,1.28; stroke-dashoffset: 0; stroke: #b0b0b0; stroke-opacity: 0.3; stroke-width: 0.8"/>
     </g>
     <g id="line2d_16">
      <defs>
       <path id="mf829c03cf6" d="M 0 0 
L -3.5 0 
" style="stroke: #2c3e50; stroke-width: 0.8"/>
      </defs>
      <g>
       <use xlink:href="#mf829c03cf6" x="49.552969" y="266.198" style="fill: #2c3e50; stroke: #2c3e50; stroke-width: 0.8"/>
      </g>
     </g>
     <g id="text_9">
      <!-- 0.0 -->
      <g style="fill: #2c3e50" transform="translate(26.649844 269.997219) scale(0.1 -0.1)">
       <use xlink:href="#DejaVuSans-30"/>
       <use xlink:href="#DejaVuSans-2e" x="63.623047"/>
       <use xlink:href="#DejaVuSans-30" x="95.410156"/>
      </g>
     </g>
    </g>
    <g id="ytick_2">
     <g id="line2d_17">
      <path d="M 49.552969 221.845866 
L 428.992969 221.845866 
" clip-path="url(#pfbbac9014f)" style="fill: none; stroke-dasharray: 0.8,1.28; stroke-dashoffset: 0; stroke: #b0b0b0; stroke-opacity: 0.3; stroke-width: 0.8"/>
     </g>
     <g id="line2d_18">
      <g>
       <use xlink:href="#mf829c03cf6" x="49.552969" y="221.845866" style="fill: #2c3e50; stroke: #2c3e50; stroke-width: 0.8"/>
      </g>
     </g>
     <g id="text_10">
      <!-- 0.2 -->
      <g style="fill: #2c3e50" transform="translate(26.649844 225.645085) scale(0.1 -0.1)">
       <use xlink:href="#DejaVuSans-30"/>
       <use xlink:href="#DejaVuSans-2e" x="63.623047"/>
       <use xlink:href="#DejaVuSans-32" x="95.410156"/>
      </g>
     </g>
    </g>
    <g id="ytick_3">
     <g id="line2d_19">
      <path d="M 49.552969 177.493732 
L 428.992969 177.493732 
" clip-path="url(#pfbbac9014f)" style="fill: none; stroke-dasharray: 0.8,1.28; stroke-dashoffset: 0; stroke: #b0b0b0; stroke-opacity: 0.3; stroke-width: 0.8"/>
     </g>
     <g id="line2d_20">
      <g>
       <use xlink:href="#mf829c03cf6" x="49.552969" y="177.493732" style="fill: #2c3e50; stroke: #2c3e50; stroke-width: 0.8"/>
      </g>
     </g>
     <g id="text_11">
      <!-- 0.4 -->
      <g style="fill: #2c3e50" transform="translate(26.649844 181.292951) scale(0.1 -0.1)">
       <use xlink:href="#DejaVuSans-30"/>
       <use xlink:href="#DejaVuSans-2e" x="63.623047"/>
       <use xlink:href="#DejaVuSans-34" x="95.410156"/>
      </g>
     </g>
    </g>
    <g id="ytick_4">
     <g id="line2d_21">
      <path d="M 49.552969 133.141599 
L 428.992969 133.141599 
" clip-path="url(#pfbbac9014f)" style="fill: none; stroke-dasharray: 0.8,1.28; stroke-dashoffset: 0; stroke: #b0b0b0; stroke-opacity: 0.3; stroke-width: 0.8"/>
     </g>
     <g id="line2d_22">
      <g>
       <use xlink:href="#mf829c03cf6" x="49.552969" y="133.141599" style="fill: #2c3e50; stroke: #2c3e50; stroke-width: 0.8"/>
      </g>
     </g>
     <g id="text_12">
      <!-- 0.6 -->
      <g style="fill: #2c3e50" transform="translate(26.649844 136.940817) scale(0.1 -0.1)">
       <defs>
        <path id="DejaVuSans-36" d="M 2113 2584 
Q 1688 2584 1439 2293 
Q 1191 2003 1191 1497 
Q 1191 994 1439 701 
Q 1688 409 2113 409 
Q 2538 409 2786 701 
Q 3034 994 3034 1497 
Q 3034 2003 2786 2293 
Q 2538 2584 2113 2584 
z
M 3366 4563 
L 3366 3988 
Q 3128 4100 2886 4159 
Q 2644 4219 2406 4219 
Q 1781 4219 1451 3797 
Q 1122 3375 1075 2522 
Q 1259 2794 1537 2939 
Q 1816 3084 2150 3084 
Q 2853 3084 3261 2657 
Q 3669 2231 3669 1497 
Q 3669 778 3244 343 
Q 2819 -91 2113 -91 
Q 1303 -91 875 529 
Q 447 1150 447 2328 
Q 447 3434 972 4092 
Q 1497 4750 2381 4750 
Q 2619 4750 2861 4703 
Q 3103 4656 3366 4563 
z
" transform="scale(0.015625)"/>
       </defs>
       <use xlink:href="#DejaVuSans-30"/>
       <use xlink:href="#DejaVuSans-2e" x="63.623047"/>
       <use xlink:href="#DejaVuSans-36" x="95.410156"/>
      </g>
     </g>
    </g>
    <g id="ytick_5">
     <g id="line2d_23">
      <path d="M 49.552969 88.789465 
L 428.992969 88.789465 
" clip-path="url(#pfbbac9014f)" style="fill: none; stroke-dasharray: 0.8,1.28; stroke-dashoffset: 0; stroke: #b0b0b0; stroke-opacity: 0.3; stroke-width: 0.8"/>
     </g>
     <g id="line2d_24">
      <g>
       <use xlink:href="#mf829c03cf6" x="49.552969" y="88.789465" style="fill: #2c3e50; stroke: #2c3e50; stroke-width: 0.8"/>
      </g>
     </g>
     <g id="text_13">
      <!-- 0.8 -->
      <g style="fill: #2c3e50" transform="translate(26.649844 92.588684) scale(0.1 -0.1)">
       <defs>
        <path id="DejaVuSans-38" d="M 2034 2216 
Q 1584 2216 1326 1975 
Q 1069 1734 1069 1313 
Q 1069 891 1326 650 
Q 1584 409 2034 409 
Q 2484 409 2743 651 
Q 3003 894 3003 1313 
Q 3003 1734 2745 1975 
Q 2488 2216 2034 2216 
z
M 1403 2484 
Q 997 2584 770 2862 
Q 544 3141 544 3541 
Q 544 4100 942 4425 
Q 1341 4750 2034 4750 
Q 2731 4750 3128 4425 
Q 3525 4100 3525 3541 
Q 3525 3141 3298 2862 
Q 3072 2584 2669 2484 
Q 3125 2378 3379 2068 
Q 3634 1759 3634 1313 
Q 3634 634 3220 271 
Q 2806 -91 2034 -91 
Q 1263 -91 848 271 
Q 434 634 434 1313 
Q 434 1759 690 2068 
Q 947 2378 1403 2484 
z
M 1172 3481 
Q 1172 3119 1398 2916 
Q 1625 2713 2034 2713 
Q 2441 2713 2670 2916 
Q 2900 3119 2900 3481 
Q 2900 3844 2670 4047 
Q 2441 4250 2034 4250 
Q 1625 4250 1398 4047 
Q 1172 3844 1172 3481 
z
" transform="scale(0.015625)"/>
       </defs>
       <use xlink:href="#DejaVuSans-30"/>
       <use xlink:href="#DejaVuSans-2e" x="63.623047"/>
       <use xlink:href="#DejaVuSans-38" x="95.410156"/>
      </g>
     </g>
    </g>
    <g id="ytick_6">
     <g id="line2d_25">
      <path d="M 49.552969 44.437331 
L 428.992969 44.437331 
" clip-path="url(#pfbbac9014f)" style="fill: none; stroke-dasharray: 0.8,1.28; stroke-dashoffset: 0; stroke: #b0b0b0; stroke-opacity: 0.3; stroke-width: 0.8"/>
     </g>
     <g id="line2d_26">
      <g>
       <use xlink:href="#mf829c03cf6" x="49.552969" y="44.437331" style="fill: #2c3e50; stroke: #2c3e50; stroke-width: 0.8"/>
      </g>
     </g>
     <g id="text_14">
      <!-- 1.0 -->
      <g style="fill: #2c3e50" transform="translate(26.649844 48.23655) scale(0.1 -0.1)">
       <use xlink:href="#DejaVuSans-31"/>
       <use xlink:href="#DejaVuSans-2e" x="63.623047"/>
       <use xlink:href="#DejaVuSans-30" x="95.410156"/>
      </g>
     </g>
    </g>
    <g id="text_15">
     <!-- probabilidad -->
     <g transform="translate(20.258203 190.812828) rotate(-90) scale(0.115 -0.115)">
      <defs>
       <path id="DejaVuSans-Bold-70" d="M 1656 506 
L 1656 -1331 
L 538 -1331 
L 538 3500 
L 1656 3500 
L 1656 2988 
Q 1888 3294 2169 3439 
Q 2450 3584 2816 3584 
Q 3463 3584 3878 3070 
Q 4294 2556 4294 1747 
Q 4294 938 3878 423 
Q 3463 -91 2816 -91 
Q 2450 -91 2169 54 
Q 1888 200 1656 506 
z
M 2400 2772 
Q 2041 2772 1848 2508 
Q 1656 2244 1656 1747 
Q 1656 1250 1848 986 
Q 2041 722 2400 722 
Q 2759 722 2948 984 
Q 3138 1247 3138 1747 
Q 3138 2247 2948 2509 
Q 2759 2772 2400 2772 
z
" transform="scale(0.015625)"/>
       <path id="DejaVuSans-Bold-72" d="M 3138 2547 
Q 2991 2616 2845 2648 
Q 2700 2681 2553 2681 
Q 2122 2681 1889 2404 
Q 1656 2128 1656 1613 
L 1656 0 
L 538 0 
L 538 3500 
L 1656 3500 
L 1656 2925 
Q 1872 3269 2151 3426 
Q 2431 3584 2822 3584 
Q 2878 3584 2943 3579 
Q 3009 3575 3134 3559 
L 3138 2547 
z
" transform="scale(0.015625)"/>
       <path id="DejaVuSans-Bold-62" d="M 2400 722 
Q 2759 722 2948 984 
Q 3138 1247 3138 1747 
Q 3138 2247 2948 2509 
Q 2759 2772 2400 2772 
Q 2041 2772 1848 2508 
Q 1656 2244 1656 1747 
Q 1656 1250 1848 986 
Q 2041 722 2400 722 
z
M 1656 2988 
Q 1888 3294 2169 3439 
Q 2450 3584 2816 3584 
Q 3463 3584 3878 3070 
Q 4294 2556 4294 1747 
Q 4294 938 3878 423 
Q 3463 -91 2816 -91 
Q 2450 -91 2169 54 
Q 1888 200 1656 506 
L 1656 0 
L 538 0 
L 538 4863 
L 1656 4863 
L 1656 2988 
z
" transform="scale(0.015625)"/>
       <path id="DejaVuSans-Bold-6c" d="M 538 4863 
L 1656 4863 
L 1656 0 
L 538 0 
L 538 4863 
z
" transform="scale(0.015625)"/>
      </defs>
      <use xlink:href="#DejaVuSans-Bold-70"/>
      <use xlink:href="#DejaVuSans-Bold-72" x="71.582031"/>
      <use xlink:href="#DejaVuSans-Bold-6f" x="120.898438"/>
      <use xlink:href="#DejaVuSans-Bold-62" x="189.599609"/>
      <use xlink:href="#DejaVuSans-Bold-61" x="261.181641"/>
      <use xlink:href="#DejaVuSans-Bold-62" x="328.662109"/>
      <use xlink:href="#DejaVuSans-Bold-69" x="400.244141"/>
      <use xlink:href="#DejaVuSans-Bold-6c" x="434.521484"/>
      <use xlink:href="#DejaVuSans-Bold-69" x="468.798828"/>
      <use xlink:href="#DejaVuSans-Bold-64" x="503.076172"/>
      <use xlink:href="#DejaVuSans-Bold-61" x="574.658203"/>
      <use xlink:href="#DejaVuSans-Bold-64" x="642.138672"/>
     </g>
    </g>
   </g>
   <g id="PolyCollection_1">
    <defs>
     <path id="m5adbb99346" d="M 49.552969 -265.088638 
L 49.552969 -113.694959 
L 50.821999 -112.62358 
L 52.091029 -111.563003 
L 53.360059 -110.513226 
L 54.629089 -109.474243 
L 55.898119 -108.446046 
L 57.167149 -107.428626 
L 58.436179 -106.421971 
L 59.70521 -105.426068 
L 60.97424 -104.440901 
L 62.24327 -103.466452 
L 63.5123 -102.502703 
L 64.78133 -101.54963 
L 66.05036 -100.607212 
L 67.31939 -99.675421 
L 68.58842 -98.754233 
L 69.85745 -97.843617 
L 71.12648 -96.943542 
L 72.395511 -96.053977 
L 73.664541 -95.174888 
L 74.933571 -94.306237 
L 76.202601 -93.447988 
L 77.471631 -92.600101 
L 78.740661 -91.762536 
L 80.009691 -90.93525 
L 81.278721 -90.1182 
L 82.547751 -89.31134 
L 83.816781 -88.514622 
L 85.085812 -87.728 
L 86.354842 -86.951423 
L 87.623872 -86.184839 
L 88.892902 -85.428197 
L 90.161932 -84.681443 
L 91.430962 -83.944522 
L 92.699992 -83.217377 
L 93.969022 -82.499951 
L 95.238052 -81.792185 
L 96.507082 -81.09402 
L 97.776113 -80.405395 
L 99.045143 -79.726247 
L 100.314173 -79.056514 
L 101.583203 -78.396132 
L 102.852233 -77.745035 
L 104.121263 -77.103158 
L 105.390293 -76.470434 
L 106.659323 -75.846795 
L 107.928353 -75.232172 
L 109.197383 -74.626497 
L 110.466414 -74.029699 
L 111.735444 -73.441706 
L 113.004474 -72.862449 
L 114.273504 -72.291853 
L 115.542534 -71.729846 
L 116.811564 -71.176356 
L 118.080594 -70.631306 
L 119.349624 -70.094623 
L 120.618654 -69.566232 
L 121.887684 -69.046057 
L 123.156715 -68.534021 
L 124.425745 -68.030049 
L 125.694775 -67.534062 
L 126.963805 -67.045983 
L 128.232835 -66.565736 
L 129.501865 -66.093241 
L 130.770895 -65.62842 
L 132.039925 -65.171196 
L 133.308955 -64.721488 
L 134.577985 -64.279218 
L 135.847016 -63.844306 
L 137.116046 -63.416674 
L 138.385076 -62.996241 
L 139.654106 -62.582929 
L 140.923136 -62.176657 
L 142.192166 -61.777345 
L 143.461196 -61.384915 
L 144.730226 -60.999286 
L 145.999256 -60.620378 
L 147.268286 -60.248112 
L 148.537317 -59.882408 
L 149.806347 -59.523187 
L 151.075377 -59.170369 
L 152.344407 -58.823875 
L 153.613437 -58.483626 
L 154.882467 -58.149543 
L 156.151497 -57.821547 
L 157.420527 -57.49956 
L 158.689557 -57.183504 
L 159.958587 -56.8733 
L 161.227618 -56.568871 
L 162.496648 -56.270139 
L 163.765678 -55.977028 
L 165.034708 -55.68946 
L 166.303738 -55.407359 
L 167.572768 -55.130649 
L 168.841798 -54.859254 
L 170.110828 -54.593099 
L 171.379858 -54.332109 
L 172.648888 -54.07621 
L 173.917919 -53.825327 
L 175.186949 -53.579388 
L 176.455979 -53.338318 
L 177.725009 -53.102045 
L 178.994039 -52.870497 
L 180.263069 -52.643603 
L 181.532099 -52.421291 
L 182.801129 -52.203491 
L 184.070159 -51.990132 
L 185.339189 -51.781145 
L 186.60822 -51.576461 
L 187.87725 -51.376012 
L 189.14628 -51.17973 
L 190.41531 -50.987547 
L 191.68434 -50.799397 
L 192.95337 -50.615214 
L 194.2224 -50.434932 
L 195.49143 -50.258486 
L 196.76046 -50.085813 
L 198.02949 -49.916848 
L 199.298521 -49.751528 
L 200.567551 -49.589792 
L 201.836581 -49.431577 
L 203.105611 -49.276822 
L 204.374641 -49.125468 
L 205.643671 -48.977453 
L 206.912701 -48.832719 
L 208.181731 -48.691208 
L 209.450761 -48.552861 
L 210.719791 -48.417622 
L 211.988822 -48.285434 
L 213.257852 -48.156241 
L 214.526882 -48.029988 
L 215.795912 -47.906621 
L 217.064942 -47.786085 
L 218.333972 -47.668328 
L 219.603002 -47.553297 
L 220.872032 -47.44094 
L 222.141062 -47.331206 
L 223.410092 -47.224046 
L 224.679123 -47.119408 
L 225.948153 -47.017244 
L 227.217183 -46.917505 
L 228.486213 -46.820144 
L 229.755243 -46.725113 
L 231.024273 -46.632367 
L 232.293303 -46.541858 
L 233.562333 -46.453543 
L 234.831363 -46.367377 
L 236.100393 -46.283315 
L 237.369424 -46.201315 
L 238.638454 -46.121334 
L 239.907484 -46.043331 
L 241.176514 -45.967263 
L 242.445544 -45.893091 
L 243.714574 -45.820775 
L 244.983604 -45.750275 
L 246.252634 -45.681552 
L 247.521664 -45.614569 
L 248.790695 -45.549288 
L 250.059725 -45.485672 
L 251.328755 -45.423685 
L 252.597785 -45.363291 
L 253.866815 -45.304456 
L 255.135845 -45.247144 
L 256.404875 -45.191322 
L 257.673905 -45.136957 
L 258.942935 -45.084016 
L 260.211965 -45.032467 
L 261.480996 -44.982279 
L 262.750026 -44.933419 
L 264.019056 -44.885859 
L 265.288086 -44.839568 
L 266.557116 -44.794517 
L 267.826146 -44.750676 
L 269.095176 -44.708018 
L 270.364206 -44.666516 
L 271.633236 -44.626141 
L 272.902266 -44.586867 
L 274.171297 -44.548668 
L 275.440327 -44.511518 
L 276.709357 -44.475393 
L 277.978387 -44.440266 
L 279.247417 -44.406115 
L 280.516447 -44.372915 
L 281.785477 -44.340644 
L 283.054507 -44.309278 
L 284.323537 -44.278795 
L 285.592567 -44.249173 
L 286.861598 -44.22039 
L 288.130628 -44.192427 
L 289.399658 -44.165261 
L 290.668688 -44.138874 
L 291.937718 -44.113245 
L 293.206748 -44.088355 
L 294.475778 -44.064186 
L 295.744808 -44.040718 
L 297.013838 -44.017933 
L 298.282868 -43.995815 
L 299.551899 -43.974345 
L 300.820929 -43.953507 
L 302.089959 -43.933284 
L 303.358989 -43.913661 
L 304.628019 -43.89462 
L 305.897049 -43.876147 
L 307.166079 -43.858226 
L 308.435109 -43.840844 
L 309.704139 -43.823984 
L 310.973169 -43.807634 
L 312.2422 -43.79178 
L 313.51123 -43.776407 
L 314.78026 -43.761503 
L 316.04929 -43.747055 
L 317.31832 -43.733051 
L 318.58735 -43.719478 
L 319.85638 -43.706324 
L 321.12541 -43.693577 
L 322.39444 -43.681227 
L 323.66347 -43.669262 
L 324.932501 -43.657671 
L 326.201531 -43.646444 
L 327.470561 -43.63557 
L 328.739591 -43.62504 
L 330.008621 -43.614843 
L 331.277651 -43.60497 
L 332.546681 -43.595411 
L 333.815711 -43.586158 
L 335.084741 -43.577202 
L 336.353771 -43.568533 
L 337.622802 -43.560145 
L 338.891832 -43.552027 
L 340.160862 -43.544173 
L 341.429892 -43.536575 
L 342.698922 -43.529224 
L 343.967952 -43.522115 
L 345.236982 -43.515238 
L 346.506012 -43.508589 
L 347.775042 -43.502158 
L 349.044072 -43.495941 
L 350.313103 -43.489931 
L 351.582133 -43.484121 
L 352.851163 -43.478505 
L 354.120193 -43.473077 
L 355.389223 -43.467831 
L 356.658253 -43.462763 
L 357.927283 -43.457866 
L 359.196313 -43.453135 
L 360.465343 -43.448564 
L 361.734373 -43.44415 
L 363.003404 -43.439887 
L 364.272434 -43.435769 
L 365.541464 -43.431794 
L 366.810494 -43.427955 
L 368.079524 -43.42425 
L 369.348554 -43.420673 
L 370.617584 -43.41722 
L 371.886614 -43.413888 
L 373.155644 -43.410672 
L 374.424674 -43.407569 
L 375.693705 -43.404575 
L 376.962735 -43.401687 
L 378.231765 -43.398901 
L 379.500795 -43.396213 
L 380.769825 -43.393622 
L 382.038855 -43.391122 
L 383.307885 -43.388712 
L 384.576915 -43.386389 
L 385.845945 -43.384149 
L 387.114975 -43.38199 
L 388.384006 -43.379908 
L 389.653036 -43.377903 
L 390.922066 -43.37597 
L 392.191096 -43.374107 
L 393.460126 -43.372313 
L 394.729156 -43.370584 
L 395.998186 -43.368919 
L 397.267216 -43.367315 
L 398.536246 -43.36577 
L 399.805276 -43.364282 
L 401.074307 -43.36285 
L 402.343337 -43.361471 
L 403.612367 -43.360143 
L 404.881397 -43.358865 
L 406.150427 -43.357635 
L 407.419457 -43.356452 
L 408.688487 -43.355312 
L 409.957517 -43.354216 
L 411.226547 -43.353162 
L 412.495577 -43.352147 
L 413.764608 -43.351171 
L 415.033638 -43.350233 
L 416.302668 -43.34933 
L 417.571698 -43.348462 
L 418.840728 -43.347627 
L 420.109758 -43.346825 
L 421.378788 -43.346053 
L 422.647818 -43.345312 
L 423.916848 -43.344599 
L 425.185878 -43.343914 
L 426.454909 -43.343256 
L 427.723939 -43.342623 
L 428.992969 -43.342016 
L 428.992969 -57.188011 
L 428.992969 -57.188011 
L 427.723939 -57.257805 
L 426.454909 -57.328128 
L 425.185878 -57.398985 
L 423.916848 -57.470381 
L 422.647818 -57.542322 
L 421.378788 -57.614813 
L 420.109758 -57.687861 
L 418.840728 -57.761469 
L 417.571698 -57.835646 
L 416.302668 -57.910395 
L 415.033638 -57.985724 
L 413.764608 -58.061638 
L 412.495577 -58.138143 
L 411.226547 -58.215246 
L 409.957517 -58.292953 
L 408.688487 -58.371269 
L 407.419457 -58.450202 
L 406.150427 -58.529757 
L 404.881397 -58.609943 
L 403.612367 -58.690764 
L 402.343337 -58.772228 
L 401.074307 -58.854342 
L 399.805276 -58.937112 
L 398.536246 -59.020546 
L 397.267216 -59.104651 
L 395.998186 -59.189434 
L 394.729156 -59.274902 
L 393.460126 -59.361062 
L 392.191096 -59.447923 
L 390.922066 -59.535492 
L 389.653036 -59.623776 
L 388.384006 -59.712783 
L 387.114975 -59.802522 
L 385.845945 -59.893 
L 384.576915 -59.984225 
L 383.307885 -60.076206 
L 382.038855 -60.168951 
L 380.769825 -60.262469 
L 379.500795 -60.356767 
L 378.231765 -60.451856 
L 376.962735 -60.547743 
L 375.693705 -60.644438 
L 374.424674 -60.74195 
L 373.155644 -60.840287 
L 371.886614 -60.93946 
L 370.617584 -61.039478 
L 369.348554 -61.14035 
L 368.079524 -61.242086 
L 366.810494 -61.344697 
L 365.541464 -61.448191 
L 364.272434 -61.55258 
L 363.003404 -61.657874 
L 361.734373 -61.764083 
L 360.465343 -61.871217 
L 359.196313 -61.979289 
L 357.927283 -62.088307 
L 356.658253 -62.198285 
L 355.389223 -62.309232 
L 354.120193 -62.42116 
L 352.851163 -62.534082 
L 351.582133 -62.648008 
L 350.313103 -62.762951 
L 349.044072 -62.878923 
L 347.775042 -62.995936 
L 346.506012 -63.114002 
L 345.236982 -63.233135 
L 343.967952 -63.353347 
L 342.698922 -63.474652 
L 341.429892 -63.597062 
L 340.160862 -63.720591 
L 338.891832 -63.845252 
L 337.622802 -63.971061 
L 336.353771 -64.09803 
L 335.084741 -64.226174 
L 333.815711 -64.355507 
L 332.546681 -64.486045 
L 331.277651 -64.617803 
L 330.008621 -64.750795 
L 328.739591 -64.885036 
L 327.470561 -65.020544 
L 326.201531 -65.157334 
L 324.932501 -65.295421 
L 323.66347 -65.434823 
L 322.39444 -65.575556 
L 321.12541 -65.717637 
L 319.85638 -65.861083 
L 318.58735 -66.005913 
L 317.31832 -66.152143 
L 316.04929 -66.299792 
L 314.78026 -66.448879 
L 313.51123 -66.599422 
L 312.2422 -66.751439 
L 310.973169 -66.904952 
L 309.704139 -67.059978 
L 308.435109 -67.216538 
L 307.166079 -67.374653 
L 305.897049 -67.534343 
L 304.628019 -67.695629 
L 303.358989 -67.858532 
L 302.089959 -68.023074 
L 300.820929 -68.189277 
L 299.551899 -68.357164 
L 298.282868 -68.526757 
L 297.013838 -68.69808 
L 295.744808 -68.871156 
L 294.475778 -69.046009 
L 293.206748 -69.222663 
L 291.937718 -69.401144 
L 290.668688 -69.581477 
L 289.399658 -69.763687 
L 288.130628 -69.947801 
L 286.861598 -70.133844 
L 285.592567 -70.321845 
L 284.323537 -70.511831 
L 283.054507 -70.703829 
L 281.785477 -70.897869 
L 280.516447 -71.093979 
L 279.247417 -71.292189 
L 277.978387 -71.492529 
L 276.709357 -71.69503 
L 275.440327 -71.899722 
L 274.171297 -72.106638 
L 272.902266 -72.31581 
L 271.633236 -72.527271 
L 270.364206 -72.741054 
L 269.095176 -72.957194 
L 267.826146 -73.175724 
L 266.557116 -73.396682 
L 265.288086 -73.620102 
L 264.019056 -73.846021 
L 262.750026 -74.074477 
L 261.480996 -74.305509 
L 260.211965 -74.539154 
L 258.942935 -74.775452 
L 257.673905 -75.014444 
L 256.404875 -75.256171 
L 255.135845 -75.500674 
L 253.866815 -75.747997 
L 252.597785 -75.998183 
L 251.328755 -76.251276 
L 250.059725 -76.507322 
L 248.790695 -76.766366 
L 247.521664 -77.028455 
L 246.252634 -77.293638 
L 244.983604 -77.561964 
L 243.714574 -77.833482 
L 242.445544 -78.108243 
L 241.176514 -78.386298 
L 239.907484 -78.667702 
L 238.638454 -78.952507 
L 237.369424 -79.240769 
L 236.100393 -79.532544 
L 234.831363 -79.82789 
L 233.562333 -80.126864 
L 232.293303 -80.429527 
L 231.024273 -80.735939 
L 229.755243 -81.046162 
L 228.486213 -81.360261 
L 227.217183 -81.6783 
L 225.948153 -82.000345 
L 224.679123 -82.326463 
L 223.410092 -82.656724 
L 222.141062 -82.991198 
L 220.872032 -83.329957 
L 219.603002 -83.673075 
L 218.333972 -84.020626 
L 217.064942 -84.372688 
L 215.795912 -84.729339 
L 214.526882 -85.090658 
L 213.257852 -85.456728 
L 211.988822 -85.827632 
L 210.719791 -86.203457 
L 209.450761 -86.584288 
L 208.181731 -86.970216 
L 206.912701 -87.361332 
L 205.643671 -87.757729 
L 204.374641 -88.159504 
L 203.105611 -88.566753 
L 201.836581 -88.979576 
L 200.567551 -89.398076 
L 199.298521 -89.822357 
L 198.02949 -90.252526 
L 196.76046 -90.688693 
L 195.49143 -91.13097 
L 194.2224 -91.579471 
L 192.95337 -92.034314 
L 191.68434 -92.495618 
L 190.41531 -92.963508 
L 189.14628 -93.438108 
L 187.87725 -93.919548 
L 186.60822 -94.407959 
L 185.339189 -94.903477 
L 184.070159 -95.406241 
L 182.801129 -95.916393 
L 181.532099 -96.434077 
L 180.263069 -96.959444 
L 178.994039 -97.492645 
L 177.725009 -98.033837 
L 176.455979 -98.583181 
L 175.186949 -99.140842 
L 173.917919 -99.706987 
L 172.648888 -100.281791 
L 171.379858 -100.86543 
L 170.110828 -101.458087 
L 168.841798 -102.059948 
L 167.572768 -102.671204 
L 166.303738 -103.292054 
L 165.034708 -103.922697 
L 163.765678 -104.563342 
L 162.496648 -105.2142 
L 161.227618 -105.875491 
L 159.958587 -106.547438 
L 158.689557 -107.230272 
L 157.420527 -107.924228 
L 156.151497 -108.629551 
L 154.882467 -109.346489 
L 153.613437 -110.075298 
L 152.344407 -110.816244 
L 151.075377 -111.569595 
L 149.806347 -112.335632 
L 148.537317 -113.11464 
L 147.268286 -113.906913 
L 145.999256 -114.712756 
L 144.730226 -115.532479 
L 143.461196 -116.366403 
L 142.192166 -117.214858 
L 140.923136 -118.078183 
L 139.654106 -118.956728 
L 138.385076 -119.850854 
L 137.116046 -120.76093 
L 135.847016 -121.687338 
L 134.577985 -122.630471 
L 133.308955 -123.590735 
L 132.039925 -124.568546 
L 130.770895 -125.564336 
L 129.501865 -126.578546 
L 128.232835 -127.611636 
L 126.963805 -128.664075 
L 125.694775 -129.736351 
L 124.425745 -130.828964 
L 123.156715 -131.942433 
L 121.887684 -133.077292 
L 120.618654 -134.234092 
L 119.349624 -135.413403 
L 118.080594 -136.615811 
L 116.811564 -137.841925 
L 115.542534 -139.092372 
L 114.273504 -140.367799 
L 113.004474 -141.668878 
L 111.735444 -142.996299 
L 110.466414 -144.350779 
L 109.197383 -145.733059 
L 107.928353 -147.143905 
L 106.659323 -148.584109 
L 105.390293 -150.054491 
L 104.121263 -151.555901 
L 102.852233 -153.089218 
L 101.583203 -154.655351 
L 100.314173 -156.255245 
L 99.045143 -157.889877 
L 97.776113 -159.560259 
L 96.507082 -161.267443 
L 95.238052 -163.012516 
L 93.969022 -164.796609 
L 92.699992 -166.620893 
L 91.430962 -168.486586 
L 90.161932 -170.394949 
L 88.892902 -172.347294 
L 87.623872 -174.344983 
L 86.354842 -176.389431 
L 85.085812 -178.482108 
L 83.816781 -180.624545 
L 82.547751 -182.81833 
L 81.278721 -185.065119 
L 80.009691 -187.366631 
L 78.740661 -189.72466 
L 77.471631 -192.141071 
L 76.202601 -194.617807 
L 74.933571 -197.156893 
L 73.664541 -199.760439 
L 72.395511 -202.430646 
L 71.12648 -205.16981 
L 69.85745 -207.980325 
L 68.58842 -210.864691 
L 67.31939 -213.825518 
L 66.05036 -216.865534 
L 64.78133 -219.987586 
L 63.5123 -223.194654 
L 62.24327 -226.489853 
L 60.97424 -229.876442 
L 59.70521 -233.357832 
L 58.436179 -236.937593 
L 57.167149 -240.619469 
L 55.898119 -244.407379 
L 54.629089 -248.305435 
L 53.360059 -252.31795 
L 52.091029 -256.449447 
L 50.821999 -260.70468 
L 49.552969 -265.088638 
z
" style="stroke: #e67e22; stroke-opacity: 0.15"/>
    </defs>
    <g clip-path="url(#pfbbac9014f)">
     <use xlink:href="#m5adbb99346" x="0" y="309.525969" style="fill: #e67e22; fill-opacity: 0.15; stroke: #e67e22; stroke-opacity: 0.15"/>
    </g>
   </g>
   <g id="line2d_27">
    <path d="M 49.552969 44.437331 
L 53.360059 57.208019 
L 57.167149 68.9065 
L 60.97424 79.649527 
L 64.78133 89.538383 
L 68.58842 98.661278 
L 72.395511 107.095322 
L 76.202601 114.908162 
L 80.009691 122.159337 
L 83.816781 128.901424 
L 87.623872 135.180986 
L 91.430962 141.039383 
L 95.238052 146.513453 
L 99.045143 151.636092 
L 102.852233 156.436751 
L 106.659323 160.94186 
L 110.466414 165.175189 
L 115.542534 170.433597 
L 120.618654 175.291877 
L 125.694775 179.789618 
L 130.770895 183.961633 
L 135.847016 187.838631 
L 140.923136 191.447786 
L 145.999256 194.813213 
L 151.075377 197.956374 
L 157.420527 201.601741 
L 163.765678 204.962627 
L 170.110828 208.067882 
L 176.455979 210.942787 
L 184.070159 214.119727 
L 191.68434 217.03035 
L 199.298521 219.703612 
L 206.912701 222.164637 
L 215.795912 224.79663 
L 224.679123 227.199506 
L 234.831363 229.698079 
L 244.983604 231.964005 
L 256.404875 234.269798 
L 267.826146 236.350244 
L 280.516447 238.43199 
L 294.475778 240.47996 
L 308.435109 242.30943 
L 323.66347 244.091146 
L 340.160862 245.805378 
L 359.196313 247.54668 
L 379.500795 249.169201 
L 401.074307 250.671627 
L 425.185878 252.126984 
L 428.992969 252.337958 
L 428.992969 252.337958 
" clip-path="url(#pfbbac9014f)" style="fill: none; stroke: #c0392b; stroke-width: 2.6; stroke-linecap: square"/>
   </g>
   <g id="line2d_28">
    <path d="M 49.552969 195.83101 
L 55.898119 201.079923 
L 62.24327 206.059516 
L 68.58842 210.771736 
L 74.933571 215.219732 
L 81.278721 219.407769 
L 87.623872 223.34113 
L 93.969022 227.026018 
L 100.314173 230.469455 
L 106.659323 233.679174 
L 113.004474 236.66352 
L 119.349624 239.431345 
L 125.694775 241.991907 
L 133.308955 244.804481 
L 140.923136 247.349312 
L 148.537317 249.643561 
L 156.151497 251.704421 
L 163.765678 253.548941 
L 172.648888 255.449759 
L 181.532099 257.104678 
L 190.41531 258.538422 
L 200.567551 259.936177 
L 210.719791 261.108346 
L 222.141062 262.194762 
L 234.831363 263.158592 
L 248.790695 263.976681 
L 264.019056 264.64011 
L 281.785477 265.185325 
L 303.358989 265.612308 
L 331.277651 265.920999 
L 370.617584 266.108749 
L 428.992969 266.183953 
L 428.992969 266.183953 
" clip-path="url(#pfbbac9014f)" style="fill: none; stroke: #2980b9; stroke-width: 2.6; stroke-linecap: square"/>
   </g>
   <g id="patch_3">
    <path d="M 49.552969 266.198 
L 49.552969 33.35 
" style="fill: none; stroke: #2c3e50; stroke-width: 1.2; stroke-linejoin: miter; stroke-linecap: square"/>
   </g>
   <g id="patch_4">
    <path d="M 49.552969 266.198 
L 428.992969 266.198 
" style="fill: none; stroke: #2c3e50; stroke-width: 1.2; stroke-linejoin: miter; stroke-linecap: square"/>
   </g>
   <g id="text_16">
    <!-- Chebyshev: cota $1/k^2$ vs. $P(|X-\mu|\geq k\sigma)$ real -->
    <g transform="translate(85.417969 23.35) scale(0.13 -0.13)">
     <defs>
      <path id="DejaVuSans-Bold-43" d="M 4288 256 
Q 3956 84 3597 -3 
Q 3238 -91 2847 -91 
Q 1681 -91 1000 561 
Q 319 1213 319 2328 
Q 319 3447 1000 4098 
Q 1681 4750 2847 4750 
Q 3238 4750 3597 4662 
Q 3956 4575 4288 4403 
L 4288 3438 
Q 3953 3666 3628 3772 
Q 3303 3878 2944 3878 
Q 2300 3878 1931 3465 
Q 1563 3053 1563 2328 
Q 1563 1606 1931 1193 
Q 2300 781 2944 781 
Q 3303 781 3628 887 
Q 3953 994 4288 1222 
L 4288 256 
z
" transform="scale(0.015625)"/>
      <path id="DejaVuSans-Bold-68" d="M 4056 2131 
L 4056 0 
L 2931 0 
L 2931 347 
L 2931 1625 
Q 2931 2084 2911 2256 
Q 2891 2428 2841 2509 
Q 2775 2619 2662 2680 
Q 2550 2741 2406 2741 
Q 2056 2741 1856 2470 
Q 1656 2200 1656 1722 
L 1656 0 
L 538 0 
L 538 4863 
L 1656 4863 
L 1656 2988 
Q 1909 3294 2193 3439 
Q 2478 3584 2822 3584 
Q 3428 3584 3742 3212 
Q 4056 2841 4056 2131 
z
" transform="scale(0.015625)"/>
      <path id="DejaVuSans-Bold-79" d="M 78 3500 
L 1197 3500 
L 2138 1125 
L 2938 3500 
L 4056 3500 
L 2584 -331 
Q 2363 -916 2067 -1148 
Q 1772 -1381 1288 -1381 
L 641 -1381 
L 641 -647 
L 991 -647 
Q 1275 -647 1404 -556 
Q 1534 -466 1606 -231 
L 1638 -134 
L 78 3500 
z
" transform="scale(0.015625)"/>
      <path id="DejaVuSans-Bold-3a" d="M 716 3500 
L 1844 3500 
L 1844 2291 
L 716 2291 
L 716 3500 
z
M 716 1209 
L 1844 1209 
L 1844 0 
L 716 0 
L 716 1209 
z
" transform="scale(0.015625)"/>
      <path id="DejaVuSans-2f" d="M 1625 4666 
L 2156 4666 
L 531 -594 
L 0 -594 
L 1625 4666 
z
" transform="scale(0.015625)"/>
      <path id="DejaVuSans-Bold-2e" d="M 653 1209 
L 1778 1209 
L 1778 0 
L 653 0 
L 653 1209 
z
" transform="scale(0.015625)"/>
      <path id="DejaVuSans-Oblique-50" d="M 1081 4666 
L 2541 4666 
Q 3178 4666 3512 4369 
Q 3847 4072 3847 3500 
Q 3847 2731 3353 2303 
Q 2859 1875 1966 1875 
L 1172 1875 
L 806 0 
L 172 0 
L 1081 4666 
z
M 1613 4147 
L 1275 2394 
L 2069 2394 
Q 2606 2394 2893 2669 
Q 3181 2944 3181 3456 
Q 3181 3784 2986 3965 
Q 2791 4147 2438 4147 
L 1613 4147 
z
" transform="scale(0.015625)"/>
      <path id="DejaVuSans-28" d="M 1984 4856 
Q 1566 4138 1362 3434 
Q 1159 2731 1159 2009 
Q 1159 1288 1364 580 
Q 1569 -128 1984 -844 
L 1484 -844 
Q 1016 -109 783 600 
Q 550 1309 550 2009 
Q 550 2706 781 3412 
Q 1013 4119 1484 4856 
L 1984 4856 
z
" transform="scale(0.015625)"/>
      <path id="DejaVuSans-7c" d="M 1344 4891 
L 1344 -1509 
L 813 -1509 
L 813 4891 
L 1344 4891 
z
" transform="scale(0.015625)"/>
      <path id="DejaVuSans-Oblique-58" d="M 878 4666 
L 1516 4666 
L 2316 2981 
L 3763 4666 
L 4500 4666 
L 2578 2438 
L 3738 0 
L 3103 0 
L 2163 1966 
L 459 0 
L -275 0 
L 1906 2509 
L 878 4666 
z
" transform="scale(0.015625)"/>
      <path id="DejaVuSans-2212" d="M 678 2272 
L 4684 2272 
L 4684 1741 
L 678 1741 
L 678 2272 
z
" transform="scale(0.015625)"/>
      <path id="DejaVuSans-Oblique-3bc" d="M -84 -1331 
L 856 3500 
L 1434 3500 
L 1009 1322 
Q 997 1256 987 1175 
Q 978 1094 978 1013 
Q 978 722 1161 565 
Q 1344 409 1684 409 
Q 2147 409 2431 671 
Q 2716 934 2816 1459 
L 3213 3500 
L 3788 3500 
L 3266 809 
Q 3253 750 3248 706 
Q 3244 663 3244 628 
Q 3244 531 3283 486 
Q 3322 441 3406 441 
Q 3438 441 3492 456 
Q 3547 472 3647 513 
L 3559 50 
Q 3422 -19 3297 -55 
Q 3172 -91 3053 -91 
Q 2847 -91 2730 40 
Q 2613 172 2613 403 
Q 2438 153 2195 31 
Q 1953 -91 1625 -91 
Q 1334 -91 1117 43 
Q 900 178 831 397 
L 494 -1331 
L -84 -1331 
z
" transform="scale(0.015625)"/>
      <path id="DejaVuSans-2265" d="M 678 3175 
L 678 3725 
L 4684 2578 
L 4684 2047 
L 678 897 
L 678 1453 
L 3681 2309 
L 678 3175 
z
M 4684 531 
L 4684 0 
L 678 0 
L 678 531 
L 4684 531 
z
" transform="scale(0.015625)"/>
      <path id="DejaVuSans-Oblique-3c3" d="M 2219 3044 
Q 1744 3044 1422 2700 
Q 1081 2341 969 1747 
Q 844 1119 1044 756 
Q 1241 397 1706 397 
Q 2166 397 2503 759 
Q 2844 1122 2966 1747 
Q 3075 2319 2881 2700 
Q 2700 3044 2219 3044 
z
M 2309 3503 
L 4219 3500 
L 4106 2925 
L 3463 2925 
Q 3706 2438 3575 1747 
Q 3406 888 2884 400 
Q 2359 -91 1609 -91 
Q 856 -91 525 400 
Q 194 888 363 1747 
Q 528 2609 1050 3097 
Q 1484 3503 2309 3503 
z
" transform="scale(0.015625)"/>
      <path id="DejaVuSans-29" d="M 513 4856 
L 1013 4856 
Q 1481 4119 1714 3412 
Q 1947 2706 1947 2009 
Q 1947 1309 1714 600 
Q 1481 -109 1013 -844 
L 513 -844 
Q 928 -128 1133 580 
Q 1338 1288 1338 2009 
Q 1338 2731 1133 3434 
Q 928 4138 513 4856 
z
" transform="scale(0.015625)"/>
     </defs>
     <use xlink:href="#DejaVuSans-Bold-43" transform="translate(0 0.765625)"/>
     <use xlink:href="#DejaVuSans-Bold-68" transform="translate(73.388672 0.765625)"/>
     <use xlink:href="#DejaVuSans-Bold-65" transform="translate(144.580078 0.765625)"/>
     <use xlink:href="#DejaVuSans-Bold-62" transform="translate(212.402344 0.765625)"/>
     <use xlink:href="#DejaVuSans-Bold-79" transform="translate(283.984375 0.765625)"/>
     <use xlink:href="#DejaVuSans-Bold-73" transform="translate(349.169922 0.765625)"/>
     <use xlink:href="#DejaVuSans-Bold-68" transform="translate(408.691406 0.765625)"/>
     <use xlink:href="#DejaVuSans-Bold-65" transform="translate(479.882812 0.765625)"/>
     <use xlink:href="#DejaVuSans-Bold-76" transform="translate(547.705078 0.765625)"/>
     <use xlink:href="#DejaVuSans-Bold-3a" transform="translate(612.890625 0.765625)"/>
     <use xlink:href="#DejaVuSans-Bold-20" transform="translate(652.880859 0.765625)"/>
     <use xlink:href="#DejaVuSans-Bold-63" transform="translate(687.695312 0.765625)"/>
     <use xlink:href="#DejaVuSans-Bold-6f" transform="translate(746.972656 0.765625)"/>
     <use xlink:href="#DejaVuSans-Bold-74" transform="translate(815.673828 0.765625)"/>
     <use xlink:href="#DejaVuSans-Bold-61" transform="translate(863.476562 0.765625)"/>
     <use xlink:href="#DejaVuSans-Bold-20" transform="translate(930.957031 0.765625)"/>
     <use xlink:href="#DejaVuSans-31" transform="translate(965.771484 0.765625)"/>
     <use xlink:href="#DejaVuSans-2f" transform="translate(1029.394531 0.765625)"/>
     <use xlink:href="#DejaVuSans-Oblique-6b" transform="translate(1063.085938 0.765625)"/>
     <use xlink:href="#DejaVuSans-32" transform="translate(1128.443802 39.046875) scale(0.7)"/>
     <use xlink:href="#DejaVuSans-Bold-20" transform="translate(1175.71431 0.765625)"/>
     <use xlink:href="#DejaVuSans-Bold-76" transform="translate(1210.528763 0.765625)"/>
     <use xlink:href="#DejaVuSans-Bold-73" transform="translate(1275.71431 0.765625)"/>
     <use xlink:href="#DejaVuSans-Bold-2e" transform="translate(1335.235794 0.765625)"/>
     <use xlink:href="#DejaVuSans-Bold-20" transform="translate(1373.224076 0.765625)"/>
     <use xlink:href="#DejaVuSans-Oblique-50" transform="translate(1408.038529 0.765625)"/>
     <use xlink:href="#DejaVuSans-28" transform="translate(1468.341263 0.765625)"/>
     <use xlink:href="#DejaVuSans-7c" transform="translate(1507.354935 0.765625)"/>
     <use xlink:href="#DejaVuSans-Oblique-58" transform="translate(1541.046341 0.765625)"/>
     <use xlink:href="#DejaVuSans-2212" transform="translate(1629.034622 0.765625)"/>
     <use xlink:href="#DejaVuSans-Oblique-3bc" transform="translate(1732.306107 0.765625)"/>
     <use xlink:href="#DejaVuSans-7c" transform="translate(1795.929154 0.765625)"/>
     <use xlink:href="#DejaVuSans-2265" transform="translate(1849.102982 0.765625)"/>
     <use xlink:href="#DejaVuSans-Oblique-6b" transform="translate(1952.374466 0.765625)"/>
     <use xlink:href="#DejaVuSans-Oblique-3c3" transform="translate(2010.284622 0.765625)"/>
     <use xlink:href="#DejaVuSans-29" transform="translate(2073.663529 0.765625)"/>
     <use xlink:href="#DejaVuSans-Bold-20" transform="translate(2112.677201 0.765625)"/>
     <use xlink:href="#DejaVuSans-Bold-72" transform="translate(2147.491654 0.765625)"/>
     <use xlink:href="#DejaVuSans-Bold-65" transform="translate(2196.80806 0.765625)"/>
     <use xlink:href="#DejaVuSans-Bold-61" transform="translate(2264.630326 0.765625)"/>
     <use xlink:href="#DejaVuSans-Bold-6c" transform="translate(2332.110794 0.765625)"/>
    </g>
   </g>
   <g id="PathCollection_1">
    <defs>
     <path id="m92aacf6f4d" d="M 0 2.645751 
C 0.701661 2.645751 1.374679 2.366978 1.870829 1.870829 
C 2.366978 1.374679 2.645751 0.701661 2.645751 0 
C 2.645751 -0.701661 2.366978 -1.374679 1.870829 -1.870829 
C 1.374679 -2.366978 0.701661 -2.645751 0 -2.645751 
C -0.701661 -2.645751 -1.374679 -2.366978 -1.870829 -1.870829 
C -2.366978 -1.374679 -2.645751 -0.701661 -2.645751 0 
C -2.645751 0.701661 -2.366978 1.374679 -1.870829 1.870829 
C -1.374679 2.366978 -0.701661 2.645751 0 2.645751 
z
" style="stroke: #c0392b"/>
    </defs>
    <g clip-path="url(#pfbbac9014f)">
     <use xlink:href="#m92aacf6f4d" x="49.552969" y="44.437331" style="fill: #c0392b; stroke: #c0392b"/>
     <use xlink:href="#m92aacf6f4d" x="176.032969" y="210.757833" style="fill: #c0392b; stroke: #c0392b"/>
     <use xlink:href="#m92aacf6f4d" x="302.512969" y="241.557926" style="fill: #c0392b; stroke: #c0392b"/>
     <use xlink:href="#m92aacf6f4d" x="428.992969" y="252.337958" style="fill: #c0392b; stroke: #c0392b"/>
    </g>
   </g>
   <g id="PathCollection_2">
    <defs>
     <path id="mb7697d3781" d="M 0 2.645751 
C 0.701661 2.645751 1.374679 2.366978 1.870829 1.870829 
C 2.366978 1.374679 2.645751 0.701661 2.645751 0 
C 2.645751 -0.701661 2.366978 -1.374679 1.870829 -1.870829 
C 1.374679 -2.366978 0.701661 -2.645751 0 -2.645751 
C -0.701661 -2.645751 -1.374679 -2.366978 -1.870829 -1.870829 
C -2.366978 -1.374679 -2.645751 -0.701661 -2.645751 0 
C -2.645751 0.701661 -2.366978 1.374679 -1.870829 1.870829 
C -1.374679 2.366978 -0.701661 2.645751 0 2.645751 
z
" style="stroke: #2980b9"/>
    </defs>
    <g clip-path="url(#pfbbac9014f)">
     <use xlink:href="#mb7697d3781" x="49.552969" y="195.83101" style="fill: #2980b9; stroke: #2980b9"/>
     <use xlink:href="#mb7697d3781" x="176.032969" y="256.107831" style="fill: #2980b9; stroke: #2980b9"/>
     <use xlink:href="#mb7697d3781" x="302.512969" y="265.599291" style="fill: #2980b9; stroke: #2980b9"/>
     <use xlink:href="#mb7697d3781" x="428.992969" y="266.183953" style="fill: #2980b9; stroke: #2980b9"/>
    </g>
   </g>
   <g id="legend_1">
    <g id="patch_5">
     <path d="M 258.752969 70.685 
L 422.342969 70.685 
Q 424.242969 70.685 424.242969 68.785 
L 424.242969 40 
Q 424.242969 38.1 422.342969 38.1 
L 258.752969 38.1 
Q 256.852969 38.1 256.852969 40 
L 256.852969 68.785 
Q 256.852969 70.685 258.752969 70.685 
z
" style="fill: #ffffff; opacity: 0.92; stroke: #cccccc; stroke-linejoin: miter"/>
    </g>
    <g id="line2d_29">
     <path d="M 260.652969 47.22 
L 270.152969 47.22 
L 279.652969 47.22 
" style="fill: none; stroke: #c0392b; stroke-width: 2.6; stroke-linecap: square"/>
    </g>
    <g id="text_17">
     <!-- cota de Chebyshev  $1/k^2$ -->
     <g transform="translate(287.252969 50.545) scale(0.095 -0.095)">
      <defs>
       <path id="DejaVuSans-63" d="M 3122 3366 
L 3122 2828 
Q 2878 2963 2633 3030 
Q 2388 3097 2138 3097 
Q 1578 3097 1268 2742 
Q 959 2388 959 1747 
Q 959 1106 1268 751 
Q 1578 397 2138 397 
Q 2388 397 2633 464 
Q 2878 531 3122 666 
L 3122 134 
Q 2881 22 2623 -34 
Q 2366 -91 2075 -91 
Q 1284 -91 818 406 
Q 353 903 353 1747 
Q 353 2603 823 3093 
Q 1294 3584 2113 3584 
Q 2378 3584 2631 3529 
Q 2884 3475 3122 3366 
z
" transform="scale(0.015625)"/>
       <path id="DejaVuSans-6f" d="M 1959 3097 
Q 1497 3097 1228 2736 
Q 959 2375 959 1747 
Q 959 1119 1226 758 
Q 1494 397 1959 397 
Q 2419 397 2687 759 
Q 2956 1122 2956 1747 
Q 2956 2369 2687 2733 
Q 2419 3097 1959 3097 
z
M 1959 3584 
Q 2709 3584 3137 3096 
Q 3566 2609 3566 1747 
Q 3566 888 3137 398 
Q 2709 -91 1959 -91 
Q 1206 -91 779 398 
Q 353 888 353 1747 
Q 353 2609 779 3096 
Q 1206 3584 1959 3584 
z
" transform="scale(0.015625)"/>
       <path id="DejaVuSans-74" d="M 1172 4494 
L 1172 3500 
L 2356 3500 
L 2356 3053 
L 1172 3053 
L 1172 1153 
Q 1172 725 1289 603 
Q 1406 481 1766 481 
L 2356 481 
L 2356 0 
L 1766 0 
Q 1100 0 847 248 
Q 594 497 594 1153 
L 594 3053 
L 172 3053 
L 172 3500 
L 594 3500 
L 594 4494 
L 1172 4494 
z
" transform="scale(0.015625)"/>
       <path id="DejaVuSans-61" d="M 2194 1759 
Q 1497 1759 1228 1600 
Q 959 1441 959 1056 
Q 959 750 1161 570 
Q 1363 391 1709 391 
Q 2188 391 2477 730 
Q 2766 1069 2766 1631 
L 2766 1759 
L 2194 1759 
z
M 3341 1997 
L 3341 0 
L 2766 0 
L 2766 531 
Q 2569 213 2275 61 
Q 1981 -91 1556 -91 
Q 1019 -91 701 211 
Q 384 513 384 1019 
Q 384 1609 779 1909 
Q 1175 2209 1959 2209 
L 2766 2209 
L 2766 2266 
Q 2766 2663 2505 2880 
Q 2244 3097 1772 3097 
Q 1472 3097 1187 3025 
Q 903 2953 641 2809 
L 641 3341 
Q 956 3463 1253 3523 
Q 1550 3584 1831 3584 
Q 2591 3584 2966 3190 
Q 3341 2797 3341 1997 
z
" transform="scale(0.015625)"/>
       <path id="DejaVuSans-20" transform="scale(0.015625)"/>
       <path id="DejaVuSans-64" d="M 2906 2969 
L 2906 4863 
L 3481 4863 
L 3481 0 
L 2906 0 
L 2906 525 
Q 2725 213 2448 61 
Q 2172 -91 1784 -91 
Q 1150 -91 751 415 
Q 353 922 353 1747 
Q 353 2572 751 3078 
Q 1150 3584 1784 3584 
Q 2172 3584 2448 3432 
Q 2725 3281 2906 2969 
z
M 947 1747 
Q 947 1113 1208 752 
Q 1469 391 1925 391 
Q 2381 391 2643 752 
Q 2906 1113 2906 1747 
Q 2906 2381 2643 2742 
Q 2381 3103 1925 3103 
Q 1469 3103 1208 2742 
Q 947 2381 947 1747 
z
" transform="scale(0.015625)"/>
       <path id="DejaVuSans-65" d="M 3597 1894 
L 3597 1613 
L 953 1613 
Q 991 1019 1311 708 
Q 1631 397 2203 397 
Q 2534 397 2845 478 
Q 3156 559 3463 722 
L 3463 178 
Q 3153 47 2828 -22 
Q 2503 -91 2169 -91 
Q 1331 -91 842 396 
Q 353 884 353 1716 
Q 353 2575 817 3079 
Q 1281 3584 2069 3584 
Q 2775 3584 3186 3129 
Q 3597 2675 3597 1894 
z
M 3022 2063 
Q 3016 2534 2758 2815 
Q 2500 3097 2075 3097 
Q 1594 3097 1305 2825 
Q 1016 2553 972 2059 
L 3022 2063 
z
" transform="scale(0.015625)"/>
       <path id="DejaVuSans-43" d="M 4122 4306 
L 4122 3641 
Q 3803 3938 3442 4084 
Q 3081 4231 2675 4231 
Q 1875 4231 1450 3742 
Q 1025 3253 1025 2328 
Q 1025 1406 1450 917 
Q 1875 428 2675 428 
Q 3081 428 3442 575 
Q 3803 722 4122 1019 
L 4122 359 
Q 3791 134 3420 21 
Q 3050 -91 2638 -91 
Q 1578 -91 968 557 
Q 359 1206 359 2328 
Q 359 3453 968 4101 
Q 1578 4750 2638 4750 
Q 3056 4750 3426 4639 
Q 3797 4528 4122 4306 
z
" transform="scale(0.015625)"/>
       <path id="DejaVuSans-68" d="M 3513 2113 
L 3513 0 
L 2938 0 
L 2938 2094 
Q 2938 2591 2744 2837 
Q 2550 3084 2163 3084 
Q 1697 3084 1428 2787 
Q 1159 2491 1159 1978 
L 1159 0 
L 581 0 
L 581 4863 
L 1159 4863 
L 1159 2956 
Q 1366 3272 1645 3428 
Q 1925 3584 2291 3584 
Q 2894 3584 3203 3211 
Q 3513 2838 3513 2113 
z
" transform="scale(0.015625)"/>
       <path id="DejaVuSans-62" d="M 3116 1747 
Q 3116 2381 2855 2742 
Q 2594 3103 2138 3103 
Q 1681 3103 1420 2742 
Q 1159 2381 1159 1747 
Q 1159 1113 1420 752 
Q 1681 391 2138 391 
Q 2594 391 2855 752 
Q 3116 1113 3116 1747 
z
M 1159 2969 
Q 1341 3281 1617 3432 
Q 1894 3584 2278 3584 
Q 2916 3584 3314 3078 
Q 3713 2572 3713 1747 
Q 3713 922 3314 415 
Q 2916 -91 2278 -91 
Q 1894 -91 1617 61 
Q 1341 213 1159 525 
L 1159 0 
L 581 0 
L 581 4863 
L 1159 4863 
L 1159 2969 
z
" transform="scale(0.015625)"/>
       <path id="DejaVuSans-79" d="M 2059 -325 
Q 1816 -950 1584 -1140 
Q 1353 -1331 966 -1331 
L 506 -1331 
L 506 -850 
L 844 -850 
Q 1081 -850 1212 -737 
Q 1344 -625 1503 -206 
L 1606 56 
L 191 3500 
L 800 3500 
L 1894 763 
L 2988 3500 
L 3597 3500 
L 2059 -325 
z
" transform="scale(0.015625)"/>
       <path id="DejaVuSans-73" d="M 2834 3397 
L 2834 2853 
Q 2591 2978 2328 3040 
Q 2066 3103 1784 3103 
Q 1356 3103 1142 2972 
Q 928 2841 928 2578 
Q 928 2378 1081 2264 
Q 1234 2150 1697 2047 
L 1894 2003 
Q 2506 1872 2764 1633 
Q 3022 1394 3022 966 
Q 3022 478 2636 193 
Q 2250 -91 1575 -91 
Q 1294 -91 989 -36 
Q 684 19 347 128 
L 347 722 
Q 666 556 975 473 
Q 1284 391 1588 391 
Q 1994 391 2212 530 
Q 2431 669 2431 922 
Q 2431 1156 2273 1281 
Q 2116 1406 1581 1522 
L 1381 1569 
Q 847 1681 609 1914 
Q 372 2147 372 2553 
Q 372 3047 722 3315 
Q 1072 3584 1716 3584 
Q 2034 3584 2315 3537 
Q 2597 3491 2834 3397 
z
" transform="scale(0.015625)"/>
       <path id="DejaVuSans-76" d="M 191 3500 
L 800 3500 
L 1894 563 
L 2988 3500 
L 3597 3500 
L 2284 0 
L 1503 0 
L 191 3500 
z
" transform="scale(0.015625)"/>
      </defs>
      <use xlink:href="#DejaVuSans-63" transform="translate(0 0.765625)"/>
      <use xlink:href="#DejaVuSans-6f" transform="translate(54.980469 0.765625)"/>
      <use xlink:href="#DejaVuSans-74" transform="translate(116.162109 0.765625)"/>
      <use xlink:href="#DejaVuSans-61" transform="translate(155.371094 0.765625)"/>
      <use xlink:href="#DejaVuSans-20" transform="translate(216.650391 0.765625)"/>
      <use xlink:href="#DejaVuSans-64" transform="translate(248.4375 0.765625)"/>
      <use xlink:href="#DejaVuSans-65" transform="translate(311.914062 0.765625)"/>
      <use xlink:href="#DejaVuSans-20" transform="translate(373.4375 0.765625)"/>
      <use xlink:href="#DejaVuSans-43" transform="translate(405.224609 0.765625)"/>
      <use xlink:href="#DejaVuSans-68" transform="translate(475.048828 0.765625)"/>
      <use xlink:href="#DejaVuSans-65" transform="translate(538.427734 0.765625)"/>
      <use xlink:href="#DejaVuSans-62" transform="translate(599.951172 0.765625)"/>
      <use xlink:href="#DejaVuSans-79" transform="translate(663.427734 0.765625)"/>
      <use xlink:href="#DejaVuSans-73" transform="translate(722.607422 0.765625)"/>
      <use xlink:href="#DejaVuSans-68" transform="translate(774.707031 0.765625)"/>
      <use xlink:href="#DejaVuSans-65" transform="translate(838.085938 0.765625)"/>
      <use xlink:href="#DejaVuSans-76" transform="translate(899.609375 0.765625)"/>
      <use xlink:href="#DejaVuSans-20" transform="translate(958.789062 0.765625)"/>
      <use xlink:href="#DejaVuSans-20" transform="translate(990.576172 0.765625)"/>
      <use xlink:href="#DejaVuSans-31" transform="translate(1022.363281 0.765625)"/>
      <use xlink:href="#DejaVuSans-2f" transform="translate(1085.986328 0.765625)"/>
      <use xlink:href="#DejaVuSans-Oblique-6b" transform="translate(1119.677734 0.765625)"/>
      <use xlink:href="#DejaVuSans-32" transform="translate(1185.035599 39.046875) scale(0.7)"/>
     </g>
    </g>
    <g id="line2d_30">
     <path d="M 260.652969 61.28 
L 270.152969 61.28 
L 279.652969 61.28 
" style="fill: none; stroke: #2980b9; stroke-width: 2.6; stroke-linecap: square"/>
    </g>
    <g id="text_18">
     <!-- $P(|X-\mu|\geq k\sigma)$ real (Normal) -->
     <g transform="translate(287.252969 64.605) scale(0.095 -0.095)">
      <defs>
       <path id="DejaVuSans-72" d="M 2631 2963 
Q 2534 3019 2420 3045 
Q 2306 3072 2169 3072 
Q 1681 3072 1420 2755 
Q 1159 2438 1159 1844 
L 1159 0 
L 581 0 
L 581 3500 
L 1159 3500 
L 1159 2956 
Q 1341 3275 1631 3429 
Q 1922 3584 2338 3584 
Q 2397 3584 2469 3576 
Q 2541 3569 2628 3553 
L 2631 2963 
z
" transform="scale(0.015625)"/>
       <path id="DejaVuSans-6c" d="M 603 4863 
L 1178 4863 
L 1178 0 
L 603 0 
L 603 4863 
z
" transform="scale(0.015625)"/>
       <path id="DejaVuSans-4e" d="M 628 4666 
L 1478 4666 
L 3547 763 
L 3547 4666 
L 4159 4666 
L 4159 0 
L 3309 0 
L 1241 3903 
L 1241 0 
L 628 0 
L 628 4666 
z
" transform="scale(0.015625)"/>
       <path id="DejaVuSans-6d" d="M 3328 2828 
Q 3544 3216 3844 3400 
Q 4144 3584 4550 3584 
Q 5097 3584 5394 3201 
Q 5691 2819 5691 2113 
L 5691 0 
L 5113 0 
L 5113 2094 
Q 5113 2597 4934 2840 
Q 4756 3084 4391 3084 
Q 3944 3084 3684 2787 
Q 3425 2491 3425 1978 
L 3425 0 
L 2847 0 
L 2847 2094 
Q 2847 2600 2669 2842 
Q 2491 3084 2119 3084 
Q 1678 3084 1418 2786 
Q 1159 2488 1159 1978 
L 1159 0 
L 581 0 
L 581 3500 
L 1159 3500 
L 1159 2956 
Q 1356 3278 1631 3431 
Q 1906 3584 2284 3584 
Q 2666 3584 2933 3390 
Q 3200 3197 3328 2828 
z
" transform="scale(0.015625)"/>
      </defs>
      <use xlink:href="#DejaVuSans-Oblique-50" transform="translate(0 0.578125)"/>
      <use xlink:href="#DejaVuSans-28" transform="translate(60.302734 0.578125)"/>
      <use xlink:href="#DejaVuSans-7c" transform="translate(99.316406 0.578125)"/>
      <use xlink:href="#DejaVuSans-Oblique-58" transform="translate(133.007812 0.578125)"/>
      <use xlink:href="#DejaVuSans-2212" transform="translate(220.996094 0.578125)"/>
      <use xlink:href="#DejaVuSans-Oblique-3bc" transform="translate(324.267578 0.578125)"/>
      <use xlink:href="#DejaVuSans-7c" transform="translate(387.890625 0.578125)"/>
      <use xlink:href="#DejaVuSans-2265" transform="translate(441.064453 0.578125)"/>
      <use xlink:href="#DejaVuSans-Oblique-6b" transform="translate(544.335938 0.578125)"/>
      <use xlink:href="#DejaVuSans-Oblique-3c3" transform="translate(602.246094 0.578125)"/>
      <use xlink:href="#DejaVuSans-29" transform="translate(665.625 0.578125)"/>
      <use xlink:href="#DejaVuSans-20" transform="translate(704.638672 0.578125)"/>
      <use xlink:href="#DejaVuSans-72" transform="translate(736.425781 0.578125)"/>
      <use xlink:href="#DejaVuSans-65" transform="translate(777.539062 0.578125)"/>
      <use xlink:href="#DejaVuSans-61" transform="translate(839.0625 0.578125)"/>
      <use xlink:href="#DejaVuSans-6c" transform="translate(900.341797 0.578125)"/>
      <use xlink:href="#DejaVuSans-20" transform="translate(928.125 0.578125)"/>
      <use xlink:href="#DejaVuSans-28" transform="translate(959.912109 0.578125)"/>
      <use xlink:href="#DejaVuSans-4e" transform="translate(998.925781 0.578125)"/>
      <use xlink:href="#DejaVuSans-6f" transform="translate(1073.730469 0.578125)"/>
      <use xlink:href="#DejaVuSans-72" transform="translate(1134.912109 0.578125)"/>
      <use xlink:href="#DejaVuSans-6d" transform="translate(1176.025391 0.578125)"/>
      <use xlink:href="#DejaVuSans-61" transform="translate(1273.4375 0.578125)"/>
      <use xlink:href="#DejaVuSans-6c" transform="translate(1334.716797 0.578125)"/>
      <use xlink:href="#DejaVuSans-29" transform="translate(1362.5 0.578125)"/>
     </g>
    </g>
   </g>
  </g>
 </g>
 <defs>
  <clipPath id="pfbbac9014f">
   <rect x="49.552969" y="33.35" width="379.44" height="232.848"/>
  </clipPath>
 </defs>
</svg>
