<?xml version="1.0" encoding="utf-8" standalone="no"?>
<!DOCTYPE svg PUBLIC "-//W3C//DTD SVG 1.1//EN"
  "http://www.w3.org/Graphics/SVG/1.1/DTD/svg11.dtd">
<svg xmlns:xlink="http://www.w3.org/1999/xlink" width="435.715469pt" height="302.029937pt" viewBox="0 0 435.715469 302.029937" xmlns="http://www.w3.org/2000/svg" version="1.1">
 <metadata>
  <rdf:RDF xmlns:dc="http://purl.org/dc/elements/1.1/" xmlns:cc="http://creativecommons.org/ns#" xmlns:rdf="http://www.w3.org/1999/02/22-rdf-syntax-ns#">
   <cc:Work>
    <dc:type rdf:resource="http://purl.org/dc/dcmitype/StillImage"/>
    <dc:date>2026-06-30T11:53:10.808272</dc:date>
    <dc:format>image/svg+xml</dc:format>
    <dc:creator>
     <cc:Agent>
      <dc:title>Matplotlib v3.9.2, https://matplotlib.org/</dc:title>
     </cc:Agent>
    </dc:creator>
   </cc:Work>
  </rdf:RDF>
 </metadata>
 <defs>
  <style type="text/css">*{stroke-linejoin: round; stroke-linecap: butt}</style>
 </defs>
 <g id="figure_1">
  <g id="patch_1">
   <path d="M 0 302.029937 
L 435.715469 302.029937 
L 435.715469 0 
L 0 0 
z
" style="fill: #ffffff"/>
  </g>
  <g id="axes_1">
   <g id="patch_2">
    <path d="M 55.915469 258.701969 
L 424.195469 258.701969 
L 424.195469 31.397969 
L 55.915469 31.397969 
z
" style="fill: #ffffff"/>
   </g>
   <g id="matplotlib.axis_1">
    <g id="xtick_1">
     <g id="line2d_1">
      <path d="M 72.655469 258.701969 
L 72.655469 31.397969 
" clip-path="url(#pe56574f3d0)" style="fill: none; stroke-dasharray: 0.8,1.28; stroke-dashoffset: 0; stroke: #b0b0b0; stroke-opacity: 0.3; stroke-width: 0.8"/>
     </g>
     <g id="line2d_2">
      <defs>
       <path id="mdfd92991f6" d="M 0 0 
L 0 3.5 
" style="stroke: #2c3e50; stroke-width: 0.8"/>
      </defs>
      <g>
       <use xlink:href="#mdfd92991f6" x="72.655469" y="258.701969" style="fill: #2c3e50; stroke: #2c3e50; stroke-width: 0.8"/>
      </g>
     </g>
     <g id="text_1">
      <!-- 10 -->
      <g style="fill: #2c3e50" transform="translate(66.292969 273.300406) scale(0.1 -0.1)">
       <defs>
        <path id="DejaVuSans-31" d="M 794 531 
L 1825 531 
L 1825 4091 
L 703 3866 
L 703 4441 
L 1819 4666 
L 2450 4666 
L 2450 531 
L 3481 531 
L 3481 0 
L 794 0 
L 794 531 
z
" transform="scale(0.015625)"/>
        <path id="DejaVuSans-30" d="M 2034 4250 
Q 1547 4250 1301 3770 
Q 1056 3291 1056 2328 
Q 1056 1369 1301 889 
Q 1547 409 2034 409 
Q 2525 409 2770 889 
Q 3016 1369 3016 2328 
Q 3016 3291 2770 3770 
Q 2525 4250 2034 4250 
z
M 2034 4750 
Q 2819 4750 3233 4129 
Q 3647 3509 3647 2328 
Q 3647 1150 3233 529 
Q 2819 -91 2034 -91 
Q 1250 -91 836 529 
Q 422 1150 422 2328 
Q 422 3509 836 4129 
Q 1250 4750 2034 4750 
z
" transform="scale(0.015625)"/>
       </defs>
       <use xlink:href="#DejaVuSans-31"/>
       <use xlink:href="#DejaVuSans-30" x="63.623047"/>
      </g>
     </g>
    </g>
    <g id="xtick_2">
     <g id="line2d_3">
      <path d="M 114.505469 258.701969 
L 114.505469 31.397969 
" clip-path="url(#pe56574f3d0)" style="fill: none; stroke-dasharray: 0.8,1.28; stroke-dashoffset: 0; stroke: #b0b0b0; stroke-opacity: 0.3; stroke-width: 0.8"/>
     </g>
     <g id="line2d_4">
      <g>
       <use xlink:href="#mdfd92991f6" x="114.505469" y="258.701969" style="fill: #2c3e50; stroke: #2c3e50; stroke-width: 0.8"/>
      </g>
     </g>
     <g id="text_2">
      <!-- 20 -->
      <g style="fill: #2c3e50" transform="translate(108.142969 273.300406) scale(0.1 -0.1)">
       <defs>
        <path id="DejaVuSans-32" d="M 1228 531 
L 3431 531 
L 3431 0 
L 469 0 
L 469 531 
Q 828 903 1448 1529 
Q 2069 2156 2228 2338 
Q 2531 2678 2651 2914 
Q 2772 3150 2772 3378 
Q 2772 3750 2511 3984 
Q 2250 4219 1831 4219 
Q 1534 4219 1204 4116 
Q 875 4013 500 3803 
L 500 4441 
Q 881 4594 1212 4672 
Q 1544 4750 1819 4750 
Q 2544 4750 2975 4387 
Q 3406 4025 3406 3419 
Q 3406 3131 3298 2873 
Q 3191 2616 2906 2266 
Q 2828 2175 2409 1742 
Q 1991 1309 1228 531 
z
" transform="scale(0.015625)"/>
       </defs>
       <use xlink:href="#DejaVuSans-32"/>
       <use xlink:href="#DejaVuSans-30" x="63.623047"/>
      </g>
     </g>
    </g>
    <g id="xtick_3">
     <g id="line2d_5">
      <path d="M 156.355469 258.701969 
L 156.355469 31.397969 
" clip-path="url(#pe56574f3d0)" style="fill: none; stroke-dasharray: 0.8,1.28; stroke-dashoffset: 0; stroke: #b0b0b0; stroke-opacity: 0.3; stroke-width: 0.8"/>
     </g>
     <g id="line2d_6">
      <g>
       <use xlink:href="#mdfd92991f6" x="156.355469" y="258.701969" style="fill: #2c3e50; stroke: #2c3e50; stroke-width: 0.8"/>
      </g>
     </g>
     <g id="text_3">
      <!-- 30 -->
      <g style="fill: #2c3e50" transform="translate(149.992969 273.300406) scale(0.1 -0.1)">
       <defs>
        <path id="DejaVuSans-33" d="M 2597 2516 
Q 3050 2419 3304 2112 
Q 3559 1806 3559 1356 
Q 3559 666 3084 287 
Q 2609 -91 1734 -91 
Q 1441 -91 1130 -33 
Q 819 25 488 141 
L 488 750 
Q 750 597 1062 519 
Q 1375 441 1716 441 
Q 2309 441 2620 675 
Q 2931 909 2931 1356 
Q 2931 1769 2642 2001 
Q 2353 2234 1838 2234 
L 1294 2234 
L 1294 2753 
L 1863 2753 
Q 2328 2753 2575 2939 
Q 2822 3125 2822 3475 
Q 2822 3834 2567 4026 
Q 2313 4219 1838 4219 
Q 1578 4219 1281 4162 
Q 984 4106 628 3988 
L 628 4550 
Q 988 4650 1302 4700 
Q 1616 4750 1894 4750 
Q 2613 4750 3031 4423 
Q 3450 4097 3450 3541 
Q 3450 3153 3228 2886 
Q 3006 2619 2597 2516 
z
" transform="scale(0.015625)"/>
       </defs>
       <use xlink:href="#DejaVuSans-33"/>
       <use xlink:href="#DejaVuSans-30" x="63.623047"/>
      </g>
     </g>
    </g>
    <g id="xtick_4">
     <g id="line2d_7">
      <path d="M 198.205469 258.701969 
L 198.205469 31.397969 
" clip-path="url(#pe56574f3d0)" style="fill: none; stroke-dasharray: 0.8,1.28; stroke-dashoffset: 0; stroke: #b0b0b0; stroke-opacity: 0.3; stroke-width: 0.8"/>
     </g>
     <g id="line2d_8">
      <g>
       <use xlink:href="#mdfd92991f6" x="198.205469" y="258.701969" style="fill: #2c3e50; stroke: #2c3e50; stroke-width: 0.8"/>
      </g>
     </g>
     <g id="text_4">
      <!-- 40 -->
      <g style="fill: #2c3e50" transform="translate(191.842969 273.300406) scale(0.1 -0.1)">
       <defs>
        <path id="DejaVuSans-34" d="M 2419 4116 
L 825 1625 
L 2419 1625 
L 2419 4116 
z
M 2253 4666 
L 3047 4666 
L 3047 1625 
L 3713 1625 
L 3713 1100 
L 3047 1100 
L 3047 0 
L 2419 0 
L 2419 1100 
L 313 1100 
L 313 1709 
L 2253 4666 
z
" transform="scale(0.015625)"/>
       </defs>
       <use xlink:href="#DejaVuSans-34"/>
       <use xlink:href="#DejaVuSans-30" x="63.623047"/>
      </g>
     </g>
    </g>
    <g id="xtick_5">
     <g id="line2d_9">
      <path d="M 240.055469 258.701969 
L 240.055469 31.397969 
" clip-path="url(#pe56574f3d0)" style="fill: none; stroke-dasharray: 0.8,1.28; stroke-dashoffset: 0; stroke: #b0b0b0; stroke-opacity: 0.3; stroke-width: 0.8"/>
     </g>
     <g id="line2d_10">
      <g>
       <use xlink:href="#mdfd92991f6" x="240.055469" y="258.701969" style="fill: #2c3e50; stroke: #2c3e50; stroke-width: 0.8"/>
      </g>
     </g>
     <g id="text_5">
      <!-- 50 -->
      <g style="fill: #2c3e50" transform="translate(233.692969 273.300406) scale(0.1 -0.1)">
       <defs>
        <path id="DejaVuSans-35" d="M 691 4666 
L 3169 4666 
L 3169 4134 
L 1269 4134 
L 1269 2991 
Q 1406 3038 1543 3061 
Q 1681 3084 1819 3084 
Q 2600 3084 3056 2656 
Q 3513 2228 3513 1497 
Q 3513 744 3044 326 
Q 2575 -91 1722 -91 
Q 1428 -91 1123 -41 
Q 819 9 494 109 
L 494 744 
Q 775 591 1075 516 
Q 1375 441 1709 441 
Q 2250 441 2565 725 
Q 2881 1009 2881 1497 
Q 2881 1984 2565 2268 
Q 2250 2553 1709 2553 
Q 1456 2553 1204 2497 
Q 953 2441 691 2322 
L 691 4666 
z
" transform="scale(0.015625)"/>
       </defs>
       <use xlink:href="#DejaVuSans-35"/>
       <use xlink:href="#DejaVuSans-30" x="63.623047"/>
      </g>
     </g>
    </g>
    <g id="xtick_6">
     <g id="line2d_11">
      <path d="M 281.905469 258.701969 
L 281.905469 31.397969 
" clip-path="url(#pe56574f3d0)" style="fill: none; stroke-dasharray: 0.8,1.28; stroke-dashoffset: 0; stroke: #b0b0b0; stroke-opacity: 0.3; stroke-width: 0.8"/>
     </g>
     <g id="line2d_12">
      <g>
       <use xlink:href="#mdfd92991f6" x="281.905469" y="258.701969" style="fill: #2c3e50; stroke: #2c3e50; stroke-width: 0.8"/>
      </g>
     </g>
     <g id="text_6">
      <!-- 60 -->
      <g style="fill: #2c3e50" transform="translate(275.542969 273.300406) scale(0.1 -0.1)">
       <defs>
        <path id="DejaVuSans-36" d="M 2113 2584 
Q 1688 2584 1439 2293 
Q 1191 2003 1191 1497 
Q 1191 994 1439 701 
Q 1688 409 2113 409 
Q 2538 409 2786 701 
Q 3034 994 3034 1497 
Q 3034 2003 2786 2293 
Q 2538 2584 2113 2584 
z
M 3366 4563 
L 3366 3988 
Q 3128 4100 2886 4159 
Q 2644 4219 2406 4219 
Q 1781 4219 1451 3797 
Q 1122 3375 1075 2522 
Q 1259 2794 1537 2939 
Q 1816 3084 2150 3084 
Q 2853 3084 3261 2657 
Q 3669 2231 3669 1497 
Q 3669 778 3244 343 
Q 2819 -91 2113 -91 
Q 1303 -91 875 529 
Q 447 1150 447 2328 
Q 447 3434 972 4092 
Q 1497 4750 2381 4750 
Q 2619 4750 2861 4703 
Q 3103 4656 3366 4563 
z
" transform="scale(0.015625)"/>
       </defs>
       <use xlink:href="#DejaVuSans-36"/>
       <use xlink:href="#DejaVuSans-30" x="63.623047"/>
      </g>
     </g>
    </g>
    <g id="xtick_7">
     <g id="line2d_13">
      <path d="M 323.755469 258.701969 
L 323.755469 31.397969 
" clip-path="url(#pe56574f3d0)" style="fill: none; stroke-dasharray: 0.8,1.28; stroke-dashoffset: 0; stroke: #b0b0b0; stroke-opacity: 0.3; stroke-width: 0.8"/>
     </g>
     <g id="line2d_14">
      <g>
       <use xlink:href="#mdfd92991f6" x="323.755469" y="258.701969" style="fill: #2c3e50; stroke: #2c3e50; stroke-width: 0.8"/>
      </g>
     </g>
     <g id="text_7">
      <!-- 70 -->
      <g style="fill: #2c3e50" transform="translate(317.392969 273.300406) scale(0.1 -0.1)">
       <defs>
        <path id="DejaVuSans-37" d="M 525 4666 
L 3525 4666 
L 3525 4397 
L 1831 0 
L 1172 0 
L 2766 4134 
L 525 4134 
L 525 4666 
z
" transform="scale(0.015625)"/>
       </defs>
       <use xlink:href="#DejaVuSans-37"/>
       <use xlink:href="#DejaVuSans-30" x="63.623047"/>
      </g>
     </g>
    </g>
    <g id="xtick_8">
     <g id="line2d_15">
      <path d="M 365.605469 258.701969 
L 365.605469 31.397969 
" clip-path="url(#pe56574f3d0)" style="fill: none; stroke-dasharray: 0.8,1.28; stroke-dashoffset: 0; stroke: #b0b0b0; stroke-opacity: 0.3; stroke-width: 0.8"/>
     </g>
     <g id="line2d_16">
      <g>
       <use xlink:href="#mdfd92991f6" x="365.605469" y="258.701969" style="fill: #2c3e50; stroke: #2c3e50; stroke-width: 0.8"/>
      </g>
     </g>
     <g id="text_8">
      <!-- 80 -->
      <g style="fill: #2c3e50" transform="translate(359.242969 273.300406) scale(0.1 -0.1)">
       <defs>
        <path id="DejaVuSans-38" d="M 2034 2216 
Q 1584 2216 1326 1975 
Q 1069 1734 1069 1313 
Q 1069 891 1326 650 
Q 1584 409 2034 409 
Q 2484 409 2743 651 
Q 3003 894 3003 1313 
Q 3003 1734 2745 1975 
Q 2488 2216 2034 2216 
z
M 1403 2484 
Q 997 2584 770 2862 
Q 544 3141 544 3541 
Q 544 4100 942 4425 
Q 1341 4750 2034 4750 
Q 2731 4750 3128 4425 
Q 3525 4100 3525 3541 
Q 3525 3141 3298 2862 
Q 3072 2584 2669 2484 
Q 3125 2378 3379 2068 
Q 3634 1759 3634 1313 
Q 3634 634 3220 271 
Q 2806 -91 2034 -91 
Q 1263 -91 848 271 
Q 434 634 434 1313 
Q 434 1759 690 2068 
Q 947 2378 1403 2484 
z
M 1172 3481 
Q 1172 3119 1398 2916 
Q 1625 2713 2034 2713 
Q 2441 2713 2670 2916 
Q 2900 3119 2900 3481 
Q 2900 3844 2670 4047 
Q 2441 4250 2034 4250 
Q 1625 4250 1398 4047 
Q 1172 3844 1172 3481 
z
" transform="scale(0.015625)"/>
       </defs>
       <use xlink:href="#DejaVuSans-38"/>
       <use xlink:href="#DejaVuSans-30" x="63.623047"/>
      </g>
     </g>
    </g>
    <g id="xtick_9">
     <g id="line2d_17">
      <path d="M 407.455469 258.701969 
L 407.455469 31.397969 
" clip-path="url(#pe56574f3d0)" style="fill: none; stroke-dasharray: 0.8,1.28; stroke-dashoffset: 0; stroke: #b0b0b0; stroke-opacity: 0.3; stroke-width: 0.8"/>
     </g>
     <g id="line2d_18">
      <g>
       <use xlink:href="#mdfd92991f6" x="407.455469" y="258.701969" style="fill: #2c3e50; stroke: #2c3e50; stroke-width: 0.8"/>
      </g>
     </g>
     <g id="text_9">
      <!-- 90 -->
      <g style="fill: #2c3e50" transform="translate(401.092969 273.300406) scale(0.1 -0.1)">
       <defs>
        <path id="DejaVuSans-39" d="M 703 97 
L 703 672 
Q 941 559 1184 500 
Q 1428 441 1663 441 
Q 2288 441 2617 861 
Q 2947 1281 2994 2138 
Q 2813 1869 2534 1725 
Q 2256 1581 1919 1581 
Q 1219 1581 811 2004 
Q 403 2428 403 3163 
Q 403 3881 828 4315 
Q 1253 4750 1959 4750 
Q 2769 4750 3195 4129 
Q 3622 3509 3622 2328 
Q 3622 1225 3098 567 
Q 2575 -91 1691 -91 
Q 1453 -91 1209 -44 
Q 966 3 703 97 
z
M 1959 2075 
Q 2384 2075 2632 2365 
Q 2881 2656 2881 3163 
Q 2881 3666 2632 3958 
Q 2384 4250 1959 4250 
Q 1534 4250 1286 3958 
Q 1038 3666 1038 3163 
Q 1038 2656 1286 2365 
Q 1534 2075 1959 2075 
z
" transform="scale(0.015625)"/>
       </defs>
       <use xlink:href="#DejaVuSans-39"/>
       <use xlink:href="#DejaVuSans-30" x="63.623047"/>
      </g>
     </g>
    </g>
    <g id="text_10">
     <!-- Valor -->
     <g transform="translate(223.284336 288.118297) scale(0.115 -0.115)">
      <defs>
       <path id="DejaVuSans-Bold-56" d="M 31 4666 
L 1241 4666 
L 2478 1222 
L 3713 4666 
L 4922 4666 
L 3194 0 
L 1759 0 
L 31 4666 
z
" transform="scale(0.015625)"/>
       <path id="DejaVuSans-Bold-61" d="M 2106 1575 
Q 1756 1575 1579 1456 
Q 1403 1338 1403 1106 
Q 1403 894 1545 773 
Q 1688 653 1941 653 
Q 2256 653 2472 879 
Q 2688 1106 2688 1447 
L 2688 1575 
L 2106 1575 
z
M 3816 1997 
L 3816 0 
L 2688 0 
L 2688 519 
Q 2463 200 2181 54 
Q 1900 -91 1497 -91 
Q 953 -91 614 226 
Q 275 544 275 1050 
Q 275 1666 698 1953 
Q 1122 2241 2028 2241 
L 2688 2241 
L 2688 2328 
Q 2688 2594 2478 2717 
Q 2269 2841 1825 2841 
Q 1466 2841 1156 2769 
Q 847 2697 581 2553 
L 581 3406 
Q 941 3494 1303 3539 
Q 1666 3584 2028 3584 
Q 2975 3584 3395 3211 
Q 3816 2838 3816 1997 
z
" transform="scale(0.015625)"/>
       <path id="DejaVuSans-Bold-6c" d="M 538 4863 
L 1656 4863 
L 1656 0 
L 538 0 
L 538 4863 
z
" transform="scale(0.015625)"/>
       <path id="DejaVuSans-Bold-6f" d="M 2203 2784 
Q 1831 2784 1636 2517 
Q 1441 2250 1441 1747 
Q 1441 1244 1636 976 
Q 1831 709 2203 709 
Q 2569 709 2762 976 
Q 2956 1244 2956 1747 
Q 2956 2250 2762 2517 
Q 2569 2784 2203 2784 
z
M 2203 3584 
Q 3106 3584 3614 3096 
Q 4122 2609 4122 1747 
Q 4122 884 3614 396 
Q 3106 -91 2203 -91 
Q 1297 -91 786 396 
Q 275 884 275 1747 
Q 275 2609 786 3096 
Q 1297 3584 2203 3584 
z
" transform="scale(0.015625)"/>
       <path id="DejaVuSans-Bold-72" d="M 3138 2547 
Q 2991 2616 2845 2648 
Q 2700 2681 2553 2681 
Q 2122 2681 1889 2404 
Q 1656 2128 1656 1613 
L 1656 0 
L 538 0 
L 538 3500 
L 1656 3500 
L 1656 2925 
Q 1872 3269 2151 3426 
Q 2431 3584 2822 3584 
Q 2878 3584 2943 3579 
Q 3009 3575 3134 3559 
L 3138 2547 
z
" transform="scale(0.015625)"/>
      </defs>
      <use xlink:href="#DejaVuSans-Bold-56"/>
      <use xlink:href="#DejaVuSans-Bold-61" x="71.892578"/>
      <use xlink:href="#DejaVuSans-Bold-6c" x="139.373047"/>
      <use xlink:href="#DejaVuSans-Bold-6f" x="173.650391"/>
      <use xlink:href="#DejaVuSans-Bold-72" x="242.351562"/>
     </g>
    </g>
   </g>
   <g id="matplotlib.axis_2">
    <g id="ytick_1">
     <g id="line2d_19">
      <path d="M 55.915469 258.701969 
L 424.195469 258.701969 
" clip-path="url(#pe56574f3d0)" style="fill: none; stroke-dasharray: 0.8,1.28; stroke-dashoffset: 0; stroke: #b0b0b0; stroke-opacity: 0.3; stroke-width: 0.8"/>
     </g>
     <g id="line2d_20">
      <defs>
       <path id="m38333ad8ad" d="M 0 0 
L -3.5 0 
" style="stroke: #2c3e50; stroke-width: 0.8"/>
      </defs>
      <g>
       <use xlink:href="#m38333ad8ad" x="55.915469" y="258.701969" style="fill: #2c3e50; stroke: #2c3e50; stroke-width: 0.8"/>
      </g>
     </g>
     <g id="text_11">
      <!-- 0.00 -->
      <g style="fill: #2c3e50" transform="translate(26.649844 262.501187) scale(0.1 -0.1)">
       <defs>
        <path id="DejaVuSans-2e" d="M 684 794 
L 1344 794 
L 1344 0 
L 684 0 
L 684 794 
z
" transform="scale(0.015625)"/>
       </defs>
       <use xlink:href="#DejaVuSans-30"/>
       <use xlink:href="#DejaVuSans-2e" x="63.623047"/>
       <use xlink:href="#DejaVuSans-30" x="95.410156"/>
       <use xlink:href="#DejaVuSans-30" x="159.033203"/>
      </g>
     </g>
    </g>
    <g id="ytick_2">
     <g id="line2d_21">
      <path d="M 55.915469 219.675987 
L 424.195469 219.675987 
" clip-path="url(#pe56574f3d0)" style="fill: none; stroke-dasharray: 0.8,1.28; stroke-dashoffset: 0; stroke: #b0b0b0; stroke-opacity: 0.3; stroke-width: 0.8"/>
     </g>
     <g id="line2d_22">
      <g>
       <use xlink:href="#m38333ad8ad" x="55.915469" y="219.675987" style="fill: #2c3e50; stroke: #2c3e50; stroke-width: 0.8"/>
      </g>
     </g>
     <g id="text_12">
      <!-- 0.01 -->
      <g style="fill: #2c3e50" transform="translate(26.649844 223.475205) scale(0.1 -0.1)">
       <use xlink:href="#DejaVuSans-30"/>
       <use xlink:href="#DejaVuSans-2e" x="63.623047"/>
       <use xlink:href="#DejaVuSans-30" x="95.410156"/>
       <use xlink:href="#DejaVuSans-31" x="159.033203"/>
      </g>
     </g>
    </g>
    <g id="ytick_3">
     <g id="line2d_23">
      <path d="M 55.915469 180.650005 
L 424.195469 180.650005 
" clip-path="url(#pe56574f3d0)" style="fill: none; stroke-dasharray: 0.8,1.28; stroke-dashoffset: 0; stroke: #b0b0b0; stroke-opacity: 0.3; stroke-width: 0.8"/>
     </g>
     <g id="line2d_24">
      <g>
       <use xlink:href="#m38333ad8ad" x="55.915469" y="180.650005" style="fill: #2c3e50; stroke: #2c3e50; stroke-width: 0.8"/>
      </g>
     </g>
     <g id="text_13">
      <!-- 0.02 -->
      <g style="fill: #2c3e50" transform="translate(26.649844 184.449223) scale(0.1 -0.1)">
       <use xlink:href="#DejaVuSans-30"/>
       <use xlink:href="#DejaVuSans-2e" x="63.623047"/>
       <use xlink:href="#DejaVuSans-30" x="95.410156"/>
       <use xlink:href="#DejaVuSans-32" x="159.033203"/>
      </g>
     </g>
    </g>
    <g id="ytick_4">
     <g id="line2d_25">
      <path d="M 55.915469 141.624023 
L 424.195469 141.624023 
" clip-path="url(#pe56574f3d0)" style="fill: none; stroke-dasharray: 0.8,1.28; stroke-dashoffset: 0; stroke: #b0b0b0; stroke-opacity: 0.3; stroke-width: 0.8"/>
     </g>
     <g id="line2d_26">
      <g>
       <use xlink:href="#m38333ad8ad" x="55.915469" y="141.624023" style="fill: #2c3e50; stroke: #2c3e50; stroke-width: 0.8"/>
      </g>
     </g>
     <g id="text_14">
      <!-- 0.03 -->
      <g style="fill: #2c3e50" transform="translate(26.649844 145.423241) scale(0.1 -0.1)">
       <use xlink:href="#DejaVuSans-30"/>
       <use xlink:href="#DejaVuSans-2e" x="63.623047"/>
       <use xlink:href="#DejaVuSans-30" x="95.410156"/>
       <use xlink:href="#DejaVuSans-33" x="159.033203"/>
      </g>
     </g>
    </g>
    <g id="ytick_5">
     <g id="line2d_27">
      <path d="M 55.915469 102.598041 
L 424.195469 102.598041 
" clip-path="url(#pe56574f3d0)" style="fill: none; stroke-dasharray: 0.8,1.28; stroke-dashoffset: 0; stroke: #b0b0b0; stroke-opacity: 0.3; stroke-width: 0.8"/>
     </g>
     <g id="line2d_28">
      <g>
       <use xlink:href="#m38333ad8ad" x="55.915469" y="102.598041" style="fill: #2c3e50; stroke: #2c3e50; stroke-width: 0.8"/>
      </g>
     </g>
     <g id="text_15">
      <!-- 0.04 -->
      <g style="fill: #2c3e50" transform="translate(26.649844 106.397259) scale(0.1 -0.1)">
       <use xlink:href="#DejaVuSans-30"/>
       <use xlink:href="#DejaVuSans-2e" x="63.623047"/>
       <use xlink:href="#DejaVuSans-30" x="95.410156"/>
       <use xlink:href="#DejaVuSans-34" x="159.033203"/>
      </g>
     </g>
    </g>
    <g id="ytick_6">
     <g id="line2d_29">
      <path d="M 55.915469 63.572059 
L 424.195469 63.572059 
" clip-path="url(#pe56574f3d0)" style="fill: none; stroke-dasharray: 0.8,1.28; stroke-dashoffset: 0; stroke: #b0b0b0; stroke-opacity: 0.3; stroke-width: 0.8"/>
     </g>
     <g id="line2d_30">
      <g>
       <use xlink:href="#m38333ad8ad" x="55.915469" y="63.572059" style="fill: #2c3e50; stroke: #2c3e50; stroke-width: 0.8"/>
      </g>
     </g>
     <g id="text_16">
      <!-- 0.05 -->
      <g style="fill: #2c3e50" transform="translate(26.649844 67.371277) scale(0.1 -0.1)">
       <use xlink:href="#DejaVuSans-30"/>
       <use xlink:href="#DejaVuSans-2e" x="63.623047"/>
       <use xlink:href="#DejaVuSans-30" x="95.410156"/>
       <use xlink:href="#DejaVuSans-35" x="159.033203"/>
      </g>
     </g>
    </g>
    <g id="text_17">
     <!-- Densidad -->
     <g transform="translate(20.258203 175.321922) rotate(-90) scale(0.115 -0.115)">
      <defs>
       <path id="DejaVuSans-Bold-44" d="M 1791 3756 
L 1791 909 
L 2222 909 
Q 2959 909 3348 1275 
Q 3738 1641 3738 2338 
Q 3738 3031 3350 3393 
Q 2963 3756 2222 3756 
L 1791 3756 
z
M 588 4666 
L 1856 4666 
Q 2919 4666 3439 4514 
Q 3959 4363 4331 4000 
Q 4659 3684 4818 3271 
Q 4978 2859 4978 2338 
Q 4978 1809 4818 1395 
Q 4659 981 4331 666 
Q 3956 303 3431 151 
Q 2906 0 1856 0 
L 588 0 
L 588 4666 
z
" transform="scale(0.015625)"/>
       <path id="DejaVuSans-Bold-65" d="M 4031 1759 
L 4031 1441 
L 1416 1441 
Q 1456 1047 1700 850 
Q 1944 653 2381 653 
Q 2734 653 3104 758 
Q 3475 863 3866 1075 
L 3866 213 
Q 3469 63 3072 -14 
Q 2675 -91 2278 -91 
Q 1328 -91 801 392 
Q 275 875 275 1747 
Q 275 2603 792 3093 
Q 1309 3584 2216 3584 
Q 3041 3584 3536 3087 
Q 4031 2591 4031 1759 
z
M 2881 2131 
Q 2881 2450 2695 2645 
Q 2509 2841 2209 2841 
Q 1884 2841 1681 2658 
Q 1478 2475 1428 2131 
L 2881 2131 
z
" transform="scale(0.015625)"/>
       <path id="DejaVuSans-Bold-6e" d="M 4056 2131 
L 4056 0 
L 2931 0 
L 2931 347 
L 2931 1631 
Q 2931 2084 2911 2256 
Q 2891 2428 2841 2509 
Q 2775 2619 2662 2680 
Q 2550 2741 2406 2741 
Q 2056 2741 1856 2470 
Q 1656 2200 1656 1722 
L 1656 0 
L 538 0 
L 538 3500 
L 1656 3500 
L 1656 2988 
Q 1909 3294 2193 3439 
Q 2478 3584 2822 3584 
Q 3428 3584 3742 3212 
Q 4056 2841 4056 2131 
z
" transform="scale(0.015625)"/>
       <path id="DejaVuSans-Bold-73" d="M 3272 3391 
L 3272 2541 
Q 2913 2691 2578 2766 
Q 2244 2841 1947 2841 
Q 1628 2841 1473 2761 
Q 1319 2681 1319 2516 
Q 1319 2381 1436 2309 
Q 1553 2238 1856 2203 
L 2053 2175 
Q 2913 2066 3209 1816 
Q 3506 1566 3506 1031 
Q 3506 472 3093 190 
Q 2681 -91 1863 -91 
Q 1516 -91 1145 -36 
Q 775 19 384 128 
L 384 978 
Q 719 816 1070 734 
Q 1422 653 1784 653 
Q 2113 653 2278 743 
Q 2444 834 2444 1013 
Q 2444 1163 2330 1236 
Q 2216 1309 1875 1350 
L 1678 1375 
Q 931 1469 631 1722 
Q 331 1975 331 2491 
Q 331 3047 712 3315 
Q 1094 3584 1881 3584 
Q 2191 3584 2531 3537 
Q 2872 3491 3272 3391 
z
" transform="scale(0.015625)"/>
       <path id="DejaVuSans-Bold-69" d="M 538 3500 
L 1656 3500 
L 1656 0 
L 538 0 
L 538 3500 
z
M 538 4863 
L 1656 4863 
L 1656 3950 
L 538 3950 
L 538 4863 
z
" transform="scale(0.015625)"/>
       <path id="DejaVuSans-Bold-64" d="M 2919 2988 
L 2919 4863 
L 4044 4863 
L 4044 0 
L 2919 0 
L 2919 506 
Q 2688 197 2409 53 
Q 2131 -91 1766 -91 
Q 1119 -91 703 423 
Q 288 938 288 1747 
Q 288 2556 703 3070 
Q 1119 3584 1766 3584 
Q 2128 3584 2408 3439 
Q 2688 3294 2919 2988 
z
M 2181 722 
Q 2541 722 2730 984 
Q 2919 1247 2919 1747 
Q 2919 2247 2730 2509 
Q 2541 2772 2181 2772 
Q 1825 2772 1636 2509 
Q 1447 2247 1447 1747 
Q 1447 1247 1636 984 
Q 1825 722 2181 722 
z
" transform="scale(0.015625)"/>
      </defs>
      <use xlink:href="#DejaVuSans-Bold-44"/>
      <use xlink:href="#DejaVuSans-Bold-65" x="83.007812"/>
      <use xlink:href="#DejaVuSans-Bold-6e" x="150.830078"/>
      <use xlink:href="#DejaVuSans-Bold-73" x="222.021484"/>
      <use xlink:href="#DejaVuSans-Bold-69" x="281.542969"/>
      <use xlink:href="#DejaVuSans-Bold-64" x="315.820312"/>
      <use xlink:href="#DejaVuSans-Bold-61" x="387.402344"/>
      <use xlink:href="#DejaVuSans-Bold-64" x="454.882812"/>
     </g>
    </g>
   </g>
   <g id="PolyCollection_1">
    <defs>
     <path id="m087814d351" d="M 72.655469 -43.327969 
L 72.655469 -43.380197 
L 73.2144 -43.383058 
L 73.773332 -43.386066 
L 74.332263 -43.389227 
L 74.891195 -43.392548 
L 75.450127 -43.396037 
L 76.009058 -43.399702 
L 76.56799 -43.403551 
L 77.126921 -43.407592 
L 77.685853 -43.411834 
L 78.244784 -43.416286 
L 78.803716 -43.420958 
L 79.362647 -43.42586 
L 79.921579 -43.431002 
L 80.48051 -43.436394 
L 81.039442 -43.442049 
L 81.598374 -43.447976 
L 82.157305 -43.45419 
L 82.716237 -43.460701 
L 83.275168 -43.467524 
L 83.8341 -43.474671 
L 84.393031 -43.482156 
L 84.951963 -43.489995 
L 85.510894 -43.498201 
L 86.069826 -43.506792 
L 86.628758 -43.515782 
L 87.187689 -43.525189 
L 87.746621 -43.53503 
L 88.305552 -43.545324 
L 88.864484 -43.556089 
L 89.423415 -43.567344 
L 89.982347 -43.57911 
L 90.541278 -43.591407 
L 91.10021 -43.604257 
L 91.659142 -43.617682 
L 92.218073 -43.631705 
L 92.777005 -43.64635 
L 93.335936 -43.661642 
L 93.894868 -43.677606 
L 94.453799 -43.694268 
L 95.012731 -43.711656 
L 95.571662 -43.729797 
L 96.130594 -43.748721 
L 96.689526 -43.768458 
L 97.248457 -43.789039 
L 97.807389 -43.810495 
L 98.36632 -43.832859 
L 98.925252 -43.856166 
L 99.484183 -43.88045 
L 100.043115 -43.905747 
L 100.602046 -43.932095 
L 101.160978 -43.959532 
L 101.719909 -43.988097 
L 102.278841 -44.017831 
L 102.837773 -44.048776 
L 103.396704 -44.080974 
L 103.955636 -44.114471 
L 104.514567 -44.149311 
L 105.073499 -44.185541 
L 105.63243 -44.22321 
L 106.191362 -44.262367 
L 106.750293 -44.303062 
L 107.309225 -44.345349 
L 107.868157 -44.389279 
L 108.427088 -44.43491 
L 108.98602 -44.482296 
L 109.544951 -44.531496 
L 110.103883 -44.582569 
L 110.662814 -44.635577 
L 111.221746 -44.690581 
L 111.780677 -44.747645 
L 112.339609 -44.806836 
L 112.898541 -44.868219 
L 113.457472 -44.931864 
L 114.016404 -44.997842 
L 114.575335 -45.066223 
L 115.134267 -45.137081 
L 115.693198 -45.210493 
L 116.25213 -45.286533 
L 116.811061 -45.365282 
L 117.369993 -45.44682 
L 117.928925 -45.531227 
L 118.487856 -45.618588 
L 119.046788 -45.708989 
L 119.605719 -45.802516 
L 120.164651 -45.899258 
L 120.723582 -45.999305 
L 121.282514 -46.102751 
L 121.841445 -46.209688 
L 122.400377 -46.320212 
L 122.959308 -46.434422 
L 123.51824 -46.552415 
L 124.077172 -46.674293 
L 124.636103 -46.800159 
L 125.195035 -46.930116 
L 125.753966 -47.064271 
L 126.312898 -47.202731 
L 126.871829 -47.345605 
L 127.430761 -47.493005 
L 127.989692 -47.645042 
L 128.548624 -47.801831 
L 129.107556 -47.963487 
L 129.666487 -48.130128 
L 130.225419 -48.301872 
L 130.78435 -48.478839 
L 131.343282 -48.661152 
L 131.902213 -48.848932 
L 132.461145 -49.042305 
L 133.020076 -49.241396 
L 133.579008 -49.446332 
L 134.13794 -49.657241 
L 134.696871 -49.874252 
L 135.255803 -50.097497 
L 135.814734 -50.327106 
L 136.373666 -50.563213 
L 136.932597 -50.80595 
L 137.491529 -51.055453 
L 138.05046 -51.311856 
L 138.609392 -51.575295 
L 139.168324 -51.845907 
L 139.727255 -52.12383 
L 140.286187 -52.409201 
L 140.845118 -52.702158 
L 141.40405 -53.002839 
L 141.962981 -53.311385 
L 142.521913 -53.627933 
L 143.080844 -53.952622 
L 143.639776 -54.285592 
L 144.198707 -54.626982 
L 144.757639 -54.97693 
L 145.316571 -55.335574 
L 145.875502 -55.703052 
L 146.434434 -56.079502 
L 146.993365 -56.46506 
L 147.552297 -56.859862 
L 148.111228 -57.264042 
L 148.67016 -57.677735 
L 149.229091 -58.101074 
L 149.788023 -58.534188 
L 150.346955 -58.977209 
L 150.905886 -59.430265 
L 151.464818 -59.893482 
L 152.023749 -60.366985 
L 152.582681 -60.850896 
L 153.141612 -61.345336 
L 153.700544 -61.850424 
L 154.259475 -62.366275 
L 154.818407 -62.893002 
L 155.377339 -63.430716 
L 155.93627 -63.979524 
L 156.495202 -64.539531 
L 157.054133 -65.110837 
L 157.613065 -65.693542 
L 158.171996 -66.287738 
L 158.730928 -66.893517 
L 159.289859 -67.510964 
L 159.848791 -68.140164 
L 160.407723 -68.781194 
L 160.966654 -69.434127 
L 161.525586 -70.099035 
L 162.084517 -70.775981 
L 162.643449 -71.465025 
L 163.20238 -72.166222 
L 163.761312 -72.879622 
L 164.320243 -73.605269 
L 164.879175 -74.343202 
L 165.438106 -75.093453 
L 165.997038 -75.85605 
L 166.55597 -76.631014 
L 167.114901 -77.418359 
L 167.673833 -78.218095 
L 168.232764 -79.030224 
L 168.791696 -79.85474 
L 169.350627 -80.691633 
L 169.909559 -81.540883 
L 170.46849 -82.402466 
L 171.027422 -83.276349 
L 171.586354 -84.162491 
L 172.145285 -85.060846 
L 172.704217 -85.971356 
L 173.263148 -86.893961 
L 173.82208 -87.828588 
L 174.381011 -88.775158 
L 174.939943 -89.733585 
L 175.498874 -90.703772 
L 176.057806 -91.685616 
L 176.616738 -92.679006 
L 177.175669 -93.683818 
L 177.734601 -94.699926 
L 178.293532 -95.727189 
L 178.852464 -96.765462 
L 179.411395 -97.814588 
L 179.970327 -98.874402 
L 180.529258 -99.944731 
L 181.08819 -101.025392 
L 181.647122 -102.116193 
L 182.206053 -103.216932 
L 182.764985 -104.3274 
L 183.323916 -105.447377 
L 183.882848 -106.576634 
L 184.441779 -107.714934 
L 185.000711 -108.86203 
L 185.559642 -110.017665 
L 186.118574 -111.181575 
L 186.677505 -112.353485 
L 187.236437 -113.533111 
L 187.795369 -114.720161 
L 188.3543 -115.914334 
L 188.913232 -117.115319 
L 189.472163 -118.322796 
L 190.031095 -119.536439 
L 190.590026 -120.75591 
L 191.148958 -121.980863 
L 191.707889 -123.210946 
L 192.266821 -124.445797 
L 192.825753 -125.685044 
L 193.384684 -126.92831 
L 193.943616 -128.175209 
L 194.502547 -129.425347 
L 195.061479 -130.678322 
L 195.62041 -131.933726 
L 196.179342 -133.191141 
L 196.738273 -134.450146 
L 197.297205 -135.71031 
L 197.856137 -136.971196 
L 198.415068 -138.232362 
L 198.974 -139.493358 
L 199.532931 -140.753729 
L 200.091863 -142.013015 
L 200.650794 -143.27075 
L 201.209726 -144.526461 
L 201.768657 -145.779674 
L 202.327589 -147.029907 
L 202.886521 -148.276675 
L 203.445452 -149.51949 
L 204.004384 -150.757857 
L 204.563315 -151.991282 
L 205.122247 -153.219265 
L 205.681178 -154.441304 
L 206.24011 -155.656894 
L 206.799041 -156.865529 
L 207.357973 -158.066701 
L 207.916904 -159.2599 
L 208.475836 -160.444615 
L 209.034768 -161.620335 
L 209.593699 -162.786547 
L 210.152631 -163.942741 
L 210.711562 -165.088405 
L 211.270494 -166.223028 
L 211.270494 -43.327969 
L 211.270494 -43.327969 
L 210.711562 -43.327969 
L 210.152631 -43.327969 
L 209.593699 -43.327969 
L 209.034768 -43.327969 
L 208.475836 -43.327969 
L 207.916904 -43.327969 
L 207.357973 -43.327969 
L 206.799041 -43.327969 
L 206.24011 -43.327969 
L 205.681178 -43.327969 
L 205.122247 -43.327969 
L 204.563315 -43.327969 
L 204.004384 -43.327969 
L 203.445452 -43.327969 
L 202.886521 -43.327969 
L 202.327589 -43.327969 
L 201.768657 -43.327969 
L 201.209726 -43.327969 
L 200.650794 -43.327969 
L 200.091863 -43.327969 
L 199.532931 -43.327969 
L 198.974 -43.327969 
L 198.415068 -43.327969 
L 197.856137 -43.327969 
L 197.297205 -43.327969 
L 196.738273 -43.327969 
L 196.179342 -43.327969 
L 195.62041 -43.327969 
L 195.061479 -43.327969 
L 194.502547 -43.327969 
L 193.943616 -43.327969 
L 193.384684 -43.327969 
L 192.825753 -43.327969 
L 192.266821 -43.327969 
L 191.707889 -43.327969 
L 191.148958 -43.327969 
L 190.590026 -43.327969 
L 190.031095 -43.327969 
L 189.472163 -43.327969 
L 188.913232 -43.327969 
L 188.3543 -43.327969 
L 187.795369 -43.327969 
L 187.236437 -43.327969 
L 186.677505 -43.327969 
L 186.118574 -43.327969 
L 185.559642 -43.327969 
L 185.000711 -43.327969 
L 184.441779 -43.327969 
L 183.882848 -43.327969 
L 183.323916 -43.327969 
L 182.764985 -43.327969 
L 182.206053 -43.327969 
L 181.647122 -43.327969 
L 181.08819 -43.327969 
L 180.529258 -43.327969 
L 179.970327 -43.327969 
L 179.411395 -43.327969 
L 178.852464 -43.327969 
L 178.293532 -43.327969 
L 177.734601 -43.327969 
L 177.175669 -43.327969 
L 176.616738 -43.327969 
L 176.057806 -43.327969 
L 175.498874 -43.327969 
L 174.939943 -43.327969 
L 174.381011 -43.327969 
L 173.82208 -43.327969 
L 173.263148 -43.327969 
L 172.704217 -43.327969 
L 172.145285 -43.327969 
L 171.586354 -43.327969 
L 171.027422 -43.327969 
L 170.46849 -43.327969 
L 169.909559 -43.327969 
L 169.350627 -43.327969 
L 168.791696 -43.327969 
L 168.232764 -43.327969 
L 167.673833 -43.327969 
L 167.114901 -43.327969 
L 166.55597 -43.327969 
L 165.997038 -43.327969 
L 165.438106 -43.327969 
L 164.879175 -43.327969 
L 164.320243 -43.327969 
L 163.761312 -43.327969 
L 163.20238 -43.327969 
L 162.643449 -43.327969 
L 162.084517 -43.327969 
L 161.525586 -43.327969 
L 160.966654 -43.327969 
L 160.407723 -43.327969 
L 159.848791 -43.327969 
L 159.289859 -43.327969 
L 158.730928 -43.327969 
L 158.171996 -43.327969 
L 157.613065 -43.327969 
L 157.054133 -43.327969 
L 156.495202 -43.327969 
L 155.93627 -43.327969 
L 155.377339 -43.327969 
L 154.818407 -43.327969 
L 154.259475 -43.327969 
L 153.700544 -43.327969 
L 153.141612 -43.327969 
L 152.582681 -43.327969 
L 152.023749 -43.327969 
L 151.464818 -43.327969 
L 150.905886 -43.327969 
L 150.346955 -43.327969 
L 149.788023 -43.327969 
L 149.229091 -43.327969 
L 148.67016 -43.327969 
L 148.111228 -43.327969 
L 147.552297 -43.327969 
L 146.993365 -43.327969 
L 146.434434 -43.327969 
L 145.875502 -43.327969 
L 145.316571 -43.327969 
L 144.757639 -43.327969 
L 144.198707 -43.327969 
L 143.639776 -43.327969 
L 143.080844 -43.327969 
L 142.521913 -43.327969 
L 141.962981 -43.327969 
L 141.40405 -43.327969 
L 140.845118 -43.327969 
L 140.286187 -43.327969 
L 139.727255 -43.327969 
L 139.168324 -43.327969 
L 138.609392 -43.327969 
L 138.05046 -43.327969 
L 137.491529 -43.327969 
L 136.932597 -43.327969 
L 136.373666 -43.327969 
L 135.814734 -43.327969 
L 135.255803 -43.327969 
L 134.696871 -43.327969 
L 134.13794 -43.327969 
L 133.579008 -43.327969 
L 133.020076 -43.327969 
L 132.461145 -43.327969 
L 131.902213 -43.327969 
L 131.343282 -43.327969 
L 130.78435 -43.327969 
L 130.225419 -43.327969 
L 129.666487 -43.327969 
L 129.107556 -43.327969 
L 128.548624 -43.327969 
L 127.989692 -43.327969 
L 127.430761 -43.327969 
L 126.871829 -43.327969 
L 126.312898 -43.327969 
L 125.753966 -43.327969 
L 125.195035 -43.327969 
L 124.636103 -43.327969 
L 124.077172 -43.327969 
L 123.51824 -43.327969 
L 122.959308 -43.327969 
L 122.400377 -43.327969 
L 121.841445 -43.327969 
L 121.282514 -43.327969 
L 120.723582 -43.327969 
L 120.164651 -43.327969 
L 119.605719 -43.327969 
L 119.046788 -43.327969 
L 118.487856 -43.327969 
L 117.928925 -43.327969 
L 117.369993 -43.327969 
L 116.811061 -43.327969 
L 116.25213 -43.327969 
L 115.693198 -43.327969 
L 115.134267 -43.327969 
L 114.575335 -43.327969 
L 114.016404 -43.327969 
L 113.457472 -43.327969 
L 112.898541 -43.327969 
L 112.339609 -43.327969 
L 111.780677 -43.327969 
L 111.221746 -43.327969 
L 110.662814 -43.327969 
L 110.103883 -43.327969 
L 109.544951 -43.327969 
L 108.98602 -43.327969 
L 108.427088 -43.327969 
L 107.868157 -43.327969 
L 107.309225 -43.327969 
L 106.750293 -43.327969 
L 106.191362 -43.327969 
L 105.63243 -43.327969 
L 105.073499 -43.327969 
L 104.514567 -43.327969 
L 103.955636 -43.327969 
L 103.396704 -43.327969 
L 102.837773 -43.327969 
L 102.278841 -43.327969 
L 101.719909 -43.327969 
L 101.160978 -43.327969 
L 100.602046 -43.327969 
L 100.043115 -43.327969 
L 99.484183 -43.327969 
L 98.925252 -43.327969 
L 98.36632 -43.327969 
L 97.807389 -43.327969 
L 97.248457 -43.327969 
L 96.689526 -43.327969 
L 96.130594 -43.327969 
L 95.571662 -43.327969 
L 95.012731 -43.327969 
L 94.453799 -43.327969 
L 93.894868 -43.327969 
L 93.335936 -43.327969 
L 92.777005 -43.327969 
L 92.218073 -43.327969 
L 91.659142 -43.327969 
L 91.10021 -43.327969 
L 90.541278 -43.327969 
L 89.982347 -43.327969 
L 89.423415 -43.327969 
L 88.864484 -43.327969 
L 88.305552 -43.327969 
L 87.746621 -43.327969 
L 87.187689 -43.327969 
L 86.628758 -43.327969 
L 86.069826 -43.327969 
L 85.510894 -43.327969 
L 84.951963 -43.327969 
L 84.393031 -43.327969 
L 83.8341 -43.327969 
L 83.275168 -43.327969 
L 82.716237 -43.327969 
L 82.157305 -43.327969 
L 81.598374 -43.327969 
L 81.039442 -43.327969 
L 80.48051 -43.327969 
L 79.921579 -43.327969 
L 79.362647 -43.327969 
L 78.803716 -43.327969 
L 78.244784 -43.327969 
L 77.685853 -43.327969 
L 77.126921 -43.327969 
L 76.56799 -43.327969 
L 76.009058 -43.327969 
L 75.450127 -43.327969 
L 74.891195 -43.327969 
L 74.332263 -43.327969 
L 73.773332 -43.327969 
L 73.2144 -43.327969 
L 72.655469 -43.327969 
z
" style="stroke: #2980b9; stroke-opacity: 0.18"/>
    </defs>
    <g clip-path="url(#pe56574f3d0)">
     <use xlink:href="#m087814d351" x="0" y="302.029937" style="fill: #2980b9; fill-opacity: 0.18; stroke: #2980b9; stroke-opacity: 0.18"/>
    </g>
   </g>
   <g id="PolyCollection_2">
    <defs>
     <path id="m5fd4f37886" d="M 211.829425 -43.327969 
L 211.829425 -167.3461 
L 212.388357 -168.457115 
L 212.947288 -169.555564 
L 213.50622 -170.640946 
L 214.065152 -171.712758 
L 214.624083 -172.770502 
L 215.183015 -173.813684 
L 215.741946 -174.841812 
L 216.300878 -175.8544 
L 216.859809 -176.850966 
L 217.418741 -177.831032 
L 217.977672 -178.794126 
L 218.536604 -179.739782 
L 219.095536 -180.66754 
L 219.654467 -181.576945 
L 220.213399 -182.467552 
L 220.77233 -183.338919 
L 221.331262 -184.190616 
L 221.890193 -185.022217 
L 222.449125 -185.833306 
L 223.008056 -186.623476 
L 223.566988 -187.392328 
L 224.12592 -188.139472 
L 224.684851 -188.864529 
L 225.243783 -189.56713 
L 225.802714 -190.246914 
L 226.361646 -190.903532 
L 226.920577 -191.536646 
L 227.479509 -192.145929 
L 228.03844 -192.731065 
L 228.597372 -193.29175 
L 229.156303 -193.827691 
L 229.715235 -194.33861 
L 230.274167 -194.824238 
L 230.833098 -195.284321 
L 231.39203 -195.718616 
L 231.950961 -196.126895 
L 232.509893 -196.508942 
L 233.068824 -196.864555 
L 233.627756 -197.193547 
L 234.186687 -197.495741 
L 234.745619 -197.770979 
L 235.304551 -198.019112 
L 235.863482 -198.24001 
L 236.422414 -198.433555 
L 236.981345 -198.599642 
L 237.540277 -198.738185 
L 238.099208 -198.849107 
L 238.65814 -198.932351 
L 239.217071 -198.987872 
L 239.776003 -199.01564 
L 239.776003 -43.327969 
L 239.776003 -43.327969 
L 239.217071 -43.327969 
L 238.65814 -43.327969 
L 238.099208 -43.327969 
L 237.540277 -43.327969 
L 236.981345 -43.327969 
L 236.422414 -43.327969 
L 235.863482 -43.327969 
L 235.304551 -43.327969 
L 234.745619 -43.327969 
L 234.186687 -43.327969 
L 233.627756 -43.327969 
L 233.068824 -43.327969 
L 232.509893 -43.327969 
L 231.950961 -43.327969 
L 231.39203 -43.327969 
L 230.833098 -43.327969 
L 230.274167 -43.327969 
L 229.715235 -43.327969 
L 229.156303 -43.327969 
L 228.597372 -43.327969 
L 228.03844 -43.327969 
L 227.479509 -43.327969 
L 226.920577 -43.327969 
L 226.361646 -43.327969 
L 225.802714 -43.327969 
L 225.243783 -43.327969 
L 224.684851 -43.327969 
L 224.12592 -43.327969 
L 223.566988 -43.327969 
L 223.008056 -43.327969 
L 222.449125 -43.327969 
L 221.890193 -43.327969 
L 221.331262 -43.327969 
L 220.77233 -43.327969 
L 220.213399 -43.327969 
L 219.654467 -43.327969 
L 219.095536 -43.327969 
L 218.536604 -43.327969 
L 217.977672 -43.327969 
L 217.418741 -43.327969 
L 216.859809 -43.327969 
L 216.300878 -43.327969 
L 215.741946 -43.327969 
L 215.183015 -43.327969 
L 214.624083 -43.327969 
L 214.065152 -43.327969 
L 213.50622 -43.327969 
L 212.947288 -43.327969 
L 212.388357 -43.327969 
L 211.829425 -43.327969 
z
" style="stroke: #16a085; stroke-opacity: 0.18"/>
    </defs>
    <g clip-path="url(#pe56574f3d0)">
     <use xlink:href="#m5fd4f37886" x="0" y="302.029937" style="fill: #16a085; fill-opacity: 0.18; stroke: #16a085; stroke-opacity: 0.18"/>
    </g>
   </g>
   <g id="PolyCollection_3">
    <defs>
     <path id="m58b81246c7" d="M 240.334935 -43.327969 
L 240.334935 -199.01564 
L 240.893866 -198.987872 
L 241.452798 -198.932351 
L 242.011729 -198.849107 
L 242.570661 -198.738185 
L 243.129592 -198.599642 
L 243.688524 -198.433555 
L 244.247455 -198.24001 
L 244.806387 -198.019112 
L 245.365318 -197.770979 
L 245.92425 -197.495741 
L 246.483182 -197.193547 
L 247.042113 -196.864555 
L 247.601045 -196.508942 
L 248.159976 -196.126895 
L 248.718908 -195.718616 
L 249.277839 -195.284321 
L 249.836771 -194.824238 
L 250.395702 -194.33861 
L 250.954634 -193.827691 
L 251.513566 -193.29175 
L 252.072497 -192.731065 
L 252.631429 -192.145929 
L 253.19036 -191.536646 
L 253.749292 -190.903532 
L 254.308223 -190.246914 
L 254.867155 -189.56713 
L 255.426086 -188.864529 
L 255.985018 -188.139472 
L 256.54395 -187.392328 
L 257.102881 -186.623476 
L 257.661813 -185.833306 
L 258.220744 -185.022217 
L 258.779676 -184.190616 
L 259.338607 -183.338919 
L 259.897539 -182.467552 
L 260.45647 -181.576945 
L 261.015402 -180.66754 
L 261.574334 -179.739782 
L 262.133265 -178.794126 
L 262.692197 -177.831032 
L 263.251128 -176.850966 
L 263.81006 -175.8544 
L 264.368991 -174.841812 
L 264.927923 -173.813684 
L 265.486854 -172.770502 
L 266.045786 -171.712758 
L 266.604717 -170.640946 
L 267.163649 -169.555564 
L 267.722581 -168.457115 
L 268.281512 -167.3461 
L 268.281512 -43.327969 
L 268.281512 -43.327969 
L 267.722581 -43.327969 
L 267.163649 -43.327969 
L 266.604717 -43.327969 
L 266.045786 -43.327969 
L 265.486854 -43.327969 
L 264.927923 -43.327969 
L 264.368991 -43.327969 
L 263.81006 -43.327969 
L 263.251128 -43.327969 
L 262.692197 -43.327969 
L 262.133265 -43.327969 
L 261.574334 -43.327969 
L 261.015402 -43.327969 
L 260.45647 -43.327969 
L 259.897539 -43.327969 
L 259.338607 -43.327969 
L 258.779676 -43.327969 
L 258.220744 -43.327969 
L 257.661813 -43.327969 
L 257.102881 -43.327969 
L 256.54395 -43.327969 
L 255.985018 -43.327969 
L 255.426086 -43.327969 
L 254.867155 -43.327969 
L 254.308223 -43.327969 
L 253.749292 -43.327969 
L 253.19036 -43.327969 
L 252.631429 -43.327969 
L 252.072497 -43.327969 
L 251.513566 -43.327969 
L 250.954634 -43.327969 
L 250.395702 -43.327969 
L 249.836771 -43.327969 
L 249.277839 -43.327969 
L 248.718908 -43.327969 
L 248.159976 -43.327969 
L 247.601045 -43.327969 
L 247.042113 -43.327969 
L 246.483182 -43.327969 
L 245.92425 -43.327969 
L 245.365318 -43.327969 
L 244.806387 -43.327969 
L 244.247455 -43.327969 
L 243.688524 -43.327969 
L 243.129592 -43.327969 
L 242.570661 -43.327969 
L 242.011729 -43.327969 
L 241.452798 -43.327969 
L 240.893866 -43.327969 
L 240.334935 -43.327969 
z
" style="stroke: #e67e22; stroke-opacity: 0.18"/>
    </defs>
    <g clip-path="url(#pe56574f3d0)">
     <use xlink:href="#m58b81246c7" x="0" y="302.029937" style="fill: #e67e22; fill-opacity: 0.18; stroke: #e67e22; stroke-opacity: 0.18"/>
    </g>
   </g>
   <g id="PolyCollection_4">
    <defs>
     <path id="m6c2ff53c53" d="M 268.840444 -43.327969 
L 268.840444 -166.223028 
L 269.399375 -165.088405 
L 269.958307 -163.942741 
L 270.517238 -162.786547 
L 271.07617 -161.620335 
L 271.635101 -160.444615 
L 272.194033 -159.2599 
L 272.752965 -158.066701 
L 273.311896 -156.865529 
L 273.870828 -155.656894 
L 274.429759 -154.441304 
L 274.988691 -153.219265 
L 275.547622 -151.991282 
L 276.106554 -150.757857 
L 276.665485 -149.51949 
L 277.224417 -148.276675 
L 277.783349 -147.029907 
L 278.34228 -145.779674 
L 278.901212 -144.526461 
L 279.460143 -143.27075 
L 280.019075 -142.013015 
L 280.578006 -140.753729 
L 281.136938 -139.493358 
L 281.695869 -138.232362 
L 282.254801 -136.971196 
L 282.813733 -135.71031 
L 283.372664 -134.450146 
L 283.931596 -133.191141 
L 284.490527 -131.933726 
L 285.049459 -130.678322 
L 285.60839 -129.425347 
L 286.167322 -128.175209 
L 286.726253 -126.92831 
L 287.285185 -125.685044 
L 287.844116 -124.445797 
L 288.403048 -123.210946 
L 288.96198 -121.980863 
L 289.520911 -120.75591 
L 290.079843 -119.536439 
L 290.638774 -118.322796 
L 291.197706 -117.115319 
L 291.756637 -115.914334 
L 292.315569 -114.720161 
L 292.8745 -113.533111 
L 293.433432 -112.353485 
L 293.992364 -111.181575 
L 294.551295 -110.017665 
L 295.110227 -108.86203 
L 295.669158 -107.714934 
L 296.22809 -106.576634 
L 296.787021 -105.447377 
L 297.345953 -104.3274 
L 297.904884 -103.216932 
L 298.463816 -102.116193 
L 299.022748 -101.025392 
L 299.581679 -99.944731 
L 300.140611 -98.874402 
L 300.699542 -97.814588 
L 301.258474 -96.765462 
L 301.817405 -95.727189 
L 302.376337 -94.699926 
L 302.935268 -93.683818 
L 303.4942 -92.679006 
L 304.053132 -91.685616 
L 304.612063 -90.703772 
L 305.170995 -89.733585 
L 305.729926 -88.775158 
L 306.288858 -87.828588 
L 306.847789 -86.893961 
L 307.406721 -85.971356 
L 307.965652 -85.060846 
L 308.524584 -84.162491 
L 309.083515 -83.276349 
L 309.642447 -82.402466 
L 310.201379 -81.540883 
L 310.76031 -80.691633 
L 311.319242 -79.85474 
L 311.878173 -79.030224 
L 312.437105 -78.218095 
L 312.996036 -77.418359 
L 313.554968 -76.631014 
L 314.113899 -75.85605 
L 314.672831 -75.093453 
L 315.231763 -74.343202 
L 315.790694 -73.605269 
L 316.349626 -72.879622 
L 316.908557 -72.166222 
L 317.467489 -71.465025 
L 318.02642 -70.775981 
L 318.585352 -70.099035 
L 319.144283 -69.434127 
L 319.703215 -68.781194 
L 320.262147 -68.140164 
L 320.821078 -67.510964 
L 321.38001 -66.893517 
L 321.938941 -66.287738 
L 322.497873 -65.693542 
L 323.056804 -65.110837 
L 323.615736 -64.539531 
L 324.174667 -63.979524 
L 324.733599 -63.430716 
L 325.292531 -62.893002 
L 325.851462 -62.366275 
L 326.410394 -61.850424 
L 326.969325 -61.345336 
L 327.528257 -60.850896 
L 328.087188 -60.366985 
L 328.64612 -59.893482 
L 329.205051 -59.430265 
L 329.763983 -58.977209 
L 330.322914 -58.534188 
L 330.881846 -58.101074 
L 331.440778 -57.677735 
L 331.999709 -57.264042 
L 332.558641 -56.859862 
L 333.117572 -56.46506 
L 333.676504 -56.079502 
L 334.235435 -55.703052 
L 334.794367 -55.335574 
L 335.353298 -54.97693 
L 335.91223 -54.626982 
L 336.471162 -54.285592 
L 337.030093 -53.952622 
L 337.589025 -53.627933 
L 338.147956 -53.311385 
L 338.706888 -53.002839 
L 339.265819 -52.702158 
L 339.824751 -52.409201 
L 340.383682 -52.12383 
L 340.942614 -51.845907 
L 341.501546 -51.575295 
L 342.060477 -51.311856 
L 342.619409 -51.055453 
L 343.17834 -50.80595 
L 343.737272 -50.563213 
L 344.296203 -50.327106 
L 344.855135 -50.097497 
L 345.414066 -49.874252 
L 345.972998 -49.657241 
L 346.53193 -49.446332 
L 347.090861 -49.241396 
L 347.649793 -49.042305 
L 348.208724 -48.848932 
L 348.767656 -48.661152 
L 349.326587 -48.478839 
L 349.885519 -48.301872 
L 350.44445 -48.130128 
L 351.003382 -47.963487 
L 351.562313 -47.801831 
L 352.121245 -47.645042 
L 352.680177 -47.493005 
L 353.239108 -47.345605 
L 353.79804 -47.202731 
L 354.356971 -47.064271 
L 354.915903 -46.930116 
L 355.474834 -46.800159 
L 356.033766 -46.674293 
L 356.592697 -46.552415 
L 357.151629 -46.434422 
L 357.710561 -46.320212 
L 358.269492 -46.209688 
L 358.828424 -46.102751 
L 359.387355 -45.999305 
L 359.946287 -45.899258 
L 360.505218 -45.802516 
L 361.06415 -45.708989 
L 361.623081 -45.618588 
L 362.182013 -45.531227 
L 362.740945 -45.44682 
L 363.299876 -45.365282 
L 363.858808 -45.286533 
L 364.417739 -45.210493 
L 364.976671 -45.137081 
L 365.535602 -45.066223 
L 366.094534 -44.997842 
L 366.653465 -44.931864 
L 367.212397 -44.868219 
L 367.771329 -44.806836 
L 368.33026 -44.747645 
L 368.889192 -44.690581 
L 369.448123 -44.635577 
L 370.007055 -44.582569 
L 370.565986 -44.531496 
L 371.124918 -44.482296 
L 371.683849 -44.43491 
L 372.242781 -44.389279 
L 372.801712 -44.345349 
L 373.360644 -44.303062 
L 373.919576 -44.262367 
L 374.478507 -44.22321 
L 375.037439 -44.185541 
L 375.59637 -44.149311 
L 376.155302 -44.114471 
L 376.714233 -44.080974 
L 377.273165 -44.048776 
L 377.832096 -44.017831 
L 378.391028 -43.988097 
L 378.94996 -43.959532 
L 379.508891 -43.932095 
L 380.067823 -43.905747 
L 380.626754 -43.88045 
L 381.185686 -43.856166 
L 381.744617 -43.832859 
L 382.303549 -43.810495 
L 382.86248 -43.789039 
L 383.421412 -43.768458 
L 383.980344 -43.748721 
L 384.539275 -43.729797 
L 385.098207 -43.711656 
L 385.657138 -43.694268 
L 386.21607 -43.677606 
L 386.775001 -43.661642 
L 387.333933 -43.64635 
L 387.892864 -43.631705 
L 388.451796 -43.617682 
L 389.010728 -43.604257 
L 389.569659 -43.591407 
L 390.128591 -43.57911 
L 390.687522 -43.567344 
L 391.246454 -43.556089 
L 391.805385 -43.545324 
L 392.364317 -43.53503 
L 392.923248 -43.525189 
L 393.48218 -43.515782 
L 394.041111 -43.506792 
L 394.600043 -43.498201 
L 395.158975 -43.489995 
L 395.717906 -43.482156 
L 396.276838 -43.474671 
L 396.835769 -43.467524 
L 397.394701 -43.460701 
L 397.953632 -43.45419 
L 398.512564 -43.447976 
L 399.071495 -43.442049 
L 399.630427 -43.436394 
L 400.189359 -43.431002 
L 400.74829 -43.42586 
L 401.307222 -43.420958 
L 401.866153 -43.416286 
L 402.425085 -43.411834 
L 402.984016 -43.407592 
L 403.542948 -43.403551 
L 404.101879 -43.399702 
L 404.660811 -43.396037 
L 405.219743 -43.392548 
L 405.778674 -43.389227 
L 406.337606 -43.386066 
L 406.896537 -43.383058 
L 407.455469 -43.380197 
L 407.455469 -43.327969 
L 407.455469 -43.327969 
L 406.896537 -43.327969 
L 406.337606 -43.327969 
L 405.778674 -43.327969 
L 405.219743 -43.327969 
L 404.660811 -43.327969 
L 404.101879 -43.327969 
L 403.542948 -43.327969 
L 402.984016 -43.327969 
L 402.425085 -43.327969 
L 401.866153 -43.327969 
L 401.307222 -43.327969 
L 400.74829 -43.327969 
L 400.189359 -43.327969 
L 399.630427 -43.327969 
L 399.071495 -43.327969 
L 398.512564 -43.327969 
L 397.953632 -43.327969 
L 397.394701 -43.327969 
L 396.835769 -43.327969 
L 396.276838 -43.327969 
L 395.717906 -43.327969 
L 395.158975 -43.327969 
L 394.600043 -43.327969 
L 394.041111 -43.327969 
L 393.48218 -43.327969 
L 392.923248 -43.327969 
L 392.364317 -43.327969 
L 391.805385 -43.327969 
L 391.246454 -43.327969 
L 390.687522 -43.327969 
L 390.128591 -43.327969 
L 389.569659 -43.327969 
L 389.010728 -43.327969 
L 388.451796 -43.327969 
L 387.892864 -43.327969 
L 387.333933 -43.327969 
L 386.775001 -43.327969 
L 386.21607 -43.327969 
L 385.657138 -43.327969 
L 385.098207 -43.327969 
L 384.539275 -43.327969 
L 383.980344 -43.327969 
L 383.421412 -43.327969 
L 382.86248 -43.327969 
L 382.303549 -43.327969 
L 381.744617 -43.327969 
L 381.185686 -43.327969 
L 380.626754 -43.327969 
L 380.067823 -43.327969 
L 379.508891 -43.327969 
L 378.94996 -43.327969 
L 378.391028 -43.327969 
L 377.832096 -43.327969 
L 377.273165 -43.327969 
L 376.714233 -43.327969 
L 376.155302 -43.327969 
L 375.59637 -43.327969 
L 375.037439 -43.327969 
L 374.478507 -43.327969 
L 373.919576 -43.327969 
L 373.360644 -43.327969 
L 372.801712 -43.327969 
L 372.242781 -43.327969 
L 371.683849 -43.327969 
L 371.124918 -43.327969 
L 370.565986 -43.327969 
L 370.007055 -43.327969 
L 369.448123 -43.327969 
L 368.889192 -43.327969 
L 368.33026 -43.327969 
L 367.771329 -43.327969 
L 367.212397 -43.327969 
L 366.653465 -43.327969 
L 366.094534 -43.327969 
L 365.535602 -43.327969 
L 364.976671 -43.327969 
L 364.417739 -43.327969 
L 363.858808 -43.327969 
L 363.299876 -43.327969 
L 362.740945 -43.327969 
L 362.182013 -43.327969 
L 361.623081 -43.327969 
L 361.06415 -43.327969 
L 360.505218 -43.327969 
L 359.946287 -43.327969 
L 359.387355 -43.327969 
L 358.828424 -43.327969 
L 358.269492 -43.327969 
L 357.710561 -43.327969 
L 357.151629 -43.327969 
L 356.592697 -43.327969 
L 356.033766 -43.327969 
L 355.474834 -43.327969 
L 354.915903 -43.327969 
L 354.356971 -43.327969 
L 353.79804 -43.327969 
L 353.239108 -43.327969 
L 352.680177 -43.327969 
L 352.121245 -43.327969 
L 351.562313 -43.327969 
L 351.003382 -43.327969 
L 350.44445 -43.327969 
L 349.885519 -43.327969 
L 349.326587 -43.327969 
L 348.767656 -43.327969 
L 348.208724 -43.327969 
L 347.649793 -43.327969 
L 347.090861 -43.327969 
L 346.53193 -43.327969 
L 345.972998 -43.327969 
L 345.414066 -43.327969 
L 344.855135 -43.327969 
L 344.296203 -43.327969 
L 343.737272 -43.327969 
L 343.17834 -43.327969 
L 342.619409 -43.327969 
L 342.060477 -43.327969 
L 341.501546 -43.327969 
L 340.942614 -43.327969 
L 340.383682 -43.327969 
L 339.824751 -43.327969 
L 339.265819 -43.327969 
L 338.706888 -43.327969 
L 338.147956 -43.327969 
L 337.589025 -43.327969 
L 337.030093 -43.327969 
L 336.471162 -43.327969 
L 335.91223 -43.327969 
L 335.353298 -43.327969 
L 334.794367 -43.327969 
L 334.235435 -43.327969 
L 333.676504 -43.327969 
L 333.117572 -43.327969 
L 332.558641 -43.327969 
L 331.999709 -43.327969 
L 331.440778 -43.327969 
L 330.881846 -43.327969 
L 330.322914 -43.327969 
L 329.763983 -43.327969 
L 329.205051 -43.327969 
L 328.64612 -43.327969 
L 328.087188 -43.327969 
L 327.528257 -43.327969 
L 326.969325 -43.327969 
L 326.410394 -43.327969 
L 325.851462 -43.327969 
L 325.292531 -43.327969 
L 324.733599 -43.327969 
L 324.174667 -43.327969 
L 323.615736 -43.327969 
L 323.056804 -43.327969 
L 322.497873 -43.327969 
L 321.938941 -43.327969 
L 321.38001 -43.327969 
L 320.821078 -43.327969 
L 320.262147 -43.327969 
L 319.703215 -43.327969 
L 319.144283 -43.327969 
L 318.585352 -43.327969 
L 318.02642 -43.327969 
L 317.467489 -43.327969 
L 316.908557 -43.327969 
L 316.349626 -43.327969 
L 315.790694 -43.327969 
L 315.231763 -43.327969 
L 314.672831 -43.327969 
L 314.113899 -43.327969 
L 313.554968 -43.327969 
L 312.996036 -43.327969 
L 312.437105 -43.327969 
L 311.878173 -43.327969 
L 311.319242 -43.327969 
L 310.76031 -43.327969 
L 310.201379 -43.327969 
L 309.642447 -43.327969 
L 309.083515 -43.327969 
L 308.524584 -43.327969 
L 307.965652 -43.327969 
L 307.406721 -43.327969 
L 306.847789 -43.327969 
L 306.288858 -43.327969 
L 305.729926 -43.327969 
L 305.170995 -43.327969 
L 304.612063 -43.327969 
L 304.053132 -43.327969 
L 303.4942 -43.327969 
L 302.935268 -43.327969 
L 302.376337 -43.327969 
L 301.817405 -43.327969 
L 301.258474 -43.327969 
L 300.699542 -43.327969 
L 300.140611 -43.327969 
L 299.581679 -43.327969 
L 299.022748 -43.327969 
L 298.463816 -43.327969 
L 297.904884 -43.327969 
L 297.345953 -43.327969 
L 296.787021 -43.327969 
L 296.22809 -43.327969 
L 295.669158 -43.327969 
L 295.110227 -43.327969 
L 294.551295 -43.327969 
L 293.992364 -43.327969 
L 293.433432 -43.327969 
L 292.8745 -43.327969 
L 292.315569 -43.327969 
L 291.756637 -43.327969 
L 291.197706 -43.327969 
L 290.638774 -43.327969 
L 290.079843 -43.327969 
L 289.520911 -43.327969 
L 288.96198 -43.327969 
L 288.403048 -43.327969 
L 287.844116 -43.327969 
L 287.285185 -43.327969 
L 286.726253 -43.327969 
L 286.167322 -43.327969 
L 285.60839 -43.327969 
L 285.049459 -43.327969 
L 284.490527 -43.327969 
L 283.931596 -43.327969 
L 283.372664 -43.327969 
L 282.813733 -43.327969 
L 282.254801 -43.327969 
L 281.695869 -43.327969 
L 281.136938 -43.327969 
L 280.578006 -43.327969 
L 280.019075 -43.327969 
L 279.460143 -43.327969 
L 278.901212 -43.327969 
L 278.34228 -43.327969 
L 277.783349 -43.327969 
L 277.224417 -43.327969 
L 276.665485 -43.327969 
L 276.106554 -43.327969 
L 275.547622 -43.327969 
L 274.988691 -43.327969 
L 274.429759 -43.327969 
L 273.870828 -43.327969 
L 273.311896 -43.327969 
L 272.752965 -43.327969 
L 272.194033 -43.327969 
L 271.635101 -43.327969 
L 271.07617 -43.327969 
L 270.517238 -43.327969 
L 269.958307 -43.327969 
L 269.399375 -43.327969 
L 268.840444 -43.327969 
z
" style="stroke: #c0392b; stroke-opacity: 0.18"/>
    </defs>
    <g clip-path="url(#pe56574f3d0)">
     <use xlink:href="#m6c2ff53c53" x="0" y="302.029937" style="fill: #c0392b; fill-opacity: 0.18; stroke: #c0392b; stroke-opacity: 0.18"/>
    </g>
   </g>
   <g id="line2d_31">
    <path d="M 72.655469 258.64974 
L 89.982347 258.450828 
L 100.043115 258.12419 
L 107.309225 257.684589 
L 113.457472 257.098073 
L 118.487856 256.411349 
L 122.959308 255.595516 
L 126.871829 254.684332 
L 130.78435 253.551098 
L 134.13794 252.372697 
L 137.491529 250.974485 
L 140.845118 249.32778 
L 144.198707 247.402956 
L 146.993365 245.564878 
L 149.788023 243.495749 
L 152.582681 241.179041 
L 155.377339 238.599222 
L 158.171996 235.7422 
L 160.966654 232.59581 
L 163.761312 229.150315 
L 166.55597 225.398924 
L 169.909559 220.489054 
L 173.263148 215.135977 
L 176.616738 209.350932 
L 179.970327 203.155535 
L 183.882848 195.453304 
L 188.3543 186.115604 
L 193.943616 173.854728 
L 208.475836 141.585323 
L 212.388357 133.572823 
L 215.741946 127.188126 
L 218.536604 122.290156 
L 221.331262 117.839322 
L 223.566988 114.63761 
L 225.802714 111.783024 
L 228.03844 109.298873 
L 230.274167 107.2057 
L 231.950961 105.903043 
L 233.627756 104.836391 
L 235.304551 104.010825 
L 236.981345 103.430295 
L 238.65814 103.097586 
L 240.334935 103.014298 
L 242.011729 103.18083 
L 243.688524 103.596383 
L 245.365318 104.258959 
L 247.042113 105.165382 
L 248.718908 106.311322 
L 250.395702 107.691328 
L 252.631429 109.884009 
L 254.867155 112.462808 
L 257.102881 115.406462 
L 259.338607 118.691018 
L 262.133265 123.235812 
L 264.927923 128.216254 
L 268.281512 134.683837 
L 272.194033 142.770038 
L 277.224417 153.753262 
L 293.433432 189.676453 
L 297.904884 198.813005 
L 301.817405 206.302748 
L 305.170995 212.296353 
L 308.524584 217.867446 
L 311.878173 222.999714 
L 315.231763 227.686736 
L 318.585352 231.930903 
L 321.38001 235.136421 
L 324.174667 238.050413 
L 326.969325 240.684601 
L 329.763983 243.052728 
L 332.558641 245.170076 
L 335.91223 247.402956 
L 339.265819 249.32778 
L 342.619409 250.974485 
L 345.972998 252.372697 
L 349.326587 253.551098 
L 353.239108 254.684332 
L 357.151629 255.595516 
L 361.623081 256.411349 
L 366.653465 257.098073 
L 372.242781 257.640658 
L 378.94996 258.070406 
L 387.892864 258.398233 
L 400.189359 258.598936 
L 407.455469 258.64974 
L 407.455469 258.64974 
" clip-path="url(#pe56574f3d0)" style="fill: none; stroke: #2980b9; stroke-width: 2.6; stroke-linecap: square"/>
   </g>
   <g id="line2d_32">
    <path d="M 211.828073 258.701969 
L 211.828073 31.397969 
" clip-path="url(#pe56574f3d0)" style="fill: none; stroke-dasharray: 6.66,2.88; stroke-dashoffset: 0; stroke: #16a085; stroke-opacity: 0.9; stroke-width: 1.8"/>
   </g>
   <g id="line2d_33">
    <path d="M 240.055469 258.701969 
L 240.055469 31.397969 
" clip-path="url(#pe56574f3d0)" style="fill: none; stroke-dasharray: 6.66,2.88; stroke-dashoffset: 0; stroke: #e67e22; stroke-opacity: 0.9; stroke-width: 1.8"/>
   </g>
   <g id="line2d_34">
    <path d="M 268.282865 258.701969 
L 268.282865 31.397969 
" clip-path="url(#pe56574f3d0)" style="fill: none; stroke-dasharray: 6.66,2.88; stroke-dashoffset: 0; stroke: #c0392b; stroke-opacity: 0.9; stroke-width: 1.8"/>
   </g>
   <g id="patch_3">
    <path d="M 55.915469 258.701969 
L 55.915469 31.397969 
" style="fill: none; stroke: #2c3e50; stroke-width: 1.2; stroke-linejoin: miter; stroke-linecap: square"/>
   </g>
   <g id="patch_4">
    <path d="M 55.915469 258.701969 
L 424.195469 258.701969 
" style="fill: none; stroke: #2c3e50; stroke-width: 1.2; stroke-linejoin: miter; stroke-linecap: square"/>
   </g>
   <g id="patch_5">
    <path d="M 211.828073 60.305975 
Q 211.828073 80.660463 211.828073 101.014952 
" style="fill: none; opacity: 0.6; stroke: #16a085; stroke-linecap: round"/>
   </g>
   <g id="text_18">
    <!-- $q_1$ (25%) -->
    <g style="fill: #16a085" transform="translate(189.170573 54.312996) scale(0.095 -0.095)">
     <defs>
      <path id="DejaVuSans-Oblique-71" d="M 2669 525 
Q 2438 222 2123 65 
Q 1809 -91 1428 -91 
Q 897 -91 595 267 
Q 294 625 294 1253 
Q 294 1759 480 2231 
Q 666 2703 1013 3078 
Q 1238 3322 1530 3453 
Q 1822 3584 2144 3584 
Q 2531 3584 2781 3431 
Q 3031 3278 3144 2969 
L 3244 3494 
L 3822 3494 
L 2888 -1319 
L 2309 -1319 
L 2669 525 
z
M 891 1338 
Q 891 875 1084 633 
Q 1278 391 1644 391 
Q 2188 391 2572 911 
Q 2956 1431 2956 2175 
Q 2956 2625 2757 2864 
Q 2559 3103 2188 3103 
Q 1916 3103 1684 2976 
Q 1453 2850 1281 2606 
Q 1100 2350 995 2006 
Q 891 1663 891 1338 
z
" transform="scale(0.015625)"/>
      <path id="DejaVuSans-Bold-20" transform="scale(0.015625)"/>
      <path id="DejaVuSans-Bold-28" d="M 2413 -844 
L 1484 -844 
Q 1006 -72 778 623 
Q 550 1319 550 2003 
Q 550 2688 779 3389 
Q 1009 4091 1484 4856 
L 2413 4856 
Q 2013 4116 1813 3408 
Q 1613 2700 1613 2009 
Q 1613 1319 1811 609 
Q 2009 -100 2413 -844 
z
" transform="scale(0.015625)"/>
      <path id="DejaVuSans-Bold-32" d="M 1844 884 
L 3897 884 
L 3897 0 
L 506 0 
L 506 884 
L 2209 2388 
Q 2438 2594 2547 2791 
Q 2656 2988 2656 3200 
Q 2656 3528 2436 3728 
Q 2216 3928 1850 3928 
Q 1569 3928 1234 3808 
Q 900 3688 519 3450 
L 519 4475 
Q 925 4609 1322 4679 
Q 1719 4750 2100 4750 
Q 2938 4750 3402 4381 
Q 3866 4013 3866 3353 
Q 3866 2972 3669 2642 
Q 3472 2313 2841 1759 
L 1844 884 
z
" transform="scale(0.015625)"/>
      <path id="DejaVuSans-Bold-35" d="M 678 4666 
L 3669 4666 
L 3669 3781 
L 1638 3781 
L 1638 3059 
Q 1775 3097 1914 3117 
Q 2053 3138 2203 3138 
Q 3056 3138 3531 2711 
Q 4006 2284 4006 1522 
Q 4006 766 3489 337 
Q 2972 -91 2053 -91 
Q 1656 -91 1267 -14 
Q 878 63 494 219 
L 494 1166 
Q 875 947 1217 837 
Q 1559 728 1863 728 
Q 2300 728 2551 942 
Q 2803 1156 2803 1522 
Q 2803 1891 2551 2103 
Q 2300 2316 1863 2316 
Q 1603 2316 1309 2248 
Q 1016 2181 678 2041 
L 678 4666 
z
" transform="scale(0.015625)"/>
      <path id="DejaVuSans-Bold-25" d="M 4959 1925 
Q 4738 1925 4616 1733 
Q 4494 1541 4494 1184 
Q 4494 825 4614 633 
Q 4734 441 4959 441 
Q 5184 441 5303 633 
Q 5422 825 5422 1184 
Q 5422 1541 5301 1733 
Q 5181 1925 4959 1925 
z
M 4959 2450 
Q 5541 2450 5875 2112 
Q 6209 1775 6209 1184 
Q 6209 594 5875 251 
Q 5541 -91 4959 -91 
Q 4378 -91 4042 251 
Q 3706 594 3706 1184 
Q 3706 1772 4042 2111 
Q 4378 2450 4959 2450 
z
M 2094 -91 
L 1403 -91 
L 4319 4750 
L 5013 4750 
L 2094 -91 
z
M 1453 4750 
Q 2034 4750 2367 4411 
Q 2700 4072 2700 3481 
Q 2700 2891 2367 2550 
Q 2034 2209 1453 2209 
Q 872 2209 539 2550 
Q 206 2891 206 3481 
Q 206 4072 539 4411 
Q 872 4750 1453 4750 
z
M 1453 4225 
Q 1228 4225 1106 4031 
Q 984 3838 984 3481 
Q 984 3122 1106 2926 
Q 1228 2731 1453 2731 
Q 1678 2731 1798 2926 
Q 1919 3122 1919 3481 
Q 1919 3838 1797 4031 
Q 1675 4225 1453 4225 
z
" transform="scale(0.015625)"/>
      <path id="DejaVuSans-Bold-29" d="M 513 -844 
Q 913 -100 1113 609 
Q 1313 1319 1313 2009 
Q 1313 2700 1113 3408 
Q 913 4116 513 4856 
L 1441 4856 
Q 1916 4091 2145 3389 
Q 2375 2688 2375 2003 
Q 2375 1319 2147 623 
Q 1919 -72 1441 -844 
L 513 -844 
z
" transform="scale(0.015625)"/>
     </defs>
     <use xlink:href="#DejaVuSans-Oblique-71" transform="translate(0 0.125)"/>
     <use xlink:href="#DejaVuSans-31" transform="translate(63.476562 -16.28125) scale(0.7)"/>
     <use xlink:href="#DejaVuSans-Bold-20" transform="translate(110.74707 0.125)"/>
     <use xlink:href="#DejaVuSans-Bold-28" transform="translate(145.561523 0.125)"/>
     <use xlink:href="#DejaVuSans-Bold-32" transform="translate(191.264648 0.125)"/>
     <use xlink:href="#DejaVuSans-Bold-35" transform="translate(260.844727 0.125)"/>
     <use xlink:href="#DejaVuSans-Bold-25" transform="translate(330.424805 0.125)"/>
     <use xlink:href="#DejaVuSans-Bold-29" transform="translate(430.620117 0.125)"/>
    </g>
   </g>
   <g id="patch_6">
    <path d="M 240.055469 78.989431 
Q 240.055469 90.003272 240.055469 101.017113 
" style="fill: none; opacity: 0.6; stroke: #e67e22; stroke-linecap: round"/>
   </g>
   <g id="text_19">
    <!-- $q_2$ = mediana (50%) -->
    <g style="fill: #e67e22" transform="translate(187.140469 72.995517) scale(0.095 -0.095)">
     <defs>
      <path id="DejaVuSans-Bold-3d" d="M 678 3084 
L 4684 3084 
L 4684 2350 
L 678 2350 
L 678 3084 
z
M 678 1663 
L 4684 1663 
L 4684 922 
L 678 922 
L 678 1663 
z
" transform="scale(0.015625)"/>
      <path id="DejaVuSans-Bold-6d" d="M 3781 2919 
Q 3994 3244 4286 3414 
Q 4578 3584 4928 3584 
Q 5531 3584 5847 3212 
Q 6163 2841 6163 2131 
L 6163 0 
L 5038 0 
L 5038 1825 
Q 5041 1866 5042 1909 
Q 5044 1953 5044 2034 
Q 5044 2406 4934 2573 
Q 4825 2741 4581 2741 
Q 4263 2741 4089 2478 
Q 3916 2216 3909 1719 
L 3909 0 
L 2784 0 
L 2784 1825 
Q 2784 2406 2684 2573 
Q 2584 2741 2328 2741 
Q 2006 2741 1831 2477 
Q 1656 2213 1656 1722 
L 1656 0 
L 531 0 
L 531 3500 
L 1656 3500 
L 1656 2988 
Q 1863 3284 2130 3434 
Q 2397 3584 2719 3584 
Q 3081 3584 3359 3409 
Q 3638 3234 3781 2919 
z
" transform="scale(0.015625)"/>
      <path id="DejaVuSans-Bold-30" d="M 2944 2338 
Q 2944 3213 2780 3570 
Q 2616 3928 2228 3928 
Q 1841 3928 1675 3570 
Q 1509 3213 1509 2338 
Q 1509 1453 1675 1090 
Q 1841 728 2228 728 
Q 2613 728 2778 1090 
Q 2944 1453 2944 2338 
z
M 4147 2328 
Q 4147 1169 3647 539 
Q 3147 -91 2228 -91 
Q 1306 -91 806 539 
Q 306 1169 306 2328 
Q 306 3491 806 4120 
Q 1306 4750 2228 4750 
Q 3147 4750 3647 4120 
Q 4147 3491 4147 2328 
z
" transform="scale(0.015625)"/>
     </defs>
     <use xlink:href="#DejaVuSans-Oblique-71" transform="translate(0 0.015625)"/>
     <use xlink:href="#DejaVuSans-32" transform="translate(63.476562 -16.390625) scale(0.7)"/>
     <use xlink:href="#DejaVuSans-Bold-20" transform="translate(110.74707 0.015625)"/>
     <use xlink:href="#DejaVuSans-Bold-3d" transform="translate(145.561523 0.015625)"/>
     <use xlink:href="#DejaVuSans-Bold-20" transform="translate(229.350586 0.015625)"/>
     <use xlink:href="#DejaVuSans-Bold-6d" transform="translate(264.165039 0.015625)"/>
     <use xlink:href="#DejaVuSans-Bold-65" transform="translate(368.364258 0.015625)"/>
     <use xlink:href="#DejaVuSans-Bold-64" transform="translate(436.186523 0.015625)"/>
     <use xlink:href="#DejaVuSans-Bold-69" transform="translate(507.768555 0.015625)"/>
     <use xlink:href="#DejaVuSans-Bold-61" transform="translate(542.045898 0.015625)"/>
     <use xlink:href="#DejaVuSans-Bold-6e" transform="translate(609.526367 0.015625)"/>
     <use xlink:href="#DejaVuSans-Bold-61" transform="translate(680.717773 0.015625)"/>
     <use xlink:href="#DejaVuSans-Bold-20" transform="translate(748.198242 0.015625)"/>
     <use xlink:href="#DejaVuSans-Bold-28" transform="translate(783.012695 0.015625)"/>
     <use xlink:href="#DejaVuSans-Bold-35" transform="translate(828.71582 0.015625)"/>
     <use xlink:href="#DejaVuSans-Bold-30" transform="translate(898.295898 0.015625)"/>
     <use xlink:href="#DejaVuSans-Bold-25" transform="translate(967.875977 0.015625)"/>
     <use xlink:href="#DejaVuSans-Bold-29" transform="translate(1068.071289 0.015625)"/>
    </g>
   </g>
   <g id="patch_7">
    <path d="M 268.282865 97.678643 
Q 268.282865 99.347338 268.282865 101.016032 
" style="fill: none; opacity: 0.6; stroke: #c0392b; stroke-linecap: round"/>
   </g>
   <g id="text_20">
    <!-- $q_3$ (75%) -->
    <g style="fill: #c0392b" transform="translate(245.625365 91.678037) scale(0.095 -0.095)">
     <defs>
      <path id="DejaVuSans-Bold-37" d="M 428 4666 
L 3944 4666 
L 3944 3988 
L 2125 0 
L 953 0 
L 2675 3781 
L 428 3781 
L 428 4666 
z
" transform="scale(0.015625)"/>
     </defs>
     <use xlink:href="#DejaVuSans-Oblique-71" transform="translate(0 0.125)"/>
     <use xlink:href="#DejaVuSans-33" transform="translate(63.476562 -16.28125) scale(0.7)"/>
     <use xlink:href="#DejaVuSans-Bold-20" transform="translate(110.74707 0.125)"/>
     <use xlink:href="#DejaVuSans-Bold-28" transform="translate(145.561523 0.125)"/>
     <use xlink:href="#DejaVuSans-Bold-37" transform="translate(191.264648 0.125)"/>
     <use xlink:href="#DejaVuSans-Bold-35" transform="translate(260.844727 0.125)"/>
     <use xlink:href="#DejaVuSans-Bold-25" transform="translate(330.424805 0.125)"/>
     <use xlink:href="#DejaVuSans-Bold-29" transform="translate(430.620117 0.125)"/>
    </g>
   </g>
   <g id="text_21">
    <!-- Cuartiles sobre la densidad -->
    <g transform="translate(139.744219 21.397969) scale(0.13 -0.13)">
     <defs>
      <path id="DejaVuSans-Bold-43" d="M 4288 256 
Q 3956 84 3597 -3 
Q 3238 -91 2847 -91 
Q 1681 -91 1000 561 
Q 319 1213 319 2328 
Q 319 3447 1000 4098 
Q 1681 4750 2847 4750 
Q 3238 4750 3597 4662 
Q 3956 4575 4288 4403 
L 4288 3438 
Q 3953 3666 3628 3772 
Q 3303 3878 2944 3878 
Q 2300 3878 1931 3465 
Q 1563 3053 1563 2328 
Q 1563 1606 1931 1193 
Q 2300 781 2944 781 
Q 3303 781 3628 887 
Q 3953 994 4288 1222 
L 4288 256 
z
" transform="scale(0.015625)"/>
      <path id="DejaVuSans-Bold-75" d="M 500 1363 
L 500 3500 
L 1625 3500 
L 1625 3150 
Q 1625 2866 1622 2436 
Q 1619 2006 1619 1863 
Q 1619 1441 1641 1255 
Q 1663 1069 1716 984 
Q 1784 875 1895 815 
Q 2006 756 2150 756 
Q 2500 756 2700 1025 
Q 2900 1294 2900 1772 
L 2900 3500 
L 4019 3500 
L 4019 0 
L 2900 0 
L 2900 506 
Q 2647 200 2364 54 
Q 2081 -91 1741 -91 
Q 1134 -91 817 281 
Q 500 653 500 1363 
z
" transform="scale(0.015625)"/>
      <path id="DejaVuSans-Bold-74" d="M 1759 4494 
L 1759 3500 
L 2913 3500 
L 2913 2700 
L 1759 2700 
L 1759 1216 
Q 1759 972 1856 886 
Q 1953 800 2241 800 
L 2816 800 
L 2816 0 
L 1856 0 
Q 1194 0 917 276 
Q 641 553 641 1216 
L 641 2700 
L 84 2700 
L 84 3500 
L 641 3500 
L 641 4494 
L 1759 4494 
z
" transform="scale(0.015625)"/>
      <path id="DejaVuSans-Bold-62" d="M 2400 722 
Q 2759 722 2948 984 
Q 3138 1247 3138 1747 
Q 3138 2247 2948 2509 
Q 2759 2772 2400 2772 
Q 2041 2772 1848 2508 
Q 1656 2244 1656 1747 
Q 1656 1250 1848 986 
Q 2041 722 2400 722 
z
M 1656 2988 
Q 1888 3294 2169 3439 
Q 2450 3584 2816 3584 
Q 3463 3584 3878 3070 
Q 4294 2556 4294 1747 
Q 4294 938 3878 423 
Q 3463 -91 2816 -91 
Q 2450 -91 2169 54 
Q 1888 200 1656 506 
L 1656 0 
L 538 0 
L 538 4863 
L 1656 4863 
L 1656 2988 
z
" transform="scale(0.015625)"/>
     </defs>
     <use xlink:href="#DejaVuSans-Bold-43"/>
     <use xlink:href="#DejaVuSans-Bold-75" x="73.388672"/>
     <use xlink:href="#DejaVuSans-Bold-61" x="144.580078"/>
     <use xlink:href="#DejaVuSans-Bold-72" x="212.060547"/>
     <use xlink:href="#DejaVuSans-Bold-74" x="261.376953"/>
     <use xlink:href="#DejaVuSans-Bold-69" x="309.179688"/>
     <use xlink:href="#DejaVuSans-Bold-6c" x="343.457031"/>
     <use xlink:href="#DejaVuSans-Bold-65" x="377.734375"/>
     <use xlink:href="#DejaVuSans-Bold-73" x="445.556641"/>
     <use xlink:href="#DejaVuSans-Bold-20" x="505.078125"/>
     <use xlink:href="#DejaVuSans-Bold-73" x="539.892578"/>
     <use xlink:href="#DejaVuSans-Bold-6f" x="599.414062"/>
     <use xlink:href="#DejaVuSans-Bold-62" x="668.115234"/>
     <use xlink:href="#DejaVuSans-Bold-72" x="739.697266"/>
     <use xlink:href="#DejaVuSans-Bold-65" x="789.013672"/>
     <use xlink:href="#DejaVuSans-Bold-20" x="856.835938"/>
     <use xlink:href="#DejaVuSans-Bold-6c" x="891.650391"/>
     <use xlink:href="#DejaVuSans-Bold-61" x="925.927734"/>
     <use xlink:href="#DejaVuSans-Bold-20" x="993.408203"/>
     <use xlink:href="#DejaVuSans-Bold-64" x="1028.222656"/>
     <use xlink:href="#DejaVuSans-Bold-65" x="1099.804688"/>
     <use xlink:href="#DejaVuSans-Bold-6e" x="1167.626953"/>
     <use xlink:href="#DejaVuSans-Bold-73" x="1238.818359"/>
     <use xlink:href="#DejaVuSans-Bold-69" x="1298.339844"/>
     <use xlink:href="#DejaVuSans-Bold-64" x="1332.617188"/>
     <use xlink:href="#DejaVuSans-Bold-61" x="1404.199219"/>
     <use xlink:href="#DejaVuSans-Bold-64" x="1471.679688"/>
    </g>
   </g>
  </g>
 </g>
 <defs>
  <clipPath id="pe56574f3d0">
   <rect x="55.915469" y="31.397969" width="368.28" height="227.304"/>
  </clipPath>
 </defs>
</svg>
