<?xml version="1.0" encoding="utf-8" standalone="no"?>
<!DOCTYPE svg PUBLIC "-//W3C//DTD SVG 1.1//EN"
  "http://www.w3.org/Graphics/SVG/1.1/DTD/svg11.dtd">
<svg xmlns:xlink="http://www.w3.org/1999/xlink" width="432.534219pt" height="302.549937pt" viewBox="0 0 432.534219 302.549937" xmlns="http://www.w3.org/2000/svg" version="1.1">
 <metadata>
  <rdf:RDF xmlns:dc="http://purl.org/dc/elements/1.1/" xmlns:cc="http://creativecommons.org/ns#" xmlns:rdf="http://www.w3.org/1999/02/22-rdf-syntax-ns#">
   <cc:Work>
    <dc:type rdf:resource="http://purl.org/dc/dcmitype/StillImage"/>
    <dc:date>2026-06-30T11:53:10.968571</dc:date>
    <dc:format>image/svg+xml</dc:format>
    <dc:creator>
     <cc:Agent>
      <dc:title>Matplotlib v3.9.2, https://matplotlib.org/</dc:title>
     </cc:Agent>
    </dc:creator>
   </cc:Work>
  </rdf:RDF>
 </metadata>
 <defs>
  <style type="text/css">*{stroke-linejoin: round; stroke-linecap: butt}</style>
 </defs>
 <g id="figure_1">
  <g id="patch_1">
   <path d="M 0 302.549937 
L 432.534219 302.549937 
L 432.534219 0 
L 0 0 
z
" style="fill: #ffffff"/>
  </g>
  <g id="axes_1">
   <g id="patch_2">
    <path d="M 49.552969 259.221969 
L 417.832969 259.221969 
L 417.832969 31.917969 
L 49.552969 31.917969 
z
" style="fill: #ffffff"/>
   </g>
   <g id="matplotlib.axis_1">
    <g id="xtick_1">
     <g id="line2d_1">
      <path d="M 49.552969 259.221969 
L 49.552969 31.917969 
" clip-path="url(#p23804de341)" style="fill: none; stroke-dasharray: 0.8,1.28; stroke-dashoffset: 0; stroke: #b0b0b0; stroke-opacity: 0.3; stroke-width: 0.8"/>
     </g>
     <g id="line2d_2">
      <defs>
       <path id="ma1bd68628f" d="M 0 0 
L 0 3.5 
" style="stroke: #2c3e50; stroke-width: 0.8"/>
      </defs>
      <g>
       <use xlink:href="#ma1bd68628f" x="49.552969" y="259.221969" style="fill: #2c3e50; stroke: #2c3e50; stroke-width: 0.8"/>
      </g>
     </g>
     <g id="text_1">
      <!-- −6 -->
      <g style="fill: #2c3e50" transform="translate(42.181875 273.820406) scale(0.1 -0.1)">
       <defs>
        <path id="DejaVuSans-2212" d="M 678 2272 
L 4684 2272 
L 4684 1741 
L 678 1741 
L 678 2272 
z
" transform="scale(0.015625)"/>
        <path id="DejaVuSans-36" d="M 2113 2584 
Q 1688 2584 1439 2293 
Q 1191 2003 1191 1497 
Q 1191 994 1439 701 
Q 1688 409 2113 409 
Q 2538 409 2786 701 
Q 3034 994 3034 1497 
Q 3034 2003 2786 2293 
Q 2538 2584 2113 2584 
z
M 3366 4563 
L 3366 3988 
Q 3128 4100 2886 4159 
Q 2644 4219 2406 4219 
Q 1781 4219 1451 3797 
Q 1122 3375 1075 2522 
Q 1259 2794 1537 2939 
Q 1816 3084 2150 3084 
Q 2853 3084 3261 2657 
Q 3669 2231 3669 1497 
Q 3669 778 3244 343 
Q 2819 -91 2113 -91 
Q 1303 -91 875 529 
Q 447 1150 447 2328 
Q 447 3434 972 4092 
Q 1497 4750 2381 4750 
Q 2619 4750 2861 4703 
Q 3103 4656 3366 4563 
z
" transform="scale(0.015625)"/>
       </defs>
       <use xlink:href="#DejaVuSans-2212"/>
       <use xlink:href="#DejaVuSans-36" x="83.789062"/>
      </g>
     </g>
    </g>
    <g id="xtick_2">
     <g id="line2d_3">
      <path d="M 110.932969 259.221969 
L 110.932969 31.917969 
" clip-path="url(#p23804de341)" style="fill: none; stroke-dasharray: 0.8,1.28; stroke-dashoffset: 0; stroke: #b0b0b0; stroke-opacity: 0.3; stroke-width: 0.8"/>
     </g>
     <g id="line2d_4">
      <g>
       <use xlink:href="#ma1bd68628f" x="110.932969" y="259.221969" style="fill: #2c3e50; stroke: #2c3e50; stroke-width: 0.8"/>
      </g>
     </g>
     <g id="text_2">
      <!-- −4 -->
      <g style="fill: #2c3e50" transform="translate(103.561875 273.820406) scale(0.1 -0.1)">
       <defs>
        <path id="DejaVuSans-34" d="M 2419 4116 
L 825 1625 
L 2419 1625 
L 2419 4116 
z
M 2253 4666 
L 3047 4666 
L 3047 1625 
L 3713 1625 
L 3713 1100 
L 3047 1100 
L 3047 0 
L 2419 0 
L 2419 1100 
L 313 1100 
L 313 1709 
L 2253 4666 
z
" transform="scale(0.015625)"/>
       </defs>
       <use xlink:href="#DejaVuSans-2212"/>
       <use xlink:href="#DejaVuSans-34" x="83.789062"/>
      </g>
     </g>
    </g>
    <g id="xtick_3">
     <g id="line2d_5">
      <path d="M 172.312969 259.221969 
L 172.312969 31.917969 
" clip-path="url(#p23804de341)" style="fill: none; stroke-dasharray: 0.8,1.28; stroke-dashoffset: 0; stroke: #b0b0b0; stroke-opacity: 0.3; stroke-width: 0.8"/>
     </g>
     <g id="line2d_6">
      <g>
       <use xlink:href="#ma1bd68628f" x="172.312969" y="259.221969" style="fill: #2c3e50; stroke: #2c3e50; stroke-width: 0.8"/>
      </g>
     </g>
     <g id="text_3">
      <!-- −2 -->
      <g style="fill: #2c3e50" transform="translate(164.941875 273.820406) scale(0.1 -0.1)">
       <defs>
        <path id="DejaVuSans-32" d="M 1228 531 
L 3431 531 
L 3431 0 
L 469 0 
L 469 531 
Q 828 903 1448 1529 
Q 2069 2156 2228 2338 
Q 2531 2678 2651 2914 
Q 2772 3150 2772 3378 
Q 2772 3750 2511 3984 
Q 2250 4219 1831 4219 
Q 1534 4219 1204 4116 
Q 875 4013 500 3803 
L 500 4441 
Q 881 4594 1212 4672 
Q 1544 4750 1819 4750 
Q 2544 4750 2975 4387 
Q 3406 4025 3406 3419 
Q 3406 3131 3298 2873 
Q 3191 2616 2906 2266 
Q 2828 2175 2409 1742 
Q 1991 1309 1228 531 
z
" transform="scale(0.015625)"/>
       </defs>
       <use xlink:href="#DejaVuSans-2212"/>
       <use xlink:href="#DejaVuSans-32" x="83.789062"/>
      </g>
     </g>
    </g>
    <g id="xtick_4">
     <g id="line2d_7">
      <path d="M 233.692969 259.221969 
L 233.692969 31.917969 
" clip-path="url(#p23804de341)" style="fill: none; stroke-dasharray: 0.8,1.28; stroke-dashoffset: 0; stroke: #b0b0b0; stroke-opacity: 0.3; stroke-width: 0.8"/>
     </g>
     <g id="line2d_8">
      <g>
       <use xlink:href="#ma1bd68628f" x="233.692969" y="259.221969" style="fill: #2c3e50; stroke: #2c3e50; stroke-width: 0.8"/>
      </g>
     </g>
     <g id="text_4">
      <!-- 0 -->
      <g style="fill: #2c3e50" transform="translate(230.511719 273.820406) scale(0.1 -0.1)">
       <defs>
        <path id="DejaVuSans-30" d="M 2034 4250 
Q 1547 4250 1301 3770 
Q 1056 3291 1056 2328 
Q 1056 1369 1301 889 
Q 1547 409 2034 409 
Q 2525 409 2770 889 
Q 3016 1369 3016 2328 
Q 3016 3291 2770 3770 
Q 2525 4250 2034 4250 
z
M 2034 4750 
Q 2819 4750 3233 4129 
Q 3647 3509 3647 2328 
Q 3647 1150 3233 529 
Q 2819 -91 2034 -91 
Q 1250 -91 836 529 
Q 422 1150 422 2328 
Q 422 3509 836 4129 
Q 1250 4750 2034 4750 
z
" transform="scale(0.015625)"/>
       </defs>
       <use xlink:href="#DejaVuSans-30"/>
      </g>
     </g>
    </g>
    <g id="xtick_5">
     <g id="line2d_9">
      <path d="M 295.072969 259.221969 
L 295.072969 31.917969 
" clip-path="url(#p23804de341)" style="fill: none; stroke-dasharray: 0.8,1.28; stroke-dashoffset: 0; stroke: #b0b0b0; stroke-opacity: 0.3; stroke-width: 0.8"/>
     </g>
     <g id="line2d_10">
      <g>
       <use xlink:href="#ma1bd68628f" x="295.072969" y="259.221969" style="fill: #2c3e50; stroke: #2c3e50; stroke-width: 0.8"/>
      </g>
     </g>
     <g id="text_5">
      <!-- 2 -->
      <g style="fill: #2c3e50" transform="translate(291.891719 273.820406) scale(0.1 -0.1)">
       <use xlink:href="#DejaVuSans-32"/>
      </g>
     </g>
    </g>
    <g id="xtick_6">
     <g id="line2d_11">
      <path d="M 356.452969 259.221969 
L 356.452969 31.917969 
" clip-path="url(#p23804de341)" style="fill: none; stroke-dasharray: 0.8,1.28; stroke-dashoffset: 0; stroke: #b0b0b0; stroke-opacity: 0.3; stroke-width: 0.8"/>
     </g>
     <g id="line2d_12">
      <g>
       <use xlink:href="#ma1bd68628f" x="356.452969" y="259.221969" style="fill: #2c3e50; stroke: #2c3e50; stroke-width: 0.8"/>
      </g>
     </g>
     <g id="text_6">
      <!-- 4 -->
      <g style="fill: #2c3e50" transform="translate(353.271719 273.820406) scale(0.1 -0.1)">
       <use xlink:href="#DejaVuSans-34"/>
      </g>
     </g>
    </g>
    <g id="xtick_7">
     <g id="line2d_13">
      <path d="M 417.832969 259.221969 
L 417.832969 31.917969 
" clip-path="url(#p23804de341)" style="fill: none; stroke-dasharray: 0.8,1.28; stroke-dashoffset: 0; stroke: #b0b0b0; stroke-opacity: 0.3; stroke-width: 0.8"/>
     </g>
     <g id="line2d_14">
      <g>
       <use xlink:href="#ma1bd68628f" x="417.832969" y="259.221969" style="fill: #2c3e50; stroke: #2c3e50; stroke-width: 0.8"/>
      </g>
     </g>
     <g id="text_7">
      <!-- 6 -->
      <g style="fill: #2c3e50" transform="translate(414.651719 273.820406) scale(0.1 -0.1)">
       <use xlink:href="#DejaVuSans-36"/>
      </g>
     </g>
    </g>
    <g id="text_8">
     <!-- Valor -->
     <g transform="translate(216.921836 288.638297) scale(0.115 -0.115)">
      <defs>
       <path id="DejaVuSans-Bold-56" d="M 31 4666 
L 1241 4666 
L 2478 1222 
L 3713 4666 
L 4922 4666 
L 3194 0 
L 1759 0 
L 31 4666 
z
" transform="scale(0.015625)"/>
       <path id="DejaVuSans-Bold-61" d="M 2106 1575 
Q 1756 1575 1579 1456 
Q 1403 1338 1403 1106 
Q 1403 894 1545 773 
Q 1688 653 1941 653 
Q 2256 653 2472 879 
Q 2688 1106 2688 1447 
L 2688 1575 
L 2106 1575 
z
M 3816 1997 
L 3816 0 
L 2688 0 
L 2688 519 
Q 2463 200 2181 54 
Q 1900 -91 1497 -91 
Q 953 -91 614 226 
Q 275 544 275 1050 
Q 275 1666 698 1953 
Q 1122 2241 2028 2241 
L 2688 2241 
L 2688 2328 
Q 2688 2594 2478 2717 
Q 2269 2841 1825 2841 
Q 1466 2841 1156 2769 
Q 847 2697 581 2553 
L 581 3406 
Q 941 3494 1303 3539 
Q 1666 3584 2028 3584 
Q 2975 3584 3395 3211 
Q 3816 2838 3816 1997 
z
" transform="scale(0.015625)"/>
       <path id="DejaVuSans-Bold-6c" d="M 538 4863 
L 1656 4863 
L 1656 0 
L 538 0 
L 538 4863 
z
" transform="scale(0.015625)"/>
       <path id="DejaVuSans-Bold-6f" d="M 2203 2784 
Q 1831 2784 1636 2517 
Q 1441 2250 1441 1747 
Q 1441 1244 1636 976 
Q 1831 709 2203 709 
Q 2569 709 2762 976 
Q 2956 1244 2956 1747 
Q 2956 2250 2762 2517 
Q 2569 2784 2203 2784 
z
M 2203 3584 
Q 3106 3584 3614 3096 
Q 4122 2609 4122 1747 
Q 4122 884 3614 396 
Q 3106 -91 2203 -91 
Q 1297 -91 786 396 
Q 275 884 275 1747 
Q 275 2609 786 3096 
Q 1297 3584 2203 3584 
z
" transform="scale(0.015625)"/>
       <path id="DejaVuSans-Bold-72" d="M 3138 2547 
Q 2991 2616 2845 2648 
Q 2700 2681 2553 2681 
Q 2122 2681 1889 2404 
Q 1656 2128 1656 1613 
L 1656 0 
L 538 0 
L 538 3500 
L 1656 3500 
L 1656 2925 
Q 1872 3269 2151 3426 
Q 2431 3584 2822 3584 
Q 2878 3584 2943 3579 
Q 3009 3575 3134 3559 
L 3138 2547 
z
" transform="scale(0.015625)"/>
      </defs>
      <use xlink:href="#DejaVuSans-Bold-56"/>
      <use xlink:href="#DejaVuSans-Bold-61" x="71.892578"/>
      <use xlink:href="#DejaVuSans-Bold-6c" x="139.373047"/>
      <use xlink:href="#DejaVuSans-Bold-6f" x="173.650391"/>
      <use xlink:href="#DejaVuSans-Bold-72" x="242.351562"/>
     </g>
    </g>
   </g>
   <g id="matplotlib.axis_2">
    <g id="ytick_1">
     <g id="line2d_15">
      <path d="M 49.552969 259.221969 
L 417.832969 259.221969 
" clip-path="url(#p23804de341)" style="fill: none; stroke-dasharray: 0.8,1.28; stroke-dashoffset: 0; stroke: #b0b0b0; stroke-opacity: 0.3; stroke-width: 0.8"/>
     </g>
     <g id="line2d_16">
      <defs>
       <path id="m14bc92d0f0" d="M 0 0 
L -3.5 0 
" style="stroke: #2c3e50; stroke-width: 0.8"/>
      </defs>
      <g>
       <use xlink:href="#m14bc92d0f0" x="49.552969" y="259.221969" style="fill: #2c3e50; stroke: #2c3e50; stroke-width: 0.8"/>
      </g>
     </g>
     <g id="text_9">
      <!-- 0.0 -->
      <g style="fill: #2c3e50" transform="translate(26.649844 263.021187) scale(0.1 -0.1)">
       <defs>
        <path id="DejaVuSans-2e" d="M 684 794 
L 1344 794 
L 1344 0 
L 684 0 
L 684 794 
z
" transform="scale(0.015625)"/>
       </defs>
       <use xlink:href="#DejaVuSans-30"/>
       <use xlink:href="#DejaVuSans-2e" x="63.623047"/>
       <use xlink:href="#DejaVuSans-30" x="95.410156"/>
      </g>
     </g>
    </g>
    <g id="ytick_2">
     <g id="line2d_17">
      <path d="M 49.552969 218.399231 
L 417.832969 218.399231 
" clip-path="url(#p23804de341)" style="fill: none; stroke-dasharray: 0.8,1.28; stroke-dashoffset: 0; stroke: #b0b0b0; stroke-opacity: 0.3; stroke-width: 0.8"/>
     </g>
     <g id="line2d_18">
      <g>
       <use xlink:href="#m14bc92d0f0" x="49.552969" y="218.399231" style="fill: #2c3e50; stroke: #2c3e50; stroke-width: 0.8"/>
      </g>
     </g>
     <g id="text_10">
      <!-- 0.1 -->
      <g style="fill: #2c3e50" transform="translate(26.649844 222.19845) scale(0.1 -0.1)">
       <defs>
        <path id="DejaVuSans-31" d="M 794 531 
L 1825 531 
L 1825 4091 
L 703 3866 
L 703 4441 
L 1819 4666 
L 2450 4666 
L 2450 531 
L 3481 531 
L 3481 0 
L 794 0 
L 794 531 
z
" transform="scale(0.015625)"/>
       </defs>
       <use xlink:href="#DejaVuSans-30"/>
       <use xlink:href="#DejaVuSans-2e" x="63.623047"/>
       <use xlink:href="#DejaVuSans-31" x="95.410156"/>
      </g>
     </g>
    </g>
    <g id="ytick_3">
     <g id="line2d_19">
      <path d="M 49.552969 177.576493 
L 417.832969 177.576493 
" clip-path="url(#p23804de341)" style="fill: none; stroke-dasharray: 0.8,1.28; stroke-dashoffset: 0; stroke: #b0b0b0; stroke-opacity: 0.3; stroke-width: 0.8"/>
     </g>
     <g id="line2d_20">
      <g>
       <use xlink:href="#m14bc92d0f0" x="49.552969" y="177.576493" style="fill: #2c3e50; stroke: #2c3e50; stroke-width: 0.8"/>
      </g>
     </g>
     <g id="text_11">
      <!-- 0.2 -->
      <g style="fill: #2c3e50" transform="translate(26.649844 181.375712) scale(0.1 -0.1)">
       <use xlink:href="#DejaVuSans-30"/>
       <use xlink:href="#DejaVuSans-2e" x="63.623047"/>
       <use xlink:href="#DejaVuSans-32" x="95.410156"/>
      </g>
     </g>
    </g>
    <g id="ytick_4">
     <g id="line2d_21">
      <path d="M 49.552969 136.753756 
L 417.832969 136.753756 
" clip-path="url(#p23804de341)" style="fill: none; stroke-dasharray: 0.8,1.28; stroke-dashoffset: 0; stroke: #b0b0b0; stroke-opacity: 0.3; stroke-width: 0.8"/>
     </g>
     <g id="line2d_22">
      <g>
       <use xlink:href="#m14bc92d0f0" x="49.552969" y="136.753756" style="fill: #2c3e50; stroke: #2c3e50; stroke-width: 0.8"/>
      </g>
     </g>
     <g id="text_12">
      <!-- 0.3 -->
      <g style="fill: #2c3e50" transform="translate(26.649844 140.552975) scale(0.1 -0.1)">
       <defs>
        <path id="DejaVuSans-33" d="M 2597 2516 
Q 3050 2419 3304 2112 
Q 3559 1806 3559 1356 
Q 3559 666 3084 287 
Q 2609 -91 1734 -91 
Q 1441 -91 1130 -33 
Q 819 25 488 141 
L 488 750 
Q 750 597 1062 519 
Q 1375 441 1716 441 
Q 2309 441 2620 675 
Q 2931 909 2931 1356 
Q 2931 1769 2642 2001 
Q 2353 2234 1838 2234 
L 1294 2234 
L 1294 2753 
L 1863 2753 
Q 2328 2753 2575 2939 
Q 2822 3125 2822 3475 
Q 2822 3834 2567 4026 
Q 2313 4219 1838 4219 
Q 1578 4219 1281 4162 
Q 984 4106 628 3988 
L 628 4550 
Q 988 4650 1302 4700 
Q 1616 4750 1894 4750 
Q 2613 4750 3031 4423 
Q 3450 4097 3450 3541 
Q 3450 3153 3228 2886 
Q 3006 2619 2597 2516 
z
" transform="scale(0.015625)"/>
       </defs>
       <use xlink:href="#DejaVuSans-30"/>
       <use xlink:href="#DejaVuSans-2e" x="63.623047"/>
       <use xlink:href="#DejaVuSans-33" x="95.410156"/>
      </g>
     </g>
    </g>
    <g id="ytick_5">
     <g id="line2d_23">
      <path d="M 49.552969 95.931018 
L 417.832969 95.931018 
" clip-path="url(#p23804de341)" style="fill: none; stroke-dasharray: 0.8,1.28; stroke-dashoffset: 0; stroke: #b0b0b0; stroke-opacity: 0.3; stroke-width: 0.8"/>
     </g>
     <g id="line2d_24">
      <g>
       <use xlink:href="#m14bc92d0f0" x="49.552969" y="95.931018" style="fill: #2c3e50; stroke: #2c3e50; stroke-width: 0.8"/>
      </g>
     </g>
     <g id="text_13">
      <!-- 0.4 -->
      <g style="fill: #2c3e50" transform="translate(26.649844 99.730237) scale(0.1 -0.1)">
       <use xlink:href="#DejaVuSans-30"/>
       <use xlink:href="#DejaVuSans-2e" x="63.623047"/>
       <use xlink:href="#DejaVuSans-34" x="95.410156"/>
      </g>
     </g>
    </g>
    <g id="ytick_6">
     <g id="line2d_25">
      <path d="M 49.552969 55.10828 
L 417.832969 55.10828 
" clip-path="url(#p23804de341)" style="fill: none; stroke-dasharray: 0.8,1.28; stroke-dashoffset: 0; stroke: #b0b0b0; stroke-opacity: 0.3; stroke-width: 0.8"/>
     </g>
     <g id="line2d_26">
      <g>
       <use xlink:href="#m14bc92d0f0" x="49.552969" y="55.10828" style="fill: #2c3e50; stroke: #2c3e50; stroke-width: 0.8"/>
      </g>
     </g>
     <g id="text_14">
      <!-- 0.5 -->
      <g style="fill: #2c3e50" transform="translate(26.649844 58.907499) scale(0.1 -0.1)">
       <defs>
        <path id="DejaVuSans-35" d="M 691 4666 
L 3169 4666 
L 3169 4134 
L 1269 4134 
L 1269 2991 
Q 1406 3038 1543 3061 
Q 1681 3084 1819 3084 
Q 2600 3084 3056 2656 
Q 3513 2228 3513 1497 
Q 3513 744 3044 326 
Q 2575 -91 1722 -91 
Q 1428 -91 1123 -41 
Q 819 9 494 109 
L 494 744 
Q 775 591 1075 516 
Q 1375 441 1709 441 
Q 2250 441 2565 725 
Q 2881 1009 2881 1497 
Q 2881 1984 2565 2268 
Q 2250 2553 1709 2553 
Q 1456 2553 1204 2497 
Q 953 2441 691 2322 
L 691 4666 
z
" transform="scale(0.015625)"/>
       </defs>
       <use xlink:href="#DejaVuSans-30"/>
       <use xlink:href="#DejaVuSans-2e" x="63.623047"/>
       <use xlink:href="#DejaVuSans-35" x="95.410156"/>
      </g>
     </g>
    </g>
    <g id="text_15">
     <!-- Densidad -->
     <g transform="translate(20.258203 175.841922) rotate(-90) scale(0.115 -0.115)">
      <defs>
       <path id="DejaVuSans-Bold-44" d="M 1791 3756 
L 1791 909 
L 2222 909 
Q 2959 909 3348 1275 
Q 3738 1641 3738 2338 
Q 3738 3031 3350 3393 
Q 2963 3756 2222 3756 
L 1791 3756 
z
M 588 4666 
L 1856 4666 
Q 2919 4666 3439 4514 
Q 3959 4363 4331 4000 
Q 4659 3684 4818 3271 
Q 4978 2859 4978 2338 
Q 4978 1809 4818 1395 
Q 4659 981 4331 666 
Q 3956 303 3431 151 
Q 2906 0 1856 0 
L 588 0 
L 588 4666 
z
" transform="scale(0.015625)"/>
       <path id="DejaVuSans-Bold-65" d="M 4031 1759 
L 4031 1441 
L 1416 1441 
Q 1456 1047 1700 850 
Q 1944 653 2381 653 
Q 2734 653 3104 758 
Q 3475 863 3866 1075 
L 3866 213 
Q 3469 63 3072 -14 
Q 2675 -91 2278 -91 
Q 1328 -91 801 392 
Q 275 875 275 1747 
Q 275 2603 792 3093 
Q 1309 3584 2216 3584 
Q 3041 3584 3536 3087 
Q 4031 2591 4031 1759 
z
M 2881 2131 
Q 2881 2450 2695 2645 
Q 2509 2841 2209 2841 
Q 1884 2841 1681 2658 
Q 1478 2475 1428 2131 
L 2881 2131 
z
" transform="scale(0.015625)"/>
       <path id="DejaVuSans-Bold-6e" d="M 4056 2131 
L 4056 0 
L 2931 0 
L 2931 347 
L 2931 1631 
Q 2931 2084 2911 2256 
Q 2891 2428 2841 2509 
Q 2775 2619 2662 2680 
Q 2550 2741 2406 2741 
Q 2056 2741 1856 2470 
Q 1656 2200 1656 1722 
L 1656 0 
L 538 0 
L 538 3500 
L 1656 3500 
L 1656 2988 
Q 1909 3294 2193 3439 
Q 2478 3584 2822 3584 
Q 3428 3584 3742 3212 
Q 4056 2841 4056 2131 
z
" transform="scale(0.015625)"/>
       <path id="DejaVuSans-Bold-73" d="M 3272 3391 
L 3272 2541 
Q 2913 2691 2578 2766 
Q 2244 2841 1947 2841 
Q 1628 2841 1473 2761 
Q 1319 2681 1319 2516 
Q 1319 2381 1436 2309 
Q 1553 2238 1856 2203 
L 2053 2175 
Q 2913 2066 3209 1816 
Q 3506 1566 3506 1031 
Q 3506 472 3093 190 
Q 2681 -91 1863 -91 
Q 1516 -91 1145 -36 
Q 775 19 384 128 
L 384 978 
Q 719 816 1070 734 
Q 1422 653 1784 653 
Q 2113 653 2278 743 
Q 2444 834 2444 1013 
Q 2444 1163 2330 1236 
Q 2216 1309 1875 1350 
L 1678 1375 
Q 931 1469 631 1722 
Q 331 1975 331 2491 
Q 331 3047 712 3315 
Q 1094 3584 1881 3584 
Q 2191 3584 2531 3537 
Q 2872 3491 3272 3391 
z
" transform="scale(0.015625)"/>
       <path id="DejaVuSans-Bold-69" d="M 538 3500 
L 1656 3500 
L 1656 0 
L 538 0 
L 538 3500 
z
M 538 4863 
L 1656 4863 
L 1656 3950 
L 538 3950 
L 538 4863 
z
" transform="scale(0.015625)"/>
       <path id="DejaVuSans-Bold-64" d="M 2919 2988 
L 2919 4863 
L 4044 4863 
L 4044 0 
L 2919 0 
L 2919 506 
Q 2688 197 2409 53 
Q 2131 -91 1766 -91 
Q 1119 -91 703 423 
Q 288 938 288 1747 
Q 288 2556 703 3070 
Q 1119 3584 1766 3584 
Q 2128 3584 2408 3439 
Q 2688 3294 2919 2988 
z
M 2181 722 
Q 2541 722 2730 984 
Q 2919 1247 2919 1747 
Q 2919 2247 2730 2509 
Q 2541 2772 2181 2772 
Q 1825 2772 1636 2509 
Q 1447 2247 1447 1747 
Q 1447 1247 1636 984 
Q 1825 722 2181 722 
z
" transform="scale(0.015625)"/>
      </defs>
      <use xlink:href="#DejaVuSans-Bold-44"/>
      <use xlink:href="#DejaVuSans-Bold-65" x="83.007812"/>
      <use xlink:href="#DejaVuSans-Bold-6e" x="150.830078"/>
      <use xlink:href="#DejaVuSans-Bold-73" x="222.021484"/>
      <use xlink:href="#DejaVuSans-Bold-69" x="281.542969"/>
      <use xlink:href="#DejaVuSans-Bold-64" x="315.820312"/>
      <use xlink:href="#DejaVuSans-Bold-61" x="387.402344"/>
      <use xlink:href="#DejaVuSans-Bold-64" x="454.882812"/>
     </g>
    </g>
   </g>
   <g id="PolyCollection_1">
    <defs>
     <path id="md69dd4c306" d="M 49.552969 -43.327969 
L 49.552969 -43.465552 
L 50.013895 -43.467194 
L 50.474821 -43.468861 
L 50.935747 -43.470551 
L 51.396673 -43.472265 
L 51.8576 -43.474004 
L 52.318526 -43.475767 
L 52.779452 -43.477556 
L 53.240378 -43.479371 
L 53.701304 -43.481212 
L 54.16223 -43.48308 
L 54.623156 -43.484975 
L 55.084083 -43.486897 
L 55.545009 -43.488848 
L 56.005935 -43.490827 
L 56.466861 -43.492835 
L 56.927787 -43.494872 
L 57.388713 -43.496939 
L 57.84964 -43.499037 
L 58.310566 -43.501166 
L 58.771492 -43.503327 
L 59.232418 -43.505519 
L 59.693344 -43.507744 
L 60.15427 -43.510003 
L 60.615197 -43.512295 
L 61.076123 -43.514621 
L 61.537049 -43.516983 
L 61.997975 -43.51938 
L 62.458901 -43.521813 
L 62.919827 -43.524283 
L 63.380753 -43.52679 
L 63.84168 -43.529336 
L 64.302606 -43.53192 
L 64.763532 -43.534544 
L 65.224458 -43.537207 
L 65.685384 -43.539912 
L 66.14631 -43.542659 
L 66.607237 -43.545447 
L 67.068163 -43.548279 
L 67.529089 -43.551155 
L 67.990015 -43.554075 
L 68.450941 -43.557041 
L 68.911867 -43.560053 
L 69.372794 -43.563112 
L 69.83372 -43.566219 
L 70.294646 -43.569374 
L 70.755572 -43.57258 
L 71.216498 -43.575836 
L 71.677424 -43.579143 
L 72.13835 -43.582503 
L 72.599277 -43.585917 
L 73.060203 -43.589385 
L 73.521129 -43.592908 
L 73.982055 -43.596488 
L 74.442981 -43.600125 
L 74.903907 -43.603821 
L 75.364834 -43.607576 
L 75.82576 -43.611392 
L 76.286686 -43.61527 
L 76.747612 -43.619211 
L 77.208538 -43.623216 
L 77.669464 -43.627287 
L 78.130391 -43.631424 
L 78.591317 -43.635629 
L 79.052243 -43.639903 
L 79.513169 -43.644248 
L 79.974095 -43.648665 
L 80.435021 -43.653155 
L 80.895947 -43.657719 
L 81.356874 -43.66236 
L 81.8178 -43.667078 
L 82.278726 -43.671875 
L 82.739652 -43.676752 
L 83.200578 -43.681712 
L 83.661504 -43.686755 
L 84.122431 -43.691884 
L 84.583357 -43.6971 
L 85.044283 -43.702404 
L 85.505209 -43.707799 
L 85.966135 -43.713285 
L 86.427061 -43.718866 
L 86.887988 -43.724543 
L 87.348914 -43.730317 
L 87.80984 -43.736191 
L 88.270766 -43.742167 
L 88.731692 -43.748247 
L 89.192618 -43.754432 
L 89.653544 -43.760725 
L 90.114471 -43.767128 
L 90.575397 -43.773643 
L 91.036323 -43.780273 
L 91.497249 -43.78702 
L 91.958175 -43.793886 
L 92.419101 -43.800874 
L 92.880028 -43.807986 
L 93.340954 -43.815224 
L 93.80188 -43.822592 
L 94.262806 -43.830091 
L 94.723732 -43.837725 
L 95.184658 -43.845497 
L 95.645585 -43.853409 
L 96.106511 -43.861463 
L 96.567437 -43.869665 
L 97.028363 -43.878015 
L 97.489289 -43.886517 
L 97.950215 -43.895175 
L 98.411141 -43.903992 
L 98.872068 -43.912971 
L 99.332994 -43.922115 
L 99.79392 -43.931428 
L 100.254846 -43.940914 
L 100.715772 -43.950577 
L 101.176698 -43.960419 
L 101.637625 -43.970445 
L 102.098551 -43.980659 
L 102.559477 -43.991065 
L 103.020403 -44.001667 
L 103.481329 -44.012469 
L 103.942255 -44.023475 
L 104.403182 -44.034691 
L 104.864108 -44.04612 
L 105.325034 -44.057768 
L 105.78596 -44.069638 
L 106.246886 -44.081736 
L 106.707812 -44.094068 
L 107.168738 -44.106637 
L 107.629665 -44.11945 
L 108.090591 -44.132511 
L 108.551517 -44.145827 
L 109.012443 -44.159402 
L 109.473369 -44.173244 
L 109.934295 -44.187356 
L 110.395222 -44.201747 
L 110.856148 -44.216422 
L 111.317074 -44.231387 
L 111.778 -44.246649 
L 112.238926 -44.262215 
L 112.699852 -44.278092 
L 113.160779 -44.294286 
L 113.621705 -44.310806 
L 114.082631 -44.327658 
L 114.543557 -44.34485 
L 115.004483 -44.36239 
L 115.465409 -44.380286 
L 115.926335 -44.398546 
L 116.387262 -44.417179 
L 116.848188 -44.436194 
L 117.309114 -44.455599 
L 117.77004 -44.475403 
L 118.230966 -44.495616 
L 118.691892 -44.516248 
L 119.152819 -44.537308 
L 119.613745 -44.558807 
L 120.074671 -44.580754 
L 120.535597 -44.603161 
L 120.996523 -44.626039 
L 121.457449 -44.649399 
L 121.918376 -44.673252 
L 122.379302 -44.69761 
L 122.840228 -44.722485 
L 123.301154 -44.747891 
L 123.76208 -44.773839 
L 124.223006 -44.800343 
L 124.683932 -44.827417 
L 125.144859 -44.855074 
L 125.605785 -44.883329 
L 126.066711 -44.912196 
L 126.527637 -44.941691 
L 126.988563 -44.971828 
L 127.449489 -45.002625 
L 127.910416 -45.034096 
L 128.371342 -45.06626 
L 128.832268 -45.099133 
L 129.293194 -45.132732 
L 129.75412 -45.167077 
L 130.215046 -45.202186 
L 130.675973 -45.238078 
L 131.136899 -45.274773 
L 131.597825 -45.312291 
L 132.058751 -45.350654 
L 132.519677 -45.389882 
L 132.980603 -45.429998 
L 133.441529 -45.471024 
L 133.902456 -45.512984 
L 134.363382 -45.555902 
L 134.824308 -45.599802 
L 135.285234 -45.644711 
L 135.74616 -45.690653 
L 136.207086 -45.737656 
L 136.668013 -45.785748 
L 137.128939 -45.834957 
L 137.589865 -45.885311 
L 138.050791 -45.936842 
L 138.511717 -45.989581 
L 138.972643 -46.043558 
L 139.43357 -46.098806 
L 139.894496 -46.15536 
L 140.355422 -46.213254 
L 140.816348 -46.272524 
L 141.277274 -46.333206 
L 141.7382 -46.395339 
L 142.199126 -46.45896 
L 142.660053 -46.52411 
L 143.120979 -46.590831 
L 143.581905 -46.659164 
L 144.042831 -46.729153 
L 144.503757 -46.800844 
L 144.964683 -46.874282 
L 145.42561 -46.949515 
L 145.886536 -47.026591 
L 146.347462 -47.105562 
L 146.808388 -47.18648 
L 147.269314 -47.269397 
L 147.73024 -47.35437 
L 148.191166 -47.441454 
L 148.652093 -47.530708 
L 149.113019 -47.622192 
L 149.573945 -47.715969 
L 150.034871 -47.812101 
L 150.495797 -47.910655 
L 150.956723 -48.011698 
L 151.41765 -48.115301 
L 151.878576 -48.221534 
L 152.339502 -48.330472 
L 152.800428 -48.442191 
L 153.261354 -48.556769 
L 153.72228 -48.674287 
L 154.183207 -48.794829 
L 154.644133 -48.91848 
L 155.105059 -49.045329 
L 155.565985 -49.175467 
L 156.026911 -49.308986 
L 156.487837 -49.445985 
L 156.948763 -49.586562 
L 157.40969 -49.730821 
L 157.870616 -49.878866 
L 158.331542 -50.030806 
L 158.792468 -50.186754 
L 159.253394 -50.346825 
L 159.71432 -50.511137 
L 160.175247 -50.679815 
L 160.636173 -50.852982 
L 161.097099 -51.030771 
L 161.558025 -51.213315 
L 162.018951 -51.400751 
L 162.479877 -51.593222 
L 162.940804 -51.790874 
L 163.40173 -51.993858 
L 163.862656 -52.20233 
L 164.323582 -52.416449 
L 164.784508 -52.63638 
L 165.245434 -52.862292 
L 165.70636 -53.094361 
L 166.167287 -53.332766 
L 166.628213 -53.577693 
L 167.089139 -53.829331 
L 167.550065 -54.087878 
L 168.010991 -54.353535 
L 168.471917 -54.62651 
L 168.932844 -54.907018 
L 169.39377 -55.195278 
L 169.854696 -55.491517 
L 170.315622 -55.795968 
L 170.776548 -56.108872 
L 171.237474 -56.430474 
L 171.698401 -56.761029 
L 172.159327 -57.100797 
L 172.620253 -57.450046 
L 173.081179 -57.809053 
L 173.542105 -58.178101 
L 174.003031 -58.55748 
L 174.463957 -58.947491 
L 174.924884 -59.348441 
L 175.38581 -59.760644 
L 175.846736 -60.184426 
L 176.307662 -60.620118 
L 176.768588 -61.068063 
L 177.229514 -61.528611 
L 177.690441 -62.00212 
L 178.151367 -62.48896 
L 178.612293 -62.989508 
L 179.073219 -63.504152 
L 179.534145 -64.033287 
L 179.995071 -64.577319 
L 180.455998 -65.136665 
L 180.916924 -65.71175 
L 181.37785 -66.303009 
L 181.838776 -66.910886 
L 182.299702 -67.535837 
L 182.760628 -68.178326 
L 183.221554 -68.838826 
L 183.682481 -69.517822 
L 184.143407 -70.215808 
L 184.604333 -70.933284 
L 185.065259 -71.670765 
L 185.526185 -72.428772 
L 185.987111 -73.207834 
L 186.448038 -74.008491 
L 186.908964 -74.83129 
L 187.36989 -75.676786 
L 187.830816 -76.545544 
L 188.291742 -77.438133 
L 188.752668 -78.355132 
L 189.213595 -79.297123 
L 189.674521 -80.264695 
L 190.135447 -81.258444 
L 190.596373 -82.278967 
L 191.057299 -83.326867 
L 191.518225 -84.402749 
L 191.979151 -85.507218 
L 192.440078 -86.640881 
L 192.901004 -87.804346 
L 193.36193 -88.998215 
L 193.822856 -90.223091 
L 194.283782 -91.479571 
L 194.744708 -92.768246 
L 195.205635 -94.089698 
L 195.666561 -95.444503 
L 196.127487 -96.833221 
L 196.588413 -98.256404 
L 197.049339 -99.714584 
L 197.510265 -101.208279 
L 197.971192 -102.737985 
L 198.432118 -104.304176 
L 198.893044 -105.907301 
L 199.35397 -107.547781 
L 199.814896 -109.226007 
L 200.275822 -110.942336 
L 200.736748 -112.697088 
L 201.197675 -114.490542 
L 201.658601 -116.322935 
L 202.119527 -118.194456 
L 202.580453 -120.105243 
L 203.041379 -122.055379 
L 203.502305 -124.04489 
L 203.963232 -126.073739 
L 204.424158 -128.14182 
L 204.885084 -130.24896 
L 205.34601 -132.394908 
L 205.806936 -134.579334 
L 206.267862 -136.801827 
L 206.728789 -139.061884 
L 207.189715 -141.358913 
L 207.650641 -143.692223 
L 208.111567 -146.061023 
L 208.572493 -148.464416 
L 209.033419 -150.901397 
L 209.494345 -153.370847 
L 209.955272 -155.871528 
L 210.416198 -158.402085 
L 210.877124 -160.961036 
L 211.33805 -163.546771 
L 211.798976 -166.157553 
L 212.259902 -168.79151 
L 212.720829 -171.446636 
L 213.181755 -174.120787 
L 213.642681 -176.811684 
L 214.103607 -179.516908 
L 214.564533 -182.233902 
L 215.025459 -184.95997 
L 215.486386 -187.69228 
L 215.947312 -190.427865 
L 216.408238 -193.163622 
L 216.869164 -195.896323 
L 217.33009 -198.622609 
L 217.791016 -201.339004 
L 218.251942 -204.041914 
L 218.712869 -206.727636 
L 219.173795 -209.392364 
L 219.634721 -212.032199 
L 220.095647 -214.643156 
L 220.556573 -217.221174 
L 221.017499 -219.762126 
L 221.478426 -222.261833 
L 221.939352 -224.716071 
L 222.400278 -227.120589 
L 222.861204 -229.471119 
L 223.32213 -231.763393 
L 223.783056 -233.993153 
L 224.243983 -236.156171 
L 224.704909 -238.248262 
L 225.165835 -240.265302 
L 225.626761 -242.203239 
L 226.087687 -244.058116 
L 226.548613 -245.826084 
L 227.009539 -247.503416 
L 227.470466 -249.086527 
L 227.931392 -250.57199 
L 228.392318 -251.956546 
L 228.853244 -253.237125 
L 229.31417 -254.410858 
L 229.775096 -255.475088 
L 230.236023 -256.427387 
L 230.696949 -257.265566 
L 231.157875 -257.987682 
L 231.618801 -258.592055 
L 232.079727 -259.077271 
L 232.540653 -259.442187 
L 233.00158 -259.685945 
L 233.462506 -259.807969 
L 233.923432 -259.807969 
L 234.384358 -259.685945 
L 234.845284 -259.442187 
L 235.30621 -259.077271 
L 235.767136 -258.592055 
L 236.228063 -257.987682 
L 236.688989 -257.265566 
L 237.149915 -256.427387 
L 237.610841 -255.475088 
L 238.071767 -254.410858 
L 238.532693 -253.237125 
L 238.99362 -251.956546 
L 239.454546 -250.57199 
L 239.915472 -249.086527 
L 240.376398 -247.503416 
L 240.837324 -245.826084 
L 241.29825 -244.058116 
L 241.759177 -242.203239 
L 242.220103 -240.265302 
L 242.681029 -238.248262 
L 243.141955 -236.156171 
L 243.602881 -233.993153 
L 244.063807 -231.763393 
L 244.524733 -229.471119 
L 244.98566 -227.120589 
L 245.446586 -224.716071 
L 245.907512 -222.261833 
L 246.368438 -219.762126 
L 246.829364 -217.221174 
L 247.29029 -214.643156 
L 247.751217 -212.032199 
L 248.212143 -209.392364 
L 248.673069 -206.727636 
L 249.133995 -204.041914 
L 249.594921 -201.339004 
L 250.055847 -198.622609 
L 250.516774 -195.896323 
L 250.9777 -193.163622 
L 251.438626 -190.427865 
L 251.899552 -187.69228 
L 252.360478 -184.95997 
L 252.821404 -182.233902 
L 253.28233 -179.516908 
L 253.743257 -176.811684 
L 254.204183 -174.120787 
L 254.665109 -171.446636 
L 255.126035 -168.79151 
L 255.586961 -166.157553 
L 256.047887 -163.546771 
L 256.508814 -160.961036 
L 256.96974 -158.402085 
L 257.430666 -155.871528 
L 257.891592 -153.370847 
L 258.352518 -150.901397 
L 258.813444 -148.464416 
L 259.274371 -146.061023 
L 259.735297 -143.692223 
L 260.196223 -141.358913 
L 260.657149 -139.061884 
L 261.118075 -136.801827 
L 261.579001 -134.579334 
L 262.039927 -132.394908 
L 262.500854 -130.24896 
L 262.96178 -128.14182 
L 263.422706 -126.073739 
L 263.883632 -124.04489 
L 264.344558 -122.055379 
L 264.805484 -120.105243 
L 265.266411 -118.194456 
L 265.727337 -116.322935 
L 266.188263 -114.490542 
L 266.649189 -112.697088 
L 267.110115 -110.942336 
L 267.571041 -109.226007 
L 268.031967 -107.547781 
L 268.492894 -105.907301 
L 268.95382 -104.304176 
L 269.414746 -102.737985 
L 269.875672 -101.208279 
L 270.336598 -99.714584 
L 270.797524 -98.256404 
L 271.258451 -96.833221 
L 271.719377 -95.444503 
L 272.180303 -94.089698 
L 272.641229 -92.768246 
L 273.102155 -91.479571 
L 273.563081 -90.223091 
L 274.024008 -88.998215 
L 274.484934 -87.804346 
L 274.94586 -86.640881 
L 275.406786 -85.507218 
L 275.867712 -84.402749 
L 276.328638 -83.326867 
L 276.789564 -82.278967 
L 277.250491 -81.258444 
L 277.711417 -80.264695 
L 278.172343 -79.297123 
L 278.633269 -78.355132 
L 279.094195 -77.438133 
L 279.555121 -76.545544 
L 280.016048 -75.676786 
L 280.476974 -74.83129 
L 280.9379 -74.008491 
L 281.398826 -73.207834 
L 281.859752 -72.428772 
L 282.320678 -71.670765 
L 282.781605 -70.933284 
L 283.242531 -70.215808 
L 283.703457 -69.517822 
L 284.164383 -68.838826 
L 284.625309 -68.178326 
L 285.086235 -67.535837 
L 285.547161 -66.910886 
L 286.008088 -66.303009 
L 286.469014 -65.71175 
L 286.92994 -65.136665 
L 287.390866 -64.577319 
L 287.851792 -64.033287 
L 288.312718 -63.504152 
L 288.773645 -62.989508 
L 289.234571 -62.48896 
L 289.695497 -62.00212 
L 290.156423 -61.528611 
L 290.617349 -61.068063 
L 291.078275 -60.620118 
L 291.539202 -60.184426 
L 292.000128 -59.760644 
L 292.461054 -59.348441 
L 292.92198 -58.947491 
L 293.382906 -58.55748 
L 293.843832 -58.178101 
L 294.304758 -57.809053 
L 294.765685 -57.450046 
L 295.226611 -57.100797 
L 295.687537 -56.761029 
L 296.148463 -56.430474 
L 296.609389 -56.108872 
L 297.070315 -55.795968 
L 297.531242 -55.491517 
L 297.992168 -55.195278 
L 298.453094 -54.907018 
L 298.91402 -54.62651 
L 299.374946 -54.353535 
L 299.835872 -54.087878 
L 300.296799 -53.829331 
L 300.757725 -53.577693 
L 301.218651 -53.332766 
L 301.679577 -53.094361 
L 302.140503 -52.862292 
L 302.601429 -52.63638 
L 303.062355 -52.416449 
L 303.523282 -52.20233 
L 303.984208 -51.993858 
L 304.445134 -51.790874 
L 304.90606 -51.593222 
L 305.366986 -51.400751 
L 305.827912 -51.213315 
L 306.288839 -51.030771 
L 306.749765 -50.852982 
L 307.210691 -50.679815 
L 307.671617 -50.511137 
L 308.132543 -50.346825 
L 308.593469 -50.186754 
L 309.054396 -50.030806 
L 309.515322 -49.878866 
L 309.976248 -49.730821 
L 310.437174 -49.586562 
L 310.8981 -49.445985 
L 311.359026 -49.308986 
L 311.819952 -49.175467 
L 312.280879 -49.045329 
L 312.741805 -48.91848 
L 313.202731 -48.794829 
L 313.663657 -48.674287 
L 314.124583 -48.556769 
L 314.585509 -48.442191 
L 315.046436 -48.330472 
L 315.507362 -48.221534 
L 315.968288 -48.115301 
L 316.429214 -48.011698 
L 316.89014 -47.910655 
L 317.351066 -47.812101 
L 317.811993 -47.715969 
L 318.272919 -47.622192 
L 318.733845 -47.530708 
L 319.194771 -47.441454 
L 319.655697 -47.35437 
L 320.116623 -47.269397 
L 320.577549 -47.18648 
L 321.038476 -47.105562 
L 321.499402 -47.026591 
L 321.960328 -46.949515 
L 322.421254 -46.874282 
L 322.88218 -46.800844 
L 323.343106 -46.729153 
L 323.804033 -46.659164 
L 324.264959 -46.590831 
L 324.725885 -46.52411 
L 325.186811 -46.45896 
L 325.647737 -46.395339 
L 326.108663 -46.333206 
L 326.56959 -46.272524 
L 327.030516 -46.213254 
L 327.491442 -46.15536 
L 327.952368 -46.098806 
L 328.413294 -46.043558 
L 328.87422 -45.989581 
L 329.335146 -45.936842 
L 329.796073 -45.885311 
L 330.256999 -45.834957 
L 330.717925 -45.785748 
L 331.178851 -45.737656 
L 331.639777 -45.690653 
L 332.100703 -45.644711 
L 332.56163 -45.599802 
L 333.022556 -45.555902 
L 333.483482 -45.512984 
L 333.944408 -45.471024 
L 334.405334 -45.429998 
L 334.86626 -45.389882 
L 335.327187 -45.350654 
L 335.788113 -45.312291 
L 336.249039 -45.274773 
L 336.709965 -45.238078 
L 337.170891 -45.202186 
L 337.631817 -45.167077 
L 338.092743 -45.132732 
L 338.55367 -45.099133 
L 339.014596 -45.06626 
L 339.475522 -45.034096 
L 339.936448 -45.002625 
L 340.397374 -44.971828 
L 340.8583 -44.941691 
L 341.319227 -44.912196 
L 341.780153 -44.883329 
L 342.241079 -44.855074 
L 342.702005 -44.827417 
L 343.162931 -44.800343 
L 343.623857 -44.773839 
L 344.084784 -44.747891 
L 344.54571 -44.722485 
L 345.006636 -44.69761 
L 345.467562 -44.673252 
L 345.928488 -44.649399 
L 346.389414 -44.626039 
L 346.85034 -44.603161 
L 347.311267 -44.580754 
L 347.772193 -44.558807 
L 348.233119 -44.537308 
L 348.694045 -44.516248 
L 349.154971 -44.495616 
L 349.615897 -44.475403 
L 350.076824 -44.455599 
L 350.53775 -44.436194 
L 350.998676 -44.417179 
L 351.459602 -44.398546 
L 351.920528 -44.380286 
L 352.381454 -44.36239 
L 352.842381 -44.34485 
L 353.303307 -44.327658 
L 353.764233 -44.310806 
L 354.225159 -44.294286 
L 354.686085 -44.278092 
L 355.147011 -44.262215 
L 355.607937 -44.246649 
L 356.068864 -44.231387 
L 356.52979 -44.216422 
L 356.990716 -44.201747 
L 357.451642 -44.187356 
L 357.912568 -44.173244 
L 358.373494 -44.159402 
L 358.834421 -44.145827 
L 359.295347 -44.132511 
L 359.756273 -44.11945 
L 360.217199 -44.106637 
L 360.678125 -44.094068 
L 361.139051 -44.081736 
L 361.599978 -44.069638 
L 362.060904 -44.057768 
L 362.52183 -44.04612 
L 362.982756 -44.034691 
L 363.443682 -44.023475 
L 363.904608 -44.012469 
L 364.365534 -44.001667 
L 364.826461 -43.991065 
L 365.287387 -43.980659 
L 365.748313 -43.970445 
L 366.209239 -43.960419 
L 366.670165 -43.950577 
L 367.131091 -43.940914 
L 367.592018 -43.931428 
L 368.052944 -43.922115 
L 368.51387 -43.912971 
L 368.974796 -43.903992 
L 369.435722 -43.895175 
L 369.896648 -43.886517 
L 370.357575 -43.878015 
L 370.818501 -43.869665 
L 371.279427 -43.861463 
L 371.740353 -43.853409 
L 372.201279 -43.845497 
L 372.662205 -43.837725 
L 373.123131 -43.830091 
L 373.584058 -43.822592 
L 374.044984 -43.815224 
L 374.50591 -43.807986 
L 374.966836 -43.800874 
L 375.427762 -43.793886 
L 375.888688 -43.78702 
L 376.349615 -43.780273 
L 376.810541 -43.773643 
L 377.271467 -43.767128 
L 377.732393 -43.760725 
L 378.193319 -43.754432 
L 378.654245 -43.748247 
L 379.115172 -43.742167 
L 379.576098 -43.736191 
L 380.037024 -43.730317 
L 380.49795 -43.724543 
L 380.958876 -43.718866 
L 381.419802 -43.713285 
L 381.880728 -43.707799 
L 382.341655 -43.702404 
L 382.802581 -43.6971 
L 383.263507 -43.691884 
L 383.724433 -43.686755 
L 384.185359 -43.681712 
L 384.646285 -43.676752 
L 385.107212 -43.671875 
L 385.568138 -43.667078 
L 386.029064 -43.66236 
L 386.48999 -43.657719 
L 386.950916 -43.653155 
L 387.411842 -43.648665 
L 387.872768 -43.644248 
L 388.333695 -43.639903 
L 388.794621 -43.635629 
L 389.255547 -43.631424 
L 389.716473 -43.627287 
L 390.177399 -43.623216 
L 390.638325 -43.619211 
L 391.099252 -43.61527 
L 391.560178 -43.611392 
L 392.021104 -43.607576 
L 392.48203 -43.603821 
L 392.942956 -43.600125 
L 393.403882 -43.596488 
L 393.864809 -43.592908 
L 394.325735 -43.589385 
L 394.786661 -43.585917 
L 395.247587 -43.582503 
L 395.708513 -43.579143 
L 396.169439 -43.575836 
L 396.630365 -43.57258 
L 397.091292 -43.569374 
L 397.552218 -43.566219 
L 398.013144 -43.563112 
L 398.47407 -43.560053 
L 398.934996 -43.557041 
L 399.395922 -43.554075 
L 399.856849 -43.551155 
L 400.317775 -43.548279 
L 400.778701 -43.545447 
L 401.239627 -43.542659 
L 401.700553 -43.539912 
L 402.161479 -43.537207 
L 402.622406 -43.534544 
L 403.083332 -43.53192 
L 403.544258 -43.529336 
L 404.005184 -43.52679 
L 404.46611 -43.524283 
L 404.927036 -43.521813 
L 405.387962 -43.51938 
L 405.848889 -43.516983 
L 406.309815 -43.514621 
L 406.770741 -43.512295 
L 407.231667 -43.510003 
L 407.692593 -43.507744 
L 408.153519 -43.505519 
L 408.614446 -43.503327 
L 409.075372 -43.501166 
L 409.536298 -43.499037 
L 409.997224 -43.496939 
L 410.45815 -43.494872 
L 410.919076 -43.492835 
L 411.380003 -43.490827 
L 411.840929 -43.488848 
L 412.301855 -43.486897 
L 412.762781 -43.484975 
L 413.223707 -43.48308 
L 413.684633 -43.481212 
L 414.145559 -43.479371 
L 414.606486 -43.477556 
L 415.067412 -43.475767 
L 415.528338 -43.474004 
L 415.989264 -43.472265 
L 416.45019 -43.470551 
L 416.911116 -43.468861 
L 417.372043 -43.467194 
L 417.832969 -43.465552 
L 417.832969 -43.327969 
L 417.832969 -43.327969 
L 417.372043 -43.327969 
L 416.911116 -43.327969 
L 416.45019 -43.327969 
L 415.989264 -43.327969 
L 415.528338 -43.327969 
L 415.067412 -43.327969 
L 414.606486 -43.327969 
L 414.145559 -43.327969 
L 413.684633 -43.327969 
L 413.223707 -43.327969 
L 412.762781 -43.327969 
L 412.301855 -43.327969 
L 411.840929 -43.327969 
L 411.380003 -43.327969 
L 410.919076 -43.327969 
L 410.45815 -43.327969 
L 409.997224 -43.327969 
L 409.536298 -43.327969 
L 409.075372 -43.327969 
L 408.614446 -43.327969 
L 408.153519 -43.327969 
L 407.692593 -43.327969 
L 407.231667 -43.327969 
L 406.770741 -43.327969 
L 406.309815 -43.327969 
L 405.848889 -43.327969 
L 405.387962 -43.327969 
L 404.927036 -43.327969 
L 404.46611 -43.327969 
L 404.005184 -43.327969 
L 403.544258 -43.327969 
L 403.083332 -43.327969 
L 402.622406 -43.327969 
L 402.161479 -43.327969 
L 401.700553 -43.327969 
L 401.239627 -43.327969 
L 400.778701 -43.327969 
L 400.317775 -43.327969 
L 399.856849 -43.327969 
L 399.395922 -43.327969 
L 398.934996 -43.327969 
L 398.47407 -43.327969 
L 398.013144 -43.327969 
L 397.552218 -43.327969 
L 397.091292 -43.327969 
L 396.630365 -43.327969 
L 396.169439 -43.327969 
L 395.708513 -43.327969 
L 395.247587 -43.327969 
L 394.786661 -43.327969 
L 394.325735 -43.327969 
L 393.864809 -43.327969 
L 393.403882 -43.327969 
L 392.942956 -43.327969 
L 392.48203 -43.327969 
L 392.021104 -43.327969 
L 391.560178 -43.327969 
L 391.099252 -43.327969 
L 390.638325 -43.327969 
L 390.177399 -43.327969 
L 389.716473 -43.327969 
L 389.255547 -43.327969 
L 388.794621 -43.327969 
L 388.333695 -43.327969 
L 387.872768 -43.327969 
L 387.411842 -43.327969 
L 386.950916 -43.327969 
L 386.48999 -43.327969 
L 386.029064 -43.327969 
L 385.568138 -43.327969 
L 385.107212 -43.327969 
L 384.646285 -43.327969 
L 384.185359 -43.327969 
L 383.724433 -43.327969 
L 383.263507 -43.327969 
L 382.802581 -43.327969 
L 382.341655 -43.327969 
L 381.880728 -43.327969 
L 381.419802 -43.327969 
L 380.958876 -43.327969 
L 380.49795 -43.327969 
L 380.037024 -43.327969 
L 379.576098 -43.327969 
L 379.115172 -43.327969 
L 378.654245 -43.327969 
L 378.193319 -43.327969 
L 377.732393 -43.327969 
L 377.271467 -43.327969 
L 376.810541 -43.327969 
L 376.349615 -43.327969 
L 375.888688 -43.327969 
L 375.427762 -43.327969 
L 374.966836 -43.327969 
L 374.50591 -43.327969 
L 374.044984 -43.327969 
L 373.584058 -43.327969 
L 373.123131 -43.327969 
L 372.662205 -43.327969 
L 372.201279 -43.327969 
L 371.740353 -43.327969 
L 371.279427 -43.327969 
L 370.818501 -43.327969 
L 370.357575 -43.327969 
L 369.896648 -43.327969 
L 369.435722 -43.327969 
L 368.974796 -43.327969 
L 368.51387 -43.327969 
L 368.052944 -43.327969 
L 367.592018 -43.327969 
L 367.131091 -43.327969 
L 366.670165 -43.327969 
L 366.209239 -43.327969 
L 365.748313 -43.327969 
L 365.287387 -43.327969 
L 364.826461 -43.327969 
L 364.365534 -43.327969 
L 363.904608 -43.327969 
L 363.443682 -43.327969 
L 362.982756 -43.327969 
L 362.52183 -43.327969 
L 362.060904 -43.327969 
L 361.599978 -43.327969 
L 361.139051 -43.327969 
L 360.678125 -43.327969 
L 360.217199 -43.327969 
L 359.756273 -43.327969 
L 359.295347 -43.327969 
L 358.834421 -43.327969 
L 358.373494 -43.327969 
L 357.912568 -43.327969 
L 357.451642 -43.327969 
L 356.990716 -43.327969 
L 356.52979 -43.327969 
L 356.068864 -43.327969 
L 355.607937 -43.327969 
L 355.147011 -43.327969 
L 354.686085 -43.327969 
L 354.225159 -43.327969 
L 353.764233 -43.327969 
L 353.303307 -43.327969 
L 352.842381 -43.327969 
L 352.381454 -43.327969 
L 351.920528 -43.327969 
L 351.459602 -43.327969 
L 350.998676 -43.327969 
L 350.53775 -43.327969 
L 350.076824 -43.327969 
L 349.615897 -43.327969 
L 349.154971 -43.327969 
L 348.694045 -43.327969 
L 348.233119 -43.327969 
L 347.772193 -43.327969 
L 347.311267 -43.327969 
L 346.85034 -43.327969 
L 346.389414 -43.327969 
L 345.928488 -43.327969 
L 345.467562 -43.327969 
L 345.006636 -43.327969 
L 344.54571 -43.327969 
L 344.084784 -43.327969 
L 343.623857 -43.327969 
L 343.162931 -43.327969 
L 342.702005 -43.327969 
L 342.241079 -43.327969 
L 341.780153 -43.327969 
L 341.319227 -43.327969 
L 340.8583 -43.327969 
L 340.397374 -43.327969 
L 339.936448 -43.327969 
L 339.475522 -43.327969 
L 339.014596 -43.327969 
L 338.55367 -43.327969 
L 338.092743 -43.327969 
L 337.631817 -43.327969 
L 337.170891 -43.327969 
L 336.709965 -43.327969 
L 336.249039 -43.327969 
L 335.788113 -43.327969 
L 335.327187 -43.327969 
L 334.86626 -43.327969 
L 334.405334 -43.327969 
L 333.944408 -43.327969 
L 333.483482 -43.327969 
L 333.022556 -43.327969 
L 332.56163 -43.327969 
L 332.100703 -43.327969 
L 331.639777 -43.327969 
L 331.178851 -43.327969 
L 330.717925 -43.327969 
L 330.256999 -43.327969 
L 329.796073 -43.327969 
L 329.335146 -43.327969 
L 328.87422 -43.327969 
L 328.413294 -43.327969 
L 327.952368 -43.327969 
L 327.491442 -43.327969 
L 327.030516 -43.327969 
L 326.56959 -43.327969 
L 326.108663 -43.327969 
L 325.647737 -43.327969 
L 325.186811 -43.327969 
L 324.725885 -43.327969 
L 324.264959 -43.327969 
L 323.804033 -43.327969 
L 323.343106 -43.327969 
L 322.88218 -43.327969 
L 322.421254 -43.327969 
L 321.960328 -43.327969 
L 321.499402 -43.327969 
L 321.038476 -43.327969 
L 320.577549 -43.327969 
L 320.116623 -43.327969 
L 319.655697 -43.327969 
L 319.194771 -43.327969 
L 318.733845 -43.327969 
L 318.272919 -43.327969 
L 317.811993 -43.327969 
L 317.351066 -43.327969 
L 316.89014 -43.327969 
L 316.429214 -43.327969 
L 315.968288 -43.327969 
L 315.507362 -43.327969 
L 315.046436 -43.327969 
L 314.585509 -43.327969 
L 314.124583 -43.327969 
L 313.663657 -43.327969 
L 313.202731 -43.327969 
L 312.741805 -43.327969 
L 312.280879 -43.327969 
L 311.819952 -43.327969 
L 311.359026 -43.327969 
L 310.8981 -43.327969 
L 310.437174 -43.327969 
L 309.976248 -43.327969 
L 309.515322 -43.327969 
L 309.054396 -43.327969 
L 308.593469 -43.327969 
L 308.132543 -43.327969 
L 307.671617 -43.327969 
L 307.210691 -43.327969 
L 306.749765 -43.327969 
L 306.288839 -43.327969 
L 305.827912 -43.327969 
L 305.366986 -43.327969 
L 304.90606 -43.327969 
L 304.445134 -43.327969 
L 303.984208 -43.327969 
L 303.523282 -43.327969 
L 303.062355 -43.327969 
L 302.601429 -43.327969 
L 302.140503 -43.327969 
L 301.679577 -43.327969 
L 301.218651 -43.327969 
L 300.757725 -43.327969 
L 300.296799 -43.327969 
L 299.835872 -43.327969 
L 299.374946 -43.327969 
L 298.91402 -43.327969 
L 298.453094 -43.327969 
L 297.992168 -43.327969 
L 297.531242 -43.327969 
L 297.070315 -43.327969 
L 296.609389 -43.327969 
L 296.148463 -43.327969 
L 295.687537 -43.327969 
L 295.226611 -43.327969 
L 294.765685 -43.327969 
L 294.304758 -43.327969 
L 293.843832 -43.327969 
L 293.382906 -43.327969 
L 292.92198 -43.327969 
L 292.461054 -43.327969 
L 292.000128 -43.327969 
L 291.539202 -43.327969 
L 291.078275 -43.327969 
L 290.617349 -43.327969 
L 290.156423 -43.327969 
L 289.695497 -43.327969 
L 289.234571 -43.327969 
L 288.773645 -43.327969 
L 288.312718 -43.327969 
L 287.851792 -43.327969 
L 287.390866 -43.327969 
L 286.92994 -43.327969 
L 286.469014 -43.327969 
L 286.008088 -43.327969 
L 285.547161 -43.327969 
L 285.086235 -43.327969 
L 284.625309 -43.327969 
L 284.164383 -43.327969 
L 283.703457 -43.327969 
L 283.242531 -43.327969 
L 282.781605 -43.327969 
L 282.320678 -43.327969 
L 281.859752 -43.327969 
L 281.398826 -43.327969 
L 280.9379 -43.327969 
L 280.476974 -43.327969 
L 280.016048 -43.327969 
L 279.555121 -43.327969 
L 279.094195 -43.327969 
L 278.633269 -43.327969 
L 278.172343 -43.327969 
L 277.711417 -43.327969 
L 277.250491 -43.327969 
L 276.789564 -43.327969 
L 276.328638 -43.327969 
L 275.867712 -43.327969 
L 275.406786 -43.327969 
L 274.94586 -43.327969 
L 274.484934 -43.327969 
L 274.024008 -43.327969 
L 273.563081 -43.327969 
L 273.102155 -43.327969 
L 272.641229 -43.327969 
L 272.180303 -43.327969 
L 271.719377 -43.327969 
L 271.258451 -43.327969 
L 270.797524 -43.327969 
L 270.336598 -43.327969 
L 269.875672 -43.327969 
L 269.414746 -43.327969 
L 268.95382 -43.327969 
L 268.492894 -43.327969 
L 268.031967 -43.327969 
L 267.571041 -43.327969 
L 267.110115 -43.327969 
L 266.649189 -43.327969 
L 266.188263 -43.327969 
L 265.727337 -43.327969 
L 265.266411 -43.327969 
L 264.805484 -43.327969 
L 264.344558 -43.327969 
L 263.883632 -43.327969 
L 263.422706 -43.327969 
L 262.96178 -43.327969 
L 262.500854 -43.327969 
L 262.039927 -43.327969 
L 261.579001 -43.327969 
L 261.118075 -43.327969 
L 260.657149 -43.327969 
L 260.196223 -43.327969 
L 259.735297 -43.327969 
L 259.274371 -43.327969 
L 258.813444 -43.327969 
L 258.352518 -43.327969 
L 257.891592 -43.327969 
L 257.430666 -43.327969 
L 256.96974 -43.327969 
L 256.508814 -43.327969 
L 256.047887 -43.327969 
L 255.586961 -43.327969 
L 255.126035 -43.327969 
L 254.665109 -43.327969 
L 254.204183 -43.327969 
L 253.743257 -43.327969 
L 253.28233 -43.327969 
L 252.821404 -43.327969 
L 252.360478 -43.327969 
L 251.899552 -43.327969 
L 251.438626 -43.327969 
L 250.9777 -43.327969 
L 250.516774 -43.327969 
L 250.055847 -43.327969 
L 249.594921 -43.327969 
L 249.133995 -43.327969 
L 248.673069 -43.327969 
L 248.212143 -43.327969 
L 247.751217 -43.327969 
L 247.29029 -43.327969 
L 246.829364 -43.327969 
L 246.368438 -43.327969 
L 245.907512 -43.327969 
L 245.446586 -43.327969 
L 244.98566 -43.327969 
L 244.524733 -43.327969 
L 244.063807 -43.327969 
L 243.602881 -43.327969 
L 243.141955 -43.327969 
L 242.681029 -43.327969 
L 242.220103 -43.327969 
L 241.759177 -43.327969 
L 241.29825 -43.327969 
L 240.837324 -43.327969 
L 240.376398 -43.327969 
L 239.915472 -43.327969 
L 239.454546 -43.327969 
L 238.99362 -43.327969 
L 238.532693 -43.327969 
L 238.071767 -43.327969 
L 237.610841 -43.327969 
L 237.149915 -43.327969 
L 236.688989 -43.327969 
L 236.228063 -43.327969 
L 235.767136 -43.327969 
L 235.30621 -43.327969 
L 234.845284 -43.327969 
L 234.384358 -43.327969 
L 233.923432 -43.327969 
L 233.462506 -43.327969 
L 233.00158 -43.327969 
L 232.540653 -43.327969 
L 232.079727 -43.327969 
L 231.618801 -43.327969 
L 231.157875 -43.327969 
L 230.696949 -43.327969 
L 230.236023 -43.327969 
L 229.775096 -43.327969 
L 229.31417 -43.327969 
L 228.853244 -43.327969 
L 228.392318 -43.327969 
L 227.931392 -43.327969 
L 227.470466 -43.327969 
L 227.009539 -43.327969 
L 226.548613 -43.327969 
L 226.087687 -43.327969 
L 225.626761 -43.327969 
L 225.165835 -43.327969 
L 224.704909 -43.327969 
L 224.243983 -43.327969 
L 223.783056 -43.327969 
L 223.32213 -43.327969 
L 222.861204 -43.327969 
L 222.400278 -43.327969 
L 221.939352 -43.327969 
L 221.478426 -43.327969 
L 221.017499 -43.327969 
L 220.556573 -43.327969 
L 220.095647 -43.327969 
L 219.634721 -43.327969 
L 219.173795 -43.327969 
L 218.712869 -43.327969 
L 218.251942 -43.327969 
L 217.791016 -43.327969 
L 217.33009 -43.327969 
L 216.869164 -43.327969 
L 216.408238 -43.327969 
L 215.947312 -43.327969 
L 215.486386 -43.327969 
L 215.025459 -43.327969 
L 214.564533 -43.327969 
L 214.103607 -43.327969 
L 213.642681 -43.327969 
L 213.181755 -43.327969 
L 212.720829 -43.327969 
L 212.259902 -43.327969 
L 211.798976 -43.327969 
L 211.33805 -43.327969 
L 210.877124 -43.327969 
L 210.416198 -43.327969 
L 209.955272 -43.327969 
L 209.494345 -43.327969 
L 209.033419 -43.327969 
L 208.572493 -43.327969 
L 208.111567 -43.327969 
L 207.650641 -43.327969 
L 207.189715 -43.327969 
L 206.728789 -43.327969 
L 206.267862 -43.327969 
L 205.806936 -43.327969 
L 205.34601 -43.327969 
L 204.885084 -43.327969 
L 204.424158 -43.327969 
L 203.963232 -43.327969 
L 203.502305 -43.327969 
L 203.041379 -43.327969 
L 202.580453 -43.327969 
L 202.119527 -43.327969 
L 201.658601 -43.327969 
L 201.197675 -43.327969 
L 200.736748 -43.327969 
L 200.275822 -43.327969 
L 199.814896 -43.327969 
L 199.35397 -43.327969 
L 198.893044 -43.327969 
L 198.432118 -43.327969 
L 197.971192 -43.327969 
L 197.510265 -43.327969 
L 197.049339 -43.327969 
L 196.588413 -43.327969 
L 196.127487 -43.327969 
L 195.666561 -43.327969 
L 195.205635 -43.327969 
L 194.744708 -43.327969 
L 194.283782 -43.327969 
L 193.822856 -43.327969 
L 193.36193 -43.327969 
L 192.901004 -43.327969 
L 192.440078 -43.327969 
L 191.979151 -43.327969 
L 191.518225 -43.327969 
L 191.057299 -43.327969 
L 190.596373 -43.327969 
L 190.135447 -43.327969 
L 189.674521 -43.327969 
L 189.213595 -43.327969 
L 188.752668 -43.327969 
L 188.291742 -43.327969 
L 187.830816 -43.327969 
L 187.36989 -43.327969 
L 186.908964 -43.327969 
L 186.448038 -43.327969 
L 185.987111 -43.327969 
L 185.526185 -43.327969 
L 185.065259 -43.327969 
L 184.604333 -43.327969 
L 184.143407 -43.327969 
L 183.682481 -43.327969 
L 183.221554 -43.327969 
L 182.760628 -43.327969 
L 182.299702 -43.327969 
L 181.838776 -43.327969 
L 181.37785 -43.327969 
L 180.916924 -43.327969 
L 180.455998 -43.327969 
L 179.995071 -43.327969 
L 179.534145 -43.327969 
L 179.073219 -43.327969 
L 178.612293 -43.327969 
L 178.151367 -43.327969 
L 177.690441 -43.327969 
L 177.229514 -43.327969 
L 176.768588 -43.327969 
L 176.307662 -43.327969 
L 175.846736 -43.327969 
L 175.38581 -43.327969 
L 174.924884 -43.327969 
L 174.463957 -43.327969 
L 174.003031 -43.327969 
L 173.542105 -43.327969 
L 173.081179 -43.327969 
L 172.620253 -43.327969 
L 172.159327 -43.327969 
L 171.698401 -43.327969 
L 171.237474 -43.327969 
L 170.776548 -43.327969 
L 170.315622 -43.327969 
L 169.854696 -43.327969 
L 169.39377 -43.327969 
L 168.932844 -43.327969 
L 168.471917 -43.327969 
L 168.010991 -43.327969 
L 167.550065 -43.327969 
L 167.089139 -43.327969 
L 166.628213 -43.327969 
L 166.167287 -43.327969 
L 165.70636 -43.327969 
L 165.245434 -43.327969 
L 164.784508 -43.327969 
L 164.323582 -43.327969 
L 163.862656 -43.327969 
L 163.40173 -43.327969 
L 162.940804 -43.327969 
L 162.479877 -43.327969 
L 162.018951 -43.327969 
L 161.558025 -43.327969 
L 161.097099 -43.327969 
L 160.636173 -43.327969 
L 160.175247 -43.327969 
L 159.71432 -43.327969 
L 159.253394 -43.327969 
L 158.792468 -43.327969 
L 158.331542 -43.327969 
L 157.870616 -43.327969 
L 157.40969 -43.327969 
L 156.948763 -43.327969 
L 156.487837 -43.327969 
L 156.026911 -43.327969 
L 155.565985 -43.327969 
L 155.105059 -43.327969 
L 154.644133 -43.327969 
L 154.183207 -43.327969 
L 153.72228 -43.327969 
L 153.261354 -43.327969 
L 152.800428 -43.327969 
L 152.339502 -43.327969 
L 151.878576 -43.327969 
L 151.41765 -43.327969 
L 150.956723 -43.327969 
L 150.495797 -43.327969 
L 150.034871 -43.327969 
L 149.573945 -43.327969 
L 149.113019 -43.327969 
L 148.652093 -43.327969 
L 148.191166 -43.327969 
L 147.73024 -43.327969 
L 147.269314 -43.327969 
L 146.808388 -43.327969 
L 146.347462 -43.327969 
L 145.886536 -43.327969 
L 145.42561 -43.327969 
L 144.964683 -43.327969 
L 144.503757 -43.327969 
L 144.042831 -43.327969 
L 143.581905 -43.327969 
L 143.120979 -43.327969 
L 142.660053 -43.327969 
L 142.199126 -43.327969 
L 141.7382 -43.327969 
L 141.277274 -43.327969 
L 140.816348 -43.327969 
L 140.355422 -43.327969 
L 139.894496 -43.327969 
L 139.43357 -43.327969 
L 138.972643 -43.327969 
L 138.511717 -43.327969 
L 138.050791 -43.327969 
L 137.589865 -43.327969 
L 137.128939 -43.327969 
L 136.668013 -43.327969 
L 136.207086 -43.327969 
L 135.74616 -43.327969 
L 135.285234 -43.327969 
L 134.824308 -43.327969 
L 134.363382 -43.327969 
L 133.902456 -43.327969 
L 133.441529 -43.327969 
L 132.980603 -43.327969 
L 132.519677 -43.327969 
L 132.058751 -43.327969 
L 131.597825 -43.327969 
L 131.136899 -43.327969 
L 130.675973 -43.327969 
L 130.215046 -43.327969 
L 129.75412 -43.327969 
L 129.293194 -43.327969 
L 128.832268 -43.327969 
L 128.371342 -43.327969 
L 127.910416 -43.327969 
L 127.449489 -43.327969 
L 126.988563 -43.327969 
L 126.527637 -43.327969 
L 126.066711 -43.327969 
L 125.605785 -43.327969 
L 125.144859 -43.327969 
L 124.683932 -43.327969 
L 124.223006 -43.327969 
L 123.76208 -43.327969 
L 123.301154 -43.327969 
L 122.840228 -43.327969 
L 122.379302 -43.327969 
L 121.918376 -43.327969 
L 121.457449 -43.327969 
L 120.996523 -43.327969 
L 120.535597 -43.327969 
L 120.074671 -43.327969 
L 119.613745 -43.327969 
L 119.152819 -43.327969 
L 118.691892 -43.327969 
L 118.230966 -43.327969 
L 117.77004 -43.327969 
L 117.309114 -43.327969 
L 116.848188 -43.327969 
L 116.387262 -43.327969 
L 115.926335 -43.327969 
L 115.465409 -43.327969 
L 115.004483 -43.327969 
L 114.543557 -43.327969 
L 114.082631 -43.327969 
L 113.621705 -43.327969 
L 113.160779 -43.327969 
L 112.699852 -43.327969 
L 112.238926 -43.327969 
L 111.778 -43.327969 
L 111.317074 -43.327969 
L 110.856148 -43.327969 
L 110.395222 -43.327969 
L 109.934295 -43.327969 
L 109.473369 -43.327969 
L 109.012443 -43.327969 
L 108.551517 -43.327969 
L 108.090591 -43.327969 
L 107.629665 -43.327969 
L 107.168738 -43.327969 
L 106.707812 -43.327969 
L 106.246886 -43.327969 
L 105.78596 -43.327969 
L 105.325034 -43.327969 
L 104.864108 -43.327969 
L 104.403182 -43.327969 
L 103.942255 -43.327969 
L 103.481329 -43.327969 
L 103.020403 -43.327969 
L 102.559477 -43.327969 
L 102.098551 -43.327969 
L 101.637625 -43.327969 
L 101.176698 -43.327969 
L 100.715772 -43.327969 
L 100.254846 -43.327969 
L 99.79392 -43.327969 
L 99.332994 -43.327969 
L 98.872068 -43.327969 
L 98.411141 -43.327969 
L 97.950215 -43.327969 
L 97.489289 -43.327969 
L 97.028363 -43.327969 
L 96.567437 -43.327969 
L 96.106511 -43.327969 
L 95.645585 -43.327969 
L 95.184658 -43.327969 
L 94.723732 -43.327969 
L 94.262806 -43.327969 
L 93.80188 -43.327969 
L 93.340954 -43.327969 
L 92.880028 -43.327969 
L 92.419101 -43.327969 
L 91.958175 -43.327969 
L 91.497249 -43.327969 
L 91.036323 -43.327969 
L 90.575397 -43.327969 
L 90.114471 -43.327969 
L 89.653544 -43.327969 
L 89.192618 -43.327969 
L 88.731692 -43.327969 
L 88.270766 -43.327969 
L 87.80984 -43.327969 
L 87.348914 -43.327969 
L 86.887988 -43.327969 
L 86.427061 -43.327969 
L 85.966135 -43.327969 
L 85.505209 -43.327969 
L 85.044283 -43.327969 
L 84.583357 -43.327969 
L 84.122431 -43.327969 
L 83.661504 -43.327969 
L 83.200578 -43.327969 
L 82.739652 -43.327969 
L 82.278726 -43.327969 
L 81.8178 -43.327969 
L 81.356874 -43.327969 
L 80.895947 -43.327969 
L 80.435021 -43.327969 
L 79.974095 -43.327969 
L 79.513169 -43.327969 
L 79.052243 -43.327969 
L 78.591317 -43.327969 
L 78.130391 -43.327969 
L 77.669464 -43.327969 
L 77.208538 -43.327969 
L 76.747612 -43.327969 
L 76.286686 -43.327969 
L 75.82576 -43.327969 
L 75.364834 -43.327969 
L 74.903907 -43.327969 
L 74.442981 -43.327969 
L 73.982055 -43.327969 
L 73.521129 -43.327969 
L 73.060203 -43.327969 
L 72.599277 -43.327969 
L 72.13835 -43.327969 
L 71.677424 -43.327969 
L 71.216498 -43.327969 
L 70.755572 -43.327969 
L 70.294646 -43.327969 
L 69.83372 -43.327969 
L 69.372794 -43.327969 
L 68.911867 -43.327969 
L 68.450941 -43.327969 
L 67.990015 -43.327969 
L 67.529089 -43.327969 
L 67.068163 -43.327969 
L 66.607237 -43.327969 
L 66.14631 -43.327969 
L 65.685384 -43.327969 
L 65.224458 -43.327969 
L 64.763532 -43.327969 
L 64.302606 -43.327969 
L 63.84168 -43.327969 
L 63.380753 -43.327969 
L 62.919827 -43.327969 
L 62.458901 -43.327969 
L 61.997975 -43.327969 
L 61.537049 -43.327969 
L 61.076123 -43.327969 
L 60.615197 -43.327969 
L 60.15427 -43.327969 
L 59.693344 -43.327969 
L 59.232418 -43.327969 
L 58.771492 -43.327969 
L 58.310566 -43.327969 
L 57.84964 -43.327969 
L 57.388713 -43.327969 
L 56.927787 -43.327969 
L 56.466861 -43.327969 
L 56.005935 -43.327969 
L 55.545009 -43.327969 
L 55.084083 -43.327969 
L 54.623156 -43.327969 
L 54.16223 -43.327969 
L 53.701304 -43.327969 
L 53.240378 -43.327969 
L 52.779452 -43.327969 
L 52.318526 -43.327969 
L 51.8576 -43.327969 
L 51.396673 -43.327969 
L 50.935747 -43.327969 
L 50.474821 -43.327969 
L 50.013895 -43.327969 
L 49.552969 -43.327969 
z
" style="stroke: #c0392b; stroke-opacity: 0.1"/>
    </defs>
    <g clip-path="url(#p23804de341)">
     <use xlink:href="#md69dd4c306" x="0" y="302.549937" style="fill: #c0392b; fill-opacity: 0.1; stroke: #c0392b; stroke-opacity: 0.1"/>
    </g>
   </g>
   <g id="line2d_27">
    <path d="M 49.552969 259.221969 
L 180.455998 259.221969 
L 180.916924 141.376876 
L 286.469014 141.376876 
L 286.92994 259.221969 
L 417.832969 259.221969 
L 417.832969 259.221969 
" clip-path="url(#p23804de341)" style="fill: none; stroke: #27ae60; stroke-width: 2.6; stroke-linecap: square"/>
   </g>
   <g id="line2d_28">
    <path d="M 49.552969 259.221966 
L 116.387262 259.112489 
L 126.066711 258.874205 
L 132.519677 258.510887 
L 137.589865 258.012709 
L 141.7382 257.392286 
L 145.42561 256.618293 
L 148.652093 255.718457 
L 151.41765 254.742947 
L 154.183207 253.542129 
L 156.948763 252.077624 
L 159.253394 250.626087 
L 161.558025 248.937794 
L 163.862656 246.987097 
L 166.167287 244.748242 
L 168.471917 242.195982 
L 170.776548 239.306286 
L 173.081179 236.057141 
L 175.38581 232.429427 
L 177.690441 228.40785 
L 179.995071 223.981916 
L 182.760628 218.130847 
L 185.526185 211.695796 
L 188.291742 204.697543 
L 191.518225 195.873639 
L 195.205635 185.038374 
L 199.814896 170.668156 
L 210.877124 135.684781 
L 214.103607 126.37821 
L 216.869164 119.083323 
L 219.173795 113.605235 
L 221.478426 108.763848 
L 223.32213 105.400905 
L 225.165835 102.529323 
L 226.548613 100.716363 
L 227.931392 99.207598 
L 229.31417 98.012071 
L 230.696949 97.136991 
L 232.079727 96.587655 
L 233.462506 96.3674 
L 234.845284 96.477565 
L 236.228063 96.91748 
L 237.610841 97.684471 
L 238.99362 98.77389 
L 240.376398 100.179159 
L 241.759177 101.891835 
L 243.141955 103.901699 
L 244.98566 107.023023 
L 246.829364 110.6189 
L 248.673069 114.652517 
L 250.9777 120.248033 
L 253.743257 127.660464 
L 256.96974 137.070228 
L 261.118075 149.975109 
L 273.102155 187.813049 
L 276.789564 198.462722 
L 280.016048 207.090873 
L 282.781605 213.904768 
L 285.547161 220.146636 
L 288.312718 225.801256 
L 290.617349 230.064535 
L 292.92198 233.927016 
L 295.226611 237.401232 
L 297.531242 240.504121 
L 299.835872 243.256069 
L 302.140503 245.679998 
L 304.445134 247.800517 
L 306.749765 249.643155 
L 309.054396 251.233692 
L 311.819952 252.845356 
L 314.585509 254.173026 
L 317.351066 255.256594 
L 320.577549 256.261062 
L 323.804033 257.03539 
L 327.491442 257.696444 
L 331.639777 258.221885 
L 336.709965 258.639697 
L 343.162931 258.940775 
L 352.381454 259.129903 
L 369.435722 259.21277 
L 417.832969 259.221966 
L 417.832969 259.221966 
" clip-path="url(#p23804de341)" style="fill: none; stroke: #34495e; stroke-width: 2.6; stroke-linecap: square"/>
   </g>
   <g id="line2d_29">
    <path d="M 49.552969 259.084386 
L 85.044283 258.847534 
L 104.403182 258.515247 
L 117.77004 258.074534 
L 127.449489 257.547313 
L 135.285234 256.905227 
L 141.7382 256.154599 
L 147.269314 255.28054 
L 151.878576 254.328404 
L 156.026911 253.240951 
L 159.71432 252.0388 
L 162.940804 250.759063 
L 166.167287 249.217171 
L 168.932844 247.64292 
L 171.698401 245.788909 
L 174.003031 243.992457 
L 176.307662 241.929819 
L 178.612293 239.560429 
L 180.916924 236.838187 
L 183.221554 233.711111 
L 185.526185 230.121166 
L 187.36989 226.873151 
L 189.213595 223.252815 
L 191.057299 219.22307 
L 192.901004 214.745592 
L 194.744708 209.781692 
L 196.588413 204.293534 
L 198.893044 196.642637 
L 201.197675 188.059396 
L 203.502305 178.505047 
L 205.806936 167.970603 
L 208.111567 156.488915 
L 210.877124 141.588902 
L 214.564533 120.316035 
L 221.017499 82.787811 
L 223.32213 70.786545 
L 225.165835 62.284636 
L 226.548613 56.723854 
L 227.931392 51.977948 
L 229.31417 48.13908 
L 230.236023 46.12255 
L 231.157875 44.562255 
L 232.079727 43.472667 
L 233.00158 42.863992 
L 233.462506 42.741969 
L 233.923432 42.741969 
L 234.384358 42.863992 
L 235.30621 43.472667 
L 236.228063 44.562255 
L 237.149915 46.12255 
L 238.071767 48.13908 
L 238.99362 50.593392 
L 240.376398 55.046522 
L 241.759177 60.346698 
L 243.602881 68.556785 
L 245.446586 77.833867 
L 248.212143 93.157573 
L 259.274371 156.488915 
L 262.039927 170.15503 
L 264.344558 180.494558 
L 266.649189 189.85285 
L 268.95382 198.245762 
L 271.258451 205.716716 
L 273.563081 212.326846 
L 275.867712 218.147189 
L 278.172343 223.252815 
L 280.476974 227.718648 
L 282.781605 231.616653 
L 285.086235 235.0141 
L 287.390866 237.972618 
L 289.695497 240.547817 
L 292.000128 242.789293 
L 294.304758 244.740884 
L 296.609389 246.441066 
L 299.374946 248.196403 
L 302.140503 249.687645 
L 305.366986 251.149187 
L 308.593469 252.363184 
L 312.280879 253.504608 
L 316.429214 254.538239 
L 321.038476 255.444375 
L 326.108663 256.216731 
L 332.100703 256.905227 
L 339.475522 257.515841 
L 348.233119 258.012629 
L 359.756273 258.430488 
L 375.427762 258.756051 
L 398.47407 258.989885 
L 417.832969 259.084386 
L 417.832969 259.084386 
" clip-path="url(#p23804de341)" style="fill: none; stroke: #c0392b; stroke-width: 2.6; stroke-linecap: square"/>
   </g>
   <g id="patch_3">
    <path d="M 49.552969 259.221969 
L 49.552969 31.917969 
" style="fill: none; stroke: #2c3e50; stroke-width: 1.2; stroke-linejoin: miter; stroke-linecap: square"/>
   </g>
   <g id="patch_4">
    <path d="M 49.552969 259.221969 
L 417.832969 259.221969 
" style="fill: none; stroke: #2c3e50; stroke-width: 1.2; stroke-linejoin: miter; stroke-linecap: square"/>
   </g>
   <g id="text_16">
    <!-- Curtosis: platicúrtica, normal, leptocúrtica -->
    <g transform="translate(77.554844 21.917969) scale(0.13 -0.13)">
     <defs>
      <path id="DejaVuSans-Bold-43" d="M 4288 256 
Q 3956 84 3597 -3 
Q 3238 -91 2847 -91 
Q 1681 -91 1000 561 
Q 319 1213 319 2328 
Q 319 3447 1000 4098 
Q 1681 4750 2847 4750 
Q 3238 4750 3597 4662 
Q 3956 4575 4288 4403 
L 4288 3438 
Q 3953 3666 3628 3772 
Q 3303 3878 2944 3878 
Q 2300 3878 1931 3465 
Q 1563 3053 1563 2328 
Q 1563 1606 1931 1193 
Q 2300 781 2944 781 
Q 3303 781 3628 887 
Q 3953 994 4288 1222 
L 4288 256 
z
" transform="scale(0.015625)"/>
      <path id="DejaVuSans-Bold-75" d="M 500 1363 
L 500 3500 
L 1625 3500 
L 1625 3150 
Q 1625 2866 1622 2436 
Q 1619 2006 1619 1863 
Q 1619 1441 1641 1255 
Q 1663 1069 1716 984 
Q 1784 875 1895 815 
Q 2006 756 2150 756 
Q 2500 756 2700 1025 
Q 2900 1294 2900 1772 
L 2900 3500 
L 4019 3500 
L 4019 0 
L 2900 0 
L 2900 506 
Q 2647 200 2364 54 
Q 2081 -91 1741 -91 
Q 1134 -91 817 281 
Q 500 653 500 1363 
z
" transform="scale(0.015625)"/>
      <path id="DejaVuSans-Bold-74" d="M 1759 4494 
L 1759 3500 
L 2913 3500 
L 2913 2700 
L 1759 2700 
L 1759 1216 
Q 1759 972 1856 886 
Q 1953 800 2241 800 
L 2816 800 
L 2816 0 
L 1856 0 
Q 1194 0 917 276 
Q 641 553 641 1216 
L 641 2700 
L 84 2700 
L 84 3500 
L 641 3500 
L 641 4494 
L 1759 4494 
z
" transform="scale(0.015625)"/>
      <path id="DejaVuSans-Bold-3a" d="M 716 3500 
L 1844 3500 
L 1844 2291 
L 716 2291 
L 716 3500 
z
M 716 1209 
L 1844 1209 
L 1844 0 
L 716 0 
L 716 1209 
z
" transform="scale(0.015625)"/>
      <path id="DejaVuSans-Bold-20" transform="scale(0.015625)"/>
      <path id="DejaVuSans-Bold-70" d="M 1656 506 
L 1656 -1331 
L 538 -1331 
L 538 3500 
L 1656 3500 
L 1656 2988 
Q 1888 3294 2169 3439 
Q 2450 3584 2816 3584 
Q 3463 3584 3878 3070 
Q 4294 2556 4294 1747 
Q 4294 938 3878 423 
Q 3463 -91 2816 -91 
Q 2450 -91 2169 54 
Q 1888 200 1656 506 
z
M 2400 2772 
Q 2041 2772 1848 2508 
Q 1656 2244 1656 1747 
Q 1656 1250 1848 986 
Q 2041 722 2400 722 
Q 2759 722 2948 984 
Q 3138 1247 3138 1747 
Q 3138 2247 2948 2509 
Q 2759 2772 2400 2772 
z
" transform="scale(0.015625)"/>
      <path id="DejaVuSans-Bold-63" d="M 3366 3391 
L 3366 2478 
Q 3138 2634 2908 2709 
Q 2678 2784 2431 2784 
Q 1963 2784 1702 2511 
Q 1441 2238 1441 1747 
Q 1441 1256 1702 982 
Q 1963 709 2431 709 
Q 2694 709 2930 787 
Q 3166 866 3366 1019 
L 3366 103 
Q 3103 6 2833 -42 
Q 2563 -91 2291 -91 
Q 1344 -91 809 395 
Q 275 881 275 1747 
Q 275 2613 809 3098 
Q 1344 3584 2291 3584 
Q 2566 3584 2833 3536 
Q 3100 3488 3366 3391 
z
" transform="scale(0.015625)"/>
      <path id="DejaVuSans-Bold-fa" d="M 500 1363 
L 500 3500 
L 1625 3500 
L 1625 3150 
Q 1625 2866 1622 2436 
Q 1619 2006 1619 1863 
Q 1619 1441 1641 1255 
Q 1663 1069 1716 984 
Q 1784 875 1895 815 
Q 2006 756 2150 756 
Q 2500 756 2700 1025 
Q 2900 1294 2900 1772 
L 2900 3500 
L 4019 3500 
L 4019 0 
L 2900 0 
L 2900 506 
Q 2647 200 2364 54 
Q 2081 -91 1741 -91 
Q 1134 -91 817 281 
Q 500 653 500 1363 
z
M 2782 5119 
L 3666 5119 
L 2513 3944 
L 1901 3944 
L 2782 5119 
z
" transform="scale(0.015625)"/>
      <path id="DejaVuSans-Bold-2c" d="M 653 1209 
L 1778 1209 
L 1778 256 
L 1006 -909 
L 341 -909 
L 653 256 
L 653 1209 
z
" transform="scale(0.015625)"/>
      <path id="DejaVuSans-Bold-6d" d="M 3781 2919 
Q 3994 3244 4286 3414 
Q 4578 3584 4928 3584 
Q 5531 3584 5847 3212 
Q 6163 2841 6163 2131 
L 6163 0 
L 5038 0 
L 5038 1825 
Q 5041 1866 5042 1909 
Q 5044 1953 5044 2034 
Q 5044 2406 4934 2573 
Q 4825 2741 4581 2741 
Q 4263 2741 4089 2478 
Q 3916 2216 3909 1719 
L 3909 0 
L 2784 0 
L 2784 1825 
Q 2784 2406 2684 2573 
Q 2584 2741 2328 2741 
Q 2006 2741 1831 2477 
Q 1656 2213 1656 1722 
L 1656 0 
L 531 0 
L 531 3500 
L 1656 3500 
L 1656 2988 
Q 1863 3284 2130 3434 
Q 2397 3584 2719 3584 
Q 3081 3584 3359 3409 
Q 3638 3234 3781 2919 
z
" transform="scale(0.015625)"/>
     </defs>
     <use xlink:href="#DejaVuSans-Bold-43"/>
     <use xlink:href="#DejaVuSans-Bold-75" x="73.388672"/>
     <use xlink:href="#DejaVuSans-Bold-72" x="144.580078"/>
     <use xlink:href="#DejaVuSans-Bold-74" x="193.896484"/>
     <use xlink:href="#DejaVuSans-Bold-6f" x="241.699219"/>
     <use xlink:href="#DejaVuSans-Bold-73" x="310.400391"/>
     <use xlink:href="#DejaVuSans-Bold-69" x="369.921875"/>
     <use xlink:href="#DejaVuSans-Bold-73" x="404.199219"/>
     <use xlink:href="#DejaVuSans-Bold-3a" x="463.720703"/>
     <use xlink:href="#DejaVuSans-Bold-20" x="503.710938"/>
     <use xlink:href="#DejaVuSans-Bold-70" x="538.525391"/>
     <use xlink:href="#DejaVuSans-Bold-6c" x="610.107422"/>
     <use xlink:href="#DejaVuSans-Bold-61" x="644.384766"/>
     <use xlink:href="#DejaVuSans-Bold-74" x="711.865234"/>
     <use xlink:href="#DejaVuSans-Bold-69" x="759.667969"/>
     <use xlink:href="#DejaVuSans-Bold-63" x="793.945312"/>
     <use xlink:href="#DejaVuSans-Bold-fa" x="853.222656"/>
     <use xlink:href="#DejaVuSans-Bold-72" x="924.414062"/>
     <use xlink:href="#DejaVuSans-Bold-74" x="973.730469"/>
     <use xlink:href="#DejaVuSans-Bold-69" x="1021.533203"/>
     <use xlink:href="#DejaVuSans-Bold-63" x="1055.810547"/>
     <use xlink:href="#DejaVuSans-Bold-61" x="1115.087891"/>
     <use xlink:href="#DejaVuSans-Bold-2c" x="1182.568359"/>
     <use xlink:href="#DejaVuSans-Bold-20" x="1220.556641"/>
     <use xlink:href="#DejaVuSans-Bold-6e" x="1255.371094"/>
     <use xlink:href="#DejaVuSans-Bold-6f" x="1326.5625"/>
     <use xlink:href="#DejaVuSans-Bold-72" x="1395.263672"/>
     <use xlink:href="#DejaVuSans-Bold-6d" x="1444.580078"/>
     <use xlink:href="#DejaVuSans-Bold-61" x="1548.779297"/>
     <use xlink:href="#DejaVuSans-Bold-6c" x="1616.259766"/>
     <use xlink:href="#DejaVuSans-Bold-2c" x="1650.537109"/>
     <use xlink:href="#DejaVuSans-Bold-20" x="1688.525391"/>
     <use xlink:href="#DejaVuSans-Bold-6c" x="1723.339844"/>
     <use xlink:href="#DejaVuSans-Bold-65" x="1757.617188"/>
     <use xlink:href="#DejaVuSans-Bold-70" x="1825.439453"/>
     <use xlink:href="#DejaVuSans-Bold-74" x="1897.021484"/>
     <use xlink:href="#DejaVuSans-Bold-6f" x="1944.824219"/>
     <use xlink:href="#DejaVuSans-Bold-63" x="2013.525391"/>
     <use xlink:href="#DejaVuSans-Bold-fa" x="2072.802734"/>
     <use xlink:href="#DejaVuSans-Bold-72" x="2143.994141"/>
     <use xlink:href="#DejaVuSans-Bold-74" x="2193.310547"/>
     <use xlink:href="#DejaVuSans-Bold-69" x="2241.113281"/>
     <use xlink:href="#DejaVuSans-Bold-63" x="2275.390625"/>
     <use xlink:href="#DejaVuSans-Bold-61" x="2334.667969"/>
    </g>
   </g>
   <g id="legend_1">
    <g id="patch_5">
     <path d="M 241.132969 82.152187 
L 411.182969 82.152187 
Q 413.082969 82.152187 413.082969 80.252187 
L 413.082969 38.567969 
Q 413.082969 36.667969 411.182969 36.667969 
L 241.132969 36.667969 
Q 239.232969 36.667969 239.232969 38.567969 
L 239.232969 80.252187 
Q 239.232969 82.152187 241.132969 82.152187 
z
" style="fill: #ffffff; opacity: 0.92; stroke: #cccccc; stroke-linejoin: miter"/>
    </g>
    <g id="line2d_30">
     <path d="M 243.032969 44.742969 
L 252.532969 44.742969 
L 262.032969 44.742969 
" style="fill: none; stroke: #27ae60; stroke-width: 2.6; stroke-linecap: square"/>
    </g>
    <g id="text_17">
     <!-- platicúrtica ($\kappa&lt;0$) -->
     <g transform="translate(269.632969 48.067969) scale(0.095 -0.095)">
      <defs>
       <path id="DejaVuSans-70" d="M 1159 525 
L 1159 -1331 
L 581 -1331 
L 581 3500 
L 1159 3500 
L 1159 2969 
Q 1341 3281 1617 3432 
Q 1894 3584 2278 3584 
Q 2916 3584 3314 3078 
Q 3713 2572 3713 1747 
Q 3713 922 3314 415 
Q 2916 -91 2278 -91 
Q 1894 -91 1617 61 
Q 1341 213 1159 525 
z
M 3116 1747 
Q 3116 2381 2855 2742 
Q 2594 3103 2138 3103 
Q 1681 3103 1420 2742 
Q 1159 2381 1159 1747 
Q 1159 1113 1420 752 
Q 1681 391 2138 391 
Q 2594 391 2855 752 
Q 3116 1113 3116 1747 
z
" transform="scale(0.015625)"/>
       <path id="DejaVuSans-6c" d="M 603 4863 
L 1178 4863 
L 1178 0 
L 603 0 
L 603 4863 
z
" transform="scale(0.015625)"/>
       <path id="DejaVuSans-61" d="M 2194 1759 
Q 1497 1759 1228 1600 
Q 959 1441 959 1056 
Q 959 750 1161 570 
Q 1363 391 1709 391 
Q 2188 391 2477 730 
Q 2766 1069 2766 1631 
L 2766 1759 
L 2194 1759 
z
M 3341 1997 
L 3341 0 
L 2766 0 
L 2766 531 
Q 2569 213 2275 61 
Q 1981 -91 1556 -91 
Q 1019 -91 701 211 
Q 384 513 384 1019 
Q 384 1609 779 1909 
Q 1175 2209 1959 2209 
L 2766 2209 
L 2766 2266 
Q 2766 2663 2505 2880 
Q 2244 3097 1772 3097 
Q 1472 3097 1187 3025 
Q 903 2953 641 2809 
L 641 3341 
Q 956 3463 1253 3523 
Q 1550 3584 1831 3584 
Q 2591 3584 2966 3190 
Q 3341 2797 3341 1997 
z
" transform="scale(0.015625)"/>
       <path id="DejaVuSans-74" d="M 1172 4494 
L 1172 3500 
L 2356 3500 
L 2356 3053 
L 1172 3053 
L 1172 1153 
Q 1172 725 1289 603 
Q 1406 481 1766 481 
L 2356 481 
L 2356 0 
L 1766 0 
Q 1100 0 847 248 
Q 594 497 594 1153 
L 594 3053 
L 172 3053 
L 172 3500 
L 594 3500 
L 594 4494 
L 1172 4494 
z
" transform="scale(0.015625)"/>
       <path id="DejaVuSans-69" d="M 603 3500 
L 1178 3500 
L 1178 0 
L 603 0 
L 603 3500 
z
M 603 4863 
L 1178 4863 
L 1178 4134 
L 603 4134 
L 603 4863 
z
" transform="scale(0.015625)"/>
       <path id="DejaVuSans-63" d="M 3122 3366 
L 3122 2828 
Q 2878 2963 2633 3030 
Q 2388 3097 2138 3097 
Q 1578 3097 1268 2742 
Q 959 2388 959 1747 
Q 959 1106 1268 751 
Q 1578 397 2138 397 
Q 2388 397 2633 464 
Q 2878 531 3122 666 
L 3122 134 
Q 2881 22 2623 -34 
Q 2366 -91 2075 -91 
Q 1284 -91 818 406 
Q 353 903 353 1747 
Q 353 2603 823 3093 
Q 1294 3584 2113 3584 
Q 2378 3584 2631 3529 
Q 2884 3475 3122 3366 
z
" transform="scale(0.015625)"/>
       <path id="DejaVuSans-fa" d="M 544 1381 
L 544 3500 
L 1119 3500 
L 1119 1403 
Q 1119 906 1312 657 
Q 1506 409 1894 409 
Q 2359 409 2629 706 
Q 2900 1003 2900 1516 
L 2900 3500 
L 3475 3500 
L 3475 0 
L 2900 0 
L 2900 538 
Q 2691 219 2414 64 
Q 2138 -91 1772 -91 
Q 1169 -91 856 284 
Q 544 659 544 1381 
z
M 1991 3584 
L 1991 3584 
z
M 2418 5119 
L 3040 5119 
L 2022 3944 
L 1543 3944 
L 2418 5119 
z
" transform="scale(0.015625)"/>
       <path id="DejaVuSans-72" d="M 2631 2963 
Q 2534 3019 2420 3045 
Q 2306 3072 2169 3072 
Q 1681 3072 1420 2755 
Q 1159 2438 1159 1844 
L 1159 0 
L 581 0 
L 581 3500 
L 1159 3500 
L 1159 2956 
Q 1341 3275 1631 3429 
Q 1922 3584 2338 3584 
Q 2397 3584 2469 3576 
Q 2541 3569 2628 3553 
L 2631 2963 
z
" transform="scale(0.015625)"/>
       <path id="DejaVuSans-20" transform="scale(0.015625)"/>
       <path id="DejaVuSans-28" d="M 1984 4856 
Q 1566 4138 1362 3434 
Q 1159 2731 1159 2009 
Q 1159 1288 1364 580 
Q 1569 -128 1984 -844 
L 1484 -844 
Q 1016 -109 783 600 
Q 550 1309 550 2009 
Q 550 2706 781 3412 
Q 1013 4119 1484 4856 
L 1984 4856 
z
" transform="scale(0.015625)"/>
       <path id="DejaVuSans-Oblique-3ba" d="M 938 3500 
L 1531 3500 
L 1247 2047 
L 3041 3500 
L 3741 3500 
L 2106 2181 
L 3275 0 
L 2572 0 
L 1628 1806 
L 1122 1403 
L 850 0 
L 256 0 
L 938 3500 
z
" transform="scale(0.015625)"/>
       <path id="DejaVuSans-3c" d="M 4684 3150 
L 1459 2003 
L 4684 863 
L 4684 294 
L 678 1747 
L 678 2266 
L 4684 3719 
L 4684 3150 
z
" transform="scale(0.015625)"/>
       <path id="DejaVuSans-29" d="M 513 4856 
L 1013 4856 
Q 1481 4119 1714 3412 
Q 1947 2706 1947 2009 
Q 1947 1309 1714 600 
Q 1481 -109 1013 -844 
L 513 -844 
Q 928 -128 1133 580 
Q 1338 1288 1338 2009 
Q 1338 2731 1133 3434 
Q 928 4138 513 4856 
z
" transform="scale(0.015625)"/>
      </defs>
      <use xlink:href="#DejaVuSans-70" transform="translate(0 0.015625)"/>
      <use xlink:href="#DejaVuSans-6c" transform="translate(63.476562 0.015625)"/>
      <use xlink:href="#DejaVuSans-61" transform="translate(91.259766 0.015625)"/>
      <use xlink:href="#DejaVuSans-74" transform="translate(152.539062 0.015625)"/>
      <use xlink:href="#DejaVuSans-69" transform="translate(191.748047 0.015625)"/>
      <use xlink:href="#DejaVuSans-63" transform="translate(219.53125 0.015625)"/>
      <use xlink:href="#DejaVuSans-fa" transform="translate(274.511719 0.015625)"/>
      <use xlink:href="#DejaVuSans-72" transform="translate(337.890625 0.015625)"/>
      <use xlink:href="#DejaVuSans-74" transform="translate(379.003906 0.015625)"/>
      <use xlink:href="#DejaVuSans-69" transform="translate(418.212891 0.015625)"/>
      <use xlink:href="#DejaVuSans-63" transform="translate(445.996094 0.015625)"/>
      <use xlink:href="#DejaVuSans-61" transform="translate(500.976562 0.015625)"/>
      <use xlink:href="#DejaVuSans-20" transform="translate(562.255859 0.015625)"/>
      <use xlink:href="#DejaVuSans-28" transform="translate(594.042969 0.015625)"/>
      <use xlink:href="#DejaVuSans-Oblique-3ba" transform="translate(633.056641 0.015625)"/>
      <use xlink:href="#DejaVuSans-3c" transform="translate(711.474609 0.015625)"/>
      <use xlink:href="#DejaVuSans-30" transform="translate(814.746094 0.015625)"/>
      <use xlink:href="#DejaVuSans-29" transform="translate(878.369141 0.015625)"/>
     </g>
    </g>
    <g id="line2d_31">
     <path d="M 243.032969 58.706484 
L 252.532969 58.706484 
L 262.032969 58.706484 
" style="fill: none; stroke: #34495e; stroke-width: 2.6; stroke-linecap: square"/>
    </g>
    <g id="text_18">
     <!-- mesocúrtica = normal ($\kappa=0$) -->
     <g transform="translate(269.632969 62.031484) scale(0.095 -0.095)">
      <defs>
       <path id="DejaVuSans-6d" d="M 3328 2828 
Q 3544 3216 3844 3400 
Q 4144 3584 4550 3584 
Q 5097 3584 5394 3201 
Q 5691 2819 5691 2113 
L 5691 0 
L 5113 0 
L 5113 2094 
Q 5113 2597 4934 2840 
Q 4756 3084 4391 3084 
Q 3944 3084 3684 2787 
Q 3425 2491 3425 1978 
L 3425 0 
L 2847 0 
L 2847 2094 
Q 2847 2600 2669 2842 
Q 2491 3084 2119 3084 
Q 1678 3084 1418 2786 
Q 1159 2488 1159 1978 
L 1159 0 
L 581 0 
L 581 3500 
L 1159 3500 
L 1159 2956 
Q 1356 3278 1631 3431 
Q 1906 3584 2284 3584 
Q 2666 3584 2933 3390 
Q 3200 3197 3328 2828 
z
" transform="scale(0.015625)"/>
       <path id="DejaVuSans-65" d="M 3597 1894 
L 3597 1613 
L 953 1613 
Q 991 1019 1311 708 
Q 1631 397 2203 397 
Q 2534 397 2845 478 
Q 3156 559 3463 722 
L 3463 178 
Q 3153 47 2828 -22 
Q 2503 -91 2169 -91 
Q 1331 -91 842 396 
Q 353 884 353 1716 
Q 353 2575 817 3079 
Q 1281 3584 2069 3584 
Q 2775 3584 3186 3129 
Q 3597 2675 3597 1894 
z
M 3022 2063 
Q 3016 2534 2758 2815 
Q 2500 3097 2075 3097 
Q 1594 3097 1305 2825 
Q 1016 2553 972 2059 
L 3022 2063 
z
" transform="scale(0.015625)"/>
       <path id="DejaVuSans-73" d="M 2834 3397 
L 2834 2853 
Q 2591 2978 2328 3040 
Q 2066 3103 1784 3103 
Q 1356 3103 1142 2972 
Q 928 2841 928 2578 
Q 928 2378 1081 2264 
Q 1234 2150 1697 2047 
L 1894 2003 
Q 2506 1872 2764 1633 
Q 3022 1394 3022 966 
Q 3022 478 2636 193 
Q 2250 -91 1575 -91 
Q 1294 -91 989 -36 
Q 684 19 347 128 
L 347 722 
Q 666 556 975 473 
Q 1284 391 1588 391 
Q 1994 391 2212 530 
Q 2431 669 2431 922 
Q 2431 1156 2273 1281 
Q 2116 1406 1581 1522 
L 1381 1569 
Q 847 1681 609 1914 
Q 372 2147 372 2553 
Q 372 3047 722 3315 
Q 1072 3584 1716 3584 
Q 2034 3584 2315 3537 
Q 2597 3491 2834 3397 
z
" transform="scale(0.015625)"/>
       <path id="DejaVuSans-6f" d="M 1959 3097 
Q 1497 3097 1228 2736 
Q 959 2375 959 1747 
Q 959 1119 1226 758 
Q 1494 397 1959 397 
Q 2419 397 2687 759 
Q 2956 1122 2956 1747 
Q 2956 2369 2687 2733 
Q 2419 3097 1959 3097 
z
M 1959 3584 
Q 2709 3584 3137 3096 
Q 3566 2609 3566 1747 
Q 3566 888 3137 398 
Q 2709 -91 1959 -91 
Q 1206 -91 779 398 
Q 353 888 353 1747 
Q 353 2609 779 3096 
Q 1206 3584 1959 3584 
z
" transform="scale(0.015625)"/>
       <path id="DejaVuSans-3d" d="M 678 2906 
L 4684 2906 
L 4684 2381 
L 678 2381 
L 678 2906 
z
M 678 1631 
L 4684 1631 
L 4684 1100 
L 678 1100 
L 678 1631 
z
" transform="scale(0.015625)"/>
       <path id="DejaVuSans-6e" d="M 3513 2113 
L 3513 0 
L 2938 0 
L 2938 2094 
Q 2938 2591 2744 2837 
Q 2550 3084 2163 3084 
Q 1697 3084 1428 2787 
Q 1159 2491 1159 1978 
L 1159 0 
L 581 0 
L 581 3500 
L 1159 3500 
L 1159 2956 
Q 1366 3272 1645 3428 
Q 1925 3584 2291 3584 
Q 2894 3584 3203 3211 
Q 3513 2838 3513 2113 
z
" transform="scale(0.015625)"/>
      </defs>
      <use xlink:href="#DejaVuSans-6d" transform="translate(0 0.015625)"/>
      <use xlink:href="#DejaVuSans-65" transform="translate(97.412109 0.015625)"/>
      <use xlink:href="#DejaVuSans-73" transform="translate(158.935547 0.015625)"/>
      <use xlink:href="#DejaVuSans-6f" transform="translate(211.035156 0.015625)"/>
      <use xlink:href="#DejaVuSans-63" transform="translate(272.216797 0.015625)"/>
      <use xlink:href="#DejaVuSans-fa" transform="translate(327.197266 0.015625)"/>
      <use xlink:href="#DejaVuSans-72" transform="translate(390.576172 0.015625)"/>
      <use xlink:href="#DejaVuSans-74" transform="translate(431.689453 0.015625)"/>
      <use xlink:href="#DejaVuSans-69" transform="translate(470.898438 0.015625)"/>
      <use xlink:href="#DejaVuSans-63" transform="translate(498.681641 0.015625)"/>
      <use xlink:href="#DejaVuSans-61" transform="translate(553.662109 0.015625)"/>
      <use xlink:href="#DejaVuSans-20" transform="translate(614.941406 0.015625)"/>
      <use xlink:href="#DejaVuSans-3d" transform="translate(646.728516 0.015625)"/>
      <use xlink:href="#DejaVuSans-20" transform="translate(730.517578 0.015625)"/>
      <use xlink:href="#DejaVuSans-6e" transform="translate(762.304688 0.015625)"/>
      <use xlink:href="#DejaVuSans-6f" transform="translate(825.683594 0.015625)"/>
      <use xlink:href="#DejaVuSans-72" transform="translate(886.865234 0.015625)"/>
      <use xlink:href="#DejaVuSans-6d" transform="translate(927.978516 0.015625)"/>
      <use xlink:href="#DejaVuSans-61" transform="translate(1025.390625 0.015625)"/>
      <use xlink:href="#DejaVuSans-6c" transform="translate(1086.669922 0.015625)"/>
      <use xlink:href="#DejaVuSans-20" transform="translate(1114.453125 0.015625)"/>
      <use xlink:href="#DejaVuSans-28" transform="translate(1146.240234 0.015625)"/>
      <use xlink:href="#DejaVuSans-Oblique-3ba" transform="translate(1185.253906 0.015625)"/>
      <use xlink:href="#DejaVuSans-3d" transform="translate(1263.671875 0.015625)"/>
      <use xlink:href="#DejaVuSans-30" transform="translate(1366.943359 0.015625)"/>
      <use xlink:href="#DejaVuSans-29" transform="translate(1430.566406 0.015625)"/>
     </g>
    </g>
    <g id="line2d_32">
     <path d="M 243.032969 73.032188 
L 252.532969 73.032188 
L 262.032969 73.032188 
" style="fill: none; stroke: #c0392b; stroke-width: 2.6; stroke-linecap: square"/>
    </g>
    <g id="text_19">
     <!-- leptocúrtica ($\kappa&gt;0$) -->
     <g transform="translate(269.632969 76.357188) scale(0.095 -0.095)">
      <defs>
       <path id="DejaVuSans-3e" d="M 678 3150 
L 678 3719 
L 4684 2266 
L 4684 1747 
L 678 294 
L 678 863 
L 3897 2003 
L 678 3150 
z
" transform="scale(0.015625)"/>
      </defs>
      <use xlink:href="#DejaVuSans-6c" transform="translate(0 0.015625)"/>
      <use xlink:href="#DejaVuSans-65" transform="translate(27.783203 0.015625)"/>
      <use xlink:href="#DejaVuSans-70" transform="translate(89.306641 0.015625)"/>
      <use xlink:href="#DejaVuSans-74" transform="translate(152.783203 0.015625)"/>
      <use xlink:href="#DejaVuSans-6f" transform="translate(191.992188 0.015625)"/>
      <use xlink:href="#DejaVuSans-63" transform="translate(253.173828 0.015625)"/>
      <use xlink:href="#DejaVuSans-fa" transform="translate(308.154297 0.015625)"/>
      <use xlink:href="#DejaVuSans-72" transform="translate(371.533203 0.015625)"/>
      <use xlink:href="#DejaVuSans-74" transform="translate(412.646484 0.015625)"/>
      <use xlink:href="#DejaVuSans-69" transform="translate(451.855469 0.015625)"/>
      <use xlink:href="#DejaVuSans-63" transform="translate(479.638672 0.015625)"/>
      <use xlink:href="#DejaVuSans-61" transform="translate(534.619141 0.015625)"/>
      <use xlink:href="#DejaVuSans-20" transform="translate(595.898438 0.015625)"/>
      <use xlink:href="#DejaVuSans-28" transform="translate(627.685547 0.015625)"/>
      <use xlink:href="#DejaVuSans-Oblique-3ba" transform="translate(666.699219 0.015625)"/>
      <use xlink:href="#DejaVuSans-3e" transform="translate(745.117188 0.015625)"/>
      <use xlink:href="#DejaVuSans-30" transform="translate(848.388672 0.015625)"/>
      <use xlink:href="#DejaVuSans-29" transform="translate(912.011719 0.015625)"/>
     </g>
    </g>
   </g>
  </g>
 </g>
 <defs>
  <clipPath id="p23804de341">
   <rect x="49.552969" y="31.917969" width="368.28" height="227.304"/>
  </clipPath>
 </defs>
</svg>
