<?xml version="1.0" encoding="utf-8" standalone="no"?>
<!DOCTYPE svg PUBLIC "-//W3C//DTD SVG 1.1//EN"
  "http://www.w3.org/Graphics/SVG/1.1/DTD/svg11.dtd">
<svg xmlns:xlink="http://www.w3.org/1999/xlink" width="507.228438pt" height="313.207781pt" viewBox="0 0 507.228438 313.207781" xmlns="http://www.w3.org/2000/svg" version="1.1">
 <metadata>
  <rdf:RDF xmlns:dc="http://purl.org/dc/elements/1.1/" xmlns:cc="http://creativecommons.org/ns#" xmlns:rdf="http://www.w3.org/1999/02/22-rdf-syntax-ns#">
   <cc:Work>
    <dc:type rdf:resource="http://purl.org/dc/dcmitype/StillImage"/>
    <dc:date>2026-06-30T11:53:11.016733</dc:date>
    <dc:format>image/svg+xml</dc:format>
    <dc:creator>
     <cc:Agent>
      <dc:title>Matplotlib v3.9.2, https://matplotlib.org/</dc:title>
     </cc:Agent>
    </dc:creator>
   </cc:Work>
  </rdf:RDF>
 </metadata>
 <defs>
  <style type="text/css">*{stroke-linejoin: round; stroke-linecap: butt}</style>
 </defs>
 <g id="figure_1">
  <g id="patch_1">
   <path d="M 0 313.207781 
L 507.228438 313.207781 
L 507.228438 0 
L 0 0 
z
" style="fill: #ffffff"/>
  </g>
  <g id="axes_1">
   <g id="patch_2">
    <path d="M 55.915469 269.789969 
L 457.675469 269.789969 
L 457.675469 31.397969 
L 55.915469 31.397969 
z
" style="fill: #ffffff"/>
   </g>
   <g id="matplotlib.axis_1">
    <g id="xtick_1">
     <g id="line2d_1">
      <path d="M 55.915469 269.789969 
L 55.915469 31.397969 
" clip-path="url(#p2a6e336891)" style="fill: none; stroke-dasharray: 0.8,1.28; stroke-dashoffset: 0; stroke: #b0b0b0; stroke-opacity: 0.3; stroke-width: 0.8"/>
     </g>
     <g id="line2d_2">
      <defs>
       <path id="m0583f56921" d="M 0 0 
L 0 3.5 
" style="stroke: #2c3e50; stroke-width: 0.8"/>
      </defs>
      <g>
       <use xlink:href="#m0583f56921" x="55.915469" y="269.789969" style="fill: #2c3e50; stroke: #2c3e50; stroke-width: 0.8"/>
      </g>
     </g>
     <g id="text_1">
      <!-- 2.50 -->
      <g style="fill: #2c3e50" transform="translate(44.782656 284.388406) scale(0.1 -0.1)">
       <defs>
        <path id="DejaVuSans-32" d="M 1228 531 
L 3431 531 
L 3431 0 
L 469 0 
L 469 531 
Q 828 903 1448 1529 
Q 2069 2156 2228 2338 
Q 2531 2678 2651 2914 
Q 2772 3150 2772 3378 
Q 2772 3750 2511 3984 
Q 2250 4219 1831 4219 
Q 1534 4219 1204 4116 
Q 875 4013 500 3803 
L 500 4441 
Q 881 4594 1212 4672 
Q 1544 4750 1819 4750 
Q 2544 4750 2975 4387 
Q 3406 4025 3406 3419 
Q 3406 3131 3298 2873 
Q 3191 2616 2906 2266 
Q 2828 2175 2409 1742 
Q 1991 1309 1228 531 
z
" transform="scale(0.015625)"/>
        <path id="DejaVuSans-2e" d="M 684 794 
L 1344 794 
L 1344 0 
L 684 0 
L 684 794 
z
" transform="scale(0.015625)"/>
        <path id="DejaVuSans-35" d="M 691 4666 
L 3169 4666 
L 3169 4134 
L 1269 4134 
L 1269 2991 
Q 1406 3038 1543 3061 
Q 1681 3084 1819 3084 
Q 2600 3084 3056 2656 
Q 3513 2228 3513 1497 
Q 3513 744 3044 326 
Q 2575 -91 1722 -91 
Q 1428 -91 1123 -41 
Q 819 9 494 109 
L 494 744 
Q 775 591 1075 516 
Q 1375 441 1709 441 
Q 2250 441 2565 725 
Q 2881 1009 2881 1497 
Q 2881 1984 2565 2268 
Q 2250 2553 1709 2553 
Q 1456 2553 1204 2497 
Q 953 2441 691 2322 
L 691 4666 
z
" transform="scale(0.015625)"/>
        <path id="DejaVuSans-30" d="M 2034 4250 
Q 1547 4250 1301 3770 
Q 1056 3291 1056 2328 
Q 1056 1369 1301 889 
Q 1547 409 2034 409 
Q 2525 409 2770 889 
Q 3016 1369 3016 2328 
Q 3016 3291 2770 3770 
Q 2525 4250 2034 4250 
z
M 2034 4750 
Q 2819 4750 3233 4129 
Q 3647 3509 3647 2328 
Q 3647 1150 3233 529 
Q 2819 -91 2034 -91 
Q 1250 -91 836 529 
Q 422 1150 422 2328 
Q 422 3509 836 4129 
Q 1250 4750 2034 4750 
z
" transform="scale(0.015625)"/>
       </defs>
       <use xlink:href="#DejaVuSans-32"/>
       <use xlink:href="#DejaVuSans-2e" x="63.623047"/>
       <use xlink:href="#DejaVuSans-35" x="95.410156"/>
       <use xlink:href="#DejaVuSans-30" x="159.033203"/>
      </g>
     </g>
    </g>
    <g id="xtick_2">
     <g id="line2d_3">
      <path d="M 101.570014 269.789969 
L 101.570014 31.397969 
" clip-path="url(#p2a6e336891)" style="fill: none; stroke-dasharray: 0.8,1.28; stroke-dashoffset: 0; stroke: #b0b0b0; stroke-opacity: 0.3; stroke-width: 0.8"/>
     </g>
     <g id="line2d_4">
      <g>
       <use xlink:href="#m0583f56921" x="101.570014" y="269.789969" style="fill: #2c3e50; stroke: #2c3e50; stroke-width: 0.8"/>
      </g>
     </g>
     <g id="text_2">
      <!-- 2.75 -->
      <g style="fill: #2c3e50" transform="translate(90.437202 284.388406) scale(0.1 -0.1)">
       <defs>
        <path id="DejaVuSans-37" d="M 525 4666 
L 3525 4666 
L 3525 4397 
L 1831 0 
L 1172 0 
L 2766 4134 
L 525 4134 
L 525 4666 
z
" transform="scale(0.015625)"/>
       </defs>
       <use xlink:href="#DejaVuSans-32"/>
       <use xlink:href="#DejaVuSans-2e" x="63.623047"/>
       <use xlink:href="#DejaVuSans-37" x="95.410156"/>
       <use xlink:href="#DejaVuSans-35" x="159.033203"/>
      </g>
     </g>
    </g>
    <g id="xtick_3">
     <g id="line2d_5">
      <path d="M 147.22456 269.789969 
L 147.22456 31.397969 
" clip-path="url(#p2a6e336891)" style="fill: none; stroke-dasharray: 0.8,1.28; stroke-dashoffset: 0; stroke: #b0b0b0; stroke-opacity: 0.3; stroke-width: 0.8"/>
     </g>
     <g id="line2d_6">
      <g>
       <use xlink:href="#m0583f56921" x="147.22456" y="269.789969" style="fill: #2c3e50; stroke: #2c3e50; stroke-width: 0.8"/>
      </g>
     </g>
     <g id="text_3">
      <!-- 3.00 -->
      <g style="fill: #2c3e50" transform="translate(136.091747 284.388406) scale(0.1 -0.1)">
       <defs>
        <path id="DejaVuSans-33" d="M 2597 2516 
Q 3050 2419 3304 2112 
Q 3559 1806 3559 1356 
Q 3559 666 3084 287 
Q 2609 -91 1734 -91 
Q 1441 -91 1130 -33 
Q 819 25 488 141 
L 488 750 
Q 750 597 1062 519 
Q 1375 441 1716 441 
Q 2309 441 2620 675 
Q 2931 909 2931 1356 
Q 2931 1769 2642 2001 
Q 2353 2234 1838 2234 
L 1294 2234 
L 1294 2753 
L 1863 2753 
Q 2328 2753 2575 2939 
Q 2822 3125 2822 3475 
Q 2822 3834 2567 4026 
Q 2313 4219 1838 4219 
Q 1578 4219 1281 4162 
Q 984 4106 628 3988 
L 628 4550 
Q 988 4650 1302 4700 
Q 1616 4750 1894 4750 
Q 2613 4750 3031 4423 
Q 3450 4097 3450 3541 
Q 3450 3153 3228 2886 
Q 3006 2619 2597 2516 
z
" transform="scale(0.015625)"/>
       </defs>
       <use xlink:href="#DejaVuSans-33"/>
       <use xlink:href="#DejaVuSans-2e" x="63.623047"/>
       <use xlink:href="#DejaVuSans-30" x="95.410156"/>
       <use xlink:href="#DejaVuSans-30" x="159.033203"/>
      </g>
     </g>
    </g>
    <g id="xtick_4">
     <g id="line2d_7">
      <path d="M 192.879105 269.789969 
L 192.879105 31.397969 
" clip-path="url(#p2a6e336891)" style="fill: none; stroke-dasharray: 0.8,1.28; stroke-dashoffset: 0; stroke: #b0b0b0; stroke-opacity: 0.3; stroke-width: 0.8"/>
     </g>
     <g id="line2d_8">
      <g>
       <use xlink:href="#m0583f56921" x="192.879105" y="269.789969" style="fill: #2c3e50; stroke: #2c3e50; stroke-width: 0.8"/>
      </g>
     </g>
     <g id="text_4">
      <!-- 3.25 -->
      <g style="fill: #2c3e50" transform="translate(181.746293 284.388406) scale(0.1 -0.1)">
       <use xlink:href="#DejaVuSans-33"/>
       <use xlink:href="#DejaVuSans-2e" x="63.623047"/>
       <use xlink:href="#DejaVuSans-32" x="95.410156"/>
       <use xlink:href="#DejaVuSans-35" x="159.033203"/>
      </g>
     </g>
    </g>
    <g id="xtick_5">
     <g id="line2d_9">
      <path d="M 238.533651 269.789969 
L 238.533651 31.397969 
" clip-path="url(#p2a6e336891)" style="fill: none; stroke-dasharray: 0.8,1.28; stroke-dashoffset: 0; stroke: #b0b0b0; stroke-opacity: 0.3; stroke-width: 0.8"/>
     </g>
     <g id="line2d_10">
      <g>
       <use xlink:href="#m0583f56921" x="238.533651" y="269.789969" style="fill: #2c3e50; stroke: #2c3e50; stroke-width: 0.8"/>
      </g>
     </g>
     <g id="text_5">
      <!-- 3.50 -->
      <g style="fill: #2c3e50" transform="translate(227.400838 284.388406) scale(0.1 -0.1)">
       <use xlink:href="#DejaVuSans-33"/>
       <use xlink:href="#DejaVuSans-2e" x="63.623047"/>
       <use xlink:href="#DejaVuSans-35" x="95.410156"/>
       <use xlink:href="#DejaVuSans-30" x="159.033203"/>
      </g>
     </g>
    </g>
    <g id="xtick_6">
     <g id="line2d_11">
      <path d="M 284.188196 269.789969 
L 284.188196 31.397969 
" clip-path="url(#p2a6e336891)" style="fill: none; stroke-dasharray: 0.8,1.28; stroke-dashoffset: 0; stroke: #b0b0b0; stroke-opacity: 0.3; stroke-width: 0.8"/>
     </g>
     <g id="line2d_12">
      <g>
       <use xlink:href="#m0583f56921" x="284.188196" y="269.789969" style="fill: #2c3e50; stroke: #2c3e50; stroke-width: 0.8"/>
      </g>
     </g>
     <g id="text_6">
      <!-- 3.75 -->
      <g style="fill: #2c3e50" transform="translate(273.055384 284.388406) scale(0.1 -0.1)">
       <use xlink:href="#DejaVuSans-33"/>
       <use xlink:href="#DejaVuSans-2e" x="63.623047"/>
       <use xlink:href="#DejaVuSans-37" x="95.410156"/>
       <use xlink:href="#DejaVuSans-35" x="159.033203"/>
      </g>
     </g>
    </g>
    <g id="xtick_7">
     <g id="line2d_13">
      <path d="M 329.842741 269.789969 
L 329.842741 31.397969 
" clip-path="url(#p2a6e336891)" style="fill: none; stroke-dasharray: 0.8,1.28; stroke-dashoffset: 0; stroke: #b0b0b0; stroke-opacity: 0.3; stroke-width: 0.8"/>
     </g>
     <g id="line2d_14">
      <g>
       <use xlink:href="#m0583f56921" x="329.842741" y="269.789969" style="fill: #2c3e50; stroke: #2c3e50; stroke-width: 0.8"/>
      </g>
     </g>
     <g id="text_7">
      <!-- 4.00 -->
      <g style="fill: #2c3e50" transform="translate(318.709929 284.388406) scale(0.1 -0.1)">
       <defs>
        <path id="DejaVuSans-34" d="M 2419 4116 
L 825 1625 
L 2419 1625 
L 2419 4116 
z
M 2253 4666 
L 3047 4666 
L 3047 1625 
L 3713 1625 
L 3713 1100 
L 3047 1100 
L 3047 0 
L 2419 0 
L 2419 1100 
L 313 1100 
L 313 1709 
L 2253 4666 
z
" transform="scale(0.015625)"/>
       </defs>
       <use xlink:href="#DejaVuSans-34"/>
       <use xlink:href="#DejaVuSans-2e" x="63.623047"/>
       <use xlink:href="#DejaVuSans-30" x="95.410156"/>
       <use xlink:href="#DejaVuSans-30" x="159.033203"/>
      </g>
     </g>
    </g>
    <g id="xtick_8">
     <g id="line2d_15">
      <path d="M 375.497287 269.789969 
L 375.497287 31.397969 
" clip-path="url(#p2a6e336891)" style="fill: none; stroke-dasharray: 0.8,1.28; stroke-dashoffset: 0; stroke: #b0b0b0; stroke-opacity: 0.3; stroke-width: 0.8"/>
     </g>
     <g id="line2d_16">
      <g>
       <use xlink:href="#m0583f56921" x="375.497287" y="269.789969" style="fill: #2c3e50; stroke: #2c3e50; stroke-width: 0.8"/>
      </g>
     </g>
     <g id="text_8">
      <!-- 4.25 -->
      <g style="fill: #2c3e50" transform="translate(364.364474 284.388406) scale(0.1 -0.1)">
       <use xlink:href="#DejaVuSans-34"/>
       <use xlink:href="#DejaVuSans-2e" x="63.623047"/>
       <use xlink:href="#DejaVuSans-32" x="95.410156"/>
       <use xlink:href="#DejaVuSans-35" x="159.033203"/>
      </g>
     </g>
    </g>
    <g id="xtick_9">
     <g id="line2d_17">
      <path d="M 421.151832 269.789969 
L 421.151832 31.397969 
" clip-path="url(#p2a6e336891)" style="fill: none; stroke-dasharray: 0.8,1.28; stroke-dashoffset: 0; stroke: #b0b0b0; stroke-opacity: 0.3; stroke-width: 0.8"/>
     </g>
     <g id="line2d_18">
      <g>
       <use xlink:href="#m0583f56921" x="421.151832" y="269.789969" style="fill: #2c3e50; stroke: #2c3e50; stroke-width: 0.8"/>
      </g>
     </g>
     <g id="text_9">
      <!-- 4.50 -->
      <g style="fill: #2c3e50" transform="translate(410.01902 284.388406) scale(0.1 -0.1)">
       <use xlink:href="#DejaVuSans-34"/>
       <use xlink:href="#DejaVuSans-2e" x="63.623047"/>
       <use xlink:href="#DejaVuSans-35" x="95.410156"/>
       <use xlink:href="#DejaVuSans-30" x="159.033203"/>
      </g>
     </g>
    </g>
    <g id="text_10">
     <!-- Peso (kg) -->
     <g transform="translate(226.111133 299.206297) scale(0.115 -0.115)">
      <defs>
       <path id="DejaVuSans-Bold-50" d="M 588 4666 
L 2584 4666 
Q 3475 4666 3951 4270 
Q 4428 3875 4428 3144 
Q 4428 2409 3951 2014 
Q 3475 1619 2584 1619 
L 1791 1619 
L 1791 0 
L 588 0 
L 588 4666 
z
M 1791 3794 
L 1791 2491 
L 2456 2491 
Q 2806 2491 2997 2661 
Q 3188 2831 3188 3144 
Q 3188 3456 2997 3625 
Q 2806 3794 2456 3794 
L 1791 3794 
z
" transform="scale(0.015625)"/>
       <path id="DejaVuSans-Bold-65" d="M 4031 1759 
L 4031 1441 
L 1416 1441 
Q 1456 1047 1700 850 
Q 1944 653 2381 653 
Q 2734 653 3104 758 
Q 3475 863 3866 1075 
L 3866 213 
Q 3469 63 3072 -14 
Q 2675 -91 2278 -91 
Q 1328 -91 801 392 
Q 275 875 275 1747 
Q 275 2603 792 3093 
Q 1309 3584 2216 3584 
Q 3041 3584 3536 3087 
Q 4031 2591 4031 1759 
z
M 2881 2131 
Q 2881 2450 2695 2645 
Q 2509 2841 2209 2841 
Q 1884 2841 1681 2658 
Q 1478 2475 1428 2131 
L 2881 2131 
z
" transform="scale(0.015625)"/>
       <path id="DejaVuSans-Bold-73" d="M 3272 3391 
L 3272 2541 
Q 2913 2691 2578 2766 
Q 2244 2841 1947 2841 
Q 1628 2841 1473 2761 
Q 1319 2681 1319 2516 
Q 1319 2381 1436 2309 
Q 1553 2238 1856 2203 
L 2053 2175 
Q 2913 2066 3209 1816 
Q 3506 1566 3506 1031 
Q 3506 472 3093 190 
Q 2681 -91 1863 -91 
Q 1516 -91 1145 -36 
Q 775 19 384 128 
L 384 978 
Q 719 816 1070 734 
Q 1422 653 1784 653 
Q 2113 653 2278 743 
Q 2444 834 2444 1013 
Q 2444 1163 2330 1236 
Q 2216 1309 1875 1350 
L 1678 1375 
Q 931 1469 631 1722 
Q 331 1975 331 2491 
Q 331 3047 712 3315 
Q 1094 3584 1881 3584 
Q 2191 3584 2531 3537 
Q 2872 3491 3272 3391 
z
" transform="scale(0.015625)"/>
       <path id="DejaVuSans-Bold-6f" d="M 2203 2784 
Q 1831 2784 1636 2517 
Q 1441 2250 1441 1747 
Q 1441 1244 1636 976 
Q 1831 709 2203 709 
Q 2569 709 2762 976 
Q 2956 1244 2956 1747 
Q 2956 2250 2762 2517 
Q 2569 2784 2203 2784 
z
M 2203 3584 
Q 3106 3584 3614 3096 
Q 4122 2609 4122 1747 
Q 4122 884 3614 396 
Q 3106 -91 2203 -91 
Q 1297 -91 786 396 
Q 275 884 275 1747 
Q 275 2609 786 3096 
Q 1297 3584 2203 3584 
z
" transform="scale(0.015625)"/>
       <path id="DejaVuSans-Bold-20" transform="scale(0.015625)"/>
       <path id="DejaVuSans-Bold-28" d="M 2413 -844 
L 1484 -844 
Q 1006 -72 778 623 
Q 550 1319 550 2003 
Q 550 2688 779 3389 
Q 1009 4091 1484 4856 
L 2413 4856 
Q 2013 4116 1813 3408 
Q 1613 2700 1613 2009 
Q 1613 1319 1811 609 
Q 2009 -100 2413 -844 
z
" transform="scale(0.015625)"/>
       <path id="DejaVuSans-Bold-6b" d="M 538 4863 
L 1656 4863 
L 1656 2216 
L 2944 3500 
L 4244 3500 
L 2534 1894 
L 4378 0 
L 3022 0 
L 1656 1459 
L 1656 0 
L 538 0 
L 538 4863 
z
" transform="scale(0.015625)"/>
       <path id="DejaVuSans-Bold-67" d="M 2919 594 
Q 2688 288 2409 144 
Q 2131 0 1766 0 
Q 1125 0 706 504 
Q 288 1009 288 1791 
Q 288 2575 706 3076 
Q 1125 3578 1766 3578 
Q 2131 3578 2409 3434 
Q 2688 3291 2919 2981 
L 2919 3500 
L 4044 3500 
L 4044 353 
Q 4044 -491 3511 -936 
Q 2978 -1381 1966 -1381 
Q 1638 -1381 1331 -1331 
Q 1025 -1281 716 -1178 
L 716 -306 
Q 1009 -475 1290 -558 
Q 1572 -641 1856 -641 
Q 2406 -641 2662 -400 
Q 2919 -159 2919 353 
L 2919 594 
z
M 2181 2772 
Q 1834 2772 1640 2515 
Q 1447 2259 1447 1791 
Q 1447 1309 1634 1061 
Q 1822 813 2181 813 
Q 2531 813 2725 1069 
Q 2919 1325 2919 1791 
Q 2919 2259 2725 2515 
Q 2531 2772 2181 2772 
z
" transform="scale(0.015625)"/>
       <path id="DejaVuSans-Bold-29" d="M 513 -844 
Q 913 -100 1113 609 
Q 1313 1319 1313 2009 
Q 1313 2700 1113 3408 
Q 913 4116 513 4856 
L 1441 4856 
Q 1916 4091 2145 3389 
Q 2375 2688 2375 2003 
Q 2375 1319 2147 623 
Q 1919 -72 1441 -844 
L 513 -844 
z
" transform="scale(0.015625)"/>
      </defs>
      <use xlink:href="#DejaVuSans-Bold-50"/>
      <use xlink:href="#DejaVuSans-Bold-65" x="73.291016"/>
      <use xlink:href="#DejaVuSans-Bold-73" x="141.113281"/>
      <use xlink:href="#DejaVuSans-Bold-6f" x="200.634766"/>
      <use xlink:href="#DejaVuSans-Bold-20" x="269.335938"/>
      <use xlink:href="#DejaVuSans-Bold-28" x="304.150391"/>
      <use xlink:href="#DejaVuSans-Bold-6b" x="349.853516"/>
      <use xlink:href="#DejaVuSans-Bold-67" x="416.357422"/>
      <use xlink:href="#DejaVuSans-Bold-29" x="487.939453"/>
     </g>
    </g>
   </g>
   <g id="matplotlib.axis_2">
    <g id="ytick_1">
     <g id="line2d_19">
      <path d="M 55.915469 269.789969 
L 457.675469 269.789969 
" clip-path="url(#p2a6e336891)" style="fill: none; stroke-dasharray: 0.8,1.28; stroke-dashoffset: 0; stroke: #b0b0b0; stroke-opacity: 0.3; stroke-width: 0.8"/>
     </g>
     <g id="line2d_20">
      <defs>
       <path id="m4e4cd09b5e" d="M 0 0 
L -3.5 0 
" style="stroke: #2c3e50; stroke-width: 0.8"/>
      </defs>
      <g>
       <use xlink:href="#m4e4cd09b5e" x="55.915469" y="269.789969" style="fill: #2c3e50; stroke: #2c3e50; stroke-width: 0.8"/>
      </g>
     </g>
     <g id="text_11">
      <!-- 0.0 -->
      <g style="fill: #2c3e50" transform="translate(33.012344 273.589187) scale(0.1 -0.1)">
       <use xlink:href="#DejaVuSans-30"/>
       <use xlink:href="#DejaVuSans-2e" x="63.623047"/>
       <use xlink:href="#DejaVuSans-30" x="95.410156"/>
      </g>
     </g>
    </g>
    <g id="ytick_2">
     <g id="line2d_21">
      <path d="M 55.915469 238.256635 
L 457.675469 238.256635 
" clip-path="url(#p2a6e336891)" style="fill: none; stroke-dasharray: 0.8,1.28; stroke-dashoffset: 0; stroke: #b0b0b0; stroke-opacity: 0.3; stroke-width: 0.8"/>
     </g>
     <g id="line2d_22">
      <g>
       <use xlink:href="#m4e4cd09b5e" x="55.915469" y="238.256635" style="fill: #2c3e50; stroke: #2c3e50; stroke-width: 0.8"/>
      </g>
     </g>
     <g id="text_12">
      <!-- 2.5 -->
      <g style="fill: #2c3e50" transform="translate(33.012344 242.055854) scale(0.1 -0.1)">
       <use xlink:href="#DejaVuSans-32"/>
       <use xlink:href="#DejaVuSans-2e" x="63.623047"/>
       <use xlink:href="#DejaVuSans-35" x="95.410156"/>
      </g>
     </g>
    </g>
    <g id="ytick_3">
     <g id="line2d_23">
      <path d="M 55.915469 206.723302 
L 457.675469 206.723302 
" clip-path="url(#p2a6e336891)" style="fill: none; stroke-dasharray: 0.8,1.28; stroke-dashoffset: 0; stroke: #b0b0b0; stroke-opacity: 0.3; stroke-width: 0.8"/>
     </g>
     <g id="line2d_24">
      <g>
       <use xlink:href="#m4e4cd09b5e" x="55.915469" y="206.723302" style="fill: #2c3e50; stroke: #2c3e50; stroke-width: 0.8"/>
      </g>
     </g>
     <g id="text_13">
      <!-- 5.0 -->
      <g style="fill: #2c3e50" transform="translate(33.012344 210.522521) scale(0.1 -0.1)">
       <use xlink:href="#DejaVuSans-35"/>
       <use xlink:href="#DejaVuSans-2e" x="63.623047"/>
       <use xlink:href="#DejaVuSans-30" x="95.410156"/>
      </g>
     </g>
    </g>
    <g id="ytick_4">
     <g id="line2d_25">
      <path d="M 55.915469 175.189969 
L 457.675469 175.189969 
" clip-path="url(#p2a6e336891)" style="fill: none; stroke-dasharray: 0.8,1.28; stroke-dashoffset: 0; stroke: #b0b0b0; stroke-opacity: 0.3; stroke-width: 0.8"/>
     </g>
     <g id="line2d_26">
      <g>
       <use xlink:href="#m4e4cd09b5e" x="55.915469" y="175.189969" style="fill: #2c3e50; stroke: #2c3e50; stroke-width: 0.8"/>
      </g>
     </g>
     <g id="text_14">
      <!-- 7.5 -->
      <g style="fill: #2c3e50" transform="translate(33.012344 178.989187) scale(0.1 -0.1)">
       <use xlink:href="#DejaVuSans-37"/>
       <use xlink:href="#DejaVuSans-2e" x="63.623047"/>
       <use xlink:href="#DejaVuSans-35" x="95.410156"/>
      </g>
     </g>
    </g>
    <g id="ytick_5">
     <g id="line2d_27">
      <path d="M 55.915469 143.656635 
L 457.675469 143.656635 
" clip-path="url(#p2a6e336891)" style="fill: none; stroke-dasharray: 0.8,1.28; stroke-dashoffset: 0; stroke: #b0b0b0; stroke-opacity: 0.3; stroke-width: 0.8"/>
     </g>
     <g id="line2d_28">
      <g>
       <use xlink:href="#m4e4cd09b5e" x="55.915469" y="143.656635" style="fill: #2c3e50; stroke: #2c3e50; stroke-width: 0.8"/>
      </g>
     </g>
     <g id="text_15">
      <!-- 10.0 -->
      <g style="fill: #2c3e50" transform="translate(26.649844 147.455854) scale(0.1 -0.1)">
       <defs>
        <path id="DejaVuSans-31" d="M 794 531 
L 1825 531 
L 1825 4091 
L 703 3866 
L 703 4441 
L 1819 4666 
L 2450 4666 
L 2450 531 
L 3481 531 
L 3481 0 
L 794 0 
L 794 531 
z
" transform="scale(0.015625)"/>
       </defs>
       <use xlink:href="#DejaVuSans-31"/>
       <use xlink:href="#DejaVuSans-30" x="63.623047"/>
       <use xlink:href="#DejaVuSans-2e" x="127.246094"/>
       <use xlink:href="#DejaVuSans-30" x="159.033203"/>
      </g>
     </g>
    </g>
    <g id="ytick_6">
     <g id="line2d_29">
      <path d="M 55.915469 112.123302 
L 457.675469 112.123302 
" clip-path="url(#p2a6e336891)" style="fill: none; stroke-dasharray: 0.8,1.28; stroke-dashoffset: 0; stroke: #b0b0b0; stroke-opacity: 0.3; stroke-width: 0.8"/>
     </g>
     <g id="line2d_30">
      <g>
       <use xlink:href="#m4e4cd09b5e" x="55.915469" y="112.123302" style="fill: #2c3e50; stroke: #2c3e50; stroke-width: 0.8"/>
      </g>
     </g>
     <g id="text_16">
      <!-- 12.5 -->
      <g style="fill: #2c3e50" transform="translate(26.649844 115.922521) scale(0.1 -0.1)">
       <use xlink:href="#DejaVuSans-31"/>
       <use xlink:href="#DejaVuSans-32" x="63.623047"/>
       <use xlink:href="#DejaVuSans-2e" x="127.246094"/>
       <use xlink:href="#DejaVuSans-35" x="159.033203"/>
      </g>
     </g>
    </g>
    <g id="ytick_7">
     <g id="line2d_31">
      <path d="M 55.915469 80.589969 
L 457.675469 80.589969 
" clip-path="url(#p2a6e336891)" style="fill: none; stroke-dasharray: 0.8,1.28; stroke-dashoffset: 0; stroke: #b0b0b0; stroke-opacity: 0.3; stroke-width: 0.8"/>
     </g>
     <g id="line2d_32">
      <g>
       <use xlink:href="#m4e4cd09b5e" x="55.915469" y="80.589969" style="fill: #2c3e50; stroke: #2c3e50; stroke-width: 0.8"/>
      </g>
     </g>
     <g id="text_17">
      <!-- 15.0 -->
      <g style="fill: #2c3e50" transform="translate(26.649844 84.389187) scale(0.1 -0.1)">
       <use xlink:href="#DejaVuSans-31"/>
       <use xlink:href="#DejaVuSans-35" x="63.623047"/>
       <use xlink:href="#DejaVuSans-2e" x="127.246094"/>
       <use xlink:href="#DejaVuSans-30" x="159.033203"/>
      </g>
     </g>
    </g>
    <g id="ytick_8">
     <g id="line2d_33">
      <path d="M 55.915469 49.056635 
L 457.675469 49.056635 
" clip-path="url(#p2a6e336891)" style="fill: none; stroke-dasharray: 0.8,1.28; stroke-dashoffset: 0; stroke: #b0b0b0; stroke-opacity: 0.3; stroke-width: 0.8"/>
     </g>
     <g id="line2d_34">
      <g>
       <use xlink:href="#m4e4cd09b5e" x="55.915469" y="49.056635" style="fill: #2c3e50; stroke: #2c3e50; stroke-width: 0.8"/>
      </g>
     </g>
     <g id="text_18">
      <!-- 17.5 -->
      <g style="fill: #2c3e50" transform="translate(26.649844 52.855854) scale(0.1 -0.1)">
       <use xlink:href="#DejaVuSans-31"/>
       <use xlink:href="#DejaVuSans-37" x="63.623047"/>
       <use xlink:href="#DejaVuSans-2e" x="127.246094"/>
       <use xlink:href="#DejaVuSans-35" x="159.033203"/>
      </g>
     </g>
    </g>
    <g id="text_19">
     <!-- Frecuencia absoluta $f_i$ -->
     <g transform="translate(20.258203 221.433969) rotate(-90) scale(0.115 -0.115)">
      <defs>
       <path id="DejaVuSans-Bold-46" d="M 588 4666 
L 3834 4666 
L 3834 3756 
L 1791 3756 
L 1791 2888 
L 3713 2888 
L 3713 1978 
L 1791 1978 
L 1791 0 
L 588 0 
L 588 4666 
z
" transform="scale(0.015625)"/>
       <path id="DejaVuSans-Bold-72" d="M 3138 2547 
Q 2991 2616 2845 2648 
Q 2700 2681 2553 2681 
Q 2122 2681 1889 2404 
Q 1656 2128 1656 1613 
L 1656 0 
L 538 0 
L 538 3500 
L 1656 3500 
L 1656 2925 
Q 1872 3269 2151 3426 
Q 2431 3584 2822 3584 
Q 2878 3584 2943 3579 
Q 3009 3575 3134 3559 
L 3138 2547 
z
" transform="scale(0.015625)"/>
       <path id="DejaVuSans-Bold-63" d="M 3366 3391 
L 3366 2478 
Q 3138 2634 2908 2709 
Q 2678 2784 2431 2784 
Q 1963 2784 1702 2511 
Q 1441 2238 1441 1747 
Q 1441 1256 1702 982 
Q 1963 709 2431 709 
Q 2694 709 2930 787 
Q 3166 866 3366 1019 
L 3366 103 
Q 3103 6 2833 -42 
Q 2563 -91 2291 -91 
Q 1344 -91 809 395 
Q 275 881 275 1747 
Q 275 2613 809 3098 
Q 1344 3584 2291 3584 
Q 2566 3584 2833 3536 
Q 3100 3488 3366 3391 
z
" transform="scale(0.015625)"/>
       <path id="DejaVuSans-Bold-75" d="M 500 1363 
L 500 3500 
L 1625 3500 
L 1625 3150 
Q 1625 2866 1622 2436 
Q 1619 2006 1619 1863 
Q 1619 1441 1641 1255 
Q 1663 1069 1716 984 
Q 1784 875 1895 815 
Q 2006 756 2150 756 
Q 2500 756 2700 1025 
Q 2900 1294 2900 1772 
L 2900 3500 
L 4019 3500 
L 4019 0 
L 2900 0 
L 2900 506 
Q 2647 200 2364 54 
Q 2081 -91 1741 -91 
Q 1134 -91 817 281 
Q 500 653 500 1363 
z
" transform="scale(0.015625)"/>
       <path id="DejaVuSans-Bold-6e" d="M 4056 2131 
L 4056 0 
L 2931 0 
L 2931 347 
L 2931 1631 
Q 2931 2084 2911 2256 
Q 2891 2428 2841 2509 
Q 2775 2619 2662 2680 
Q 2550 2741 2406 2741 
Q 2056 2741 1856 2470 
Q 1656 2200 1656 1722 
L 1656 0 
L 538 0 
L 538 3500 
L 1656 3500 
L 1656 2988 
Q 1909 3294 2193 3439 
Q 2478 3584 2822 3584 
Q 3428 3584 3742 3212 
Q 4056 2841 4056 2131 
z
" transform="scale(0.015625)"/>
       <path id="DejaVuSans-Bold-69" d="M 538 3500 
L 1656 3500 
L 1656 0 
L 538 0 
L 538 3500 
z
M 538 4863 
L 1656 4863 
L 1656 3950 
L 538 3950 
L 538 4863 
z
" transform="scale(0.015625)"/>
       <path id="DejaVuSans-Bold-61" d="M 2106 1575 
Q 1756 1575 1579 1456 
Q 1403 1338 1403 1106 
Q 1403 894 1545 773 
Q 1688 653 1941 653 
Q 2256 653 2472 879 
Q 2688 1106 2688 1447 
L 2688 1575 
L 2106 1575 
z
M 3816 1997 
L 3816 0 
L 2688 0 
L 2688 519 
Q 2463 200 2181 54 
Q 1900 -91 1497 -91 
Q 953 -91 614 226 
Q 275 544 275 1050 
Q 275 1666 698 1953 
Q 1122 2241 2028 2241 
L 2688 2241 
L 2688 2328 
Q 2688 2594 2478 2717 
Q 2269 2841 1825 2841 
Q 1466 2841 1156 2769 
Q 847 2697 581 2553 
L 581 3406 
Q 941 3494 1303 3539 
Q 1666 3584 2028 3584 
Q 2975 3584 3395 3211 
Q 3816 2838 3816 1997 
z
" transform="scale(0.015625)"/>
       <path id="DejaVuSans-Bold-62" d="M 2400 722 
Q 2759 722 2948 984 
Q 3138 1247 3138 1747 
Q 3138 2247 2948 2509 
Q 2759 2772 2400 2772 
Q 2041 2772 1848 2508 
Q 1656 2244 1656 1747 
Q 1656 1250 1848 986 
Q 2041 722 2400 722 
z
M 1656 2988 
Q 1888 3294 2169 3439 
Q 2450 3584 2816 3584 
Q 3463 3584 3878 3070 
Q 4294 2556 4294 1747 
Q 4294 938 3878 423 
Q 3463 -91 2816 -91 
Q 2450 -91 2169 54 
Q 1888 200 1656 506 
L 1656 0 
L 538 0 
L 538 4863 
L 1656 4863 
L 1656 2988 
z
" transform="scale(0.015625)"/>
       <path id="DejaVuSans-Bold-6c" d="M 538 4863 
L 1656 4863 
L 1656 0 
L 538 0 
L 538 4863 
z
" transform="scale(0.015625)"/>
       <path id="DejaVuSans-Bold-74" d="M 1759 4494 
L 1759 3500 
L 2913 3500 
L 2913 2700 
L 1759 2700 
L 1759 1216 
Q 1759 972 1856 886 
Q 1953 800 2241 800 
L 2816 800 
L 2816 0 
L 1856 0 
Q 1194 0 917 276 
Q 641 553 641 1216 
L 641 2700 
L 84 2700 
L 84 3500 
L 641 3500 
L 641 4494 
L 1759 4494 
z
" transform="scale(0.015625)"/>
       <path id="DejaVuSans-Oblique-66" d="M 3059 4863 
L 2969 4384 
L 2419 4384 
Q 2106 4384 1964 4261 
Q 1822 4138 1753 3809 
L 1691 3500 
L 2638 3500 
L 2553 3053 
L 1606 3053 
L 1013 0 
L 434 0 
L 1031 3053 
L 481 3053 
L 563 3500 
L 1113 3500 
L 1159 3744 
Q 1278 4363 1576 4613 
Q 1875 4863 2516 4863 
L 3059 4863 
z
" transform="scale(0.015625)"/>
       <path id="DejaVuSans-Oblique-69" d="M 1172 4863 
L 1747 4863 
L 1606 4134 
L 1031 4134 
L 1172 4863 
z
M 909 3500 
L 1484 3500 
L 800 0 
L 225 0 
L 909 3500 
z
" transform="scale(0.015625)"/>
      </defs>
      <use xlink:href="#DejaVuSans-Bold-46" transform="translate(0 0.015625)"/>
      <use xlink:href="#DejaVuSans-Bold-72" transform="translate(68.310547 0.015625)"/>
      <use xlink:href="#DejaVuSans-Bold-65" transform="translate(117.626953 0.015625)"/>
      <use xlink:href="#DejaVuSans-Bold-63" transform="translate(185.449219 0.015625)"/>
      <use xlink:href="#DejaVuSans-Bold-75" transform="translate(244.726562 0.015625)"/>
      <use xlink:href="#DejaVuSans-Bold-65" transform="translate(315.917969 0.015625)"/>
      <use xlink:href="#DejaVuSans-Bold-6e" transform="translate(383.740234 0.015625)"/>
      <use xlink:href="#DejaVuSans-Bold-63" transform="translate(454.931641 0.015625)"/>
      <use xlink:href="#DejaVuSans-Bold-69" transform="translate(514.208984 0.015625)"/>
      <use xlink:href="#DejaVuSans-Bold-61" transform="translate(548.486328 0.015625)"/>
      <use xlink:href="#DejaVuSans-Bold-20" transform="translate(615.966797 0.015625)"/>
      <use xlink:href="#DejaVuSans-Bold-61" transform="translate(650.78125 0.015625)"/>
      <use xlink:href="#DejaVuSans-Bold-62" transform="translate(718.261719 0.015625)"/>
      <use xlink:href="#DejaVuSans-Bold-73" transform="translate(789.84375 0.015625)"/>
      <use xlink:href="#DejaVuSans-Bold-6f" transform="translate(849.365234 0.015625)"/>
      <use xlink:href="#DejaVuSans-Bold-6c" transform="translate(918.066406 0.015625)"/>
      <use xlink:href="#DejaVuSans-Bold-75" transform="translate(952.34375 0.015625)"/>
      <use xlink:href="#DejaVuSans-Bold-74" transform="translate(1023.535156 0.015625)"/>
      <use xlink:href="#DejaVuSans-Bold-61" transform="translate(1071.337891 0.015625)"/>
      <use xlink:href="#DejaVuSans-Bold-20" transform="translate(1138.818359 0.015625)"/>
      <use xlink:href="#DejaVuSans-Oblique-66" transform="translate(1173.632812 0.015625)"/>
      <use xlink:href="#DejaVuSans-Oblique-69" transform="translate(1208.837891 -16.390625) scale(0.7)"/>
     </g>
    </g>
   </g>
   <g id="patch_3">
    <path d="M 74.177287 269.789969 
L 110.700923 269.789969 
L 110.700923 244.563302 
L 74.177287 244.563302 
z
" clip-path="url(#p2a6e336891)" style="fill: #2980b9; opacity: 0.55; stroke: #ffffff; stroke-width: 0.8; stroke-linejoin: miter"/>
   </g>
   <g id="patch_4">
    <path d="M 110.700923 269.789969 
L 147.22456 269.789969 
L 147.22456 231.949969 
L 110.700923 231.949969 
z
" clip-path="url(#p2a6e336891)" style="fill: #2980b9; opacity: 0.55; stroke: #ffffff; stroke-width: 0.8; stroke-linejoin: miter"/>
   </g>
   <g id="patch_5">
    <path d="M 147.22456 269.789969 
L 183.748196 269.789969 
L 183.748196 93.203302 
L 147.22456 93.203302 
z
" clip-path="url(#p2a6e336891)" style="fill: #2980b9; opacity: 0.55; stroke: #ffffff; stroke-width: 0.8; stroke-linejoin: miter"/>
   </g>
   <g id="patch_6">
    <path d="M 183.748196 269.789969 
L 220.271832 269.789969 
L 220.271832 143.656635 
L 183.748196 143.656635 
z
" clip-path="url(#p2a6e336891)" style="fill: #2980b9; opacity: 0.55; stroke: #ffffff; stroke-width: 0.8; stroke-linejoin: miter"/>
   </g>
   <g id="patch_7">
    <path d="M 220.271832 269.789969 
L 256.795469 269.789969 
L 256.795469 80.589969 
L 220.271832 80.589969 
z
" clip-path="url(#p2a6e336891)" style="fill: #2980b9; opacity: 0.55; stroke: #ffffff; stroke-width: 0.8; stroke-linejoin: miter"/>
   </g>
   <g id="patch_8">
    <path d="M 256.795469 269.789969 
L 293.319105 269.789969 
L 293.319105 42.749969 
L 256.795469 42.749969 
z
" clip-path="url(#p2a6e336891)" style="fill: #2980b9; opacity: 0.55; stroke: #ffffff; stroke-width: 0.8; stroke-linejoin: miter"/>
   </g>
   <g id="patch_9">
    <path d="M 293.319105 269.789969 
L 329.842741 269.789969 
L 329.842741 67.976635 
L 293.319105 67.976635 
z
" clip-path="url(#p2a6e336891)" style="fill: #2980b9; opacity: 0.55; stroke: #ffffff; stroke-width: 0.8; stroke-linejoin: miter"/>
   </g>
   <g id="patch_10">
    <path d="M 329.842741 269.789969 
L 366.366378 269.789969 
L 366.366378 93.203302 
L 329.842741 93.203302 
z
" clip-path="url(#p2a6e336891)" style="fill: #2980b9; opacity: 0.55; stroke: #ffffff; stroke-width: 0.8; stroke-linejoin: miter"/>
   </g>
   <g id="patch_11">
    <path d="M 366.366378 269.789969 
L 402.890014 269.789969 
L 402.890014 219.336635 
L 366.366378 219.336635 
z
" clip-path="url(#p2a6e336891)" style="fill: #2980b9; opacity: 0.55; stroke: #ffffff; stroke-width: 0.8; stroke-linejoin: miter"/>
   </g>
   <g id="patch_12">
    <path d="M 402.890014 269.789969 
L 439.413651 269.789969 
L 439.413651 219.336635 
L 402.890014 219.336635 
z
" clip-path="url(#p2a6e336891)" style="fill: #2980b9; opacity: 0.55; stroke: #ffffff; stroke-width: 0.8; stroke-linejoin: miter"/>
   </g>
   <g id="patch_13">
    <path d="M 55.915469 269.789969 
L 55.915469 31.397969 
" style="fill: none; stroke: #2c3e50; stroke-width: 1.2; stroke-linejoin: miter; stroke-linecap: square"/>
   </g>
   <g id="patch_14">
    <path d="M 55.915469 269.789969 
L 457.675469 269.789969 
" style="fill: none; stroke: #2c3e50; stroke-width: 1.2; stroke-linejoin: miter; stroke-linecap: square"/>
   </g>
   <g id="text_20">
    <!-- Datos agrupados: histograma + ojiva -->
    <g transform="translate(120.331016 21.397969) scale(0.13 -0.13)">
     <defs>
      <path id="DejaVuSans-Bold-44" d="M 1791 3756 
L 1791 909 
L 2222 909 
Q 2959 909 3348 1275 
Q 3738 1641 3738 2338 
Q 3738 3031 3350 3393 
Q 2963 3756 2222 3756 
L 1791 3756 
z
M 588 4666 
L 1856 4666 
Q 2919 4666 3439 4514 
Q 3959 4363 4331 4000 
Q 4659 3684 4818 3271 
Q 4978 2859 4978 2338 
Q 4978 1809 4818 1395 
Q 4659 981 4331 666 
Q 3956 303 3431 151 
Q 2906 0 1856 0 
L 588 0 
L 588 4666 
z
" transform="scale(0.015625)"/>
      <path id="DejaVuSans-Bold-70" d="M 1656 506 
L 1656 -1331 
L 538 -1331 
L 538 3500 
L 1656 3500 
L 1656 2988 
Q 1888 3294 2169 3439 
Q 2450 3584 2816 3584 
Q 3463 3584 3878 3070 
Q 4294 2556 4294 1747 
Q 4294 938 3878 423 
Q 3463 -91 2816 -91 
Q 2450 -91 2169 54 
Q 1888 200 1656 506 
z
M 2400 2772 
Q 2041 2772 1848 2508 
Q 1656 2244 1656 1747 
Q 1656 1250 1848 986 
Q 2041 722 2400 722 
Q 2759 722 2948 984 
Q 3138 1247 3138 1747 
Q 3138 2247 2948 2509 
Q 2759 2772 2400 2772 
z
" transform="scale(0.015625)"/>
      <path id="DejaVuSans-Bold-64" d="M 2919 2988 
L 2919 4863 
L 4044 4863 
L 4044 0 
L 2919 0 
L 2919 506 
Q 2688 197 2409 53 
Q 2131 -91 1766 -91 
Q 1119 -91 703 423 
Q 288 938 288 1747 
Q 288 2556 703 3070 
Q 1119 3584 1766 3584 
Q 2128 3584 2408 3439 
Q 2688 3294 2919 2988 
z
M 2181 722 
Q 2541 722 2730 984 
Q 2919 1247 2919 1747 
Q 2919 2247 2730 2509 
Q 2541 2772 2181 2772 
Q 1825 2772 1636 2509 
Q 1447 2247 1447 1747 
Q 1447 1247 1636 984 
Q 1825 722 2181 722 
z
" transform="scale(0.015625)"/>
      <path id="DejaVuSans-Bold-3a" d="M 716 3500 
L 1844 3500 
L 1844 2291 
L 716 2291 
L 716 3500 
z
M 716 1209 
L 1844 1209 
L 1844 0 
L 716 0 
L 716 1209 
z
" transform="scale(0.015625)"/>
      <path id="DejaVuSans-Bold-68" d="M 4056 2131 
L 4056 0 
L 2931 0 
L 2931 347 
L 2931 1625 
Q 2931 2084 2911 2256 
Q 2891 2428 2841 2509 
Q 2775 2619 2662 2680 
Q 2550 2741 2406 2741 
Q 2056 2741 1856 2470 
Q 1656 2200 1656 1722 
L 1656 0 
L 538 0 
L 538 4863 
L 1656 4863 
L 1656 2988 
Q 1909 3294 2193 3439 
Q 2478 3584 2822 3584 
Q 3428 3584 3742 3212 
Q 4056 2841 4056 2131 
z
" transform="scale(0.015625)"/>
      <path id="DejaVuSans-Bold-6d" d="M 3781 2919 
Q 3994 3244 4286 3414 
Q 4578 3584 4928 3584 
Q 5531 3584 5847 3212 
Q 6163 2841 6163 2131 
L 6163 0 
L 5038 0 
L 5038 1825 
Q 5041 1866 5042 1909 
Q 5044 1953 5044 2034 
Q 5044 2406 4934 2573 
Q 4825 2741 4581 2741 
Q 4263 2741 4089 2478 
Q 3916 2216 3909 1719 
L 3909 0 
L 2784 0 
L 2784 1825 
Q 2784 2406 2684 2573 
Q 2584 2741 2328 2741 
Q 2006 2741 1831 2477 
Q 1656 2213 1656 1722 
L 1656 0 
L 531 0 
L 531 3500 
L 1656 3500 
L 1656 2988 
Q 1863 3284 2130 3434 
Q 2397 3584 2719 3584 
Q 3081 3584 3359 3409 
Q 3638 3234 3781 2919 
z
" transform="scale(0.015625)"/>
      <path id="DejaVuSans-Bold-2b" d="M 3053 4013 
L 3053 2375 
L 4684 2375 
L 4684 1638 
L 3053 1638 
L 3053 0 
L 2309 0 
L 2309 1638 
L 678 1638 
L 678 2375 
L 2309 2375 
L 2309 4013 
L 3053 4013 
z
" transform="scale(0.015625)"/>
      <path id="DejaVuSans-Bold-6a" d="M 538 3500 
L 1656 3500 
L 1656 63 
Q 1656 -641 1318 -1011 
Q 981 -1381 341 -1381 
L -213 -1381 
L -213 -647 
L -19 -647 
Q 300 -647 419 -503 
Q 538 -359 538 63 
L 538 3500 
z
M 538 4863 
L 1656 4863 
L 1656 3950 
L 538 3950 
L 538 4863 
z
" transform="scale(0.015625)"/>
      <path id="DejaVuSans-Bold-76" d="M 97 3500 
L 1216 3500 
L 2088 1081 
L 2956 3500 
L 4078 3500 
L 2700 0 
L 1472 0 
L 97 3500 
z
" transform="scale(0.015625)"/>
     </defs>
     <use xlink:href="#DejaVuSans-Bold-44"/>
     <use xlink:href="#DejaVuSans-Bold-61" x="83.007812"/>
     <use xlink:href="#DejaVuSans-Bold-74" x="150.488281"/>
     <use xlink:href="#DejaVuSans-Bold-6f" x="198.291016"/>
     <use xlink:href="#DejaVuSans-Bold-73" x="266.992188"/>
     <use xlink:href="#DejaVuSans-Bold-20" x="326.513672"/>
     <use xlink:href="#DejaVuSans-Bold-61" x="361.328125"/>
     <use xlink:href="#DejaVuSans-Bold-67" x="428.808594"/>
     <use xlink:href="#DejaVuSans-Bold-72" x="500.390625"/>
     <use xlink:href="#DejaVuSans-Bold-75" x="549.707031"/>
     <use xlink:href="#DejaVuSans-Bold-70" x="620.898438"/>
     <use xlink:href="#DejaVuSans-Bold-61" x="692.480469"/>
     <use xlink:href="#DejaVuSans-Bold-64" x="759.960938"/>
     <use xlink:href="#DejaVuSans-Bold-6f" x="831.542969"/>
     <use xlink:href="#DejaVuSans-Bold-73" x="900.244141"/>
     <use xlink:href="#DejaVuSans-Bold-3a" x="959.765625"/>
     <use xlink:href="#DejaVuSans-Bold-20" x="999.755859"/>
     <use xlink:href="#DejaVuSans-Bold-68" x="1034.570312"/>
     <use xlink:href="#DejaVuSans-Bold-69" x="1105.761719"/>
     <use xlink:href="#DejaVuSans-Bold-73" x="1140.039062"/>
     <use xlink:href="#DejaVuSans-Bold-74" x="1199.560547"/>
     <use xlink:href="#DejaVuSans-Bold-6f" x="1247.363281"/>
     <use xlink:href="#DejaVuSans-Bold-67" x="1316.064453"/>
     <use xlink:href="#DejaVuSans-Bold-72" x="1387.646484"/>
     <use xlink:href="#DejaVuSans-Bold-61" x="1436.962891"/>
     <use xlink:href="#DejaVuSans-Bold-6d" x="1504.443359"/>
     <use xlink:href="#DejaVuSans-Bold-61" x="1608.642578"/>
     <use xlink:href="#DejaVuSans-Bold-20" x="1676.123047"/>
     <use xlink:href="#DejaVuSans-Bold-2b" x="1710.9375"/>
     <use xlink:href="#DejaVuSans-Bold-20" x="1794.726562"/>
     <use xlink:href="#DejaVuSans-Bold-6f" x="1829.541016"/>
     <use xlink:href="#DejaVuSans-Bold-6a" x="1898.242188"/>
     <use xlink:href="#DejaVuSans-Bold-69" x="1932.519531"/>
     <use xlink:href="#DejaVuSans-Bold-76" x="1966.796875"/>
     <use xlink:href="#DejaVuSans-Bold-61" x="2031.982422"/>
    </g>
   </g>
   <g id="legend_1">
    <g id="patch_15">
     <path d="M 62.565469 66.907187 
L 199.295703 66.907187 
Q 201.195703 66.907187 201.195703 65.007187 
L 201.195703 38.047969 
Q 201.195703 36.147969 199.295703 36.147969 
L 62.565469 36.147969 
Q 60.665469 36.147969 60.665469 38.047969 
L 60.665469 65.007187 
Q 60.665469 66.907187 62.565469 66.907187 
z
" style="fill: #ffffff; opacity: 0.92; stroke: #cccccc; stroke-linejoin: miter"/>
    </g>
    <g id="patch_16">
     <path d="M 64.465469 47.167969 
L 83.465469 47.167969 
L 83.465469 40.517969 
L 64.465469 40.517969 
z
" style="fill: #2980b9; opacity: 0.55; stroke: #ffffff; stroke-width: 0.8; stroke-linejoin: miter"/>
    </g>
    <g id="text_21">
     <!-- Histograma $f_i$ -->
     <g transform="translate(91.065469 47.167969) scale(0.095 -0.095)">
      <defs>
       <path id="DejaVuSans-48" d="M 628 4666 
L 1259 4666 
L 1259 2753 
L 3553 2753 
L 3553 4666 
L 4184 4666 
L 4184 0 
L 3553 0 
L 3553 2222 
L 1259 2222 
L 1259 0 
L 628 0 
L 628 4666 
z
" transform="scale(0.015625)"/>
       <path id="DejaVuSans-69" d="M 603 3500 
L 1178 3500 
L 1178 0 
L 603 0 
L 603 3500 
z
M 603 4863 
L 1178 4863 
L 1178 4134 
L 603 4134 
L 603 4863 
z
" transform="scale(0.015625)"/>
       <path id="DejaVuSans-73" d="M 2834 3397 
L 2834 2853 
Q 2591 2978 2328 3040 
Q 2066 3103 1784 3103 
Q 1356 3103 1142 2972 
Q 928 2841 928 2578 
Q 928 2378 1081 2264 
Q 1234 2150 1697 2047 
L 1894 2003 
Q 2506 1872 2764 1633 
Q 3022 1394 3022 966 
Q 3022 478 2636 193 
Q 2250 -91 1575 -91 
Q 1294 -91 989 -36 
Q 684 19 347 128 
L 347 722 
Q 666 556 975 473 
Q 1284 391 1588 391 
Q 1994 391 2212 530 
Q 2431 669 2431 922 
Q 2431 1156 2273 1281 
Q 2116 1406 1581 1522 
L 1381 1569 
Q 847 1681 609 1914 
Q 372 2147 372 2553 
Q 372 3047 722 3315 
Q 1072 3584 1716 3584 
Q 2034 3584 2315 3537 
Q 2597 3491 2834 3397 
z
" transform="scale(0.015625)"/>
       <path id="DejaVuSans-74" d="M 1172 4494 
L 1172 3500 
L 2356 3500 
L 2356 3053 
L 1172 3053 
L 1172 1153 
Q 1172 725 1289 603 
Q 1406 481 1766 481 
L 2356 481 
L 2356 0 
L 1766 0 
Q 1100 0 847 248 
Q 594 497 594 1153 
L 594 3053 
L 172 3053 
L 172 3500 
L 594 3500 
L 594 4494 
L 1172 4494 
z
" transform="scale(0.015625)"/>
       <path id="DejaVuSans-6f" d="M 1959 3097 
Q 1497 3097 1228 2736 
Q 959 2375 959 1747 
Q 959 1119 1226 758 
Q 1494 397 1959 397 
Q 2419 397 2687 759 
Q 2956 1122 2956 1747 
Q 2956 2369 2687 2733 
Q 2419 3097 1959 3097 
z
M 1959 3584 
Q 2709 3584 3137 3096 
Q 3566 2609 3566 1747 
Q 3566 888 3137 398 
Q 2709 -91 1959 -91 
Q 1206 -91 779 398 
Q 353 888 353 1747 
Q 353 2609 779 3096 
Q 1206 3584 1959 3584 
z
" transform="scale(0.015625)"/>
       <path id="DejaVuSans-67" d="M 2906 1791 
Q 2906 2416 2648 2759 
Q 2391 3103 1925 3103 
Q 1463 3103 1205 2759 
Q 947 2416 947 1791 
Q 947 1169 1205 825 
Q 1463 481 1925 481 
Q 2391 481 2648 825 
Q 2906 1169 2906 1791 
z
M 3481 434 
Q 3481 -459 3084 -895 
Q 2688 -1331 1869 -1331 
Q 1566 -1331 1297 -1286 
Q 1028 -1241 775 -1147 
L 775 -588 
Q 1028 -725 1275 -790 
Q 1522 -856 1778 -856 
Q 2344 -856 2625 -561 
Q 2906 -266 2906 331 
L 2906 616 
Q 2728 306 2450 153 
Q 2172 0 1784 0 
Q 1141 0 747 490 
Q 353 981 353 1791 
Q 353 2603 747 3093 
Q 1141 3584 1784 3584 
Q 2172 3584 2450 3431 
Q 2728 3278 2906 2969 
L 2906 3500 
L 3481 3500 
L 3481 434 
z
" transform="scale(0.015625)"/>
       <path id="DejaVuSans-72" d="M 2631 2963 
Q 2534 3019 2420 3045 
Q 2306 3072 2169 3072 
Q 1681 3072 1420 2755 
Q 1159 2438 1159 1844 
L 1159 0 
L 581 0 
L 581 3500 
L 1159 3500 
L 1159 2956 
Q 1341 3275 1631 3429 
Q 1922 3584 2338 3584 
Q 2397 3584 2469 3576 
Q 2541 3569 2628 3553 
L 2631 2963 
z
" transform="scale(0.015625)"/>
       <path id="DejaVuSans-61" d="M 2194 1759 
Q 1497 1759 1228 1600 
Q 959 1441 959 1056 
Q 959 750 1161 570 
Q 1363 391 1709 391 
Q 2188 391 2477 730 
Q 2766 1069 2766 1631 
L 2766 1759 
L 2194 1759 
z
M 3341 1997 
L 3341 0 
L 2766 0 
L 2766 531 
Q 2569 213 2275 61 
Q 1981 -91 1556 -91 
Q 1019 -91 701 211 
Q 384 513 384 1019 
Q 384 1609 779 1909 
Q 1175 2209 1959 2209 
L 2766 2209 
L 2766 2266 
Q 2766 2663 2505 2880 
Q 2244 3097 1772 3097 
Q 1472 3097 1187 3025 
Q 903 2953 641 2809 
L 641 3341 
Q 956 3463 1253 3523 
Q 1550 3584 1831 3584 
Q 2591 3584 2966 3190 
Q 3341 2797 3341 1997 
z
" transform="scale(0.015625)"/>
       <path id="DejaVuSans-6d" d="M 3328 2828 
Q 3544 3216 3844 3400 
Q 4144 3584 4550 3584 
Q 5097 3584 5394 3201 
Q 5691 2819 5691 2113 
L 5691 0 
L 5113 0 
L 5113 2094 
Q 5113 2597 4934 2840 
Q 4756 3084 4391 3084 
Q 3944 3084 3684 2787 
Q 3425 2491 3425 1978 
L 3425 0 
L 2847 0 
L 2847 2094 
Q 2847 2600 2669 2842 
Q 2491 3084 2119 3084 
Q 1678 3084 1418 2786 
Q 1159 2488 1159 1978 
L 1159 0 
L 581 0 
L 581 3500 
L 1159 3500 
L 1159 2956 
Q 1356 3278 1631 3431 
Q 1906 3584 2284 3584 
Q 2666 3584 2933 3390 
Q 3200 3197 3328 2828 
z
" transform="scale(0.015625)"/>
       <path id="DejaVuSans-20" transform="scale(0.015625)"/>
      </defs>
      <use xlink:href="#DejaVuSans-48" transform="translate(0 0.015625)"/>
      <use xlink:href="#DejaVuSans-69" transform="translate(75.195312 0.015625)"/>
      <use xlink:href="#DejaVuSans-73" transform="translate(102.978516 0.015625)"/>
      <use xlink:href="#DejaVuSans-74" transform="translate(155.078125 0.015625)"/>
      <use xlink:href="#DejaVuSans-6f" transform="translate(194.287109 0.015625)"/>
      <use xlink:href="#DejaVuSans-67" transform="translate(255.46875 0.015625)"/>
      <use xlink:href="#DejaVuSans-72" transform="translate(318.945312 0.015625)"/>
      <use xlink:href="#DejaVuSans-61" transform="translate(360.058594 0.015625)"/>
      <use xlink:href="#DejaVuSans-6d" transform="translate(421.337891 0.015625)"/>
      <use xlink:href="#DejaVuSans-61" transform="translate(518.75 0.015625)"/>
      <use xlink:href="#DejaVuSans-20" transform="translate(580.029297 0.015625)"/>
      <use xlink:href="#DejaVuSans-Oblique-66" transform="translate(611.816406 0.015625)"/>
      <use xlink:href="#DejaVuSans-Oblique-69" transform="translate(647.021484 -16.390625) scale(0.7)"/>
     </g>
    </g>
    <g id="line2d_35">
     <path d="M 64.465469 57.806484 
L 73.965469 57.806484 
L 83.465469 57.806484 
" style="fill: none; stroke: #c0392b; stroke-width: 2.6; stroke-linecap: square"/>
     <defs>
      <path id="m403577b626" d="M 0 2.25 
C 0.596707 2.25 1.169055 2.012926 1.59099 1.59099 
C 2.012926 1.169055 2.25 0.596707 2.25 0 
C 2.25 -0.596707 2.012926 -1.169055 1.59099 -1.59099 
C 1.169055 -2.012926 0.596707 -2.25 0 -2.25 
C -0.596707 -2.25 -1.169055 -2.012926 -1.59099 -1.59099 
C -2.012926 -1.169055 -2.25 -0.596707 -2.25 0 
C -2.25 0.596707 -2.012926 1.169055 -1.59099 1.59099 
C -1.169055 2.012926 -0.596707 2.25 0 2.25 
z
" style="stroke: #c0392b"/>
     </defs>
     <g>
      <use xlink:href="#m403577b626" x="73.965469" y="57.806484" style="fill: #c0392b; stroke: #c0392b"/>
     </g>
    </g>
    <g id="text_22">
     <!-- Ojiva (frec. rel. acum.) -->
     <g transform="translate(91.065469 61.131484) scale(0.095 -0.095)">
      <defs>
       <path id="DejaVuSans-4f" d="M 2522 4238 
Q 1834 4238 1429 3725 
Q 1025 3213 1025 2328 
Q 1025 1447 1429 934 
Q 1834 422 2522 422 
Q 3209 422 3611 934 
Q 4013 1447 4013 2328 
Q 4013 3213 3611 3725 
Q 3209 4238 2522 4238 
z
M 2522 4750 
Q 3503 4750 4090 4092 
Q 4678 3434 4678 2328 
Q 4678 1225 4090 567 
Q 3503 -91 2522 -91 
Q 1538 -91 948 565 
Q 359 1222 359 2328 
Q 359 3434 948 4092 
Q 1538 4750 2522 4750 
z
" transform="scale(0.015625)"/>
       <path id="DejaVuSans-6a" d="M 603 3500 
L 1178 3500 
L 1178 -63 
Q 1178 -731 923 -1031 
Q 669 -1331 103 -1331 
L -116 -1331 
L -116 -844 
L 38 -844 
Q 366 -844 484 -692 
Q 603 -541 603 -63 
L 603 3500 
z
M 603 4863 
L 1178 4863 
L 1178 4134 
L 603 4134 
L 603 4863 
z
" transform="scale(0.015625)"/>
       <path id="DejaVuSans-76" d="M 191 3500 
L 800 3500 
L 1894 563 
L 2988 3500 
L 3597 3500 
L 2284 0 
L 1503 0 
L 191 3500 
z
" transform="scale(0.015625)"/>
       <path id="DejaVuSans-28" d="M 1984 4856 
Q 1566 4138 1362 3434 
Q 1159 2731 1159 2009 
Q 1159 1288 1364 580 
Q 1569 -128 1984 -844 
L 1484 -844 
Q 1016 -109 783 600 
Q 550 1309 550 2009 
Q 550 2706 781 3412 
Q 1013 4119 1484 4856 
L 1984 4856 
z
" transform="scale(0.015625)"/>
       <path id="DejaVuSans-66" d="M 2375 4863 
L 2375 4384 
L 1825 4384 
Q 1516 4384 1395 4259 
Q 1275 4134 1275 3809 
L 1275 3500 
L 2222 3500 
L 2222 3053 
L 1275 3053 
L 1275 0 
L 697 0 
L 697 3053 
L 147 3053 
L 147 3500 
L 697 3500 
L 697 3744 
Q 697 4328 969 4595 
Q 1241 4863 1831 4863 
L 2375 4863 
z
" transform="scale(0.015625)"/>
       <path id="DejaVuSans-65" d="M 3597 1894 
L 3597 1613 
L 953 1613 
Q 991 1019 1311 708 
Q 1631 397 2203 397 
Q 2534 397 2845 478 
Q 3156 559 3463 722 
L 3463 178 
Q 3153 47 2828 -22 
Q 2503 -91 2169 -91 
Q 1331 -91 842 396 
Q 353 884 353 1716 
Q 353 2575 817 3079 
Q 1281 3584 2069 3584 
Q 2775 3584 3186 3129 
Q 3597 2675 3597 1894 
z
M 3022 2063 
Q 3016 2534 2758 2815 
Q 2500 3097 2075 3097 
Q 1594 3097 1305 2825 
Q 1016 2553 972 2059 
L 3022 2063 
z
" transform="scale(0.015625)"/>
       <path id="DejaVuSans-63" d="M 3122 3366 
L 3122 2828 
Q 2878 2963 2633 3030 
Q 2388 3097 2138 3097 
Q 1578 3097 1268 2742 
Q 959 2388 959 1747 
Q 959 1106 1268 751 
Q 1578 397 2138 397 
Q 2388 397 2633 464 
Q 2878 531 3122 666 
L 3122 134 
Q 2881 22 2623 -34 
Q 2366 -91 2075 -91 
Q 1284 -91 818 406 
Q 353 903 353 1747 
Q 353 2603 823 3093 
Q 1294 3584 2113 3584 
Q 2378 3584 2631 3529 
Q 2884 3475 3122 3366 
z
" transform="scale(0.015625)"/>
       <path id="DejaVuSans-6c" d="M 603 4863 
L 1178 4863 
L 1178 0 
L 603 0 
L 603 4863 
z
" transform="scale(0.015625)"/>
       <path id="DejaVuSans-75" d="M 544 1381 
L 544 3500 
L 1119 3500 
L 1119 1403 
Q 1119 906 1312 657 
Q 1506 409 1894 409 
Q 2359 409 2629 706 
Q 2900 1003 2900 1516 
L 2900 3500 
L 3475 3500 
L 3475 0 
L 2900 0 
L 2900 538 
Q 2691 219 2414 64 
Q 2138 -91 1772 -91 
Q 1169 -91 856 284 
Q 544 659 544 1381 
z
M 1991 3584 
L 1991 3584 
z
" transform="scale(0.015625)"/>
       <path id="DejaVuSans-29" d="M 513 4856 
L 1013 4856 
Q 1481 4119 1714 3412 
Q 1947 2706 1947 2009 
Q 1947 1309 1714 600 
Q 1481 -109 1013 -844 
L 513 -844 
Q 928 -128 1133 580 
Q 1338 1288 1338 2009 
Q 1338 2731 1133 3434 
Q 928 4138 513 4856 
z
" transform="scale(0.015625)"/>
      </defs>
      <use xlink:href="#DejaVuSans-4f"/>
      <use xlink:href="#DejaVuSans-6a" x="78.710938"/>
      <use xlink:href="#DejaVuSans-69" x="106.494141"/>
      <use xlink:href="#DejaVuSans-76" x="134.277344"/>
      <use xlink:href="#DejaVuSans-61" x="193.457031"/>
      <use xlink:href="#DejaVuSans-20" x="254.736328"/>
      <use xlink:href="#DejaVuSans-28" x="286.523438"/>
      <use xlink:href="#DejaVuSans-66" x="325.537109"/>
      <use xlink:href="#DejaVuSans-72" x="360.742188"/>
      <use xlink:href="#DejaVuSans-65" x="399.605469"/>
      <use xlink:href="#DejaVuSans-63" x="461.128906"/>
      <use xlink:href="#DejaVuSans-2e" x="516.109375"/>
      <use xlink:href="#DejaVuSans-20" x="547.896484"/>
      <use xlink:href="#DejaVuSans-72" x="579.683594"/>
      <use xlink:href="#DejaVuSans-65" x="618.546875"/>
      <use xlink:href="#DejaVuSans-6c" x="680.070312"/>
      <use xlink:href="#DejaVuSans-2e" x="707.853516"/>
      <use xlink:href="#DejaVuSans-20" x="739.640625"/>
      <use xlink:href="#DejaVuSans-61" x="771.427734"/>
      <use xlink:href="#DejaVuSans-63" x="832.707031"/>
      <use xlink:href="#DejaVuSans-75" x="887.6875"/>
      <use xlink:href="#DejaVuSans-6d" x="951.066406"/>
      <use xlink:href="#DejaVuSans-2e" x="1048.478516"/>
      <use xlink:href="#DejaVuSans-29" x="1080.265625"/>
     </g>
    </g>
   </g>
  </g>
  <g id="axes_2">
   <g id="matplotlib.axis_3">
    <g id="ytick_9">
     <g id="line2d_36">
      <defs>
       <path id="m8ec36682de" d="M 0 0 
L 3.5 0 
" style="stroke: #c0392b; stroke-width: 0.8"/>
      </defs>
      <g>
       <use xlink:href="#m8ec36682de" x="457.675469" y="269.789969" style="fill: #c0392b; stroke: #c0392b; stroke-width: 0.8"/>
      </g>
     </g>
     <g id="text_23">
      <!-- 0.0 -->
      <g style="fill: #c0392b" transform="translate(464.675469 273.589187) scale(0.1 -0.1)">
       <use xlink:href="#DejaVuSans-30"/>
       <use xlink:href="#DejaVuSans-2e" x="63.623047"/>
       <use xlink:href="#DejaVuSans-30" x="95.410156"/>
      </g>
     </g>
    </g>
    <g id="ytick_10">
     <g id="line2d_37">
      <g>
       <use xlink:href="#m8ec36682de" x="457.675469" y="223.046439" style="fill: #c0392b; stroke: #c0392b; stroke-width: 0.8"/>
      </g>
     </g>
     <g id="text_24">
      <!-- 0.2 -->
      <g style="fill: #c0392b" transform="translate(464.675469 226.845658) scale(0.1 -0.1)">
       <use xlink:href="#DejaVuSans-30"/>
       <use xlink:href="#DejaVuSans-2e" x="63.623047"/>
       <use xlink:href="#DejaVuSans-32" x="95.410156"/>
      </g>
     </g>
    </g>
    <g id="ytick_11">
     <g id="line2d_38">
      <g>
       <use xlink:href="#m8ec36682de" x="457.675469" y="176.30291" style="fill: #c0392b; stroke: #c0392b; stroke-width: 0.8"/>
      </g>
     </g>
     <g id="text_25">
      <!-- 0.4 -->
      <g style="fill: #c0392b" transform="translate(464.675469 180.102129) scale(0.1 -0.1)">
       <use xlink:href="#DejaVuSans-30"/>
       <use xlink:href="#DejaVuSans-2e" x="63.623047"/>
       <use xlink:href="#DejaVuSans-34" x="95.410156"/>
      </g>
     </g>
    </g>
    <g id="ytick_12">
     <g id="line2d_39">
      <g>
       <use xlink:href="#m8ec36682de" x="457.675469" y="129.559381" style="fill: #c0392b; stroke: #c0392b; stroke-width: 0.8"/>
      </g>
     </g>
     <g id="text_26">
      <!-- 0.6 -->
      <g style="fill: #c0392b" transform="translate(464.675469 133.358599) scale(0.1 -0.1)">
       <defs>
        <path id="DejaVuSans-36" d="M 2113 2584 
Q 1688 2584 1439 2293 
Q 1191 2003 1191 1497 
Q 1191 994 1439 701 
Q 1688 409 2113 409 
Q 2538 409 2786 701 
Q 3034 994 3034 1497 
Q 3034 2003 2786 2293 
Q 2538 2584 2113 2584 
z
M 3366 4563 
L 3366 3988 
Q 3128 4100 2886 4159 
Q 2644 4219 2406 4219 
Q 1781 4219 1451 3797 
Q 1122 3375 1075 2522 
Q 1259 2794 1537 2939 
Q 1816 3084 2150 3084 
Q 2853 3084 3261 2657 
Q 3669 2231 3669 1497 
Q 3669 778 3244 343 
Q 2819 -91 2113 -91 
Q 1303 -91 875 529 
Q 447 1150 447 2328 
Q 447 3434 972 4092 
Q 1497 4750 2381 4750 
Q 2619 4750 2861 4703 
Q 3103 4656 3366 4563 
z
" transform="scale(0.015625)"/>
       </defs>
       <use xlink:href="#DejaVuSans-30"/>
       <use xlink:href="#DejaVuSans-2e" x="63.623047"/>
       <use xlink:href="#DejaVuSans-36" x="95.410156"/>
      </g>
     </g>
    </g>
    <g id="ytick_13">
     <g id="line2d_40">
      <g>
       <use xlink:href="#m8ec36682de" x="457.675469" y="82.815851" style="fill: #c0392b; stroke: #c0392b; stroke-width: 0.8"/>
      </g>
     </g>
     <g id="text_27">
      <!-- 0.8 -->
      <g style="fill: #c0392b" transform="translate(464.675469 86.61507) scale(0.1 -0.1)">
       <defs>
        <path id="DejaVuSans-38" d="M 2034 2216 
Q 1584 2216 1326 1975 
Q 1069 1734 1069 1313 
Q 1069 891 1326 650 
Q 1584 409 2034 409 
Q 2484 409 2743 651 
Q 3003 894 3003 1313 
Q 3003 1734 2745 1975 
Q 2488 2216 2034 2216 
z
M 1403 2484 
Q 997 2584 770 2862 
Q 544 3141 544 3541 
Q 544 4100 942 4425 
Q 1341 4750 2034 4750 
Q 2731 4750 3128 4425 
Q 3525 4100 3525 3541 
Q 3525 3141 3298 2862 
Q 3072 2584 2669 2484 
Q 3125 2378 3379 2068 
Q 3634 1759 3634 1313 
Q 3634 634 3220 271 
Q 2806 -91 2034 -91 
Q 1263 -91 848 271 
Q 434 634 434 1313 
Q 434 1759 690 2068 
Q 947 2378 1403 2484 
z
M 1172 3481 
Q 1172 3119 1398 2916 
Q 1625 2713 2034 2713 
Q 2441 2713 2670 2916 
Q 2900 3119 2900 3481 
Q 2900 3844 2670 4047 
Q 2441 4250 2034 4250 
Q 1625 4250 1398 4047 
Q 1172 3844 1172 3481 
z
" transform="scale(0.015625)"/>
       </defs>
       <use xlink:href="#DejaVuSans-30"/>
       <use xlink:href="#DejaVuSans-2e" x="63.623047"/>
       <use xlink:href="#DejaVuSans-38" x="95.410156"/>
      </g>
     </g>
    </g>
    <g id="ytick_14">
     <g id="line2d_41">
      <g>
       <use xlink:href="#m8ec36682de" x="457.675469" y="36.072322" style="fill: #c0392b; stroke: #c0392b; stroke-width: 0.8"/>
      </g>
     </g>
     <g id="text_28">
      <!-- 1.0 -->
      <g style="fill: #c0392b" transform="translate(464.675469 39.87154) scale(0.1 -0.1)">
       <use xlink:href="#DejaVuSans-31"/>
       <use xlink:href="#DejaVuSans-2e" x="63.623047"/>
       <use xlink:href="#DejaVuSans-30" x="95.410156"/>
      </g>
     </g>
    </g>
    <g id="text_29">
     <!-- Frecuencia relativa acumulada -->
     <g style="fill: #c0392b" transform="translate(493.316797 249.900062) rotate(-90) scale(0.115 -0.115)">
      <use xlink:href="#DejaVuSans-Bold-46"/>
      <use xlink:href="#DejaVuSans-Bold-72" x="61.935547"/>
      <use xlink:href="#DejaVuSans-Bold-65" x="111.251953"/>
      <use xlink:href="#DejaVuSans-Bold-63" x="179.074219"/>
      <use xlink:href="#DejaVuSans-Bold-75" x="238.351562"/>
      <use xlink:href="#DejaVuSans-Bold-65" x="309.542969"/>
      <use xlink:href="#DejaVuSans-Bold-6e" x="377.365234"/>
      <use xlink:href="#DejaVuSans-Bold-63" x="448.556641"/>
      <use xlink:href="#DejaVuSans-Bold-69" x="507.833984"/>
      <use xlink:href="#DejaVuSans-Bold-61" x="542.111328"/>
      <use xlink:href="#DejaVuSans-Bold-20" x="609.591797"/>
      <use xlink:href="#DejaVuSans-Bold-72" x="644.40625"/>
      <use xlink:href="#DejaVuSans-Bold-65" x="693.722656"/>
      <use xlink:href="#DejaVuSans-Bold-6c" x="761.544922"/>
      <use xlink:href="#DejaVuSans-Bold-61" x="795.822266"/>
      <use xlink:href="#DejaVuSans-Bold-74" x="863.302734"/>
      <use xlink:href="#DejaVuSans-Bold-69" x="911.105469"/>
      <use xlink:href="#DejaVuSans-Bold-76" x="945.382812"/>
      <use xlink:href="#DejaVuSans-Bold-61" x="1010.568359"/>
      <use xlink:href="#DejaVuSans-Bold-20" x="1078.048828"/>
      <use xlink:href="#DejaVuSans-Bold-61" x="1112.863281"/>
      <use xlink:href="#DejaVuSans-Bold-63" x="1180.34375"/>
      <use xlink:href="#DejaVuSans-Bold-75" x="1239.621094"/>
      <use xlink:href="#DejaVuSans-Bold-6d" x="1310.8125"/>
      <use xlink:href="#DejaVuSans-Bold-75" x="1415.011719"/>
      <use xlink:href="#DejaVuSans-Bold-6c" x="1486.203125"/>
      <use xlink:href="#DejaVuSans-Bold-61" x="1520.480469"/>
      <use xlink:href="#DejaVuSans-Bold-64" x="1587.960938"/>
      <use xlink:href="#DejaVuSans-Bold-61" x="1659.542969"/>
     </g>
    </g>
   </g>
   <g id="line2d_42">
    <path d="M 74.177287 269.789969 
L 110.700923 265.115616 
L 147.22456 258.104086 
L 183.748196 225.383616 
L 220.271832 202.011851 
L 256.795469 166.954204 
L 293.319105 124.885028 
L 329.842741 87.490204 
L 366.366378 54.769733 
L 402.890014 45.421028 
L 439.413651 36.072322 
" clip-path="url(#p2a6e336891)" style="fill: none; stroke: #c0392b; stroke-width: 2.6; stroke-linecap: square"/>
    <g clip-path="url(#p2a6e336891)">
     <use xlink:href="#m403577b626" x="74.177287" y="269.789969" style="fill: #c0392b; stroke: #c0392b"/>
     <use xlink:href="#m403577b626" x="110.700923" y="265.115616" style="fill: #c0392b; stroke: #c0392b"/>
     <use xlink:href="#m403577b626" x="147.22456" y="258.104086" style="fill: #c0392b; stroke: #c0392b"/>
     <use xlink:href="#m403577b626" x="183.748196" y="225.383616" style="fill: #c0392b; stroke: #c0392b"/>
     <use xlink:href="#m403577b626" x="220.271832" y="202.011851" style="fill: #c0392b; stroke: #c0392b"/>
     <use xlink:href="#m403577b626" x="256.795469" y="166.954204" style="fill: #c0392b; stroke: #c0392b"/>
     <use xlink:href="#m403577b626" x="293.319105" y="124.885028" style="fill: #c0392b; stroke: #c0392b"/>
     <use xlink:href="#m403577b626" x="329.842741" y="87.490204" style="fill: #c0392b; stroke: #c0392b"/>
     <use xlink:href="#m403577b626" x="366.366378" y="54.769733" style="fill: #c0392b; stroke: #c0392b"/>
     <use xlink:href="#m403577b626" x="402.890014" y="45.421028" style="fill: #c0392b; stroke: #c0392b"/>
     <use xlink:href="#m403577b626" x="439.413651" y="36.072322" style="fill: #c0392b; stroke: #c0392b"/>
    </g>
   </g>
   <g id="patch_17">
    <path d="M 55.915469 269.789969 
L 55.915469 31.397969 
" style="fill: none; stroke: #2c3e50; stroke-width: 1.2; stroke-linejoin: miter; stroke-linecap: square"/>
   </g>
   <g id="patch_18">
    <path d="M 457.675469 269.789969 
L 457.675469 31.397969 
" style="fill: none; stroke: #2c3e50; stroke-width: 1.2; stroke-linejoin: miter; stroke-linecap: square"/>
   </g>
   <g id="patch_19">
    <path d="M 55.915469 269.789969 
L 457.675469 269.789969 
" style="fill: none; stroke: #2c3e50; stroke-width: 1.2; stroke-linejoin: miter; stroke-linecap: square"/>
   </g>
  </g>
 </g>
 <defs>
  <clipPath id="p2a6e336891">
   <rect x="55.915469" y="31.397969" width="401.76" height="238.392"/>
  </clipPath>
 </defs>
</svg>
