<?xml version="1.0" encoding="utf-8" standalone="no"?>
<!DOCTYPE svg PUBLIC "-//W3C//DTD SVG 1.1//EN"
  "http://www.w3.org/Graphics/SVG/1.1/DTD/svg11.dtd">
<svg xmlns:xlink="http://www.w3.org/1999/xlink" width="435.715469pt" height="310.221969pt" viewBox="0 0 435.715469 310.221969" xmlns="http://www.w3.org/2000/svg" version="1.1">
 <metadata>
  <rdf:RDF xmlns:dc="http://purl.org/dc/elements/1.1/" xmlns:cc="http://creativecommons.org/ns#" xmlns:rdf="http://www.w3.org/1999/02/22-rdf-syntax-ns#">
   <cc:Work>
    <dc:type rdf:resource="http://purl.org/dc/dcmitype/StillImage"/>
    <dc:date>2026-06-30T11:52:39.478652</dc:date>
    <dc:format>image/svg+xml</dc:format>
    <dc:creator>
     <cc:Agent>
      <dc:title>Matplotlib v3.9.2, https://matplotlib.org/</dc:title>
     </cc:Agent>
    </dc:creator>
   </cc:Work>
  </rdf:RDF>
 </metadata>
 <defs>
  <style type="text/css">*{stroke-linejoin: round; stroke-linecap: butt}</style>
 </defs>
 <g id="figure_1">
  <g id="patch_1">
   <path d="M 0 310.221969 
L 435.715469 310.221969 
L 435.715469 -0 
L 0 -0 
z
" style="fill: #ffffff"/>
  </g>
  <g id="axes_1">
   <g id="patch_2">
    <path d="M 55.915469 266.894 
L 424.195469 266.894 
L 424.195469 39.59 
L 55.915469 39.59 
z
" style="fill: #ffffff"/>
   </g>
   <g id="matplotlib.axis_1">
    <g id="xtick_1">
     <g id="line2d_1">
      <path d="M 55.915469 266.894 
L 55.915469 39.59 
" clip-path="url(#p95b443b77f)" style="fill: none; stroke-dasharray: 0.8,1.28; stroke-dashoffset: 0; stroke: #b0b0b0; stroke-opacity: 0.3; stroke-width: 0.8"/>
     </g>
     <g id="line2d_2">
      <defs>
       <path id="m3ba6dfdd0e" d="M 0 0 
L 0 3.5 
" style="stroke: #2c3e50; stroke-width: 0.8"/>
      </defs>
      <g>
       <use xlink:href="#m3ba6dfdd0e" x="55.915469" y="266.894" style="fill: #2c3e50; stroke: #2c3e50; stroke-width: 0.8"/>
      </g>
     </g>
     <g id="text_1">
      <!-- 0 -->
      <g style="fill: #2c3e50" transform="translate(52.734219 281.492437) scale(0.1 -0.1)">
       <defs>
        <path id="DejaVuSans-30" d="M 2034 4250 
Q 1547 4250 1301 3770 
Q 1056 3291 1056 2328 
Q 1056 1369 1301 889 
Q 1547 409 2034 409 
Q 2525 409 2770 889 
Q 3016 1369 3016 2328 
Q 3016 3291 2770 3770 
Q 2525 4250 2034 4250 
z
M 2034 4750 
Q 2819 4750 3233 4129 
Q 3647 3509 3647 2328 
Q 3647 1150 3233 529 
Q 2819 -91 2034 -91 
Q 1250 -91 836 529 
Q 422 1150 422 2328 
Q 422 3509 836 4129 
Q 1250 4750 2034 4750 
z
" transform="scale(0.015625)"/>
       </defs>
       <use xlink:href="#DejaVuSans-30"/>
      </g>
     </g>
    </g>
    <g id="xtick_2">
     <g id="line2d_3">
      <path d="M 122.875469 266.894 
L 122.875469 39.59 
" clip-path="url(#p95b443b77f)" style="fill: none; stroke-dasharray: 0.8,1.28; stroke-dashoffset: 0; stroke: #b0b0b0; stroke-opacity: 0.3; stroke-width: 0.8"/>
     </g>
     <g id="line2d_4">
      <g>
       <use xlink:href="#m3ba6dfdd0e" x="122.875469" y="266.894" style="fill: #2c3e50; stroke: #2c3e50; stroke-width: 0.8"/>
      </g>
     </g>
     <g id="text_2">
      <!-- 2 -->
      <g style="fill: #2c3e50" transform="translate(119.694219 281.492437) scale(0.1 -0.1)">
       <defs>
        <path id="DejaVuSans-32" d="M 1228 531 
L 3431 531 
L 3431 0 
L 469 0 
L 469 531 
Q 828 903 1448 1529 
Q 2069 2156 2228 2338 
Q 2531 2678 2651 2914 
Q 2772 3150 2772 3378 
Q 2772 3750 2511 3984 
Q 2250 4219 1831 4219 
Q 1534 4219 1204 4116 
Q 875 4013 500 3803 
L 500 4441 
Q 881 4594 1212 4672 
Q 1544 4750 1819 4750 
Q 2544 4750 2975 4387 
Q 3406 4025 3406 3419 
Q 3406 3131 3298 2873 
Q 3191 2616 2906 2266 
Q 2828 2175 2409 1742 
Q 1991 1309 1228 531 
z
" transform="scale(0.015625)"/>
       </defs>
       <use xlink:href="#DejaVuSans-32"/>
      </g>
     </g>
    </g>
    <g id="xtick_3">
     <g id="line2d_5">
      <path d="M 189.835469 266.894 
L 189.835469 39.59 
" clip-path="url(#p95b443b77f)" style="fill: none; stroke-dasharray: 0.8,1.28; stroke-dashoffset: 0; stroke: #b0b0b0; stroke-opacity: 0.3; stroke-width: 0.8"/>
     </g>
     <g id="line2d_6">
      <g>
       <use xlink:href="#m3ba6dfdd0e" x="189.835469" y="266.894" style="fill: #2c3e50; stroke: #2c3e50; stroke-width: 0.8"/>
      </g>
     </g>
     <g id="text_3">
      <!-- 4 -->
      <g style="fill: #2c3e50" transform="translate(186.654219 281.492437) scale(0.1 -0.1)">
       <defs>
        <path id="DejaVuSans-34" d="M 2419 4116 
L 825 1625 
L 2419 1625 
L 2419 4116 
z
M 2253 4666 
L 3047 4666 
L 3047 1625 
L 3713 1625 
L 3713 1100 
L 3047 1100 
L 3047 0 
L 2419 0 
L 2419 1100 
L 313 1100 
L 313 1709 
L 2253 4666 
z
" transform="scale(0.015625)"/>
       </defs>
       <use xlink:href="#DejaVuSans-34"/>
      </g>
     </g>
    </g>
    <g id="xtick_4">
     <g id="line2d_7">
      <path d="M 256.795469 266.894 
L 256.795469 39.59 
" clip-path="url(#p95b443b77f)" style="fill: none; stroke-dasharray: 0.8,1.28; stroke-dashoffset: 0; stroke: #b0b0b0; stroke-opacity: 0.3; stroke-width: 0.8"/>
     </g>
     <g id="line2d_8">
      <g>
       <use xlink:href="#m3ba6dfdd0e" x="256.795469" y="266.894" style="fill: #2c3e50; stroke: #2c3e50; stroke-width: 0.8"/>
      </g>
     </g>
     <g id="text_4">
      <!-- 6 -->
      <g style="fill: #2c3e50" transform="translate(253.614219 281.492437) scale(0.1 -0.1)">
       <defs>
        <path id="DejaVuSans-36" d="M 2113 2584 
Q 1688 2584 1439 2293 
Q 1191 2003 1191 1497 
Q 1191 994 1439 701 
Q 1688 409 2113 409 
Q 2538 409 2786 701 
Q 3034 994 3034 1497 
Q 3034 2003 2786 2293 
Q 2538 2584 2113 2584 
z
M 3366 4563 
L 3366 3988 
Q 3128 4100 2886 4159 
Q 2644 4219 2406 4219 
Q 1781 4219 1451 3797 
Q 1122 3375 1075 2522 
Q 1259 2794 1537 2939 
Q 1816 3084 2150 3084 
Q 2853 3084 3261 2657 
Q 3669 2231 3669 1497 
Q 3669 778 3244 343 
Q 2819 -91 2113 -91 
Q 1303 -91 875 529 
Q 447 1150 447 2328 
Q 447 3434 972 4092 
Q 1497 4750 2381 4750 
Q 2619 4750 2861 4703 
Q 3103 4656 3366 4563 
z
" transform="scale(0.015625)"/>
       </defs>
       <use xlink:href="#DejaVuSans-36"/>
      </g>
     </g>
    </g>
    <g id="xtick_5">
     <g id="line2d_9">
      <path d="M 323.755469 266.894 
L 323.755469 39.59 
" clip-path="url(#p95b443b77f)" style="fill: none; stroke-dasharray: 0.8,1.28; stroke-dashoffset: 0; stroke: #b0b0b0; stroke-opacity: 0.3; stroke-width: 0.8"/>
     </g>
     <g id="line2d_10">
      <g>
       <use xlink:href="#m3ba6dfdd0e" x="323.755469" y="266.894" style="fill: #2c3e50; stroke: #2c3e50; stroke-width: 0.8"/>
      </g>
     </g>
     <g id="text_5">
      <!-- 8 -->
      <g style="fill: #2c3e50" transform="translate(320.574219 281.492437) scale(0.1 -0.1)">
       <defs>
        <path id="DejaVuSans-38" d="M 2034 2216 
Q 1584 2216 1326 1975 
Q 1069 1734 1069 1313 
Q 1069 891 1326 650 
Q 1584 409 2034 409 
Q 2484 409 2743 651 
Q 3003 894 3003 1313 
Q 3003 1734 2745 1975 
Q 2488 2216 2034 2216 
z
M 1403 2484 
Q 997 2584 770 2862 
Q 544 3141 544 3541 
Q 544 4100 942 4425 
Q 1341 4750 2034 4750 
Q 2731 4750 3128 4425 
Q 3525 4100 3525 3541 
Q 3525 3141 3298 2862 
Q 3072 2584 2669 2484 
Q 3125 2378 3379 2068 
Q 3634 1759 3634 1313 
Q 3634 634 3220 271 
Q 2806 -91 2034 -91 
Q 1263 -91 848 271 
Q 434 634 434 1313 
Q 434 1759 690 2068 
Q 947 2378 1403 2484 
z
M 1172 3481 
Q 1172 3119 1398 2916 
Q 1625 2713 2034 2713 
Q 2441 2713 2670 2916 
Q 2900 3119 2900 3481 
Q 2900 3844 2670 4047 
Q 2441 4250 2034 4250 
Q 1625 4250 1398 4047 
Q 1172 3844 1172 3481 
z
" transform="scale(0.015625)"/>
       </defs>
       <use xlink:href="#DejaVuSans-38"/>
      </g>
     </g>
    </g>
    <g id="xtick_6">
     <g id="line2d_11">
      <path d="M 390.715469 266.894 
L 390.715469 39.59 
" clip-path="url(#p95b443b77f)" style="fill: none; stroke-dasharray: 0.8,1.28; stroke-dashoffset: 0; stroke: #b0b0b0; stroke-opacity: 0.3; stroke-width: 0.8"/>
     </g>
     <g id="line2d_12">
      <g>
       <use xlink:href="#m3ba6dfdd0e" x="390.715469" y="266.894" style="fill: #2c3e50; stroke: #2c3e50; stroke-width: 0.8"/>
      </g>
     </g>
     <g id="text_6">
      <!-- 10 -->
      <g style="fill: #2c3e50" transform="translate(384.352969 281.492437) scale(0.1 -0.1)">
       <defs>
        <path id="DejaVuSans-31" d="M 794 531 
L 1825 531 
L 1825 4091 
L 703 3866 
L 703 4441 
L 1819 4666 
L 2450 4666 
L 2450 531 
L 3481 531 
L 3481 0 
L 794 0 
L 794 531 
z
" transform="scale(0.015625)"/>
       </defs>
       <use xlink:href="#DejaVuSans-31"/>
       <use xlink:href="#DejaVuSans-30" x="63.623047"/>
      </g>
     </g>
    </g>
    <g id="text_7">
     <!-- x -->
     <g transform="translate(236.346719 296.310328) scale(0.115 -0.115)">
      <defs>
       <path id="DejaVuSans-Bold-78" d="M 1422 1791 
L 159 3500 
L 1344 3500 
L 2059 2463 
L 2784 3500 
L 3969 3500 
L 2706 1797 
L 4031 0 
L 2847 0 
L 2059 1106 
L 1281 0 
L 97 0 
L 1422 1791 
z
" transform="scale(0.015625)"/>
      </defs>
      <use xlink:href="#DejaVuSans-Bold-78"/>
     </g>
    </g>
   </g>
   <g id="matplotlib.axis_2">
    <g id="ytick_1">
     <g id="line2d_13">
      <path d="M 55.915469 266.894 
L 424.195469 266.894 
" clip-path="url(#p95b443b77f)" style="fill: none; stroke-dasharray: 0.8,1.28; stroke-dashoffset: 0; stroke: #b0b0b0; stroke-opacity: 0.3; stroke-width: 0.8"/>
     </g>
     <g id="line2d_14">
      <defs>
       <path id="m583067f643" d="M 0 0 
L -3.5 0 
" style="stroke: #2c3e50; stroke-width: 0.8"/>
      </defs>
      <g>
       <use xlink:href="#m583067f643" x="55.915469" y="266.894" style="fill: #2c3e50; stroke: #2c3e50; stroke-width: 0.8"/>
      </g>
     </g>
     <g id="text_8">
      <!-- 0.00 -->
      <g style="fill: #2c3e50" transform="translate(26.649844 270.693219) scale(0.1 -0.1)">
       <defs>
        <path id="DejaVuSans-2e" d="M 684 794 
L 1344 794 
L 1344 0 
L 684 0 
L 684 794 
z
" transform="scale(0.015625)"/>
       </defs>
       <use xlink:href="#DejaVuSans-30"/>
       <use xlink:href="#DejaVuSans-2e" x="63.623047"/>
       <use xlink:href="#DejaVuSans-30" x="95.410156"/>
       <use xlink:href="#DejaVuSans-30" x="159.033203"/>
      </g>
     </g>
    </g>
    <g id="ytick_2">
     <g id="line2d_15">
      <path d="M 55.915469 232.708871 
L 424.195469 232.708871 
" clip-path="url(#p95b443b77f)" style="fill: none; stroke-dasharray: 0.8,1.28; stroke-dashoffset: 0; stroke: #b0b0b0; stroke-opacity: 0.3; stroke-width: 0.8"/>
     </g>
     <g id="line2d_16">
      <g>
       <use xlink:href="#m583067f643" x="55.915469" y="232.708871" style="fill: #2c3e50; stroke: #2c3e50; stroke-width: 0.8"/>
      </g>
     </g>
     <g id="text_9">
      <!-- 0.05 -->
      <g style="fill: #2c3e50" transform="translate(26.649844 236.50809) scale(0.1 -0.1)">
       <defs>
        <path id="DejaVuSans-35" d="M 691 4666 
L 3169 4666 
L 3169 4134 
L 1269 4134 
L 1269 2991 
Q 1406 3038 1543 3061 
Q 1681 3084 1819 3084 
Q 2600 3084 3056 2656 
Q 3513 2228 3513 1497 
Q 3513 744 3044 326 
Q 2575 -91 1722 -91 
Q 1428 -91 1123 -41 
Q 819 9 494 109 
L 494 744 
Q 775 591 1075 516 
Q 1375 441 1709 441 
Q 2250 441 2565 725 
Q 2881 1009 2881 1497 
Q 2881 1984 2565 2268 
Q 2250 2553 1709 2553 
Q 1456 2553 1204 2497 
Q 953 2441 691 2322 
L 691 4666 
z
" transform="scale(0.015625)"/>
       </defs>
       <use xlink:href="#DejaVuSans-30"/>
       <use xlink:href="#DejaVuSans-2e" x="63.623047"/>
       <use xlink:href="#DejaVuSans-30" x="95.410156"/>
       <use xlink:href="#DejaVuSans-35" x="159.033203"/>
      </g>
     </g>
    </g>
    <g id="ytick_3">
     <g id="line2d_17">
      <path d="M 55.915469 198.523742 
L 424.195469 198.523742 
" clip-path="url(#p95b443b77f)" style="fill: none; stroke-dasharray: 0.8,1.28; stroke-dashoffset: 0; stroke: #b0b0b0; stroke-opacity: 0.3; stroke-width: 0.8"/>
     </g>
     <g id="line2d_18">
      <g>
       <use xlink:href="#m583067f643" x="55.915469" y="198.523742" style="fill: #2c3e50; stroke: #2c3e50; stroke-width: 0.8"/>
      </g>
     </g>
     <g id="text_10">
      <!-- 0.10 -->
      <g style="fill: #2c3e50" transform="translate(26.649844 202.322961) scale(0.1 -0.1)">
       <use xlink:href="#DejaVuSans-30"/>
       <use xlink:href="#DejaVuSans-2e" x="63.623047"/>
       <use xlink:href="#DejaVuSans-31" x="95.410156"/>
       <use xlink:href="#DejaVuSans-30" x="159.033203"/>
      </g>
     </g>
    </g>
    <g id="ytick_4">
     <g id="line2d_19">
      <path d="M 55.915469 164.338613 
L 424.195469 164.338613 
" clip-path="url(#p95b443b77f)" style="fill: none; stroke-dasharray: 0.8,1.28; stroke-dashoffset: 0; stroke: #b0b0b0; stroke-opacity: 0.3; stroke-width: 0.8"/>
     </g>
     <g id="line2d_20">
      <g>
       <use xlink:href="#m583067f643" x="55.915469" y="164.338613" style="fill: #2c3e50; stroke: #2c3e50; stroke-width: 0.8"/>
      </g>
     </g>
     <g id="text_11">
      <!-- 0.15 -->
      <g style="fill: #2c3e50" transform="translate(26.649844 168.137832) scale(0.1 -0.1)">
       <use xlink:href="#DejaVuSans-30"/>
       <use xlink:href="#DejaVuSans-2e" x="63.623047"/>
       <use xlink:href="#DejaVuSans-31" x="95.410156"/>
       <use xlink:href="#DejaVuSans-35" x="159.033203"/>
      </g>
     </g>
    </g>
    <g id="ytick_5">
     <g id="line2d_21">
      <path d="M 55.915469 130.153484 
L 424.195469 130.153484 
" clip-path="url(#p95b443b77f)" style="fill: none; stroke-dasharray: 0.8,1.28; stroke-dashoffset: 0; stroke: #b0b0b0; stroke-opacity: 0.3; stroke-width: 0.8"/>
     </g>
     <g id="line2d_22">
      <g>
       <use xlink:href="#m583067f643" x="55.915469" y="130.153484" style="fill: #2c3e50; stroke: #2c3e50; stroke-width: 0.8"/>
      </g>
     </g>
     <g id="text_12">
      <!-- 0.20 -->
      <g style="fill: #2c3e50" transform="translate(26.649844 133.952703) scale(0.1 -0.1)">
       <use xlink:href="#DejaVuSans-30"/>
       <use xlink:href="#DejaVuSans-2e" x="63.623047"/>
       <use xlink:href="#DejaVuSans-32" x="95.410156"/>
       <use xlink:href="#DejaVuSans-30" x="159.033203"/>
      </g>
     </g>
    </g>
    <g id="ytick_6">
     <g id="line2d_23">
      <path d="M 55.915469 95.968355 
L 424.195469 95.968355 
" clip-path="url(#p95b443b77f)" style="fill: none; stroke-dasharray: 0.8,1.28; stroke-dashoffset: 0; stroke: #b0b0b0; stroke-opacity: 0.3; stroke-width: 0.8"/>
     </g>
     <g id="line2d_24">
      <g>
       <use xlink:href="#m583067f643" x="55.915469" y="95.968355" style="fill: #2c3e50; stroke: #2c3e50; stroke-width: 0.8"/>
      </g>
     </g>
     <g id="text_13">
      <!-- 0.25 -->
      <g style="fill: #2c3e50" transform="translate(26.649844 99.767574) scale(0.1 -0.1)">
       <use xlink:href="#DejaVuSans-30"/>
       <use xlink:href="#DejaVuSans-2e" x="63.623047"/>
       <use xlink:href="#DejaVuSans-32" x="95.410156"/>
       <use xlink:href="#DejaVuSans-35" x="159.033203"/>
      </g>
     </g>
    </g>
    <g id="ytick_7">
     <g id="line2d_25">
      <path d="M 55.915469 61.783227 
L 424.195469 61.783227 
" clip-path="url(#p95b443b77f)" style="fill: none; stroke-dasharray: 0.8,1.28; stroke-dashoffset: 0; stroke: #b0b0b0; stroke-opacity: 0.3; stroke-width: 0.8"/>
     </g>
     <g id="line2d_26">
      <g>
       <use xlink:href="#m583067f643" x="55.915469" y="61.783227" style="fill: #2c3e50; stroke: #2c3e50; stroke-width: 0.8"/>
      </g>
     </g>
     <g id="text_14">
      <!-- 0.30 -->
      <g style="fill: #2c3e50" transform="translate(26.649844 65.582445) scale(0.1 -0.1)">
       <defs>
        <path id="DejaVuSans-33" d="M 2597 2516 
Q 3050 2419 3304 2112 
Q 3559 1806 3559 1356 
Q 3559 666 3084 287 
Q 2609 -91 1734 -91 
Q 1441 -91 1130 -33 
Q 819 25 488 141 
L 488 750 
Q 750 597 1062 519 
Q 1375 441 1716 441 
Q 2309 441 2620 675 
Q 2931 909 2931 1356 
Q 2931 1769 2642 2001 
Q 2353 2234 1838 2234 
L 1294 2234 
L 1294 2753 
L 1863 2753 
Q 2328 2753 2575 2939 
Q 2822 3125 2822 3475 
Q 2822 3834 2567 4026 
Q 2313 4219 1838 4219 
Q 1578 4219 1281 4162 
Q 984 4106 628 3988 
L 628 4550 
Q 988 4650 1302 4700 
Q 1616 4750 1894 4750 
Q 2613 4750 3031 4423 
Q 3450 4097 3450 3541 
Q 3450 3153 3228 2886 
Q 3006 2619 2597 2516 
z
" transform="scale(0.015625)"/>
       </defs>
       <use xlink:href="#DejaVuSans-30"/>
       <use xlink:href="#DejaVuSans-2e" x="63.623047"/>
       <use xlink:href="#DejaVuSans-33" x="95.410156"/>
       <use xlink:href="#DejaVuSans-30" x="159.033203"/>
      </g>
     </g>
    </g>
    <g id="text_15">
     <!-- $f_X(x)$ -->
     <g transform="translate(20.258203 166.122) rotate(-90) scale(0.115 -0.115)">
      <defs>
       <path id="DejaVuSans-Oblique-66" d="M 3059 4863 
L 2969 4384 
L 2419 4384 
Q 2106 4384 1964 4261 
Q 1822 4138 1753 3809 
L 1691 3500 
L 2638 3500 
L 2553 3053 
L 1606 3053 
L 1013 0 
L 434 0 
L 1031 3053 
L 481 3053 
L 563 3500 
L 1113 3500 
L 1159 3744 
Q 1278 4363 1576 4613 
Q 1875 4863 2516 4863 
L 3059 4863 
z
" transform="scale(0.015625)"/>
       <path id="DejaVuSans-Oblique-58" d="M 878 4666 
L 1516 4666 
L 2316 2981 
L 3763 4666 
L 4500 4666 
L 2578 2438 
L 3738 0 
L 3103 0 
L 2163 1966 
L 459 0 
L -275 0 
L 1906 2509 
L 878 4666 
z
" transform="scale(0.015625)"/>
       <path id="DejaVuSans-28" d="M 1984 4856 
Q 1566 4138 1362 3434 
Q 1159 2731 1159 2009 
Q 1159 1288 1364 580 
Q 1569 -128 1984 -844 
L 1484 -844 
Q 1016 -109 783 600 
Q 550 1309 550 2009 
Q 550 2706 781 3412 
Q 1013 4119 1484 4856 
L 1984 4856 
z
" transform="scale(0.015625)"/>
       <path id="DejaVuSans-Oblique-78" d="M 3841 3500 
L 2234 1784 
L 3219 0 
L 2559 0 
L 1819 1388 
L 531 0 
L -166 0 
L 1556 1844 
L 641 3500 
L 1300 3500 
L 1972 2234 
L 3144 3500 
L 3841 3500 
z
" transform="scale(0.015625)"/>
       <path id="DejaVuSans-29" d="M 513 4856 
L 1013 4856 
Q 1481 4119 1714 3412 
Q 1947 2706 1947 2009 
Q 1947 1309 1714 600 
Q 1481 -109 1013 -844 
L 513 -844 
Q 928 -128 1133 580 
Q 1338 1288 1338 2009 
Q 1338 2731 1133 3434 
Q 928 4138 513 4856 
z
" transform="scale(0.015625)"/>
      </defs>
      <use xlink:href="#DejaVuSans-Oblique-66" transform="translate(0 0.015625)"/>
      <use xlink:href="#DejaVuSans-Oblique-58" transform="translate(35.205078 -16.390625) scale(0.7)"/>
      <use xlink:href="#DejaVuSans-28" transform="translate(85.893555 0.015625)"/>
      <use xlink:href="#DejaVuSans-Oblique-78" transform="translate(124.907227 0.015625)"/>
      <use xlink:href="#DejaVuSans-29" transform="translate(184.086914 0.015625)"/>
     </g>
    </g>
   </g>
   <g id="PolyCollection_1">
    <defs>
     <path id="mccb45b10b3" d="M 156.355469 -43.327969 
L 156.355469 -259.233401 
L 156.691388 -259.089935 
L 157.027308 -258.93159 
L 157.363228 -258.758677 
L 157.699148 -258.571505 
L 158.035067 -258.37038 
L 158.370987 -258.155607 
L 158.706907 -257.927488 
L 159.042827 -257.686319 
L 159.378746 -257.432397 
L 159.714666 -257.166013 
L 160.050586 -256.887456 
L 160.386506 -256.59701 
L 160.722425 -256.294957 
L 161.058345 -255.981574 
L 161.394265 -255.657134 
L 161.730184 -255.321907 
L 162.066104 -254.976158 
L 162.402024 -254.620147 
L 162.737944 -254.254131 
L 163.073863 -253.878363 
L 163.409783 -253.49309 
L 163.745703 -253.098556 
L 164.081623 -252.695 
L 164.417542 -252.282657 
L 164.753462 -251.861755 
L 165.089382 -251.432521 
L 165.425302 -250.995176 
L 165.761221 -250.549935 
L 166.097141 -250.09701 
L 166.433061 -249.636609 
L 166.76898 -249.168934 
L 167.1049 -248.694183 
L 167.44082 -248.21255 
L 167.77674 -247.724224 
L 168.112659 -247.229391 
L 168.448579 -246.72823 
L 168.784499 -246.220918 
L 169.120419 -245.707626 
L 169.456338 -245.188523 
L 169.792258 -244.663772 
L 170.128178 -244.133533 
L 170.464098 -243.597961 
L 170.800017 -243.057208 
L 171.135937 -242.511421 
L 171.471857 -241.960744 
L 171.807776 -241.405317 
L 172.143696 -240.845278 
L 172.479616 -240.280758 
L 172.815536 -239.711886 
L 173.151455 -239.13879 
L 173.487375 -238.561591 
L 173.823295 -237.980409 
L 174.159215 -237.395359 
L 174.495134 -236.806555 
L 174.831054 -236.214106 
L 175.166974 -235.61812 
L 175.502893 -235.018699 
L 175.838813 -234.415946 
L 176.174733 -233.809959 
L 176.510653 -233.200833 
L 176.846572 -232.588663 
L 177.182492 -231.973537 
L 177.518412 -231.355546 
L 177.854332 -230.734774 
L 178.190251 -230.111305 
L 178.526171 -229.485221 
L 178.862091 -228.856601 
L 179.198011 -228.225522 
L 179.53393 -227.592059 
L 179.86985 -226.956286 
L 180.20577 -226.318274 
L 180.541689 -225.678092 
L 180.877609 -225.035809 
L 181.213529 -224.391491 
L 181.549449 -223.745202 
L 181.885368 -223.097005 
L 182.221288 -222.446961 
L 182.557208 -221.795132 
L 182.893128 -221.141575 
L 183.229047 -220.486347 
L 183.564967 -219.829506 
L 183.900887 -219.171105 
L 184.236807 -218.511198 
L 184.572726 -217.849838 
L 184.908646 -217.187076 
L 185.244566 -216.522962 
L 185.580485 -215.857546 
L 185.916405 -215.190875 
L 186.252325 -214.522998 
L 186.588245 -213.853961 
L 186.924164 -213.183809 
L 187.260084 -212.512587 
L 187.596004 -211.840339 
L 187.931924 -211.167109 
L 188.267843 -210.492938 
L 188.603763 -209.817869 
L 188.939683 -209.141942 
L 189.275603 -208.465199 
L 189.611522 -207.787679 
L 189.947442 -207.109421 
L 190.283362 -206.430464 
L 190.619281 -205.750846 
L 190.955201 -205.070605 
L 191.291121 -204.389777 
L 191.627041 -203.7084 
L 191.96296 -203.026509 
L 192.29888 -202.34414 
L 192.6348 -201.661329 
L 192.97072 -200.97811 
L 193.306639 -200.294518 
L 193.642559 -199.610586 
L 193.978479 -198.926349 
L 194.314399 -198.241839 
L 194.650318 -197.55709 
L 194.986238 -196.872133 
L 195.322158 -196.187003 
L 195.658077 -195.501729 
L 195.993997 -194.816345 
L 196.329917 -194.13088 
L 196.665837 -193.445368 
L 197.001756 -192.759837 
L 197.337676 -192.074319 
L 197.673596 -191.388843 
L 198.009516 -190.703441 
L 198.345435 -190.018141 
L 198.681355 -189.332972 
L 199.017275 -188.647965 
L 199.353195 -187.963148 
L 199.689114 -187.27855 
L 200.025034 -186.594199 
L 200.360954 -185.910123 
L 200.696873 -185.226351 
L 201.032793 -184.54291 
L 201.368713 -183.859829 
L 201.704633 -183.177134 
L 202.040552 -182.494852 
L 202.376472 -181.813011 
L 202.712392 -181.131637 
L 203.048312 -180.450757 
L 203.384231 -179.770397 
L 203.720151 -179.090584 
L 204.056071 -178.411342 
L 204.39199 -177.732699 
L 204.72791 -177.054679 
L 205.06383 -176.377309 
L 205.39975 -175.700612 
L 205.735669 -175.024614 
L 206.071589 -174.34934 
L 206.407509 -173.674815 
L 206.743429 -173.001062 
L 207.079348 -172.328107 
L 207.415268 -171.655972 
L 207.751188 -170.984682 
L 208.087108 -170.31426 
L 208.423027 -169.64473 
L 208.758947 -168.976116 
L 209.094867 -168.308439 
L 209.430786 -167.641723 
L 209.766706 -166.975991 
L 210.102626 -166.311264 
L 210.438546 -165.647566 
L 210.774465 -164.984919 
L 211.110385 -164.323343 
L 211.446305 -163.662862 
L 211.782225 -163.003496 
L 212.118144 -162.345266 
L 212.454064 -161.688195 
L 212.789984 -161.032302 
L 213.125904 -160.377609 
L 213.461823 -159.724136 
L 213.797743 -159.071903 
L 214.133663 -158.420931 
L 214.469582 -157.771239 
L 214.805502 -157.122848 
L 215.141422 -156.475776 
L 215.477342 -155.830044 
L 215.813261 -155.185669 
L 216.149181 -154.542673 
L 216.485101 -153.901072 
L 216.821021 -153.260886 
L 217.15694 -152.622132 
L 217.49286 -151.98483 
L 217.82878 -151.348998 
L 218.1647 -150.714652 
L 218.500619 -150.081811 
L 218.836539 -149.450492 
L 219.172459 -148.820712 
L 219.508378 -148.192488 
L 219.844298 -147.565837 
L 220.180218 -146.940775 
L 220.516138 -146.31732 
L 220.852057 -145.695487 
L 221.187977 -145.075292 
L 221.523897 -144.45675 
L 221.859817 -143.839879 
L 222.195736 -143.224692 
L 222.531656 -142.611206 
L 222.867576 -141.999434 
L 223.203496 -141.389393 
L 223.539415 -140.781096 
L 223.875335 -140.174559 
L 224.211255 -139.569794 
L 224.547174 -138.966817 
L 224.883094 -138.36564 
L 225.219014 -137.766279 
L 225.554934 -137.168745 
L 225.890853 -136.573052 
L 226.226773 -135.979214 
L 226.562693 -135.387243 
L 226.898613 -134.797152 
L 227.234532 -134.208952 
L 227.570452 -133.622658 
L 227.906372 -133.038279 
L 228.242291 -132.455829 
L 228.578211 -131.875318 
L 228.914131 -131.296759 
L 229.250051 -130.720162 
L 229.58597 -130.145539 
L 229.92189 -129.5729 
L 230.25781 -129.002256 
L 230.59373 -128.433618 
L 230.929649 -127.866995 
L 231.265569 -127.302398 
L 231.601489 -126.739837 
L 231.937409 -126.179322 
L 232.273328 -125.620861 
L 232.609248 -125.064465 
L 232.945168 -124.510142 
L 233.281087 -123.957901 
L 233.617007 -123.407751 
L 233.952927 -122.8597 
L 234.288847 -122.313758 
L 234.624766 -121.769931 
L 234.960686 -121.228229 
L 235.296606 -120.688658 
L 235.632526 -120.151227 
L 235.968445 -119.615942 
L 236.304365 -119.082812 
L 236.640285 -118.551842 
L 236.976205 -118.023041 
L 237.312124 -117.496414 
L 237.648044 -116.971968 
L 237.983964 -116.44971 
L 238.319883 -115.929645 
L 238.655803 -115.41178 
L 238.991723 -114.89612 
L 239.327643 -114.382671 
L 239.663562 -113.871439 
L 239.999482 -113.362428 
L 240.335402 -112.855643 
L 240.671322 -112.35109 
L 241.007241 -111.848774 
L 241.343161 -111.348698 
L 241.679081 -110.850867 
L 242.015001 -110.355286 
L 242.35092 -109.861958 
L 242.68684 -109.370888 
L 243.02276 -108.882078 
L 243.358679 -108.395533 
L 243.694599 -107.911255 
L 244.030519 -107.429249 
L 244.366439 -106.949517 
L 244.702358 -106.472061 
L 245.038278 -105.996886 
L 245.374198 -105.523992 
L 245.710118 -105.053383 
L 246.046037 -104.585061 
L 246.381957 -104.119027 
L 246.717877 -103.655285 
L 247.053797 -103.193834 
L 247.389716 -102.734678 
L 247.725636 -102.277817 
L 248.061556 -101.823253 
L 248.397475 -101.370987 
L 248.733395 -100.92102 
L 249.069315 -100.473352 
L 249.405235 -100.027985 
L 249.741154 -99.584918 
L 250.077074 -99.144153 
L 250.412994 -98.705689 
L 250.748914 -98.269527 
L 251.084833 -97.835666 
L 251.420753 -97.404107 
L 251.756673 -96.974849 
L 252.092592 -96.547891 
L 252.428512 -96.123233 
L 252.764432 -95.700874 
L 253.100352 -95.280814 
L 253.436271 -94.86305 
L 253.772191 -94.447583 
L 254.108111 -94.034411 
L 254.444031 -93.623531 
L 254.77995 -93.214944 
L 255.11587 -92.808646 
L 255.45179 -92.404637 
L 255.78771 -92.002914 
L 256.123629 -91.603476 
L 256.459549 -91.206319 
L 256.795469 -90.811442 
L 256.795469 -43.327969 
L 256.795469 -43.327969 
L 256.459549 -43.327969 
L 256.123629 -43.327969 
L 255.78771 -43.327969 
L 255.45179 -43.327969 
L 255.11587 -43.327969 
L 254.77995 -43.327969 
L 254.444031 -43.327969 
L 254.108111 -43.327969 
L 253.772191 -43.327969 
L 253.436271 -43.327969 
L 253.100352 -43.327969 
L 252.764432 -43.327969 
L 252.428512 -43.327969 
L 252.092592 -43.327969 
L 251.756673 -43.327969 
L 251.420753 -43.327969 
L 251.084833 -43.327969 
L 250.748914 -43.327969 
L 250.412994 -43.327969 
L 250.077074 -43.327969 
L 249.741154 -43.327969 
L 249.405235 -43.327969 
L 249.069315 -43.327969 
L 248.733395 -43.327969 
L 248.397475 -43.327969 
L 248.061556 -43.327969 
L 247.725636 -43.327969 
L 247.389716 -43.327969 
L 247.053797 -43.327969 
L 246.717877 -43.327969 
L 246.381957 -43.327969 
L 246.046037 -43.327969 
L 245.710118 -43.327969 
L 245.374198 -43.327969 
L 245.038278 -43.327969 
L 244.702358 -43.327969 
L 244.366439 -43.327969 
L 244.030519 -43.327969 
L 243.694599 -43.327969 
L 243.358679 -43.327969 
L 243.02276 -43.327969 
L 242.68684 -43.327969 
L 242.35092 -43.327969 
L 242.015001 -43.327969 
L 241.679081 -43.327969 
L 241.343161 -43.327969 
L 241.007241 -43.327969 
L 240.671322 -43.327969 
L 240.335402 -43.327969 
L 239.999482 -43.327969 
L 239.663562 -43.327969 
L 239.327643 -43.327969 
L 238.991723 -43.327969 
L 238.655803 -43.327969 
L 238.319883 -43.327969 
L 237.983964 -43.327969 
L 237.648044 -43.327969 
L 237.312124 -43.327969 
L 236.976205 -43.327969 
L 236.640285 -43.327969 
L 236.304365 -43.327969 
L 235.968445 -43.327969 
L 235.632526 -43.327969 
L 235.296606 -43.327969 
L 234.960686 -43.327969 
L 234.624766 -43.327969 
L 234.288847 -43.327969 
L 233.952927 -43.327969 
L 233.617007 -43.327969 
L 233.281087 -43.327969 
L 232.945168 -43.327969 
L 232.609248 -43.327969 
L 232.273328 -43.327969 
L 231.937409 -43.327969 
L 231.601489 -43.327969 
L 231.265569 -43.327969 
L 230.929649 -43.327969 
L 230.59373 -43.327969 
L 230.25781 -43.327969 
L 229.92189 -43.327969 
L 229.58597 -43.327969 
L 229.250051 -43.327969 
L 228.914131 -43.327969 
L 228.578211 -43.327969 
L 228.242291 -43.327969 
L 227.906372 -43.327969 
L 227.570452 -43.327969 
L 227.234532 -43.327969 
L 226.898613 -43.327969 
L 226.562693 -43.327969 
L 226.226773 -43.327969 
L 225.890853 -43.327969 
L 225.554934 -43.327969 
L 225.219014 -43.327969 
L 224.883094 -43.327969 
L 224.547174 -43.327969 
L 224.211255 -43.327969 
L 223.875335 -43.327969 
L 223.539415 -43.327969 
L 223.203496 -43.327969 
L 222.867576 -43.327969 
L 222.531656 -43.327969 
L 222.195736 -43.327969 
L 221.859817 -43.327969 
L 221.523897 -43.327969 
L 221.187977 -43.327969 
L 220.852057 -43.327969 
L 220.516138 -43.327969 
L 220.180218 -43.327969 
L 219.844298 -43.327969 
L 219.508378 -43.327969 
L 219.172459 -43.327969 
L 218.836539 -43.327969 
L 218.500619 -43.327969 
L 218.1647 -43.327969 
L 217.82878 -43.327969 
L 217.49286 -43.327969 
L 217.15694 -43.327969 
L 216.821021 -43.327969 
L 216.485101 -43.327969 
L 216.149181 -43.327969 
L 215.813261 -43.327969 
L 215.477342 -43.327969 
L 215.141422 -43.327969 
L 214.805502 -43.327969 
L 214.469582 -43.327969 
L 214.133663 -43.327969 
L 213.797743 -43.327969 
L 213.461823 -43.327969 
L 213.125904 -43.327969 
L 212.789984 -43.327969 
L 212.454064 -43.327969 
L 212.118144 -43.327969 
L 211.782225 -43.327969 
L 211.446305 -43.327969 
L 211.110385 -43.327969 
L 210.774465 -43.327969 
L 210.438546 -43.327969 
L 210.102626 -43.327969 
L 209.766706 -43.327969 
L 209.430786 -43.327969 
L 209.094867 -43.327969 
L 208.758947 -43.327969 
L 208.423027 -43.327969 
L 208.087108 -43.327969 
L 207.751188 -43.327969 
L 207.415268 -43.327969 
L 207.079348 -43.327969 
L 206.743429 -43.327969 
L 206.407509 -43.327969 
L 206.071589 -43.327969 
L 205.735669 -43.327969 
L 205.39975 -43.327969 
L 205.06383 -43.327969 
L 204.72791 -43.327969 
L 204.39199 -43.327969 
L 204.056071 -43.327969 
L 203.720151 -43.327969 
L 203.384231 -43.327969 
L 203.048312 -43.327969 
L 202.712392 -43.327969 
L 202.376472 -43.327969 
L 202.040552 -43.327969 
L 201.704633 -43.327969 
L 201.368713 -43.327969 
L 201.032793 -43.327969 
L 200.696873 -43.327969 
L 200.360954 -43.327969 
L 200.025034 -43.327969 
L 199.689114 -43.327969 
L 199.353195 -43.327969 
L 199.017275 -43.327969 
L 198.681355 -43.327969 
L 198.345435 -43.327969 
L 198.009516 -43.327969 
L 197.673596 -43.327969 
L 197.337676 -43.327969 
L 197.001756 -43.327969 
L 196.665837 -43.327969 
L 196.329917 -43.327969 
L 195.993997 -43.327969 
L 195.658077 -43.327969 
L 195.322158 -43.327969 
L 194.986238 -43.327969 
L 194.650318 -43.327969 
L 194.314399 -43.327969 
L 193.978479 -43.327969 
L 193.642559 -43.327969 
L 193.306639 -43.327969 
L 192.97072 -43.327969 
L 192.6348 -43.327969 
L 192.29888 -43.327969 
L 191.96296 -43.327969 
L 191.627041 -43.327969 
L 191.291121 -43.327969 
L 190.955201 -43.327969 
L 190.619281 -43.327969 
L 190.283362 -43.327969 
L 189.947442 -43.327969 
L 189.611522 -43.327969 
L 189.275603 -43.327969 
L 188.939683 -43.327969 
L 188.603763 -43.327969 
L 188.267843 -43.327969 
L 187.931924 -43.327969 
L 187.596004 -43.327969 
L 187.260084 -43.327969 
L 186.924164 -43.327969 
L 186.588245 -43.327969 
L 186.252325 -43.327969 
L 185.916405 -43.327969 
L 185.580485 -43.327969 
L 185.244566 -43.327969 
L 184.908646 -43.327969 
L 184.572726 -43.327969 
L 184.236807 -43.327969 
L 183.900887 -43.327969 
L 183.564967 -43.327969 
L 183.229047 -43.327969 
L 182.893128 -43.327969 
L 182.557208 -43.327969 
L 182.221288 -43.327969 
L 181.885368 -43.327969 
L 181.549449 -43.327969 
L 181.213529 -43.327969 
L 180.877609 -43.327969 
L 180.541689 -43.327969 
L 180.20577 -43.327969 
L 179.86985 -43.327969 
L 179.53393 -43.327969 
L 179.198011 -43.327969 
L 178.862091 -43.327969 
L 178.526171 -43.327969 
L 178.190251 -43.327969 
L 177.854332 -43.327969 
L 177.518412 -43.327969 
L 177.182492 -43.327969 
L 176.846572 -43.327969 
L 176.510653 -43.327969 
L 176.174733 -43.327969 
L 175.838813 -43.327969 
L 175.502893 -43.327969 
L 175.166974 -43.327969 
L 174.831054 -43.327969 
L 174.495134 -43.327969 
L 174.159215 -43.327969 
L 173.823295 -43.327969 
L 173.487375 -43.327969 
L 173.151455 -43.327969 
L 172.815536 -43.327969 
L 172.479616 -43.327969 
L 172.143696 -43.327969 
L 171.807776 -43.327969 
L 171.471857 -43.327969 
L 171.135937 -43.327969 
L 170.800017 -43.327969 
L 170.464098 -43.327969 
L 170.128178 -43.327969 
L 169.792258 -43.327969 
L 169.456338 -43.327969 
L 169.120419 -43.327969 
L 168.784499 -43.327969 
L 168.448579 -43.327969 
L 168.112659 -43.327969 
L 167.77674 -43.327969 
L 167.44082 -43.327969 
L 167.1049 -43.327969 
L 166.76898 -43.327969 
L 166.433061 -43.327969 
L 166.097141 -43.327969 
L 165.761221 -43.327969 
L 165.425302 -43.327969 
L 165.089382 -43.327969 
L 164.753462 -43.327969 
L 164.417542 -43.327969 
L 164.081623 -43.327969 
L 163.745703 -43.327969 
L 163.409783 -43.327969 
L 163.073863 -43.327969 
L 162.737944 -43.327969 
L 162.402024 -43.327969 
L 162.066104 -43.327969 
L 161.730184 -43.327969 
L 161.394265 -43.327969 
L 161.058345 -43.327969 
L 160.722425 -43.327969 
L 160.386506 -43.327969 
L 160.050586 -43.327969 
L 159.714666 -43.327969 
L 159.378746 -43.327969 
L 159.042827 -43.327969 
L 158.706907 -43.327969 
L 158.370987 -43.327969 
L 158.035067 -43.327969 
L 157.699148 -43.327969 
L 157.363228 -43.327969 
L 157.027308 -43.327969 
L 156.691388 -43.327969 
L 156.355469 -43.327969 
z
" style="stroke: #2980b9; stroke-opacity: 0.28"/>
    </defs>
    <g clip-path="url(#p95b443b77f)">
     <use xlink:href="#mccb45b10b3" x="0" y="310.221969" style="fill: #2980b9; fill-opacity: 0.28; stroke: #2980b9; stroke-opacity: 0.28"/>
    </g>
   </g>
   <g id="patch_3">
    <path d="M 55.915469 266.894 
L 55.915469 39.59 
" style="fill: none; stroke: #2c3e50; stroke-width: 1.2; stroke-linejoin: miter; stroke-linecap: square"/>
   </g>
   <g id="patch_4">
    <path d="M 55.915469 266.894 
L 424.195469 266.894 
" style="fill: none; stroke: #2c3e50; stroke-width: 1.2; stroke-linejoin: miter; stroke-linecap: square"/>
   </g>
   <g id="LineCollection_1">
    <path d="M 156.355469 266.894 
L 156.355469 50.988568 
" clip-path="url(#p95b443b77f)" style="fill: none; stroke-dasharray: 5.55,2.4; stroke-dashoffset: 0; stroke: #34495e; stroke-opacity: 0.7; stroke-width: 1.5"/>
   </g>
   <g id="text_16">
    <!-- a -->
    <g style="fill: #34495e" transform="translate(152.306406 288.318771) scale(0.12 -0.12)">
     <defs>
      <path id="DejaVuSans-Bold-61" d="M 2106 1575 
Q 1756 1575 1579 1456 
Q 1403 1338 1403 1106 
Q 1403 894 1545 773 
Q 1688 653 1941 653 
Q 2256 653 2472 879 
Q 2688 1106 2688 1447 
L 2688 1575 
L 2106 1575 
z
M 3816 1997 
L 3816 0 
L 2688 0 
L 2688 519 
Q 2463 200 2181 54 
Q 1900 -91 1497 -91 
Q 953 -91 614 226 
Q 275 544 275 1050 
Q 275 1666 698 1953 
Q 1122 2241 2028 2241 
L 2688 2241 
L 2688 2328 
Q 2688 2594 2478 2717 
Q 2269 2841 1825 2841 
Q 1466 2841 1156 2769 
Q 847 2697 581 2553 
L 581 3406 
Q 941 3494 1303 3539 
Q 1666 3584 2028 3584 
Q 2975 3584 3395 3211 
Q 3816 2838 3816 1997 
z
" transform="scale(0.015625)"/>
     </defs>
     <use xlink:href="#DejaVuSans-Bold-61"/>
    </g>
   </g>
   <g id="LineCollection_2">
    <path d="M 256.795469 266.894 
L 256.795469 219.410527 
" clip-path="url(#p95b443b77f)" style="fill: none; stroke-dasharray: 5.55,2.4; stroke-dashoffset: 0; stroke: #34495e; stroke-opacity: 0.7; stroke-width: 1.5"/>
   </g>
   <g id="text_17">
    <!-- b -->
    <g style="fill: #34495e" transform="translate(252.500781 288.318771) scale(0.12 -0.12)">
     <defs>
      <path id="DejaVuSans-Bold-62" d="M 2400 722 
Q 2759 722 2948 984 
Q 3138 1247 3138 1747 
Q 3138 2247 2948 2509 
Q 2759 2772 2400 2772 
Q 2041 2772 1848 2508 
Q 1656 2244 1656 1747 
Q 1656 1250 1848 986 
Q 2041 722 2400 722 
z
M 1656 2988 
Q 1888 3294 2169 3439 
Q 2450 3584 2816 3584 
Q 3463 3584 3878 3070 
Q 4294 2556 4294 1747 
Q 4294 938 3878 423 
Q 3463 -91 2816 -91 
Q 2450 -91 2169 54 
Q 1888 200 1656 506 
L 1656 0 
L 538 0 
L 538 4863 
L 1656 4863 
L 1656 2988 
z
" transform="scale(0.015625)"/>
     </defs>
     <use xlink:href="#DejaVuSans-Bold-62"/>
    </g>
   </g>
   <g id="text_18">
    <!-- $P(a&lt;X&lt;b)=\int_a^b f_X(x)\,dx$ -->
    <g transform="translate(162.445469 29.59) scale(0.13 -0.13)">
     <defs>
      <path id="DejaVuSans-Oblique-50" d="M 1081 4666 
L 2541 4666 
Q 3178 4666 3512 4369 
Q 3847 4072 3847 3500 
Q 3847 2731 3353 2303 
Q 2859 1875 1966 1875 
L 1172 1875 
L 806 0 
L 172 0 
L 1081 4666 
z
M 1613 4147 
L 1275 2394 
L 2069 2394 
Q 2606 2394 2893 2669 
Q 3181 2944 3181 3456 
Q 3181 3784 2986 3965 
Q 2791 4147 2438 4147 
L 1613 4147 
z
" transform="scale(0.015625)"/>
      <path id="DejaVuSans-Oblique-61" d="M 3438 1997 
L 3047 0 
L 2472 0 
L 2578 531 
Q 2325 219 2001 64 
Q 1678 -91 1281 -91 
Q 834 -91 548 182 
Q 263 456 263 884 
Q 263 1497 752 1853 
Q 1241 2209 2100 2209 
L 2900 2209 
L 2931 2363 
Q 2938 2388 2941 2417 
Q 2944 2447 2944 2509 
Q 2944 2788 2717 2942 
Q 2491 3097 2081 3097 
Q 1800 3097 1504 3025 
Q 1209 2953 897 2809 
L 997 3341 
Q 1322 3463 1633 3523 
Q 1944 3584 2234 3584 
Q 2853 3584 3176 3315 
Q 3500 3047 3500 2534 
Q 3500 2431 3484 2292 
Q 3469 2153 3438 1997 
z
M 2816 1759 
L 2241 1759 
Q 1534 1759 1195 1570 
Q 856 1381 856 984 
Q 856 709 1029 553 
Q 1203 397 1509 397 
Q 1978 397 2328 733 
Q 2678 1069 2791 1631 
L 2816 1759 
z
" transform="scale(0.015625)"/>
      <path id="DejaVuSans-3c" d="M 4684 3150 
L 1459 2003 
L 4684 863 
L 4684 294 
L 678 1747 
L 678 2266 
L 4684 3719 
L 4684 3150 
z
" transform="scale(0.015625)"/>
      <path id="DejaVuSans-Oblique-62" d="M 3169 2138 
Q 3169 2591 2961 2847 
Q 2753 3103 2388 3103 
Q 2122 3103 1889 2973 
Q 1656 2844 1484 2597 
Q 1303 2338 1198 1995 
Q 1094 1653 1094 1313 
Q 1094 881 1298 636 
Q 1503 391 1863 391 
Q 2134 391 2365 517 
Q 2597 644 2772 891 
Q 2950 1147 3059 1487 
Q 3169 1828 3169 2138 
z
M 1381 2969 
Q 1594 3256 1914 3420 
Q 2234 3584 2584 3584 
Q 3122 3584 3439 3221 
Q 3756 2859 3756 2241 
Q 3756 1734 3570 1259 
Q 3384 784 3041 416 
Q 2816 172 2522 40 
Q 2228 -91 1906 -91 
Q 1566 -91 1316 65 
Q 1066 222 909 531 
L 806 0 
L 231 0 
L 1178 4863 
L 1753 4863 
L 1381 2969 
z
" transform="scale(0.015625)"/>
      <path id="DejaVuSans-3d" d="M 678 2906 
L 4684 2906 
L 4684 2381 
L 678 2381 
L 678 2906 
z
M 678 1631 
L 4684 1631 
L 4684 1100 
L 678 1100 
L 678 1631 
z
" transform="scale(0.015625)"/>
      <path id="DejaVuSansDisplay-222b" d="M 2134 5525 
Q 2172 6263 2528 6556 
Q 2884 6850 3218 6850 
Q 3553 6850 3833 6575 
Q 4113 6300 4200 5678 
L 3544 5613 
Q 3469 6188 3219 6188 
Q 2906 6188 2869 5413 
L 2581 -597 
Q 2547 -1334 2187 -1628 
Q 1828 -1922 1497 -1922 
Q 1163 -1922 883 -1647 
Q 603 -1372 516 -750 
L 1172 -684 
Q 1247 -1259 1497 -1259 
Q 1809 -1259 1847 -488 
L 2134 5525 
z
" transform="scale(0.015625)"/>
      <path id="DejaVuSans-Oblique-64" d="M 2675 525 
Q 2444 222 2128 65 
Q 1813 -91 1428 -91 
Q 903 -91 598 267 
Q 294 625 294 1247 
Q 294 1766 478 2236 
Q 663 2706 1013 3078 
Q 1244 3325 1534 3454 
Q 1825 3584 2144 3584 
Q 2481 3584 2739 3421 
Q 2997 3259 3138 2956 
L 3513 4863 
L 4091 4863 
L 3144 0 
L 2566 0 
L 2675 525 
z
M 891 1350 
Q 891 897 1095 644 
Q 1300 391 1663 391 
Q 1931 391 2161 520 
Q 2391 650 2566 903 
Q 2750 1166 2856 1509 
Q 2963 1853 2963 2188 
Q 2963 2622 2758 2865 
Q 2553 3109 2194 3109 
Q 1922 3109 1687 2981 
Q 1453 2853 1288 2613 
Q 1106 2353 998 2009 
Q 891 1666 891 1350 
z
" transform="scale(0.015625)"/>
     </defs>
     <use xlink:href="#DejaVuSans-Oblique-50" transform="translate(0 0.654688)"/>
     <use xlink:href="#DejaVuSans-28" transform="translate(60.302734 0.654688)"/>
     <use xlink:href="#DejaVuSans-Oblique-61" transform="translate(99.316406 0.654688)"/>
     <use xlink:href="#DejaVuSans-3c" transform="translate(180.078125 0.654688)"/>
     <use xlink:href="#DejaVuSans-Oblique-58" transform="translate(283.349609 0.654688)"/>
     <use xlink:href="#DejaVuSans-3c" transform="translate(371.337891 0.654688)"/>
     <use xlink:href="#DejaVuSans-Oblique-62" transform="translate(474.609375 0.654688)"/>
     <use xlink:href="#DejaVuSans-29" transform="translate(538.085938 0.654688)"/>
     <use xlink:href="#DejaVuSans-3d" transform="translate(596.582031 0.654688)"/>
     <use xlink:href="#DejaVuSansDisplay-222b" transform="translate(699.853516 0.654688)"/>
     <use xlink:href="#DejaVuSans-Oblique-62" transform="translate(786.597656 85.810937) scale(0.7)"/>
     <use xlink:href="#DejaVuSans-Oblique-61" transform="translate(771.613281 -51.251563) scale(0.7)"/>
     <use xlink:href="#DejaVuSans-Oblique-66" transform="translate(831.03125 0.654688)"/>
     <use xlink:href="#DejaVuSans-Oblique-58" transform="translate(866.236328 -15.751562) scale(0.7)"/>
     <use xlink:href="#DejaVuSans-28" transform="translate(916.924805 0.654688)"/>
     <use xlink:href="#DejaVuSans-Oblique-78" transform="translate(955.938477 0.654688)"/>
     <use xlink:href="#DejaVuSans-29" transform="translate(1015.118164 0.654688)"/>
     <use xlink:href="#DejaVuSans-Oblique-64" transform="translate(1070.367512 0.654688)"/>
     <use xlink:href="#DejaVuSans-Oblique-78" transform="translate(1133.844075 0.654688)"/>
    </g>
   </g>
   <g id="line2d_27">
    <path d="M 55.915469 266.871322 
L 66.055844 266.707008 
L 71.126032 266.414611 
L 74.813441 265.98692 
L 77.578998 265.467806 
L 79.883629 264.849055 
L 82.18826 264.005894 
L 84.031964 263.12822 
L 85.875669 262.030586 
L 87.719374 260.672474 
L 89.563078 259.009964 
L 91.406783 256.996521 
L 93.250488 254.584074 
L 95.094192 251.724415 
L 96.937897 248.37088 
L 98.781601 244.48027 
L 100.625306 240.014968 
L 102.469011 234.945141 
L 104.312715 229.250922 
L 106.15642 222.924452 
L 108.461051 214.137708 
L 110.765682 204.418494 
L 113.531238 191.64586 
L 116.757722 175.499554 
L 121.366983 151.032179 
L 127.359023 119.336436 
L 130.585506 103.570122 
L 132.890137 93.263974 
L 135.194768 83.93175 
L 137.038473 77.246671 
L 138.882177 71.301341 
L 140.725882 66.120609 
L 142.569586 61.713545 
L 143.952365 58.913139 
L 145.335143 56.537858 
L 146.717922 54.576835 
L 148.1007 53.016051 
L 149.483479 51.838861 
L 150.866257 51.026519 
L 152.249036 50.558701 
L 153.631814 50.414 
L 155.014593 50.570389 
L 156.397371 51.005641 
L 157.78015 51.697697 
L 159.162928 52.624985 
L 161.006633 54.191425 
L 162.850337 56.092491 
L 164.694042 58.285148 
L 166.998673 61.376903 
L 169.76423 65.5142 
L 172.990713 70.808424 
L 176.678122 77.325952 
L 181.287384 85.972403 
L 187.279424 97.748057 
L 196.497947 116.433984 
L 209.403879 142.526878 
L 216.317772 156.001477 
L 222.309812 167.205803 
L 227.840926 177.069988 
L 232.911113 185.655726 
L 237.520375 193.050938 
L 242.129636 200.035289 
L 246.738898 206.595628 
L 250.887233 212.131369 
L 255.035569 217.316406 
L 259.183904 222.152657 
L 263.33224 226.645008 
L 267.480575 230.800964 
L 271.628911 234.630294 
L 275.777246 238.144684 
L 279.925581 241.357393 
L 284.073917 244.28292 
L 288.222252 246.936698 
L 292.370588 249.334797 
L 296.518923 251.493665 
L 301.128185 253.63199 
L 305.737446 255.518046 
L 310.346708 257.174015 
L 315.416896 258.755454 
L 320.487083 260.111807 
L 326.018197 261.364974 
L 332.010237 262.490783 
L 338.463203 263.473646 
L 345.377096 264.306756 
L 353.21284 265.028423 
L 362.431364 265.642493 
L 373.032665 266.118402 
L 386.399524 266.482084 
L 404.375644 266.727022 
L 424.195469 266.836415 
L 424.195469 266.836415 
" clip-path="url(#p95b443b77f)" style="fill: none; stroke: #2980b9; stroke-width: 2.6; stroke-linecap: square"/>
   </g>
   <g id="legend_1">
    <g id="patch_5">
     <path d="M 296.230469 61.134219 
L 417.545469 61.134219 
Q 419.445469 61.134219 419.445469 59.234219 
L 419.445469 46.24 
Q 419.445469 44.34 417.545469 44.34 
L 296.230469 44.34 
Q 294.330469 44.34 294.330469 46.24 
L 294.330469 59.234219 
Q 294.330469 61.134219 296.230469 61.134219 
z
" style="fill: #ffffff; opacity: 0.92; stroke: #cccccc; stroke-linejoin: miter"/>
    </g>
    <g id="patch_6">
     <path d="M 298.130469 55.358516 
L 317.130469 55.358516 
L 317.130469 48.708516 
L 298.130469 48.708516 
z
" style="fill: #2980b9; fill-opacity: 0.28; stroke: #2980b9; stroke-opacity: 0.28; stroke-linejoin: miter"/>
    </g>
    <g id="text_19">
     <!-- área $=P(a&lt;X&lt;b)$ -->
     <g transform="translate(324.730469 55.358516) scale(0.095 -0.095)">
      <defs>
       <path id="DejaVuSans-e1" d="M 2194 1759 
Q 1497 1759 1228 1600 
Q 959 1441 959 1056 
Q 959 750 1161 570 
Q 1363 391 1709 391 
Q 2188 391 2477 730 
Q 2766 1069 2766 1631 
L 2766 1759 
L 2194 1759 
z
M 3341 1997 
L 3341 0 
L 2766 0 
L 2766 531 
Q 2569 213 2275 61 
Q 1981 -91 1556 -91 
Q 1019 -91 701 211 
Q 384 513 384 1019 
Q 384 1609 779 1909 
Q 1175 2209 1959 2209 
L 2766 2209 
L 2766 2266 
Q 2766 2663 2505 2880 
Q 2244 3097 1772 3097 
Q 1472 3097 1187 3025 
Q 903 2953 641 2809 
L 641 3341 
Q 956 3463 1253 3523 
Q 1550 3584 1831 3584 
Q 2591 3584 2966 3190 
Q 3341 2797 3341 1997 
z
M 2290 5119 
L 2912 5119 
L 1894 3944 
L 1415 3944 
L 2290 5119 
z
" transform="scale(0.015625)"/>
       <path id="DejaVuSans-72" d="M 2631 2963 
Q 2534 3019 2420 3045 
Q 2306 3072 2169 3072 
Q 1681 3072 1420 2755 
Q 1159 2438 1159 1844 
L 1159 0 
L 581 0 
L 581 3500 
L 1159 3500 
L 1159 2956 
Q 1341 3275 1631 3429 
Q 1922 3584 2338 3584 
Q 2397 3584 2469 3576 
Q 2541 3569 2628 3553 
L 2631 2963 
z
" transform="scale(0.015625)"/>
       <path id="DejaVuSans-65" d="M 3597 1894 
L 3597 1613 
L 953 1613 
Q 991 1019 1311 708 
Q 1631 397 2203 397 
Q 2534 397 2845 478 
Q 3156 559 3463 722 
L 3463 178 
Q 3153 47 2828 -22 
Q 2503 -91 2169 -91 
Q 1331 -91 842 396 
Q 353 884 353 1716 
Q 353 2575 817 3079 
Q 1281 3584 2069 3584 
Q 2775 3584 3186 3129 
Q 3597 2675 3597 1894 
z
M 3022 2063 
Q 3016 2534 2758 2815 
Q 2500 3097 2075 3097 
Q 1594 3097 1305 2825 
Q 1016 2553 972 2059 
L 3022 2063 
z
" transform="scale(0.015625)"/>
       <path id="DejaVuSans-61" d="M 2194 1759 
Q 1497 1759 1228 1600 
Q 959 1441 959 1056 
Q 959 750 1161 570 
Q 1363 391 1709 391 
Q 2188 391 2477 730 
Q 2766 1069 2766 1631 
L 2766 1759 
L 2194 1759 
z
M 3341 1997 
L 3341 0 
L 2766 0 
L 2766 531 
Q 2569 213 2275 61 
Q 1981 -91 1556 -91 
Q 1019 -91 701 211 
Q 384 513 384 1019 
Q 384 1609 779 1909 
Q 1175 2209 1959 2209 
L 2766 2209 
L 2766 2266 
Q 2766 2663 2505 2880 
Q 2244 3097 1772 3097 
Q 1472 3097 1187 3025 
Q 903 2953 641 2809 
L 641 3341 
Q 956 3463 1253 3523 
Q 1550 3584 1831 3584 
Q 2591 3584 2966 3190 
Q 3341 2797 3341 1997 
z
" transform="scale(0.015625)"/>
       <path id="DejaVuSans-20" transform="scale(0.015625)"/>
      </defs>
      <use xlink:href="#DejaVuSans-e1" transform="translate(0 0.015625)"/>
      <use xlink:href="#DejaVuSans-72" transform="translate(61.279297 0.015625)"/>
      <use xlink:href="#DejaVuSans-65" transform="translate(102.392578 0.015625)"/>
      <use xlink:href="#DejaVuSans-61" transform="translate(163.916016 0.015625)"/>
      <use xlink:href="#DejaVuSans-20" transform="translate(225.195312 0.015625)"/>
      <use xlink:href="#DejaVuSans-3d" transform="translate(276.464844 0.015625)"/>
      <use xlink:href="#DejaVuSans-Oblique-50" transform="translate(379.736328 0.015625)"/>
      <use xlink:href="#DejaVuSans-28" transform="translate(440.039062 0.015625)"/>
      <use xlink:href="#DejaVuSans-Oblique-61" transform="translate(479.052734 0.015625)"/>
      <use xlink:href="#DejaVuSans-3c" transform="translate(559.814453 0.015625)"/>
      <use xlink:href="#DejaVuSans-Oblique-58" transform="translate(663.085938 0.015625)"/>
      <use xlink:href="#DejaVuSans-3c" transform="translate(751.074219 0.015625)"/>
      <use xlink:href="#DejaVuSans-Oblique-62" transform="translate(854.345703 0.015625)"/>
      <use xlink:href="#DejaVuSans-29" transform="translate(917.822266 0.015625)"/>
     </g>
    </g>
   </g>
  </g>
 </g>
 <defs>
  <clipPath id="p95b443b77f">
   <rect x="55.915469" y="39.59" width="368.28" height="227.304"/>
  </clipPath>
 </defs>
</svg>
