<?xml version="1.0" encoding="utf-8" standalone="no"?>
<!DOCTYPE svg PUBLIC "-//W3C//DTD SVG 1.1//EN"
  "http://www.w3.org/Graphics/SVG/1.1/DTD/svg11.dtd">
<svg xmlns:xlink="http://www.w3.org/1999/xlink" width="436.545625pt" height="302.031969pt" viewBox="0 0 436.545625 302.031969" xmlns="http://www.w3.org/2000/svg" version="1.1">
 <metadata>
  <rdf:RDF xmlns:dc="http://purl.org/dc/elements/1.1/" xmlns:cc="http://creativecommons.org/ns#" xmlns:rdf="http://www.w3.org/1999/02/22-rdf-syntax-ns#">
   <cc:Work>
    <dc:type rdf:resource="http://purl.org/dc/dcmitype/StillImage"/>
    <dc:date>2026-06-30T11:51:44.065361</dc:date>
    <dc:format>image/svg+xml</dc:format>
    <dc:creator>
     <cc:Agent>
      <dc:title>Matplotlib v3.9.2, https://matplotlib.org/</dc:title>
     </cc:Agent>
    </dc:creator>
   </cc:Work>
  </rdf:RDF>
 </metadata>
 <defs>
  <style type="text/css">*{stroke-linejoin: round; stroke-linecap: butt}</style>
 </defs>
 <g id="figure_1">
  <g id="patch_1">
   <path d="M 0 302.031969 
L 436.545625 302.031969 
L 436.545625 0 
L 0 0 
z
" style="fill: #ffffff"/>
  </g>
  <g id="axes_1">
   <g id="patch_2">
    <path d="M 50.383125 258.704 
L 418.663125 258.704 
L 418.663125 31.4 
L 50.383125 31.4 
z
" style="fill: #ffffff"/>
   </g>
   <g id="matplotlib.axis_1">
    <g id="xtick_1">
     <g id="line2d_1">
      <path d="M 50.383125 258.704 
L 50.383125 31.4 
" clip-path="url(#p54fecd3eed)" style="fill: none; stroke-dasharray: 0.8,1.28; stroke-dashoffset: 0; stroke: #b0b0b0; stroke-opacity: 0.3; stroke-width: 0.8"/>
     </g>
     <g id="line2d_2">
      <defs>
       <path id="m5862151fcb" d="M 0 0 
L 0 3.5 
" style="stroke: #2c3e50; stroke-width: 0.8"/>
      </defs>
      <g>
       <use xlink:href="#m5862151fcb" x="50.383125" y="258.704" style="fill: #2c3e50; stroke: #2c3e50; stroke-width: 0.8"/>
      </g>
     </g>
     <g id="text_1">
      <!-- 0 -->
      <g style="fill: #2c3e50" transform="translate(47.201875 273.302437) scale(0.1 -0.1)">
       <defs>
        <path id="DejaVuSans-30" d="M 2034 4250 
Q 1547 4250 1301 3770 
Q 1056 3291 1056 2328 
Q 1056 1369 1301 889 
Q 1547 409 2034 409 
Q 2525 409 2770 889 
Q 3016 1369 3016 2328 
Q 3016 3291 2770 3770 
Q 2525 4250 2034 4250 
z
M 2034 4750 
Q 2819 4750 3233 4129 
Q 3647 3509 3647 2328 
Q 3647 1150 3233 529 
Q 2819 -91 2034 -91 
Q 1250 -91 836 529 
Q 422 1150 422 2328 
Q 422 3509 836 4129 
Q 1250 4750 2034 4750 
z
" transform="scale(0.015625)"/>
       </defs>
       <use xlink:href="#DejaVuSans-30"/>
      </g>
     </g>
    </g>
    <g id="xtick_2">
     <g id="line2d_3">
      <path d="M 102.994554 258.704 
L 102.994554 31.4 
" clip-path="url(#p54fecd3eed)" style="fill: none; stroke-dasharray: 0.8,1.28; stroke-dashoffset: 0; stroke: #b0b0b0; stroke-opacity: 0.3; stroke-width: 0.8"/>
     </g>
     <g id="line2d_4">
      <g>
       <use xlink:href="#m5862151fcb" x="102.994554" y="258.704" style="fill: #2c3e50; stroke: #2c3e50; stroke-width: 0.8"/>
      </g>
     </g>
     <g id="text_2">
      <!-- 2 -->
      <g style="fill: #2c3e50" transform="translate(99.813304 273.302437) scale(0.1 -0.1)">
       <defs>
        <path id="DejaVuSans-32" d="M 1228 531 
L 3431 531 
L 3431 0 
L 469 0 
L 469 531 
Q 828 903 1448 1529 
Q 2069 2156 2228 2338 
Q 2531 2678 2651 2914 
Q 2772 3150 2772 3378 
Q 2772 3750 2511 3984 
Q 2250 4219 1831 4219 
Q 1534 4219 1204 4116 
Q 875 4013 500 3803 
L 500 4441 
Q 881 4594 1212 4672 
Q 1544 4750 1819 4750 
Q 2544 4750 2975 4387 
Q 3406 4025 3406 3419 
Q 3406 3131 3298 2873 
Q 3191 2616 2906 2266 
Q 2828 2175 2409 1742 
Q 1991 1309 1228 531 
z
" transform="scale(0.015625)"/>
       </defs>
       <use xlink:href="#DejaVuSans-32"/>
      </g>
     </g>
    </g>
    <g id="xtick_3">
     <g id="line2d_5">
      <path d="M 155.605982 258.704 
L 155.605982 31.4 
" clip-path="url(#p54fecd3eed)" style="fill: none; stroke-dasharray: 0.8,1.28; stroke-dashoffset: 0; stroke: #b0b0b0; stroke-opacity: 0.3; stroke-width: 0.8"/>
     </g>
     <g id="line2d_6">
      <g>
       <use xlink:href="#m5862151fcb" x="155.605982" y="258.704" style="fill: #2c3e50; stroke: #2c3e50; stroke-width: 0.8"/>
      </g>
     </g>
     <g id="text_3">
      <!-- 4 -->
      <g style="fill: #2c3e50" transform="translate(152.424732 273.302437) scale(0.1 -0.1)">
       <defs>
        <path id="DejaVuSans-34" d="M 2419 4116 
L 825 1625 
L 2419 1625 
L 2419 4116 
z
M 2253 4666 
L 3047 4666 
L 3047 1625 
L 3713 1625 
L 3713 1100 
L 3047 1100 
L 3047 0 
L 2419 0 
L 2419 1100 
L 313 1100 
L 313 1709 
L 2253 4666 
z
" transform="scale(0.015625)"/>
       </defs>
       <use xlink:href="#DejaVuSans-34"/>
      </g>
     </g>
    </g>
    <g id="xtick_4">
     <g id="line2d_7">
      <path d="M 208.217411 258.704 
L 208.217411 31.4 
" clip-path="url(#p54fecd3eed)" style="fill: none; stroke-dasharray: 0.8,1.28; stroke-dashoffset: 0; stroke: #b0b0b0; stroke-opacity: 0.3; stroke-width: 0.8"/>
     </g>
     <g id="line2d_8">
      <g>
       <use xlink:href="#m5862151fcb" x="208.217411" y="258.704" style="fill: #2c3e50; stroke: #2c3e50; stroke-width: 0.8"/>
      </g>
     </g>
     <g id="text_4">
      <!-- 6 -->
      <g style="fill: #2c3e50" transform="translate(205.036161 273.302437) scale(0.1 -0.1)">
       <defs>
        <path id="DejaVuSans-36" d="M 2113 2584 
Q 1688 2584 1439 2293 
Q 1191 2003 1191 1497 
Q 1191 994 1439 701 
Q 1688 409 2113 409 
Q 2538 409 2786 701 
Q 3034 994 3034 1497 
Q 3034 2003 2786 2293 
Q 2538 2584 2113 2584 
z
M 3366 4563 
L 3366 3988 
Q 3128 4100 2886 4159 
Q 2644 4219 2406 4219 
Q 1781 4219 1451 3797 
Q 1122 3375 1075 2522 
Q 1259 2794 1537 2939 
Q 1816 3084 2150 3084 
Q 2853 3084 3261 2657 
Q 3669 2231 3669 1497 
Q 3669 778 3244 343 
Q 2819 -91 2113 -91 
Q 1303 -91 875 529 
Q 447 1150 447 2328 
Q 447 3434 972 4092 
Q 1497 4750 2381 4750 
Q 2619 4750 2861 4703 
Q 3103 4656 3366 4563 
z
" transform="scale(0.015625)"/>
       </defs>
       <use xlink:href="#DejaVuSans-36"/>
      </g>
     </g>
    </g>
    <g id="xtick_5">
     <g id="line2d_9">
      <path d="M 260.828839 258.704 
L 260.828839 31.4 
" clip-path="url(#p54fecd3eed)" style="fill: none; stroke-dasharray: 0.8,1.28; stroke-dashoffset: 0; stroke: #b0b0b0; stroke-opacity: 0.3; stroke-width: 0.8"/>
     </g>
     <g id="line2d_10">
      <g>
       <use xlink:href="#m5862151fcb" x="260.828839" y="258.704" style="fill: #2c3e50; stroke: #2c3e50; stroke-width: 0.8"/>
      </g>
     </g>
     <g id="text_5">
      <!-- 8 -->
      <g style="fill: #2c3e50" transform="translate(257.647589 273.302437) scale(0.1 -0.1)">
       <defs>
        <path id="DejaVuSans-38" d="M 2034 2216 
Q 1584 2216 1326 1975 
Q 1069 1734 1069 1313 
Q 1069 891 1326 650 
Q 1584 409 2034 409 
Q 2484 409 2743 651 
Q 3003 894 3003 1313 
Q 3003 1734 2745 1975 
Q 2488 2216 2034 2216 
z
M 1403 2484 
Q 997 2584 770 2862 
Q 544 3141 544 3541 
Q 544 4100 942 4425 
Q 1341 4750 2034 4750 
Q 2731 4750 3128 4425 
Q 3525 4100 3525 3541 
Q 3525 3141 3298 2862 
Q 3072 2584 2669 2484 
Q 3125 2378 3379 2068 
Q 3634 1759 3634 1313 
Q 3634 634 3220 271 
Q 2806 -91 2034 -91 
Q 1263 -91 848 271 
Q 434 634 434 1313 
Q 434 1759 690 2068 
Q 947 2378 1403 2484 
z
M 1172 3481 
Q 1172 3119 1398 2916 
Q 1625 2713 2034 2713 
Q 2441 2713 2670 2916 
Q 2900 3119 2900 3481 
Q 2900 3844 2670 4047 
Q 2441 4250 2034 4250 
Q 1625 4250 1398 4047 
Q 1172 3844 1172 3481 
z
" transform="scale(0.015625)"/>
       </defs>
       <use xlink:href="#DejaVuSans-38"/>
      </g>
     </g>
    </g>
    <g id="xtick_6">
     <g id="line2d_11">
      <path d="M 313.440268 258.704 
L 313.440268 31.4 
" clip-path="url(#p54fecd3eed)" style="fill: none; stroke-dasharray: 0.8,1.28; stroke-dashoffset: 0; stroke: #b0b0b0; stroke-opacity: 0.3; stroke-width: 0.8"/>
     </g>
     <g id="line2d_12">
      <g>
       <use xlink:href="#m5862151fcb" x="313.440268" y="258.704" style="fill: #2c3e50; stroke: #2c3e50; stroke-width: 0.8"/>
      </g>
     </g>
     <g id="text_6">
      <!-- 10 -->
      <g style="fill: #2c3e50" transform="translate(307.077768 273.302437) scale(0.1 -0.1)">
       <defs>
        <path id="DejaVuSans-31" d="M 794 531 
L 1825 531 
L 1825 4091 
L 703 3866 
L 703 4441 
L 1819 4666 
L 2450 4666 
L 2450 531 
L 3481 531 
L 3481 0 
L 794 0 
L 794 531 
z
" transform="scale(0.015625)"/>
       </defs>
       <use xlink:href="#DejaVuSans-31"/>
       <use xlink:href="#DejaVuSans-30" x="63.623047"/>
      </g>
     </g>
    </g>
    <g id="xtick_7">
     <g id="line2d_13">
      <path d="M 366.051696 258.704 
L 366.051696 31.4 
" clip-path="url(#p54fecd3eed)" style="fill: none; stroke-dasharray: 0.8,1.28; stroke-dashoffset: 0; stroke: #b0b0b0; stroke-opacity: 0.3; stroke-width: 0.8"/>
     </g>
     <g id="line2d_14">
      <g>
       <use xlink:href="#m5862151fcb" x="366.051696" y="258.704" style="fill: #2c3e50; stroke: #2c3e50; stroke-width: 0.8"/>
      </g>
     </g>
     <g id="text_7">
      <!-- 12 -->
      <g style="fill: #2c3e50" transform="translate(359.689196 273.302437) scale(0.1 -0.1)">
       <use xlink:href="#DejaVuSans-31"/>
       <use xlink:href="#DejaVuSans-32" x="63.623047"/>
      </g>
     </g>
    </g>
    <g id="xtick_8">
     <g id="line2d_15">
      <path d="M 418.663125 258.704 
L 418.663125 31.4 
" clip-path="url(#p54fecd3eed)" style="fill: none; stroke-dasharray: 0.8,1.28; stroke-dashoffset: 0; stroke: #b0b0b0; stroke-opacity: 0.3; stroke-width: 0.8"/>
     </g>
     <g id="line2d_16">
      <g>
       <use xlink:href="#m5862151fcb" x="418.663125" y="258.704" style="fill: #2c3e50; stroke: #2c3e50; stroke-width: 0.8"/>
      </g>
     </g>
     <g id="text_8">
      <!-- 14 -->
      <g style="fill: #2c3e50" transform="translate(412.300625 273.302437) scale(0.1 -0.1)">
       <use xlink:href="#DejaVuSans-31"/>
       <use xlink:href="#DejaVuSans-34" x="63.623047"/>
      </g>
     </g>
    </g>
    <g id="text_9">
     <!-- $t$ -->
     <g transform="translate(232.223125 288.120328) scale(0.115 -0.115)">
      <defs>
       <path id="DejaVuSans-Oblique-74" d="M 2706 3500 
L 2619 3053 
L 1472 3053 
L 1100 1153 
Q 1081 1047 1072 975 
Q 1063 903 1063 863 
Q 1063 663 1183 572 
Q 1303 481 1569 481 
L 2150 481 
L 2053 0 
L 1503 0 
Q 991 0 739 200 
Q 488 400 488 806 
Q 488 878 497 964 
Q 506 1050 525 1153 
L 897 3053 
L 409 3053 
L 500 3500 
L 978 3500 
L 1172 4494 
L 1747 4494 
L 1556 3500 
L 2706 3500 
z
" transform="scale(0.015625)"/>
      </defs>
      <use xlink:href="#DejaVuSans-Oblique-74" transform="translate(0 0.78125)"/>
     </g>
    </g>
   </g>
   <g id="matplotlib.axis_2">
    <g id="ytick_1">
     <g id="line2d_17">
      <path d="M 50.383125 258.704 
L 418.663125 258.704 
" clip-path="url(#p54fecd3eed)" style="fill: none; stroke-dasharray: 0.8,1.28; stroke-dashoffset: 0; stroke: #b0b0b0; stroke-opacity: 0.3; stroke-width: 0.8"/>
     </g>
     <g id="line2d_18">
      <defs>
       <path id="m7087c95c64" d="M 0 0 
L -3.5 0 
" style="stroke: #2c3e50; stroke-width: 0.8"/>
      </defs>
      <g>
       <use xlink:href="#m7087c95c64" x="50.383125" y="258.704" style="fill: #2c3e50; stroke: #2c3e50; stroke-width: 0.8"/>
      </g>
     </g>
     <g id="text_10">
      <!-- 0.0 -->
      <g style="fill: #2c3e50" transform="translate(27.48 262.503219) scale(0.1 -0.1)">
       <defs>
        <path id="DejaVuSans-2e" d="M 684 794 
L 1344 794 
L 1344 0 
L 684 0 
L 684 794 
z
" transform="scale(0.015625)"/>
       </defs>
       <use xlink:href="#DejaVuSans-30"/>
       <use xlink:href="#DejaVuSans-2e" x="63.623047"/>
       <use xlink:href="#DejaVuSans-30" x="95.410156"/>
      </g>
     </g>
    </g>
    <g id="ytick_2">
     <g id="line2d_19">
      <path d="M 50.383125 215.408 
L 418.663125 215.408 
" clip-path="url(#p54fecd3eed)" style="fill: none; stroke-dasharray: 0.8,1.28; stroke-dashoffset: 0; stroke: #b0b0b0; stroke-opacity: 0.3; stroke-width: 0.8"/>
     </g>
     <g id="line2d_20">
      <g>
       <use xlink:href="#m7087c95c64" x="50.383125" y="215.408" style="fill: #2c3e50; stroke: #2c3e50; stroke-width: 0.8"/>
      </g>
     </g>
     <g id="text_11">
      <!-- 0.2 -->
      <g style="fill: #2c3e50" transform="translate(27.48 219.207219) scale(0.1 -0.1)">
       <use xlink:href="#DejaVuSans-30"/>
       <use xlink:href="#DejaVuSans-2e" x="63.623047"/>
       <use xlink:href="#DejaVuSans-32" x="95.410156"/>
      </g>
     </g>
    </g>
    <g id="ytick_3">
     <g id="line2d_21">
      <path d="M 50.383125 172.112 
L 418.663125 172.112 
" clip-path="url(#p54fecd3eed)" style="fill: none; stroke-dasharray: 0.8,1.28; stroke-dashoffset: 0; stroke: #b0b0b0; stroke-opacity: 0.3; stroke-width: 0.8"/>
     </g>
     <g id="line2d_22">
      <g>
       <use xlink:href="#m7087c95c64" x="50.383125" y="172.112" style="fill: #2c3e50; stroke: #2c3e50; stroke-width: 0.8"/>
      </g>
     </g>
     <g id="text_12">
      <!-- 0.4 -->
      <g style="fill: #2c3e50" transform="translate(27.48 175.911219) scale(0.1 -0.1)">
       <use xlink:href="#DejaVuSans-30"/>
       <use xlink:href="#DejaVuSans-2e" x="63.623047"/>
       <use xlink:href="#DejaVuSans-34" x="95.410156"/>
      </g>
     </g>
    </g>
    <g id="ytick_4">
     <g id="line2d_23">
      <path d="M 50.383125 128.816 
L 418.663125 128.816 
" clip-path="url(#p54fecd3eed)" style="fill: none; stroke-dasharray: 0.8,1.28; stroke-dashoffset: 0; stroke: #b0b0b0; stroke-opacity: 0.3; stroke-width: 0.8"/>
     </g>
     <g id="line2d_24">
      <g>
       <use xlink:href="#m7087c95c64" x="50.383125" y="128.816" style="fill: #2c3e50; stroke: #2c3e50; stroke-width: 0.8"/>
      </g>
     </g>
     <g id="text_13">
      <!-- 0.6 -->
      <g style="fill: #2c3e50" transform="translate(27.48 132.615219) scale(0.1 -0.1)">
       <use xlink:href="#DejaVuSans-30"/>
       <use xlink:href="#DejaVuSans-2e" x="63.623047"/>
       <use xlink:href="#DejaVuSans-36" x="95.410156"/>
      </g>
     </g>
    </g>
    <g id="ytick_5">
     <g id="line2d_25">
      <path d="M 50.383125 85.52 
L 418.663125 85.52 
" clip-path="url(#p54fecd3eed)" style="fill: none; stroke-dasharray: 0.8,1.28; stroke-dashoffset: 0; stroke: #b0b0b0; stroke-opacity: 0.3; stroke-width: 0.8"/>
     </g>
     <g id="line2d_26">
      <g>
       <use xlink:href="#m7087c95c64" x="50.383125" y="85.52" style="fill: #2c3e50; stroke: #2c3e50; stroke-width: 0.8"/>
      </g>
     </g>
     <g id="text_14">
      <!-- 0.8 -->
      <g style="fill: #2c3e50" transform="translate(27.48 89.319219) scale(0.1 -0.1)">
       <use xlink:href="#DejaVuSans-30"/>
       <use xlink:href="#DejaVuSans-2e" x="63.623047"/>
       <use xlink:href="#DejaVuSans-38" x="95.410156"/>
      </g>
     </g>
    </g>
    <g id="ytick_6">
     <g id="line2d_27">
      <path d="M 50.383125 42.224 
L 418.663125 42.224 
" clip-path="url(#p54fecd3eed)" style="fill: none; stroke-dasharray: 0.8,1.28; stroke-dashoffset: 0; stroke: #b0b0b0; stroke-opacity: 0.3; stroke-width: 0.8"/>
     </g>
     <g id="line2d_28">
      <g>
       <use xlink:href="#m7087c95c64" x="50.383125" y="42.224" style="fill: #2c3e50; stroke: #2c3e50; stroke-width: 0.8"/>
      </g>
     </g>
     <g id="text_15">
      <!-- 1.0 -->
      <g style="fill: #2c3e50" transform="translate(27.48 46.023219) scale(0.1 -0.1)">
       <use xlink:href="#DejaVuSans-31"/>
       <use xlink:href="#DejaVuSans-2e" x="63.623047"/>
       <use xlink:href="#DejaVuSans-30" x="95.410156"/>
      </g>
     </g>
    </g>
    <g id="text_16">
     <!-- $f_{T_k}(t)$ -->
     <g transform="translate(20.26 158.2195) rotate(-90) scale(0.115 -0.115)">
      <defs>
       <path id="DejaVuSans-Oblique-66" d="M 3059 4863 
L 2969 4384 
L 2419 4384 
Q 2106 4384 1964 4261 
Q 1822 4138 1753 3809 
L 1691 3500 
L 2638 3500 
L 2553 3053 
L 1606 3053 
L 1013 0 
L 434 0 
L 1031 3053 
L 481 3053 
L 563 3500 
L 1113 3500 
L 1159 3744 
Q 1278 4363 1576 4613 
Q 1875 4863 2516 4863 
L 3059 4863 
z
" transform="scale(0.015625)"/>
       <path id="DejaVuSans-Oblique-54" d="M 378 4666 
L 4325 4666 
L 4225 4134 
L 2559 4134 
L 1759 0 
L 1125 0 
L 1925 4134 
L 275 4134 
L 378 4666 
z
" transform="scale(0.015625)"/>
       <path id="DejaVuSans-Oblique-6b" d="M 1172 4863 
L 1747 4863 
L 1197 2028 
L 3169 3500 
L 3916 3500 
L 1716 1825 
L 3322 0 
L 2625 0 
L 1131 1709 
L 800 0 
L 225 0 
L 1172 4863 
z
" transform="scale(0.015625)"/>
       <path id="DejaVuSans-28" d="M 1984 4856 
Q 1566 4138 1362 3434 
Q 1159 2731 1159 2009 
Q 1159 1288 1364 580 
Q 1569 -128 1984 -844 
L 1484 -844 
Q 1016 -109 783 600 
Q 550 1309 550 2009 
Q 550 2706 781 3412 
Q 1013 4119 1484 4856 
L 1984 4856 
z
" transform="scale(0.015625)"/>
       <path id="DejaVuSans-29" d="M 513 4856 
L 1013 4856 
Q 1481 4119 1714 3412 
Q 1947 2706 1947 2009 
Q 1947 1309 1714 600 
Q 1481 -109 1013 -844 
L 513 -844 
Q 928 -128 1133 580 
Q 1338 1288 1338 2009 
Q 1338 2731 1133 3434 
Q 928 4138 513 4856 
z
" transform="scale(0.015625)"/>
      </defs>
      <use xlink:href="#DejaVuSans-Oblique-66" transform="translate(0 0.015625)"/>
      <use xlink:href="#DejaVuSans-Oblique-54" transform="translate(35.205078 -16.390625) scale(0.7)"/>
      <use xlink:href="#DejaVuSans-Oblique-6b" transform="translate(77.963867 -27.875) scale(0.49)"/>
      <use xlink:href="#DejaVuSans-28" transform="translate(110.988281 0.015625)"/>
      <use xlink:href="#DejaVuSans-Oblique-74" transform="translate(150.001953 0.015625)"/>
      <use xlink:href="#DejaVuSans-29" transform="translate(189.210938 0.015625)"/>
     </g>
    </g>
   </g>
   <g id="line2d_29">
    <path d="M 50.383125 42.224 
L 52.841056 61.535043 
L 55.298987 79.123449 
L 57.756918 95.142886 
L 60.214849 109.733313 
L 62.67278 123.022205 
L 65.130711 135.125665 
L 67.588642 146.149438 
L 70.046573 156.189839 
L 72.504504 165.334588 
L 74.962435 173.663583 
L 77.420366 181.249591 
L 79.878297 188.158892 
L 82.336228 194.45185 
L 84.794159 200.183447 
L 87.252091 205.403758 
L 89.710022 210.158392 
L 92.167953 214.488891 
L 94.625884 218.433088 
L 97.49347 222.59221 
L 100.361056 226.321783 
L 103.228642 229.666172 
L 106.096228 232.665157 
L 108.963815 235.354411 
L 111.831401 237.765923 
L 115.108642 240.218503 
L 118.385884 242.3838 
L 121.663125 244.295465 
L 125.350022 246.179772 
L 129.036918 247.817655 
L 133.13347 249.387559 
L 137.639677 250.854269 
L 142.145884 252.090071 
L 147.061746 253.217429 
L 152.796918 254.292197 
L 158.941746 255.211246 
L 165.905884 256.023638 
L 174.098987 256.740959 
L 183.521056 257.331932 
L 194.991401 257.816832 
L 209.329332 258.189609 
L 228.99278 258.46041 
L 258.897608 258.625847 
L 320.345884 258.696441 
L 418.663125 258.70382 
L 418.663125 258.70382 
" clip-path="url(#p54fecd3eed)" style="fill: none; stroke: #2980b9; stroke-width: 2.6; stroke-linecap: square"/>
   </g>
   <g id="line2d_30">
    <path d="M 50.383125 258.704 
L 52.021746 246.033514 
L 53.660366 234.893394 
L 55.298987 225.145009 
L 56.937608 216.660893 
L 58.576228 209.323898 
L 60.214849 203.026413 
L 61.85347 197.669644 
L 63.492091 193.162936 
L 65.130711 189.423153 
L 66.769332 186.374102 
L 67.998297 184.498398 
L 69.227263 182.944613 
L 70.456228 181.687269 
L 71.685194 180.702542 
L 72.914159 179.968163 
L 74.143125 179.463331 
L 75.372091 179.168621 
L 76.601056 179.065903 
L 78.239677 179.198534 
L 79.878297 179.605592 
L 81.516918 180.253446 
L 83.565194 181.355587 
L 85.61347 182.732832 
L 88.071401 184.682319 
L 90.938987 187.276761 
L 94.216228 190.547576 
L 98.722435 195.373962 
L 115.108642 213.220218 
L 120.024504 218.107376 
L 124.530711 222.285312 
L 129.036918 226.153948 
L 133.543125 229.707124 
L 137.639677 232.666294 
L 141.736228 235.375011 
L 146.242435 238.078161 
L 150.748642 240.508391 
L 155.254849 242.684639 
L 159.761056 244.62664 
L 164.676918 246.501307 
L 169.59278 248.145895 
L 174.918297 249.695657 
L 180.65347 251.126716 
L 186.798297 252.422222 
L 193.35278 253.572404 
L 200.726573 254.626862 
L 208.510022 255.51411 
L 217.522435 256.310365 
L 227.763815 256.982902 
L 239.643815 257.534967 
L 254.391401 257.984653 
L 273.235539 258.320115 
L 299.45347 258.545635 
L 342.876918 258.668309 
L 418.663125 258.70148 
L 418.663125 258.70148 
" clip-path="url(#p54fecd3eed)" style="fill: none; stroke: #c0392b; stroke-width: 2.6; stroke-linecap: square"/>
   </g>
   <g id="line2d_31">
    <path d="M 50.383125 258.704 
L 51.202435 258.602221 
L 52.021746 258.309369 
L 53.250711 257.550605 
L 54.479677 256.457573 
L 55.708642 255.080824 
L 57.347263 252.882327 
L 59.395539 249.684566 
L 61.85347 245.397288 
L 66.359677 236.952529 
L 71.275539 227.847882 
L 74.55278 222.245457 
L 77.420366 217.792942 
L 79.878297 214.35962 
L 82.336228 211.30343 
L 84.794159 208.63445 
L 86.842435 206.706903 
L 88.890711 205.045472 
L 90.938987 203.643848 
L 92.987263 202.493472 
L 95.035539 201.584033 
L 97.083815 200.903896 
L 99.132091 200.440468 
L 101.180366 200.180509 
L 103.638297 200.117937 
L 106.096228 200.304895 
L 108.554159 200.717644 
L 111.421746 201.453508 
L 114.289332 202.429268 
L 117.566573 203.794653 
L 121.25347 205.593311 
L 125.350022 207.845934 
L 130.675539 211.055622 
L 138.458987 216.054694 
L 151.977608 224.760815 
L 158.941746 228.962254 
L 165.086573 232.4169 
L 170.821746 235.399683 
L 176.556918 238.137601 
L 182.292091 240.628776 
L 188.027263 242.878203 
L 193.762435 244.895763 
L 199.907263 246.815152 
L 206.052091 248.502286 
L 212.606573 250.068549 
L 219.570711 251.495909 
L 226.944504 252.772877 
L 234.727953 253.894427 
L 243.330711 254.904767 
L 252.75278 255.782847 
L 263.403815 256.544945 
L 275.69347 257.190138 
L 290.031401 257.710975 
L 307.646573 258.118199 
L 330.587263 258.413462 
L 364.178987 258.602383 
L 418.663125 258.686359 
L 418.663125 258.686359 
" clip-path="url(#p54fecd3eed)" style="fill: none; stroke: #27ae60; stroke-width: 2.6; stroke-linecap: square"/>
   </g>
   <g id="line2d_32">
    <path d="M 50.383125 258.704 
L 59.805194 258.600238 
L 63.901746 258.327686 
L 67.588642 257.845733 
L 70.865884 257.182053 
L 74.143125 256.271091 
L 77.420366 255.102495 
L 80.697608 253.679076 
L 83.974849 252.015136 
L 87.661746 249.885521 
L 91.758297 247.251995 
L 96.674159 243.818914 
L 105.686573 237.17707 
L 113.060366 231.870642 
L 117.976228 228.595675 
L 122.482435 225.863768 
L 126.578987 223.646959 
L 130.265884 221.89169 
L 133.95278 220.376858 
L 137.639677 219.109459 
L 141.326573 218.09148 
L 145.01347 217.320511 
L 148.700366 216.790368 
L 152.387263 216.491716 
L 156.074159 216.412661 
L 160.170711 216.565437 
L 164.267263 216.951003 
L 168.77347 217.616987 
L 173.279677 218.506139 
L 178.195539 219.693832 
L 183.930711 221.314905 
L 190.485194 223.404571 
L 199.087953 226.399545 
L 232.679677 238.357345 
L 241.692091 241.184168 
L 250.294849 243.6409 
L 258.487953 245.749346 
L 266.681056 247.631581 
L 275.283815 249.372126 
L 283.886573 250.884994 
L 292.898987 252.245251 
L 302.321056 253.446149 
L 312.562435 254.526201 
L 323.623125 255.467136 
L 335.91278 256.284888 
L 349.841056 256.980365 
L 365.817608 257.547958 
L 385.071401 257.999261 
L 409.241056 258.332356 
L 418.663125 258.415865 
L 418.663125 258.415865 
" clip-path="url(#p54fecd3eed)" style="fill: none; stroke: #7d3c98; stroke-width: 2.6; stroke-linecap: square"/>
   </g>
   <g id="patch_3">
    <path d="M 50.383125 258.704 
L 50.383125 31.4 
" style="fill: none; stroke: #2c3e50; stroke-width: 1.2; stroke-linejoin: miter; stroke-linecap: square"/>
   </g>
   <g id="patch_4">
    <path d="M 50.383125 258.704 
L 418.663125 258.704 
" style="fill: none; stroke: #2c3e50; stroke-width: 1.2; stroke-linejoin: miter; stroke-linecap: square"/>
   </g>
   <g id="text_17">
    <!-- Densidad Erlang: efecto de $k$ ($\lambda$ fijo) -->
    <g transform="translate(103.093125 21.4) scale(0.13 -0.13)">
     <defs>
      <path id="DejaVuSans-Bold-44" d="M 1791 3756 
L 1791 909 
L 2222 909 
Q 2959 909 3348 1275 
Q 3738 1641 3738 2338 
Q 3738 3031 3350 3393 
Q 2963 3756 2222 3756 
L 1791 3756 
z
M 588 4666 
L 1856 4666 
Q 2919 4666 3439 4514 
Q 3959 4363 4331 4000 
Q 4659 3684 4818 3271 
Q 4978 2859 4978 2338 
Q 4978 1809 4818 1395 
Q 4659 981 4331 666 
Q 3956 303 3431 151 
Q 2906 0 1856 0 
L 588 0 
L 588 4666 
z
" transform="scale(0.015625)"/>
      <path id="DejaVuSans-Bold-65" d="M 4031 1759 
L 4031 1441 
L 1416 1441 
Q 1456 1047 1700 850 
Q 1944 653 2381 653 
Q 2734 653 3104 758 
Q 3475 863 3866 1075 
L 3866 213 
Q 3469 63 3072 -14 
Q 2675 -91 2278 -91 
Q 1328 -91 801 392 
Q 275 875 275 1747 
Q 275 2603 792 3093 
Q 1309 3584 2216 3584 
Q 3041 3584 3536 3087 
Q 4031 2591 4031 1759 
z
M 2881 2131 
Q 2881 2450 2695 2645 
Q 2509 2841 2209 2841 
Q 1884 2841 1681 2658 
Q 1478 2475 1428 2131 
L 2881 2131 
z
" transform="scale(0.015625)"/>
      <path id="DejaVuSans-Bold-6e" d="M 4056 2131 
L 4056 0 
L 2931 0 
L 2931 347 
L 2931 1631 
Q 2931 2084 2911 2256 
Q 2891 2428 2841 2509 
Q 2775 2619 2662 2680 
Q 2550 2741 2406 2741 
Q 2056 2741 1856 2470 
Q 1656 2200 1656 1722 
L 1656 0 
L 538 0 
L 538 3500 
L 1656 3500 
L 1656 2988 
Q 1909 3294 2193 3439 
Q 2478 3584 2822 3584 
Q 3428 3584 3742 3212 
Q 4056 2841 4056 2131 
z
" transform="scale(0.015625)"/>
      <path id="DejaVuSans-Bold-73" d="M 3272 3391 
L 3272 2541 
Q 2913 2691 2578 2766 
Q 2244 2841 1947 2841 
Q 1628 2841 1473 2761 
Q 1319 2681 1319 2516 
Q 1319 2381 1436 2309 
Q 1553 2238 1856 2203 
L 2053 2175 
Q 2913 2066 3209 1816 
Q 3506 1566 3506 1031 
Q 3506 472 3093 190 
Q 2681 -91 1863 -91 
Q 1516 -91 1145 -36 
Q 775 19 384 128 
L 384 978 
Q 719 816 1070 734 
Q 1422 653 1784 653 
Q 2113 653 2278 743 
Q 2444 834 2444 1013 
Q 2444 1163 2330 1236 
Q 2216 1309 1875 1350 
L 1678 1375 
Q 931 1469 631 1722 
Q 331 1975 331 2491 
Q 331 3047 712 3315 
Q 1094 3584 1881 3584 
Q 2191 3584 2531 3537 
Q 2872 3491 3272 3391 
z
" transform="scale(0.015625)"/>
      <path id="DejaVuSans-Bold-69" d="M 538 3500 
L 1656 3500 
L 1656 0 
L 538 0 
L 538 3500 
z
M 538 4863 
L 1656 4863 
L 1656 3950 
L 538 3950 
L 538 4863 
z
" transform="scale(0.015625)"/>
      <path id="DejaVuSans-Bold-64" d="M 2919 2988 
L 2919 4863 
L 4044 4863 
L 4044 0 
L 2919 0 
L 2919 506 
Q 2688 197 2409 53 
Q 2131 -91 1766 -91 
Q 1119 -91 703 423 
Q 288 938 288 1747 
Q 288 2556 703 3070 
Q 1119 3584 1766 3584 
Q 2128 3584 2408 3439 
Q 2688 3294 2919 2988 
z
M 2181 722 
Q 2541 722 2730 984 
Q 2919 1247 2919 1747 
Q 2919 2247 2730 2509 
Q 2541 2772 2181 2772 
Q 1825 2772 1636 2509 
Q 1447 2247 1447 1747 
Q 1447 1247 1636 984 
Q 1825 722 2181 722 
z
" transform="scale(0.015625)"/>
      <path id="DejaVuSans-Bold-61" d="M 2106 1575 
Q 1756 1575 1579 1456 
Q 1403 1338 1403 1106 
Q 1403 894 1545 773 
Q 1688 653 1941 653 
Q 2256 653 2472 879 
Q 2688 1106 2688 1447 
L 2688 1575 
L 2106 1575 
z
M 3816 1997 
L 3816 0 
L 2688 0 
L 2688 519 
Q 2463 200 2181 54 
Q 1900 -91 1497 -91 
Q 953 -91 614 226 
Q 275 544 275 1050 
Q 275 1666 698 1953 
Q 1122 2241 2028 2241 
L 2688 2241 
L 2688 2328 
Q 2688 2594 2478 2717 
Q 2269 2841 1825 2841 
Q 1466 2841 1156 2769 
Q 847 2697 581 2553 
L 581 3406 
Q 941 3494 1303 3539 
Q 1666 3584 2028 3584 
Q 2975 3584 3395 3211 
Q 3816 2838 3816 1997 
z
" transform="scale(0.015625)"/>
      <path id="DejaVuSans-Bold-20" transform="scale(0.015625)"/>
      <path id="DejaVuSans-Bold-45" d="M 588 4666 
L 3834 4666 
L 3834 3756 
L 1791 3756 
L 1791 2888 
L 3713 2888 
L 3713 1978 
L 1791 1978 
L 1791 909 
L 3903 909 
L 3903 0 
L 588 0 
L 588 4666 
z
" transform="scale(0.015625)"/>
      <path id="DejaVuSans-Bold-72" d="M 3138 2547 
Q 2991 2616 2845 2648 
Q 2700 2681 2553 2681 
Q 2122 2681 1889 2404 
Q 1656 2128 1656 1613 
L 1656 0 
L 538 0 
L 538 3500 
L 1656 3500 
L 1656 2925 
Q 1872 3269 2151 3426 
Q 2431 3584 2822 3584 
Q 2878 3584 2943 3579 
Q 3009 3575 3134 3559 
L 3138 2547 
z
" transform="scale(0.015625)"/>
      <path id="DejaVuSans-Bold-6c" d="M 538 4863 
L 1656 4863 
L 1656 0 
L 538 0 
L 538 4863 
z
" transform="scale(0.015625)"/>
      <path id="DejaVuSans-Bold-67" d="M 2919 594 
Q 2688 288 2409 144 
Q 2131 0 1766 0 
Q 1125 0 706 504 
Q 288 1009 288 1791 
Q 288 2575 706 3076 
Q 1125 3578 1766 3578 
Q 2131 3578 2409 3434 
Q 2688 3291 2919 2981 
L 2919 3500 
L 4044 3500 
L 4044 353 
Q 4044 -491 3511 -936 
Q 2978 -1381 1966 -1381 
Q 1638 -1381 1331 -1331 
Q 1025 -1281 716 -1178 
L 716 -306 
Q 1009 -475 1290 -558 
Q 1572 -641 1856 -641 
Q 2406 -641 2662 -400 
Q 2919 -159 2919 353 
L 2919 594 
z
M 2181 2772 
Q 1834 2772 1640 2515 
Q 1447 2259 1447 1791 
Q 1447 1309 1634 1061 
Q 1822 813 2181 813 
Q 2531 813 2725 1069 
Q 2919 1325 2919 1791 
Q 2919 2259 2725 2515 
Q 2531 2772 2181 2772 
z
" transform="scale(0.015625)"/>
      <path id="DejaVuSans-Bold-3a" d="M 716 3500 
L 1844 3500 
L 1844 2291 
L 716 2291 
L 716 3500 
z
M 716 1209 
L 1844 1209 
L 1844 0 
L 716 0 
L 716 1209 
z
" transform="scale(0.015625)"/>
      <path id="DejaVuSans-Bold-66" d="M 2841 4863 
L 2841 4128 
L 2222 4128 
Q 1984 4128 1890 4042 
Q 1797 3956 1797 3744 
L 1797 3500 
L 2753 3500 
L 2753 2700 
L 1797 2700 
L 1797 0 
L 678 0 
L 678 2700 
L 122 2700 
L 122 3500 
L 678 3500 
L 678 3744 
Q 678 4316 997 4589 
Q 1316 4863 1984 4863 
L 2841 4863 
z
" transform="scale(0.015625)"/>
      <path id="DejaVuSans-Bold-63" d="M 3366 3391 
L 3366 2478 
Q 3138 2634 2908 2709 
Q 2678 2784 2431 2784 
Q 1963 2784 1702 2511 
Q 1441 2238 1441 1747 
Q 1441 1256 1702 982 
Q 1963 709 2431 709 
Q 2694 709 2930 787 
Q 3166 866 3366 1019 
L 3366 103 
Q 3103 6 2833 -42 
Q 2563 -91 2291 -91 
Q 1344 -91 809 395 
Q 275 881 275 1747 
Q 275 2613 809 3098 
Q 1344 3584 2291 3584 
Q 2566 3584 2833 3536 
Q 3100 3488 3366 3391 
z
" transform="scale(0.015625)"/>
      <path id="DejaVuSans-Bold-74" d="M 1759 4494 
L 1759 3500 
L 2913 3500 
L 2913 2700 
L 1759 2700 
L 1759 1216 
Q 1759 972 1856 886 
Q 1953 800 2241 800 
L 2816 800 
L 2816 0 
L 1856 0 
Q 1194 0 917 276 
Q 641 553 641 1216 
L 641 2700 
L 84 2700 
L 84 3500 
L 641 3500 
L 641 4494 
L 1759 4494 
z
" transform="scale(0.015625)"/>
      <path id="DejaVuSans-Bold-6f" d="M 2203 2784 
Q 1831 2784 1636 2517 
Q 1441 2250 1441 1747 
Q 1441 1244 1636 976 
Q 1831 709 2203 709 
Q 2569 709 2762 976 
Q 2956 1244 2956 1747 
Q 2956 2250 2762 2517 
Q 2569 2784 2203 2784 
z
M 2203 3584 
Q 3106 3584 3614 3096 
Q 4122 2609 4122 1747 
Q 4122 884 3614 396 
Q 3106 -91 2203 -91 
Q 1297 -91 786 396 
Q 275 884 275 1747 
Q 275 2609 786 3096 
Q 1297 3584 2203 3584 
z
" transform="scale(0.015625)"/>
      <path id="DejaVuSans-Bold-28" d="M 2413 -844 
L 1484 -844 
Q 1006 -72 778 623 
Q 550 1319 550 2003 
Q 550 2688 779 3389 
Q 1009 4091 1484 4856 
L 2413 4856 
Q 2013 4116 1813 3408 
Q 1613 2700 1613 2009 
Q 1613 1319 1811 609 
Q 2009 -100 2413 -844 
z
" transform="scale(0.015625)"/>
      <path id="DejaVuSans-Oblique-3bb" d="M 2350 4316 
L 3125 0 
L 2516 0 
L 2038 2588 
L 328 0 
L -281 0 
L 1903 3356 
L 1794 3975 
Q 1725 4369 1391 4369 
L 1091 4369 
L 1184 4863 
L 1550 4856 
Q 2253 4847 2350 4316 
z
" transform="scale(0.015625)"/>
      <path id="DejaVuSans-Bold-6a" d="M 538 3500 
L 1656 3500 
L 1656 63 
Q 1656 -641 1318 -1011 
Q 981 -1381 341 -1381 
L -213 -1381 
L -213 -647 
L -19 -647 
Q 300 -647 419 -503 
Q 538 -359 538 63 
L 538 3500 
z
M 538 4863 
L 1656 4863 
L 1656 3950 
L 538 3950 
L 538 4863 
z
" transform="scale(0.015625)"/>
      <path id="DejaVuSans-Bold-29" d="M 513 -844 
Q 913 -100 1113 609 
Q 1313 1319 1313 2009 
Q 1313 2700 1113 3408 
Q 913 4116 513 4856 
L 1441 4856 
Q 1916 4091 2145 3389 
Q 2375 2688 2375 2003 
Q 2375 1319 2147 623 
Q 1919 -72 1441 -844 
L 513 -844 
z
" transform="scale(0.015625)"/>
     </defs>
     <use xlink:href="#DejaVuSans-Bold-44" transform="translate(0 0.015625)"/>
     <use xlink:href="#DejaVuSans-Bold-65" transform="translate(83.007812 0.015625)"/>
     <use xlink:href="#DejaVuSans-Bold-6e" transform="translate(150.830078 0.015625)"/>
     <use xlink:href="#DejaVuSans-Bold-73" transform="translate(222.021484 0.015625)"/>
     <use xlink:href="#DejaVuSans-Bold-69" transform="translate(281.542969 0.015625)"/>
     <use xlink:href="#DejaVuSans-Bold-64" transform="translate(315.820312 0.015625)"/>
     <use xlink:href="#DejaVuSans-Bold-61" transform="translate(387.402344 0.015625)"/>
     <use xlink:href="#DejaVuSans-Bold-64" transform="translate(454.882812 0.015625)"/>
     <use xlink:href="#DejaVuSans-Bold-20" transform="translate(526.464844 0.015625)"/>
     <use xlink:href="#DejaVuSans-Bold-45" transform="translate(561.279297 0.015625)"/>
     <use xlink:href="#DejaVuSans-Bold-72" transform="translate(629.589844 0.015625)"/>
     <use xlink:href="#DejaVuSans-Bold-6c" transform="translate(678.90625 0.015625)"/>
     <use xlink:href="#DejaVuSans-Bold-61" transform="translate(713.183594 0.015625)"/>
     <use xlink:href="#DejaVuSans-Bold-6e" transform="translate(780.664062 0.015625)"/>
     <use xlink:href="#DejaVuSans-Bold-67" transform="translate(851.855469 0.015625)"/>
     <use xlink:href="#DejaVuSans-Bold-3a" transform="translate(923.4375 0.015625)"/>
     <use xlink:href="#DejaVuSans-Bold-20" transform="translate(963.427734 0.015625)"/>
     <use xlink:href="#DejaVuSans-Bold-65" transform="translate(998.242188 0.015625)"/>
     <use xlink:href="#DejaVuSans-Bold-66" transform="translate(1066.064453 0.015625)"/>
     <use xlink:href="#DejaVuSans-Bold-65" transform="translate(1109.570312 0.015625)"/>
     <use xlink:href="#DejaVuSans-Bold-63" transform="translate(1177.392578 0.015625)"/>
     <use xlink:href="#DejaVuSans-Bold-74" transform="translate(1236.669922 0.015625)"/>
     <use xlink:href="#DejaVuSans-Bold-6f" transform="translate(1284.472656 0.015625)"/>
     <use xlink:href="#DejaVuSans-Bold-20" transform="translate(1353.173828 0.015625)"/>
     <use xlink:href="#DejaVuSans-Bold-64" transform="translate(1387.988281 0.015625)"/>
     <use xlink:href="#DejaVuSans-Bold-65" transform="translate(1459.570312 0.015625)"/>
     <use xlink:href="#DejaVuSans-Bold-20" transform="translate(1527.392578 0.015625)"/>
     <use xlink:href="#DejaVuSans-Oblique-6b" transform="translate(1562.207031 0.015625)"/>
     <use xlink:href="#DejaVuSans-Bold-20" transform="translate(1620.117188 0.015625)"/>
     <use xlink:href="#DejaVuSans-Bold-28" transform="translate(1654.931641 0.015625)"/>
     <use xlink:href="#DejaVuSans-Oblique-3bb" transform="translate(1700.634766 0.015625)"/>
     <use xlink:href="#DejaVuSans-Bold-20" transform="translate(1759.814453 0.015625)"/>
     <use xlink:href="#DejaVuSans-Bold-66" transform="translate(1794.628906 0.015625)"/>
     <use xlink:href="#DejaVuSans-Bold-69" transform="translate(1838.134766 0.015625)"/>
     <use xlink:href="#DejaVuSans-Bold-6a" transform="translate(1872.412109 0.015625)"/>
     <use xlink:href="#DejaVuSans-Bold-6f" transform="translate(1906.689453 0.015625)"/>
     <use xlink:href="#DejaVuSans-Bold-29" transform="translate(1975.390625 0.015625)"/>
    </g>
   </g>
   <g id="legend_1">
    <g id="patch_5">
     <path d="M 327.083125 94.776875 
L 412.013125 94.776875 
Q 413.913125 94.776875 413.913125 92.876875 
L 413.913125 38.05 
Q 413.913125 36.15 412.013125 36.15 
L 327.083125 36.15 
Q 325.183125 36.15 325.183125 38.05 
L 325.183125 92.876875 
Q 325.183125 94.776875 327.083125 94.776875 
z
" style="fill: #ffffff; opacity: 0.92; stroke: #cccccc; stroke-linejoin: miter"/>
    </g>
    <g id="line2d_33">
     <path d="M 328.983125 43.843516 
L 338.483125 43.843516 
L 347.983125 43.843516 
" style="fill: none; stroke: #2980b9; stroke-width: 2.6; stroke-linecap: square"/>
    </g>
    <g id="text_18">
     <!-- $k=1,\ \lambda=1$ -->
     <g transform="translate(355.583125 47.168516) scale(0.095 -0.095)">
      <defs>
       <path id="DejaVuSans-3d" d="M 678 2906 
L 4684 2906 
L 4684 2381 
L 678 2381 
L 678 2906 
z
M 678 1631 
L 4684 1631 
L 4684 1100 
L 678 1100 
L 678 1631 
z
" transform="scale(0.015625)"/>
       <path id="DejaVuSans-2c" d="M 750 794 
L 1409 794 
L 1409 256 
L 897 -744 
L 494 -744 
L 750 256 
L 750 794 
z
" transform="scale(0.015625)"/>
      </defs>
      <use xlink:href="#DejaVuSans-Oblique-6b" transform="translate(0 0.015625)"/>
      <use xlink:href="#DejaVuSans-3d" transform="translate(77.392578 0.015625)"/>
      <use xlink:href="#DejaVuSans-31" transform="translate(180.664062 0.015625)"/>
      <use xlink:href="#DejaVuSans-2c" transform="translate(244.287109 0.015625)"/>
      <use xlink:href="#DejaVuSans-Oblique-3bb" transform="translate(328.027019 0.015625)"/>
      <use xlink:href="#DejaVuSans-3d" transform="translate(406.689128 0.015625)"/>
      <use xlink:href="#DejaVuSans-31" transform="translate(509.960613 0.015625)"/>
     </g>
    </g>
    <g id="line2d_34">
     <path d="M 328.983125 57.787734 
L 338.483125 57.787734 
L 347.983125 57.787734 
" style="fill: none; stroke: #c0392b; stroke-width: 2.6; stroke-linecap: square"/>
    </g>
    <g id="text_19">
     <!-- $k=2,\ \lambda=1$ -->
     <g transform="translate(355.583125 61.112734) scale(0.095 -0.095)">
      <use xlink:href="#DejaVuSans-Oblique-6b" transform="translate(0 0.015625)"/>
      <use xlink:href="#DejaVuSans-3d" transform="translate(77.392578 0.015625)"/>
      <use xlink:href="#DejaVuSans-32" transform="translate(180.664062 0.015625)"/>
      <use xlink:href="#DejaVuSans-2c" transform="translate(244.287109 0.015625)"/>
      <use xlink:href="#DejaVuSans-Oblique-3bb" transform="translate(328.027019 0.015625)"/>
      <use xlink:href="#DejaVuSans-3d" transform="translate(406.689128 0.015625)"/>
      <use xlink:href="#DejaVuSans-31" transform="translate(509.960613 0.015625)"/>
     </g>
    </g>
    <g id="line2d_35">
     <path d="M 328.983125 71.731953 
L 338.483125 71.731953 
L 347.983125 71.731953 
" style="fill: none; stroke: #27ae60; stroke-width: 2.6; stroke-linecap: square"/>
    </g>
    <g id="text_20">
     <!-- $k=3,\ \lambda=1$ -->
     <g transform="translate(355.583125 75.056953) scale(0.095 -0.095)">
      <defs>
       <path id="DejaVuSans-33" d="M 2597 2516 
Q 3050 2419 3304 2112 
Q 3559 1806 3559 1356 
Q 3559 666 3084 287 
Q 2609 -91 1734 -91 
Q 1441 -91 1130 -33 
Q 819 25 488 141 
L 488 750 
Q 750 597 1062 519 
Q 1375 441 1716 441 
Q 2309 441 2620 675 
Q 2931 909 2931 1356 
Q 2931 1769 2642 2001 
Q 2353 2234 1838 2234 
L 1294 2234 
L 1294 2753 
L 1863 2753 
Q 2328 2753 2575 2939 
Q 2822 3125 2822 3475 
Q 2822 3834 2567 4026 
Q 2313 4219 1838 4219 
Q 1578 4219 1281 4162 
Q 984 4106 628 3988 
L 628 4550 
Q 988 4650 1302 4700 
Q 1616 4750 1894 4750 
Q 2613 4750 3031 4423 
Q 3450 4097 3450 3541 
Q 3450 3153 3228 2886 
Q 3006 2619 2597 2516 
z
" transform="scale(0.015625)"/>
      </defs>
      <use xlink:href="#DejaVuSans-Oblique-6b" transform="translate(0 0.015625)"/>
      <use xlink:href="#DejaVuSans-3d" transform="translate(77.392578 0.015625)"/>
      <use xlink:href="#DejaVuSans-33" transform="translate(180.664062 0.015625)"/>
      <use xlink:href="#DejaVuSans-2c" transform="translate(244.287109 0.015625)"/>
      <use xlink:href="#DejaVuSans-Oblique-3bb" transform="translate(328.027019 0.015625)"/>
      <use xlink:href="#DejaVuSans-3d" transform="translate(406.689128 0.015625)"/>
      <use xlink:href="#DejaVuSans-31" transform="translate(509.960613 0.015625)"/>
     </g>
    </g>
    <g id="line2d_36">
     <path d="M 328.983125 85.676172 
L 338.483125 85.676172 
L 347.983125 85.676172 
" style="fill: none; stroke: #7d3c98; stroke-width: 2.6; stroke-linecap: square"/>
    </g>
    <g id="text_21">
     <!-- $k=5,\ \lambda=1$ -->
     <g transform="translate(355.583125 89.001172) scale(0.095 -0.095)">
      <defs>
       <path id="DejaVuSans-35" d="M 691 4666 
L 3169 4666 
L 3169 4134 
L 1269 4134 
L 1269 2991 
Q 1406 3038 1543 3061 
Q 1681 3084 1819 3084 
Q 2600 3084 3056 2656 
Q 3513 2228 3513 1497 
Q 3513 744 3044 326 
Q 2575 -91 1722 -91 
Q 1428 -91 1123 -41 
Q 819 9 494 109 
L 494 744 
Q 775 591 1075 516 
Q 1375 441 1709 441 
Q 2250 441 2565 725 
Q 2881 1009 2881 1497 
Q 2881 1984 2565 2268 
Q 2250 2553 1709 2553 
Q 1456 2553 1204 2497 
Q 953 2441 691 2322 
L 691 4666 
z
" transform="scale(0.015625)"/>
      </defs>
      <use xlink:href="#DejaVuSans-Oblique-6b" transform="translate(0 0.015625)"/>
      <use xlink:href="#DejaVuSans-3d" transform="translate(77.392578 0.015625)"/>
      <use xlink:href="#DejaVuSans-35" transform="translate(180.664062 0.015625)"/>
      <use xlink:href="#DejaVuSans-2c" transform="translate(244.287109 0.015625)"/>
      <use xlink:href="#DejaVuSans-Oblique-3bb" transform="translate(328.027019 0.015625)"/>
      <use xlink:href="#DejaVuSans-3d" transform="translate(406.689128 0.015625)"/>
      <use xlink:href="#DejaVuSans-31" transform="translate(509.960613 0.015625)"/>
     </g>
    </g>
   </g>
  </g>
 </g>
 <defs>
  <clipPath id="p54fecd3eed">
   <rect x="50.383125" y="31.4" width="368.28" height="227.304"/>
  </clipPath>
 </defs>
</svg>
