<?xml version="1.0" encoding="utf-8" standalone="no"?>
<!DOCTYPE svg PUBLIC "-//W3C//DTD SVG 1.1//EN"
  "http://www.w3.org/Graphics/SVG/1.1/DTD/svg11.dtd">
<svg xmlns:xlink="http://www.w3.org/1999/xlink" width="458.035469pt" height="313.249969pt" viewBox="0 0 458.035469 313.249969" xmlns="http://www.w3.org/2000/svg" version="1.1">
 <metadata>
  <rdf:RDF xmlns:dc="http://purl.org/dc/elements/1.1/" xmlns:cc="http://creativecommons.org/ns#" xmlns:rdf="http://www.w3.org/1999/02/22-rdf-syntax-ns#">
   <cc:Work>
    <dc:type rdf:resource="http://purl.org/dc/dcmitype/StillImage"/>
    <dc:date>2026-06-30T11:53:52.020308</dc:date>
    <dc:format>image/svg+xml</dc:format>
    <dc:creator>
     <cc:Agent>
      <dc:title>Matplotlib v3.9.2, https://matplotlib.org/</dc:title>
     </cc:Agent>
    </dc:creator>
   </cc:Work>
  </rdf:RDF>
 </metadata>
 <defs>
  <style type="text/css">*{stroke-linejoin: round; stroke-linecap: butt}</style>
 </defs>
 <g id="figure_1">
  <g id="patch_1">
   <path d="M 0 313.249969 
L 458.035469 313.249969 
L 458.035469 0 
L 0 0 
z
" style="fill: #ffffff"/>
  </g>
  <g id="axes_1">
   <g id="patch_2">
    <path d="M 55.915469 269.922 
L 446.515469 269.922 
L 446.515469 31.53 
L 55.915469 31.53 
z
" style="fill: #ffffff"/>
   </g>
   <g id="matplotlib.axis_1">
    <g id="xtick_1">
     <g id="line2d_1">
      <path d="M 116.317531 269.922 
L 116.317531 31.53 
" clip-path="url(#pb42b3e79dc)" style="fill: none; stroke-dasharray: 0.8,1.28; stroke-dashoffset: 0; stroke: #b0b0b0; stroke-opacity: 0.3; stroke-width: 0.8"/>
     </g>
     <g id="line2d_2">
      <defs>
       <path id="m0e190d0941" d="M 0 0 
L 0 3.5 
" style="stroke: #2c3e50; stroke-width: 0.8"/>
      </defs>
      <g>
       <use xlink:href="#m0e190d0941" x="116.317531" y="269.922" style="fill: #2c3e50; stroke: #2c3e50; stroke-width: 0.8"/>
      </g>
     </g>
     <g id="text_1">
      <!-- −2 -->
      <g style="fill: #2c3e50" transform="translate(108.946437 284.520438) scale(0.1 -0.1)">
       <defs>
        <path id="DejaVuSans-2212" d="M 678 2272 
L 4684 2272 
L 4684 1741 
L 678 1741 
L 678 2272 
z
" transform="scale(0.015625)"/>
        <path id="DejaVuSans-32" d="M 1228 531 
L 3431 531 
L 3431 0 
L 469 0 
L 469 531 
Q 828 903 1448 1529 
Q 2069 2156 2228 2338 
Q 2531 2678 2651 2914 
Q 2772 3150 2772 3378 
Q 2772 3750 2511 3984 
Q 2250 4219 1831 4219 
Q 1534 4219 1204 4116 
Q 875 4013 500 3803 
L 500 4441 
Q 881 4594 1212 4672 
Q 1544 4750 1819 4750 
Q 2544 4750 2975 4387 
Q 3406 4025 3406 3419 
Q 3406 3131 3298 2873 
Q 3191 2616 2906 2266 
Q 2828 2175 2409 1742 
Q 1991 1309 1228 531 
z
" transform="scale(0.015625)"/>
       </defs>
       <use xlink:href="#DejaVuSans-2212"/>
       <use xlink:href="#DejaVuSans-32" x="83.789062"/>
      </g>
     </g>
    </g>
    <g id="xtick_2">
     <g id="line2d_3">
      <path d="M 196.853613 269.922 
L 196.853613 31.53 
" clip-path="url(#pb42b3e79dc)" style="fill: none; stroke-dasharray: 0.8,1.28; stroke-dashoffset: 0; stroke: #b0b0b0; stroke-opacity: 0.3; stroke-width: 0.8"/>
     </g>
     <g id="line2d_4">
      <g>
       <use xlink:href="#m0e190d0941" x="196.853613" y="269.922" style="fill: #2c3e50; stroke: #2c3e50; stroke-width: 0.8"/>
      </g>
     </g>
     <g id="text_2">
      <!-- 0 -->
      <g style="fill: #2c3e50" transform="translate(193.672363 284.520438) scale(0.1 -0.1)">
       <defs>
        <path id="DejaVuSans-30" d="M 2034 4250 
Q 1547 4250 1301 3770 
Q 1056 3291 1056 2328 
Q 1056 1369 1301 889 
Q 1547 409 2034 409 
Q 2525 409 2770 889 
Q 3016 1369 3016 2328 
Q 3016 3291 2770 3770 
Q 2525 4250 2034 4250 
z
M 2034 4750 
Q 2819 4750 3233 4129 
Q 3647 3509 3647 2328 
Q 3647 1150 3233 529 
Q 2819 -91 2034 -91 
Q 1250 -91 836 529 
Q 422 1150 422 2328 
Q 422 3509 836 4129 
Q 1250 4750 2034 4750 
z
" transform="scale(0.015625)"/>
       </defs>
       <use xlink:href="#DejaVuSans-30"/>
      </g>
     </g>
    </g>
    <g id="xtick_3">
     <g id="line2d_5">
      <path d="M 277.389696 269.922 
L 277.389696 31.53 
" clip-path="url(#pb42b3e79dc)" style="fill: none; stroke-dasharray: 0.8,1.28; stroke-dashoffset: 0; stroke: #b0b0b0; stroke-opacity: 0.3; stroke-width: 0.8"/>
     </g>
     <g id="line2d_6">
      <g>
       <use xlink:href="#m0e190d0941" x="277.389696" y="269.922" style="fill: #2c3e50; stroke: #2c3e50; stroke-width: 0.8"/>
      </g>
     </g>
     <g id="text_3">
      <!-- 2 -->
      <g style="fill: #2c3e50" transform="translate(274.208446 284.520438) scale(0.1 -0.1)">
       <use xlink:href="#DejaVuSans-32"/>
      </g>
     </g>
    </g>
    <g id="xtick_4">
     <g id="line2d_7">
      <path d="M 357.925778 269.922 
L 357.925778 31.53 
" clip-path="url(#pb42b3e79dc)" style="fill: none; stroke-dasharray: 0.8,1.28; stroke-dashoffset: 0; stroke: #b0b0b0; stroke-opacity: 0.3; stroke-width: 0.8"/>
     </g>
     <g id="line2d_8">
      <g>
       <use xlink:href="#m0e190d0941" x="357.925778" y="269.922" style="fill: #2c3e50; stroke: #2c3e50; stroke-width: 0.8"/>
      </g>
     </g>
     <g id="text_4">
      <!-- 4 -->
      <g style="fill: #2c3e50" transform="translate(354.744528 284.520438) scale(0.1 -0.1)">
       <defs>
        <path id="DejaVuSans-34" d="M 2419 4116 
L 825 1625 
L 2419 1625 
L 2419 4116 
z
M 2253 4666 
L 3047 4666 
L 3047 1625 
L 3713 1625 
L 3713 1100 
L 3047 1100 
L 3047 0 
L 2419 0 
L 2419 1100 
L 313 1100 
L 313 1709 
L 2253 4666 
z
" transform="scale(0.015625)"/>
       </defs>
       <use xlink:href="#DejaVuSans-34"/>
      </g>
     </g>
    </g>
    <g id="xtick_5">
     <g id="line2d_9">
      <path d="M 438.461861 269.922 
L 438.461861 31.53 
" clip-path="url(#pb42b3e79dc)" style="fill: none; stroke-dasharray: 0.8,1.28; stroke-dashoffset: 0; stroke: #b0b0b0; stroke-opacity: 0.3; stroke-width: 0.8"/>
     </g>
     <g id="line2d_10">
      <g>
       <use xlink:href="#m0e190d0941" x="438.461861" y="269.922" style="fill: #2c3e50; stroke: #2c3e50; stroke-width: 0.8"/>
      </g>
     </g>
     <g id="text_5">
      <!-- 6 -->
      <g style="fill: #2c3e50" transform="translate(435.280611 284.520438) scale(0.1 -0.1)">
       <defs>
        <path id="DejaVuSans-36" d="M 2113 2584 
Q 1688 2584 1439 2293 
Q 1191 2003 1191 1497 
Q 1191 994 1439 701 
Q 1688 409 2113 409 
Q 2538 409 2786 701 
Q 3034 994 3034 1497 
Q 3034 2003 2786 2293 
Q 2538 2584 2113 2584 
z
M 3366 4563 
L 3366 3988 
Q 3128 4100 2886 4159 
Q 2644 4219 2406 4219 
Q 1781 4219 1451 3797 
Q 1122 3375 1075 2522 
Q 1259 2794 1537 2939 
Q 1816 3084 2150 3084 
Q 2853 3084 3261 2657 
Q 3669 2231 3669 1497 
Q 3669 778 3244 343 
Q 2819 -91 2113 -91 
Q 1303 -91 875 529 
Q 447 1150 447 2328 
Q 447 3434 972 4092 
Q 1497 4750 2381 4750 
Q 2619 4750 2861 4703 
Q 3103 4656 3366 4563 
z
" transform="scale(0.015625)"/>
       </defs>
       <use xlink:href="#DejaVuSans-36"/>
      </g>
     </g>
    </g>
    <g id="text_6">
     <!-- estadístico -->
     <g transform="translate(215.676875 299.338328) scale(0.115 -0.115)">
      <defs>
       <path id="DejaVuSans-Bold-65" d="M 4031 1759 
L 4031 1441 
L 1416 1441 
Q 1456 1047 1700 850 
Q 1944 653 2381 653 
Q 2734 653 3104 758 
Q 3475 863 3866 1075 
L 3866 213 
Q 3469 63 3072 -14 
Q 2675 -91 2278 -91 
Q 1328 -91 801 392 
Q 275 875 275 1747 
Q 275 2603 792 3093 
Q 1309 3584 2216 3584 
Q 3041 3584 3536 3087 
Q 4031 2591 4031 1759 
z
M 2881 2131 
Q 2881 2450 2695 2645 
Q 2509 2841 2209 2841 
Q 1884 2841 1681 2658 
Q 1478 2475 1428 2131 
L 2881 2131 
z
" transform="scale(0.015625)"/>
       <path id="DejaVuSans-Bold-73" d="M 3272 3391 
L 3272 2541 
Q 2913 2691 2578 2766 
Q 2244 2841 1947 2841 
Q 1628 2841 1473 2761 
Q 1319 2681 1319 2516 
Q 1319 2381 1436 2309 
Q 1553 2238 1856 2203 
L 2053 2175 
Q 2913 2066 3209 1816 
Q 3506 1566 3506 1031 
Q 3506 472 3093 190 
Q 2681 -91 1863 -91 
Q 1516 -91 1145 -36 
Q 775 19 384 128 
L 384 978 
Q 719 816 1070 734 
Q 1422 653 1784 653 
Q 2113 653 2278 743 
Q 2444 834 2444 1013 
Q 2444 1163 2330 1236 
Q 2216 1309 1875 1350 
L 1678 1375 
Q 931 1469 631 1722 
Q 331 1975 331 2491 
Q 331 3047 712 3315 
Q 1094 3584 1881 3584 
Q 2191 3584 2531 3537 
Q 2872 3491 3272 3391 
z
" transform="scale(0.015625)"/>
       <path id="DejaVuSans-Bold-74" d="M 1759 4494 
L 1759 3500 
L 2913 3500 
L 2913 2700 
L 1759 2700 
L 1759 1216 
Q 1759 972 1856 886 
Q 1953 800 2241 800 
L 2816 800 
L 2816 0 
L 1856 0 
Q 1194 0 917 276 
Q 641 553 641 1216 
L 641 2700 
L 84 2700 
L 84 3500 
L 641 3500 
L 641 4494 
L 1759 4494 
z
" transform="scale(0.015625)"/>
       <path id="DejaVuSans-Bold-61" d="M 2106 1575 
Q 1756 1575 1579 1456 
Q 1403 1338 1403 1106 
Q 1403 894 1545 773 
Q 1688 653 1941 653 
Q 2256 653 2472 879 
Q 2688 1106 2688 1447 
L 2688 1575 
L 2106 1575 
z
M 3816 1997 
L 3816 0 
L 2688 0 
L 2688 519 
Q 2463 200 2181 54 
Q 1900 -91 1497 -91 
Q 953 -91 614 226 
Q 275 544 275 1050 
Q 275 1666 698 1953 
Q 1122 2241 2028 2241 
L 2688 2241 
L 2688 2328 
Q 2688 2594 2478 2717 
Q 2269 2841 1825 2841 
Q 1466 2841 1156 2769 
Q 847 2697 581 2553 
L 581 3406 
Q 941 3494 1303 3539 
Q 1666 3584 2028 3584 
Q 2975 3584 3395 3211 
Q 3816 2838 3816 1997 
z
" transform="scale(0.015625)"/>
       <path id="DejaVuSans-Bold-64" d="M 2919 2988 
L 2919 4863 
L 4044 4863 
L 4044 0 
L 2919 0 
L 2919 506 
Q 2688 197 2409 53 
Q 2131 -91 1766 -91 
Q 1119 -91 703 423 
Q 288 938 288 1747 
Q 288 2556 703 3070 
Q 1119 3584 1766 3584 
Q 2128 3584 2408 3439 
Q 2688 3294 2919 2988 
z
M 2181 722 
Q 2541 722 2730 984 
Q 2919 1247 2919 1747 
Q 2919 2247 2730 2509 
Q 2541 2772 2181 2772 
Q 1825 2772 1636 2509 
Q 1447 2247 1447 1747 
Q 1447 1247 1636 984 
Q 1825 722 2181 722 
z
" transform="scale(0.015625)"/>
       <path id="DejaVuSans-Bold-ed" d="M 538 3500 
L 1656 3500 
L 1656 0 
L 538 0 
L 538 3500 
z
M 1590 5119 
L 2474 5119 
L 1321 3944 
L 709 3944 
L 1590 5119 
z
" transform="scale(0.015625)"/>
       <path id="DejaVuSans-Bold-69" d="M 538 3500 
L 1656 3500 
L 1656 0 
L 538 0 
L 538 3500 
z
M 538 4863 
L 1656 4863 
L 1656 3950 
L 538 3950 
L 538 4863 
z
" transform="scale(0.015625)"/>
       <path id="DejaVuSans-Bold-63" d="M 3366 3391 
L 3366 2478 
Q 3138 2634 2908 2709 
Q 2678 2784 2431 2784 
Q 1963 2784 1702 2511 
Q 1441 2238 1441 1747 
Q 1441 1256 1702 982 
Q 1963 709 2431 709 
Q 2694 709 2930 787 
Q 3166 866 3366 1019 
L 3366 103 
Q 3103 6 2833 -42 
Q 2563 -91 2291 -91 
Q 1344 -91 809 395 
Q 275 881 275 1747 
Q 275 2613 809 3098 
Q 1344 3584 2291 3584 
Q 2566 3584 2833 3536 
Q 3100 3488 3366 3391 
z
" transform="scale(0.015625)"/>
       <path id="DejaVuSans-Bold-6f" d="M 2203 2784 
Q 1831 2784 1636 2517 
Q 1441 2250 1441 1747 
Q 1441 1244 1636 976 
Q 1831 709 2203 709 
Q 2569 709 2762 976 
Q 2956 1244 2956 1747 
Q 2956 2250 2762 2517 
Q 2569 2784 2203 2784 
z
M 2203 3584 
Q 3106 3584 3614 3096 
Q 4122 2609 4122 1747 
Q 4122 884 3614 396 
Q 3106 -91 2203 -91 
Q 1297 -91 786 396 
Q 275 884 275 1747 
Q 275 2609 786 3096 
Q 1297 3584 2203 3584 
z
" transform="scale(0.015625)"/>
      </defs>
      <use xlink:href="#DejaVuSans-Bold-65"/>
      <use xlink:href="#DejaVuSans-Bold-73" x="67.822266"/>
      <use xlink:href="#DejaVuSans-Bold-74" x="127.34375"/>
      <use xlink:href="#DejaVuSans-Bold-61" x="175.146484"/>
      <use xlink:href="#DejaVuSans-Bold-64" x="242.626953"/>
      <use xlink:href="#DejaVuSans-Bold-ed" x="314.208984"/>
      <use xlink:href="#DejaVuSans-Bold-73" x="348.486328"/>
      <use xlink:href="#DejaVuSans-Bold-74" x="408.007812"/>
      <use xlink:href="#DejaVuSans-Bold-69" x="455.810547"/>
      <use xlink:href="#DejaVuSans-Bold-63" x="490.087891"/>
      <use xlink:href="#DejaVuSans-Bold-6f" x="549.365234"/>
     </g>
    </g>
   </g>
   <g id="matplotlib.axis_2">
    <g id="ytick_1">
     <g id="line2d_11">
      <path d="M 55.915469 269.922 
L 446.515469 269.922 
" clip-path="url(#pb42b3e79dc)" style="fill: none; stroke-dasharray: 0.8,1.28; stroke-dashoffset: 0; stroke: #b0b0b0; stroke-opacity: 0.3; stroke-width: 0.8"/>
     </g>
     <g id="line2d_12">
      <defs>
       <path id="m9ecc5f7282" d="M 0 0 
L -3.5 0 
" style="stroke: #2c3e50; stroke-width: 0.8"/>
      </defs>
      <g>
       <use xlink:href="#m9ecc5f7282" x="55.915469" y="269.922" style="fill: #2c3e50; stroke: #2c3e50; stroke-width: 0.8"/>
      </g>
     </g>
     <g id="text_7">
      <!-- 0.00 -->
      <g style="fill: #2c3e50" transform="translate(26.649844 273.721219) scale(0.1 -0.1)">
       <defs>
        <path id="DejaVuSans-2e" d="M 684 794 
L 1344 794 
L 1344 0 
L 684 0 
L 684 794 
z
" transform="scale(0.015625)"/>
       </defs>
       <use xlink:href="#DejaVuSans-30"/>
       <use xlink:href="#DejaVuSans-2e" x="63.623047"/>
       <use xlink:href="#DejaVuSans-30" x="95.410156"/>
       <use xlink:href="#DejaVuSans-30" x="159.033203"/>
      </g>
     </g>
    </g>
    <g id="ytick_2">
     <g id="line2d_13">
      <path d="M 55.915469 241.466552 
L 446.515469 241.466552 
" clip-path="url(#pb42b3e79dc)" style="fill: none; stroke-dasharray: 0.8,1.28; stroke-dashoffset: 0; stroke: #b0b0b0; stroke-opacity: 0.3; stroke-width: 0.8"/>
     </g>
     <g id="line2d_14">
      <g>
       <use xlink:href="#m9ecc5f7282" x="55.915469" y="241.466552" style="fill: #2c3e50; stroke: #2c3e50; stroke-width: 0.8"/>
      </g>
     </g>
     <g id="text_8">
      <!-- 0.05 -->
      <g style="fill: #2c3e50" transform="translate(26.649844 245.265771) scale(0.1 -0.1)">
       <defs>
        <path id="DejaVuSans-35" d="M 691 4666 
L 3169 4666 
L 3169 4134 
L 1269 4134 
L 1269 2991 
Q 1406 3038 1543 3061 
Q 1681 3084 1819 3084 
Q 2600 3084 3056 2656 
Q 3513 2228 3513 1497 
Q 3513 744 3044 326 
Q 2575 -91 1722 -91 
Q 1428 -91 1123 -41 
Q 819 9 494 109 
L 494 744 
Q 775 591 1075 516 
Q 1375 441 1709 441 
Q 2250 441 2565 725 
Q 2881 1009 2881 1497 
Q 2881 1984 2565 2268 
Q 2250 2553 1709 2553 
Q 1456 2553 1204 2497 
Q 953 2441 691 2322 
L 691 4666 
z
" transform="scale(0.015625)"/>
       </defs>
       <use xlink:href="#DejaVuSans-30"/>
       <use xlink:href="#DejaVuSans-2e" x="63.623047"/>
       <use xlink:href="#DejaVuSans-30" x="95.410156"/>
       <use xlink:href="#DejaVuSans-35" x="159.033203"/>
      </g>
     </g>
    </g>
    <g id="ytick_3">
     <g id="line2d_15">
      <path d="M 55.915469 213.011105 
L 446.515469 213.011105 
" clip-path="url(#pb42b3e79dc)" style="fill: none; stroke-dasharray: 0.8,1.28; stroke-dashoffset: 0; stroke: #b0b0b0; stroke-opacity: 0.3; stroke-width: 0.8"/>
     </g>
     <g id="line2d_16">
      <g>
       <use xlink:href="#m9ecc5f7282" x="55.915469" y="213.011105" style="fill: #2c3e50; stroke: #2c3e50; stroke-width: 0.8"/>
      </g>
     </g>
     <g id="text_9">
      <!-- 0.10 -->
      <g style="fill: #2c3e50" transform="translate(26.649844 216.810323) scale(0.1 -0.1)">
       <defs>
        <path id="DejaVuSans-31" d="M 794 531 
L 1825 531 
L 1825 4091 
L 703 3866 
L 703 4441 
L 1819 4666 
L 2450 4666 
L 2450 531 
L 3481 531 
L 3481 0 
L 794 0 
L 794 531 
z
" transform="scale(0.015625)"/>
       </defs>
       <use xlink:href="#DejaVuSans-30"/>
       <use xlink:href="#DejaVuSans-2e" x="63.623047"/>
       <use xlink:href="#DejaVuSans-31" x="95.410156"/>
       <use xlink:href="#DejaVuSans-30" x="159.033203"/>
      </g>
     </g>
    </g>
    <g id="ytick_4">
     <g id="line2d_17">
      <path d="M 55.915469 184.555657 
L 446.515469 184.555657 
" clip-path="url(#pb42b3e79dc)" style="fill: none; stroke-dasharray: 0.8,1.28; stroke-dashoffset: 0; stroke: #b0b0b0; stroke-opacity: 0.3; stroke-width: 0.8"/>
     </g>
     <g id="line2d_18">
      <g>
       <use xlink:href="#m9ecc5f7282" x="55.915469" y="184.555657" style="fill: #2c3e50; stroke: #2c3e50; stroke-width: 0.8"/>
      </g>
     </g>
     <g id="text_10">
      <!-- 0.15 -->
      <g style="fill: #2c3e50" transform="translate(26.649844 188.354876) scale(0.1 -0.1)">
       <use xlink:href="#DejaVuSans-30"/>
       <use xlink:href="#DejaVuSans-2e" x="63.623047"/>
       <use xlink:href="#DejaVuSans-31" x="95.410156"/>
       <use xlink:href="#DejaVuSans-35" x="159.033203"/>
      </g>
     </g>
    </g>
    <g id="ytick_5">
     <g id="line2d_19">
      <path d="M 55.915469 156.100209 
L 446.515469 156.100209 
" clip-path="url(#pb42b3e79dc)" style="fill: none; stroke-dasharray: 0.8,1.28; stroke-dashoffset: 0; stroke: #b0b0b0; stroke-opacity: 0.3; stroke-width: 0.8"/>
     </g>
     <g id="line2d_20">
      <g>
       <use xlink:href="#m9ecc5f7282" x="55.915469" y="156.100209" style="fill: #2c3e50; stroke: #2c3e50; stroke-width: 0.8"/>
      </g>
     </g>
     <g id="text_11">
      <!-- 0.20 -->
      <g style="fill: #2c3e50" transform="translate(26.649844 159.899428) scale(0.1 -0.1)">
       <use xlink:href="#DejaVuSans-30"/>
       <use xlink:href="#DejaVuSans-2e" x="63.623047"/>
       <use xlink:href="#DejaVuSans-32" x="95.410156"/>
       <use xlink:href="#DejaVuSans-30" x="159.033203"/>
      </g>
     </g>
    </g>
    <g id="ytick_6">
     <g id="line2d_21">
      <path d="M 55.915469 127.644762 
L 446.515469 127.644762 
" clip-path="url(#pb42b3e79dc)" style="fill: none; stroke-dasharray: 0.8,1.28; stroke-dashoffset: 0; stroke: #b0b0b0; stroke-opacity: 0.3; stroke-width: 0.8"/>
     </g>
     <g id="line2d_22">
      <g>
       <use xlink:href="#m9ecc5f7282" x="55.915469" y="127.644762" style="fill: #2c3e50; stroke: #2c3e50; stroke-width: 0.8"/>
      </g>
     </g>
     <g id="text_12">
      <!-- 0.25 -->
      <g style="fill: #2c3e50" transform="translate(26.649844 131.44398) scale(0.1 -0.1)">
       <use xlink:href="#DejaVuSans-30"/>
       <use xlink:href="#DejaVuSans-2e" x="63.623047"/>
       <use xlink:href="#DejaVuSans-32" x="95.410156"/>
       <use xlink:href="#DejaVuSans-35" x="159.033203"/>
      </g>
     </g>
    </g>
    <g id="ytick_7">
     <g id="line2d_23">
      <path d="M 55.915469 99.189314 
L 446.515469 99.189314 
" clip-path="url(#pb42b3e79dc)" style="fill: none; stroke-dasharray: 0.8,1.28; stroke-dashoffset: 0; stroke: #b0b0b0; stroke-opacity: 0.3; stroke-width: 0.8"/>
     </g>
     <g id="line2d_24">
      <g>
       <use xlink:href="#m9ecc5f7282" x="55.915469" y="99.189314" style="fill: #2c3e50; stroke: #2c3e50; stroke-width: 0.8"/>
      </g>
     </g>
     <g id="text_13">
      <!-- 0.30 -->
      <g style="fill: #2c3e50" transform="translate(26.649844 102.988533) scale(0.1 -0.1)">
       <defs>
        <path id="DejaVuSans-33" d="M 2597 2516 
Q 3050 2419 3304 2112 
Q 3559 1806 3559 1356 
Q 3559 666 3084 287 
Q 2609 -91 1734 -91 
Q 1441 -91 1130 -33 
Q 819 25 488 141 
L 488 750 
Q 750 597 1062 519 
Q 1375 441 1716 441 
Q 2309 441 2620 675 
Q 2931 909 2931 1356 
Q 2931 1769 2642 2001 
Q 2353 2234 1838 2234 
L 1294 2234 
L 1294 2753 
L 1863 2753 
Q 2328 2753 2575 2939 
Q 2822 3125 2822 3475 
Q 2822 3834 2567 4026 
Q 2313 4219 1838 4219 
Q 1578 4219 1281 4162 
Q 984 4106 628 3988 
L 628 4550 
Q 988 4650 1302 4700 
Q 1616 4750 1894 4750 
Q 2613 4750 3031 4423 
Q 3450 4097 3450 3541 
Q 3450 3153 3228 2886 
Q 3006 2619 2597 2516 
z
" transform="scale(0.015625)"/>
       </defs>
       <use xlink:href="#DejaVuSans-30"/>
       <use xlink:href="#DejaVuSans-2e" x="63.623047"/>
       <use xlink:href="#DejaVuSans-33" x="95.410156"/>
       <use xlink:href="#DejaVuSans-30" x="159.033203"/>
      </g>
     </g>
    </g>
    <g id="ytick_8">
     <g id="line2d_25">
      <path d="M 55.915469 70.733866 
L 446.515469 70.733866 
" clip-path="url(#pb42b3e79dc)" style="fill: none; stroke-dasharray: 0.8,1.28; stroke-dashoffset: 0; stroke: #b0b0b0; stroke-opacity: 0.3; stroke-width: 0.8"/>
     </g>
     <g id="line2d_26">
      <g>
       <use xlink:href="#m9ecc5f7282" x="55.915469" y="70.733866" style="fill: #2c3e50; stroke: #2c3e50; stroke-width: 0.8"/>
      </g>
     </g>
     <g id="text_14">
      <!-- 0.35 -->
      <g style="fill: #2c3e50" transform="translate(26.649844 74.533085) scale(0.1 -0.1)">
       <use xlink:href="#DejaVuSans-30"/>
       <use xlink:href="#DejaVuSans-2e" x="63.623047"/>
       <use xlink:href="#DejaVuSans-33" x="95.410156"/>
       <use xlink:href="#DejaVuSans-35" x="159.033203"/>
      </g>
     </g>
    </g>
    <g id="ytick_9">
     <g id="line2d_27">
      <path d="M 55.915469 42.278419 
L 446.515469 42.278419 
" clip-path="url(#pb42b3e79dc)" style="fill: none; stroke-dasharray: 0.8,1.28; stroke-dashoffset: 0; stroke: #b0b0b0; stroke-opacity: 0.3; stroke-width: 0.8"/>
     </g>
     <g id="line2d_28">
      <g>
       <use xlink:href="#m9ecc5f7282" x="55.915469" y="42.278419" style="fill: #2c3e50; stroke: #2c3e50; stroke-width: 0.8"/>
      </g>
     </g>
     <g id="text_15">
      <!-- 0.40 -->
      <g style="fill: #2c3e50" transform="translate(26.649844 46.077637) scale(0.1 -0.1)">
       <use xlink:href="#DejaVuSans-30"/>
       <use xlink:href="#DejaVuSans-2e" x="63.623047"/>
       <use xlink:href="#DejaVuSans-34" x="95.410156"/>
       <use xlink:href="#DejaVuSans-30" x="159.033203"/>
      </g>
     </g>
    </g>
    <g id="text_16">
     <!-- densidad -->
     <g transform="translate(20.258203 180.340297) rotate(-90) scale(0.115 -0.115)">
      <defs>
       <path id="DejaVuSans-Bold-6e" d="M 4056 2131 
L 4056 0 
L 2931 0 
L 2931 347 
L 2931 1631 
Q 2931 2084 2911 2256 
Q 2891 2428 2841 2509 
Q 2775 2619 2662 2680 
Q 2550 2741 2406 2741 
Q 2056 2741 1856 2470 
Q 1656 2200 1656 1722 
L 1656 0 
L 538 0 
L 538 3500 
L 1656 3500 
L 1656 2988 
Q 1909 3294 2193 3439 
Q 2478 3584 2822 3584 
Q 3428 3584 3742 3212 
Q 4056 2841 4056 2131 
z
" transform="scale(0.015625)"/>
      </defs>
      <use xlink:href="#DejaVuSans-Bold-64"/>
      <use xlink:href="#DejaVuSans-Bold-65" x="71.582031"/>
      <use xlink:href="#DejaVuSans-Bold-6e" x="139.404297"/>
      <use xlink:href="#DejaVuSans-Bold-73" x="210.595703"/>
      <use xlink:href="#DejaVuSans-Bold-69" x="270.117188"/>
      <use xlink:href="#DejaVuSans-Bold-64" x="304.394531"/>
      <use xlink:href="#DejaVuSans-Bold-61" x="375.976562"/>
      <use xlink:href="#DejaVuSans-Bold-64" x="443.457031"/>
     </g>
    </g>
   </g>
   <g id="PolyCollection_1">
    <defs>
     <path id="m30a0e2fe35" d="M 263.163745 -43.327969 
L 263.163745 -101.843507 
L 263.598227 -100.809656 
L 264.03271 -99.787497 
L 264.467193 -98.77706 
L 264.901676 -97.778366 
L 265.336158 -96.791435 
L 265.770641 -95.816282 
L 266.205124 -94.852916 
L 266.639607 -93.901344 
L 267.074089 -92.961567 
L 267.508572 -92.033582 
L 267.943055 -91.117384 
L 268.377538 -90.212962 
L 268.81202 -89.320302 
L 269.246503 -88.439385 
L 269.680986 -87.57019 
L 270.115469 -86.712691 
L 270.549952 -85.866859 
L 270.984434 -85.032663 
L 271.418917 -84.210065 
L 271.8534 -83.399027 
L 272.287883 -82.599507 
L 272.722365 -81.811459 
L 273.156848 -81.034834 
L 273.591331 -80.269581 
L 274.025814 -79.515646 
L 274.460296 -78.772971 
L 274.894779 -78.041496 
L 275.329262 -77.321159 
L 275.763745 -76.611894 
L 276.198227 -75.913634 
L 276.63271 -75.22631 
L 277.067193 -74.549848 
L 277.501676 -73.884173 
L 277.936158 -73.229211 
L 278.370641 -72.584881 
L 278.805124 -71.951103 
L 279.239607 -71.327794 
L 279.674089 -70.71487 
L 280.108572 -70.112245 
L 280.543055 -69.51983 
L 280.977538 -68.937537 
L 281.41202 -68.365275 
L 281.846503 -67.80295 
L 282.280986 -67.25047 
L 282.715469 -66.707739 
L 283.149952 -66.174661 
L 283.584434 -65.651139 
L 284.018917 -65.137074 
L 284.4534 -64.632367 
L 284.887883 -64.136916 
L 285.322365 -63.650622 
L 285.756848 -63.173382 
L 286.191331 -62.705093 
L 286.625814 -62.245651 
L 287.060296 -61.794953 
L 287.494779 -61.352894 
L 287.929262 -60.919369 
L 288.363745 -60.494272 
L 288.798227 -60.077498 
L 289.23271 -59.66894 
L 289.667193 -59.268491 
L 290.101676 -58.876046 
L 290.536158 -58.491497 
L 290.970641 -58.114737 
L 291.405124 -57.74566 
L 291.839607 -57.384158 
L 292.274089 -57.030126 
L 292.708572 -56.683455 
L 293.143055 -56.34404 
L 293.577538 -56.011774 
L 294.01202 -55.686551 
L 294.446503 -55.368266 
L 294.880986 -55.056812 
L 295.315469 -54.752084 
L 295.749952 -54.453978 
L 296.184434 -54.16239 
L 296.618917 -53.877215 
L 297.0534 -53.598351 
L 297.487883 -53.325695 
L 297.922365 -53.059144 
L 298.356848 -52.798597 
L 298.791331 -52.543952 
L 299.225814 -52.295111 
L 299.660296 -52.051973 
L 300.094779 -51.81444 
L 300.529262 -51.582413 
L 300.963745 -51.355795 
L 301.398227 -51.134489 
L 301.83271 -50.918401 
L 302.267193 -50.707435 
L 302.701676 -50.501498 
L 303.136158 -50.300495 
L 303.570641 -50.104336 
L 304.005124 -49.912929 
L 304.439607 -49.726183 
L 304.874089 -49.54401 
L 305.308572 -49.366321 
L 305.743055 -49.193028 
L 306.177538 -49.024045 
L 306.61202 -48.859287 
L 307.046503 -48.698669 
L 307.480986 -48.542108 
L 307.915469 -48.389522 
L 308.349952 -48.240829 
L 308.784434 -48.095949 
L 309.218917 -47.954803 
L 309.6534 -47.817313 
L 310.087883 -47.683401 
L 310.522365 -47.552992 
L 310.956848 -47.42601 
L 311.391331 -47.302382 
L 311.825814 -47.182034 
L 312.260296 -47.064896 
L 312.694779 -46.950897 
L 313.129262 -46.839966 
L 313.563745 -46.732035 
L 313.998227 -46.627037 
L 314.43271 -46.524906 
L 314.867193 -46.425576 
L 315.301676 -46.328982 
L 315.736158 -46.235062 
L 316.170641 -46.143754 
L 316.605124 -46.054996 
L 317.039607 -45.968729 
L 317.474089 -45.884892 
L 317.908572 -45.803429 
L 318.343055 -45.724283 
L 318.777538 -45.647397 
L 319.21202 -45.572716 
L 319.646503 -45.500188 
L 320.080986 -45.429757 
L 320.515469 -45.361374 
L 320.949952 -45.294987 
L 321.384434 -45.230545 
L 321.818917 -45.168001 
L 322.2534 -45.107305 
L 322.687883 -45.048411 
L 323.122365 -44.991273 
L 323.556848 -44.935845 
L 323.991331 -44.882084 
L 324.425814 -44.829945 
L 324.860296 -44.779386 
L 325.294779 -44.730366 
L 325.729262 -44.682844 
L 326.163745 -44.63678 
L 326.598227 -44.592135 
L 327.03271 -44.54887 
L 327.467193 -44.506949 
L 327.901676 -44.466335 
L 328.336158 -44.426992 
L 328.770641 -44.388885 
L 329.205124 -44.35198 
L 329.639607 -44.316244 
L 330.074089 -44.281644 
L 330.508572 -44.248148 
L 330.943055 -44.215726 
L 331.377538 -44.184346 
L 331.81202 -44.153979 
L 332.246503 -44.124596 
L 332.680986 -44.096169 
L 333.115469 -44.06867 
L 333.549952 -44.042072 
L 333.984434 -44.016349 
L 334.418917 -43.991476 
L 334.8534 -43.967427 
L 335.287883 -43.944178 
L 335.722365 -43.921705 
L 336.156848 -43.899985 
L 336.591331 -43.878995 
L 337.025814 -43.858714 
L 337.460296 -43.839119 
L 337.894779 -43.820191 
L 338.329262 -43.801909 
L 338.763745 -43.784252 
L 339.198227 -43.767202 
L 339.63271 -43.750741 
L 340.067193 -43.734848 
L 340.501676 -43.719508 
L 340.936158 -43.704702 
L 341.370641 -43.690413 
L 341.805124 -43.676626 
L 342.239607 -43.663325 
L 342.674089 -43.650493 
L 343.108572 -43.638116 
L 343.543055 -43.626179 
L 343.977538 -43.614669 
L 344.41202 -43.603571 
L 344.846503 -43.592871 
L 345.280986 -43.582557 
L 345.715469 -43.572616 
L 346.149952 -43.563036 
L 346.584434 -43.553805 
L 347.018917 -43.544911 
L 347.4534 -43.536344 
L 347.887883 -43.528091 
L 348.322365 -43.520142 
L 348.756848 -43.512488 
L 349.191331 -43.505118 
L 349.625814 -43.498023 
L 350.060296 -43.491193 
L 350.494779 -43.484619 
L 350.929262 -43.478292 
L 351.363745 -43.472204 
L 351.798227 -43.466346 
L 352.23271 -43.460711 
L 352.667193 -43.455291 
L 353.101676 -43.450077 
L 353.536158 -43.445064 
L 353.970641 -43.440243 
L 354.405124 -43.435608 
L 354.839607 -43.431153 
L 355.274089 -43.42687 
L 355.708572 -43.422754 
L 356.143055 -43.418799 
L 356.577538 -43.414999 
L 357.01202 -43.411348 
L 357.446503 -43.407841 
L 357.880986 -43.404472 
L 358.315469 -43.401237 
L 358.749952 -43.398131 
L 359.184434 -43.395149 
L 359.618917 -43.392285 
L 360.0534 -43.389537 
L 360.487883 -43.386899 
L 360.922365 -43.384368 
L 361.356848 -43.381939 
L 361.791331 -43.379609 
L 362.225814 -43.377373 
L 362.660296 -43.375229 
L 363.094779 -43.373173 
L 363.529262 -43.371201 
L 363.963745 -43.36931 
L 364.398227 -43.367498 
L 364.83271 -43.36576 
L 365.267193 -43.364095 
L 365.701676 -43.362499 
L 366.136158 -43.360969 
L 366.570641 -43.359504 
L 367.005124 -43.3581 
L 367.439607 -43.356756 
L 367.874089 -43.355468 
L 368.308572 -43.354235 
L 368.743055 -43.353054 
L 369.177538 -43.351923 
L 369.61202 -43.350841 
L 370.046503 -43.349805 
L 370.480986 -43.348814 
L 370.915469 -43.347865 
L 371.349952 -43.346957 
L 371.784434 -43.346089 
L 372.218917 -43.345258 
L 372.6534 -43.344464 
L 373.087883 -43.343704 
L 373.522365 -43.342977 
L 373.956848 -43.342282 
L 374.391331 -43.341618 
L 374.825814 -43.340983 
L 375.260296 -43.340376 
L 375.694779 -43.339797 
L 376.129262 -43.339243 
L 376.563745 -43.338713 
L 376.998227 -43.338207 
L 377.43271 -43.337724 
L 377.867193 -43.337263 
L 378.301676 -43.336822 
L 378.736158 -43.336402 
L 379.170641 -43.336 
L 379.605124 -43.335617 
L 380.039607 -43.335251 
L 380.474089 -43.334902 
L 380.908572 -43.334569 
L 381.343055 -43.334251 
L 381.777538 -43.333947 
L 382.21202 -43.333658 
L 382.646503 -43.333382 
L 383.080986 -43.333119 
L 383.515469 -43.332868 
L 383.949952 -43.332628 
L 384.384434 -43.3324 
L 384.818917 -43.332183 
L 385.2534 -43.331976 
L 385.687883 -43.331778 
L 386.122365 -43.33159 
L 386.556848 -43.331411 
L 386.991331 -43.33124 
L 387.425814 -43.331077 
L 387.860296 -43.330922 
L 388.294779 -43.330775 
L 388.729262 -43.330634 
L 389.163745 -43.330501 
L 389.598227 -43.330373 
L 390.03271 -43.330252 
L 390.467193 -43.330137 
L 390.901676 -43.330027 
L 391.336158 -43.329923 
L 391.770641 -43.329823 
L 392.205124 -43.329729 
L 392.639607 -43.329639 
L 393.074089 -43.329554 
L 393.508572 -43.329472 
L 393.943055 -43.329395 
L 394.377538 -43.329322 
L 394.81202 -43.329252 
L 395.246503 -43.329185 
L 395.680986 -43.329122 
L 396.115469 -43.329063 
L 396.549952 -43.329006 
L 396.984434 -43.328952 
L 397.418917 -43.3289 
L 397.8534 -43.328851 
L 398.287883 -43.328805 
L 398.722365 -43.328761 
L 399.156848 -43.328719 
L 399.591331 -43.32868 
L 400.025814 -43.328642 
L 400.460296 -43.328606 
L 400.894779 -43.328572 
L 401.329262 -43.32854 
L 401.763745 -43.32851 
L 402.198227 -43.328481 
L 402.63271 -43.328453 
L 403.067193 -43.328427 
L 403.501676 -43.328403 
L 403.936158 -43.328379 
L 404.370641 -43.328357 
L 404.805124 -43.328336 
L 405.239607 -43.328316 
L 405.674089 -43.328297 
L 406.108572 -43.328279 
L 406.543055 -43.328262 
L 406.977538 -43.328246 
L 407.41202 -43.328231 
L 407.846503 -43.328217 
L 408.280986 -43.328203 
L 408.715469 -43.32819 
L 409.149952 -43.328178 
L 409.584434 -43.328166 
L 410.018917 -43.328155 
L 410.4534 -43.328145 
L 410.887883 -43.328135 
L 411.322365 -43.328126 
L 411.756848 -43.328117 
L 412.191331 -43.328109 
L 412.625814 -43.328101 
L 413.060296 -43.328094 
L 413.494779 -43.328086 
L 413.929262 -43.32808 
L 414.363745 -43.328074 
L 414.798227 -43.328068 
L 415.23271 -43.328062 
L 415.667193 -43.328057 
L 416.101676 -43.328052 
L 416.536158 -43.328047 
L 416.970641 -43.328042 
L 417.405124 -43.328038 
L 417.839607 -43.328034 
L 418.274089 -43.32803 
L 418.708572 -43.328027 
L 419.143055 -43.328024 
L 419.577538 -43.32802 
L 420.01202 -43.328017 
L 420.446503 -43.328015 
L 420.880986 -43.328012 
L 421.315469 -43.328009 
L 421.749952 -43.328007 
L 422.184434 -43.328005 
L 422.618917 -43.328003 
L 423.0534 -43.328001 
L 423.487883 -43.327999 
L 423.922365 -43.327997 
L 424.356848 -43.327995 
L 424.791331 -43.327994 
L 425.225814 -43.327992 
L 425.660296 -43.327991 
L 426.094779 -43.32799 
L 426.529262 -43.327988 
L 426.963745 -43.327987 
L 427.398227 -43.327986 
L 427.83271 -43.327985 
L 428.267193 -43.327984 
L 428.701676 -43.327983 
L 429.136158 -43.327982 
L 429.570641 -43.327981 
L 430.005124 -43.327981 
L 430.439607 -43.32798 
L 430.874089 -43.327979 
L 431.308572 -43.327979 
L 431.743055 -43.327978 
L 432.177538 -43.327977 
L 432.61202 -43.327977 
L 433.046503 -43.327976 
L 433.480986 -43.327976 
L 433.915469 -43.327976 
L 434.349952 -43.327975 
L 434.784434 -43.327975 
L 435.218917 -43.327974 
L 435.6534 -43.327974 
L 436.087883 -43.327974 
L 436.522365 -43.327973 
L 436.956848 -43.327973 
L 437.391331 -43.327973 
L 437.825814 -43.327973 
L 438.260296 -43.327972 
L 438.694779 -43.327972 
L 439.129262 -43.327972 
L 439.563745 -43.327972 
L 439.998227 -43.327971 
L 440.43271 -43.327971 
L 440.867193 -43.327971 
L 441.301676 -43.327971 
L 441.736158 -43.327971 
L 442.170641 -43.327971 
L 442.605124 -43.327971 
L 443.039607 -43.32797 
L 443.474089 -43.32797 
L 443.908572 -43.32797 
L 444.343055 -43.32797 
L 444.777538 -43.32797 
L 445.21202 -43.32797 
L 445.646503 -43.32797 
L 446.080986 -43.32797 
L 446.515469 -43.32797 
L 446.515469 -43.327969 
L 446.515469 -43.327969 
L 446.080986 -43.327969 
L 445.646503 -43.327969 
L 445.21202 -43.327969 
L 444.777538 -43.327969 
L 444.343055 -43.327969 
L 443.908572 -43.327969 
L 443.474089 -43.327969 
L 443.039607 -43.327969 
L 442.605124 -43.327969 
L 442.170641 -43.327969 
L 441.736158 -43.327969 
L 441.301676 -43.327969 
L 440.867193 -43.327969 
L 440.43271 -43.327969 
L 439.998227 -43.327969 
L 439.563745 -43.327969 
L 439.129262 -43.327969 
L 438.694779 -43.327969 
L 438.260296 -43.327969 
L 437.825814 -43.327969 
L 437.391331 -43.327969 
L 436.956848 -43.327969 
L 436.522365 -43.327969 
L 436.087883 -43.327969 
L 435.6534 -43.327969 
L 435.218917 -43.327969 
L 434.784434 -43.327969 
L 434.349952 -43.327969 
L 433.915469 -43.327969 
L 433.480986 -43.327969 
L 433.046503 -43.327969 
L 432.61202 -43.327969 
L 432.177538 -43.327969 
L 431.743055 -43.327969 
L 431.308572 -43.327969 
L 430.874089 -43.327969 
L 430.439607 -43.327969 
L 430.005124 -43.327969 
L 429.570641 -43.327969 
L 429.136158 -43.327969 
L 428.701676 -43.327969 
L 428.267193 -43.327969 
L 427.83271 -43.327969 
L 427.398227 -43.327969 
L 426.963745 -43.327969 
L 426.529262 -43.327969 
L 426.094779 -43.327969 
L 425.660296 -43.327969 
L 425.225814 -43.327969 
L 424.791331 -43.327969 
L 424.356848 -43.327969 
L 423.922365 -43.327969 
L 423.487883 -43.327969 
L 423.0534 -43.327969 
L 422.618917 -43.327969 
L 422.184434 -43.327969 
L 421.749952 -43.327969 
L 421.315469 -43.327969 
L 420.880986 -43.327969 
L 420.446503 -43.327969 
L 420.01202 -43.327969 
L 419.577538 -43.327969 
L 419.143055 -43.327969 
L 418.708572 -43.327969 
L 418.274089 -43.327969 
L 417.839607 -43.327969 
L 417.405124 -43.327969 
L 416.970641 -43.327969 
L 416.536158 -43.327969 
L 416.101676 -43.327969 
L 415.667193 -43.327969 
L 415.23271 -43.327969 
L 414.798227 -43.327969 
L 414.363745 -43.327969 
L 413.929262 -43.327969 
L 413.494779 -43.327969 
L 413.060296 -43.327969 
L 412.625814 -43.327969 
L 412.191331 -43.327969 
L 411.756848 -43.327969 
L 411.322365 -43.327969 
L 410.887883 -43.327969 
L 410.4534 -43.327969 
L 410.018917 -43.327969 
L 409.584434 -43.327969 
L 409.149952 -43.327969 
L 408.715469 -43.327969 
L 408.280986 -43.327969 
L 407.846503 -43.327969 
L 407.41202 -43.327969 
L 406.977538 -43.327969 
L 406.543055 -43.327969 
L 406.108572 -43.327969 
L 405.674089 -43.327969 
L 405.239607 -43.327969 
L 404.805124 -43.327969 
L 404.370641 -43.327969 
L 403.936158 -43.327969 
L 403.501676 -43.327969 
L 403.067193 -43.327969 
L 402.63271 -43.327969 
L 402.198227 -43.327969 
L 401.763745 -43.327969 
L 401.329262 -43.327969 
L 400.894779 -43.327969 
L 400.460296 -43.327969 
L 400.025814 -43.327969 
L 399.591331 -43.327969 
L 399.156848 -43.327969 
L 398.722365 -43.327969 
L 398.287883 -43.327969 
L 397.8534 -43.327969 
L 397.418917 -43.327969 
L 396.984434 -43.327969 
L 396.549952 -43.327969 
L 396.115469 -43.327969 
L 395.680986 -43.327969 
L 395.246503 -43.327969 
L 394.81202 -43.327969 
L 394.377538 -43.327969 
L 393.943055 -43.327969 
L 393.508572 -43.327969 
L 393.074089 -43.327969 
L 392.639607 -43.327969 
L 392.205124 -43.327969 
L 391.770641 -43.327969 
L 391.336158 -43.327969 
L 390.901676 -43.327969 
L 390.467193 -43.327969 
L 390.03271 -43.327969 
L 389.598227 -43.327969 
L 389.163745 -43.327969 
L 388.729262 -43.327969 
L 388.294779 -43.327969 
L 387.860296 -43.327969 
L 387.425814 -43.327969 
L 386.991331 -43.327969 
L 386.556848 -43.327969 
L 386.122365 -43.327969 
L 385.687883 -43.327969 
L 385.2534 -43.327969 
L 384.818917 -43.327969 
L 384.384434 -43.327969 
L 383.949952 -43.327969 
L 383.515469 -43.327969 
L 383.080986 -43.327969 
L 382.646503 -43.327969 
L 382.21202 -43.327969 
L 381.777538 -43.327969 
L 381.343055 -43.327969 
L 380.908572 -43.327969 
L 380.474089 -43.327969 
L 380.039607 -43.327969 
L 379.605124 -43.327969 
L 379.170641 -43.327969 
L 378.736158 -43.327969 
L 378.301676 -43.327969 
L 377.867193 -43.327969 
L 377.43271 -43.327969 
L 376.998227 -43.327969 
L 376.563745 -43.327969 
L 376.129262 -43.327969 
L 375.694779 -43.327969 
L 375.260296 -43.327969 
L 374.825814 -43.327969 
L 374.391331 -43.327969 
L 373.956848 -43.327969 
L 373.522365 -43.327969 
L 373.087883 -43.327969 
L 372.6534 -43.327969 
L 372.218917 -43.327969 
L 371.784434 -43.327969 
L 371.349952 -43.327969 
L 370.915469 -43.327969 
L 370.480986 -43.327969 
L 370.046503 -43.327969 
L 369.61202 -43.327969 
L 369.177538 -43.327969 
L 368.743055 -43.327969 
L 368.308572 -43.327969 
L 367.874089 -43.327969 
L 367.439607 -43.327969 
L 367.005124 -43.327969 
L 366.570641 -43.327969 
L 366.136158 -43.327969 
L 365.701676 -43.327969 
L 365.267193 -43.327969 
L 364.83271 -43.327969 
L 364.398227 -43.327969 
L 363.963745 -43.327969 
L 363.529262 -43.327969 
L 363.094779 -43.327969 
L 362.660296 -43.327969 
L 362.225814 -43.327969 
L 361.791331 -43.327969 
L 361.356848 -43.327969 
L 360.922365 -43.327969 
L 360.487883 -43.327969 
L 360.0534 -43.327969 
L 359.618917 -43.327969 
L 359.184434 -43.327969 
L 358.749952 -43.327969 
L 358.315469 -43.327969 
L 357.880986 -43.327969 
L 357.446503 -43.327969 
L 357.01202 -43.327969 
L 356.577538 -43.327969 
L 356.143055 -43.327969 
L 355.708572 -43.327969 
L 355.274089 -43.327969 
L 354.839607 -43.327969 
L 354.405124 -43.327969 
L 353.970641 -43.327969 
L 353.536158 -43.327969 
L 353.101676 -43.327969 
L 352.667193 -43.327969 
L 352.23271 -43.327969 
L 351.798227 -43.327969 
L 351.363745 -43.327969 
L 350.929262 -43.327969 
L 350.494779 -43.327969 
L 350.060296 -43.327969 
L 349.625814 -43.327969 
L 349.191331 -43.327969 
L 348.756848 -43.327969 
L 348.322365 -43.327969 
L 347.887883 -43.327969 
L 347.4534 -43.327969 
L 347.018917 -43.327969 
L 346.584434 -43.327969 
L 346.149952 -43.327969 
L 345.715469 -43.327969 
L 345.280986 -43.327969 
L 344.846503 -43.327969 
L 344.41202 -43.327969 
L 343.977538 -43.327969 
L 343.543055 -43.327969 
L 343.108572 -43.327969 
L 342.674089 -43.327969 
L 342.239607 -43.327969 
L 341.805124 -43.327969 
L 341.370641 -43.327969 
L 340.936158 -43.327969 
L 340.501676 -43.327969 
L 340.067193 -43.327969 
L 339.63271 -43.327969 
L 339.198227 -43.327969 
L 338.763745 -43.327969 
L 338.329262 -43.327969 
L 337.894779 -43.327969 
L 337.460296 -43.327969 
L 337.025814 -43.327969 
L 336.591331 -43.327969 
L 336.156848 -43.327969 
L 335.722365 -43.327969 
L 335.287883 -43.327969 
L 334.8534 -43.327969 
L 334.418917 -43.327969 
L 333.984434 -43.327969 
L 333.549952 -43.327969 
L 333.115469 -43.327969 
L 332.680986 -43.327969 
L 332.246503 -43.327969 
L 331.81202 -43.327969 
L 331.377538 -43.327969 
L 330.943055 -43.327969 
L 330.508572 -43.327969 
L 330.074089 -43.327969 
L 329.639607 -43.327969 
L 329.205124 -43.327969 
L 328.770641 -43.327969 
L 328.336158 -43.327969 
L 327.901676 -43.327969 
L 327.467193 -43.327969 
L 327.03271 -43.327969 
L 326.598227 -43.327969 
L 326.163745 -43.327969 
L 325.729262 -43.327969 
L 325.294779 -43.327969 
L 324.860296 -43.327969 
L 324.425814 -43.327969 
L 323.991331 -43.327969 
L 323.556848 -43.327969 
L 323.122365 -43.327969 
L 322.687883 -43.327969 
L 322.2534 -43.327969 
L 321.818917 -43.327969 
L 321.384434 -43.327969 
L 320.949952 -43.327969 
L 320.515469 -43.327969 
L 320.080986 -43.327969 
L 319.646503 -43.327969 
L 319.21202 -43.327969 
L 318.777538 -43.327969 
L 318.343055 -43.327969 
L 317.908572 -43.327969 
L 317.474089 -43.327969 
L 317.039607 -43.327969 
L 316.605124 -43.327969 
L 316.170641 -43.327969 
L 315.736158 -43.327969 
L 315.301676 -43.327969 
L 314.867193 -43.327969 
L 314.43271 -43.327969 
L 313.998227 -43.327969 
L 313.563745 -43.327969 
L 313.129262 -43.327969 
L 312.694779 -43.327969 
L 312.260296 -43.327969 
L 311.825814 -43.327969 
L 311.391331 -43.327969 
L 310.956848 -43.327969 
L 310.522365 -43.327969 
L 310.087883 -43.327969 
L 309.6534 -43.327969 
L 309.218917 -43.327969 
L 308.784434 -43.327969 
L 308.349952 -43.327969 
L 307.915469 -43.327969 
L 307.480986 -43.327969 
L 307.046503 -43.327969 
L 306.61202 -43.327969 
L 306.177538 -43.327969 
L 305.743055 -43.327969 
L 305.308572 -43.327969 
L 304.874089 -43.327969 
L 304.439607 -43.327969 
L 304.005124 -43.327969 
L 303.570641 -43.327969 
L 303.136158 -43.327969 
L 302.701676 -43.327969 
L 302.267193 -43.327969 
L 301.83271 -43.327969 
L 301.398227 -43.327969 
L 300.963745 -43.327969 
L 300.529262 -43.327969 
L 300.094779 -43.327969 
L 299.660296 -43.327969 
L 299.225814 -43.327969 
L 298.791331 -43.327969 
L 298.356848 -43.327969 
L 297.922365 -43.327969 
L 297.487883 -43.327969 
L 297.0534 -43.327969 
L 296.618917 -43.327969 
L 296.184434 -43.327969 
L 295.749952 -43.327969 
L 295.315469 -43.327969 
L 294.880986 -43.327969 
L 294.446503 -43.327969 
L 294.01202 -43.327969 
L 293.577538 -43.327969 
L 293.143055 -43.327969 
L 292.708572 -43.327969 
L 292.274089 -43.327969 
L 291.839607 -43.327969 
L 291.405124 -43.327969 
L 290.970641 -43.327969 
L 290.536158 -43.327969 
L 290.101676 -43.327969 
L 289.667193 -43.327969 
L 289.23271 -43.327969 
L 288.798227 -43.327969 
L 288.363745 -43.327969 
L 287.929262 -43.327969 
L 287.494779 -43.327969 
L 287.060296 -43.327969 
L 286.625814 -43.327969 
L 286.191331 -43.327969 
L 285.756848 -43.327969 
L 285.322365 -43.327969 
L 284.887883 -43.327969 
L 284.4534 -43.327969 
L 284.018917 -43.327969 
L 283.584434 -43.327969 
L 283.149952 -43.327969 
L 282.715469 -43.327969 
L 282.280986 -43.327969 
L 281.846503 -43.327969 
L 281.41202 -43.327969 
L 280.977538 -43.327969 
L 280.543055 -43.327969 
L 280.108572 -43.327969 
L 279.674089 -43.327969 
L 279.239607 -43.327969 
L 278.805124 -43.327969 
L 278.370641 -43.327969 
L 277.936158 -43.327969 
L 277.501676 -43.327969 
L 277.067193 -43.327969 
L 276.63271 -43.327969 
L 276.198227 -43.327969 
L 275.763745 -43.327969 
L 275.329262 -43.327969 
L 274.894779 -43.327969 
L 274.460296 -43.327969 
L 274.025814 -43.327969 
L 273.591331 -43.327969 
L 273.156848 -43.327969 
L 272.722365 -43.327969 
L 272.287883 -43.327969 
L 271.8534 -43.327969 
L 271.418917 -43.327969 
L 270.984434 -43.327969 
L 270.549952 -43.327969 
L 270.115469 -43.327969 
L 269.680986 -43.327969 
L 269.246503 -43.327969 
L 268.81202 -43.327969 
L 268.377538 -43.327969 
L 267.943055 -43.327969 
L 267.508572 -43.327969 
L 267.074089 -43.327969 
L 266.639607 -43.327969 
L 266.205124 -43.327969 
L 265.770641 -43.327969 
L 265.336158 -43.327969 
L 264.901676 -43.327969 
L 264.467193 -43.327969 
L 264.03271 -43.327969 
L 263.598227 -43.327969 
L 263.163745 -43.327969 
z
" style="stroke: #c0392b; stroke-opacity: 0.4"/>
    </defs>
    <g clip-path="url(#pb42b3e79dc)">
     <use xlink:href="#m30a0e2fe35" x="0" y="313.249969" style="fill: #c0392b; fill-opacity: 0.4; stroke: #c0392b; stroke-opacity: 0.4"/>
    </g>
   </g>
   <g id="PolyCollection_2">
    <defs>
     <path id="m7baadd24dd" d="M 55.915469 -43.327969 
L 55.915469 -43.327971 
L 56.349952 -43.327971 
L 56.784434 -43.327971 
L 57.218917 -43.327971 
L 57.6534 -43.327971 
L 58.087883 -43.327971 
L 58.522365 -43.327972 
L 58.956848 -43.327972 
L 59.391331 -43.327972 
L 59.825814 -43.327972 
L 60.260296 -43.327972 
L 60.694779 -43.327973 
L 61.129262 -43.327973 
L 61.563745 -43.327973 
L 61.998227 -43.327973 
L 62.43271 -43.327974 
L 62.867193 -43.327974 
L 63.301676 -43.327974 
L 63.736158 -43.327975 
L 64.170641 -43.327975 
L 64.605124 -43.327976 
L 65.039607 -43.327976 
L 65.474089 -43.327977 
L 65.908572 -43.327977 
L 66.343055 -43.327978 
L 66.777538 -43.327978 
L 67.21202 -43.327979 
L 67.646503 -43.327979 
L 68.080986 -43.32798 
L 68.515469 -43.327981 
L 68.949952 -43.327982 
L 69.384434 -43.327982 
L 69.818917 -43.327983 
L 70.2534 -43.327984 
L 70.687883 -43.327985 
L 71.122365 -43.327986 
L 71.556848 -43.327987 
L 71.991331 -43.327989 
L 72.425814 -43.32799 
L 72.860296 -43.327991 
L 73.294779 -43.327993 
L 73.729262 -43.327994 
L 74.163745 -43.327996 
L 74.598227 -43.327997 
L 75.03271 -43.327999 
L 75.467193 -43.328001 
L 75.901676 -43.328003 
L 76.336158 -43.328005 
L 76.770641 -43.328008 
L 77.205124 -43.32801 
L 77.639607 -43.328013 
L 78.074089 -43.328015 
L 78.508572 -43.328018 
L 78.943055 -43.328021 
L 79.377538 -43.328024 
L 79.81202 -43.328028 
L 80.246503 -43.328031 
L 80.680986 -43.328035 
L 81.115469 -43.328039 
L 81.549952 -43.328044 
L 81.984434 -43.328048 
L 82.418917 -43.328053 
L 82.8534 -43.328058 
L 83.287883 -43.328063 
L 83.722365 -43.328069 
L 84.156848 -43.328075 
L 84.591331 -43.328082 
L 85.025814 -43.328088 
L 85.460296 -43.328095 
L 85.894779 -43.328103 
L 86.329262 -43.328111 
L 86.763745 -43.328119 
L 87.198227 -43.328128 
L 87.63271 -43.328138 
L 88.067193 -43.328148 
L 88.501676 -43.328158 
L 88.936158 -43.328169 
L 89.370641 -43.328181 
L 89.805124 -43.328194 
L 90.239607 -43.328207 
L 90.674089 -43.328221 
L 91.108572 -43.328235 
L 91.543055 -43.328251 
L 91.977538 -43.328267 
L 92.41202 -43.328284 
L 92.846503 -43.328302 
L 93.280986 -43.328321 
L 93.715469 -43.328342 
L 94.149952 -43.328363 
L 94.584434 -43.328385 
L 95.018917 -43.328409 
L 95.4534 -43.328434 
L 95.887883 -43.328461 
L 96.322365 -43.328488 
L 96.756848 -43.328518 
L 97.191331 -43.328549 
L 97.625814 -43.328581 
L 98.060296 -43.328616 
L 98.494779 -43.328652 
L 98.929262 -43.32869 
L 99.363745 -43.32873 
L 99.798227 -43.328773 
L 100.23271 -43.328817 
L 100.667193 -43.328864 
L 101.101676 -43.328914 
L 101.536158 -43.328966 
L 101.970641 -43.329021 
L 102.405124 -43.329078 
L 102.839607 -43.329139 
L 103.274089 -43.329203 
L 103.708572 -43.32927 
L 104.143055 -43.329341 
L 104.577538 -43.329415 
L 105.01202 -43.329494 
L 105.446503 -43.329576 
L 105.880986 -43.329663 
L 106.315469 -43.329754 
L 106.749952 -43.32985 
L 107.184434 -43.32995 
L 107.618917 -43.330056 
L 108.0534 -43.330167 
L 108.487883 -43.330284 
L 108.922365 -43.330407 
L 109.356848 -43.330536 
L 109.791331 -43.330671 
L 110.225814 -43.330814 
L 110.660296 -43.330963 
L 111.094779 -43.33112 
L 111.529262 -43.331285 
L 111.963745 -43.331458 
L 112.398227 -43.33164 
L 112.83271 -43.33183 
L 113.267193 -43.33203 
L 113.701676 -43.33224 
L 114.136158 -43.33246 
L 114.570641 -43.332692 
L 115.005124 -43.332934 
L 115.439607 -43.333188 
L 115.874089 -43.333455 
L 116.308572 -43.333734 
L 116.743055 -43.334027 
L 117.177538 -43.334334 
L 117.61202 -43.334656 
L 118.046503 -43.334994 
L 118.480986 -43.335347 
L 118.915469 -43.335718 
L 119.349952 -43.336106 
L 119.784434 -43.336513 
L 120.218917 -43.336939 
L 120.6534 -43.337385 
L 121.087883 -43.337852 
L 121.522365 -43.338341 
L 121.956848 -43.338853 
L 122.391331 -43.339389 
L 122.825814 -43.339949 
L 123.260296 -43.340536 
L 123.694779 -43.341151 
L 124.129262 -43.341793 
L 124.563745 -43.342465 
L 124.998227 -43.343169 
L 125.43271 -43.343904 
L 125.867193 -43.344673 
L 126.301676 -43.345477 
L 126.736158 -43.346318 
L 127.170641 -43.347197 
L 127.605124 -43.348115 
L 128.039607 -43.349075 
L 128.474089 -43.350078 
L 128.908572 -43.351127 
L 129.343055 -43.352222 
L 129.777538 -43.353365 
L 130.21202 -43.35456 
L 130.646503 -43.355808 
L 131.080986 -43.357111 
L 131.515469 -43.358471 
L 131.949952 -43.359891 
L 132.384434 -43.361373 
L 132.818917 -43.36292 
L 133.2534 -43.364534 
L 133.687883 -43.366219 
L 134.122365 -43.367976 
L 134.556848 -43.369809 
L 134.991331 -43.371722 
L 135.425814 -43.373716 
L 135.860296 -43.375795 
L 136.294779 -43.377964 
L 136.729262 -43.380224 
L 137.163745 -43.38258 
L 137.598227 -43.385036 
L 138.03271 -43.387596 
L 138.467193 -43.390263 
L 138.901676 -43.393041 
L 139.336158 -43.395936 
L 139.770641 -43.398951 
L 140.205124 -43.402092 
L 140.639607 -43.405362 
L 141.074089 -43.408767 
L 141.508572 -43.412312 
L 141.943055 -43.416003 
L 142.377538 -43.419844 
L 142.81202 -43.423842 
L 143.246503 -43.428002 
L 143.680986 -43.43233 
L 144.115469 -43.436833 
L 144.549952 -43.441517 
L 144.984434 -43.446389 
L 145.418917 -43.451455 
L 145.8534 -43.456723 
L 146.287883 -43.4622 
L 146.722365 -43.467894 
L 147.156848 -43.473813 
L 147.591331 -43.479964 
L 148.025814 -43.486356 
L 148.460296 -43.492998 
L 148.894779 -43.499899 
L 149.329262 -43.507067 
L 149.763745 -43.514512 
L 150.198227 -43.522244 
L 150.63271 -43.530273 
L 151.067193 -43.538609 
L 151.501676 -43.547263 
L 151.936158 -43.556246 
L 152.370641 -43.56557 
L 152.805124 -43.575245 
L 153.239607 -43.585285 
L 153.674089 -43.595701 
L 154.108572 -43.606506 
L 154.543055 -43.617713 
L 154.977538 -43.629337 
L 155.41202 -43.64139 
L 155.846503 -43.653887 
L 156.280986 -43.666843 
L 156.715469 -43.680273 
L 157.149952 -43.694193 
L 157.584434 -43.708619 
L 158.018917 -43.723566 
L 158.4534 -43.739053 
L 158.887883 -43.755096 
L 159.322365 -43.771714 
L 159.756848 -43.788925 
L 160.191331 -43.806747 
L 160.625814 -43.825201 
L 161.060296 -43.844305 
L 161.494779 -43.864082 
L 161.929262 -43.884551 
L 162.363745 -43.905734 
L 162.798227 -43.927654 
L 163.23271 -43.950332 
L 163.667193 -43.973794 
L 164.101676 -43.998061 
L 164.536158 -44.02316 
L 164.970641 -44.049115 
L 165.405124 -44.075951 
L 165.839607 -44.103696 
L 166.274089 -44.132377 
L 166.708572 -44.162021 
L 167.143055 -44.192656 
L 167.577538 -44.224313 
L 168.01202 -44.25702 
L 168.446503 -44.290809 
L 168.880986 -44.32571 
L 169.315469 -44.361756 
L 169.749952 -44.39898 
L 170.184434 -44.437415 
L 170.618917 -44.477095 
L 171.0534 -44.518056 
L 171.487883 -44.560333 
L 171.922365 -44.603964 
L 172.356848 -44.648986 
L 172.791331 -44.695437 
L 173.225814 -44.743357 
L 173.660296 -44.792786 
L 174.094779 -44.843764 
L 174.529262 -44.896333 
L 174.963745 -44.950537 
L 175.398227 -45.006419 
L 175.83271 -45.064023 
L 176.267193 -45.123395 
L 176.701676 -45.184582 
L 177.136158 -45.24763 
L 177.570641 -45.312588 
L 178.005124 -45.379506 
L 178.439607 -45.448433 
L 178.874089 -45.51942 
L 179.308572 -45.592521 
L 179.743055 -45.667787 
L 180.177538 -45.745273 
L 180.61202 -45.825035 
L 181.046503 -45.907129 
L 181.480986 -45.991611 
L 181.915469 -46.07854 
L 182.349952 -46.167976 
L 182.784434 -46.259978 
L 183.218917 -46.354608 
L 183.6534 -46.451929 
L 184.087883 -46.552004 
L 184.522365 -46.654897 
L 184.956848 -46.760674 
L 185.391331 -46.869403 
L 185.825814 -46.981149 
L 186.260296 -47.095983 
L 186.694779 -47.213975 
L 187.129262 -47.335194 
L 187.563745 -47.459714 
L 187.998227 -47.587607 
L 188.43271 -47.718948 
L 188.867193 -47.853812 
L 189.301676 -47.992274 
L 189.736158 -48.134414 
L 190.170641 -48.280308 
L 190.605124 -48.430036 
L 191.039607 -48.58368 
L 191.474089 -48.74132 
L 191.908572 -48.903039 
L 192.343055 -49.068921 
L 192.777538 -49.239051 
L 193.21202 -49.413514 
L 193.646503 -49.592397 
L 194.080986 -49.775787 
L 194.515469 -49.963773 
L 194.949952 -50.156445 
L 195.384434 -50.353893 
L 195.818917 -50.556209 
L 196.2534 -50.763486 
L 196.687883 -50.975815 
L 197.122365 -51.193293 
L 197.556848 -51.416012 
L 197.991331 -51.644071 
L 198.425814 -51.877564 
L 198.860296 -52.11659 
L 199.294779 -52.361247 
L 199.729262 -52.611634 
L 200.163745 -52.867851 
L 200.598227 -53.129997 
L 201.03271 -53.398175 
L 201.467193 -53.672485 
L 201.901676 -53.953031 
L 202.336158 -54.239914 
L 202.770641 -54.533239 
L 203.205124 -54.83311 
L 203.639607 -55.13963 
L 204.074089 -55.452905 
L 204.508572 -55.77304 
L 204.943055 -56.10014 
L 205.377538 -56.434312 
L 205.81202 -56.775661 
L 206.246503 -57.124294 
L 206.680986 -57.480319 
L 207.115469 -57.84384 
L 207.549952 -58.214966 
L 207.984434 -58.593803 
L 208.418917 -58.980458 
L 208.8534 -59.375038 
L 209.287883 -59.77765 
L 209.722365 -60.1884 
L 210.156848 -60.607395 
L 210.591331 -61.034741 
L 211.025814 -61.470543 
L 211.460296 -61.914907 
L 211.894779 -62.367939 
L 212.329262 -62.829741 
L 212.763745 -63.30042 
L 213.198227 -63.780077 
L 213.63271 -64.268815 
L 214.067193 -64.766737 
L 214.501676 -65.273943 
L 214.936158 -65.790533 
L 215.370641 -66.316607 
L 215.805124 -66.852263 
L 216.239607 -67.397597 
L 216.674089 -67.952707 
L 217.108572 -68.517686 
L 217.543055 -69.092628 
L 217.977538 -69.677625 
L 218.41202 -70.272768 
L 218.846503 -70.878145 
L 219.280986 -71.493844 
L 219.715469 -72.119951 
L 220.149952 -72.756549 
L 220.584434 -73.403721 
L 221.018917 -74.061548 
L 221.4534 -74.730106 
L 221.887883 -75.409472 
L 222.322365 -76.099721 
L 222.756848 -76.800924 
L 223.191331 -77.51315 
L 223.625814 -78.236466 
L 224.060296 -78.970937 
L 224.494779 -79.716625 
L 224.929262 -80.473588 
L 225.363745 -81.241884 
L 225.798227 -82.021566 
L 226.23271 -82.812684 
L 226.667193 -83.615287 
L 227.101676 -84.429419 
L 227.536158 -85.255122 
L 227.970641 -86.092434 
L 228.405124 -86.94139 
L 228.839607 -87.802021 
L 229.274089 -88.674356 
L 229.708572 -89.558419 
L 230.143055 -90.45423 
L 230.577538 -91.361807 
L 231.01202 -92.281164 
L 231.446503 -93.212309 
L 231.880986 -94.155247 
L 232.315469 -95.109981 
L 232.749952 -96.076507 
L 233.184434 -97.054818 
L 233.618917 -98.044904 
L 234.0534 -99.046747 
L 234.487883 -100.060329 
L 234.922365 -101.085625 
L 235.356848 -102.122605 
L 235.791331 -103.171235 
L 236.225814 -104.231478 
L 236.660296 -105.303289 
L 237.094779 -106.386621 
L 237.529262 -107.481421 
L 237.963745 -108.58763 
L 238.398227 -109.705186 
L 238.83271 -110.83402 
L 239.267193 -111.97406 
L 239.701676 -113.125226 
L 240.136158 -114.287435 
L 240.570641 -115.460598 
L 241.005124 -116.644621 
L 241.439607 -117.839404 
L 241.874089 -119.044842 
L 242.308572 -120.260825 
L 242.743055 -121.487236 
L 243.177538 -122.723954 
L 243.61202 -123.970852 
L 244.046503 -125.227797 
L 244.480986 -126.49465 
L 244.915469 -127.771268 
L 245.349952 -129.057501 
L 245.784434 -130.353194 
L 246.218917 -131.658186 
L 246.6534 -132.97231 
L 247.087883 -134.295394 
L 247.522365 -135.62726 
L 247.956848 -136.967723 
L 248.391331 -138.316595 
L 248.825814 -139.67368 
L 249.260296 -141.038778 
L 249.694779 -142.411681 
L 250.129262 -143.792178 
L 250.563745 -145.18005 
L 250.998227 -146.575075 
L 251.43271 -147.977024 
L 251.867193 -149.38566 
L 252.301676 -150.800745 
L 252.736158 -152.222033 
L 253.170641 -153.649273 
L 253.605124 -155.082208 
L 254.039607 -156.520577 
L 254.474089 -157.964112 
L 254.908572 -159.412541 
L 255.343055 -160.865586 
L 255.777538 -162.322966 
L 256.21202 -163.784391 
L 256.646503 -165.24957 
L 257.080986 -166.718205 
L 257.515469 -168.189994 
L 257.949952 -169.664629 
L 258.384434 -171.141799 
L 258.818917 -172.621187 
L 259.2534 -174.102473 
L 259.687883 -175.585332 
L 260.122365 -177.069434 
L 260.556848 -178.554446 
L 260.991331 -180.04003 
L 261.425814 -181.525845 
L 261.860296 -183.011544 
L 262.294779 -184.496781 
L 262.729262 -185.981201 
L 262.729262 -43.327969 
L 262.729262 -43.327969 
L 262.294779 -43.327969 
L 261.860296 -43.327969 
L 261.425814 -43.327969 
L 260.991331 -43.327969 
L 260.556848 -43.327969 
L 260.122365 -43.327969 
L 259.687883 -43.327969 
L 259.2534 -43.327969 
L 258.818917 -43.327969 
L 258.384434 -43.327969 
L 257.949952 -43.327969 
L 257.515469 -43.327969 
L 257.080986 -43.327969 
L 256.646503 -43.327969 
L 256.21202 -43.327969 
L 255.777538 -43.327969 
L 255.343055 -43.327969 
L 254.908572 -43.327969 
L 254.474089 -43.327969 
L 254.039607 -43.327969 
L 253.605124 -43.327969 
L 253.170641 -43.327969 
L 252.736158 -43.327969 
L 252.301676 -43.327969 
L 251.867193 -43.327969 
L 251.43271 -43.327969 
L 250.998227 -43.327969 
L 250.563745 -43.327969 
L 250.129262 -43.327969 
L 249.694779 -43.327969 
L 249.260296 -43.327969 
L 248.825814 -43.327969 
L 248.391331 -43.327969 
L 247.956848 -43.327969 
L 247.522365 -43.327969 
L 247.087883 -43.327969 
L 246.6534 -43.327969 
L 246.218917 -43.327969 
L 245.784434 -43.327969 
L 245.349952 -43.327969 
L 244.915469 -43.327969 
L 244.480986 -43.327969 
L 244.046503 -43.327969 
L 243.61202 -43.327969 
L 243.177538 -43.327969 
L 242.743055 -43.327969 
L 242.308572 -43.327969 
L 241.874089 -43.327969 
L 241.439607 -43.327969 
L 241.005124 -43.327969 
L 240.570641 -43.327969 
L 240.136158 -43.327969 
L 239.701676 -43.327969 
L 239.267193 -43.327969 
L 238.83271 -43.327969 
L 238.398227 -43.327969 
L 237.963745 -43.327969 
L 237.529262 -43.327969 
L 237.094779 -43.327969 
L 236.660296 -43.327969 
L 236.225814 -43.327969 
L 235.791331 -43.327969 
L 235.356848 -43.327969 
L 234.922365 -43.327969 
L 234.487883 -43.327969 
L 234.0534 -43.327969 
L 233.618917 -43.327969 
L 233.184434 -43.327969 
L 232.749952 -43.327969 
L 232.315469 -43.327969 
L 231.880986 -43.327969 
L 231.446503 -43.327969 
L 231.01202 -43.327969 
L 230.577538 -43.327969 
L 230.143055 -43.327969 
L 229.708572 -43.327969 
L 229.274089 -43.327969 
L 228.839607 -43.327969 
L 228.405124 -43.327969 
L 227.970641 -43.327969 
L 227.536158 -43.327969 
L 227.101676 -43.327969 
L 226.667193 -43.327969 
L 226.23271 -43.327969 
L 225.798227 -43.327969 
L 225.363745 -43.327969 
L 224.929262 -43.327969 
L 224.494779 -43.327969 
L 224.060296 -43.327969 
L 223.625814 -43.327969 
L 223.191331 -43.327969 
L 222.756848 -43.327969 
L 222.322365 -43.327969 
L 221.887883 -43.327969 
L 221.4534 -43.327969 
L 221.018917 -43.327969 
L 220.584434 -43.327969 
L 220.149952 -43.327969 
L 219.715469 -43.327969 
L 219.280986 -43.327969 
L 218.846503 -43.327969 
L 218.41202 -43.327969 
L 217.977538 -43.327969 
L 217.543055 -43.327969 
L 217.108572 -43.327969 
L 216.674089 -43.327969 
L 216.239607 -43.327969 
L 215.805124 -43.327969 
L 215.370641 -43.327969 
L 214.936158 -43.327969 
L 214.501676 -43.327969 
L 214.067193 -43.327969 
L 213.63271 -43.327969 
L 213.198227 -43.327969 
L 212.763745 -43.327969 
L 212.329262 -43.327969 
L 211.894779 -43.327969 
L 211.460296 -43.327969 
L 211.025814 -43.327969 
L 210.591331 -43.327969 
L 210.156848 -43.327969 
L 209.722365 -43.327969 
L 209.287883 -43.327969 
L 208.8534 -43.327969 
L 208.418917 -43.327969 
L 207.984434 -43.327969 
L 207.549952 -43.327969 
L 207.115469 -43.327969 
L 206.680986 -43.327969 
L 206.246503 -43.327969 
L 205.81202 -43.327969 
L 205.377538 -43.327969 
L 204.943055 -43.327969 
L 204.508572 -43.327969 
L 204.074089 -43.327969 
L 203.639607 -43.327969 
L 203.205124 -43.327969 
L 202.770641 -43.327969 
L 202.336158 -43.327969 
L 201.901676 -43.327969 
L 201.467193 -43.327969 
L 201.03271 -43.327969 
L 200.598227 -43.327969 
L 200.163745 -43.327969 
L 199.729262 -43.327969 
L 199.294779 -43.327969 
L 198.860296 -43.327969 
L 198.425814 -43.327969 
L 197.991331 -43.327969 
L 197.556848 -43.327969 
L 197.122365 -43.327969 
L 196.687883 -43.327969 
L 196.2534 -43.327969 
L 195.818917 -43.327969 
L 195.384434 -43.327969 
L 194.949952 -43.327969 
L 194.515469 -43.327969 
L 194.080986 -43.327969 
L 193.646503 -43.327969 
L 193.21202 -43.327969 
L 192.777538 -43.327969 
L 192.343055 -43.327969 
L 191.908572 -43.327969 
L 191.474089 -43.327969 
L 191.039607 -43.327969 
L 190.605124 -43.327969 
L 190.170641 -43.327969 
L 189.736158 -43.327969 
L 189.301676 -43.327969 
L 188.867193 -43.327969 
L 188.43271 -43.327969 
L 187.998227 -43.327969 
L 187.563745 -43.327969 
L 187.129262 -43.327969 
L 186.694779 -43.327969 
L 186.260296 -43.327969 
L 185.825814 -43.327969 
L 185.391331 -43.327969 
L 184.956848 -43.327969 
L 184.522365 -43.327969 
L 184.087883 -43.327969 
L 183.6534 -43.327969 
L 183.218917 -43.327969 
L 182.784434 -43.327969 
L 182.349952 -43.327969 
L 181.915469 -43.327969 
L 181.480986 -43.327969 
L 181.046503 -43.327969 
L 180.61202 -43.327969 
L 180.177538 -43.327969 
L 179.743055 -43.327969 
L 179.308572 -43.327969 
L 178.874089 -43.327969 
L 178.439607 -43.327969 
L 178.005124 -43.327969 
L 177.570641 -43.327969 
L 177.136158 -43.327969 
L 176.701676 -43.327969 
L 176.267193 -43.327969 
L 175.83271 -43.327969 
L 175.398227 -43.327969 
L 174.963745 -43.327969 
L 174.529262 -43.327969 
L 174.094779 -43.327969 
L 173.660296 -43.327969 
L 173.225814 -43.327969 
L 172.791331 -43.327969 
L 172.356848 -43.327969 
L 171.922365 -43.327969 
L 171.487883 -43.327969 
L 171.0534 -43.327969 
L 170.618917 -43.327969 
L 170.184434 -43.327969 
L 169.749952 -43.327969 
L 169.315469 -43.327969 
L 168.880986 -43.327969 
L 168.446503 -43.327969 
L 168.01202 -43.327969 
L 167.577538 -43.327969 
L 167.143055 -43.327969 
L 166.708572 -43.327969 
L 166.274089 -43.327969 
L 165.839607 -43.327969 
L 165.405124 -43.327969 
L 164.970641 -43.327969 
L 164.536158 -43.327969 
L 164.101676 -43.327969 
L 163.667193 -43.327969 
L 163.23271 -43.327969 
L 162.798227 -43.327969 
L 162.363745 -43.327969 
L 161.929262 -43.327969 
L 161.494779 -43.327969 
L 161.060296 -43.327969 
L 160.625814 -43.327969 
L 160.191331 -43.327969 
L 159.756848 -43.327969 
L 159.322365 -43.327969 
L 158.887883 -43.327969 
L 158.4534 -43.327969 
L 158.018917 -43.327969 
L 157.584434 -43.327969 
L 157.149952 -43.327969 
L 156.715469 -43.327969 
L 156.280986 -43.327969 
L 155.846503 -43.327969 
L 155.41202 -43.327969 
L 154.977538 -43.327969 
L 154.543055 -43.327969 
L 154.108572 -43.327969 
L 153.674089 -43.327969 
L 153.239607 -43.327969 
L 152.805124 -43.327969 
L 152.370641 -43.327969 
L 151.936158 -43.327969 
L 151.501676 -43.327969 
L 151.067193 -43.327969 
L 150.63271 -43.327969 
L 150.198227 -43.327969 
L 149.763745 -43.327969 
L 149.329262 -43.327969 
L 148.894779 -43.327969 
L 148.460296 -43.327969 
L 148.025814 -43.327969 
L 147.591331 -43.327969 
L 147.156848 -43.327969 
L 146.722365 -43.327969 
L 146.287883 -43.327969 
L 145.8534 -43.327969 
L 145.418917 -43.327969 
L 144.984434 -43.327969 
L 144.549952 -43.327969 
L 144.115469 -43.327969 
L 143.680986 -43.327969 
L 143.246503 -43.327969 
L 142.81202 -43.327969 
L 142.377538 -43.327969 
L 141.943055 -43.327969 
L 141.508572 -43.327969 
L 141.074089 -43.327969 
L 140.639607 -43.327969 
L 140.205124 -43.327969 
L 139.770641 -43.327969 
L 139.336158 -43.327969 
L 138.901676 -43.327969 
L 138.467193 -43.327969 
L 138.03271 -43.327969 
L 137.598227 -43.327969 
L 137.163745 -43.327969 
L 136.729262 -43.327969 
L 136.294779 -43.327969 
L 135.860296 -43.327969 
L 135.425814 -43.327969 
L 134.991331 -43.327969 
L 134.556848 -43.327969 
L 134.122365 -43.327969 
L 133.687883 -43.327969 
L 133.2534 -43.327969 
L 132.818917 -43.327969 
L 132.384434 -43.327969 
L 131.949952 -43.327969 
L 131.515469 -43.327969 
L 131.080986 -43.327969 
L 130.646503 -43.327969 
L 130.21202 -43.327969 
L 129.777538 -43.327969 
L 129.343055 -43.327969 
L 128.908572 -43.327969 
L 128.474089 -43.327969 
L 128.039607 -43.327969 
L 127.605124 -43.327969 
L 127.170641 -43.327969 
L 126.736158 -43.327969 
L 126.301676 -43.327969 
L 125.867193 -43.327969 
L 125.43271 -43.327969 
L 124.998227 -43.327969 
L 124.563745 -43.327969 
L 124.129262 -43.327969 
L 123.694779 -43.327969 
L 123.260296 -43.327969 
L 122.825814 -43.327969 
L 122.391331 -43.327969 
L 121.956848 -43.327969 
L 121.522365 -43.327969 
L 121.087883 -43.327969 
L 120.6534 -43.327969 
L 120.218917 -43.327969 
L 119.784434 -43.327969 
L 119.349952 -43.327969 
L 118.915469 -43.327969 
L 118.480986 -43.327969 
L 118.046503 -43.327969 
L 117.61202 -43.327969 
L 117.177538 -43.327969 
L 116.743055 -43.327969 
L 116.308572 -43.327969 
L 115.874089 -43.327969 
L 115.439607 -43.327969 
L 115.005124 -43.327969 
L 114.570641 -43.327969 
L 114.136158 -43.327969 
L 113.701676 -43.327969 
L 113.267193 -43.327969 
L 112.83271 -43.327969 
L 112.398227 -43.327969 
L 111.963745 -43.327969 
L 111.529262 -43.327969 
L 111.094779 -43.327969 
L 110.660296 -43.327969 
L 110.225814 -43.327969 
L 109.791331 -43.327969 
L 109.356848 -43.327969 
L 108.922365 -43.327969 
L 108.487883 -43.327969 
L 108.0534 -43.327969 
L 107.618917 -43.327969 
L 107.184434 -43.327969 
L 106.749952 -43.327969 
L 106.315469 -43.327969 
L 105.880986 -43.327969 
L 105.446503 -43.327969 
L 105.01202 -43.327969 
L 104.577538 -43.327969 
L 104.143055 -43.327969 
L 103.708572 -43.327969 
L 103.274089 -43.327969 
L 102.839607 -43.327969 
L 102.405124 -43.327969 
L 101.970641 -43.327969 
L 101.536158 -43.327969 
L 101.101676 -43.327969 
L 100.667193 -43.327969 
L 100.23271 -43.327969 
L 99.798227 -43.327969 
L 99.363745 -43.327969 
L 98.929262 -43.327969 
L 98.494779 -43.327969 
L 98.060296 -43.327969 
L 97.625814 -43.327969 
L 97.191331 -43.327969 
L 96.756848 -43.327969 
L 96.322365 -43.327969 
L 95.887883 -43.327969 
L 95.4534 -43.327969 
L 95.018917 -43.327969 
L 94.584434 -43.327969 
L 94.149952 -43.327969 
L 93.715469 -43.327969 
L 93.280986 -43.327969 
L 92.846503 -43.327969 
L 92.41202 -43.327969 
L 91.977538 -43.327969 
L 91.543055 -43.327969 
L 91.108572 -43.327969 
L 90.674089 -43.327969 
L 90.239607 -43.327969 
L 89.805124 -43.327969 
L 89.370641 -43.327969 
L 88.936158 -43.327969 
L 88.501676 -43.327969 
L 88.067193 -43.327969 
L 87.63271 -43.327969 
L 87.198227 -43.327969 
L 86.763745 -43.327969 
L 86.329262 -43.327969 
L 85.894779 -43.327969 
L 85.460296 -43.327969 
L 85.025814 -43.327969 
L 84.591331 -43.327969 
L 84.156848 -43.327969 
L 83.722365 -43.327969 
L 83.287883 -43.327969 
L 82.8534 -43.327969 
L 82.418917 -43.327969 
L 81.984434 -43.327969 
L 81.549952 -43.327969 
L 81.115469 -43.327969 
L 80.680986 -43.327969 
L 80.246503 -43.327969 
L 79.81202 -43.327969 
L 79.377538 -43.327969 
L 78.943055 -43.327969 
L 78.508572 -43.327969 
L 78.074089 -43.327969 
L 77.639607 -43.327969 
L 77.205124 -43.327969 
L 76.770641 -43.327969 
L 76.336158 -43.327969 
L 75.901676 -43.327969 
L 75.467193 -43.327969 
L 75.03271 -43.327969 
L 74.598227 -43.327969 
L 74.163745 -43.327969 
L 73.729262 -43.327969 
L 73.294779 -43.327969 
L 72.860296 -43.327969 
L 72.425814 -43.327969 
L 71.991331 -43.327969 
L 71.556848 -43.327969 
L 71.122365 -43.327969 
L 70.687883 -43.327969 
L 70.2534 -43.327969 
L 69.818917 -43.327969 
L 69.384434 -43.327969 
L 68.949952 -43.327969 
L 68.515469 -43.327969 
L 68.080986 -43.327969 
L 67.646503 -43.327969 
L 67.21202 -43.327969 
L 66.777538 -43.327969 
L 66.343055 -43.327969 
L 65.908572 -43.327969 
L 65.474089 -43.327969 
L 65.039607 -43.327969 
L 64.605124 -43.327969 
L 64.170641 -43.327969 
L 63.736158 -43.327969 
L 63.301676 -43.327969 
L 62.867193 -43.327969 
L 62.43271 -43.327969 
L 61.998227 -43.327969 
L 61.563745 -43.327969 
L 61.129262 -43.327969 
L 60.694779 -43.327969 
L 60.260296 -43.327969 
L 59.825814 -43.327969 
L 59.391331 -43.327969 
L 58.956848 -43.327969 
L 58.522365 -43.327969 
L 58.087883 -43.327969 
L 57.6534 -43.327969 
L 57.218917 -43.327969 
L 56.784434 -43.327969 
L 56.349952 -43.327969 
L 55.915469 -43.327969 
z
" style="stroke: #e67e22; stroke-opacity: 0.4"/>
    </defs>
    <g clip-path="url(#pb42b3e79dc)">
     <use xlink:href="#m7baadd24dd" x="0" y="313.249969" style="fill: #e67e22; fill-opacity: 0.4; stroke: #e67e22; stroke-opacity: 0.4"/>
    </g>
   </g>
   <g id="line2d_29">
    <path d="M 55.915469 269.425348 
L 63.301676 268.993976 
L 68.949952 268.458735 
L 73.729262 267.803698 
L 78.074089 266.992875 
L 81.984434 266.039691 
L 85.460296 264.97423 
L 88.936158 263.663172 
L 91.977538 262.280797 
L 95.018917 260.646165 
L 98.060296 258.725899 
L 100.667193 256.826099 
L 103.274089 254.667999 
L 105.880986 252.228571 
L 108.487883 249.484862 
L 111.094779 246.414417 
L 113.701676 242.99576 
L 116.308572 239.208927 
L 118.915469 235.03604 
L 121.522365 230.461924 
L 124.129262 225.47474 
L 127.170641 219.124061 
L 130.21202 212.196229 
L 133.2534 204.696721 
L 136.294779 196.642129 
L 139.770641 186.794647 
L 143.680986 174.975216 
L 148.025814 161.071983 
L 153.674089 142.15389 
L 165.405124 102.558286 
L 169.315469 90.221134 
L 172.791331 80.002809 
L 175.83271 71.800874 
L 178.439607 65.419913 
L 180.61202 60.616903 
L 182.784434 56.323667 
L 184.956848 52.57587 
L 186.694779 49.991698 
L 188.43271 47.790951 
L 190.170641 45.985699 
L 191.474089 44.897376 
L 192.777538 44.04056 
L 194.080986 43.417931 
L 195.384434 43.03144 
L 196.687883 42.882299 
L 197.991331 42.970978 
L 199.294779 43.297198 
L 200.598227 43.859934 
L 201.901676 44.657423 
L 203.205124 45.687168 
L 204.508572 46.945956 
L 206.246503 48.973765 
L 207.984434 51.390571 
L 209.722365 54.183174 
L 211.894779 58.179169 
L 214.067193 62.705127 
L 216.239607 67.723695 
L 218.846503 74.33864 
L 221.887883 82.777011 
L 224.929262 91.869917 
L 228.839607 104.308684 
L 234.0534 121.742224 
L 246.6534 164.242524 
L 250.998227 177.980555 
L 254.908572 189.614328 
L 258.384434 199.275132 
L 261.860296 208.235101 
L 264.901676 215.471603 
L 267.943055 222.132585 
L 270.984434 228.217306 
L 273.591331 232.980387 
L 276.198227 237.336334 
L 278.805124 241.298866 
L 281.41202 244.884694 
L 284.018917 248.112895 
L 286.625814 251.004317 
L 289.23271 253.581029 
L 291.839607 255.86581 
L 294.446503 257.881703 
L 297.0534 259.651617 
L 300.094779 261.435529 
L 303.136158 262.949473 
L 306.177538 264.225924 
L 309.6534 265.432656 
L 313.129262 266.410003 
L 317.039607 267.28124 
L 321.384434 268.019423 
L 326.598227 268.657834 
L 332.680986 269.1538 
L 340.067193 269.515121 
L 350.060296 269.758776 
L 365.701676 269.88747 
L 406.977538 269.921722 
L 446.515469 269.921999 
L 446.515469 269.921999 
" clip-path="url(#pb42b3e79dc)" style="fill: none; stroke: #2980b9; stroke-width: 2.6; stroke-linecap: square"/>
   </g>
   <g id="line2d_30">
    <path d="M 55.915469 269.921998 
L 144.115469 269.813136 
L 156.715469 269.569695 
L 164.970641 269.200854 
L 171.487883 268.689635 
L 176.701676 268.065387 
L 181.046503 267.34284 
L 184.956848 266.489294 
L 188.43271 265.531021 
L 191.908572 264.346929 
L 194.949952 263.093524 
L 197.991331 261.605898 
L 201.03271 259.851794 
L 203.639607 258.110339 
L 206.246503 256.125674 
L 208.8534 253.874931 
L 211.460296 251.335062 
L 214.067193 248.483232 
L 216.674089 245.297262 
L 219.280986 241.756125 
L 221.887883 237.840496 
L 224.494779 233.533344 
L 227.101676 228.820549 
L 229.708572 223.69155 
L 232.749952 217.173462 
L 235.791331 210.078733 
L 238.83271 202.415948 
L 242.308572 192.989144 
L 245.784434 182.896774 
L 249.694779 170.838288 
L 254.474089 155.285857 
L 260.991331 133.209939 
L 269.246503 105.349511 
L 273.591331 91.511272 
L 277.067193 81.196052 
L 280.108572 72.890108 
L 282.715469 66.406513 
L 284.887883 61.509144 
L 287.060296 57.114199 
L 289.23271 53.258089 
L 290.970641 50.583069 
L 292.708572 48.288245 
L 294.446503 46.386181 
L 296.184434 44.887357 
L 297.487883 44.032943 
L 298.791331 43.412739 
L 300.094779 43.02869 
L 301.398227 42.882 
L 302.701676 42.97313 
L 304.005124 43.301795 
L 305.308572 43.866962 
L 306.61202 44.666859 
L 307.915469 45.698983 
L 309.218917 46.960113 
L 310.956848 48.990975 
L 312.694779 51.41074 
L 314.43271 54.206192 
L 316.605124 58.205572 
L 318.777538 62.734696 
L 320.949952 67.756187 
L 323.556848 74.374294 
L 326.598227 82.815842 
L 329.639607 91.911349 
L 333.549952 104.352586 
L 338.763745 121.787906 
L 351.363745 164.286134 
L 355.708572 178.021805 
L 359.618917 189.65296 
L 363.094779 199.311151 
L 366.570641 208.268327 
L 369.61202 215.502303 
L 372.6534 222.160733 
L 375.694779 228.242921 
L 378.301676 233.003874 
L 380.908572 237.357755 
L 383.515469 241.3183 
L 386.122365 244.902234 
L 388.729262 248.128644 
L 391.336158 251.018387 
L 393.943055 253.593535 
L 396.549952 255.876871 
L 399.156848 257.891438 
L 401.763745 259.660143 
L 404.805124 261.442787 
L 407.846503 262.955612 
L 410.887883 264.231082 
L 414.363745 265.436851 
L 417.839607 266.413386 
L 421.749952 267.283869 
L 426.094779 268.021386 
L 431.308572 268.659193 
L 437.391331 269.154664 
L 444.777538 269.515603 
L 446.515469 269.573761 
L 446.515469 269.573761 
" clip-path="url(#pb42b3e79dc)" style="fill: none; stroke: #27ae60; stroke-width: 2.6; stroke-linecap: square"/>
   </g>
   <g id="line2d_31">
    <path d="M 263.094541 269.922 
L 263.094541 31.53 
" clip-path="url(#pb42b3e79dc)" style="fill: none; stroke-dasharray: 7.4,3.2; stroke-dashoffset: 0; stroke: #34495e; stroke-opacity: 0.9; stroke-width: 2"/>
   </g>
   <g id="patch_3">
    <path d="M 55.915469 269.922 
L 55.915469 31.53 
" style="fill: none; stroke: #2c3e50; stroke-width: 1.2; stroke-linejoin: miter; stroke-linecap: square"/>
   </g>
   <g id="patch_4">
    <path d="M 55.915469 269.922 
L 446.515469 269.922 
" style="fill: none; stroke: #2c3e50; stroke-width: 1.2; stroke-linejoin: miter; stroke-linecap: square"/>
   </g>
   <g id="text_17">
    <!-- valor -->
    <g style="fill: #34495e" transform="translate(235.433951 190.536713) scale(0.09 -0.09)">
     <defs>
      <path id="DejaVuSans-Bold-76" d="M 97 3500 
L 1216 3500 
L 2088 1081 
L 2956 3500 
L 4078 3500 
L 2700 0 
L 1472 0 
L 97 3500 
z
" transform="scale(0.015625)"/>
      <path id="DejaVuSans-Bold-6c" d="M 538 4863 
L 1656 4863 
L 1656 0 
L 538 0 
L 538 4863 
z
" transform="scale(0.015625)"/>
      <path id="DejaVuSans-Bold-72" d="M 3138 2547 
Q 2991 2616 2845 2648 
Q 2700 2681 2553 2681 
Q 2122 2681 1889 2404 
Q 1656 2128 1656 1613 
L 1656 0 
L 538 0 
L 538 3500 
L 1656 3500 
L 1656 2925 
Q 1872 3269 2151 3426 
Q 2431 3584 2822 3584 
Q 2878 3584 2943 3579 
Q 3009 3575 3134 3559 
L 3138 2547 
z
" transform="scale(0.015625)"/>
     </defs>
     <use xlink:href="#DejaVuSans-Bold-76"/>
     <use xlink:href="#DejaVuSans-Bold-61" x="65.185547"/>
     <use xlink:href="#DejaVuSans-Bold-6c" x="132.666016"/>
     <use xlink:href="#DejaVuSans-Bold-6f" x="166.943359"/>
     <use xlink:href="#DejaVuSans-Bold-72" x="235.644531"/>
    </g>
    <!-- crítico -->
    <g style="fill: #34495e" transform="translate(229.316764 200.614744) scale(0.09 -0.09)">
     <use xlink:href="#DejaVuSans-Bold-63"/>
     <use xlink:href="#DejaVuSans-Bold-72" x="59.277344"/>
     <use xlink:href="#DejaVuSans-Bold-ed" x="108.59375"/>
     <use xlink:href="#DejaVuSans-Bold-74" x="142.871094"/>
     <use xlink:href="#DejaVuSans-Bold-69" x="190.673828"/>
     <use xlink:href="#DejaVuSans-Bold-63" x="224.951172"/>
     <use xlink:href="#DejaVuSans-Bold-6f" x="284.228516"/>
    </g>
   </g>
   <g id="text_18">
    <!-- Errores tipo I ($\alpha$) y tipo II ($\beta$) -->
    <g transform="translate(147.800469 21.53) scale(0.13 -0.13)">
     <defs>
      <path id="DejaVuSans-Bold-45" d="M 588 4666 
L 3834 4666 
L 3834 3756 
L 1791 3756 
L 1791 2888 
L 3713 2888 
L 3713 1978 
L 1791 1978 
L 1791 909 
L 3903 909 
L 3903 0 
L 588 0 
L 588 4666 
z
" transform="scale(0.015625)"/>
      <path id="DejaVuSans-Bold-20" transform="scale(0.015625)"/>
      <path id="DejaVuSans-Bold-70" d="M 1656 506 
L 1656 -1331 
L 538 -1331 
L 538 3500 
L 1656 3500 
L 1656 2988 
Q 1888 3294 2169 3439 
Q 2450 3584 2816 3584 
Q 3463 3584 3878 3070 
Q 4294 2556 4294 1747 
Q 4294 938 3878 423 
Q 3463 -91 2816 -91 
Q 2450 -91 2169 54 
Q 1888 200 1656 506 
z
M 2400 2772 
Q 2041 2772 1848 2508 
Q 1656 2244 1656 1747 
Q 1656 1250 1848 986 
Q 2041 722 2400 722 
Q 2759 722 2948 984 
Q 3138 1247 3138 1747 
Q 3138 2247 2948 2509 
Q 2759 2772 2400 2772 
z
" transform="scale(0.015625)"/>
      <path id="DejaVuSans-Bold-49" d="M 588 4666 
L 1791 4666 
L 1791 0 
L 588 0 
L 588 4666 
z
" transform="scale(0.015625)"/>
      <path id="DejaVuSans-Bold-28" d="M 2413 -844 
L 1484 -844 
Q 1006 -72 778 623 
Q 550 1319 550 2003 
Q 550 2688 779 3389 
Q 1009 4091 1484 4856 
L 2413 4856 
Q 2013 4116 1813 3408 
Q 1613 2700 1613 2009 
Q 1613 1319 1811 609 
Q 2009 -100 2413 -844 
z
" transform="scale(0.015625)"/>
      <path id="DejaVuSans-Oblique-3b1" d="M 2619 1628 
L 2622 2350 
Q 2625 3088 2069 3091 
Q 1653 3094 1394 2747 
Q 1069 2319 959 1747 
Q 825 1059 994 731 
Q 1169 397 1547 397 
Q 1966 397 2319 1063 
L 2619 1628 
z
M 2166 3578 
Q 3141 3594 3128 2584 
Q 3128 2584 3616 3500 
L 4128 3500 
L 3119 1603 
L 3109 919 
Q 3109 766 3194 638 
Q 3291 488 3391 488 
L 3669 488 
L 3575 0 
L 3228 0 
Q 2934 0 2722 263 
Q 2622 394 2619 669 
Q 2416 334 2066 50 
Q 1900 -81 1453 -78 
Q 722 -72 456 397 
Q 184 884 353 1747 
Q 534 2675 1009 3097 
Q 1544 3569 2166 3578 
z
" transform="scale(0.015625)"/>
      <path id="DejaVuSans-Bold-29" d="M 513 -844 
Q 913 -100 1113 609 
Q 1313 1319 1313 2009 
Q 1313 2700 1113 3408 
Q 913 4116 513 4856 
L 1441 4856 
Q 1916 4091 2145 3389 
Q 2375 2688 2375 2003 
Q 2375 1319 2147 623 
Q 1919 -72 1441 -844 
L 513 -844 
z
" transform="scale(0.015625)"/>
      <path id="DejaVuSans-Bold-79" d="M 78 3500 
L 1197 3500 
L 2138 1125 
L 2938 3500 
L 4056 3500 
L 2584 -331 
Q 2363 -916 2067 -1148 
Q 1772 -1381 1288 -1381 
L 641 -1381 
L 641 -647 
L 991 -647 
Q 1275 -647 1404 -556 
Q 1534 -466 1606 -231 
L 1638 -134 
L 78 3500 
z
" transform="scale(0.015625)"/>
      <path id="DejaVuSans-Oblique-3b2" d="M 872 216 
L 572 -1331 
L -6 -1331 
L 928 3478 
Q 1206 4903 2538 4903 
Q 3888 4903 3659 3700 
Q 3503 2844 2894 2531 
Q 3713 2250 3553 1416 
Q 3272 -69 1759 -66 
Q 1097 -63 872 216 
z
M 1019 966 
Q 1259 422 1875 425 
Q 2775 425 2966 1406 
Q 3138 2288 1675 2219 
L 1778 2750 
Q 2909 2731 3106 3750 
Q 3241 4438 2509 4434 
Q 1691 4434 1503 3459 
L 1019 966 
z
" transform="scale(0.015625)"/>
     </defs>
     <use xlink:href="#DejaVuSans-Bold-45" transform="translate(0 0.390625)"/>
     <use xlink:href="#DejaVuSans-Bold-72" transform="translate(68.310547 0.390625)"/>
     <use xlink:href="#DejaVuSans-Bold-72" transform="translate(117.626953 0.390625)"/>
     <use xlink:href="#DejaVuSans-Bold-6f" transform="translate(166.943359 0.390625)"/>
     <use xlink:href="#DejaVuSans-Bold-72" transform="translate(235.644531 0.390625)"/>
     <use xlink:href="#DejaVuSans-Bold-65" transform="translate(284.960938 0.390625)"/>
     <use xlink:href="#DejaVuSans-Bold-73" transform="translate(352.783203 0.390625)"/>
     <use xlink:href="#DejaVuSans-Bold-20" transform="translate(412.304688 0.390625)"/>
     <use xlink:href="#DejaVuSans-Bold-74" transform="translate(447.119141 0.390625)"/>
     <use xlink:href="#DejaVuSans-Bold-69" transform="translate(494.921875 0.390625)"/>
     <use xlink:href="#DejaVuSans-Bold-70" transform="translate(529.199219 0.390625)"/>
     <use xlink:href="#DejaVuSans-Bold-6f" transform="translate(600.78125 0.390625)"/>
     <use xlink:href="#DejaVuSans-Bold-20" transform="translate(669.482422 0.390625)"/>
     <use xlink:href="#DejaVuSans-Bold-49" transform="translate(704.296875 0.390625)"/>
     <use xlink:href="#DejaVuSans-Bold-20" transform="translate(741.503906 0.390625)"/>
     <use xlink:href="#DejaVuSans-Bold-28" transform="translate(776.318359 0.390625)"/>
     <use xlink:href="#DejaVuSans-Oblique-3b1" transform="translate(822.021484 0.390625)"/>
     <use xlink:href="#DejaVuSans-Bold-29" transform="translate(887.939453 0.390625)"/>
     <use xlink:href="#DejaVuSans-Bold-20" transform="translate(933.642578 0.390625)"/>
     <use xlink:href="#DejaVuSans-Bold-79" transform="translate(968.457031 0.390625)"/>
     <use xlink:href="#DejaVuSans-Bold-20" transform="translate(1033.642578 0.390625)"/>
     <use xlink:href="#DejaVuSans-Bold-74" transform="translate(1068.457031 0.390625)"/>
     <use xlink:href="#DejaVuSans-Bold-69" transform="translate(1116.259766 0.390625)"/>
     <use xlink:href="#DejaVuSans-Bold-70" transform="translate(1150.537109 0.390625)"/>
     <use xlink:href="#DejaVuSans-Bold-6f" transform="translate(1222.119141 0.390625)"/>
     <use xlink:href="#DejaVuSans-Bold-20" transform="translate(1290.820312 0.390625)"/>
     <use xlink:href="#DejaVuSans-Bold-49" transform="translate(1325.634766 0.390625)"/>
     <use xlink:href="#DejaVuSans-Bold-49" transform="translate(1362.841797 0.390625)"/>
     <use xlink:href="#DejaVuSans-Bold-20" transform="translate(1400.048828 0.390625)"/>
     <use xlink:href="#DejaVuSans-Bold-28" transform="translate(1434.863281 0.390625)"/>
     <use xlink:href="#DejaVuSans-Oblique-3b2" transform="translate(1480.566406 0.390625)"/>
     <use xlink:href="#DejaVuSans-Bold-29" transform="translate(1544.384766 0.390625)"/>
    </g>
   </g>
   <g id="legend_1">
    <g id="patch_5">
     <path d="M 313.515469 95.085 
L 439.865469 95.085 
Q 441.765469 95.085 441.765469 93.185 
L 441.765469 38.18 
Q 441.765469 36.28 439.865469 36.28 
L 313.515469 36.28 
Q 311.615469 36.28 311.615469 38.18 
L 311.615469 93.185 
Q 311.615469 95.085 313.515469 95.085 
z
" style="fill: #ffffff; opacity: 0.92; stroke: #cccccc; stroke-linejoin: miter"/>
    </g>
    <g id="line2d_32">
     <path d="M 315.415469 43.975 
L 324.915469 43.975 
L 334.415469 43.975 
" style="fill: none; stroke: #2980b9; stroke-width: 2.6; stroke-linecap: square"/>
    </g>
    <g id="text_19">
     <!-- $H_0$  (centrada en $\mu_0$) -->
     <g transform="translate(342.015469 47.3) scale(0.095 -0.095)">
      <defs>
       <path id="DejaVuSans-Oblique-48" d="M 1081 4666 
L 1716 4666 
L 1344 2753 
L 3634 2753 
L 4006 4666 
L 4641 4666 
L 3731 0 
L 3097 0 
L 3531 2222 
L 1241 2222 
L 806 0 
L 172 0 
L 1081 4666 
z
" transform="scale(0.015625)"/>
       <path id="DejaVuSans-20" transform="scale(0.015625)"/>
       <path id="DejaVuSans-28" d="M 1984 4856 
Q 1566 4138 1362 3434 
Q 1159 2731 1159 2009 
Q 1159 1288 1364 580 
Q 1569 -128 1984 -844 
L 1484 -844 
Q 1016 -109 783 600 
Q 550 1309 550 2009 
Q 550 2706 781 3412 
Q 1013 4119 1484 4856 
L 1984 4856 
z
" transform="scale(0.015625)"/>
       <path id="DejaVuSans-63" d="M 3122 3366 
L 3122 2828 
Q 2878 2963 2633 3030 
Q 2388 3097 2138 3097 
Q 1578 3097 1268 2742 
Q 959 2388 959 1747 
Q 959 1106 1268 751 
Q 1578 397 2138 397 
Q 2388 397 2633 464 
Q 2878 531 3122 666 
L 3122 134 
Q 2881 22 2623 -34 
Q 2366 -91 2075 -91 
Q 1284 -91 818 406 
Q 353 903 353 1747 
Q 353 2603 823 3093 
Q 1294 3584 2113 3584 
Q 2378 3584 2631 3529 
Q 2884 3475 3122 3366 
z
" transform="scale(0.015625)"/>
       <path id="DejaVuSans-65" d="M 3597 1894 
L 3597 1613 
L 953 1613 
Q 991 1019 1311 708 
Q 1631 397 2203 397 
Q 2534 397 2845 478 
Q 3156 559 3463 722 
L 3463 178 
Q 3153 47 2828 -22 
Q 2503 -91 2169 -91 
Q 1331 -91 842 396 
Q 353 884 353 1716 
Q 353 2575 817 3079 
Q 1281 3584 2069 3584 
Q 2775 3584 3186 3129 
Q 3597 2675 3597 1894 
z
M 3022 2063 
Q 3016 2534 2758 2815 
Q 2500 3097 2075 3097 
Q 1594 3097 1305 2825 
Q 1016 2553 972 2059 
L 3022 2063 
z
" transform="scale(0.015625)"/>
       <path id="DejaVuSans-6e" d="M 3513 2113 
L 3513 0 
L 2938 0 
L 2938 2094 
Q 2938 2591 2744 2837 
Q 2550 3084 2163 3084 
Q 1697 3084 1428 2787 
Q 1159 2491 1159 1978 
L 1159 0 
L 581 0 
L 581 3500 
L 1159 3500 
L 1159 2956 
Q 1366 3272 1645 3428 
Q 1925 3584 2291 3584 
Q 2894 3584 3203 3211 
Q 3513 2838 3513 2113 
z
" transform="scale(0.015625)"/>
       <path id="DejaVuSans-74" d="M 1172 4494 
L 1172 3500 
L 2356 3500 
L 2356 3053 
L 1172 3053 
L 1172 1153 
Q 1172 725 1289 603 
Q 1406 481 1766 481 
L 2356 481 
L 2356 0 
L 1766 0 
Q 1100 0 847 248 
Q 594 497 594 1153 
L 594 3053 
L 172 3053 
L 172 3500 
L 594 3500 
L 594 4494 
L 1172 4494 
z
" transform="scale(0.015625)"/>
       <path id="DejaVuSans-72" d="M 2631 2963 
Q 2534 3019 2420 3045 
Q 2306 3072 2169 3072 
Q 1681 3072 1420 2755 
Q 1159 2438 1159 1844 
L 1159 0 
L 581 0 
L 581 3500 
L 1159 3500 
L 1159 2956 
Q 1341 3275 1631 3429 
Q 1922 3584 2338 3584 
Q 2397 3584 2469 3576 
Q 2541 3569 2628 3553 
L 2631 2963 
z
" transform="scale(0.015625)"/>
       <path id="DejaVuSans-61" d="M 2194 1759 
Q 1497 1759 1228 1600 
Q 959 1441 959 1056 
Q 959 750 1161 570 
Q 1363 391 1709 391 
Q 2188 391 2477 730 
Q 2766 1069 2766 1631 
L 2766 1759 
L 2194 1759 
z
M 3341 1997 
L 3341 0 
L 2766 0 
L 2766 531 
Q 2569 213 2275 61 
Q 1981 -91 1556 -91 
Q 1019 -91 701 211 
Q 384 513 384 1019 
Q 384 1609 779 1909 
Q 1175 2209 1959 2209 
L 2766 2209 
L 2766 2266 
Q 2766 2663 2505 2880 
Q 2244 3097 1772 3097 
Q 1472 3097 1187 3025 
Q 903 2953 641 2809 
L 641 3341 
Q 956 3463 1253 3523 
Q 1550 3584 1831 3584 
Q 2591 3584 2966 3190 
Q 3341 2797 3341 1997 
z
" transform="scale(0.015625)"/>
       <path id="DejaVuSans-64" d="M 2906 2969 
L 2906 4863 
L 3481 4863 
L 3481 0 
L 2906 0 
L 2906 525 
Q 2725 213 2448 61 
Q 2172 -91 1784 -91 
Q 1150 -91 751 415 
Q 353 922 353 1747 
Q 353 2572 751 3078 
Q 1150 3584 1784 3584 
Q 2172 3584 2448 3432 
Q 2725 3281 2906 2969 
z
M 947 1747 
Q 947 1113 1208 752 
Q 1469 391 1925 391 
Q 2381 391 2643 752 
Q 2906 1113 2906 1747 
Q 2906 2381 2643 2742 
Q 2381 3103 1925 3103 
Q 1469 3103 1208 2742 
Q 947 2381 947 1747 
z
" transform="scale(0.015625)"/>
       <path id="DejaVuSans-Oblique-3bc" d="M -84 -1331 
L 856 3500 
L 1434 3500 
L 1009 1322 
Q 997 1256 987 1175 
Q 978 1094 978 1013 
Q 978 722 1161 565 
Q 1344 409 1684 409 
Q 2147 409 2431 671 
Q 2716 934 2816 1459 
L 3213 3500 
L 3788 3500 
L 3266 809 
Q 3253 750 3248 706 
Q 3244 663 3244 628 
Q 3244 531 3283 486 
Q 3322 441 3406 441 
Q 3438 441 3492 456 
Q 3547 472 3647 513 
L 3559 50 
Q 3422 -19 3297 -55 
Q 3172 -91 3053 -91 
Q 2847 -91 2730 40 
Q 2613 172 2613 403 
Q 2438 153 2195 31 
Q 1953 -91 1625 -91 
Q 1334 -91 1117 43 
Q 900 178 831 397 
L 494 -1331 
L -84 -1331 
z
" transform="scale(0.015625)"/>
       <path id="DejaVuSans-29" d="M 513 4856 
L 1013 4856 
Q 1481 4119 1714 3412 
Q 1947 2706 1947 2009 
Q 1947 1309 1714 600 
Q 1481 -109 1013 -844 
L 513 -844 
Q 928 -128 1133 580 
Q 1338 1288 1338 2009 
Q 1338 2731 1133 3434 
Q 928 4138 513 4856 
z
" transform="scale(0.015625)"/>
      </defs>
      <use xlink:href="#DejaVuSans-Oblique-48" transform="translate(0 0.015625)"/>
      <use xlink:href="#DejaVuSans-30" transform="translate(75.195312 -16.390625) scale(0.7)"/>
      <use xlink:href="#DejaVuSans-20" transform="translate(122.46582 0.015625)"/>
      <use xlink:href="#DejaVuSans-20" transform="translate(154.25293 0.015625)"/>
      <use xlink:href="#DejaVuSans-28" transform="translate(186.040039 0.015625)"/>
      <use xlink:href="#DejaVuSans-63" transform="translate(225.053711 0.015625)"/>
      <use xlink:href="#DejaVuSans-65" transform="translate(280.03418 0.015625)"/>
      <use xlink:href="#DejaVuSans-6e" transform="translate(341.557617 0.015625)"/>
      <use xlink:href="#DejaVuSans-74" transform="translate(404.936523 0.015625)"/>
      <use xlink:href="#DejaVuSans-72" transform="translate(444.145508 0.015625)"/>
      <use xlink:href="#DejaVuSans-61" transform="translate(485.258789 0.015625)"/>
      <use xlink:href="#DejaVuSans-64" transform="translate(546.538086 0.015625)"/>
      <use xlink:href="#DejaVuSans-61" transform="translate(610.014648 0.015625)"/>
      <use xlink:href="#DejaVuSans-20" transform="translate(671.293945 0.015625)"/>
      <use xlink:href="#DejaVuSans-65" transform="translate(703.081055 0.015625)"/>
      <use xlink:href="#DejaVuSans-6e" transform="translate(764.604492 0.015625)"/>
      <use xlink:href="#DejaVuSans-20" transform="translate(827.983398 0.015625)"/>
      <use xlink:href="#DejaVuSans-Oblique-3bc" transform="translate(859.770508 0.015625)"/>
      <use xlink:href="#DejaVuSans-30" transform="translate(923.393555 -16.390625) scale(0.7)"/>
      <use xlink:href="#DejaVuSans-29" transform="translate(970.664062 0.015625)"/>
     </g>
    </g>
    <g id="line2d_33">
     <path d="M 315.415469 57.94 
L 324.915469 57.94 
L 334.415469 57.94 
" style="fill: none; stroke: #27ae60; stroke-width: 2.6; stroke-linecap: square"/>
    </g>
    <g id="text_20">
     <!-- $H_1$  (centrada en $\mu_1$) -->
     <g transform="translate(342.015469 61.265) scale(0.095 -0.095)">
      <use xlink:href="#DejaVuSans-Oblique-48" transform="translate(0 0.015625)"/>
      <use xlink:href="#DejaVuSans-31" transform="translate(75.195312 -16.390625) scale(0.7)"/>
      <use xlink:href="#DejaVuSans-20" transform="translate(122.46582 0.015625)"/>
      <use xlink:href="#DejaVuSans-20" transform="translate(154.25293 0.015625)"/>
      <use xlink:href="#DejaVuSans-28" transform="translate(186.040039 0.015625)"/>
      <use xlink:href="#DejaVuSans-63" transform="translate(225.053711 0.015625)"/>
      <use xlink:href="#DejaVuSans-65" transform="translate(280.03418 0.015625)"/>
      <use xlink:href="#DejaVuSans-6e" transform="translate(341.557617 0.015625)"/>
      <use xlink:href="#DejaVuSans-74" transform="translate(404.936523 0.015625)"/>
      <use xlink:href="#DejaVuSans-72" transform="translate(444.145508 0.015625)"/>
      <use xlink:href="#DejaVuSans-61" transform="translate(485.258789 0.015625)"/>
      <use xlink:href="#DejaVuSans-64" transform="translate(546.538086 0.015625)"/>
      <use xlink:href="#DejaVuSans-61" transform="translate(610.014648 0.015625)"/>
      <use xlink:href="#DejaVuSans-20" transform="translate(671.293945 0.015625)"/>
      <use xlink:href="#DejaVuSans-65" transform="translate(703.081055 0.015625)"/>
      <use xlink:href="#DejaVuSans-6e" transform="translate(764.604492 0.015625)"/>
      <use xlink:href="#DejaVuSans-20" transform="translate(827.983398 0.015625)"/>
      <use xlink:href="#DejaVuSans-Oblique-3bc" transform="translate(859.770508 0.015625)"/>
      <use xlink:href="#DejaVuSans-31" transform="translate(923.393555 -16.390625) scale(0.7)"/>
      <use xlink:href="#DejaVuSans-29" transform="translate(970.664062 0.015625)"/>
     </g>
    </g>
    <g id="patch_6">
     <path d="M 315.415469 75.23 
L 334.415469 75.23 
L 334.415469 68.58 
L 315.415469 68.58 
z
" style="fill: #c0392b; fill-opacity: 0.4; stroke: #c0392b; stroke-opacity: 0.4; stroke-linejoin: miter"/>
    </g>
    <g id="text_21">
     <!-- $\alpha$  (tipo I) -->
     <g transform="translate(342.015469 75.23) scale(0.095 -0.095)">
      <defs>
       <path id="DejaVuSans-69" d="M 603 3500 
L 1178 3500 
L 1178 0 
L 603 0 
L 603 3500 
z
M 603 4863 
L 1178 4863 
L 1178 4134 
L 603 4134 
L 603 4863 
z
" transform="scale(0.015625)"/>
       <path id="DejaVuSans-70" d="M 1159 525 
L 1159 -1331 
L 581 -1331 
L 581 3500 
L 1159 3500 
L 1159 2969 
Q 1341 3281 1617 3432 
Q 1894 3584 2278 3584 
Q 2916 3584 3314 3078 
Q 3713 2572 3713 1747 
Q 3713 922 3314 415 
Q 2916 -91 2278 -91 
Q 1894 -91 1617 61 
Q 1341 213 1159 525 
z
M 3116 1747 
Q 3116 2381 2855 2742 
Q 2594 3103 2138 3103 
Q 1681 3103 1420 2742 
Q 1159 2381 1159 1747 
Q 1159 1113 1420 752 
Q 1681 391 2138 391 
Q 2594 391 2855 752 
Q 3116 1113 3116 1747 
z
" transform="scale(0.015625)"/>
       <path id="DejaVuSans-6f" d="M 1959 3097 
Q 1497 3097 1228 2736 
Q 959 2375 959 1747 
Q 959 1119 1226 758 
Q 1494 397 1959 397 
Q 2419 397 2687 759 
Q 2956 1122 2956 1747 
Q 2956 2369 2687 2733 
Q 2419 3097 1959 3097 
z
M 1959 3584 
Q 2709 3584 3137 3096 
Q 3566 2609 3566 1747 
Q 3566 888 3137 398 
Q 2709 -91 1959 -91 
Q 1206 -91 779 398 
Q 353 888 353 1747 
Q 353 2609 779 3096 
Q 1206 3584 1959 3584 
z
" transform="scale(0.015625)"/>
       <path id="DejaVuSans-49" d="M 628 4666 
L 1259 4666 
L 1259 0 
L 628 0 
L 628 4666 
z
" transform="scale(0.015625)"/>
      </defs>
      <use xlink:href="#DejaVuSans-Oblique-3b1" transform="translate(0 0.015625)"/>
      <use xlink:href="#DejaVuSans-20" transform="translate(65.917969 0.015625)"/>
      <use xlink:href="#DejaVuSans-20" transform="translate(97.705078 0.015625)"/>
      <use xlink:href="#DejaVuSans-28" transform="translate(129.492188 0.015625)"/>
      <use xlink:href="#DejaVuSans-74" transform="translate(168.505859 0.015625)"/>
      <use xlink:href="#DejaVuSans-69" transform="translate(207.714844 0.015625)"/>
      <use xlink:href="#DejaVuSans-70" transform="translate(235.498047 0.015625)"/>
      <use xlink:href="#DejaVuSans-6f" transform="translate(298.974609 0.015625)"/>
      <use xlink:href="#DejaVuSans-20" transform="translate(360.15625 0.015625)"/>
      <use xlink:href="#DejaVuSans-49" transform="translate(391.943359 0.015625)"/>
      <use xlink:href="#DejaVuSans-29" transform="translate(421.435547 0.015625)"/>
     </g>
    </g>
    <g id="patch_7">
     <path d="M 315.415469 89.29 
L 334.415469 89.29 
L 334.415469 82.64 
L 315.415469 82.64 
z
" style="fill: #e67e22; fill-opacity: 0.4; stroke: #e67e22; stroke-opacity: 0.4; stroke-linejoin: miter"/>
    </g>
    <g id="text_22">
     <!-- $\beta$  (tipo II) -->
     <g transform="translate(342.015469 89.29) scale(0.095 -0.095)">
      <use xlink:href="#DejaVuSans-Oblique-3b2" transform="translate(0 0.390625)"/>
      <use xlink:href="#DejaVuSans-20" transform="translate(63.818359 0.390625)"/>
      <use xlink:href="#DejaVuSans-20" transform="translate(95.605469 0.390625)"/>
      <use xlink:href="#DejaVuSans-28" transform="translate(127.392578 0.390625)"/>
      <use xlink:href="#DejaVuSans-74" transform="translate(166.40625 0.390625)"/>
      <use xlink:href="#DejaVuSans-69" transform="translate(205.615234 0.390625)"/>
      <use xlink:href="#DejaVuSans-70" transform="translate(233.398438 0.390625)"/>
      <use xlink:href="#DejaVuSans-6f" transform="translate(296.875 0.390625)"/>
      <use xlink:href="#DejaVuSans-20" transform="translate(358.056641 0.390625)"/>
      <use xlink:href="#DejaVuSans-49" transform="translate(389.84375 0.390625)"/>
      <use xlink:href="#DejaVuSans-49" transform="translate(419.335938 0.390625)"/>
      <use xlink:href="#DejaVuSans-29" transform="translate(448.828125 0.390625)"/>
     </g>
    </g>
   </g>
  </g>
 </g>
 <defs>
  <clipPath id="pb42b3e79dc">
   <rect x="55.915469" y="31.53" width="390.6" height="238.392"/>
  </clipPath>
 </defs>
</svg>
