<?xml version="1.0" encoding="utf-8" standalone="no"?>
<!DOCTYPE svg PUBLIC "-//W3C//DTD SVG 1.1//EN"
  "http://www.w3.org/Graphics/SVG/1.1/DTD/svg11.dtd">
<svg xmlns:xlink="http://www.w3.org/1999/xlink" width="442.077969pt" height="302.029937pt" viewBox="0 0 442.077969 302.029937" xmlns="http://www.w3.org/2000/svg" version="1.1">
 <metadata>
  <rdf:RDF xmlns:dc="http://purl.org/dc/elements/1.1/" xmlns:cc="http://creativecommons.org/ns#" xmlns:rdf="http://www.w3.org/1999/02/22-rdf-syntax-ns#">
   <cc:Work>
    <dc:type rdf:resource="http://purl.org/dc/dcmitype/StillImage"/>
    <dc:date>2026-06-30T11:52:39.681449</dc:date>
    <dc:format>image/svg+xml</dc:format>
    <dc:creator>
     <cc:Agent>
      <dc:title>Matplotlib v3.9.2, https://matplotlib.org/</dc:title>
     </cc:Agent>
    </dc:creator>
   </cc:Work>
  </rdf:RDF>
 </metadata>
 <defs>
  <style type="text/css">*{stroke-linejoin: round; stroke-linecap: butt}</style>
 </defs>
 <g id="figure_1">
  <g id="patch_1">
   <path d="M 0 302.029937 
L 442.077969 302.029937 
L 442.077969 0 
L 0 0 
z
" style="fill: #ffffff"/>
  </g>
  <g id="axes_1">
   <g id="patch_2">
    <path d="M 55.915469 258.701969 
L 424.195469 258.701969 
L 424.195469 31.397969 
L 55.915469 31.397969 
z
" style="fill: #ffffff"/>
   </g>
   <g id="matplotlib.axis_1">
    <g id="xtick_1">
     <g id="line2d_1">
      <path d="M 55.915469 258.701969 
L 55.915469 31.397969 
" clip-path="url(#pe4b44c73cb)" style="fill: none; stroke-dasharray: 0.8,1.28; stroke-dashoffset: 0; stroke: #b0b0b0; stroke-opacity: 0.3; stroke-width: 0.8"/>
     </g>
     <g id="line2d_2">
      <defs>
       <path id="m0bead7841d" d="M 0 0 
L 0 3.5 
" style="stroke: #2c3e50; stroke-width: 0.8"/>
      </defs>
      <g>
       <use xlink:href="#m0bead7841d" x="55.915469" y="258.701969" style="fill: #2c3e50; stroke: #2c3e50; stroke-width: 0.8"/>
      </g>
     </g>
     <g id="text_1">
      <!-- 0 -->
      <g style="fill: #2c3e50" transform="translate(52.734219 273.300406) scale(0.1 -0.1)">
       <defs>
        <path id="DejaVuSans-30" d="M 2034 4250 
Q 1547 4250 1301 3770 
Q 1056 3291 1056 2328 
Q 1056 1369 1301 889 
Q 1547 409 2034 409 
Q 2525 409 2770 889 
Q 3016 1369 3016 2328 
Q 3016 3291 2770 3770 
Q 2525 4250 2034 4250 
z
M 2034 4750 
Q 2819 4750 3233 4129 
Q 3647 3509 3647 2328 
Q 3647 1150 3233 529 
Q 2819 -91 2034 -91 
Q 1250 -91 836 529 
Q 422 1150 422 2328 
Q 422 3509 836 4129 
Q 1250 4750 2034 4750 
z
" transform="scale(0.015625)"/>
       </defs>
       <use xlink:href="#DejaVuSans-30"/>
      </g>
     </g>
    </g>
    <g id="xtick_2">
     <g id="line2d_3">
      <path d="M 117.295469 258.701969 
L 117.295469 31.397969 
" clip-path="url(#pe4b44c73cb)" style="fill: none; stroke-dasharray: 0.8,1.28; stroke-dashoffset: 0; stroke: #b0b0b0; stroke-opacity: 0.3; stroke-width: 0.8"/>
     </g>
     <g id="line2d_4">
      <g>
       <use xlink:href="#m0bead7841d" x="117.295469" y="258.701969" style="fill: #2c3e50; stroke: #2c3e50; stroke-width: 0.8"/>
      </g>
     </g>
     <g id="text_2">
      <!-- 2 -->
      <g style="fill: #2c3e50" transform="translate(114.114219 273.300406) scale(0.1 -0.1)">
       <defs>
        <path id="DejaVuSans-32" d="M 1228 531 
L 3431 531 
L 3431 0 
L 469 0 
L 469 531 
Q 828 903 1448 1529 
Q 2069 2156 2228 2338 
Q 2531 2678 2651 2914 
Q 2772 3150 2772 3378 
Q 2772 3750 2511 3984 
Q 2250 4219 1831 4219 
Q 1534 4219 1204 4116 
Q 875 4013 500 3803 
L 500 4441 
Q 881 4594 1212 4672 
Q 1544 4750 1819 4750 
Q 2544 4750 2975 4387 
Q 3406 4025 3406 3419 
Q 3406 3131 3298 2873 
Q 3191 2616 2906 2266 
Q 2828 2175 2409 1742 
Q 1991 1309 1228 531 
z
" transform="scale(0.015625)"/>
       </defs>
       <use xlink:href="#DejaVuSans-32"/>
      </g>
     </g>
    </g>
    <g id="xtick_3">
     <g id="line2d_5">
      <path d="M 178.675469 258.701969 
L 178.675469 31.397969 
" clip-path="url(#pe4b44c73cb)" style="fill: none; stroke-dasharray: 0.8,1.28; stroke-dashoffset: 0; stroke: #b0b0b0; stroke-opacity: 0.3; stroke-width: 0.8"/>
     </g>
     <g id="line2d_6">
      <g>
       <use xlink:href="#m0bead7841d" x="178.675469" y="258.701969" style="fill: #2c3e50; stroke: #2c3e50; stroke-width: 0.8"/>
      </g>
     </g>
     <g id="text_3">
      <!-- 4 -->
      <g style="fill: #2c3e50" transform="translate(175.494219 273.300406) scale(0.1 -0.1)">
       <defs>
        <path id="DejaVuSans-34" d="M 2419 4116 
L 825 1625 
L 2419 1625 
L 2419 4116 
z
M 2253 4666 
L 3047 4666 
L 3047 1625 
L 3713 1625 
L 3713 1100 
L 3047 1100 
L 3047 0 
L 2419 0 
L 2419 1100 
L 313 1100 
L 313 1709 
L 2253 4666 
z
" transform="scale(0.015625)"/>
       </defs>
       <use xlink:href="#DejaVuSans-34"/>
      </g>
     </g>
    </g>
    <g id="xtick_4">
     <g id="line2d_7">
      <path d="M 240.055469 258.701969 
L 240.055469 31.397969 
" clip-path="url(#pe4b44c73cb)" style="fill: none; stroke-dasharray: 0.8,1.28; stroke-dashoffset: 0; stroke: #b0b0b0; stroke-opacity: 0.3; stroke-width: 0.8"/>
     </g>
     <g id="line2d_8">
      <g>
       <use xlink:href="#m0bead7841d" x="240.055469" y="258.701969" style="fill: #2c3e50; stroke: #2c3e50; stroke-width: 0.8"/>
      </g>
     </g>
     <g id="text_4">
      <!-- 6 -->
      <g style="fill: #2c3e50" transform="translate(236.874219 273.300406) scale(0.1 -0.1)">
       <defs>
        <path id="DejaVuSans-36" d="M 2113 2584 
Q 1688 2584 1439 2293 
Q 1191 2003 1191 1497 
Q 1191 994 1439 701 
Q 1688 409 2113 409 
Q 2538 409 2786 701 
Q 3034 994 3034 1497 
Q 3034 2003 2786 2293 
Q 2538 2584 2113 2584 
z
M 3366 4563 
L 3366 3988 
Q 3128 4100 2886 4159 
Q 2644 4219 2406 4219 
Q 1781 4219 1451 3797 
Q 1122 3375 1075 2522 
Q 1259 2794 1537 2939 
Q 1816 3084 2150 3084 
Q 2853 3084 3261 2657 
Q 3669 2231 3669 1497 
Q 3669 778 3244 343 
Q 2819 -91 2113 -91 
Q 1303 -91 875 529 
Q 447 1150 447 2328 
Q 447 3434 972 4092 
Q 1497 4750 2381 4750 
Q 2619 4750 2861 4703 
Q 3103 4656 3366 4563 
z
" transform="scale(0.015625)"/>
       </defs>
       <use xlink:href="#DejaVuSans-36"/>
      </g>
     </g>
    </g>
    <g id="xtick_5">
     <g id="line2d_9">
      <path d="M 301.435469 258.701969 
L 301.435469 31.397969 
" clip-path="url(#pe4b44c73cb)" style="fill: none; stroke-dasharray: 0.8,1.28; stroke-dashoffset: 0; stroke: #b0b0b0; stroke-opacity: 0.3; stroke-width: 0.8"/>
     </g>
     <g id="line2d_10">
      <g>
       <use xlink:href="#m0bead7841d" x="301.435469" y="258.701969" style="fill: #2c3e50; stroke: #2c3e50; stroke-width: 0.8"/>
      </g>
     </g>
     <g id="text_5">
      <!-- 8 -->
      <g style="fill: #2c3e50" transform="translate(298.254219 273.300406) scale(0.1 -0.1)">
       <defs>
        <path id="DejaVuSans-38" d="M 2034 2216 
Q 1584 2216 1326 1975 
Q 1069 1734 1069 1313 
Q 1069 891 1326 650 
Q 1584 409 2034 409 
Q 2484 409 2743 651 
Q 3003 894 3003 1313 
Q 3003 1734 2745 1975 
Q 2488 2216 2034 2216 
z
M 1403 2484 
Q 997 2584 770 2862 
Q 544 3141 544 3541 
Q 544 4100 942 4425 
Q 1341 4750 2034 4750 
Q 2731 4750 3128 4425 
Q 3525 4100 3525 3541 
Q 3525 3141 3298 2862 
Q 3072 2584 2669 2484 
Q 3125 2378 3379 2068 
Q 3634 1759 3634 1313 
Q 3634 634 3220 271 
Q 2806 -91 2034 -91 
Q 1263 -91 848 271 
Q 434 634 434 1313 
Q 434 1759 690 2068 
Q 947 2378 1403 2484 
z
M 1172 3481 
Q 1172 3119 1398 2916 
Q 1625 2713 2034 2713 
Q 2441 2713 2670 2916 
Q 2900 3119 2900 3481 
Q 2900 3844 2670 4047 
Q 2441 4250 2034 4250 
Q 1625 4250 1398 4047 
Q 1172 3844 1172 3481 
z
" transform="scale(0.015625)"/>
       </defs>
       <use xlink:href="#DejaVuSans-38"/>
      </g>
     </g>
    </g>
    <g id="xtick_6">
     <g id="line2d_11">
      <path d="M 362.815469 258.701969 
L 362.815469 31.397969 
" clip-path="url(#pe4b44c73cb)" style="fill: none; stroke-dasharray: 0.8,1.28; stroke-dashoffset: 0; stroke: #b0b0b0; stroke-opacity: 0.3; stroke-width: 0.8"/>
     </g>
     <g id="line2d_12">
      <g>
       <use xlink:href="#m0bead7841d" x="362.815469" y="258.701969" style="fill: #2c3e50; stroke: #2c3e50; stroke-width: 0.8"/>
      </g>
     </g>
     <g id="text_6">
      <!-- 10 -->
      <g style="fill: #2c3e50" transform="translate(356.452969 273.300406) scale(0.1 -0.1)">
       <defs>
        <path id="DejaVuSans-31" d="M 794 531 
L 1825 531 
L 1825 4091 
L 703 3866 
L 703 4441 
L 1819 4666 
L 2450 4666 
L 2450 531 
L 3481 531 
L 3481 0 
L 794 0 
L 794 531 
z
" transform="scale(0.015625)"/>
       </defs>
       <use xlink:href="#DejaVuSans-31"/>
       <use xlink:href="#DejaVuSans-30" x="63.623047"/>
      </g>
     </g>
    </g>
    <g id="xtick_7">
     <g id="line2d_13">
      <path d="M 424.195469 258.701969 
L 424.195469 31.397969 
" clip-path="url(#pe4b44c73cb)" style="fill: none; stroke-dasharray: 0.8,1.28; stroke-dashoffset: 0; stroke: #b0b0b0; stroke-opacity: 0.3; stroke-width: 0.8"/>
     </g>
     <g id="line2d_14">
      <g>
       <use xlink:href="#m0bead7841d" x="424.195469" y="258.701969" style="fill: #2c3e50; stroke: #2c3e50; stroke-width: 0.8"/>
      </g>
     </g>
     <g id="text_7">
      <!-- 12 -->
      <g style="fill: #2c3e50" transform="translate(417.832969 273.300406) scale(0.1 -0.1)">
       <use xlink:href="#DejaVuSans-31"/>
       <use xlink:href="#DejaVuSans-32" x="63.623047"/>
      </g>
     </g>
    </g>
    <g id="text_8">
     <!-- x -->
     <g transform="translate(236.346719 288.118297) scale(0.115 -0.115)">
      <defs>
       <path id="DejaVuSans-Bold-78" d="M 1422 1791 
L 159 3500 
L 1344 3500 
L 2059 2463 
L 2784 3500 
L 3969 3500 
L 2706 1797 
L 4031 0 
L 2847 0 
L 2059 1106 
L 1281 0 
L 97 0 
L 1422 1791 
z
" transform="scale(0.015625)"/>
      </defs>
      <use xlink:href="#DejaVuSans-Bold-78"/>
     </g>
    </g>
   </g>
   <g id="matplotlib.axis_2">
    <g id="ytick_1">
     <g id="line2d_15">
      <path d="M 55.915469 258.701969 
L 424.195469 258.701969 
" clip-path="url(#pe4b44c73cb)" style="fill: none; stroke-dasharray: 0.8,1.28; stroke-dashoffset: 0; stroke: #b0b0b0; stroke-opacity: 0.3; stroke-width: 0.8"/>
     </g>
     <g id="line2d_16">
      <defs>
       <path id="m891f7c401e" d="M 0 0 
L -3.5 0 
" style="stroke: #2c3e50; stroke-width: 0.8"/>
      </defs>
      <g>
       <use xlink:href="#m891f7c401e" x="55.915469" y="258.701969" style="fill: #2c3e50; stroke: #2c3e50; stroke-width: 0.8"/>
      </g>
     </g>
     <g id="text_9">
      <!-- 0.00 -->
      <g style="fill: #2c3e50" transform="translate(26.649844 262.501187) scale(0.1 -0.1)">
       <defs>
        <path id="DejaVuSans-2e" d="M 684 794 
L 1344 794 
L 1344 0 
L 684 0 
L 684 794 
z
" transform="scale(0.015625)"/>
       </defs>
       <use xlink:href="#DejaVuSans-30"/>
       <use xlink:href="#DejaVuSans-2e" x="63.623047"/>
       <use xlink:href="#DejaVuSans-30" x="95.410156"/>
       <use xlink:href="#DejaVuSans-30" x="159.033203"/>
      </g>
     </g>
    </g>
    <g id="ytick_2">
     <g id="line2d_17">
      <path d="M 55.915469 209.559253 
L 424.195469 209.559253 
" clip-path="url(#pe4b44c73cb)" style="fill: none; stroke-dasharray: 0.8,1.28; stroke-dashoffset: 0; stroke: #b0b0b0; stroke-opacity: 0.3; stroke-width: 0.8"/>
     </g>
     <g id="line2d_18">
      <g>
       <use xlink:href="#m891f7c401e" x="55.915469" y="209.559253" style="fill: #2c3e50; stroke: #2c3e50; stroke-width: 0.8"/>
      </g>
     </g>
     <g id="text_10">
      <!-- 0.05 -->
      <g style="fill: #2c3e50" transform="translate(26.649844 213.358471) scale(0.1 -0.1)">
       <defs>
        <path id="DejaVuSans-35" d="M 691 4666 
L 3169 4666 
L 3169 4134 
L 1269 4134 
L 1269 2991 
Q 1406 3038 1543 3061 
Q 1681 3084 1819 3084 
Q 2600 3084 3056 2656 
Q 3513 2228 3513 1497 
Q 3513 744 3044 326 
Q 2575 -91 1722 -91 
Q 1428 -91 1123 -41 
Q 819 9 494 109 
L 494 744 
Q 775 591 1075 516 
Q 1375 441 1709 441 
Q 2250 441 2565 725 
Q 2881 1009 2881 1497 
Q 2881 1984 2565 2268 
Q 2250 2553 1709 2553 
Q 1456 2553 1204 2497 
Q 953 2441 691 2322 
L 691 4666 
z
" transform="scale(0.015625)"/>
       </defs>
       <use xlink:href="#DejaVuSans-30"/>
       <use xlink:href="#DejaVuSans-2e" x="63.623047"/>
       <use xlink:href="#DejaVuSans-30" x="95.410156"/>
       <use xlink:href="#DejaVuSans-35" x="159.033203"/>
      </g>
     </g>
    </g>
    <g id="ytick_3">
     <g id="line2d_19">
      <path d="M 55.915469 160.416536 
L 424.195469 160.416536 
" clip-path="url(#pe4b44c73cb)" style="fill: none; stroke-dasharray: 0.8,1.28; stroke-dashoffset: 0; stroke: #b0b0b0; stroke-opacity: 0.3; stroke-width: 0.8"/>
     </g>
     <g id="line2d_20">
      <g>
       <use xlink:href="#m891f7c401e" x="55.915469" y="160.416536" style="fill: #2c3e50; stroke: #2c3e50; stroke-width: 0.8"/>
      </g>
     </g>
     <g id="text_11">
      <!-- 0.10 -->
      <g style="fill: #2c3e50" transform="translate(26.649844 164.215755) scale(0.1 -0.1)">
       <use xlink:href="#DejaVuSans-30"/>
       <use xlink:href="#DejaVuSans-2e" x="63.623047"/>
       <use xlink:href="#DejaVuSans-31" x="95.410156"/>
       <use xlink:href="#DejaVuSans-30" x="159.033203"/>
      </g>
     </g>
    </g>
    <g id="ytick_4">
     <g id="line2d_21">
      <path d="M 55.915469 111.27382 
L 424.195469 111.27382 
" clip-path="url(#pe4b44c73cb)" style="fill: none; stroke-dasharray: 0.8,1.28; stroke-dashoffset: 0; stroke: #b0b0b0; stroke-opacity: 0.3; stroke-width: 0.8"/>
     </g>
     <g id="line2d_22">
      <g>
       <use xlink:href="#m891f7c401e" x="55.915469" y="111.27382" style="fill: #2c3e50; stroke: #2c3e50; stroke-width: 0.8"/>
      </g>
     </g>
     <g id="text_12">
      <!-- 0.15 -->
      <g style="fill: #2c3e50" transform="translate(26.649844 115.073039) scale(0.1 -0.1)">
       <use xlink:href="#DejaVuSans-30"/>
       <use xlink:href="#DejaVuSans-2e" x="63.623047"/>
       <use xlink:href="#DejaVuSans-31" x="95.410156"/>
       <use xlink:href="#DejaVuSans-35" x="159.033203"/>
      </g>
     </g>
    </g>
    <g id="ytick_5">
     <g id="line2d_23">
      <path d="M 55.915469 62.131104 
L 424.195469 62.131104 
" clip-path="url(#pe4b44c73cb)" style="fill: none; stroke-dasharray: 0.8,1.28; stroke-dashoffset: 0; stroke: #b0b0b0; stroke-opacity: 0.3; stroke-width: 0.8"/>
     </g>
     <g id="line2d_24">
      <g>
       <use xlink:href="#m891f7c401e" x="55.915469" y="62.131104" style="fill: #2c3e50; stroke: #2c3e50; stroke-width: 0.8"/>
      </g>
     </g>
     <g id="text_13">
      <!-- 0.20 -->
      <g style="fill: #2c3e50" transform="translate(26.649844 65.930323) scale(0.1 -0.1)">
       <use xlink:href="#DejaVuSans-30"/>
       <use xlink:href="#DejaVuSans-2e" x="63.623047"/>
       <use xlink:href="#DejaVuSans-32" x="95.410156"/>
       <use xlink:href="#DejaVuSans-30" x="159.033203"/>
      </g>
     </g>
    </g>
    <g id="text_14">
     <!-- $f_X(x)$ -->
     <g transform="translate(20.258203 157.929969) rotate(-90) scale(0.115 -0.115)">
      <defs>
       <path id="DejaVuSans-Oblique-66" d="M 3059 4863 
L 2969 4384 
L 2419 4384 
Q 2106 4384 1964 4261 
Q 1822 4138 1753 3809 
L 1691 3500 
L 2638 3500 
L 2553 3053 
L 1606 3053 
L 1013 0 
L 434 0 
L 1031 3053 
L 481 3053 
L 563 3500 
L 1113 3500 
L 1159 3744 
Q 1278 4363 1576 4613 
Q 1875 4863 2516 4863 
L 3059 4863 
z
" transform="scale(0.015625)"/>
       <path id="DejaVuSans-Oblique-58" d="M 878 4666 
L 1516 4666 
L 2316 2981 
L 3763 4666 
L 4500 4666 
L 2578 2438 
L 3738 0 
L 3103 0 
L 2163 1966 
L 459 0 
L -275 0 
L 1906 2509 
L 878 4666 
z
" transform="scale(0.015625)"/>
       <path id="DejaVuSans-28" d="M 1984 4856 
Q 1566 4138 1362 3434 
Q 1159 2731 1159 2009 
Q 1159 1288 1364 580 
Q 1569 -128 1984 -844 
L 1484 -844 
Q 1016 -109 783 600 
Q 550 1309 550 2009 
Q 550 2706 781 3412 
Q 1013 4119 1484 4856 
L 1984 4856 
z
" transform="scale(0.015625)"/>
       <path id="DejaVuSans-Oblique-78" d="M 3841 3500 
L 2234 1784 
L 3219 0 
L 2559 0 
L 1819 1388 
L 531 0 
L -166 0 
L 1556 1844 
L 641 3500 
L 1300 3500 
L 1972 2234 
L 3144 3500 
L 3841 3500 
z
" transform="scale(0.015625)"/>
       <path id="DejaVuSans-29" d="M 513 4856 
L 1013 4856 
Q 1481 4119 1714 3412 
Q 1947 2706 1947 2009 
Q 1947 1309 1714 600 
Q 1481 -109 1013 -844 
L 513 -844 
Q 928 -128 1133 580 
Q 1338 1288 1338 2009 
Q 1338 2731 1133 3434 
Q 928 4138 513 4856 
z
" transform="scale(0.015625)"/>
      </defs>
      <use xlink:href="#DejaVuSans-Oblique-66" transform="translate(0 0.015625)"/>
      <use xlink:href="#DejaVuSans-Oblique-58" transform="translate(35.205078 -16.390625) scale(0.7)"/>
      <use xlink:href="#DejaVuSans-28" transform="translate(85.893555 0.015625)"/>
      <use xlink:href="#DejaVuSans-Oblique-78" transform="translate(124.907227 0.015625)"/>
      <use xlink:href="#DejaVuSans-29" transform="translate(184.086914 0.015625)"/>
     </g>
    </g>
   </g>
   <g id="PolyCollection_1">
    <defs>
     <path id="m129f8d1d9b" d="M 55.915469 -43.327969 
L 55.915469 -43.327969 
L 56.442336 -44.036344 
L 56.969203 -45.307138 
L 57.49607 -46.919622 
L 58.022937 -48.790286 
L 58.549804 -50.868752 
L 59.07667 -53.119776 
L 59.603537 -55.516673 
L 60.130404 -58.038215 
L 60.657271 -60.666936 
L 61.184138 -63.388109 
L 61.711005 -66.189089 
L 62.237872 -69.058861 
L 62.764739 -71.987726 
L 63.291606 -74.967062 
L 63.818473 -77.98915 
L 64.34534 -81.047037 
L 64.872207 -84.134423 
L 65.399074 -87.245583 
L 65.925941 -90.375288 
L 66.452808 -93.518752 
L 66.979675 -96.671581 
L 67.506542 -99.829732 
L 68.033409 -102.989478 
L 68.560276 -106.147377 
L 69.087143 -109.300249 
L 69.61401 -112.445148 
L 70.140876 -115.579346 
L 70.667743 -118.700314 
L 71.19461 -121.805708 
L 71.721477 -124.893349 
L 72.248344 -127.96122 
L 72.775211 -131.007446 
L 73.302078 -134.030289 
L 73.828945 -137.028135 
L 74.355812 -139.99949 
L 74.882679 -142.942969 
L 75.409546 -145.857288 
L 75.936413 -148.741263 
L 76.46328 -151.593796 
L 76.990147 -154.413879 
L 77.517014 -157.200579 
L 78.043881 -159.953041 
L 78.570748 -162.670481 
L 79.097615 -165.352179 
L 79.624482 -167.997482 
L 80.151349 -170.605792 
L 80.678216 -173.176571 
L 81.205082 -175.709332 
L 81.731949 -178.203639 
L 82.258816 -180.659101 
L 82.785683 -183.075376 
L 83.31255 -185.452162 
L 83.839417 -187.789196 
L 84.366284 -190.086257 
L 84.893151 -192.343156 
L 85.420018 -194.55974 
L 85.946885 -196.735889 
L 86.473752 -198.871513 
L 87.000619 -200.96655 
L 87.527486 -203.020967 
L 88.054353 -205.034758 
L 88.58122 -207.007938 
L 89.108087 -208.94055 
L 89.634954 -210.832656 
L 90.161821 -212.684339 
L 90.688688 -214.495705 
L 91.215555 -216.266875 
L 91.742422 -217.99799 
L 92.269288 -219.689208 
L 92.796155 -221.340701 
L 93.323022 -222.952658 
L 93.849889 -224.525281 
L 94.376756 -226.058786 
L 94.903623 -227.553402 
L 95.43049 -229.009369 
L 95.957357 -230.426939 
L 96.484224 -231.806373 
L 97.011091 -233.147945 
L 97.537958 -234.451934 
L 98.064825 -235.718632 
L 98.591692 -236.948336 
L 99.118559 -238.141353 
L 99.645426 -239.297995 
L 100.172293 -240.418583 
L 100.69916 -241.503441 
L 101.226027 -242.552903 
L 101.752894 -243.567303 
L 102.279761 -244.546986 
L 102.806628 -245.492296 
L 103.333495 -246.403585 
L 103.860361 -247.281207 
L 104.387228 -248.125519 
L 104.914095 -248.936883 
L 105.440962 -249.715663 
L 105.967829 -250.462224 
L 106.494696 -251.176935 
L 107.021563 -251.860167 
L 107.54843 -252.512292 
L 108.075297 -253.133683 
L 108.602164 -253.724716 
L 109.129031 -254.285766 
L 109.655898 -254.817211 
L 110.182765 -255.319426 
L 110.709632 -255.79279 
L 111.236499 -256.237681 
L 111.763366 -256.654476 
L 112.290233 -257.043553 
L 112.8171 -257.405289 
L 113.343967 -257.74006 
L 113.870834 -258.048244 
L 114.397701 -258.330214 
L 114.924567 -258.586346 
L 115.451434 -258.817012 
L 115.978301 -259.022585 
L 116.505168 -259.203436 
L 117.032035 -259.359933 
L 117.558902 -259.492444 
L 118.085769 -259.601336 
L 118.612636 -259.686973 
L 119.139503 -259.749717 
L 119.66637 -259.78993 
L 120.193237 -259.807969 
L 120.720104 -259.804191 
L 121.246971 -259.778952 
L 121.773838 -259.732602 
L 122.300705 -259.665492 
L 122.827572 -259.577969 
L 123.354439 -259.470379 
L 123.881306 -259.343065 
L 124.408173 -259.196365 
L 124.93504 -259.030619 
L 125.461907 -258.846161 
L 125.988773 -258.643323 
L 126.51564 -258.422435 
L 127.042507 -258.183824 
L 127.569374 -257.927813 
L 128.096241 -257.654725 
L 128.623108 -257.364878 
L 129.149975 -257.058587 
L 129.676842 -256.736166 
L 130.203709 -256.397923 
L 130.730576 -256.044166 
L 131.257443 -255.675199 
L 131.78431 -255.291323 
L 132.311177 -254.892835 
L 132.838044 -254.480032 
L 133.364911 -254.053205 
L 133.891778 -253.612642 
L 134.418645 -253.15863 
L 134.945512 -252.691453 
L 135.472379 -252.211389 
L 135.999246 -251.718716 
L 136.526113 -251.213707 
L 137.052979 -250.696634 
L 137.579846 -250.167763 
L 138.106713 -249.627361 
L 138.63358 -249.075688 
L 139.160447 -248.513004 
L 139.687314 -247.939563 
L 140.214181 -247.355619 
L 140.741048 -246.76142 
L 141.267915 -246.157215 
L 141.794782 -245.543245 
L 142.321649 -244.919752 
L 142.848516 -244.286974 
L 143.375383 -243.645145 
L 143.90225 -242.994496 
L 144.429117 -242.335256 
L 144.955984 -241.667652 
L 145.482851 -240.991905 
L 146.009718 -240.308237 
L 146.536585 -239.616864 
L 147.063452 -238.917999 
L 147.590319 -238.211856 
L 148.117185 -237.498641 
L 148.644052 -236.778561 
L 149.170919 -236.051818 
L 149.697786 -235.318613 
L 150.224653 -234.579143 
L 150.75152 -233.833602 
L 151.278387 -233.082182 
L 151.805254 -232.325072 
L 152.332121 -231.562458 
L 152.858988 -230.794525 
L 153.385855 -230.021452 
L 153.912722 -229.243419 
L 154.439589 -228.460602 
L 154.966456 -227.673172 
L 155.493323 -226.881302 
L 156.02019 -226.085158 
L 156.547057 -225.284907 
L 157.073924 -224.480711 
L 157.600791 -223.672731 
L 158.127658 -222.861125 
L 158.654525 -222.046048 
L 159.181391 -221.227654 
L 159.708258 -220.406093 
L 160.235125 -219.581513 
L 160.761992 -218.754061 
L 161.288859 -217.92388 
L 161.815726 -217.091111 
L 162.342593 -216.255894 
L 162.86946 -215.418364 
L 163.396327 -214.578658 
L 163.923194 -213.736906 
L 164.450061 -212.89324 
L 164.976928 -212.047786 
L 165.503795 -211.200671 
L 166.030662 -210.352018 
L 166.557529 -209.501949 
L 167.084396 -208.650583 
L 167.611263 -207.798037 
L 168.13813 -206.944427 
L 168.664997 -206.089865 
L 169.191864 -205.234464 
L 169.718731 -204.378332 
L 170.245598 -203.521577 
L 170.772464 -202.664304 
L 171.299331 -201.806616 
L 171.826198 -200.948616 
L 172.353065 -200.090402 
L 172.879932 -199.232073 
L 173.406799 -198.373724 
L 173.933666 -197.51545 
L 174.460533 -196.657344 
L 174.9874 -195.799495 
L 175.514267 -194.941993 
L 176.041134 -194.084925 
L 176.568001 -193.228376 
L 177.094868 -192.372431 
L 177.621735 -191.517171 
L 178.148602 -190.662677 
L 178.675469 -189.809029 
L 179.202336 -188.956302 
L 179.729203 -188.104573 
L 180.25607 -187.253916 
L 180.782937 -186.404405 
L 181.309804 -185.556109 
L 181.83667 -184.709098 
L 182.363537 -183.863441 
L 182.890404 -183.019205 
L 183.417271 -182.176454 
L 183.944138 -181.335252 
L 184.471005 -180.495663 
L 184.997872 -179.657746 
L 185.524739 -178.821562 
L 186.051606 -177.987168 
L 186.578473 -177.154623 
L 187.10534 -176.323982 
L 187.632207 -175.495298 
L 188.159074 -174.668626 
L 188.685941 -173.844016 
L 189.212808 -173.021521 
L 189.739675 -172.201188 
L 190.266542 -171.383067 
L 190.793409 -170.567205 
L 191.320276 -169.753646 
L 191.847143 -168.942437 
L 192.37401 -168.13362 
L 192.900876 -167.327239 
L 193.427743 -166.523333 
L 193.95461 -165.721945 
L 194.481477 -164.923113 
L 195.008344 -164.126874 
L 195.535211 -163.333267 
L 196.062078 -162.542327 
L 196.588945 -161.754089 
L 197.115812 -160.968588 
L 197.642679 -160.185856 
L 198.169546 -159.405926 
L 198.696413 -158.628829 
L 199.22328 -157.854595 
L 199.750147 -157.083254 
L 200.277014 -156.314834 
L 200.803881 -155.549362 
L 201.330748 -154.786865 
L 201.857615 -154.027369 
L 202.384482 -153.270899 
L 202.911349 -152.51748 
L 203.438216 -151.767133 
L 203.965082 -151.019883 
L 204.491949 -150.27575 
L 205.018816 -149.534756 
L 205.545683 -148.79692 
L 206.07255 -148.062263 
L 206.599417 -147.330802 
L 207.126284 -146.602555 
L 207.653151 -145.877541 
L 208.180018 -145.155775 
L 208.706885 -144.437272 
L 209.233752 -143.722049 
L 209.760619 -143.01012 
L 210.287486 -142.301497 
L 210.814353 -141.596196 
L 211.34122 -140.894227 
L 211.868087 -140.195603 
L 212.394954 -139.500335 
L 212.921821 -138.808433 
L 213.448688 -138.119908 
L 213.975555 -137.434769 
L 214.502422 -136.753026 
L 215.029288 -136.074685 
L 215.556155 -135.399756 
L 216.083022 -134.728244 
L 216.609889 -134.060158 
L 217.136756 -133.395502 
L 217.663623 -132.734284 
L 218.19049 -132.076507 
L 218.717357 -131.422176 
L 219.244224 -130.771296 
L 219.771091 -130.12387 
L 220.297958 -129.479901 
L 220.824825 -128.839393 
L 221.351692 -128.202347 
L 221.878559 -127.568766 
L 222.405426 -126.93865 
L 222.932293 -126.312 
L 223.45916 -125.688818 
L 223.986027 -125.069103 
L 224.512894 -124.452856 
L 225.039761 -123.840075 
L 225.566628 -123.230759 
L 226.093495 -122.624908 
L 226.620361 -122.022519 
L 227.147228 -121.42359 
L 227.674095 -120.828118 
L 228.200962 -120.236102 
L 228.727829 -119.647537 
L 229.254696 -119.062421 
L 229.781563 -118.480749 
L 230.30843 -117.902518 
L 230.835297 -117.327722 
L 231.362164 -116.756357 
L 231.889031 -116.188418 
L 232.415898 -115.6239 
L 232.942765 -115.062797 
L 233.469632 -114.505103 
L 233.996499 -113.950812 
L 234.523366 -113.399917 
L 235.050233 -112.852413 
L 235.5771 -112.308291 
L 236.103967 -111.767544 
L 236.630834 -111.230166 
L 237.157701 -110.696149 
L 237.684567 -110.165484 
L 238.211434 -109.638163 
L 238.738301 -109.114178 
L 239.265168 -108.593521 
L 239.792035 -108.076183 
L 240.318902 -107.562154 
L 240.845769 -107.051426 
L 241.372636 -106.543989 
L 241.899503 -106.039833 
L 242.42637 -105.53895 
L 242.953237 -105.041328 
L 243.480104 -104.546958 
L 244.006971 -104.055829 
L 244.533838 -103.567932 
L 245.060705 -103.083255 
L 245.587572 -102.601788 
L 246.114439 -102.123519 
L 246.641306 -101.648439 
L 247.168173 -101.176535 
L 247.69504 -100.707796 
L 248.221907 -100.242211 
L 248.748773 -99.779768 
L 249.27564 -99.320456 
L 249.802507 -98.864262 
L 250.329374 -98.411175 
L 250.856241 -97.961183 
L 251.383108 -97.514273 
L 251.909975 -97.070433 
L 252.436842 -96.629651 
L 252.963709 -96.191914 
L 253.490576 -95.757209 
L 254.017443 -95.325525 
L 254.54431 -94.896848 
L 255.071177 -94.471165 
L 255.598044 -94.048464 
L 256.124911 -93.628731 
L 256.651778 -93.211953 
L 257.178645 -92.798117 
L 257.705512 -92.387211 
L 258.232379 -91.979219 
L 258.759246 -91.57413 
L 259.286113 -91.17193 
L 259.812979 -90.772605 
L 260.339846 -90.376142 
L 260.866713 -89.982526 
L 261.39358 -89.591746 
L 261.920447 -89.203786 
L 262.447314 -88.818633 
L 262.974181 -88.436273 
L 263.501048 -88.056693 
L 264.027915 -87.679878 
L 264.554782 -87.305815 
L 265.081649 -86.93449 
L 265.608516 -86.565888 
L 266.135383 -86.199996 
L 266.66225 -85.8368 
L 267.189117 -85.476286 
L 267.715984 -85.118439 
L 268.242851 -84.763246 
L 268.769718 -84.410693 
L 269.296585 -84.060764 
L 269.823452 -83.713447 
L 270.350319 -83.368727 
L 270.877185 -83.02659 
L 271.404052 -82.687022 
L 271.930919 -82.350009 
L 272.457786 -82.015536 
L 272.984653 -81.683589 
L 273.51152 -81.354154 
L 274.038387 -81.027218 
L 274.565254 -80.702765 
L 275.092121 -80.380782 
L 275.618988 -80.061254 
L 276.145855 -79.744168 
L 276.672722 -79.429508 
L 277.199589 -79.117262 
L 277.726456 -78.807415 
L 278.253323 -78.499953 
L 278.78019 -78.194861 
L 279.307057 -77.892126 
L 279.833924 -77.591734 
L 280.360791 -77.293671 
L 280.887658 -76.997922 
L 281.414525 -76.704473 
L 281.941391 -76.413311 
L 282.468258 -76.124422 
L 282.995125 -75.837792 
L 283.521992 -75.553406 
L 284.048859 -75.271251 
L 284.575726 -74.991314 
L 285.102593 -74.713579 
L 285.62946 -74.438035 
L 286.156327 -74.164666 
L 286.683194 -73.893459 
L 287.210061 -73.6244 
L 287.736928 -73.357477 
L 288.263795 -73.092674 
L 288.790662 -72.829979 
L 289.317529 -72.569378 
L 289.844396 -72.310857 
L 290.371263 -72.054403 
L 290.89813 -71.800003 
L 291.424997 -71.547643 
L 291.951864 -71.297309 
L 292.478731 -71.048989 
L 293.005598 -70.80267 
L 293.532464 -70.558337 
L 294.059331 -70.315979 
L 294.586198 -70.075581 
L 295.113065 -69.83713 
L 295.639932 -69.600614 
L 296.166799 -69.36602 
L 296.693666 -69.133334 
L 297.220533 -68.902544 
L 297.7474 -68.673637 
L 298.274267 -68.446599 
L 298.801134 -68.221419 
L 299.328001 -67.998084 
L 299.854868 -67.77658 
L 300.381735 -67.556896 
L 300.908602 -67.339018 
L 301.435469 -67.122935 
L 301.962336 -66.908633 
L 302.489203 -66.696101 
L 303.01607 -66.485325 
L 303.542937 -66.276294 
L 304.069804 -66.068996 
L 304.59667 -65.863418 
L 305.123537 -65.659548 
L 305.650404 -65.457373 
L 306.177271 -65.256883 
L 306.704138 -65.058065 
L 307.231005 -64.860907 
L 307.757872 -64.665397 
L 308.284739 -64.471523 
L 308.811606 -64.279274 
L 309.338473 -64.088637 
L 309.86534 -63.899602 
L 310.392207 -63.712157 
L 310.919074 -63.52629 
L 311.445941 -63.341989 
L 311.972808 -63.159243 
L 312.499675 -62.978042 
L 313.026542 -62.798373 
L 313.553409 -62.620225 
L 314.080276 -62.443587 
L 314.607143 -62.268448 
L 315.13401 -62.094797 
L 315.660876 -61.922623 
L 316.187743 -61.751915 
L 316.71461 -61.582662 
L 317.241477 -61.414852 
L 317.768344 -61.248477 
L 318.295211 -61.083524 
L 318.822078 -60.919982 
L 319.348945 -60.757842 
L 319.875812 -60.597093 
L 320.402679 -60.437724 
L 320.929546 -60.279726 
L 321.456413 -60.123086 
L 321.98328 -59.967796 
L 322.510147 -59.813844 
L 323.037014 -59.661221 
L 323.563881 -59.509917 
L 324.090748 -59.359921 
L 324.617615 -59.211224 
L 325.144482 -59.063814 
L 325.671349 -58.917684 
L 326.198216 -58.772822 
L 326.725082 -58.629219 
L 327.251949 -58.486865 
L 327.778816 -58.345751 
L 328.305683 -58.205866 
L 328.83255 -58.067202 
L 329.359417 -57.929748 
L 329.886284 -57.793496 
L 330.413151 -57.658435 
L 330.940018 -57.524557 
L 331.466885 -57.391853 
L 331.993752 -57.260312 
L 332.520619 -57.129927 
L 333.047486 -57.000687 
L 333.574353 -56.872584 
L 334.10122 -56.745609 
L 334.628087 -56.619752 
L 335.154954 -56.495006 
L 335.681821 -56.37136 
L 336.208688 -56.248807 
L 336.735555 -56.127338 
L 337.262422 -56.006943 
L 337.789288 -55.887615 
L 338.316155 -55.769345 
L 338.843022 -55.652125 
L 339.369889 -55.535945 
L 339.896756 -55.420797 
L 340.423623 -55.306674 
L 340.95049 -55.193567 
L 341.477357 -55.081468 
L 342.004224 -54.970368 
L 342.531091 -54.86026 
L 343.057958 -54.751135 
L 343.584825 -54.642986 
L 344.111692 -54.535804 
L 344.638559 -54.429582 
L 345.165426 -54.324312 
L 345.692293 -54.219985 
L 346.21916 -54.116595 
L 346.746027 -54.014134 
L 347.272894 -53.912593 
L 347.799761 -53.811966 
L 348.326628 -53.712245 
L 348.853495 -53.613422 
L 349.380361 -53.515491 
L 349.907228 -53.418443 
L 350.434095 -53.322271 
L 350.960962 -53.226968 
L 351.487829 -53.132528 
L 352.014696 -53.038942 
L 352.541563 -52.946203 
L 353.06843 -52.854305 
L 353.595297 -52.763241 
L 354.122164 -52.673003 
L 354.649031 -52.583585 
L 355.175898 -52.49498 
L 355.702765 -52.407181 
L 356.229632 -52.320181 
L 356.756499 -52.233974 
L 357.283366 -52.148552 
L 357.810233 -52.06391 
L 358.3371 -51.98004 
L 358.863967 -51.896937 
L 359.390834 -51.814593 
L 359.917701 -51.733003 
L 360.444567 -51.65216 
L 360.971434 -51.572057 
L 361.498301 -51.492688 
L 362.025168 -51.414048 
L 362.552035 -51.336129 
L 363.078902 -51.258926 
L 363.605769 -51.182433 
L 364.132636 -51.106643 
L 364.659503 -51.031551 
L 365.18637 -50.95715 
L 365.713237 -50.883435 
L 366.240104 -50.8104 
L 366.766971 -50.738039 
L 367.293838 -50.666345 
L 367.820705 -50.595315 
L 368.347572 -50.524941 
L 368.874439 -50.455218 
L 369.401306 -50.386141 
L 369.928173 -50.317703 
L 370.45504 -50.2499 
L 370.981907 -50.182726 
L 371.508773 -50.116175 
L 372.03564 -50.050242 
L 372.562507 -49.984922 
L 373.089374 -49.920209 
L 373.616241 -49.856098 
L 374.143108 -49.792584 
L 374.669975 -49.729662 
L 375.196842 -49.667326 
L 375.723709 -49.605571 
L 376.250576 -49.544393 
L 376.777443 -49.483786 
L 377.30431 -49.423745 
L 377.831177 -49.364266 
L 378.358044 -49.305343 
L 378.884911 -49.246971 
L 379.411778 -49.189146 
L 379.938645 -49.131863 
L 380.465512 -49.075117 
L 380.992379 -49.018903 
L 381.519246 -48.963216 
L 382.046113 -48.908053 
L 382.572979 -48.853408 
L 383.099846 -48.799277 
L 383.626713 -48.745655 
L 384.15358 -48.692538 
L 384.680447 -48.639921 
L 385.207314 -48.5878 
L 385.734181 -48.536171 
L 386.261048 -48.485028 
L 386.787915 -48.434368 
L 387.314782 -48.384187 
L 387.841649 -48.334479 
L 388.368516 -48.285242 
L 388.895383 -48.23647 
L 389.42225 -48.18816 
L 389.949117 -48.140308 
L 390.475984 -48.092908 
L 391.002851 -48.045958 
L 391.529718 -47.999454 
L 392.056585 -47.95339 
L 392.583452 -47.907764 
L 393.110319 -47.862572 
L 393.637185 -47.817809 
L 394.164052 -47.773471 
L 394.690919 -47.729556 
L 395.217786 -47.686058 
L 395.744653 -47.642975 
L 396.27152 -47.600302 
L 396.798387 -47.558036 
L 397.325254 -47.516173 
L 397.852121 -47.474709 
L 398.378988 -47.433642 
L 398.905855 -47.392966 
L 399.432722 -47.35268 
L 399.959589 -47.312778 
L 400.486456 -47.273259 
L 401.013323 -47.234117 
L 401.54019 -47.195351 
L 402.067057 -47.156956 
L 402.593924 -47.118928 
L 403.120791 -47.081266 
L 403.647658 -47.043965 
L 404.174525 -47.007021 
L 404.701391 -46.970433 
L 405.228258 -46.934196 
L 405.755125 -46.898308 
L 406.281992 -46.862764 
L 406.808859 -46.827563 
L 407.335726 -46.7927 
L 407.862593 -46.758173 
L 408.38946 -46.723979 
L 408.916327 -46.690114 
L 409.443194 -46.656576 
L 409.970061 -46.623362 
L 410.496928 -46.590468 
L 411.023795 -46.557892 
L 411.550662 -46.52563 
L 412.077529 -46.493681 
L 412.604396 -46.46204 
L 413.131263 -46.430705 
L 413.65813 -46.399674 
L 414.184997 -46.368943 
L 414.711864 -46.338509 
L 415.238731 -46.308371 
L 415.765598 -46.278525 
L 416.292464 -46.248968 
L 416.819331 -46.219698 
L 417.346198 -46.190713 
L 417.873065 -46.162009 
L 418.399932 -46.133583 
L 418.926799 -46.105434 
L 419.453666 -46.077559 
L 419.980533 -46.049955 
L 420.5074 -46.022619 
L 421.034267 -45.99555 
L 421.561134 -45.968745 
L 422.088001 -45.9422 
L 422.614868 -45.915915 
L 423.141735 -45.889885 
L 423.668602 -45.86411 
L 424.195469 -45.838587 
L 424.195469 -43.327969 
L 424.195469 -43.327969 
L 423.668602 -43.327969 
L 423.141735 -43.327969 
L 422.614868 -43.327969 
L 422.088001 -43.327969 
L 421.561134 -43.327969 
L 421.034267 -43.327969 
L 420.5074 -43.327969 
L 419.980533 -43.327969 
L 419.453666 -43.327969 
L 418.926799 -43.327969 
L 418.399932 -43.327969 
L 417.873065 -43.327969 
L 417.346198 -43.327969 
L 416.819331 -43.327969 
L 416.292464 -43.327969 
L 415.765598 -43.327969 
L 415.238731 -43.327969 
L 414.711864 -43.327969 
L 414.184997 -43.327969 
L 413.65813 -43.327969 
L 413.131263 -43.327969 
L 412.604396 -43.327969 
L 412.077529 -43.327969 
L 411.550662 -43.327969 
L 411.023795 -43.327969 
L 410.496928 -43.327969 
L 409.970061 -43.327969 
L 409.443194 -43.327969 
L 408.916327 -43.327969 
L 408.38946 -43.327969 
L 407.862593 -43.327969 
L 407.335726 -43.327969 
L 406.808859 -43.327969 
L 406.281992 -43.327969 
L 405.755125 -43.327969 
L 405.228258 -43.327969 
L 404.701391 -43.327969 
L 404.174525 -43.327969 
L 403.647658 -43.327969 
L 403.120791 -43.327969 
L 402.593924 -43.327969 
L 402.067057 -43.327969 
L 401.54019 -43.327969 
L 401.013323 -43.327969 
L 400.486456 -43.327969 
L 399.959589 -43.327969 
L 399.432722 -43.327969 
L 398.905855 -43.327969 
L 398.378988 -43.327969 
L 397.852121 -43.327969 
L 397.325254 -43.327969 
L 396.798387 -43.327969 
L 396.27152 -43.327969 
L 395.744653 -43.327969 
L 395.217786 -43.327969 
L 394.690919 -43.327969 
L 394.164052 -43.327969 
L 393.637185 -43.327969 
L 393.110319 -43.327969 
L 392.583452 -43.327969 
L 392.056585 -43.327969 
L 391.529718 -43.327969 
L 391.002851 -43.327969 
L 390.475984 -43.327969 
L 389.949117 -43.327969 
L 389.42225 -43.327969 
L 388.895383 -43.327969 
L 388.368516 -43.327969 
L 387.841649 -43.327969 
L 387.314782 -43.327969 
L 386.787915 -43.327969 
L 386.261048 -43.327969 
L 385.734181 -43.327969 
L 385.207314 -43.327969 
L 384.680447 -43.327969 
L 384.15358 -43.327969 
L 383.626713 -43.327969 
L 383.099846 -43.327969 
L 382.572979 -43.327969 
L 382.046113 -43.327969 
L 381.519246 -43.327969 
L 380.992379 -43.327969 
L 380.465512 -43.327969 
L 379.938645 -43.327969 
L 379.411778 -43.327969 
L 378.884911 -43.327969 
L 378.358044 -43.327969 
L 377.831177 -43.327969 
L 377.30431 -43.327969 
L 376.777443 -43.327969 
L 376.250576 -43.327969 
L 375.723709 -43.327969 
L 375.196842 -43.327969 
L 374.669975 -43.327969 
L 374.143108 -43.327969 
L 373.616241 -43.327969 
L 373.089374 -43.327969 
L 372.562507 -43.327969 
L 372.03564 -43.327969 
L 371.508773 -43.327969 
L 370.981907 -43.327969 
L 370.45504 -43.327969 
L 369.928173 -43.327969 
L 369.401306 -43.327969 
L 368.874439 -43.327969 
L 368.347572 -43.327969 
L 367.820705 -43.327969 
L 367.293838 -43.327969 
L 366.766971 -43.327969 
L 366.240104 -43.327969 
L 365.713237 -43.327969 
L 365.18637 -43.327969 
L 364.659503 -43.327969 
L 364.132636 -43.327969 
L 363.605769 -43.327969 
L 363.078902 -43.327969 
L 362.552035 -43.327969 
L 362.025168 -43.327969 
L 361.498301 -43.327969 
L 360.971434 -43.327969 
L 360.444567 -43.327969 
L 359.917701 -43.327969 
L 359.390834 -43.327969 
L 358.863967 -43.327969 
L 358.3371 -43.327969 
L 357.810233 -43.327969 
L 357.283366 -43.327969 
L 356.756499 -43.327969 
L 356.229632 -43.327969 
L 355.702765 -43.327969 
L 355.175898 -43.327969 
L 354.649031 -43.327969 
L 354.122164 -43.327969 
L 353.595297 -43.327969 
L 353.06843 -43.327969 
L 352.541563 -43.327969 
L 352.014696 -43.327969 
L 351.487829 -43.327969 
L 350.960962 -43.327969 
L 350.434095 -43.327969 
L 349.907228 -43.327969 
L 349.380361 -43.327969 
L 348.853495 -43.327969 
L 348.326628 -43.327969 
L 347.799761 -43.327969 
L 347.272894 -43.327969 
L 346.746027 -43.327969 
L 346.21916 -43.327969 
L 345.692293 -43.327969 
L 345.165426 -43.327969 
L 344.638559 -43.327969 
L 344.111692 -43.327969 
L 343.584825 -43.327969 
L 343.057958 -43.327969 
L 342.531091 -43.327969 
L 342.004224 -43.327969 
L 341.477357 -43.327969 
L 340.95049 -43.327969 
L 340.423623 -43.327969 
L 339.896756 -43.327969 
L 339.369889 -43.327969 
L 338.843022 -43.327969 
L 338.316155 -43.327969 
L 337.789288 -43.327969 
L 337.262422 -43.327969 
L 336.735555 -43.327969 
L 336.208688 -43.327969 
L 335.681821 -43.327969 
L 335.154954 -43.327969 
L 334.628087 -43.327969 
L 334.10122 -43.327969 
L 333.574353 -43.327969 
L 333.047486 -43.327969 
L 332.520619 -43.327969 
L 331.993752 -43.327969 
L 331.466885 -43.327969 
L 330.940018 -43.327969 
L 330.413151 -43.327969 
L 329.886284 -43.327969 
L 329.359417 -43.327969 
L 328.83255 -43.327969 
L 328.305683 -43.327969 
L 327.778816 -43.327969 
L 327.251949 -43.327969 
L 326.725082 -43.327969 
L 326.198216 -43.327969 
L 325.671349 -43.327969 
L 325.144482 -43.327969 
L 324.617615 -43.327969 
L 324.090748 -43.327969 
L 323.563881 -43.327969 
L 323.037014 -43.327969 
L 322.510147 -43.327969 
L 321.98328 -43.327969 
L 321.456413 -43.327969 
L 320.929546 -43.327969 
L 320.402679 -43.327969 
L 319.875812 -43.327969 
L 319.348945 -43.327969 
L 318.822078 -43.327969 
L 318.295211 -43.327969 
L 317.768344 -43.327969 
L 317.241477 -43.327969 
L 316.71461 -43.327969 
L 316.187743 -43.327969 
L 315.660876 -43.327969 
L 315.13401 -43.327969 
L 314.607143 -43.327969 
L 314.080276 -43.327969 
L 313.553409 -43.327969 
L 313.026542 -43.327969 
L 312.499675 -43.327969 
L 311.972808 -43.327969 
L 311.445941 -43.327969 
L 310.919074 -43.327969 
L 310.392207 -43.327969 
L 309.86534 -43.327969 
L 309.338473 -43.327969 
L 308.811606 -43.327969 
L 308.284739 -43.327969 
L 307.757872 -43.327969 
L 307.231005 -43.327969 
L 306.704138 -43.327969 
L 306.177271 -43.327969 
L 305.650404 -43.327969 
L 305.123537 -43.327969 
L 304.59667 -43.327969 
L 304.069804 -43.327969 
L 303.542937 -43.327969 
L 303.01607 -43.327969 
L 302.489203 -43.327969 
L 301.962336 -43.327969 
L 301.435469 -43.327969 
L 300.908602 -43.327969 
L 300.381735 -43.327969 
L 299.854868 -43.327969 
L 299.328001 -43.327969 
L 298.801134 -43.327969 
L 298.274267 -43.327969 
L 297.7474 -43.327969 
L 297.220533 -43.327969 
L 296.693666 -43.327969 
L 296.166799 -43.327969 
L 295.639932 -43.327969 
L 295.113065 -43.327969 
L 294.586198 -43.327969 
L 294.059331 -43.327969 
L 293.532464 -43.327969 
L 293.005598 -43.327969 
L 292.478731 -43.327969 
L 291.951864 -43.327969 
L 291.424997 -43.327969 
L 290.89813 -43.327969 
L 290.371263 -43.327969 
L 289.844396 -43.327969 
L 289.317529 -43.327969 
L 288.790662 -43.327969 
L 288.263795 -43.327969 
L 287.736928 -43.327969 
L 287.210061 -43.327969 
L 286.683194 -43.327969 
L 286.156327 -43.327969 
L 285.62946 -43.327969 
L 285.102593 -43.327969 
L 284.575726 -43.327969 
L 284.048859 -43.327969 
L 283.521992 -43.327969 
L 282.995125 -43.327969 
L 282.468258 -43.327969 
L 281.941391 -43.327969 
L 281.414525 -43.327969 
L 280.887658 -43.327969 
L 280.360791 -43.327969 
L 279.833924 -43.327969 
L 279.307057 -43.327969 
L 278.78019 -43.327969 
L 278.253323 -43.327969 
L 277.726456 -43.327969 
L 277.199589 -43.327969 
L 276.672722 -43.327969 
L 276.145855 -43.327969 
L 275.618988 -43.327969 
L 275.092121 -43.327969 
L 274.565254 -43.327969 
L 274.038387 -43.327969 
L 273.51152 -43.327969 
L 272.984653 -43.327969 
L 272.457786 -43.327969 
L 271.930919 -43.327969 
L 271.404052 -43.327969 
L 270.877185 -43.327969 
L 270.350319 -43.327969 
L 269.823452 -43.327969 
L 269.296585 -43.327969 
L 268.769718 -43.327969 
L 268.242851 -43.327969 
L 267.715984 -43.327969 
L 267.189117 -43.327969 
L 266.66225 -43.327969 
L 266.135383 -43.327969 
L 265.608516 -43.327969 
L 265.081649 -43.327969 
L 264.554782 -43.327969 
L 264.027915 -43.327969 
L 263.501048 -43.327969 
L 262.974181 -43.327969 
L 262.447314 -43.327969 
L 261.920447 -43.327969 
L 261.39358 -43.327969 
L 260.866713 -43.327969 
L 260.339846 -43.327969 
L 259.812979 -43.327969 
L 259.286113 -43.327969 
L 258.759246 -43.327969 
L 258.232379 -43.327969 
L 257.705512 -43.327969 
L 257.178645 -43.327969 
L 256.651778 -43.327969 
L 256.124911 -43.327969 
L 255.598044 -43.327969 
L 255.071177 -43.327969 
L 254.54431 -43.327969 
L 254.017443 -43.327969 
L 253.490576 -43.327969 
L 252.963709 -43.327969 
L 252.436842 -43.327969 
L 251.909975 -43.327969 
L 251.383108 -43.327969 
L 250.856241 -43.327969 
L 250.329374 -43.327969 
L 249.802507 -43.327969 
L 249.27564 -43.327969 
L 248.748773 -43.327969 
L 248.221907 -43.327969 
L 247.69504 -43.327969 
L 247.168173 -43.327969 
L 246.641306 -43.327969 
L 246.114439 -43.327969 
L 245.587572 -43.327969 
L 245.060705 -43.327969 
L 244.533838 -43.327969 
L 244.006971 -43.327969 
L 243.480104 -43.327969 
L 242.953237 -43.327969 
L 242.42637 -43.327969 
L 241.899503 -43.327969 
L 241.372636 -43.327969 
L 240.845769 -43.327969 
L 240.318902 -43.327969 
L 239.792035 -43.327969 
L 239.265168 -43.327969 
L 238.738301 -43.327969 
L 238.211434 -43.327969 
L 237.684567 -43.327969 
L 237.157701 -43.327969 
L 236.630834 -43.327969 
L 236.103967 -43.327969 
L 235.5771 -43.327969 
L 235.050233 -43.327969 
L 234.523366 -43.327969 
L 233.996499 -43.327969 
L 233.469632 -43.327969 
L 232.942765 -43.327969 
L 232.415898 -43.327969 
L 231.889031 -43.327969 
L 231.362164 -43.327969 
L 230.835297 -43.327969 
L 230.30843 -43.327969 
L 229.781563 -43.327969 
L 229.254696 -43.327969 
L 228.727829 -43.327969 
L 228.200962 -43.327969 
L 227.674095 -43.327969 
L 227.147228 -43.327969 
L 226.620361 -43.327969 
L 226.093495 -43.327969 
L 225.566628 -43.327969 
L 225.039761 -43.327969 
L 224.512894 -43.327969 
L 223.986027 -43.327969 
L 223.45916 -43.327969 
L 222.932293 -43.327969 
L 222.405426 -43.327969 
L 221.878559 -43.327969 
L 221.351692 -43.327969 
L 220.824825 -43.327969 
L 220.297958 -43.327969 
L 219.771091 -43.327969 
L 219.244224 -43.327969 
L 218.717357 -43.327969 
L 218.19049 -43.327969 
L 217.663623 -43.327969 
L 217.136756 -43.327969 
L 216.609889 -43.327969 
L 216.083022 -43.327969 
L 215.556155 -43.327969 
L 215.029288 -43.327969 
L 214.502422 -43.327969 
L 213.975555 -43.327969 
L 213.448688 -43.327969 
L 212.921821 -43.327969 
L 212.394954 -43.327969 
L 211.868087 -43.327969 
L 211.34122 -43.327969 
L 210.814353 -43.327969 
L 210.287486 -43.327969 
L 209.760619 -43.327969 
L 209.233752 -43.327969 
L 208.706885 -43.327969 
L 208.180018 -43.327969 
L 207.653151 -43.327969 
L 207.126284 -43.327969 
L 206.599417 -43.327969 
L 206.07255 -43.327969 
L 205.545683 -43.327969 
L 205.018816 -43.327969 
L 204.491949 -43.327969 
L 203.965082 -43.327969 
L 203.438216 -43.327969 
L 202.911349 -43.327969 
L 202.384482 -43.327969 
L 201.857615 -43.327969 
L 201.330748 -43.327969 
L 200.803881 -43.327969 
L 200.277014 -43.327969 
L 199.750147 -43.327969 
L 199.22328 -43.327969 
L 198.696413 -43.327969 
L 198.169546 -43.327969 
L 197.642679 -43.327969 
L 197.115812 -43.327969 
L 196.588945 -43.327969 
L 196.062078 -43.327969 
L 195.535211 -43.327969 
L 195.008344 -43.327969 
L 194.481477 -43.327969 
L 193.95461 -43.327969 
L 193.427743 -43.327969 
L 192.900876 -43.327969 
L 192.37401 -43.327969 
L 191.847143 -43.327969 
L 191.320276 -43.327969 
L 190.793409 -43.327969 
L 190.266542 -43.327969 
L 189.739675 -43.327969 
L 189.212808 -43.327969 
L 188.685941 -43.327969 
L 188.159074 -43.327969 
L 187.632207 -43.327969 
L 187.10534 -43.327969 
L 186.578473 -43.327969 
L 186.051606 -43.327969 
L 185.524739 -43.327969 
L 184.997872 -43.327969 
L 184.471005 -43.327969 
L 183.944138 -43.327969 
L 183.417271 -43.327969 
L 182.890404 -43.327969 
L 182.363537 -43.327969 
L 181.83667 -43.327969 
L 181.309804 -43.327969 
L 180.782937 -43.327969 
L 180.25607 -43.327969 
L 179.729203 -43.327969 
L 179.202336 -43.327969 
L 178.675469 -43.327969 
L 178.148602 -43.327969 
L 177.621735 -43.327969 
L 177.094868 -43.327969 
L 176.568001 -43.327969 
L 176.041134 -43.327969 
L 175.514267 -43.327969 
L 174.9874 -43.327969 
L 174.460533 -43.327969 
L 173.933666 -43.327969 
L 173.406799 -43.327969 
L 172.879932 -43.327969 
L 172.353065 -43.327969 
L 171.826198 -43.327969 
L 171.299331 -43.327969 
L 170.772464 -43.327969 
L 170.245598 -43.327969 
L 169.718731 -43.327969 
L 169.191864 -43.327969 
L 168.664997 -43.327969 
L 168.13813 -43.327969 
L 167.611263 -43.327969 
L 167.084396 -43.327969 
L 166.557529 -43.327969 
L 166.030662 -43.327969 
L 165.503795 -43.327969 
L 164.976928 -43.327969 
L 164.450061 -43.327969 
L 163.923194 -43.327969 
L 163.396327 -43.327969 
L 162.86946 -43.327969 
L 162.342593 -43.327969 
L 161.815726 -43.327969 
L 161.288859 -43.327969 
L 160.761992 -43.327969 
L 160.235125 -43.327969 
L 159.708258 -43.327969 
L 159.181391 -43.327969 
L 158.654525 -43.327969 
L 158.127658 -43.327969 
L 157.600791 -43.327969 
L 157.073924 -43.327969 
L 156.547057 -43.327969 
L 156.02019 -43.327969 
L 155.493323 -43.327969 
L 154.966456 -43.327969 
L 154.439589 -43.327969 
L 153.912722 -43.327969 
L 153.385855 -43.327969 
L 152.858988 -43.327969 
L 152.332121 -43.327969 
L 151.805254 -43.327969 
L 151.278387 -43.327969 
L 150.75152 -43.327969 
L 150.224653 -43.327969 
L 149.697786 -43.327969 
L 149.170919 -43.327969 
L 148.644052 -43.327969 
L 148.117185 -43.327969 
L 147.590319 -43.327969 
L 147.063452 -43.327969 
L 146.536585 -43.327969 
L 146.009718 -43.327969 
L 145.482851 -43.327969 
L 144.955984 -43.327969 
L 144.429117 -43.327969 
L 143.90225 -43.327969 
L 143.375383 -43.327969 
L 142.848516 -43.327969 
L 142.321649 -43.327969 
L 141.794782 -43.327969 
L 141.267915 -43.327969 
L 140.741048 -43.327969 
L 140.214181 -43.327969 
L 139.687314 -43.327969 
L 139.160447 -43.327969 
L 138.63358 -43.327969 
L 138.106713 -43.327969 
L 137.579846 -43.327969 
L 137.052979 -43.327969 
L 136.526113 -43.327969 
L 135.999246 -43.327969 
L 135.472379 -43.327969 
L 134.945512 -43.327969 
L 134.418645 -43.327969 
L 133.891778 -43.327969 
L 133.364911 -43.327969 
L 132.838044 -43.327969 
L 132.311177 -43.327969 
L 131.78431 -43.327969 
L 131.257443 -43.327969 
L 130.730576 -43.327969 
L 130.203709 -43.327969 
L 129.676842 -43.327969 
L 129.149975 -43.327969 
L 128.623108 -43.327969 
L 128.096241 -43.327969 
L 127.569374 -43.327969 
L 127.042507 -43.327969 
L 126.51564 -43.327969 
L 125.988773 -43.327969 
L 125.461907 -43.327969 
L 124.93504 -43.327969 
L 124.408173 -43.327969 
L 123.881306 -43.327969 
L 123.354439 -43.327969 
L 122.827572 -43.327969 
L 122.300705 -43.327969 
L 121.773838 -43.327969 
L 121.246971 -43.327969 
L 120.720104 -43.327969 
L 120.193237 -43.327969 
L 119.66637 -43.327969 
L 119.139503 -43.327969 
L 118.612636 -43.327969 
L 118.085769 -43.327969 
L 117.558902 -43.327969 
L 117.032035 -43.327969 
L 116.505168 -43.327969 
L 115.978301 -43.327969 
L 115.451434 -43.327969 
L 114.924567 -43.327969 
L 114.397701 -43.327969 
L 113.870834 -43.327969 
L 113.343967 -43.327969 
L 112.8171 -43.327969 
L 112.290233 -43.327969 
L 111.763366 -43.327969 
L 111.236499 -43.327969 
L 110.709632 -43.327969 
L 110.182765 -43.327969 
L 109.655898 -43.327969 
L 109.129031 -43.327969 
L 108.602164 -43.327969 
L 108.075297 -43.327969 
L 107.54843 -43.327969 
L 107.021563 -43.327969 
L 106.494696 -43.327969 
L 105.967829 -43.327969 
L 105.440962 -43.327969 
L 104.914095 -43.327969 
L 104.387228 -43.327969 
L 103.860361 -43.327969 
L 103.333495 -43.327969 
L 102.806628 -43.327969 
L 102.279761 -43.327969 
L 101.752894 -43.327969 
L 101.226027 -43.327969 
L 100.69916 -43.327969 
L 100.172293 -43.327969 
L 99.645426 -43.327969 
L 99.118559 -43.327969 
L 98.591692 -43.327969 
L 98.064825 -43.327969 
L 97.537958 -43.327969 
L 97.011091 -43.327969 
L 96.484224 -43.327969 
L 95.957357 -43.327969 
L 95.43049 -43.327969 
L 94.903623 -43.327969 
L 94.376756 -43.327969 
L 93.849889 -43.327969 
L 93.323022 -43.327969 
L 92.796155 -43.327969 
L 92.269288 -43.327969 
L 91.742422 -43.327969 
L 91.215555 -43.327969 
L 90.688688 -43.327969 
L 90.161821 -43.327969 
L 89.634954 -43.327969 
L 89.108087 -43.327969 
L 88.58122 -43.327969 
L 88.054353 -43.327969 
L 87.527486 -43.327969 
L 87.000619 -43.327969 
L 86.473752 -43.327969 
L 85.946885 -43.327969 
L 85.420018 -43.327969 
L 84.893151 -43.327969 
L 84.366284 -43.327969 
L 83.839417 -43.327969 
L 83.31255 -43.327969 
L 82.785683 -43.327969 
L 82.258816 -43.327969 
L 81.731949 -43.327969 
L 81.205082 -43.327969 
L 80.678216 -43.327969 
L 80.151349 -43.327969 
L 79.624482 -43.327969 
L 79.097615 -43.327969 
L 78.570748 -43.327969 
L 78.043881 -43.327969 
L 77.517014 -43.327969 
L 76.990147 -43.327969 
L 76.46328 -43.327969 
L 75.936413 -43.327969 
L 75.409546 -43.327969 
L 74.882679 -43.327969 
L 74.355812 -43.327969 
L 73.828945 -43.327969 
L 73.302078 -43.327969 
L 72.775211 -43.327969 
L 72.248344 -43.327969 
L 71.721477 -43.327969 
L 71.19461 -43.327969 
L 70.667743 -43.327969 
L 70.140876 -43.327969 
L 69.61401 -43.327969 
L 69.087143 -43.327969 
L 68.560276 -43.327969 
L 68.033409 -43.327969 
L 67.506542 -43.327969 
L 66.979675 -43.327969 
L 66.452808 -43.327969 
L 65.925941 -43.327969 
L 65.399074 -43.327969 
L 64.872207 -43.327969 
L 64.34534 -43.327969 
L 63.818473 -43.327969 
L 63.291606 -43.327969 
L 62.764739 -43.327969 
L 62.237872 -43.327969 
L 61.711005 -43.327969 
L 61.184138 -43.327969 
L 60.657271 -43.327969 
L 60.130404 -43.327969 
L 59.603537 -43.327969 
L 59.07667 -43.327969 
L 58.549804 -43.327969 
L 58.022937 -43.327969 
L 57.49607 -43.327969 
L 56.969203 -43.327969 
L 56.442336 -43.327969 
L 55.915469 -43.327969 
z
" style="stroke: #2980b9; stroke-opacity: 0.18"/>
    </defs>
    <g clip-path="url(#pe4b44c73cb)">
     <use xlink:href="#m129f8d1d9b" x="0" y="302.029937" style="fill: #2980b9; fill-opacity: 0.18; stroke: #2980b9; stroke-opacity: 0.18"/>
    </g>
   </g>
   <g id="patch_3">
    <path d="M 55.915469 258.701969 
L 55.915469 31.397969 
" style="fill: none; stroke: #2c3e50; stroke-width: 1.2; stroke-linejoin: miter; stroke-linecap: square"/>
   </g>
   <g id="patch_4">
    <path d="M 55.915469 258.701969 
L 424.195469 258.701969 
" style="fill: none; stroke: #2c3e50; stroke-width: 1.2; stroke-linejoin: miter; stroke-linecap: square"/>
   </g>
   <g id="patch_5">
    <path d="M 207.088702 72.61532 
Q 186.156381 79.662029 166.495584 86.28069 
" style="fill: none; stroke: #c0392b; stroke-width: 1.2; stroke-linecap: round"/>
    <path d="M 171.36754 86.961898 
L 166.495584 86.28069 
L 169.963724 82.79185 
" style="fill: none; stroke: #c0392b; stroke-width: 1.2; stroke-linecap: round"/>
   </g>
   <g id="text_15">
    <!-- $E[X]=3.50$ -->
    <g style="fill: #c0392b" transform="translate(200.158469 67.689115) scale(0.11 -0.11)">
     <defs>
      <path id="DejaVuSans-Oblique-45" d="M 1081 4666 
L 4031 4666 
L 3928 4134 
L 1606 4134 
L 1338 2753 
L 3566 2753 
L 3463 2222 
L 1234 2222 
L 909 531 
L 3284 531 
L 3181 0 
L 172 0 
L 1081 4666 
z
" transform="scale(0.015625)"/>
      <path id="DejaVuSans-5b" d="M 550 4863 
L 1875 4863 
L 1875 4416 
L 1125 4416 
L 1125 -397 
L 1875 -397 
L 1875 -844 
L 550 -844 
L 550 4863 
z
" transform="scale(0.015625)"/>
      <path id="DejaVuSans-5d" d="M 1947 4863 
L 1947 -844 
L 622 -844 
L 622 -397 
L 1369 -397 
L 1369 4416 
L 622 4416 
L 622 4863 
L 1947 4863 
z
" transform="scale(0.015625)"/>
      <path id="DejaVuSans-3d" d="M 678 2906 
L 4684 2906 
L 4684 2381 
L 678 2381 
L 678 2906 
z
M 678 1631 
L 4684 1631 
L 4684 1100 
L 678 1100 
L 678 1631 
z
" transform="scale(0.015625)"/>
      <path id="DejaVuSans-33" d="M 2597 2516 
Q 3050 2419 3304 2112 
Q 3559 1806 3559 1356 
Q 3559 666 3084 287 
Q 2609 -91 1734 -91 
Q 1441 -91 1130 -33 
Q 819 25 488 141 
L 488 750 
Q 750 597 1062 519 
Q 1375 441 1716 441 
Q 2309 441 2620 675 
Q 2931 909 2931 1356 
Q 2931 1769 2642 2001 
Q 2353 2234 1838 2234 
L 1294 2234 
L 1294 2753 
L 1863 2753 
Q 2328 2753 2575 2939 
Q 2822 3125 2822 3475 
Q 2822 3834 2567 4026 
Q 2313 4219 1838 4219 
Q 1578 4219 1281 4162 
Q 984 4106 628 3988 
L 628 4550 
Q 988 4650 1302 4700 
Q 1616 4750 1894 4750 
Q 2613 4750 3031 4423 
Q 3450 4097 3450 3541 
Q 3450 3153 3228 2886 
Q 3006 2619 2597 2516 
z
" transform="scale(0.015625)"/>
     </defs>
     <use xlink:href="#DejaVuSans-Oblique-45" transform="translate(0 0.015625)"/>
     <use xlink:href="#DejaVuSans-5b" transform="translate(63.183594 0.015625)"/>
     <use xlink:href="#DejaVuSans-Oblique-58" transform="translate(102.197266 0.015625)"/>
     <use xlink:href="#DejaVuSans-5d" transform="translate(170.703125 0.015625)"/>
     <use xlink:href="#DejaVuSans-3d" transform="translate(229.199219 0.015625)"/>
     <use xlink:href="#DejaVuSans-33" transform="translate(332.470703 0.015625)"/>
     <use xlink:href="#DejaVuSans-2e" transform="translate(396.09375 0.015625)"/>
     <use xlink:href="#DejaVuSans-35" transform="translate(427.880859 0.015625)"/>
     <use xlink:href="#DejaVuSans-30" transform="translate(491.503906 0.015625)"/>
    </g>
   </g>
   <g id="text_16">
    <!-- $E[X]$ = centro de masa de la distribución -->
    <g transform="translate(93.545469 21.397969) scale(0.13 -0.13)">
     <defs>
      <path id="DejaVuSans-Bold-20" transform="scale(0.015625)"/>
      <path id="DejaVuSans-Bold-3d" d="M 678 3084 
L 4684 3084 
L 4684 2350 
L 678 2350 
L 678 3084 
z
M 678 1663 
L 4684 1663 
L 4684 922 
L 678 922 
L 678 1663 
z
" transform="scale(0.015625)"/>
      <path id="DejaVuSans-Bold-63" d="M 3366 3391 
L 3366 2478 
Q 3138 2634 2908 2709 
Q 2678 2784 2431 2784 
Q 1963 2784 1702 2511 
Q 1441 2238 1441 1747 
Q 1441 1256 1702 982 
Q 1963 709 2431 709 
Q 2694 709 2930 787 
Q 3166 866 3366 1019 
L 3366 103 
Q 3103 6 2833 -42 
Q 2563 -91 2291 -91 
Q 1344 -91 809 395 
Q 275 881 275 1747 
Q 275 2613 809 3098 
Q 1344 3584 2291 3584 
Q 2566 3584 2833 3536 
Q 3100 3488 3366 3391 
z
" transform="scale(0.015625)"/>
      <path id="DejaVuSans-Bold-65" d="M 4031 1759 
L 4031 1441 
L 1416 1441 
Q 1456 1047 1700 850 
Q 1944 653 2381 653 
Q 2734 653 3104 758 
Q 3475 863 3866 1075 
L 3866 213 
Q 3469 63 3072 -14 
Q 2675 -91 2278 -91 
Q 1328 -91 801 392 
Q 275 875 275 1747 
Q 275 2603 792 3093 
Q 1309 3584 2216 3584 
Q 3041 3584 3536 3087 
Q 4031 2591 4031 1759 
z
M 2881 2131 
Q 2881 2450 2695 2645 
Q 2509 2841 2209 2841 
Q 1884 2841 1681 2658 
Q 1478 2475 1428 2131 
L 2881 2131 
z
" transform="scale(0.015625)"/>
      <path id="DejaVuSans-Bold-6e" d="M 4056 2131 
L 4056 0 
L 2931 0 
L 2931 347 
L 2931 1631 
Q 2931 2084 2911 2256 
Q 2891 2428 2841 2509 
Q 2775 2619 2662 2680 
Q 2550 2741 2406 2741 
Q 2056 2741 1856 2470 
Q 1656 2200 1656 1722 
L 1656 0 
L 538 0 
L 538 3500 
L 1656 3500 
L 1656 2988 
Q 1909 3294 2193 3439 
Q 2478 3584 2822 3584 
Q 3428 3584 3742 3212 
Q 4056 2841 4056 2131 
z
" transform="scale(0.015625)"/>
      <path id="DejaVuSans-Bold-74" d="M 1759 4494 
L 1759 3500 
L 2913 3500 
L 2913 2700 
L 1759 2700 
L 1759 1216 
Q 1759 972 1856 886 
Q 1953 800 2241 800 
L 2816 800 
L 2816 0 
L 1856 0 
Q 1194 0 917 276 
Q 641 553 641 1216 
L 641 2700 
L 84 2700 
L 84 3500 
L 641 3500 
L 641 4494 
L 1759 4494 
z
" transform="scale(0.015625)"/>
      <path id="DejaVuSans-Bold-72" d="M 3138 2547 
Q 2991 2616 2845 2648 
Q 2700 2681 2553 2681 
Q 2122 2681 1889 2404 
Q 1656 2128 1656 1613 
L 1656 0 
L 538 0 
L 538 3500 
L 1656 3500 
L 1656 2925 
Q 1872 3269 2151 3426 
Q 2431 3584 2822 3584 
Q 2878 3584 2943 3579 
Q 3009 3575 3134 3559 
L 3138 2547 
z
" transform="scale(0.015625)"/>
      <path id="DejaVuSans-Bold-6f" d="M 2203 2784 
Q 1831 2784 1636 2517 
Q 1441 2250 1441 1747 
Q 1441 1244 1636 976 
Q 1831 709 2203 709 
Q 2569 709 2762 976 
Q 2956 1244 2956 1747 
Q 2956 2250 2762 2517 
Q 2569 2784 2203 2784 
z
M 2203 3584 
Q 3106 3584 3614 3096 
Q 4122 2609 4122 1747 
Q 4122 884 3614 396 
Q 3106 -91 2203 -91 
Q 1297 -91 786 396 
Q 275 884 275 1747 
Q 275 2609 786 3096 
Q 1297 3584 2203 3584 
z
" transform="scale(0.015625)"/>
      <path id="DejaVuSans-Bold-64" d="M 2919 2988 
L 2919 4863 
L 4044 4863 
L 4044 0 
L 2919 0 
L 2919 506 
Q 2688 197 2409 53 
Q 2131 -91 1766 -91 
Q 1119 -91 703 423 
Q 288 938 288 1747 
Q 288 2556 703 3070 
Q 1119 3584 1766 3584 
Q 2128 3584 2408 3439 
Q 2688 3294 2919 2988 
z
M 2181 722 
Q 2541 722 2730 984 
Q 2919 1247 2919 1747 
Q 2919 2247 2730 2509 
Q 2541 2772 2181 2772 
Q 1825 2772 1636 2509 
Q 1447 2247 1447 1747 
Q 1447 1247 1636 984 
Q 1825 722 2181 722 
z
" transform="scale(0.015625)"/>
      <path id="DejaVuSans-Bold-6d" d="M 3781 2919 
Q 3994 3244 4286 3414 
Q 4578 3584 4928 3584 
Q 5531 3584 5847 3212 
Q 6163 2841 6163 2131 
L 6163 0 
L 5038 0 
L 5038 1825 
Q 5041 1866 5042 1909 
Q 5044 1953 5044 2034 
Q 5044 2406 4934 2573 
Q 4825 2741 4581 2741 
Q 4263 2741 4089 2478 
Q 3916 2216 3909 1719 
L 3909 0 
L 2784 0 
L 2784 1825 
Q 2784 2406 2684 2573 
Q 2584 2741 2328 2741 
Q 2006 2741 1831 2477 
Q 1656 2213 1656 1722 
L 1656 0 
L 531 0 
L 531 3500 
L 1656 3500 
L 1656 2988 
Q 1863 3284 2130 3434 
Q 2397 3584 2719 3584 
Q 3081 3584 3359 3409 
Q 3638 3234 3781 2919 
z
" transform="scale(0.015625)"/>
      <path id="DejaVuSans-Bold-61" d="M 2106 1575 
Q 1756 1575 1579 1456 
Q 1403 1338 1403 1106 
Q 1403 894 1545 773 
Q 1688 653 1941 653 
Q 2256 653 2472 879 
Q 2688 1106 2688 1447 
L 2688 1575 
L 2106 1575 
z
M 3816 1997 
L 3816 0 
L 2688 0 
L 2688 519 
Q 2463 200 2181 54 
Q 1900 -91 1497 -91 
Q 953 -91 614 226 
Q 275 544 275 1050 
Q 275 1666 698 1953 
Q 1122 2241 2028 2241 
L 2688 2241 
L 2688 2328 
Q 2688 2594 2478 2717 
Q 2269 2841 1825 2841 
Q 1466 2841 1156 2769 
Q 847 2697 581 2553 
L 581 3406 
Q 941 3494 1303 3539 
Q 1666 3584 2028 3584 
Q 2975 3584 3395 3211 
Q 3816 2838 3816 1997 
z
" transform="scale(0.015625)"/>
      <path id="DejaVuSans-Bold-73" d="M 3272 3391 
L 3272 2541 
Q 2913 2691 2578 2766 
Q 2244 2841 1947 2841 
Q 1628 2841 1473 2761 
Q 1319 2681 1319 2516 
Q 1319 2381 1436 2309 
Q 1553 2238 1856 2203 
L 2053 2175 
Q 2913 2066 3209 1816 
Q 3506 1566 3506 1031 
Q 3506 472 3093 190 
Q 2681 -91 1863 -91 
Q 1516 -91 1145 -36 
Q 775 19 384 128 
L 384 978 
Q 719 816 1070 734 
Q 1422 653 1784 653 
Q 2113 653 2278 743 
Q 2444 834 2444 1013 
Q 2444 1163 2330 1236 
Q 2216 1309 1875 1350 
L 1678 1375 
Q 931 1469 631 1722 
Q 331 1975 331 2491 
Q 331 3047 712 3315 
Q 1094 3584 1881 3584 
Q 2191 3584 2531 3537 
Q 2872 3491 3272 3391 
z
" transform="scale(0.015625)"/>
      <path id="DejaVuSans-Bold-6c" d="M 538 4863 
L 1656 4863 
L 1656 0 
L 538 0 
L 538 4863 
z
" transform="scale(0.015625)"/>
      <path id="DejaVuSans-Bold-69" d="M 538 3500 
L 1656 3500 
L 1656 0 
L 538 0 
L 538 3500 
z
M 538 4863 
L 1656 4863 
L 1656 3950 
L 538 3950 
L 538 4863 
z
" transform="scale(0.015625)"/>
      <path id="DejaVuSans-Bold-62" d="M 2400 722 
Q 2759 722 2948 984 
Q 3138 1247 3138 1747 
Q 3138 2247 2948 2509 
Q 2759 2772 2400 2772 
Q 2041 2772 1848 2508 
Q 1656 2244 1656 1747 
Q 1656 1250 1848 986 
Q 2041 722 2400 722 
z
M 1656 2988 
Q 1888 3294 2169 3439 
Q 2450 3584 2816 3584 
Q 3463 3584 3878 3070 
Q 4294 2556 4294 1747 
Q 4294 938 3878 423 
Q 3463 -91 2816 -91 
Q 2450 -91 2169 54 
Q 1888 200 1656 506 
L 1656 0 
L 538 0 
L 538 4863 
L 1656 4863 
L 1656 2988 
z
" transform="scale(0.015625)"/>
      <path id="DejaVuSans-Bold-75" d="M 500 1363 
L 500 3500 
L 1625 3500 
L 1625 3150 
Q 1625 2866 1622 2436 
Q 1619 2006 1619 1863 
Q 1619 1441 1641 1255 
Q 1663 1069 1716 984 
Q 1784 875 1895 815 
Q 2006 756 2150 756 
Q 2500 756 2700 1025 
Q 2900 1294 2900 1772 
L 2900 3500 
L 4019 3500 
L 4019 0 
L 2900 0 
L 2900 506 
Q 2647 200 2364 54 
Q 2081 -91 1741 -91 
Q 1134 -91 817 281 
Q 500 653 500 1363 
z
" transform="scale(0.015625)"/>
      <path id="DejaVuSans-Bold-f3" d="M 2203 2784 
Q 1831 2784 1636 2517 
Q 1441 2250 1441 1747 
Q 1441 1244 1636 976 
Q 1831 709 2203 709 
Q 2569 709 2762 976 
Q 2956 1244 2956 1747 
Q 2956 2250 2762 2517 
Q 2569 2784 2203 2784 
z
M 2203 3584 
Q 3106 3584 3614 3096 
Q 4122 2609 4122 1747 
Q 4122 884 3614 396 
Q 3106 -91 2203 -91 
Q 1297 -91 786 396 
Q 275 884 275 1747 
Q 275 2609 786 3096 
Q 1297 3584 2203 3584 
z
M 2694 5119 
L 3578 5119 
L 2425 3944 
L 1813 3944 
L 2694 5119 
z
" transform="scale(0.015625)"/>
     </defs>
     <use xlink:href="#DejaVuSans-Oblique-45" transform="translate(0 0.015625)"/>
     <use xlink:href="#DejaVuSans-5b" transform="translate(63.183594 0.015625)"/>
     <use xlink:href="#DejaVuSans-Oblique-58" transform="translate(102.197266 0.015625)"/>
     <use xlink:href="#DejaVuSans-5d" transform="translate(170.703125 0.015625)"/>
     <use xlink:href="#DejaVuSans-Bold-20" transform="translate(209.716797 0.015625)"/>
     <use xlink:href="#DejaVuSans-Bold-3d" transform="translate(244.53125 0.015625)"/>
     <use xlink:href="#DejaVuSans-Bold-20" transform="translate(328.320312 0.015625)"/>
     <use xlink:href="#DejaVuSans-Bold-63" transform="translate(363.134766 0.015625)"/>
     <use xlink:href="#DejaVuSans-Bold-65" transform="translate(422.412109 0.015625)"/>
     <use xlink:href="#DejaVuSans-Bold-6e" transform="translate(490.234375 0.015625)"/>
     <use xlink:href="#DejaVuSans-Bold-74" transform="translate(561.425781 0.015625)"/>
     <use xlink:href="#DejaVuSans-Bold-72" transform="translate(609.228516 0.015625)"/>
     <use xlink:href="#DejaVuSans-Bold-6f" transform="translate(658.544922 0.015625)"/>
     <use xlink:href="#DejaVuSans-Bold-20" transform="translate(727.246094 0.015625)"/>
     <use xlink:href="#DejaVuSans-Bold-64" transform="translate(762.060547 0.015625)"/>
     <use xlink:href="#DejaVuSans-Bold-65" transform="translate(833.642578 0.015625)"/>
     <use xlink:href="#DejaVuSans-Bold-20" transform="translate(901.464844 0.015625)"/>
     <use xlink:href="#DejaVuSans-Bold-6d" transform="translate(936.279297 0.015625)"/>
     <use xlink:href="#DejaVuSans-Bold-61" transform="translate(1040.478516 0.015625)"/>
     <use xlink:href="#DejaVuSans-Bold-73" transform="translate(1107.958984 0.015625)"/>
     <use xlink:href="#DejaVuSans-Bold-61" transform="translate(1167.480469 0.015625)"/>
     <use xlink:href="#DejaVuSans-Bold-20" transform="translate(1234.960938 0.015625)"/>
     <use xlink:href="#DejaVuSans-Bold-64" transform="translate(1269.775391 0.015625)"/>
     <use xlink:href="#DejaVuSans-Bold-65" transform="translate(1341.357422 0.015625)"/>
     <use xlink:href="#DejaVuSans-Bold-20" transform="translate(1409.179688 0.015625)"/>
     <use xlink:href="#DejaVuSans-Bold-6c" transform="translate(1443.994141 0.015625)"/>
     <use xlink:href="#DejaVuSans-Bold-61" transform="translate(1478.271484 0.015625)"/>
     <use xlink:href="#DejaVuSans-Bold-20" transform="translate(1545.751953 0.015625)"/>
     <use xlink:href="#DejaVuSans-Bold-64" transform="translate(1580.566406 0.015625)"/>
     <use xlink:href="#DejaVuSans-Bold-69" transform="translate(1652.148438 0.015625)"/>
     <use xlink:href="#DejaVuSans-Bold-73" transform="translate(1686.425781 0.015625)"/>
     <use xlink:href="#DejaVuSans-Bold-74" transform="translate(1745.947266 0.015625)"/>
     <use xlink:href="#DejaVuSans-Bold-72" transform="translate(1793.75 0.015625)"/>
     <use xlink:href="#DejaVuSans-Bold-69" transform="translate(1843.066406 0.015625)"/>
     <use xlink:href="#DejaVuSans-Bold-62" transform="translate(1877.34375 0.015625)"/>
     <use xlink:href="#DejaVuSans-Bold-75" transform="translate(1948.925781 0.015625)"/>
     <use xlink:href="#DejaVuSans-Bold-63" transform="translate(2020.117188 0.015625)"/>
     <use xlink:href="#DejaVuSans-Bold-69" transform="translate(2079.394531 0.015625)"/>
     <use xlink:href="#DejaVuSans-Bold-f3" transform="translate(2113.671875 0.015625)"/>
     <use xlink:href="#DejaVuSans-Bold-6e" transform="translate(2182.373047 0.015625)"/>
    </g>
   </g>
   <g id="line2d_25">
    <path d="M 55.915469 258.701969 
L 56.442336 257.993593 
L 56.969203 256.722799 
L 58.022937 253.239651 
L 59.07667 248.910162 
L 60.657271 241.363001 
L 62.764739 230.042212 
L 65.925941 211.65465 
L 74.355812 162.030447 
L 77.517014 144.829359 
L 80.678216 128.853366 
L 83.31255 116.577776 
L 85.946885 105.294048 
L 88.58122 95.021999 
L 91.215555 85.763062 
L 93.323022 79.07728 
L 95.43049 73.020568 
L 97.537958 67.578003 
L 99.645426 62.731942 
L 101.752894 58.462634 
L 103.860361 54.74873 
L 105.967829 51.567714 
L 107.54843 49.517646 
L 109.129031 47.744171 
L 110.709632 46.237147 
L 112.290233 44.986385 
L 113.870834 43.981694 
L 115.451434 43.212925 
L 117.032035 42.670005 
L 118.612636 42.342965 
L 120.193237 42.221969 
L 121.773838 42.297336 
L 123.354439 42.559558 
L 124.93504 42.999318 
L 127.042507 43.846114 
L 129.149975 44.97135 
L 131.257443 46.354739 
L 133.364911 47.976733 
L 135.999246 50.311222 
L 138.63358 52.954249 
L 141.794782 56.486692 
L 144.955984 60.362286 
L 148.644052 65.251377 
L 152.858988 71.235413 
L 157.600791 78.357206 
L 163.923194 88.293031 
L 174.460533 105.372594 
L 186.051606 124.042769 
L 193.427743 135.506604 
L 199.750147 144.946684 
L 205.545683 153.233017 
L 211.34122 161.135711 
L 216.609889 167.96978 
L 221.878559 174.461172 
L 227.147228 180.606348 
L 232.415898 186.406037 
L 237.684567 191.864454 
L 242.953237 196.98861 
L 248.221907 201.787726 
L 253.490576 206.272728 
L 258.759246 210.455807 
L 264.027915 214.350059 
L 269.296585 217.969173 
L 274.565254 221.327173 
L 279.833924 224.438203 
L 285.62946 227.591903 
L 291.424997 230.482295 
L 297.220533 233.127394 
L 303.542937 235.753643 
L 309.86534 238.130335 
L 316.187743 240.278023 
L 323.037014 242.368716 
L 330.413151 244.371502 
L 337.789288 246.142322 
L 345.692293 247.809952 
L 354.122164 249.356934 
L 363.078902 250.771011 
L 372.562507 252.045016 
L 383.099846 253.23066 
L 394.690919 254.300382 
L 407.335726 255.237237 
L 421.561134 256.061193 
L 424.195469 256.191351 
L 424.195469 256.191351 
" clip-path="url(#pe4b44c73cb)" style="fill: none; stroke: #2980b9; stroke-width: 2.6; stroke-linecap: square"/>
   </g>
   <g id="LineCollection_1">
    <path d="M 163.330469 258.701969 
L 163.330469 87.346202 
" clip-path="url(#pe4b44c73cb)" style="fill: none; stroke-dasharray: 6.66,2.88; stroke-dashoffset: 0; stroke: #c0392b; stroke-opacity: 0.85; stroke-width: 1.8"/>
   </g>
   <g id="patch_6">
    <path d="M 153.509669 271.203689 
L 173.151269 271.203689 
L 163.330469 258.701969 
z
" style="fill: #c0392b; stroke: #c0392b; stroke-linejoin: miter"/>
   </g>
  </g>
 </g>
 <defs>
  <clipPath id="pe4b44c73cb">
   <rect x="55.915469" y="31.397969" width="368.28" height="227.304"/>
  </clipPath>
 </defs>
</svg>
