<?xml version="1.0" encoding="utf-8" standalone="no"?>
<!DOCTYPE svg PUBLIC "-//W3C//DTD SVG 1.1//EN"
  "http://www.w3.org/Graphics/SVG/1.1/DTD/svg11.dtd">
<svg xmlns:xlink="http://www.w3.org/1999/xlink" width="435.715469pt" height="302.029937pt" viewBox="0 0 435.715469 302.029937" xmlns="http://www.w3.org/2000/svg" version="1.1">
 <metadata>
  <rdf:RDF xmlns:dc="http://purl.org/dc/elements/1.1/" xmlns:cc="http://creativecommons.org/ns#" xmlns:rdf="http://www.w3.org/1999/02/22-rdf-syntax-ns#">
   <cc:Work>
    <dc:type rdf:resource="http://purl.org/dc/dcmitype/StillImage"/>
    <dc:date>2026-06-30T11:51:44.021894</dc:date>
    <dc:format>image/svg+xml</dc:format>
    <dc:creator>
     <cc:Agent>
      <dc:title>Matplotlib v3.9.2, https://matplotlib.org/</dc:title>
     </cc:Agent>
    </dc:creator>
   </cc:Work>
  </rdf:RDF>
 </metadata>
 <defs>
  <style type="text/css">*{stroke-linejoin: round; stroke-linecap: butt}</style>
 </defs>
 <g id="figure_1">
  <g id="patch_1">
   <path d="M 0 302.029937 
L 435.715469 302.029937 
L 435.715469 0 
L 0 0 
z
" style="fill: #ffffff"/>
  </g>
  <g id="axes_1">
   <g id="patch_2">
    <path d="M 49.552969 258.701969 
L 417.832969 258.701969 
L 417.832969 31.397969 
L 49.552969 31.397969 
z
" style="fill: #ffffff"/>
   </g>
   <g id="matplotlib.axis_1">
    <g id="xtick_1">
     <g id="line2d_1">
      <path d="M 49.552969 258.701969 
L 49.552969 31.397969 
" clip-path="url(#pdde5be8f6e)" style="fill: none; stroke-dasharray: 0.8,1.28; stroke-dashoffset: 0; stroke: #b0b0b0; stroke-opacity: 0.3; stroke-width: 0.8"/>
     </g>
     <g id="line2d_2">
      <defs>
       <path id="me6cb52476a" d="M 0 0 
L 0 3.5 
" style="stroke: #2c3e50; stroke-width: 0.8"/>
      </defs>
      <g>
       <use xlink:href="#me6cb52476a" x="49.552969" y="258.701969" style="fill: #2c3e50; stroke: #2c3e50; stroke-width: 0.8"/>
      </g>
     </g>
     <g id="text_1">
      <!-- 0 -->
      <g style="fill: #2c3e50" transform="translate(46.371719 273.300406) scale(0.1 -0.1)">
       <defs>
        <path id="DejaVuSans-30" d="M 2034 4250 
Q 1547 4250 1301 3770 
Q 1056 3291 1056 2328 
Q 1056 1369 1301 889 
Q 1547 409 2034 409 
Q 2525 409 2770 889 
Q 3016 1369 3016 2328 
Q 3016 3291 2770 3770 
Q 2525 4250 2034 4250 
z
M 2034 4750 
Q 2819 4750 3233 4129 
Q 3647 3509 3647 2328 
Q 3647 1150 3233 529 
Q 2819 -91 2034 -91 
Q 1250 -91 836 529 
Q 422 1150 422 2328 
Q 422 3509 836 4129 
Q 1250 4750 2034 4750 
z
" transform="scale(0.015625)"/>
       </defs>
       <use xlink:href="#DejaVuSans-30"/>
      </g>
     </g>
    </g>
    <g id="xtick_2">
     <g id="line2d_3">
      <path d="M 102.164397 258.701969 
L 102.164397 31.397969 
" clip-path="url(#pdde5be8f6e)" style="fill: none; stroke-dasharray: 0.8,1.28; stroke-dashoffset: 0; stroke: #b0b0b0; stroke-opacity: 0.3; stroke-width: 0.8"/>
     </g>
     <g id="line2d_4">
      <g>
       <use xlink:href="#me6cb52476a" x="102.164397" y="258.701969" style="fill: #2c3e50; stroke: #2c3e50; stroke-width: 0.8"/>
      </g>
     </g>
     <g id="text_2">
      <!-- 2 -->
      <g style="fill: #2c3e50" transform="translate(98.983147 273.300406) scale(0.1 -0.1)">
       <defs>
        <path id="DejaVuSans-32" d="M 1228 531 
L 3431 531 
L 3431 0 
L 469 0 
L 469 531 
Q 828 903 1448 1529 
Q 2069 2156 2228 2338 
Q 2531 2678 2651 2914 
Q 2772 3150 2772 3378 
Q 2772 3750 2511 3984 
Q 2250 4219 1831 4219 
Q 1534 4219 1204 4116 
Q 875 4013 500 3803 
L 500 4441 
Q 881 4594 1212 4672 
Q 1544 4750 1819 4750 
Q 2544 4750 2975 4387 
Q 3406 4025 3406 3419 
Q 3406 3131 3298 2873 
Q 3191 2616 2906 2266 
Q 2828 2175 2409 1742 
Q 1991 1309 1228 531 
z
" transform="scale(0.015625)"/>
       </defs>
       <use xlink:href="#DejaVuSans-32"/>
      </g>
     </g>
    </g>
    <g id="xtick_3">
     <g id="line2d_5">
      <path d="M 154.775826 258.701969 
L 154.775826 31.397969 
" clip-path="url(#pdde5be8f6e)" style="fill: none; stroke-dasharray: 0.8,1.28; stroke-dashoffset: 0; stroke: #b0b0b0; stroke-opacity: 0.3; stroke-width: 0.8"/>
     </g>
     <g id="line2d_6">
      <g>
       <use xlink:href="#me6cb52476a" x="154.775826" y="258.701969" style="fill: #2c3e50; stroke: #2c3e50; stroke-width: 0.8"/>
      </g>
     </g>
     <g id="text_3">
      <!-- 4 -->
      <g style="fill: #2c3e50" transform="translate(151.594576 273.300406) scale(0.1 -0.1)">
       <defs>
        <path id="DejaVuSans-34" d="M 2419 4116 
L 825 1625 
L 2419 1625 
L 2419 4116 
z
M 2253 4666 
L 3047 4666 
L 3047 1625 
L 3713 1625 
L 3713 1100 
L 3047 1100 
L 3047 0 
L 2419 0 
L 2419 1100 
L 313 1100 
L 313 1709 
L 2253 4666 
z
" transform="scale(0.015625)"/>
       </defs>
       <use xlink:href="#DejaVuSans-34"/>
      </g>
     </g>
    </g>
    <g id="xtick_4">
     <g id="line2d_7">
      <path d="M 207.387254 258.701969 
L 207.387254 31.397969 
" clip-path="url(#pdde5be8f6e)" style="fill: none; stroke-dasharray: 0.8,1.28; stroke-dashoffset: 0; stroke: #b0b0b0; stroke-opacity: 0.3; stroke-width: 0.8"/>
     </g>
     <g id="line2d_8">
      <g>
       <use xlink:href="#me6cb52476a" x="207.387254" y="258.701969" style="fill: #2c3e50; stroke: #2c3e50; stroke-width: 0.8"/>
      </g>
     </g>
     <g id="text_4">
      <!-- 6 -->
      <g style="fill: #2c3e50" transform="translate(204.206004 273.300406) scale(0.1 -0.1)">
       <defs>
        <path id="DejaVuSans-36" d="M 2113 2584 
Q 1688 2584 1439 2293 
Q 1191 2003 1191 1497 
Q 1191 994 1439 701 
Q 1688 409 2113 409 
Q 2538 409 2786 701 
Q 3034 994 3034 1497 
Q 3034 2003 2786 2293 
Q 2538 2584 2113 2584 
z
M 3366 4563 
L 3366 3988 
Q 3128 4100 2886 4159 
Q 2644 4219 2406 4219 
Q 1781 4219 1451 3797 
Q 1122 3375 1075 2522 
Q 1259 2794 1537 2939 
Q 1816 3084 2150 3084 
Q 2853 3084 3261 2657 
Q 3669 2231 3669 1497 
Q 3669 778 3244 343 
Q 2819 -91 2113 -91 
Q 1303 -91 875 529 
Q 447 1150 447 2328 
Q 447 3434 972 4092 
Q 1497 4750 2381 4750 
Q 2619 4750 2861 4703 
Q 3103 4656 3366 4563 
z
" transform="scale(0.015625)"/>
       </defs>
       <use xlink:href="#DejaVuSans-36"/>
      </g>
     </g>
    </g>
    <g id="xtick_5">
     <g id="line2d_9">
      <path d="M 259.998683 258.701969 
L 259.998683 31.397969 
" clip-path="url(#pdde5be8f6e)" style="fill: none; stroke-dasharray: 0.8,1.28; stroke-dashoffset: 0; stroke: #b0b0b0; stroke-opacity: 0.3; stroke-width: 0.8"/>
     </g>
     <g id="line2d_10">
      <g>
       <use xlink:href="#me6cb52476a" x="259.998683" y="258.701969" style="fill: #2c3e50; stroke: #2c3e50; stroke-width: 0.8"/>
      </g>
     </g>
     <g id="text_5">
      <!-- 8 -->
      <g style="fill: #2c3e50" transform="translate(256.817433 273.300406) scale(0.1 -0.1)">
       <defs>
        <path id="DejaVuSans-38" d="M 2034 2216 
Q 1584 2216 1326 1975 
Q 1069 1734 1069 1313 
Q 1069 891 1326 650 
Q 1584 409 2034 409 
Q 2484 409 2743 651 
Q 3003 894 3003 1313 
Q 3003 1734 2745 1975 
Q 2488 2216 2034 2216 
z
M 1403 2484 
Q 997 2584 770 2862 
Q 544 3141 544 3541 
Q 544 4100 942 4425 
Q 1341 4750 2034 4750 
Q 2731 4750 3128 4425 
Q 3525 4100 3525 3541 
Q 3525 3141 3298 2862 
Q 3072 2584 2669 2484 
Q 3125 2378 3379 2068 
Q 3634 1759 3634 1313 
Q 3634 634 3220 271 
Q 2806 -91 2034 -91 
Q 1263 -91 848 271 
Q 434 634 434 1313 
Q 434 1759 690 2068 
Q 947 2378 1403 2484 
z
M 1172 3481 
Q 1172 3119 1398 2916 
Q 1625 2713 2034 2713 
Q 2441 2713 2670 2916 
Q 2900 3119 2900 3481 
Q 2900 3844 2670 4047 
Q 2441 4250 2034 4250 
Q 1625 4250 1398 4047 
Q 1172 3844 1172 3481 
z
" transform="scale(0.015625)"/>
       </defs>
       <use xlink:href="#DejaVuSans-38"/>
      </g>
     </g>
    </g>
    <g id="xtick_6">
     <g id="line2d_11">
      <path d="M 312.610112 258.701969 
L 312.610112 31.397969 
" clip-path="url(#pdde5be8f6e)" style="fill: none; stroke-dasharray: 0.8,1.28; stroke-dashoffset: 0; stroke: #b0b0b0; stroke-opacity: 0.3; stroke-width: 0.8"/>
     </g>
     <g id="line2d_12">
      <g>
       <use xlink:href="#me6cb52476a" x="312.610112" y="258.701969" style="fill: #2c3e50; stroke: #2c3e50; stroke-width: 0.8"/>
      </g>
     </g>
     <g id="text_6">
      <!-- 10 -->
      <g style="fill: #2c3e50" transform="translate(306.247612 273.300406) scale(0.1 -0.1)">
       <defs>
        <path id="DejaVuSans-31" d="M 794 531 
L 1825 531 
L 1825 4091 
L 703 3866 
L 703 4441 
L 1819 4666 
L 2450 4666 
L 2450 531 
L 3481 531 
L 3481 0 
L 794 0 
L 794 531 
z
" transform="scale(0.015625)"/>
       </defs>
       <use xlink:href="#DejaVuSans-31"/>
       <use xlink:href="#DejaVuSans-30" x="63.623047"/>
      </g>
     </g>
    </g>
    <g id="xtick_7">
     <g id="line2d_13">
      <path d="M 365.22154 258.701969 
L 365.22154 31.397969 
" clip-path="url(#pdde5be8f6e)" style="fill: none; stroke-dasharray: 0.8,1.28; stroke-dashoffset: 0; stroke: #b0b0b0; stroke-opacity: 0.3; stroke-width: 0.8"/>
     </g>
     <g id="line2d_14">
      <g>
       <use xlink:href="#me6cb52476a" x="365.22154" y="258.701969" style="fill: #2c3e50; stroke: #2c3e50; stroke-width: 0.8"/>
      </g>
     </g>
     <g id="text_7">
      <!-- 12 -->
      <g style="fill: #2c3e50" transform="translate(358.85904 273.300406) scale(0.1 -0.1)">
       <use xlink:href="#DejaVuSans-31"/>
       <use xlink:href="#DejaVuSans-32" x="63.623047"/>
      </g>
     </g>
    </g>
    <g id="xtick_8">
     <g id="line2d_15">
      <path d="M 417.832969 258.701969 
L 417.832969 31.397969 
" clip-path="url(#pdde5be8f6e)" style="fill: none; stroke-dasharray: 0.8,1.28; stroke-dashoffset: 0; stroke: #b0b0b0; stroke-opacity: 0.3; stroke-width: 0.8"/>
     </g>
     <g id="line2d_16">
      <g>
       <use xlink:href="#me6cb52476a" x="417.832969" y="258.701969" style="fill: #2c3e50; stroke: #2c3e50; stroke-width: 0.8"/>
      </g>
     </g>
     <g id="text_8">
      <!-- 14 -->
      <g style="fill: #2c3e50" transform="translate(411.470469 273.300406) scale(0.1 -0.1)">
       <use xlink:href="#DejaVuSans-31"/>
       <use xlink:href="#DejaVuSans-34" x="63.623047"/>
      </g>
     </g>
    </g>
    <g id="text_9">
     <!-- $x$ -->
     <g transform="translate(230.242969 288.118297) scale(0.115 -0.115)">
      <defs>
       <path id="DejaVuSans-Oblique-78" d="M 3841 3500 
L 2234 1784 
L 3219 0 
L 2559 0 
L 1819 1388 
L 531 0 
L -166 0 
L 1556 1844 
L 641 3500 
L 1300 3500 
L 1972 2234 
L 3144 3500 
L 3841 3500 
z
" transform="scale(0.015625)"/>
      </defs>
      <use xlink:href="#DejaVuSans-Oblique-78" transform="translate(0 0.3125)"/>
     </g>
    </g>
   </g>
   <g id="matplotlib.axis_2">
    <g id="ytick_1">
     <g id="line2d_17">
      <path d="M 49.552969 258.701969 
L 417.832969 258.701969 
" clip-path="url(#pdde5be8f6e)" style="fill: none; stroke-dasharray: 0.8,1.28; stroke-dashoffset: 0; stroke: #b0b0b0; stroke-opacity: 0.3; stroke-width: 0.8"/>
     </g>
     <g id="line2d_18">
      <defs>
       <path id="m3344ac0b3f" d="M 0 0 
L -3.5 0 
" style="stroke: #2c3e50; stroke-width: 0.8"/>
      </defs>
      <g>
       <use xlink:href="#m3344ac0b3f" x="49.552969" y="258.701969" style="fill: #2c3e50; stroke: #2c3e50; stroke-width: 0.8"/>
      </g>
     </g>
     <g id="text_10">
      <!-- 0.0 -->
      <g style="fill: #2c3e50" transform="translate(26.649844 262.501187) scale(0.1 -0.1)">
       <defs>
        <path id="DejaVuSans-2e" d="M 684 794 
L 1344 794 
L 1344 0 
L 684 0 
L 684 794 
z
" transform="scale(0.015625)"/>
       </defs>
       <use xlink:href="#DejaVuSans-30"/>
       <use xlink:href="#DejaVuSans-2e" x="63.623047"/>
       <use xlink:href="#DejaVuSans-30" x="95.410156"/>
      </g>
     </g>
    </g>
    <g id="ytick_2">
     <g id="line2d_19">
      <path d="M 49.552969 215.405969 
L 417.832969 215.405969 
" clip-path="url(#pdde5be8f6e)" style="fill: none; stroke-dasharray: 0.8,1.28; stroke-dashoffset: 0; stroke: #b0b0b0; stroke-opacity: 0.3; stroke-width: 0.8"/>
     </g>
     <g id="line2d_20">
      <g>
       <use xlink:href="#m3344ac0b3f" x="49.552969" y="215.405969" style="fill: #2c3e50; stroke: #2c3e50; stroke-width: 0.8"/>
      </g>
     </g>
     <g id="text_11">
      <!-- 0.2 -->
      <g style="fill: #2c3e50" transform="translate(26.649844 219.205187) scale(0.1 -0.1)">
       <use xlink:href="#DejaVuSans-30"/>
       <use xlink:href="#DejaVuSans-2e" x="63.623047"/>
       <use xlink:href="#DejaVuSans-32" x="95.410156"/>
      </g>
     </g>
    </g>
    <g id="ytick_3">
     <g id="line2d_21">
      <path d="M 49.552969 172.109969 
L 417.832969 172.109969 
" clip-path="url(#pdde5be8f6e)" style="fill: none; stroke-dasharray: 0.8,1.28; stroke-dashoffset: 0; stroke: #b0b0b0; stroke-opacity: 0.3; stroke-width: 0.8"/>
     </g>
     <g id="line2d_22">
      <g>
       <use xlink:href="#m3344ac0b3f" x="49.552969" y="172.109969" style="fill: #2c3e50; stroke: #2c3e50; stroke-width: 0.8"/>
      </g>
     </g>
     <g id="text_12">
      <!-- 0.4 -->
      <g style="fill: #2c3e50" transform="translate(26.649844 175.909187) scale(0.1 -0.1)">
       <use xlink:href="#DejaVuSans-30"/>
       <use xlink:href="#DejaVuSans-2e" x="63.623047"/>
       <use xlink:href="#DejaVuSans-34" x="95.410156"/>
      </g>
     </g>
    </g>
    <g id="ytick_4">
     <g id="line2d_23">
      <path d="M 49.552969 128.813969 
L 417.832969 128.813969 
" clip-path="url(#pdde5be8f6e)" style="fill: none; stroke-dasharray: 0.8,1.28; stroke-dashoffset: 0; stroke: #b0b0b0; stroke-opacity: 0.3; stroke-width: 0.8"/>
     </g>
     <g id="line2d_24">
      <g>
       <use xlink:href="#m3344ac0b3f" x="49.552969" y="128.813969" style="fill: #2c3e50; stroke: #2c3e50; stroke-width: 0.8"/>
      </g>
     </g>
     <g id="text_13">
      <!-- 0.6 -->
      <g style="fill: #2c3e50" transform="translate(26.649844 132.613187) scale(0.1 -0.1)">
       <use xlink:href="#DejaVuSans-30"/>
       <use xlink:href="#DejaVuSans-2e" x="63.623047"/>
       <use xlink:href="#DejaVuSans-36" x="95.410156"/>
      </g>
     </g>
    </g>
    <g id="ytick_5">
     <g id="line2d_25">
      <path d="M 49.552969 85.517969 
L 417.832969 85.517969 
" clip-path="url(#pdde5be8f6e)" style="fill: none; stroke-dasharray: 0.8,1.28; stroke-dashoffset: 0; stroke: #b0b0b0; stroke-opacity: 0.3; stroke-width: 0.8"/>
     </g>
     <g id="line2d_26">
      <g>
       <use xlink:href="#m3344ac0b3f" x="49.552969" y="85.517969" style="fill: #2c3e50; stroke: #2c3e50; stroke-width: 0.8"/>
      </g>
     </g>
     <g id="text_14">
      <!-- 0.8 -->
      <g style="fill: #2c3e50" transform="translate(26.649844 89.317187) scale(0.1 -0.1)">
       <use xlink:href="#DejaVuSans-30"/>
       <use xlink:href="#DejaVuSans-2e" x="63.623047"/>
       <use xlink:href="#DejaVuSans-38" x="95.410156"/>
      </g>
     </g>
    </g>
    <g id="ytick_6">
     <g id="line2d_27">
      <path d="M 49.552969 42.221969 
L 417.832969 42.221969 
" clip-path="url(#pdde5be8f6e)" style="fill: none; stroke-dasharray: 0.8,1.28; stroke-dashoffset: 0; stroke: #b0b0b0; stroke-opacity: 0.3; stroke-width: 0.8"/>
     </g>
     <g id="line2d_28">
      <g>
       <use xlink:href="#m3344ac0b3f" x="49.552969" y="42.221969" style="fill: #2c3e50; stroke: #2c3e50; stroke-width: 0.8"/>
      </g>
     </g>
     <g id="text_15">
      <!-- 1.0 -->
      <g style="fill: #2c3e50" transform="translate(26.649844 46.021187) scale(0.1 -0.1)">
       <use xlink:href="#DejaVuSans-31"/>
       <use xlink:href="#DejaVuSans-2e" x="63.623047"/>
       <use xlink:href="#DejaVuSans-30" x="95.410156"/>
      </g>
     </g>
    </g>
    <g id="text_16">
     <!-- $f_X(x)$ -->
     <g transform="translate(20.258203 157.929969) rotate(-90) scale(0.115 -0.115)">
      <defs>
       <path id="DejaVuSans-Oblique-66" d="M 3059 4863 
L 2969 4384 
L 2419 4384 
Q 2106 4384 1964 4261 
Q 1822 4138 1753 3809 
L 1691 3500 
L 2638 3500 
L 2553 3053 
L 1606 3053 
L 1013 0 
L 434 0 
L 1031 3053 
L 481 3053 
L 563 3500 
L 1113 3500 
L 1159 3744 
Q 1278 4363 1576 4613 
Q 1875 4863 2516 4863 
L 3059 4863 
z
" transform="scale(0.015625)"/>
       <path id="DejaVuSans-Oblique-58" d="M 878 4666 
L 1516 4666 
L 2316 2981 
L 3763 4666 
L 4500 4666 
L 2578 2438 
L 3738 0 
L 3103 0 
L 2163 1966 
L 459 0 
L -275 0 
L 1906 2509 
L 878 4666 
z
" transform="scale(0.015625)"/>
       <path id="DejaVuSans-28" d="M 1984 4856 
Q 1566 4138 1362 3434 
Q 1159 2731 1159 2009 
Q 1159 1288 1364 580 
Q 1569 -128 1984 -844 
L 1484 -844 
Q 1016 -109 783 600 
Q 550 1309 550 2009 
Q 550 2706 781 3412 
Q 1013 4119 1484 4856 
L 1984 4856 
z
" transform="scale(0.015625)"/>
       <path id="DejaVuSans-29" d="M 513 4856 
L 1013 4856 
Q 1481 4119 1714 3412 
Q 1947 2706 1947 2009 
Q 1947 1309 1714 600 
Q 1481 -109 1013 -844 
L 513 -844 
Q 928 -128 1133 580 
Q 1338 1288 1338 2009 
Q 1338 2731 1133 3434 
Q 928 4138 513 4856 
z
" transform="scale(0.015625)"/>
      </defs>
      <use xlink:href="#DejaVuSans-Oblique-66" transform="translate(0 0.015625)"/>
      <use xlink:href="#DejaVuSans-Oblique-58" transform="translate(35.205078 -16.390625) scale(0.7)"/>
      <use xlink:href="#DejaVuSans-28" transform="translate(85.893555 0.015625)"/>
      <use xlink:href="#DejaVuSans-Oblique-78" transform="translate(124.907227 0.015625)"/>
      <use xlink:href="#DejaVuSans-29" transform="translate(184.086914 0.015625)"/>
     </g>
    </g>
   </g>
   <g id="line2d_29">
    <path d="M 49.552969 42.221969 
L 52.0109 61.533012 
L 54.468831 79.121418 
L 56.926762 95.140855 
L 59.384693 109.731282 
L 61.842624 123.020174 
L 64.300555 135.123633 
L 66.758486 146.147407 
L 69.216417 156.187808 
L 71.674348 165.332557 
L 74.132279 173.661552 
L 76.59021 181.24756 
L 79.048141 188.156861 
L 81.506072 194.449819 
L 83.964003 200.181415 
L 86.421934 205.401726 
L 88.879865 210.156361 
L 91.337796 214.486859 
L 93.795727 218.431057 
L 96.663314 222.590179 
L 99.5309 226.319752 
L 102.398486 229.664141 
L 105.266072 232.663126 
L 108.133658 235.35238 
L 111.001245 237.763892 
L 114.278486 240.216472 
L 117.555727 242.381769 
L 120.832969 244.293434 
L 124.519865 246.177741 
L 128.206762 247.815623 
L 132.303314 249.385528 
L 136.80952 250.852238 
L 141.315727 252.08804 
L 146.231589 253.215398 
L 151.966762 254.290166 
L 158.111589 255.209215 
L 165.075727 256.021606 
L 173.268831 256.738928 
L 182.6909 257.329901 
L 194.161245 257.814801 
L 208.499176 258.187577 
L 228.162624 258.458379 
L 258.067452 258.623816 
L 319.515727 258.69441 
L 417.832969 258.701789 
L 417.832969 258.701789 
" clip-path="url(#pdde5be8f6e)" style="fill: none; stroke: #2980b9; stroke-width: 2.6; stroke-linecap: square"/>
   </g>
   <g id="line2d_30">
    <path d="M 49.552969 258.701969 
L 51.191589 246.031482 
L 52.83021 234.891362 
L 54.468831 225.142978 
L 56.107452 216.658862 
L 57.746072 209.321866 
L 59.384693 203.024382 
L 61.023314 197.667612 
L 62.661934 193.160904 
L 64.300555 189.421122 
L 65.939176 186.372071 
L 67.168141 184.496366 
L 68.397107 182.942582 
L 69.626072 181.685238 
L 70.855038 180.70051 
L 72.084003 179.966132 
L 73.312969 179.4613 
L 74.541934 179.16659 
L 75.7709 179.063872 
L 77.40952 179.196503 
L 79.048141 179.603561 
L 80.686762 180.251415 
L 82.735038 181.353556 
L 84.783314 182.7308 
L 87.241245 184.680288 
L 90.108831 187.27473 
L 93.386072 190.545545 
L 97.892279 195.371931 
L 114.278486 213.218187 
L 119.194348 218.105345 
L 123.700555 222.28328 
L 128.206762 226.151917 
L 132.712969 229.705092 
L 136.80952 232.664263 
L 140.906072 235.37298 
L 145.412279 238.076129 
L 149.918486 240.50636 
L 154.424693 242.682608 
L 158.9309 244.624609 
L 163.846762 246.499276 
L 168.762624 248.143863 
L 174.088141 249.693626 
L 179.823314 251.124685 
L 185.968141 252.420191 
L 192.522624 253.570373 
L 199.896417 254.624831 
L 207.679865 255.512079 
L 216.692279 256.308333 
L 226.933658 256.980871 
L 238.813658 257.532936 
L 253.561245 257.982622 
L 272.405383 258.318084 
L 298.623314 258.543603 
L 342.046762 258.666278 
L 417.832969 258.699449 
L 417.832969 258.699449 
" clip-path="url(#pdde5be8f6e)" style="fill: none; stroke: #c0392b; stroke-width: 2.6; stroke-linecap: square"/>
   </g>
   <g id="line2d_31">
    <path d="M 49.552969 258.701969 
L 50.372279 258.60019 
L 51.191589 258.307337 
L 52.420555 257.548574 
L 53.64952 256.455541 
L 54.878486 255.078792 
L 56.517107 252.880296 
L 58.565383 249.682535 
L 61.023314 245.395257 
L 65.52952 236.950498 
L 70.445383 227.845851 
L 73.722624 222.243426 
L 76.59021 217.790911 
L 79.048141 214.357589 
L 81.506072 211.301399 
L 83.964003 208.632419 
L 86.012279 206.704872 
L 88.060555 205.04344 
L 90.108831 203.641817 
L 92.157107 202.491441 
L 94.205383 201.582002 
L 96.253658 200.901865 
L 98.301934 200.438437 
L 100.35021 200.178478 
L 102.808141 200.115905 
L 105.266072 200.302864 
L 107.724003 200.715612 
L 110.591589 201.451477 
L 113.459176 202.427237 
L 116.736417 203.792621 
L 120.423314 205.59128 
L 124.519865 207.843903 
L 129.845383 211.053591 
L 137.628831 216.052663 
L 151.147452 224.758784 
L 158.111589 228.960222 
L 164.256417 232.414868 
L 169.991589 235.397651 
L 175.726762 238.135569 
L 181.461934 240.626745 
L 187.197107 242.876171 
L 192.932279 244.893731 
L 199.077107 246.81312 
L 205.221934 248.500255 
L 211.776417 250.066518 
L 218.740555 251.493878 
L 226.114348 252.770845 
L 233.897796 253.892396 
L 242.500555 254.902735 
L 251.922624 255.780816 
L 262.573658 256.542914 
L 274.863314 257.188107 
L 289.201245 257.708943 
L 306.816417 258.116168 
L 329.757107 258.41143 
L 363.348831 258.600352 
L 417.832969 258.684328 
L 417.832969 258.684328 
" clip-path="url(#pdde5be8f6e)" style="fill: none; stroke: #27ae60; stroke-width: 2.6; stroke-linecap: square"/>
   </g>
   <g id="line2d_32">
    <path d="M 49.552969 258.701969 
L 58.975038 258.598207 
L 63.071589 258.325655 
L 66.758486 257.843702 
L 70.035727 257.180022 
L 73.312969 256.26906 
L 76.59021 255.100464 
L 79.867452 253.677045 
L 83.144693 252.013105 
L 86.831589 249.88349 
L 90.928141 247.249963 
L 95.844003 243.816883 
L 104.856417 237.175039 
L 112.23021 231.868611 
L 117.146072 228.593644 
L 121.652279 225.861736 
L 125.748831 223.644927 
L 129.435727 221.889659 
L 133.122624 220.374827 
L 136.80952 219.107427 
L 140.496417 218.089448 
L 144.183314 217.31848 
L 147.87021 216.788337 
L 151.557107 216.489684 
L 155.244003 216.41063 
L 159.340555 216.563406 
L 163.437107 216.948971 
L 167.943314 217.614955 
L 172.44952 218.504107 
L 177.365383 219.6918 
L 183.100555 221.312873 
L 189.655038 223.40254 
L 198.257796 226.397514 
L 231.84952 238.355314 
L 240.861934 241.182136 
L 249.464693 243.638868 
L 257.657796 245.747315 
L 265.8509 247.62955 
L 274.453658 249.370095 
L 283.056417 250.882962 
L 292.068831 252.243219 
L 301.4909 253.444117 
L 311.732279 254.524169 
L 322.792969 255.465105 
L 335.082624 256.282857 
L 349.0109 256.978333 
L 364.987452 257.545926 
L 384.241245 257.99723 
L 408.4109 258.330325 
L 417.832969 258.413834 
L 417.832969 258.413834 
" clip-path="url(#pdde5be8f6e)" style="fill: none; stroke: #7d3c98; stroke-width: 2.6; stroke-linecap: square"/>
   </g>
   <g id="patch_3">
    <path d="M 49.552969 258.701969 
L 49.552969 31.397969 
" style="fill: none; stroke: #2c3e50; stroke-width: 1.2; stroke-linejoin: miter; stroke-linecap: square"/>
   </g>
   <g id="patch_4">
    <path d="M 49.552969 258.701969 
L 417.832969 258.701969 
" style="fill: none; stroke: #2c3e50; stroke-width: 1.2; stroke-linejoin: miter; stroke-linecap: square"/>
   </g>
   <g id="text_17">
    <!-- Densidad Gamma: efecto de la forma $\alpha$ -->
    <g transform="translate(90.952969 21.397969) scale(0.13 -0.13)">
     <defs>
      <path id="DejaVuSans-Bold-44" d="M 1791 3756 
L 1791 909 
L 2222 909 
Q 2959 909 3348 1275 
Q 3738 1641 3738 2338 
Q 3738 3031 3350 3393 
Q 2963 3756 2222 3756 
L 1791 3756 
z
M 588 4666 
L 1856 4666 
Q 2919 4666 3439 4514 
Q 3959 4363 4331 4000 
Q 4659 3684 4818 3271 
Q 4978 2859 4978 2338 
Q 4978 1809 4818 1395 
Q 4659 981 4331 666 
Q 3956 303 3431 151 
Q 2906 0 1856 0 
L 588 0 
L 588 4666 
z
" transform="scale(0.015625)"/>
      <path id="DejaVuSans-Bold-65" d="M 4031 1759 
L 4031 1441 
L 1416 1441 
Q 1456 1047 1700 850 
Q 1944 653 2381 653 
Q 2734 653 3104 758 
Q 3475 863 3866 1075 
L 3866 213 
Q 3469 63 3072 -14 
Q 2675 -91 2278 -91 
Q 1328 -91 801 392 
Q 275 875 275 1747 
Q 275 2603 792 3093 
Q 1309 3584 2216 3584 
Q 3041 3584 3536 3087 
Q 4031 2591 4031 1759 
z
M 2881 2131 
Q 2881 2450 2695 2645 
Q 2509 2841 2209 2841 
Q 1884 2841 1681 2658 
Q 1478 2475 1428 2131 
L 2881 2131 
z
" transform="scale(0.015625)"/>
      <path id="DejaVuSans-Bold-6e" d="M 4056 2131 
L 4056 0 
L 2931 0 
L 2931 347 
L 2931 1631 
Q 2931 2084 2911 2256 
Q 2891 2428 2841 2509 
Q 2775 2619 2662 2680 
Q 2550 2741 2406 2741 
Q 2056 2741 1856 2470 
Q 1656 2200 1656 1722 
L 1656 0 
L 538 0 
L 538 3500 
L 1656 3500 
L 1656 2988 
Q 1909 3294 2193 3439 
Q 2478 3584 2822 3584 
Q 3428 3584 3742 3212 
Q 4056 2841 4056 2131 
z
" transform="scale(0.015625)"/>
      <path id="DejaVuSans-Bold-73" d="M 3272 3391 
L 3272 2541 
Q 2913 2691 2578 2766 
Q 2244 2841 1947 2841 
Q 1628 2841 1473 2761 
Q 1319 2681 1319 2516 
Q 1319 2381 1436 2309 
Q 1553 2238 1856 2203 
L 2053 2175 
Q 2913 2066 3209 1816 
Q 3506 1566 3506 1031 
Q 3506 472 3093 190 
Q 2681 -91 1863 -91 
Q 1516 -91 1145 -36 
Q 775 19 384 128 
L 384 978 
Q 719 816 1070 734 
Q 1422 653 1784 653 
Q 2113 653 2278 743 
Q 2444 834 2444 1013 
Q 2444 1163 2330 1236 
Q 2216 1309 1875 1350 
L 1678 1375 
Q 931 1469 631 1722 
Q 331 1975 331 2491 
Q 331 3047 712 3315 
Q 1094 3584 1881 3584 
Q 2191 3584 2531 3537 
Q 2872 3491 3272 3391 
z
" transform="scale(0.015625)"/>
      <path id="DejaVuSans-Bold-69" d="M 538 3500 
L 1656 3500 
L 1656 0 
L 538 0 
L 538 3500 
z
M 538 4863 
L 1656 4863 
L 1656 3950 
L 538 3950 
L 538 4863 
z
" transform="scale(0.015625)"/>
      <path id="DejaVuSans-Bold-64" d="M 2919 2988 
L 2919 4863 
L 4044 4863 
L 4044 0 
L 2919 0 
L 2919 506 
Q 2688 197 2409 53 
Q 2131 -91 1766 -91 
Q 1119 -91 703 423 
Q 288 938 288 1747 
Q 288 2556 703 3070 
Q 1119 3584 1766 3584 
Q 2128 3584 2408 3439 
Q 2688 3294 2919 2988 
z
M 2181 722 
Q 2541 722 2730 984 
Q 2919 1247 2919 1747 
Q 2919 2247 2730 2509 
Q 2541 2772 2181 2772 
Q 1825 2772 1636 2509 
Q 1447 2247 1447 1747 
Q 1447 1247 1636 984 
Q 1825 722 2181 722 
z
" transform="scale(0.015625)"/>
      <path id="DejaVuSans-Bold-61" d="M 2106 1575 
Q 1756 1575 1579 1456 
Q 1403 1338 1403 1106 
Q 1403 894 1545 773 
Q 1688 653 1941 653 
Q 2256 653 2472 879 
Q 2688 1106 2688 1447 
L 2688 1575 
L 2106 1575 
z
M 3816 1997 
L 3816 0 
L 2688 0 
L 2688 519 
Q 2463 200 2181 54 
Q 1900 -91 1497 -91 
Q 953 -91 614 226 
Q 275 544 275 1050 
Q 275 1666 698 1953 
Q 1122 2241 2028 2241 
L 2688 2241 
L 2688 2328 
Q 2688 2594 2478 2717 
Q 2269 2841 1825 2841 
Q 1466 2841 1156 2769 
Q 847 2697 581 2553 
L 581 3406 
Q 941 3494 1303 3539 
Q 1666 3584 2028 3584 
Q 2975 3584 3395 3211 
Q 3816 2838 3816 1997 
z
" transform="scale(0.015625)"/>
      <path id="DejaVuSans-Bold-20" transform="scale(0.015625)"/>
      <path id="DejaVuSans-Bold-47" d="M 4781 347 
Q 4331 128 3847 18 
Q 3363 -91 2847 -91 
Q 1681 -91 1000 561 
Q 319 1213 319 2328 
Q 319 3456 1012 4103 
Q 1706 4750 2913 4750 
Q 3378 4750 3804 4662 
Q 4231 4575 4609 4403 
L 4609 3438 
Q 4219 3659 3833 3768 
Q 3447 3878 3059 3878 
Q 2341 3878 1952 3476 
Q 1563 3075 1563 2328 
Q 1563 1588 1938 1184 
Q 2313 781 3003 781 
Q 3191 781 3352 804 
Q 3513 828 3641 878 
L 3641 1784 
L 2906 1784 
L 2906 2591 
L 4781 2591 
L 4781 347 
z
" transform="scale(0.015625)"/>
      <path id="DejaVuSans-Bold-6d" d="M 3781 2919 
Q 3994 3244 4286 3414 
Q 4578 3584 4928 3584 
Q 5531 3584 5847 3212 
Q 6163 2841 6163 2131 
L 6163 0 
L 5038 0 
L 5038 1825 
Q 5041 1866 5042 1909 
Q 5044 1953 5044 2034 
Q 5044 2406 4934 2573 
Q 4825 2741 4581 2741 
Q 4263 2741 4089 2478 
Q 3916 2216 3909 1719 
L 3909 0 
L 2784 0 
L 2784 1825 
Q 2784 2406 2684 2573 
Q 2584 2741 2328 2741 
Q 2006 2741 1831 2477 
Q 1656 2213 1656 1722 
L 1656 0 
L 531 0 
L 531 3500 
L 1656 3500 
L 1656 2988 
Q 1863 3284 2130 3434 
Q 2397 3584 2719 3584 
Q 3081 3584 3359 3409 
Q 3638 3234 3781 2919 
z
" transform="scale(0.015625)"/>
      <path id="DejaVuSans-Bold-3a" d="M 716 3500 
L 1844 3500 
L 1844 2291 
L 716 2291 
L 716 3500 
z
M 716 1209 
L 1844 1209 
L 1844 0 
L 716 0 
L 716 1209 
z
" transform="scale(0.015625)"/>
      <path id="DejaVuSans-Bold-66" d="M 2841 4863 
L 2841 4128 
L 2222 4128 
Q 1984 4128 1890 4042 
Q 1797 3956 1797 3744 
L 1797 3500 
L 2753 3500 
L 2753 2700 
L 1797 2700 
L 1797 0 
L 678 0 
L 678 2700 
L 122 2700 
L 122 3500 
L 678 3500 
L 678 3744 
Q 678 4316 997 4589 
Q 1316 4863 1984 4863 
L 2841 4863 
z
" transform="scale(0.015625)"/>
      <path id="DejaVuSans-Bold-63" d="M 3366 3391 
L 3366 2478 
Q 3138 2634 2908 2709 
Q 2678 2784 2431 2784 
Q 1963 2784 1702 2511 
Q 1441 2238 1441 1747 
Q 1441 1256 1702 982 
Q 1963 709 2431 709 
Q 2694 709 2930 787 
Q 3166 866 3366 1019 
L 3366 103 
Q 3103 6 2833 -42 
Q 2563 -91 2291 -91 
Q 1344 -91 809 395 
Q 275 881 275 1747 
Q 275 2613 809 3098 
Q 1344 3584 2291 3584 
Q 2566 3584 2833 3536 
Q 3100 3488 3366 3391 
z
" transform="scale(0.015625)"/>
      <path id="DejaVuSans-Bold-74" d="M 1759 4494 
L 1759 3500 
L 2913 3500 
L 2913 2700 
L 1759 2700 
L 1759 1216 
Q 1759 972 1856 886 
Q 1953 800 2241 800 
L 2816 800 
L 2816 0 
L 1856 0 
Q 1194 0 917 276 
Q 641 553 641 1216 
L 641 2700 
L 84 2700 
L 84 3500 
L 641 3500 
L 641 4494 
L 1759 4494 
z
" transform="scale(0.015625)"/>
      <path id="DejaVuSans-Bold-6f" d="M 2203 2784 
Q 1831 2784 1636 2517 
Q 1441 2250 1441 1747 
Q 1441 1244 1636 976 
Q 1831 709 2203 709 
Q 2569 709 2762 976 
Q 2956 1244 2956 1747 
Q 2956 2250 2762 2517 
Q 2569 2784 2203 2784 
z
M 2203 3584 
Q 3106 3584 3614 3096 
Q 4122 2609 4122 1747 
Q 4122 884 3614 396 
Q 3106 -91 2203 -91 
Q 1297 -91 786 396 
Q 275 884 275 1747 
Q 275 2609 786 3096 
Q 1297 3584 2203 3584 
z
" transform="scale(0.015625)"/>
      <path id="DejaVuSans-Bold-6c" d="M 538 4863 
L 1656 4863 
L 1656 0 
L 538 0 
L 538 4863 
z
" transform="scale(0.015625)"/>
      <path id="DejaVuSans-Bold-72" d="M 3138 2547 
Q 2991 2616 2845 2648 
Q 2700 2681 2553 2681 
Q 2122 2681 1889 2404 
Q 1656 2128 1656 1613 
L 1656 0 
L 538 0 
L 538 3500 
L 1656 3500 
L 1656 2925 
Q 1872 3269 2151 3426 
Q 2431 3584 2822 3584 
Q 2878 3584 2943 3579 
Q 3009 3575 3134 3559 
L 3138 2547 
z
" transform="scale(0.015625)"/>
      <path id="DejaVuSans-Oblique-3b1" d="M 2619 1628 
L 2622 2350 
Q 2625 3088 2069 3091 
Q 1653 3094 1394 2747 
Q 1069 2319 959 1747 
Q 825 1059 994 731 
Q 1169 397 1547 397 
Q 1966 397 2319 1063 
L 2619 1628 
z
M 2166 3578 
Q 3141 3594 3128 2584 
Q 3128 2584 3616 3500 
L 4128 3500 
L 3119 1603 
L 3109 919 
Q 3109 766 3194 638 
Q 3291 488 3391 488 
L 3669 488 
L 3575 0 
L 3228 0 
Q 2934 0 2722 263 
Q 2622 394 2619 669 
Q 2416 334 2066 50 
Q 1900 -81 1453 -78 
Q 722 -72 456 397 
Q 184 884 353 1747 
Q 534 2675 1009 3097 
Q 1544 3569 2166 3578 
z
" transform="scale(0.015625)"/>
     </defs>
     <use xlink:href="#DejaVuSans-Bold-44" transform="translate(0 0.015625)"/>
     <use xlink:href="#DejaVuSans-Bold-65" transform="translate(83.007812 0.015625)"/>
     <use xlink:href="#DejaVuSans-Bold-6e" transform="translate(150.830078 0.015625)"/>
     <use xlink:href="#DejaVuSans-Bold-73" transform="translate(222.021484 0.015625)"/>
     <use xlink:href="#DejaVuSans-Bold-69" transform="translate(281.542969 0.015625)"/>
     <use xlink:href="#DejaVuSans-Bold-64" transform="translate(315.820312 0.015625)"/>
     <use xlink:href="#DejaVuSans-Bold-61" transform="translate(387.402344 0.015625)"/>
     <use xlink:href="#DejaVuSans-Bold-64" transform="translate(454.882812 0.015625)"/>
     <use xlink:href="#DejaVuSans-Bold-20" transform="translate(526.464844 0.015625)"/>
     <use xlink:href="#DejaVuSans-Bold-47" transform="translate(561.279297 0.015625)"/>
     <use xlink:href="#DejaVuSans-Bold-61" transform="translate(643.359375 0.015625)"/>
     <use xlink:href="#DejaVuSans-Bold-6d" transform="translate(710.839844 0.015625)"/>
     <use xlink:href="#DejaVuSans-Bold-6d" transform="translate(815.039062 0.015625)"/>
     <use xlink:href="#DejaVuSans-Bold-61" transform="translate(919.238281 0.015625)"/>
     <use xlink:href="#DejaVuSans-Bold-3a" transform="translate(986.71875 0.015625)"/>
     <use xlink:href="#DejaVuSans-Bold-20" transform="translate(1026.708984 0.015625)"/>
     <use xlink:href="#DejaVuSans-Bold-65" transform="translate(1061.523438 0.015625)"/>
     <use xlink:href="#DejaVuSans-Bold-66" transform="translate(1129.345703 0.015625)"/>
     <use xlink:href="#DejaVuSans-Bold-65" transform="translate(1172.851562 0.015625)"/>
     <use xlink:href="#DejaVuSans-Bold-63" transform="translate(1240.673828 0.015625)"/>
     <use xlink:href="#DejaVuSans-Bold-74" transform="translate(1299.951172 0.015625)"/>
     <use xlink:href="#DejaVuSans-Bold-6f" transform="translate(1347.753906 0.015625)"/>
     <use xlink:href="#DejaVuSans-Bold-20" transform="translate(1416.455078 0.015625)"/>
     <use xlink:href="#DejaVuSans-Bold-64" transform="translate(1451.269531 0.015625)"/>
     <use xlink:href="#DejaVuSans-Bold-65" transform="translate(1522.851562 0.015625)"/>
     <use xlink:href="#DejaVuSans-Bold-20" transform="translate(1590.673828 0.015625)"/>
     <use xlink:href="#DejaVuSans-Bold-6c" transform="translate(1625.488281 0.015625)"/>
     <use xlink:href="#DejaVuSans-Bold-61" transform="translate(1659.765625 0.015625)"/>
     <use xlink:href="#DejaVuSans-Bold-20" transform="translate(1727.246094 0.015625)"/>
     <use xlink:href="#DejaVuSans-Bold-66" transform="translate(1762.060547 0.015625)"/>
     <use xlink:href="#DejaVuSans-Bold-6f" transform="translate(1805.566406 0.015625)"/>
     <use xlink:href="#DejaVuSans-Bold-72" transform="translate(1874.267578 0.015625)"/>
     <use xlink:href="#DejaVuSans-Bold-6d" transform="translate(1923.583984 0.015625)"/>
     <use xlink:href="#DejaVuSans-Bold-61" transform="translate(2027.783203 0.015625)"/>
     <use xlink:href="#DejaVuSans-Bold-20" transform="translate(2095.263672 0.015625)"/>
     <use xlink:href="#DejaVuSans-Oblique-3b1" transform="translate(2130.078125 0.015625)"/>
    </g>
   </g>
   <g id="legend_1">
    <g id="patch_5">
     <path d="M 325.492969 94.774844 
L 411.182969 94.774844 
Q 413.082969 94.774844 413.082969 92.874844 
L 413.082969 38.047969 
Q 413.082969 36.147969 411.182969 36.147969 
L 325.492969 36.147969 
Q 323.592969 36.147969 323.592969 38.047969 
L 323.592969 92.874844 
Q 323.592969 94.774844 325.492969 94.774844 
z
" style="fill: #ffffff; opacity: 0.92; stroke: #cccccc; stroke-linejoin: miter"/>
    </g>
    <g id="line2d_33">
     <path d="M 327.392969 43.841484 
L 336.892969 43.841484 
L 346.392969 43.841484 
" style="fill: none; stroke: #2980b9; stroke-width: 2.6; stroke-linecap: square"/>
    </g>
    <g id="text_18">
     <!-- $\alpha=1,\ \lambda=1$ -->
     <g transform="translate(353.992969 47.166484) scale(0.095 -0.095)">
      <defs>
       <path id="DejaVuSans-3d" d="M 678 2906 
L 4684 2906 
L 4684 2381 
L 678 2381 
L 678 2906 
z
M 678 1631 
L 4684 1631 
L 4684 1100 
L 678 1100 
L 678 1631 
z
" transform="scale(0.015625)"/>
       <path id="DejaVuSans-2c" d="M 750 794 
L 1409 794 
L 1409 256 
L 897 -744 
L 494 -744 
L 750 256 
L 750 794 
z
" transform="scale(0.015625)"/>
       <path id="DejaVuSans-Oblique-3bb" d="M 2350 4316 
L 3125 0 
L 2516 0 
L 2038 2588 
L 328 0 
L -281 0 
L 1903 3356 
L 1794 3975 
Q 1725 4369 1391 4369 
L 1091 4369 
L 1184 4863 
L 1550 4856 
Q 2253 4847 2350 4316 
z
" transform="scale(0.015625)"/>
      </defs>
      <use xlink:href="#DejaVuSans-Oblique-3b1" transform="translate(0 0.015625)"/>
      <use xlink:href="#DejaVuSans-3d" transform="translate(85.400391 0.015625)"/>
      <use xlink:href="#DejaVuSans-31" transform="translate(188.671875 0.015625)"/>
      <use xlink:href="#DejaVuSans-2c" transform="translate(252.294922 0.015625)"/>
      <use xlink:href="#DejaVuSans-Oblique-3bb" transform="translate(336.034832 0.015625)"/>
      <use xlink:href="#DejaVuSans-3d" transform="translate(414.696941 0.015625)"/>
      <use xlink:href="#DejaVuSans-31" transform="translate(517.968425 0.015625)"/>
     </g>
    </g>
    <g id="line2d_34">
     <path d="M 327.392969 57.785703 
L 336.892969 57.785703 
L 346.392969 57.785703 
" style="fill: none; stroke: #c0392b; stroke-width: 2.6; stroke-linecap: square"/>
    </g>
    <g id="text_19">
     <!-- $\alpha=2,\ \lambda=1$ -->
     <g transform="translate(353.992969 61.110703) scale(0.095 -0.095)">
      <use xlink:href="#DejaVuSans-Oblique-3b1" transform="translate(0 0.015625)"/>
      <use xlink:href="#DejaVuSans-3d" transform="translate(85.400391 0.015625)"/>
      <use xlink:href="#DejaVuSans-32" transform="translate(188.671875 0.015625)"/>
      <use xlink:href="#DejaVuSans-2c" transform="translate(252.294922 0.015625)"/>
      <use xlink:href="#DejaVuSans-Oblique-3bb" transform="translate(336.034832 0.015625)"/>
      <use xlink:href="#DejaVuSans-3d" transform="translate(414.696941 0.015625)"/>
      <use xlink:href="#DejaVuSans-31" transform="translate(517.968425 0.015625)"/>
     </g>
    </g>
    <g id="line2d_35">
     <path d="M 327.392969 71.729922 
L 336.892969 71.729922 
L 346.392969 71.729922 
" style="fill: none; stroke: #27ae60; stroke-width: 2.6; stroke-linecap: square"/>
    </g>
    <g id="text_20">
     <!-- $\alpha=3,\ \lambda=1$ -->
     <g transform="translate(353.992969 75.054922) scale(0.095 -0.095)">
      <defs>
       <path id="DejaVuSans-33" d="M 2597 2516 
Q 3050 2419 3304 2112 
Q 3559 1806 3559 1356 
Q 3559 666 3084 287 
Q 2609 -91 1734 -91 
Q 1441 -91 1130 -33 
Q 819 25 488 141 
L 488 750 
Q 750 597 1062 519 
Q 1375 441 1716 441 
Q 2309 441 2620 675 
Q 2931 909 2931 1356 
Q 2931 1769 2642 2001 
Q 2353 2234 1838 2234 
L 1294 2234 
L 1294 2753 
L 1863 2753 
Q 2328 2753 2575 2939 
Q 2822 3125 2822 3475 
Q 2822 3834 2567 4026 
Q 2313 4219 1838 4219 
Q 1578 4219 1281 4162 
Q 984 4106 628 3988 
L 628 4550 
Q 988 4650 1302 4700 
Q 1616 4750 1894 4750 
Q 2613 4750 3031 4423 
Q 3450 4097 3450 3541 
Q 3450 3153 3228 2886 
Q 3006 2619 2597 2516 
z
" transform="scale(0.015625)"/>
      </defs>
      <use xlink:href="#DejaVuSans-Oblique-3b1" transform="translate(0 0.015625)"/>
      <use xlink:href="#DejaVuSans-3d" transform="translate(85.400391 0.015625)"/>
      <use xlink:href="#DejaVuSans-33" transform="translate(188.671875 0.015625)"/>
      <use xlink:href="#DejaVuSans-2c" transform="translate(252.294922 0.015625)"/>
      <use xlink:href="#DejaVuSans-Oblique-3bb" transform="translate(336.034832 0.015625)"/>
      <use xlink:href="#DejaVuSans-3d" transform="translate(414.696941 0.015625)"/>
      <use xlink:href="#DejaVuSans-31" transform="translate(517.968425 0.015625)"/>
     </g>
    </g>
    <g id="line2d_36">
     <path d="M 327.392969 85.674141 
L 336.892969 85.674141 
L 346.392969 85.674141 
" style="fill: none; stroke: #7d3c98; stroke-width: 2.6; stroke-linecap: square"/>
    </g>
    <g id="text_21">
     <!-- $\alpha=5,\ \lambda=1$ -->
     <g transform="translate(353.992969 88.999141) scale(0.095 -0.095)">
      <defs>
       <path id="DejaVuSans-35" d="M 691 4666 
L 3169 4666 
L 3169 4134 
L 1269 4134 
L 1269 2991 
Q 1406 3038 1543 3061 
Q 1681 3084 1819 3084 
Q 2600 3084 3056 2656 
Q 3513 2228 3513 1497 
Q 3513 744 3044 326 
Q 2575 -91 1722 -91 
Q 1428 -91 1123 -41 
Q 819 9 494 109 
L 494 744 
Q 775 591 1075 516 
Q 1375 441 1709 441 
Q 2250 441 2565 725 
Q 2881 1009 2881 1497 
Q 2881 1984 2565 2268 
Q 2250 2553 1709 2553 
Q 1456 2553 1204 2497 
Q 953 2441 691 2322 
L 691 4666 
z
" transform="scale(0.015625)"/>
      </defs>
      <use xlink:href="#DejaVuSans-Oblique-3b1" transform="translate(0 0.015625)"/>
      <use xlink:href="#DejaVuSans-3d" transform="translate(85.400391 0.015625)"/>
      <use xlink:href="#DejaVuSans-35" transform="translate(188.671875 0.015625)"/>
      <use xlink:href="#DejaVuSans-2c" transform="translate(252.294922 0.015625)"/>
      <use xlink:href="#DejaVuSans-Oblique-3bb" transform="translate(336.034832 0.015625)"/>
      <use xlink:href="#DejaVuSans-3d" transform="translate(414.696941 0.015625)"/>
      <use xlink:href="#DejaVuSans-31" transform="translate(517.968425 0.015625)"/>
     </g>
    </g>
   </g>
  </g>
 </g>
 <defs>
  <clipPath id="pdde5be8f6e">
   <rect x="49.552969" y="31.397969" width="368.28" height="227.304"/>
  </clipPath>
 </defs>
</svg>
