<?xml version="1.0" encoding="utf-8" standalone="no"?>
<!DOCTYPE svg PUBLIC "-//W3C//DTD SVG 1.1//EN"
  "http://www.w3.org/Graphics/SVG/1.1/DTD/svg11.dtd">
<svg xmlns:xlink="http://www.w3.org/1999/xlink" width="467.293359pt" height="351.925938pt" viewBox="0 0 467.293359 351.925938" xmlns="http://www.w3.org/2000/svg" version="1.1">
 <metadata>
  <rdf:RDF xmlns:dc="http://purl.org/dc/elements/1.1/" xmlns:cc="http://creativecommons.org/ns#" xmlns:rdf="http://www.w3.org/1999/02/22-rdf-syntax-ns#">
   <cc:Work>
    <dc:type rdf:resource="http://purl.org/dc/dcmitype/StillImage"/>
    <dc:date>2026-06-30T11:53:51.973130</dc:date>
    <dc:format>image/svg+xml</dc:format>
    <dc:creator>
     <cc:Agent>
      <dc:title>Matplotlib v3.9.2, https://matplotlib.org/</dc:title>
     </cc:Agent>
    </dc:creator>
   </cc:Work>
  </rdf:RDF>
 </metadata>
 <defs>
  <style type="text/css">*{stroke-linejoin: round; stroke-linecap: butt}</style>
 </defs>
 <g id="figure_1">
  <g id="patch_1">
   <path d="M 0 351.925938 
L 467.293359 351.925938 
L 467.293359 0 
L 0 0 
z
" style="fill: #ffffff"/>
  </g>
  <g id="axes_1">
   <g id="patch_2">
    <path d="M 55.915469 308.597969 
L 435.355469 308.597969 
L 435.355469 31.397969 
L 55.915469 31.397969 
z
" style="fill: #ffffff"/>
   </g>
   <g id="matplotlib.axis_1">
    <g id="xtick_1">
     <g id="line2d_1">
      <path d="M 81.254111 308.597969 
L 81.254111 31.397969 
" clip-path="url(#p0796d0ba9b)" style="fill: none; stroke-dasharray: 0.8,1.28; stroke-dashoffset: 0; stroke: #b0b0b0; stroke-opacity: 0.3; stroke-width: 0.8"/>
     </g>
     <g id="line2d_2">
      <defs>
       <path id="mec341e625d" d="M 0 0 
L 0 3.5 
" style="stroke: #2c3e50; stroke-width: 0.8"/>
      </defs>
      <g>
       <use xlink:href="#mec341e625d" x="81.254111" y="308.597969" style="fill: #2c3e50; stroke: #2c3e50; stroke-width: 0.8"/>
      </g>
     </g>
     <g id="text_1">
      <!-- 44 -->
      <g style="fill: #2c3e50" transform="translate(74.891611 323.196406) scale(0.1 -0.1)">
       <defs>
        <path id="DejaVuSans-34" d="M 2419 4116 
L 825 1625 
L 2419 1625 
L 2419 4116 
z
M 2253 4666 
L 3047 4666 
L 3047 1625 
L 3713 1625 
L 3713 1100 
L 3047 1100 
L 3047 0 
L 2419 0 
L 2419 1100 
L 313 1100 
L 313 1709 
L 2253 4666 
z
" transform="scale(0.015625)"/>
       </defs>
       <use xlink:href="#DejaVuSans-34"/>
       <use xlink:href="#DejaVuSans-34" x="63.623047"/>
      </g>
     </g>
    </g>
    <g id="xtick_2">
     <g id="line2d_3">
      <path d="M 143.823802 308.597969 
L 143.823802 31.397969 
" clip-path="url(#p0796d0ba9b)" style="fill: none; stroke-dasharray: 0.8,1.28; stroke-dashoffset: 0; stroke: #b0b0b0; stroke-opacity: 0.3; stroke-width: 0.8"/>
     </g>
     <g id="line2d_4">
      <g>
       <use xlink:href="#mec341e625d" x="143.823802" y="308.597969" style="fill: #2c3e50; stroke: #2c3e50; stroke-width: 0.8"/>
      </g>
     </g>
     <g id="text_2">
      <!-- 46 -->
      <g style="fill: #2c3e50" transform="translate(137.461302 323.196406) scale(0.1 -0.1)">
       <defs>
        <path id="DejaVuSans-36" d="M 2113 2584 
Q 1688 2584 1439 2293 
Q 1191 2003 1191 1497 
Q 1191 994 1439 701 
Q 1688 409 2113 409 
Q 2538 409 2786 701 
Q 3034 994 3034 1497 
Q 3034 2003 2786 2293 
Q 2538 2584 2113 2584 
z
M 3366 4563 
L 3366 3988 
Q 3128 4100 2886 4159 
Q 2644 4219 2406 4219 
Q 1781 4219 1451 3797 
Q 1122 3375 1075 2522 
Q 1259 2794 1537 2939 
Q 1816 3084 2150 3084 
Q 2853 3084 3261 2657 
Q 3669 2231 3669 1497 
Q 3669 778 3244 343 
Q 2819 -91 2113 -91 
Q 1303 -91 875 529 
Q 447 1150 447 2328 
Q 447 3434 972 4092 
Q 1497 4750 2381 4750 
Q 2619 4750 2861 4703 
Q 3103 4656 3366 4563 
z
" transform="scale(0.015625)"/>
       </defs>
       <use xlink:href="#DejaVuSans-34"/>
       <use xlink:href="#DejaVuSans-36" x="63.623047"/>
      </g>
     </g>
    </g>
    <g id="xtick_3">
     <g id="line2d_5">
      <path d="M 206.393492 308.597969 
L 206.393492 31.397969 
" clip-path="url(#p0796d0ba9b)" style="fill: none; stroke-dasharray: 0.8,1.28; stroke-dashoffset: 0; stroke: #b0b0b0; stroke-opacity: 0.3; stroke-width: 0.8"/>
     </g>
     <g id="line2d_6">
      <g>
       <use xlink:href="#mec341e625d" x="206.393492" y="308.597969" style="fill: #2c3e50; stroke: #2c3e50; stroke-width: 0.8"/>
      </g>
     </g>
     <g id="text_3">
      <!-- 48 -->
      <g style="fill: #2c3e50" transform="translate(200.030992 323.196406) scale(0.1 -0.1)">
       <defs>
        <path id="DejaVuSans-38" d="M 2034 2216 
Q 1584 2216 1326 1975 
Q 1069 1734 1069 1313 
Q 1069 891 1326 650 
Q 1584 409 2034 409 
Q 2484 409 2743 651 
Q 3003 894 3003 1313 
Q 3003 1734 2745 1975 
Q 2488 2216 2034 2216 
z
M 1403 2484 
Q 997 2584 770 2862 
Q 544 3141 544 3541 
Q 544 4100 942 4425 
Q 1341 4750 2034 4750 
Q 2731 4750 3128 4425 
Q 3525 4100 3525 3541 
Q 3525 3141 3298 2862 
Q 3072 2584 2669 2484 
Q 3125 2378 3379 2068 
Q 3634 1759 3634 1313 
Q 3634 634 3220 271 
Q 2806 -91 2034 -91 
Q 1263 -91 848 271 
Q 434 634 434 1313 
Q 434 1759 690 2068 
Q 947 2378 1403 2484 
z
M 1172 3481 
Q 1172 3119 1398 2916 
Q 1625 2713 2034 2713 
Q 2441 2713 2670 2916 
Q 2900 3119 2900 3481 
Q 2900 3844 2670 4047 
Q 2441 4250 2034 4250 
Q 1625 4250 1398 4047 
Q 1172 3844 1172 3481 
z
" transform="scale(0.015625)"/>
       </defs>
       <use xlink:href="#DejaVuSans-34"/>
       <use xlink:href="#DejaVuSans-38" x="63.623047"/>
      </g>
     </g>
    </g>
    <g id="xtick_4">
     <g id="line2d_7">
      <path d="M 268.963183 308.597969 
L 268.963183 31.397969 
" clip-path="url(#p0796d0ba9b)" style="fill: none; stroke-dasharray: 0.8,1.28; stroke-dashoffset: 0; stroke: #b0b0b0; stroke-opacity: 0.3; stroke-width: 0.8"/>
     </g>
     <g id="line2d_8">
      <g>
       <use xlink:href="#mec341e625d" x="268.963183" y="308.597969" style="fill: #2c3e50; stroke: #2c3e50; stroke-width: 0.8"/>
      </g>
     </g>
     <g id="text_4">
      <!-- 50 -->
      <g style="fill: #2c3e50" transform="translate(262.600683 323.196406) scale(0.1 -0.1)">
       <defs>
        <path id="DejaVuSans-35" d="M 691 4666 
L 3169 4666 
L 3169 4134 
L 1269 4134 
L 1269 2991 
Q 1406 3038 1543 3061 
Q 1681 3084 1819 3084 
Q 2600 3084 3056 2656 
Q 3513 2228 3513 1497 
Q 3513 744 3044 326 
Q 2575 -91 1722 -91 
Q 1428 -91 1123 -41 
Q 819 9 494 109 
L 494 744 
Q 775 591 1075 516 
Q 1375 441 1709 441 
Q 2250 441 2565 725 
Q 2881 1009 2881 1497 
Q 2881 1984 2565 2268 
Q 2250 2553 1709 2553 
Q 1456 2553 1204 2497 
Q 953 2441 691 2322 
L 691 4666 
z
" transform="scale(0.015625)"/>
        <path id="DejaVuSans-30" d="M 2034 4250 
Q 1547 4250 1301 3770 
Q 1056 3291 1056 2328 
Q 1056 1369 1301 889 
Q 1547 409 2034 409 
Q 2525 409 2770 889 
Q 3016 1369 3016 2328 
Q 3016 3291 2770 3770 
Q 2525 4250 2034 4250 
z
M 2034 4750 
Q 2819 4750 3233 4129 
Q 3647 3509 3647 2328 
Q 3647 1150 3233 529 
Q 2819 -91 2034 -91 
Q 1250 -91 836 529 
Q 422 1150 422 2328 
Q 422 3509 836 4129 
Q 1250 4750 2034 4750 
z
" transform="scale(0.015625)"/>
       </defs>
       <use xlink:href="#DejaVuSans-35"/>
       <use xlink:href="#DejaVuSans-30" x="63.623047"/>
      </g>
     </g>
    </g>
    <g id="xtick_5">
     <g id="line2d_9">
      <path d="M 331.532874 308.597969 
L 331.532874 31.397969 
" clip-path="url(#p0796d0ba9b)" style="fill: none; stroke-dasharray: 0.8,1.28; stroke-dashoffset: 0; stroke: #b0b0b0; stroke-opacity: 0.3; stroke-width: 0.8"/>
     </g>
     <g id="line2d_10">
      <g>
       <use xlink:href="#mec341e625d" x="331.532874" y="308.597969" style="fill: #2c3e50; stroke: #2c3e50; stroke-width: 0.8"/>
      </g>
     </g>
     <g id="text_5">
      <!-- 52 -->
      <g style="fill: #2c3e50" transform="translate(325.170374 323.196406) scale(0.1 -0.1)">
       <defs>
        <path id="DejaVuSans-32" d="M 1228 531 
L 3431 531 
L 3431 0 
L 469 0 
L 469 531 
Q 828 903 1448 1529 
Q 2069 2156 2228 2338 
Q 2531 2678 2651 2914 
Q 2772 3150 2772 3378 
Q 2772 3750 2511 3984 
Q 2250 4219 1831 4219 
Q 1534 4219 1204 4116 
Q 875 4013 500 3803 
L 500 4441 
Q 881 4594 1212 4672 
Q 1544 4750 1819 4750 
Q 2544 4750 2975 4387 
Q 3406 4025 3406 3419 
Q 3406 3131 3298 2873 
Q 3191 2616 2906 2266 
Q 2828 2175 2409 1742 
Q 1991 1309 1228 531 
z
" transform="scale(0.015625)"/>
       </defs>
       <use xlink:href="#DejaVuSans-35"/>
       <use xlink:href="#DejaVuSans-32" x="63.623047"/>
      </g>
     </g>
    </g>
    <g id="xtick_6">
     <g id="line2d_11">
      <path d="M 394.102565 308.597969 
L 394.102565 31.397969 
" clip-path="url(#p0796d0ba9b)" style="fill: none; stroke-dasharray: 0.8,1.28; stroke-dashoffset: 0; stroke: #b0b0b0; stroke-opacity: 0.3; stroke-width: 0.8"/>
     </g>
     <g id="line2d_12">
      <g>
       <use xlink:href="#mec341e625d" x="394.102565" y="308.597969" style="fill: #2c3e50; stroke: #2c3e50; stroke-width: 0.8"/>
      </g>
     </g>
     <g id="text_6">
      <!-- 54 -->
      <g style="fill: #2c3e50" transform="translate(387.740065 323.196406) scale(0.1 -0.1)">
       <use xlink:href="#DejaVuSans-35"/>
       <use xlink:href="#DejaVuSans-34" x="63.623047"/>
      </g>
     </g>
    </g>
    <g id="text_7">
     <!-- valor -->
     <g transform="translate(229.249766 338.014297) scale(0.115 -0.115)">
      <defs>
       <path id="DejaVuSans-Bold-76" d="M 97 3500 
L 1216 3500 
L 2088 1081 
L 2956 3500 
L 4078 3500 
L 2700 0 
L 1472 0 
L 97 3500 
z
" transform="scale(0.015625)"/>
       <path id="DejaVuSans-Bold-61" d="M 2106 1575 
Q 1756 1575 1579 1456 
Q 1403 1338 1403 1106 
Q 1403 894 1545 773 
Q 1688 653 1941 653 
Q 2256 653 2472 879 
Q 2688 1106 2688 1447 
L 2688 1575 
L 2106 1575 
z
M 3816 1997 
L 3816 0 
L 2688 0 
L 2688 519 
Q 2463 200 2181 54 
Q 1900 -91 1497 -91 
Q 953 -91 614 226 
Q 275 544 275 1050 
Q 275 1666 698 1953 
Q 1122 2241 2028 2241 
L 2688 2241 
L 2688 2328 
Q 2688 2594 2478 2717 
Q 2269 2841 1825 2841 
Q 1466 2841 1156 2769 
Q 847 2697 581 2553 
L 581 3406 
Q 941 3494 1303 3539 
Q 1666 3584 2028 3584 
Q 2975 3584 3395 3211 
Q 3816 2838 3816 1997 
z
" transform="scale(0.015625)"/>
       <path id="DejaVuSans-Bold-6c" d="M 538 4863 
L 1656 4863 
L 1656 0 
L 538 0 
L 538 4863 
z
" transform="scale(0.015625)"/>
       <path id="DejaVuSans-Bold-6f" d="M 2203 2784 
Q 1831 2784 1636 2517 
Q 1441 2250 1441 1747 
Q 1441 1244 1636 976 
Q 1831 709 2203 709 
Q 2569 709 2762 976 
Q 2956 1244 2956 1747 
Q 2956 2250 2762 2517 
Q 2569 2784 2203 2784 
z
M 2203 3584 
Q 3106 3584 3614 3096 
Q 4122 2609 4122 1747 
Q 4122 884 3614 396 
Q 3106 -91 2203 -91 
Q 1297 -91 786 396 
Q 275 884 275 1747 
Q 275 2609 786 3096 
Q 1297 3584 2203 3584 
z
" transform="scale(0.015625)"/>
       <path id="DejaVuSans-Bold-72" d="M 3138 2547 
Q 2991 2616 2845 2648 
Q 2700 2681 2553 2681 
Q 2122 2681 1889 2404 
Q 1656 2128 1656 1613 
L 1656 0 
L 538 0 
L 538 3500 
L 1656 3500 
L 1656 2925 
Q 1872 3269 2151 3426 
Q 2431 3584 2822 3584 
Q 2878 3584 2943 3579 
Q 3009 3575 3134 3559 
L 3138 2547 
z
" transform="scale(0.015625)"/>
      </defs>
      <use xlink:href="#DejaVuSans-Bold-76"/>
      <use xlink:href="#DejaVuSans-Bold-61" x="65.185547"/>
      <use xlink:href="#DejaVuSans-Bold-6c" x="132.666016"/>
      <use xlink:href="#DejaVuSans-Bold-6f" x="166.943359"/>
      <use xlink:href="#DejaVuSans-Bold-72" x="235.644531"/>
     </g>
    </g>
   </g>
   <g id="matplotlib.axis_2">
    <g id="ytick_1">
     <g id="line2d_13">
      <path d="M 55.915469 308.597969 
L 435.355469 308.597969 
" clip-path="url(#p0796d0ba9b)" style="fill: none; stroke-dasharray: 0.8,1.28; stroke-dashoffset: 0; stroke: #b0b0b0; stroke-opacity: 0.3; stroke-width: 0.8"/>
     </g>
     <g id="line2d_14">
      <defs>
       <path id="m0c09fff2da" d="M 0 0 
L -3.5 0 
" style="stroke: #2c3e50; stroke-width: 0.8"/>
      </defs>
      <g>
       <use xlink:href="#m0c09fff2da" x="55.915469" y="308.597969" style="fill: #2c3e50; stroke: #2c3e50; stroke-width: 0.8"/>
      </g>
     </g>
     <g id="text_8">
      <!-- 0.0 -->
      <g style="fill: #2c3e50" transform="translate(33.012344 312.397188) scale(0.1 -0.1)">
       <defs>
        <path id="DejaVuSans-2e" d="M 684 794 
L 1344 794 
L 1344 0 
L 684 0 
L 684 794 
z
" transform="scale(0.015625)"/>
       </defs>
       <use xlink:href="#DejaVuSans-30"/>
       <use xlink:href="#DejaVuSans-2e" x="63.623047"/>
       <use xlink:href="#DejaVuSans-30" x="95.410156"/>
      </g>
     </g>
    </g>
    <g id="ytick_2">
     <g id="line2d_15">
      <path d="M 55.915469 276.365411 
L 435.355469 276.365411 
" clip-path="url(#p0796d0ba9b)" style="fill: none; stroke-dasharray: 0.8,1.28; stroke-dashoffset: 0; stroke: #b0b0b0; stroke-opacity: 0.3; stroke-width: 0.8"/>
     </g>
     <g id="line2d_16">
      <g>
       <use xlink:href="#m0c09fff2da" x="55.915469" y="276.365411" style="fill: #2c3e50; stroke: #2c3e50; stroke-width: 0.8"/>
      </g>
     </g>
     <g id="text_9">
      <!-- 2.5 -->
      <g style="fill: #2c3e50" transform="translate(33.012344 280.164629) scale(0.1 -0.1)">
       <use xlink:href="#DejaVuSans-32"/>
       <use xlink:href="#DejaVuSans-2e" x="63.623047"/>
       <use xlink:href="#DejaVuSans-35" x="95.410156"/>
      </g>
     </g>
    </g>
    <g id="ytick_3">
     <g id="line2d_17">
      <path d="M 55.915469 244.132852 
L 435.355469 244.132852 
" clip-path="url(#p0796d0ba9b)" style="fill: none; stroke-dasharray: 0.8,1.28; stroke-dashoffset: 0; stroke: #b0b0b0; stroke-opacity: 0.3; stroke-width: 0.8"/>
     </g>
     <g id="line2d_18">
      <g>
       <use xlink:href="#m0c09fff2da" x="55.915469" y="244.132852" style="fill: #2c3e50; stroke: #2c3e50; stroke-width: 0.8"/>
      </g>
     </g>
     <g id="text_10">
      <!-- 5.0 -->
      <g style="fill: #2c3e50" transform="translate(33.012344 247.932071) scale(0.1 -0.1)">
       <use xlink:href="#DejaVuSans-35"/>
       <use xlink:href="#DejaVuSans-2e" x="63.623047"/>
       <use xlink:href="#DejaVuSans-30" x="95.410156"/>
      </g>
     </g>
    </g>
    <g id="ytick_4">
     <g id="line2d_19">
      <path d="M 55.915469 211.900294 
L 435.355469 211.900294 
" clip-path="url(#p0796d0ba9b)" style="fill: none; stroke-dasharray: 0.8,1.28; stroke-dashoffset: 0; stroke: #b0b0b0; stroke-opacity: 0.3; stroke-width: 0.8"/>
     </g>
     <g id="line2d_20">
      <g>
       <use xlink:href="#m0c09fff2da" x="55.915469" y="211.900294" style="fill: #2c3e50; stroke: #2c3e50; stroke-width: 0.8"/>
      </g>
     </g>
     <g id="text_11">
      <!-- 7.5 -->
      <g style="fill: #2c3e50" transform="translate(33.012344 215.699513) scale(0.1 -0.1)">
       <defs>
        <path id="DejaVuSans-37" d="M 525 4666 
L 3525 4666 
L 3525 4397 
L 1831 0 
L 1172 0 
L 2766 4134 
L 525 4134 
L 525 4666 
z
" transform="scale(0.015625)"/>
       </defs>
       <use xlink:href="#DejaVuSans-37"/>
       <use xlink:href="#DejaVuSans-2e" x="63.623047"/>
       <use xlink:href="#DejaVuSans-35" x="95.410156"/>
      </g>
     </g>
    </g>
    <g id="ytick_5">
     <g id="line2d_21">
      <path d="M 55.915469 179.667736 
L 435.355469 179.667736 
" clip-path="url(#p0796d0ba9b)" style="fill: none; stroke-dasharray: 0.8,1.28; stroke-dashoffset: 0; stroke: #b0b0b0; stroke-opacity: 0.3; stroke-width: 0.8"/>
     </g>
     <g id="line2d_22">
      <g>
       <use xlink:href="#m0c09fff2da" x="55.915469" y="179.667736" style="fill: #2c3e50; stroke: #2c3e50; stroke-width: 0.8"/>
      </g>
     </g>
     <g id="text_12">
      <!-- 10.0 -->
      <g style="fill: #2c3e50" transform="translate(26.649844 183.466955) scale(0.1 -0.1)">
       <defs>
        <path id="DejaVuSans-31" d="M 794 531 
L 1825 531 
L 1825 4091 
L 703 3866 
L 703 4441 
L 1819 4666 
L 2450 4666 
L 2450 531 
L 3481 531 
L 3481 0 
L 794 0 
L 794 531 
z
" transform="scale(0.015625)"/>
       </defs>
       <use xlink:href="#DejaVuSans-31"/>
       <use xlink:href="#DejaVuSans-30" x="63.623047"/>
       <use xlink:href="#DejaVuSans-2e" x="127.246094"/>
       <use xlink:href="#DejaVuSans-30" x="159.033203"/>
      </g>
     </g>
    </g>
    <g id="ytick_6">
     <g id="line2d_23">
      <path d="M 55.915469 147.435178 
L 435.355469 147.435178 
" clip-path="url(#p0796d0ba9b)" style="fill: none; stroke-dasharray: 0.8,1.28; stroke-dashoffset: 0; stroke: #b0b0b0; stroke-opacity: 0.3; stroke-width: 0.8"/>
     </g>
     <g id="line2d_24">
      <g>
       <use xlink:href="#m0c09fff2da" x="55.915469" y="147.435178" style="fill: #2c3e50; stroke: #2c3e50; stroke-width: 0.8"/>
      </g>
     </g>
     <g id="text_13">
      <!-- 12.5 -->
      <g style="fill: #2c3e50" transform="translate(26.649844 151.234397) scale(0.1 -0.1)">
       <use xlink:href="#DejaVuSans-31"/>
       <use xlink:href="#DejaVuSans-32" x="63.623047"/>
       <use xlink:href="#DejaVuSans-2e" x="127.246094"/>
       <use xlink:href="#DejaVuSans-35" x="159.033203"/>
      </g>
     </g>
    </g>
    <g id="ytick_7">
     <g id="line2d_25">
      <path d="M 55.915469 115.20262 
L 435.355469 115.20262 
" clip-path="url(#p0796d0ba9b)" style="fill: none; stroke-dasharray: 0.8,1.28; stroke-dashoffset: 0; stroke: #b0b0b0; stroke-opacity: 0.3; stroke-width: 0.8"/>
     </g>
     <g id="line2d_26">
      <g>
       <use xlink:href="#m0c09fff2da" x="55.915469" y="115.20262" style="fill: #2c3e50; stroke: #2c3e50; stroke-width: 0.8"/>
      </g>
     </g>
     <g id="text_14">
      <!-- 15.0 -->
      <g style="fill: #2c3e50" transform="translate(26.649844 119.001839) scale(0.1 -0.1)">
       <use xlink:href="#DejaVuSans-31"/>
       <use xlink:href="#DejaVuSans-35" x="63.623047"/>
       <use xlink:href="#DejaVuSans-2e" x="127.246094"/>
       <use xlink:href="#DejaVuSans-30" x="159.033203"/>
      </g>
     </g>
    </g>
    <g id="ytick_8">
     <g id="line2d_27">
      <path d="M 55.915469 82.970062 
L 435.355469 82.970062 
" clip-path="url(#p0796d0ba9b)" style="fill: none; stroke-dasharray: 0.8,1.28; stroke-dashoffset: 0; stroke: #b0b0b0; stroke-opacity: 0.3; stroke-width: 0.8"/>
     </g>
     <g id="line2d_28">
      <g>
       <use xlink:href="#m0c09fff2da" x="55.915469" y="82.970062" style="fill: #2c3e50; stroke: #2c3e50; stroke-width: 0.8"/>
      </g>
     </g>
     <g id="text_15">
      <!-- 17.5 -->
      <g style="fill: #2c3e50" transform="translate(26.649844 86.769281) scale(0.1 -0.1)">
       <use xlink:href="#DejaVuSans-31"/>
       <use xlink:href="#DejaVuSans-37" x="63.623047"/>
       <use xlink:href="#DejaVuSans-2e" x="127.246094"/>
       <use xlink:href="#DejaVuSans-35" x="159.033203"/>
      </g>
     </g>
    </g>
    <g id="ytick_9">
     <g id="line2d_29">
      <path d="M 55.915469 50.737504 
L 435.355469 50.737504 
" clip-path="url(#p0796d0ba9b)" style="fill: none; stroke-dasharray: 0.8,1.28; stroke-dashoffset: 0; stroke: #b0b0b0; stroke-opacity: 0.3; stroke-width: 0.8"/>
     </g>
     <g id="line2d_30">
      <g>
       <use xlink:href="#m0c09fff2da" x="55.915469" y="50.737504" style="fill: #2c3e50; stroke: #2c3e50; stroke-width: 0.8"/>
      </g>
     </g>
     <g id="text_16">
      <!-- 20.0 -->
      <g style="fill: #2c3e50" transform="translate(26.649844 54.536722) scale(0.1 -0.1)">
       <use xlink:href="#DejaVuSans-32"/>
       <use xlink:href="#DejaVuSans-30" x="63.623047"/>
       <use xlink:href="#DejaVuSans-2e" x="127.246094"/>
       <use xlink:href="#DejaVuSans-30" x="159.033203"/>
      </g>
     </g>
    </g>
    <g id="text_17">
     <!-- muestra # -->
     <g transform="translate(20.258203 203.689375) rotate(-90) scale(0.115 -0.115)">
      <defs>
       <path id="DejaVuSans-Bold-6d" d="M 3781 2919 
Q 3994 3244 4286 3414 
Q 4578 3584 4928 3584 
Q 5531 3584 5847 3212 
Q 6163 2841 6163 2131 
L 6163 0 
L 5038 0 
L 5038 1825 
Q 5041 1866 5042 1909 
Q 5044 1953 5044 2034 
Q 5044 2406 4934 2573 
Q 4825 2741 4581 2741 
Q 4263 2741 4089 2478 
Q 3916 2216 3909 1719 
L 3909 0 
L 2784 0 
L 2784 1825 
Q 2784 2406 2684 2573 
Q 2584 2741 2328 2741 
Q 2006 2741 1831 2477 
Q 1656 2213 1656 1722 
L 1656 0 
L 531 0 
L 531 3500 
L 1656 3500 
L 1656 2988 
Q 1863 3284 2130 3434 
Q 2397 3584 2719 3584 
Q 3081 3584 3359 3409 
Q 3638 3234 3781 2919 
z
" transform="scale(0.015625)"/>
       <path id="DejaVuSans-Bold-75" d="M 500 1363 
L 500 3500 
L 1625 3500 
L 1625 3150 
Q 1625 2866 1622 2436 
Q 1619 2006 1619 1863 
Q 1619 1441 1641 1255 
Q 1663 1069 1716 984 
Q 1784 875 1895 815 
Q 2006 756 2150 756 
Q 2500 756 2700 1025 
Q 2900 1294 2900 1772 
L 2900 3500 
L 4019 3500 
L 4019 0 
L 2900 0 
L 2900 506 
Q 2647 200 2364 54 
Q 2081 -91 1741 -91 
Q 1134 -91 817 281 
Q 500 653 500 1363 
z
" transform="scale(0.015625)"/>
       <path id="DejaVuSans-Bold-65" d="M 4031 1759 
L 4031 1441 
L 1416 1441 
Q 1456 1047 1700 850 
Q 1944 653 2381 653 
Q 2734 653 3104 758 
Q 3475 863 3866 1075 
L 3866 213 
Q 3469 63 3072 -14 
Q 2675 -91 2278 -91 
Q 1328 -91 801 392 
Q 275 875 275 1747 
Q 275 2603 792 3093 
Q 1309 3584 2216 3584 
Q 3041 3584 3536 3087 
Q 4031 2591 4031 1759 
z
M 2881 2131 
Q 2881 2450 2695 2645 
Q 2509 2841 2209 2841 
Q 1884 2841 1681 2658 
Q 1478 2475 1428 2131 
L 2881 2131 
z
" transform="scale(0.015625)"/>
       <path id="DejaVuSans-Bold-73" d="M 3272 3391 
L 3272 2541 
Q 2913 2691 2578 2766 
Q 2244 2841 1947 2841 
Q 1628 2841 1473 2761 
Q 1319 2681 1319 2516 
Q 1319 2381 1436 2309 
Q 1553 2238 1856 2203 
L 2053 2175 
Q 2913 2066 3209 1816 
Q 3506 1566 3506 1031 
Q 3506 472 3093 190 
Q 2681 -91 1863 -91 
Q 1516 -91 1145 -36 
Q 775 19 384 128 
L 384 978 
Q 719 816 1070 734 
Q 1422 653 1784 653 
Q 2113 653 2278 743 
Q 2444 834 2444 1013 
Q 2444 1163 2330 1236 
Q 2216 1309 1875 1350 
L 1678 1375 
Q 931 1469 631 1722 
Q 331 1975 331 2491 
Q 331 3047 712 3315 
Q 1094 3584 1881 3584 
Q 2191 3584 2531 3537 
Q 2872 3491 3272 3391 
z
" transform="scale(0.015625)"/>
       <path id="DejaVuSans-Bold-74" d="M 1759 4494 
L 1759 3500 
L 2913 3500 
L 2913 2700 
L 1759 2700 
L 1759 1216 
Q 1759 972 1856 886 
Q 1953 800 2241 800 
L 2816 800 
L 2816 0 
L 1856 0 
Q 1194 0 917 276 
Q 641 553 641 1216 
L 641 2700 
L 84 2700 
L 84 3500 
L 641 3500 
L 641 4494 
L 1759 4494 
z
" transform="scale(0.015625)"/>
       <path id="DejaVuSans-Bold-20" transform="scale(0.015625)"/>
       <path id="DejaVuSans-Bold-23" d="M 2847 4594 
L 2547 3391 
L 3372 3391 
L 3675 4594 
L 4366 4594 
L 4063 3391 
L 4928 3391 
L 4928 2725 
L 3897 2725 
L 3681 1869 
L 4569 1869 
L 4569 1197 
L 3519 1197 
L 3219 0 
L 2528 0 
L 2828 1197 
L 2003 1197 
L 1703 0 
L 1006 0 
L 1306 1197 
L 434 1197 
L 434 1869 
L 1459 1869 
L 1678 2725 
L 794 2725 
L 794 3391 
L 1850 3391 
L 2150 4594 
L 2847 4594 
z
M 3200 2725 
L 2375 2725 
L 2156 1869 
L 2981 1869 
L 3200 2725 
z
" transform="scale(0.015625)"/>
      </defs>
      <use xlink:href="#DejaVuSans-Bold-6d"/>
      <use xlink:href="#DejaVuSans-Bold-75" x="104.199219"/>
      <use xlink:href="#DejaVuSans-Bold-65" x="175.390625"/>
      <use xlink:href="#DejaVuSans-Bold-73" x="243.212891"/>
      <use xlink:href="#DejaVuSans-Bold-74" x="302.734375"/>
      <use xlink:href="#DejaVuSans-Bold-72" x="350.537109"/>
      <use xlink:href="#DejaVuSans-Bold-61" x="399.853516"/>
      <use xlink:href="#DejaVuSans-Bold-20" x="467.333984"/>
      <use xlink:href="#DejaVuSans-Bold-23" x="502.148438"/>
     </g>
    </g>
   </g>
   <g id="line2d_31">
    <path d="M 185.148896 50.737504 
L 364.267815 50.737504 
" clip-path="url(#p0796d0ba9b)" style="fill: none; stroke: #2980b9; stroke-opacity: 0.9; stroke-width: 2.2; stroke-linecap: round"/>
   </g>
   <g id="line2d_32">
    <defs>
     <path id="m11cb971c38" d="M 0 2 
C 0.530406 2 1.03916 1.789267 1.414214 1.414214 
C 1.789267 1.03916 2 0.530406 2 0 
C 2 -0.530406 1.789267 -1.03916 1.414214 -1.414214 
C 1.03916 -1.789267 0.530406 -2 0 -2 
C -0.530406 -2 -1.03916 -1.789267 -1.414214 -1.414214 
C -1.789267 -1.03916 -2 -0.530406 -2 0 
C -2 0.530406 -1.789267 1.03916 -1.414214 1.414214 
C -1.03916 1.789267 -0.530406 2 0 2 
z
" style="stroke: #2980b9"/>
    </defs>
    <g clip-path="url(#p0796d0ba9b)">
     <use xlink:href="#m11cb971c38" x="274.708355" y="50.737504" style="fill: #2980b9; stroke: #2980b9"/>
    </g>
   </g>
   <g id="line2d_33">
    <path d="M 173.367266 63.630527 
L 352.486185 63.630527 
" clip-path="url(#p0796d0ba9b)" style="fill: none; stroke: #2980b9; stroke-opacity: 0.9; stroke-width: 2.2; stroke-linecap: round"/>
   </g>
   <g id="line2d_34">
    <g clip-path="url(#p0796d0ba9b)">
     <use xlink:href="#m11cb971c38" x="262.926725" y="63.630527" style="fill: #2980b9; stroke: #2980b9"/>
    </g>
   </g>
   <g id="line2d_35">
    <path d="M 208.667479 76.52355 
L 387.786398 76.52355 
" clip-path="url(#p0796d0ba9b)" style="fill: none; stroke: #2980b9; stroke-opacity: 0.9; stroke-width: 2.2; stroke-linecap: round"/>
   </g>
   <g id="line2d_36">
    <g clip-path="url(#p0796d0ba9b)">
     <use xlink:href="#m11cb971c38" x="298.226938" y="76.52355" style="fill: #2980b9; stroke: #2980b9"/>
    </g>
   </g>
   <g id="line2d_37">
    <path d="M 184.197076 89.416573 
L 363.315995 89.416573 
" clip-path="url(#p0796d0ba9b)" style="fill: none; stroke: #2980b9; stroke-opacity: 0.9; stroke-width: 2.2; stroke-linecap: round"/>
   </g>
   <g id="line2d_38">
    <g clip-path="url(#p0796d0ba9b)">
     <use xlink:href="#m11cb971c38" x="273.756535" y="89.416573" style="fill: #2980b9; stroke: #2980b9"/>
    </g>
   </g>
   <g id="line2d_39">
    <path d="M 154.926611 102.309597 
L 334.04553 102.309597 
" clip-path="url(#p0796d0ba9b)" style="fill: none; stroke: #2980b9; stroke-opacity: 0.9; stroke-width: 2.2; stroke-linecap: round"/>
   </g>
   <g id="line2d_40">
    <g clip-path="url(#p0796d0ba9b)">
     <use xlink:href="#m11cb971c38" x="244.48607" y="102.309597" style="fill: #2980b9; stroke: #2980b9"/>
    </g>
   </g>
   <g id="line2d_41">
    <path d="M 195.926608 115.20262 
L 375.045526 115.20262 
" clip-path="url(#p0796d0ba9b)" style="fill: none; stroke: #2980b9; stroke-opacity: 0.9; stroke-width: 2.2; stroke-linecap: round"/>
   </g>
   <g id="line2d_42">
    <g clip-path="url(#p0796d0ba9b)">
     <use xlink:href="#m11cb971c38" x="285.486067" y="115.20262" style="fill: #2980b9; stroke: #2980b9"/>
    </g>
   </g>
   <g id="line2d_43">
    <path d="M 238.989277 128.095643 
L 418.108196 128.095643 
" clip-path="url(#p0796d0ba9b)" style="fill: none; stroke: #2980b9; stroke-opacity: 0.9; stroke-width: 2.2; stroke-linecap: round"/>
   </g>
   <g id="line2d_44">
    <g clip-path="url(#p0796d0ba9b)">
     <use xlink:href="#m11cb971c38" x="328.548737" y="128.095643" style="fill: #2980b9; stroke: #2980b9"/>
    </g>
   </g>
   <g id="line2d_45">
    <path d="M 222.680059 140.988666 
L 401.798978 140.988666 
" clip-path="url(#p0796d0ba9b)" style="fill: none; stroke: #2980b9; stroke-opacity: 0.9; stroke-width: 2.2; stroke-linecap: round"/>
   </g>
   <g id="line2d_46">
    <g clip-path="url(#p0796d0ba9b)">
     <use xlink:href="#m11cb971c38" x="312.239519" y="140.988666" style="fill: #2980b9; stroke: #2980b9"/>
    </g>
   </g>
   <g id="line2d_47">
    <path d="M 147.246935 153.88169 
L 326.365854 153.88169 
" clip-path="url(#p0796d0ba9b)" style="fill: none; stroke: #2980b9; stroke-opacity: 0.9; stroke-width: 2.2; stroke-linecap: round"/>
   </g>
   <g id="line2d_48">
    <g clip-path="url(#p0796d0ba9b)">
     <use xlink:href="#m11cb971c38" x="236.806395" y="153.88169" style="fill: #2980b9; stroke: #2980b9"/>
    </g>
   </g>
   <g id="line2d_49">
    <path d="M 121.580997 166.774713 
L 300.699915 166.774713 
" clip-path="url(#p0796d0ba9b)" style="fill: none; stroke: #2980b9; stroke-opacity: 0.9; stroke-width: 2.2; stroke-linecap: round"/>
   </g>
   <g id="line2d_50">
    <g clip-path="url(#p0796d0ba9b)">
     <use xlink:href="#m11cb971c38" x="211.140456" y="166.774713" style="fill: #2980b9; stroke: #2980b9"/>
    </g>
   </g>
   <g id="line2d_51">
    <path d="M 150.923545 179.667736 
L 330.042464 179.667736 
" clip-path="url(#p0796d0ba9b)" style="fill: none; stroke: #2980b9; stroke-opacity: 0.9; stroke-width: 2.2; stroke-linecap: round"/>
   </g>
   <g id="line2d_52">
    <g clip-path="url(#p0796d0ba9b)">
     <use xlink:href="#m11cb971c38" x="240.483005" y="179.667736" style="fill: #2980b9; stroke: #2980b9"/>
    </g>
   </g>
   <g id="line2d_53">
    <path d="M 181.292091 192.560759 
L 360.41101 192.560759 
" clip-path="url(#p0796d0ba9b)" style="fill: none; stroke: #2980b9; stroke-opacity: 0.9; stroke-width: 2.2; stroke-linecap: round"/>
   </g>
   <g id="line2d_54">
    <g clip-path="url(#p0796d0ba9b)">
     <use xlink:href="#m11cb971c38" x="270.851551" y="192.560759" style="fill: #2980b9; stroke: #2980b9"/>
    </g>
   </g>
   <g id="line2d_55">
    <path d="M 73.162741 205.453783 
L 252.28166 205.453783 
" clip-path="url(#p0796d0ba9b)" style="fill: none; stroke: #c0392b; stroke-opacity: 0.9; stroke-width: 2.2; stroke-linecap: round"/>
   </g>
   <g id="line2d_56">
    <defs>
     <path id="mdfda79ecc9" d="M 0 2 
C 0.530406 2 1.03916 1.789267 1.414214 1.414214 
C 1.789267 1.03916 2 0.530406 2 0 
C 2 -0.530406 1.789267 -1.03916 1.414214 -1.414214 
C 1.03916 -1.789267 0.530406 -2 0 -2 
C -0.530406 -2 -1.03916 -1.789267 -1.414214 -1.414214 
C -1.789267 -1.03916 -2 -0.530406 -2 0 
C -2 0.530406 -1.789267 1.03916 -1.414214 1.414214 
C -1.03916 1.789267 -0.530406 2 0 2 
z
" style="stroke: #c0392b"/>
    </defs>
    <g clip-path="url(#p0796d0ba9b)">
     <use xlink:href="#mdfda79ecc9" x="162.722201" y="205.453783" style="fill: #c0392b; stroke: #c0392b"/>
    </g>
   </g>
   <g id="line2d_57">
    <path d="M 169.406161 218.346806 
L 348.52508 218.346806 
" clip-path="url(#p0796d0ba9b)" style="fill: none; stroke: #2980b9; stroke-opacity: 0.9; stroke-width: 2.2; stroke-linecap: round"/>
   </g>
   <g id="line2d_58">
    <g clip-path="url(#p0796d0ba9b)">
     <use xlink:href="#m11cb971c38" x="258.96562" y="218.346806" style="fill: #2980b9; stroke: #2980b9"/>
    </g>
   </g>
   <g id="line2d_59">
    <path d="M 122.472519 231.239829 
L 301.591438 231.239829 
" clip-path="url(#p0796d0ba9b)" style="fill: none; stroke: #2980b9; stroke-opacity: 0.9; stroke-width: 2.2; stroke-linecap: round"/>
   </g>
   <g id="line2d_60">
    <g clip-path="url(#p0796d0ba9b)">
     <use xlink:href="#m11cb971c38" x="212.031978" y="231.239829" style="fill: #2980b9; stroke: #2980b9"/>
    </g>
   </g>
   <g id="line2d_61">
    <path d="M 145.943176 244.132852 
L 325.062095 244.132852 
" clip-path="url(#p0796d0ba9b)" style="fill: none; stroke: #2980b9; stroke-opacity: 0.9; stroke-width: 2.2; stroke-linecap: round"/>
   </g>
   <g id="line2d_62">
    <g clip-path="url(#p0796d0ba9b)">
     <use xlink:href="#m11cb971c38" x="235.502635" y="244.132852" style="fill: #2980b9; stroke: #2980b9"/>
    </g>
   </g>
   <g id="line2d_63">
    <path d="M 154.534114 257.025876 
L 333.653032 257.025876 
" clip-path="url(#p0796d0ba9b)" style="fill: none; stroke: #2980b9; stroke-opacity: 0.9; stroke-width: 2.2; stroke-linecap: round"/>
   </g>
   <g id="line2d_64">
    <g clip-path="url(#p0796d0ba9b)">
     <use xlink:href="#m11cb971c38" x="244.093573" y="257.025876" style="fill: #2980b9; stroke: #2980b9"/>
    </g>
   </g>
   <g id="line2d_65">
    <path d="M 164.950565 269.918899 
L 344.069484 269.918899 
" clip-path="url(#p0796d0ba9b)" style="fill: none; stroke: #2980b9; stroke-opacity: 0.9; stroke-width: 2.2; stroke-linecap: round"/>
   </g>
   <g id="line2d_66">
    <g clip-path="url(#p0796d0ba9b)">
     <use xlink:href="#m11cb971c38" x="254.510024" y="269.918899" style="fill: #2980b9; stroke: #2980b9"/>
    </g>
   </g>
   <g id="line2d_67">
    <path d="M 198.212951 282.811922 
L 377.33187 282.811922 
" clip-path="url(#p0796d0ba9b)" style="fill: none; stroke: #2980b9; stroke-opacity: 0.9; stroke-width: 2.2; stroke-linecap: round"/>
   </g>
   <g id="line2d_68">
    <g clip-path="url(#p0796d0ba9b)">
     <use xlink:href="#m11cb971c38" x="287.772411" y="282.811922" style="fill: #2980b9; stroke: #2980b9"/>
    </g>
   </g>
   <g id="line2d_69">
    <path d="M 227.04079 295.704945 
L 406.159708 295.704945 
" clip-path="url(#p0796d0ba9b)" style="fill: none; stroke: #2980b9; stroke-opacity: 0.9; stroke-width: 2.2; stroke-linecap: round"/>
   </g>
   <g id="line2d_70">
    <g clip-path="url(#p0796d0ba9b)">
     <use xlink:href="#m11cb971c38" x="316.600249" y="295.704945" style="fill: #2980b9; stroke: #2980b9"/>
    </g>
   </g>
   <g id="line2d_71">
    <path d="M 268.963183 308.597969 
L 268.963183 31.397969 
" clip-path="url(#p0796d0ba9b)" style="fill: none; stroke-dasharray: 7.4,3.2; stroke-dashoffset: 0; stroke: #34495e; stroke-opacity: 0.85; stroke-width: 2"/>
   </g>
   <g id="patch_3">
    <path d="M 55.915469 308.597969 
L 55.915469 31.397969 
" style="fill: none; stroke: #2c3e50; stroke-width: 1.2; stroke-linejoin: miter; stroke-linecap: square"/>
   </g>
   <g id="patch_4">
    <path d="M 55.915469 308.597969 
L 435.355469 308.597969 
" style="fill: none; stroke: #2c3e50; stroke-width: 1.2; stroke-linejoin: miter; stroke-linecap: square"/>
   </g>
   <g id="text_18">
    <!-- 19/20 cubren $\mu$ -->
    <g style="fill: #34495e" transform="translate(63.504269 44.541969) scale(0.1 -0.1)">
     <defs>
      <path id="DejaVuSans-Bold-31" d="M 750 831 
L 1813 831 
L 1813 3847 
L 722 3622 
L 722 4441 
L 1806 4666 
L 2950 4666 
L 2950 831 
L 4013 831 
L 4013 0 
L 750 0 
L 750 831 
z
" transform="scale(0.015625)"/>
      <path id="DejaVuSans-Bold-39" d="M 641 103 
L 641 966 
Q 928 831 1190 764 
Q 1453 697 1709 697 
Q 2247 697 2547 995 
Q 2847 1294 2900 1881 
Q 2688 1725 2447 1647 
Q 2206 1569 1925 1569 
Q 1209 1569 770 1986 
Q 331 2403 331 3084 
Q 331 3838 820 4291 
Q 1309 4744 2131 4744 
Q 3044 4744 3544 4128 
Q 4044 3513 4044 2388 
Q 4044 1231 3459 570 
Q 2875 -91 1856 -91 
Q 1528 -91 1228 -42 
Q 928 6 641 103 
z
M 2125 2350 
Q 2441 2350 2600 2554 
Q 2759 2759 2759 3169 
Q 2759 3575 2600 3781 
Q 2441 3988 2125 3988 
Q 1809 3988 1650 3781 
Q 1491 3575 1491 3169 
Q 1491 2759 1650 2554 
Q 1809 2350 2125 2350 
z
" transform="scale(0.015625)"/>
      <path id="DejaVuSans-Bold-2f" d="M 1644 4666 
L 2338 4666 
L 691 -594 
L 0 -594 
L 1644 4666 
z
" transform="scale(0.015625)"/>
      <path id="DejaVuSans-Bold-32" d="M 1844 884 
L 3897 884 
L 3897 0 
L 506 0 
L 506 884 
L 2209 2388 
Q 2438 2594 2547 2791 
Q 2656 2988 2656 3200 
Q 2656 3528 2436 3728 
Q 2216 3928 1850 3928 
Q 1569 3928 1234 3808 
Q 900 3688 519 3450 
L 519 4475 
Q 925 4609 1322 4679 
Q 1719 4750 2100 4750 
Q 2938 4750 3402 4381 
Q 3866 4013 3866 3353 
Q 3866 2972 3669 2642 
Q 3472 2313 2841 1759 
L 1844 884 
z
" transform="scale(0.015625)"/>
      <path id="DejaVuSans-Bold-30" d="M 2944 2338 
Q 2944 3213 2780 3570 
Q 2616 3928 2228 3928 
Q 1841 3928 1675 3570 
Q 1509 3213 1509 2338 
Q 1509 1453 1675 1090 
Q 1841 728 2228 728 
Q 2613 728 2778 1090 
Q 2944 1453 2944 2338 
z
M 4147 2328 
Q 4147 1169 3647 539 
Q 3147 -91 2228 -91 
Q 1306 -91 806 539 
Q 306 1169 306 2328 
Q 306 3491 806 4120 
Q 1306 4750 2228 4750 
Q 3147 4750 3647 4120 
Q 4147 3491 4147 2328 
z
" transform="scale(0.015625)"/>
      <path id="DejaVuSans-Bold-63" d="M 3366 3391 
L 3366 2478 
Q 3138 2634 2908 2709 
Q 2678 2784 2431 2784 
Q 1963 2784 1702 2511 
Q 1441 2238 1441 1747 
Q 1441 1256 1702 982 
Q 1963 709 2431 709 
Q 2694 709 2930 787 
Q 3166 866 3366 1019 
L 3366 103 
Q 3103 6 2833 -42 
Q 2563 -91 2291 -91 
Q 1344 -91 809 395 
Q 275 881 275 1747 
Q 275 2613 809 3098 
Q 1344 3584 2291 3584 
Q 2566 3584 2833 3536 
Q 3100 3488 3366 3391 
z
" transform="scale(0.015625)"/>
      <path id="DejaVuSans-Bold-62" d="M 2400 722 
Q 2759 722 2948 984 
Q 3138 1247 3138 1747 
Q 3138 2247 2948 2509 
Q 2759 2772 2400 2772 
Q 2041 2772 1848 2508 
Q 1656 2244 1656 1747 
Q 1656 1250 1848 986 
Q 2041 722 2400 722 
z
M 1656 2988 
Q 1888 3294 2169 3439 
Q 2450 3584 2816 3584 
Q 3463 3584 3878 3070 
Q 4294 2556 4294 1747 
Q 4294 938 3878 423 
Q 3463 -91 2816 -91 
Q 2450 -91 2169 54 
Q 1888 200 1656 506 
L 1656 0 
L 538 0 
L 538 4863 
L 1656 4863 
L 1656 2988 
z
" transform="scale(0.015625)"/>
      <path id="DejaVuSans-Bold-6e" d="M 4056 2131 
L 4056 0 
L 2931 0 
L 2931 347 
L 2931 1631 
Q 2931 2084 2911 2256 
Q 2891 2428 2841 2509 
Q 2775 2619 2662 2680 
Q 2550 2741 2406 2741 
Q 2056 2741 1856 2470 
Q 1656 2200 1656 1722 
L 1656 0 
L 538 0 
L 538 3500 
L 1656 3500 
L 1656 2988 
Q 1909 3294 2193 3439 
Q 2478 3584 2822 3584 
Q 3428 3584 3742 3212 
Q 4056 2841 4056 2131 
z
" transform="scale(0.015625)"/>
      <path id="DejaVuSans-Oblique-3bc" d="M -84 -1331 
L 856 3500 
L 1434 3500 
L 1009 1322 
Q 997 1256 987 1175 
Q 978 1094 978 1013 
Q 978 722 1161 565 
Q 1344 409 1684 409 
Q 2147 409 2431 671 
Q 2716 934 2816 1459 
L 3213 3500 
L 3788 3500 
L 3266 809 
Q 3253 750 3248 706 
Q 3244 663 3244 628 
Q 3244 531 3283 486 
Q 3322 441 3406 441 
Q 3438 441 3492 456 
Q 3547 472 3647 513 
L 3559 50 
Q 3422 -19 3297 -55 
Q 3172 -91 3053 -91 
Q 2847 -91 2730 40 
Q 2613 172 2613 403 
Q 2438 153 2195 31 
Q 1953 -91 1625 -91 
Q 1334 -91 1117 43 
Q 900 178 831 397 
L 494 -1331 
L -84 -1331 
z
" transform="scale(0.015625)"/>
     </defs>
     <use xlink:href="#DejaVuSans-Bold-31" transform="translate(0 0.015625)"/>
     <use xlink:href="#DejaVuSans-Bold-39" transform="translate(69.580078 0.015625)"/>
     <use xlink:href="#DejaVuSans-Bold-2f" transform="translate(139.160156 0.015625)"/>
     <use xlink:href="#DejaVuSans-Bold-32" transform="translate(172.058594 0.015625)"/>
     <use xlink:href="#DejaVuSans-Bold-30" transform="translate(241.638672 0.015625)"/>
     <use xlink:href="#DejaVuSans-Bold-20" transform="translate(311.21875 0.015625)"/>
     <use xlink:href="#DejaVuSans-Bold-63" transform="translate(346.033203 0.015625)"/>
     <use xlink:href="#DejaVuSans-Bold-75" transform="translate(405.310547 0.015625)"/>
     <use xlink:href="#DejaVuSans-Bold-62" transform="translate(476.501953 0.015625)"/>
     <use xlink:href="#DejaVuSans-Bold-72" transform="translate(548.083984 0.015625)"/>
     <use xlink:href="#DejaVuSans-Bold-65" transform="translate(597.400391 0.015625)"/>
     <use xlink:href="#DejaVuSans-Bold-6e" transform="translate(665.222656 0.015625)"/>
     <use xlink:href="#DejaVuSans-Bold-20" transform="translate(736.414062 0.015625)"/>
     <use xlink:href="#DejaVuSans-Oblique-3bc" transform="translate(771.228516 0.015625)"/>
    </g>
   </g>
   <g id="text_19">
    <!-- Intervalos de confianza del 95% (20 muestras simuladas) -->
    <g transform="translate(35.497578 21.397969) scale(0.13 -0.13)">
     <defs>
      <path id="DejaVuSans-Bold-49" d="M 588 4666 
L 1791 4666 
L 1791 0 
L 588 0 
L 588 4666 
z
" transform="scale(0.015625)"/>
      <path id="DejaVuSans-Bold-64" d="M 2919 2988 
L 2919 4863 
L 4044 4863 
L 4044 0 
L 2919 0 
L 2919 506 
Q 2688 197 2409 53 
Q 2131 -91 1766 -91 
Q 1119 -91 703 423 
Q 288 938 288 1747 
Q 288 2556 703 3070 
Q 1119 3584 1766 3584 
Q 2128 3584 2408 3439 
Q 2688 3294 2919 2988 
z
M 2181 722 
Q 2541 722 2730 984 
Q 2919 1247 2919 1747 
Q 2919 2247 2730 2509 
Q 2541 2772 2181 2772 
Q 1825 2772 1636 2509 
Q 1447 2247 1447 1747 
Q 1447 1247 1636 984 
Q 1825 722 2181 722 
z
" transform="scale(0.015625)"/>
      <path id="DejaVuSans-Bold-66" d="M 2841 4863 
L 2841 4128 
L 2222 4128 
Q 1984 4128 1890 4042 
Q 1797 3956 1797 3744 
L 1797 3500 
L 2753 3500 
L 2753 2700 
L 1797 2700 
L 1797 0 
L 678 0 
L 678 2700 
L 122 2700 
L 122 3500 
L 678 3500 
L 678 3744 
Q 678 4316 997 4589 
Q 1316 4863 1984 4863 
L 2841 4863 
z
" transform="scale(0.015625)"/>
      <path id="DejaVuSans-Bold-69" d="M 538 3500 
L 1656 3500 
L 1656 0 
L 538 0 
L 538 3500 
z
M 538 4863 
L 1656 4863 
L 1656 3950 
L 538 3950 
L 538 4863 
z
" transform="scale(0.015625)"/>
      <path id="DejaVuSans-Bold-7a" d="M 366 3500 
L 3419 3500 
L 3419 2719 
L 1575 800 
L 3419 800 
L 3419 0 
L 288 0 
L 288 781 
L 2131 2700 
L 366 2700 
L 366 3500 
z
" transform="scale(0.015625)"/>
      <path id="DejaVuSans-Bold-35" d="M 678 4666 
L 3669 4666 
L 3669 3781 
L 1638 3781 
L 1638 3059 
Q 1775 3097 1914 3117 
Q 2053 3138 2203 3138 
Q 3056 3138 3531 2711 
Q 4006 2284 4006 1522 
Q 4006 766 3489 337 
Q 2972 -91 2053 -91 
Q 1656 -91 1267 -14 
Q 878 63 494 219 
L 494 1166 
Q 875 947 1217 837 
Q 1559 728 1863 728 
Q 2300 728 2551 942 
Q 2803 1156 2803 1522 
Q 2803 1891 2551 2103 
Q 2300 2316 1863 2316 
Q 1603 2316 1309 2248 
Q 1016 2181 678 2041 
L 678 4666 
z
" transform="scale(0.015625)"/>
      <path id="DejaVuSans-Bold-25" d="M 4959 1925 
Q 4738 1925 4616 1733 
Q 4494 1541 4494 1184 
Q 4494 825 4614 633 
Q 4734 441 4959 441 
Q 5184 441 5303 633 
Q 5422 825 5422 1184 
Q 5422 1541 5301 1733 
Q 5181 1925 4959 1925 
z
M 4959 2450 
Q 5541 2450 5875 2112 
Q 6209 1775 6209 1184 
Q 6209 594 5875 251 
Q 5541 -91 4959 -91 
Q 4378 -91 4042 251 
Q 3706 594 3706 1184 
Q 3706 1772 4042 2111 
Q 4378 2450 4959 2450 
z
M 2094 -91 
L 1403 -91 
L 4319 4750 
L 5013 4750 
L 2094 -91 
z
M 1453 4750 
Q 2034 4750 2367 4411 
Q 2700 4072 2700 3481 
Q 2700 2891 2367 2550 
Q 2034 2209 1453 2209 
Q 872 2209 539 2550 
Q 206 2891 206 3481 
Q 206 4072 539 4411 
Q 872 4750 1453 4750 
z
M 1453 4225 
Q 1228 4225 1106 4031 
Q 984 3838 984 3481 
Q 984 3122 1106 2926 
Q 1228 2731 1453 2731 
Q 1678 2731 1798 2926 
Q 1919 3122 1919 3481 
Q 1919 3838 1797 4031 
Q 1675 4225 1453 4225 
z
" transform="scale(0.015625)"/>
      <path id="DejaVuSans-Bold-28" d="M 2413 -844 
L 1484 -844 
Q 1006 -72 778 623 
Q 550 1319 550 2003 
Q 550 2688 779 3389 
Q 1009 4091 1484 4856 
L 2413 4856 
Q 2013 4116 1813 3408 
Q 1613 2700 1613 2009 
Q 1613 1319 1811 609 
Q 2009 -100 2413 -844 
z
" transform="scale(0.015625)"/>
      <path id="DejaVuSans-Bold-29" d="M 513 -844 
Q 913 -100 1113 609 
Q 1313 1319 1313 2009 
Q 1313 2700 1113 3408 
Q 913 4116 513 4856 
L 1441 4856 
Q 1916 4091 2145 3389 
Q 2375 2688 2375 2003 
Q 2375 1319 2147 623 
Q 1919 -72 1441 -844 
L 513 -844 
z
" transform="scale(0.015625)"/>
     </defs>
     <use xlink:href="#DejaVuSans-Bold-49"/>
     <use xlink:href="#DejaVuSans-Bold-6e" x="37.207031"/>
     <use xlink:href="#DejaVuSans-Bold-74" x="108.398438"/>
     <use xlink:href="#DejaVuSans-Bold-65" x="156.201172"/>
     <use xlink:href="#DejaVuSans-Bold-72" x="224.023438"/>
     <use xlink:href="#DejaVuSans-Bold-76" x="273.339844"/>
     <use xlink:href="#DejaVuSans-Bold-61" x="338.525391"/>
     <use xlink:href="#DejaVuSans-Bold-6c" x="406.005859"/>
     <use xlink:href="#DejaVuSans-Bold-6f" x="440.283203"/>
     <use xlink:href="#DejaVuSans-Bold-73" x="508.984375"/>
     <use xlink:href="#DejaVuSans-Bold-20" x="568.505859"/>
     <use xlink:href="#DejaVuSans-Bold-64" x="603.320312"/>
     <use xlink:href="#DejaVuSans-Bold-65" x="674.902344"/>
     <use xlink:href="#DejaVuSans-Bold-20" x="742.724609"/>
     <use xlink:href="#DejaVuSans-Bold-63" x="777.539062"/>
     <use xlink:href="#DejaVuSans-Bold-6f" x="836.816406"/>
     <use xlink:href="#DejaVuSans-Bold-6e" x="905.517578"/>
     <use xlink:href="#DejaVuSans-Bold-66" x="976.708984"/>
     <use xlink:href="#DejaVuSans-Bold-69" x="1020.214844"/>
     <use xlink:href="#DejaVuSans-Bold-61" x="1054.492188"/>
     <use xlink:href="#DejaVuSans-Bold-6e" x="1121.972656"/>
     <use xlink:href="#DejaVuSans-Bold-7a" x="1193.164062"/>
     <use xlink:href="#DejaVuSans-Bold-61" x="1251.367188"/>
     <use xlink:href="#DejaVuSans-Bold-20" x="1318.847656"/>
     <use xlink:href="#DejaVuSans-Bold-64" x="1353.662109"/>
     <use xlink:href="#DejaVuSans-Bold-65" x="1425.244141"/>
     <use xlink:href="#DejaVuSans-Bold-6c" x="1493.066406"/>
     <use xlink:href="#DejaVuSans-Bold-20" x="1527.34375"/>
     <use xlink:href="#DejaVuSans-Bold-39" x="1562.158203"/>
     <use xlink:href="#DejaVuSans-Bold-35" x="1631.738281"/>
     <use xlink:href="#DejaVuSans-Bold-25" x="1701.318359"/>
     <use xlink:href="#DejaVuSans-Bold-20" x="1801.513672"/>
     <use xlink:href="#DejaVuSans-Bold-28" x="1836.328125"/>
     <use xlink:href="#DejaVuSans-Bold-32" x="1882.03125"/>
     <use xlink:href="#DejaVuSans-Bold-30" x="1951.611328"/>
     <use xlink:href="#DejaVuSans-Bold-20" x="2021.191406"/>
     <use xlink:href="#DejaVuSans-Bold-6d" x="2056.005859"/>
     <use xlink:href="#DejaVuSans-Bold-75" x="2160.205078"/>
     <use xlink:href="#DejaVuSans-Bold-65" x="2231.396484"/>
     <use xlink:href="#DejaVuSans-Bold-73" x="2299.21875"/>
     <use xlink:href="#DejaVuSans-Bold-74" x="2358.740234"/>
     <use xlink:href="#DejaVuSans-Bold-72" x="2406.542969"/>
     <use xlink:href="#DejaVuSans-Bold-61" x="2455.859375"/>
     <use xlink:href="#DejaVuSans-Bold-73" x="2523.339844"/>
     <use xlink:href="#DejaVuSans-Bold-20" x="2582.861328"/>
     <use xlink:href="#DejaVuSans-Bold-73" x="2617.675781"/>
     <use xlink:href="#DejaVuSans-Bold-69" x="2677.197266"/>
     <use xlink:href="#DejaVuSans-Bold-6d" x="2711.474609"/>
     <use xlink:href="#DejaVuSans-Bold-75" x="2815.673828"/>
     <use xlink:href="#DejaVuSans-Bold-6c" x="2886.865234"/>
     <use xlink:href="#DejaVuSans-Bold-61" x="2921.142578"/>
     <use xlink:href="#DejaVuSans-Bold-64" x="2988.623047"/>
     <use xlink:href="#DejaVuSans-Bold-61" x="3060.205078"/>
     <use xlink:href="#DejaVuSans-Bold-73" x="3127.685547"/>
     <use xlink:href="#DejaVuSans-Bold-29" x="3187.207031"/>
    </g>
   </g>
   <g id="legend_1">
    <g id="patch_5">
     <path d="M 338.605469 304.097969 
L 429.055469 304.097969 
Q 430.855469 304.097969 430.855469 302.297969 
L 430.855469 263.509375 
Q 430.855469 261.709375 429.055469 261.709375 
L 338.605469 261.709375 
Q 336.805469 261.709375 336.805469 263.509375 
L 336.805469 302.297969 
Q 336.805469 304.097969 338.605469 304.097969 
z
" style="fill: #ffffff; opacity: 0.92; stroke: #cccccc; stroke-linejoin: miter"/>
    </g>
    <g id="line2d_72">
     <path d="M 340.405469 268.999375 
L 349.405469 268.999375 
L 358.405469 268.999375 
" style="fill: none; stroke: #2980b9; stroke-width: 2.2; stroke-linecap: square"/>
    </g>
    <g id="text_20">
     <!-- contiene $\mu$ -->
     <g transform="translate(365.605469 272.149375) scale(0.09 -0.09)">
      <defs>
       <path id="DejaVuSans-63" d="M 3122 3366 
L 3122 2828 
Q 2878 2963 2633 3030 
Q 2388 3097 2138 3097 
Q 1578 3097 1268 2742 
Q 959 2388 959 1747 
Q 959 1106 1268 751 
Q 1578 397 2138 397 
Q 2388 397 2633 464 
Q 2878 531 3122 666 
L 3122 134 
Q 2881 22 2623 -34 
Q 2366 -91 2075 -91 
Q 1284 -91 818 406 
Q 353 903 353 1747 
Q 353 2603 823 3093 
Q 1294 3584 2113 3584 
Q 2378 3584 2631 3529 
Q 2884 3475 3122 3366 
z
" transform="scale(0.015625)"/>
       <path id="DejaVuSans-6f" d="M 1959 3097 
Q 1497 3097 1228 2736 
Q 959 2375 959 1747 
Q 959 1119 1226 758 
Q 1494 397 1959 397 
Q 2419 397 2687 759 
Q 2956 1122 2956 1747 
Q 2956 2369 2687 2733 
Q 2419 3097 1959 3097 
z
M 1959 3584 
Q 2709 3584 3137 3096 
Q 3566 2609 3566 1747 
Q 3566 888 3137 398 
Q 2709 -91 1959 -91 
Q 1206 -91 779 398 
Q 353 888 353 1747 
Q 353 2609 779 3096 
Q 1206 3584 1959 3584 
z
" transform="scale(0.015625)"/>
       <path id="DejaVuSans-6e" d="M 3513 2113 
L 3513 0 
L 2938 0 
L 2938 2094 
Q 2938 2591 2744 2837 
Q 2550 3084 2163 3084 
Q 1697 3084 1428 2787 
Q 1159 2491 1159 1978 
L 1159 0 
L 581 0 
L 581 3500 
L 1159 3500 
L 1159 2956 
Q 1366 3272 1645 3428 
Q 1925 3584 2291 3584 
Q 2894 3584 3203 3211 
Q 3513 2838 3513 2113 
z
" transform="scale(0.015625)"/>
       <path id="DejaVuSans-74" d="M 1172 4494 
L 1172 3500 
L 2356 3500 
L 2356 3053 
L 1172 3053 
L 1172 1153 
Q 1172 725 1289 603 
Q 1406 481 1766 481 
L 2356 481 
L 2356 0 
L 1766 0 
Q 1100 0 847 248 
Q 594 497 594 1153 
L 594 3053 
L 172 3053 
L 172 3500 
L 594 3500 
L 594 4494 
L 1172 4494 
z
" transform="scale(0.015625)"/>
       <path id="DejaVuSans-69" d="M 603 3500 
L 1178 3500 
L 1178 0 
L 603 0 
L 603 3500 
z
M 603 4863 
L 1178 4863 
L 1178 4134 
L 603 4134 
L 603 4863 
z
" transform="scale(0.015625)"/>
       <path id="DejaVuSans-65" d="M 3597 1894 
L 3597 1613 
L 953 1613 
Q 991 1019 1311 708 
Q 1631 397 2203 397 
Q 2534 397 2845 478 
Q 3156 559 3463 722 
L 3463 178 
Q 3153 47 2828 -22 
Q 2503 -91 2169 -91 
Q 1331 -91 842 396 
Q 353 884 353 1716 
Q 353 2575 817 3079 
Q 1281 3584 2069 3584 
Q 2775 3584 3186 3129 
Q 3597 2675 3597 1894 
z
M 3022 2063 
Q 3016 2534 2758 2815 
Q 2500 3097 2075 3097 
Q 1594 3097 1305 2825 
Q 1016 2553 972 2059 
L 3022 2063 
z
" transform="scale(0.015625)"/>
       <path id="DejaVuSans-20" transform="scale(0.015625)"/>
      </defs>
      <use xlink:href="#DejaVuSans-63" transform="translate(0 0.015625)"/>
      <use xlink:href="#DejaVuSans-6f" transform="translate(54.980469 0.015625)"/>
      <use xlink:href="#DejaVuSans-6e" transform="translate(116.162109 0.015625)"/>
      <use xlink:href="#DejaVuSans-74" transform="translate(179.541016 0.015625)"/>
      <use xlink:href="#DejaVuSans-69" transform="translate(218.75 0.015625)"/>
      <use xlink:href="#DejaVuSans-65" transform="translate(246.533203 0.015625)"/>
      <use xlink:href="#DejaVuSans-6e" transform="translate(308.056641 0.015625)"/>
      <use xlink:href="#DejaVuSans-65" transform="translate(371.435547 0.015625)"/>
      <use xlink:href="#DejaVuSans-20" transform="translate(432.958984 0.015625)"/>
      <use xlink:href="#DejaVuSans-Oblique-3bc" transform="translate(464.746094 0.015625)"/>
     </g>
    </g>
    <g id="line2d_73">
     <path d="M 340.405469 282.229375 
L 349.405469 282.229375 
L 358.405469 282.229375 
" style="fill: none; stroke: #c0392b; stroke-width: 2.2; stroke-linecap: square"/>
    </g>
    <g id="text_21">
     <!-- no contiene $\mu$ -->
     <g transform="translate(365.605469 285.379375) scale(0.09 -0.09)">
      <use xlink:href="#DejaVuSans-6e" transform="translate(0 0.015625)"/>
      <use xlink:href="#DejaVuSans-6f" transform="translate(63.378906 0.015625)"/>
      <use xlink:href="#DejaVuSans-20" transform="translate(124.560547 0.015625)"/>
      <use xlink:href="#DejaVuSans-63" transform="translate(156.347656 0.015625)"/>
      <use xlink:href="#DejaVuSans-6f" transform="translate(211.328125 0.015625)"/>
      <use xlink:href="#DejaVuSans-6e" transform="translate(272.509766 0.015625)"/>
      <use xlink:href="#DejaVuSans-74" transform="translate(335.888672 0.015625)"/>
      <use xlink:href="#DejaVuSans-69" transform="translate(375.097656 0.015625)"/>
      <use xlink:href="#DejaVuSans-65" transform="translate(402.880859 0.015625)"/>
      <use xlink:href="#DejaVuSans-6e" transform="translate(464.404297 0.015625)"/>
      <use xlink:href="#DejaVuSans-65" transform="translate(527.783203 0.015625)"/>
      <use xlink:href="#DejaVuSans-20" transform="translate(589.306641 0.015625)"/>
      <use xlink:href="#DejaVuSans-Oblique-3bc" transform="translate(621.09375 0.015625)"/>
     </g>
    </g>
    <g id="line2d_74">
     <path d="M 340.405469 295.457969 
L 349.405469 295.457969 
L 358.405469 295.457969 
" style="fill: none; stroke-dasharray: 7.4,3.2; stroke-dashoffset: 0; stroke: #34495e; stroke-width: 2"/>
    </g>
    <g id="text_22">
     <!-- $\mu = 50$ -->
     <g transform="translate(365.605469 298.607969) scale(0.09 -0.09)">
      <defs>
       <path id="DejaVuSans-3d" d="M 678 2906 
L 4684 2906 
L 4684 2381 
L 678 2381 
L 678 2906 
z
M 678 1631 
L 4684 1631 
L 4684 1100 
L 678 1100 
L 678 1631 
z
" transform="scale(0.015625)"/>
      </defs>
      <use xlink:href="#DejaVuSans-Oblique-3bc" transform="translate(0 0.78125)"/>
      <use xlink:href="#DejaVuSans-3d" transform="translate(83.105469 0.78125)"/>
      <use xlink:href="#DejaVuSans-35" transform="translate(186.376953 0.78125)"/>
      <use xlink:href="#DejaVuSans-30" transform="translate(250 0.78125)"/>
     </g>
    </g>
   </g>
  </g>
 </g>
 <defs>
  <clipPath id="p0796d0ba9b">
   <rect x="55.915469" y="31.397969" width="379.44" height="277.2"/>
  </clipPath>
 </defs>
</svg>
