<?xml version="1.0" encoding="utf-8" standalone="no"?>
<!DOCTYPE svg PUBLIC "-//W3C//DTD SVG 1.1//EN"
  "http://www.w3.org/Graphics/SVG/1.1/DTD/svg11.dtd">
<svg xmlns:xlink="http://www.w3.org/1999/xlink" width="435.715469pt" height="303.981969pt" viewBox="0 0 435.715469 303.981969" xmlns="http://www.w3.org/2000/svg" version="1.1">
 <metadata>
  <rdf:RDF xmlns:dc="http://purl.org/dc/elements/1.1/" xmlns:cc="http://creativecommons.org/ns#" xmlns:rdf="http://www.w3.org/1999/02/22-rdf-syntax-ns#">
   <cc:Work>
    <dc:type rdf:resource="http://purl.org/dc/dcmitype/StillImage"/>
    <dc:date>2026-06-30T11:51:44.261337</dc:date>
    <dc:format>image/svg+xml</dc:format>
    <dc:creator>
     <cc:Agent>
      <dc:title>Matplotlib v3.9.2, https://matplotlib.org/</dc:title>
     </cc:Agent>
    </dc:creator>
   </cc:Work>
  </rdf:RDF>
 </metadata>
 <defs>
  <style type="text/css">*{stroke-linejoin: round; stroke-linecap: butt}</style>
 </defs>
 <g id="figure_1">
  <g id="patch_1">
   <path d="M 0 303.981969 
L 435.715469 303.981969 
L 435.715469 0 
L 0 0 
z
" style="fill: #ffffff"/>
  </g>
  <g id="axes_1">
   <g id="patch_2">
    <path d="M 49.552969 260.654 
L 417.832969 260.654 
L 417.832969 33.35 
L 49.552969 33.35 
z
" style="fill: #ffffff"/>
   </g>
   <g id="matplotlib.axis_1">
    <g id="xtick_1">
     <g id="line2d_1">
      <path d="M 49.552969 260.654 
L 49.552969 33.35 
" clip-path="url(#pa4f81d79f1)" style="fill: none; stroke-dasharray: 0.8,1.28; stroke-dashoffset: 0; stroke: #b0b0b0; stroke-opacity: 0.3; stroke-width: 0.8"/>
     </g>
     <g id="line2d_2">
      <defs>
       <path id="m1487047c5d" d="M 0 0 
L 0 3.5 
" style="stroke: #2c3e50; stroke-width: 0.8"/>
      </defs>
      <g>
       <use xlink:href="#m1487047c5d" x="49.552969" y="260.654" style="fill: #2c3e50; stroke: #2c3e50; stroke-width: 0.8"/>
      </g>
     </g>
     <g id="text_1">
      <!-- 0 -->
      <g style="fill: #2c3e50" transform="translate(46.371719 275.252437) scale(0.1 -0.1)">
       <defs>
        <path id="DejaVuSans-30" d="M 2034 4250 
Q 1547 4250 1301 3770 
Q 1056 3291 1056 2328 
Q 1056 1369 1301 889 
Q 1547 409 2034 409 
Q 2525 409 2770 889 
Q 3016 1369 3016 2328 
Q 3016 3291 2770 3770 
Q 2525 4250 2034 4250 
z
M 2034 4750 
Q 2819 4750 3233 4129 
Q 3647 3509 3647 2328 
Q 3647 1150 3233 529 
Q 2819 -91 2034 -91 
Q 1250 -91 836 529 
Q 422 1150 422 2328 
Q 422 3509 836 4129 
Q 1250 4750 2034 4750 
z
" transform="scale(0.015625)"/>
       </defs>
       <use xlink:href="#DejaVuSans-30"/>
      </g>
     </g>
    </g>
    <g id="xtick_2">
     <g id="line2d_3">
      <path d="M 95.587969 260.654 
L 95.587969 33.35 
" clip-path="url(#pa4f81d79f1)" style="fill: none; stroke-dasharray: 0.8,1.28; stroke-dashoffset: 0; stroke: #b0b0b0; stroke-opacity: 0.3; stroke-width: 0.8"/>
     </g>
     <g id="line2d_4">
      <g>
       <use xlink:href="#m1487047c5d" x="95.587969" y="260.654" style="fill: #2c3e50; stroke: #2c3e50; stroke-width: 0.8"/>
      </g>
     </g>
     <g id="text_2">
      <!-- 2 -->
      <g style="fill: #2c3e50" transform="translate(92.406719 275.252437) scale(0.1 -0.1)">
       <defs>
        <path id="DejaVuSans-32" d="M 1228 531 
L 3431 531 
L 3431 0 
L 469 0 
L 469 531 
Q 828 903 1448 1529 
Q 2069 2156 2228 2338 
Q 2531 2678 2651 2914 
Q 2772 3150 2772 3378 
Q 2772 3750 2511 3984 
Q 2250 4219 1831 4219 
Q 1534 4219 1204 4116 
Q 875 4013 500 3803 
L 500 4441 
Q 881 4594 1212 4672 
Q 1544 4750 1819 4750 
Q 2544 4750 2975 4387 
Q 3406 4025 3406 3419 
Q 3406 3131 3298 2873 
Q 3191 2616 2906 2266 
Q 2828 2175 2409 1742 
Q 1991 1309 1228 531 
z
" transform="scale(0.015625)"/>
       </defs>
       <use xlink:href="#DejaVuSans-32"/>
      </g>
     </g>
    </g>
    <g id="xtick_3">
     <g id="line2d_5">
      <path d="M 141.622969 260.654 
L 141.622969 33.35 
" clip-path="url(#pa4f81d79f1)" style="fill: none; stroke-dasharray: 0.8,1.28; stroke-dashoffset: 0; stroke: #b0b0b0; stroke-opacity: 0.3; stroke-width: 0.8"/>
     </g>
     <g id="line2d_6">
      <g>
       <use xlink:href="#m1487047c5d" x="141.622969" y="260.654" style="fill: #2c3e50; stroke: #2c3e50; stroke-width: 0.8"/>
      </g>
     </g>
     <g id="text_3">
      <!-- 4 -->
      <g style="fill: #2c3e50" transform="translate(138.441719 275.252437) scale(0.1 -0.1)">
       <defs>
        <path id="DejaVuSans-34" d="M 2419 4116 
L 825 1625 
L 2419 1625 
L 2419 4116 
z
M 2253 4666 
L 3047 4666 
L 3047 1625 
L 3713 1625 
L 3713 1100 
L 3047 1100 
L 3047 0 
L 2419 0 
L 2419 1100 
L 313 1100 
L 313 1709 
L 2253 4666 
z
" transform="scale(0.015625)"/>
       </defs>
       <use xlink:href="#DejaVuSans-34"/>
      </g>
     </g>
    </g>
    <g id="xtick_4">
     <g id="line2d_7">
      <path d="M 187.657969 260.654 
L 187.657969 33.35 
" clip-path="url(#pa4f81d79f1)" style="fill: none; stroke-dasharray: 0.8,1.28; stroke-dashoffset: 0; stroke: #b0b0b0; stroke-opacity: 0.3; stroke-width: 0.8"/>
     </g>
     <g id="line2d_8">
      <g>
       <use xlink:href="#m1487047c5d" x="187.657969" y="260.654" style="fill: #2c3e50; stroke: #2c3e50; stroke-width: 0.8"/>
      </g>
     </g>
     <g id="text_4">
      <!-- 6 -->
      <g style="fill: #2c3e50" transform="translate(184.476719 275.252437) scale(0.1 -0.1)">
       <defs>
        <path id="DejaVuSans-36" d="M 2113 2584 
Q 1688 2584 1439 2293 
Q 1191 2003 1191 1497 
Q 1191 994 1439 701 
Q 1688 409 2113 409 
Q 2538 409 2786 701 
Q 3034 994 3034 1497 
Q 3034 2003 2786 2293 
Q 2538 2584 2113 2584 
z
M 3366 4563 
L 3366 3988 
Q 3128 4100 2886 4159 
Q 2644 4219 2406 4219 
Q 1781 4219 1451 3797 
Q 1122 3375 1075 2522 
Q 1259 2794 1537 2939 
Q 1816 3084 2150 3084 
Q 2853 3084 3261 2657 
Q 3669 2231 3669 1497 
Q 3669 778 3244 343 
Q 2819 -91 2113 -91 
Q 1303 -91 875 529 
Q 447 1150 447 2328 
Q 447 3434 972 4092 
Q 1497 4750 2381 4750 
Q 2619 4750 2861 4703 
Q 3103 4656 3366 4563 
z
" transform="scale(0.015625)"/>
       </defs>
       <use xlink:href="#DejaVuSans-36"/>
      </g>
     </g>
    </g>
    <g id="xtick_5">
     <g id="line2d_9">
      <path d="M 233.692969 260.654 
L 233.692969 33.35 
" clip-path="url(#pa4f81d79f1)" style="fill: none; stroke-dasharray: 0.8,1.28; stroke-dashoffset: 0; stroke: #b0b0b0; stroke-opacity: 0.3; stroke-width: 0.8"/>
     </g>
     <g id="line2d_10">
      <g>
       <use xlink:href="#m1487047c5d" x="233.692969" y="260.654" style="fill: #2c3e50; stroke: #2c3e50; stroke-width: 0.8"/>
      </g>
     </g>
     <g id="text_5">
      <!-- 8 -->
      <g style="fill: #2c3e50" transform="translate(230.511719 275.252437) scale(0.1 -0.1)">
       <defs>
        <path id="DejaVuSans-38" d="M 2034 2216 
Q 1584 2216 1326 1975 
Q 1069 1734 1069 1313 
Q 1069 891 1326 650 
Q 1584 409 2034 409 
Q 2484 409 2743 651 
Q 3003 894 3003 1313 
Q 3003 1734 2745 1975 
Q 2488 2216 2034 2216 
z
M 1403 2484 
Q 997 2584 770 2862 
Q 544 3141 544 3541 
Q 544 4100 942 4425 
Q 1341 4750 2034 4750 
Q 2731 4750 3128 4425 
Q 3525 4100 3525 3541 
Q 3525 3141 3298 2862 
Q 3072 2584 2669 2484 
Q 3125 2378 3379 2068 
Q 3634 1759 3634 1313 
Q 3634 634 3220 271 
Q 2806 -91 2034 -91 
Q 1263 -91 848 271 
Q 434 634 434 1313 
Q 434 1759 690 2068 
Q 947 2378 1403 2484 
z
M 1172 3481 
Q 1172 3119 1398 2916 
Q 1625 2713 2034 2713 
Q 2441 2713 2670 2916 
Q 2900 3119 2900 3481 
Q 2900 3844 2670 4047 
Q 2441 4250 2034 4250 
Q 1625 4250 1398 4047 
Q 1172 3844 1172 3481 
z
" transform="scale(0.015625)"/>
       </defs>
       <use xlink:href="#DejaVuSans-38"/>
      </g>
     </g>
    </g>
    <g id="xtick_6">
     <g id="line2d_11">
      <path d="M 279.727969 260.654 
L 279.727969 33.35 
" clip-path="url(#pa4f81d79f1)" style="fill: none; stroke-dasharray: 0.8,1.28; stroke-dashoffset: 0; stroke: #b0b0b0; stroke-opacity: 0.3; stroke-width: 0.8"/>
     </g>
     <g id="line2d_12">
      <g>
       <use xlink:href="#m1487047c5d" x="279.727969" y="260.654" style="fill: #2c3e50; stroke: #2c3e50; stroke-width: 0.8"/>
      </g>
     </g>
     <g id="text_6">
      <!-- 10 -->
      <g style="fill: #2c3e50" transform="translate(273.365469 275.252437) scale(0.1 -0.1)">
       <defs>
        <path id="DejaVuSans-31" d="M 794 531 
L 1825 531 
L 1825 4091 
L 703 3866 
L 703 4441 
L 1819 4666 
L 2450 4666 
L 2450 531 
L 3481 531 
L 3481 0 
L 794 0 
L 794 531 
z
" transform="scale(0.015625)"/>
       </defs>
       <use xlink:href="#DejaVuSans-31"/>
       <use xlink:href="#DejaVuSans-30" x="63.623047"/>
      </g>
     </g>
    </g>
    <g id="xtick_7">
     <g id="line2d_13">
      <path d="M 325.762969 260.654 
L 325.762969 33.35 
" clip-path="url(#pa4f81d79f1)" style="fill: none; stroke-dasharray: 0.8,1.28; stroke-dashoffset: 0; stroke: #b0b0b0; stroke-opacity: 0.3; stroke-width: 0.8"/>
     </g>
     <g id="line2d_14">
      <g>
       <use xlink:href="#m1487047c5d" x="325.762969" y="260.654" style="fill: #2c3e50; stroke: #2c3e50; stroke-width: 0.8"/>
      </g>
     </g>
     <g id="text_7">
      <!-- 12 -->
      <g style="fill: #2c3e50" transform="translate(319.400469 275.252437) scale(0.1 -0.1)">
       <use xlink:href="#DejaVuSans-31"/>
       <use xlink:href="#DejaVuSans-32" x="63.623047"/>
      </g>
     </g>
    </g>
    <g id="xtick_8">
     <g id="line2d_15">
      <path d="M 371.797969 260.654 
L 371.797969 33.35 
" clip-path="url(#pa4f81d79f1)" style="fill: none; stroke-dasharray: 0.8,1.28; stroke-dashoffset: 0; stroke: #b0b0b0; stroke-opacity: 0.3; stroke-width: 0.8"/>
     </g>
     <g id="line2d_16">
      <g>
       <use xlink:href="#m1487047c5d" x="371.797969" y="260.654" style="fill: #2c3e50; stroke: #2c3e50; stroke-width: 0.8"/>
      </g>
     </g>
     <g id="text_8">
      <!-- 14 -->
      <g style="fill: #2c3e50" transform="translate(365.435469 275.252437) scale(0.1 -0.1)">
       <use xlink:href="#DejaVuSans-31"/>
       <use xlink:href="#DejaVuSans-34" x="63.623047"/>
      </g>
     </g>
    </g>
    <g id="xtick_9">
     <g id="line2d_17">
      <path d="M 417.832969 260.654 
L 417.832969 33.35 
" clip-path="url(#pa4f81d79f1)" style="fill: none; stroke-dasharray: 0.8,1.28; stroke-dashoffset: 0; stroke: #b0b0b0; stroke-opacity: 0.3; stroke-width: 0.8"/>
     </g>
     <g id="line2d_18">
      <g>
       <use xlink:href="#m1487047c5d" x="417.832969" y="260.654" style="fill: #2c3e50; stroke: #2c3e50; stroke-width: 0.8"/>
      </g>
     </g>
     <g id="text_9">
      <!-- 16 -->
      <g style="fill: #2c3e50" transform="translate(411.470469 275.252437) scale(0.1 -0.1)">
       <use xlink:href="#DejaVuSans-31"/>
       <use xlink:href="#DejaVuSans-36" x="63.623047"/>
      </g>
     </g>
    </g>
    <g id="text_10">
     <!-- $x$ -->
     <g transform="translate(230.242969 290.070328) scale(0.115 -0.115)">
      <defs>
       <path id="DejaVuSans-Oblique-78" d="M 3841 3500 
L 2234 1784 
L 3219 0 
L 2559 0 
L 1819 1388 
L 531 0 
L -166 0 
L 1556 1844 
L 641 3500 
L 1300 3500 
L 1972 2234 
L 3144 3500 
L 3841 3500 
z
" transform="scale(0.015625)"/>
      </defs>
      <use xlink:href="#DejaVuSans-Oblique-78" transform="translate(0 0.3125)"/>
     </g>
    </g>
   </g>
   <g id="matplotlib.axis_2">
    <g id="ytick_1">
     <g id="line2d_19">
      <path d="M 49.552969 260.654 
L 417.832969 260.654 
" clip-path="url(#pa4f81d79f1)" style="fill: none; stroke-dasharray: 0.8,1.28; stroke-dashoffset: 0; stroke: #b0b0b0; stroke-opacity: 0.3; stroke-width: 0.8"/>
     </g>
     <g id="line2d_20">
      <defs>
       <path id="mdc6d18949b" d="M 0 0 
L -3.5 0 
" style="stroke: #2c3e50; stroke-width: 0.8"/>
      </defs>
      <g>
       <use xlink:href="#mdc6d18949b" x="49.552969" y="260.654" style="fill: #2c3e50; stroke: #2c3e50; stroke-width: 0.8"/>
      </g>
     </g>
     <g id="text_11">
      <!-- 0.0 -->
      <g style="fill: #2c3e50" transform="translate(26.649844 264.453219) scale(0.1 -0.1)">
       <defs>
        <path id="DejaVuSans-2e" d="M 684 794 
L 1344 794 
L 1344 0 
L 684 0 
L 684 794 
z
" transform="scale(0.015625)"/>
       </defs>
       <use xlink:href="#DejaVuSans-30"/>
       <use xlink:href="#DejaVuSans-2e" x="63.623047"/>
       <use xlink:href="#DejaVuSans-30" x="95.410156"/>
      </g>
     </g>
    </g>
    <g id="ytick_2">
     <g id="line2d_21">
      <path d="M 49.552969 219.326 
L 417.832969 219.326 
" clip-path="url(#pa4f81d79f1)" style="fill: none; stroke-dasharray: 0.8,1.28; stroke-dashoffset: 0; stroke: #b0b0b0; stroke-opacity: 0.3; stroke-width: 0.8"/>
     </g>
     <g id="line2d_22">
      <g>
       <use xlink:href="#mdc6d18949b" x="49.552969" y="219.326" style="fill: #2c3e50; stroke: #2c3e50; stroke-width: 0.8"/>
      </g>
     </g>
     <g id="text_12">
      <!-- 0.1 -->
      <g style="fill: #2c3e50" transform="translate(26.649844 223.125219) scale(0.1 -0.1)">
       <use xlink:href="#DejaVuSans-30"/>
       <use xlink:href="#DejaVuSans-2e" x="63.623047"/>
       <use xlink:href="#DejaVuSans-31" x="95.410156"/>
      </g>
     </g>
    </g>
    <g id="ytick_3">
     <g id="line2d_23">
      <path d="M 49.552969 177.998 
L 417.832969 177.998 
" clip-path="url(#pa4f81d79f1)" style="fill: none; stroke-dasharray: 0.8,1.28; stroke-dashoffset: 0; stroke: #b0b0b0; stroke-opacity: 0.3; stroke-width: 0.8"/>
     </g>
     <g id="line2d_24">
      <g>
       <use xlink:href="#mdc6d18949b" x="49.552969" y="177.998" style="fill: #2c3e50; stroke: #2c3e50; stroke-width: 0.8"/>
      </g>
     </g>
     <g id="text_13">
      <!-- 0.2 -->
      <g style="fill: #2c3e50" transform="translate(26.649844 181.797219) scale(0.1 -0.1)">
       <use xlink:href="#DejaVuSans-30"/>
       <use xlink:href="#DejaVuSans-2e" x="63.623047"/>
       <use xlink:href="#DejaVuSans-32" x="95.410156"/>
      </g>
     </g>
    </g>
    <g id="ytick_4">
     <g id="line2d_25">
      <path d="M 49.552969 136.67 
L 417.832969 136.67 
" clip-path="url(#pa4f81d79f1)" style="fill: none; stroke-dasharray: 0.8,1.28; stroke-dashoffset: 0; stroke: #b0b0b0; stroke-opacity: 0.3; stroke-width: 0.8"/>
     </g>
     <g id="line2d_26">
      <g>
       <use xlink:href="#mdc6d18949b" x="49.552969" y="136.67" style="fill: #2c3e50; stroke: #2c3e50; stroke-width: 0.8"/>
      </g>
     </g>
     <g id="text_14">
      <!-- 0.3 -->
      <g style="fill: #2c3e50" transform="translate(26.649844 140.469219) scale(0.1 -0.1)">
       <defs>
        <path id="DejaVuSans-33" d="M 2597 2516 
Q 3050 2419 3304 2112 
Q 3559 1806 3559 1356 
Q 3559 666 3084 287 
Q 2609 -91 1734 -91 
Q 1441 -91 1130 -33 
Q 819 25 488 141 
L 488 750 
Q 750 597 1062 519 
Q 1375 441 1716 441 
Q 2309 441 2620 675 
Q 2931 909 2931 1356 
Q 2931 1769 2642 2001 
Q 2353 2234 1838 2234 
L 1294 2234 
L 1294 2753 
L 1863 2753 
Q 2328 2753 2575 2939 
Q 2822 3125 2822 3475 
Q 2822 3834 2567 4026 
Q 2313 4219 1838 4219 
Q 1578 4219 1281 4162 
Q 984 4106 628 3988 
L 628 4550 
Q 988 4650 1302 4700 
Q 1616 4750 1894 4750 
Q 2613 4750 3031 4423 
Q 3450 4097 3450 3541 
Q 3450 3153 3228 2886 
Q 3006 2619 2597 2516 
z
" transform="scale(0.015625)"/>
       </defs>
       <use xlink:href="#DejaVuSans-30"/>
       <use xlink:href="#DejaVuSans-2e" x="63.623047"/>
       <use xlink:href="#DejaVuSans-33" x="95.410156"/>
      </g>
     </g>
    </g>
    <g id="ytick_5">
     <g id="line2d_27">
      <path d="M 49.552969 95.342 
L 417.832969 95.342 
" clip-path="url(#pa4f81d79f1)" style="fill: none; stroke-dasharray: 0.8,1.28; stroke-dashoffset: 0; stroke: #b0b0b0; stroke-opacity: 0.3; stroke-width: 0.8"/>
     </g>
     <g id="line2d_28">
      <g>
       <use xlink:href="#mdc6d18949b" x="49.552969" y="95.342" style="fill: #2c3e50; stroke: #2c3e50; stroke-width: 0.8"/>
      </g>
     </g>
     <g id="text_15">
      <!-- 0.4 -->
      <g style="fill: #2c3e50" transform="translate(26.649844 99.141219) scale(0.1 -0.1)">
       <use xlink:href="#DejaVuSans-30"/>
       <use xlink:href="#DejaVuSans-2e" x="63.623047"/>
       <use xlink:href="#DejaVuSans-34" x="95.410156"/>
      </g>
     </g>
    </g>
    <g id="ytick_6">
     <g id="line2d_29">
      <path d="M 49.552969 54.014 
L 417.832969 54.014 
" clip-path="url(#pa4f81d79f1)" style="fill: none; stroke-dasharray: 0.8,1.28; stroke-dashoffset: 0; stroke: #b0b0b0; stroke-opacity: 0.3; stroke-width: 0.8"/>
     </g>
     <g id="line2d_30">
      <g>
       <use xlink:href="#mdc6d18949b" x="49.552969" y="54.014" style="fill: #2c3e50; stroke: #2c3e50; stroke-width: 0.8"/>
      </g>
     </g>
     <g id="text_16">
      <!-- 0.5 -->
      <g style="fill: #2c3e50" transform="translate(26.649844 57.813219) scale(0.1 -0.1)">
       <defs>
        <path id="DejaVuSans-35" d="M 691 4666 
L 3169 4666 
L 3169 4134 
L 1269 4134 
L 1269 2991 
Q 1406 3038 1543 3061 
Q 1681 3084 1819 3084 
Q 2600 3084 3056 2656 
Q 3513 2228 3513 1497 
Q 3513 744 3044 326 
Q 2575 -91 1722 -91 
Q 1428 -91 1123 -41 
Q 819 9 494 109 
L 494 744 
Q 775 591 1075 516 
Q 1375 441 1709 441 
Q 2250 441 2565 725 
Q 2881 1009 2881 1497 
Q 2881 1984 2565 2268 
Q 2250 2553 1709 2553 
Q 1456 2553 1204 2497 
Q 953 2441 691 2322 
L 691 4666 
z
" transform="scale(0.015625)"/>
       </defs>
       <use xlink:href="#DejaVuSans-30"/>
       <use xlink:href="#DejaVuSans-2e" x="63.623047"/>
       <use xlink:href="#DejaVuSans-35" x="95.410156"/>
      </g>
     </g>
    </g>
    <g id="text_17">
     <!-- $f_X(x)$ -->
     <g transform="translate(20.258203 159.882) rotate(-90) scale(0.115 -0.115)">
      <defs>
       <path id="DejaVuSans-Oblique-66" d="M 3059 4863 
L 2969 4384 
L 2419 4384 
Q 2106 4384 1964 4261 
Q 1822 4138 1753 3809 
L 1691 3500 
L 2638 3500 
L 2553 3053 
L 1606 3053 
L 1013 0 
L 434 0 
L 1031 3053 
L 481 3053 
L 563 3500 
L 1113 3500 
L 1159 3744 
Q 1278 4363 1576 4613 
Q 1875 4863 2516 4863 
L 3059 4863 
z
" transform="scale(0.015625)"/>
       <path id="DejaVuSans-Oblique-58" d="M 878 4666 
L 1516 4666 
L 2316 2981 
L 3763 4666 
L 4500 4666 
L 2578 2438 
L 3738 0 
L 3103 0 
L 2163 1966 
L 459 0 
L -275 0 
L 1906 2509 
L 878 4666 
z
" transform="scale(0.015625)"/>
       <path id="DejaVuSans-28" d="M 1984 4856 
Q 1566 4138 1362 3434 
Q 1159 2731 1159 2009 
Q 1159 1288 1364 580 
Q 1569 -128 1984 -844 
L 1484 -844 
Q 1016 -109 783 600 
Q 550 1309 550 2009 
Q 550 2706 781 3412 
Q 1013 4119 1484 4856 
L 1984 4856 
z
" transform="scale(0.015625)"/>
       <path id="DejaVuSans-29" d="M 513 4856 
L 1013 4856 
Q 1481 4119 1714 3412 
Q 1947 2706 1947 2009 
Q 1947 1309 1714 600 
Q 1481 -109 1013 -844 
L 513 -844 
Q 928 -128 1133 580 
Q 1338 1288 1338 2009 
Q 1338 2731 1133 3434 
Q 928 4138 513 4856 
z
" transform="scale(0.015625)"/>
      </defs>
      <use xlink:href="#DejaVuSans-Oblique-66" transform="translate(0 0.015625)"/>
      <use xlink:href="#DejaVuSans-Oblique-58" transform="translate(35.205078 -16.390625) scale(0.7)"/>
      <use xlink:href="#DejaVuSans-28" transform="translate(85.893555 0.015625)"/>
      <use xlink:href="#DejaVuSans-Oblique-78" transform="translate(124.907227 0.015625)"/>
      <use xlink:href="#DejaVuSans-29" transform="translate(184.086914 0.015625)"/>
     </g>
    </g>
   </g>
   <g id="line2d_31">
    <path d="M 56.357696 -1 
L 57.29459 20.365463 
L 58.400536 41.220173 
L 59.506482 58.680768 
L 60.981077 78.103294 
L 62.455671 94.267148 
L 63.930266 107.999578 
L 65.404861 119.856115 
L 66.879455 130.226222 
L 68.722698 141.522068 
L 70.565942 151.333085 
L 72.409185 159.947924 
L 74.252428 167.580735 
L 76.095671 174.394501 
L 78.307563 181.666407 
L 80.519455 188.110328 
L 82.731347 193.857929 
L 84.943239 199.013017 
L 87.155131 203.658826 
L 89.735671 208.524917 
L 92.316212 212.876931 
L 94.896753 216.785669 
L 97.477293 220.309239 
L 100.057834 223.495882 
L 103.007023 226.776815 
L 105.956212 229.720936 
L 108.905401 232.370507 
L 112.223239 235.043325 
L 115.541077 237.430993 
L 119.227563 239.79297 
L 122.91405 241.88843 
L 126.969185 243.926829 
L 131.02432 245.723312 
L 135.448104 247.445181 
L 140.240536 249.069893 
L 145.401617 250.581117 
L 150.931347 251.968265 
L 157.198374 253.297718 
L 163.83405 254.472869 
L 171.207023 255.549713 
L 179.317293 256.510108 
L 188.533509 257.376345 
L 199.22432 258.150119 
L 211.758374 258.82209 
L 226.50432 259.380801 
L 244.568104 259.834828 
L 267.792969 260.186438 
L 300.23405 260.438377 
L 351.476212 260.589451 
L 417.832969 260.640173 
L 417.832969 260.640173 
" clip-path="url(#pa4f81d79f1)" style="fill: none; stroke: #2980b9; stroke-width: 2.6; stroke-linecap: square"/>
   </g>
   <g id="line2d_32">
    <path d="M 49.552969 54.014 
L 52.870807 68.382954 
L 56.188644 81.752745 
L 59.506482 94.192853 
L 62.82432 105.767923 
L 66.142158 116.538107 
L 69.459996 126.559374 
L 72.777834 135.8838 
L 76.095671 144.559842 
L 79.413509 152.632584 
L 82.731347 160.14398 
L 86.049185 167.133061 
L 89.367023 173.636149 
L 92.684861 179.687037 
L 96.002698 185.317169 
L 99.689185 191.114909 
L 103.375671 196.466468 
L 107.062158 201.406185 
L 110.748644 205.965753 
L 114.435131 210.174428 
L 118.121617 214.059213 
L 121.808104 217.645035 
L 125.863239 221.271542 
L 129.918374 224.592262 
L 133.973509 227.63298 
L 138.397293 230.658475 
L 142.821077 233.406763 
L 147.244861 235.903244 
L 152.037293 238.350315 
L 156.829726 240.555447 
L 161.990807 242.687019 
L 167.520536 244.720631 
L 173.418915 246.636768 
L 179.317293 248.322471 
L 185.58432 249.891981 
L 192.588644 251.410958 
L 199.961617 252.778861 
L 208.071888 254.05093 
L 216.919455 255.205488 
L 226.50432 256.229602 
L 237.195131 257.146505 
L 249.360536 257.961048 
L 263.369185 258.667581 
L 279.589726 259.257483 
L 299.128104 259.740474 
L 323.827563 260.119797 
L 357.005942 260.394163 
L 407.510807 260.567256 
L 417.832969 260.58468 
L 417.832969 260.58468 
" clip-path="url(#pa4f81d79f1)" style="fill: none; stroke: #c0392b; stroke-width: 2.6; stroke-linecap: square"/>
   </g>
   <g id="line2d_33">
    <path d="M 49.552969 260.654 
L 49.921617 239.954785 
L 50.658915 225.371542 
L 51.396212 215.828253 
L 52.502158 205.299361 
L 53.608104 197.285727 
L 54.71405 190.861935 
L 55.819996 185.572491 
L 56.925942 181.149808 
L 58.031888 177.419103 
L 59.506482 173.314224 
L 60.981077 170.018214 
L 62.455671 167.384093 
L 63.930266 165.302289 
L 65.404861 163.688089 
L 66.879455 162.474131 
L 68.35405 161.605644 
L 69.828644 161.03729 
L 71.303239 160.730987 
L 72.777834 160.654356 
L 74.252428 160.779586 
L 76.095671 161.183586 
L 77.938915 161.825121 
L 80.150807 162.860373 
L 82.362698 164.137957 
L 84.943239 165.878675 
L 87.892428 168.130156 
L 91.578915 171.238855 
L 96.371347 175.60902 
L 103.375671 182.339098 
L 116.647023 195.11472 
L 123.282698 201.172767 
L 129.181077 206.273086 
L 135.079455 211.072658 
L 140.609185 215.285413 
L 146.138915 219.216846 
L 151.668644 222.869676 
L 157.198374 226.25105 
L 162.728104 229.371176 
L 168.257834 232.242302 
L 174.156212 235.045611 
L 180.05459 237.598199 
L 185.952969 239.917565 
L 192.219996 242.145742 
L 198.855671 244.261825 
L 205.859996 246.249004 
L 212.86432 248.007998 
L 220.605942 249.715044 
L 228.716212 251.26709 
L 237.195131 252.663513 
L 246.411347 253.95455 
L 256.364861 255.12243 
L 267.42432 256.188956 
L 279.589726 257.131461 
L 293.229726 257.958221 
L 308.712969 258.66794 
L 326.776753 259.266574 
L 348.527023 259.755705 
L 375.807023 260.135175 
L 412.303239 260.406406 
L 417.832969 260.432763 
L 417.832969 260.432763 
" clip-path="url(#pa4f81d79f1)" style="fill: none; stroke: #27ae60; stroke-width: 2.6; stroke-linecap: square"/>
   </g>
   <g id="line2d_34">
    <path d="M 49.552969 260.654 
L 50.290266 260.343934 
L 51.396212 259.45745 
L 52.870807 257.855481 
L 54.71405 255.437643 
L 57.29459 251.59335 
L 61.349726 245.047726 
L 68.722698 233.110279 
L 72.409185 227.554092 
L 75.727023 222.911882 
L 79.044861 218.651685 
L 81.99405 215.203404 
L 84.943239 212.08046 
L 87.892428 209.282737 
L 90.841617 206.805377 
L 93.790807 204.639977 
L 96.739996 202.775511 
L 99.689185 201.199063 
L 102.638374 199.896397 
L 105.587563 198.852417 
L 108.536753 198.051522 
L 111.485942 197.477901 
L 114.435131 197.115755 
L 117.752969 196.941697 
L 121.070807 196.993829 
L 124.757293 197.291527 
L 128.44378 197.815011 
L 132.498915 198.620521 
L 136.922698 199.736668 
L 141.715131 201.181454 
L 147.244861 203.095718 
L 153.511888 205.511112 
L 161.253509 208.744688 
L 173.050266 213.949593 
L 192.588644 222.572587 
L 202.910807 226.868829 
L 212.127023 230.468514 
L 220.97459 233.685816 
L 229.453509 236.537636 
L 237.932428 239.159701 
L 246.411347 241.554868 
L 255.258915 243.820088 
L 264.106482 245.857799 
L 273.322698 247.753607 
L 282.907563 249.498173 
L 292.861077 251.086233 
L 303.551888 252.563668 
L 314.979996 253.911462 
L 327.145401 255.11733 
L 340.416753 256.202876 
L 354.79405 257.152419 
L 371.01459 257.993467 
L 389.078374 258.703394 
L 410.091347 259.301766 
L 417.832969 259.474067 
L 417.832969 259.474067 
" clip-path="url(#pa4f81d79f1)" style="fill: none; stroke: #e67e22; stroke-width: 2.6; stroke-linecap: square"/>
   </g>
   <g id="line2d_35">
    <path d="M 49.552969 260.654 
L 56.557293 260.549812 
L 60.981077 260.242937 
L 64.667563 259.776197 
L 68.35405 259.094528 
L 72.040536 258.190921 
L 75.727023 257.06903 
L 79.782158 255.596966 
L 84.205942 253.734036 
L 88.998374 251.456712 
L 94.528104 248.564164 
L 101.532428 244.62452 
L 124.388644 231.538482 
L 130.655671 228.310928 
L 136.55405 225.530006 
L 142.08378 223.180734 
L 147.244861 221.231121 
L 152.405942 219.526373 
L 157.198374 218.166835 
L 161.990807 217.022828 
L 166.783239 216.091773 
L 171.94432 215.321455 
L 177.105401 214.783394 
L 182.266482 214.466547 
L 187.796212 214.35807 
L 193.325942 214.471725 
L 199.22432 214.817203 
L 205.491347 215.412803 
L 212.127023 216.269866 
L 219.499996 217.456553 
L 227.610266 218.997348 
L 236.826482 220.981619 
L 248.25459 223.683904 
L 265.212428 227.95221 
L 292.492428 234.807575 
L 307.238374 238.263571 
L 320.509726 241.142489 
L 333.04378 243.633922 
L 345.577834 245.89412 
L 358.111888 247.922892 
L 370.645942 249.727075 
L 383.548644 251.362113 
L 397.188644 252.863335 
L 411.565942 254.216186 
L 417.832969 254.738694 
L 417.832969 254.738694 
" clip-path="url(#pa4f81d79f1)" style="fill: none; stroke: #7d3c98; stroke-width: 2.6; stroke-linecap: square"/>
   </g>
   <g id="patch_3">
    <path d="M 49.552969 260.654 
L 49.552969 33.35 
" style="fill: none; stroke: #2c3e50; stroke-width: 1.2; stroke-linejoin: miter; stroke-linecap: square"/>
   </g>
   <g id="patch_4">
    <path d="M 49.552969 260.654 
L 417.832969 260.654 
" style="fill: none; stroke: #2c3e50; stroke-width: 1.2; stroke-linejoin: miter; stroke-linecap: square"/>
   </g>
   <g id="text_18">
    <!-- Densidad $\chi^2$: efecto de los grados de libertad $k$ -->
    <g transform="translate(61.897969 23.35) scale(0.13 -0.13)">
     <defs>
      <path id="DejaVuSans-Bold-44" d="M 1791 3756 
L 1791 909 
L 2222 909 
Q 2959 909 3348 1275 
Q 3738 1641 3738 2338 
Q 3738 3031 3350 3393 
Q 2963 3756 2222 3756 
L 1791 3756 
z
M 588 4666 
L 1856 4666 
Q 2919 4666 3439 4514 
Q 3959 4363 4331 4000 
Q 4659 3684 4818 3271 
Q 4978 2859 4978 2338 
Q 4978 1809 4818 1395 
Q 4659 981 4331 666 
Q 3956 303 3431 151 
Q 2906 0 1856 0 
L 588 0 
L 588 4666 
z
" transform="scale(0.015625)"/>
      <path id="DejaVuSans-Bold-65" d="M 4031 1759 
L 4031 1441 
L 1416 1441 
Q 1456 1047 1700 850 
Q 1944 653 2381 653 
Q 2734 653 3104 758 
Q 3475 863 3866 1075 
L 3866 213 
Q 3469 63 3072 -14 
Q 2675 -91 2278 -91 
Q 1328 -91 801 392 
Q 275 875 275 1747 
Q 275 2603 792 3093 
Q 1309 3584 2216 3584 
Q 3041 3584 3536 3087 
Q 4031 2591 4031 1759 
z
M 2881 2131 
Q 2881 2450 2695 2645 
Q 2509 2841 2209 2841 
Q 1884 2841 1681 2658 
Q 1478 2475 1428 2131 
L 2881 2131 
z
" transform="scale(0.015625)"/>
      <path id="DejaVuSans-Bold-6e" d="M 4056 2131 
L 4056 0 
L 2931 0 
L 2931 347 
L 2931 1631 
Q 2931 2084 2911 2256 
Q 2891 2428 2841 2509 
Q 2775 2619 2662 2680 
Q 2550 2741 2406 2741 
Q 2056 2741 1856 2470 
Q 1656 2200 1656 1722 
L 1656 0 
L 538 0 
L 538 3500 
L 1656 3500 
L 1656 2988 
Q 1909 3294 2193 3439 
Q 2478 3584 2822 3584 
Q 3428 3584 3742 3212 
Q 4056 2841 4056 2131 
z
" transform="scale(0.015625)"/>
      <path id="DejaVuSans-Bold-73" d="M 3272 3391 
L 3272 2541 
Q 2913 2691 2578 2766 
Q 2244 2841 1947 2841 
Q 1628 2841 1473 2761 
Q 1319 2681 1319 2516 
Q 1319 2381 1436 2309 
Q 1553 2238 1856 2203 
L 2053 2175 
Q 2913 2066 3209 1816 
Q 3506 1566 3506 1031 
Q 3506 472 3093 190 
Q 2681 -91 1863 -91 
Q 1516 -91 1145 -36 
Q 775 19 384 128 
L 384 978 
Q 719 816 1070 734 
Q 1422 653 1784 653 
Q 2113 653 2278 743 
Q 2444 834 2444 1013 
Q 2444 1163 2330 1236 
Q 2216 1309 1875 1350 
L 1678 1375 
Q 931 1469 631 1722 
Q 331 1975 331 2491 
Q 331 3047 712 3315 
Q 1094 3584 1881 3584 
Q 2191 3584 2531 3537 
Q 2872 3491 3272 3391 
z
" transform="scale(0.015625)"/>
      <path id="DejaVuSans-Bold-69" d="M 538 3500 
L 1656 3500 
L 1656 0 
L 538 0 
L 538 3500 
z
M 538 4863 
L 1656 4863 
L 1656 3950 
L 538 3950 
L 538 4863 
z
" transform="scale(0.015625)"/>
      <path id="DejaVuSans-Bold-64" d="M 2919 2988 
L 2919 4863 
L 4044 4863 
L 4044 0 
L 2919 0 
L 2919 506 
Q 2688 197 2409 53 
Q 2131 -91 1766 -91 
Q 1119 -91 703 423 
Q 288 938 288 1747 
Q 288 2556 703 3070 
Q 1119 3584 1766 3584 
Q 2128 3584 2408 3439 
Q 2688 3294 2919 2988 
z
M 2181 722 
Q 2541 722 2730 984 
Q 2919 1247 2919 1747 
Q 2919 2247 2730 2509 
Q 2541 2772 2181 2772 
Q 1825 2772 1636 2509 
Q 1447 2247 1447 1747 
Q 1447 1247 1636 984 
Q 1825 722 2181 722 
z
" transform="scale(0.015625)"/>
      <path id="DejaVuSans-Bold-61" d="M 2106 1575 
Q 1756 1575 1579 1456 
Q 1403 1338 1403 1106 
Q 1403 894 1545 773 
Q 1688 653 1941 653 
Q 2256 653 2472 879 
Q 2688 1106 2688 1447 
L 2688 1575 
L 2106 1575 
z
M 3816 1997 
L 3816 0 
L 2688 0 
L 2688 519 
Q 2463 200 2181 54 
Q 1900 -91 1497 -91 
Q 953 -91 614 226 
Q 275 544 275 1050 
Q 275 1666 698 1953 
Q 1122 2241 2028 2241 
L 2688 2241 
L 2688 2328 
Q 2688 2594 2478 2717 
Q 2269 2841 1825 2841 
Q 1466 2841 1156 2769 
Q 847 2697 581 2553 
L 581 3406 
Q 941 3494 1303 3539 
Q 1666 3584 2028 3584 
Q 2975 3584 3395 3211 
Q 3816 2838 3816 1997 
z
" transform="scale(0.015625)"/>
      <path id="DejaVuSans-Bold-20" transform="scale(0.015625)"/>
      <path id="DejaVuSans-Oblique-3c7" d="M 1922 -781 
L 1691 416 
L 394 -1334 
L -284 -1334 
L 1553 1141 
L 1269 2613 
Q 1194 3006 713 3006 
L 559 3006 
L 653 3500 
L 872 3494 
Q 1675 3472 1775 2950 
L 2006 1753 
L 3303 3503 
L 3981 3503 
L 2144 1028 
L 2428 -444 
Q 2503 -838 2984 -838 
L 3138 -838 
L 3044 -1331 
L 2825 -1325 
Q 2022 -1303 1922 -781 
z
" transform="scale(0.015625)"/>
      <path id="DejaVuSans-Bold-3a" d="M 716 3500 
L 1844 3500 
L 1844 2291 
L 716 2291 
L 716 3500 
z
M 716 1209 
L 1844 1209 
L 1844 0 
L 716 0 
L 716 1209 
z
" transform="scale(0.015625)"/>
      <path id="DejaVuSans-Bold-66" d="M 2841 4863 
L 2841 4128 
L 2222 4128 
Q 1984 4128 1890 4042 
Q 1797 3956 1797 3744 
L 1797 3500 
L 2753 3500 
L 2753 2700 
L 1797 2700 
L 1797 0 
L 678 0 
L 678 2700 
L 122 2700 
L 122 3500 
L 678 3500 
L 678 3744 
Q 678 4316 997 4589 
Q 1316 4863 1984 4863 
L 2841 4863 
z
" transform="scale(0.015625)"/>
      <path id="DejaVuSans-Bold-63" d="M 3366 3391 
L 3366 2478 
Q 3138 2634 2908 2709 
Q 2678 2784 2431 2784 
Q 1963 2784 1702 2511 
Q 1441 2238 1441 1747 
Q 1441 1256 1702 982 
Q 1963 709 2431 709 
Q 2694 709 2930 787 
Q 3166 866 3366 1019 
L 3366 103 
Q 3103 6 2833 -42 
Q 2563 -91 2291 -91 
Q 1344 -91 809 395 
Q 275 881 275 1747 
Q 275 2613 809 3098 
Q 1344 3584 2291 3584 
Q 2566 3584 2833 3536 
Q 3100 3488 3366 3391 
z
" transform="scale(0.015625)"/>
      <path id="DejaVuSans-Bold-74" d="M 1759 4494 
L 1759 3500 
L 2913 3500 
L 2913 2700 
L 1759 2700 
L 1759 1216 
Q 1759 972 1856 886 
Q 1953 800 2241 800 
L 2816 800 
L 2816 0 
L 1856 0 
Q 1194 0 917 276 
Q 641 553 641 1216 
L 641 2700 
L 84 2700 
L 84 3500 
L 641 3500 
L 641 4494 
L 1759 4494 
z
" transform="scale(0.015625)"/>
      <path id="DejaVuSans-Bold-6f" d="M 2203 2784 
Q 1831 2784 1636 2517 
Q 1441 2250 1441 1747 
Q 1441 1244 1636 976 
Q 1831 709 2203 709 
Q 2569 709 2762 976 
Q 2956 1244 2956 1747 
Q 2956 2250 2762 2517 
Q 2569 2784 2203 2784 
z
M 2203 3584 
Q 3106 3584 3614 3096 
Q 4122 2609 4122 1747 
Q 4122 884 3614 396 
Q 3106 -91 2203 -91 
Q 1297 -91 786 396 
Q 275 884 275 1747 
Q 275 2609 786 3096 
Q 1297 3584 2203 3584 
z
" transform="scale(0.015625)"/>
      <path id="DejaVuSans-Bold-6c" d="M 538 4863 
L 1656 4863 
L 1656 0 
L 538 0 
L 538 4863 
z
" transform="scale(0.015625)"/>
      <path id="DejaVuSans-Bold-67" d="M 2919 594 
Q 2688 288 2409 144 
Q 2131 0 1766 0 
Q 1125 0 706 504 
Q 288 1009 288 1791 
Q 288 2575 706 3076 
Q 1125 3578 1766 3578 
Q 2131 3578 2409 3434 
Q 2688 3291 2919 2981 
L 2919 3500 
L 4044 3500 
L 4044 353 
Q 4044 -491 3511 -936 
Q 2978 -1381 1966 -1381 
Q 1638 -1381 1331 -1331 
Q 1025 -1281 716 -1178 
L 716 -306 
Q 1009 -475 1290 -558 
Q 1572 -641 1856 -641 
Q 2406 -641 2662 -400 
Q 2919 -159 2919 353 
L 2919 594 
z
M 2181 2772 
Q 1834 2772 1640 2515 
Q 1447 2259 1447 1791 
Q 1447 1309 1634 1061 
Q 1822 813 2181 813 
Q 2531 813 2725 1069 
Q 2919 1325 2919 1791 
Q 2919 2259 2725 2515 
Q 2531 2772 2181 2772 
z
" transform="scale(0.015625)"/>
      <path id="DejaVuSans-Bold-72" d="M 3138 2547 
Q 2991 2616 2845 2648 
Q 2700 2681 2553 2681 
Q 2122 2681 1889 2404 
Q 1656 2128 1656 1613 
L 1656 0 
L 538 0 
L 538 3500 
L 1656 3500 
L 1656 2925 
Q 1872 3269 2151 3426 
Q 2431 3584 2822 3584 
Q 2878 3584 2943 3579 
Q 3009 3575 3134 3559 
L 3138 2547 
z
" transform="scale(0.015625)"/>
      <path id="DejaVuSans-Bold-62" d="M 2400 722 
Q 2759 722 2948 984 
Q 3138 1247 3138 1747 
Q 3138 2247 2948 2509 
Q 2759 2772 2400 2772 
Q 2041 2772 1848 2508 
Q 1656 2244 1656 1747 
Q 1656 1250 1848 986 
Q 2041 722 2400 722 
z
M 1656 2988 
Q 1888 3294 2169 3439 
Q 2450 3584 2816 3584 
Q 3463 3584 3878 3070 
Q 4294 2556 4294 1747 
Q 4294 938 3878 423 
Q 3463 -91 2816 -91 
Q 2450 -91 2169 54 
Q 1888 200 1656 506 
L 1656 0 
L 538 0 
L 538 4863 
L 1656 4863 
L 1656 2988 
z
" transform="scale(0.015625)"/>
      <path id="DejaVuSans-Oblique-6b" d="M 1172 4863 
L 1747 4863 
L 1197 2028 
L 3169 3500 
L 3916 3500 
L 1716 1825 
L 3322 0 
L 2625 0 
L 1131 1709 
L 800 0 
L 225 0 
L 1172 4863 
z
" transform="scale(0.015625)"/>
     </defs>
     <use xlink:href="#DejaVuSans-Bold-44" transform="translate(0 0.765625)"/>
     <use xlink:href="#DejaVuSans-Bold-65" transform="translate(83.007812 0.765625)"/>
     <use xlink:href="#DejaVuSans-Bold-6e" transform="translate(150.830078 0.765625)"/>
     <use xlink:href="#DejaVuSans-Bold-73" transform="translate(222.021484 0.765625)"/>
     <use xlink:href="#DejaVuSans-Bold-69" transform="translate(281.542969 0.765625)"/>
     <use xlink:href="#DejaVuSans-Bold-64" transform="translate(315.820312 0.765625)"/>
     <use xlink:href="#DejaVuSans-Bold-61" transform="translate(387.402344 0.765625)"/>
     <use xlink:href="#DejaVuSans-Bold-64" transform="translate(454.882812 0.765625)"/>
     <use xlink:href="#DejaVuSans-Bold-20" transform="translate(526.464844 0.765625)"/>
     <use xlink:href="#DejaVuSans-Oblique-3c7" transform="translate(561.279297 0.765625)"/>
     <use xlink:href="#DejaVuSans-32" transform="translate(624.931693 39.046875) scale(0.7)"/>
     <use xlink:href="#DejaVuSans-Bold-3a" transform="translate(672.202201 0.765625)"/>
     <use xlink:href="#DejaVuSans-Bold-20" transform="translate(712.192435 0.765625)"/>
     <use xlink:href="#DejaVuSans-Bold-65" transform="translate(747.006888 0.765625)"/>
     <use xlink:href="#DejaVuSans-Bold-66" transform="translate(814.829154 0.765625)"/>
     <use xlink:href="#DejaVuSans-Bold-65" transform="translate(858.335013 0.765625)"/>
     <use xlink:href="#DejaVuSans-Bold-63" transform="translate(926.157279 0.765625)"/>
     <use xlink:href="#DejaVuSans-Bold-74" transform="translate(985.434622 0.765625)"/>
     <use xlink:href="#DejaVuSans-Bold-6f" transform="translate(1033.237357 0.765625)"/>
     <use xlink:href="#DejaVuSans-Bold-20" transform="translate(1101.938529 0.765625)"/>
     <use xlink:href="#DejaVuSans-Bold-64" transform="translate(1136.752982 0.765625)"/>
     <use xlink:href="#DejaVuSans-Bold-65" transform="translate(1208.335013 0.765625)"/>
     <use xlink:href="#DejaVuSans-Bold-20" transform="translate(1276.157279 0.765625)"/>
     <use xlink:href="#DejaVuSans-Bold-6c" transform="translate(1310.971732 0.765625)"/>
     <use xlink:href="#DejaVuSans-Bold-6f" transform="translate(1345.249076 0.765625)"/>
     <use xlink:href="#DejaVuSans-Bold-73" transform="translate(1413.950247 0.765625)"/>
     <use xlink:href="#DejaVuSans-Bold-20" transform="translate(1473.471732 0.765625)"/>
     <use xlink:href="#DejaVuSans-Bold-67" transform="translate(1508.286185 0.765625)"/>
     <use xlink:href="#DejaVuSans-Bold-72" transform="translate(1579.868216 0.765625)"/>
     <use xlink:href="#DejaVuSans-Bold-61" transform="translate(1629.184622 0.765625)"/>
     <use xlink:href="#DejaVuSans-Bold-64" transform="translate(1696.665091 0.765625)"/>
     <use xlink:href="#DejaVuSans-Bold-6f" transform="translate(1768.247122 0.765625)"/>
     <use xlink:href="#DejaVuSans-Bold-73" transform="translate(1836.948294 0.765625)"/>
     <use xlink:href="#DejaVuSans-Bold-20" transform="translate(1896.469779 0.765625)"/>
     <use xlink:href="#DejaVuSans-Bold-64" transform="translate(1931.284232 0.765625)"/>
     <use xlink:href="#DejaVuSans-Bold-65" transform="translate(2002.866263 0.765625)"/>
     <use xlink:href="#DejaVuSans-Bold-20" transform="translate(2070.688529 0.765625)"/>
     <use xlink:href="#DejaVuSans-Bold-6c" transform="translate(2105.502982 0.765625)"/>
     <use xlink:href="#DejaVuSans-Bold-69" transform="translate(2139.780326 0.765625)"/>
     <use xlink:href="#DejaVuSans-Bold-62" transform="translate(2174.057669 0.765625)"/>
     <use xlink:href="#DejaVuSans-Bold-65" transform="translate(2245.639701 0.765625)"/>
     <use xlink:href="#DejaVuSans-Bold-72" transform="translate(2313.461966 0.765625)"/>
     <use xlink:href="#DejaVuSans-Bold-74" transform="translate(2362.778372 0.765625)"/>
     <use xlink:href="#DejaVuSans-Bold-61" transform="translate(2410.581107 0.765625)"/>
     <use xlink:href="#DejaVuSans-Bold-64" transform="translate(2478.061576 0.765625)"/>
     <use xlink:href="#DejaVuSans-Bold-20" transform="translate(2549.643607 0.765625)"/>
     <use xlink:href="#DejaVuSans-Oblique-6b" transform="translate(2584.45806 0.765625)"/>
    </g>
   </g>
   <g id="legend_1">
    <g id="patch_5">
     <path d="M 357.507969 110.671094 
L 411.182969 110.671094 
Q 413.082969 110.671094 413.082969 108.771094 
L 413.082969 40 
Q 413.082969 38.1 411.182969 38.1 
L 357.507969 38.1 
Q 355.607969 38.1 355.607969 40 
L 355.607969 108.771094 
Q 355.607969 110.671094 357.507969 110.671094 
z
" style="fill: #ffffff; opacity: 0.92; stroke: #cccccc; stroke-linejoin: miter"/>
    </g>
    <g id="line2d_36">
     <path d="M 359.407969 45.793516 
L 368.907969 45.793516 
L 378.407969 45.793516 
" style="fill: none; stroke: #2980b9; stroke-width: 2.6; stroke-linecap: square"/>
    </g>
    <g id="text_19">
     <!-- $k=1$ -->
     <g transform="translate(386.007969 49.118516) scale(0.095 -0.095)">
      <defs>
       <path id="DejaVuSans-3d" d="M 678 2906 
L 4684 2906 
L 4684 2381 
L 678 2381 
L 678 2906 
z
M 678 1631 
L 4684 1631 
L 4684 1100 
L 678 1100 
L 678 1631 
z
" transform="scale(0.015625)"/>
      </defs>
      <use xlink:href="#DejaVuSans-Oblique-6b" transform="translate(0 0.015625)"/>
      <use xlink:href="#DejaVuSans-3d" transform="translate(77.392578 0.015625)"/>
      <use xlink:href="#DejaVuSans-31" transform="translate(180.664062 0.015625)"/>
     </g>
    </g>
    <g id="line2d_37">
     <path d="M 359.407969 59.737734 
L 368.907969 59.737734 
L 378.407969 59.737734 
" style="fill: none; stroke: #c0392b; stroke-width: 2.6; stroke-linecap: square"/>
    </g>
    <g id="text_20">
     <!-- $k=2$ -->
     <g transform="translate(386.007969 63.062734) scale(0.095 -0.095)">
      <use xlink:href="#DejaVuSans-Oblique-6b" transform="translate(0 0.015625)"/>
      <use xlink:href="#DejaVuSans-3d" transform="translate(77.392578 0.015625)"/>
      <use xlink:href="#DejaVuSans-32" transform="translate(180.664062 0.015625)"/>
     </g>
    </g>
    <g id="line2d_38">
     <path d="M 359.407969 73.681953 
L 368.907969 73.681953 
L 378.407969 73.681953 
" style="fill: none; stroke: #27ae60; stroke-width: 2.6; stroke-linecap: square"/>
    </g>
    <g id="text_21">
     <!-- $k=3$ -->
     <g transform="translate(386.007969 77.006953) scale(0.095 -0.095)">
      <use xlink:href="#DejaVuSans-Oblique-6b" transform="translate(0 0.015625)"/>
      <use xlink:href="#DejaVuSans-3d" transform="translate(77.392578 0.015625)"/>
      <use xlink:href="#DejaVuSans-33" transform="translate(180.664062 0.015625)"/>
     </g>
    </g>
    <g id="line2d_39">
     <path d="M 359.407969 87.626172 
L 368.907969 87.626172 
L 378.407969 87.626172 
" style="fill: none; stroke: #e67e22; stroke-width: 2.6; stroke-linecap: square"/>
    </g>
    <g id="text_22">
     <!-- $k=5$ -->
     <g transform="translate(386.007969 90.951172) scale(0.095 -0.095)">
      <use xlink:href="#DejaVuSans-Oblique-6b" transform="translate(0 0.015625)"/>
      <use xlink:href="#DejaVuSans-3d" transform="translate(77.392578 0.015625)"/>
      <use xlink:href="#DejaVuSans-35" transform="translate(180.664062 0.015625)"/>
     </g>
    </g>
    <g id="line2d_40">
     <path d="M 359.407969 101.570391 
L 368.907969 101.570391 
L 378.407969 101.570391 
" style="fill: none; stroke: #7d3c98; stroke-width: 2.6; stroke-linecap: square"/>
    </g>
    <g id="text_23">
     <!-- $k=8$ -->
     <g transform="translate(386.007969 104.895391) scale(0.095 -0.095)">
      <use xlink:href="#DejaVuSans-Oblique-6b" transform="translate(0 0.015625)"/>
      <use xlink:href="#DejaVuSans-3d" transform="translate(77.392578 0.015625)"/>
      <use xlink:href="#DejaVuSans-38" transform="translate(180.664062 0.015625)"/>
     </g>
    </g>
   </g>
  </g>
 </g>
 <defs>
  <clipPath id="pa4f81d79f1">
   <rect x="49.552969" y="33.35" width="368.28" height="227.304"/>
  </clipPath>
 </defs>
</svg>
