<?xml version="1.0" encoding="utf-8" standalone="no"?>
<!DOCTYPE svg PUBLIC "-//W3C//DTD SVG 1.1//EN"
  "http://www.w3.org/Graphics/SVG/1.1/DTD/svg11.dtd">
<svg xmlns:xlink="http://www.w3.org/1999/xlink" width="454.853125pt" height="308.095969pt" viewBox="0 0 454.853125 308.095969" xmlns="http://www.w3.org/2000/svg" version="1.1">
 <metadata>
  <rdf:RDF xmlns:dc="http://purl.org/dc/elements/1.1/" xmlns:cc="http://creativecommons.org/ns#" xmlns:rdf="http://www.w3.org/1999/02/22-rdf-syntax-ns#">
   <cc:Work>
    <dc:type rdf:resource="http://purl.org/dc/dcmitype/StillImage"/>
    <dc:date>2026-06-30T11:52:54.553886</dc:date>
    <dc:format>image/svg+xml</dc:format>
    <dc:creator>
     <cc:Agent>
      <dc:title>Matplotlib v3.9.2, https://matplotlib.org/</dc:title>
     </cc:Agent>
    </dc:creator>
   </cc:Work>
  </rdf:RDF>
 </metadata>
 <defs>
  <style type="text/css">*{stroke-linejoin: round; stroke-linecap: butt}</style>
 </defs>
 <g id="figure_1">
  <g id="patch_1">
   <path d="M 0 308.095969 
L 454.853125 308.095969 
L 454.853125 0 
L 0 0 
z
" style="fill: #ffffff"/>
  </g>
  <g id="axes_1">
   <g id="patch_2">
    <path d="M 51.073125 264.768 
L 430.513125 264.768 
L 430.513125 31.92 
L 51.073125 31.92 
z
" style="fill: #ffffff"/>
   </g>
   <g id="matplotlib.axis_1">
    <g id="xtick_1">
     <g id="line2d_1">
      <path d="M 51.073125 264.768 
L 51.073125 31.92 
" clip-path="url(#p0d95e23da5)" style="fill: none; stroke-dasharray: 0.8,1.28; stroke-dashoffset: 0; stroke: #b0b0b0; stroke-opacity: 0.3; stroke-width: 0.8"/>
     </g>
     <g id="line2d_2">
      <defs>
       <path id="m532f89ad43" d="M 0 0 
L 0 3.5 
" style="stroke: #2c3e50; stroke-width: 0.8"/>
      </defs>
      <g>
       <use xlink:href="#m532f89ad43" x="51.073125" y="264.768" style="fill: #2c3e50; stroke: #2c3e50; stroke-width: 0.8"/>
      </g>
     </g>
     <g id="text_1">
      <!-- $\mathdefault{10^{0}}$ -->
      <g style="fill: #2c3e50" transform="translate(42.273125 279.366437) scale(0.1 -0.1)">
       <defs>
        <path id="DejaVuSans-31" d="M 794 531 
L 1825 531 
L 1825 4091 
L 703 3866 
L 703 4441 
L 1819 4666 
L 2450 4666 
L 2450 531 
L 3481 531 
L 3481 0 
L 794 0 
L 794 531 
z
" transform="scale(0.015625)"/>
        <path id="DejaVuSans-30" d="M 2034 4250 
Q 1547 4250 1301 3770 
Q 1056 3291 1056 2328 
Q 1056 1369 1301 889 
Q 1547 409 2034 409 
Q 2525 409 2770 889 
Q 3016 1369 3016 2328 
Q 3016 3291 2770 3770 
Q 2525 4250 2034 4250 
z
M 2034 4750 
Q 2819 4750 3233 4129 
Q 3647 3509 3647 2328 
Q 3647 1150 3233 529 
Q 2819 -91 2034 -91 
Q 1250 -91 836 529 
Q 422 1150 422 2328 
Q 422 3509 836 4129 
Q 1250 4750 2034 4750 
z
" transform="scale(0.015625)"/>
       </defs>
       <use xlink:href="#DejaVuSans-31" transform="translate(0 0.765625)"/>
       <use xlink:href="#DejaVuSans-30" transform="translate(63.623047 0.765625)"/>
       <use xlink:href="#DejaVuSans-30" transform="translate(128.203125 39.046875) scale(0.7)"/>
      </g>
     </g>
    </g>
    <g id="xtick_2">
     <g id="line2d_3">
      <path d="M 177.553125 264.768 
L 177.553125 31.92 
" clip-path="url(#p0d95e23da5)" style="fill: none; stroke-dasharray: 0.8,1.28; stroke-dashoffset: 0; stroke: #b0b0b0; stroke-opacity: 0.3; stroke-width: 0.8"/>
     </g>
     <g id="line2d_4">
      <g>
       <use xlink:href="#m532f89ad43" x="177.553125" y="264.768" style="fill: #2c3e50; stroke: #2c3e50; stroke-width: 0.8"/>
      </g>
     </g>
     <g id="text_2">
      <!-- $\mathdefault{10^{1}}$ -->
      <g style="fill: #2c3e50" transform="translate(168.753125 279.366437) scale(0.1 -0.1)">
       <use xlink:href="#DejaVuSans-31" transform="translate(0 0.684375)"/>
       <use xlink:href="#DejaVuSans-30" transform="translate(63.623047 0.684375)"/>
       <use xlink:href="#DejaVuSans-31" transform="translate(128.203125 38.965625) scale(0.7)"/>
      </g>
     </g>
    </g>
    <g id="xtick_3">
     <g id="line2d_5">
      <path d="M 304.033125 264.768 
L 304.033125 31.92 
" clip-path="url(#p0d95e23da5)" style="fill: none; stroke-dasharray: 0.8,1.28; stroke-dashoffset: 0; stroke: #b0b0b0; stroke-opacity: 0.3; stroke-width: 0.8"/>
     </g>
     <g id="line2d_6">
      <g>
       <use xlink:href="#m532f89ad43" x="304.033125" y="264.768" style="fill: #2c3e50; stroke: #2c3e50; stroke-width: 0.8"/>
      </g>
     </g>
     <g id="text_3">
      <!-- $\mathdefault{10^{2}}$ -->
      <g style="fill: #2c3e50" transform="translate(295.233125 279.366437) scale(0.1 -0.1)">
       <defs>
        <path id="DejaVuSans-32" d="M 1228 531 
L 3431 531 
L 3431 0 
L 469 0 
L 469 531 
Q 828 903 1448 1529 
Q 2069 2156 2228 2338 
Q 2531 2678 2651 2914 
Q 2772 3150 2772 3378 
Q 2772 3750 2511 3984 
Q 2250 4219 1831 4219 
Q 1534 4219 1204 4116 
Q 875 4013 500 3803 
L 500 4441 
Q 881 4594 1212 4672 
Q 1544 4750 1819 4750 
Q 2544 4750 2975 4387 
Q 3406 4025 3406 3419 
Q 3406 3131 3298 2873 
Q 3191 2616 2906 2266 
Q 2828 2175 2409 1742 
Q 1991 1309 1228 531 
z
" transform="scale(0.015625)"/>
       </defs>
       <use xlink:href="#DejaVuSans-31" transform="translate(0 0.765625)"/>
       <use xlink:href="#DejaVuSans-30" transform="translate(63.623047 0.765625)"/>
       <use xlink:href="#DejaVuSans-32" transform="translate(128.203125 39.046875) scale(0.7)"/>
      </g>
     </g>
    </g>
    <g id="xtick_4">
     <g id="line2d_7">
      <path d="M 430.513125 264.768 
L 430.513125 31.92 
" clip-path="url(#p0d95e23da5)" style="fill: none; stroke-dasharray: 0.8,1.28; stroke-dashoffset: 0; stroke: #b0b0b0; stroke-opacity: 0.3; stroke-width: 0.8"/>
     </g>
     <g id="line2d_8">
      <g>
       <use xlink:href="#m532f89ad43" x="430.513125" y="264.768" style="fill: #2c3e50; stroke: #2c3e50; stroke-width: 0.8"/>
      </g>
     </g>
     <g id="text_4">
      <!-- $\mathdefault{10^{3}}$ -->
      <g style="fill: #2c3e50" transform="translate(421.713125 279.366437) scale(0.1 -0.1)">
       <defs>
        <path id="DejaVuSans-33" d="M 2597 2516 
Q 3050 2419 3304 2112 
Q 3559 1806 3559 1356 
Q 3559 666 3084 287 
Q 2609 -91 1734 -91 
Q 1441 -91 1130 -33 
Q 819 25 488 141 
L 488 750 
Q 750 597 1062 519 
Q 1375 441 1716 441 
Q 2309 441 2620 675 
Q 2931 909 2931 1356 
Q 2931 1769 2642 2001 
Q 2353 2234 1838 2234 
L 1294 2234 
L 1294 2753 
L 1863 2753 
Q 2328 2753 2575 2939 
Q 2822 3125 2822 3475 
Q 2822 3834 2567 4026 
Q 2313 4219 1838 4219 
Q 1578 4219 1281 4162 
Q 984 4106 628 3988 
L 628 4550 
Q 988 4650 1302 4700 
Q 1616 4750 1894 4750 
Q 2613 4750 3031 4423 
Q 3450 4097 3450 3541 
Q 3450 3153 3228 2886 
Q 3006 2619 2597 2516 
z
" transform="scale(0.015625)"/>
       </defs>
       <use xlink:href="#DejaVuSans-31" transform="translate(0 0.765625)"/>
       <use xlink:href="#DejaVuSans-30" transform="translate(63.623047 0.765625)"/>
       <use xlink:href="#DejaVuSans-33" transform="translate(128.203125 39.046875) scale(0.7)"/>
      </g>
     </g>
    </g>
    <g id="xtick_5">
     <g id="line2d_9">
      <defs>
       <path id="mc2f1a47432" d="M 0 0 
L 0 2 
" style="stroke: #2c3e50; stroke-width: 0.6"/>
      </defs>
      <g>
       <use xlink:href="#mc2f1a47432" x="89.147399" y="264.768" style="fill: #2c3e50; stroke: #2c3e50; stroke-width: 0.6"/>
      </g>
     </g>
    </g>
    <g id="xtick_6">
     <g id="line2d_10">
      <g>
       <use xlink:href="#mc2f1a47432" x="111.419421" y="264.768" style="fill: #2c3e50; stroke: #2c3e50; stroke-width: 0.6"/>
      </g>
     </g>
    </g>
    <g id="xtick_7">
     <g id="line2d_11">
      <g>
       <use xlink:href="#mc2f1a47432" x="127.221673" y="264.768" style="fill: #2c3e50; stroke: #2c3e50; stroke-width: 0.6"/>
      </g>
     </g>
    </g>
    <g id="xtick_8">
     <g id="line2d_12">
      <g>
       <use xlink:href="#mc2f1a47432" x="139.478851" y="264.768" style="fill: #2c3e50; stroke: #2c3e50; stroke-width: 0.6"/>
      </g>
     </g>
    </g>
    <g id="xtick_9">
     <g id="line2d_13">
      <g>
       <use xlink:href="#mc2f1a47432" x="149.493695" y="264.768" style="fill: #2c3e50; stroke: #2c3e50; stroke-width: 0.6"/>
      </g>
     </g>
    </g>
    <g id="xtick_10">
     <g id="line2d_14">
      <g>
       <use xlink:href="#mc2f1a47432" x="157.961125" y="264.768" style="fill: #2c3e50; stroke: #2c3e50; stroke-width: 0.6"/>
      </g>
     </g>
    </g>
    <g id="xtick_11">
     <g id="line2d_15">
      <g>
       <use xlink:href="#mc2f1a47432" x="165.295947" y="264.768" style="fill: #2c3e50; stroke: #2c3e50; stroke-width: 0.6"/>
      </g>
     </g>
    </g>
    <g id="xtick_12">
     <g id="line2d_16">
      <g>
       <use xlink:href="#mc2f1a47432" x="171.765718" y="264.768" style="fill: #2c3e50; stroke: #2c3e50; stroke-width: 0.6"/>
      </g>
     </g>
    </g>
    <g id="xtick_13">
     <g id="line2d_17">
      <g>
       <use xlink:href="#mc2f1a47432" x="215.627399" y="264.768" style="fill: #2c3e50; stroke: #2c3e50; stroke-width: 0.6"/>
      </g>
     </g>
    </g>
    <g id="xtick_14">
     <g id="line2d_18">
      <g>
       <use xlink:href="#mc2f1a47432" x="237.899421" y="264.768" style="fill: #2c3e50; stroke: #2c3e50; stroke-width: 0.6"/>
      </g>
     </g>
    </g>
    <g id="xtick_15">
     <g id="line2d_19">
      <g>
       <use xlink:href="#mc2f1a47432" x="253.701673" y="264.768" style="fill: #2c3e50; stroke: #2c3e50; stroke-width: 0.6"/>
      </g>
     </g>
    </g>
    <g id="xtick_16">
     <g id="line2d_20">
      <g>
       <use xlink:href="#mc2f1a47432" x="265.958851" y="264.768" style="fill: #2c3e50; stroke: #2c3e50; stroke-width: 0.6"/>
      </g>
     </g>
    </g>
    <g id="xtick_17">
     <g id="line2d_21">
      <g>
       <use xlink:href="#mc2f1a47432" x="275.973695" y="264.768" style="fill: #2c3e50; stroke: #2c3e50; stroke-width: 0.6"/>
      </g>
     </g>
    </g>
    <g id="xtick_18">
     <g id="line2d_22">
      <g>
       <use xlink:href="#mc2f1a47432" x="284.441125" y="264.768" style="fill: #2c3e50; stroke: #2c3e50; stroke-width: 0.6"/>
      </g>
     </g>
    </g>
    <g id="xtick_19">
     <g id="line2d_23">
      <g>
       <use xlink:href="#mc2f1a47432" x="291.775947" y="264.768" style="fill: #2c3e50; stroke: #2c3e50; stroke-width: 0.6"/>
      </g>
     </g>
    </g>
    <g id="xtick_20">
     <g id="line2d_24">
      <g>
       <use xlink:href="#mc2f1a47432" x="298.245718" y="264.768" style="fill: #2c3e50; stroke: #2c3e50; stroke-width: 0.6"/>
      </g>
     </g>
    </g>
    <g id="xtick_21">
     <g id="line2d_25">
      <g>
       <use xlink:href="#mc2f1a47432" x="342.107399" y="264.768" style="fill: #2c3e50; stroke: #2c3e50; stroke-width: 0.6"/>
      </g>
     </g>
    </g>
    <g id="xtick_22">
     <g id="line2d_26">
      <g>
       <use xlink:href="#mc2f1a47432" x="364.379421" y="264.768" style="fill: #2c3e50; stroke: #2c3e50; stroke-width: 0.6"/>
      </g>
     </g>
    </g>
    <g id="xtick_23">
     <g id="line2d_27">
      <g>
       <use xlink:href="#mc2f1a47432" x="380.181673" y="264.768" style="fill: #2c3e50; stroke: #2c3e50; stroke-width: 0.6"/>
      </g>
     </g>
    </g>
    <g id="xtick_24">
     <g id="line2d_28">
      <g>
       <use xlink:href="#mc2f1a47432" x="392.438851" y="264.768" style="fill: #2c3e50; stroke: #2c3e50; stroke-width: 0.6"/>
      </g>
     </g>
    </g>
    <g id="xtick_25">
     <g id="line2d_29">
      <g>
       <use xlink:href="#mc2f1a47432" x="402.453695" y="264.768" style="fill: #2c3e50; stroke: #2c3e50; stroke-width: 0.6"/>
      </g>
     </g>
    </g>
    <g id="xtick_26">
     <g id="line2d_30">
      <g>
       <use xlink:href="#mc2f1a47432" x="410.921125" y="264.768" style="fill: #2c3e50; stroke: #2c3e50; stroke-width: 0.6"/>
      </g>
     </g>
    </g>
    <g id="xtick_27">
     <g id="line2d_31">
      <g>
       <use xlink:href="#mc2f1a47432" x="418.255947" y="264.768" style="fill: #2c3e50; stroke: #2c3e50; stroke-width: 0.6"/>
      </g>
     </g>
    </g>
    <g id="xtick_28">
     <g id="line2d_32">
      <g>
       <use xlink:href="#mc2f1a47432" x="424.725718" y="264.768" style="fill: #2c3e50; stroke: #2c3e50; stroke-width: 0.6"/>
      </g>
     </g>
    </g>
    <g id="text_5">
     <!-- n (número de observaciones) -->
     <g transform="translate(145.960352 294.184328) scale(0.115 -0.115)">
      <defs>
       <path id="DejaVuSans-Bold-6e" d="M 4056 2131 
L 4056 0 
L 2931 0 
L 2931 347 
L 2931 1631 
Q 2931 2084 2911 2256 
Q 2891 2428 2841 2509 
Q 2775 2619 2662 2680 
Q 2550 2741 2406 2741 
Q 2056 2741 1856 2470 
Q 1656 2200 1656 1722 
L 1656 0 
L 538 0 
L 538 3500 
L 1656 3500 
L 1656 2988 
Q 1909 3294 2193 3439 
Q 2478 3584 2822 3584 
Q 3428 3584 3742 3212 
Q 4056 2841 4056 2131 
z
" transform="scale(0.015625)"/>
       <path id="DejaVuSans-Bold-20" transform="scale(0.015625)"/>
       <path id="DejaVuSans-Bold-28" d="M 2413 -844 
L 1484 -844 
Q 1006 -72 778 623 
Q 550 1319 550 2003 
Q 550 2688 779 3389 
Q 1009 4091 1484 4856 
L 2413 4856 
Q 2013 4116 1813 3408 
Q 1613 2700 1613 2009 
Q 1613 1319 1811 609 
Q 2009 -100 2413 -844 
z
" transform="scale(0.015625)"/>
       <path id="DejaVuSans-Bold-fa" d="M 500 1363 
L 500 3500 
L 1625 3500 
L 1625 3150 
Q 1625 2866 1622 2436 
Q 1619 2006 1619 1863 
Q 1619 1441 1641 1255 
Q 1663 1069 1716 984 
Q 1784 875 1895 815 
Q 2006 756 2150 756 
Q 2500 756 2700 1025 
Q 2900 1294 2900 1772 
L 2900 3500 
L 4019 3500 
L 4019 0 
L 2900 0 
L 2900 506 
Q 2647 200 2364 54 
Q 2081 -91 1741 -91 
Q 1134 -91 817 281 
Q 500 653 500 1363 
z
M 2782 5119 
L 3666 5119 
L 2513 3944 
L 1901 3944 
L 2782 5119 
z
" transform="scale(0.015625)"/>
       <path id="DejaVuSans-Bold-6d" d="M 3781 2919 
Q 3994 3244 4286 3414 
Q 4578 3584 4928 3584 
Q 5531 3584 5847 3212 
Q 6163 2841 6163 2131 
L 6163 0 
L 5038 0 
L 5038 1825 
Q 5041 1866 5042 1909 
Q 5044 1953 5044 2034 
Q 5044 2406 4934 2573 
Q 4825 2741 4581 2741 
Q 4263 2741 4089 2478 
Q 3916 2216 3909 1719 
L 3909 0 
L 2784 0 
L 2784 1825 
Q 2784 2406 2684 2573 
Q 2584 2741 2328 2741 
Q 2006 2741 1831 2477 
Q 1656 2213 1656 1722 
L 1656 0 
L 531 0 
L 531 3500 
L 1656 3500 
L 1656 2988 
Q 1863 3284 2130 3434 
Q 2397 3584 2719 3584 
Q 3081 3584 3359 3409 
Q 3638 3234 3781 2919 
z
" transform="scale(0.015625)"/>
       <path id="DejaVuSans-Bold-65" d="M 4031 1759 
L 4031 1441 
L 1416 1441 
Q 1456 1047 1700 850 
Q 1944 653 2381 653 
Q 2734 653 3104 758 
Q 3475 863 3866 1075 
L 3866 213 
Q 3469 63 3072 -14 
Q 2675 -91 2278 -91 
Q 1328 -91 801 392 
Q 275 875 275 1747 
Q 275 2603 792 3093 
Q 1309 3584 2216 3584 
Q 3041 3584 3536 3087 
Q 4031 2591 4031 1759 
z
M 2881 2131 
Q 2881 2450 2695 2645 
Q 2509 2841 2209 2841 
Q 1884 2841 1681 2658 
Q 1478 2475 1428 2131 
L 2881 2131 
z
" transform="scale(0.015625)"/>
       <path id="DejaVuSans-Bold-72" d="M 3138 2547 
Q 2991 2616 2845 2648 
Q 2700 2681 2553 2681 
Q 2122 2681 1889 2404 
Q 1656 2128 1656 1613 
L 1656 0 
L 538 0 
L 538 3500 
L 1656 3500 
L 1656 2925 
Q 1872 3269 2151 3426 
Q 2431 3584 2822 3584 
Q 2878 3584 2943 3579 
Q 3009 3575 3134 3559 
L 3138 2547 
z
" transform="scale(0.015625)"/>
       <path id="DejaVuSans-Bold-6f" d="M 2203 2784 
Q 1831 2784 1636 2517 
Q 1441 2250 1441 1747 
Q 1441 1244 1636 976 
Q 1831 709 2203 709 
Q 2569 709 2762 976 
Q 2956 1244 2956 1747 
Q 2956 2250 2762 2517 
Q 2569 2784 2203 2784 
z
M 2203 3584 
Q 3106 3584 3614 3096 
Q 4122 2609 4122 1747 
Q 4122 884 3614 396 
Q 3106 -91 2203 -91 
Q 1297 -91 786 396 
Q 275 884 275 1747 
Q 275 2609 786 3096 
Q 1297 3584 2203 3584 
z
" transform="scale(0.015625)"/>
       <path id="DejaVuSans-Bold-64" d="M 2919 2988 
L 2919 4863 
L 4044 4863 
L 4044 0 
L 2919 0 
L 2919 506 
Q 2688 197 2409 53 
Q 2131 -91 1766 -91 
Q 1119 -91 703 423 
Q 288 938 288 1747 
Q 288 2556 703 3070 
Q 1119 3584 1766 3584 
Q 2128 3584 2408 3439 
Q 2688 3294 2919 2988 
z
M 2181 722 
Q 2541 722 2730 984 
Q 2919 1247 2919 1747 
Q 2919 2247 2730 2509 
Q 2541 2772 2181 2772 
Q 1825 2772 1636 2509 
Q 1447 2247 1447 1747 
Q 1447 1247 1636 984 
Q 1825 722 2181 722 
z
" transform="scale(0.015625)"/>
       <path id="DejaVuSans-Bold-62" d="M 2400 722 
Q 2759 722 2948 984 
Q 3138 1247 3138 1747 
Q 3138 2247 2948 2509 
Q 2759 2772 2400 2772 
Q 2041 2772 1848 2508 
Q 1656 2244 1656 1747 
Q 1656 1250 1848 986 
Q 2041 722 2400 722 
z
M 1656 2988 
Q 1888 3294 2169 3439 
Q 2450 3584 2816 3584 
Q 3463 3584 3878 3070 
Q 4294 2556 4294 1747 
Q 4294 938 3878 423 
Q 3463 -91 2816 -91 
Q 2450 -91 2169 54 
Q 1888 200 1656 506 
L 1656 0 
L 538 0 
L 538 4863 
L 1656 4863 
L 1656 2988 
z
" transform="scale(0.015625)"/>
       <path id="DejaVuSans-Bold-73" d="M 3272 3391 
L 3272 2541 
Q 2913 2691 2578 2766 
Q 2244 2841 1947 2841 
Q 1628 2841 1473 2761 
Q 1319 2681 1319 2516 
Q 1319 2381 1436 2309 
Q 1553 2238 1856 2203 
L 2053 2175 
Q 2913 2066 3209 1816 
Q 3506 1566 3506 1031 
Q 3506 472 3093 190 
Q 2681 -91 1863 -91 
Q 1516 -91 1145 -36 
Q 775 19 384 128 
L 384 978 
Q 719 816 1070 734 
Q 1422 653 1784 653 
Q 2113 653 2278 743 
Q 2444 834 2444 1013 
Q 2444 1163 2330 1236 
Q 2216 1309 1875 1350 
L 1678 1375 
Q 931 1469 631 1722 
Q 331 1975 331 2491 
Q 331 3047 712 3315 
Q 1094 3584 1881 3584 
Q 2191 3584 2531 3537 
Q 2872 3491 3272 3391 
z
" transform="scale(0.015625)"/>
       <path id="DejaVuSans-Bold-76" d="M 97 3500 
L 1216 3500 
L 2088 1081 
L 2956 3500 
L 4078 3500 
L 2700 0 
L 1472 0 
L 97 3500 
z
" transform="scale(0.015625)"/>
       <path id="DejaVuSans-Bold-61" d="M 2106 1575 
Q 1756 1575 1579 1456 
Q 1403 1338 1403 1106 
Q 1403 894 1545 773 
Q 1688 653 1941 653 
Q 2256 653 2472 879 
Q 2688 1106 2688 1447 
L 2688 1575 
L 2106 1575 
z
M 3816 1997 
L 3816 0 
L 2688 0 
L 2688 519 
Q 2463 200 2181 54 
Q 1900 -91 1497 -91 
Q 953 -91 614 226 
Q 275 544 275 1050 
Q 275 1666 698 1953 
Q 1122 2241 2028 2241 
L 2688 2241 
L 2688 2328 
Q 2688 2594 2478 2717 
Q 2269 2841 1825 2841 
Q 1466 2841 1156 2769 
Q 847 2697 581 2553 
L 581 3406 
Q 941 3494 1303 3539 
Q 1666 3584 2028 3584 
Q 2975 3584 3395 3211 
Q 3816 2838 3816 1997 
z
" transform="scale(0.015625)"/>
       <path id="DejaVuSans-Bold-63" d="M 3366 3391 
L 3366 2478 
Q 3138 2634 2908 2709 
Q 2678 2784 2431 2784 
Q 1963 2784 1702 2511 
Q 1441 2238 1441 1747 
Q 1441 1256 1702 982 
Q 1963 709 2431 709 
Q 2694 709 2930 787 
Q 3166 866 3366 1019 
L 3366 103 
Q 3103 6 2833 -42 
Q 2563 -91 2291 -91 
Q 1344 -91 809 395 
Q 275 881 275 1747 
Q 275 2613 809 3098 
Q 1344 3584 2291 3584 
Q 2566 3584 2833 3536 
Q 3100 3488 3366 3391 
z
" transform="scale(0.015625)"/>
       <path id="DejaVuSans-Bold-69" d="M 538 3500 
L 1656 3500 
L 1656 0 
L 538 0 
L 538 3500 
z
M 538 4863 
L 1656 4863 
L 1656 3950 
L 538 3950 
L 538 4863 
z
" transform="scale(0.015625)"/>
       <path id="DejaVuSans-Bold-29" d="M 513 -844 
Q 913 -100 1113 609 
Q 1313 1319 1313 2009 
Q 1313 2700 1113 3408 
Q 913 4116 513 4856 
L 1441 4856 
Q 1916 4091 2145 3389 
Q 2375 2688 2375 2003 
Q 2375 1319 2147 623 
Q 1919 -72 1441 -844 
L 513 -844 
z
" transform="scale(0.015625)"/>
      </defs>
      <use xlink:href="#DejaVuSans-Bold-6e"/>
      <use xlink:href="#DejaVuSans-Bold-20" x="71.191406"/>
      <use xlink:href="#DejaVuSans-Bold-28" x="106.005859"/>
      <use xlink:href="#DejaVuSans-Bold-6e" x="151.708984"/>
      <use xlink:href="#DejaVuSans-Bold-fa" x="222.900391"/>
      <use xlink:href="#DejaVuSans-Bold-6d" x="294.091797"/>
      <use xlink:href="#DejaVuSans-Bold-65" x="398.291016"/>
      <use xlink:href="#DejaVuSans-Bold-72" x="466.113281"/>
      <use xlink:href="#DejaVuSans-Bold-6f" x="515.429688"/>
      <use xlink:href="#DejaVuSans-Bold-20" x="584.130859"/>
      <use xlink:href="#DejaVuSans-Bold-64" x="618.945312"/>
      <use xlink:href="#DejaVuSans-Bold-65" x="690.527344"/>
      <use xlink:href="#DejaVuSans-Bold-20" x="758.349609"/>
      <use xlink:href="#DejaVuSans-Bold-6f" x="793.164062"/>
      <use xlink:href="#DejaVuSans-Bold-62" x="861.865234"/>
      <use xlink:href="#DejaVuSans-Bold-73" x="933.447266"/>
      <use xlink:href="#DejaVuSans-Bold-65" x="992.96875"/>
      <use xlink:href="#DejaVuSans-Bold-72" x="1060.791016"/>
      <use xlink:href="#DejaVuSans-Bold-76" x="1110.107422"/>
      <use xlink:href="#DejaVuSans-Bold-61" x="1175.292969"/>
      <use xlink:href="#DejaVuSans-Bold-63" x="1242.773438"/>
      <use xlink:href="#DejaVuSans-Bold-69" x="1302.050781"/>
      <use xlink:href="#DejaVuSans-Bold-6f" x="1336.328125"/>
      <use xlink:href="#DejaVuSans-Bold-6e" x="1405.029297"/>
      <use xlink:href="#DejaVuSans-Bold-65" x="1476.220703"/>
      <use xlink:href="#DejaVuSans-Bold-73" x="1544.042969"/>
      <use xlink:href="#DejaVuSans-Bold-29" x="1603.564453"/>
     </g>
    </g>
   </g>
   <g id="matplotlib.axis_2">
    <g id="ytick_1">
     <g id="line2d_33">
      <path d="M 51.073125 250.215 
L 430.513125 250.215 
" clip-path="url(#p0d95e23da5)" style="fill: none; stroke-dasharray: 0.8,1.28; stroke-dashoffset: 0; stroke: #b0b0b0; stroke-opacity: 0.3; stroke-width: 0.8"/>
     </g>
     <g id="line2d_34">
      <defs>
       <path id="m6ccd448291" d="M 0 0 
L -3.5 0 
" style="stroke: #2c3e50; stroke-width: 0.8"/>
      </defs>
      <g>
       <use xlink:href="#m6ccd448291" x="51.073125" y="250.215" style="fill: #2c3e50; stroke: #2c3e50; stroke-width: 0.8"/>
      </g>
     </g>
     <g id="text_6">
      <!-- 0.4 -->
      <g style="fill: #2c3e50" transform="translate(28.17 254.014219) scale(0.1 -0.1)">
       <defs>
        <path id="DejaVuSans-2e" d="M 684 794 
L 1344 794 
L 1344 0 
L 684 0 
L 684 794 
z
" transform="scale(0.015625)"/>
        <path id="DejaVuSans-34" d="M 2419 4116 
L 825 1625 
L 2419 1625 
L 2419 4116 
z
M 2253 4666 
L 3047 4666 
L 3047 1625 
L 3713 1625 
L 3713 1100 
L 3047 1100 
L 3047 0 
L 2419 0 
L 2419 1100 
L 313 1100 
L 313 1709 
L 2253 4666 
z
" transform="scale(0.015625)"/>
       </defs>
       <use xlink:href="#DejaVuSans-30"/>
       <use xlink:href="#DejaVuSans-2e" x="63.623047"/>
       <use xlink:href="#DejaVuSans-34" x="95.410156"/>
      </g>
     </g>
    </g>
    <g id="ytick_2">
     <g id="line2d_35">
      <path d="M 51.073125 221.109 
L 430.513125 221.109 
" clip-path="url(#p0d95e23da5)" style="fill: none; stroke-dasharray: 0.8,1.28; stroke-dashoffset: 0; stroke: #b0b0b0; stroke-opacity: 0.3; stroke-width: 0.8"/>
     </g>
     <g id="line2d_36">
      <g>
       <use xlink:href="#m6ccd448291" x="51.073125" y="221.109" style="fill: #2c3e50; stroke: #2c3e50; stroke-width: 0.8"/>
      </g>
     </g>
     <g id="text_7">
      <!-- 0.6 -->
      <g style="fill: #2c3e50" transform="translate(28.17 224.908219) scale(0.1 -0.1)">
       <defs>
        <path id="DejaVuSans-36" d="M 2113 2584 
Q 1688 2584 1439 2293 
Q 1191 2003 1191 1497 
Q 1191 994 1439 701 
Q 1688 409 2113 409 
Q 2538 409 2786 701 
Q 3034 994 3034 1497 
Q 3034 2003 2786 2293 
Q 2538 2584 2113 2584 
z
M 3366 4563 
L 3366 3988 
Q 3128 4100 2886 4159 
Q 2644 4219 2406 4219 
Q 1781 4219 1451 3797 
Q 1122 3375 1075 2522 
Q 1259 2794 1537 2939 
Q 1816 3084 2150 3084 
Q 2853 3084 3261 2657 
Q 3669 2231 3669 1497 
Q 3669 778 3244 343 
Q 2819 -91 2113 -91 
Q 1303 -91 875 529 
Q 447 1150 447 2328 
Q 447 3434 972 4092 
Q 1497 4750 2381 4750 
Q 2619 4750 2861 4703 
Q 3103 4656 3366 4563 
z
" transform="scale(0.015625)"/>
       </defs>
       <use xlink:href="#DejaVuSans-30"/>
       <use xlink:href="#DejaVuSans-2e" x="63.623047"/>
       <use xlink:href="#DejaVuSans-36" x="95.410156"/>
      </g>
     </g>
    </g>
    <g id="ytick_3">
     <g id="line2d_37">
      <path d="M 51.073125 192.003 
L 430.513125 192.003 
" clip-path="url(#p0d95e23da5)" style="fill: none; stroke-dasharray: 0.8,1.28; stroke-dashoffset: 0; stroke: #b0b0b0; stroke-opacity: 0.3; stroke-width: 0.8"/>
     </g>
     <g id="line2d_38">
      <g>
       <use xlink:href="#m6ccd448291" x="51.073125" y="192.003" style="fill: #2c3e50; stroke: #2c3e50; stroke-width: 0.8"/>
      </g>
     </g>
     <g id="text_8">
      <!-- 0.8 -->
      <g style="fill: #2c3e50" transform="translate(28.17 195.802219) scale(0.1 -0.1)">
       <defs>
        <path id="DejaVuSans-38" d="M 2034 2216 
Q 1584 2216 1326 1975 
Q 1069 1734 1069 1313 
Q 1069 891 1326 650 
Q 1584 409 2034 409 
Q 2484 409 2743 651 
Q 3003 894 3003 1313 
Q 3003 1734 2745 1975 
Q 2488 2216 2034 2216 
z
M 1403 2484 
Q 997 2584 770 2862 
Q 544 3141 544 3541 
Q 544 4100 942 4425 
Q 1341 4750 2034 4750 
Q 2731 4750 3128 4425 
Q 3525 4100 3525 3541 
Q 3525 3141 3298 2862 
Q 3072 2584 2669 2484 
Q 3125 2378 3379 2068 
Q 3634 1759 3634 1313 
Q 3634 634 3220 271 
Q 2806 -91 2034 -91 
Q 1263 -91 848 271 
Q 434 634 434 1313 
Q 434 1759 690 2068 
Q 947 2378 1403 2484 
z
M 1172 3481 
Q 1172 3119 1398 2916 
Q 1625 2713 2034 2713 
Q 2441 2713 2670 2916 
Q 2900 3119 2900 3481 
Q 2900 3844 2670 4047 
Q 2441 4250 2034 4250 
Q 1625 4250 1398 4047 
Q 1172 3844 1172 3481 
z
" transform="scale(0.015625)"/>
       </defs>
       <use xlink:href="#DejaVuSans-30"/>
       <use xlink:href="#DejaVuSans-2e" x="63.623047"/>
       <use xlink:href="#DejaVuSans-38" x="95.410156"/>
      </g>
     </g>
    </g>
    <g id="ytick_4">
     <g id="line2d_39">
      <path d="M 51.073125 162.897 
L 430.513125 162.897 
" clip-path="url(#p0d95e23da5)" style="fill: none; stroke-dasharray: 0.8,1.28; stroke-dashoffset: 0; stroke: #b0b0b0; stroke-opacity: 0.3; stroke-width: 0.8"/>
     </g>
     <g id="line2d_40">
      <g>
       <use xlink:href="#m6ccd448291" x="51.073125" y="162.897" style="fill: #2c3e50; stroke: #2c3e50; stroke-width: 0.8"/>
      </g>
     </g>
     <g id="text_9">
      <!-- 1.0 -->
      <g style="fill: #2c3e50" transform="translate(28.17 166.696219) scale(0.1 -0.1)">
       <use xlink:href="#DejaVuSans-31"/>
       <use xlink:href="#DejaVuSans-2e" x="63.623047"/>
       <use xlink:href="#DejaVuSans-30" x="95.410156"/>
      </g>
     </g>
    </g>
    <g id="ytick_5">
     <g id="line2d_41">
      <path d="M 51.073125 133.791 
L 430.513125 133.791 
" clip-path="url(#p0d95e23da5)" style="fill: none; stroke-dasharray: 0.8,1.28; stroke-dashoffset: 0; stroke: #b0b0b0; stroke-opacity: 0.3; stroke-width: 0.8"/>
     </g>
     <g id="line2d_42">
      <g>
       <use xlink:href="#m6ccd448291" x="51.073125" y="133.791" style="fill: #2c3e50; stroke: #2c3e50; stroke-width: 0.8"/>
      </g>
     </g>
     <g id="text_10">
      <!-- 1.2 -->
      <g style="fill: #2c3e50" transform="translate(28.17 137.590219) scale(0.1 -0.1)">
       <use xlink:href="#DejaVuSans-31"/>
       <use xlink:href="#DejaVuSans-2e" x="63.623047"/>
       <use xlink:href="#DejaVuSans-32" x="95.410156"/>
      </g>
     </g>
    </g>
    <g id="ytick_6">
     <g id="line2d_43">
      <path d="M 51.073125 104.685 
L 430.513125 104.685 
" clip-path="url(#p0d95e23da5)" style="fill: none; stroke-dasharray: 0.8,1.28; stroke-dashoffset: 0; stroke: #b0b0b0; stroke-opacity: 0.3; stroke-width: 0.8"/>
     </g>
     <g id="line2d_44">
      <g>
       <use xlink:href="#m6ccd448291" x="51.073125" y="104.685" style="fill: #2c3e50; stroke: #2c3e50; stroke-width: 0.8"/>
      </g>
     </g>
     <g id="text_11">
      <!-- 1.4 -->
      <g style="fill: #2c3e50" transform="translate(28.17 108.484219) scale(0.1 -0.1)">
       <use xlink:href="#DejaVuSans-31"/>
       <use xlink:href="#DejaVuSans-2e" x="63.623047"/>
       <use xlink:href="#DejaVuSans-34" x="95.410156"/>
      </g>
     </g>
    </g>
    <g id="ytick_7">
     <g id="line2d_45">
      <path d="M 51.073125 75.579 
L 430.513125 75.579 
" clip-path="url(#p0d95e23da5)" style="fill: none; stroke-dasharray: 0.8,1.28; stroke-dashoffset: 0; stroke: #b0b0b0; stroke-opacity: 0.3; stroke-width: 0.8"/>
     </g>
     <g id="line2d_46">
      <g>
       <use xlink:href="#m6ccd448291" x="51.073125" y="75.579" style="fill: #2c3e50; stroke: #2c3e50; stroke-width: 0.8"/>
      </g>
     </g>
     <g id="text_12">
      <!-- 1.6 -->
      <g style="fill: #2c3e50" transform="translate(28.17 79.378219) scale(0.1 -0.1)">
       <use xlink:href="#DejaVuSans-31"/>
       <use xlink:href="#DejaVuSans-2e" x="63.623047"/>
       <use xlink:href="#DejaVuSans-36" x="95.410156"/>
      </g>
     </g>
    </g>
    <g id="ytick_8">
     <g id="line2d_47">
      <path d="M 51.073125 46.473 
L 430.513125 46.473 
" clip-path="url(#p0d95e23da5)" style="fill: none; stroke-dasharray: 0.8,1.28; stroke-dashoffset: 0; stroke: #b0b0b0; stroke-opacity: 0.3; stroke-width: 0.8"/>
     </g>
     <g id="line2d_48">
      <g>
       <use xlink:href="#m6ccd448291" x="51.073125" y="46.473" style="fill: #2c3e50; stroke: #2c3e50; stroke-width: 0.8"/>
      </g>
     </g>
     <g id="text_13">
      <!-- 1.8 -->
      <g style="fill: #2c3e50" transform="translate(28.17 50.272219) scale(0.1 -0.1)">
       <use xlink:href="#DejaVuSans-31"/>
       <use xlink:href="#DejaVuSans-2e" x="63.623047"/>
       <use xlink:href="#DejaVuSans-38" x="95.410156"/>
      </g>
     </g>
    </g>
    <g id="text_14">
     <!-- $\bar X_n$ -->
     <g transform="translate(21.778359 155.4165) rotate(-90) scale(0.115 -0.115)">
      <defs>
       <path id="DejaVuSans-304" d="M -2518 4769 
L -650 4769 
L -650 4306 
L -2518 4306 
L -2518 4769 
z
" transform="scale(0.015625)"/>
       <path id="DejaVuSans-Oblique-58" d="M 878 4666 
L 1516 4666 
L 2316 2981 
L 3763 4666 
L 4500 4666 
L 2578 2438 
L 3738 0 
L 3103 0 
L 2163 1966 
L 459 0 
L -275 0 
L 1906 2509 
L 878 4666 
z
" transform="scale(0.015625)"/>
       <path id="DejaVuSans-Oblique-6e" d="M 3566 2113 
L 3156 0 
L 2578 0 
L 2988 2091 
Q 3016 2238 3031 2350 
Q 3047 2463 3047 2528 
Q 3047 2791 2881 2937 
Q 2716 3084 2419 3084 
Q 1956 3084 1622 2776 
Q 1288 2469 1184 1941 
L 800 0 
L 225 0 
L 903 3500 
L 1478 3500 
L 1363 2950 
Q 1603 3253 1940 3418 
Q 2278 3584 2650 3584 
Q 3113 3584 3367 3334 
Q 3622 3084 3622 2631 
Q 3622 2519 3608 2391 
Q 3594 2263 3566 2113 
z
" transform="scale(0.015625)"/>
      </defs>
      <use xlink:href="#DejaVuSans-304" transform="translate(70.996094 18.484375)"/>
      <use xlink:href="#DejaVuSans-Oblique-58" transform="translate(0 0.359375)"/>
      <use xlink:href="#DejaVuSans-Oblique-6e" transform="translate(75.566406 -16.046875) scale(0.7)"/>
     </g>
    </g>
   </g>
   <g id="line2d_49">
    <path d="M 51.073125 221.549593 
L 89.147399 256.472531 
L 111.419421 261.576127 
L 127.221673 262.084292 
L 139.478851 268.680825 
L 149.493695 218.266624 
L 157.961125 141.989421 
L 165.295947 159.981152 
L 171.765718 168.427018 
L 177.553125 170.402081 
L 182.788472 171.183482 
L 187.567969 178.197033 
L 191.96468 169.963835 
L 196.035399 174.986761 
L 199.825147 176.511466 
L 203.37022 177.396491 
L 206.700305 174.906471 
L 209.839991 181.141852 
L 212.80988 183.981032 
L 215.627399 188.188347 
L 218.307421 191.293437 
L 220.862746 192.784458 
L 223.304462 188.116404 
L 225.642243 186.340634 
L 227.884577 189.192285 
L 230.038954 193.588769 
L 232.112014 189.881147 
L 234.109673 187.255763 
L 236.037224 186.661227 
L 237.899421 187.545843 
L 239.700552 174.554699 
L 241.444494 175.85587 
L 243.134768 179.473448 
L 244.774578 173.683756 
L 246.366851 166.569472 
L 247.914265 170.355729 
L 249.419279 172.412003 
L 250.884154 172.061699 
L 252.310976 174.947248 
L 253.701673 176.878778 
L 255.058027 179.339816 
L 256.381695 179.284725 
L 257.674215 181.976739 
L 258.93702 179.058052 
L 260.171444 181.478106 
L 261.378736 183.52369 
L 263.716517 188.489992 
L 264.849125 189.107775 
L 265.958851 188.508436 
L 267.046601 189.748134 
L 268.113228 191.345694 
L 269.159537 193.55256 
L 270.186288 193.859412 
L 271.194198 193.917448 
L 272.183947 193.381928 
L 273.156177 186.568178 
L 274.111498 184.965559 
L 275.050487 186.785413 
L 275.973695 186.458531 
L 276.881643 187.351546 
L 277.774826 186.917402 
L 278.653718 187.976153 
L 279.518768 185.904664 
L 280.370406 183.409128 
L 281.209042 185.258339 
L 282.035066 186.237762 
L 282.848852 185.580595 
L 283.650758 178.452685 
L 284.441125 178.396366 
L 285.220281 178.980787 
L 285.988539 179.26299 
L 286.7462 180.896139 
L 287.493553 181.635351 
L 288.230874 181.960313 
L 288.958428 180.867675 
L 289.676472 182.031049 
L 290.38525 182.377056 
L 291.085 183.936253 
L 291.775947 184.739892 
L 292.45831 186.072235 
L 293.132301 184.354463 
L 293.798122 184.128755 
L 294.455969 180.675976 
L 295.106031 180.070634 
L 295.748489 180.345897 
L 296.38352 179.599606 
L 297.011293 179.766491 
L 297.631973 178.387204 
L 298.245718 179.530097 
L 298.85268 179.588864 
L 299.453009 179.885546 
L 300.046848 180.610434 
L 300.634336 180.788282 
L 302.923399 184.207249 
L 303.481064 180.410895 
L 304.579692 178.773841 
L 305.656777 180.136531 
L 306.187502 180.557076 
L 306.713148 179.635453 
L 307.233811 180.254577 
L 307.749585 178.895057 
L 308.260562 179.811628 
L 308.766828 180.451213 
L 309.268472 181.402529 
L 310.258221 182.483846 
L 310.746487 183.211751 
L 311.230451 183.41789 
L 311.710188 182.436796 
L 312.185771 182.481237 
L 312.657273 183.321175 
L 313.124761 183.897962 
L 313.588305 184.109669 
L 314.047969 184.133139 
L 314.503819 182.909162 
L 314.955916 183.620582 
L 315.404323 183.81363 
L 316.290303 184.840475 
L 316.727992 184.704612 
L 318.020512 186.684603 
L 318.44468 186.880188 
L 318.865598 186.929678 
L 319.283316 187.706763 
L 319.697881 186.342438 
L 320.10934 186.336939 
L 320.51774 187.144121 
L 320.923126 186.778799 
L 321.725032 188.242161 
L 322.515399 189.503489 
L 322.906358 189.647754 
L 323.294555 190.250591 
L 323.680027 190.172435 
L 324.062813 189.212367 
L 324.44295 189.919771 
L 324.820474 190.114311 
L 325.195421 190.874172 
L 325.567827 191.257536 
L 325.937724 190.07927 
L 326.305147 190.503009 
L 326.670129 185.818699 
L 327.032702 185.354654 
L 327.392897 184.267037 
L 327.750746 184.883172 
L 328.106278 184.912973 
L 328.459524 185.158596 
L 329.159273 186.040144 
L 329.85022 186.694085 
L 330.192462 187.180661 
L 330.532584 186.12357 
L 330.870613 186.819566 
L 331.206575 186.630644 
L 332.202304 188.436366 
L 332.530243 188.84845 
L 333.180305 188.257047 
L 333.502473 187.691213 
L 333.822763 186.869546 
L 334.141196 187.000925 
L 334.457794 186.7402 
L 334.772577 186.911594 
L 335.085567 187.283077 
L 335.396784 187.324582 
L 335.706247 187.79258 
L 336.013976 186.858835 
L 336.624311 187.557296 
L 336.926954 186.455085 
L 337.227939 186.443443 
L 337.527283 186.745704 
L 337.825005 185.469992 
L 338.121122 185.725018 
L 338.415651 185.696898 
L 338.70861 184.788741 
L 339.000014 185.038185 
L 339.28988 184.928265 
L 339.578225 184.969797 
L 339.865064 185.33147 
L 340.716703 187.094007 
L 340.997673 187.148332 
L 341.277213 186.533369 
L 341.555338 186.762761 
L 341.832062 186.819245 
L 342.107399 186.558848 
L 342.381362 186.603269 
L 342.925224 187.309513 
L 343.195149 187.286655 
L 343.463753 186.521772 
L 343.997054 186.476334 
L 344.525227 187.160061 
L 344.787421 187.082975 
L 345.308085 188.082324 
L 345.566577 188.151979 
L 345.823859 188.612209 
L 346.079941 188.580326 
L 346.334835 188.740534 
L 346.588552 189.271046 
L 346.841102 189.090176 
L 347.342746 188.147391 
L 347.59186 188.296029 
L 347.839849 188.780199 
L 348.086724 188.846369 
L 348.332494 188.684643 
L 348.57717 187.729025 
L 348.82076 188.022423 
L 349.063275 187.082284 
L 349.784462 187.247807 
L 350.022768 186.873605 
L 350.260045 187.335489 
L 350.496302 187.332843 
L 350.731547 187.21016 
L 351.199035 188.035237 
L 351.431296 187.653155 
L 351.662579 188.143798 
L 351.892892 188.228545 
L 352.122243 188.694814 
L 352.350641 188.507831 
L 352.578092 188.605357 
L 352.804606 189.078893 
L 353.03019 189.123835 
L 354.144418 188.103137 
L 354.364577 186.909696 
L 354.583857 187.050494 
L 354.802265 186.002349 
L 355.019809 186.284723 
L 355.236493 185.821745 
L 355.452327 185.743738 
L 355.667316 184.329947 
L 355.881466 184.043011 
L 356.094785 184.237548 
L 356.307279 183.263402 
L 356.939872 184.234715 
L 357.149128 184.205017 
L 357.35759 183.899217 
L 357.565263 184.018981 
L 357.772154 182.315107 
L 358.183614 183.21437 
L 358.388193 183.172696 
L 358.592014 183.519883 
L 358.795081 183.110128 
L 359.599924 184.020569 
L 359.799306 183.282007 
L 359.997966 183.510227 
L 360.589673 184.558132 
L 360.7855 184.818501 
L 360.980632 184.435503 
L 361.175073 184.809854 
L 361.561903 181.409397 
L 361.754301 180.114611 
L 361.946027 180.04097 
L 362.137087 179.789514 
L 362.327484 179.177848 
L 362.517224 178.142129 
L 362.70631 178.329204 
L 363.082542 179.054913 
L 363.269695 178.812664 
L 363.456214 178.998828 
L 363.642101 179.36181 
L 363.827361 179.432809 
L 364.011998 179.34962 
L 364.196017 179.595216 
L 364.379421 179.256857 
L 364.562215 179.346653 
L 365.106976 180.274259 
L 365.287369 179.626559 
L 365.467171 179.963865 
L 365.646387 179.915418 
L 366.003073 179.585458 
L 366.180552 178.854573 
L 366.357459 179.233052 
L 366.533798 178.731949 
L 366.709573 178.949029 
L 366.884787 178.756506 
L 367.059444 178.196798 
L 367.233547 178.374369 
L 367.580107 179.063961 
L 367.752571 178.549297 
L 367.924494 176.132757 
L 368.095881 176.543956 
L 368.266736 176.323115 
L 368.43706 174.307896 
L 369.113125 175.041717 
L 369.280849 174.368604 
L 369.614768 174.663439 
L 369.94667 173.133985 
L 370.111872 172.069438 
L 370.276578 172.173229 
L 370.440792 171.967709 
L 370.604517 171.03135 
L 370.930509 171.591925 
L 371.254578 172.200043 
L 371.576747 172.049215 
L 371.897037 172.557888 
L 372.056484 172.865652 
L 372.21547 172.689107 
L 372.373997 170.799525 
L 372.532068 170.968552 
L 372.846851 171.58338 
L 373.003569 171.353021 
L 373.31567 171.427123 
L 373.471058 171.001418 
L 373.780521 171.327454 
L 374.241471 172.050012 
L 374.546636 172.595991 
L 375.001228 171.792369 
L 375.452089 172.356628 
L 375.75062 172.803406 
L 375.899279 173.05747 
L 376.047537 172.417427 
L 376.195396 172.772473 
L 376.342858 172.521498 
L 376.489925 172.642333 
L 376.6366 172.090774 
L 376.928779 172.420704 
L 377.074288 171.829111 
L 377.652499 172.739032 
L 377.796106 171.820749 
L 377.939338 171.84195 
L 378.366808 172.598689 
L 378.508562 172.030643 
L 378.931641 172.681219 
L 379.071947 172.953886 
L 379.211895 172.785476 
L 379.351487 172.290816 
L 379.629612 172.883702 
L 379.768148 172.819815 
L 379.906336 173.125768 
L 380.044177 172.990591 
L 380.181673 172.3352 
L 380.455636 172.649465 
L 380.72824 172.966649 
L 380.864036 172.711758 
L 380.999498 173.009433 
L 381.269422 171.871505 
L 381.671839 172.578568 
L 381.805325 172.333195 
L 382.203848 172.925432 
L 382.467933 171.658683 
L 382.599501 171.710826 
L 382.861695 172.112445 
L 382.992324 171.642707 
L 383.122644 170.663924 
L 383.252655 170.745273 
L 383.511757 171.147573 
L 383.640851 171.029328 
L 384.026323 171.298563 
L 384.28181 171.807143 
L 384.536114 171.98213 
L 384.662826 171.0922 
L 384.789246 171.237135 
L 384.915376 171.179316 
L 385.16677 171.468748 
L 385.292038 170.782637 
L 385.41702 170.994825 
L 385.541718 169.882031 
L 385.790268 170.338183 
L 385.914123 170.563339 
L 386.160998 169.892205 
L 386.529242 169.443939 
L 386.773374 169.81774 
L 386.895034 169.540276 
L 387.016426 169.772139 
L 387.137549 169.725136 
L 387.378998 170.175418 
L 387.739193 168.909659 
L 387.978018 168.669261 
L 388.097042 168.907309 
L 388.215809 168.857218 
L 388.334319 168.966127 
L 388.452574 168.856861 
L 388.570576 167.435497 
L 388.688324 167.487245 
L 388.80582 167.19709 
L 388.923066 167.208712 
L 389.040062 166.540478 
L 389.273309 166.780999 
L 389.389562 166.618514 
L 389.736852 167.168289 
L 389.967165 166.639284 
L 390.196517 166.604051 
L 390.310834 166.782255 
L 390.424914 165.866125 
L 390.538758 166.113206 
L 390.652366 165.500709 
L 390.76574 165.548645 
L 390.87888 165.436082 
L 390.991788 165.499745 
L 391.104464 165.697416 
L 391.21691 165.402434 
L 391.329125 165.651904 
L 391.441112 165.371291 
L 391.552871 165.638871 
L 391.775709 163.590374 
L 391.886791 163.788087 
L 392.108281 162.564158 
L 392.328882 162.824954 
L 392.438851 162.607056 
L 392.767444 163.229486 
L 392.985419 163.529107 
L 393.202532 163.024388 
L 393.526601 163.608104 
L 393.848769 163.869461 
L 394.169059 163.889731 
L 394.275409 163.751852 
L 394.593228 164.271435 
L 394.909219 164.209517 
L 395.223402 164.655055 
L 395.327732 164.714798 
L 395.74308 165.336596 
L 395.846428 165.185711 
L 396.052543 165.242871 
L 396.360273 164.815515 
L 396.462467 164.780401 
L 396.666288 165.034407 
L 396.767915 164.995438 
L 396.970607 165.145145 
L 397.071674 164.948961 
L 397.47409 165.59619 
L 397.674198 165.574438 
L 397.773979 165.800105 
L 397.87358 165.65866 
L 398.171302 166.123524 
L 398.36889 166.255176 
L 398.56577 165.789023 
L 398.761948 165.58683 
L 399.34631 166.703764 
L 399.539724 166.673275 
L 399.73246 166.815954 
L 399.828575 166.715297 
L 400.020301 166.960899 
L 400.306642 166.789836 
L 400.401758 166.296451 
L 400.780584 166.926724 
L 400.969022 167.250193 
L 401.062999 167.15673 
L 401.156815 167.139953 
L 401.343969 167.448343 
L 401.530487 167.698554 
L 401.716374 167.357907 
L 401.809083 167.407091 
L 401.994031 167.732996 
L 402.086272 167.426331 
L 402.362069 167.733966 
L 402.636489 168.144999 
L 402.727659 167.814276 
L 402.909545 168.145792 
L 403.000263 167.69755 
L 403.18125 168.014225 
L 403.541445 168.26274 
L 404.166158 169.134518 
L 404.343351 169.334426 
L 404.431733 169.022212 
L 404.519973 169.059894 
L 404.69603 169.202068 
L 404.783847 169.042324 
L 404.871524 169.183302 
L 404.959061 169.042853 
L 405.133718 169.125511 
L 405.220838 169.020058 
L 405.307821 169.223204 
L 405.654381 168.969904 
L 406.084529 169.651024 
L 406.170155 169.627761 
L 406.34101 169.772294 
L 406.511334 169.264646 
L 406.681132 169.457763 
L 406.850406 169.758333 
L 407.019161 169.056706 
L 407.103344 169.126862 
L 407.187399 168.948864 
L 407.271325 169.0159 
L 407.855244 170.049607 
L 407.938156 170.072414 
L 408.26856 170.491527 
L 408.515066 170.516931 
L 408.76047 170.797721 
L 409.004783 170.586751 
L 409.248014 170.920185 
L 409.328852 170.981236 
L 409.409572 170.778507 
L 409.490173 170.84335 
L 409.651021 170.829587 
L 409.811399 171.163944 
L 409.891413 170.978729 
L 410.051092 171.209053 
L 410.130758 171.111318 
L 410.448271 171.317932 
L 410.606342 170.909102 
L 410.685207 171.064469 
L 410.842598 171.269775 
L 410.921125 171.072479 
L 411.156035 171.405604 
L 411.312085 171.017867 
L 411.389944 171.144875 
L 411.467692 171.239026 
L 411.700281 170.88717 
L 412.008875 171.336272 
L 412.162524 171.308217 
L 412.239188 170.61069 
L 412.315745 170.757771 
L 412.392195 170.794991 
L 412.468539 170.445523 
L 412.544777 170.532842 
L 412.696937 170.613448 
L 412.772859 170.347103 
L 412.848676 170.457538 
L 413.150903 171.07268 
L 413.2262 170.806941 
L 413.451476 171.178608 
L 413.601148 170.989783 
L 413.750413 170.571181 
L 413.973553 170.927186 
L 414.047732 170.876889 
L 414.121811 171.010296 
L 414.19579 170.897373 
L 414.26967 170.483162 
L 414.34345 170.559762 
L 414.417132 170.455613 
L 414.637585 170.686878 
L 414.857157 170.682759 
L 415.148562 171.235098 
L 415.293686 170.853377 
L 415.438428 171.006105 
L 415.510656 170.989521 
L 415.798623 171.470628 
L 415.87038 171.159056 
L 415.942043 171.29029 
L 416.013612 171.225145 
L 416.227763 171.451608 
L 416.370067 171.46817 
L 416.512004 171.698181 
L 416.86525 172.283268 
L 416.935628 172.193836 
L 417.076113 172.471692 
L 417.425761 171.395046 
L 417.495424 171.469541 
L 417.634487 171.67262 
L 417.703886 171.512604 
L 417.773198 171.630028 
L 417.98061 171.578077 
L 418.118451 171.584979 
L 418.255947 171.404334 
L 418.666381 172.027164 
L 418.870454 171.954254 
L 419.006083 172.031071 
L 419.2089 171.608475 
L 419.410971 171.777526 
L 419.612301 171.454286 
L 419.679248 171.571741 
L 419.746112 171.427265 
L 419.94622 171.773912 
L 420.278122 171.712202 
L 420.344262 171.374224 
L 420.410323 171.401682 
L 420.739441 171.968458 
L 420.935969 172.063766 
L 421.131797 172.392842 
L 421.326929 172.121321 
L 421.586031 172.458703 
L 421.650616 172.402565 
L 421.715125 172.481626 
L 421.972407 172.825699 
L 422.100597 172.611235 
L 422.228489 172.703259 
L 422.356084 172.309015 
L 422.546922 171.64375 
L 422.7371 172.06282 
L 422.800346 171.849889 
L 422.86352 171.989459 
L 423.178304 172.442253 
L 423.491293 171.767663 
L 423.80251 171.997544 
L 424.05022 171.526687 
L 424.111973 171.627742 
L 424.173657 171.566872 
L 424.235272 171.660763 
L 424.358294 171.791302 
L 424.603516 171.119934 
L 424.664651 171.086932 
L 424.847648 170.47929 
L 424.969308 170.532601 
L 425.030037 170.633248 
L 425.272285 169.743434 
L 425.33268 169.629648 
L 425.513469 168.973583 
L 425.693665 169.376206 
L 426.230731 167.663338 
L 426.526848 167.910988 
L 426.585881 167.692197 
L 426.64485 167.825572 
L 426.762598 167.98516 
L 426.821378 167.920926 
L 426.880094 168.048033 
L 426.99734 167.165349 
L 427.114336 167.352444 
L 427.172741 167.500325 
L 427.231083 167.405387 
L 427.52187 167.003363 
L 427.868795 167.306848 
L 427.926403 167.075552 
L 427.983951 167.198077 
L 428.098867 167.172581 
L 428.156235 167.05943 
L 428.213542 167.126247 
L 428.442178 167.412613 
L 428.499188 166.973839 
L 428.55614 167.105468 
L 428.72664 167.420644 
L 428.783356 167.343112 
L 428.953154 167.022359 
L 430.071921 168.495375 
L 430.237788 168.376615 
L 430.348089 168.573639 
L 430.513125 167.939023 
L 430.513125 167.939023 
" clip-path="url(#p0d95e23da5)" style="fill: none; stroke: #2980b9; stroke-opacity: 0.85; stroke-width: 1.6; stroke-linecap: square"/>
   </g>
   <g id="line2d_50">
    <path d="M 51.073125 214.669595 
L 89.147399 230.739639 
L 111.419421 220.766162 
L 127.221673 217.605155 
L 139.478851 94.149389 
L 149.493695 51.288099 
L 157.961125 34.623994 
L 165.295947 58.110362 
L 171.765718 48.366573 
L 177.553125 71.747832 
L 182.788472 87.95564 
L 187.567969 95.403526 
L 191.96468 80.86551 
L 196.035399 84.787314 
L 199.825147 90.256362 
L 203.37022 96.112112 
L 206.700305 94.306909 
L 209.839991 93.646052 
L 212.80988 100.078792 
L 215.627399 100.197148 
L 218.307421 70.198338 
L 220.862746 69.303318 
L 223.304462 78.485119 
L 225.642243 84.423164 
L 227.884577 81.411856 
L 230.038954 84.566975 
L 232.112014 86.238109 
L 234.109673 93.852893 
L 236.037224 100.32209 
L 237.899421 105.646352 
L 239.700552 111.805983 
L 241.444494 116.049593 
L 243.134768 121.696327 
L 244.774578 125.946261 
L 246.366851 123.885303 
L 247.914265 118.208209 
L 249.419279 116.974713 
L 250.884154 121.82898 
L 252.310976 125.801332 
L 253.701673 126.333616 
L 255.058027 123.39091 
L 256.381695 122.462244 
L 257.674215 118.729737 
L 258.93702 113.035021 
L 260.171444 112.222176 
L 261.378736 116.009279 
L 262.560062 118.535951 
L 263.716517 120.026423 
L 264.849125 121.190189 
L 267.046601 127.962706 
L 268.113228 130.513272 
L 269.159537 133.64097 
L 271.194198 136.844555 
L 272.183947 138.888251 
L 273.156177 137.097781 
L 274.111498 139.801817 
L 275.050487 139.116802 
L 275.973695 140.134146 
L 276.881643 141.836457 
L 277.774826 141.764231 
L 278.653718 139.872743 
L 279.518768 133.542754 
L 280.370406 134.674736 
L 281.209042 132.188884 
L 282.035066 134.061248 
L 282.848852 133.602492 
L 284.441125 138.239459 
L 285.220281 138.30753 
L 285.988539 132.437974 
L 286.7462 131.016101 
L 287.493553 131.481712 
L 288.230874 130.934202 
L 288.958428 132.077517 
L 289.676472 123.157827 
L 290.38525 124.283816 
L 291.085 122.328053 
L 292.45831 126.206563 
L 293.132301 127.1053 
L 293.798122 126.930435 
L 294.455969 123.933733 
L 295.106031 124.650393 
L 295.748489 123.2306 
L 297.011293 126.899581 
L 297.631973 126.605517 
L 298.245718 126.690681 
L 298.85268 125.334175 
L 299.453009 126.950964 
L 300.046848 126.902268 
L 300.634336 127.289131 
L 301.215607 128.307814 
L 301.790791 126.558507 
L 302.360014 128.146306 
L 302.923399 129.35671 
L 303.481064 128.580451 
L 304.033125 128.52417 
L 304.579692 129.404369 
L 305.656777 132.555311 
L 306.187502 130.293617 
L 306.713148 131.527089 
L 307.233811 131.400087 
L 308.260562 134.628797 
L 308.766828 135.583157 
L 309.268472 137.035967 
L 309.765575 136.834019 
L 310.258221 137.089166 
L 310.746487 136.580397 
L 311.230451 137.299771 
L 311.710188 138.317109 
L 312.657273 133.017382 
L 313.124761 133.829076 
L 314.047969 136.069128 
L 314.503819 136.946529 
L 314.955916 138.282675 
L 315.404323 139.032694 
L 315.8491 137.462674 
L 316.290303 137.534308 
L 317.16222 139.625035 
L 317.593042 140.773619 
L 318.44468 140.360551 
L 318.865598 140.329099 
L 319.283316 141.489547 
L 319.697881 140.444494 
L 320.10934 141.690242 
L 320.51774 141.023578 
L 320.923126 138.68397 
L 321.725032 139.77496 
L 322.121637 140.847531 
L 322.515399 138.58261 
L 322.906358 138.927324 
L 323.294555 140.067748 
L 323.680027 139.589508 
L 324.062813 139.891681 
L 324.44295 139.222241 
L 325.195421 141.334833 
L 325.937724 142.977726 
L 326.305147 143.429475 
L 326.670129 142.64966 
L 327.032702 143.298401 
L 327.392897 143.454573 
L 327.750746 144.423772 
L 328.106278 143.563834 
L 328.459524 144.427064 
L 329.159273 145.505218 
L 329.85022 145.730342 
L 330.192462 146.249016 
L 330.870613 145.559293 
L 331.206575 145.318246 
L 331.540494 145.314765 
L 332.202304 144.287978 
L 332.530243 144.007171 
L 332.856235 144.817166 
L 333.180305 145.038328 
L 333.502473 145.877617 
L 333.822763 145.140457 
L 334.141196 145.721036 
L 334.772577 146.039824 
L 335.085567 146.493134 
L 335.396784 146.688629 
L 335.706247 145.321791 
L 336.013976 145.686156 
L 336.319991 145.742897 
L 336.624311 146.361966 
L 336.926954 147.230978 
L 337.227939 146.398024 
L 337.527283 146.725098 
L 337.825005 147.273216 
L 338.121122 146.063829 
L 338.415651 146.387087 
L 339.000014 147.649357 
L 339.28988 147.677969 
L 339.578225 147.558908 
L 339.865064 148.143726 
L 340.150413 148.454296 
L 340.434288 149.231431 
L 340.716703 147.972308 
L 340.997673 148.071505 
L 341.277213 148.770792 
L 341.832062 147.327257 
L 342.381362 148.272503 
L 342.653966 147.199462 
L 342.925224 147.903269 
L 343.463753 148.480282 
L 343.731051 148.910341 
L 343.997054 149.584994 
L 344.261776 148.308741 
L 344.525227 148.561975 
L 344.787421 147.226564 
L 345.04837 147.794987 
L 345.308085 147.564469 
L 345.823859 148.200629 
L 346.079941 148.271597 
L 346.334835 147.099074 
L 346.588552 146.886839 
L 346.841102 147.171494 
L 347.092497 147.662962 
L 347.342746 147.384262 
L 347.59186 148.076028 
L 347.839849 147.918693 
L 348.086724 148.018703 
L 349.304724 150.576882 
L 349.784462 150.899636 
L 350.260045 149.851752 
L 350.496302 150.447632 
L 350.731547 150.109438 
L 351.199035 150.818624 
L 351.431296 150.575731 
L 351.662579 150.8633 
L 351.892892 148.406419 
L 352.350641 149.554448 
L 352.578092 149.238682 
L 352.804606 149.868018 
L 353.03019 149.554865 
L 353.254851 149.884103 
L 353.478597 148.290252 
L 353.701436 148.235466 
L 354.364577 149.121337 
L 354.802265 148.907701 
L 355.019809 149.464817 
L 355.236493 149.600521 
L 355.667316 148.038855 
L 355.881466 148.14402 
L 356.094785 147.440864 
L 356.307279 147.479814 
L 356.518954 146.866074 
L 357.35759 148.710375 
L 357.772154 149.149466 
L 357.978269 148.750891 
L 358.183614 148.637025 
L 358.592014 149.049266 
L 358.9974 150.104217 
L 359.198977 150.220254 
L 359.799306 151.482672 
L 360.393145 152.577372 
L 361.175073 154.342737 
L 361.368829 154.178012 
L 361.754301 154.393075 
L 361.946027 154.082611 
L 362.327484 154.675981 
L 362.70631 155.709351 
L 362.894748 155.539598 
L 363.269695 155.788362 
L 363.456214 155.842881 
L 363.642101 155.71529 
L 364.011998 156.361295 
L 364.196017 156.644417 
L 364.379421 156.320363 
L 364.562215 156.42617 
L 364.744403 155.014577 
L 365.106976 155.325851 
L 365.287369 155.274496 
L 365.467171 155.76955 
L 365.646387 154.849598 
L 365.82502 155.333821 
L 366.180552 154.848358 
L 366.357459 154.098647 
L 366.709573 154.717952 
L 366.884787 154.60387 
L 367.059444 154.800123 
L 367.233547 154.741168 
L 368.266736 156.037258 
L 368.43706 155.796939 
L 368.606858 152.606265 
L 368.776132 152.806908 
L 369.280849 153.84012 
L 369.448062 153.824186 
L 369.614768 154.202819 
L 369.78097 154.19897 
L 370.276578 153.119819 
L 370.440792 152.604493 
L 370.604517 152.674045 
L 371.254578 153.95157 
L 371.415899 153.636703 
L 371.576747 153.801888 
L 372.056484 154.741389 
L 372.21547 155.103886 
L 372.373997 154.81918 
L 372.846851 155.601177 
L 373.003569 155.985606 
L 373.159841 155.786414 
L 373.626007 156.339822 
L 373.780521 156.272384 
L 373.934601 156.689928 
L 374.08825 156.538621 
L 374.241471 156.907733 
L 374.546636 156.685003 
L 374.698585 157.030233 
L 374.850115 156.098693 
L 375.001228 156.464774 
L 375.151926 155.777738 
L 375.601557 156.644136 
L 375.75062 156.762715 
L 375.899279 157.030492 
L 376.047537 156.812604 
L 376.195396 157.183142 
L 376.342858 156.985897 
L 376.782884 157.85728 
L 377.364154 158.736025 
L 377.508516 158.772093 
L 377.652499 158.954332 
L 377.796106 158.700849 
L 378.082198 159.0175 
L 378.224687 159.166874 
L 378.366808 158.516172 
L 378.508562 158.7411 
L 378.649951 158.519577 
L 379.351487 160.12003 
L 379.906336 161.111196 
L 380.044177 160.604431 
L 380.181673 160.559618 
L 380.455636 160.865669 
L 380.592107 160.524253 
L 380.72824 160.839698 
L 381.134626 159.983776 
L 381.269422 160.224801 
L 381.403889 159.502077 
L 382.071328 160.655428 
L 382.203848 160.261218 
L 382.336049 159.342814 
L 382.861695 160.55027 
L 382.992324 160.722862 
L 383.122644 160.657079 
L 383.382359 161.157947 
L 383.640851 161.565126 
L 383.769643 161.653587 
L 384.026323 162.039801 
L 384.154215 162.013896 
L 384.28181 161.700272 
L 384.409109 162.029466 
L 384.536114 161.907656 
L 385.16677 162.62833 
L 385.292038 162.601709 
L 385.41702 162.792737 
L 385.666134 162.643365 
L 385.914123 163.07337 
L 386.037699 163.028998 
L 386.160998 162.615509 
L 386.406768 162.510461 
L 386.529242 161.92404 
L 386.773374 161.847732 
L 386.895034 162.134595 
L 387.016426 162.135897 
L 387.137549 161.428195 
L 387.378998 161.93214 
L 387.619391 161.707033 
L 387.739193 162.007452 
L 387.978018 160.166437 
L 388.097042 160.435312 
L 388.215809 159.860444 
L 388.452574 160.063225 
L 388.570576 159.755913 
L 388.688324 159.987845 
L 389.040062 159.713139 
L 389.156809 159.9957 
L 389.389562 159.219148 
L 389.50557 158.739916 
L 389.85213 159.324721 
L 389.967165 158.16387 
L 390.081961 158.181059 
L 390.310834 158.683935 
L 390.538758 157.950603 
L 390.652366 158.076844 
L 391.21691 159.143526 
L 391.329125 158.971755 
L 391.441112 159.086701 
L 391.552871 159.385784 
L 391.664403 158.78237 
L 391.886791 159.284257 
L 391.997647 159.200039 
L 392.438851 160.015933 
L 392.548601 159.793269 
L 392.876539 160.259541 
L 392.985419 160.051196 
L 393.310767 160.656994 
L 393.526601 160.953609 
L 393.6342 160.048903 
L 393.74159 160.092598 
L 393.848769 159.631956 
L 394.487492 160.814431 
L 394.593228 160.785444 
L 394.69876 160.611216 
L 394.80409 160.698246 
L 394.909219 160.949146 
L 395.014146 160.817437 
L 395.431864 161.171362 
L 395.535798 159.851615 
L 395.639537 159.927599 
L 395.74308 160.20606 
L 395.949582 159.665158 
L 396.257888 160.204398 
L 396.462467 160.145926 
L 396.767915 160.569589 
L 396.970607 160.964281 
L 397.27325 161.590442 
L 397.47409 161.10092 
L 397.574235 161.329642 
L 397.674198 161.158913 
L 397.87358 161.362692 
L 398.07224 161.53838 
L 398.171302 161.766649 
L 398.270185 161.54728 
L 398.467418 160.350075 
L 398.761948 160.779372 
L 398.957427 160.616807 
L 399.249347 161.01491 
L 399.34631 161.031989 
L 399.539724 160.614247 
L 399.636177 160.776421 
L 399.924522 160.116779 
L 400.020301 160.339874 
L 400.115914 160.252543 
L 400.211361 160.401765 
L 400.401758 159.779467 
L 400.591498 159.900576 
L 400.686122 159.40274 
L 400.874884 159.673026 
L 400.969022 159.478179 
L 401.156815 159.923452 
L 401.343969 159.668073 
L 402.178358 161.136859 
L 402.270291 160.718607 
L 402.545168 161.071333 
L 402.636489 161.202857 
L 402.818677 161.017594 
L 403.090831 161.616955 
L 403.451617 161.061338 
L 403.541445 161.190632 
L 403.631126 160.986428 
L 403.81005 161.385415 
L 403.899293 161.184805 
L 404.077347 161.575871 
L 404.166158 161.555012 
L 404.254826 161.237052 
L 404.608072 161.876103 
L 404.871524 162.435476 
L 405.046459 162.299077 
L 405.220838 162.559446 
L 405.481374 162.436726 
L 405.74068 162.17604 
L 406.084529 162.756308 
L 406.511334 161.79303 
L 406.765834 160.146804 
L 406.934848 160.281859 
L 407.019161 160.302667 
L 407.103344 160.514547 
L 407.187399 160.230515 
L 407.271325 160.321089 
L 407.438793 160.737685 
L 407.522336 160.642318 
L 407.605752 160.57569 
L 407.855244 161.137044 
L 408.020944 161.078929 
L 408.186146 161.346077 
L 408.596989 159.665304 
L 408.678791 159.718808 
L 408.76047 159.531446 
L 408.923466 159.934737 
L 409.004783 159.327439 
L 409.08598 159.42472 
L 409.167057 159.616409 
L 409.248014 159.528779 
L 409.891413 160.780086 
L 410.051092 160.855456 
L 410.130758 160.016929 
L 410.210308 160.187067 
L 410.289744 159.751483 
L 410.369065 159.903436 
L 410.527363 160.241114 
L 410.606342 159.832927 
L 410.685207 159.979985 
L 410.763959 160.074349 
L 410.99954 159.825238 
L 411.312085 160.418872 
L 411.389944 160.155739 
L 411.622861 160.451783 
L 411.777592 160.437422 
L 411.854795 160.330965 
L 412.085753 160.685518 
L 412.162524 160.687798 
L 412.392195 161.135952 
L 412.62091 159.693284 
L 412.999997 160.170981 
L 413.150903 160.291185 
L 413.376487 159.636359 
L 413.451476 159.81191 
L 413.601148 160.185534 
L 413.750413 159.924106 
L 413.899274 160.191264 
L 413.973553 159.881264 
L 414.047732 160.043501 
L 414.121811 159.965303 
L 414.417132 160.389892 
L 414.564199 160.642727 
L 414.710874 160.879045 
L 414.857157 160.592106 
L 414.930154 160.765395 
L 415.003053 160.314127 
L 415.075855 160.45356 
L 415.293686 160.928041 
L 415.366105 159.878396 
L 415.438428 159.963489 
L 415.798623 160.655611 
L 416.013612 160.547359 
L 416.156472 160.899289 
L 416.227763 160.811506 
L 416.298961 160.579868 
L 416.370067 160.697767 
L 416.582836 160.996398 
L 416.794783 161.274128 
L 416.86525 160.436198 
L 416.935628 160.625141 
L 417.005915 160.585663 
L 417.076113 160.747535 
L 417.216239 160.502792 
L 417.356009 160.80387 
L 417.425761 160.751667 
L 417.565 160.749436 
L 417.98061 161.31775 
L 418.118451 160.994241 
L 418.187242 161.098546 
L 418.870454 161.684889 
L 418.93831 161.663305 
L 419.276339 162.124999 
L 419.343696 161.974108 
L 419.746112 162.765261 
L 419.812896 162.648176 
L 420.012761 162.897463 
L 420.344262 161.397471 
L 420.410323 161.385153 
L 420.476305 161.546952 
L 420.60803 161.042701 
L 420.870538 161.411422 
L 421.001323 161.302985 
L 421.066598 161.304629 
L 421.131797 160.92527 
L 421.196918 160.941176 
L 421.391819 161.155993 
L 421.456632 160.907264 
L 421.52137 161.030641 
L 421.715125 161.220436 
L 421.779558 161.049802 
L 421.843916 160.959461 
L 421.908199 161.025701 
L 422.16458 161.357421 
L 422.228489 161.20525 
L 422.292324 161.178893 
L 422.356084 160.698258 
L 422.41977 160.80477 
L 422.610388 160.915113 
L 422.800346 160.395654 
L 422.926621 160.568599 
L 423.178304 161.034044 
L 423.241044 160.963475 
L 423.303714 160.313527 
L 423.366311 160.421942 
L 423.428838 160.540759 
L 423.491293 160.491501 
L 423.553678 160.47078 
L 424.173657 161.413617 
L 424.419703 160.980708 
L 424.481042 160.958948 
L 424.725718 161.300136 
L 424.786717 160.939764 
L 424.847648 161.065732 
L 424.969308 160.970946 
L 425.030037 160.823284 
L 425.090699 160.876138 
L 425.393009 161.186401 
L 425.633665 159.989304 
L 425.693665 159.904734 
L 425.813467 160.157691 
L 425.873271 160.059885 
L 425.933009 159.803741 
L 425.992683 159.954846 
L 426.052292 159.816504 
L 426.111836 159.900444 
L 426.408593 160.463845 
L 426.467753 160.408715 
L 426.585881 160.551204 
L 426.64485 160.659789 
L 426.703755 160.522585 
L 426.762598 160.55022 
L 426.99734 161.070148 
L 427.055869 161.018814 
L 427.231083 161.188942 
L 427.289364 161.094719 
L 427.579844 161.443497 
L 427.753397 161.667243 
L 427.868795 161.894132 
L 427.983951 161.515835 
L 428.041439 161.641595 
L 428.098867 161.665669 
L 428.213542 161.381039 
L 428.270791 161.480881 
L 428.385108 161.692774 
L 428.442178 161.554231 
L 428.499188 161.636844 
L 428.669865 161.969751 
L 428.840014 161.56164 
L 429.066062 161.947908 
L 429.122429 161.742714 
L 429.178738 161.84002 
L 429.34732 162.050993 
L 429.403399 161.931323 
L 429.459421 162.01865 
L 429.515386 162.045469 
L 429.571294 161.479973 
L 429.627145 161.541245 
L 429.682939 161.618192 
L 429.738677 161.528092 
L 430.348089 162.180826 
L 430.403156 161.731783 
L 430.458168 161.866422 
L 430.513125 161.907533 
L 430.513125 161.907533 
" clip-path="url(#p0d95e23da5)" style="fill: none; stroke: #e67e22; stroke-opacity: 0.85; stroke-width: 1.6; stroke-linecap: square"/>
   </g>
   <g id="line2d_51">
    <path d="M 51.073125 234.862513 
L 89.147399 241.4085 
L 111.419421 223.301224 
L 127.221673 230.086312 
L 139.478851 221.95906 
L 149.493695 171.23935 
L 157.961125 181.418538 
L 165.295947 192.167139 
L 171.765718 155.117152 
L 177.553125 166.73073 
L 182.788472 156.826811 
L 187.567969 164.47098 
L 191.96468 172.206036 
L 196.035399 172.421282 
L 199.825147 122.754107 
L 203.37022 128.940661 
L 206.700305 123.321083 
L 209.839991 131.011338 
L 212.80988 139.315408 
L 215.627399 132.894001 
L 218.307421 138.891581 
L 223.304462 147.268038 
L 225.642243 139.648743 
L 227.884577 143.955124 
L 230.038954 149.486565 
L 234.109673 154.054283 
L 236.037224 157.309302 
L 237.899421 154.21534 
L 239.700552 145.569163 
L 241.444494 149.442596 
L 243.134768 152.703498 
L 244.774578 156.17414 
L 246.366851 156.850513 
L 247.914265 159.081672 
L 249.419279 154.040363 
L 252.310976 160.704174 
L 253.701673 163.213354 
L 255.058027 164.937877 
L 256.381695 165.852258 
L 257.674215 165.068427 
L 258.93702 165.259186 
L 260.171444 166.344271 
L 261.378736 168.814263 
L 262.560062 170.051364 
L 263.716517 168.881159 
L 264.849125 171.638827 
L 265.958851 173.463712 
L 267.046601 175.881349 
L 268.113228 177.240789 
L 269.159537 179.380583 
L 270.186288 175.864325 
L 271.194198 178.132533 
L 272.183947 176.358708 
L 273.156177 178.472553 
L 274.111498 180.248653 
L 275.050487 181.583438 
L 275.973695 180.785076 
L 276.881643 181.157268 
L 277.774826 182.485487 
L 278.653718 182.609815 
L 279.518768 182.266861 
L 280.370406 180.191059 
L 281.209042 178.49851 
L 282.035066 180.222888 
L 283.650758 181.18304 
L 284.441125 178.399817 
L 285.220281 180.026725 
L 285.988539 180.862126 
L 287.493553 183.553346 
L 288.230874 180.028917 
L 288.958428 171.863121 
L 289.676472 170.772598 
L 290.38525 172.269324 
L 291.085 167.745504 
L 292.45831 169.66983 
L 293.132301 169.934647 
L 293.798122 167.56007 
L 294.455969 168.898604 
L 295.106031 165.47205 
L 296.38352 168.245977 
L 297.011293 168.15658 
L 297.631973 165.610291 
L 298.245718 165.039464 
L 298.85268 165.927307 
L 299.453009 163.232226 
L 300.046848 164.64477 
L 300.634336 165.019696 
L 301.215607 165.626287 
L 302.360014 161.920944 
L 303.481064 164.096773 
L 304.033125 165.439077 
L 304.579692 166.187158 
L 305.120875 166.413638 
L 305.656777 167.612359 
L 306.187502 168.502305 
L 306.713148 168.236308 
L 307.233811 169.110809 
L 307.749585 165.467127 
L 308.766828 167.900195 
L 309.268472 166.115226 
L 309.765575 166.881455 
L 310.258221 167.898675 
L 310.746487 167.849241 
L 311.230451 168.022634 
L 312.185771 169.72521 
L 312.657273 169.348834 
L 313.124761 170.318025 
L 313.588305 170.226441 
L 314.047969 167.937807 
L 314.503819 167.217879 
L 314.955916 167.507214 
L 315.404323 166.806106 
L 315.8491 165.72041 
L 316.290303 165.878451 
L 316.727992 164.706263 
L 317.16222 164.555495 
L 317.593042 165.539219 
L 318.020512 164.467636 
L 318.865598 164.13491 
L 319.283316 165.22272 
L 319.697881 165.447917 
L 321.325542 168.993315 
L 321.725032 169.250991 
L 322.121637 169.005417 
L 322.515399 169.673228 
L 322.906358 169.616549 
L 323.294555 169.796547 
L 323.680027 169.738327 
L 324.062813 168.912966 
L 324.820474 165.964035 
L 325.195421 165.713688 
L 326.305147 167.949164 
L 326.670129 165.076164 
L 327.032702 165.373919 
L 327.392897 165.079463 
L 327.750746 164.052415 
L 328.106278 164.919986 
L 328.810513 166.044604 
L 329.505833 167.718653 
L 329.85022 167.90564 
L 330.192462 168.638912 
L 330.532584 167.556849 
L 330.870613 168.205476 
L 331.540494 166.772697 
L 331.872396 166.559349 
L 332.202304 166.053028 
L 332.530243 166.087492 
L 332.856235 165.040579 
L 333.180305 165.479662 
L 333.502473 166.171401 
L 333.822763 165.51283 
L 334.141196 165.947696 
L 334.457794 164.309021 
L 334.772577 163.805575 
L 335.085567 164.452726 
L 335.396784 164.407744 
L 335.706247 164.727058 
L 336.013976 163.629818 
L 336.624311 165.217323 
L 336.926954 163.898043 
L 337.227939 163.90285 
L 337.527283 162.708451 
L 338.121122 164.154732 
L 338.415651 162.857889 
L 338.70861 162.81305 
L 339.000014 163.203203 
L 339.28988 163.950734 
L 339.578225 164.365431 
L 340.150413 165.454201 
L 340.434288 163.648159 
L 340.716703 164.217337 
L 340.997673 164.406304 
L 341.277213 165.106642 
L 341.555338 163.916054 
L 342.107399 164.76545 
L 342.653966 164.565811 
L 342.925224 164.976228 
L 343.195149 164.507861 
L 343.463753 164.727852 
L 343.997054 165.662886 
L 344.261776 165.775627 
L 344.787421 166.664271 
L 345.04837 167.061346 
L 345.308085 166.271908 
L 345.566577 166.724522 
L 345.823859 166.923777 
L 346.079941 167.469222 
L 346.334835 167.427594 
L 346.588552 167.564747 
L 346.841102 167.954499 
L 347.092497 167.015229 
L 347.342746 165.053683 
L 347.59186 165.297366 
L 347.839849 165.874782 
L 348.086724 165.857378 
L 348.332494 165.998533 
L 348.57717 165.358104 
L 349.063275 165.445634 
L 349.304724 163.893955 
L 349.784462 164.856181 
L 350.022768 164.91616 
L 350.260045 165.411466 
L 350.496302 165.385401 
L 350.731547 165.215312 
L 350.965788 165.785259 
L 351.199035 165.888115 
L 351.662579 166.83543 
L 351.892892 166.980672 
L 352.350641 167.939796 
L 352.578092 167.000861 
L 353.03019 166.895418 
L 353.254851 166.718857 
L 353.923374 168.091792 
L 354.144418 167.412355 
L 354.364577 167.769816 
L 354.583857 167.509295 
L 354.802265 167.734351 
L 355.019809 167.758502 
L 355.236493 167.656973 
L 355.452327 168.062827 
L 355.667316 168.174781 
L 356.094785 169.049595 
L 356.307279 168.918654 
L 356.518954 169.057482 
L 356.729816 168.780559 
L 356.939872 168.80772 
L 357.149128 169.30318 
L 357.35759 169.136253 
L 357.978269 170.429177 
L 358.183614 170.102221 
L 358.388193 170.436763 
L 358.592014 170.189864 
L 358.795081 170.485134 
L 358.9974 168.835348 
L 359.198977 168.850747 
L 359.399816 169.334242 
L 359.799306 169.54705 
L 359.997966 168.702237 
L 360.393145 169.159635 
L 360.7855 169.903823 
L 360.980632 169.045514 
L 361.175073 169.245066 
L 361.561903 169.910085 
L 361.946027 170.487281 
L 362.137087 170.851772 
L 362.327484 170.541791 
L 362.517224 169.801854 
L 362.70631 169.871577 
L 362.894748 169.267142 
L 363.269695 169.842113 
L 363.456214 169.964215 
L 363.827361 169.022537 
L 364.011998 169.203645 
L 364.379421 169.117175 
L 364.562215 168.818815 
L 365.106976 169.616373 
L 365.287369 168.587355 
L 365.467171 168.848648 
L 365.646387 168.669978 
L 366.357459 169.902983 
L 366.533798 169.871281 
L 366.709573 170.010066 
L 366.884787 169.992053 
L 367.924494 171.769509 
L 368.095881 171.371099 
L 368.266736 171.311184 
L 368.43706 171.64001 
L 368.606858 171.464521 
L 369.113125 172.441331 
L 369.280849 171.701647 
L 369.614768 172.147413 
L 369.78097 172.168723 
L 369.94667 171.996289 
L 370.111872 172.052986 
L 370.276578 171.788834 
L 370.440792 171.184829 
L 370.767755 171.504567 
L 370.930509 171.240854 
L 371.092783 171.296548 
L 371.254578 171.690235 
L 371.415899 171.270139 
L 372.056484 172.17518 
L 372.21547 172.070029 
L 372.373997 172.319649 
L 372.532068 172.284307 
L 372.846851 172.893485 
L 373.003569 172.375097 
L 373.780521 173.737934 
L 373.934601 173.782493 
L 374.394265 174.757566 
L 374.546636 174.424973 
L 374.698585 174.517616 
L 374.850115 173.200542 
L 375.001228 173.10472 
L 375.302213 173.351348 
L 375.452089 173.562148 
L 375.601557 172.757474 
L 375.75062 172.774336 
L 376.047537 173.287592 
L 376.195396 173.226382 
L 376.342858 172.519683 
L 376.489925 172.450409 
L 376.6366 172.624819 
L 376.782884 172.611634 
L 376.928779 172.34132 
L 377.074288 171.793806 
L 377.652499 172.576767 
L 377.796106 172.263288 
L 378.082198 171.063402 
L 378.224687 171.32722 
L 378.366808 170.715114 
L 378.508562 171.031929 
L 378.649951 170.9894 
L 378.790976 170.705347 
L 378.931641 171.056882 
L 379.071947 171.096737 
L 379.211895 170.687996 
L 379.351487 170.656732 
L 379.629612 169.858743 
L 380.72824 171.692209 
L 381.134626 171.46181 
L 381.269422 171.535028 
L 381.538027 172.094272 
L 381.671839 171.346066 
L 381.938488 171.461343 
L 382.071328 171.388694 
L 382.203848 171.456237 
L 382.336049 171.222598 
L 383.252655 172.881902 
L 383.382359 172.778131 
L 383.640851 173.138818 
L 384.026323 171.874342 
L 384.409109 172.327898 
L 384.536114 172.637259 
L 384.662826 172.326332 
L 384.789246 172.564878 
L 385.041217 172.589537 
L 385.16677 172.834245 
L 385.292038 172.386628 
L 385.541718 172.789314 
L 385.790268 171.897642 
L 385.914123 171.995136 
L 386.284021 172.057815 
L 386.406768 171.917787 
L 386.651444 170.774116 
L 387.016426 168.307862 
L 387.258406 168.694202 
L 387.499326 169.10014 
L 387.619391 168.993243 
L 387.739193 169.174361 
L 387.978018 169.006392 
L 388.097042 169.150172 
L 388.334319 168.326678 
L 388.452574 168.203583 
L 388.688324 168.617255 
L 388.80582 168.904018 
L 388.923066 168.186166 
L 389.040062 168.459333 
L 389.273309 168.054655 
L 389.389562 168.24692 
L 389.50557 168.212612 
L 389.736852 168.468048 
L 389.967165 168.144059 
L 390.196517 167.6519 
L 390.424914 168.170216 
L 390.652366 167.090515 
L 391.104464 167.687248 
L 391.21691 167.335263 
L 391.441112 167.73902 
L 391.552871 167.498328 
L 392.548601 168.721592 
L 392.985419 169.65028 
L 393.094082 169.637979 
L 393.74159 170.616486 
L 393.848769 170.331662 
L 394.169059 171.059893 
L 394.275409 170.558431 
L 394.381553 170.639894 
L 394.487492 170.241918 
L 394.69876 170.636437 
L 394.80409 170.528515 
L 394.909219 170.592095 
L 395.118874 168.281961 
L 395.431864 168.859027 
L 395.535798 168.88662 
L 395.74308 168.362048 
L 395.846428 167.510658 
L 395.949582 167.62564 
L 396.052543 167.509777 
L 396.462467 167.848286 
L 396.564472 167.747383 
L 396.767915 168.086305 
L 396.869355 167.848908 
L 396.970607 167.956081 
L 397.373762 166.787932 
L 397.973 167.102203 
L 398.07224 166.754982 
L 398.270185 166.908466 
L 398.56577 167.379022 
L 398.663947 166.927945 
L 398.761948 166.973016 
L 398.957427 167.298812 
L 399.054906 167.067251 
L 399.249347 167.41877 
L 399.443103 167.10873 
L 399.73246 167.620015 
L 399.828575 166.896935 
L 400.020301 167.226672 
L 400.115914 167.17272 
L 400.401758 166.013417 
L 400.969022 166.883699 
L 401.250472 167.379236 
L 401.62351 166.564706 
L 401.809083 166.758243 
L 401.901635 166.953461 
L 401.994031 166.375485 
L 402.270291 166.837137 
L 402.362069 166.370019 
L 402.636489 166.800572 
L 402.727659 166.603353 
L 402.818677 166.785635 
L 402.909545 166.649872 
L 403.18125 166.986531 
L 403.361643 166.724908 
L 403.899293 167.710358 
L 404.077347 167.523964 
L 404.166158 167.660493 
L 404.254826 167.37291 
L 404.343351 167.556206 
L 404.608072 167.014479 
L 404.959061 166.83764 
L 405.307821 167.211218 
L 405.394666 166.672561 
L 405.481374 166.726817 
L 405.654381 167.084106 
L 405.826844 166.912625 
L 405.998768 167.007536 
L 406.255649 166.423803 
L 406.34101 166.314895 
L 406.426238 166.481567 
L 406.596298 166.009967 
L 406.765834 166.139682 
L 406.850406 166.053297 
L 407.019161 166.335382 
L 407.103344 165.725208 
L 407.187399 165.835869 
L 407.522336 166.313071 
L 407.605752 166.165495 
L 408.103607 167.042717 
L 408.26856 166.494907 
L 408.350852 166.699399 
L 408.596989 166.566596 
L 408.76047 166.931532 
L 408.842029 166.818103 
L 409.167057 167.450632 
L 409.328852 166.832426 
L 409.570656 167.083446 
L 409.811399 166.335695 
L 409.891413 166.422039 
L 409.971311 166.574538 
L 410.210308 165.905596 
L 410.289744 166.015791 
L 410.369065 165.901552 
L 410.527363 166.118413 
L 410.842598 165.129105 
L 411.234115 165.874379 
L 411.312085 165.697132 
L 411.467692 166.077267 
L 411.545331 166.018347 
L 411.700281 166.191375 
L 412.008875 165.728575 
L 412.085753 165.126717 
L 412.162524 165.243107 
L 412.239188 165.42749 
L 412.315745 164.98027 
L 412.392195 165.042119 
L 412.544777 164.874684 
L 412.696937 165.104764 
L 412.772859 164.877747 
L 412.848676 164.955551 
L 413.150903 165.604303 
L 413.301395 165.650094 
L 413.376487 165.806712 
L 413.451476 165.496711 
L 413.601148 165.6477 
L 413.675831 165.48009 
L 413.824894 165.635771 
L 414.047732 165.188787 
L 414.19579 165.482916 
L 414.26967 165.176693 
L 414.417132 165.513423 
L 414.564199 165.247628 
L 414.710874 165.271344 
L 414.857157 165.368396 
L 414.930154 165.272299 
L 415.221172 165.650603 
L 415.510656 164.964194 
L 415.654829 165.057447 
L 415.87038 165.185851 
L 415.942043 164.997813 
L 416.085088 165.198795 
L 416.156472 165.152713 
L 416.227763 165.296083 
L 416.298961 164.573177 
L 416.370067 164.659083 
L 416.512004 164.771496 
L 416.582836 164.636436 
L 416.653575 164.72155 
L 417.005915 165.285469 
L 417.356009 165.681116 
L 417.495424 165.879357 
L 417.634487 166.043698 
L 417.703886 165.919676 
L 417.911559 166.32608 
L 418.049573 165.877514 
L 418.118451 165.966637 
L 418.255947 165.575753 
L 418.324566 165.599871 
L 418.393099 164.971323 
L 418.461547 165.083539 
L 418.666381 165.396763 
L 418.870454 165.128866 
L 419.073772 165.420362 
L 419.276339 164.860734 
L 419.478163 165.040331 
L 419.746112 165.604697 
L 420.145602 165.5584 
L 420.476305 166.025302 
L 420.542207 166.176633 
L 420.60803 166.045494 
L 420.673775 166.08996 
L 420.805028 166.129046 
L 420.870538 165.534179 
L 420.935969 165.674685 
L 421.066598 165.609914 
L 421.326929 165.949062 
L 421.391819 165.487141 
L 421.456632 165.640908 
L 421.52137 165.780233 
L 421.650616 165.372744 
L 421.843916 165.374627 
L 421.972407 165.62612 
L 422.036539 165.586235 
L 422.100597 165.523581 
L 422.228489 165.667431 
L 422.292324 165.387697 
L 422.356084 165.52684 
L 422.546922 165.611543 
L 422.67378 165.842901 
L 422.800346 165.543551 
L 422.926621 165.689743 
L 423.052607 165.322846 
L 423.241044 165.660351 
L 423.303714 165.391731 
L 423.366311 165.550912 
L 423.491293 165.701358 
L 423.553678 165.419631 
L 423.615992 165.524657 
L 423.80251 165.734864 
L 423.864542 165.630665 
L 423.926504 165.727421 
L 423.988397 165.831494 
L 424.173657 165.524663 
L 424.358294 165.768225 
L 424.419703 165.591423 
L 424.481042 165.725363 
L 424.542313 165.807126 
L 424.725718 165.446729 
L 424.969308 165.667559 
L 425.030037 165.651731 
L 425.090699 165.501319 
L 425.151295 165.64733 
L 425.272285 165.800499 
L 425.5736 166.302802 
L 425.633665 165.928551 
L 425.693665 165.980414 
L 425.933009 166.32825 
L 426.052292 166.042743 
L 426.290083 166.357513 
L 426.408593 166.544639 
L 426.585881 166.775107 
L 426.821378 166.79361 
L 426.880094 166.795716 
L 426.938748 166.495879 
L 426.99734 166.604648 
L 427.114336 166.682907 
L 427.172741 166.62532 
L 427.463836 167.112186 
L 427.579844 166.835129 
L 427.637756 166.959489 
L 428.098867 167.07783 
L 428.385108 167.412013 
L 428.669865 167.664243 
L 428.72664 167.532089 
L 428.783356 167.613414 
L 428.953154 167.781343 
L 429.009637 167.513597 
L 429.066062 167.638168 
L 429.178738 167.857351 
L 429.234989 167.724463 
L 429.291183 167.686917 
L 429.34732 167.825277 
L 429.403399 167.777062 
L 429.515386 167.918948 
L 429.738677 168.227869 
L 429.794358 168.017081 
L 429.849983 168.044254 
L 429.905552 168.142925 
L 430.071921 167.403815 
L 430.292966 167.819339 
L 430.348089 167.765613 
L 430.513125 168.052944 
L 430.513125 168.052944 
" clip-path="url(#p0d95e23da5)" style="fill: none; stroke: #7d3c98; stroke-opacity: 0.85; stroke-width: 1.6; stroke-linecap: square"/>
   </g>
   <g id="line2d_52">
    <path d="M 51.073125 162.897 
L 430.513125 162.897 
" clip-path="url(#p0d95e23da5)" style="fill: none; stroke-dasharray: 7.4,3.2; stroke-dashoffset: 0; stroke: #c0392b; stroke-opacity: 0.9; stroke-width: 2"/>
   </g>
   <g id="patch_3">
    <path d="M 51.073125 264.768 
L 51.073125 31.92 
" style="fill: none; stroke: #2c3e50; stroke-width: 1.2; stroke-linejoin: miter; stroke-linecap: square"/>
   </g>
   <g id="patch_4">
    <path d="M 51.073125 264.768 
L 430.513125 264.768 
" style="fill: none; stroke: #2c3e50; stroke-width: 1.2; stroke-linejoin: miter; stroke-linecap: square"/>
   </g>
   <g id="text_15">
    <!-- Ley de los Grandes Números: el promedio converge a $\mu$ -->
    <g transform="translate(38.253125 21.92) scale(0.13 -0.13)">
     <defs>
      <path id="DejaVuSans-Bold-4c" d="M 588 4666 
L 1791 4666 
L 1791 909 
L 3903 909 
L 3903 0 
L 588 0 
L 588 4666 
z
" transform="scale(0.015625)"/>
      <path id="DejaVuSans-Bold-79" d="M 78 3500 
L 1197 3500 
L 2138 1125 
L 2938 3500 
L 4056 3500 
L 2584 -331 
Q 2363 -916 2067 -1148 
Q 1772 -1381 1288 -1381 
L 641 -1381 
L 641 -647 
L 991 -647 
Q 1275 -647 1404 -556 
Q 1534 -466 1606 -231 
L 1638 -134 
L 78 3500 
z
" transform="scale(0.015625)"/>
      <path id="DejaVuSans-Bold-6c" d="M 538 4863 
L 1656 4863 
L 1656 0 
L 538 0 
L 538 4863 
z
" transform="scale(0.015625)"/>
      <path id="DejaVuSans-Bold-47" d="M 4781 347 
Q 4331 128 3847 18 
Q 3363 -91 2847 -91 
Q 1681 -91 1000 561 
Q 319 1213 319 2328 
Q 319 3456 1012 4103 
Q 1706 4750 2913 4750 
Q 3378 4750 3804 4662 
Q 4231 4575 4609 4403 
L 4609 3438 
Q 4219 3659 3833 3768 
Q 3447 3878 3059 3878 
Q 2341 3878 1952 3476 
Q 1563 3075 1563 2328 
Q 1563 1588 1938 1184 
Q 2313 781 3003 781 
Q 3191 781 3352 804 
Q 3513 828 3641 878 
L 3641 1784 
L 2906 1784 
L 2906 2591 
L 4781 2591 
L 4781 347 
z
" transform="scale(0.015625)"/>
      <path id="DejaVuSans-Bold-4e" d="M 588 4666 
L 1931 4666 
L 3628 1466 
L 3628 4666 
L 4769 4666 
L 4769 0 
L 3425 0 
L 1728 3200 
L 1728 0 
L 588 0 
L 588 4666 
z
" transform="scale(0.015625)"/>
      <path id="DejaVuSans-Bold-3a" d="M 716 3500 
L 1844 3500 
L 1844 2291 
L 716 2291 
L 716 3500 
z
M 716 1209 
L 1844 1209 
L 1844 0 
L 716 0 
L 716 1209 
z
" transform="scale(0.015625)"/>
      <path id="DejaVuSans-Bold-70" d="M 1656 506 
L 1656 -1331 
L 538 -1331 
L 538 3500 
L 1656 3500 
L 1656 2988 
Q 1888 3294 2169 3439 
Q 2450 3584 2816 3584 
Q 3463 3584 3878 3070 
Q 4294 2556 4294 1747 
Q 4294 938 3878 423 
Q 3463 -91 2816 -91 
Q 2450 -91 2169 54 
Q 1888 200 1656 506 
z
M 2400 2772 
Q 2041 2772 1848 2508 
Q 1656 2244 1656 1747 
Q 1656 1250 1848 986 
Q 2041 722 2400 722 
Q 2759 722 2948 984 
Q 3138 1247 3138 1747 
Q 3138 2247 2948 2509 
Q 2759 2772 2400 2772 
z
" transform="scale(0.015625)"/>
      <path id="DejaVuSans-Bold-67" d="M 2919 594 
Q 2688 288 2409 144 
Q 2131 0 1766 0 
Q 1125 0 706 504 
Q 288 1009 288 1791 
Q 288 2575 706 3076 
Q 1125 3578 1766 3578 
Q 2131 3578 2409 3434 
Q 2688 3291 2919 2981 
L 2919 3500 
L 4044 3500 
L 4044 353 
Q 4044 -491 3511 -936 
Q 2978 -1381 1966 -1381 
Q 1638 -1381 1331 -1331 
Q 1025 -1281 716 -1178 
L 716 -306 
Q 1009 -475 1290 -558 
Q 1572 -641 1856 -641 
Q 2406 -641 2662 -400 
Q 2919 -159 2919 353 
L 2919 594 
z
M 2181 2772 
Q 1834 2772 1640 2515 
Q 1447 2259 1447 1791 
Q 1447 1309 1634 1061 
Q 1822 813 2181 813 
Q 2531 813 2725 1069 
Q 2919 1325 2919 1791 
Q 2919 2259 2725 2515 
Q 2531 2772 2181 2772 
z
" transform="scale(0.015625)"/>
      <path id="DejaVuSans-Oblique-3bc" d="M -84 -1331 
L 856 3500 
L 1434 3500 
L 1009 1322 
Q 997 1256 987 1175 
Q 978 1094 978 1013 
Q 978 722 1161 565 
Q 1344 409 1684 409 
Q 2147 409 2431 671 
Q 2716 934 2816 1459 
L 3213 3500 
L 3788 3500 
L 3266 809 
Q 3253 750 3248 706 
Q 3244 663 3244 628 
Q 3244 531 3283 486 
Q 3322 441 3406 441 
Q 3438 441 3492 456 
Q 3547 472 3647 513 
L 3559 50 
Q 3422 -19 3297 -55 
Q 3172 -91 3053 -91 
Q 2847 -91 2730 40 
Q 2613 172 2613 403 
Q 2438 153 2195 31 
Q 1953 -91 1625 -91 
Q 1334 -91 1117 43 
Q 900 178 831 397 
L 494 -1331 
L -84 -1331 
z
" transform="scale(0.015625)"/>
     </defs>
     <use xlink:href="#DejaVuSans-Bold-4c" transform="translate(0 0.015625)"/>
     <use xlink:href="#DejaVuSans-Bold-65" transform="translate(63.720703 0.015625)"/>
     <use xlink:href="#DejaVuSans-Bold-79" transform="translate(131.542969 0.015625)"/>
     <use xlink:href="#DejaVuSans-Bold-20" transform="translate(196.728516 0.015625)"/>
     <use xlink:href="#DejaVuSans-Bold-64" transform="translate(231.542969 0.015625)"/>
     <use xlink:href="#DejaVuSans-Bold-65" transform="translate(303.125 0.015625)"/>
     <use xlink:href="#DejaVuSans-Bold-20" transform="translate(370.947266 0.015625)"/>
     <use xlink:href="#DejaVuSans-Bold-6c" transform="translate(405.761719 0.015625)"/>
     <use xlink:href="#DejaVuSans-Bold-6f" transform="translate(440.039062 0.015625)"/>
     <use xlink:href="#DejaVuSans-Bold-73" transform="translate(508.740234 0.015625)"/>
     <use xlink:href="#DejaVuSans-Bold-20" transform="translate(568.261719 0.015625)"/>
     <use xlink:href="#DejaVuSans-Bold-47" transform="translate(603.076172 0.015625)"/>
     <use xlink:href="#DejaVuSans-Bold-72" transform="translate(685.15625 0.015625)"/>
     <use xlink:href="#DejaVuSans-Bold-61" transform="translate(734.472656 0.015625)"/>
     <use xlink:href="#DejaVuSans-Bold-6e" transform="translate(801.953125 0.015625)"/>
     <use xlink:href="#DejaVuSans-Bold-64" transform="translate(873.144531 0.015625)"/>
     <use xlink:href="#DejaVuSans-Bold-65" transform="translate(944.726562 0.015625)"/>
     <use xlink:href="#DejaVuSans-Bold-73" transform="translate(1012.548828 0.015625)"/>
     <use xlink:href="#DejaVuSans-Bold-20" transform="translate(1072.070312 0.015625)"/>
     <use xlink:href="#DejaVuSans-Bold-4e" transform="translate(1106.884766 0.015625)"/>
     <use xlink:href="#DejaVuSans-Bold-fa" transform="translate(1190.576172 0.015625)"/>
     <use xlink:href="#DejaVuSans-Bold-6d" transform="translate(1261.767578 0.015625)"/>
     <use xlink:href="#DejaVuSans-Bold-65" transform="translate(1365.966797 0.015625)"/>
     <use xlink:href="#DejaVuSans-Bold-72" transform="translate(1433.789062 0.015625)"/>
     <use xlink:href="#DejaVuSans-Bold-6f" transform="translate(1483.105469 0.015625)"/>
     <use xlink:href="#DejaVuSans-Bold-73" transform="translate(1551.806641 0.015625)"/>
     <use xlink:href="#DejaVuSans-Bold-3a" transform="translate(1611.328125 0.015625)"/>
     <use xlink:href="#DejaVuSans-Bold-20" transform="translate(1651.318359 0.015625)"/>
     <use xlink:href="#DejaVuSans-Bold-65" transform="translate(1686.132812 0.015625)"/>
     <use xlink:href="#DejaVuSans-Bold-6c" transform="translate(1753.955078 0.015625)"/>
     <use xlink:href="#DejaVuSans-Bold-20" transform="translate(1788.232422 0.015625)"/>
     <use xlink:href="#DejaVuSans-Bold-70" transform="translate(1823.046875 0.015625)"/>
     <use xlink:href="#DejaVuSans-Bold-72" transform="translate(1894.628906 0.015625)"/>
     <use xlink:href="#DejaVuSans-Bold-6f" transform="translate(1943.945312 0.015625)"/>
     <use xlink:href="#DejaVuSans-Bold-6d" transform="translate(2012.646484 0.015625)"/>
     <use xlink:href="#DejaVuSans-Bold-65" transform="translate(2116.845703 0.015625)"/>
     <use xlink:href="#DejaVuSans-Bold-64" transform="translate(2184.667969 0.015625)"/>
     <use xlink:href="#DejaVuSans-Bold-69" transform="translate(2256.25 0.015625)"/>
     <use xlink:href="#DejaVuSans-Bold-6f" transform="translate(2290.527344 0.015625)"/>
     <use xlink:href="#DejaVuSans-Bold-20" transform="translate(2359.228516 0.015625)"/>
     <use xlink:href="#DejaVuSans-Bold-63" transform="translate(2394.042969 0.015625)"/>
     <use xlink:href="#DejaVuSans-Bold-6f" transform="translate(2453.320312 0.015625)"/>
     <use xlink:href="#DejaVuSans-Bold-6e" transform="translate(2522.021484 0.015625)"/>
     <use xlink:href="#DejaVuSans-Bold-76" transform="translate(2593.212891 0.015625)"/>
     <use xlink:href="#DejaVuSans-Bold-65" transform="translate(2658.398438 0.015625)"/>
     <use xlink:href="#DejaVuSans-Bold-72" transform="translate(2726.220703 0.015625)"/>
     <use xlink:href="#DejaVuSans-Bold-67" transform="translate(2775.537109 0.015625)"/>
     <use xlink:href="#DejaVuSans-Bold-65" transform="translate(2847.119141 0.015625)"/>
     <use xlink:href="#DejaVuSans-Bold-20" transform="translate(2914.941406 0.015625)"/>
     <use xlink:href="#DejaVuSans-Bold-61" transform="translate(2949.755859 0.015625)"/>
     <use xlink:href="#DejaVuSans-Bold-20" transform="translate(3017.236328 0.015625)"/>
     <use xlink:href="#DejaVuSans-Oblique-3bc" transform="translate(3052.050781 0.015625)"/>
    </g>
   </g>
   <g id="legend_1">
    <g id="patch_5">
     <path d="M 351.226719 95.316172 
L 423.863125 95.316172 
Q 425.763125 95.316172 425.763125 93.416172 
L 425.763125 38.57 
Q 425.763125 36.67 423.863125 36.67 
L 351.226719 36.67 
Q 349.326719 36.67 349.326719 38.57 
L 349.326719 93.416172 
Q 349.326719 95.316172 351.226719 95.316172 
z
" style="fill: #ffffff; opacity: 0.92; stroke: #cccccc; stroke-linejoin: miter"/>
    </g>
    <g id="line2d_53">
     <path d="M 353.126719 44.363516 
L 362.626719 44.363516 
L 372.126719 44.363516 
" style="fill: none; stroke: #2980b9; stroke-opacity: 0.85; stroke-width: 1.6; stroke-linecap: square"/>
    </g>
    <g id="text_16">
     <!-- corrida 1 -->
     <g transform="translate(379.726719 47.688516) scale(0.095 -0.095)">
      <defs>
       <path id="DejaVuSans-63" d="M 3122 3366 
L 3122 2828 
Q 2878 2963 2633 3030 
Q 2388 3097 2138 3097 
Q 1578 3097 1268 2742 
Q 959 2388 959 1747 
Q 959 1106 1268 751 
Q 1578 397 2138 397 
Q 2388 397 2633 464 
Q 2878 531 3122 666 
L 3122 134 
Q 2881 22 2623 -34 
Q 2366 -91 2075 -91 
Q 1284 -91 818 406 
Q 353 903 353 1747 
Q 353 2603 823 3093 
Q 1294 3584 2113 3584 
Q 2378 3584 2631 3529 
Q 2884 3475 3122 3366 
z
" transform="scale(0.015625)"/>
       <path id="DejaVuSans-6f" d="M 1959 3097 
Q 1497 3097 1228 2736 
Q 959 2375 959 1747 
Q 959 1119 1226 758 
Q 1494 397 1959 397 
Q 2419 397 2687 759 
Q 2956 1122 2956 1747 
Q 2956 2369 2687 2733 
Q 2419 3097 1959 3097 
z
M 1959 3584 
Q 2709 3584 3137 3096 
Q 3566 2609 3566 1747 
Q 3566 888 3137 398 
Q 2709 -91 1959 -91 
Q 1206 -91 779 398 
Q 353 888 353 1747 
Q 353 2609 779 3096 
Q 1206 3584 1959 3584 
z
" transform="scale(0.015625)"/>
       <path id="DejaVuSans-72" d="M 2631 2963 
Q 2534 3019 2420 3045 
Q 2306 3072 2169 3072 
Q 1681 3072 1420 2755 
Q 1159 2438 1159 1844 
L 1159 0 
L 581 0 
L 581 3500 
L 1159 3500 
L 1159 2956 
Q 1341 3275 1631 3429 
Q 1922 3584 2338 3584 
Q 2397 3584 2469 3576 
Q 2541 3569 2628 3553 
L 2631 2963 
z
" transform="scale(0.015625)"/>
       <path id="DejaVuSans-69" d="M 603 3500 
L 1178 3500 
L 1178 0 
L 603 0 
L 603 3500 
z
M 603 4863 
L 1178 4863 
L 1178 4134 
L 603 4134 
L 603 4863 
z
" transform="scale(0.015625)"/>
       <path id="DejaVuSans-64" d="M 2906 2969 
L 2906 4863 
L 3481 4863 
L 3481 0 
L 2906 0 
L 2906 525 
Q 2725 213 2448 61 
Q 2172 -91 1784 -91 
Q 1150 -91 751 415 
Q 353 922 353 1747 
Q 353 2572 751 3078 
Q 1150 3584 1784 3584 
Q 2172 3584 2448 3432 
Q 2725 3281 2906 2969 
z
M 947 1747 
Q 947 1113 1208 752 
Q 1469 391 1925 391 
Q 2381 391 2643 752 
Q 2906 1113 2906 1747 
Q 2906 2381 2643 2742 
Q 2381 3103 1925 3103 
Q 1469 3103 1208 2742 
Q 947 2381 947 1747 
z
" transform="scale(0.015625)"/>
       <path id="DejaVuSans-61" d="M 2194 1759 
Q 1497 1759 1228 1600 
Q 959 1441 959 1056 
Q 959 750 1161 570 
Q 1363 391 1709 391 
Q 2188 391 2477 730 
Q 2766 1069 2766 1631 
L 2766 1759 
L 2194 1759 
z
M 3341 1997 
L 3341 0 
L 2766 0 
L 2766 531 
Q 2569 213 2275 61 
Q 1981 -91 1556 -91 
Q 1019 -91 701 211 
Q 384 513 384 1019 
Q 384 1609 779 1909 
Q 1175 2209 1959 2209 
L 2766 2209 
L 2766 2266 
Q 2766 2663 2505 2880 
Q 2244 3097 1772 3097 
Q 1472 3097 1187 3025 
Q 903 2953 641 2809 
L 641 3341 
Q 956 3463 1253 3523 
Q 1550 3584 1831 3584 
Q 2591 3584 2966 3190 
Q 3341 2797 3341 1997 
z
" transform="scale(0.015625)"/>
       <path id="DejaVuSans-20" transform="scale(0.015625)"/>
      </defs>
      <use xlink:href="#DejaVuSans-63"/>
      <use xlink:href="#DejaVuSans-6f" x="54.980469"/>
      <use xlink:href="#DejaVuSans-72" x="116.162109"/>
      <use xlink:href="#DejaVuSans-72" x="155.525391"/>
      <use xlink:href="#DejaVuSans-69" x="196.638672"/>
      <use xlink:href="#DejaVuSans-64" x="224.421875"/>
      <use xlink:href="#DejaVuSans-61" x="287.898438"/>
      <use xlink:href="#DejaVuSans-20" x="349.177734"/>
      <use xlink:href="#DejaVuSans-31" x="380.964844"/>
     </g>
    </g>
    <g id="line2d_54">
     <path d="M 353.126719 58.307734 
L 362.626719 58.307734 
L 372.126719 58.307734 
" style="fill: none; stroke: #e67e22; stroke-opacity: 0.85; stroke-width: 1.6; stroke-linecap: square"/>
    </g>
    <g id="text_17">
     <!-- corrida 2 -->
     <g transform="translate(379.726719 61.632734) scale(0.095 -0.095)">
      <use xlink:href="#DejaVuSans-63"/>
      <use xlink:href="#DejaVuSans-6f" x="54.980469"/>
      <use xlink:href="#DejaVuSans-72" x="116.162109"/>
      <use xlink:href="#DejaVuSans-72" x="155.525391"/>
      <use xlink:href="#DejaVuSans-69" x="196.638672"/>
      <use xlink:href="#DejaVuSans-64" x="224.421875"/>
      <use xlink:href="#DejaVuSans-61" x="287.898438"/>
      <use xlink:href="#DejaVuSans-20" x="349.177734"/>
      <use xlink:href="#DejaVuSans-32" x="380.964844"/>
     </g>
    </g>
    <g id="line2d_55">
     <path d="M 353.126719 72.251953 
L 362.626719 72.251953 
L 372.126719 72.251953 
" style="fill: none; stroke: #7d3c98; stroke-opacity: 0.85; stroke-width: 1.6; stroke-linecap: square"/>
    </g>
    <g id="text_18">
     <!-- corrida 3 -->
     <g transform="translate(379.726719 75.576953) scale(0.095 -0.095)">
      <use xlink:href="#DejaVuSans-63"/>
      <use xlink:href="#DejaVuSans-6f" x="54.980469"/>
      <use xlink:href="#DejaVuSans-72" x="116.162109"/>
      <use xlink:href="#DejaVuSans-72" x="155.525391"/>
      <use xlink:href="#DejaVuSans-69" x="196.638672"/>
      <use xlink:href="#DejaVuSans-64" x="224.421875"/>
      <use xlink:href="#DejaVuSans-61" x="287.898438"/>
      <use xlink:href="#DejaVuSans-20" x="349.177734"/>
      <use xlink:href="#DejaVuSans-33" x="380.964844"/>
     </g>
    </g>
    <g id="line2d_56">
     <path d="M 353.126719 86.196172 
L 362.626719 86.196172 
L 372.126719 86.196172 
" style="fill: none; stroke-dasharray: 7.4,3.2; stroke-dashoffset: 0; stroke: #c0392b; stroke-opacity: 0.9; stroke-width: 2"/>
    </g>
    <g id="text_19">
     <!-- $\mu = 1$ -->
     <g transform="translate(379.726719 89.521172) scale(0.095 -0.095)">
      <defs>
       <path id="DejaVuSans-3d" d="M 678 2906 
L 4684 2906 
L 4684 2381 
L 678 2381 
L 678 2906 
z
M 678 1631 
L 4684 1631 
L 4684 1100 
L 678 1100 
L 678 1631 
z
" transform="scale(0.015625)"/>
      </defs>
      <use xlink:href="#DejaVuSans-Oblique-3bc" transform="translate(0 0.09375)"/>
      <use xlink:href="#DejaVuSans-3d" transform="translate(83.105469 0.09375)"/>
      <use xlink:href="#DejaVuSans-31" transform="translate(186.376953 0.09375)"/>
     </g>
    </g>
   </g>
  </g>
 </g>
 <defs>
  <clipPath id="p0d95e23da5">
   <rect x="51.073125" y="31.92" width="379.44" height="232.848"/>
  </clipPath>
 </defs>
</svg>
