<?xml version="1.0" encoding="utf-8" standalone="no"?>
<!DOCTYPE svg PUBLIC "-//W3C//DTD SVG 1.1//EN"
  "http://www.w3.org/Graphics/SVG/1.1/DTD/svg11.dtd">
<svg xmlns:xlink="http://www.w3.org/1999/xlink" width="372.312pt" height="344.293969pt" viewBox="0 0 372.312 344.293969" xmlns="http://www.w3.org/2000/svg" version="1.1">
 <metadata>
  <rdf:RDF xmlns:dc="http://purl.org/dc/elements/1.1/" xmlns:cc="http://creativecommons.org/ns#" xmlns:rdf="http://www.w3.org/1999/02/22-rdf-syntax-ns#">
   <cc:Work>
    <dc:type rdf:resource="http://purl.org/dc/dcmitype/StillImage"/>
    <dc:date>2026-06-30T11:57:15.217137</dc:date>
    <dc:format>image/svg+xml</dc:format>
    <dc:creator>
     <cc:Agent>
      <dc:title>Matplotlib v3.9.2, https://matplotlib.org/</dc:title>
     </cc:Agent>
    </dc:creator>
   </cc:Work>
  </rdf:RDF>
 </metadata>
 <defs>
  <style type="text/css">*{stroke-linejoin: round; stroke-linecap: butt}</style>
 </defs>
 <g id="figure_1">
  <g id="patch_1">
   <path d="M 0 344.293969 
L 372.312 344.293969 
L 372.312 0 
L 0 0 
z
" style="fill: #ffffff"/>
  </g>
  <g id="axes_1">
   <g id="text_1">
    <!-- Cadena de Markov: diagrama de estados -->
    <g transform="translate(36.544281 21.397969) scale(0.13 -0.13)">
     <defs>
      <path id="DejaVuSans-Bold-43" d="M 4288 256 
Q 3956 84 3597 -3 
Q 3238 -91 2847 -91 
Q 1681 -91 1000 561 
Q 319 1213 319 2328 
Q 319 3447 1000 4098 
Q 1681 4750 2847 4750 
Q 3238 4750 3597 4662 
Q 3956 4575 4288 4403 
L 4288 3438 
Q 3953 3666 3628 3772 
Q 3303 3878 2944 3878 
Q 2300 3878 1931 3465 
Q 1563 3053 1563 2328 
Q 1563 1606 1931 1193 
Q 2300 781 2944 781 
Q 3303 781 3628 887 
Q 3953 994 4288 1222 
L 4288 256 
z
" transform="scale(0.015625)"/>
      <path id="DejaVuSans-Bold-61" d="M 2106 1575 
Q 1756 1575 1579 1456 
Q 1403 1338 1403 1106 
Q 1403 894 1545 773 
Q 1688 653 1941 653 
Q 2256 653 2472 879 
Q 2688 1106 2688 1447 
L 2688 1575 
L 2106 1575 
z
M 3816 1997 
L 3816 0 
L 2688 0 
L 2688 519 
Q 2463 200 2181 54 
Q 1900 -91 1497 -91 
Q 953 -91 614 226 
Q 275 544 275 1050 
Q 275 1666 698 1953 
Q 1122 2241 2028 2241 
L 2688 2241 
L 2688 2328 
Q 2688 2594 2478 2717 
Q 2269 2841 1825 2841 
Q 1466 2841 1156 2769 
Q 847 2697 581 2553 
L 581 3406 
Q 941 3494 1303 3539 
Q 1666 3584 2028 3584 
Q 2975 3584 3395 3211 
Q 3816 2838 3816 1997 
z
" transform="scale(0.015625)"/>
      <path id="DejaVuSans-Bold-64" d="M 2919 2988 
L 2919 4863 
L 4044 4863 
L 4044 0 
L 2919 0 
L 2919 506 
Q 2688 197 2409 53 
Q 2131 -91 1766 -91 
Q 1119 -91 703 423 
Q 288 938 288 1747 
Q 288 2556 703 3070 
Q 1119 3584 1766 3584 
Q 2128 3584 2408 3439 
Q 2688 3294 2919 2988 
z
M 2181 722 
Q 2541 722 2730 984 
Q 2919 1247 2919 1747 
Q 2919 2247 2730 2509 
Q 2541 2772 2181 2772 
Q 1825 2772 1636 2509 
Q 1447 2247 1447 1747 
Q 1447 1247 1636 984 
Q 1825 722 2181 722 
z
" transform="scale(0.015625)"/>
      <path id="DejaVuSans-Bold-65" d="M 4031 1759 
L 4031 1441 
L 1416 1441 
Q 1456 1047 1700 850 
Q 1944 653 2381 653 
Q 2734 653 3104 758 
Q 3475 863 3866 1075 
L 3866 213 
Q 3469 63 3072 -14 
Q 2675 -91 2278 -91 
Q 1328 -91 801 392 
Q 275 875 275 1747 
Q 275 2603 792 3093 
Q 1309 3584 2216 3584 
Q 3041 3584 3536 3087 
Q 4031 2591 4031 1759 
z
M 2881 2131 
Q 2881 2450 2695 2645 
Q 2509 2841 2209 2841 
Q 1884 2841 1681 2658 
Q 1478 2475 1428 2131 
L 2881 2131 
z
" transform="scale(0.015625)"/>
      <path id="DejaVuSans-Bold-6e" d="M 4056 2131 
L 4056 0 
L 2931 0 
L 2931 347 
L 2931 1631 
Q 2931 2084 2911 2256 
Q 2891 2428 2841 2509 
Q 2775 2619 2662 2680 
Q 2550 2741 2406 2741 
Q 2056 2741 1856 2470 
Q 1656 2200 1656 1722 
L 1656 0 
L 538 0 
L 538 3500 
L 1656 3500 
L 1656 2988 
Q 1909 3294 2193 3439 
Q 2478 3584 2822 3584 
Q 3428 3584 3742 3212 
Q 4056 2841 4056 2131 
z
" transform="scale(0.015625)"/>
      <path id="DejaVuSans-Bold-20" transform="scale(0.015625)"/>
      <path id="DejaVuSans-Bold-4d" d="M 588 4666 
L 2119 4666 
L 3181 2169 
L 4250 4666 
L 5778 4666 
L 5778 0 
L 4641 0 
L 4641 3413 
L 3566 897 
L 2803 897 
L 1728 3413 
L 1728 0 
L 588 0 
L 588 4666 
z
" transform="scale(0.015625)"/>
      <path id="DejaVuSans-Bold-72" d="M 3138 2547 
Q 2991 2616 2845 2648 
Q 2700 2681 2553 2681 
Q 2122 2681 1889 2404 
Q 1656 2128 1656 1613 
L 1656 0 
L 538 0 
L 538 3500 
L 1656 3500 
L 1656 2925 
Q 1872 3269 2151 3426 
Q 2431 3584 2822 3584 
Q 2878 3584 2943 3579 
Q 3009 3575 3134 3559 
L 3138 2547 
z
" transform="scale(0.015625)"/>
      <path id="DejaVuSans-Bold-6b" d="M 538 4863 
L 1656 4863 
L 1656 2216 
L 2944 3500 
L 4244 3500 
L 2534 1894 
L 4378 0 
L 3022 0 
L 1656 1459 
L 1656 0 
L 538 0 
L 538 4863 
z
" transform="scale(0.015625)"/>
      <path id="DejaVuSans-Bold-6f" d="M 2203 2784 
Q 1831 2784 1636 2517 
Q 1441 2250 1441 1747 
Q 1441 1244 1636 976 
Q 1831 709 2203 709 
Q 2569 709 2762 976 
Q 2956 1244 2956 1747 
Q 2956 2250 2762 2517 
Q 2569 2784 2203 2784 
z
M 2203 3584 
Q 3106 3584 3614 3096 
Q 4122 2609 4122 1747 
Q 4122 884 3614 396 
Q 3106 -91 2203 -91 
Q 1297 -91 786 396 
Q 275 884 275 1747 
Q 275 2609 786 3096 
Q 1297 3584 2203 3584 
z
" transform="scale(0.015625)"/>
      <path id="DejaVuSans-Bold-76" d="M 97 3500 
L 1216 3500 
L 2088 1081 
L 2956 3500 
L 4078 3500 
L 2700 0 
L 1472 0 
L 97 3500 
z
" transform="scale(0.015625)"/>
      <path id="DejaVuSans-Bold-3a" d="M 716 3500 
L 1844 3500 
L 1844 2291 
L 716 2291 
L 716 3500 
z
M 716 1209 
L 1844 1209 
L 1844 0 
L 716 0 
L 716 1209 
z
" transform="scale(0.015625)"/>
      <path id="DejaVuSans-Bold-69" d="M 538 3500 
L 1656 3500 
L 1656 0 
L 538 0 
L 538 3500 
z
M 538 4863 
L 1656 4863 
L 1656 3950 
L 538 3950 
L 538 4863 
z
" transform="scale(0.015625)"/>
      <path id="DejaVuSans-Bold-67" d="M 2919 594 
Q 2688 288 2409 144 
Q 2131 0 1766 0 
Q 1125 0 706 504 
Q 288 1009 288 1791 
Q 288 2575 706 3076 
Q 1125 3578 1766 3578 
Q 2131 3578 2409 3434 
Q 2688 3291 2919 2981 
L 2919 3500 
L 4044 3500 
L 4044 353 
Q 4044 -491 3511 -936 
Q 2978 -1381 1966 -1381 
Q 1638 -1381 1331 -1331 
Q 1025 -1281 716 -1178 
L 716 -306 
Q 1009 -475 1290 -558 
Q 1572 -641 1856 -641 
Q 2406 -641 2662 -400 
Q 2919 -159 2919 353 
L 2919 594 
z
M 2181 2772 
Q 1834 2772 1640 2515 
Q 1447 2259 1447 1791 
Q 1447 1309 1634 1061 
Q 1822 813 2181 813 
Q 2531 813 2725 1069 
Q 2919 1325 2919 1791 
Q 2919 2259 2725 2515 
Q 2531 2772 2181 2772 
z
" transform="scale(0.015625)"/>
      <path id="DejaVuSans-Bold-6d" d="M 3781 2919 
Q 3994 3244 4286 3414 
Q 4578 3584 4928 3584 
Q 5531 3584 5847 3212 
Q 6163 2841 6163 2131 
L 6163 0 
L 5038 0 
L 5038 1825 
Q 5041 1866 5042 1909 
Q 5044 1953 5044 2034 
Q 5044 2406 4934 2573 
Q 4825 2741 4581 2741 
Q 4263 2741 4089 2478 
Q 3916 2216 3909 1719 
L 3909 0 
L 2784 0 
L 2784 1825 
Q 2784 2406 2684 2573 
Q 2584 2741 2328 2741 
Q 2006 2741 1831 2477 
Q 1656 2213 1656 1722 
L 1656 0 
L 531 0 
L 531 3500 
L 1656 3500 
L 1656 2988 
Q 1863 3284 2130 3434 
Q 2397 3584 2719 3584 
Q 3081 3584 3359 3409 
Q 3638 3234 3781 2919 
z
" transform="scale(0.015625)"/>
      <path id="DejaVuSans-Bold-73" d="M 3272 3391 
L 3272 2541 
Q 2913 2691 2578 2766 
Q 2244 2841 1947 2841 
Q 1628 2841 1473 2761 
Q 1319 2681 1319 2516 
Q 1319 2381 1436 2309 
Q 1553 2238 1856 2203 
L 2053 2175 
Q 2913 2066 3209 1816 
Q 3506 1566 3506 1031 
Q 3506 472 3093 190 
Q 2681 -91 1863 -91 
Q 1516 -91 1145 -36 
Q 775 19 384 128 
L 384 978 
Q 719 816 1070 734 
Q 1422 653 1784 653 
Q 2113 653 2278 743 
Q 2444 834 2444 1013 
Q 2444 1163 2330 1236 
Q 2216 1309 1875 1350 
L 1678 1375 
Q 931 1469 631 1722 
Q 331 1975 331 2491 
Q 331 3047 712 3315 
Q 1094 3584 1881 3584 
Q 2191 3584 2531 3537 
Q 2872 3491 3272 3391 
z
" transform="scale(0.015625)"/>
      <path id="DejaVuSans-Bold-74" d="M 1759 4494 
L 1759 3500 
L 2913 3500 
L 2913 2700 
L 1759 2700 
L 1759 1216 
Q 1759 972 1856 886 
Q 1953 800 2241 800 
L 2816 800 
L 2816 0 
L 1856 0 
Q 1194 0 917 276 
Q 641 553 641 1216 
L 641 2700 
L 84 2700 
L 84 3500 
L 641 3500 
L 641 4494 
L 1759 4494 
z
" transform="scale(0.015625)"/>
     </defs>
     <use xlink:href="#DejaVuSans-Bold-43"/>
     <use xlink:href="#DejaVuSans-Bold-61" x="73.388672"/>
     <use xlink:href="#DejaVuSans-Bold-64" x="140.869141"/>
     <use xlink:href="#DejaVuSans-Bold-65" x="212.451172"/>
     <use xlink:href="#DejaVuSans-Bold-6e" x="280.273438"/>
     <use xlink:href="#DejaVuSans-Bold-61" x="351.464844"/>
     <use xlink:href="#DejaVuSans-Bold-20" x="418.945312"/>
     <use xlink:href="#DejaVuSans-Bold-64" x="453.759766"/>
     <use xlink:href="#DejaVuSans-Bold-65" x="525.341797"/>
     <use xlink:href="#DejaVuSans-Bold-20" x="593.164062"/>
     <use xlink:href="#DejaVuSans-Bold-4d" x="627.978516"/>
     <use xlink:href="#DejaVuSans-Bold-61" x="727.490234"/>
     <use xlink:href="#DejaVuSans-Bold-72" x="794.970703"/>
     <use xlink:href="#DejaVuSans-Bold-6b" x="844.287109"/>
     <use xlink:href="#DejaVuSans-Bold-6f" x="908.166016"/>
     <use xlink:href="#DejaVuSans-Bold-76" x="976.867188"/>
     <use xlink:href="#DejaVuSans-Bold-3a" x="1042.052734"/>
     <use xlink:href="#DejaVuSans-Bold-20" x="1082.042969"/>
     <use xlink:href="#DejaVuSans-Bold-64" x="1116.857422"/>
     <use xlink:href="#DejaVuSans-Bold-69" x="1188.439453"/>
     <use xlink:href="#DejaVuSans-Bold-61" x="1222.716797"/>
     <use xlink:href="#DejaVuSans-Bold-67" x="1290.197266"/>
     <use xlink:href="#DejaVuSans-Bold-72" x="1361.779297"/>
     <use xlink:href="#DejaVuSans-Bold-61" x="1411.095703"/>
     <use xlink:href="#DejaVuSans-Bold-6d" x="1478.576172"/>
     <use xlink:href="#DejaVuSans-Bold-61" x="1582.775391"/>
     <use xlink:href="#DejaVuSans-Bold-20" x="1650.255859"/>
     <use xlink:href="#DejaVuSans-Bold-64" x="1685.070312"/>
     <use xlink:href="#DejaVuSans-Bold-65" x="1756.652344"/>
     <use xlink:href="#DejaVuSans-Bold-20" x="1824.474609"/>
     <use xlink:href="#DejaVuSans-Bold-65" x="1859.289062"/>
     <use xlink:href="#DejaVuSans-Bold-73" x="1927.111328"/>
     <use xlink:href="#DejaVuSans-Bold-74" x="1986.632812"/>
     <use xlink:href="#DejaVuSans-Bold-61" x="2034.435547"/>
     <use xlink:href="#DejaVuSans-Bold-64" x="2101.916016"/>
     <use xlink:href="#DejaVuSans-Bold-6f" x="2173.498047"/>
     <use xlink:href="#DejaVuSans-Bold-73" x="2242.199219"/>
    </g>
   </g>
   <g id="patch_2">
    <path d="M 114.144353 109.039094 
Q 186.154039 139.936277 256.314299 109.834266 
" clip-path="url(#p7ec872922e)" style="fill: none; stroke: #34495e; stroke-width: 1.8; stroke-linecap: round"/>
    <path d="M 248.278156 109.364788 
L 256.314299 109.834266 
L 251.11703 115.981493 
z
" clip-path="url(#p7ec872922e)" style="fill: #34495e; stroke: #34495e; stroke-width: 1.8; stroke-linecap: round"/>
   </g>
   <g id="patch_3">
    <path d="M 100.755825 132.018279 
Q 112.493266 200.915109 168.759055 238.882052 
" clip-path="url(#p7ec872922e)" style="fill: none; stroke: #34495e; stroke-width: 1.8; stroke-linecap: round"/>
    <path d="M 164.80438 231.870594 
L 168.759055 238.882052 
L 160.777084 237.838917 
z
" clip-path="url(#p7ec872922e)" style="fill: #34495e; stroke: #34495e; stroke-width: 1.8; stroke-linecap: round"/>
   </g>
   <g id="patch_4">
    <path d="M 258.167647 107.444843 
Q 186.157961 76.54766 115.997701 106.649671 
" clip-path="url(#p7ec872922e)" style="fill: none; stroke: #34495e; stroke-width: 1.8; stroke-linecap: round"/>
    <path d="M 124.033844 107.11915 
L 115.997701 106.649671 
L 121.19497 100.502444 
z
" clip-path="url(#p7ec872922e)" style="fill: #34495e; stroke: #34495e; stroke-width: 1.8; stroke-linecap: round"/>
   </g>
   <g id="patch_5">
    <path d="M 201.886207 240.006731 
Q 259.819612 200.913749 271.218511 134.000425 
" clip-path="url(#p7ec872922e)" style="fill: none; stroke: #34495e; stroke-width: 1.8; stroke-linecap: round"/>
    <path d="M 266.460513 140.49361 
L 271.218511 134.000425 
L 273.55826 141.702734 
z
" clip-path="url(#p7ec872922e)" style="fill: #34495e; stroke: #34495e; stroke-width: 1.8; stroke-linecap: round"/>
   </g>
   <g id="patch_6">
    <path d="M 76.840575 78.362168 
Q 33.384686 55.262851 55.540053 96.942378 
" clip-path="url(#p7ec872922e)" style="fill: none; stroke: #34495e; stroke-width: 1.8; stroke-linecap: round"/>
    <path d="M 55.361674 89.789185 
L 55.540053 96.942378 
L 49.71047 92.793165 
z
" clip-path="url(#p7ec872922e)" style="fill: #34495e; stroke: #34495e; stroke-width: 1.8; stroke-linecap: round"/>
   </g>
   <g id="patch_7">
    <path d="M 171.761869 290.781857 
Q 186.156139 337.843495 199.961805 292.705408 
" clip-path="url(#p7ec872922e)" style="fill: none; stroke: #34495e; stroke-width: 1.8; stroke-linecap: round"/>
    <path d="M 195.029866 297.889613 
L 199.961805 292.705408 
L 201.150006 299.761482 
z
" clip-path="url(#p7ec872922e)" style="fill: #34495e; stroke: #34495e; stroke-width: 1.8; stroke-linecap: round"/>
   </g>
   <g id="patch_8">
    <path d="M 86.364 134.187889 
C 93.244938 134.187889 99.844978 131.454063 104.710536 126.588505 
C 109.576094 121.722947 112.30992 115.122907 112.30992 108.241969 
C 112.30992 101.36103 109.576094 94.760991 104.710536 89.895433 
C 99.844978 85.029875 93.244938 82.296049 86.364 82.296049 
C 79.483062 82.296049 72.883022 85.029875 68.017464 89.895433 
C 63.151906 94.760991 60.41808 101.36103 60.41808 108.241969 
C 60.41808 115.122907 63.151906 121.722947 68.017464 126.588505 
C 72.883022 131.454063 79.483062 134.187889 86.364 134.187889 
z
" clip-path="url(#p7ec872922e)" style="fill: #ffffff; stroke: #2980b9; stroke-width: 2.6; stroke-linejoin: miter"/>
   </g>
   <g id="patch_9">
    <path d="M 285.948 134.187889 
C 292.828938 134.187889 299.428978 131.454063 304.294536 126.588505 
C 309.160094 121.722947 311.89392 115.122907 311.89392 108.241969 
C 311.89392 101.36103 309.160094 94.760991 304.294536 89.895433 
C 299.428978 85.029875 292.828938 82.296049 285.948 82.296049 
C 279.067062 82.296049 272.467022 85.029875 267.601464 89.895433 
C 262.735906 94.760991 260.00208 101.36103 260.00208 108.241969 
C 260.00208 115.122907 262.735906 121.722947 267.601464 126.588505 
C 272.467022 131.454063 279.067062 134.187889 285.948 134.187889 
z
" clip-path="url(#p7ec872922e)" style="fill: #ffffff; stroke: #c0392b; stroke-width: 2.6; stroke-linejoin: miter"/>
   </g>
   <g id="patch_10">
    <path d="M 186.156 288.865489 
C 193.036938 288.865489 199.636978 286.131663 204.502536 281.266105 
C 209.368094 276.400547 212.10192 269.800507 212.10192 262.919569 
C 212.10192 256.03863 209.368094 249.438591 204.502536 244.573033 
C 199.636978 239.707475 193.036938 236.973649 186.156 236.973649 
C 179.275062 236.973649 172.675022 239.707475 167.809464 244.573033 
C 162.943906 249.438591 160.21008 256.03863 160.21008 262.919569 
C 160.21008 269.800507 162.943906 276.400547 167.809464 281.266105 
C 172.675022 286.131663 179.275062 288.865489 186.156 288.865489 
z
" clip-path="url(#p7ec872922e)" style="fill: #ffffff; stroke: #27ae60; stroke-width: 2.6; stroke-linejoin: miter"/>
   </g>
   <g id="text_2">
    <!-- $a$ -->
    <g style="fill: #2980b9" transform="translate(81.094 112.932906) scale(0.17 -0.17)">
     <defs>
      <path id="DejaVuSans-Oblique-61" d="M 3438 1997 
L 3047 0 
L 2472 0 
L 2578 531 
Q 2325 219 2001 64 
Q 1678 -91 1281 -91 
Q 834 -91 548 182 
Q 263 456 263 884 
Q 263 1497 752 1853 
Q 1241 2209 2100 2209 
L 2900 2209 
L 2931 2363 
Q 2938 2388 2941 2417 
Q 2944 2447 2944 2509 
Q 2944 2788 2717 2942 
Q 2491 3097 2081 3097 
Q 1800 3097 1504 3025 
Q 1209 2953 897 2809 
L 997 3341 
Q 1322 3463 1633 3523 
Q 1944 3584 2234 3584 
Q 2853 3584 3176 3315 
Q 3500 3047 3500 2534 
Q 3500 2431 3484 2292 
Q 3469 2153 3438 1997 
z
M 2816 1759 
L 2241 1759 
Q 1534 1759 1195 1570 
Q 856 1381 856 984 
Q 856 709 1029 553 
Q 1203 397 1509 397 
Q 1978 397 2328 733 
Q 2678 1069 2791 1631 
L 2816 1759 
z
" transform="scale(0.015625)"/>
     </defs>
     <use xlink:href="#DejaVuSans-Oblique-61"/>
    </g>
   </g>
   <g id="text_3">
    <!-- $b$ -->
    <g style="fill: #c0392b" transform="translate(280.508 112.932906) scale(0.17 -0.17)">
     <defs>
      <path id="DejaVuSans-Oblique-62" d="M 3169 2138 
Q 3169 2591 2961 2847 
Q 2753 3103 2388 3103 
Q 2122 3103 1889 2973 
Q 1656 2844 1484 2597 
Q 1303 2338 1198 1995 
Q 1094 1653 1094 1313 
Q 1094 881 1298 636 
Q 1503 391 1863 391 
Q 2134 391 2365 517 
Q 2597 644 2772 891 
Q 2950 1147 3059 1487 
Q 3169 1828 3169 2138 
z
M 1381 2969 
Q 1594 3256 1914 3420 
Q 2234 3584 2584 3584 
Q 3122 3584 3439 3221 
Q 3756 2859 3756 2241 
Q 3756 1734 3570 1259 
Q 3384 784 3041 416 
Q 2816 172 2522 40 
Q 2228 -91 1906 -91 
Q 1566 -91 1316 65 
Q 1066 222 909 531 
L 806 0 
L 231 0 
L 1178 4863 
L 1753 4863 
L 1381 2969 
z
" transform="scale(0.015625)"/>
     </defs>
     <use xlink:href="#DejaVuSans-Oblique-62" transform="translate(0 0.015625)"/>
    </g>
   </g>
   <g id="text_4">
    <!-- $c$ -->
    <g style="fill: #27ae60" transform="translate(181.481 267.610506) scale(0.17 -0.17)">
     <defs>
      <path id="DejaVuSans-Oblique-63" d="M 3431 3366 
L 3316 2797 
Q 3109 2947 2876 3022 
Q 2644 3097 2394 3097 
Q 2119 3097 1870 3000 
Q 1622 2903 1453 2725 
Q 1184 2453 1037 2087 
Q 891 1722 891 1331 
Q 891 859 1127 628 
Q 1363 397 1844 397 
Q 2081 397 2348 469 
Q 2616 541 2906 684 
L 2797 116 
Q 2547 13 2283 -39 
Q 2019 -91 1741 -91 
Q 1044 -91 669 257 
Q 294 606 294 1253 
Q 294 1797 489 2255 
Q 684 2713 1069 3078 
Q 1331 3328 1684 3456 
Q 2038 3584 2456 3584 
Q 2700 3584 2940 3529 
Q 3181 3475 3431 3366 
z
" transform="scale(0.015625)"/>
     </defs>
     <use xlink:href="#DejaVuSans-Oblique-63"/>
    </g>
   </g>
   <g id="text_5">
    <g id="patch_11">
     <path d="M 176.956 132.841531 
L 195.356 132.841531 
Q 197.426 132.841531 197.426 130.771531 
L 197.426 119.641687 
Q 197.426 117.571687 195.356 117.571687 
L 176.956 117.571687 
Q 174.886 117.571687 174.886 119.641687 
L 174.886 130.771531 
Q 174.886 132.841531 176.956 132.841531 
z
" style="fill: #ffffff; opacity: 0.9"/>
    </g>
    <!-- $0.4$ -->
    <g style="fill: #34495e" transform="translate(176.956 128.37989) scale(0.115 -0.115)">
     <defs>
      <path id="DejaVuSans-30" d="M 2034 4250 
Q 1547 4250 1301 3770 
Q 1056 3291 1056 2328 
Q 1056 1369 1301 889 
Q 1547 409 2034 409 
Q 2525 409 2770 889 
Q 3016 1369 3016 2328 
Q 3016 3291 2770 3770 
Q 2525 4250 2034 4250 
z
M 2034 4750 
Q 2819 4750 3233 4129 
Q 3647 3509 3647 2328 
Q 3647 1150 3233 529 
Q 2819 -91 2034 -91 
Q 1250 -91 836 529 
Q 422 1150 422 2328 
Q 422 3509 836 4129 
Q 1250 4750 2034 4750 
z
" transform="scale(0.015625)"/>
      <path id="DejaVuSans-2e" d="M 684 794 
L 1344 794 
L 1344 0 
L 684 0 
L 684 794 
z
" transform="scale(0.015625)"/>
      <path id="DejaVuSans-34" d="M 2419 4116 
L 825 1625 
L 2419 1625 
L 2419 4116 
z
M 2253 4666 
L 3047 4666 
L 3047 1625 
L 3713 1625 
L 3713 1100 
L 3047 1100 
L 3047 0 
L 2419 0 
L 2419 1100 
L 313 1100 
L 313 1709 
L 2253 4666 
z
" transform="scale(0.015625)"/>
     </defs>
     <use xlink:href="#DejaVuSans-30" transform="translate(0 0.78125)"/>
     <use xlink:href="#DejaVuSans-2e" transform="translate(63.623047 0.78125)"/>
     <use xlink:href="#DejaVuSans-34" transform="translate(95.410156 0.78125)"/>
    </g>
   </g>
   <g id="text_6">
    <g id="patch_12">
     <path d="M 112.80467 202.412678 
L 131.20467 202.412678 
Q 133.27467 202.412678 133.27467 200.342678 
L 133.27467 189.212834 
Q 133.27467 187.142834 131.20467 187.142834 
L 112.80467 187.142834 
Q 110.73467 187.142834 110.73467 189.212834 
L 110.73467 200.342678 
Q 110.73467 202.412678 112.80467 202.412678 
z
" style="fill: #ffffff; opacity: 0.9"/>
    </g>
    <!-- $0.3$ -->
    <g style="fill: #34495e" transform="translate(112.80467 197.951037) scale(0.115 -0.115)">
     <defs>
      <path id="DejaVuSans-33" d="M 2597 2516 
Q 3050 2419 3304 2112 
Q 3559 1806 3559 1356 
Q 3559 666 3084 287 
Q 2609 -91 1734 -91 
Q 1441 -91 1130 -33 
Q 819 25 488 141 
L 488 750 
Q 750 597 1062 519 
Q 1375 441 1716 441 
Q 2309 441 2620 675 
Q 2931 909 2931 1356 
Q 2931 1769 2642 2001 
Q 2353 2234 1838 2234 
L 1294 2234 
L 1294 2753 
L 1863 2753 
Q 2328 2753 2575 2939 
Q 2822 3125 2822 3475 
Q 2822 3834 2567 4026 
Q 2313 4219 1838 4219 
Q 1578 4219 1281 4162 
Q 984 4106 628 3988 
L 628 4550 
Q 988 4650 1302 4700 
Q 1616 4750 1894 4750 
Q 2613 4750 3031 4423 
Q 3450 4097 3450 3541 
Q 3450 3153 3228 2886 
Q 3006 2619 2597 2516 
z
" transform="scale(0.015625)"/>
     </defs>
     <use xlink:href="#DejaVuSans-30" transform="translate(0 0.78125)"/>
     <use xlink:href="#DejaVuSans-2e" transform="translate(63.623047 0.78125)"/>
     <use xlink:href="#DejaVuSans-33" transform="translate(95.410156 0.78125)"/>
    </g>
   </g>
   <g id="text_7">
    <g id="patch_13">
     <path d="M 182.476 98.912251 
L 189.836 98.912251 
Q 191.906 98.912251 191.906 96.842251 
L 191.906 85.712407 
Q 191.906 83.642407 189.836 83.642407 
L 182.476 83.642407 
Q 180.406 83.642407 180.406 85.712407 
L 180.406 96.842251 
Q 180.406 98.912251 182.476 98.912251 
z
" style="fill: #ffffff; opacity: 0.9"/>
    </g>
    <!-- $1$ -->
    <g style="fill: #34495e" transform="translate(182.476 94.45061) scale(0.115 -0.115)">
     <defs>
      <path id="DejaVuSans-31" d="M 794 531 
L 1825 531 
L 1825 4091 
L 703 3866 
L 703 4441 
L 1819 4666 
L 2450 4666 
L 2450 531 
L 3481 531 
L 3481 0 
L 794 0 
L 794 531 
z
" transform="scale(0.015625)"/>
     </defs>
     <use xlink:href="#DejaVuSans-31" transform="translate(0 0.09375)"/>
    </g>
   </g>
   <g id="text_8">
    <g id="patch_14">
     <path d="M 241.10733 202.412678 
L 259.50733 202.412678 
Q 261.57733 202.412678 261.57733 200.342678 
L 261.57733 189.212834 
Q 261.57733 187.142834 259.50733 187.142834 
L 241.10733 187.142834 
Q 239.03733 187.142834 239.03733 189.212834 
L 239.03733 200.342678 
Q 239.03733 202.412678 241.10733 202.412678 
z
" style="fill: #ffffff; opacity: 0.9"/>
    </g>
    <!-- $0.3$ -->
    <g style="fill: #34495e" transform="translate(241.10733 197.951037) scale(0.115 -0.115)">
     <use xlink:href="#DejaVuSans-30" transform="translate(0 0.78125)"/>
     <use xlink:href="#DejaVuSans-2e" transform="translate(63.623047 0.78125)"/>
     <use xlink:href="#DejaVuSans-33" transform="translate(95.410156 0.78125)"/>
    </g>
   </g>
   <g id="text_9">
    <!-- $0.3$ -->
    <g style="fill: #34495e" transform="translate(32.708932 66.960182) scale(0.115 -0.115)">
     <use xlink:href="#DejaVuSans-30" transform="translate(0 0.78125)"/>
     <use xlink:href="#DejaVuSans-2e" transform="translate(63.623047 0.78125)"/>
     <use xlink:href="#DejaVuSans-33" transform="translate(95.410156 0.78125)"/>
    </g>
   </g>
   <g id="text_10">
    <!-- $0.7$ -->
    <g style="fill: #34495e" transform="translate(177.416 328.96181) scale(0.115 -0.115)">
     <defs>
      <path id="DejaVuSans-37" d="M 525 4666 
L 3525 4666 
L 3525 4397 
L 1831 0 
L 1172 0 
L 2766 4134 
L 525 4134 
L 525 4666 
z
" transform="scale(0.015625)"/>
     </defs>
     <use xlink:href="#DejaVuSans-30" transform="translate(0 0.78125)"/>
     <use xlink:href="#DejaVuSans-2e" transform="translate(63.623047 0.78125)"/>
     <use xlink:href="#DejaVuSans-37" transform="translate(87.660156 0.78125)"/>
    </g>
   </g>
  </g>
 </g>
 <defs>
  <clipPath id="p7ec872922e">
   <rect x="11.52" y="33.397969" width="349.272" height="299.376"/>
  </clipPath>
 </defs>
</svg>
