<?xml version="1.0" encoding="utf-8" standalone="no"?>
<!DOCTYPE svg PUBLIC "-//W3C//DTD SVG 1.1//EN"
  "http://www.w3.org/Graphics/SVG/1.1/DTD/svg11.dtd">
<svg xmlns:xlink="http://www.w3.org/1999/xlink" width="435.715469pt" height="302.029937pt" viewBox="0 0 435.715469 302.029937" xmlns="http://www.w3.org/2000/svg" version="1.1">
 <metadata>
  <rdf:RDF xmlns:dc="http://purl.org/dc/elements/1.1/" xmlns:cc="http://creativecommons.org/ns#" xmlns:rdf="http://www.w3.org/1999/02/22-rdf-syntax-ns#">
   <cc:Work>
    <dc:type rdf:resource="http://purl.org/dc/dcmitype/StillImage"/>
    <dc:date>2026-06-30T11:52:39.869701</dc:date>
    <dc:format>image/svg+xml</dc:format>
    <dc:creator>
     <cc:Agent>
      <dc:title>Matplotlib v3.9.2, https://matplotlib.org/</dc:title>
     </cc:Agent>
    </dc:creator>
   </cc:Work>
  </rdf:RDF>
 </metadata>
 <defs>
  <style type="text/css">*{stroke-linejoin: round; stroke-linecap: butt}</style>
 </defs>
 <g id="figure_1">
  <g id="patch_1">
   <path d="M 0 302.029937 
L 435.715469 302.029937 
L 435.715469 0 
L 0 0 
z
" style="fill: #ffffff"/>
  </g>
  <g id="axes_1">
   <g id="patch_2">
    <path d="M 55.915469 258.701969 
L 424.195469 258.701969 
L 424.195469 31.397969 
L 55.915469 31.397969 
z
" style="fill: #ffffff"/>
   </g>
   <g id="matplotlib.axis_1">
    <g id="xtick_1">
     <g id="line2d_1">
      <path d="M 78.932969 258.701969 
L 78.932969 31.397969 
" clip-path="url(#p9c2ad11e05)" style="fill: none; stroke-dasharray: 0.8,1.28; stroke-dashoffset: 0; stroke: #b0b0b0; stroke-opacity: 0.3; stroke-width: 0.8"/>
     </g>
     <g id="line2d_2">
      <defs>
       <path id="m74deedd757" d="M 0 0 
L 0 3.5 
" style="stroke: #2c3e50; stroke-width: 0.8"/>
      </defs>
      <g>
       <use xlink:href="#m74deedd757" x="78.932969" y="258.701969" style="fill: #2c3e50; stroke: #2c3e50; stroke-width: 0.8"/>
      </g>
     </g>
     <g id="text_1">
      <!-- −6 -->
      <g style="fill: #2c3e50" transform="translate(71.561875 273.300406) scale(0.1 -0.1)">
       <defs>
        <path id="DejaVuSans-2212" d="M 678 2272 
L 4684 2272 
L 4684 1741 
L 678 1741 
L 678 2272 
z
" transform="scale(0.015625)"/>
        <path id="DejaVuSans-36" d="M 2113 2584 
Q 1688 2584 1439 2293 
Q 1191 2003 1191 1497 
Q 1191 994 1439 701 
Q 1688 409 2113 409 
Q 2538 409 2786 701 
Q 3034 994 3034 1497 
Q 3034 2003 2786 2293 
Q 2538 2584 2113 2584 
z
M 3366 4563 
L 3366 3988 
Q 3128 4100 2886 4159 
Q 2644 4219 2406 4219 
Q 1781 4219 1451 3797 
Q 1122 3375 1075 2522 
Q 1259 2794 1537 2939 
Q 1816 3084 2150 3084 
Q 2853 3084 3261 2657 
Q 3669 2231 3669 1497 
Q 3669 778 3244 343 
Q 2819 -91 2113 -91 
Q 1303 -91 875 529 
Q 447 1150 447 2328 
Q 447 3434 972 4092 
Q 1497 4750 2381 4750 
Q 2619 4750 2861 4703 
Q 3103 4656 3366 4563 
z
" transform="scale(0.015625)"/>
       </defs>
       <use xlink:href="#DejaVuSans-2212"/>
       <use xlink:href="#DejaVuSans-36" x="83.789062"/>
      </g>
     </g>
    </g>
    <g id="xtick_2">
     <g id="line2d_3">
      <path d="M 124.967969 258.701969 
L 124.967969 31.397969 
" clip-path="url(#p9c2ad11e05)" style="fill: none; stroke-dasharray: 0.8,1.28; stroke-dashoffset: 0; stroke: #b0b0b0; stroke-opacity: 0.3; stroke-width: 0.8"/>
     </g>
     <g id="line2d_4">
      <g>
       <use xlink:href="#m74deedd757" x="124.967969" y="258.701969" style="fill: #2c3e50; stroke: #2c3e50; stroke-width: 0.8"/>
      </g>
     </g>
     <g id="text_2">
      <!-- −4 -->
      <g style="fill: #2c3e50" transform="translate(117.596875 273.300406) scale(0.1 -0.1)">
       <defs>
        <path id="DejaVuSans-34" d="M 2419 4116 
L 825 1625 
L 2419 1625 
L 2419 4116 
z
M 2253 4666 
L 3047 4666 
L 3047 1625 
L 3713 1625 
L 3713 1100 
L 3047 1100 
L 3047 0 
L 2419 0 
L 2419 1100 
L 313 1100 
L 313 1709 
L 2253 4666 
z
" transform="scale(0.015625)"/>
       </defs>
       <use xlink:href="#DejaVuSans-2212"/>
       <use xlink:href="#DejaVuSans-34" x="83.789062"/>
      </g>
     </g>
    </g>
    <g id="xtick_3">
     <g id="line2d_5">
      <path d="M 171.002969 258.701969 
L 171.002969 31.397969 
" clip-path="url(#p9c2ad11e05)" style="fill: none; stroke-dasharray: 0.8,1.28; stroke-dashoffset: 0; stroke: #b0b0b0; stroke-opacity: 0.3; stroke-width: 0.8"/>
     </g>
     <g id="line2d_6">
      <g>
       <use xlink:href="#m74deedd757" x="171.002969" y="258.701969" style="fill: #2c3e50; stroke: #2c3e50; stroke-width: 0.8"/>
      </g>
     </g>
     <g id="text_3">
      <!-- −2 -->
      <g style="fill: #2c3e50" transform="translate(163.631875 273.300406) scale(0.1 -0.1)">
       <defs>
        <path id="DejaVuSans-32" d="M 1228 531 
L 3431 531 
L 3431 0 
L 469 0 
L 469 531 
Q 828 903 1448 1529 
Q 2069 2156 2228 2338 
Q 2531 2678 2651 2914 
Q 2772 3150 2772 3378 
Q 2772 3750 2511 3984 
Q 2250 4219 1831 4219 
Q 1534 4219 1204 4116 
Q 875 4013 500 3803 
L 500 4441 
Q 881 4594 1212 4672 
Q 1544 4750 1819 4750 
Q 2544 4750 2975 4387 
Q 3406 4025 3406 3419 
Q 3406 3131 3298 2873 
Q 3191 2616 2906 2266 
Q 2828 2175 2409 1742 
Q 1991 1309 1228 531 
z
" transform="scale(0.015625)"/>
       </defs>
       <use xlink:href="#DejaVuSans-2212"/>
       <use xlink:href="#DejaVuSans-32" x="83.789062"/>
      </g>
     </g>
    </g>
    <g id="xtick_4">
     <g id="line2d_7">
      <path d="M 217.037969 258.701969 
L 217.037969 31.397969 
" clip-path="url(#p9c2ad11e05)" style="fill: none; stroke-dasharray: 0.8,1.28; stroke-dashoffset: 0; stroke: #b0b0b0; stroke-opacity: 0.3; stroke-width: 0.8"/>
     </g>
     <g id="line2d_8">
      <g>
       <use xlink:href="#m74deedd757" x="217.037969" y="258.701969" style="fill: #2c3e50; stroke: #2c3e50; stroke-width: 0.8"/>
      </g>
     </g>
     <g id="text_4">
      <!-- 0 -->
      <g style="fill: #2c3e50" transform="translate(213.856719 273.300406) scale(0.1 -0.1)">
       <defs>
        <path id="DejaVuSans-30" d="M 2034 4250 
Q 1547 4250 1301 3770 
Q 1056 3291 1056 2328 
Q 1056 1369 1301 889 
Q 1547 409 2034 409 
Q 2525 409 2770 889 
Q 3016 1369 3016 2328 
Q 3016 3291 2770 3770 
Q 2525 4250 2034 4250 
z
M 2034 4750 
Q 2819 4750 3233 4129 
Q 3647 3509 3647 2328 
Q 3647 1150 3233 529 
Q 2819 -91 2034 -91 
Q 1250 -91 836 529 
Q 422 1150 422 2328 
Q 422 3509 836 4129 
Q 1250 4750 2034 4750 
z
" transform="scale(0.015625)"/>
       </defs>
       <use xlink:href="#DejaVuSans-30"/>
      </g>
     </g>
    </g>
    <g id="xtick_5">
     <g id="line2d_9">
      <path d="M 263.072969 258.701969 
L 263.072969 31.397969 
" clip-path="url(#p9c2ad11e05)" style="fill: none; stroke-dasharray: 0.8,1.28; stroke-dashoffset: 0; stroke: #b0b0b0; stroke-opacity: 0.3; stroke-width: 0.8"/>
     </g>
     <g id="line2d_10">
      <g>
       <use xlink:href="#m74deedd757" x="263.072969" y="258.701969" style="fill: #2c3e50; stroke: #2c3e50; stroke-width: 0.8"/>
      </g>
     </g>
     <g id="text_5">
      <!-- 2 -->
      <g style="fill: #2c3e50" transform="translate(259.891719 273.300406) scale(0.1 -0.1)">
       <use xlink:href="#DejaVuSans-32"/>
      </g>
     </g>
    </g>
    <g id="xtick_6">
     <g id="line2d_11">
      <path d="M 309.107969 258.701969 
L 309.107969 31.397969 
" clip-path="url(#p9c2ad11e05)" style="fill: none; stroke-dasharray: 0.8,1.28; stroke-dashoffset: 0; stroke: #b0b0b0; stroke-opacity: 0.3; stroke-width: 0.8"/>
     </g>
     <g id="line2d_12">
      <g>
       <use xlink:href="#m74deedd757" x="309.107969" y="258.701969" style="fill: #2c3e50; stroke: #2c3e50; stroke-width: 0.8"/>
      </g>
     </g>
     <g id="text_6">
      <!-- 4 -->
      <g style="fill: #2c3e50" transform="translate(305.926719 273.300406) scale(0.1 -0.1)">
       <use xlink:href="#DejaVuSans-34"/>
      </g>
     </g>
    </g>
    <g id="xtick_7">
     <g id="line2d_13">
      <path d="M 355.142969 258.701969 
L 355.142969 31.397969 
" clip-path="url(#p9c2ad11e05)" style="fill: none; stroke-dasharray: 0.8,1.28; stroke-dashoffset: 0; stroke: #b0b0b0; stroke-opacity: 0.3; stroke-width: 0.8"/>
     </g>
     <g id="line2d_14">
      <g>
       <use xlink:href="#m74deedd757" x="355.142969" y="258.701969" style="fill: #2c3e50; stroke: #2c3e50; stroke-width: 0.8"/>
      </g>
     </g>
     <g id="text_7">
      <!-- 6 -->
      <g style="fill: #2c3e50" transform="translate(351.961719 273.300406) scale(0.1 -0.1)">
       <use xlink:href="#DejaVuSans-36"/>
      </g>
     </g>
    </g>
    <g id="xtick_8">
     <g id="line2d_15">
      <path d="M 401.177969 258.701969 
L 401.177969 31.397969 
" clip-path="url(#p9c2ad11e05)" style="fill: none; stroke-dasharray: 0.8,1.28; stroke-dashoffset: 0; stroke: #b0b0b0; stroke-opacity: 0.3; stroke-width: 0.8"/>
     </g>
     <g id="line2d_16">
      <g>
       <use xlink:href="#m74deedd757" x="401.177969" y="258.701969" style="fill: #2c3e50; stroke: #2c3e50; stroke-width: 0.8"/>
      </g>
     </g>
     <g id="text_8">
      <!-- 8 -->
      <g style="fill: #2c3e50" transform="translate(397.996719 273.300406) scale(0.1 -0.1)">
       <defs>
        <path id="DejaVuSans-38" d="M 2034 2216 
Q 1584 2216 1326 1975 
Q 1069 1734 1069 1313 
Q 1069 891 1326 650 
Q 1584 409 2034 409 
Q 2484 409 2743 651 
Q 3003 894 3003 1313 
Q 3003 1734 2745 1975 
Q 2488 2216 2034 2216 
z
M 1403 2484 
Q 997 2584 770 2862 
Q 544 3141 544 3541 
Q 544 4100 942 4425 
Q 1341 4750 2034 4750 
Q 2731 4750 3128 4425 
Q 3525 4100 3525 3541 
Q 3525 3141 3298 2862 
Q 3072 2584 2669 2484 
Q 3125 2378 3379 2068 
Q 3634 1759 3634 1313 
Q 3634 634 3220 271 
Q 2806 -91 2034 -91 
Q 1263 -91 848 271 
Q 434 634 434 1313 
Q 434 1759 690 2068 
Q 947 2378 1403 2484 
z
M 1172 3481 
Q 1172 3119 1398 2916 
Q 1625 2713 2034 2713 
Q 2441 2713 2670 2916 
Q 2900 3119 2900 3481 
Q 2900 3844 2670 4047 
Q 2441 4250 2034 4250 
Q 1625 4250 1398 4047 
Q 1172 3844 1172 3481 
z
" transform="scale(0.015625)"/>
       </defs>
       <use xlink:href="#DejaVuSans-38"/>
      </g>
     </g>
    </g>
    <g id="text_9">
     <!-- x -->
     <g transform="translate(236.346719 288.118297) scale(0.115 -0.115)">
      <defs>
       <path id="DejaVuSans-Bold-78" d="M 1422 1791 
L 159 3500 
L 1344 3500 
L 2059 2463 
L 2784 3500 
L 3969 3500 
L 2706 1797 
L 4031 0 
L 2847 0 
L 2059 1106 
L 1281 0 
L 97 0 
L 1422 1791 
z
" transform="scale(0.015625)"/>
      </defs>
      <use xlink:href="#DejaVuSans-Bold-78"/>
     </g>
    </g>
   </g>
   <g id="matplotlib.axis_2">
    <g id="ytick_1">
     <g id="line2d_17">
      <path d="M 55.915469 258.701969 
L 424.195469 258.701969 
" clip-path="url(#p9c2ad11e05)" style="fill: none; stroke-dasharray: 0.8,1.28; stroke-dashoffset: 0; stroke: #b0b0b0; stroke-opacity: 0.3; stroke-width: 0.8"/>
     </g>
     <g id="line2d_18">
      <defs>
       <path id="m3055fe4730" d="M 0 0 
L -3.5 0 
" style="stroke: #2c3e50; stroke-width: 0.8"/>
      </defs>
      <g>
       <use xlink:href="#m3055fe4730" x="55.915469" y="258.701969" style="fill: #2c3e50; stroke: #2c3e50; stroke-width: 0.8"/>
      </g>
     </g>
     <g id="text_10">
      <!-- 0.00 -->
      <g style="fill: #2c3e50" transform="translate(26.649844 262.501187) scale(0.1 -0.1)">
       <defs>
        <path id="DejaVuSans-2e" d="M 684 794 
L 1344 794 
L 1344 0 
L 684 0 
L 684 794 
z
" transform="scale(0.015625)"/>
       </defs>
       <use xlink:href="#DejaVuSans-30"/>
       <use xlink:href="#DejaVuSans-2e" x="63.623047"/>
       <use xlink:href="#DejaVuSans-30" x="95.410156"/>
       <use xlink:href="#DejaVuSans-30" x="159.033203"/>
      </g>
     </g>
    </g>
    <g id="ytick_2">
     <g id="line2d_19">
      <path d="M 55.915469 209.381242 
L 424.195469 209.381242 
" clip-path="url(#p9c2ad11e05)" style="fill: none; stroke-dasharray: 0.8,1.28; stroke-dashoffset: 0; stroke: #b0b0b0; stroke-opacity: 0.3; stroke-width: 0.8"/>
     </g>
     <g id="line2d_20">
      <g>
       <use xlink:href="#m3055fe4730" x="55.915469" y="209.381242" style="fill: #2c3e50; stroke: #2c3e50; stroke-width: 0.8"/>
      </g>
     </g>
     <g id="text_11">
      <!-- 0.05 -->
      <g style="fill: #2c3e50" transform="translate(26.649844 213.18046) scale(0.1 -0.1)">
       <defs>
        <path id="DejaVuSans-35" d="M 691 4666 
L 3169 4666 
L 3169 4134 
L 1269 4134 
L 1269 2991 
Q 1406 3038 1543 3061 
Q 1681 3084 1819 3084 
Q 2600 3084 3056 2656 
Q 3513 2228 3513 1497 
Q 3513 744 3044 326 
Q 2575 -91 1722 -91 
Q 1428 -91 1123 -41 
Q 819 9 494 109 
L 494 744 
Q 775 591 1075 516 
Q 1375 441 1709 441 
Q 2250 441 2565 725 
Q 2881 1009 2881 1497 
Q 2881 1984 2565 2268 
Q 2250 2553 1709 2553 
Q 1456 2553 1204 2497 
Q 953 2441 691 2322 
L 691 4666 
z
" transform="scale(0.015625)"/>
       </defs>
       <use xlink:href="#DejaVuSans-30"/>
       <use xlink:href="#DejaVuSans-2e" x="63.623047"/>
       <use xlink:href="#DejaVuSans-30" x="95.410156"/>
       <use xlink:href="#DejaVuSans-35" x="159.033203"/>
      </g>
     </g>
    </g>
    <g id="ytick_3">
     <g id="line2d_21">
      <path d="M 55.915469 160.060514 
L 424.195469 160.060514 
" clip-path="url(#p9c2ad11e05)" style="fill: none; stroke-dasharray: 0.8,1.28; stroke-dashoffset: 0; stroke: #b0b0b0; stroke-opacity: 0.3; stroke-width: 0.8"/>
     </g>
     <g id="line2d_22">
      <g>
       <use xlink:href="#m3055fe4730" x="55.915469" y="160.060514" style="fill: #2c3e50; stroke: #2c3e50; stroke-width: 0.8"/>
      </g>
     </g>
     <g id="text_12">
      <!-- 0.10 -->
      <g style="fill: #2c3e50" transform="translate(26.649844 163.859733) scale(0.1 -0.1)">
       <defs>
        <path id="DejaVuSans-31" d="M 794 531 
L 1825 531 
L 1825 4091 
L 703 3866 
L 703 4441 
L 1819 4666 
L 2450 4666 
L 2450 531 
L 3481 531 
L 3481 0 
L 794 0 
L 794 531 
z
" transform="scale(0.015625)"/>
       </defs>
       <use xlink:href="#DejaVuSans-30"/>
       <use xlink:href="#DejaVuSans-2e" x="63.623047"/>
       <use xlink:href="#DejaVuSans-31" x="95.410156"/>
       <use xlink:href="#DejaVuSans-30" x="159.033203"/>
      </g>
     </g>
    </g>
    <g id="ytick_4">
     <g id="line2d_23">
      <path d="M 55.915469 110.739787 
L 424.195469 110.739787 
" clip-path="url(#p9c2ad11e05)" style="fill: none; stroke-dasharray: 0.8,1.28; stroke-dashoffset: 0; stroke: #b0b0b0; stroke-opacity: 0.3; stroke-width: 0.8"/>
     </g>
     <g id="line2d_24">
      <g>
       <use xlink:href="#m3055fe4730" x="55.915469" y="110.739787" style="fill: #2c3e50; stroke: #2c3e50; stroke-width: 0.8"/>
      </g>
     </g>
     <g id="text_13">
      <!-- 0.15 -->
      <g style="fill: #2c3e50" transform="translate(26.649844 114.539006) scale(0.1 -0.1)">
       <use xlink:href="#DejaVuSans-30"/>
       <use xlink:href="#DejaVuSans-2e" x="63.623047"/>
       <use xlink:href="#DejaVuSans-31" x="95.410156"/>
       <use xlink:href="#DejaVuSans-35" x="159.033203"/>
      </g>
     </g>
    </g>
    <g id="ytick_5">
     <g id="line2d_25">
      <path d="M 55.915469 61.41906 
L 424.195469 61.41906 
" clip-path="url(#p9c2ad11e05)" style="fill: none; stroke-dasharray: 0.8,1.28; stroke-dashoffset: 0; stroke: #b0b0b0; stroke-opacity: 0.3; stroke-width: 0.8"/>
     </g>
     <g id="line2d_26">
      <g>
       <use xlink:href="#m3055fe4730" x="55.915469" y="61.41906" style="fill: #2c3e50; stroke: #2c3e50; stroke-width: 0.8"/>
      </g>
     </g>
     <g id="text_14">
      <!-- 0.20 -->
      <g style="fill: #2c3e50" transform="translate(26.649844 65.218279) scale(0.1 -0.1)">
       <use xlink:href="#DejaVuSans-30"/>
       <use xlink:href="#DejaVuSans-2e" x="63.623047"/>
       <use xlink:href="#DejaVuSans-32" x="95.410156"/>
       <use xlink:href="#DejaVuSans-30" x="159.033203"/>
      </g>
     </g>
    </g>
    <g id="text_15">
     <!-- densidad -->
     <g transform="translate(20.258203 174.664266) rotate(-90) scale(0.115 -0.115)">
      <defs>
       <path id="DejaVuSans-Bold-64" d="M 2919 2988 
L 2919 4863 
L 4044 4863 
L 4044 0 
L 2919 0 
L 2919 506 
Q 2688 197 2409 53 
Q 2131 -91 1766 -91 
Q 1119 -91 703 423 
Q 288 938 288 1747 
Q 288 2556 703 3070 
Q 1119 3584 1766 3584 
Q 2128 3584 2408 3439 
Q 2688 3294 2919 2988 
z
M 2181 722 
Q 2541 722 2730 984 
Q 2919 1247 2919 1747 
Q 2919 2247 2730 2509 
Q 2541 2772 2181 2772 
Q 1825 2772 1636 2509 
Q 1447 2247 1447 1747 
Q 1447 1247 1636 984 
Q 1825 722 2181 722 
z
" transform="scale(0.015625)"/>
       <path id="DejaVuSans-Bold-65" d="M 4031 1759 
L 4031 1441 
L 1416 1441 
Q 1456 1047 1700 850 
Q 1944 653 2381 653 
Q 2734 653 3104 758 
Q 3475 863 3866 1075 
L 3866 213 
Q 3469 63 3072 -14 
Q 2675 -91 2278 -91 
Q 1328 -91 801 392 
Q 275 875 275 1747 
Q 275 2603 792 3093 
Q 1309 3584 2216 3584 
Q 3041 3584 3536 3087 
Q 4031 2591 4031 1759 
z
M 2881 2131 
Q 2881 2450 2695 2645 
Q 2509 2841 2209 2841 
Q 1884 2841 1681 2658 
Q 1478 2475 1428 2131 
L 2881 2131 
z
" transform="scale(0.015625)"/>
       <path id="DejaVuSans-Bold-6e" d="M 4056 2131 
L 4056 0 
L 2931 0 
L 2931 347 
L 2931 1631 
Q 2931 2084 2911 2256 
Q 2891 2428 2841 2509 
Q 2775 2619 2662 2680 
Q 2550 2741 2406 2741 
Q 2056 2741 1856 2470 
Q 1656 2200 1656 1722 
L 1656 0 
L 538 0 
L 538 3500 
L 1656 3500 
L 1656 2988 
Q 1909 3294 2193 3439 
Q 2478 3584 2822 3584 
Q 3428 3584 3742 3212 
Q 4056 2841 4056 2131 
z
" transform="scale(0.015625)"/>
       <path id="DejaVuSans-Bold-73" d="M 3272 3391 
L 3272 2541 
Q 2913 2691 2578 2766 
Q 2244 2841 1947 2841 
Q 1628 2841 1473 2761 
Q 1319 2681 1319 2516 
Q 1319 2381 1436 2309 
Q 1553 2238 1856 2203 
L 2053 2175 
Q 2913 2066 3209 1816 
Q 3506 1566 3506 1031 
Q 3506 472 3093 190 
Q 2681 -91 1863 -91 
Q 1516 -91 1145 -36 
Q 775 19 384 128 
L 384 978 
Q 719 816 1070 734 
Q 1422 653 1784 653 
Q 2113 653 2278 743 
Q 2444 834 2444 1013 
Q 2444 1163 2330 1236 
Q 2216 1309 1875 1350 
L 1678 1375 
Q 931 1469 631 1722 
Q 331 1975 331 2491 
Q 331 3047 712 3315 
Q 1094 3584 1881 3584 
Q 2191 3584 2531 3537 
Q 2872 3491 3272 3391 
z
" transform="scale(0.015625)"/>
       <path id="DejaVuSans-Bold-69" d="M 538 3500 
L 1656 3500 
L 1656 0 
L 538 0 
L 538 3500 
z
M 538 4863 
L 1656 4863 
L 1656 3950 
L 538 3950 
L 538 4863 
z
" transform="scale(0.015625)"/>
       <path id="DejaVuSans-Bold-61" d="M 2106 1575 
Q 1756 1575 1579 1456 
Q 1403 1338 1403 1106 
Q 1403 894 1545 773 
Q 1688 653 1941 653 
Q 2256 653 2472 879 
Q 2688 1106 2688 1447 
L 2688 1575 
L 2106 1575 
z
M 3816 1997 
L 3816 0 
L 2688 0 
L 2688 519 
Q 2463 200 2181 54 
Q 1900 -91 1497 -91 
Q 953 -91 614 226 
Q 275 544 275 1050 
Q 275 1666 698 1953 
Q 1122 2241 2028 2241 
L 2688 2241 
L 2688 2328 
Q 2688 2594 2478 2717 
Q 2269 2841 1825 2841 
Q 1466 2841 1156 2769 
Q 847 2697 581 2553 
L 581 3406 
Q 941 3494 1303 3539 
Q 1666 3584 2028 3584 
Q 2975 3584 3395 3211 
Q 3816 2838 3816 1997 
z
" transform="scale(0.015625)"/>
      </defs>
      <use xlink:href="#DejaVuSans-Bold-64"/>
      <use xlink:href="#DejaVuSans-Bold-65" x="71.582031"/>
      <use xlink:href="#DejaVuSans-Bold-6e" x="139.404297"/>
      <use xlink:href="#DejaVuSans-Bold-73" x="210.595703"/>
      <use xlink:href="#DejaVuSans-Bold-69" x="270.117188"/>
      <use xlink:href="#DejaVuSans-Bold-64" x="304.394531"/>
      <use xlink:href="#DejaVuSans-Bold-61" x="375.976562"/>
      <use xlink:href="#DejaVuSans-Bold-64" x="443.457031"/>
     </g>
    </g>
   </g>
   <g id="PolyCollection_1">
    <defs>
     <path id="m4667c801d7" d="M 55.915469 -43.327969 
L 55.915469 -43.330118 
L 56.376395 -43.330334 
L 56.837321 -43.330571 
L 57.298247 -43.330831 
L 57.759173 -43.331115 
L 58.2201 -43.331427 
L 58.681026 -43.331767 
L 59.141952 -43.332139 
L 59.602878 -43.332546 
L 60.063804 -43.332991 
L 60.52473 -43.333477 
L 60.985656 -43.334007 
L 61.446583 -43.334586 
L 61.907509 -43.335217 
L 62.368435 -43.335905 
L 62.829361 -43.336655 
L 63.290287 -43.337472 
L 63.751213 -43.338362 
L 64.21214 -43.339331 
L 64.673066 -43.340384 
L 65.133992 -43.341531 
L 65.594918 -43.342777 
L 66.055844 -43.344131 
L 66.51677 -43.345601 
L 66.977697 -43.347198 
L 67.438623 -43.348932 
L 67.899549 -43.350812 
L 68.360475 -43.352851 
L 68.821401 -43.35506 
L 69.282327 -43.357455 
L 69.743253 -43.360048 
L 70.20418 -43.362855 
L 70.665106 -43.365893 
L 71.126032 -43.369179 
L 71.586958 -43.372731 
L 72.047884 -43.37657 
L 72.50881 -43.380717 
L 72.969737 -43.385195 
L 73.430663 -43.390029 
L 73.891589 -43.395243 
L 74.352515 -43.400867 
L 74.813441 -43.406929 
L 75.274367 -43.41346 
L 75.735294 -43.420495 
L 76.19622 -43.428069 
L 76.657146 -43.436219 
L 77.118072 -43.444986 
L 77.578998 -43.454412 
L 78.039924 -43.464543 
L 78.50085 -43.475426 
L 78.961777 -43.487113 
L 79.422703 -43.499657 
L 79.883629 -43.513116 
L 80.344555 -43.527549 
L 80.805481 -43.543022 
L 81.266407 -43.559601 
L 81.727334 -43.577358 
L 82.18826 -43.596369 
L 82.649186 -43.616713 
L 83.110112 -43.638474 
L 83.571038 -43.661742 
L 84.031964 -43.68661 
L 84.492891 -43.713175 
L 84.953817 -43.741543 
L 85.414743 -43.771822 
L 85.875669 -43.804127 
L 86.336595 -43.838578 
L 86.797521 -43.875302 
L 87.258447 -43.914432 
L 87.719374 -43.956108 
L 88.1803 -44.000476 
L 88.641226 -44.047689 
L 89.102152 -44.097907 
L 89.563078 -44.151299 
L 90.024004 -44.208041 
L 90.484931 -44.268317 
L 90.945857 -44.332317 
L 91.406783 -44.400244 
L 91.867709 -44.472306 
L 92.328635 -44.54872 
L 92.789561 -44.629716 
L 93.250488 -44.715529 
L 93.711414 -44.806405 
L 94.17234 -44.902603 
L 94.633266 -45.004387 
L 95.094192 -45.112034 
L 95.555118 -45.225833 
L 96.016044 -45.346081 
L 96.476971 -45.473088 
L 96.937897 -45.607174 
L 97.398823 -45.74867 
L 97.859749 -45.897919 
L 98.320675 -46.055277 
L 98.781601 -46.221109 
L 99.242528 -46.395795 
L 99.703454 -46.579723 
L 100.16438 -46.773297 
L 100.625306 -46.97693 
L 101.086232 -47.19105 
L 101.547158 -47.416094 
L 102.008085 -47.652514 
L 102.469011 -47.900772 
L 102.929937 -48.161343 
L 103.390863 -48.434715 
L 103.851789 -48.721384 
L 104.312715 -49.021862 
L 104.773641 -49.336671 
L 105.234568 -49.666343 
L 105.695494 -50.011421 
L 106.15642 -50.372462 
L 106.617346 -50.750028 
L 107.078272 -51.144697 
L 107.539198 -51.557051 
L 108.000125 -51.987685 
L 108.461051 -52.437201 
L 108.921977 -52.906209 
L 109.382903 -53.395327 
L 109.843829 -53.905179 
L 110.304755 -54.436398 
L 110.765682 -54.989618 
L 111.226608 -55.565482 
L 111.687534 -56.164634 
L 112.14846 -56.787722 
L 112.609386 -57.435396 
L 113.070312 -58.108308 
L 113.531238 -58.807108 
L 113.992165 -59.532448 
L 114.453091 -60.284976 
L 114.914017 -61.065337 
L 115.374943 -61.874171 
L 115.835869 -62.712114 
L 116.296795 -63.579794 
L 116.757722 -64.47783 
L 117.218648 -65.406833 
L 117.679574 -66.367401 
L 118.1405 -67.360122 
L 118.601426 -68.385566 
L 119.062352 -69.444291 
L 119.523279 -70.536836 
L 119.984205 -71.663722 
L 120.445131 -72.825448 
L 120.906057 -74.022492 
L 121.366983 -75.255308 
L 121.827909 -76.524325 
L 122.288835 -77.829943 
L 122.749762 -79.172535 
L 123.210688 -80.552442 
L 123.671614 -81.969972 
L 124.13254 -83.425401 
L 124.593466 -84.918966 
L 125.054392 -86.450869 
L 125.515319 -88.02127 
L 125.976245 -89.630289 
L 126.437171 -91.278004 
L 126.898097 -92.964445 
L 127.359023 -94.689601 
L 127.819949 -96.453408 
L 128.280876 -98.255756 
L 128.741802 -100.096482 
L 129.202728 -101.975372 
L 129.663654 -103.892157 
L 130.12458 -105.846515 
L 130.585506 -107.838064 
L 131.046432 -109.866369 
L 131.507359 -111.930931 
L 131.968285 -114.031196 
L 132.429211 -116.166546 
L 132.890137 -118.336304 
L 133.351063 -120.539728 
L 133.811989 -122.776015 
L 134.272916 -125.044297 
L 134.733842 -127.343644 
L 135.194768 -129.67306 
L 135.655694 -132.031485 
L 136.11662 -134.417794 
L 136.577546 -136.830799 
L 137.038473 -139.269247 
L 137.499399 -141.73182 
L 137.960325 -144.217138 
L 138.421251 -146.723758 
L 138.882177 -149.250174 
L 139.343103 -151.794819 
L 139.804029 -154.356068 
L 140.264956 -156.932233 
L 140.725882 -159.521573 
L 141.186808 -162.122287 
L 141.647734 -164.732522 
L 142.10866 -167.350371 
L 142.569586 -169.973878 
L 143.030513 -172.601036 
L 143.491439 -175.229793 
L 143.952365 -177.858052 
L 144.413291 -180.483677 
L 144.874217 -183.10449 
L 145.335143 -185.718279 
L 145.79607 -188.322796 
L 146.256996 -190.915766 
L 146.717922 -193.494886 
L 147.178848 -196.057827 
L 147.639774 -198.602242 
L 148.1007 -201.125765 
L 148.561626 -203.626019 
L 149.022553 -206.100616 
L 149.483479 -208.547159 
L 149.944405 -210.963253 
L 150.405331 -213.346502 
L 150.866257 -215.694516 
L 151.327183 -218.004914 
L 151.78811 -220.275328 
L 152.249036 -222.503407 
L 152.709962 -224.686824 
L 153.170888 -226.823273 
L 153.631814 -228.91048 
L 154.09274 -230.946205 
L 154.553666 -232.928243 
L 155.014593 -234.854433 
L 155.475519 -236.722656 
L 155.936445 -238.530845 
L 156.397371 -240.276986 
L 156.858297 -241.959119 
L 157.319223 -243.575347 
L 157.78015 -245.123836 
L 158.241076 -246.602819 
L 158.702002 -248.010601 
L 159.162928 -249.345561 
L 159.623854 -250.606154 
L 160.08478 -251.790916 
L 160.545707 -252.898466 
L 161.006633 -253.927509 
L 161.467559 -254.876838 
L 161.928485 -255.745338 
L 162.389411 -256.531985 
L 162.850337 -257.235851 
L 163.311263 -257.856105 
L 163.77219 -258.392015 
L 164.233116 -258.842948 
L 164.694042 -259.208373 
L 165.154968 -259.48786 
L 165.615894 -259.681086 
L 166.07682 -259.787828 
L 166.537747 -259.807969 
L 166.998673 -259.741497 
L 167.459599 -259.588504 
L 167.920525 -259.349188 
L 168.381451 -259.02385 
L 168.842377 -258.612895 
L 169.303304 -258.116831 
L 169.76423 -257.536269 
L 170.225156 -256.871919 
L 170.686082 -256.124592 
L 171.147008 -255.295196 
L 171.607934 -254.384735 
L 172.06886 -253.394307 
L 172.529787 -252.325104 
L 172.990713 -251.178406 
L 173.451639 -249.955579 
L 173.912565 -248.658078 
L 174.373491 -247.287435 
L 174.834417 -245.845265 
L 175.295344 -244.333256 
L 175.75627 -242.753172 
L 176.217196 -241.106843 
L 176.678122 -239.396168 
L 177.139048 -237.623108 
L 177.599974 -235.78968 
L 178.060901 -233.897962 
L 178.521827 -231.950078 
L 178.982753 -229.948204 
L 179.443679 -227.894556 
L 179.904605 -225.791395 
L 180.365531 -223.641012 
L 180.826457 -221.445736 
L 181.287384 -219.20792 
L 181.74831 -216.929942 
L 182.209236 -214.614201 
L 182.670162 -212.263111 
L 183.131088 -209.879101 
L 183.592014 -207.464603 
L 184.052941 -205.022058 
L 184.513867 -202.553907 
L 184.974793 -200.062585 
L 185.435719 -197.550524 
L 185.896645 -195.020141 
L 186.357571 -192.473844 
L 186.818498 -189.91402 
L 187.279424 -187.343036 
L 187.74035 -184.763235 
L 188.201276 -182.176934 
L 188.662202 -179.586418 
L 189.123128 -176.993939 
L 189.584054 -174.401716 
L 190.044981 -171.811925 
L 190.505907 -169.226705 
L 190.966833 -166.648149 
L 191.427759 -164.078304 
L 191.888685 -161.519172 
L 192.349611 -158.972703 
L 192.810538 -156.440797 
L 193.271464 -153.925298 
L 193.73239 -151.427999 
L 194.193316 -148.950635 
L 194.654242 -146.494883 
L 195.115168 -144.062364 
L 195.576095 -141.654636 
L 196.037021 -139.273202 
L 196.497947 -136.919499 
L 196.958873 -134.594906 
L 197.419799 -132.300741 
L 197.880725 -130.038257 
L 198.341651 -127.808647 
L 198.802578 -125.613043 
L 199.263504 -123.452514 
L 199.72443 -121.328068 
L 200.185356 -119.240651 
L 200.646282 -117.19115 
L 201.107208 -115.180391 
L 201.568135 -113.20914 
L 202.029061 -111.278107 
L 202.489987 -109.387943 
L 202.950913 -107.539242 
L 203.411839 -105.732543 
L 203.872765 -103.968331 
L 204.333692 -102.247038 
L 204.794618 -100.569044 
L 205.255544 -98.934679 
L 205.71647 -97.344223 
L 206.177396 -95.79791 
L 206.638322 -94.295925 
L 207.099248 -92.838412 
L 207.560175 -91.425471 
L 208.021101 -90.05716 
L 208.482027 -88.733497 
L 208.942953 -87.454462 
L 209.403879 -86.220001 
L 209.864805 -85.030021 
L 210.325732 -83.884401 
L 210.786658 -82.782984 
L 211.247584 -81.725586 
L 211.70851 -80.711994 
L 212.169436 -79.741968 
L 212.630362 -78.815245 
L 213.091289 -77.931538 
L 213.552215 -77.090536 
L 214.013141 -76.291912 
L 214.474067 -75.535318 
L 214.934993 -74.820388 
L 215.395919 -74.146742 
L 215.856845 -73.513986 
L 216.317772 -72.921712 
L 216.778698 -72.369501 
L 217.239624 -71.856924 
L 217.70055 -71.383541 
L 218.161476 -70.948907 
L 218.622402 -70.552568 
L 219.083329 -70.194066 
L 219.544255 -69.872936 
L 220.005181 -69.588711 
L 220.466107 -69.340921 
L 220.927033 -69.129094 
L 221.387959 -68.952757 
L 221.848886 -68.811436 
L 222.309812 -68.704657 
L 222.770738 -68.631949 
L 223.231664 -68.592839 
L 223.69259 -68.58686 
L 224.153516 -68.613545 
L 224.614442 -68.67243 
L 225.075369 -68.763056 
L 225.536295 -68.884966 
L 225.997221 -69.037708 
L 226.458147 -69.220833 
L 226.919073 -69.433898 
L 227.379999 -69.676463 
L 227.840926 -69.948093 
L 228.301852 -70.248359 
L 228.762778 -70.576835 
L 229.223704 -70.933099 
L 229.68463 -71.316737 
L 230.145556 -71.727335 
L 230.606483 -72.164488 
L 231.067409 -72.627791 
L 231.528335 -73.116845 
L 231.989261 -73.631256 
L 232.450187 -74.17063 
L 232.911113 -74.73458 
L 233.372039 -75.32272 
L 233.832966 -75.934667 
L 234.293892 -76.57004 
L 234.754818 -77.228461 
L 235.215744 -77.909552 
L 235.67667 -78.612939 
L 236.137596 -79.338245 
L 236.598523 -80.085096 
L 237.059449 -80.853118 
L 237.520375 -81.641936 
L 237.981301 -82.451174 
L 238.442227 -83.280455 
L 238.903153 -84.129401 
L 239.36408 -84.997632 
L 239.825006 -85.884763 
L 240.285932 -86.790411 
L 240.746858 -87.714184 
L 241.207784 -88.65569 
L 241.66871 -89.614533 
L 242.129636 -90.590311 
L 242.590563 -91.582618 
L 243.051489 -92.591041 
L 243.512415 -93.615164 
L 243.973341 -94.654565 
L 244.434267 -95.708813 
L 244.895193 -96.777473 
L 245.35612 -97.860102 
L 245.817046 -98.956251 
L 246.277972 -100.065463 
L 246.738898 -101.187273 
L 247.199824 -102.321208 
L 247.66075 -103.466788 
L 248.121677 -104.623526 
L 248.582603 -105.790922 
L 249.043529 -106.968473 
L 249.504455 -108.155665 
L 249.965381 -109.351974 
L 250.426307 -110.55687 
L 250.887233 -111.769813 
L 251.34816 -112.990253 
L 251.809086 -114.217634 
L 252.270012 -115.45139 
L 252.730938 -116.690945 
L 253.191864 -117.935717 
L 253.65279 -119.185113 
L 254.113717 -120.438534 
L 254.574643 -121.695372 
L 255.035569 -122.955011 
L 255.496495 -124.216826 
L 255.957421 -125.480188 
L 256.418347 -126.744456 
L 256.879274 -128.008986 
L 257.3402 -129.273126 
L 257.801126 -130.536217 
L 258.262052 -131.797595 
L 258.722978 -133.05659 
L 259.183904 -134.312526 
L 259.64483 -135.564725 
L 260.105757 -136.8125 
L 260.566683 -138.055164 
L 261.027609 -139.292025 
L 261.488535 -140.522389 
L 261.949461 -141.745557 
L 262.410387 -142.960831 
L 262.871314 -144.167511 
L 263.33224 -145.364893 
L 263.793166 -146.552278 
L 264.254092 -147.728963 
L 264.715018 -148.894247 
L 265.175944 -150.047432 
L 265.636871 -151.187819 
L 266.097797 -152.314714 
L 266.558723 -153.427426 
L 267.019649 -154.525268 
L 267.480575 -155.607556 
L 267.941501 -156.673613 
L 268.402427 -157.722767 
L 268.863354 -158.754353 
L 269.32428 -159.767712 
L 269.785206 -160.762194 
L 270.246132 -161.737156 
L 270.707058 -162.691966 
L 271.167984 -163.626 
L 271.628911 -164.538645 
L 272.089837 -165.4293 
L 272.550763 -166.297373 
L 273.011689 -167.142286 
L 273.472615 -167.963475 
L 273.933541 -168.760386 
L 274.394467 -169.532483 
L 274.855394 -170.279241 
L 275.31632 -171.000153 
L 275.777246 -171.694726 
L 276.238172 -172.362483 
L 276.699098 -173.002966 
L 277.160024 -173.615733 
L 277.620951 -174.200358 
L 278.081877 -174.756437 
L 278.542803 -175.283581 
L 279.003729 -175.781423 
L 279.464655 -176.249614 
L 279.925581 -176.687825 
L 280.386508 -177.095748 
L 280.847434 -177.473096 
L 281.30836 -177.819603 
L 281.769286 -178.135022 
L 282.230212 -178.419131 
L 282.691138 -178.671727 
L 283.152064 -178.892632 
L 283.612991 -179.081688 
L 284.073917 -179.238761 
L 284.534843 -179.363737 
L 284.995769 -179.456529 
L 285.456695 -179.517069 
L 285.917621 -179.545314 
L 286.378548 -179.541244 
L 286.839474 -179.504861 
L 287.3004 -179.436191 
L 287.761326 -179.335283 
L 288.222252 -179.202208 
L 288.683178 -179.037059 
L 289.144105 -178.839956 
L 289.605031 -178.611037 
L 290.065957 -178.350463 
L 290.526883 -178.058421 
L 290.987809 -177.735116 
L 291.448735 -177.380775 
L 291.909661 -176.99565 
L 292.370588 -176.58001 
L 292.831514 -176.134147 
L 293.29244 -175.658374 
L 293.753366 -175.153023 
L 294.214292 -174.618446 
L 294.675218 -174.055015 
L 295.136145 -173.46312 
L 295.597071 -172.843171 
L 296.057997 -172.195594 
L 296.518923 -171.520834 
L 296.979849 -170.819353 
L 297.440775 -170.091629 
L 297.901702 -169.338156 
L 298.362628 -168.559443 
L 298.823554 -167.756015 
L 299.28448 -166.928411 
L 299.745406 -166.077181 
L 300.206332 -165.202893 
L 300.667258 -164.306123 
L 301.128185 -163.38746 
L 301.589111 -162.447505 
L 302.050037 -161.48687 
L 302.510963 -160.506174 
L 302.971889 -159.506049 
L 303.432815 -158.487131 
L 303.893742 -157.450067 
L 304.354668 -156.395511 
L 304.815594 -155.324123 
L 305.27652 -154.236567 
L 305.737446 -153.133514 
L 306.198372 -152.015639 
L 306.659299 -150.883622 
L 307.120225 -149.738142 
L 307.581151 -148.579885 
L 308.042077 -147.409537 
L 308.503003 -146.227783 
L 308.963929 -145.035311 
L 309.424855 -143.832807 
L 309.885782 -142.620958 
L 310.346708 -141.400448 
L 310.807634 -140.171958 
L 311.26856 -138.936169 
L 311.729486 -137.693755 
L 312.190412 -136.445389 
L 312.651339 -135.191737 
L 313.112265 -133.933462 
L 313.573191 -132.67122 
L 314.034117 -131.405662 
L 314.495043 -130.137429 
L 314.955969 -128.867159 
L 315.416896 -127.595479 
L 315.877822 -126.323009 
L 316.338748 -125.050361 
L 316.799674 -123.778136 
L 317.2606 -122.506927 
L 317.721526 -121.237316 
L 318.182452 -119.969876 
L 318.643379 -118.705166 
L 319.104305 -117.443738 
L 319.565231 -116.186131 
L 320.026157 -114.93287 
L 320.487083 -113.68447 
L 320.948009 -112.441435 
L 321.408936 -111.204254 
L 321.869862 -109.973404 
L 322.330788 -108.749349 
L 322.791714 -107.532539 
L 323.25264 -106.323412 
L 323.713566 -105.122392 
L 324.174493 -103.929888 
L 324.635419 -102.746297 
L 325.096345 -101.572 
L 325.557271 -100.407366 
L 326.018197 -99.252748 
L 326.479123 -98.108486 
L 326.940049 -96.974905 
L 327.400976 -95.852318 
L 327.861902 -94.741021 
L 328.322828 -93.641296 
L 328.783754 -92.553413 
L 329.24468 -91.477626 
L 329.705606 -90.414176 
L 330.166533 -89.363289 
L 330.627459 -88.325178 
L 331.088385 -87.300042 
L 331.549311 -86.288065 
L 332.010237 -85.289421 
L 332.471163 -84.304267 
L 332.93209 -83.332749 
L 333.393016 -82.374999 
L 333.853942 -81.431136 
L 334.314868 -80.501266 
L 334.775794 -79.585486 
L 335.23672 -78.683875 
L 335.697646 -77.796505 
L 336.158573 -76.923435 
L 336.619499 -76.06471 
L 337.080425 -75.220366 
L 337.541351 -74.390428 
L 338.002277 -73.57491 
L 338.463203 -72.773815 
L 338.92413 -71.987136 
L 339.385056 -71.214856 
L 339.845982 -70.456949 
L 340.306908 -69.713379 
L 340.767834 -68.984101 
L 341.22876 -68.269061 
L 341.689687 -67.568196 
L 342.150613 -66.881438 
L 342.611539 -66.208706 
L 343.072465 -65.549915 
L 343.533391 -64.904972 
L 343.994317 -64.273777 
L 344.455243 -63.656222 
L 344.91617 -63.052194 
L 345.377096 -62.461573 
L 345.838022 -61.884234 
L 346.298948 -61.320046 
L 346.759874 -60.768873 
L 347.2208 -60.230574 
L 347.681727 -59.705003 
L 348.142653 -59.192009 
L 348.603579 -58.691438 
L 349.064505 -58.203132 
L 349.525431 -57.726929 
L 349.986357 -57.262664 
L 350.447284 -56.810169 
L 350.90821 -56.369273 
L 351.369136 -55.939803 
L 351.830062 -55.521581 
L 352.290988 -55.114432 
L 352.751914 -54.718174 
L 353.21284 -54.332627 
L 353.673767 -53.957608 
L 354.134693 -53.592933 
L 354.595619 -53.238417 
L 355.056545 -52.893874 
L 355.517471 -52.55912 
L 355.978397 -52.233966 
L 356.439324 -51.918227 
L 356.90025 -51.611716 
L 357.361176 -51.314246 
L 357.822102 -51.025632 
L 358.283028 -50.745688 
L 358.743954 -50.474229 
L 359.204881 -50.21107 
L 359.665807 -49.95603 
L 360.126733 -49.708925 
L 360.587659 -49.469575 
L 361.048585 -49.237801 
L 361.509511 -49.013424 
L 361.970437 -48.796269 
L 362.431364 -48.58616 
L 362.89229 -48.382924 
L 363.353216 -48.186391 
L 363.814142 -47.996391 
L 364.275068 -47.812757 
L 364.735994 -47.635325 
L 365.196921 -47.46393 
L 365.657847 -47.298414 
L 366.118773 -47.138616 
L 366.579699 -46.984383 
L 367.040625 -46.83556 
L 367.501551 -46.691995 
L 367.962478 -46.553542 
L 368.423404 -46.420052 
L 368.88433 -46.291384 
L 369.345256 -46.167397 
L 369.806182 -46.047951 
L 370.267108 -45.932912 
L 370.728034 -45.822147 
L 371.188961 -45.715525 
L 371.649887 -45.612918 
L 372.110813 -45.514202 
L 372.571739 -45.419255 
L 373.032665 -45.327957 
L 373.493591 -45.24019 
L 373.954518 -45.155842 
L 374.415444 -45.074799 
L 374.87637 -44.996954 
L 375.337296 -44.922199 
L 375.798222 -44.850432 
L 376.259148 -44.78155 
L 376.720075 -44.715455 
L 377.181001 -44.652052 
L 377.641927 -44.591246 
L 378.102853 -44.532947 
L 378.563779 -44.477065 
L 379.024705 -44.423515 
L 379.485631 -44.372212 
L 379.946558 -44.323076 
L 380.407484 -44.276027 
L 380.86841 -44.230988 
L 381.329336 -44.187885 
L 381.790262 -44.146645 
L 382.251188 -44.107198 
L 382.712115 -44.069475 
L 383.173041 -44.033411 
L 383.633967 -43.998942 
L 384.094893 -43.966006 
L 384.555819 -43.934543 
L 385.016745 -43.904494 
L 385.477672 -43.875804 
L 385.938598 -43.848418 
L 386.399524 -43.822284 
L 386.86045 -43.797351 
L 387.321376 -43.773569 
L 387.782302 -43.750893 
L 388.243228 -43.729275 
L 388.704155 -43.708671 
L 389.165081 -43.68904 
L 389.626007 -43.67034 
L 390.086933 -43.652531 
L 390.547859 -43.635576 
L 391.008785 -43.619437 
L 391.469712 -43.604079 
L 391.930638 -43.589469 
L 392.391564 -43.575573 
L 392.85249 -43.56236 
L 393.313416 -43.549799 
L 393.774342 -43.537861 
L 394.235268 -43.526519 
L 394.696195 -43.515745 
L 395.157121 -43.505514 
L 395.618047 -43.4958 
L 396.078973 -43.48658 
L 396.539899 -43.477831 
L 397.000825 -43.469531 
L 397.461752 -43.461659 
L 397.922678 -43.454195 
L 398.383604 -43.447119 
L 398.84453 -43.440414 
L 399.305456 -43.43406 
L 399.766382 -43.428042 
L 400.227309 -43.422342 
L 400.688235 -43.416947 
L 401.149161 -43.411839 
L 401.610087 -43.407006 
L 402.071013 -43.402434 
L 402.531939 -43.39811 
L 402.992865 -43.394021 
L 403.453792 -43.390156 
L 403.914718 -43.386503 
L 404.375644 -43.383052 
L 404.83657 -43.379792 
L 405.297496 -43.376713 
L 405.758422 -43.373806 
L 406.219349 -43.371063 
L 406.680275 -43.368474 
L 407.141201 -43.366031 
L 407.602127 -43.363727 
L 408.063053 -43.361555 
L 408.523979 -43.359507 
L 408.984906 -43.357577 
L 409.445832 -43.355759 
L 409.906758 -43.354046 
L 410.367684 -43.352433 
L 410.82861 -43.350914 
L 411.289536 -43.349484 
L 411.750462 -43.348139 
L 412.211389 -43.346873 
L 412.672315 -43.345683 
L 413.133241 -43.344563 
L 413.594167 -43.343511 
L 414.055093 -43.342522 
L 414.516019 -43.341592 
L 414.976946 -43.340719 
L 415.437872 -43.339899 
L 415.898798 -43.339129 
L 416.359724 -43.338407 
L 416.82065 -43.337729 
L 417.281576 -43.337092 
L 417.742503 -43.336495 
L 418.203429 -43.335936 
L 418.664355 -43.335411 
L 419.125281 -43.334919 
L 419.586207 -43.334458 
L 420.047133 -43.334027 
L 420.508059 -43.333622 
L 420.968986 -43.333244 
L 421.429912 -43.332889 
L 421.890838 -43.332558 
L 422.351764 -43.332247 
L 422.81269 -43.331957 
L 423.273616 -43.331685 
L 423.734543 -43.331432 
L 424.195469 -43.331194 
L 424.195469 -43.327969 
L 424.195469 -43.327969 
L 423.734543 -43.327969 
L 423.273616 -43.327969 
L 422.81269 -43.327969 
L 422.351764 -43.327969 
L 421.890838 -43.327969 
L 421.429912 -43.327969 
L 420.968986 -43.327969 
L 420.508059 -43.327969 
L 420.047133 -43.327969 
L 419.586207 -43.327969 
L 419.125281 -43.327969 
L 418.664355 -43.327969 
L 418.203429 -43.327969 
L 417.742503 -43.327969 
L 417.281576 -43.327969 
L 416.82065 -43.327969 
L 416.359724 -43.327969 
L 415.898798 -43.327969 
L 415.437872 -43.327969 
L 414.976946 -43.327969 
L 414.516019 -43.327969 
L 414.055093 -43.327969 
L 413.594167 -43.327969 
L 413.133241 -43.327969 
L 412.672315 -43.327969 
L 412.211389 -43.327969 
L 411.750462 -43.327969 
L 411.289536 -43.327969 
L 410.82861 -43.327969 
L 410.367684 -43.327969 
L 409.906758 -43.327969 
L 409.445832 -43.327969 
L 408.984906 -43.327969 
L 408.523979 -43.327969 
L 408.063053 -43.327969 
L 407.602127 -43.327969 
L 407.141201 -43.327969 
L 406.680275 -43.327969 
L 406.219349 -43.327969 
L 405.758422 -43.327969 
L 405.297496 -43.327969 
L 404.83657 -43.327969 
L 404.375644 -43.327969 
L 403.914718 -43.327969 
L 403.453792 -43.327969 
L 402.992865 -43.327969 
L 402.531939 -43.327969 
L 402.071013 -43.327969 
L 401.610087 -43.327969 
L 401.149161 -43.327969 
L 400.688235 -43.327969 
L 400.227309 -43.327969 
L 399.766382 -43.327969 
L 399.305456 -43.327969 
L 398.84453 -43.327969 
L 398.383604 -43.327969 
L 397.922678 -43.327969 
L 397.461752 -43.327969 
L 397.000825 -43.327969 
L 396.539899 -43.327969 
L 396.078973 -43.327969 
L 395.618047 -43.327969 
L 395.157121 -43.327969 
L 394.696195 -43.327969 
L 394.235268 -43.327969 
L 393.774342 -43.327969 
L 393.313416 -43.327969 
L 392.85249 -43.327969 
L 392.391564 -43.327969 
L 391.930638 -43.327969 
L 391.469712 -43.327969 
L 391.008785 -43.327969 
L 390.547859 -43.327969 
L 390.086933 -43.327969 
L 389.626007 -43.327969 
L 389.165081 -43.327969 
L 388.704155 -43.327969 
L 388.243228 -43.327969 
L 387.782302 -43.327969 
L 387.321376 -43.327969 
L 386.86045 -43.327969 
L 386.399524 -43.327969 
L 385.938598 -43.327969 
L 385.477672 -43.327969 
L 385.016745 -43.327969 
L 384.555819 -43.327969 
L 384.094893 -43.327969 
L 383.633967 -43.327969 
L 383.173041 -43.327969 
L 382.712115 -43.327969 
L 382.251188 -43.327969 
L 381.790262 -43.327969 
L 381.329336 -43.327969 
L 380.86841 -43.327969 
L 380.407484 -43.327969 
L 379.946558 -43.327969 
L 379.485631 -43.327969 
L 379.024705 -43.327969 
L 378.563779 -43.327969 
L 378.102853 -43.327969 
L 377.641927 -43.327969 
L 377.181001 -43.327969 
L 376.720075 -43.327969 
L 376.259148 -43.327969 
L 375.798222 -43.327969 
L 375.337296 -43.327969 
L 374.87637 -43.327969 
L 374.415444 -43.327969 
L 373.954518 -43.327969 
L 373.493591 -43.327969 
L 373.032665 -43.327969 
L 372.571739 -43.327969 
L 372.110813 -43.327969 
L 371.649887 -43.327969 
L 371.188961 -43.327969 
L 370.728034 -43.327969 
L 370.267108 -43.327969 
L 369.806182 -43.327969 
L 369.345256 -43.327969 
L 368.88433 -43.327969 
L 368.423404 -43.327969 
L 367.962478 -43.327969 
L 367.501551 -43.327969 
L 367.040625 -43.327969 
L 366.579699 -43.327969 
L 366.118773 -43.327969 
L 365.657847 -43.327969 
L 365.196921 -43.327969 
L 364.735994 -43.327969 
L 364.275068 -43.327969 
L 363.814142 -43.327969 
L 363.353216 -43.327969 
L 362.89229 -43.327969 
L 362.431364 -43.327969 
L 361.970437 -43.327969 
L 361.509511 -43.327969 
L 361.048585 -43.327969 
L 360.587659 -43.327969 
L 360.126733 -43.327969 
L 359.665807 -43.327969 
L 359.204881 -43.327969 
L 358.743954 -43.327969 
L 358.283028 -43.327969 
L 357.822102 -43.327969 
L 357.361176 -43.327969 
L 356.90025 -43.327969 
L 356.439324 -43.327969 
L 355.978397 -43.327969 
L 355.517471 -43.327969 
L 355.056545 -43.327969 
L 354.595619 -43.327969 
L 354.134693 -43.327969 
L 353.673767 -43.327969 
L 353.21284 -43.327969 
L 352.751914 -43.327969 
L 352.290988 -43.327969 
L 351.830062 -43.327969 
L 351.369136 -43.327969 
L 350.90821 -43.327969 
L 350.447284 -43.327969 
L 349.986357 -43.327969 
L 349.525431 -43.327969 
L 349.064505 -43.327969 
L 348.603579 -43.327969 
L 348.142653 -43.327969 
L 347.681727 -43.327969 
L 347.2208 -43.327969 
L 346.759874 -43.327969 
L 346.298948 -43.327969 
L 345.838022 -43.327969 
L 345.377096 -43.327969 
L 344.91617 -43.327969 
L 344.455243 -43.327969 
L 343.994317 -43.327969 
L 343.533391 -43.327969 
L 343.072465 -43.327969 
L 342.611539 -43.327969 
L 342.150613 -43.327969 
L 341.689687 -43.327969 
L 341.22876 -43.327969 
L 340.767834 -43.327969 
L 340.306908 -43.327969 
L 339.845982 -43.327969 
L 339.385056 -43.327969 
L 338.92413 -43.327969 
L 338.463203 -43.327969 
L 338.002277 -43.327969 
L 337.541351 -43.327969 
L 337.080425 -43.327969 
L 336.619499 -43.327969 
L 336.158573 -43.327969 
L 335.697646 -43.327969 
L 335.23672 -43.327969 
L 334.775794 -43.327969 
L 334.314868 -43.327969 
L 333.853942 -43.327969 
L 333.393016 -43.327969 
L 332.93209 -43.327969 
L 332.471163 -43.327969 
L 332.010237 -43.327969 
L 331.549311 -43.327969 
L 331.088385 -43.327969 
L 330.627459 -43.327969 
L 330.166533 -43.327969 
L 329.705606 -43.327969 
L 329.24468 -43.327969 
L 328.783754 -43.327969 
L 328.322828 -43.327969 
L 327.861902 -43.327969 
L 327.400976 -43.327969 
L 326.940049 -43.327969 
L 326.479123 -43.327969 
L 326.018197 -43.327969 
L 325.557271 -43.327969 
L 325.096345 -43.327969 
L 324.635419 -43.327969 
L 324.174493 -43.327969 
L 323.713566 -43.327969 
L 323.25264 -43.327969 
L 322.791714 -43.327969 
L 322.330788 -43.327969 
L 321.869862 -43.327969 
L 321.408936 -43.327969 
L 320.948009 -43.327969 
L 320.487083 -43.327969 
L 320.026157 -43.327969 
L 319.565231 -43.327969 
L 319.104305 -43.327969 
L 318.643379 -43.327969 
L 318.182452 -43.327969 
L 317.721526 -43.327969 
L 317.2606 -43.327969 
L 316.799674 -43.327969 
L 316.338748 -43.327969 
L 315.877822 -43.327969 
L 315.416896 -43.327969 
L 314.955969 -43.327969 
L 314.495043 -43.327969 
L 314.034117 -43.327969 
L 313.573191 -43.327969 
L 313.112265 -43.327969 
L 312.651339 -43.327969 
L 312.190412 -43.327969 
L 311.729486 -43.327969 
L 311.26856 -43.327969 
L 310.807634 -43.327969 
L 310.346708 -43.327969 
L 309.885782 -43.327969 
L 309.424855 -43.327969 
L 308.963929 -43.327969 
L 308.503003 -43.327969 
L 308.042077 -43.327969 
L 307.581151 -43.327969 
L 307.120225 -43.327969 
L 306.659299 -43.327969 
L 306.198372 -43.327969 
L 305.737446 -43.327969 
L 305.27652 -43.327969 
L 304.815594 -43.327969 
L 304.354668 -43.327969 
L 303.893742 -43.327969 
L 303.432815 -43.327969 
L 302.971889 -43.327969 
L 302.510963 -43.327969 
L 302.050037 -43.327969 
L 301.589111 -43.327969 
L 301.128185 -43.327969 
L 300.667258 -43.327969 
L 300.206332 -43.327969 
L 299.745406 -43.327969 
L 299.28448 -43.327969 
L 298.823554 -43.327969 
L 298.362628 -43.327969 
L 297.901702 -43.327969 
L 297.440775 -43.327969 
L 296.979849 -43.327969 
L 296.518923 -43.327969 
L 296.057997 -43.327969 
L 295.597071 -43.327969 
L 295.136145 -43.327969 
L 294.675218 -43.327969 
L 294.214292 -43.327969 
L 293.753366 -43.327969 
L 293.29244 -43.327969 
L 292.831514 -43.327969 
L 292.370588 -43.327969 
L 291.909661 -43.327969 
L 291.448735 -43.327969 
L 290.987809 -43.327969 
L 290.526883 -43.327969 
L 290.065957 -43.327969 
L 289.605031 -43.327969 
L 289.144105 -43.327969 
L 288.683178 -43.327969 
L 288.222252 -43.327969 
L 287.761326 -43.327969 
L 287.3004 -43.327969 
L 286.839474 -43.327969 
L 286.378548 -43.327969 
L 285.917621 -43.327969 
L 285.456695 -43.327969 
L 284.995769 -43.327969 
L 284.534843 -43.327969 
L 284.073917 -43.327969 
L 283.612991 -43.327969 
L 283.152064 -43.327969 
L 282.691138 -43.327969 
L 282.230212 -43.327969 
L 281.769286 -43.327969 
L 281.30836 -43.327969 
L 280.847434 -43.327969 
L 280.386508 -43.327969 
L 279.925581 -43.327969 
L 279.464655 -43.327969 
L 279.003729 -43.327969 
L 278.542803 -43.327969 
L 278.081877 -43.327969 
L 277.620951 -43.327969 
L 277.160024 -43.327969 
L 276.699098 -43.327969 
L 276.238172 -43.327969 
L 275.777246 -43.327969 
L 275.31632 -43.327969 
L 274.855394 -43.327969 
L 274.394467 -43.327969 
L 273.933541 -43.327969 
L 273.472615 -43.327969 
L 273.011689 -43.327969 
L 272.550763 -43.327969 
L 272.089837 -43.327969 
L 271.628911 -43.327969 
L 271.167984 -43.327969 
L 270.707058 -43.327969 
L 270.246132 -43.327969 
L 269.785206 -43.327969 
L 269.32428 -43.327969 
L 268.863354 -43.327969 
L 268.402427 -43.327969 
L 267.941501 -43.327969 
L 267.480575 -43.327969 
L 267.019649 -43.327969 
L 266.558723 -43.327969 
L 266.097797 -43.327969 
L 265.636871 -43.327969 
L 265.175944 -43.327969 
L 264.715018 -43.327969 
L 264.254092 -43.327969 
L 263.793166 -43.327969 
L 263.33224 -43.327969 
L 262.871314 -43.327969 
L 262.410387 -43.327969 
L 261.949461 -43.327969 
L 261.488535 -43.327969 
L 261.027609 -43.327969 
L 260.566683 -43.327969 
L 260.105757 -43.327969 
L 259.64483 -43.327969 
L 259.183904 -43.327969 
L 258.722978 -43.327969 
L 258.262052 -43.327969 
L 257.801126 -43.327969 
L 257.3402 -43.327969 
L 256.879274 -43.327969 
L 256.418347 -43.327969 
L 255.957421 -43.327969 
L 255.496495 -43.327969 
L 255.035569 -43.327969 
L 254.574643 -43.327969 
L 254.113717 -43.327969 
L 253.65279 -43.327969 
L 253.191864 -43.327969 
L 252.730938 -43.327969 
L 252.270012 -43.327969 
L 251.809086 -43.327969 
L 251.34816 -43.327969 
L 250.887233 -43.327969 
L 250.426307 -43.327969 
L 249.965381 -43.327969 
L 249.504455 -43.327969 
L 249.043529 -43.327969 
L 248.582603 -43.327969 
L 248.121677 -43.327969 
L 247.66075 -43.327969 
L 247.199824 -43.327969 
L 246.738898 -43.327969 
L 246.277972 -43.327969 
L 245.817046 -43.327969 
L 245.35612 -43.327969 
L 244.895193 -43.327969 
L 244.434267 -43.327969 
L 243.973341 -43.327969 
L 243.512415 -43.327969 
L 243.051489 -43.327969 
L 242.590563 -43.327969 
L 242.129636 -43.327969 
L 241.66871 -43.327969 
L 241.207784 -43.327969 
L 240.746858 -43.327969 
L 240.285932 -43.327969 
L 239.825006 -43.327969 
L 239.36408 -43.327969 
L 238.903153 -43.327969 
L 238.442227 -43.327969 
L 237.981301 -43.327969 
L 237.520375 -43.327969 
L 237.059449 -43.327969 
L 236.598523 -43.327969 
L 236.137596 -43.327969 
L 235.67667 -43.327969 
L 235.215744 -43.327969 
L 234.754818 -43.327969 
L 234.293892 -43.327969 
L 233.832966 -43.327969 
L 233.372039 -43.327969 
L 232.911113 -43.327969 
L 232.450187 -43.327969 
L 231.989261 -43.327969 
L 231.528335 -43.327969 
L 231.067409 -43.327969 
L 230.606483 -43.327969 
L 230.145556 -43.327969 
L 229.68463 -43.327969 
L 229.223704 -43.327969 
L 228.762778 -43.327969 
L 228.301852 -43.327969 
L 227.840926 -43.327969 
L 227.379999 -43.327969 
L 226.919073 -43.327969 
L 226.458147 -43.327969 
L 225.997221 -43.327969 
L 225.536295 -43.327969 
L 225.075369 -43.327969 
L 224.614442 -43.327969 
L 224.153516 -43.327969 
L 223.69259 -43.327969 
L 223.231664 -43.327969 
L 222.770738 -43.327969 
L 222.309812 -43.327969 
L 221.848886 -43.327969 
L 221.387959 -43.327969 
L 220.927033 -43.327969 
L 220.466107 -43.327969 
L 220.005181 -43.327969 
L 219.544255 -43.327969 
L 219.083329 -43.327969 
L 218.622402 -43.327969 
L 218.161476 -43.327969 
L 217.70055 -43.327969 
L 217.239624 -43.327969 
L 216.778698 -43.327969 
L 216.317772 -43.327969 
L 215.856845 -43.327969 
L 215.395919 -43.327969 
L 214.934993 -43.327969 
L 214.474067 -43.327969 
L 214.013141 -43.327969 
L 213.552215 -43.327969 
L 213.091289 -43.327969 
L 212.630362 -43.327969 
L 212.169436 -43.327969 
L 211.70851 -43.327969 
L 211.247584 -43.327969 
L 210.786658 -43.327969 
L 210.325732 -43.327969 
L 209.864805 -43.327969 
L 209.403879 -43.327969 
L 208.942953 -43.327969 
L 208.482027 -43.327969 
L 208.021101 -43.327969 
L 207.560175 -43.327969 
L 207.099248 -43.327969 
L 206.638322 -43.327969 
L 206.177396 -43.327969 
L 205.71647 -43.327969 
L 205.255544 -43.327969 
L 204.794618 -43.327969 
L 204.333692 -43.327969 
L 203.872765 -43.327969 
L 203.411839 -43.327969 
L 202.950913 -43.327969 
L 202.489987 -43.327969 
L 202.029061 -43.327969 
L 201.568135 -43.327969 
L 201.107208 -43.327969 
L 200.646282 -43.327969 
L 200.185356 -43.327969 
L 199.72443 -43.327969 
L 199.263504 -43.327969 
L 198.802578 -43.327969 
L 198.341651 -43.327969 
L 197.880725 -43.327969 
L 197.419799 -43.327969 
L 196.958873 -43.327969 
L 196.497947 -43.327969 
L 196.037021 -43.327969 
L 195.576095 -43.327969 
L 195.115168 -43.327969 
L 194.654242 -43.327969 
L 194.193316 -43.327969 
L 193.73239 -43.327969 
L 193.271464 -43.327969 
L 192.810538 -43.327969 
L 192.349611 -43.327969 
L 191.888685 -43.327969 
L 191.427759 -43.327969 
L 190.966833 -43.327969 
L 190.505907 -43.327969 
L 190.044981 -43.327969 
L 189.584054 -43.327969 
L 189.123128 -43.327969 
L 188.662202 -43.327969 
L 188.201276 -43.327969 
L 187.74035 -43.327969 
L 187.279424 -43.327969 
L 186.818498 -43.327969 
L 186.357571 -43.327969 
L 185.896645 -43.327969 
L 185.435719 -43.327969 
L 184.974793 -43.327969 
L 184.513867 -43.327969 
L 184.052941 -43.327969 
L 183.592014 -43.327969 
L 183.131088 -43.327969 
L 182.670162 -43.327969 
L 182.209236 -43.327969 
L 181.74831 -43.327969 
L 181.287384 -43.327969 
L 180.826457 -43.327969 
L 180.365531 -43.327969 
L 179.904605 -43.327969 
L 179.443679 -43.327969 
L 178.982753 -43.327969 
L 178.521827 -43.327969 
L 178.060901 -43.327969 
L 177.599974 -43.327969 
L 177.139048 -43.327969 
L 176.678122 -43.327969 
L 176.217196 -43.327969 
L 175.75627 -43.327969 
L 175.295344 -43.327969 
L 174.834417 -43.327969 
L 174.373491 -43.327969 
L 173.912565 -43.327969 
L 173.451639 -43.327969 
L 172.990713 -43.327969 
L 172.529787 -43.327969 
L 172.06886 -43.327969 
L 171.607934 -43.327969 
L 171.147008 -43.327969 
L 170.686082 -43.327969 
L 170.225156 -43.327969 
L 169.76423 -43.327969 
L 169.303304 -43.327969 
L 168.842377 -43.327969 
L 168.381451 -43.327969 
L 167.920525 -43.327969 
L 167.459599 -43.327969 
L 166.998673 -43.327969 
L 166.537747 -43.327969 
L 166.07682 -43.327969 
L 165.615894 -43.327969 
L 165.154968 -43.327969 
L 164.694042 -43.327969 
L 164.233116 -43.327969 
L 163.77219 -43.327969 
L 163.311263 -43.327969 
L 162.850337 -43.327969 
L 162.389411 -43.327969 
L 161.928485 -43.327969 
L 161.467559 -43.327969 
L 161.006633 -43.327969 
L 160.545707 -43.327969 
L 160.08478 -43.327969 
L 159.623854 -43.327969 
L 159.162928 -43.327969 
L 158.702002 -43.327969 
L 158.241076 -43.327969 
L 157.78015 -43.327969 
L 157.319223 -43.327969 
L 156.858297 -43.327969 
L 156.397371 -43.327969 
L 155.936445 -43.327969 
L 155.475519 -43.327969 
L 155.014593 -43.327969 
L 154.553666 -43.327969 
L 154.09274 -43.327969 
L 153.631814 -43.327969 
L 153.170888 -43.327969 
L 152.709962 -43.327969 
L 152.249036 -43.327969 
L 151.78811 -43.327969 
L 151.327183 -43.327969 
L 150.866257 -43.327969 
L 150.405331 -43.327969 
L 149.944405 -43.327969 
L 149.483479 -43.327969 
L 149.022553 -43.327969 
L 148.561626 -43.327969 
L 148.1007 -43.327969 
L 147.639774 -43.327969 
L 147.178848 -43.327969 
L 146.717922 -43.327969 
L 146.256996 -43.327969 
L 145.79607 -43.327969 
L 145.335143 -43.327969 
L 144.874217 -43.327969 
L 144.413291 -43.327969 
L 143.952365 -43.327969 
L 143.491439 -43.327969 
L 143.030513 -43.327969 
L 142.569586 -43.327969 
L 142.10866 -43.327969 
L 141.647734 -43.327969 
L 141.186808 -43.327969 
L 140.725882 -43.327969 
L 140.264956 -43.327969 
L 139.804029 -43.327969 
L 139.343103 -43.327969 
L 138.882177 -43.327969 
L 138.421251 -43.327969 
L 137.960325 -43.327969 
L 137.499399 -43.327969 
L 137.038473 -43.327969 
L 136.577546 -43.327969 
L 136.11662 -43.327969 
L 135.655694 -43.327969 
L 135.194768 -43.327969 
L 134.733842 -43.327969 
L 134.272916 -43.327969 
L 133.811989 -43.327969 
L 133.351063 -43.327969 
L 132.890137 -43.327969 
L 132.429211 -43.327969 
L 131.968285 -43.327969 
L 131.507359 -43.327969 
L 131.046432 -43.327969 
L 130.585506 -43.327969 
L 130.12458 -43.327969 
L 129.663654 -43.327969 
L 129.202728 -43.327969 
L 128.741802 -43.327969 
L 128.280876 -43.327969 
L 127.819949 -43.327969 
L 127.359023 -43.327969 
L 126.898097 -43.327969 
L 126.437171 -43.327969 
L 125.976245 -43.327969 
L 125.515319 -43.327969 
L 125.054392 -43.327969 
L 124.593466 -43.327969 
L 124.13254 -43.327969 
L 123.671614 -43.327969 
L 123.210688 -43.327969 
L 122.749762 -43.327969 
L 122.288835 -43.327969 
L 121.827909 -43.327969 
L 121.366983 -43.327969 
L 120.906057 -43.327969 
L 120.445131 -43.327969 
L 119.984205 -43.327969 
L 119.523279 -43.327969 
L 119.062352 -43.327969 
L 118.601426 -43.327969 
L 118.1405 -43.327969 
L 117.679574 -43.327969 
L 117.218648 -43.327969 
L 116.757722 -43.327969 
L 116.296795 -43.327969 
L 115.835869 -43.327969 
L 115.374943 -43.327969 
L 114.914017 -43.327969 
L 114.453091 -43.327969 
L 113.992165 -43.327969 
L 113.531238 -43.327969 
L 113.070312 -43.327969 
L 112.609386 -43.327969 
L 112.14846 -43.327969 
L 111.687534 -43.327969 
L 111.226608 -43.327969 
L 110.765682 -43.327969 
L 110.304755 -43.327969 
L 109.843829 -43.327969 
L 109.382903 -43.327969 
L 108.921977 -43.327969 
L 108.461051 -43.327969 
L 108.000125 -43.327969 
L 107.539198 -43.327969 
L 107.078272 -43.327969 
L 106.617346 -43.327969 
L 106.15642 -43.327969 
L 105.695494 -43.327969 
L 105.234568 -43.327969 
L 104.773641 -43.327969 
L 104.312715 -43.327969 
L 103.851789 -43.327969 
L 103.390863 -43.327969 
L 102.929937 -43.327969 
L 102.469011 -43.327969 
L 102.008085 -43.327969 
L 101.547158 -43.327969 
L 101.086232 -43.327969 
L 100.625306 -43.327969 
L 100.16438 -43.327969 
L 99.703454 -43.327969 
L 99.242528 -43.327969 
L 98.781601 -43.327969 
L 98.320675 -43.327969 
L 97.859749 -43.327969 
L 97.398823 -43.327969 
L 96.937897 -43.327969 
L 96.476971 -43.327969 
L 96.016044 -43.327969 
L 95.555118 -43.327969 
L 95.094192 -43.327969 
L 94.633266 -43.327969 
L 94.17234 -43.327969 
L 93.711414 -43.327969 
L 93.250488 -43.327969 
L 92.789561 -43.327969 
L 92.328635 -43.327969 
L 91.867709 -43.327969 
L 91.406783 -43.327969 
L 90.945857 -43.327969 
L 90.484931 -43.327969 
L 90.024004 -43.327969 
L 89.563078 -43.327969 
L 89.102152 -43.327969 
L 88.641226 -43.327969 
L 88.1803 -43.327969 
L 87.719374 -43.327969 
L 87.258447 -43.327969 
L 86.797521 -43.327969 
L 86.336595 -43.327969 
L 85.875669 -43.327969 
L 85.414743 -43.327969 
L 84.953817 -43.327969 
L 84.492891 -43.327969 
L 84.031964 -43.327969 
L 83.571038 -43.327969 
L 83.110112 -43.327969 
L 82.649186 -43.327969 
L 82.18826 -43.327969 
L 81.727334 -43.327969 
L 81.266407 -43.327969 
L 80.805481 -43.327969 
L 80.344555 -43.327969 
L 79.883629 -43.327969 
L 79.422703 -43.327969 
L 78.961777 -43.327969 
L 78.50085 -43.327969 
L 78.039924 -43.327969 
L 77.578998 -43.327969 
L 77.118072 -43.327969 
L 76.657146 -43.327969 
L 76.19622 -43.327969 
L 75.735294 -43.327969 
L 75.274367 -43.327969 
L 74.813441 -43.327969 
L 74.352515 -43.327969 
L 73.891589 -43.327969 
L 73.430663 -43.327969 
L 72.969737 -43.327969 
L 72.50881 -43.327969 
L 72.047884 -43.327969 
L 71.586958 -43.327969 
L 71.126032 -43.327969 
L 70.665106 -43.327969 
L 70.20418 -43.327969 
L 69.743253 -43.327969 
L 69.282327 -43.327969 
L 68.821401 -43.327969 
L 68.360475 -43.327969 
L 67.899549 -43.327969 
L 67.438623 -43.327969 
L 66.977697 -43.327969 
L 66.51677 -43.327969 
L 66.055844 -43.327969 
L 65.594918 -43.327969 
L 65.133992 -43.327969 
L 64.673066 -43.327969 
L 64.21214 -43.327969 
L 63.751213 -43.327969 
L 63.290287 -43.327969 
L 62.829361 -43.327969 
L 62.368435 -43.327969 
L 61.907509 -43.327969 
L 61.446583 -43.327969 
L 60.985656 -43.327969 
L 60.52473 -43.327969 
L 60.063804 -43.327969 
L 59.602878 -43.327969 
L 59.141952 -43.327969 
L 58.681026 -43.327969 
L 58.2201 -43.327969 
L 57.759173 -43.327969 
L 57.298247 -43.327969 
L 56.837321 -43.327969 
L 56.376395 -43.327969 
L 55.915469 -43.327969 
z
" style="stroke: #7d3c98; stroke-opacity: 0.12"/>
    </defs>
    <g clip-path="url(#p9c2ad11e05)">
     <use xlink:href="#m4667c801d7" x="0" y="302.029937" style="fill: #7d3c98; fill-opacity: 0.12; stroke: #7d3c98; stroke-opacity: 0.12"/>
    </g>
   </g>
   <g id="patch_3">
    <path d="M 55.915469 258.701969 
L 55.915469 31.397969 
" style="fill: none; stroke: #2c3e50; stroke-width: 1.2; stroke-linejoin: miter; stroke-linecap: square"/>
   </g>
   <g id="patch_4">
    <path d="M 55.915469 258.701969 
L 424.195469 258.701969 
" style="fill: none; stroke: #2c3e50; stroke-width: 1.2; stroke-linejoin: miter; stroke-linecap: square"/>
   </g>
   <g id="line2d_27">
    <path d="M 55.915469 258.69982 
L 77.118072 258.584951 
L 84.031964 258.343328 
L 88.641226 257.982249 
L 92.328635 257.481217 
L 95.555118 256.804105 
L 98.320675 255.974661 
L 100.625306 255.053008 
L 102.929937 253.868595 
L 104.773641 252.693268 
L 106.617346 251.279911 
L 108.461051 249.59274 
L 110.304755 247.593544 
L 112.14846 245.242222 
L 113.992165 242.497498 
L 115.835869 239.317836 
L 117.679574 235.662554 
L 119.523279 231.493126 
L 121.366983 226.774665 
L 123.210688 221.477546 
L 125.054392 215.579139 
L 127.359023 207.340442 
L 129.663654 198.137939 
L 131.968285 187.998978 
L 134.733842 174.686672 
L 137.960325 157.813449 
L 142.10866 134.680844 
L 149.022553 95.933105 
L 151.78811 81.760362 
L 154.09274 71.091836 
L 155.936445 63.509707 
L 157.78015 56.919952 
L 159.162928 52.701244 
L 160.545707 49.151971 
L 161.928485 46.309458 
L 162.850337 44.822321 
L 163.77219 43.669962 
L 164.694042 42.857887 
L 165.615894 42.389989 
L 166.537747 42.268517 
L 167.459599 42.494054 
L 168.381451 43.065516 
L 169.303304 43.98016 
L 170.225156 45.233603 
L 171.147008 46.819863 
L 172.529787 49.80638 
L 173.912565 53.492744 
L 175.295344 57.840278 
L 177.139048 64.586883 
L 178.982753 72.306645 
L 181.287384 83.117446 
L 184.052941 97.414493 
L 187.74035 117.881008 
L 195.576095 161.779055 
L 198.802578 178.350733 
L 201.568135 191.342273 
L 203.872765 201.186605 
L 206.177396 210.082097 
L 208.482027 218.01176 
L 210.325732 223.667458 
L 212.169436 228.729967 
L 214.013141 233.224928 
L 215.856845 237.184272 
L 217.70055 240.644531 
L 219.544255 243.64526 
L 221.387959 246.227631 
L 223.231664 248.433197 
L 225.075369 250.302863 
L 226.919073 251.876049 
L 228.762778 253.190049 
L 231.067409 254.520667 
L 233.372039 255.561703 
L 235.67667 256.367074 
L 238.442227 257.087307 
L 241.66871 257.670932 
L 245.35612 258.099149 
L 249.965381 258.404695 
L 256.418347 258.59868 
L 267.941501 258.689106 
L 320.026157 258.701969 
L 424.195469 258.701969 
L 424.195469 258.701969 
" clip-path="url(#p9c2ad11e05)" style="fill: none; stroke-dasharray: 7.4,3.2; stroke-dashoffset: 0; stroke: #16a085; stroke-width: 2"/>
   </g>
   <g id="line2d_28">
    <path d="M 55.915469 258.701969 
L 172.990713 258.594321 
L 182.670162 258.355008 
L 189.123128 257.987662 
L 194.193316 257.482646 
L 198.341651 256.853323 
L 202.029061 256.068671 
L 205.255544 255.157671 
L 208.021101 254.171859 
L 210.786658 252.961103 
L 213.552215 251.48863 
L 215.856845 250.033648 
L 218.161476 248.346796 
L 220.466107 246.404846 
L 222.770738 244.185083 
L 225.075369 241.665988 
L 227.379999 238.827999 
L 229.68463 235.654359 
L 231.989261 232.132008 
L 234.293892 228.2525 
L 237.059449 223.121992 
L 239.825006 217.480655 
L 242.590563 211.351068 
L 245.817046 203.636375 
L 249.504455 194.193899 
L 254.574643 180.4754 
L 262.871314 157.895603 
L 266.097797 149.733479 
L 268.863354 143.286355 
L 271.167984 138.4108 
L 273.472615 134.070792 
L 275.31632 131.032758 
L 277.160024 128.416233 
L 279.003729 126.24989 
L 280.386508 124.935213 
L 281.769286 123.895674 
L 283.152064 123.137866 
L 284.534843 122.666613 
L 285.917621 122.484926 
L 287.3004 122.593967 
L 288.683178 122.993039 
L 290.065957 123.679591 
L 291.448735 124.649247 
L 292.831514 125.895851 
L 294.214292 127.411535 
L 296.057997 129.834371 
L 297.901702 132.691799 
L 299.745406 135.952767 
L 302.050037 140.543074 
L 304.354668 145.63443 
L 307.120225 152.291797 
L 310.807634 161.85798 
L 316.338748 176.979577 
L 322.791714 194.497398 
L 326.479123 203.921452 
L 329.705606 211.615761 
L 332.93209 218.697188 
L 335.697646 224.233432 
L 338.463203 229.256123 
L 341.22876 233.760877 
L 343.533391 237.124965 
L 345.838022 240.145703 
L 348.142653 242.837929 
L 350.447284 245.219768 
L 352.751914 247.311763 
L 355.056545 249.136063 
L 357.361176 250.715691 
L 360.126733 252.321013 
L 362.89229 253.647013 
L 365.657847 254.731524 
L 368.88433 255.738553 
L 372.110813 256.515735 
L 375.798222 257.179506 
L 379.946558 257.706861 
L 385.016745 258.125443 
L 391.469712 258.425858 
L 400.688235 258.612991 
L 417.742503 258.693442 
L 424.195469 258.698743 
L 424.195469 258.698743 
" clip-path="url(#p9c2ad11e05)" style="fill: none; stroke-dasharray: 7.4,3.2; stroke-dashoffset: 0; stroke: #e67e22; stroke-width: 2"/>
   </g>
   <g id="text_16">
    <!-- Mezcla de dos normales (bimodal) -->
    <g transform="translate(114.535391 21.397969) scale(0.13 -0.13)">
     <defs>
      <path id="DejaVuSans-Bold-4d" d="M 588 4666 
L 2119 4666 
L 3181 2169 
L 4250 4666 
L 5778 4666 
L 5778 0 
L 4641 0 
L 4641 3413 
L 3566 897 
L 2803 897 
L 1728 3413 
L 1728 0 
L 588 0 
L 588 4666 
z
" transform="scale(0.015625)"/>
      <path id="DejaVuSans-Bold-7a" d="M 366 3500 
L 3419 3500 
L 3419 2719 
L 1575 800 
L 3419 800 
L 3419 0 
L 288 0 
L 288 781 
L 2131 2700 
L 366 2700 
L 366 3500 
z
" transform="scale(0.015625)"/>
      <path id="DejaVuSans-Bold-63" d="M 3366 3391 
L 3366 2478 
Q 3138 2634 2908 2709 
Q 2678 2784 2431 2784 
Q 1963 2784 1702 2511 
Q 1441 2238 1441 1747 
Q 1441 1256 1702 982 
Q 1963 709 2431 709 
Q 2694 709 2930 787 
Q 3166 866 3366 1019 
L 3366 103 
Q 3103 6 2833 -42 
Q 2563 -91 2291 -91 
Q 1344 -91 809 395 
Q 275 881 275 1747 
Q 275 2613 809 3098 
Q 1344 3584 2291 3584 
Q 2566 3584 2833 3536 
Q 3100 3488 3366 3391 
z
" transform="scale(0.015625)"/>
      <path id="DejaVuSans-Bold-6c" d="M 538 4863 
L 1656 4863 
L 1656 0 
L 538 0 
L 538 4863 
z
" transform="scale(0.015625)"/>
      <path id="DejaVuSans-Bold-20" transform="scale(0.015625)"/>
      <path id="DejaVuSans-Bold-6f" d="M 2203 2784 
Q 1831 2784 1636 2517 
Q 1441 2250 1441 1747 
Q 1441 1244 1636 976 
Q 1831 709 2203 709 
Q 2569 709 2762 976 
Q 2956 1244 2956 1747 
Q 2956 2250 2762 2517 
Q 2569 2784 2203 2784 
z
M 2203 3584 
Q 3106 3584 3614 3096 
Q 4122 2609 4122 1747 
Q 4122 884 3614 396 
Q 3106 -91 2203 -91 
Q 1297 -91 786 396 
Q 275 884 275 1747 
Q 275 2609 786 3096 
Q 1297 3584 2203 3584 
z
" transform="scale(0.015625)"/>
      <path id="DejaVuSans-Bold-72" d="M 3138 2547 
Q 2991 2616 2845 2648 
Q 2700 2681 2553 2681 
Q 2122 2681 1889 2404 
Q 1656 2128 1656 1613 
L 1656 0 
L 538 0 
L 538 3500 
L 1656 3500 
L 1656 2925 
Q 1872 3269 2151 3426 
Q 2431 3584 2822 3584 
Q 2878 3584 2943 3579 
Q 3009 3575 3134 3559 
L 3138 2547 
z
" transform="scale(0.015625)"/>
      <path id="DejaVuSans-Bold-6d" d="M 3781 2919 
Q 3994 3244 4286 3414 
Q 4578 3584 4928 3584 
Q 5531 3584 5847 3212 
Q 6163 2841 6163 2131 
L 6163 0 
L 5038 0 
L 5038 1825 
Q 5041 1866 5042 1909 
Q 5044 1953 5044 2034 
Q 5044 2406 4934 2573 
Q 4825 2741 4581 2741 
Q 4263 2741 4089 2478 
Q 3916 2216 3909 1719 
L 3909 0 
L 2784 0 
L 2784 1825 
Q 2784 2406 2684 2573 
Q 2584 2741 2328 2741 
Q 2006 2741 1831 2477 
Q 1656 2213 1656 1722 
L 1656 0 
L 531 0 
L 531 3500 
L 1656 3500 
L 1656 2988 
Q 1863 3284 2130 3434 
Q 2397 3584 2719 3584 
Q 3081 3584 3359 3409 
Q 3638 3234 3781 2919 
z
" transform="scale(0.015625)"/>
      <path id="DejaVuSans-Bold-28" d="M 2413 -844 
L 1484 -844 
Q 1006 -72 778 623 
Q 550 1319 550 2003 
Q 550 2688 779 3389 
Q 1009 4091 1484 4856 
L 2413 4856 
Q 2013 4116 1813 3408 
Q 1613 2700 1613 2009 
Q 1613 1319 1811 609 
Q 2009 -100 2413 -844 
z
" transform="scale(0.015625)"/>
      <path id="DejaVuSans-Bold-62" d="M 2400 722 
Q 2759 722 2948 984 
Q 3138 1247 3138 1747 
Q 3138 2247 2948 2509 
Q 2759 2772 2400 2772 
Q 2041 2772 1848 2508 
Q 1656 2244 1656 1747 
Q 1656 1250 1848 986 
Q 2041 722 2400 722 
z
M 1656 2988 
Q 1888 3294 2169 3439 
Q 2450 3584 2816 3584 
Q 3463 3584 3878 3070 
Q 4294 2556 4294 1747 
Q 4294 938 3878 423 
Q 3463 -91 2816 -91 
Q 2450 -91 2169 54 
Q 1888 200 1656 506 
L 1656 0 
L 538 0 
L 538 4863 
L 1656 4863 
L 1656 2988 
z
" transform="scale(0.015625)"/>
      <path id="DejaVuSans-Bold-29" d="M 513 -844 
Q 913 -100 1113 609 
Q 1313 1319 1313 2009 
Q 1313 2700 1113 3408 
Q 913 4116 513 4856 
L 1441 4856 
Q 1916 4091 2145 3389 
Q 2375 2688 2375 2003 
Q 2375 1319 2147 623 
Q 1919 -72 1441 -844 
L 513 -844 
z
" transform="scale(0.015625)"/>
     </defs>
     <use xlink:href="#DejaVuSans-Bold-4d"/>
     <use xlink:href="#DejaVuSans-Bold-65" x="99.511719"/>
     <use xlink:href="#DejaVuSans-Bold-7a" x="167.333984"/>
     <use xlink:href="#DejaVuSans-Bold-63" x="225.537109"/>
     <use xlink:href="#DejaVuSans-Bold-6c" x="284.814453"/>
     <use xlink:href="#DejaVuSans-Bold-61" x="319.091797"/>
     <use xlink:href="#DejaVuSans-Bold-20" x="386.572266"/>
     <use xlink:href="#DejaVuSans-Bold-64" x="421.386719"/>
     <use xlink:href="#DejaVuSans-Bold-65" x="492.96875"/>
     <use xlink:href="#DejaVuSans-Bold-20" x="560.791016"/>
     <use xlink:href="#DejaVuSans-Bold-64" x="595.605469"/>
     <use xlink:href="#DejaVuSans-Bold-6f" x="667.1875"/>
     <use xlink:href="#DejaVuSans-Bold-73" x="735.888672"/>
     <use xlink:href="#DejaVuSans-Bold-20" x="795.410156"/>
     <use xlink:href="#DejaVuSans-Bold-6e" x="830.224609"/>
     <use xlink:href="#DejaVuSans-Bold-6f" x="901.416016"/>
     <use xlink:href="#DejaVuSans-Bold-72" x="970.117188"/>
     <use xlink:href="#DejaVuSans-Bold-6d" x="1019.433594"/>
     <use xlink:href="#DejaVuSans-Bold-61" x="1123.632812"/>
     <use xlink:href="#DejaVuSans-Bold-6c" x="1191.113281"/>
     <use xlink:href="#DejaVuSans-Bold-65" x="1225.390625"/>
     <use xlink:href="#DejaVuSans-Bold-73" x="1293.212891"/>
     <use xlink:href="#DejaVuSans-Bold-20" x="1352.734375"/>
     <use xlink:href="#DejaVuSans-Bold-28" x="1387.548828"/>
     <use xlink:href="#DejaVuSans-Bold-62" x="1433.251953"/>
     <use xlink:href="#DejaVuSans-Bold-69" x="1504.833984"/>
     <use xlink:href="#DejaVuSans-Bold-6d" x="1539.111328"/>
     <use xlink:href="#DejaVuSans-Bold-6f" x="1643.310547"/>
     <use xlink:href="#DejaVuSans-Bold-64" x="1712.011719"/>
     <use xlink:href="#DejaVuSans-Bold-61" x="1783.59375"/>
     <use xlink:href="#DejaVuSans-Bold-6c" x="1851.074219"/>
     <use xlink:href="#DejaVuSans-Bold-29" x="1885.351562"/>
    </g>
   </g>
   <g id="line2d_29">
    <path d="M 55.915469 258.69982 
L 77.118072 258.584951 
L 84.031964 258.343328 
L 88.641226 257.982249 
L 92.328635 257.481217 
L 95.555118 256.804104 
L 98.320675 255.97466 
L 100.625306 255.053007 
L 102.929937 253.868594 
L 104.773641 252.693267 
L 106.617346 251.279909 
L 108.461051 249.592737 
L 110.304755 247.59354 
L 112.14846 245.242216 
L 113.992165 242.497489 
L 115.835869 239.317824 
L 117.679574 235.662536 
L 119.523279 231.493101 
L 121.366983 226.774629 
L 123.210688 221.477496 
L 125.054392 215.579069 
L 127.359023 207.340337 
L 129.663654 198.13778 
L 131.968285 187.998742 
L 134.733842 174.686293 
L 137.960325 157.812799 
L 142.10866 134.679566 
L 149.022553 95.929322 
L 151.78811 81.75461 
L 154.09274 71.083732 
L 155.936445 63.499092 
L 157.78015 56.906102 
L 159.162928 52.684376 
L 160.545707 49.131472 
L 161.928485 46.2846 
L 162.850337 44.794087 
L 163.77219 43.637923 
L 164.694042 42.821565 
L 165.615894 42.348851 
L 166.537747 42.221969 
L 167.459599 42.441434 
L 168.381451 43.006088 
L 169.303304 43.913106 
L 170.225156 45.158018 
L 171.147008 46.734741 
L 172.529787 49.704833 
L 173.912565 53.37186 
L 175.295344 57.696681 
L 177.139048 64.40683 
L 178.982753 72.081734 
L 181.287384 82.822018 
L 184.052941 97.007879 
L 187.74035 117.266703 
L 194.654242 155.535054 
L 197.880725 171.991681 
L 200.646282 184.838788 
L 202.950913 194.490696 
L 205.255544 203.095258 
L 207.099248 209.191525 
L 208.942953 214.575475 
L 210.786658 219.246954 
L 212.630362 223.214692 
L 214.013141 225.738025 
L 215.395919 227.883195 
L 216.778698 229.660436 
L 218.161476 231.08103 
L 219.544255 232.157002 
L 220.927033 232.900843 
L 222.309812 233.32528 
L 223.69259 233.443077 
L 225.075369 233.266881 
L 226.458147 232.809104 
L 227.840926 232.081844 
L 229.223704 231.096838 
L 230.606483 229.86545 
L 232.450187 227.859307 
L 234.293892 225.459897 
L 236.137596 222.691693 
L 238.442227 218.749483 
L 240.746858 214.315754 
L 243.512415 208.414773 
L 246.277972 201.964475 
L 249.504455 193.874273 
L 253.65279 182.844824 
L 264.254092 154.300975 
L 267.480575 146.422381 
L 270.246132 140.292781 
L 272.550763 135.732565 
L 274.394467 132.497455 
L 276.238172 129.667454 
L 278.081877 127.273501 
L 279.464655 125.780324 
L 280.847434 124.556841 
L 282.230212 123.610807 
L 283.612991 122.948249 
L 284.995769 122.573409 
L 286.378548 122.488693 
L 287.761326 122.694655 
L 289.144105 123.189982 
L 290.526883 123.971517 
L 291.909661 125.034288 
L 293.29244 126.371564 
L 294.675218 127.974923 
L 296.518923 130.509103 
L 298.362628 133.470494 
L 300.206332 136.827045 
L 302.510963 141.523763 
L 304.815594 146.705815 
L 307.581151 153.450052 
L 311.26856 163.093769 
L 317.721526 180.792621 
L 323.25264 195.706525 
L 326.940049 205.055032 
L 330.166533 212.666648 
L 332.93209 218.697188 
L 335.697646 224.233432 
L 338.463203 229.256123 
L 341.22876 233.760877 
L 343.533391 237.124965 
L 345.838022 240.145703 
L 348.142653 242.837929 
L 350.447284 245.219768 
L 352.751914 247.311763 
L 355.056545 249.136063 
L 357.361176 250.715691 
L 360.126733 252.321013 
L 362.89229 253.647013 
L 365.657847 254.731524 
L 368.88433 255.738553 
L 372.110813 256.515735 
L 375.798222 257.179506 
L 379.946558 257.706861 
L 385.016745 258.125443 
L 391.469712 258.425858 
L 400.688235 258.612991 
L 417.742503 258.693442 
L 424.195469 258.698743 
L 424.195469 258.698743 
" clip-path="url(#p9c2ad11e05)" style="fill: none; stroke: #7d3c98; stroke-width: 2.8; stroke-linecap: square"/>
   </g>
   <g id="legend_1">
    <g id="patch_5">
     <path d="M 267.445469 80.872187 
L 417.545469 80.872187 
Q 419.445469 80.872187 419.445469 78.972187 
L 419.445469 38.047969 
Q 419.445469 36.147969 417.545469 36.147969 
L 267.445469 36.147969 
Q 265.545469 36.147969 265.545469 38.047969 
L 265.545469 78.972187 
Q 265.545469 80.872187 267.445469 80.872187 
z
" style="fill: #ffffff; opacity: 0.92; stroke: #cccccc; stroke-linejoin: miter"/>
    </g>
    <g id="line2d_30">
     <path d="M 269.345469 43.842969 
L 278.845469 43.842969 
L 288.345469 43.842969 
" style="fill: none; stroke-dasharray: 7.4,3.2; stroke-dashoffset: 0; stroke: #16a085; stroke-width: 2"/>
    </g>
    <g id="text_17">
     <!-- componente 1 ($w=0.55$) -->
     <g transform="translate(295.945469 47.167969) scale(0.095 -0.095)">
      <defs>
       <path id="DejaVuSans-63" d="M 3122 3366 
L 3122 2828 
Q 2878 2963 2633 3030 
Q 2388 3097 2138 3097 
Q 1578 3097 1268 2742 
Q 959 2388 959 1747 
Q 959 1106 1268 751 
Q 1578 397 2138 397 
Q 2388 397 2633 464 
Q 2878 531 3122 666 
L 3122 134 
Q 2881 22 2623 -34 
Q 2366 -91 2075 -91 
Q 1284 -91 818 406 
Q 353 903 353 1747 
Q 353 2603 823 3093 
Q 1294 3584 2113 3584 
Q 2378 3584 2631 3529 
Q 2884 3475 3122 3366 
z
" transform="scale(0.015625)"/>
       <path id="DejaVuSans-6f" d="M 1959 3097 
Q 1497 3097 1228 2736 
Q 959 2375 959 1747 
Q 959 1119 1226 758 
Q 1494 397 1959 397 
Q 2419 397 2687 759 
Q 2956 1122 2956 1747 
Q 2956 2369 2687 2733 
Q 2419 3097 1959 3097 
z
M 1959 3584 
Q 2709 3584 3137 3096 
Q 3566 2609 3566 1747 
Q 3566 888 3137 398 
Q 2709 -91 1959 -91 
Q 1206 -91 779 398 
Q 353 888 353 1747 
Q 353 2609 779 3096 
Q 1206 3584 1959 3584 
z
" transform="scale(0.015625)"/>
       <path id="DejaVuSans-6d" d="M 3328 2828 
Q 3544 3216 3844 3400 
Q 4144 3584 4550 3584 
Q 5097 3584 5394 3201 
Q 5691 2819 5691 2113 
L 5691 0 
L 5113 0 
L 5113 2094 
Q 5113 2597 4934 2840 
Q 4756 3084 4391 3084 
Q 3944 3084 3684 2787 
Q 3425 2491 3425 1978 
L 3425 0 
L 2847 0 
L 2847 2094 
Q 2847 2600 2669 2842 
Q 2491 3084 2119 3084 
Q 1678 3084 1418 2786 
Q 1159 2488 1159 1978 
L 1159 0 
L 581 0 
L 581 3500 
L 1159 3500 
L 1159 2956 
Q 1356 3278 1631 3431 
Q 1906 3584 2284 3584 
Q 2666 3584 2933 3390 
Q 3200 3197 3328 2828 
z
" transform="scale(0.015625)"/>
       <path id="DejaVuSans-70" d="M 1159 525 
L 1159 -1331 
L 581 -1331 
L 581 3500 
L 1159 3500 
L 1159 2969 
Q 1341 3281 1617 3432 
Q 1894 3584 2278 3584 
Q 2916 3584 3314 3078 
Q 3713 2572 3713 1747 
Q 3713 922 3314 415 
Q 2916 -91 2278 -91 
Q 1894 -91 1617 61 
Q 1341 213 1159 525 
z
M 3116 1747 
Q 3116 2381 2855 2742 
Q 2594 3103 2138 3103 
Q 1681 3103 1420 2742 
Q 1159 2381 1159 1747 
Q 1159 1113 1420 752 
Q 1681 391 2138 391 
Q 2594 391 2855 752 
Q 3116 1113 3116 1747 
z
" transform="scale(0.015625)"/>
       <path id="DejaVuSans-6e" d="M 3513 2113 
L 3513 0 
L 2938 0 
L 2938 2094 
Q 2938 2591 2744 2837 
Q 2550 3084 2163 3084 
Q 1697 3084 1428 2787 
Q 1159 2491 1159 1978 
L 1159 0 
L 581 0 
L 581 3500 
L 1159 3500 
L 1159 2956 
Q 1366 3272 1645 3428 
Q 1925 3584 2291 3584 
Q 2894 3584 3203 3211 
Q 3513 2838 3513 2113 
z
" transform="scale(0.015625)"/>
       <path id="DejaVuSans-65" d="M 3597 1894 
L 3597 1613 
L 953 1613 
Q 991 1019 1311 708 
Q 1631 397 2203 397 
Q 2534 397 2845 478 
Q 3156 559 3463 722 
L 3463 178 
Q 3153 47 2828 -22 
Q 2503 -91 2169 -91 
Q 1331 -91 842 396 
Q 353 884 353 1716 
Q 353 2575 817 3079 
Q 1281 3584 2069 3584 
Q 2775 3584 3186 3129 
Q 3597 2675 3597 1894 
z
M 3022 2063 
Q 3016 2534 2758 2815 
Q 2500 3097 2075 3097 
Q 1594 3097 1305 2825 
Q 1016 2553 972 2059 
L 3022 2063 
z
" transform="scale(0.015625)"/>
       <path id="DejaVuSans-74" d="M 1172 4494 
L 1172 3500 
L 2356 3500 
L 2356 3053 
L 1172 3053 
L 1172 1153 
Q 1172 725 1289 603 
Q 1406 481 1766 481 
L 2356 481 
L 2356 0 
L 1766 0 
Q 1100 0 847 248 
Q 594 497 594 1153 
L 594 3053 
L 172 3053 
L 172 3500 
L 594 3500 
L 594 4494 
L 1172 4494 
z
" transform="scale(0.015625)"/>
       <path id="DejaVuSans-20" transform="scale(0.015625)"/>
       <path id="DejaVuSans-28" d="M 1984 4856 
Q 1566 4138 1362 3434 
Q 1159 2731 1159 2009 
Q 1159 1288 1364 580 
Q 1569 -128 1984 -844 
L 1484 -844 
Q 1016 -109 783 600 
Q 550 1309 550 2009 
Q 550 2706 781 3412 
Q 1013 4119 1484 4856 
L 1984 4856 
z
" transform="scale(0.015625)"/>
       <path id="DejaVuSans-Oblique-77" d="M 544 3500 
L 1113 3500 
L 1259 684 
L 2566 3500 
L 3231 3500 
L 3425 684 
L 4666 3500 
L 5241 3500 
L 3641 0 
L 2969 0 
L 2797 2900 
L 1459 0 
L 781 0 
L 544 3500 
z
" transform="scale(0.015625)"/>
       <path id="DejaVuSans-3d" d="M 678 2906 
L 4684 2906 
L 4684 2381 
L 678 2381 
L 678 2906 
z
M 678 1631 
L 4684 1631 
L 4684 1100 
L 678 1100 
L 678 1631 
z
" transform="scale(0.015625)"/>
       <path id="DejaVuSans-29" d="M 513 4856 
L 1013 4856 
Q 1481 4119 1714 3412 
Q 1947 2706 1947 2009 
Q 1947 1309 1714 600 
Q 1481 -109 1013 -844 
L 513 -844 
Q 928 -128 1133 580 
Q 1338 1288 1338 2009 
Q 1338 2731 1133 3434 
Q 928 4138 513 4856 
z
" transform="scale(0.015625)"/>
      </defs>
      <use xlink:href="#DejaVuSans-63" transform="translate(0 0.125)"/>
      <use xlink:href="#DejaVuSans-6f" transform="translate(54.980469 0.125)"/>
      <use xlink:href="#DejaVuSans-6d" transform="translate(116.162109 0.125)"/>
      <use xlink:href="#DejaVuSans-70" transform="translate(213.574219 0.125)"/>
      <use xlink:href="#DejaVuSans-6f" transform="translate(277.050781 0.125)"/>
      <use xlink:href="#DejaVuSans-6e" transform="translate(338.232422 0.125)"/>
      <use xlink:href="#DejaVuSans-65" transform="translate(401.611328 0.125)"/>
      <use xlink:href="#DejaVuSans-6e" transform="translate(463.134766 0.125)"/>
      <use xlink:href="#DejaVuSans-74" transform="translate(526.513672 0.125)"/>
      <use xlink:href="#DejaVuSans-65" transform="translate(565.722656 0.125)"/>
      <use xlink:href="#DejaVuSans-20" transform="translate(627.246094 0.125)"/>
      <use xlink:href="#DejaVuSans-31" transform="translate(659.033203 0.125)"/>
      <use xlink:href="#DejaVuSans-20" transform="translate(722.65625 0.125)"/>
      <use xlink:href="#DejaVuSans-28" transform="translate(754.443359 0.125)"/>
      <use xlink:href="#DejaVuSans-Oblique-77" transform="translate(793.457031 0.125)"/>
      <use xlink:href="#DejaVuSans-3d" transform="translate(894.726562 0.125)"/>
      <use xlink:href="#DejaVuSans-30" transform="translate(997.998047 0.125)"/>
      <use xlink:href="#DejaVuSans-2e" transform="translate(1061.621094 0.125)"/>
      <use xlink:href="#DejaVuSans-35" transform="translate(1093.408203 0.125)"/>
      <use xlink:href="#DejaVuSans-35" transform="translate(1157.03125 0.125)"/>
      <use xlink:href="#DejaVuSans-29" transform="translate(1220.654297 0.125)"/>
     </g>
    </g>
    <g id="line2d_31">
     <path d="M 269.345469 57.807969 
L 278.845469 57.807969 
L 288.345469 57.807969 
" style="fill: none; stroke-dasharray: 7.4,3.2; stroke-dashoffset: 0; stroke: #e67e22; stroke-width: 2"/>
    </g>
    <g id="text_18">
     <!-- componente 2 ($w=0.45$) -->
     <g transform="translate(295.945469 61.132969) scale(0.095 -0.095)">
      <use xlink:href="#DejaVuSans-63" transform="translate(0 0.125)"/>
      <use xlink:href="#DejaVuSans-6f" transform="translate(54.980469 0.125)"/>
      <use xlink:href="#DejaVuSans-6d" transform="translate(116.162109 0.125)"/>
      <use xlink:href="#DejaVuSans-70" transform="translate(213.574219 0.125)"/>
      <use xlink:href="#DejaVuSans-6f" transform="translate(277.050781 0.125)"/>
      <use xlink:href="#DejaVuSans-6e" transform="translate(338.232422 0.125)"/>
      <use xlink:href="#DejaVuSans-65" transform="translate(401.611328 0.125)"/>
      <use xlink:href="#DejaVuSans-6e" transform="translate(463.134766 0.125)"/>
      <use xlink:href="#DejaVuSans-74" transform="translate(526.513672 0.125)"/>
      <use xlink:href="#DejaVuSans-65" transform="translate(565.722656 0.125)"/>
      <use xlink:href="#DejaVuSans-20" transform="translate(627.246094 0.125)"/>
      <use xlink:href="#DejaVuSans-32" transform="translate(659.033203 0.125)"/>
      <use xlink:href="#DejaVuSans-20" transform="translate(722.65625 0.125)"/>
      <use xlink:href="#DejaVuSans-28" transform="translate(754.443359 0.125)"/>
      <use xlink:href="#DejaVuSans-Oblique-77" transform="translate(793.457031 0.125)"/>
      <use xlink:href="#DejaVuSans-3d" transform="translate(894.726562 0.125)"/>
      <use xlink:href="#DejaVuSans-30" transform="translate(997.998047 0.125)"/>
      <use xlink:href="#DejaVuSans-2e" transform="translate(1061.621094 0.125)"/>
      <use xlink:href="#DejaVuSans-34" transform="translate(1093.408203 0.125)"/>
      <use xlink:href="#DejaVuSans-35" transform="translate(1157.03125 0.125)"/>
      <use xlink:href="#DejaVuSans-29" transform="translate(1220.654297 0.125)"/>
     </g>
    </g>
    <g id="line2d_32">
     <path d="M 269.345469 71.771484 
L 278.845469 71.771484 
L 288.345469 71.771484 
" style="fill: none; stroke: #7d3c98; stroke-width: 2.8; stroke-linecap: square"/>
    </g>
    <g id="text_19">
     <!-- mezcla -->
     <g transform="translate(295.945469 75.096484) scale(0.095 -0.095)">
      <defs>
       <path id="DejaVuSans-7a" d="M 353 3500 
L 3084 3500 
L 3084 2975 
L 922 459 
L 3084 459 
L 3084 0 
L 275 0 
L 275 525 
L 2438 3041 
L 353 3041 
L 353 3500 
z
" transform="scale(0.015625)"/>
       <path id="DejaVuSans-6c" d="M 603 4863 
L 1178 4863 
L 1178 0 
L 603 0 
L 603 4863 
z
" transform="scale(0.015625)"/>
       <path id="DejaVuSans-61" d="M 2194 1759 
Q 1497 1759 1228 1600 
Q 959 1441 959 1056 
Q 959 750 1161 570 
Q 1363 391 1709 391 
Q 2188 391 2477 730 
Q 2766 1069 2766 1631 
L 2766 1759 
L 2194 1759 
z
M 3341 1997 
L 3341 0 
L 2766 0 
L 2766 531 
Q 2569 213 2275 61 
Q 1981 -91 1556 -91 
Q 1019 -91 701 211 
Q 384 513 384 1019 
Q 384 1609 779 1909 
Q 1175 2209 1959 2209 
L 2766 2209 
L 2766 2266 
Q 2766 2663 2505 2880 
Q 2244 3097 1772 3097 
Q 1472 3097 1187 3025 
Q 903 2953 641 2809 
L 641 3341 
Q 956 3463 1253 3523 
Q 1550 3584 1831 3584 
Q 2591 3584 2966 3190 
Q 3341 2797 3341 1997 
z
" transform="scale(0.015625)"/>
      </defs>
      <use xlink:href="#DejaVuSans-6d"/>
      <use xlink:href="#DejaVuSans-65" x="97.412109"/>
      <use xlink:href="#DejaVuSans-7a" x="158.935547"/>
      <use xlink:href="#DejaVuSans-63" x="211.425781"/>
      <use xlink:href="#DejaVuSans-6c" x="266.40625"/>
      <use xlink:href="#DejaVuSans-61" x="294.189453"/>
     </g>
    </g>
   </g>
  </g>
 </g>
 <defs>
  <clipPath id="p9c2ad11e05">
   <rect x="55.915469" y="31.397969" width="368.28" height="227.304"/>
  </clipPath>
 </defs>
</svg>
