<?xml version="1.0" encoding="utf-8" standalone="no"?>
<!DOCTYPE svg PUBLIC "-//W3C//DTD SVG 1.1//EN"
  "http://www.w3.org/Graphics/SVG/1.1/DTD/svg11.dtd">
<svg xmlns:xlink="http://www.w3.org/1999/xlink" width="446.875469pt" height="308.095969pt" viewBox="0 0 446.875469 308.095969" xmlns="http://www.w3.org/2000/svg" version="1.1">
 <metadata>
  <rdf:RDF xmlns:dc="http://purl.org/dc/elements/1.1/" xmlns:cc="http://creativecommons.org/ns#" xmlns:rdf="http://www.w3.org/1999/02/22-rdf-syntax-ns#">
   <cc:Work>
    <dc:type rdf:resource="http://purl.org/dc/dcmitype/StillImage"/>
    <dc:date>2026-06-30T11:52:54.722954</dc:date>
    <dc:format>image/svg+xml</dc:format>
    <dc:creator>
     <cc:Agent>
      <dc:title>Matplotlib v3.9.2, https://matplotlib.org/</dc:title>
     </cc:Agent>
    </dc:creator>
   </cc:Work>
  </rdf:RDF>
 </metadata>
 <defs>
  <style type="text/css">*{stroke-linejoin: round; stroke-linecap: butt}</style>
 </defs>
 <g id="figure_1">
  <g id="patch_1">
   <path d="M 0 308.095969 
L 446.875469 308.095969 
L 446.875469 0 
L 0 0 
z
" style="fill: #ffffff"/>
  </g>
  <g id="axes_1">
   <g id="patch_2">
    <path d="M 55.915469 264.768 
L 435.355469 264.768 
L 435.355469 31.92 
L 55.915469 31.92 
z
" style="fill: #ffffff"/>
   </g>
   <g id="matplotlib.axis_1">
    <g id="xtick_1">
     <g id="line2d_1">
      <path d="M 87.535469 264.768 
L 87.535469 31.92 
" clip-path="url(#p1fb052b1c9)" style="fill: none; stroke-dasharray: 0.8,1.28; stroke-dashoffset: 0; stroke: #b0b0b0; stroke-opacity: 0.3; stroke-width: 0.8"/>
     </g>
     <g id="line2d_2">
      <defs>
       <path id="mf04c4e3fa9" d="M 0 0 
L 0 3.5 
" style="stroke: #2c3e50; stroke-width: 0.8"/>
      </defs>
      <g>
       <use xlink:href="#mf04c4e3fa9" x="87.535469" y="264.768" style="fill: #2c3e50; stroke: #2c3e50; stroke-width: 0.8"/>
      </g>
     </g>
     <g id="text_1">
      <!-- −3 -->
      <g style="fill: #2c3e50" transform="translate(80.164375 279.366437) scale(0.1 -0.1)">
       <defs>
        <path id="DejaVuSans-2212" d="M 678 2272 
L 4684 2272 
L 4684 1741 
L 678 1741 
L 678 2272 
z
" transform="scale(0.015625)"/>
        <path id="DejaVuSans-33" d="M 2597 2516 
Q 3050 2419 3304 2112 
Q 3559 1806 3559 1356 
Q 3559 666 3084 287 
Q 2609 -91 1734 -91 
Q 1441 -91 1130 -33 
Q 819 25 488 141 
L 488 750 
Q 750 597 1062 519 
Q 1375 441 1716 441 
Q 2309 441 2620 675 
Q 2931 909 2931 1356 
Q 2931 1769 2642 2001 
Q 2353 2234 1838 2234 
L 1294 2234 
L 1294 2753 
L 1863 2753 
Q 2328 2753 2575 2939 
Q 2822 3125 2822 3475 
Q 2822 3834 2567 4026 
Q 2313 4219 1838 4219 
Q 1578 4219 1281 4162 
Q 984 4106 628 3988 
L 628 4550 
Q 988 4650 1302 4700 
Q 1616 4750 1894 4750 
Q 2613 4750 3031 4423 
Q 3450 4097 3450 3541 
Q 3450 3153 3228 2886 
Q 3006 2619 2597 2516 
z
" transform="scale(0.015625)"/>
       </defs>
       <use xlink:href="#DejaVuSans-2212"/>
       <use xlink:href="#DejaVuSans-33" x="83.789062"/>
      </g>
     </g>
    </g>
    <g id="xtick_2">
     <g id="line2d_3">
      <path d="M 140.235469 264.768 
L 140.235469 31.92 
" clip-path="url(#p1fb052b1c9)" style="fill: none; stroke-dasharray: 0.8,1.28; stroke-dashoffset: 0; stroke: #b0b0b0; stroke-opacity: 0.3; stroke-width: 0.8"/>
     </g>
     <g id="line2d_4">
      <g>
       <use xlink:href="#mf04c4e3fa9" x="140.235469" y="264.768" style="fill: #2c3e50; stroke: #2c3e50; stroke-width: 0.8"/>
      </g>
     </g>
     <g id="text_2">
      <!-- −2 -->
      <g style="fill: #2c3e50" transform="translate(132.864375 279.366437) scale(0.1 -0.1)">
       <defs>
        <path id="DejaVuSans-32" d="M 1228 531 
L 3431 531 
L 3431 0 
L 469 0 
L 469 531 
Q 828 903 1448 1529 
Q 2069 2156 2228 2338 
Q 2531 2678 2651 2914 
Q 2772 3150 2772 3378 
Q 2772 3750 2511 3984 
Q 2250 4219 1831 4219 
Q 1534 4219 1204 4116 
Q 875 4013 500 3803 
L 500 4441 
Q 881 4594 1212 4672 
Q 1544 4750 1819 4750 
Q 2544 4750 2975 4387 
Q 3406 4025 3406 3419 
Q 3406 3131 3298 2873 
Q 3191 2616 2906 2266 
Q 2828 2175 2409 1742 
Q 1991 1309 1228 531 
z
" transform="scale(0.015625)"/>
       </defs>
       <use xlink:href="#DejaVuSans-2212"/>
       <use xlink:href="#DejaVuSans-32" x="83.789062"/>
      </g>
     </g>
    </g>
    <g id="xtick_3">
     <g id="line2d_5">
      <path d="M 192.935469 264.768 
L 192.935469 31.92 
" clip-path="url(#p1fb052b1c9)" style="fill: none; stroke-dasharray: 0.8,1.28; stroke-dashoffset: 0; stroke: #b0b0b0; stroke-opacity: 0.3; stroke-width: 0.8"/>
     </g>
     <g id="line2d_6">
      <g>
       <use xlink:href="#mf04c4e3fa9" x="192.935469" y="264.768" style="fill: #2c3e50; stroke: #2c3e50; stroke-width: 0.8"/>
      </g>
     </g>
     <g id="text_3">
      <!-- −1 -->
      <g style="fill: #2c3e50" transform="translate(185.564375 279.366437) scale(0.1 -0.1)">
       <defs>
        <path id="DejaVuSans-31" d="M 794 531 
L 1825 531 
L 1825 4091 
L 703 3866 
L 703 4441 
L 1819 4666 
L 2450 4666 
L 2450 531 
L 3481 531 
L 3481 0 
L 794 0 
L 794 531 
z
" transform="scale(0.015625)"/>
       </defs>
       <use xlink:href="#DejaVuSans-2212"/>
       <use xlink:href="#DejaVuSans-31" x="83.789062"/>
      </g>
     </g>
    </g>
    <g id="xtick_4">
     <g id="line2d_7">
      <path d="M 245.635469 264.768 
L 245.635469 31.92 
" clip-path="url(#p1fb052b1c9)" style="fill: none; stroke-dasharray: 0.8,1.28; stroke-dashoffset: 0; stroke: #b0b0b0; stroke-opacity: 0.3; stroke-width: 0.8"/>
     </g>
     <g id="line2d_8">
      <g>
       <use xlink:href="#mf04c4e3fa9" x="245.635469" y="264.768" style="fill: #2c3e50; stroke: #2c3e50; stroke-width: 0.8"/>
      </g>
     </g>
     <g id="text_4">
      <!-- 0 -->
      <g style="fill: #2c3e50" transform="translate(242.454219 279.366437) scale(0.1 -0.1)">
       <defs>
        <path id="DejaVuSans-30" d="M 2034 4250 
Q 1547 4250 1301 3770 
Q 1056 3291 1056 2328 
Q 1056 1369 1301 889 
Q 1547 409 2034 409 
Q 2525 409 2770 889 
Q 3016 1369 3016 2328 
Q 3016 3291 2770 3770 
Q 2525 4250 2034 4250 
z
M 2034 4750 
Q 2819 4750 3233 4129 
Q 3647 3509 3647 2328 
Q 3647 1150 3233 529 
Q 2819 -91 2034 -91 
Q 1250 -91 836 529 
Q 422 1150 422 2328 
Q 422 3509 836 4129 
Q 1250 4750 2034 4750 
z
" transform="scale(0.015625)"/>
       </defs>
       <use xlink:href="#DejaVuSans-30"/>
      </g>
     </g>
    </g>
    <g id="xtick_5">
     <g id="line2d_9">
      <path d="M 298.335469 264.768 
L 298.335469 31.92 
" clip-path="url(#p1fb052b1c9)" style="fill: none; stroke-dasharray: 0.8,1.28; stroke-dashoffset: 0; stroke: #b0b0b0; stroke-opacity: 0.3; stroke-width: 0.8"/>
     </g>
     <g id="line2d_10">
      <g>
       <use xlink:href="#mf04c4e3fa9" x="298.335469" y="264.768" style="fill: #2c3e50; stroke: #2c3e50; stroke-width: 0.8"/>
      </g>
     </g>
     <g id="text_5">
      <!-- 1 -->
      <g style="fill: #2c3e50" transform="translate(295.154219 279.366437) scale(0.1 -0.1)">
       <use xlink:href="#DejaVuSans-31"/>
      </g>
     </g>
    </g>
    <g id="xtick_6">
     <g id="line2d_11">
      <path d="M 351.035469 264.768 
L 351.035469 31.92 
" clip-path="url(#p1fb052b1c9)" style="fill: none; stroke-dasharray: 0.8,1.28; stroke-dashoffset: 0; stroke: #b0b0b0; stroke-opacity: 0.3; stroke-width: 0.8"/>
     </g>
     <g id="line2d_12">
      <g>
       <use xlink:href="#mf04c4e3fa9" x="351.035469" y="264.768" style="fill: #2c3e50; stroke: #2c3e50; stroke-width: 0.8"/>
      </g>
     </g>
     <g id="text_6">
      <!-- 2 -->
      <g style="fill: #2c3e50" transform="translate(347.854219 279.366437) scale(0.1 -0.1)">
       <use xlink:href="#DejaVuSans-32"/>
      </g>
     </g>
    </g>
    <g id="xtick_7">
     <g id="line2d_13">
      <path d="M 403.735469 264.768 
L 403.735469 31.92 
" clip-path="url(#p1fb052b1c9)" style="fill: none; stroke-dasharray: 0.8,1.28; stroke-dashoffset: 0; stroke: #b0b0b0; stroke-opacity: 0.3; stroke-width: 0.8"/>
     </g>
     <g id="line2d_14">
      <g>
       <use xlink:href="#mf04c4e3fa9" x="403.735469" y="264.768" style="fill: #2c3e50; stroke: #2c3e50; stroke-width: 0.8"/>
      </g>
     </g>
     <g id="text_7">
      <!-- 3 -->
      <g style="fill: #2c3e50" transform="translate(400.554219 279.366437) scale(0.1 -0.1)">
       <use xlink:href="#DejaVuSans-33"/>
      </g>
     </g>
    </g>
    <g id="text_8">
     <!-- z -->
     <g transform="translate(242.288789 294.184328) scale(0.115 -0.115)">
      <defs>
       <path id="DejaVuSans-Bold-7a" d="M 366 3500 
L 3419 3500 
L 3419 2719 
L 1575 800 
L 3419 800 
L 3419 0 
L 288 0 
L 288 781 
L 2131 2700 
L 366 2700 
L 366 3500 
z
" transform="scale(0.015625)"/>
      </defs>
      <use xlink:href="#DejaVuSans-Bold-7a"/>
     </g>
    </g>
   </g>
   <g id="matplotlib.axis_2">
    <g id="ytick_1">
     <g id="line2d_15">
      <path d="M 55.915469 264.768 
L 435.355469 264.768 
" clip-path="url(#p1fb052b1c9)" style="fill: none; stroke-dasharray: 0.8,1.28; stroke-dashoffset: 0; stroke: #b0b0b0; stroke-opacity: 0.3; stroke-width: 0.8"/>
     </g>
     <g id="line2d_16">
      <defs>
       <path id="m325cb94de2" d="M 0 0 
L -3.5 0 
" style="stroke: #2c3e50; stroke-width: 0.8"/>
      </defs>
      <g>
       <use xlink:href="#m325cb94de2" x="55.915469" y="264.768" style="fill: #2c3e50; stroke: #2c3e50; stroke-width: 0.8"/>
      </g>
     </g>
     <g id="text_9">
      <!-- 0.00 -->
      <g style="fill: #2c3e50" transform="translate(26.649844 268.567219) scale(0.1 -0.1)">
       <defs>
        <path id="DejaVuSans-2e" d="M 684 794 
L 1344 794 
L 1344 0 
L 684 0 
L 684 794 
z
" transform="scale(0.015625)"/>
       </defs>
       <use xlink:href="#DejaVuSans-30"/>
       <use xlink:href="#DejaVuSans-2e" x="63.623047"/>
       <use xlink:href="#DejaVuSans-30" x="95.410156"/>
       <use xlink:href="#DejaVuSans-30" x="159.033203"/>
      </g>
     </g>
    </g>
    <g id="ytick_2">
     <g id="line2d_17">
      <path d="M 55.915469 236.974224 
L 435.355469 236.974224 
" clip-path="url(#p1fb052b1c9)" style="fill: none; stroke-dasharray: 0.8,1.28; stroke-dashoffset: 0; stroke: #b0b0b0; stroke-opacity: 0.3; stroke-width: 0.8"/>
     </g>
     <g id="line2d_18">
      <g>
       <use xlink:href="#m325cb94de2" x="55.915469" y="236.974224" style="fill: #2c3e50; stroke: #2c3e50; stroke-width: 0.8"/>
      </g>
     </g>
     <g id="text_10">
      <!-- 0.05 -->
      <g style="fill: #2c3e50" transform="translate(26.649844 240.773442) scale(0.1 -0.1)">
       <defs>
        <path id="DejaVuSans-35" d="M 691 4666 
L 3169 4666 
L 3169 4134 
L 1269 4134 
L 1269 2991 
Q 1406 3038 1543 3061 
Q 1681 3084 1819 3084 
Q 2600 3084 3056 2656 
Q 3513 2228 3513 1497 
Q 3513 744 3044 326 
Q 2575 -91 1722 -91 
Q 1428 -91 1123 -41 
Q 819 9 494 109 
L 494 744 
Q 775 591 1075 516 
Q 1375 441 1709 441 
Q 2250 441 2565 725 
Q 2881 1009 2881 1497 
Q 2881 1984 2565 2268 
Q 2250 2553 1709 2553 
Q 1456 2553 1204 2497 
Q 953 2441 691 2322 
L 691 4666 
z
" transform="scale(0.015625)"/>
       </defs>
       <use xlink:href="#DejaVuSans-30"/>
       <use xlink:href="#DejaVuSans-2e" x="63.623047"/>
       <use xlink:href="#DejaVuSans-30" x="95.410156"/>
       <use xlink:href="#DejaVuSans-35" x="159.033203"/>
      </g>
     </g>
    </g>
    <g id="ytick_3">
     <g id="line2d_19">
      <path d="M 55.915469 209.180447 
L 435.355469 209.180447 
" clip-path="url(#p1fb052b1c9)" style="fill: none; stroke-dasharray: 0.8,1.28; stroke-dashoffset: 0; stroke: #b0b0b0; stroke-opacity: 0.3; stroke-width: 0.8"/>
     </g>
     <g id="line2d_20">
      <g>
       <use xlink:href="#m325cb94de2" x="55.915469" y="209.180447" style="fill: #2c3e50; stroke: #2c3e50; stroke-width: 0.8"/>
      </g>
     </g>
     <g id="text_11">
      <!-- 0.10 -->
      <g style="fill: #2c3e50" transform="translate(26.649844 212.979666) scale(0.1 -0.1)">
       <use xlink:href="#DejaVuSans-30"/>
       <use xlink:href="#DejaVuSans-2e" x="63.623047"/>
       <use xlink:href="#DejaVuSans-31" x="95.410156"/>
       <use xlink:href="#DejaVuSans-30" x="159.033203"/>
      </g>
     </g>
    </g>
    <g id="ytick_4">
     <g id="line2d_21">
      <path d="M 55.915469 181.386671 
L 435.355469 181.386671 
" clip-path="url(#p1fb052b1c9)" style="fill: none; stroke-dasharray: 0.8,1.28; stroke-dashoffset: 0; stroke: #b0b0b0; stroke-opacity: 0.3; stroke-width: 0.8"/>
     </g>
     <g id="line2d_22">
      <g>
       <use xlink:href="#m325cb94de2" x="55.915469" y="181.386671" style="fill: #2c3e50; stroke: #2c3e50; stroke-width: 0.8"/>
      </g>
     </g>
     <g id="text_12">
      <!-- 0.15 -->
      <g style="fill: #2c3e50" transform="translate(26.649844 185.185889) scale(0.1 -0.1)">
       <use xlink:href="#DejaVuSans-30"/>
       <use xlink:href="#DejaVuSans-2e" x="63.623047"/>
       <use xlink:href="#DejaVuSans-31" x="95.410156"/>
       <use xlink:href="#DejaVuSans-35" x="159.033203"/>
      </g>
     </g>
    </g>
    <g id="ytick_5">
     <g id="line2d_23">
      <path d="M 55.915469 153.592894 
L 435.355469 153.592894 
" clip-path="url(#p1fb052b1c9)" style="fill: none; stroke-dasharray: 0.8,1.28; stroke-dashoffset: 0; stroke: #b0b0b0; stroke-opacity: 0.3; stroke-width: 0.8"/>
     </g>
     <g id="line2d_24">
      <g>
       <use xlink:href="#m325cb94de2" x="55.915469" y="153.592894" style="fill: #2c3e50; stroke: #2c3e50; stroke-width: 0.8"/>
      </g>
     </g>
     <g id="text_13">
      <!-- 0.20 -->
      <g style="fill: #2c3e50" transform="translate(26.649844 157.392113) scale(0.1 -0.1)">
       <use xlink:href="#DejaVuSans-30"/>
       <use xlink:href="#DejaVuSans-2e" x="63.623047"/>
       <use xlink:href="#DejaVuSans-32" x="95.410156"/>
       <use xlink:href="#DejaVuSans-30" x="159.033203"/>
      </g>
     </g>
    </g>
    <g id="ytick_6">
     <g id="line2d_25">
      <path d="M 55.915469 125.799118 
L 435.355469 125.799118 
" clip-path="url(#p1fb052b1c9)" style="fill: none; stroke-dasharray: 0.8,1.28; stroke-dashoffset: 0; stroke: #b0b0b0; stroke-opacity: 0.3; stroke-width: 0.8"/>
     </g>
     <g id="line2d_26">
      <g>
       <use xlink:href="#m325cb94de2" x="55.915469" y="125.799118" style="fill: #2c3e50; stroke: #2c3e50; stroke-width: 0.8"/>
      </g>
     </g>
     <g id="text_14">
      <!-- 0.25 -->
      <g style="fill: #2c3e50" transform="translate(26.649844 129.598337) scale(0.1 -0.1)">
       <use xlink:href="#DejaVuSans-30"/>
       <use xlink:href="#DejaVuSans-2e" x="63.623047"/>
       <use xlink:href="#DejaVuSans-32" x="95.410156"/>
       <use xlink:href="#DejaVuSans-35" x="159.033203"/>
      </g>
     </g>
    </g>
    <g id="ytick_7">
     <g id="line2d_27">
      <path d="M 55.915469 98.005341 
L 435.355469 98.005341 
" clip-path="url(#p1fb052b1c9)" style="fill: none; stroke-dasharray: 0.8,1.28; stroke-dashoffset: 0; stroke: #b0b0b0; stroke-opacity: 0.3; stroke-width: 0.8"/>
     </g>
     <g id="line2d_28">
      <g>
       <use xlink:href="#m325cb94de2" x="55.915469" y="98.005341" style="fill: #2c3e50; stroke: #2c3e50; stroke-width: 0.8"/>
      </g>
     </g>
     <g id="text_15">
      <!-- 0.30 -->
      <g style="fill: #2c3e50" transform="translate(26.649844 101.80456) scale(0.1 -0.1)">
       <use xlink:href="#DejaVuSans-30"/>
       <use xlink:href="#DejaVuSans-2e" x="63.623047"/>
       <use xlink:href="#DejaVuSans-33" x="95.410156"/>
       <use xlink:href="#DejaVuSans-30" x="159.033203"/>
      </g>
     </g>
    </g>
    <g id="ytick_8">
     <g id="line2d_29">
      <path d="M 55.915469 70.211565 
L 435.355469 70.211565 
" clip-path="url(#p1fb052b1c9)" style="fill: none; stroke-dasharray: 0.8,1.28; stroke-dashoffset: 0; stroke: #b0b0b0; stroke-opacity: 0.3; stroke-width: 0.8"/>
     </g>
     <g id="line2d_30">
      <g>
       <use xlink:href="#m325cb94de2" x="55.915469" y="70.211565" style="fill: #2c3e50; stroke: #2c3e50; stroke-width: 0.8"/>
      </g>
     </g>
     <g id="text_16">
      <!-- 0.35 -->
      <g style="fill: #2c3e50" transform="translate(26.649844 74.010784) scale(0.1 -0.1)">
       <use xlink:href="#DejaVuSans-30"/>
       <use xlink:href="#DejaVuSans-2e" x="63.623047"/>
       <use xlink:href="#DejaVuSans-33" x="95.410156"/>
       <use xlink:href="#DejaVuSans-35" x="159.033203"/>
      </g>
     </g>
    </g>
    <g id="ytick_9">
     <g id="line2d_31">
      <path d="M 55.915469 42.417789 
L 435.355469 42.417789 
" clip-path="url(#p1fb052b1c9)" style="fill: none; stroke-dasharray: 0.8,1.28; stroke-dashoffset: 0; stroke: #b0b0b0; stroke-opacity: 0.3; stroke-width: 0.8"/>
     </g>
     <g id="line2d_32">
      <g>
       <use xlink:href="#m325cb94de2" x="55.915469" y="42.417789" style="fill: #2c3e50; stroke: #2c3e50; stroke-width: 0.8"/>
      </g>
     </g>
     <g id="text_17">
      <!-- 0.40 -->
      <g style="fill: #2c3e50" transform="translate(26.649844 46.217007) scale(0.1 -0.1)">
       <defs>
        <path id="DejaVuSans-34" d="M 2419 4116 
L 825 1625 
L 2419 1625 
L 2419 4116 
z
M 2253 4666 
L 3047 4666 
L 3047 1625 
L 3713 1625 
L 3713 1100 
L 3047 1100 
L 3047 0 
L 2419 0 
L 2419 1100 
L 313 1100 
L 313 1709 
L 2253 4666 
z
" transform="scale(0.015625)"/>
       </defs>
       <use xlink:href="#DejaVuSans-30"/>
       <use xlink:href="#DejaVuSans-2e" x="63.623047"/>
       <use xlink:href="#DejaVuSans-34" x="95.410156"/>
       <use xlink:href="#DejaVuSans-30" x="159.033203"/>
      </g>
     </g>
    </g>
    <g id="text_18">
     <!-- densidad -->
     <g transform="translate(20.258203 177.958297) rotate(-90) scale(0.115 -0.115)">
      <defs>
       <path id="DejaVuSans-Bold-64" d="M 2919 2988 
L 2919 4863 
L 4044 4863 
L 4044 0 
L 2919 0 
L 2919 506 
Q 2688 197 2409 53 
Q 2131 -91 1766 -91 
Q 1119 -91 703 423 
Q 288 938 288 1747 
Q 288 2556 703 3070 
Q 1119 3584 1766 3584 
Q 2128 3584 2408 3439 
Q 2688 3294 2919 2988 
z
M 2181 722 
Q 2541 722 2730 984 
Q 2919 1247 2919 1747 
Q 2919 2247 2730 2509 
Q 2541 2772 2181 2772 
Q 1825 2772 1636 2509 
Q 1447 2247 1447 1747 
Q 1447 1247 1636 984 
Q 1825 722 2181 722 
z
" transform="scale(0.015625)"/>
       <path id="DejaVuSans-Bold-65" d="M 4031 1759 
L 4031 1441 
L 1416 1441 
Q 1456 1047 1700 850 
Q 1944 653 2381 653 
Q 2734 653 3104 758 
Q 3475 863 3866 1075 
L 3866 213 
Q 3469 63 3072 -14 
Q 2675 -91 2278 -91 
Q 1328 -91 801 392 
Q 275 875 275 1747 
Q 275 2603 792 3093 
Q 1309 3584 2216 3584 
Q 3041 3584 3536 3087 
Q 4031 2591 4031 1759 
z
M 2881 2131 
Q 2881 2450 2695 2645 
Q 2509 2841 2209 2841 
Q 1884 2841 1681 2658 
Q 1478 2475 1428 2131 
L 2881 2131 
z
" transform="scale(0.015625)"/>
       <path id="DejaVuSans-Bold-6e" d="M 4056 2131 
L 4056 0 
L 2931 0 
L 2931 347 
L 2931 1631 
Q 2931 2084 2911 2256 
Q 2891 2428 2841 2509 
Q 2775 2619 2662 2680 
Q 2550 2741 2406 2741 
Q 2056 2741 1856 2470 
Q 1656 2200 1656 1722 
L 1656 0 
L 538 0 
L 538 3500 
L 1656 3500 
L 1656 2988 
Q 1909 3294 2193 3439 
Q 2478 3584 2822 3584 
Q 3428 3584 3742 3212 
Q 4056 2841 4056 2131 
z
" transform="scale(0.015625)"/>
       <path id="DejaVuSans-Bold-73" d="M 3272 3391 
L 3272 2541 
Q 2913 2691 2578 2766 
Q 2244 2841 1947 2841 
Q 1628 2841 1473 2761 
Q 1319 2681 1319 2516 
Q 1319 2381 1436 2309 
Q 1553 2238 1856 2203 
L 2053 2175 
Q 2913 2066 3209 1816 
Q 3506 1566 3506 1031 
Q 3506 472 3093 190 
Q 2681 -91 1863 -91 
Q 1516 -91 1145 -36 
Q 775 19 384 128 
L 384 978 
Q 719 816 1070 734 
Q 1422 653 1784 653 
Q 2113 653 2278 743 
Q 2444 834 2444 1013 
Q 2444 1163 2330 1236 
Q 2216 1309 1875 1350 
L 1678 1375 
Q 931 1469 631 1722 
Q 331 1975 331 2491 
Q 331 3047 712 3315 
Q 1094 3584 1881 3584 
Q 2191 3584 2531 3537 
Q 2872 3491 3272 3391 
z
" transform="scale(0.015625)"/>
       <path id="DejaVuSans-Bold-69" d="M 538 3500 
L 1656 3500 
L 1656 0 
L 538 0 
L 538 3500 
z
M 538 4863 
L 1656 4863 
L 1656 3950 
L 538 3950 
L 538 4863 
z
" transform="scale(0.015625)"/>
       <path id="DejaVuSans-Bold-61" d="M 2106 1575 
Q 1756 1575 1579 1456 
Q 1403 1338 1403 1106 
Q 1403 894 1545 773 
Q 1688 653 1941 653 
Q 2256 653 2472 879 
Q 2688 1106 2688 1447 
L 2688 1575 
L 2106 1575 
z
M 3816 1997 
L 3816 0 
L 2688 0 
L 2688 519 
Q 2463 200 2181 54 
Q 1900 -91 1497 -91 
Q 953 -91 614 226 
Q 275 544 275 1050 
Q 275 1666 698 1953 
Q 1122 2241 2028 2241 
L 2688 2241 
L 2688 2328 
Q 2688 2594 2478 2717 
Q 2269 2841 1825 2841 
Q 1466 2841 1156 2769 
Q 847 2697 581 2553 
L 581 3406 
Q 941 3494 1303 3539 
Q 1666 3584 2028 3584 
Q 2975 3584 3395 3211 
Q 3816 2838 3816 1997 
z
" transform="scale(0.015625)"/>
      </defs>
      <use xlink:href="#DejaVuSans-Bold-64"/>
      <use xlink:href="#DejaVuSans-Bold-65" x="71.582031"/>
      <use xlink:href="#DejaVuSans-Bold-6e" x="139.404297"/>
      <use xlink:href="#DejaVuSans-Bold-73" x="210.595703"/>
      <use xlink:href="#DejaVuSans-Bold-69" x="270.117188"/>
      <use xlink:href="#DejaVuSans-Bold-64" x="304.394531"/>
      <use xlink:href="#DejaVuSans-Bold-61" x="375.976562"/>
      <use xlink:href="#DejaVuSans-Bold-64" x="443.457031"/>
     </g>
    </g>
   </g>
   <g id="PolyCollection_1">
    <defs>
     <path id="m05e934111a" d="M 55.915469 -43.327969 
L 55.915469 -43.66811 
L 56.390362 -43.679311 
L 56.865256 -43.690852 
L 57.34015 -43.702741 
L 57.815043 -43.714988 
L 58.289937 -43.727603 
L 58.76483 -43.740595 
L 59.239724 -43.753976 
L 59.714618 -43.767754 
L 60.189511 -43.781942 
L 60.664405 -43.796549 
L 61.139299 -43.811586 
L 61.614192 -43.827066 
L 62.089086 -43.843 
L 62.563979 -43.859398 
L 63.038873 -43.876275 
L 63.513767 -43.893642 
L 63.98866 -43.911511 
L 64.463554 -43.929896 
L 64.938447 -43.948809 
L 65.413341 -43.968265 
L 65.888235 -43.988277 
L 66.363128 -44.00886 
L 66.838022 -44.030026 
L 67.312916 -44.051793 
L 67.787809 -44.074173 
L 68.262703 -44.097183 
L 68.737596 -44.120837 
L 69.21249 -44.145153 
L 69.687384 -44.170147 
L 70.162277 -44.195834 
L 70.637171 -44.222232 
L 71.112064 -44.249358 
L 71.586958 -44.27723 
L 72.061852 -44.305866 
L 72.536745 -44.335284 
L 73.011639 -44.365502 
L 73.486533 -44.39654 
L 73.961426 -44.428418 
L 74.43632 -44.461154 
L 74.911213 -44.494769 
L 75.386107 -44.529285 
L 75.861001 -44.56472 
L 76.335894 -44.601098 
L 76.810788 -44.638439 
L 77.285682 -44.676765 
L 77.760575 -44.7161 
L 78.235469 -44.756466 
L 78.710362 -44.797887 
L 79.185256 -44.840385 
L 79.66015 -44.883986 
L 80.135043 -44.928714 
L 80.609937 -44.974595 
L 81.08483 -45.021652 
L 81.559724 -45.069913 
L 82.034618 -45.119403 
L 82.509511 -45.17015 
L 82.984405 -45.222181 
L 83.459299 -45.275523 
L 83.934192 -45.330205 
L 84.409086 -45.386255 
L 84.883979 -45.443702 
L 85.358873 -45.502576 
L 85.833767 -45.562907 
L 86.30866 -45.624725 
L 86.783554 -45.688061 
L 87.258447 -45.752946 
L 87.733341 -45.819414 
L 88.208235 -45.887495 
L 88.683128 -45.957223 
L 89.158022 -46.028632 
L 89.632916 -46.101755 
L 90.107809 -46.176626 
L 90.582703 -46.25328 
L 91.057596 -46.331754 
L 91.53249 -46.412082 
L 92.007384 -46.494301 
L 92.482277 -46.578448 
L 92.957171 -46.66456 
L 93.432064 -46.752675 
L 93.906958 -46.842832 
L 94.381852 -46.93507 
L 94.856745 -47.029427 
L 95.331639 -47.125945 
L 95.806533 -47.224662 
L 96.281426 -47.325621 
L 96.75632 -47.428863 
L 97.231213 -47.534429 
L 97.706107 -47.642362 
L 98.181001 -47.752706 
L 98.655894 -47.865503 
L 99.130788 -47.980798 
L 99.605682 -48.098635 
L 100.080575 -48.219059 
L 100.555469 -48.342116 
L 101.030362 -48.467851 
L 101.505256 -48.596312 
L 101.98015 -48.727544 
L 102.455043 -48.861596 
L 102.929937 -48.998516 
L 103.40483 -49.138352 
L 103.879724 -49.281153 
L 104.354618 -49.426968 
L 104.829511 -49.575847 
L 105.304405 -49.727841 
L 105.779299 -49.883 
L 106.254192 -50.041375 
L 106.729086 -50.203019 
L 107.203979 -50.367983 
L 107.678873 -50.53632 
L 108.153767 -50.708082 
L 108.62866 -50.883324 
L 109.103554 -51.062099 
L 109.578447 -51.244462 
L 110.053341 -51.430466 
L 110.528235 -51.620167 
L 111.003128 -51.813621 
L 111.478022 -52.010883 
L 111.952916 -52.212009 
L 112.427809 -52.417055 
L 112.902703 -52.626079 
L 113.377596 -52.839138 
L 113.85249 -53.056289 
L 114.327384 -53.277589 
L 114.802277 -53.503098 
L 115.277171 -53.732872 
L 115.752064 -53.966972 
L 116.226958 -54.205455 
L 116.701852 -54.448381 
L 117.176745 -54.695809 
L 117.651639 -54.947799 
L 118.126533 -55.20441 
L 118.601426 -55.465702 
L 119.07632 -55.731736 
L 119.551213 -56.002571 
L 120.026107 -56.278269 
L 120.501001 -56.558889 
L 120.975894 -56.844492 
L 121.450788 -57.135139 
L 121.925682 -57.43089 
L 122.400575 -57.731807 
L 122.875469 -58.03795 
L 123.350362 -58.34938 
L 123.825256 -58.666158 
L 124.30015 -58.988345 
L 124.775043 -59.316001 
L 125.249937 -59.649187 
L 125.72483 -59.987963 
L 126.199724 -60.332391 
L 126.674618 -60.68253 
L 127.149511 -61.03844 
L 127.624405 -61.400182 
L 128.099299 -61.767815 
L 128.574192 -62.141399 
L 129.049086 -62.520993 
L 129.523979 -62.906657 
L 129.998873 -63.298448 
L 130.473767 -63.696425 
L 130.94866 -64.100646 
L 131.423554 -64.511169 
L 131.898447 -64.928051 
L 132.373341 -65.351348 
L 132.848235 -65.781118 
L 133.323128 -66.217416 
L 133.798022 -66.660296 
L 134.272916 -67.109815 
L 134.747809 -67.566026 
L 135.222703 -68.028982 
L 135.697596 -68.498737 
L 136.17249 -68.975343 
L 136.647384 -69.458852 
L 137.122277 -69.949313 
L 137.597171 -70.446779 
L 138.072064 -70.951297 
L 138.546958 -71.462916 
L 139.021852 -71.981685 
L 139.496745 -72.507649 
L 139.971639 -73.040855 
L 140.446533 -73.581347 
L 140.921426 -74.12917 
L 141.39632 -74.684367 
L 141.871213 -75.246979 
L 142.346107 -75.817047 
L 142.821001 -76.394612 
L 143.295894 -76.979711 
L 143.770788 -77.572383 
L 144.245682 -78.172663 
L 144.720575 -78.780586 
L 145.195469 -79.396187 
L 145.670362 -80.019497 
L 146.145256 -80.650549 
L 146.62015 -81.289371 
L 147.095043 -81.935992 
L 147.569937 -82.590439 
L 148.04483 -83.252737 
L 148.519724 -83.922911 
L 148.994618 -84.600983 
L 149.469511 -85.286973 
L 149.944405 -85.980902 
L 150.419299 -86.682786 
L 150.894192 -87.392642 
L 151.369086 -88.110484 
L 151.843979 -88.836324 
L 152.318873 -89.570174 
L 152.793767 -90.312042 
L 153.26866 -91.061935 
L 153.743554 -91.81986 
L 154.218447 -92.585819 
L 154.693341 -93.359814 
L 155.168235 -94.141844 
L 155.643128 -94.931907 
L 156.118022 -95.729999 
L 156.592916 -96.536114 
L 157.067809 -97.350242 
L 157.542703 -98.172373 
L 158.017596 -99.002494 
L 158.49249 -99.840591 
L 158.967384 -100.686647 
L 159.442277 -101.540641 
L 159.917171 -102.402554 
L 160.392064 -103.27236 
L 160.866958 -104.150033 
L 161.341852 -105.035547 
L 161.816745 -105.928869 
L 162.291639 -106.829966 
L 162.766533 -107.738804 
L 163.241426 -108.655344 
L 163.71632 -109.579545 
L 164.191213 -110.511366 
L 164.666107 -111.450761 
L 165.141001 -112.397683 
L 165.615894 -113.35208 
L 166.090788 -114.3139 
L 166.565682 -115.283089 
L 167.040575 -116.259587 
L 167.515469 -117.243335 
L 167.990362 -118.23427 
L 168.465256 -119.232326 
L 168.94015 -120.237434 
L 169.415043 -121.249524 
L 169.889937 -122.268522 
L 170.36483 -123.294352 
L 170.839724 -124.326935 
L 171.314618 -125.366189 
L 171.789511 -126.412031 
L 172.264405 -127.464373 
L 172.739299 -128.523125 
L 173.214192 -129.588196 
L 173.689086 -130.65949 
L 174.163979 -131.736909 
L 174.638873 -132.820353 
L 175.113767 -133.909719 
L 175.58866 -135.0049 
L 176.063554 -136.105789 
L 176.538447 -137.212274 
L 177.013341 -138.32424 
L 177.488235 -139.441572 
L 177.963128 -140.564149 
L 178.438022 -141.69185 
L 178.912916 -142.82455 
L 179.387809 -143.962121 
L 179.862703 -145.104434 
L 180.337596 -146.251355 
L 180.81249 -147.402749 
L 181.287384 -148.558478 
L 181.762277 -149.718402 
L 182.237171 -150.882378 
L 182.712064 -152.050259 
L 183.186958 -153.221897 
L 183.661852 -154.397142 
L 184.136745 -155.57584 
L 184.611639 -156.757836 
L 185.086533 -157.942971 
L 185.561426 -159.131084 
L 186.03632 -160.322013 
L 186.511213 -161.515593 
L 186.986107 -162.711654 
L 187.461001 -163.910027 
L 187.935894 -165.110541 
L 188.410788 -166.313019 
L 188.885682 -167.517286 
L 189.360575 -168.723162 
L 189.835469 -169.930466 
L 190.310362 -171.139015 
L 190.785256 -172.348623 
L 191.26015 -173.559104 
L 191.735043 -174.770268 
L 192.209937 -175.981923 
L 192.68483 -177.193877 
L 193.159724 -178.405934 
L 193.634618 -179.617898 
L 194.109511 -180.82957 
L 194.584405 -182.04075 
L 195.059299 -183.251236 
L 195.534192 -184.460825 
L 196.009086 -185.669311 
L 196.483979 -186.876488 
L 196.958873 -188.082148 
L 197.433767 -189.286081 
L 197.90866 -190.488078 
L 198.383554 -191.687925 
L 198.858447 -192.88541 
L 199.333341 -194.080319 
L 199.808235 -195.272436 
L 200.283128 -196.461544 
L 200.758022 -197.647427 
L 201.232916 -198.829865 
L 201.707809 -200.00864 
L 202.182703 -201.183532 
L 202.657596 -202.35432 
L 203.13249 -203.520783 
L 203.607384 -204.682699 
L 204.082277 -205.839846 
L 204.557171 -206.992001 
L 205.032064 -208.13894 
L 205.506958 -209.280441 
L 205.981852 -210.416279 
L 206.456745 -211.546231 
L 206.931639 -212.670072 
L 207.406533 -213.78758 
L 207.881426 -214.898529 
L 208.35632 -216.002697 
L 208.831213 -217.099859 
L 209.306107 -218.189793 
L 209.781001 -219.272276 
L 210.255894 -220.347084 
L 210.730788 -221.413997 
L 211.205682 -222.472792 
L 211.680575 -223.523249 
L 212.155469 -224.565148 
L 212.630362 -225.598271 
L 213.105256 -226.622397 
L 213.58015 -227.637311 
L 214.055043 -228.642796 
L 214.529937 -229.638637 
L 215.00483 -230.624619 
L 215.479724 -231.60053 
L 215.954618 -232.56616 
L 216.429511 -233.521296 
L 216.904405 -234.465733 
L 217.379299 -235.399261 
L 217.854192 -236.321677 
L 218.329086 -237.232776 
L 218.803979 -238.132357 
L 219.278873 -239.02022 
L 219.753767 -239.896168 
L 220.22866 -240.760003 
L 220.703554 -241.611533 
L 221.178447 -242.450565 
L 221.653341 -243.276911 
L 222.128235 -244.090382 
L 222.603128 -244.890796 
L 223.078022 -245.677968 
L 223.552916 -246.451719 
L 224.027809 -247.211873 
L 224.502703 -247.958254 
L 224.977596 -248.690691 
L 225.45249 -249.409014 
L 225.927384 -250.113058 
L 226.402277 -250.802658 
L 226.877171 -251.477656 
L 227.352064 -252.137892 
L 227.826958 -252.783214 
L 228.301852 -253.41347 
L 228.776745 -254.028512 
L 229.251639 -254.628196 
L 229.726533 -255.212381 
L 230.201426 -255.780928 
L 230.67632 -256.333703 
L 231.151213 -256.870576 
L 231.626107 -257.391418 
L 232.101001 -257.896107 
L 232.575894 -258.384521 
L 233.050788 -258.856545 
L 233.525682 -259.312066 
L 234.000575 -259.750974 
L 234.475469 -260.173166 
L 234.950362 -260.578539 
L 235.425256 -260.966996 
L 235.90015 -261.338444 
L 236.375043 -261.692793 
L 236.849937 -262.029958 
L 237.32483 -262.349858 
L 237.799724 -262.652415 
L 238.274618 -262.937557 
L 238.749511 -263.205214 
L 239.224405 -263.455321 
L 239.699299 -263.687819 
L 240.174192 -263.90265 
L 240.649086 -264.099762 
L 241.123979 -264.279108 
L 241.598873 -264.440644 
L 242.073767 -264.58433 
L 242.54866 -264.710132 
L 243.023554 -264.81802 
L 243.498447 -264.907966 
L 243.973341 -264.97995 
L 244.448235 -265.033953 
L 244.923128 -265.069962 
L 245.398022 -265.087969 
L 245.872916 -265.087969 
L 246.347809 -265.069962 
L 246.822703 -265.033953 
L 247.297596 -264.97995 
L 247.77249 -264.907966 
L 248.247384 -264.81802 
L 248.722277 -264.710132 
L 249.197171 -264.58433 
L 249.672064 -264.440644 
L 250.146958 -264.279108 
L 250.621852 -264.099762 
L 251.096745 -263.90265 
L 251.571639 -263.687819 
L 252.046533 -263.455321 
L 252.521426 -263.205214 
L 252.99632 -262.937557 
L 253.471213 -262.652415 
L 253.946107 -262.349858 
L 254.421001 -262.029958 
L 254.895894 -261.692793 
L 255.370788 -261.338444 
L 255.845682 -260.966996 
L 256.320575 -260.578539 
L 256.795469 -260.173166 
L 257.270362 -259.750974 
L 257.745256 -259.312066 
L 258.22015 -258.856545 
L 258.695043 -258.384521 
L 259.169937 -257.896107 
L 259.64483 -257.391418 
L 260.119724 -256.870576 
L 260.594618 -256.333703 
L 261.069511 -255.780928 
L 261.544405 -255.212381 
L 262.019299 -254.628196 
L 262.494192 -254.028512 
L 262.969086 -253.41347 
L 263.443979 -252.783214 
L 263.918873 -252.137892 
L 264.393767 -251.477656 
L 264.86866 -250.802658 
L 265.343554 -250.113058 
L 265.818447 -249.409014 
L 266.293341 -248.690691 
L 266.768235 -247.958254 
L 267.243128 -247.211873 
L 267.718022 -246.451719 
L 268.192916 -245.677968 
L 268.667809 -244.890796 
L 269.142703 -244.090382 
L 269.617596 -243.276911 
L 270.09249 -242.450565 
L 270.567384 -241.611533 
L 271.042277 -240.760003 
L 271.517171 -239.896168 
L 271.992064 -239.02022 
L 272.466958 -238.132357 
L 272.941852 -237.232776 
L 273.416745 -236.321677 
L 273.891639 -235.399261 
L 274.366533 -234.465733 
L 274.841426 -233.521296 
L 275.31632 -232.56616 
L 275.791213 -231.60053 
L 276.266107 -230.624619 
L 276.741001 -229.638637 
L 277.215894 -228.642796 
L 277.690788 -227.637311 
L 278.165682 -226.622397 
L 278.640575 -225.598271 
L 279.115469 -224.565148 
L 279.590362 -223.523249 
L 280.065256 -222.472792 
L 280.54015 -221.413997 
L 281.015043 -220.347084 
L 281.489937 -219.272276 
L 281.96483 -218.189793 
L 282.439724 -217.099859 
L 282.914618 -216.002697 
L 283.389511 -214.898529 
L 283.864405 -213.78758 
L 284.339299 -212.670072 
L 284.814192 -211.546231 
L 285.289086 -210.416279 
L 285.763979 -209.280441 
L 286.238873 -208.13894 
L 286.713767 -206.992001 
L 287.18866 -205.839846 
L 287.663554 -204.682699 
L 288.138447 -203.520783 
L 288.613341 -202.35432 
L 289.088235 -201.183532 
L 289.563128 -200.00864 
L 290.038022 -198.829865 
L 290.512916 -197.647427 
L 290.987809 -196.461544 
L 291.462703 -195.272436 
L 291.937596 -194.080319 
L 292.41249 -192.88541 
L 292.887384 -191.687925 
L 293.362277 -190.488078 
L 293.837171 -189.286081 
L 294.312064 -188.082148 
L 294.786958 -186.876488 
L 295.261852 -185.669311 
L 295.736745 -184.460825 
L 296.211639 -183.251236 
L 296.686533 -182.04075 
L 297.161426 -180.82957 
L 297.63632 -179.617898 
L 298.111213 -178.405934 
L 298.111213 -43.327969 
L 298.111213 -43.327969 
L 297.63632 -43.327969 
L 297.161426 -43.327969 
L 296.686533 -43.327969 
L 296.211639 -43.327969 
L 295.736745 -43.327969 
L 295.261852 -43.327969 
L 294.786958 -43.327969 
L 294.312064 -43.327969 
L 293.837171 -43.327969 
L 293.362277 -43.327969 
L 292.887384 -43.327969 
L 292.41249 -43.327969 
L 291.937596 -43.327969 
L 291.462703 -43.327969 
L 290.987809 -43.327969 
L 290.512916 -43.327969 
L 290.038022 -43.327969 
L 289.563128 -43.327969 
L 289.088235 -43.327969 
L 288.613341 -43.327969 
L 288.138447 -43.327969 
L 287.663554 -43.327969 
L 287.18866 -43.327969 
L 286.713767 -43.327969 
L 286.238873 -43.327969 
L 285.763979 -43.327969 
L 285.289086 -43.327969 
L 284.814192 -43.327969 
L 284.339299 -43.327969 
L 283.864405 -43.327969 
L 283.389511 -43.327969 
L 282.914618 -43.327969 
L 282.439724 -43.327969 
L 281.96483 -43.327969 
L 281.489937 -43.327969 
L 281.015043 -43.327969 
L 280.54015 -43.327969 
L 280.065256 -43.327969 
L 279.590362 -43.327969 
L 279.115469 -43.327969 
L 278.640575 -43.327969 
L 278.165682 -43.327969 
L 277.690788 -43.327969 
L 277.215894 -43.327969 
L 276.741001 -43.327969 
L 276.266107 -43.327969 
L 275.791213 -43.327969 
L 275.31632 -43.327969 
L 274.841426 -43.327969 
L 274.366533 -43.327969 
L 273.891639 -43.327969 
L 273.416745 -43.327969 
L 272.941852 -43.327969 
L 272.466958 -43.327969 
L 271.992064 -43.327969 
L 271.517171 -43.327969 
L 271.042277 -43.327969 
L 270.567384 -43.327969 
L 270.09249 -43.327969 
L 269.617596 -43.327969 
L 269.142703 -43.327969 
L 268.667809 -43.327969 
L 268.192916 -43.327969 
L 267.718022 -43.327969 
L 267.243128 -43.327969 
L 266.768235 -43.327969 
L 266.293341 -43.327969 
L 265.818447 -43.327969 
L 265.343554 -43.327969 
L 264.86866 -43.327969 
L 264.393767 -43.327969 
L 263.918873 -43.327969 
L 263.443979 -43.327969 
L 262.969086 -43.327969 
L 262.494192 -43.327969 
L 262.019299 -43.327969 
L 261.544405 -43.327969 
L 261.069511 -43.327969 
L 260.594618 -43.327969 
L 260.119724 -43.327969 
L 259.64483 -43.327969 
L 259.169937 -43.327969 
L 258.695043 -43.327969 
L 258.22015 -43.327969 
L 257.745256 -43.327969 
L 257.270362 -43.327969 
L 256.795469 -43.327969 
L 256.320575 -43.327969 
L 255.845682 -43.327969 
L 255.370788 -43.327969 
L 254.895894 -43.327969 
L 254.421001 -43.327969 
L 253.946107 -43.327969 
L 253.471213 -43.327969 
L 252.99632 -43.327969 
L 252.521426 -43.327969 
L 252.046533 -43.327969 
L 251.571639 -43.327969 
L 251.096745 -43.327969 
L 250.621852 -43.327969 
L 250.146958 -43.327969 
L 249.672064 -43.327969 
L 249.197171 -43.327969 
L 248.722277 -43.327969 
L 248.247384 -43.327969 
L 247.77249 -43.327969 
L 247.297596 -43.327969 
L 246.822703 -43.327969 
L 246.347809 -43.327969 
L 245.872916 -43.327969 
L 245.398022 -43.327969 
L 244.923128 -43.327969 
L 244.448235 -43.327969 
L 243.973341 -43.327969 
L 243.498447 -43.327969 
L 243.023554 -43.327969 
L 242.54866 -43.327969 
L 242.073767 -43.327969 
L 241.598873 -43.327969 
L 241.123979 -43.327969 
L 240.649086 -43.327969 
L 240.174192 -43.327969 
L 239.699299 -43.327969 
L 239.224405 -43.327969 
L 238.749511 -43.327969 
L 238.274618 -43.327969 
L 237.799724 -43.327969 
L 237.32483 -43.327969 
L 236.849937 -43.327969 
L 236.375043 -43.327969 
L 235.90015 -43.327969 
L 235.425256 -43.327969 
L 234.950362 -43.327969 
L 234.475469 -43.327969 
L 234.000575 -43.327969 
L 233.525682 -43.327969 
L 233.050788 -43.327969 
L 232.575894 -43.327969 
L 232.101001 -43.327969 
L 231.626107 -43.327969 
L 231.151213 -43.327969 
L 230.67632 -43.327969 
L 230.201426 -43.327969 
L 229.726533 -43.327969 
L 229.251639 -43.327969 
L 228.776745 -43.327969 
L 228.301852 -43.327969 
L 227.826958 -43.327969 
L 227.352064 -43.327969 
L 226.877171 -43.327969 
L 226.402277 -43.327969 
L 225.927384 -43.327969 
L 225.45249 -43.327969 
L 224.977596 -43.327969 
L 224.502703 -43.327969 
L 224.027809 -43.327969 
L 223.552916 -43.327969 
L 223.078022 -43.327969 
L 222.603128 -43.327969 
L 222.128235 -43.327969 
L 221.653341 -43.327969 
L 221.178447 -43.327969 
L 220.703554 -43.327969 
L 220.22866 -43.327969 
L 219.753767 -43.327969 
L 219.278873 -43.327969 
L 218.803979 -43.327969 
L 218.329086 -43.327969 
L 217.854192 -43.327969 
L 217.379299 -43.327969 
L 216.904405 -43.327969 
L 216.429511 -43.327969 
L 215.954618 -43.327969 
L 215.479724 -43.327969 
L 215.00483 -43.327969 
L 214.529937 -43.327969 
L 214.055043 -43.327969 
L 213.58015 -43.327969 
L 213.105256 -43.327969 
L 212.630362 -43.327969 
L 212.155469 -43.327969 
L 211.680575 -43.327969 
L 211.205682 -43.327969 
L 210.730788 -43.327969 
L 210.255894 -43.327969 
L 209.781001 -43.327969 
L 209.306107 -43.327969 
L 208.831213 -43.327969 
L 208.35632 -43.327969 
L 207.881426 -43.327969 
L 207.406533 -43.327969 
L 206.931639 -43.327969 
L 206.456745 -43.327969 
L 205.981852 -43.327969 
L 205.506958 -43.327969 
L 205.032064 -43.327969 
L 204.557171 -43.327969 
L 204.082277 -43.327969 
L 203.607384 -43.327969 
L 203.13249 -43.327969 
L 202.657596 -43.327969 
L 202.182703 -43.327969 
L 201.707809 -43.327969 
L 201.232916 -43.327969 
L 200.758022 -43.327969 
L 200.283128 -43.327969 
L 199.808235 -43.327969 
L 199.333341 -43.327969 
L 198.858447 -43.327969 
L 198.383554 -43.327969 
L 197.90866 -43.327969 
L 197.433767 -43.327969 
L 196.958873 -43.327969 
L 196.483979 -43.327969 
L 196.009086 -43.327969 
L 195.534192 -43.327969 
L 195.059299 -43.327969 
L 194.584405 -43.327969 
L 194.109511 -43.327969 
L 193.634618 -43.327969 
L 193.159724 -43.327969 
L 192.68483 -43.327969 
L 192.209937 -43.327969 
L 191.735043 -43.327969 
L 191.26015 -43.327969 
L 190.785256 -43.327969 
L 190.310362 -43.327969 
L 189.835469 -43.327969 
L 189.360575 -43.327969 
L 188.885682 -43.327969 
L 188.410788 -43.327969 
L 187.935894 -43.327969 
L 187.461001 -43.327969 
L 186.986107 -43.327969 
L 186.511213 -43.327969 
L 186.03632 -43.327969 
L 185.561426 -43.327969 
L 185.086533 -43.327969 
L 184.611639 -43.327969 
L 184.136745 -43.327969 
L 183.661852 -43.327969 
L 183.186958 -43.327969 
L 182.712064 -43.327969 
L 182.237171 -43.327969 
L 181.762277 -43.327969 
L 181.287384 -43.327969 
L 180.81249 -43.327969 
L 180.337596 -43.327969 
L 179.862703 -43.327969 
L 179.387809 -43.327969 
L 178.912916 -43.327969 
L 178.438022 -43.327969 
L 177.963128 -43.327969 
L 177.488235 -43.327969 
L 177.013341 -43.327969 
L 176.538447 -43.327969 
L 176.063554 -43.327969 
L 175.58866 -43.327969 
L 175.113767 -43.327969 
L 174.638873 -43.327969 
L 174.163979 -43.327969 
L 173.689086 -43.327969 
L 173.214192 -43.327969 
L 172.739299 -43.327969 
L 172.264405 -43.327969 
L 171.789511 -43.327969 
L 171.314618 -43.327969 
L 170.839724 -43.327969 
L 170.36483 -43.327969 
L 169.889937 -43.327969 
L 169.415043 -43.327969 
L 168.94015 -43.327969 
L 168.465256 -43.327969 
L 167.990362 -43.327969 
L 167.515469 -43.327969 
L 167.040575 -43.327969 
L 166.565682 -43.327969 
L 166.090788 -43.327969 
L 165.615894 -43.327969 
L 165.141001 -43.327969 
L 164.666107 -43.327969 
L 164.191213 -43.327969 
L 163.71632 -43.327969 
L 163.241426 -43.327969 
L 162.766533 -43.327969 
L 162.291639 -43.327969 
L 161.816745 -43.327969 
L 161.341852 -43.327969 
L 160.866958 -43.327969 
L 160.392064 -43.327969 
L 159.917171 -43.327969 
L 159.442277 -43.327969 
L 158.967384 -43.327969 
L 158.49249 -43.327969 
L 158.017596 -43.327969 
L 157.542703 -43.327969 
L 157.067809 -43.327969 
L 156.592916 -43.327969 
L 156.118022 -43.327969 
L 155.643128 -43.327969 
L 155.168235 -43.327969 
L 154.693341 -43.327969 
L 154.218447 -43.327969 
L 153.743554 -43.327969 
L 153.26866 -43.327969 
L 152.793767 -43.327969 
L 152.318873 -43.327969 
L 151.843979 -43.327969 
L 151.369086 -43.327969 
L 150.894192 -43.327969 
L 150.419299 -43.327969 
L 149.944405 -43.327969 
L 149.469511 -43.327969 
L 148.994618 -43.327969 
L 148.519724 -43.327969 
L 148.04483 -43.327969 
L 147.569937 -43.327969 
L 147.095043 -43.327969 
L 146.62015 -43.327969 
L 146.145256 -43.327969 
L 145.670362 -43.327969 
L 145.195469 -43.327969 
L 144.720575 -43.327969 
L 144.245682 -43.327969 
L 143.770788 -43.327969 
L 143.295894 -43.327969 
L 142.821001 -43.327969 
L 142.346107 -43.327969 
L 141.871213 -43.327969 
L 141.39632 -43.327969 
L 140.921426 -43.327969 
L 140.446533 -43.327969 
L 139.971639 -43.327969 
L 139.496745 -43.327969 
L 139.021852 -43.327969 
L 138.546958 -43.327969 
L 138.072064 -43.327969 
L 137.597171 -43.327969 
L 137.122277 -43.327969 
L 136.647384 -43.327969 
L 136.17249 -43.327969 
L 135.697596 -43.327969 
L 135.222703 -43.327969 
L 134.747809 -43.327969 
L 134.272916 -43.327969 
L 133.798022 -43.327969 
L 133.323128 -43.327969 
L 132.848235 -43.327969 
L 132.373341 -43.327969 
L 131.898447 -43.327969 
L 131.423554 -43.327969 
L 130.94866 -43.327969 
L 130.473767 -43.327969 
L 129.998873 -43.327969 
L 129.523979 -43.327969 
L 129.049086 -43.327969 
L 128.574192 -43.327969 
L 128.099299 -43.327969 
L 127.624405 -43.327969 
L 127.149511 -43.327969 
L 126.674618 -43.327969 
L 126.199724 -43.327969 
L 125.72483 -43.327969 
L 125.249937 -43.327969 
L 124.775043 -43.327969 
L 124.30015 -43.327969 
L 123.825256 -43.327969 
L 123.350362 -43.327969 
L 122.875469 -43.327969 
L 122.400575 -43.327969 
L 121.925682 -43.327969 
L 121.450788 -43.327969 
L 120.975894 -43.327969 
L 120.501001 -43.327969 
L 120.026107 -43.327969 
L 119.551213 -43.327969 
L 119.07632 -43.327969 
L 118.601426 -43.327969 
L 118.126533 -43.327969 
L 117.651639 -43.327969 
L 117.176745 -43.327969 
L 116.701852 -43.327969 
L 116.226958 -43.327969 
L 115.752064 -43.327969 
L 115.277171 -43.327969 
L 114.802277 -43.327969 
L 114.327384 -43.327969 
L 113.85249 -43.327969 
L 113.377596 -43.327969 
L 112.902703 -43.327969 
L 112.427809 -43.327969 
L 111.952916 -43.327969 
L 111.478022 -43.327969 
L 111.003128 -43.327969 
L 110.528235 -43.327969 
L 110.053341 -43.327969 
L 109.578447 -43.327969 
L 109.103554 -43.327969 
L 108.62866 -43.327969 
L 108.153767 -43.327969 
L 107.678873 -43.327969 
L 107.203979 -43.327969 
L 106.729086 -43.327969 
L 106.254192 -43.327969 
L 105.779299 -43.327969 
L 105.304405 -43.327969 
L 104.829511 -43.327969 
L 104.354618 -43.327969 
L 103.879724 -43.327969 
L 103.40483 -43.327969 
L 102.929937 -43.327969 
L 102.455043 -43.327969 
L 101.98015 -43.327969 
L 101.505256 -43.327969 
L 101.030362 -43.327969 
L 100.555469 -43.327969 
L 100.080575 -43.327969 
L 99.605682 -43.327969 
L 99.130788 -43.327969 
L 98.655894 -43.327969 
L 98.181001 -43.327969 
L 97.706107 -43.327969 
L 97.231213 -43.327969 
L 96.75632 -43.327969 
L 96.281426 -43.327969 
L 95.806533 -43.327969 
L 95.331639 -43.327969 
L 94.856745 -43.327969 
L 94.381852 -43.327969 
L 93.906958 -43.327969 
L 93.432064 -43.327969 
L 92.957171 -43.327969 
L 92.482277 -43.327969 
L 92.007384 -43.327969 
L 91.53249 -43.327969 
L 91.057596 -43.327969 
L 90.582703 -43.327969 
L 90.107809 -43.327969 
L 89.632916 -43.327969 
L 89.158022 -43.327969 
L 88.683128 -43.327969 
L 88.208235 -43.327969 
L 87.733341 -43.327969 
L 87.258447 -43.327969 
L 86.783554 -43.327969 
L 86.30866 -43.327969 
L 85.833767 -43.327969 
L 85.358873 -43.327969 
L 84.883979 -43.327969 
L 84.409086 -43.327969 
L 83.934192 -43.327969 
L 83.459299 -43.327969 
L 82.984405 -43.327969 
L 82.509511 -43.327969 
L 82.034618 -43.327969 
L 81.559724 -43.327969 
L 81.08483 -43.327969 
L 80.609937 -43.327969 
L 80.135043 -43.327969 
L 79.66015 -43.327969 
L 79.185256 -43.327969 
L 78.710362 -43.327969 
L 78.235469 -43.327969 
L 77.760575 -43.327969 
L 77.285682 -43.327969 
L 76.810788 -43.327969 
L 76.335894 -43.327969 
L 75.861001 -43.327969 
L 75.386107 -43.327969 
L 74.911213 -43.327969 
L 74.43632 -43.327969 
L 73.961426 -43.327969 
L 73.486533 -43.327969 
L 73.011639 -43.327969 
L 72.536745 -43.327969 
L 72.061852 -43.327969 
L 71.586958 -43.327969 
L 71.112064 -43.327969 
L 70.637171 -43.327969 
L 70.162277 -43.327969 
L 69.687384 -43.327969 
L 69.21249 -43.327969 
L 68.737596 -43.327969 
L 68.262703 -43.327969 
L 67.787809 -43.327969 
L 67.312916 -43.327969 
L 66.838022 -43.327969 
L 66.363128 -43.327969 
L 65.888235 -43.327969 
L 65.413341 -43.327969 
L 64.938447 -43.327969 
L 64.463554 -43.327969 
L 63.98866 -43.327969 
L 63.513767 -43.327969 
L 63.038873 -43.327969 
L 62.563979 -43.327969 
L 62.089086 -43.327969 
L 61.614192 -43.327969 
L 61.139299 -43.327969 
L 60.664405 -43.327969 
L 60.189511 -43.327969 
L 59.714618 -43.327969 
L 59.239724 -43.327969 
L 58.76483 -43.327969 
L 58.289937 -43.327969 
L 57.815043 -43.327969 
L 57.34015 -43.327969 
L 56.865256 -43.327969 
L 56.390362 -43.327969 
L 55.915469 -43.327969 
z
" style="stroke: #2980b9; stroke-opacity: 0.3"/>
    </defs>
    <g clip-path="url(#p1fb052b1c9)">
     <use xlink:href="#m05e934111a" x="0" y="308.095969" style="fill: #2980b9; fill-opacity: 0.3; stroke: #2980b9; stroke-opacity: 0.3"/>
    </g>
   </g>
   <g id="line2d_33">
    <path d="M 55.915469 264.427859 
L 66.838022 264.065942 
L 75.386107 263.566684 
L 82.509511 262.925818 
L 88.683128 262.138745 
L 93.906958 261.253136 
L 98.655894 260.230466 
L 102.929937 259.097453 
L 107.203979 257.727986 
L 111.003128 256.282348 
L 114.802277 254.592871 
L 118.126533 252.891559 
L 121.450788 250.96083 
L 124.775043 248.779968 
L 128.099299 246.328153 
L 131.423554 243.5848 
L 134.747809 240.529943 
L 138.072064 237.144672 
L 141.39632 233.411602 
L 144.720575 229.315383 
L 148.04483 224.843231 
L 151.369086 219.985485 
L 154.693341 214.736155 
L 158.017596 209.093474 
L 161.816745 202.1671 
L 165.615894 194.743889 
L 169.415043 186.846445 
L 173.689086 177.436479 
L 178.438022 166.404118 
L 183.661852 153.698827 
L 190.785256 135.747345 
L 203.13249 104.575186 
L 207.881426 93.197439 
L 212.155469 83.53082 
L 215.954618 75.529809 
L 219.278873 69.075748 
L 222.128235 64.005586 
L 224.977596 59.405278 
L 227.352064 55.958076 
L 229.726533 52.883588 
L 232.101001 50.199862 
L 234.000575 48.344994 
L 235.90015 46.757525 
L 237.799724 45.443554 
L 239.699299 44.40815 
L 241.598873 43.655325 
L 243.498447 43.188002 
L 245.398022 43.008 
L 247.297596 43.116019 
L 249.197171 43.511639 
L 251.096745 44.193319 
L 252.99632 45.158412 
L 254.895894 46.403176 
L 256.795469 47.922803 
L 258.695043 49.711448 
L 260.594618 51.762266 
L 262.969086 54.682499 
L 265.343554 57.982911 
L 267.718022 61.644249 
L 270.567384 66.484436 
L 273.416745 71.774292 
L 276.741001 78.457332 
L 280.54015 86.681972 
L 284.814192 96.549738 
L 289.563128 108.087329 
L 296.686533 126.055219 
L 308.558873 156.04571 
L 314.257596 169.771728 
L 319.006533 180.631596 
L 323.280575 189.861699 
L 327.079724 197.584602 
L 330.878873 204.823609 
L 334.678022 211.559855 
L 338.002277 217.034033 
L 341.326533 222.115067 
L 344.650788 226.806598 
L 347.975043 231.116258 
L 351.299299 235.055114 
L 354.623554 238.637117 
L 357.947809 241.878553 
L 361.272064 244.797521 
L 364.59632 247.413439 
L 367.920575 249.746588 
L 371.24483 251.8177 
L 374.569086 253.647588 
L 378.368235 255.469889 
L 382.167384 257.033869 
L 385.966533 258.368128 
L 390.240575 259.628118 
L 394.514618 260.667106 
L 399.263554 261.601668 
L 404.487384 262.407908 
L 410.661001 263.121374 
L 417.784405 263.699428 
L 426.33249 264.147159 
L 435.355469 264.427859 
L 435.355469 264.427859 
" clip-path="url(#p1fb052b1c9)" style="fill: none; stroke: #2980b9; stroke-width: 2.6; stroke-linecap: square"/>
   </g>
   <g id="line2d_34">
    <path d="M 298.335469 264.768 
L 298.335469 31.92 
" clip-path="url(#p1fb052b1c9)" style="fill: none; stroke-dasharray: 7.4,3.2; stroke-dashoffset: 0; stroke: #c0392b; stroke-opacity: 0.9; stroke-width: 2"/>
   </g>
   <g id="patch_3">
    <path d="M 55.915469 264.768 
L 55.915469 31.92 
" style="fill: none; stroke: #2c3e50; stroke-width: 1.2; stroke-linejoin: miter; stroke-linecap: square"/>
   </g>
   <g id="patch_4">
    <path d="M 55.915469 264.768 
L 435.355469 264.768 
" style="fill: none; stroke: #2c3e50; stroke-width: 1.2; stroke-linejoin: miter; stroke-linecap: square"/>
   </g>
   <g id="text_19">
    <!-- $z = 1$ -->
    <g style="fill: #c0392b" transform="translate(311.510469 231.415468) scale(0.11 -0.11)">
     <defs>
      <path id="DejaVuSans-Oblique-7a" d="M 744 3500 
L 3475 3500 
L 3372 2975 
L 738 459 
L 2913 459 
L 2822 0 
L -19 0 
L 84 525 
L 2719 3041 
L 653 3041 
L 744 3500 
z
" transform="scale(0.015625)"/>
      <path id="DejaVuSans-3d" d="M 678 2906 
L 4684 2906 
L 4684 2381 
L 678 2381 
L 678 2906 
z
M 678 1631 
L 4684 1631 
L 4684 1100 
L 678 1100 
L 678 1631 
z
" transform="scale(0.015625)"/>
     </defs>
     <use xlink:href="#DejaVuSans-Oblique-7a" transform="translate(0 0.09375)"/>
     <use xlink:href="#DejaVuSans-3d" transform="translate(71.972656 0.09375)"/>
     <use xlink:href="#DejaVuSans-31" transform="translate(175.244141 0.09375)"/>
    </g>
   </g>
   <g id="text_20">
    <!-- $\Phi(z)$ -->
    <g style="fill: #34495e" transform="translate(216.175469 198.062937) scale(0.13 -0.13)">
     <defs>
      <path id="DejaVuSans-3a6" d="M 2206 3644 
Q 1738 3578 1431 3306 
Q 1025 2947 1025 2328 
Q 1025 1713 1431 1353 
Q 1738 1081 2206 1016 
L 2206 3644 
z
M 2838 1016 
Q 3306 1081 3613 1353 
Q 4013 1713 4013 2328 
Q 4013 2947 3613 3306 
Q 3306 3578 2838 3644 
L 2838 1016 
z
M 2206 494 
Q 1444 563 950 981 
Q 359 1481 359 2328 
Q 359 3175 950 3678 
Q 1441 4100 2206 4169 
L 2206 4666 
L 2838 4666 
L 2838 4169 
Q 3600 4097 4091 3678 
Q 4678 3175 4678 2328 
Q 4678 1484 4091 981 
Q 3600 563 2838 491 
L 2838 0 
L 2206 0 
L 2206 494 
z
" transform="scale(0.015625)"/>
      <path id="DejaVuSans-28" d="M 1984 4856 
Q 1566 4138 1362 3434 
Q 1159 2731 1159 2009 
Q 1159 1288 1364 580 
Q 1569 -128 1984 -844 
L 1484 -844 
Q 1016 -109 783 600 
Q 550 1309 550 2009 
Q 550 2706 781 3412 
Q 1013 4119 1484 4856 
L 1984 4856 
z
" transform="scale(0.015625)"/>
      <path id="DejaVuSans-29" d="M 513 4856 
L 1013 4856 
Q 1481 4119 1714 3412 
Q 1947 2706 1947 2009 
Q 1947 1309 1714 600 
Q 1481 -109 1013 -844 
L 513 -844 
Q 928 -128 1133 580 
Q 1338 1288 1338 2009 
Q 1338 2731 1133 3434 
Q 928 4138 513 4856 
z
" transform="scale(0.015625)"/>
     </defs>
     <use xlink:href="#DejaVuSans-3a6" transform="translate(0 0.125)"/>
     <use xlink:href="#DejaVuSans-28" transform="translate(78.710938 0.125)"/>
     <use xlink:href="#DejaVuSans-Oblique-7a" transform="translate(117.724609 0.125)"/>
     <use xlink:href="#DejaVuSans-29" transform="translate(170.214844 0.125)"/>
    </g>
   </g>
   <g id="text_21">
    <!-- Normal estándar: área a la izquierda de $z$ = $\Phi(z)$ -->
    <g transform="translate(70.395469 21.92) scale(0.13 -0.13)">
     <defs>
      <path id="DejaVuSans-Bold-4e" d="M 588 4666 
L 1931 4666 
L 3628 1466 
L 3628 4666 
L 4769 4666 
L 4769 0 
L 3425 0 
L 1728 3200 
L 1728 0 
L 588 0 
L 588 4666 
z
" transform="scale(0.015625)"/>
      <path id="DejaVuSans-Bold-6f" d="M 2203 2784 
Q 1831 2784 1636 2517 
Q 1441 2250 1441 1747 
Q 1441 1244 1636 976 
Q 1831 709 2203 709 
Q 2569 709 2762 976 
Q 2956 1244 2956 1747 
Q 2956 2250 2762 2517 
Q 2569 2784 2203 2784 
z
M 2203 3584 
Q 3106 3584 3614 3096 
Q 4122 2609 4122 1747 
Q 4122 884 3614 396 
Q 3106 -91 2203 -91 
Q 1297 -91 786 396 
Q 275 884 275 1747 
Q 275 2609 786 3096 
Q 1297 3584 2203 3584 
z
" transform="scale(0.015625)"/>
      <path id="DejaVuSans-Bold-72" d="M 3138 2547 
Q 2991 2616 2845 2648 
Q 2700 2681 2553 2681 
Q 2122 2681 1889 2404 
Q 1656 2128 1656 1613 
L 1656 0 
L 538 0 
L 538 3500 
L 1656 3500 
L 1656 2925 
Q 1872 3269 2151 3426 
Q 2431 3584 2822 3584 
Q 2878 3584 2943 3579 
Q 3009 3575 3134 3559 
L 3138 2547 
z
" transform="scale(0.015625)"/>
      <path id="DejaVuSans-Bold-6d" d="M 3781 2919 
Q 3994 3244 4286 3414 
Q 4578 3584 4928 3584 
Q 5531 3584 5847 3212 
Q 6163 2841 6163 2131 
L 6163 0 
L 5038 0 
L 5038 1825 
Q 5041 1866 5042 1909 
Q 5044 1953 5044 2034 
Q 5044 2406 4934 2573 
Q 4825 2741 4581 2741 
Q 4263 2741 4089 2478 
Q 3916 2216 3909 1719 
L 3909 0 
L 2784 0 
L 2784 1825 
Q 2784 2406 2684 2573 
Q 2584 2741 2328 2741 
Q 2006 2741 1831 2477 
Q 1656 2213 1656 1722 
L 1656 0 
L 531 0 
L 531 3500 
L 1656 3500 
L 1656 2988 
Q 1863 3284 2130 3434 
Q 2397 3584 2719 3584 
Q 3081 3584 3359 3409 
Q 3638 3234 3781 2919 
z
" transform="scale(0.015625)"/>
      <path id="DejaVuSans-Bold-6c" d="M 538 4863 
L 1656 4863 
L 1656 0 
L 538 0 
L 538 4863 
z
" transform="scale(0.015625)"/>
      <path id="DejaVuSans-Bold-20" transform="scale(0.015625)"/>
      <path id="DejaVuSans-Bold-74" d="M 1759 4494 
L 1759 3500 
L 2913 3500 
L 2913 2700 
L 1759 2700 
L 1759 1216 
Q 1759 972 1856 886 
Q 1953 800 2241 800 
L 2816 800 
L 2816 0 
L 1856 0 
Q 1194 0 917 276 
Q 641 553 641 1216 
L 641 2700 
L 84 2700 
L 84 3500 
L 641 3500 
L 641 4494 
L 1759 4494 
z
" transform="scale(0.015625)"/>
      <path id="DejaVuSans-Bold-e1" d="M 2106 1575 
Q 1756 1575 1579 1456 
Q 1403 1338 1403 1106 
Q 1403 894 1545 773 
Q 1688 653 1941 653 
Q 2256 653 2472 879 
Q 2688 1106 2688 1447 
L 2688 1575 
L 2106 1575 
z
M 3816 1997 
L 3816 0 
L 2688 0 
L 2688 519 
Q 2463 200 2181 54 
Q 1900 -91 1497 -91 
Q 953 -91 614 226 
Q 275 544 275 1050 
Q 275 1666 698 1953 
Q 1122 2241 2028 2241 
L 2688 2241 
L 2688 2328 
Q 2688 2594 2478 2717 
Q 2269 2841 1825 2841 
Q 1466 2841 1156 2769 
Q 847 2697 581 2553 
L 581 3406 
Q 941 3494 1303 3539 
Q 1666 3584 2028 3584 
Q 2975 3584 3395 3211 
Q 3816 2838 3816 1997 
z
M 2606 5119 
L 3490 5119 
L 2337 3944 
L 1725 3944 
L 2606 5119 
z
" transform="scale(0.015625)"/>
      <path id="DejaVuSans-Bold-3a" d="M 716 3500 
L 1844 3500 
L 1844 2291 
L 716 2291 
L 716 3500 
z
M 716 1209 
L 1844 1209 
L 1844 0 
L 716 0 
L 716 1209 
z
" transform="scale(0.015625)"/>
      <path id="DejaVuSans-Bold-71" d="M 2181 2772 
Q 1825 2772 1636 2509 
Q 1447 2247 1447 1747 
Q 1447 1247 1636 984 
Q 1825 722 2181 722 
Q 2541 722 2730 984 
Q 2919 1247 2919 1747 
Q 2919 2247 2730 2509 
Q 2541 2772 2181 2772 
z
M 2919 506 
Q 2688 197 2409 53 
Q 2131 -91 1766 -91 
Q 1119 -91 703 423 
Q 288 938 288 1747 
Q 288 2556 703 3067 
Q 1119 3578 1766 3578 
Q 2131 3578 2409 3434 
Q 2688 3291 2919 2981 
L 2919 3500 
L 4044 3500 
L 4044 -1331 
L 2919 -1331 
L 2919 506 
z
" transform="scale(0.015625)"/>
      <path id="DejaVuSans-Bold-75" d="M 500 1363 
L 500 3500 
L 1625 3500 
L 1625 3150 
Q 1625 2866 1622 2436 
Q 1619 2006 1619 1863 
Q 1619 1441 1641 1255 
Q 1663 1069 1716 984 
Q 1784 875 1895 815 
Q 2006 756 2150 756 
Q 2500 756 2700 1025 
Q 2900 1294 2900 1772 
L 2900 3500 
L 4019 3500 
L 4019 0 
L 2900 0 
L 2900 506 
Q 2647 200 2364 54 
Q 2081 -91 1741 -91 
Q 1134 -91 817 281 
Q 500 653 500 1363 
z
" transform="scale(0.015625)"/>
      <path id="DejaVuSans-Bold-3d" d="M 678 3084 
L 4684 3084 
L 4684 2350 
L 678 2350 
L 678 3084 
z
M 678 1663 
L 4684 1663 
L 4684 922 
L 678 922 
L 678 1663 
z
" transform="scale(0.015625)"/>
     </defs>
     <use xlink:href="#DejaVuSans-Bold-4e" transform="translate(0 0.015625)"/>
     <use xlink:href="#DejaVuSans-Bold-6f" transform="translate(83.691406 0.015625)"/>
     <use xlink:href="#DejaVuSans-Bold-72" transform="translate(152.392578 0.015625)"/>
     <use xlink:href="#DejaVuSans-Bold-6d" transform="translate(201.708984 0.015625)"/>
     <use xlink:href="#DejaVuSans-Bold-61" transform="translate(305.908203 0.015625)"/>
     <use xlink:href="#DejaVuSans-Bold-6c" transform="translate(373.388672 0.015625)"/>
     <use xlink:href="#DejaVuSans-Bold-20" transform="translate(407.666016 0.015625)"/>
     <use xlink:href="#DejaVuSans-Bold-65" transform="translate(442.480469 0.015625)"/>
     <use xlink:href="#DejaVuSans-Bold-73" transform="translate(510.302734 0.015625)"/>
     <use xlink:href="#DejaVuSans-Bold-74" transform="translate(569.824219 0.015625)"/>
     <use xlink:href="#DejaVuSans-Bold-e1" transform="translate(617.626953 0.015625)"/>
     <use xlink:href="#DejaVuSans-Bold-6e" transform="translate(685.107422 0.015625)"/>
     <use xlink:href="#DejaVuSans-Bold-64" transform="translate(756.298828 0.015625)"/>
     <use xlink:href="#DejaVuSans-Bold-61" transform="translate(827.880859 0.015625)"/>
     <use xlink:href="#DejaVuSans-Bold-72" transform="translate(895.361328 0.015625)"/>
     <use xlink:href="#DejaVuSans-Bold-3a" transform="translate(944.677734 0.015625)"/>
     <use xlink:href="#DejaVuSans-Bold-20" transform="translate(984.667969 0.015625)"/>
     <use xlink:href="#DejaVuSans-Bold-e1" transform="translate(1019.482422 0.015625)"/>
     <use xlink:href="#DejaVuSans-Bold-72" transform="translate(1086.962891 0.015625)"/>
     <use xlink:href="#DejaVuSans-Bold-65" transform="translate(1136.279297 0.015625)"/>
     <use xlink:href="#DejaVuSans-Bold-61" transform="translate(1204.101562 0.015625)"/>
     <use xlink:href="#DejaVuSans-Bold-20" transform="translate(1271.582031 0.015625)"/>
     <use xlink:href="#DejaVuSans-Bold-61" transform="translate(1306.396484 0.015625)"/>
     <use xlink:href="#DejaVuSans-Bold-20" transform="translate(1373.876953 0.015625)"/>
     <use xlink:href="#DejaVuSans-Bold-6c" transform="translate(1408.691406 0.015625)"/>
     <use xlink:href="#DejaVuSans-Bold-61" transform="translate(1442.96875 0.015625)"/>
     <use xlink:href="#DejaVuSans-Bold-20" transform="translate(1510.449219 0.015625)"/>
     <use xlink:href="#DejaVuSans-Bold-69" transform="translate(1545.263672 0.015625)"/>
     <use xlink:href="#DejaVuSans-Bold-7a" transform="translate(1579.541016 0.015625)"/>
     <use xlink:href="#DejaVuSans-Bold-71" transform="translate(1637.744141 0.015625)"/>
     <use xlink:href="#DejaVuSans-Bold-75" transform="translate(1709.326172 0.015625)"/>
     <use xlink:href="#DejaVuSans-Bold-69" transform="translate(1780.517578 0.015625)"/>
     <use xlink:href="#DejaVuSans-Bold-65" transform="translate(1814.794922 0.015625)"/>
     <use xlink:href="#DejaVuSans-Bold-72" transform="translate(1882.617188 0.015625)"/>
     <use xlink:href="#DejaVuSans-Bold-64" transform="translate(1931.933594 0.015625)"/>
     <use xlink:href="#DejaVuSans-Bold-61" transform="translate(2003.515625 0.015625)"/>
     <use xlink:href="#DejaVuSans-Bold-20" transform="translate(2070.996094 0.015625)"/>
     <use xlink:href="#DejaVuSans-Bold-64" transform="translate(2105.810547 0.015625)"/>
     <use xlink:href="#DejaVuSans-Bold-65" transform="translate(2177.392578 0.015625)"/>
     <use xlink:href="#DejaVuSans-Bold-20" transform="translate(2245.214844 0.015625)"/>
     <use xlink:href="#DejaVuSans-Oblique-7a" transform="translate(2280.029297 0.015625)"/>
     <use xlink:href="#DejaVuSans-Bold-20" transform="translate(2332.519531 0.015625)"/>
     <use xlink:href="#DejaVuSans-Bold-3d" transform="translate(2367.333984 0.015625)"/>
     <use xlink:href="#DejaVuSans-Bold-20" transform="translate(2451.123047 0.015625)"/>
     <use xlink:href="#DejaVuSans-3a6" transform="translate(2485.9375 0.015625)"/>
     <use xlink:href="#DejaVuSans-28" transform="translate(2564.648438 0.015625)"/>
     <use xlink:href="#DejaVuSans-Oblique-7a" transform="translate(2603.662109 0.015625)"/>
     <use xlink:href="#DejaVuSans-29" transform="translate(2656.152344 0.015625)"/>
    </g>
   </g>
   <g id="legend_1">
    <g id="patch_5">
     <path d="M 62.565469 53.464219 
L 158.610469 53.464219 
Q 160.510469 53.464219 160.510469 51.564219 
L 160.510469 38.57 
Q 160.510469 36.67 158.610469 36.67 
L 62.565469 36.67 
Q 60.665469 36.67 60.665469 38.57 
L 60.665469 51.564219 
Q 60.665469 53.464219 62.565469 53.464219 
z
" style="fill: #ffffff; opacity: 0.92; stroke: #cccccc; stroke-linejoin: miter"/>
    </g>
    <g id="patch_6">
     <path d="M 64.465469 47.688516 
L 83.465469 47.688516 
L 83.465469 41.038516 
L 64.465469 41.038516 
z
" style="fill: #2980b9; fill-opacity: 0.3; stroke: #2980b9; stroke-opacity: 0.3; stroke-linejoin: miter"/>
    </g>
    <g id="text_22">
     <!-- $\Phi(1) = 0.8413$ -->
     <g transform="translate(91.065469 47.688516) scale(0.095 -0.095)">
      <defs>
       <path id="DejaVuSans-38" d="M 2034 2216 
Q 1584 2216 1326 1975 
Q 1069 1734 1069 1313 
Q 1069 891 1326 650 
Q 1584 409 2034 409 
Q 2484 409 2743 651 
Q 3003 894 3003 1313 
Q 3003 1734 2745 1975 
Q 2488 2216 2034 2216 
z
M 1403 2484 
Q 997 2584 770 2862 
Q 544 3141 544 3541 
Q 544 4100 942 4425 
Q 1341 4750 2034 4750 
Q 2731 4750 3128 4425 
Q 3525 4100 3525 3541 
Q 3525 3141 3298 2862 
Q 3072 2584 2669 2484 
Q 3125 2378 3379 2068 
Q 3634 1759 3634 1313 
Q 3634 634 3220 271 
Q 2806 -91 2034 -91 
Q 1263 -91 848 271 
Q 434 634 434 1313 
Q 434 1759 690 2068 
Q 947 2378 1403 2484 
z
M 1172 3481 
Q 1172 3119 1398 2916 
Q 1625 2713 2034 2713 
Q 2441 2713 2670 2916 
Q 2900 3119 2900 3481 
Q 2900 3844 2670 4047 
Q 2441 4250 2034 4250 
Q 1625 4250 1398 4047 
Q 1172 3844 1172 3481 
z
" transform="scale(0.015625)"/>
      </defs>
      <use xlink:href="#DejaVuSans-3a6" transform="translate(0 0.125)"/>
      <use xlink:href="#DejaVuSans-28" transform="translate(78.710938 0.125)"/>
      <use xlink:href="#DejaVuSans-31" transform="translate(117.724609 0.125)"/>
      <use xlink:href="#DejaVuSans-29" transform="translate(181.347656 0.125)"/>
      <use xlink:href="#DejaVuSans-3d" transform="translate(239.84375 0.125)"/>
      <use xlink:href="#DejaVuSans-30" transform="translate(343.115234 0.125)"/>
      <use xlink:href="#DejaVuSans-2e" transform="translate(406.738281 0.125)"/>
      <use xlink:href="#DejaVuSans-38" transform="translate(435.900391 0.125)"/>
      <use xlink:href="#DejaVuSans-34" transform="translate(499.523438 0.125)"/>
      <use xlink:href="#DejaVuSans-31" transform="translate(563.146484 0.125)"/>
      <use xlink:href="#DejaVuSans-33" transform="translate(626.769531 0.125)"/>
     </g>
    </g>
   </g>
  </g>
 </g>
 <defs>
  <clipPath id="p1fb052b1c9">
   <rect x="55.915469" y="31.92" width="379.44" height="232.848"/>
  </clipPath>
 </defs>
</svg>
