<?xml version="1.0" encoding="utf-8" standalone="no"?>
<!DOCTYPE svg PUBLIC "-//W3C//DTD SVG 1.1//EN"
  "http://www.w3.org/Graphics/SVG/1.1/DTD/svg11.dtd">
<svg xmlns:xlink="http://www.w3.org/1999/xlink" width="470.814844pt" height="313.143094pt" viewBox="0 0 470.814844 313.143094" xmlns="http://www.w3.org/2000/svg" version="1.1">
 <metadata>
  <rdf:RDF xmlns:dc="http://purl.org/dc/elements/1.1/" xmlns:cc="http://creativecommons.org/ns#" xmlns:rdf="http://www.w3.org/1999/02/22-rdf-syntax-ns#">
   <cc:Work>
    <dc:type rdf:resource="http://purl.org/dc/dcmitype/StillImage"/>
    <dc:date>2026-06-30T11:57:15.074668</dc:date>
    <dc:format>image/svg+xml</dc:format>
    <dc:creator>
     <cc:Agent>
      <dc:title>Matplotlib v3.9.2, https://matplotlib.org/</dc:title>
     </cc:Agent>
    </dc:creator>
   </cc:Work>
  </rdf:RDF>
 </metadata>
 <defs>
  <style type="text/css">*{stroke-linejoin: round; stroke-linecap: butt}</style>
 </defs>
 <g id="figure_1">
  <g id="patch_1">
   <path d="M 0 313.143094 
L 470.814844 313.143094 
L 470.814844 0 
L 0 0 
z
" style="fill: #ffffff"/>
  </g>
  <g id="axes_1">
   <g id="patch_2">
    <path d="M 46.374844 269.789969 
L 459.294844 269.789969 
L 459.294844 31.397969 
L 46.374844 31.397969 
z
" style="fill: #ffffff"/>
   </g>
   <g id="matplotlib.axis_1">
    <g id="xtick_1">
     <g id="line2d_1">
      <path d="M 54.315613 269.789969 
L 54.315613 31.397969 
" clip-path="url(#p5cce2b8243)" style="fill: none; stroke-dasharray: 0.8,1.28; stroke-dashoffset: 0; stroke: #b0b0b0; stroke-opacity: 0.3; stroke-width: 0.8"/>
     </g>
     <g id="line2d_2">
      <defs>
       <path id="mf6ea1c7879" d="M 0 0 
L 0 3.5 
" style="stroke: #2c3e50; stroke-width: 0.8"/>
      </defs>
      <g>
       <use xlink:href="#mf6ea1c7879" x="54.315613" y="269.789969" style="fill: #2c3e50; stroke: #2c3e50; stroke-width: 0.8"/>
      </g>
     </g>
     <g id="text_1">
      <!-- 0 -->
      <g style="fill: #2c3e50" transform="translate(51.134363 284.388406) scale(0.1 -0.1)">
       <defs>
        <path id="DejaVuSans-30" d="M 2034 4250 
Q 1547 4250 1301 3770 
Q 1056 3291 1056 2328 
Q 1056 1369 1301 889 
Q 1547 409 2034 409 
Q 2525 409 2770 889 
Q 3016 1369 3016 2328 
Q 3016 3291 2770 3770 
Q 2525 4250 2034 4250 
z
M 2034 4750 
Q 2819 4750 3233 4129 
Q 3647 3509 3647 2328 
Q 3647 1150 3233 529 
Q 2819 -91 2034 -91 
Q 1250 -91 836 529 
Q 422 1150 422 2328 
Q 422 3509 836 4129 
Q 1250 4750 2034 4750 
z
" transform="scale(0.015625)"/>
       </defs>
       <use xlink:href="#DejaVuSans-30"/>
      </g>
     </g>
    </g>
    <g id="xtick_2">
     <g id="line2d_3">
      <path d="M 133.723305 269.789969 
L 133.723305 31.397969 
" clip-path="url(#p5cce2b8243)" style="fill: none; stroke-dasharray: 0.8,1.28; stroke-dashoffset: 0; stroke: #b0b0b0; stroke-opacity: 0.3; stroke-width: 0.8"/>
     </g>
     <g id="line2d_4">
      <g>
       <use xlink:href="#mf6ea1c7879" x="133.723305" y="269.789969" style="fill: #2c3e50; stroke: #2c3e50; stroke-width: 0.8"/>
      </g>
     </g>
     <g id="text_2">
      <!-- 2 -->
      <g style="fill: #2c3e50" transform="translate(130.542055 284.388406) scale(0.1 -0.1)">
       <defs>
        <path id="DejaVuSans-32" d="M 1228 531 
L 3431 531 
L 3431 0 
L 469 0 
L 469 531 
Q 828 903 1448 1529 
Q 2069 2156 2228 2338 
Q 2531 2678 2651 2914 
Q 2772 3150 2772 3378 
Q 2772 3750 2511 3984 
Q 2250 4219 1831 4219 
Q 1534 4219 1204 4116 
Q 875 4013 500 3803 
L 500 4441 
Q 881 4594 1212 4672 
Q 1544 4750 1819 4750 
Q 2544 4750 2975 4387 
Q 3406 4025 3406 3419 
Q 3406 3131 3298 2873 
Q 3191 2616 2906 2266 
Q 2828 2175 2409 1742 
Q 1991 1309 1228 531 
z
" transform="scale(0.015625)"/>
       </defs>
       <use xlink:href="#DejaVuSans-32"/>
      </g>
     </g>
    </g>
    <g id="xtick_3">
     <g id="line2d_5">
      <path d="M 213.130998 269.789969 
L 213.130998 31.397969 
" clip-path="url(#p5cce2b8243)" style="fill: none; stroke-dasharray: 0.8,1.28; stroke-dashoffset: 0; stroke: #b0b0b0; stroke-opacity: 0.3; stroke-width: 0.8"/>
     </g>
     <g id="line2d_6">
      <g>
       <use xlink:href="#mf6ea1c7879" x="213.130998" y="269.789969" style="fill: #2c3e50; stroke: #2c3e50; stroke-width: 0.8"/>
      </g>
     </g>
     <g id="text_3">
      <!-- 4 -->
      <g style="fill: #2c3e50" transform="translate(209.949748 284.388406) scale(0.1 -0.1)">
       <defs>
        <path id="DejaVuSans-34" d="M 2419 4116 
L 825 1625 
L 2419 1625 
L 2419 4116 
z
M 2253 4666 
L 3047 4666 
L 3047 1625 
L 3713 1625 
L 3713 1100 
L 3047 1100 
L 3047 0 
L 2419 0 
L 2419 1100 
L 313 1100 
L 313 1709 
L 2253 4666 
z
" transform="scale(0.015625)"/>
       </defs>
       <use xlink:href="#DejaVuSans-34"/>
      </g>
     </g>
    </g>
    <g id="xtick_4">
     <g id="line2d_7">
      <path d="M 292.53869 269.789969 
L 292.53869 31.397969 
" clip-path="url(#p5cce2b8243)" style="fill: none; stroke-dasharray: 0.8,1.28; stroke-dashoffset: 0; stroke: #b0b0b0; stroke-opacity: 0.3; stroke-width: 0.8"/>
     </g>
     <g id="line2d_8">
      <g>
       <use xlink:href="#mf6ea1c7879" x="292.53869" y="269.789969" style="fill: #2c3e50; stroke: #2c3e50; stroke-width: 0.8"/>
      </g>
     </g>
     <g id="text_4">
      <!-- 6 -->
      <g style="fill: #2c3e50" transform="translate(289.35744 284.388406) scale(0.1 -0.1)">
       <defs>
        <path id="DejaVuSans-36" d="M 2113 2584 
Q 1688 2584 1439 2293 
Q 1191 2003 1191 1497 
Q 1191 994 1439 701 
Q 1688 409 2113 409 
Q 2538 409 2786 701 
Q 3034 994 3034 1497 
Q 3034 2003 2786 2293 
Q 2538 2584 2113 2584 
z
M 3366 4563 
L 3366 3988 
Q 3128 4100 2886 4159 
Q 2644 4219 2406 4219 
Q 1781 4219 1451 3797 
Q 1122 3375 1075 2522 
Q 1259 2794 1537 2939 
Q 1816 3084 2150 3084 
Q 2853 3084 3261 2657 
Q 3669 2231 3669 1497 
Q 3669 778 3244 343 
Q 2819 -91 2113 -91 
Q 1303 -91 875 529 
Q 447 1150 447 2328 
Q 447 3434 972 4092 
Q 1497 4750 2381 4750 
Q 2619 4750 2861 4703 
Q 3103 4656 3366 4563 
z
" transform="scale(0.015625)"/>
       </defs>
       <use xlink:href="#DejaVuSans-36"/>
      </g>
     </g>
    </g>
    <g id="xtick_5">
     <g id="line2d_9">
      <path d="M 371.946382 269.789969 
L 371.946382 31.397969 
" clip-path="url(#p5cce2b8243)" style="fill: none; stroke-dasharray: 0.8,1.28; stroke-dashoffset: 0; stroke: #b0b0b0; stroke-opacity: 0.3; stroke-width: 0.8"/>
     </g>
     <g id="line2d_10">
      <g>
       <use xlink:href="#mf6ea1c7879" x="371.946382" y="269.789969" style="fill: #2c3e50; stroke: #2c3e50; stroke-width: 0.8"/>
      </g>
     </g>
     <g id="text_5">
      <!-- 8 -->
      <g style="fill: #2c3e50" transform="translate(368.765132 284.388406) scale(0.1 -0.1)">
       <defs>
        <path id="DejaVuSans-38" d="M 2034 2216 
Q 1584 2216 1326 1975 
Q 1069 1734 1069 1313 
Q 1069 891 1326 650 
Q 1584 409 2034 409 
Q 2484 409 2743 651 
Q 3003 894 3003 1313 
Q 3003 1734 2745 1975 
Q 2488 2216 2034 2216 
z
M 1403 2484 
Q 997 2584 770 2862 
Q 544 3141 544 3541 
Q 544 4100 942 4425 
Q 1341 4750 2034 4750 
Q 2731 4750 3128 4425 
Q 3525 4100 3525 3541 
Q 3525 3141 3298 2862 
Q 3072 2584 2669 2484 
Q 3125 2378 3379 2068 
Q 3634 1759 3634 1313 
Q 3634 634 3220 271 
Q 2806 -91 2034 -91 
Q 1263 -91 848 271 
Q 434 634 434 1313 
Q 434 1759 690 2068 
Q 947 2378 1403 2484 
z
M 1172 3481 
Q 1172 3119 1398 2916 
Q 1625 2713 2034 2713 
Q 2441 2713 2670 2916 
Q 2900 3119 2900 3481 
Q 2900 3844 2670 4047 
Q 2441 4250 2034 4250 
Q 1625 4250 1398 4047 
Q 1172 3844 1172 3481 
z
" transform="scale(0.015625)"/>
       </defs>
       <use xlink:href="#DejaVuSans-38"/>
      </g>
     </g>
    </g>
    <g id="xtick_6">
     <g id="line2d_11">
      <path d="M 451.354075 269.789969 
L 451.354075 31.397969 
" clip-path="url(#p5cce2b8243)" style="fill: none; stroke-dasharray: 0.8,1.28; stroke-dashoffset: 0; stroke: #b0b0b0; stroke-opacity: 0.3; stroke-width: 0.8"/>
     </g>
     <g id="line2d_12">
      <g>
       <use xlink:href="#mf6ea1c7879" x="451.354075" y="269.789969" style="fill: #2c3e50; stroke: #2c3e50; stroke-width: 0.8"/>
      </g>
     </g>
     <g id="text_6">
      <!-- 10 -->
      <g style="fill: #2c3e50" transform="translate(444.991575 284.388406) scale(0.1 -0.1)">
       <defs>
        <path id="DejaVuSans-31" d="M 794 531 
L 1825 531 
L 1825 4091 
L 703 3866 
L 703 4441 
L 1819 4666 
L 2450 4666 
L 2450 531 
L 3481 531 
L 3481 0 
L 794 0 
L 794 531 
z
" transform="scale(0.015625)"/>
       </defs>
       <use xlink:href="#DejaVuSans-31"/>
       <use xlink:href="#DejaVuSans-30" x="63.623047"/>
      </g>
     </g>
    </g>
    <g id="text_7">
     <!-- tiempo $t$ -->
     <g transform="translate(225.867344 299.208094) scale(0.115 -0.115)">
      <defs>
       <path id="DejaVuSans-Bold-74" d="M 1759 4494 
L 1759 3500 
L 2913 3500 
L 2913 2700 
L 1759 2700 
L 1759 1216 
Q 1759 972 1856 886 
Q 1953 800 2241 800 
L 2816 800 
L 2816 0 
L 1856 0 
Q 1194 0 917 276 
Q 641 553 641 1216 
L 641 2700 
L 84 2700 
L 84 3500 
L 641 3500 
L 641 4494 
L 1759 4494 
z
" transform="scale(0.015625)"/>
       <path id="DejaVuSans-Bold-69" d="M 538 3500 
L 1656 3500 
L 1656 0 
L 538 0 
L 538 3500 
z
M 538 4863 
L 1656 4863 
L 1656 3950 
L 538 3950 
L 538 4863 
z
" transform="scale(0.015625)"/>
       <path id="DejaVuSans-Bold-65" d="M 4031 1759 
L 4031 1441 
L 1416 1441 
Q 1456 1047 1700 850 
Q 1944 653 2381 653 
Q 2734 653 3104 758 
Q 3475 863 3866 1075 
L 3866 213 
Q 3469 63 3072 -14 
Q 2675 -91 2278 -91 
Q 1328 -91 801 392 
Q 275 875 275 1747 
Q 275 2603 792 3093 
Q 1309 3584 2216 3584 
Q 3041 3584 3536 3087 
Q 4031 2591 4031 1759 
z
M 2881 2131 
Q 2881 2450 2695 2645 
Q 2509 2841 2209 2841 
Q 1884 2841 1681 2658 
Q 1478 2475 1428 2131 
L 2881 2131 
z
" transform="scale(0.015625)"/>
       <path id="DejaVuSans-Bold-6d" d="M 3781 2919 
Q 3994 3244 4286 3414 
Q 4578 3584 4928 3584 
Q 5531 3584 5847 3212 
Q 6163 2841 6163 2131 
L 6163 0 
L 5038 0 
L 5038 1825 
Q 5041 1866 5042 1909 
Q 5044 1953 5044 2034 
Q 5044 2406 4934 2573 
Q 4825 2741 4581 2741 
Q 4263 2741 4089 2478 
Q 3916 2216 3909 1719 
L 3909 0 
L 2784 0 
L 2784 1825 
Q 2784 2406 2684 2573 
Q 2584 2741 2328 2741 
Q 2006 2741 1831 2477 
Q 1656 2213 1656 1722 
L 1656 0 
L 531 0 
L 531 3500 
L 1656 3500 
L 1656 2988 
Q 1863 3284 2130 3434 
Q 2397 3584 2719 3584 
Q 3081 3584 3359 3409 
Q 3638 3234 3781 2919 
z
" transform="scale(0.015625)"/>
       <path id="DejaVuSans-Bold-70" d="M 1656 506 
L 1656 -1331 
L 538 -1331 
L 538 3500 
L 1656 3500 
L 1656 2988 
Q 1888 3294 2169 3439 
Q 2450 3584 2816 3584 
Q 3463 3584 3878 3070 
Q 4294 2556 4294 1747 
Q 4294 938 3878 423 
Q 3463 -91 2816 -91 
Q 2450 -91 2169 54 
Q 1888 200 1656 506 
z
M 2400 2772 
Q 2041 2772 1848 2508 
Q 1656 2244 1656 1747 
Q 1656 1250 1848 986 
Q 2041 722 2400 722 
Q 2759 722 2948 984 
Q 3138 1247 3138 1747 
Q 3138 2247 2948 2509 
Q 2759 2772 2400 2772 
z
" transform="scale(0.015625)"/>
       <path id="DejaVuSans-Bold-6f" d="M 2203 2784 
Q 1831 2784 1636 2517 
Q 1441 2250 1441 1747 
Q 1441 1244 1636 976 
Q 1831 709 2203 709 
Q 2569 709 2762 976 
Q 2956 1244 2956 1747 
Q 2956 2250 2762 2517 
Q 2569 2784 2203 2784 
z
M 2203 3584 
Q 3106 3584 3614 3096 
Q 4122 2609 4122 1747 
Q 4122 884 3614 396 
Q 3106 -91 2203 -91 
Q 1297 -91 786 396 
Q 275 884 275 1747 
Q 275 2609 786 3096 
Q 1297 3584 2203 3584 
z
" transform="scale(0.015625)"/>
       <path id="DejaVuSans-Bold-20" transform="scale(0.015625)"/>
       <path id="DejaVuSans-Oblique-74" d="M 2706 3500 
L 2619 3053 
L 1472 3053 
L 1100 1153 
Q 1081 1047 1072 975 
Q 1063 903 1063 863 
Q 1063 663 1183 572 
Q 1303 481 1569 481 
L 2150 481 
L 2053 0 
L 1503 0 
Q 991 0 739 200 
Q 488 400 488 806 
Q 488 878 497 964 
Q 506 1050 525 1153 
L 897 3053 
L 409 3053 
L 500 3500 
L 978 3500 
L 1172 4494 
L 1747 4494 
L 1556 3500 
L 2706 3500 
z
" transform="scale(0.015625)"/>
      </defs>
      <use xlink:href="#DejaVuSans-Bold-74" transform="translate(0 0.015625)"/>
      <use xlink:href="#DejaVuSans-Bold-69" transform="translate(47.802734 0.015625)"/>
      <use xlink:href="#DejaVuSans-Bold-65" transform="translate(82.080078 0.015625)"/>
      <use xlink:href="#DejaVuSans-Bold-6d" transform="translate(149.902344 0.015625)"/>
      <use xlink:href="#DejaVuSans-Bold-70" transform="translate(254.101562 0.015625)"/>
      <use xlink:href="#DejaVuSans-Bold-6f" transform="translate(325.683594 0.015625)"/>
      <use xlink:href="#DejaVuSans-Bold-20" transform="translate(394.384766 0.015625)"/>
      <use xlink:href="#DejaVuSans-Oblique-74" transform="translate(429.199219 0.015625)"/>
     </g>
    </g>
   </g>
   <g id="matplotlib.axis_2">
    <g id="ytick_1">
     <g id="line2d_13">
      <path d="M 46.374844 249.120142 
L 459.294844 249.120142 
" clip-path="url(#p5cce2b8243)" style="fill: none; stroke-dasharray: 0.8,1.28; stroke-dashoffset: 0; stroke: #b0b0b0; stroke-opacity: 0.3; stroke-width: 0.8"/>
     </g>
     <g id="line2d_14">
      <defs>
       <path id="m721f0e2d0d" d="M 0 0 
L -3.5 0 
" style="stroke: #2c3e50; stroke-width: 0.8"/>
      </defs>
      <g>
       <use xlink:href="#m721f0e2d0d" x="46.374844" y="249.120142" style="fill: #2c3e50; stroke: #2c3e50; stroke-width: 0.8"/>
      </g>
     </g>
     <g id="text_8">
      <!-- 0 -->
      <g style="fill: #2c3e50" transform="translate(33.012344 252.919361) scale(0.1 -0.1)">
       <use xlink:href="#DejaVuSans-30"/>
      </g>
     </g>
    </g>
    <g id="ytick_2">
     <g id="line2d_15">
      <path d="M 46.374844 221.560373 
L 459.294844 221.560373 
" clip-path="url(#p5cce2b8243)" style="fill: none; stroke-dasharray: 0.8,1.28; stroke-dashoffset: 0; stroke: #b0b0b0; stroke-opacity: 0.3; stroke-width: 0.8"/>
     </g>
     <g id="line2d_16">
      <g>
       <use xlink:href="#m721f0e2d0d" x="46.374844" y="221.560373" style="fill: #2c3e50; stroke: #2c3e50; stroke-width: 0.8"/>
      </g>
     </g>
     <g id="text_9">
      <!-- 2 -->
      <g style="fill: #2c3e50" transform="translate(33.012344 225.359592) scale(0.1 -0.1)">
       <use xlink:href="#DejaVuSans-32"/>
      </g>
     </g>
    </g>
    <g id="ytick_3">
     <g id="line2d_17">
      <path d="M 46.374844 194.000605 
L 459.294844 194.000605 
" clip-path="url(#p5cce2b8243)" style="fill: none; stroke-dasharray: 0.8,1.28; stroke-dashoffset: 0; stroke: #b0b0b0; stroke-opacity: 0.3; stroke-width: 0.8"/>
     </g>
     <g id="line2d_18">
      <g>
       <use xlink:href="#m721f0e2d0d" x="46.374844" y="194.000605" style="fill: #2c3e50; stroke: #2c3e50; stroke-width: 0.8"/>
      </g>
     </g>
     <g id="text_10">
      <!-- 4 -->
      <g style="fill: #2c3e50" transform="translate(33.012344 197.799823) scale(0.1 -0.1)">
       <use xlink:href="#DejaVuSans-34"/>
      </g>
     </g>
    </g>
    <g id="ytick_4">
     <g id="line2d_19">
      <path d="M 46.374844 166.440836 
L 459.294844 166.440836 
" clip-path="url(#p5cce2b8243)" style="fill: none; stroke-dasharray: 0.8,1.28; stroke-dashoffset: 0; stroke: #b0b0b0; stroke-opacity: 0.3; stroke-width: 0.8"/>
     </g>
     <g id="line2d_20">
      <g>
       <use xlink:href="#m721f0e2d0d" x="46.374844" y="166.440836" style="fill: #2c3e50; stroke: #2c3e50; stroke-width: 0.8"/>
      </g>
     </g>
     <g id="text_11">
      <!-- 6 -->
      <g style="fill: #2c3e50" transform="translate(33.012344 170.240055) scale(0.1 -0.1)">
       <use xlink:href="#DejaVuSans-36"/>
      </g>
     </g>
    </g>
    <g id="ytick_5">
     <g id="line2d_21">
      <path d="M 46.374844 138.881067 
L 459.294844 138.881067 
" clip-path="url(#p5cce2b8243)" style="fill: none; stroke-dasharray: 0.8,1.28; stroke-dashoffset: 0; stroke: #b0b0b0; stroke-opacity: 0.3; stroke-width: 0.8"/>
     </g>
     <g id="line2d_22">
      <g>
       <use xlink:href="#m721f0e2d0d" x="46.374844" y="138.881067" style="fill: #2c3e50; stroke: #2c3e50; stroke-width: 0.8"/>
      </g>
     </g>
     <g id="text_12">
      <!-- 8 -->
      <g style="fill: #2c3e50" transform="translate(33.012344 142.680286) scale(0.1 -0.1)">
       <use xlink:href="#DejaVuSans-38"/>
      </g>
     </g>
    </g>
    <g id="ytick_6">
     <g id="line2d_23">
      <path d="M 46.374844 111.321298 
L 459.294844 111.321298 
" clip-path="url(#p5cce2b8243)" style="fill: none; stroke-dasharray: 0.8,1.28; stroke-dashoffset: 0; stroke: #b0b0b0; stroke-opacity: 0.3; stroke-width: 0.8"/>
     </g>
     <g id="line2d_24">
      <g>
       <use xlink:href="#m721f0e2d0d" x="46.374844" y="111.321298" style="fill: #2c3e50; stroke: #2c3e50; stroke-width: 0.8"/>
      </g>
     </g>
     <g id="text_13">
      <!-- 10 -->
      <g style="fill: #2c3e50" transform="translate(26.649844 115.120517) scale(0.1 -0.1)">
       <use xlink:href="#DejaVuSans-31"/>
       <use xlink:href="#DejaVuSans-30" x="63.623047"/>
      </g>
     </g>
    </g>
    <g id="ytick_7">
     <g id="line2d_25">
      <path d="M 46.374844 83.761529 
L 459.294844 83.761529 
" clip-path="url(#p5cce2b8243)" style="fill: none; stroke-dasharray: 0.8,1.28; stroke-dashoffset: 0; stroke: #b0b0b0; stroke-opacity: 0.3; stroke-width: 0.8"/>
     </g>
     <g id="line2d_26">
      <g>
       <use xlink:href="#m721f0e2d0d" x="46.374844" y="83.761529" style="fill: #2c3e50; stroke: #2c3e50; stroke-width: 0.8"/>
      </g>
     </g>
     <g id="text_14">
      <!-- 12 -->
      <g style="fill: #2c3e50" transform="translate(26.649844 87.560748) scale(0.1 -0.1)">
       <use xlink:href="#DejaVuSans-31"/>
       <use xlink:href="#DejaVuSans-32" x="63.623047"/>
      </g>
     </g>
    </g>
    <g id="ytick_8">
     <g id="line2d_27">
      <path d="M 46.374844 56.201761 
L 459.294844 56.201761 
" clip-path="url(#p5cce2b8243)" style="fill: none; stroke-dasharray: 0.8,1.28; stroke-dashoffset: 0; stroke: #b0b0b0; stroke-opacity: 0.3; stroke-width: 0.8"/>
     </g>
     <g id="line2d_28">
      <g>
       <use xlink:href="#m721f0e2d0d" x="46.374844" y="56.201761" style="fill: #2c3e50; stroke: #2c3e50; stroke-width: 0.8"/>
      </g>
     </g>
     <g id="text_15">
      <!-- 14 -->
      <g style="fill: #2c3e50" transform="translate(26.649844 60.000979) scale(0.1 -0.1)">
       <use xlink:href="#DejaVuSans-31"/>
       <use xlink:href="#DejaVuSans-34" x="63.623047"/>
      </g>
     </g>
    </g>
    <g id="text_16">
     <!-- $N(t)$ (eventos acumulados) -->
     <g transform="translate(20.258203 235.521469) rotate(-90) scale(0.115 -0.115)">
      <defs>
       <path id="DejaVuSans-Oblique-4e" d="M 1081 4666 
L 1931 4666 
L 3219 666 
L 4000 4666 
L 4616 4666 
L 3706 0 
L 2853 0 
L 1569 4025 
L 788 0 
L 172 0 
L 1081 4666 
z
" transform="scale(0.015625)"/>
       <path id="DejaVuSans-28" d="M 1984 4856 
Q 1566 4138 1362 3434 
Q 1159 2731 1159 2009 
Q 1159 1288 1364 580 
Q 1569 -128 1984 -844 
L 1484 -844 
Q 1016 -109 783 600 
Q 550 1309 550 2009 
Q 550 2706 781 3412 
Q 1013 4119 1484 4856 
L 1984 4856 
z
" transform="scale(0.015625)"/>
       <path id="DejaVuSans-29" d="M 513 4856 
L 1013 4856 
Q 1481 4119 1714 3412 
Q 1947 2706 1947 2009 
Q 1947 1309 1714 600 
Q 1481 -109 1013 -844 
L 513 -844 
Q 928 -128 1133 580 
Q 1338 1288 1338 2009 
Q 1338 2731 1133 3434 
Q 928 4138 513 4856 
z
" transform="scale(0.015625)"/>
       <path id="DejaVuSans-Bold-28" d="M 2413 -844 
L 1484 -844 
Q 1006 -72 778 623 
Q 550 1319 550 2003 
Q 550 2688 779 3389 
Q 1009 4091 1484 4856 
L 2413 4856 
Q 2013 4116 1813 3408 
Q 1613 2700 1613 2009 
Q 1613 1319 1811 609 
Q 2009 -100 2413 -844 
z
" transform="scale(0.015625)"/>
       <path id="DejaVuSans-Bold-76" d="M 97 3500 
L 1216 3500 
L 2088 1081 
L 2956 3500 
L 4078 3500 
L 2700 0 
L 1472 0 
L 97 3500 
z
" transform="scale(0.015625)"/>
       <path id="DejaVuSans-Bold-6e" d="M 4056 2131 
L 4056 0 
L 2931 0 
L 2931 347 
L 2931 1631 
Q 2931 2084 2911 2256 
Q 2891 2428 2841 2509 
Q 2775 2619 2662 2680 
Q 2550 2741 2406 2741 
Q 2056 2741 1856 2470 
Q 1656 2200 1656 1722 
L 1656 0 
L 538 0 
L 538 3500 
L 1656 3500 
L 1656 2988 
Q 1909 3294 2193 3439 
Q 2478 3584 2822 3584 
Q 3428 3584 3742 3212 
Q 4056 2841 4056 2131 
z
" transform="scale(0.015625)"/>
       <path id="DejaVuSans-Bold-73" d="M 3272 3391 
L 3272 2541 
Q 2913 2691 2578 2766 
Q 2244 2841 1947 2841 
Q 1628 2841 1473 2761 
Q 1319 2681 1319 2516 
Q 1319 2381 1436 2309 
Q 1553 2238 1856 2203 
L 2053 2175 
Q 2913 2066 3209 1816 
Q 3506 1566 3506 1031 
Q 3506 472 3093 190 
Q 2681 -91 1863 -91 
Q 1516 -91 1145 -36 
Q 775 19 384 128 
L 384 978 
Q 719 816 1070 734 
Q 1422 653 1784 653 
Q 2113 653 2278 743 
Q 2444 834 2444 1013 
Q 2444 1163 2330 1236 
Q 2216 1309 1875 1350 
L 1678 1375 
Q 931 1469 631 1722 
Q 331 1975 331 2491 
Q 331 3047 712 3315 
Q 1094 3584 1881 3584 
Q 2191 3584 2531 3537 
Q 2872 3491 3272 3391 
z
" transform="scale(0.015625)"/>
       <path id="DejaVuSans-Bold-61" d="M 2106 1575 
Q 1756 1575 1579 1456 
Q 1403 1338 1403 1106 
Q 1403 894 1545 773 
Q 1688 653 1941 653 
Q 2256 653 2472 879 
Q 2688 1106 2688 1447 
L 2688 1575 
L 2106 1575 
z
M 3816 1997 
L 3816 0 
L 2688 0 
L 2688 519 
Q 2463 200 2181 54 
Q 1900 -91 1497 -91 
Q 953 -91 614 226 
Q 275 544 275 1050 
Q 275 1666 698 1953 
Q 1122 2241 2028 2241 
L 2688 2241 
L 2688 2328 
Q 2688 2594 2478 2717 
Q 2269 2841 1825 2841 
Q 1466 2841 1156 2769 
Q 847 2697 581 2553 
L 581 3406 
Q 941 3494 1303 3539 
Q 1666 3584 2028 3584 
Q 2975 3584 3395 3211 
Q 3816 2838 3816 1997 
z
" transform="scale(0.015625)"/>
       <path id="DejaVuSans-Bold-63" d="M 3366 3391 
L 3366 2478 
Q 3138 2634 2908 2709 
Q 2678 2784 2431 2784 
Q 1963 2784 1702 2511 
Q 1441 2238 1441 1747 
Q 1441 1256 1702 982 
Q 1963 709 2431 709 
Q 2694 709 2930 787 
Q 3166 866 3366 1019 
L 3366 103 
Q 3103 6 2833 -42 
Q 2563 -91 2291 -91 
Q 1344 -91 809 395 
Q 275 881 275 1747 
Q 275 2613 809 3098 
Q 1344 3584 2291 3584 
Q 2566 3584 2833 3536 
Q 3100 3488 3366 3391 
z
" transform="scale(0.015625)"/>
       <path id="DejaVuSans-Bold-75" d="M 500 1363 
L 500 3500 
L 1625 3500 
L 1625 3150 
Q 1625 2866 1622 2436 
Q 1619 2006 1619 1863 
Q 1619 1441 1641 1255 
Q 1663 1069 1716 984 
Q 1784 875 1895 815 
Q 2006 756 2150 756 
Q 2500 756 2700 1025 
Q 2900 1294 2900 1772 
L 2900 3500 
L 4019 3500 
L 4019 0 
L 2900 0 
L 2900 506 
Q 2647 200 2364 54 
Q 2081 -91 1741 -91 
Q 1134 -91 817 281 
Q 500 653 500 1363 
z
" transform="scale(0.015625)"/>
       <path id="DejaVuSans-Bold-6c" d="M 538 4863 
L 1656 4863 
L 1656 0 
L 538 0 
L 538 4863 
z
" transform="scale(0.015625)"/>
       <path id="DejaVuSans-Bold-64" d="M 2919 2988 
L 2919 4863 
L 4044 4863 
L 4044 0 
L 2919 0 
L 2919 506 
Q 2688 197 2409 53 
Q 2131 -91 1766 -91 
Q 1119 -91 703 423 
Q 288 938 288 1747 
Q 288 2556 703 3070 
Q 1119 3584 1766 3584 
Q 2128 3584 2408 3439 
Q 2688 3294 2919 2988 
z
M 2181 722 
Q 2541 722 2730 984 
Q 2919 1247 2919 1747 
Q 2919 2247 2730 2509 
Q 2541 2772 2181 2772 
Q 1825 2772 1636 2509 
Q 1447 2247 1447 1747 
Q 1447 1247 1636 984 
Q 1825 722 2181 722 
z
" transform="scale(0.015625)"/>
       <path id="DejaVuSans-Bold-29" d="M 513 -844 
Q 913 -100 1113 609 
Q 1313 1319 1313 2009 
Q 1313 2700 1113 3408 
Q 913 4116 513 4856 
L 1441 4856 
Q 1916 4091 2145 3389 
Q 2375 2688 2375 2003 
Q 2375 1319 2147 623 
Q 1919 -72 1441 -844 
L 513 -844 
z
" transform="scale(0.015625)"/>
      </defs>
      <use xlink:href="#DejaVuSans-Oblique-4e" transform="translate(0 0.015625)"/>
      <use xlink:href="#DejaVuSans-28" transform="translate(74.804688 0.015625)"/>
      <use xlink:href="#DejaVuSans-Oblique-74" transform="translate(113.818359 0.015625)"/>
      <use xlink:href="#DejaVuSans-29" transform="translate(153.027344 0.015625)"/>
      <use xlink:href="#DejaVuSans-Bold-20" transform="translate(192.041016 0.015625)"/>
      <use xlink:href="#DejaVuSans-Bold-28" transform="translate(226.855469 0.015625)"/>
      <use xlink:href="#DejaVuSans-Bold-65" transform="translate(272.558594 0.015625)"/>
      <use xlink:href="#DejaVuSans-Bold-76" transform="translate(340.380859 0.015625)"/>
      <use xlink:href="#DejaVuSans-Bold-65" transform="translate(405.566406 0.015625)"/>
      <use xlink:href="#DejaVuSans-Bold-6e" transform="translate(473.388672 0.015625)"/>
      <use xlink:href="#DejaVuSans-Bold-74" transform="translate(544.580078 0.015625)"/>
      <use xlink:href="#DejaVuSans-Bold-6f" transform="translate(592.382812 0.015625)"/>
      <use xlink:href="#DejaVuSans-Bold-73" transform="translate(661.083984 0.015625)"/>
      <use xlink:href="#DejaVuSans-Bold-20" transform="translate(720.605469 0.015625)"/>
      <use xlink:href="#DejaVuSans-Bold-61" transform="translate(755.419922 0.015625)"/>
      <use xlink:href="#DejaVuSans-Bold-63" transform="translate(822.900391 0.015625)"/>
      <use xlink:href="#DejaVuSans-Bold-75" transform="translate(882.177734 0.015625)"/>
      <use xlink:href="#DejaVuSans-Bold-6d" transform="translate(953.369141 0.015625)"/>
      <use xlink:href="#DejaVuSans-Bold-75" transform="translate(1057.568359 0.015625)"/>
      <use xlink:href="#DejaVuSans-Bold-6c" transform="translate(1128.759766 0.015625)"/>
      <use xlink:href="#DejaVuSans-Bold-61" transform="translate(1163.037109 0.015625)"/>
      <use xlink:href="#DejaVuSans-Bold-64" transform="translate(1230.517578 0.015625)"/>
      <use xlink:href="#DejaVuSans-Bold-6f" transform="translate(1302.099609 0.015625)"/>
      <use xlink:href="#DejaVuSans-Bold-73" transform="translate(1370.800781 0.015625)"/>
      <use xlink:href="#DejaVuSans-Bold-29" transform="translate(1430.322266 0.015625)"/>
     </g>
    </g>
   </g>
   <g id="line2d_29">
    <path d="M 46.374844 249.120142 
L 459.294844 249.120142 
" clip-path="url(#p5cce2b8243)" style="fill: none; stroke: #2c3e50; stroke-linecap: square"/>
   </g>
   <g id="patch_3">
    <path d="M 46.374844 269.789969 
L 46.374844 31.397969 
" style="fill: none; stroke: #2c3e50; stroke-width: 1.2; stroke-linejoin: miter; stroke-linecap: square"/>
   </g>
   <g id="patch_4">
    <path d="M 46.374844 269.789969 
L 459.294844 269.789969 
" style="fill: none; stroke: #2c3e50; stroke-width: 1.2; stroke-linejoin: miter; stroke-linecap: square"/>
   </g>
   <g id="text_17">
    <!-- $\tau_{1}$ -->
    <g style="fill: #34495e" transform="translate(67.734756 269.396073) scale(0.1 -0.1)">
     <defs>
      <path id="DejaVuSans-Oblique-3c4" d="M 2103 638 
Q 2188 488 2525 488 
L 2800 488 
L 2706 0 
L 2363 0 
Q 1800 0 1600 300 
Q 1403 606 1534 1269 
L 1856 2925 
L 541 2925 
L 653 3500 
L 3881 3500 
L 3769 2925 
L 2444 2925 
L 2113 1234 
Q 2025 781 2103 638 
z
" transform="scale(0.015625)"/>
     </defs>
     <use xlink:href="#DejaVuSans-Oblique-3c4" transform="translate(0 0.3125)"/>
     <use xlink:href="#DejaVuSans-31" transform="translate(60.205078 -16.09375) scale(0.7)"/>
    </g>
   </g>
   <g id="text_18">
    <!-- $\tau_{2}$ -->
    <g style="fill: #34495e" transform="translate(89.080346 269.396073) scale(0.1 -0.1)">
     <use xlink:href="#DejaVuSans-Oblique-3c4" transform="translate(0 0.3125)"/>
     <use xlink:href="#DejaVuSans-32" transform="translate(60.205078 -16.09375) scale(0.7)"/>
    </g>
   </g>
   <g id="text_19">
    <!-- $\tau_{3}$ -->
    <g style="fill: #34495e" transform="translate(95.339276 269.396073) scale(0.1 -0.1)">
     <defs>
      <path id="DejaVuSans-33" d="M 2597 2516 
Q 3050 2419 3304 2112 
Q 3559 1806 3559 1356 
Q 3559 666 3084 287 
Q 2609 -91 1734 -91 
Q 1441 -91 1130 -33 
Q 819 25 488 141 
L 488 750 
Q 750 597 1062 519 
Q 1375 441 1716 441 
Q 2309 441 2620 675 
Q 2931 909 2931 1356 
Q 2931 1769 2642 2001 
Q 2353 2234 1838 2234 
L 1294 2234 
L 1294 2753 
L 1863 2753 
Q 2328 2753 2575 2939 
Q 2822 3125 2822 3475 
Q 2822 3834 2567 4026 
Q 2313 4219 1838 4219 
Q 1578 4219 1281 4162 
Q 984 4106 628 3988 
L 628 4550 
Q 988 4650 1302 4700 
Q 1616 4750 1894 4750 
Q 2613 4750 3031 4423 
Q 3450 4097 3450 3541 
Q 3450 3153 3228 2886 
Q 3006 2619 2597 2516 
z
" transform="scale(0.015625)"/>
     </defs>
     <use xlink:href="#DejaVuSans-Oblique-3c4" transform="translate(0 0.3125)"/>
     <use xlink:href="#DejaVuSans-33" transform="translate(60.205078 -16.09375) scale(0.7)"/>
    </g>
   </g>
   <g id="text_20">
    <g id="patch_5">
     <path d="M 54.633244 51.249729 
L 138.233244 51.249729 
Q 141.233244 51.249729 141.233244 48.249729 
L 141.233244 38.549729 
Q 141.233244 35.549729 138.233244 35.549729 
L 54.633244 35.549729 
Q 51.633244 35.549729 51.633244 38.549729 
L 51.633244 48.249729 
Q 51.633244 51.249729 54.633244 51.249729 
z
" style="fill: #ffffff; stroke: #cccccc; stroke-linejoin: miter"/>
    </g>
    <!-- $\tau_i \sim \mathrm{Expo}(\lambda)$ i.i.d. -->
    <g style="fill: #34495e" transform="translate(54.633244 46.149729) scale(0.1 -0.1)">
     <defs>
      <path id="DejaVuSans-Oblique-69" d="M 1172 4863 
L 1747 4863 
L 1606 4134 
L 1031 4134 
L 1172 4863 
z
M 909 3500 
L 1484 3500 
L 800 0 
L 225 0 
L 909 3500 
z
" transform="scale(0.015625)"/>
      <path id="DejaVuSans-223c" d="M 4684 2556 
L 4684 1997 
Q 4356 1753 4076 1645 
Q 3797 1538 3494 1538 
Q 3150 1538 2694 1722 
Q 2663 1734 2641 1744 
Q 2622 1750 2575 1769 
Q 2091 1959 1797 1959 
Q 1522 1959 1253 1840 
Q 984 1722 678 1459 
L 678 2019 
Q 1006 2263 1286 2370 
Q 1566 2478 1869 2478 
Q 2213 2478 2672 2294 
Q 2706 2278 2722 2272 
Q 2741 2266 2788 2247 
Q 3272 2056 3566 2056 
Q 3834 2056 4098 2173 
Q 4363 2291 4684 2556 
z
" transform="scale(0.015625)"/>
      <path id="DejaVuSans-45" d="M 628 4666 
L 3578 4666 
L 3578 4134 
L 1259 4134 
L 1259 2753 
L 3481 2753 
L 3481 2222 
L 1259 2222 
L 1259 531 
L 3634 531 
L 3634 0 
L 628 0 
L 628 4666 
z
" transform="scale(0.015625)"/>
      <path id="DejaVuSans-78" d="M 3513 3500 
L 2247 1797 
L 3578 0 
L 2900 0 
L 1881 1375 
L 863 0 
L 184 0 
L 1544 1831 
L 300 3500 
L 978 3500 
L 1906 2253 
L 2834 3500 
L 3513 3500 
z
" transform="scale(0.015625)"/>
      <path id="DejaVuSans-70" d="M 1159 525 
L 1159 -1331 
L 581 -1331 
L 581 3500 
L 1159 3500 
L 1159 2969 
Q 1341 3281 1617 3432 
Q 1894 3584 2278 3584 
Q 2916 3584 3314 3078 
Q 3713 2572 3713 1747 
Q 3713 922 3314 415 
Q 2916 -91 2278 -91 
Q 1894 -91 1617 61 
Q 1341 213 1159 525 
z
M 3116 1747 
Q 3116 2381 2855 2742 
Q 2594 3103 2138 3103 
Q 1681 3103 1420 2742 
Q 1159 2381 1159 1747 
Q 1159 1113 1420 752 
Q 1681 391 2138 391 
Q 2594 391 2855 752 
Q 3116 1113 3116 1747 
z
" transform="scale(0.015625)"/>
      <path id="DejaVuSans-6f" d="M 1959 3097 
Q 1497 3097 1228 2736 
Q 959 2375 959 1747 
Q 959 1119 1226 758 
Q 1494 397 1959 397 
Q 2419 397 2687 759 
Q 2956 1122 2956 1747 
Q 2956 2369 2687 2733 
Q 2419 3097 1959 3097 
z
M 1959 3584 
Q 2709 3584 3137 3096 
Q 3566 2609 3566 1747 
Q 3566 888 3137 398 
Q 2709 -91 1959 -91 
Q 1206 -91 779 398 
Q 353 888 353 1747 
Q 353 2609 779 3096 
Q 1206 3584 1959 3584 
z
" transform="scale(0.015625)"/>
      <path id="DejaVuSans-Oblique-3bb" d="M 2350 4316 
L 3125 0 
L 2516 0 
L 2038 2588 
L 328 0 
L -281 0 
L 1903 3356 
L 1794 3975 
Q 1725 4369 1391 4369 
L 1091 4369 
L 1184 4863 
L 1550 4856 
Q 2253 4847 2350 4316 
z
" transform="scale(0.015625)"/>
      <path id="DejaVuSans-20" transform="scale(0.015625)"/>
      <path id="DejaVuSans-69" d="M 603 3500 
L 1178 3500 
L 1178 0 
L 603 0 
L 603 3500 
z
M 603 4863 
L 1178 4863 
L 1178 4134 
L 603 4134 
L 603 4863 
z
" transform="scale(0.015625)"/>
      <path id="DejaVuSans-2e" d="M 684 794 
L 1344 794 
L 1344 0 
L 684 0 
L 684 794 
z
" transform="scale(0.015625)"/>
      <path id="DejaVuSans-64" d="M 2906 2969 
L 2906 4863 
L 3481 4863 
L 3481 0 
L 2906 0 
L 2906 525 
Q 2725 213 2448 61 
Q 2172 -91 1784 -91 
Q 1150 -91 751 415 
Q 353 922 353 1747 
Q 353 2572 751 3078 
Q 1150 3584 1784 3584 
Q 2172 3584 2448 3432 
Q 2725 3281 2906 2969 
z
M 947 1747 
Q 947 1113 1208 752 
Q 1469 391 1925 391 
Q 2381 391 2643 752 
Q 2906 1113 2906 1747 
Q 2906 2381 2643 2742 
Q 2381 3103 1925 3103 
Q 1469 3103 1208 2742 
Q 947 2381 947 1747 
z
" transform="scale(0.015625)"/>
     </defs>
     <use xlink:href="#DejaVuSans-Oblique-3c4" transform="translate(0 0.015625)"/>
     <use xlink:href="#DejaVuSans-Oblique-69" transform="translate(60.205078 -16.390625) scale(0.7)"/>
     <use xlink:href="#DejaVuSans-223c" transform="translate(101.870117 0.015625)"/>
     <use xlink:href="#DejaVuSans-45" transform="translate(205.141602 0.015625)"/>
     <use xlink:href="#DejaVuSans-78" transform="translate(268.325195 0.015625)"/>
     <use xlink:href="#DejaVuSans-70" transform="translate(327.504883 0.015625)"/>
     <use xlink:href="#DejaVuSans-6f" transform="translate(390.981445 0.015625)"/>
     <use xlink:href="#DejaVuSans-28" transform="translate(452.163086 0.015625)"/>
     <use xlink:href="#DejaVuSans-Oblique-3bb" transform="translate(491.176758 0.015625)"/>
     <use xlink:href="#DejaVuSans-29" transform="translate(550.356445 0.015625)"/>
     <use xlink:href="#DejaVuSans-20" transform="translate(589.370117 0.015625)"/>
     <use xlink:href="#DejaVuSans-69" transform="translate(621.157227 0.015625)"/>
     <use xlink:href="#DejaVuSans-2e" transform="translate(648.94043 0.015625)"/>
     <use xlink:href="#DejaVuSans-69" transform="translate(680.727539 0.015625)"/>
     <use xlink:href="#DejaVuSans-2e" transform="translate(708.510742 0.015625)"/>
     <use xlink:href="#DejaVuSans-64" transform="translate(740.297852 0.015625)"/>
     <use xlink:href="#DejaVuSans-2e" transform="translate(803.774414 0.015625)"/>
    </g>
   </g>
   <g id="text_21">
    <!-- Proceso de Poisson: conteo $N(t)$ -->
    <g transform="translate(137.329844 21.397969) scale(0.13 -0.13)">
     <defs>
      <path id="DejaVuSans-Bold-50" d="M 588 4666 
L 2584 4666 
Q 3475 4666 3951 4270 
Q 4428 3875 4428 3144 
Q 4428 2409 3951 2014 
Q 3475 1619 2584 1619 
L 1791 1619 
L 1791 0 
L 588 0 
L 588 4666 
z
M 1791 3794 
L 1791 2491 
L 2456 2491 
Q 2806 2491 2997 2661 
Q 3188 2831 3188 3144 
Q 3188 3456 2997 3625 
Q 2806 3794 2456 3794 
L 1791 3794 
z
" transform="scale(0.015625)"/>
      <path id="DejaVuSans-Bold-72" d="M 3138 2547 
Q 2991 2616 2845 2648 
Q 2700 2681 2553 2681 
Q 2122 2681 1889 2404 
Q 1656 2128 1656 1613 
L 1656 0 
L 538 0 
L 538 3500 
L 1656 3500 
L 1656 2925 
Q 1872 3269 2151 3426 
Q 2431 3584 2822 3584 
Q 2878 3584 2943 3579 
Q 3009 3575 3134 3559 
L 3138 2547 
z
" transform="scale(0.015625)"/>
      <path id="DejaVuSans-Bold-3a" d="M 716 3500 
L 1844 3500 
L 1844 2291 
L 716 2291 
L 716 3500 
z
M 716 1209 
L 1844 1209 
L 1844 0 
L 716 0 
L 716 1209 
z
" transform="scale(0.015625)"/>
     </defs>
     <use xlink:href="#DejaVuSans-Bold-50" transform="translate(0 0.015625)"/>
     <use xlink:href="#DejaVuSans-Bold-72" transform="translate(73.291016 0.015625)"/>
     <use xlink:href="#DejaVuSans-Bold-6f" transform="translate(122.607422 0.015625)"/>
     <use xlink:href="#DejaVuSans-Bold-63" transform="translate(191.308594 0.015625)"/>
     <use xlink:href="#DejaVuSans-Bold-65" transform="translate(250.585938 0.015625)"/>
     <use xlink:href="#DejaVuSans-Bold-73" transform="translate(318.408203 0.015625)"/>
     <use xlink:href="#DejaVuSans-Bold-6f" transform="translate(377.929688 0.015625)"/>
     <use xlink:href="#DejaVuSans-Bold-20" transform="translate(446.630859 0.015625)"/>
     <use xlink:href="#DejaVuSans-Bold-64" transform="translate(481.445312 0.015625)"/>
     <use xlink:href="#DejaVuSans-Bold-65" transform="translate(553.027344 0.015625)"/>
     <use xlink:href="#DejaVuSans-Bold-20" transform="translate(620.849609 0.015625)"/>
     <use xlink:href="#DejaVuSans-Bold-50" transform="translate(655.664062 0.015625)"/>
     <use xlink:href="#DejaVuSans-Bold-6f" transform="translate(728.955078 0.015625)"/>
     <use xlink:href="#DejaVuSans-Bold-69" transform="translate(797.65625 0.015625)"/>
     <use xlink:href="#DejaVuSans-Bold-73" transform="translate(831.933594 0.015625)"/>
     <use xlink:href="#DejaVuSans-Bold-73" transform="translate(891.455078 0.015625)"/>
     <use xlink:href="#DejaVuSans-Bold-6f" transform="translate(950.976562 0.015625)"/>
     <use xlink:href="#DejaVuSans-Bold-6e" transform="translate(1019.677734 0.015625)"/>
     <use xlink:href="#DejaVuSans-Bold-3a" transform="translate(1090.869141 0.015625)"/>
     <use xlink:href="#DejaVuSans-Bold-20" transform="translate(1130.859375 0.015625)"/>
     <use xlink:href="#DejaVuSans-Bold-63" transform="translate(1165.673828 0.015625)"/>
     <use xlink:href="#DejaVuSans-Bold-6f" transform="translate(1224.951172 0.015625)"/>
     <use xlink:href="#DejaVuSans-Bold-6e" transform="translate(1293.652344 0.015625)"/>
     <use xlink:href="#DejaVuSans-Bold-74" transform="translate(1364.84375 0.015625)"/>
     <use xlink:href="#DejaVuSans-Bold-65" transform="translate(1412.646484 0.015625)"/>
     <use xlink:href="#DejaVuSans-Bold-6f" transform="translate(1480.46875 0.015625)"/>
     <use xlink:href="#DejaVuSans-Bold-20" transform="translate(1549.169922 0.015625)"/>
     <use xlink:href="#DejaVuSans-Oblique-4e" transform="translate(1583.984375 0.015625)"/>
     <use xlink:href="#DejaVuSans-28" transform="translate(1658.789062 0.015625)"/>
     <use xlink:href="#DejaVuSans-Oblique-74" transform="translate(1697.802734 0.015625)"/>
     <use xlink:href="#DejaVuSans-29" transform="translate(1737.011719 0.015625)"/>
    </g>
   </g>
   <g id="patch_6">
    <path d="M 57.767672 257.66367 
Q 73.135613 257.66367 88.503554 257.66367 
" style="fill: none; stroke: #34495e; stroke-width: 1.3; stroke-linecap: round"/>
    <path d="M 62.167672 259.86367 
L 57.767672 257.66367 
L 62.167672 255.46367 
" style="fill: none; stroke: #34495e; stroke-width: 1.3; stroke-linecap: round"/>
    <path d="M 84.103554 255.46367 
L 88.503554 257.66367 
L 84.103554 259.86367 
" style="fill: none; stroke: #34495e; stroke-width: 1.3; stroke-linecap: round"/>
   </g>
   <g id="patch_7">
    <path d="M 95.405802 257.66367 
Q 94.47883 257.66367 93.551858 257.66367 
" style="fill: none; stroke: #34495e; stroke-width: 1.3; stroke-linecap: round"/>
    <path d="M 99.805802 259.86367 
L 95.405802 257.66367 
L 99.805802 255.46367 
" style="fill: none; stroke: #34495e; stroke-width: 1.3; stroke-linecap: round"/>
    <path d="M 89.151858 255.46367 
L 93.551858 257.66367 
L 89.151858 259.86367 
" style="fill: none; stroke: #34495e; stroke-width: 1.3; stroke-linecap: round"/>
   </g>
   <g id="patch_8">
    <path d="M 100.461344 257.66367 
Q 100.740701 257.66367 101.020058 257.66367 
" style="fill: none; stroke: #34495e; stroke-width: 1.3; stroke-linecap: round"/>
    <path d="M 104.861344 259.86367 
L 100.461344 257.66367 
L 104.861344 255.46367 
" style="fill: none; stroke: #34495e; stroke-width: 1.3; stroke-linecap: round"/>
    <path d="M 96.620058 255.46367 
L 101.020058 257.66367 
L 96.620058 259.86367 
" style="fill: none; stroke: #34495e; stroke-width: 1.3; stroke-linecap: round"/>
   </g>
   <g id="line2d_30">
    <path d="M 54.315613 249.120142 
L 91.953898 249.120142 
L 91.953898 235.340258 
L 97.006793 235.340258 
L 97.006793 221.560373 
L 104.47176 221.560373 
L 104.47176 207.780489 
L 161.634176 207.780489 
L 161.634176 194.000605 
L 264.478234 194.000605 
L 264.478234 180.22072 
L 274.797676 180.22072 
L 274.797676 166.440836 
L 297.702869 166.440836 
L 297.702869 152.660951 
L 316.863712 152.660951 
L 316.863712 138.881067 
L 320.674053 138.881067 
L 320.674053 125.101183 
L 365.705541 125.101183 
L 365.705541 111.321298 
L 382.865553 111.321298 
L 382.865553 97.541414 
L 402.123833 97.541414 
L 402.123833 83.761529 
L 433.905495 83.761529 
L 433.905495 69.981645 
L 433.971777 69.981645 
L 433.971777 56.201761 
L 439.176571 56.201761 
L 439.176571 42.421876 
L 451.354075 42.421876 
L 451.354075 42.421876 
" clip-path="url(#p5cce2b8243)" style="fill: none; stroke: #2980b9; stroke-width: 2.6; stroke-linecap: square"/>
   </g>
   <g id="line2d_31">
    <defs>
     <path id="m97d9751201" d="M 0 3 
C 0.795609 3 1.55874 2.683901 2.12132 2.12132 
C 2.683901 1.55874 3 0.795609 3 0 
C 3 -0.795609 2.683901 -1.55874 2.12132 -2.12132 
C 1.55874 -2.683901 0.795609 -3 0 -3 
C -0.795609 -3 -1.55874 -2.683901 -2.12132 -2.12132 
C -2.683901 -1.55874 -3 -0.795609 -3 0 
C -3 0.795609 -2.683901 1.55874 -2.12132 2.12132 
C -1.55874 2.683901 -0.795609 3 0 3 
z
" style="stroke: #2980b9; stroke-width: 1.8"/>
    </defs>
    <g clip-path="url(#p5cce2b8243)">
     <use xlink:href="#m97d9751201" x="91.953898" y="249.120142" style="fill: #ffffff; stroke: #2980b9; stroke-width: 1.8"/>
    </g>
   </g>
   <g id="line2d_32">
    <defs>
     <path id="m64b4c038b2" d="M 0 3 
C 0.795609 3 1.55874 2.683901 2.12132 2.12132 
C 2.683901 1.55874 3 0.795609 3 0 
C 3 -0.795609 2.683901 -1.55874 2.12132 -2.12132 
C 1.55874 -2.683901 0.795609 -3 0 -3 
C -0.795609 -3 -1.55874 -2.683901 -2.12132 -2.12132 
C -2.683901 -1.55874 -3 -0.795609 -3 0 
C -3 0.795609 -2.683901 1.55874 -2.12132 2.12132 
C -1.55874 2.683901 -0.795609 3 0 3 
z
" style="stroke: #2980b9"/>
    </defs>
    <g clip-path="url(#p5cce2b8243)">
     <use xlink:href="#m64b4c038b2" x="91.953898" y="235.340258" style="fill: #2980b9; stroke: #2980b9"/>
    </g>
   </g>
   <g id="line2d_33">
    <g clip-path="url(#p5cce2b8243)">
     <use xlink:href="#m97d9751201" x="97.006793" y="235.340258" style="fill: #ffffff; stroke: #2980b9; stroke-width: 1.8"/>
    </g>
   </g>
   <g id="line2d_34">
    <g clip-path="url(#p5cce2b8243)">
     <use xlink:href="#m64b4c038b2" x="97.006793" y="221.560373" style="fill: #2980b9; stroke: #2980b9"/>
    </g>
   </g>
   <g id="line2d_35">
    <g clip-path="url(#p5cce2b8243)">
     <use xlink:href="#m97d9751201" x="104.47176" y="221.560373" style="fill: #ffffff; stroke: #2980b9; stroke-width: 1.8"/>
    </g>
   </g>
   <g id="line2d_36">
    <g clip-path="url(#p5cce2b8243)">
     <use xlink:href="#m64b4c038b2" x="104.47176" y="207.780489" style="fill: #2980b9; stroke: #2980b9"/>
    </g>
   </g>
   <g id="line2d_37">
    <g clip-path="url(#p5cce2b8243)">
     <use xlink:href="#m97d9751201" x="161.634176" y="207.780489" style="fill: #ffffff; stroke: #2980b9; stroke-width: 1.8"/>
    </g>
   </g>
   <g id="line2d_38">
    <g clip-path="url(#p5cce2b8243)">
     <use xlink:href="#m64b4c038b2" x="161.634176" y="194.000605" style="fill: #2980b9; stroke: #2980b9"/>
    </g>
   </g>
   <g id="line2d_39">
    <g clip-path="url(#p5cce2b8243)">
     <use xlink:href="#m97d9751201" x="264.478234" y="194.000605" style="fill: #ffffff; stroke: #2980b9; stroke-width: 1.8"/>
    </g>
   </g>
   <g id="line2d_40">
    <g clip-path="url(#p5cce2b8243)">
     <use xlink:href="#m64b4c038b2" x="264.478234" y="180.22072" style="fill: #2980b9; stroke: #2980b9"/>
    </g>
   </g>
   <g id="line2d_41">
    <g clip-path="url(#p5cce2b8243)">
     <use xlink:href="#m97d9751201" x="274.797676" y="180.22072" style="fill: #ffffff; stroke: #2980b9; stroke-width: 1.8"/>
    </g>
   </g>
   <g id="line2d_42">
    <g clip-path="url(#p5cce2b8243)">
     <use xlink:href="#m64b4c038b2" x="274.797676" y="166.440836" style="fill: #2980b9; stroke: #2980b9"/>
    </g>
   </g>
   <g id="line2d_43">
    <g clip-path="url(#p5cce2b8243)">
     <use xlink:href="#m97d9751201" x="297.702869" y="166.440836" style="fill: #ffffff; stroke: #2980b9; stroke-width: 1.8"/>
    </g>
   </g>
   <g id="line2d_44">
    <g clip-path="url(#p5cce2b8243)">
     <use xlink:href="#m64b4c038b2" x="297.702869" y="152.660951" style="fill: #2980b9; stroke: #2980b9"/>
    </g>
   </g>
   <g id="line2d_45">
    <g clip-path="url(#p5cce2b8243)">
     <use xlink:href="#m97d9751201" x="316.863712" y="152.660951" style="fill: #ffffff; stroke: #2980b9; stroke-width: 1.8"/>
    </g>
   </g>
   <g id="line2d_46">
    <g clip-path="url(#p5cce2b8243)">
     <use xlink:href="#m64b4c038b2" x="316.863712" y="138.881067" style="fill: #2980b9; stroke: #2980b9"/>
    </g>
   </g>
   <g id="line2d_47">
    <g clip-path="url(#p5cce2b8243)">
     <use xlink:href="#m97d9751201" x="320.674053" y="138.881067" style="fill: #ffffff; stroke: #2980b9; stroke-width: 1.8"/>
    </g>
   </g>
   <g id="line2d_48">
    <g clip-path="url(#p5cce2b8243)">
     <use xlink:href="#m64b4c038b2" x="320.674053" y="125.101183" style="fill: #2980b9; stroke: #2980b9"/>
    </g>
   </g>
   <g id="line2d_49">
    <g clip-path="url(#p5cce2b8243)">
     <use xlink:href="#m97d9751201" x="365.705541" y="125.101183" style="fill: #ffffff; stroke: #2980b9; stroke-width: 1.8"/>
    </g>
   </g>
   <g id="line2d_50">
    <g clip-path="url(#p5cce2b8243)">
     <use xlink:href="#m64b4c038b2" x="365.705541" y="111.321298" style="fill: #2980b9; stroke: #2980b9"/>
    </g>
   </g>
   <g id="line2d_51">
    <g clip-path="url(#p5cce2b8243)">
     <use xlink:href="#m97d9751201" x="382.865553" y="111.321298" style="fill: #ffffff; stroke: #2980b9; stroke-width: 1.8"/>
    </g>
   </g>
   <g id="line2d_52">
    <g clip-path="url(#p5cce2b8243)">
     <use xlink:href="#m64b4c038b2" x="382.865553" y="97.541414" style="fill: #2980b9; stroke: #2980b9"/>
    </g>
   </g>
   <g id="line2d_53">
    <g clip-path="url(#p5cce2b8243)">
     <use xlink:href="#m97d9751201" x="402.123833" y="97.541414" style="fill: #ffffff; stroke: #2980b9; stroke-width: 1.8"/>
    </g>
   </g>
   <g id="line2d_54">
    <g clip-path="url(#p5cce2b8243)">
     <use xlink:href="#m64b4c038b2" x="402.123833" y="83.761529" style="fill: #2980b9; stroke: #2980b9"/>
    </g>
   </g>
   <g id="line2d_55">
    <g clip-path="url(#p5cce2b8243)">
     <use xlink:href="#m97d9751201" x="433.905495" y="83.761529" style="fill: #ffffff; stroke: #2980b9; stroke-width: 1.8"/>
    </g>
   </g>
   <g id="line2d_56">
    <g clip-path="url(#p5cce2b8243)">
     <use xlink:href="#m64b4c038b2" x="433.905495" y="69.981645" style="fill: #2980b9; stroke: #2980b9"/>
    </g>
   </g>
   <g id="line2d_57">
    <g clip-path="url(#p5cce2b8243)">
     <use xlink:href="#m97d9751201" x="433.971777" y="69.981645" style="fill: #ffffff; stroke: #2980b9; stroke-width: 1.8"/>
    </g>
   </g>
   <g id="line2d_58">
    <g clip-path="url(#p5cce2b8243)">
     <use xlink:href="#m64b4c038b2" x="433.971777" y="56.201761" style="fill: #2980b9; stroke: #2980b9"/>
    </g>
   </g>
   <g id="line2d_59">
    <g clip-path="url(#p5cce2b8243)">
     <use xlink:href="#m97d9751201" x="439.176571" y="56.201761" style="fill: #ffffff; stroke: #2980b9; stroke-width: 1.8"/>
    </g>
   </g>
   <g id="line2d_60">
    <g clip-path="url(#p5cce2b8243)">
     <use xlink:href="#m64b4c038b2" x="439.176571" y="42.421876" style="fill: #2980b9; stroke: #2980b9"/>
    </g>
   </g>
   <g id="line2d_61">
    <defs>
     <path id="ma4bdb3d894" d="M -4.5 4.5 
L 4.5 -4.5 
M -4.5 -4.5 
L 4.5 4.5 
" style="stroke: #c0392b; stroke-width: 2.2"/>
    </defs>
    <g clip-path="url(#p5cce2b8243)">
     <use xlink:href="#ma4bdb3d894" x="91.953898" y="249.120142" style="fill: #c0392b; stroke: #c0392b; stroke-width: 2.2"/>
     <use xlink:href="#ma4bdb3d894" x="97.006793" y="249.120142" style="fill: #c0392b; stroke: #c0392b; stroke-width: 2.2"/>
     <use xlink:href="#ma4bdb3d894" x="104.47176" y="249.120142" style="fill: #c0392b; stroke: #c0392b; stroke-width: 2.2"/>
     <use xlink:href="#ma4bdb3d894" x="161.634176" y="249.120142" style="fill: #c0392b; stroke: #c0392b; stroke-width: 2.2"/>
     <use xlink:href="#ma4bdb3d894" x="264.478234" y="249.120142" style="fill: #c0392b; stroke: #c0392b; stroke-width: 2.2"/>
     <use xlink:href="#ma4bdb3d894" x="274.797676" y="249.120142" style="fill: #c0392b; stroke: #c0392b; stroke-width: 2.2"/>
     <use xlink:href="#ma4bdb3d894" x="297.702869" y="249.120142" style="fill: #c0392b; stroke: #c0392b; stroke-width: 2.2"/>
     <use xlink:href="#ma4bdb3d894" x="316.863712" y="249.120142" style="fill: #c0392b; stroke: #c0392b; stroke-width: 2.2"/>
     <use xlink:href="#ma4bdb3d894" x="320.674053" y="249.120142" style="fill: #c0392b; stroke: #c0392b; stroke-width: 2.2"/>
     <use xlink:href="#ma4bdb3d894" x="365.705541" y="249.120142" style="fill: #c0392b; stroke: #c0392b; stroke-width: 2.2"/>
     <use xlink:href="#ma4bdb3d894" x="382.865553" y="249.120142" style="fill: #c0392b; stroke: #c0392b; stroke-width: 2.2"/>
     <use xlink:href="#ma4bdb3d894" x="402.123833" y="249.120142" style="fill: #c0392b; stroke: #c0392b; stroke-width: 2.2"/>
     <use xlink:href="#ma4bdb3d894" x="433.905495" y="249.120142" style="fill: #c0392b; stroke: #c0392b; stroke-width: 2.2"/>
     <use xlink:href="#ma4bdb3d894" x="433.971777" y="249.120142" style="fill: #c0392b; stroke: #c0392b; stroke-width: 2.2"/>
     <use xlink:href="#ma4bdb3d894" x="439.176571" y="249.120142" style="fill: #c0392b; stroke: #c0392b; stroke-width: 2.2"/>
    </g>
   </g>
   <g id="legend_1">
    <g id="patch_9">
     <path d="M 334.213984 265.039969 
L 452.644844 265.039969 
Q 454.544844 265.039969 454.544844 263.139969 
L 454.544844 236.201531 
Q 454.544844 234.301531 452.644844 234.301531 
L 334.213984 234.301531 
Q 332.313984 234.301531 332.313984 236.201531 
L 332.313984 263.139969 
Q 332.313984 265.039969 334.213984 265.039969 
z
" style="fill: #ffffff; opacity: 0.92; stroke: #cccccc; stroke-linejoin: miter"/>
    </g>
    <g id="line2d_62">
     <path d="M 336.113984 241.995047 
L 345.613984 241.995047 
L 345.613984 241.995047 
L 355.113984 241.995047 
L 355.113984 241.995047 
" style="fill: none; stroke: #2980b9; stroke-width: 2.6; stroke-linecap: square"/>
    </g>
    <g id="text_22">
     <!-- $N(t)$ -->
     <g transform="translate(362.713984 245.320047) scale(0.095 -0.095)">
      <use xlink:href="#DejaVuSans-Oblique-4e" transform="translate(0 0.125)"/>
      <use xlink:href="#DejaVuSans-28" transform="translate(74.804688 0.125)"/>
      <use xlink:href="#DejaVuSans-Oblique-74" transform="translate(113.818359 0.125)"/>
      <use xlink:href="#DejaVuSans-29" transform="translate(153.027344 0.125)"/>
     </g>
    </g>
    <g id="line2d_63">
     <g>
      <use xlink:href="#ma4bdb3d894" x="345.613984" y="255.939266" style="fill: #c0392b; stroke: #c0392b; stroke-width: 2.2"/>
     </g>
    </g>
    <g id="text_23">
     <!-- llegadas (eventos) -->
     <g transform="translate(362.713984 259.264266) scale(0.095 -0.095)">
      <defs>
       <path id="DejaVuSans-6c" d="M 603 4863 
L 1178 4863 
L 1178 0 
L 603 0 
L 603 4863 
z
" transform="scale(0.015625)"/>
       <path id="DejaVuSans-65" d="M 3597 1894 
L 3597 1613 
L 953 1613 
Q 991 1019 1311 708 
Q 1631 397 2203 397 
Q 2534 397 2845 478 
Q 3156 559 3463 722 
L 3463 178 
Q 3153 47 2828 -22 
Q 2503 -91 2169 -91 
Q 1331 -91 842 396 
Q 353 884 353 1716 
Q 353 2575 817 3079 
Q 1281 3584 2069 3584 
Q 2775 3584 3186 3129 
Q 3597 2675 3597 1894 
z
M 3022 2063 
Q 3016 2534 2758 2815 
Q 2500 3097 2075 3097 
Q 1594 3097 1305 2825 
Q 1016 2553 972 2059 
L 3022 2063 
z
" transform="scale(0.015625)"/>
       <path id="DejaVuSans-67" d="M 2906 1791 
Q 2906 2416 2648 2759 
Q 2391 3103 1925 3103 
Q 1463 3103 1205 2759 
Q 947 2416 947 1791 
Q 947 1169 1205 825 
Q 1463 481 1925 481 
Q 2391 481 2648 825 
Q 2906 1169 2906 1791 
z
M 3481 434 
Q 3481 -459 3084 -895 
Q 2688 -1331 1869 -1331 
Q 1566 -1331 1297 -1286 
Q 1028 -1241 775 -1147 
L 775 -588 
Q 1028 -725 1275 -790 
Q 1522 -856 1778 -856 
Q 2344 -856 2625 -561 
Q 2906 -266 2906 331 
L 2906 616 
Q 2728 306 2450 153 
Q 2172 0 1784 0 
Q 1141 0 747 490 
Q 353 981 353 1791 
Q 353 2603 747 3093 
Q 1141 3584 1784 3584 
Q 2172 3584 2450 3431 
Q 2728 3278 2906 2969 
L 2906 3500 
L 3481 3500 
L 3481 434 
z
" transform="scale(0.015625)"/>
       <path id="DejaVuSans-61" d="M 2194 1759 
Q 1497 1759 1228 1600 
Q 959 1441 959 1056 
Q 959 750 1161 570 
Q 1363 391 1709 391 
Q 2188 391 2477 730 
Q 2766 1069 2766 1631 
L 2766 1759 
L 2194 1759 
z
M 3341 1997 
L 3341 0 
L 2766 0 
L 2766 531 
Q 2569 213 2275 61 
Q 1981 -91 1556 -91 
Q 1019 -91 701 211 
Q 384 513 384 1019 
Q 384 1609 779 1909 
Q 1175 2209 1959 2209 
L 2766 2209 
L 2766 2266 
Q 2766 2663 2505 2880 
Q 2244 3097 1772 3097 
Q 1472 3097 1187 3025 
Q 903 2953 641 2809 
L 641 3341 
Q 956 3463 1253 3523 
Q 1550 3584 1831 3584 
Q 2591 3584 2966 3190 
Q 3341 2797 3341 1997 
z
" transform="scale(0.015625)"/>
       <path id="DejaVuSans-73" d="M 2834 3397 
L 2834 2853 
Q 2591 2978 2328 3040 
Q 2066 3103 1784 3103 
Q 1356 3103 1142 2972 
Q 928 2841 928 2578 
Q 928 2378 1081 2264 
Q 1234 2150 1697 2047 
L 1894 2003 
Q 2506 1872 2764 1633 
Q 3022 1394 3022 966 
Q 3022 478 2636 193 
Q 2250 -91 1575 -91 
Q 1294 -91 989 -36 
Q 684 19 347 128 
L 347 722 
Q 666 556 975 473 
Q 1284 391 1588 391 
Q 1994 391 2212 530 
Q 2431 669 2431 922 
Q 2431 1156 2273 1281 
Q 2116 1406 1581 1522 
L 1381 1569 
Q 847 1681 609 1914 
Q 372 2147 372 2553 
Q 372 3047 722 3315 
Q 1072 3584 1716 3584 
Q 2034 3584 2315 3537 
Q 2597 3491 2834 3397 
z
" transform="scale(0.015625)"/>
       <path id="DejaVuSans-76" d="M 191 3500 
L 800 3500 
L 1894 563 
L 2988 3500 
L 3597 3500 
L 2284 0 
L 1503 0 
L 191 3500 
z
" transform="scale(0.015625)"/>
       <path id="DejaVuSans-6e" d="M 3513 2113 
L 3513 0 
L 2938 0 
L 2938 2094 
Q 2938 2591 2744 2837 
Q 2550 3084 2163 3084 
Q 1697 3084 1428 2787 
Q 1159 2491 1159 1978 
L 1159 0 
L 581 0 
L 581 3500 
L 1159 3500 
L 1159 2956 
Q 1366 3272 1645 3428 
Q 1925 3584 2291 3584 
Q 2894 3584 3203 3211 
Q 3513 2838 3513 2113 
z
" transform="scale(0.015625)"/>
       <path id="DejaVuSans-74" d="M 1172 4494 
L 1172 3500 
L 2356 3500 
L 2356 3053 
L 1172 3053 
L 1172 1153 
Q 1172 725 1289 603 
Q 1406 481 1766 481 
L 2356 481 
L 2356 0 
L 1766 0 
Q 1100 0 847 248 
Q 594 497 594 1153 
L 594 3053 
L 172 3053 
L 172 3500 
L 594 3500 
L 594 4494 
L 1172 4494 
z
" transform="scale(0.015625)"/>
      </defs>
      <use xlink:href="#DejaVuSans-6c"/>
      <use xlink:href="#DejaVuSans-6c" x="27.783203"/>
      <use xlink:href="#DejaVuSans-65" x="55.566406"/>
      <use xlink:href="#DejaVuSans-67" x="117.089844"/>
      <use xlink:href="#DejaVuSans-61" x="180.566406"/>
      <use xlink:href="#DejaVuSans-64" x="241.845703"/>
      <use xlink:href="#DejaVuSans-61" x="305.322266"/>
      <use xlink:href="#DejaVuSans-73" x="366.601562"/>
      <use xlink:href="#DejaVuSans-20" x="418.701172"/>
      <use xlink:href="#DejaVuSans-28" x="450.488281"/>
      <use xlink:href="#DejaVuSans-65" x="489.501953"/>
      <use xlink:href="#DejaVuSans-76" x="551.025391"/>
      <use xlink:href="#DejaVuSans-65" x="610.205078"/>
      <use xlink:href="#DejaVuSans-6e" x="671.728516"/>
      <use xlink:href="#DejaVuSans-74" x="735.107422"/>
      <use xlink:href="#DejaVuSans-6f" x="774.316406"/>
      <use xlink:href="#DejaVuSans-73" x="835.498047"/>
      <use xlink:href="#DejaVuSans-29" x="887.597656"/>
     </g>
    </g>
   </g>
  </g>
 </g>
 <defs>
  <clipPath id="p5cce2b8243">
   <rect x="46.374844" y="31.397969" width="412.92" height="238.392"/>
  </clipPath>
 </defs>
</svg>
