<?xml version="1.0" encoding="utf-8" standalone="no"?>
<!DOCTYPE svg PUBLIC "-//W3C//DTD SVG 1.1//EN"
  "http://www.w3.org/Graphics/SVG/1.1/DTD/svg11.dtd">
<svg xmlns:xlink="http://www.w3.org/1999/xlink" width="662.135469pt" height="297.503969pt" viewBox="0 0 662.135469 297.503969" xmlns="http://www.w3.org/2000/svg" version="1.1">
 <metadata>
  <rdf:RDF xmlns:dc="http://purl.org/dc/elements/1.1/" xmlns:cc="http://creativecommons.org/ns#" xmlns:rdf="http://www.w3.org/1999/02/22-rdf-syntax-ns#">
   <cc:Work>
    <dc:type rdf:resource="http://purl.org/dc/dcmitype/StillImage"/>
    <dc:date>2026-06-30T11:52:54.929582</dc:date>
    <dc:format>image/svg+xml</dc:format>
    <dc:creator>
     <cc:Agent>
      <dc:title>Matplotlib v3.9.2, https://matplotlib.org/</dc:title>
     </cc:Agent>
    </dc:creator>
   </cc:Work>
  </rdf:RDF>
 </metadata>
 <defs>
  <style type="text/css">*{stroke-linejoin: round; stroke-linecap: butt}</style>
 </defs>
 <g id="figure_1">
  <g id="patch_1">
   <path d="M 0 297.503969 
L 662.135469 297.503969 
L 662.135469 0 
L 0 0 
z
" style="fill: #ffffff"/>
  </g>
  <g id="axes_1">
   <g id="patch_2">
    <path d="M 55.915469 254.176 
L 332.755469 254.176 
L 332.755469 73.536 
L 55.915469 73.536 
z
" style="fill: #ffffff"/>
   </g>
   <g id="matplotlib.axis_1">
    <g id="xtick_1">
     <g id="line2d_1">
      <path d="M 85.056521 254.176 
L 85.056521 73.536 
" clip-path="url(#pbfd6ea6eec)" style="fill: none; stroke-dasharray: 0.8,1.28; stroke-dashoffset: 0; stroke: #b0b0b0; stroke-opacity: 0.3; stroke-width: 0.8"/>
     </g>
     <g id="line2d_2">
      <defs>
       <path id="md6083d2ac4" d="M 0 0 
L 0 3.5 
" style="stroke: #2c3e50; stroke-width: 0.8"/>
      </defs>
      <g>
       <use xlink:href="#md6083d2ac4" x="85.056521" y="254.176" style="fill: #2c3e50; stroke: #2c3e50; stroke-width: 0.8"/>
      </g>
     </g>
     <g id="text_1">
      <!-- −3 -->
      <g style="fill: #2c3e50" transform="translate(77.685428 268.774438) scale(0.1 -0.1)">
       <defs>
        <path id="DejaVuSans-2212" d="M 678 2272 
L 4684 2272 
L 4684 1741 
L 678 1741 
L 678 2272 
z
" transform="scale(0.015625)"/>
        <path id="DejaVuSans-33" d="M 2597 2516 
Q 3050 2419 3304 2112 
Q 3559 1806 3559 1356 
Q 3559 666 3084 287 
Q 2609 -91 1734 -91 
Q 1441 -91 1130 -33 
Q 819 25 488 141 
L 488 750 
Q 750 597 1062 519 
Q 1375 441 1716 441 
Q 2309 441 2620 675 
Q 2931 909 2931 1356 
Q 2931 1769 2642 2001 
Q 2353 2234 1838 2234 
L 1294 2234 
L 1294 2753 
L 1863 2753 
Q 2328 2753 2575 2939 
Q 2822 3125 2822 3475 
Q 2822 3834 2567 4026 
Q 2313 4219 1838 4219 
Q 1578 4219 1281 4162 
Q 984 4106 628 3988 
L 628 4550 
Q 988 4650 1302 4700 
Q 1616 4750 1894 4750 
Q 2613 4750 3031 4423 
Q 3450 4097 3450 3541 
Q 3450 3153 3228 2886 
Q 3006 2619 2597 2516 
z
" transform="scale(0.015625)"/>
       </defs>
       <use xlink:href="#DejaVuSans-2212"/>
       <use xlink:href="#DejaVuSans-33" x="83.789062"/>
      </g>
     </g>
    </g>
    <g id="xtick_2">
     <g id="line2d_3">
      <path d="M 121.482837 254.176 
L 121.482837 73.536 
" clip-path="url(#pbfd6ea6eec)" style="fill: none; stroke-dasharray: 0.8,1.28; stroke-dashoffset: 0; stroke: #b0b0b0; stroke-opacity: 0.3; stroke-width: 0.8"/>
     </g>
     <g id="line2d_4">
      <g>
       <use xlink:href="#md6083d2ac4" x="121.482837" y="254.176" style="fill: #2c3e50; stroke: #2c3e50; stroke-width: 0.8"/>
      </g>
     </g>
     <g id="text_2">
      <!-- −2 -->
      <g style="fill: #2c3e50" transform="translate(114.111743 268.774438) scale(0.1 -0.1)">
       <defs>
        <path id="DejaVuSans-32" d="M 1228 531 
L 3431 531 
L 3431 0 
L 469 0 
L 469 531 
Q 828 903 1448 1529 
Q 2069 2156 2228 2338 
Q 2531 2678 2651 2914 
Q 2772 3150 2772 3378 
Q 2772 3750 2511 3984 
Q 2250 4219 1831 4219 
Q 1534 4219 1204 4116 
Q 875 4013 500 3803 
L 500 4441 
Q 881 4594 1212 4672 
Q 1544 4750 1819 4750 
Q 2544 4750 2975 4387 
Q 3406 4025 3406 3419 
Q 3406 3131 3298 2873 
Q 3191 2616 2906 2266 
Q 2828 2175 2409 1742 
Q 1991 1309 1228 531 
z
" transform="scale(0.015625)"/>
       </defs>
       <use xlink:href="#DejaVuSans-2212"/>
       <use xlink:href="#DejaVuSans-32" x="83.789062"/>
      </g>
     </g>
    </g>
    <g id="xtick_3">
     <g id="line2d_5">
      <path d="M 157.909153 254.176 
L 157.909153 73.536 
" clip-path="url(#pbfd6ea6eec)" style="fill: none; stroke-dasharray: 0.8,1.28; stroke-dashoffset: 0; stroke: #b0b0b0; stroke-opacity: 0.3; stroke-width: 0.8"/>
     </g>
     <g id="line2d_6">
      <g>
       <use xlink:href="#md6083d2ac4" x="157.909153" y="254.176" style="fill: #2c3e50; stroke: #2c3e50; stroke-width: 0.8"/>
      </g>
     </g>
     <g id="text_3">
      <!-- −1 -->
      <g style="fill: #2c3e50" transform="translate(150.538059 268.774438) scale(0.1 -0.1)">
       <defs>
        <path id="DejaVuSans-31" d="M 794 531 
L 1825 531 
L 1825 4091 
L 703 3866 
L 703 4441 
L 1819 4666 
L 2450 4666 
L 2450 531 
L 3481 531 
L 3481 0 
L 794 0 
L 794 531 
z
" transform="scale(0.015625)"/>
       </defs>
       <use xlink:href="#DejaVuSans-2212"/>
       <use xlink:href="#DejaVuSans-31" x="83.789062"/>
      </g>
     </g>
    </g>
    <g id="xtick_4">
     <g id="line2d_7">
      <path d="M 194.335469 254.176 
L 194.335469 73.536 
" clip-path="url(#pbfd6ea6eec)" style="fill: none; stroke-dasharray: 0.8,1.28; stroke-dashoffset: 0; stroke: #b0b0b0; stroke-opacity: 0.3; stroke-width: 0.8"/>
     </g>
     <g id="line2d_8">
      <g>
       <use xlink:href="#md6083d2ac4" x="194.335469" y="254.176" style="fill: #2c3e50; stroke: #2c3e50; stroke-width: 0.8"/>
      </g>
     </g>
     <g id="text_4">
      <!-- 0 -->
      <g style="fill: #2c3e50" transform="translate(191.154219 268.774438) scale(0.1 -0.1)">
       <defs>
        <path id="DejaVuSans-30" d="M 2034 4250 
Q 1547 4250 1301 3770 
Q 1056 3291 1056 2328 
Q 1056 1369 1301 889 
Q 1547 409 2034 409 
Q 2525 409 2770 889 
Q 3016 1369 3016 2328 
Q 3016 3291 2770 3770 
Q 2525 4250 2034 4250 
z
M 2034 4750 
Q 2819 4750 3233 4129 
Q 3647 3509 3647 2328 
Q 3647 1150 3233 529 
Q 2819 -91 2034 -91 
Q 1250 -91 836 529 
Q 422 1150 422 2328 
Q 422 3509 836 4129 
Q 1250 4750 2034 4750 
z
" transform="scale(0.015625)"/>
       </defs>
       <use xlink:href="#DejaVuSans-30"/>
      </g>
     </g>
    </g>
    <g id="xtick_5">
     <g id="line2d_9">
      <path d="M 230.761785 254.176 
L 230.761785 73.536 
" clip-path="url(#pbfd6ea6eec)" style="fill: none; stroke-dasharray: 0.8,1.28; stroke-dashoffset: 0; stroke: #b0b0b0; stroke-opacity: 0.3; stroke-width: 0.8"/>
     </g>
     <g id="line2d_10">
      <g>
       <use xlink:href="#md6083d2ac4" x="230.761785" y="254.176" style="fill: #2c3e50; stroke: #2c3e50; stroke-width: 0.8"/>
      </g>
     </g>
     <g id="text_5">
      <!-- 1 -->
      <g style="fill: #2c3e50" transform="translate(227.580535 268.774438) scale(0.1 -0.1)">
       <use xlink:href="#DejaVuSans-31"/>
      </g>
     </g>
    </g>
    <g id="xtick_6">
     <g id="line2d_11">
      <path d="M 267.1881 254.176 
L 267.1881 73.536 
" clip-path="url(#pbfd6ea6eec)" style="fill: none; stroke-dasharray: 0.8,1.28; stroke-dashoffset: 0; stroke: #b0b0b0; stroke-opacity: 0.3; stroke-width: 0.8"/>
     </g>
     <g id="line2d_12">
      <g>
       <use xlink:href="#md6083d2ac4" x="267.1881" y="254.176" style="fill: #2c3e50; stroke: #2c3e50; stroke-width: 0.8"/>
      </g>
     </g>
     <g id="text_6">
      <!-- 2 -->
      <g style="fill: #2c3e50" transform="translate(264.00685 268.774438) scale(0.1 -0.1)">
       <use xlink:href="#DejaVuSans-32"/>
      </g>
     </g>
    </g>
    <g id="xtick_7">
     <g id="line2d_13">
      <path d="M 303.614416 254.176 
L 303.614416 73.536 
" clip-path="url(#pbfd6ea6eec)" style="fill: none; stroke-dasharray: 0.8,1.28; stroke-dashoffset: 0; stroke: #b0b0b0; stroke-opacity: 0.3; stroke-width: 0.8"/>
     </g>
     <g id="line2d_14">
      <g>
       <use xlink:href="#md6083d2ac4" x="303.614416" y="254.176" style="fill: #2c3e50; stroke: #2c3e50; stroke-width: 0.8"/>
      </g>
     </g>
     <g id="text_7">
      <!-- 3 -->
      <g style="fill: #2c3e50" transform="translate(300.433166 268.774438) scale(0.1 -0.1)">
       <use xlink:href="#DejaVuSans-33"/>
      </g>
     </g>
    </g>
    <g id="text_8">
     <!-- z -->
     <g transform="translate(190.988789 283.592328) scale(0.115 -0.115)">
      <defs>
       <path id="DejaVuSans-Bold-7a" d="M 366 3500 
L 3419 3500 
L 3419 2719 
L 1575 800 
L 3419 800 
L 3419 0 
L 288 0 
L 288 781 
L 2131 2700 
L 366 2700 
L 366 3500 
z
" transform="scale(0.015625)"/>
      </defs>
      <use xlink:href="#DejaVuSans-Bold-7a"/>
     </g>
    </g>
   </g>
   <g id="matplotlib.axis_2">
    <g id="ytick_1">
     <g id="line2d_15">
      <path d="M 55.915469 254.176 
L 332.755469 254.176 
" clip-path="url(#pbfd6ea6eec)" style="fill: none; stroke-dasharray: 0.8,1.28; stroke-dashoffset: 0; stroke: #b0b0b0; stroke-opacity: 0.3; stroke-width: 0.8"/>
     </g>
     <g id="line2d_16">
      <defs>
       <path id="m8fe1163071" d="M 0 0 
L -3.5 0 
" style="stroke: #2c3e50; stroke-width: 0.8"/>
      </defs>
      <g>
       <use xlink:href="#m8fe1163071" x="55.915469" y="254.176" style="fill: #2c3e50; stroke: #2c3e50; stroke-width: 0.8"/>
      </g>
     </g>
     <g id="text_9">
      <!-- 0.00 -->
      <g style="fill: #2c3e50" transform="translate(26.649844 257.975219) scale(0.1 -0.1)">
       <defs>
        <path id="DejaVuSans-2e" d="M 684 794 
L 1344 794 
L 1344 0 
L 684 0 
L 684 794 
z
" transform="scale(0.015625)"/>
       </defs>
       <use xlink:href="#DejaVuSans-30"/>
       <use xlink:href="#DejaVuSans-2e" x="63.623047"/>
       <use xlink:href="#DejaVuSans-30" x="95.410156"/>
       <use xlink:href="#DejaVuSans-30" x="159.033203"/>
      </g>
     </g>
    </g>
    <g id="ytick_2">
     <g id="line2d_17">
      <path d="M 55.915469 232.61403 
L 332.755469 232.61403 
" clip-path="url(#pbfd6ea6eec)" style="fill: none; stroke-dasharray: 0.8,1.28; stroke-dashoffset: 0; stroke: #b0b0b0; stroke-opacity: 0.3; stroke-width: 0.8"/>
     </g>
     <g id="line2d_18">
      <g>
       <use xlink:href="#m8fe1163071" x="55.915469" y="232.61403" style="fill: #2c3e50; stroke: #2c3e50; stroke-width: 0.8"/>
      </g>
     </g>
     <g id="text_10">
      <!-- 0.05 -->
      <g style="fill: #2c3e50" transform="translate(26.649844 236.413248) scale(0.1 -0.1)">
       <defs>
        <path id="DejaVuSans-35" d="M 691 4666 
L 3169 4666 
L 3169 4134 
L 1269 4134 
L 1269 2991 
Q 1406 3038 1543 3061 
Q 1681 3084 1819 3084 
Q 2600 3084 3056 2656 
Q 3513 2228 3513 1497 
Q 3513 744 3044 326 
Q 2575 -91 1722 -91 
Q 1428 -91 1123 -41 
Q 819 9 494 109 
L 494 744 
Q 775 591 1075 516 
Q 1375 441 1709 441 
Q 2250 441 2565 725 
Q 2881 1009 2881 1497 
Q 2881 1984 2565 2268 
Q 2250 2553 1709 2553 
Q 1456 2553 1204 2497 
Q 953 2441 691 2322 
L 691 4666 
z
" transform="scale(0.015625)"/>
       </defs>
       <use xlink:href="#DejaVuSans-30"/>
       <use xlink:href="#DejaVuSans-2e" x="63.623047"/>
       <use xlink:href="#DejaVuSans-30" x="95.410156"/>
       <use xlink:href="#DejaVuSans-35" x="159.033203"/>
      </g>
     </g>
    </g>
    <g id="ytick_3">
     <g id="line2d_19">
      <path d="M 55.915469 211.052059 
L 332.755469 211.052059 
" clip-path="url(#pbfd6ea6eec)" style="fill: none; stroke-dasharray: 0.8,1.28; stroke-dashoffset: 0; stroke: #b0b0b0; stroke-opacity: 0.3; stroke-width: 0.8"/>
     </g>
     <g id="line2d_20">
      <g>
       <use xlink:href="#m8fe1163071" x="55.915469" y="211.052059" style="fill: #2c3e50; stroke: #2c3e50; stroke-width: 0.8"/>
      </g>
     </g>
     <g id="text_11">
      <!-- 0.10 -->
      <g style="fill: #2c3e50" transform="translate(26.649844 214.851278) scale(0.1 -0.1)">
       <use xlink:href="#DejaVuSans-30"/>
       <use xlink:href="#DejaVuSans-2e" x="63.623047"/>
       <use xlink:href="#DejaVuSans-31" x="95.410156"/>
       <use xlink:href="#DejaVuSans-30" x="159.033203"/>
      </g>
     </g>
    </g>
    <g id="ytick_4">
     <g id="line2d_21">
      <path d="M 55.915469 189.490089 
L 332.755469 189.490089 
" clip-path="url(#pbfd6ea6eec)" style="fill: none; stroke-dasharray: 0.8,1.28; stroke-dashoffset: 0; stroke: #b0b0b0; stroke-opacity: 0.3; stroke-width: 0.8"/>
     </g>
     <g id="line2d_22">
      <g>
       <use xlink:href="#m8fe1163071" x="55.915469" y="189.490089" style="fill: #2c3e50; stroke: #2c3e50; stroke-width: 0.8"/>
      </g>
     </g>
     <g id="text_12">
      <!-- 0.15 -->
      <g style="fill: #2c3e50" transform="translate(26.649844 193.289308) scale(0.1 -0.1)">
       <use xlink:href="#DejaVuSans-30"/>
       <use xlink:href="#DejaVuSans-2e" x="63.623047"/>
       <use xlink:href="#DejaVuSans-31" x="95.410156"/>
       <use xlink:href="#DejaVuSans-35" x="159.033203"/>
      </g>
     </g>
    </g>
    <g id="ytick_5">
     <g id="line2d_23">
      <path d="M 55.915469 167.928119 
L 332.755469 167.928119 
" clip-path="url(#pbfd6ea6eec)" style="fill: none; stroke-dasharray: 0.8,1.28; stroke-dashoffset: 0; stroke: #b0b0b0; stroke-opacity: 0.3; stroke-width: 0.8"/>
     </g>
     <g id="line2d_24">
      <g>
       <use xlink:href="#m8fe1163071" x="55.915469" y="167.928119" style="fill: #2c3e50; stroke: #2c3e50; stroke-width: 0.8"/>
      </g>
     </g>
     <g id="text_13">
      <!-- 0.20 -->
      <g style="fill: #2c3e50" transform="translate(26.649844 171.727337) scale(0.1 -0.1)">
       <use xlink:href="#DejaVuSans-30"/>
       <use xlink:href="#DejaVuSans-2e" x="63.623047"/>
       <use xlink:href="#DejaVuSans-32" x="95.410156"/>
       <use xlink:href="#DejaVuSans-30" x="159.033203"/>
      </g>
     </g>
    </g>
    <g id="ytick_6">
     <g id="line2d_25">
      <path d="M 55.915469 146.366148 
L 332.755469 146.366148 
" clip-path="url(#pbfd6ea6eec)" style="fill: none; stroke-dasharray: 0.8,1.28; stroke-dashoffset: 0; stroke: #b0b0b0; stroke-opacity: 0.3; stroke-width: 0.8"/>
     </g>
     <g id="line2d_26">
      <g>
       <use xlink:href="#m8fe1163071" x="55.915469" y="146.366148" style="fill: #2c3e50; stroke: #2c3e50; stroke-width: 0.8"/>
      </g>
     </g>
     <g id="text_14">
      <!-- 0.25 -->
      <g style="fill: #2c3e50" transform="translate(26.649844 150.165367) scale(0.1 -0.1)">
       <use xlink:href="#DejaVuSans-30"/>
       <use xlink:href="#DejaVuSans-2e" x="63.623047"/>
       <use xlink:href="#DejaVuSans-32" x="95.410156"/>
       <use xlink:href="#DejaVuSans-35" x="159.033203"/>
      </g>
     </g>
    </g>
    <g id="ytick_7">
     <g id="line2d_27">
      <path d="M 55.915469 124.804178 
L 332.755469 124.804178 
" clip-path="url(#pbfd6ea6eec)" style="fill: none; stroke-dasharray: 0.8,1.28; stroke-dashoffset: 0; stroke: #b0b0b0; stroke-opacity: 0.3; stroke-width: 0.8"/>
     </g>
     <g id="line2d_28">
      <g>
       <use xlink:href="#m8fe1163071" x="55.915469" y="124.804178" style="fill: #2c3e50; stroke: #2c3e50; stroke-width: 0.8"/>
      </g>
     </g>
     <g id="text_15">
      <!-- 0.30 -->
      <g style="fill: #2c3e50" transform="translate(26.649844 128.603397) scale(0.1 -0.1)">
       <use xlink:href="#DejaVuSans-30"/>
       <use xlink:href="#DejaVuSans-2e" x="63.623047"/>
       <use xlink:href="#DejaVuSans-33" x="95.410156"/>
       <use xlink:href="#DejaVuSans-30" x="159.033203"/>
      </g>
     </g>
    </g>
    <g id="ytick_8">
     <g id="line2d_29">
      <path d="M 55.915469 103.242208 
L 332.755469 103.242208 
" clip-path="url(#pbfd6ea6eec)" style="fill: none; stroke-dasharray: 0.8,1.28; stroke-dashoffset: 0; stroke: #b0b0b0; stroke-opacity: 0.3; stroke-width: 0.8"/>
     </g>
     <g id="line2d_30">
      <g>
       <use xlink:href="#m8fe1163071" x="55.915469" y="103.242208" style="fill: #2c3e50; stroke: #2c3e50; stroke-width: 0.8"/>
      </g>
     </g>
     <g id="text_16">
      <!-- 0.35 -->
      <g style="fill: #2c3e50" transform="translate(26.649844 107.041427) scale(0.1 -0.1)">
       <use xlink:href="#DejaVuSans-30"/>
       <use xlink:href="#DejaVuSans-2e" x="63.623047"/>
       <use xlink:href="#DejaVuSans-33" x="95.410156"/>
       <use xlink:href="#DejaVuSans-35" x="159.033203"/>
      </g>
     </g>
    </g>
    <g id="ytick_9">
     <g id="line2d_31">
      <path d="M 55.915469 81.680237 
L 332.755469 81.680237 
" clip-path="url(#pbfd6ea6eec)" style="fill: none; stroke-dasharray: 0.8,1.28; stroke-dashoffset: 0; stroke: #b0b0b0; stroke-opacity: 0.3; stroke-width: 0.8"/>
     </g>
     <g id="line2d_32">
      <g>
       <use xlink:href="#m8fe1163071" x="55.915469" y="81.680237" style="fill: #2c3e50; stroke: #2c3e50; stroke-width: 0.8"/>
      </g>
     </g>
     <g id="text_17">
      <!-- 0.40 -->
      <g style="fill: #2c3e50" transform="translate(26.649844 85.479456) scale(0.1 -0.1)">
       <defs>
        <path id="DejaVuSans-34" d="M 2419 4116 
L 825 1625 
L 2419 1625 
L 2419 4116 
z
M 2253 4666 
L 3047 4666 
L 3047 1625 
L 3713 1625 
L 3713 1100 
L 3047 1100 
L 3047 0 
L 2419 0 
L 2419 1100 
L 313 1100 
L 313 1709 
L 2253 4666 
z
" transform="scale(0.015625)"/>
       </defs>
       <use xlink:href="#DejaVuSans-30"/>
       <use xlink:href="#DejaVuSans-2e" x="63.623047"/>
       <use xlink:href="#DejaVuSans-34" x="95.410156"/>
       <use xlink:href="#DejaVuSans-30" x="159.033203"/>
      </g>
     </g>
    </g>
    <g id="text_18">
     <!-- densidad -->
     <g transform="translate(20.258203 193.470297) rotate(-90) scale(0.115 -0.115)">
      <defs>
       <path id="DejaVuSans-Bold-64" d="M 2919 2988 
L 2919 4863 
L 4044 4863 
L 4044 0 
L 2919 0 
L 2919 506 
Q 2688 197 2409 53 
Q 2131 -91 1766 -91 
Q 1119 -91 703 423 
Q 288 938 288 1747 
Q 288 2556 703 3070 
Q 1119 3584 1766 3584 
Q 2128 3584 2408 3439 
Q 2688 3294 2919 2988 
z
M 2181 722 
Q 2541 722 2730 984 
Q 2919 1247 2919 1747 
Q 2919 2247 2730 2509 
Q 2541 2772 2181 2772 
Q 1825 2772 1636 2509 
Q 1447 2247 1447 1747 
Q 1447 1247 1636 984 
Q 1825 722 2181 722 
z
" transform="scale(0.015625)"/>
       <path id="DejaVuSans-Bold-65" d="M 4031 1759 
L 4031 1441 
L 1416 1441 
Q 1456 1047 1700 850 
Q 1944 653 2381 653 
Q 2734 653 3104 758 
Q 3475 863 3866 1075 
L 3866 213 
Q 3469 63 3072 -14 
Q 2675 -91 2278 -91 
Q 1328 -91 801 392 
Q 275 875 275 1747 
Q 275 2603 792 3093 
Q 1309 3584 2216 3584 
Q 3041 3584 3536 3087 
Q 4031 2591 4031 1759 
z
M 2881 2131 
Q 2881 2450 2695 2645 
Q 2509 2841 2209 2841 
Q 1884 2841 1681 2658 
Q 1478 2475 1428 2131 
L 2881 2131 
z
" transform="scale(0.015625)"/>
       <path id="DejaVuSans-Bold-6e" d="M 4056 2131 
L 4056 0 
L 2931 0 
L 2931 347 
L 2931 1631 
Q 2931 2084 2911 2256 
Q 2891 2428 2841 2509 
Q 2775 2619 2662 2680 
Q 2550 2741 2406 2741 
Q 2056 2741 1856 2470 
Q 1656 2200 1656 1722 
L 1656 0 
L 538 0 
L 538 3500 
L 1656 3500 
L 1656 2988 
Q 1909 3294 2193 3439 
Q 2478 3584 2822 3584 
Q 3428 3584 3742 3212 
Q 4056 2841 4056 2131 
z
" transform="scale(0.015625)"/>
       <path id="DejaVuSans-Bold-73" d="M 3272 3391 
L 3272 2541 
Q 2913 2691 2578 2766 
Q 2244 2841 1947 2841 
Q 1628 2841 1473 2761 
Q 1319 2681 1319 2516 
Q 1319 2381 1436 2309 
Q 1553 2238 1856 2203 
L 2053 2175 
Q 2913 2066 3209 1816 
Q 3506 1566 3506 1031 
Q 3506 472 3093 190 
Q 2681 -91 1863 -91 
Q 1516 -91 1145 -36 
Q 775 19 384 128 
L 384 978 
Q 719 816 1070 734 
Q 1422 653 1784 653 
Q 2113 653 2278 743 
Q 2444 834 2444 1013 
Q 2444 1163 2330 1236 
Q 2216 1309 1875 1350 
L 1678 1375 
Q 931 1469 631 1722 
Q 331 1975 331 2491 
Q 331 3047 712 3315 
Q 1094 3584 1881 3584 
Q 2191 3584 2531 3537 
Q 2872 3491 3272 3391 
z
" transform="scale(0.015625)"/>
       <path id="DejaVuSans-Bold-69" d="M 538 3500 
L 1656 3500 
L 1656 0 
L 538 0 
L 538 3500 
z
M 538 4863 
L 1656 4863 
L 1656 3950 
L 538 3950 
L 538 4863 
z
" transform="scale(0.015625)"/>
       <path id="DejaVuSans-Bold-61" d="M 2106 1575 
Q 1756 1575 1579 1456 
Q 1403 1338 1403 1106 
Q 1403 894 1545 773 
Q 1688 653 1941 653 
Q 2256 653 2472 879 
Q 2688 1106 2688 1447 
L 2688 1575 
L 2106 1575 
z
M 3816 1997 
L 3816 0 
L 2688 0 
L 2688 519 
Q 2463 200 2181 54 
Q 1900 -91 1497 -91 
Q 953 -91 614 226 
Q 275 544 275 1050 
Q 275 1666 698 1953 
Q 1122 2241 2028 2241 
L 2688 2241 
L 2688 2328 
Q 2688 2594 2478 2717 
Q 2269 2841 1825 2841 
Q 1466 2841 1156 2769 
Q 847 2697 581 2553 
L 581 3406 
Q 941 3494 1303 3539 
Q 1666 3584 2028 3584 
Q 2975 3584 3395 3211 
Q 3816 2838 3816 1997 
z
" transform="scale(0.015625)"/>
      </defs>
      <use xlink:href="#DejaVuSans-Bold-64"/>
      <use xlink:href="#DejaVuSans-Bold-65" x="71.582031"/>
      <use xlink:href="#DejaVuSans-Bold-6e" x="139.404297"/>
      <use xlink:href="#DejaVuSans-Bold-73" x="210.595703"/>
      <use xlink:href="#DejaVuSans-Bold-69" x="270.117188"/>
      <use xlink:href="#DejaVuSans-Bold-64" x="304.394531"/>
      <use xlink:href="#DejaVuSans-Bold-61" x="375.976562"/>
      <use xlink:href="#DejaVuSans-Bold-64" x="443.457031"/>
     </g>
    </g>
   </g>
   <g id="PolyCollection_1">
    <defs>
     <path id="m3ec610a4d7" d="M 254.538161 -43.327969 
L 254.538161 -87.23061 
L 254.846103 -86.619927 
L 255.154045 -86.014687 
L 255.461987 -85.4149 
L 255.769929 -84.820576 
L 256.077871 -84.231721 
L 256.385814 -83.648341 
L 256.693756 -83.070441 
L 257.001698 -82.498024 
L 257.30964 -81.931094 
L 257.617582 -81.369649 
L 257.925524 -80.813692 
L 258.233467 -80.263219 
L 258.541409 -79.71823 
L 258.849351 -79.178719 
L 259.157293 -78.644683 
L 259.465235 -78.116116 
L 259.773177 -77.593011 
L 260.081119 -77.07536 
L 260.389062 -76.563153 
L 260.697004 -76.056382 
L 261.004946 -75.555034 
L 261.312888 -75.059099 
L 261.62083 -74.568563 
L 261.928772 -74.083412 
L 262.236715 -73.603631 
L 262.544657 -73.129205 
L 262.852599 -72.660117 
L 263.160541 -72.196349 
L 263.468483 -71.737884 
L 263.776425 -71.284701 
L 264.084368 -70.836782 
L 264.39231 -70.394104 
L 264.700252 -69.956647 
L 265.008194 -69.524388 
L 265.316136 -69.097305 
L 265.624078 -68.675372 
L 265.93202 -68.258566 
L 266.239963 -67.846862 
L 266.547905 -67.440233 
L 266.855847 -67.038653 
L 267.163789 -66.642095 
L 267.471731 -66.250531 
L 267.779673 -65.863933 
L 268.087616 -65.482272 
L 268.395558 -65.105518 
L 268.7035 -64.733641 
L 269.011442 -64.366611 
L 269.319384 -64.004396 
L 269.627326 -63.646965 
L 269.935269 -63.294286 
L 270.243211 -62.946327 
L 270.551153 -62.603054 
L 270.859095 -62.264434 
L 271.167037 -61.930433 
L 271.474979 -61.601017 
L 271.782921 -61.276152 
L 272.090864 -60.955802 
L 272.398806 -60.639934 
L 272.706748 -60.32851 
L 273.01469 -60.021495 
L 273.322632 -59.718853 
L 273.630574 -59.420547 
L 273.938517 -59.126542 
L 274.246459 -58.836799 
L 274.554401 -58.551283 
L 274.862343 -58.269954 
L 275.170285 -57.992777 
L 275.478227 -57.719713 
L 275.78617 -57.450724 
L 276.094112 -57.185772 
L 276.402054 -56.924819 
L 276.709996 -56.667826 
L 277.017938 -56.414756 
L 277.32588 -56.165569 
L 277.633822 -55.920227 
L 277.941765 -55.678691 
L 278.249707 -55.440922 
L 278.557649 -55.206882 
L 278.865591 -54.976531 
L 279.173533 -54.749831 
L 279.481475 -54.526742 
L 279.789418 -54.307226 
L 280.09736 -54.091244 
L 280.405302 -53.878756 
L 280.713244 -53.669724 
L 281.021186 -53.464109 
L 281.329128 -53.261872 
L 281.637071 -53.062974 
L 281.945013 -52.867377 
L 282.252955 -52.675042 
L 282.560897 -52.48593 
L 282.868839 -52.300003 
L 283.176781 -52.117223 
L 283.484723 -51.937551 
L 283.792666 -51.760949 
L 284.100608 -51.58738 
L 284.40855 -51.416804 
L 284.716492 -51.249186 
L 285.024434 -51.084486 
L 285.332376 -50.922668 
L 285.640319 -50.763695 
L 285.948261 -50.607529 
L 286.256203 -50.454133 
L 286.564145 -50.303471 
L 286.872087 -50.155507 
L 287.180029 -50.010204 
L 287.487972 -49.867525 
L 287.795914 -49.727436 
L 288.103856 -49.5899 
L 288.411798 -49.454882 
L 288.71974 -49.322347 
L 289.027682 -49.19226 
L 289.335624 -49.064586 
L 289.643567 -48.93929 
L 289.951509 -48.816339 
L 290.259451 -48.695698 
L 290.567393 -48.577334 
L 290.875335 -48.461213 
L 291.183277 -48.347302 
L 291.49122 -48.235568 
L 291.799162 -48.125979 
L 292.107104 -48.018501 
L 292.415046 -47.913103 
L 292.722988 -47.809754 
L 293.03093 -47.70842 
L 293.338873 -47.609072 
L 293.646815 -47.511678 
L 293.954757 -47.416208 
L 294.262699 -47.32263 
L 294.570641 -47.230916 
L 294.878583 -47.141035 
L 295.186525 -47.052957 
L 295.494468 -46.966654 
L 295.80241 -46.882097 
L 296.110352 -46.799256 
L 296.418294 -46.718104 
L 296.726236 -46.638612 
L 297.034178 -46.560754 
L 297.342121 -46.484501 
L 297.650063 -46.409826 
L 297.958005 -46.336703 
L 298.265947 -46.265104 
L 298.573889 -46.195005 
L 298.881831 -46.126379 
L 299.189774 -46.0592 
L 299.497716 -45.993443 
L 299.805658 -45.929084 
L 300.1136 -45.866097 
L 300.421542 -45.804459 
L 300.729484 -45.744144 
L 301.037426 -45.68513 
L 301.345369 -45.627394 
L 301.653311 -45.570911 
L 301.961253 -45.515659 
L 302.269195 -45.461616 
L 302.577137 -45.408759 
L 302.885079 -45.357066 
L 303.193022 -45.306517 
L 303.500964 -45.257088 
L 303.808906 -45.20876 
L 304.116848 -45.161512 
L 304.42479 -45.115323 
L 304.732732 -45.070173 
L 305.040675 -45.026042 
L 305.348617 -44.982911 
L 305.656559 -44.94076 
L 305.964501 -44.89957 
L 306.272443 -44.859323 
L 306.580385 -44.82 
L 306.888327 -44.781583 
L 307.19627 -44.744054 
L 307.504212 -44.707395 
L 307.812154 -44.671589 
L 308.120096 -44.636619 
L 308.428038 -44.602468 
L 308.73598 -44.569119 
L 309.043923 -44.536557 
L 309.351865 -44.504765 
L 309.659807 -44.473727 
L 309.967749 -44.443428 
L 310.275691 -44.413853 
L 310.583633 -44.384986 
L 310.891576 -44.356814 
L 311.199518 -44.32932 
L 311.50746 -44.302492 
L 311.815402 -44.276315 
L 312.123344 -44.250774 
L 312.431286 -44.225858 
L 312.739228 -44.201552 
L 313.047171 -44.177843 
L 313.355113 -44.154718 
L 313.663055 -44.132166 
L 313.970997 -44.110172 
L 314.278939 -44.088726 
L 314.586881 -44.067814 
L 314.894824 -44.047427 
L 315.202766 -44.02755 
L 315.510708 -44.008175 
L 315.81865 -43.989289 
L 316.126592 -43.970881 
L 316.434534 -43.952941 
L 316.742477 -43.935458 
L 317.050419 -43.918422 
L 317.358361 -43.901823 
L 317.666303 -43.88565 
L 317.974245 -43.869895 
L 318.282187 -43.854547 
L 318.590129 -43.839597 
L 318.898072 -43.825036 
L 319.206014 -43.810855 
L 319.513956 -43.797045 
L 319.821898 -43.783598 
L 320.12984 -43.770504 
L 320.437782 -43.757756 
L 320.745725 -43.745345 
L 321.053667 -43.733264 
L 321.361609 -43.721504 
L 321.669551 -43.710058 
L 321.977493 -43.698919 
L 322.285435 -43.688078 
L 322.593378 -43.67753 
L 322.90132 -43.667266 
L 323.209262 -43.65728 
L 323.517204 -43.647565 
L 323.825146 -43.638114 
L 324.133088 -43.628921 
L 324.44103 -43.61998 
L 324.748973 -43.611285 
L 325.056915 -43.602829 
L 325.364857 -43.594606 
L 325.672799 -43.58661 
L 325.980741 -43.578836 
L 326.288683 -43.571279 
L 326.596626 -43.563933 
L 326.904568 -43.556791 
L 327.21251 -43.549851 
L 327.520452 -43.543105 
L 327.828394 -43.536549 
L 328.136336 -43.530179 
L 328.444279 -43.523989 
L 328.752221 -43.517976 
L 329.060163 -43.512133 
L 329.368105 -43.506458 
L 329.676047 -43.500945 
L 329.983989 -43.49559 
L 330.291931 -43.490389 
L 330.599874 -43.485339 
L 330.907816 -43.480435 
L 331.215758 -43.475673 
L 331.5237 -43.471049 
L 331.831642 -43.46656 
L 332.139584 -43.462203 
L 332.447527 -43.457973 
L 332.755469 -43.453868 
L 332.755469 -43.327969 
L 332.755469 -43.327969 
L 332.447527 -43.327969 
L 332.139584 -43.327969 
L 331.831642 -43.327969 
L 331.5237 -43.327969 
L 331.215758 -43.327969 
L 330.907816 -43.327969 
L 330.599874 -43.327969 
L 330.291931 -43.327969 
L 329.983989 -43.327969 
L 329.676047 -43.327969 
L 329.368105 -43.327969 
L 329.060163 -43.327969 
L 328.752221 -43.327969 
L 328.444279 -43.327969 
L 328.136336 -43.327969 
L 327.828394 -43.327969 
L 327.520452 -43.327969 
L 327.21251 -43.327969 
L 326.904568 -43.327969 
L 326.596626 -43.327969 
L 326.288683 -43.327969 
L 325.980741 -43.327969 
L 325.672799 -43.327969 
L 325.364857 -43.327969 
L 325.056915 -43.327969 
L 324.748973 -43.327969 
L 324.44103 -43.327969 
L 324.133088 -43.327969 
L 323.825146 -43.327969 
L 323.517204 -43.327969 
L 323.209262 -43.327969 
L 322.90132 -43.327969 
L 322.593378 -43.327969 
L 322.285435 -43.327969 
L 321.977493 -43.327969 
L 321.669551 -43.327969 
L 321.361609 -43.327969 
L 321.053667 -43.327969 
L 320.745725 -43.327969 
L 320.437782 -43.327969 
L 320.12984 -43.327969 
L 319.821898 -43.327969 
L 319.513956 -43.327969 
L 319.206014 -43.327969 
L 318.898072 -43.327969 
L 318.590129 -43.327969 
L 318.282187 -43.327969 
L 317.974245 -43.327969 
L 317.666303 -43.327969 
L 317.358361 -43.327969 
L 317.050419 -43.327969 
L 316.742477 -43.327969 
L 316.434534 -43.327969 
L 316.126592 -43.327969 
L 315.81865 -43.327969 
L 315.510708 -43.327969 
L 315.202766 -43.327969 
L 314.894824 -43.327969 
L 314.586881 -43.327969 
L 314.278939 -43.327969 
L 313.970997 -43.327969 
L 313.663055 -43.327969 
L 313.355113 -43.327969 
L 313.047171 -43.327969 
L 312.739228 -43.327969 
L 312.431286 -43.327969 
L 312.123344 -43.327969 
L 311.815402 -43.327969 
L 311.50746 -43.327969 
L 311.199518 -43.327969 
L 310.891576 -43.327969 
L 310.583633 -43.327969 
L 310.275691 -43.327969 
L 309.967749 -43.327969 
L 309.659807 -43.327969 
L 309.351865 -43.327969 
L 309.043923 -43.327969 
L 308.73598 -43.327969 
L 308.428038 -43.327969 
L 308.120096 -43.327969 
L 307.812154 -43.327969 
L 307.504212 -43.327969 
L 307.19627 -43.327969 
L 306.888327 -43.327969 
L 306.580385 -43.327969 
L 306.272443 -43.327969 
L 305.964501 -43.327969 
L 305.656559 -43.327969 
L 305.348617 -43.327969 
L 305.040675 -43.327969 
L 304.732732 -43.327969 
L 304.42479 -43.327969 
L 304.116848 -43.327969 
L 303.808906 -43.327969 
L 303.500964 -43.327969 
L 303.193022 -43.327969 
L 302.885079 -43.327969 
L 302.577137 -43.327969 
L 302.269195 -43.327969 
L 301.961253 -43.327969 
L 301.653311 -43.327969 
L 301.345369 -43.327969 
L 301.037426 -43.327969 
L 300.729484 -43.327969 
L 300.421542 -43.327969 
L 300.1136 -43.327969 
L 299.805658 -43.327969 
L 299.497716 -43.327969 
L 299.189774 -43.327969 
L 298.881831 -43.327969 
L 298.573889 -43.327969 
L 298.265947 -43.327969 
L 297.958005 -43.327969 
L 297.650063 -43.327969 
L 297.342121 -43.327969 
L 297.034178 -43.327969 
L 296.726236 -43.327969 
L 296.418294 -43.327969 
L 296.110352 -43.327969 
L 295.80241 -43.327969 
L 295.494468 -43.327969 
L 295.186525 -43.327969 
L 294.878583 -43.327969 
L 294.570641 -43.327969 
L 294.262699 -43.327969 
L 293.954757 -43.327969 
L 293.646815 -43.327969 
L 293.338873 -43.327969 
L 293.03093 -43.327969 
L 292.722988 -43.327969 
L 292.415046 -43.327969 
L 292.107104 -43.327969 
L 291.799162 -43.327969 
L 291.49122 -43.327969 
L 291.183277 -43.327969 
L 290.875335 -43.327969 
L 290.567393 -43.327969 
L 290.259451 -43.327969 
L 289.951509 -43.327969 
L 289.643567 -43.327969 
L 289.335624 -43.327969 
L 289.027682 -43.327969 
L 288.71974 -43.327969 
L 288.411798 -43.327969 
L 288.103856 -43.327969 
L 287.795914 -43.327969 
L 287.487972 -43.327969 
L 287.180029 -43.327969 
L 286.872087 -43.327969 
L 286.564145 -43.327969 
L 286.256203 -43.327969 
L 285.948261 -43.327969 
L 285.640319 -43.327969 
L 285.332376 -43.327969 
L 285.024434 -43.327969 
L 284.716492 -43.327969 
L 284.40855 -43.327969 
L 284.100608 -43.327969 
L 283.792666 -43.327969 
L 283.484723 -43.327969 
L 283.176781 -43.327969 
L 282.868839 -43.327969 
L 282.560897 -43.327969 
L 282.252955 -43.327969 
L 281.945013 -43.327969 
L 281.637071 -43.327969 
L 281.329128 -43.327969 
L 281.021186 -43.327969 
L 280.713244 -43.327969 
L 280.405302 -43.327969 
L 280.09736 -43.327969 
L 279.789418 -43.327969 
L 279.481475 -43.327969 
L 279.173533 -43.327969 
L 278.865591 -43.327969 
L 278.557649 -43.327969 
L 278.249707 -43.327969 
L 277.941765 -43.327969 
L 277.633822 -43.327969 
L 277.32588 -43.327969 
L 277.017938 -43.327969 
L 276.709996 -43.327969 
L 276.402054 -43.327969 
L 276.094112 -43.327969 
L 275.78617 -43.327969 
L 275.478227 -43.327969 
L 275.170285 -43.327969 
L 274.862343 -43.327969 
L 274.554401 -43.327969 
L 274.246459 -43.327969 
L 273.938517 -43.327969 
L 273.630574 -43.327969 
L 273.322632 -43.327969 
L 273.01469 -43.327969 
L 272.706748 -43.327969 
L 272.398806 -43.327969 
L 272.090864 -43.327969 
L 271.782921 -43.327969 
L 271.474979 -43.327969 
L 271.167037 -43.327969 
L 270.859095 -43.327969 
L 270.551153 -43.327969 
L 270.243211 -43.327969 
L 269.935269 -43.327969 
L 269.627326 -43.327969 
L 269.319384 -43.327969 
L 269.011442 -43.327969 
L 268.7035 -43.327969 
L 268.395558 -43.327969 
L 268.087616 -43.327969 
L 267.779673 -43.327969 
L 267.471731 -43.327969 
L 267.163789 -43.327969 
L 266.855847 -43.327969 
L 266.547905 -43.327969 
L 266.239963 -43.327969 
L 265.93202 -43.327969 
L 265.624078 -43.327969 
L 265.316136 -43.327969 
L 265.008194 -43.327969 
L 264.700252 -43.327969 
L 264.39231 -43.327969 
L 264.084368 -43.327969 
L 263.776425 -43.327969 
L 263.468483 -43.327969 
L 263.160541 -43.327969 
L 262.852599 -43.327969 
L 262.544657 -43.327969 
L 262.236715 -43.327969 
L 261.928772 -43.327969 
L 261.62083 -43.327969 
L 261.312888 -43.327969 
L 261.004946 -43.327969 
L 260.697004 -43.327969 
L 260.389062 -43.327969 
L 260.081119 -43.327969 
L 259.773177 -43.327969 
L 259.465235 -43.327969 
L 259.157293 -43.327969 
L 258.849351 -43.327969 
L 258.541409 -43.327969 
L 258.233467 -43.327969 
L 257.925524 -43.327969 
L 257.617582 -43.327969 
L 257.30964 -43.327969 
L 257.001698 -43.327969 
L 256.693756 -43.327969 
L 256.385814 -43.327969 
L 256.077871 -43.327969 
L 255.769929 -43.327969 
L 255.461987 -43.327969 
L 255.154045 -43.327969 
L 254.846103 -43.327969 
L 254.538161 -43.327969 
z
" style="stroke: #c0392b; stroke-opacity: 0.4"/>
    </defs>
    <g clip-path="url(#pbfd6ea6eec)">
     <use xlink:href="#m3ec610a4d7" x="0" y="297.503969" style="fill: #c0392b; fill-opacity: 0.4; stroke: #c0392b; stroke-opacity: 0.4"/>
    </g>
   </g>
   <g id="line2d_33">
    <path d="M 55.915469 254.050101 
L 67.001386 253.793911 
L 74.391998 253.415243 
L 80.242899 252.901501 
L 85.169974 252.24688 
L 89.481164 251.444769 
L 93.17647 250.537314 
L 96.563834 249.485468 
L 99.643255 248.311709 
L 102.722677 246.89644 
L 105.494156 245.386746 
L 108.265636 243.625213 
L 111.037115 241.583742 
L 113.808594 239.234014 
L 116.272132 236.864035 
L 118.735669 234.209682 
L 121.199206 231.253437 
L 123.662743 227.97958 
L 126.434223 223.900338 
L 129.205702 219.387853 
L 131.977182 214.433528 
L 134.748661 209.035705 
L 137.828083 202.525943 
L 140.907504 195.498254 
L 144.294868 187.213534 
L 147.990174 177.595079 
L 152.609306 164.907786 
L 160.923745 141.213151 
L 166.466703 125.787984 
L 170.162009 116.138558 
L 173.241431 108.693837 
L 176.01291 102.58006 
L 178.476448 97.692558 
L 180.632043 93.889436 
L 182.787638 90.567828 
L 184.635291 88.129458 
L 186.482944 86.087766 
L 188.022655 84.700599 
L 189.562365 83.607009 
L 191.102076 82.812809 
L 192.333845 82.395908 
L 193.565613 82.174786 
L 194.797382 82.150199 
L 196.029151 82.322233 
L 197.260919 82.690296 
L 198.492688 83.253129 
L 200.032399 84.227574 
L 201.572109 85.498106 
L 203.11182 87.057994 
L 204.959473 89.300136 
L 206.807126 91.930164 
L 208.654779 94.928482 
L 210.810374 98.862426 
L 213.273911 103.885342 
L 215.737449 109.40948 
L 218.81687 116.91571 
L 222.204234 125.787984 
L 226.823366 138.591713 
L 240.988706 178.417065 
L 244.991954 188.760292 
L 248.379317 196.943699 
L 251.766681 204.534514 
L 254.846103 210.884042 
L 257.617582 216.134319 
L 260.389062 220.940816 
L 263.160541 225.307619 
L 265.93202 229.245403 
L 268.7035 232.770328 
L 271.474979 235.902952 
L 274.246459 238.667169 
L 277.017938 241.089213 
L 279.789418 243.196743 
L 282.560897 245.018039 
L 285.332376 246.581301 
L 288.411798 248.049087 
L 291.49122 249.2684 
L 294.878583 250.362934 
L 298.573889 251.308964 
L 302.577137 252.09521 
L 307.19627 252.759915 
L 312.431286 253.278111 
L 318.898072 253.678933 
L 327.21251 253.954118 
L 332.755469 254.050101 
L 332.755469 254.050101 
" clip-path="url(#pbfd6ea6eec)" style="fill: none; stroke: #2980b9; stroke-width: 2.4; stroke-linecap: square"/>
   </g>
   <g id="line2d_34">
    <path d="M 254.256758 254.176 
L 254.256758 73.536 
" clip-path="url(#pbfd6ea6eec)" style="fill: none; stroke-dasharray: 6.66,2.88; stroke-dashoffset: 0; stroke: #c0392b; stroke-opacity: 0.9; stroke-width: 1.8"/>
   </g>
   <g id="patch_3">
    <path d="M 55.915469 254.176 
L 55.915469 73.536 
" style="fill: none; stroke: #2c3e50; stroke-width: 1.2; stroke-linejoin: miter; stroke-linecap: square"/>
   </g>
   <g id="patch_4">
    <path d="M 55.915469 254.176 
L 332.755469 254.176 
" style="fill: none; stroke: #2c3e50; stroke-width: 1.2; stroke-linejoin: miter; stroke-linecap: square"/>
   </g>
   <g id="text_19">
    <!-- $z_\alpha = 1.645$ -->
    <g style="fill: #c0392b" transform="translate(257.89939 211.052059) scale(0.1 -0.1)">
     <defs>
      <path id="DejaVuSans-Oblique-7a" d="M 744 3500 
L 3475 3500 
L 3372 2975 
L 738 459 
L 2913 459 
L 2822 0 
L -19 0 
L 84 525 
L 2719 3041 
L 653 3041 
L 744 3500 
z
" transform="scale(0.015625)"/>
      <path id="DejaVuSans-Oblique-3b1" d="M 2619 1628 
L 2622 2350 
Q 2625 3088 2069 3091 
Q 1653 3094 1394 2747 
Q 1069 2319 959 1747 
Q 825 1059 994 731 
Q 1169 397 1547 397 
Q 1966 397 2319 1063 
L 2619 1628 
z
M 2166 3578 
Q 3141 3594 3128 2584 
Q 3128 2584 3616 3500 
L 4128 3500 
L 3119 1603 
L 3109 919 
Q 3109 766 3194 638 
Q 3291 488 3391 488 
L 3669 488 
L 3575 0 
L 3228 0 
Q 2934 0 2722 263 
Q 2622 394 2619 669 
Q 2416 334 2066 50 
Q 1900 -81 1453 -78 
Q 722 -72 456 397 
Q 184 884 353 1747 
Q 534 2675 1009 3097 
Q 1544 3569 2166 3578 
z
" transform="scale(0.015625)"/>
      <path id="DejaVuSans-3d" d="M 678 2906 
L 4684 2906 
L 4684 2381 
L 678 2381 
L 678 2906 
z
M 678 1631 
L 4684 1631 
L 4684 1100 
L 678 1100 
L 678 1631 
z
" transform="scale(0.015625)"/>
      <path id="DejaVuSans-36" d="M 2113 2584 
Q 1688 2584 1439 2293 
Q 1191 2003 1191 1497 
Q 1191 994 1439 701 
Q 1688 409 2113 409 
Q 2538 409 2786 701 
Q 3034 994 3034 1497 
Q 3034 2003 2786 2293 
Q 2538 2584 2113 2584 
z
M 3366 4563 
L 3366 3988 
Q 3128 4100 2886 4159 
Q 2644 4219 2406 4219 
Q 1781 4219 1451 3797 
Q 1122 3375 1075 2522 
Q 1259 2794 1537 2939 
Q 1816 3084 2150 3084 
Q 2853 3084 3261 2657 
Q 3669 2231 3669 1497 
Q 3669 778 3244 343 
Q 2819 -91 2113 -91 
Q 1303 -91 875 529 
Q 447 1150 447 2328 
Q 447 3434 972 4092 
Q 1497 4750 2381 4750 
Q 2619 4750 2861 4703 
Q 3103 4656 3366 4563 
z
" transform="scale(0.015625)"/>
     </defs>
     <use xlink:href="#DejaVuSans-Oblique-7a" transform="translate(0 0.78125)"/>
     <use xlink:href="#DejaVuSans-Oblique-3b1" transform="translate(52.490234 -15.625) scale(0.7)"/>
     <use xlink:href="#DejaVuSans-3d" transform="translate(120.849609 0.78125)"/>
     <use xlink:href="#DejaVuSans-31" transform="translate(224.121094 0.78125)"/>
     <use xlink:href="#DejaVuSans-2e" transform="translate(287.744141 0.78125)"/>
     <use xlink:href="#DejaVuSans-36" transform="translate(319.53125 0.78125)"/>
     <use xlink:href="#DejaVuSans-34" transform="translate(383.154297 0.78125)"/>
     <use xlink:href="#DejaVuSans-35" transform="translate(446.777344 0.78125)"/>
    </g>
   </g>
   <g id="text_20">
    <!-- Una cola (derecha) -->
    <g transform="translate(130.426094 67.536) scale(0.12 -0.12)">
     <defs>
      <path id="DejaVuSans-Bold-55" d="M 588 4666 
L 1791 4666 
L 1791 1869 
Q 1791 1291 1980 1042 
Q 2169 794 2597 794 
Q 3028 794 3217 1042 
Q 3406 1291 3406 1869 
L 3406 4666 
L 4609 4666 
L 4609 1869 
Q 4609 878 4112 393 
Q 3616 -91 2597 -91 
Q 1581 -91 1084 393 
Q 588 878 588 1869 
L 588 4666 
z
" transform="scale(0.015625)"/>
      <path id="DejaVuSans-Bold-20" transform="scale(0.015625)"/>
      <path id="DejaVuSans-Bold-63" d="M 3366 3391 
L 3366 2478 
Q 3138 2634 2908 2709 
Q 2678 2784 2431 2784 
Q 1963 2784 1702 2511 
Q 1441 2238 1441 1747 
Q 1441 1256 1702 982 
Q 1963 709 2431 709 
Q 2694 709 2930 787 
Q 3166 866 3366 1019 
L 3366 103 
Q 3103 6 2833 -42 
Q 2563 -91 2291 -91 
Q 1344 -91 809 395 
Q 275 881 275 1747 
Q 275 2613 809 3098 
Q 1344 3584 2291 3584 
Q 2566 3584 2833 3536 
Q 3100 3488 3366 3391 
z
" transform="scale(0.015625)"/>
      <path id="DejaVuSans-Bold-6f" d="M 2203 2784 
Q 1831 2784 1636 2517 
Q 1441 2250 1441 1747 
Q 1441 1244 1636 976 
Q 1831 709 2203 709 
Q 2569 709 2762 976 
Q 2956 1244 2956 1747 
Q 2956 2250 2762 2517 
Q 2569 2784 2203 2784 
z
M 2203 3584 
Q 3106 3584 3614 3096 
Q 4122 2609 4122 1747 
Q 4122 884 3614 396 
Q 3106 -91 2203 -91 
Q 1297 -91 786 396 
Q 275 884 275 1747 
Q 275 2609 786 3096 
Q 1297 3584 2203 3584 
z
" transform="scale(0.015625)"/>
      <path id="DejaVuSans-Bold-6c" d="M 538 4863 
L 1656 4863 
L 1656 0 
L 538 0 
L 538 4863 
z
" transform="scale(0.015625)"/>
      <path id="DejaVuSans-Bold-28" d="M 2413 -844 
L 1484 -844 
Q 1006 -72 778 623 
Q 550 1319 550 2003 
Q 550 2688 779 3389 
Q 1009 4091 1484 4856 
L 2413 4856 
Q 2013 4116 1813 3408 
Q 1613 2700 1613 2009 
Q 1613 1319 1811 609 
Q 2009 -100 2413 -844 
z
" transform="scale(0.015625)"/>
      <path id="DejaVuSans-Bold-72" d="M 3138 2547 
Q 2991 2616 2845 2648 
Q 2700 2681 2553 2681 
Q 2122 2681 1889 2404 
Q 1656 2128 1656 1613 
L 1656 0 
L 538 0 
L 538 3500 
L 1656 3500 
L 1656 2925 
Q 1872 3269 2151 3426 
Q 2431 3584 2822 3584 
Q 2878 3584 2943 3579 
Q 3009 3575 3134 3559 
L 3138 2547 
z
" transform="scale(0.015625)"/>
      <path id="DejaVuSans-Bold-68" d="M 4056 2131 
L 4056 0 
L 2931 0 
L 2931 347 
L 2931 1625 
Q 2931 2084 2911 2256 
Q 2891 2428 2841 2509 
Q 2775 2619 2662 2680 
Q 2550 2741 2406 2741 
Q 2056 2741 1856 2470 
Q 1656 2200 1656 1722 
L 1656 0 
L 538 0 
L 538 4863 
L 1656 4863 
L 1656 2988 
Q 1909 3294 2193 3439 
Q 2478 3584 2822 3584 
Q 3428 3584 3742 3212 
Q 4056 2841 4056 2131 
z
" transform="scale(0.015625)"/>
      <path id="DejaVuSans-Bold-29" d="M 513 -844 
Q 913 -100 1113 609 
Q 1313 1319 1313 2009 
Q 1313 2700 1113 3408 
Q 913 4116 513 4856 
L 1441 4856 
Q 1916 4091 2145 3389 
Q 2375 2688 2375 2003 
Q 2375 1319 2147 623 
Q 1919 -72 1441 -844 
L 513 -844 
z
" transform="scale(0.015625)"/>
     </defs>
     <use xlink:href="#DejaVuSans-Bold-55"/>
     <use xlink:href="#DejaVuSans-Bold-6e" x="81.201172"/>
     <use xlink:href="#DejaVuSans-Bold-61" x="152.392578"/>
     <use xlink:href="#DejaVuSans-Bold-20" x="219.873047"/>
     <use xlink:href="#DejaVuSans-Bold-63" x="254.6875"/>
     <use xlink:href="#DejaVuSans-Bold-6f" x="313.964844"/>
     <use xlink:href="#DejaVuSans-Bold-6c" x="382.666016"/>
     <use xlink:href="#DejaVuSans-Bold-61" x="416.943359"/>
     <use xlink:href="#DejaVuSans-Bold-20" x="484.423828"/>
     <use xlink:href="#DejaVuSans-Bold-28" x="519.238281"/>
     <use xlink:href="#DejaVuSans-Bold-64" x="564.941406"/>
     <use xlink:href="#DejaVuSans-Bold-65" x="636.523438"/>
     <use xlink:href="#DejaVuSans-Bold-72" x="704.345703"/>
     <use xlink:href="#DejaVuSans-Bold-65" x="753.662109"/>
     <use xlink:href="#DejaVuSans-Bold-63" x="821.484375"/>
     <use xlink:href="#DejaVuSans-Bold-68" x="880.761719"/>
     <use xlink:href="#DejaVuSans-Bold-61" x="951.953125"/>
     <use xlink:href="#DejaVuSans-Bold-29" x="1019.433594"/>
    </g>
   </g>
   <g id="legend_1">
    <g id="patch_5">
     <path d="M 61.865469 92.812406 
L 160.465469 92.812406 
Q 162.165469 92.812406 162.165469 91.112406 
L 162.165469 79.486 
Q 162.165469 77.786 160.465469 77.786 
L 61.865469 77.786 
Q 60.165469 77.786 60.165469 79.486 
L 60.165469 91.112406 
Q 60.165469 92.812406 61.865469 92.812406 
z
" style="fill: #ffffff; opacity: 0.92; stroke: #cccccc; stroke-linejoin: miter"/>
    </g>
    <g id="patch_6">
     <path d="M 63.565469 87.644672 
L 80.565469 87.644672 
L 80.565469 81.694672 
L 63.565469 81.694672 
z
" style="fill: #c0392b; fill-opacity: 0.4; stroke: #c0392b; stroke-opacity: 0.4; stroke-linejoin: miter"/>
    </g>
    <g id="text_21">
     <!-- rechazo $\alpha=0.05$ -->
     <g transform="translate(87.365469 87.644672) scale(0.085 -0.085)">
      <defs>
       <path id="DejaVuSans-72" d="M 2631 2963 
Q 2534 3019 2420 3045 
Q 2306 3072 2169 3072 
Q 1681 3072 1420 2755 
Q 1159 2438 1159 1844 
L 1159 0 
L 581 0 
L 581 3500 
L 1159 3500 
L 1159 2956 
Q 1341 3275 1631 3429 
Q 1922 3584 2338 3584 
Q 2397 3584 2469 3576 
Q 2541 3569 2628 3553 
L 2631 2963 
z
" transform="scale(0.015625)"/>
       <path id="DejaVuSans-65" d="M 3597 1894 
L 3597 1613 
L 953 1613 
Q 991 1019 1311 708 
Q 1631 397 2203 397 
Q 2534 397 2845 478 
Q 3156 559 3463 722 
L 3463 178 
Q 3153 47 2828 -22 
Q 2503 -91 2169 -91 
Q 1331 -91 842 396 
Q 353 884 353 1716 
Q 353 2575 817 3079 
Q 1281 3584 2069 3584 
Q 2775 3584 3186 3129 
Q 3597 2675 3597 1894 
z
M 3022 2063 
Q 3016 2534 2758 2815 
Q 2500 3097 2075 3097 
Q 1594 3097 1305 2825 
Q 1016 2553 972 2059 
L 3022 2063 
z
" transform="scale(0.015625)"/>
       <path id="DejaVuSans-63" d="M 3122 3366 
L 3122 2828 
Q 2878 2963 2633 3030 
Q 2388 3097 2138 3097 
Q 1578 3097 1268 2742 
Q 959 2388 959 1747 
Q 959 1106 1268 751 
Q 1578 397 2138 397 
Q 2388 397 2633 464 
Q 2878 531 3122 666 
L 3122 134 
Q 2881 22 2623 -34 
Q 2366 -91 2075 -91 
Q 1284 -91 818 406 
Q 353 903 353 1747 
Q 353 2603 823 3093 
Q 1294 3584 2113 3584 
Q 2378 3584 2631 3529 
Q 2884 3475 3122 3366 
z
" transform="scale(0.015625)"/>
       <path id="DejaVuSans-68" d="M 3513 2113 
L 3513 0 
L 2938 0 
L 2938 2094 
Q 2938 2591 2744 2837 
Q 2550 3084 2163 3084 
Q 1697 3084 1428 2787 
Q 1159 2491 1159 1978 
L 1159 0 
L 581 0 
L 581 4863 
L 1159 4863 
L 1159 2956 
Q 1366 3272 1645 3428 
Q 1925 3584 2291 3584 
Q 2894 3584 3203 3211 
Q 3513 2838 3513 2113 
z
" transform="scale(0.015625)"/>
       <path id="DejaVuSans-61" d="M 2194 1759 
Q 1497 1759 1228 1600 
Q 959 1441 959 1056 
Q 959 750 1161 570 
Q 1363 391 1709 391 
Q 2188 391 2477 730 
Q 2766 1069 2766 1631 
L 2766 1759 
L 2194 1759 
z
M 3341 1997 
L 3341 0 
L 2766 0 
L 2766 531 
Q 2569 213 2275 61 
Q 1981 -91 1556 -91 
Q 1019 -91 701 211 
Q 384 513 384 1019 
Q 384 1609 779 1909 
Q 1175 2209 1959 2209 
L 2766 2209 
L 2766 2266 
Q 2766 2663 2505 2880 
Q 2244 3097 1772 3097 
Q 1472 3097 1187 3025 
Q 903 2953 641 2809 
L 641 3341 
Q 956 3463 1253 3523 
Q 1550 3584 1831 3584 
Q 2591 3584 2966 3190 
Q 3341 2797 3341 1997 
z
" transform="scale(0.015625)"/>
       <path id="DejaVuSans-7a" d="M 353 3500 
L 3084 3500 
L 3084 2975 
L 922 459 
L 3084 459 
L 3084 0 
L 275 0 
L 275 525 
L 2438 3041 
L 353 3041 
L 353 3500 
z
" transform="scale(0.015625)"/>
       <path id="DejaVuSans-6f" d="M 1959 3097 
Q 1497 3097 1228 2736 
Q 959 2375 959 1747 
Q 959 1119 1226 758 
Q 1494 397 1959 397 
Q 2419 397 2687 759 
Q 2956 1122 2956 1747 
Q 2956 2369 2687 2733 
Q 2419 3097 1959 3097 
z
M 1959 3584 
Q 2709 3584 3137 3096 
Q 3566 2609 3566 1747 
Q 3566 888 3137 398 
Q 2709 -91 1959 -91 
Q 1206 -91 779 398 
Q 353 888 353 1747 
Q 353 2609 779 3096 
Q 1206 3584 1959 3584 
z
" transform="scale(0.015625)"/>
       <path id="DejaVuSans-20" transform="scale(0.015625)"/>
      </defs>
      <use xlink:href="#DejaVuSans-72" transform="translate(0 0.015625)"/>
      <use xlink:href="#DejaVuSans-65" transform="translate(41.113281 0.015625)"/>
      <use xlink:href="#DejaVuSans-63" transform="translate(102.636719 0.015625)"/>
      <use xlink:href="#DejaVuSans-68" transform="translate(157.617188 0.015625)"/>
      <use xlink:href="#DejaVuSans-61" transform="translate(220.996094 0.015625)"/>
      <use xlink:href="#DejaVuSans-7a" transform="translate(282.275391 0.015625)"/>
      <use xlink:href="#DejaVuSans-6f" transform="translate(334.765625 0.015625)"/>
      <use xlink:href="#DejaVuSans-20" transform="translate(395.947266 0.015625)"/>
      <use xlink:href="#DejaVuSans-Oblique-3b1" transform="translate(427.734375 0.015625)"/>
      <use xlink:href="#DejaVuSans-3d" transform="translate(513.134766 0.015625)"/>
      <use xlink:href="#DejaVuSans-30" transform="translate(616.40625 0.015625)"/>
      <use xlink:href="#DejaVuSans-2e" transform="translate(680.029297 0.015625)"/>
      <use xlink:href="#DejaVuSans-30" transform="translate(711.816406 0.015625)"/>
      <use xlink:href="#DejaVuSans-35" transform="translate(775.439453 0.015625)"/>
     </g>
    </g>
   </g>
  </g>
  <g id="axes_2">
   <g id="patch_7">
    <path d="M 373.775469 254.176 
L 650.615469 254.176 
L 650.615469 73.536 
L 373.775469 73.536 
z
" style="fill: #ffffff"/>
   </g>
   <g id="matplotlib.axis_3">
    <g id="xtick_8">
     <g id="line2d_35">
      <path d="M 402.916521 254.176 
L 402.916521 73.536 
" clip-path="url(#p37ef5dd3be)" style="fill: none; stroke-dasharray: 0.8,1.28; stroke-dashoffset: 0; stroke: #b0b0b0; stroke-opacity: 0.3; stroke-width: 0.8"/>
     </g>
     <g id="line2d_36">
      <g>
       <use xlink:href="#md6083d2ac4" x="402.916521" y="254.176" style="fill: #2c3e50; stroke: #2c3e50; stroke-width: 0.8"/>
      </g>
     </g>
     <g id="text_22">
      <!-- −3 -->
      <g style="fill: #2c3e50" transform="translate(395.545428 268.774438) scale(0.1 -0.1)">
       <use xlink:href="#DejaVuSans-2212"/>
       <use xlink:href="#DejaVuSans-33" x="83.789062"/>
      </g>
     </g>
    </g>
    <g id="xtick_9">
     <g id="line2d_37">
      <path d="M 439.342837 254.176 
L 439.342837 73.536 
" clip-path="url(#p37ef5dd3be)" style="fill: none; stroke-dasharray: 0.8,1.28; stroke-dashoffset: 0; stroke: #b0b0b0; stroke-opacity: 0.3; stroke-width: 0.8"/>
     </g>
     <g id="line2d_38">
      <g>
       <use xlink:href="#md6083d2ac4" x="439.342837" y="254.176" style="fill: #2c3e50; stroke: #2c3e50; stroke-width: 0.8"/>
      </g>
     </g>
     <g id="text_23">
      <!-- −2 -->
      <g style="fill: #2c3e50" transform="translate(431.971743 268.774438) scale(0.1 -0.1)">
       <use xlink:href="#DejaVuSans-2212"/>
       <use xlink:href="#DejaVuSans-32" x="83.789062"/>
      </g>
     </g>
    </g>
    <g id="xtick_10">
     <g id="line2d_39">
      <path d="M 475.769153 254.176 
L 475.769153 73.536 
" clip-path="url(#p37ef5dd3be)" style="fill: none; stroke-dasharray: 0.8,1.28; stroke-dashoffset: 0; stroke: #b0b0b0; stroke-opacity: 0.3; stroke-width: 0.8"/>
     </g>
     <g id="line2d_40">
      <g>
       <use xlink:href="#md6083d2ac4" x="475.769153" y="254.176" style="fill: #2c3e50; stroke: #2c3e50; stroke-width: 0.8"/>
      </g>
     </g>
     <g id="text_24">
      <!-- −1 -->
      <g style="fill: #2c3e50" transform="translate(468.398059 268.774438) scale(0.1 -0.1)">
       <use xlink:href="#DejaVuSans-2212"/>
       <use xlink:href="#DejaVuSans-31" x="83.789062"/>
      </g>
     </g>
    </g>
    <g id="xtick_11">
     <g id="line2d_41">
      <path d="M 512.195469 254.176 
L 512.195469 73.536 
" clip-path="url(#p37ef5dd3be)" style="fill: none; stroke-dasharray: 0.8,1.28; stroke-dashoffset: 0; stroke: #b0b0b0; stroke-opacity: 0.3; stroke-width: 0.8"/>
     </g>
     <g id="line2d_42">
      <g>
       <use xlink:href="#md6083d2ac4" x="512.195469" y="254.176" style="fill: #2c3e50; stroke: #2c3e50; stroke-width: 0.8"/>
      </g>
     </g>
     <g id="text_25">
      <!-- 0 -->
      <g style="fill: #2c3e50" transform="translate(509.014219 268.774438) scale(0.1 -0.1)">
       <use xlink:href="#DejaVuSans-30"/>
      </g>
     </g>
    </g>
    <g id="xtick_12">
     <g id="line2d_43">
      <path d="M 548.621785 254.176 
L 548.621785 73.536 
" clip-path="url(#p37ef5dd3be)" style="fill: none; stroke-dasharray: 0.8,1.28; stroke-dashoffset: 0; stroke: #b0b0b0; stroke-opacity: 0.3; stroke-width: 0.8"/>
     </g>
     <g id="line2d_44">
      <g>
       <use xlink:href="#md6083d2ac4" x="548.621785" y="254.176" style="fill: #2c3e50; stroke: #2c3e50; stroke-width: 0.8"/>
      </g>
     </g>
     <g id="text_26">
      <!-- 1 -->
      <g style="fill: #2c3e50" transform="translate(545.440535 268.774438) scale(0.1 -0.1)">
       <use xlink:href="#DejaVuSans-31"/>
      </g>
     </g>
    </g>
    <g id="xtick_13">
     <g id="line2d_45">
      <path d="M 585.0481 254.176 
L 585.0481 73.536 
" clip-path="url(#p37ef5dd3be)" style="fill: none; stroke-dasharray: 0.8,1.28; stroke-dashoffset: 0; stroke: #b0b0b0; stroke-opacity: 0.3; stroke-width: 0.8"/>
     </g>
     <g id="line2d_46">
      <g>
       <use xlink:href="#md6083d2ac4" x="585.0481" y="254.176" style="fill: #2c3e50; stroke: #2c3e50; stroke-width: 0.8"/>
      </g>
     </g>
     <g id="text_27">
      <!-- 2 -->
      <g style="fill: #2c3e50" transform="translate(581.86685 268.774438) scale(0.1 -0.1)">
       <use xlink:href="#DejaVuSans-32"/>
      </g>
     </g>
    </g>
    <g id="xtick_14">
     <g id="line2d_47">
      <path d="M 621.474416 254.176 
L 621.474416 73.536 
" clip-path="url(#p37ef5dd3be)" style="fill: none; stroke-dasharray: 0.8,1.28; stroke-dashoffset: 0; stroke: #b0b0b0; stroke-opacity: 0.3; stroke-width: 0.8"/>
     </g>
     <g id="line2d_48">
      <g>
       <use xlink:href="#md6083d2ac4" x="621.474416" y="254.176" style="fill: #2c3e50; stroke: #2c3e50; stroke-width: 0.8"/>
      </g>
     </g>
     <g id="text_28">
      <!-- 3 -->
      <g style="fill: #2c3e50" transform="translate(618.293166 268.774438) scale(0.1 -0.1)">
       <use xlink:href="#DejaVuSans-33"/>
      </g>
     </g>
    </g>
    <g id="text_29">
     <!-- z -->
     <g transform="translate(508.848789 283.592328) scale(0.115 -0.115)">
      <use xlink:href="#DejaVuSans-Bold-7a"/>
     </g>
    </g>
   </g>
   <g id="matplotlib.axis_4">
    <g id="ytick_10">
     <g id="line2d_49">
      <path d="M 373.775469 254.176 
L 650.615469 254.176 
" clip-path="url(#p37ef5dd3be)" style="fill: none; stroke-dasharray: 0.8,1.28; stroke-dashoffset: 0; stroke: #b0b0b0; stroke-opacity: 0.3; stroke-width: 0.8"/>
     </g>
     <g id="line2d_50">
      <g>
       <use xlink:href="#m8fe1163071" x="373.775469" y="254.176" style="fill: #2c3e50; stroke: #2c3e50; stroke-width: 0.8"/>
      </g>
     </g>
     <g id="text_30">
      <!-- 0.00 -->
      <g style="fill: #2c3e50" transform="translate(344.509844 257.975219) scale(0.1 -0.1)">
       <use xlink:href="#DejaVuSans-30"/>
       <use xlink:href="#DejaVuSans-2e" x="63.623047"/>
       <use xlink:href="#DejaVuSans-30" x="95.410156"/>
       <use xlink:href="#DejaVuSans-30" x="159.033203"/>
      </g>
     </g>
    </g>
    <g id="ytick_11">
     <g id="line2d_51">
      <path d="M 373.775469 232.61403 
L 650.615469 232.61403 
" clip-path="url(#p37ef5dd3be)" style="fill: none; stroke-dasharray: 0.8,1.28; stroke-dashoffset: 0; stroke: #b0b0b0; stroke-opacity: 0.3; stroke-width: 0.8"/>
     </g>
     <g id="line2d_52">
      <g>
       <use xlink:href="#m8fe1163071" x="373.775469" y="232.61403" style="fill: #2c3e50; stroke: #2c3e50; stroke-width: 0.8"/>
      </g>
     </g>
     <g id="text_31">
      <!-- 0.05 -->
      <g style="fill: #2c3e50" transform="translate(344.509844 236.413248) scale(0.1 -0.1)">
       <use xlink:href="#DejaVuSans-30"/>
       <use xlink:href="#DejaVuSans-2e" x="63.623047"/>
       <use xlink:href="#DejaVuSans-30" x="95.410156"/>
       <use xlink:href="#DejaVuSans-35" x="159.033203"/>
      </g>
     </g>
    </g>
    <g id="ytick_12">
     <g id="line2d_53">
      <path d="M 373.775469 211.052059 
L 650.615469 211.052059 
" clip-path="url(#p37ef5dd3be)" style="fill: none; stroke-dasharray: 0.8,1.28; stroke-dashoffset: 0; stroke: #b0b0b0; stroke-opacity: 0.3; stroke-width: 0.8"/>
     </g>
     <g id="line2d_54">
      <g>
       <use xlink:href="#m8fe1163071" x="373.775469" y="211.052059" style="fill: #2c3e50; stroke: #2c3e50; stroke-width: 0.8"/>
      </g>
     </g>
     <g id="text_32">
      <!-- 0.10 -->
      <g style="fill: #2c3e50" transform="translate(344.509844 214.851278) scale(0.1 -0.1)">
       <use xlink:href="#DejaVuSans-30"/>
       <use xlink:href="#DejaVuSans-2e" x="63.623047"/>
       <use xlink:href="#DejaVuSans-31" x="95.410156"/>
       <use xlink:href="#DejaVuSans-30" x="159.033203"/>
      </g>
     </g>
    </g>
    <g id="ytick_13">
     <g id="line2d_55">
      <path d="M 373.775469 189.490089 
L 650.615469 189.490089 
" clip-path="url(#p37ef5dd3be)" style="fill: none; stroke-dasharray: 0.8,1.28; stroke-dashoffset: 0; stroke: #b0b0b0; stroke-opacity: 0.3; stroke-width: 0.8"/>
     </g>
     <g id="line2d_56">
      <g>
       <use xlink:href="#m8fe1163071" x="373.775469" y="189.490089" style="fill: #2c3e50; stroke: #2c3e50; stroke-width: 0.8"/>
      </g>
     </g>
     <g id="text_33">
      <!-- 0.15 -->
      <g style="fill: #2c3e50" transform="translate(344.509844 193.289308) scale(0.1 -0.1)">
       <use xlink:href="#DejaVuSans-30"/>
       <use xlink:href="#DejaVuSans-2e" x="63.623047"/>
       <use xlink:href="#DejaVuSans-31" x="95.410156"/>
       <use xlink:href="#DejaVuSans-35" x="159.033203"/>
      </g>
     </g>
    </g>
    <g id="ytick_14">
     <g id="line2d_57">
      <path d="M 373.775469 167.928119 
L 650.615469 167.928119 
" clip-path="url(#p37ef5dd3be)" style="fill: none; stroke-dasharray: 0.8,1.28; stroke-dashoffset: 0; stroke: #b0b0b0; stroke-opacity: 0.3; stroke-width: 0.8"/>
     </g>
     <g id="line2d_58">
      <g>
       <use xlink:href="#m8fe1163071" x="373.775469" y="167.928119" style="fill: #2c3e50; stroke: #2c3e50; stroke-width: 0.8"/>
      </g>
     </g>
     <g id="text_34">
      <!-- 0.20 -->
      <g style="fill: #2c3e50" transform="translate(344.509844 171.727337) scale(0.1 -0.1)">
       <use xlink:href="#DejaVuSans-30"/>
       <use xlink:href="#DejaVuSans-2e" x="63.623047"/>
       <use xlink:href="#DejaVuSans-32" x="95.410156"/>
       <use xlink:href="#DejaVuSans-30" x="159.033203"/>
      </g>
     </g>
    </g>
    <g id="ytick_15">
     <g id="line2d_59">
      <path d="M 373.775469 146.366148 
L 650.615469 146.366148 
" clip-path="url(#p37ef5dd3be)" style="fill: none; stroke-dasharray: 0.8,1.28; stroke-dashoffset: 0; stroke: #b0b0b0; stroke-opacity: 0.3; stroke-width: 0.8"/>
     </g>
     <g id="line2d_60">
      <g>
       <use xlink:href="#m8fe1163071" x="373.775469" y="146.366148" style="fill: #2c3e50; stroke: #2c3e50; stroke-width: 0.8"/>
      </g>
     </g>
     <g id="text_35">
      <!-- 0.25 -->
      <g style="fill: #2c3e50" transform="translate(344.509844 150.165367) scale(0.1 -0.1)">
       <use xlink:href="#DejaVuSans-30"/>
       <use xlink:href="#DejaVuSans-2e" x="63.623047"/>
       <use xlink:href="#DejaVuSans-32" x="95.410156"/>
       <use xlink:href="#DejaVuSans-35" x="159.033203"/>
      </g>
     </g>
    </g>
    <g id="ytick_16">
     <g id="line2d_61">
      <path d="M 373.775469 124.804178 
L 650.615469 124.804178 
" clip-path="url(#p37ef5dd3be)" style="fill: none; stroke-dasharray: 0.8,1.28; stroke-dashoffset: 0; stroke: #b0b0b0; stroke-opacity: 0.3; stroke-width: 0.8"/>
     </g>
     <g id="line2d_62">
      <g>
       <use xlink:href="#m8fe1163071" x="373.775469" y="124.804178" style="fill: #2c3e50; stroke: #2c3e50; stroke-width: 0.8"/>
      </g>
     </g>
     <g id="text_36">
      <!-- 0.30 -->
      <g style="fill: #2c3e50" transform="translate(344.509844 128.603397) scale(0.1 -0.1)">
       <use xlink:href="#DejaVuSans-30"/>
       <use xlink:href="#DejaVuSans-2e" x="63.623047"/>
       <use xlink:href="#DejaVuSans-33" x="95.410156"/>
       <use xlink:href="#DejaVuSans-30" x="159.033203"/>
      </g>
     </g>
    </g>
    <g id="ytick_17">
     <g id="line2d_63">
      <path d="M 373.775469 103.242208 
L 650.615469 103.242208 
" clip-path="url(#p37ef5dd3be)" style="fill: none; stroke-dasharray: 0.8,1.28; stroke-dashoffset: 0; stroke: #b0b0b0; stroke-opacity: 0.3; stroke-width: 0.8"/>
     </g>
     <g id="line2d_64">
      <g>
       <use xlink:href="#m8fe1163071" x="373.775469" y="103.242208" style="fill: #2c3e50; stroke: #2c3e50; stroke-width: 0.8"/>
      </g>
     </g>
     <g id="text_37">
      <!-- 0.35 -->
      <g style="fill: #2c3e50" transform="translate(344.509844 107.041427) scale(0.1 -0.1)">
       <use xlink:href="#DejaVuSans-30"/>
       <use xlink:href="#DejaVuSans-2e" x="63.623047"/>
       <use xlink:href="#DejaVuSans-33" x="95.410156"/>
       <use xlink:href="#DejaVuSans-35" x="159.033203"/>
      </g>
     </g>
    </g>
    <g id="ytick_18">
     <g id="line2d_65">
      <path d="M 373.775469 81.680237 
L 650.615469 81.680237 
" clip-path="url(#p37ef5dd3be)" style="fill: none; stroke-dasharray: 0.8,1.28; stroke-dashoffset: 0; stroke: #b0b0b0; stroke-opacity: 0.3; stroke-width: 0.8"/>
     </g>
     <g id="line2d_66">
      <g>
       <use xlink:href="#m8fe1163071" x="373.775469" y="81.680237" style="fill: #2c3e50; stroke: #2c3e50; stroke-width: 0.8"/>
      </g>
     </g>
     <g id="text_38">
      <!-- 0.40 -->
      <g style="fill: #2c3e50" transform="translate(344.509844 85.479456) scale(0.1 -0.1)">
       <use xlink:href="#DejaVuSans-30"/>
       <use xlink:href="#DejaVuSans-2e" x="63.623047"/>
       <use xlink:href="#DejaVuSans-34" x="95.410156"/>
       <use xlink:href="#DejaVuSans-30" x="159.033203"/>
      </g>
     </g>
    </g>
   </g>
   <g id="PolyCollection_2">
    <defs>
     <path id="m45122650cb" d="M 583.79202 -43.327969 
L 583.79202 -68.258566 
L 584.099963 -67.846862 
L 584.407905 -67.440233 
L 584.715847 -67.038653 
L 585.023789 -66.642095 
L 585.331731 -66.250531 
L 585.639673 -65.863933 
L 585.947616 -65.482272 
L 586.255558 -65.105518 
L 586.5635 -64.733641 
L 586.871442 -64.366611 
L 587.179384 -64.004396 
L 587.487326 -63.646965 
L 587.795269 -63.294286 
L 588.103211 -62.946327 
L 588.411153 -62.603054 
L 588.719095 -62.264434 
L 589.027037 -61.930433 
L 589.334979 -61.601017 
L 589.642921 -61.276152 
L 589.950864 -60.955802 
L 590.258806 -60.639934 
L 590.566748 -60.32851 
L 590.87469 -60.021495 
L 591.182632 -59.718853 
L 591.490574 -59.420547 
L 591.798517 -59.126542 
L 592.106459 -58.836799 
L 592.414401 -58.551283 
L 592.722343 -58.269954 
L 593.030285 -57.992777 
L 593.338227 -57.719713 
L 593.64617 -57.450724 
L 593.954112 -57.185772 
L 594.262054 -56.924819 
L 594.569996 -56.667826 
L 594.877938 -56.414756 
L 595.18588 -56.165569 
L 595.493822 -55.920227 
L 595.801765 -55.678691 
L 596.109707 -55.440922 
L 596.417649 -55.206882 
L 596.725591 -54.976531 
L 597.033533 -54.749831 
L 597.341475 -54.526742 
L 597.649418 -54.307226 
L 597.95736 -54.091244 
L 598.265302 -53.878756 
L 598.573244 -53.669724 
L 598.881186 -53.464109 
L 599.189128 -53.261872 
L 599.497071 -53.062974 
L 599.805013 -52.867377 
L 600.112955 -52.675042 
L 600.420897 -52.48593 
L 600.728839 -52.300003 
L 601.036781 -52.117223 
L 601.344723 -51.937551 
L 601.652666 -51.760949 
L 601.960608 -51.58738 
L 602.26855 -51.416804 
L 602.576492 -51.249186 
L 602.884434 -51.084486 
L 603.192376 -50.922668 
L 603.500319 -50.763695 
L 603.808261 -50.607529 
L 604.116203 -50.454133 
L 604.424145 -50.303471 
L 604.732087 -50.155507 
L 605.040029 -50.010204 
L 605.347972 -49.867525 
L 605.655914 -49.727436 
L 605.963856 -49.5899 
L 606.271798 -49.454882 
L 606.57974 -49.322347 
L 606.887682 -49.19226 
L 607.195624 -49.064586 
L 607.503567 -48.93929 
L 607.811509 -48.816339 
L 608.119451 -48.695698 
L 608.427393 -48.577334 
L 608.735335 -48.461213 
L 609.043277 -48.347302 
L 609.35122 -48.235568 
L 609.659162 -48.125979 
L 609.967104 -48.018501 
L 610.275046 -47.913103 
L 610.582988 -47.809754 
L 610.89093 -47.70842 
L 611.198873 -47.609072 
L 611.506815 -47.511678 
L 611.814757 -47.416208 
L 612.122699 -47.32263 
L 612.430641 -47.230916 
L 612.738583 -47.141035 
L 613.046525 -47.052957 
L 613.354468 -46.966654 
L 613.66241 -46.882097 
L 613.970352 -46.799256 
L 614.278294 -46.718104 
L 614.586236 -46.638612 
L 614.894178 -46.560754 
L 615.202121 -46.484501 
L 615.510063 -46.409826 
L 615.818005 -46.336703 
L 616.125947 -46.265104 
L 616.433889 -46.195005 
L 616.741831 -46.126379 
L 617.049774 -46.0592 
L 617.357716 -45.993443 
L 617.665658 -45.929084 
L 617.9736 -45.866097 
L 618.281542 -45.804459 
L 618.589484 -45.744144 
L 618.897426 -45.68513 
L 619.205369 -45.627394 
L 619.513311 -45.570911 
L 619.821253 -45.515659 
L 620.129195 -45.461616 
L 620.437137 -45.408759 
L 620.745079 -45.357066 
L 621.053022 -45.306517 
L 621.360964 -45.257088 
L 621.668906 -45.20876 
L 621.976848 -45.161512 
L 622.28479 -45.115323 
L 622.592732 -45.070173 
L 622.900675 -45.026042 
L 623.208617 -44.982911 
L 623.516559 -44.94076 
L 623.824501 -44.89957 
L 624.132443 -44.859323 
L 624.440385 -44.82 
L 624.748327 -44.781583 
L 625.05627 -44.744054 
L 625.364212 -44.707395 
L 625.672154 -44.671589 
L 625.980096 -44.636619 
L 626.288038 -44.602468 
L 626.59598 -44.569119 
L 626.903923 -44.536557 
L 627.211865 -44.504765 
L 627.519807 -44.473727 
L 627.827749 -44.443428 
L 628.135691 -44.413853 
L 628.443633 -44.384986 
L 628.751576 -44.356814 
L 629.059518 -44.32932 
L 629.36746 -44.302492 
L 629.675402 -44.276315 
L 629.983344 -44.250774 
L 630.291286 -44.225858 
L 630.599228 -44.201552 
L 630.907171 -44.177843 
L 631.215113 -44.154718 
L 631.523055 -44.132166 
L 631.830997 -44.110172 
L 632.138939 -44.088726 
L 632.446881 -44.067814 
L 632.754824 -44.047427 
L 633.062766 -44.02755 
L 633.370708 -44.008175 
L 633.67865 -43.989289 
L 633.986592 -43.970881 
L 634.294534 -43.952941 
L 634.602477 -43.935458 
L 634.910419 -43.918422 
L 635.218361 -43.901823 
L 635.526303 -43.88565 
L 635.834245 -43.869895 
L 636.142187 -43.854547 
L 636.450129 -43.839597 
L 636.758072 -43.825036 
L 637.066014 -43.810855 
L 637.373956 -43.797045 
L 637.681898 -43.783598 
L 637.98984 -43.770504 
L 638.297782 -43.757756 
L 638.605725 -43.745345 
L 638.913667 -43.733264 
L 639.221609 -43.721504 
L 639.529551 -43.710058 
L 639.837493 -43.698919 
L 640.145435 -43.688078 
L 640.453378 -43.67753 
L 640.76132 -43.667266 
L 641.069262 -43.65728 
L 641.377204 -43.647565 
L 641.685146 -43.638114 
L 641.993088 -43.628921 
L 642.30103 -43.61998 
L 642.608973 -43.611285 
L 642.916915 -43.602829 
L 643.224857 -43.594606 
L 643.532799 -43.58661 
L 643.840741 -43.578836 
L 644.148683 -43.571279 
L 644.456626 -43.563933 
L 644.764568 -43.556791 
L 645.07251 -43.549851 
L 645.380452 -43.543105 
L 645.688394 -43.536549 
L 645.996336 -43.530179 
L 646.304279 -43.523989 
L 646.612221 -43.517976 
L 646.920163 -43.512133 
L 647.228105 -43.506458 
L 647.536047 -43.500945 
L 647.843989 -43.49559 
L 648.151931 -43.490389 
L 648.459874 -43.485339 
L 648.767816 -43.480435 
L 649.075758 -43.475673 
L 649.3837 -43.471049 
L 649.691642 -43.46656 
L 649.999584 -43.462203 
L 650.307527 -43.457973 
L 650.615469 -43.453868 
L 650.615469 -43.327969 
L 650.615469 -43.327969 
L 650.307527 -43.327969 
L 649.999584 -43.327969 
L 649.691642 -43.327969 
L 649.3837 -43.327969 
L 649.075758 -43.327969 
L 648.767816 -43.327969 
L 648.459874 -43.327969 
L 648.151931 -43.327969 
L 647.843989 -43.327969 
L 647.536047 -43.327969 
L 647.228105 -43.327969 
L 646.920163 -43.327969 
L 646.612221 -43.327969 
L 646.304279 -43.327969 
L 645.996336 -43.327969 
L 645.688394 -43.327969 
L 645.380452 -43.327969 
L 645.07251 -43.327969 
L 644.764568 -43.327969 
L 644.456626 -43.327969 
L 644.148683 -43.327969 
L 643.840741 -43.327969 
L 643.532799 -43.327969 
L 643.224857 -43.327969 
L 642.916915 -43.327969 
L 642.608973 -43.327969 
L 642.30103 -43.327969 
L 641.993088 -43.327969 
L 641.685146 -43.327969 
L 641.377204 -43.327969 
L 641.069262 -43.327969 
L 640.76132 -43.327969 
L 640.453378 -43.327969 
L 640.145435 -43.327969 
L 639.837493 -43.327969 
L 639.529551 -43.327969 
L 639.221609 -43.327969 
L 638.913667 -43.327969 
L 638.605725 -43.327969 
L 638.297782 -43.327969 
L 637.98984 -43.327969 
L 637.681898 -43.327969 
L 637.373956 -43.327969 
L 637.066014 -43.327969 
L 636.758072 -43.327969 
L 636.450129 -43.327969 
L 636.142187 -43.327969 
L 635.834245 -43.327969 
L 635.526303 -43.327969 
L 635.218361 -43.327969 
L 634.910419 -43.327969 
L 634.602477 -43.327969 
L 634.294534 -43.327969 
L 633.986592 -43.327969 
L 633.67865 -43.327969 
L 633.370708 -43.327969 
L 633.062766 -43.327969 
L 632.754824 -43.327969 
L 632.446881 -43.327969 
L 632.138939 -43.327969 
L 631.830997 -43.327969 
L 631.523055 -43.327969 
L 631.215113 -43.327969 
L 630.907171 -43.327969 
L 630.599228 -43.327969 
L 630.291286 -43.327969 
L 629.983344 -43.327969 
L 629.675402 -43.327969 
L 629.36746 -43.327969 
L 629.059518 -43.327969 
L 628.751576 -43.327969 
L 628.443633 -43.327969 
L 628.135691 -43.327969 
L 627.827749 -43.327969 
L 627.519807 -43.327969 
L 627.211865 -43.327969 
L 626.903923 -43.327969 
L 626.59598 -43.327969 
L 626.288038 -43.327969 
L 625.980096 -43.327969 
L 625.672154 -43.327969 
L 625.364212 -43.327969 
L 625.05627 -43.327969 
L 624.748327 -43.327969 
L 624.440385 -43.327969 
L 624.132443 -43.327969 
L 623.824501 -43.327969 
L 623.516559 -43.327969 
L 623.208617 -43.327969 
L 622.900675 -43.327969 
L 622.592732 -43.327969 
L 622.28479 -43.327969 
L 621.976848 -43.327969 
L 621.668906 -43.327969 
L 621.360964 -43.327969 
L 621.053022 -43.327969 
L 620.745079 -43.327969 
L 620.437137 -43.327969 
L 620.129195 -43.327969 
L 619.821253 -43.327969 
L 619.513311 -43.327969 
L 619.205369 -43.327969 
L 618.897426 -43.327969 
L 618.589484 -43.327969 
L 618.281542 -43.327969 
L 617.9736 -43.327969 
L 617.665658 -43.327969 
L 617.357716 -43.327969 
L 617.049774 -43.327969 
L 616.741831 -43.327969 
L 616.433889 -43.327969 
L 616.125947 -43.327969 
L 615.818005 -43.327969 
L 615.510063 -43.327969 
L 615.202121 -43.327969 
L 614.894178 -43.327969 
L 614.586236 -43.327969 
L 614.278294 -43.327969 
L 613.970352 -43.327969 
L 613.66241 -43.327969 
L 613.354468 -43.327969 
L 613.046525 -43.327969 
L 612.738583 -43.327969 
L 612.430641 -43.327969 
L 612.122699 -43.327969 
L 611.814757 -43.327969 
L 611.506815 -43.327969 
L 611.198873 -43.327969 
L 610.89093 -43.327969 
L 610.582988 -43.327969 
L 610.275046 -43.327969 
L 609.967104 -43.327969 
L 609.659162 -43.327969 
L 609.35122 -43.327969 
L 609.043277 -43.327969 
L 608.735335 -43.327969 
L 608.427393 -43.327969 
L 608.119451 -43.327969 
L 607.811509 -43.327969 
L 607.503567 -43.327969 
L 607.195624 -43.327969 
L 606.887682 -43.327969 
L 606.57974 -43.327969 
L 606.271798 -43.327969 
L 605.963856 -43.327969 
L 605.655914 -43.327969 
L 605.347972 -43.327969 
L 605.040029 -43.327969 
L 604.732087 -43.327969 
L 604.424145 -43.327969 
L 604.116203 -43.327969 
L 603.808261 -43.327969 
L 603.500319 -43.327969 
L 603.192376 -43.327969 
L 602.884434 -43.327969 
L 602.576492 -43.327969 
L 602.26855 -43.327969 
L 601.960608 -43.327969 
L 601.652666 -43.327969 
L 601.344723 -43.327969 
L 601.036781 -43.327969 
L 600.728839 -43.327969 
L 600.420897 -43.327969 
L 600.112955 -43.327969 
L 599.805013 -43.327969 
L 599.497071 -43.327969 
L 599.189128 -43.327969 
L 598.881186 -43.327969 
L 598.573244 -43.327969 
L 598.265302 -43.327969 
L 597.95736 -43.327969 
L 597.649418 -43.327969 
L 597.341475 -43.327969 
L 597.033533 -43.327969 
L 596.725591 -43.327969 
L 596.417649 -43.327969 
L 596.109707 -43.327969 
L 595.801765 -43.327969 
L 595.493822 -43.327969 
L 595.18588 -43.327969 
L 594.877938 -43.327969 
L 594.569996 -43.327969 
L 594.262054 -43.327969 
L 593.954112 -43.327969 
L 593.64617 -43.327969 
L 593.338227 -43.327969 
L 593.030285 -43.327969 
L 592.722343 -43.327969 
L 592.414401 -43.327969 
L 592.106459 -43.327969 
L 591.798517 -43.327969 
L 591.490574 -43.327969 
L 591.182632 -43.327969 
L 590.87469 -43.327969 
L 590.566748 -43.327969 
L 590.258806 -43.327969 
L 589.950864 -43.327969 
L 589.642921 -43.327969 
L 589.334979 -43.327969 
L 589.027037 -43.327969 
L 588.719095 -43.327969 
L 588.411153 -43.327969 
L 588.103211 -43.327969 
L 587.795269 -43.327969 
L 587.487326 -43.327969 
L 587.179384 -43.327969 
L 586.871442 -43.327969 
L 586.5635 -43.327969 
L 586.255558 -43.327969 
L 585.947616 -43.327969 
L 585.639673 -43.327969 
L 585.331731 -43.327969 
L 585.023789 -43.327969 
L 584.715847 -43.327969 
L 584.407905 -43.327969 
L 584.099963 -43.327969 
L 583.79202 -43.327969 
z
" style="stroke: #c0392b; stroke-opacity: 0.4"/>
    </defs>
    <g clip-path="url(#p37ef5dd3be)">
     <use xlink:href="#m45122650cb" x="0" y="297.503969" style="fill: #c0392b; fill-opacity: 0.4; stroke: #c0392b; stroke-opacity: 0.4"/>
    </g>
   </g>
   <g id="PolyCollection_3">
    <defs>
     <path id="m1b7ababc6f" d="M 373.775469 -43.327969 
L 373.775469 -43.453868 
L 374.083411 -43.457973 
L 374.391353 -43.462203 
L 374.699295 -43.46656 
L 375.007237 -43.471049 
L 375.31518 -43.475673 
L 375.623122 -43.480435 
L 375.931064 -43.485339 
L 376.239006 -43.490389 
L 376.546948 -43.49559 
L 376.85489 -43.500945 
L 377.162832 -43.506458 
L 377.470775 -43.512133 
L 377.778717 -43.517976 
L 378.086659 -43.523989 
L 378.394601 -43.530179 
L 378.702543 -43.536549 
L 379.010485 -43.543105 
L 379.318428 -43.549851 
L 379.62637 -43.556791 
L 379.934312 -43.563933 
L 380.242254 -43.571279 
L 380.550196 -43.578836 
L 380.858138 -43.58661 
L 381.166081 -43.594606 
L 381.474023 -43.602829 
L 381.781965 -43.611285 
L 382.089907 -43.61998 
L 382.397849 -43.628921 
L 382.705791 -43.638114 
L 383.013733 -43.647565 
L 383.321676 -43.65728 
L 383.629618 -43.667266 
L 383.93756 -43.67753 
L 384.245502 -43.688078 
L 384.553444 -43.698919 
L 384.861386 -43.710058 
L 385.169329 -43.721504 
L 385.477271 -43.733264 
L 385.785213 -43.745345 
L 386.093155 -43.757756 
L 386.401097 -43.770504 
L 386.709039 -43.783598 
L 387.016982 -43.797045 
L 387.324924 -43.810855 
L 387.632866 -43.825036 
L 387.940808 -43.839597 
L 388.24875 -43.854547 
L 388.556692 -43.869895 
L 388.864634 -43.88565 
L 389.172577 -43.901823 
L 389.480519 -43.918422 
L 389.788461 -43.935458 
L 390.096403 -43.952941 
L 390.404345 -43.970881 
L 390.712287 -43.989289 
L 391.02023 -44.008175 
L 391.328172 -44.02755 
L 391.636114 -44.047427 
L 391.944056 -44.067814 
L 392.251998 -44.088726 
L 392.55994 -44.110172 
L 392.867883 -44.132166 
L 393.175825 -44.154718 
L 393.483767 -44.177843 
L 393.791709 -44.201552 
L 394.099651 -44.225858 
L 394.407593 -44.250774 
L 394.715535 -44.276315 
L 395.023478 -44.302492 
L 395.33142 -44.32932 
L 395.639362 -44.356814 
L 395.947304 -44.384986 
L 396.255246 -44.413853 
L 396.563188 -44.443428 
L 396.871131 -44.473727 
L 397.179073 -44.504765 
L 397.487015 -44.536557 
L 397.794957 -44.569119 
L 398.102899 -44.602468 
L 398.410841 -44.636619 
L 398.718784 -44.671589 
L 399.026726 -44.707395 
L 399.334668 -44.744054 
L 399.64261 -44.781583 
L 399.950552 -44.82 
L 400.258494 -44.859323 
L 400.566436 -44.89957 
L 400.874379 -44.94076 
L 401.182321 -44.982911 
L 401.490263 -45.026042 
L 401.798205 -45.070173 
L 402.106147 -45.115323 
L 402.414089 -45.161512 
L 402.722032 -45.20876 
L 403.029974 -45.257088 
L 403.337916 -45.306517 
L 403.645858 -45.357066 
L 403.9538 -45.408759 
L 404.261742 -45.461616 
L 404.569685 -45.515659 
L 404.877627 -45.570911 
L 405.185569 -45.627394 
L 405.493511 -45.68513 
L 405.801453 -45.744144 
L 406.109395 -45.804459 
L 406.417337 -45.866097 
L 406.72528 -45.929084 
L 407.033222 -45.993443 
L 407.341164 -46.0592 
L 407.649106 -46.126379 
L 407.957048 -46.195005 
L 408.26499 -46.265104 
L 408.572933 -46.336703 
L 408.880875 -46.409826 
L 409.188817 -46.484501 
L 409.496759 -46.560754 
L 409.804701 -46.638612 
L 410.112643 -46.718104 
L 410.420586 -46.799256 
L 410.728528 -46.882097 
L 411.03647 -46.966654 
L 411.344412 -47.052957 
L 411.652354 -47.141035 
L 411.960296 -47.230916 
L 412.268238 -47.32263 
L 412.576181 -47.416208 
L 412.884123 -47.511678 
L 413.192065 -47.609072 
L 413.500007 -47.70842 
L 413.807949 -47.809754 
L 414.115891 -47.913103 
L 414.423834 -48.018501 
L 414.731776 -48.125979 
L 415.039718 -48.235568 
L 415.34766 -48.347302 
L 415.655602 -48.461213 
L 415.963544 -48.577334 
L 416.271487 -48.695698 
L 416.579429 -48.816339 
L 416.887371 -48.93929 
L 417.195313 -49.064586 
L 417.503255 -49.19226 
L 417.811197 -49.322347 
L 418.119139 -49.454882 
L 418.427082 -49.5899 
L 418.735024 -49.727436 
L 419.042966 -49.867525 
L 419.350908 -50.010204 
L 419.65885 -50.155507 
L 419.966792 -50.303471 
L 420.274735 -50.454133 
L 420.582677 -50.607529 
L 420.890619 -50.763695 
L 421.198561 -50.922668 
L 421.506503 -51.084486 
L 421.814445 -51.249186 
L 422.122388 -51.416804 
L 422.43033 -51.58738 
L 422.738272 -51.760949 
L 423.046214 -51.937551 
L 423.354156 -52.117223 
L 423.662098 -52.300003 
L 423.97004 -52.48593 
L 424.277983 -52.675042 
L 424.585925 -52.867377 
L 424.893867 -53.062974 
L 425.201809 -53.261872 
L 425.509751 -53.464109 
L 425.817693 -53.669724 
L 426.125636 -53.878756 
L 426.433578 -54.091244 
L 426.74152 -54.307226 
L 427.049462 -54.526742 
L 427.357404 -54.749831 
L 427.665346 -54.976531 
L 427.973289 -55.206882 
L 428.281231 -55.440922 
L 428.589173 -55.678691 
L 428.897115 -55.920227 
L 429.205057 -56.165569 
L 429.512999 -56.414756 
L 429.820941 -56.667826 
L 430.128884 -56.924819 
L 430.436826 -57.185772 
L 430.744768 -57.450724 
L 431.05271 -57.719713 
L 431.360652 -57.992777 
L 431.668594 -58.269954 
L 431.976537 -58.551283 
L 432.284479 -58.836799 
L 432.592421 -59.126542 
L 432.900363 -59.420547 
L 433.208305 -59.718853 
L 433.516247 -60.021495 
L 433.82419 -60.32851 
L 434.132132 -60.639934 
L 434.440074 -60.955802 
L 434.748016 -61.276152 
L 435.055958 -61.601017 
L 435.3639 -61.930433 
L 435.671842 -62.264434 
L 435.979785 -62.603054 
L 436.287727 -62.946327 
L 436.595669 -63.294286 
L 436.903611 -63.646965 
L 437.211553 -64.004396 
L 437.519495 -64.366611 
L 437.827438 -64.733641 
L 438.13538 -65.105518 
L 438.443322 -65.482272 
L 438.751264 -65.863933 
L 439.059206 -66.250531 
L 439.367148 -66.642095 
L 439.675091 -67.038653 
L 439.983033 -67.440233 
L 440.290975 -67.846862 
L 440.598917 -68.258566 
L 440.598917 -43.327969 
L 440.598917 -43.327969 
L 440.290975 -43.327969 
L 439.983033 -43.327969 
L 439.675091 -43.327969 
L 439.367148 -43.327969 
L 439.059206 -43.327969 
L 438.751264 -43.327969 
L 438.443322 -43.327969 
L 438.13538 -43.327969 
L 437.827438 -43.327969 
L 437.519495 -43.327969 
L 437.211553 -43.327969 
L 436.903611 -43.327969 
L 436.595669 -43.327969 
L 436.287727 -43.327969 
L 435.979785 -43.327969 
L 435.671842 -43.327969 
L 435.3639 -43.327969 
L 435.055958 -43.327969 
L 434.748016 -43.327969 
L 434.440074 -43.327969 
L 434.132132 -43.327969 
L 433.82419 -43.327969 
L 433.516247 -43.327969 
L 433.208305 -43.327969 
L 432.900363 -43.327969 
L 432.592421 -43.327969 
L 432.284479 -43.327969 
L 431.976537 -43.327969 
L 431.668594 -43.327969 
L 431.360652 -43.327969 
L 431.05271 -43.327969 
L 430.744768 -43.327969 
L 430.436826 -43.327969 
L 430.128884 -43.327969 
L 429.820941 -43.327969 
L 429.512999 -43.327969 
L 429.205057 -43.327969 
L 428.897115 -43.327969 
L 428.589173 -43.327969 
L 428.281231 -43.327969 
L 427.973289 -43.327969 
L 427.665346 -43.327969 
L 427.357404 -43.327969 
L 427.049462 -43.327969 
L 426.74152 -43.327969 
L 426.433578 -43.327969 
L 426.125636 -43.327969 
L 425.817693 -43.327969 
L 425.509751 -43.327969 
L 425.201809 -43.327969 
L 424.893867 -43.327969 
L 424.585925 -43.327969 
L 424.277983 -43.327969 
L 423.97004 -43.327969 
L 423.662098 -43.327969 
L 423.354156 -43.327969 
L 423.046214 -43.327969 
L 422.738272 -43.327969 
L 422.43033 -43.327969 
L 422.122388 -43.327969 
L 421.814445 -43.327969 
L 421.506503 -43.327969 
L 421.198561 -43.327969 
L 420.890619 -43.327969 
L 420.582677 -43.327969 
L 420.274735 -43.327969 
L 419.966792 -43.327969 
L 419.65885 -43.327969 
L 419.350908 -43.327969 
L 419.042966 -43.327969 
L 418.735024 -43.327969 
L 418.427082 -43.327969 
L 418.119139 -43.327969 
L 417.811197 -43.327969 
L 417.503255 -43.327969 
L 417.195313 -43.327969 
L 416.887371 -43.327969 
L 416.579429 -43.327969 
L 416.271487 -43.327969 
L 415.963544 -43.327969 
L 415.655602 -43.327969 
L 415.34766 -43.327969 
L 415.039718 -43.327969 
L 414.731776 -43.327969 
L 414.423834 -43.327969 
L 414.115891 -43.327969 
L 413.807949 -43.327969 
L 413.500007 -43.327969 
L 413.192065 -43.327969 
L 412.884123 -43.327969 
L 412.576181 -43.327969 
L 412.268238 -43.327969 
L 411.960296 -43.327969 
L 411.652354 -43.327969 
L 411.344412 -43.327969 
L 411.03647 -43.327969 
L 410.728528 -43.327969 
L 410.420586 -43.327969 
L 410.112643 -43.327969 
L 409.804701 -43.327969 
L 409.496759 -43.327969 
L 409.188817 -43.327969 
L 408.880875 -43.327969 
L 408.572933 -43.327969 
L 408.26499 -43.327969 
L 407.957048 -43.327969 
L 407.649106 -43.327969 
L 407.341164 -43.327969 
L 407.033222 -43.327969 
L 406.72528 -43.327969 
L 406.417337 -43.327969 
L 406.109395 -43.327969 
L 405.801453 -43.327969 
L 405.493511 -43.327969 
L 405.185569 -43.327969 
L 404.877627 -43.327969 
L 404.569685 -43.327969 
L 404.261742 -43.327969 
L 403.9538 -43.327969 
L 403.645858 -43.327969 
L 403.337916 -43.327969 
L 403.029974 -43.327969 
L 402.722032 -43.327969 
L 402.414089 -43.327969 
L 402.106147 -43.327969 
L 401.798205 -43.327969 
L 401.490263 -43.327969 
L 401.182321 -43.327969 
L 400.874379 -43.327969 
L 400.566436 -43.327969 
L 400.258494 -43.327969 
L 399.950552 -43.327969 
L 399.64261 -43.327969 
L 399.334668 -43.327969 
L 399.026726 -43.327969 
L 398.718784 -43.327969 
L 398.410841 -43.327969 
L 398.102899 -43.327969 
L 397.794957 -43.327969 
L 397.487015 -43.327969 
L 397.179073 -43.327969 
L 396.871131 -43.327969 
L 396.563188 -43.327969 
L 396.255246 -43.327969 
L 395.947304 -43.327969 
L 395.639362 -43.327969 
L 395.33142 -43.327969 
L 395.023478 -43.327969 
L 394.715535 -43.327969 
L 394.407593 -43.327969 
L 394.099651 -43.327969 
L 393.791709 -43.327969 
L 393.483767 -43.327969 
L 393.175825 -43.327969 
L 392.867883 -43.327969 
L 392.55994 -43.327969 
L 392.251998 -43.327969 
L 391.944056 -43.327969 
L 391.636114 -43.327969 
L 391.328172 -43.327969 
L 391.02023 -43.327969 
L 390.712287 -43.327969 
L 390.404345 -43.327969 
L 390.096403 -43.327969 
L 389.788461 -43.327969 
L 389.480519 -43.327969 
L 389.172577 -43.327969 
L 388.864634 -43.327969 
L 388.556692 -43.327969 
L 388.24875 -43.327969 
L 387.940808 -43.327969 
L 387.632866 -43.327969 
L 387.324924 -43.327969 
L 387.016982 -43.327969 
L 386.709039 -43.327969 
L 386.401097 -43.327969 
L 386.093155 -43.327969 
L 385.785213 -43.327969 
L 385.477271 -43.327969 
L 385.169329 -43.327969 
L 384.861386 -43.327969 
L 384.553444 -43.327969 
L 384.245502 -43.327969 
L 383.93756 -43.327969 
L 383.629618 -43.327969 
L 383.321676 -43.327969 
L 383.013733 -43.327969 
L 382.705791 -43.327969 
L 382.397849 -43.327969 
L 382.089907 -43.327969 
L 381.781965 -43.327969 
L 381.474023 -43.327969 
L 381.166081 -43.327969 
L 380.858138 -43.327969 
L 380.550196 -43.327969 
L 380.242254 -43.327969 
L 379.934312 -43.327969 
L 379.62637 -43.327969 
L 379.318428 -43.327969 
L 379.010485 -43.327969 
L 378.702543 -43.327969 
L 378.394601 -43.327969 
L 378.086659 -43.327969 
L 377.778717 -43.327969 
L 377.470775 -43.327969 
L 377.162832 -43.327969 
L 376.85489 -43.327969 
L 376.546948 -43.327969 
L 376.239006 -43.327969 
L 375.931064 -43.327969 
L 375.623122 -43.327969 
L 375.31518 -43.327969 
L 375.007237 -43.327969 
L 374.699295 -43.327969 
L 374.391353 -43.327969 
L 374.083411 -43.327969 
L 373.775469 -43.327969 
z
" style="stroke: #c0392b; stroke-opacity: 0.4"/>
    </defs>
    <g clip-path="url(#p37ef5dd3be)">
     <use xlink:href="#m1b7ababc6f" x="0" y="297.503969" style="fill: #c0392b; fill-opacity: 0.4; stroke: #c0392b; stroke-opacity: 0.4"/>
    </g>
   </g>
   <g id="line2d_67">
    <path d="M 373.775469 254.050101 
L 384.861386 253.793911 
L 392.251998 253.415243 
L 398.102899 252.901501 
L 403.029974 252.24688 
L 407.341164 251.444769 
L 411.03647 250.537314 
L 414.423834 249.485468 
L 417.503255 248.311709 
L 420.582677 246.89644 
L 423.354156 245.386746 
L 426.125636 243.625213 
L 428.897115 241.583742 
L 431.668594 239.234014 
L 434.132132 236.864035 
L 436.595669 234.209682 
L 439.059206 231.253437 
L 441.522743 227.97958 
L 444.294223 223.900338 
L 447.065702 219.387853 
L 449.837182 214.433528 
L 452.608661 209.035705 
L 455.688083 202.525943 
L 458.767504 195.498254 
L 462.154868 187.213534 
L 465.850174 177.595079 
L 470.469306 164.907786 
L 478.783745 141.213151 
L 484.326703 125.787984 
L 488.022009 116.138558 
L 491.101431 108.693837 
L 493.87291 102.58006 
L 496.336448 97.692558 
L 498.492043 93.889436 
L 500.647638 90.567828 
L 502.495291 88.129458 
L 504.342944 86.087766 
L 505.882655 84.700599 
L 507.422365 83.607009 
L 508.962076 82.812809 
L 510.193845 82.395908 
L 511.425613 82.174786 
L 512.657382 82.150199 
L 513.889151 82.322233 
L 515.120919 82.690296 
L 516.352688 83.253129 
L 517.892399 84.227574 
L 519.432109 85.498106 
L 520.97182 87.057994 
L 522.819473 89.300136 
L 524.667126 91.930164 
L 526.514779 94.928482 
L 528.670374 98.862426 
L 531.133911 103.885342 
L 533.597449 109.40948 
L 536.67687 116.91571 
L 540.064234 125.787984 
L 544.683366 138.591713 
L 558.848706 178.417065 
L 562.851954 188.760292 
L 566.239317 196.943699 
L 569.626681 204.534514 
L 572.706103 210.884042 
L 575.477582 216.134319 
L 578.249062 220.940816 
L 581.020541 225.307619 
L 583.79202 229.245403 
L 586.5635 232.770328 
L 589.334979 235.902952 
L 592.106459 238.667169 
L 594.877938 241.089213 
L 597.649418 243.196743 
L 600.420897 245.018039 
L 603.192376 246.581301 
L 606.271798 248.049087 
L 609.35122 249.2684 
L 612.738583 250.362934 
L 616.433889 251.308964 
L 620.437137 252.09521 
L 625.05627 252.759915 
L 630.291286 253.278111 
L 636.758072 253.678933 
L 645.07251 253.954118 
L 650.615469 254.050101 
L 650.615469 254.050101 
" clip-path="url(#p37ef5dd3be)" style="fill: none; stroke: #2980b9; stroke-width: 2.4; stroke-linecap: square"/>
   </g>
   <g id="line2d_68">
    <path d="M 583.591048 254.176 
L 583.591048 73.536 
" clip-path="url(#p37ef5dd3be)" style="fill: none; stroke-dasharray: 6.66,2.88; stroke-dashoffset: 0; stroke: #c0392b; stroke-opacity: 0.9; stroke-width: 1.8"/>
   </g>
   <g id="line2d_69">
    <path d="M 440.79989 254.176 
L 440.79989 73.536 
" clip-path="url(#p37ef5dd3be)" style="fill: none; stroke-dasharray: 6.66,2.88; stroke-dashoffset: 0; stroke: #c0392b; stroke-opacity: 0.9; stroke-width: 1.8"/>
   </g>
   <g id="patch_8">
    <path d="M 373.775469 254.176 
L 373.775469 73.536 
" style="fill: none; stroke: #2c3e50; stroke-width: 1.2; stroke-linejoin: miter; stroke-linecap: square"/>
   </g>
   <g id="patch_9">
    <path d="M 373.775469 254.176 
L 650.615469 254.176 
" style="fill: none; stroke: #2c3e50; stroke-width: 1.2; stroke-linejoin: miter; stroke-linecap: square"/>
   </g>
   <g id="text_39">
    <!-- $z_{\alpha/2} = 1.96$ -->
    <g style="fill: #c0392b" transform="translate(528.951574 202.427271) scale(0.095 -0.095)">
     <defs>
      <path id="DejaVuSans-2f" d="M 1625 4666 
L 2156 4666 
L 531 -594 
L 0 -594 
L 1625 4666 
z
" transform="scale(0.015625)"/>
      <path id="DejaVuSans-39" d="M 703 97 
L 703 672 
Q 941 559 1184 500 
Q 1428 441 1663 441 
Q 2288 441 2617 861 
Q 2947 1281 2994 2138 
Q 2813 1869 2534 1725 
Q 2256 1581 1919 1581 
Q 1219 1581 811 2004 
Q 403 2428 403 3163 
Q 403 3881 828 4315 
Q 1253 4750 1959 4750 
Q 2769 4750 3195 4129 
Q 3622 3509 3622 2328 
Q 3622 1225 3098 567 
Q 2575 -91 1691 -91 
Q 1453 -91 1209 -44 
Q 966 3 703 97 
z
M 1959 2075 
Q 2384 2075 2632 2365 
Q 2881 2656 2881 3163 
Q 2881 3666 2632 3958 
Q 2384 4250 1959 4250 
Q 1534 4250 1286 3958 
Q 1038 3666 1038 3163 
Q 1038 2656 1286 2365 
Q 1534 2075 1959 2075 
z
" transform="scale(0.015625)"/>
     </defs>
     <use xlink:href="#DejaVuSans-Oblique-7a" transform="translate(0 0.78125)"/>
     <use xlink:href="#DejaVuSans-Oblique-3b1" transform="translate(52.490234 -15.625) scale(0.7)"/>
     <use xlink:href="#DejaVuSans-2f" transform="translate(98.632812 -15.625) scale(0.7)"/>
     <use xlink:href="#DejaVuSans-32" transform="translate(119.679297 -15.625) scale(0.7)"/>
     <use xlink:href="#DejaVuSans-3d" transform="translate(186.432227 0.78125)"/>
     <use xlink:href="#DejaVuSans-31" transform="translate(289.703711 0.78125)"/>
     <use xlink:href="#DejaVuSans-2e" transform="translate(353.326758 0.78125)"/>
     <use xlink:href="#DejaVuSans-39" transform="translate(385.113867 0.78125)"/>
     <use xlink:href="#DejaVuSans-36" transform="translate(448.736914 0.78125)"/>
    </g>
   </g>
   <g id="text_40">
    <!-- $-1.96$ -->
    <g style="fill: #c0392b" transform="translate(420.765416 202.427271) scale(0.095 -0.095)">
     <use xlink:href="#DejaVuSans-2212" transform="translate(0 0.78125)"/>
     <use xlink:href="#DejaVuSans-31" transform="translate(83.789062 0.78125)"/>
     <use xlink:href="#DejaVuSans-2e" transform="translate(147.412109 0.78125)"/>
     <use xlink:href="#DejaVuSans-39" transform="translate(179.199219 0.78125)"/>
     <use xlink:href="#DejaVuSans-36" transform="translate(242.822266 0.78125)"/>
    </g>
   </g>
   <g id="text_41">
    <!-- Dos colas -->
    <g transform="translate(480.076719 67.536) scale(0.12 -0.12)">
     <defs>
      <path id="DejaVuSans-Bold-44" d="M 1791 3756 
L 1791 909 
L 2222 909 
Q 2959 909 3348 1275 
Q 3738 1641 3738 2338 
Q 3738 3031 3350 3393 
Q 2963 3756 2222 3756 
L 1791 3756 
z
M 588 4666 
L 1856 4666 
Q 2919 4666 3439 4514 
Q 3959 4363 4331 4000 
Q 4659 3684 4818 3271 
Q 4978 2859 4978 2338 
Q 4978 1809 4818 1395 
Q 4659 981 4331 666 
Q 3956 303 3431 151 
Q 2906 0 1856 0 
L 588 0 
L 588 4666 
z
" transform="scale(0.015625)"/>
     </defs>
     <use xlink:href="#DejaVuSans-Bold-44"/>
     <use xlink:href="#DejaVuSans-Bold-6f" x="83.007812"/>
     <use xlink:href="#DejaVuSans-Bold-73" x="151.708984"/>
     <use xlink:href="#DejaVuSans-Bold-20" x="211.230469"/>
     <use xlink:href="#DejaVuSans-Bold-63" x="246.044922"/>
     <use xlink:href="#DejaVuSans-Bold-6f" x="305.322266"/>
     <use xlink:href="#DejaVuSans-Bold-6c" x="374.023438"/>
     <use xlink:href="#DejaVuSans-Bold-61" x="408.300781"/>
     <use xlink:href="#DejaVuSans-Bold-73" x="475.78125"/>
    </g>
   </g>
   <g id="legend_2">
    <g id="patch_10">
     <path d="M 379.725469 92.812406 
L 484.615469 92.812406 
Q 486.315469 92.812406 486.315469 91.112406 
L 486.315469 79.486 
Q 486.315469 77.786 484.615469 77.786 
L 379.725469 77.786 
Q 378.025469 77.786 378.025469 79.486 
L 378.025469 91.112406 
Q 378.025469 92.812406 379.725469 92.812406 
z
" style="fill: #ffffff; opacity: 0.92; stroke: #cccccc; stroke-linejoin: miter"/>
    </g>
    <g id="patch_11">
     <path d="M 381.425469 87.644672 
L 398.425469 87.644672 
L 398.425469 81.694672 
L 381.425469 81.694672 
z
" style="fill: #c0392b; fill-opacity: 0.4; stroke: #c0392b; stroke-opacity: 0.4; stroke-linejoin: miter"/>
    </g>
    <g id="text_42">
     <!-- rechazo $\alpha/2$ c/cola -->
     <g transform="translate(405.225469 87.644672) scale(0.085 -0.085)">
      <defs>
       <path id="DejaVuSans-6c" d="M 603 4863 
L 1178 4863 
L 1178 0 
L 603 0 
L 603 4863 
z
" transform="scale(0.015625)"/>
      </defs>
      <use xlink:href="#DejaVuSans-72" transform="translate(0 0.015625)"/>
      <use xlink:href="#DejaVuSans-65" transform="translate(41.113281 0.015625)"/>
      <use xlink:href="#DejaVuSans-63" transform="translate(102.636719 0.015625)"/>
      <use xlink:href="#DejaVuSans-68" transform="translate(157.617188 0.015625)"/>
      <use xlink:href="#DejaVuSans-61" transform="translate(220.996094 0.015625)"/>
      <use xlink:href="#DejaVuSans-7a" transform="translate(282.275391 0.015625)"/>
      <use xlink:href="#DejaVuSans-6f" transform="translate(334.765625 0.015625)"/>
      <use xlink:href="#DejaVuSans-20" transform="translate(395.947266 0.015625)"/>
      <use xlink:href="#DejaVuSans-Oblique-3b1" transform="translate(427.734375 0.015625)"/>
      <use xlink:href="#DejaVuSans-2f" transform="translate(493.652344 0.015625)"/>
      <use xlink:href="#DejaVuSans-32" transform="translate(523.71875 0.015625)"/>
      <use xlink:href="#DejaVuSans-20" transform="translate(587.341797 0.015625)"/>
      <use xlink:href="#DejaVuSans-63" transform="translate(619.128906 0.015625)"/>
      <use xlink:href="#DejaVuSans-2f" transform="translate(674.109375 0.015625)"/>
      <use xlink:href="#DejaVuSans-63" transform="translate(707.800781 0.015625)"/>
      <use xlink:href="#DejaVuSans-6f" transform="translate(762.78125 0.015625)"/>
      <use xlink:href="#DejaVuSans-6c" transform="translate(823.962891 0.015625)"/>
      <use xlink:href="#DejaVuSans-61" transform="translate(851.746094 0.015625)"/>
     </g>
    </g>
   </g>
  </g>
  <g id="text_43">
   <!-- Regiones de rechazo sobre la $\mathcal{N}(0,1)$ -->
   <g transform="translate(198.370469 21.92) scale(0.13 -0.13)">
    <defs>
     <path id="DejaVuSans-Bold-52" d="M 2297 2597 
Q 2675 2597 2839 2737 
Q 3003 2878 3003 3200 
Q 3003 3519 2839 3656 
Q 2675 3794 2297 3794 
L 1791 3794 
L 1791 2597 
L 2297 2597 
z
M 1791 1766 
L 1791 0 
L 588 0 
L 588 4666 
L 2425 4666 
Q 3347 4666 3776 4356 
Q 4206 4047 4206 3378 
Q 4206 2916 3982 2619 
Q 3759 2322 3309 2181 
Q 3556 2125 3751 1926 
Q 3947 1728 4147 1325 
L 4800 0 
L 3519 0 
L 2950 1159 
Q 2778 1509 2601 1637 
Q 2425 1766 2131 1766 
L 1791 1766 
z
" transform="scale(0.015625)"/>
     <path id="DejaVuSans-Bold-67" d="M 2919 594 
Q 2688 288 2409 144 
Q 2131 0 1766 0 
Q 1125 0 706 504 
Q 288 1009 288 1791 
Q 288 2575 706 3076 
Q 1125 3578 1766 3578 
Q 2131 3578 2409 3434 
Q 2688 3291 2919 2981 
L 2919 3500 
L 4044 3500 
L 4044 353 
Q 4044 -491 3511 -936 
Q 2978 -1381 1966 -1381 
Q 1638 -1381 1331 -1331 
Q 1025 -1281 716 -1178 
L 716 -306 
Q 1009 -475 1290 -558 
Q 1572 -641 1856 -641 
Q 2406 -641 2662 -400 
Q 2919 -159 2919 353 
L 2919 594 
z
M 2181 2772 
Q 1834 2772 1640 2515 
Q 1447 2259 1447 1791 
Q 1447 1309 1634 1061 
Q 1822 813 2181 813 
Q 2531 813 2725 1069 
Q 2919 1325 2919 1791 
Q 2919 2259 2725 2515 
Q 2531 2772 2181 2772 
z
" transform="scale(0.015625)"/>
     <path id="DejaVuSans-Bold-62" d="M 2400 722 
Q 2759 722 2948 984 
Q 3138 1247 3138 1747 
Q 3138 2247 2948 2509 
Q 2759 2772 2400 2772 
Q 2041 2772 1848 2508 
Q 1656 2244 1656 1747 
Q 1656 1250 1848 986 
Q 2041 722 2400 722 
z
M 1656 2988 
Q 1888 3294 2169 3439 
Q 2450 3584 2816 3584 
Q 3463 3584 3878 3070 
Q 4294 2556 4294 1747 
Q 4294 938 3878 423 
Q 3463 -91 2816 -91 
Q 2450 -91 2169 54 
Q 1888 200 1656 506 
L 1656 0 
L 538 0 
L 538 4863 
L 1656 4863 
L 1656 2988 
z
" transform="scale(0.015625)"/>
     <path id="STIXNonUnicode-Italic-e23a" d="M 4294 800 
L 4301 800 
Q 5293 4070 5408 4378 
Q 5472 4538 5523 4614 
Q 5830 5088 6253 5088 
Q 6490 5088 6650 4931 
Q 6810 4774 6810 4550 
Q 6810 4378 6720 4272 
Q 6630 4166 6470 4166 
Q 6368 4166 6297 4224 
Q 6227 4282 6198 4349 
Q 6170 4416 6118 4473 
Q 6067 4531 6003 4531 
Q 5939 4531 5881 4508 
Q 5824 4486 5785 4457 
Q 5747 4429 5705 4371 
Q 5664 4314 5638 4275 
Q 5613 4237 5584 4163 
Q 5555 4090 5545 4058 
Q 5536 4026 5510 3952 
Q 5485 3878 5485 3866 
L 4262 -154 
L 4134 -154 
Q 3078 1280 2483 2893 
L 2470 2893 
Q 2406 2579 2358 2361 
Q 2310 2144 2214 1792 
Q 2118 1440 2028 1190 
Q 1939 941 1804 653 
Q 1670 365 1529 185 
Q 1389 6 1203 -115 
Q 1018 -237 813 -237 
Q 576 -237 416 -80 
Q 256 77 256 301 
Q 256 474 345 579 
Q 435 685 595 685 
Q 698 685 768 627 
Q 838 570 867 502 
Q 896 435 947 377 
Q 998 320 1062 320 
Q 1222 320 1369 480 
Q 1517 640 1638 928 
Q 1760 1216 1862 1542 
Q 1965 1869 2057 2288 
Q 2150 2707 2214 3033 
Q 2278 3360 2348 3741 
Q 2419 4122 2458 4294 
L 2630 4294 
Q 2682 4166 2874 3680 
Q 3066 3194 3142 3008 
Q 3219 2822 3392 2422 
Q 3565 2022 3683 1798 
Q 3802 1574 3968 1292 
Q 4134 1011 4294 800 
z
" transform="scale(0.015625)"/>
     <path id="DejaVuSans-28" d="M 1984 4856 
Q 1566 4138 1362 3434 
Q 1159 2731 1159 2009 
Q 1159 1288 1364 580 
Q 1569 -128 1984 -844 
L 1484 -844 
Q 1016 -109 783 600 
Q 550 1309 550 2009 
Q 550 2706 781 3412 
Q 1013 4119 1484 4856 
L 1984 4856 
z
" transform="scale(0.015625)"/>
     <path id="DejaVuSans-2c" d="M 750 794 
L 1409 794 
L 1409 256 
L 897 -744 
L 494 -744 
L 750 256 
L 750 794 
z
" transform="scale(0.015625)"/>
     <path id="DejaVuSans-29" d="M 513 4856 
L 1013 4856 
Q 1481 4119 1714 3412 
Q 1947 2706 1947 2009 
Q 1947 1309 1714 600 
Q 1481 -109 1013 -844 
L 513 -844 
Q 928 -128 1133 580 
Q 1338 1288 1338 2009 
Q 1338 2731 1133 3434 
Q 928 4138 513 4856 
z
" transform="scale(0.015625)"/>
    </defs>
    <use xlink:href="#DejaVuSans-Bold-52" transform="translate(0 0.5)"/>
    <use xlink:href="#DejaVuSans-Bold-65" transform="translate(77.001953 0.5)"/>
    <use xlink:href="#DejaVuSans-Bold-67" transform="translate(144.824219 0.5)"/>
    <use xlink:href="#DejaVuSans-Bold-69" transform="translate(216.40625 0.5)"/>
    <use xlink:href="#DejaVuSans-Bold-6f" transform="translate(250.683594 0.5)"/>
    <use xlink:href="#DejaVuSans-Bold-6e" transform="translate(319.384766 0.5)"/>
    <use xlink:href="#DejaVuSans-Bold-65" transform="translate(390.576172 0.5)"/>
    <use xlink:href="#DejaVuSans-Bold-73" transform="translate(458.398438 0.5)"/>
    <use xlink:href="#DejaVuSans-Bold-20" transform="translate(517.919922 0.5)"/>
    <use xlink:href="#DejaVuSans-Bold-64" transform="translate(552.734375 0.5)"/>
    <use xlink:href="#DejaVuSans-Bold-65" transform="translate(624.316406 0.5)"/>
    <use xlink:href="#DejaVuSans-Bold-20" transform="translate(692.138672 0.5)"/>
    <use xlink:href="#DejaVuSans-Bold-72" transform="translate(726.953125 0.5)"/>
    <use xlink:href="#DejaVuSans-Bold-65" transform="translate(776.269531 0.5)"/>
    <use xlink:href="#DejaVuSans-Bold-63" transform="translate(844.091797 0.5)"/>
    <use xlink:href="#DejaVuSans-Bold-68" transform="translate(903.369141 0.5)"/>
    <use xlink:href="#DejaVuSans-Bold-61" transform="translate(974.560547 0.5)"/>
    <use xlink:href="#DejaVuSans-Bold-7a" transform="translate(1042.041016 0.5)"/>
    <use xlink:href="#DejaVuSans-Bold-6f" transform="translate(1100.244141 0.5)"/>
    <use xlink:href="#DejaVuSans-Bold-20" transform="translate(1168.945312 0.5)"/>
    <use xlink:href="#DejaVuSans-Bold-73" transform="translate(1203.759766 0.5)"/>
    <use xlink:href="#DejaVuSans-Bold-6f" transform="translate(1263.28125 0.5)"/>
    <use xlink:href="#DejaVuSans-Bold-62" transform="translate(1331.982422 0.5)"/>
    <use xlink:href="#DejaVuSans-Bold-72" transform="translate(1403.564453 0.5)"/>
    <use xlink:href="#DejaVuSans-Bold-65" transform="translate(1452.880859 0.5)"/>
    <use xlink:href="#DejaVuSans-Bold-20" transform="translate(1520.703125 0.5)"/>
    <use xlink:href="#DejaVuSans-Bold-6c" transform="translate(1555.517578 0.5)"/>
    <use xlink:href="#DejaVuSans-Bold-61" transform="translate(1589.794922 0.5)"/>
    <use xlink:href="#DejaVuSans-Bold-20" transform="translate(1657.275391 0.5)"/>
    <use xlink:href="#STIXNonUnicode-Italic-e23a" transform="translate(1692.089844 0.5)"/>
    <use xlink:href="#DejaVuSans-28" transform="translate(1787.789825 0.5)"/>
    <use xlink:href="#DejaVuSans-30" transform="translate(1826.803497 0.5)"/>
    <use xlink:href="#DejaVuSans-2c" transform="translate(1890.426544 0.5)"/>
    <use xlink:href="#DejaVuSans-31" transform="translate(1941.696075 0.5)"/>
    <use xlink:href="#DejaVuSans-29" transform="translate(2005.319122 0.5)"/>
   </g>
  </g>
 </g>
 <defs>
  <clipPath id="pbfd6ea6eec">
   <rect x="55.915469" y="73.536" width="276.84" height="180.64"/>
  </clipPath>
  <clipPath id="p37ef5dd3be">
   <rect x="373.775469" y="73.536" width="276.84" height="180.64"/>
  </clipPath>
 </defs>
</svg>
