<?xml version="1.0" encoding="utf-8" standalone="no"?>
<!DOCTYPE svg PUBLIC "-//W3C//DTD SVG 1.1//EN"
  "http://www.w3.org/Graphics/SVG/1.1/DTD/svg11.dtd">
<svg xmlns:xlink="http://www.w3.org/1999/xlink" width="435.715469pt" height="302.549937pt" viewBox="0 0 435.715469 302.549937" xmlns="http://www.w3.org/2000/svg" version="1.1">
 <metadata>
  <rdf:RDF xmlns:dc="http://purl.org/dc/elements/1.1/" xmlns:cc="http://creativecommons.org/ns#" xmlns:rdf="http://www.w3.org/1999/02/22-rdf-syntax-ns#">
   <cc:Work>
    <dc:type rdf:resource="http://purl.org/dc/dcmitype/StillImage"/>
    <dc:date>2026-06-30T11:51:44.218315</dc:date>
    <dc:format>image/svg+xml</dc:format>
    <dc:creator>
     <cc:Agent>
      <dc:title>Matplotlib v3.9.2, https://matplotlib.org/</dc:title>
     </cc:Agent>
    </dc:creator>
   </cc:Work>
  </rdf:RDF>
 </metadata>
 <defs>
  <style type="text/css">*{stroke-linejoin: round; stroke-linecap: butt}</style>
 </defs>
 <g id="figure_1">
  <g id="patch_1">
   <path d="M 0 302.549937 
L 435.715469 302.549937 
L 435.715469 0 
L 0 0 
z
" style="fill: #ffffff"/>
  </g>
  <g id="axes_1">
   <g id="patch_2">
    <path d="M 55.915469 259.221969 
L 424.195469 259.221969 
L 424.195469 31.917969 
L 55.915469 31.917969 
z
" style="fill: #ffffff"/>
   </g>
   <g id="matplotlib.axis_1">
    <g id="xtick_1">
     <g id="line2d_1">
      <path d="M 92.743469 259.221969 
L 92.743469 31.917969 
" clip-path="url(#p40c8d9912d)" style="fill: none; stroke-dasharray: 0.8,1.28; stroke-dashoffset: 0; stroke: #b0b0b0; stroke-opacity: 0.3; stroke-width: 0.8"/>
     </g>
     <g id="line2d_2">
      <defs>
       <path id="m5066edede3" d="M 0 0 
L 0 3.5 
" style="stroke: #2c3e50; stroke-width: 0.8"/>
      </defs>
      <g>
       <use xlink:href="#m5066edede3" x="92.743469" y="259.221969" style="fill: #2c3e50; stroke: #2c3e50; stroke-width: 0.8"/>
      </g>
     </g>
     <g id="text_1">
      <!-- −4 -->
      <g style="fill: #2c3e50" transform="translate(85.372375 273.820406) scale(0.1 -0.1)">
       <defs>
        <path id="DejaVuSans-2212" d="M 678 2272 
L 4684 2272 
L 4684 1741 
L 678 1741 
L 678 2272 
z
" transform="scale(0.015625)"/>
        <path id="DejaVuSans-34" d="M 2419 4116 
L 825 1625 
L 2419 1625 
L 2419 4116 
z
M 2253 4666 
L 3047 4666 
L 3047 1625 
L 3713 1625 
L 3713 1100 
L 3047 1100 
L 3047 0 
L 2419 0 
L 2419 1100 
L 313 1100 
L 313 1709 
L 2253 4666 
z
" transform="scale(0.015625)"/>
       </defs>
       <use xlink:href="#DejaVuSans-2212"/>
       <use xlink:href="#DejaVuSans-34" x="83.789062"/>
      </g>
     </g>
    </g>
    <g id="xtick_2">
     <g id="line2d_3">
      <path d="M 166.399469 259.221969 
L 166.399469 31.917969 
" clip-path="url(#p40c8d9912d)" style="fill: none; stroke-dasharray: 0.8,1.28; stroke-dashoffset: 0; stroke: #b0b0b0; stroke-opacity: 0.3; stroke-width: 0.8"/>
     </g>
     <g id="line2d_4">
      <g>
       <use xlink:href="#m5066edede3" x="166.399469" y="259.221969" style="fill: #2c3e50; stroke: #2c3e50; stroke-width: 0.8"/>
      </g>
     </g>
     <g id="text_2">
      <!-- −2 -->
      <g style="fill: #2c3e50" transform="translate(159.028375 273.820406) scale(0.1 -0.1)">
       <defs>
        <path id="DejaVuSans-32" d="M 1228 531 
L 3431 531 
L 3431 0 
L 469 0 
L 469 531 
Q 828 903 1448 1529 
Q 2069 2156 2228 2338 
Q 2531 2678 2651 2914 
Q 2772 3150 2772 3378 
Q 2772 3750 2511 3984 
Q 2250 4219 1831 4219 
Q 1534 4219 1204 4116 
Q 875 4013 500 3803 
L 500 4441 
Q 881 4594 1212 4672 
Q 1544 4750 1819 4750 
Q 2544 4750 2975 4387 
Q 3406 4025 3406 3419 
Q 3406 3131 3298 2873 
Q 3191 2616 2906 2266 
Q 2828 2175 2409 1742 
Q 1991 1309 1228 531 
z
" transform="scale(0.015625)"/>
       </defs>
       <use xlink:href="#DejaVuSans-2212"/>
       <use xlink:href="#DejaVuSans-32" x="83.789062"/>
      </g>
     </g>
    </g>
    <g id="xtick_3">
     <g id="line2d_5">
      <path d="M 240.055469 259.221969 
L 240.055469 31.917969 
" clip-path="url(#p40c8d9912d)" style="fill: none; stroke-dasharray: 0.8,1.28; stroke-dashoffset: 0; stroke: #b0b0b0; stroke-opacity: 0.3; stroke-width: 0.8"/>
     </g>
     <g id="line2d_6">
      <g>
       <use xlink:href="#m5066edede3" x="240.055469" y="259.221969" style="fill: #2c3e50; stroke: #2c3e50; stroke-width: 0.8"/>
      </g>
     </g>
     <g id="text_3">
      <!-- 0 -->
      <g style="fill: #2c3e50" transform="translate(236.874219 273.820406) scale(0.1 -0.1)">
       <defs>
        <path id="DejaVuSans-30" d="M 2034 4250 
Q 1547 4250 1301 3770 
Q 1056 3291 1056 2328 
Q 1056 1369 1301 889 
Q 1547 409 2034 409 
Q 2525 409 2770 889 
Q 3016 1369 3016 2328 
Q 3016 3291 2770 3770 
Q 2525 4250 2034 4250 
z
M 2034 4750 
Q 2819 4750 3233 4129 
Q 3647 3509 3647 2328 
Q 3647 1150 3233 529 
Q 2819 -91 2034 -91 
Q 1250 -91 836 529 
Q 422 1150 422 2328 
Q 422 3509 836 4129 
Q 1250 4750 2034 4750 
z
" transform="scale(0.015625)"/>
       </defs>
       <use xlink:href="#DejaVuSans-30"/>
      </g>
     </g>
    </g>
    <g id="xtick_4">
     <g id="line2d_7">
      <path d="M 313.711469 259.221969 
L 313.711469 31.917969 
" clip-path="url(#p40c8d9912d)" style="fill: none; stroke-dasharray: 0.8,1.28; stroke-dashoffset: 0; stroke: #b0b0b0; stroke-opacity: 0.3; stroke-width: 0.8"/>
     </g>
     <g id="line2d_8">
      <g>
       <use xlink:href="#m5066edede3" x="313.711469" y="259.221969" style="fill: #2c3e50; stroke: #2c3e50; stroke-width: 0.8"/>
      </g>
     </g>
     <g id="text_4">
      <!-- 2 -->
      <g style="fill: #2c3e50" transform="translate(310.530219 273.820406) scale(0.1 -0.1)">
       <use xlink:href="#DejaVuSans-32"/>
      </g>
     </g>
    </g>
    <g id="xtick_5">
     <g id="line2d_9">
      <path d="M 387.367469 259.221969 
L 387.367469 31.917969 
" clip-path="url(#p40c8d9912d)" style="fill: none; stroke-dasharray: 0.8,1.28; stroke-dashoffset: 0; stroke: #b0b0b0; stroke-opacity: 0.3; stroke-width: 0.8"/>
     </g>
     <g id="line2d_10">
      <g>
       <use xlink:href="#m5066edede3" x="387.367469" y="259.221969" style="fill: #2c3e50; stroke: #2c3e50; stroke-width: 0.8"/>
      </g>
     </g>
     <g id="text_5">
      <!-- 4 -->
      <g style="fill: #2c3e50" transform="translate(384.186219 273.820406) scale(0.1 -0.1)">
       <use xlink:href="#DejaVuSans-34"/>
      </g>
     </g>
    </g>
    <g id="text_6">
     <!-- $t$ -->
     <g transform="translate(237.755469 288.638297) scale(0.115 -0.115)">
      <defs>
       <path id="DejaVuSans-Oblique-74" d="M 2706 3500 
L 2619 3053 
L 1472 3053 
L 1100 1153 
Q 1081 1047 1072 975 
Q 1063 903 1063 863 
Q 1063 663 1183 572 
Q 1303 481 1569 481 
L 2150 481 
L 2053 0 
L 1503 0 
Q 991 0 739 200 
Q 488 400 488 806 
Q 488 878 497 964 
Q 506 1050 525 1153 
L 897 3053 
L 409 3053 
L 500 3500 
L 978 3500 
L 1172 4494 
L 1747 4494 
L 1556 3500 
L 2706 3500 
z
" transform="scale(0.015625)"/>
      </defs>
      <use xlink:href="#DejaVuSans-Oblique-74" transform="translate(0 0.78125)"/>
     </g>
    </g>
   </g>
   <g id="matplotlib.axis_2">
    <g id="ytick_1">
     <g id="line2d_11">
      <path d="M 55.915469 259.221969 
L 424.195469 259.221969 
" clip-path="url(#p40c8d9912d)" style="fill: none; stroke-dasharray: 0.8,1.28; stroke-dashoffset: 0; stroke: #b0b0b0; stroke-opacity: 0.3; stroke-width: 0.8"/>
     </g>
     <g id="line2d_12">
      <defs>
       <path id="m661db52b92" d="M 0 0 
L -3.5 0 
" style="stroke: #2c3e50; stroke-width: 0.8"/>
      </defs>
      <g>
       <use xlink:href="#m661db52b92" x="55.915469" y="259.221969" style="fill: #2c3e50; stroke: #2c3e50; stroke-width: 0.8"/>
      </g>
     </g>
     <g id="text_7">
      <!-- 0.00 -->
      <g style="fill: #2c3e50" transform="translate(26.649844 263.021187) scale(0.1 -0.1)">
       <defs>
        <path id="DejaVuSans-2e" d="M 684 794 
L 1344 794 
L 1344 0 
L 684 0 
L 684 794 
z
" transform="scale(0.015625)"/>
       </defs>
       <use xlink:href="#DejaVuSans-30"/>
       <use xlink:href="#DejaVuSans-2e" x="63.623047"/>
       <use xlink:href="#DejaVuSans-30" x="95.410156"/>
       <use xlink:href="#DejaVuSans-30" x="159.033203"/>
      </g>
     </g>
    </g>
    <g id="ytick_2">
     <g id="line2d_13">
      <path d="M 55.915469 232.08988 
L 424.195469 232.08988 
" clip-path="url(#p40c8d9912d)" style="fill: none; stroke-dasharray: 0.8,1.28; stroke-dashoffset: 0; stroke: #b0b0b0; stroke-opacity: 0.3; stroke-width: 0.8"/>
     </g>
     <g id="line2d_14">
      <g>
       <use xlink:href="#m661db52b92" x="55.915469" y="232.08988" style="fill: #2c3e50; stroke: #2c3e50; stroke-width: 0.8"/>
      </g>
     </g>
     <g id="text_8">
      <!-- 0.05 -->
      <g style="fill: #2c3e50" transform="translate(26.649844 235.889098) scale(0.1 -0.1)">
       <defs>
        <path id="DejaVuSans-35" d="M 691 4666 
L 3169 4666 
L 3169 4134 
L 1269 4134 
L 1269 2991 
Q 1406 3038 1543 3061 
Q 1681 3084 1819 3084 
Q 2600 3084 3056 2656 
Q 3513 2228 3513 1497 
Q 3513 744 3044 326 
Q 2575 -91 1722 -91 
Q 1428 -91 1123 -41 
Q 819 9 494 109 
L 494 744 
Q 775 591 1075 516 
Q 1375 441 1709 441 
Q 2250 441 2565 725 
Q 2881 1009 2881 1497 
Q 2881 1984 2565 2268 
Q 2250 2553 1709 2553 
Q 1456 2553 1204 2497 
Q 953 2441 691 2322 
L 691 4666 
z
" transform="scale(0.015625)"/>
       </defs>
       <use xlink:href="#DejaVuSans-30"/>
       <use xlink:href="#DejaVuSans-2e" x="63.623047"/>
       <use xlink:href="#DejaVuSans-30" x="95.410156"/>
       <use xlink:href="#DejaVuSans-35" x="159.033203"/>
      </g>
     </g>
    </g>
    <g id="ytick_3">
     <g id="line2d_15">
      <path d="M 55.915469 204.957791 
L 424.195469 204.957791 
" clip-path="url(#p40c8d9912d)" style="fill: none; stroke-dasharray: 0.8,1.28; stroke-dashoffset: 0; stroke: #b0b0b0; stroke-opacity: 0.3; stroke-width: 0.8"/>
     </g>
     <g id="line2d_16">
      <g>
       <use xlink:href="#m661db52b92" x="55.915469" y="204.957791" style="fill: #2c3e50; stroke: #2c3e50; stroke-width: 0.8"/>
      </g>
     </g>
     <g id="text_9">
      <!-- 0.10 -->
      <g style="fill: #2c3e50" transform="translate(26.649844 208.757009) scale(0.1 -0.1)">
       <defs>
        <path id="DejaVuSans-31" d="M 794 531 
L 1825 531 
L 1825 4091 
L 703 3866 
L 703 4441 
L 1819 4666 
L 2450 4666 
L 2450 531 
L 3481 531 
L 3481 0 
L 794 0 
L 794 531 
z
" transform="scale(0.015625)"/>
       </defs>
       <use xlink:href="#DejaVuSans-30"/>
       <use xlink:href="#DejaVuSans-2e" x="63.623047"/>
       <use xlink:href="#DejaVuSans-31" x="95.410156"/>
       <use xlink:href="#DejaVuSans-30" x="159.033203"/>
      </g>
     </g>
    </g>
    <g id="ytick_4">
     <g id="line2d_17">
      <path d="M 55.915469 177.825701 
L 424.195469 177.825701 
" clip-path="url(#p40c8d9912d)" style="fill: none; stroke-dasharray: 0.8,1.28; stroke-dashoffset: 0; stroke: #b0b0b0; stroke-opacity: 0.3; stroke-width: 0.8"/>
     </g>
     <g id="line2d_18">
      <g>
       <use xlink:href="#m661db52b92" x="55.915469" y="177.825701" style="fill: #2c3e50; stroke: #2c3e50; stroke-width: 0.8"/>
      </g>
     </g>
     <g id="text_10">
      <!-- 0.15 -->
      <g style="fill: #2c3e50" transform="translate(26.649844 181.62492) scale(0.1 -0.1)">
       <use xlink:href="#DejaVuSans-30"/>
       <use xlink:href="#DejaVuSans-2e" x="63.623047"/>
       <use xlink:href="#DejaVuSans-31" x="95.410156"/>
       <use xlink:href="#DejaVuSans-35" x="159.033203"/>
      </g>
     </g>
    </g>
    <g id="ytick_5">
     <g id="line2d_19">
      <path d="M 55.915469 150.693612 
L 424.195469 150.693612 
" clip-path="url(#p40c8d9912d)" style="fill: none; stroke-dasharray: 0.8,1.28; stroke-dashoffset: 0; stroke: #b0b0b0; stroke-opacity: 0.3; stroke-width: 0.8"/>
     </g>
     <g id="line2d_20">
      <g>
       <use xlink:href="#m661db52b92" x="55.915469" y="150.693612" style="fill: #2c3e50; stroke: #2c3e50; stroke-width: 0.8"/>
      </g>
     </g>
     <g id="text_11">
      <!-- 0.20 -->
      <g style="fill: #2c3e50" transform="translate(26.649844 154.492831) scale(0.1 -0.1)">
       <use xlink:href="#DejaVuSans-30"/>
       <use xlink:href="#DejaVuSans-2e" x="63.623047"/>
       <use xlink:href="#DejaVuSans-32" x="95.410156"/>
       <use xlink:href="#DejaVuSans-30" x="159.033203"/>
      </g>
     </g>
    </g>
    <g id="ytick_6">
     <g id="line2d_21">
      <path d="M 55.915469 123.561523 
L 424.195469 123.561523 
" clip-path="url(#p40c8d9912d)" style="fill: none; stroke-dasharray: 0.8,1.28; stroke-dashoffset: 0; stroke: #b0b0b0; stroke-opacity: 0.3; stroke-width: 0.8"/>
     </g>
     <g id="line2d_22">
      <g>
       <use xlink:href="#m661db52b92" x="55.915469" y="123.561523" style="fill: #2c3e50; stroke: #2c3e50; stroke-width: 0.8"/>
      </g>
     </g>
     <g id="text_12">
      <!-- 0.25 -->
      <g style="fill: #2c3e50" transform="translate(26.649844 127.360742) scale(0.1 -0.1)">
       <use xlink:href="#DejaVuSans-30"/>
       <use xlink:href="#DejaVuSans-2e" x="63.623047"/>
       <use xlink:href="#DejaVuSans-32" x="95.410156"/>
       <use xlink:href="#DejaVuSans-35" x="159.033203"/>
      </g>
     </g>
    </g>
    <g id="ytick_7">
     <g id="line2d_23">
      <path d="M 55.915469 96.429434 
L 424.195469 96.429434 
" clip-path="url(#p40c8d9912d)" style="fill: none; stroke-dasharray: 0.8,1.28; stroke-dashoffset: 0; stroke: #b0b0b0; stroke-opacity: 0.3; stroke-width: 0.8"/>
     </g>
     <g id="line2d_24">
      <g>
       <use xlink:href="#m661db52b92" x="55.915469" y="96.429434" style="fill: #2c3e50; stroke: #2c3e50; stroke-width: 0.8"/>
      </g>
     </g>
     <g id="text_13">
      <!-- 0.30 -->
      <g style="fill: #2c3e50" transform="translate(26.649844 100.228653) scale(0.1 -0.1)">
       <defs>
        <path id="DejaVuSans-33" d="M 2597 2516 
Q 3050 2419 3304 2112 
Q 3559 1806 3559 1356 
Q 3559 666 3084 287 
Q 2609 -91 1734 -91 
Q 1441 -91 1130 -33 
Q 819 25 488 141 
L 488 750 
Q 750 597 1062 519 
Q 1375 441 1716 441 
Q 2309 441 2620 675 
Q 2931 909 2931 1356 
Q 2931 1769 2642 2001 
Q 2353 2234 1838 2234 
L 1294 2234 
L 1294 2753 
L 1863 2753 
Q 2328 2753 2575 2939 
Q 2822 3125 2822 3475 
Q 2822 3834 2567 4026 
Q 2313 4219 1838 4219 
Q 1578 4219 1281 4162 
Q 984 4106 628 3988 
L 628 4550 
Q 988 4650 1302 4700 
Q 1616 4750 1894 4750 
Q 2613 4750 3031 4423 
Q 3450 4097 3450 3541 
Q 3450 3153 3228 2886 
Q 3006 2619 2597 2516 
z
" transform="scale(0.015625)"/>
       </defs>
       <use xlink:href="#DejaVuSans-30"/>
       <use xlink:href="#DejaVuSans-2e" x="63.623047"/>
       <use xlink:href="#DejaVuSans-33" x="95.410156"/>
       <use xlink:href="#DejaVuSans-30" x="159.033203"/>
      </g>
     </g>
    </g>
    <g id="ytick_8">
     <g id="line2d_25">
      <path d="M 55.915469 69.297345 
L 424.195469 69.297345 
" clip-path="url(#p40c8d9912d)" style="fill: none; stroke-dasharray: 0.8,1.28; stroke-dashoffset: 0; stroke: #b0b0b0; stroke-opacity: 0.3; stroke-width: 0.8"/>
     </g>
     <g id="line2d_26">
      <g>
       <use xlink:href="#m661db52b92" x="55.915469" y="69.297345" style="fill: #2c3e50; stroke: #2c3e50; stroke-width: 0.8"/>
      </g>
     </g>
     <g id="text_14">
      <!-- 0.35 -->
      <g style="fill: #2c3e50" transform="translate(26.649844 73.096564) scale(0.1 -0.1)">
       <use xlink:href="#DejaVuSans-30"/>
       <use xlink:href="#DejaVuSans-2e" x="63.623047"/>
       <use xlink:href="#DejaVuSans-33" x="95.410156"/>
       <use xlink:href="#DejaVuSans-35" x="159.033203"/>
      </g>
     </g>
    </g>
    <g id="ytick_9">
     <g id="line2d_27">
      <path d="M 55.915469 42.165256 
L 424.195469 42.165256 
" clip-path="url(#p40c8d9912d)" style="fill: none; stroke-dasharray: 0.8,1.28; stroke-dashoffset: 0; stroke: #b0b0b0; stroke-opacity: 0.3; stroke-width: 0.8"/>
     </g>
     <g id="line2d_28">
      <g>
       <use xlink:href="#m661db52b92" x="55.915469" y="42.165256" style="fill: #2c3e50; stroke: #2c3e50; stroke-width: 0.8"/>
      </g>
     </g>
     <g id="text_15">
      <!-- 0.40 -->
      <g style="fill: #2c3e50" transform="translate(26.649844 45.964475) scale(0.1 -0.1)">
       <use xlink:href="#DejaVuSans-30"/>
       <use xlink:href="#DejaVuSans-2e" x="63.623047"/>
       <use xlink:href="#DejaVuSans-34" x="95.410156"/>
       <use xlink:href="#DejaVuSans-30" x="159.033203"/>
      </g>
     </g>
    </g>
    <g id="text_16">
     <!-- $f_T(t)$ -->
     <g transform="translate(20.258203 156.954969) rotate(-90) scale(0.115 -0.115)">
      <defs>
       <path id="DejaVuSans-Oblique-66" d="M 3059 4863 
L 2969 4384 
L 2419 4384 
Q 2106 4384 1964 4261 
Q 1822 4138 1753 3809 
L 1691 3500 
L 2638 3500 
L 2553 3053 
L 1606 3053 
L 1013 0 
L 434 0 
L 1031 3053 
L 481 3053 
L 563 3500 
L 1113 3500 
L 1159 3744 
Q 1278 4363 1576 4613 
Q 1875 4863 2516 4863 
L 3059 4863 
z
" transform="scale(0.015625)"/>
       <path id="DejaVuSans-Oblique-54" d="M 378 4666 
L 4325 4666 
L 4225 4134 
L 2559 4134 
L 1759 0 
L 1125 0 
L 1925 4134 
L 275 4134 
L 378 4666 
z
" transform="scale(0.015625)"/>
       <path id="DejaVuSans-28" d="M 1984 4856 
Q 1566 4138 1362 3434 
Q 1159 2731 1159 2009 
Q 1159 1288 1364 580 
Q 1569 -128 1984 -844 
L 1484 -844 
Q 1016 -109 783 600 
Q 550 1309 550 2009 
Q 550 2706 781 3412 
Q 1013 4119 1484 4856 
L 1984 4856 
z
" transform="scale(0.015625)"/>
       <path id="DejaVuSans-29" d="M 513 4856 
L 1013 4856 
Q 1481 4119 1714 3412 
Q 1947 2706 1947 2009 
Q 1947 1309 1714 600 
Q 1481 -109 1013 -844 
L 513 -844 
Q 928 -128 1133 580 
Q 1338 1288 1338 2009 
Q 1338 2731 1133 3434 
Q 928 4138 513 4856 
z
" transform="scale(0.015625)"/>
      </defs>
      <use xlink:href="#DejaVuSans-Oblique-66" transform="translate(0 0.015625)"/>
      <use xlink:href="#DejaVuSans-Oblique-54" transform="translate(35.205078 -16.390625) scale(0.7)"/>
      <use xlink:href="#DejaVuSans-28" transform="translate(80.698242 0.015625)"/>
      <use xlink:href="#DejaVuSans-Oblique-74" transform="translate(119.711914 0.015625)"/>
      <use xlink:href="#DejaVuSans-29" transform="translate(158.920898 0.015625)"/>
     </g>
    </g>
   </g>
   <g id="line2d_29">
    <path d="M 55.915469 259.221162 
L 96.835469 259.109403 
L 108.263577 258.863388 
L 115.63655 258.502476 
L 121.534928 258.00173 
L 126.327361 257.382702 
L 130.382496 256.653437 
L 134.068982 255.778703 
L 137.38682 254.777633 
L 140.704658 253.531888 
L 143.653847 252.182379 
L 146.603036 250.568481 
L 149.183577 248.90992 
L 151.764117 246.993659 
L 154.344658 244.792326 
L 156.925198 242.278106 
L 159.505739 239.423255 
L 162.08628 236.200702 
L 164.66682 232.584733 
L 167.247361 228.551757 
L 169.827901 224.081132 
L 172.408442 219.156049 
L 174.988982 213.76444 
L 177.569523 207.899891 
L 180.518712 200.618949 
L 183.467901 192.73283 
L 186.785739 183.170738 
L 190.103577 172.93664 
L 194.158712 159.643495 
L 198.951144 143.098585 
L 212.959793 94.071444 
L 216.277631 83.468597 
L 219.22682 74.735031 
L 221.807361 67.747788 
L 224.019253 62.319434 
L 226.231144 57.466275 
L 228.074388 53.897278 
L 229.917631 50.78793 
L 231.760874 48.160869 
L 233.235469 46.419557 
L 234.710063 45.007584 
L 236.184658 43.931674 
L 237.659253 43.19697 
L 238.765198 42.872039 
L 239.871144 42.74193 
L 240.97709 42.806995 
L 242.083036 43.067056 
L 243.188982 43.521413 
L 244.294928 44.168837 
L 245.769523 45.329308 
L 247.244117 46.824306 
L 248.718712 48.646721 
L 250.193307 50.78793 
L 252.03655 53.897278 
L 253.879793 57.466275 
L 256.091685 62.319434 
L 258.303577 67.747788 
L 260.884117 74.735031 
L 263.833307 83.468597 
L 267.151144 94.071444 
L 271.20628 107.843477 
L 277.841955 131.335084 
L 284.84628 155.892777 
L 289.270063 170.579288 
L 292.95655 182.065452 
L 296.274388 191.705655 
L 299.223577 199.665884 
L 302.172766 207.02341 
L 305.121955 213.76444 
L 307.702496 219.156049 
L 310.283036 224.081132 
L 312.863577 228.551757 
L 315.444117 232.584733 
L 318.024658 236.200702 
L 320.605198 239.423255 
L 323.185739 242.278106 
L 325.76628 244.792326 
L 328.34682 246.993659 
L 330.927361 248.90992 
L 333.507901 250.568481 
L 336.45709 252.182379 
L 339.40628 253.531888 
L 342.355469 254.652092 
L 345.673307 255.678246 
L 349.359793 256.57585 
L 353.414928 257.325054 
L 357.838712 257.920784 
L 363.368442 258.42601 
L 370.004117 258.793589 
L 378.851685 259.043671 
L 392.491685 259.180744 
L 424.195469 259.221162 
L 424.195469 259.221162 
" clip-path="url(#p40c8d9912d)" style="fill: none; stroke-dasharray: 9.62,4.16; stroke-dashoffset: 0; stroke: #34495e; stroke-width: 2.6"/>
   </g>
   <g id="line2d_30">
    <path d="M 55.915469 252.578575 
L 69.555469 251.522391 
L 81.352226 250.39586 
L 91.674388 249.198903 
L 100.890604 247.91715 
L 109.369523 246.514071 
L 116.742496 245.077176 
L 123.378171 243.572452 
L 129.645198 241.928378 
L 135.543577 240.142982 
L 140.704658 238.354953 
L 145.49709 236.471828 
L 149.920874 234.511201 
L 154.344658 232.302383 
L 158.399793 230.025431 
L 162.08628 227.714778 
L 165.772766 225.142242 
L 169.090604 222.573017 
L 172.408442 219.731926 
L 175.72628 216.584855 
L 178.675469 213.499787 
L 181.624658 210.113176 
L 184.573847 206.392797 
L 187.523036 202.304092 
L 190.472226 197.810724 
L 193.421415 192.875562 
L 196.370604 187.462293 
L 199.319793 181.537904 
L 202.268982 175.076322 
L 205.218171 168.063539 
L 208.167361 160.504529 
L 211.485198 151.390018 
L 215.540334 139.530365 
L 225.862496 108.830196 
L 228.443036 102.113989 
L 230.28628 97.848851 
L 232.129523 94.139927 
L 233.604117 91.636316 
L 235.078712 89.591434 
L 236.184658 88.381019 
L 237.290604 87.461811 
L 238.39655 86.843491 
L 239.502496 86.532658 
L 240.608442 86.532658 
L 241.714388 86.843491 
L 242.820334 87.461811 
L 243.92628 88.381019 
L 245.032226 89.591434 
L 246.138171 91.080544 
L 247.612766 93.473266 
L 249.087361 96.293118 
L 250.930604 100.347472 
L 253.142496 105.859893 
L 255.723036 112.964411 
L 259.409523 123.87379 
L 268.25709 150.341139 
L 271.943577 160.504529 
L 275.261415 168.970339 
L 278.210604 175.914027 
L 281.159793 182.307387 
L 284.108982 188.166275 
L 287.058171 193.517878 
L 290.007361 198.395794 
L 292.95655 202.836553 
L 295.905739 206.877259 
L 298.854928 210.554071 
L 301.804117 213.901277 
L 305.121955 217.312538 
L 308.439793 220.388459 
L 311.757631 223.166327 
L 315.444117 225.943572 
L 319.130604 228.433942 
L 323.185739 230.883612 
L 327.240874 233.06857 
L 331.664658 235.190527 
L 336.45709 237.223757 
L 341.249523 239.020113 
L 346.410604 240.728376 
L 352.308982 242.436913 
L 358.576009 244.012906 
L 365.580334 245.532118 
L 372.953307 246.903644 
L 381.432226 248.245816 
L 390.648442 249.474683 
L 400.970604 250.624841 
L 412.767361 251.709821 
L 424.195469 252.578575 
L 424.195469 252.578575 
" clip-path="url(#p40c8d9912d)" style="fill: none; stroke: #c0392b; stroke-width: 2.6; stroke-linecap: square"/>
   </g>
   <g id="line2d_31">
    <path d="M 55.915469 256.932371 
L 69.555469 256.215166 
L 80.983577 255.394621 
L 90.568442 254.489612 
L 99.047361 253.46628 
L 106.420334 252.354143 
L 113.056009 251.127636 
L 118.954388 249.813709 
L 124.484117 248.347446 
L 129.27655 246.855741 
L 133.700334 245.26288 
L 138.124117 243.427066 
L 142.179253 241.496087 
L 145.865739 239.503269 
L 149.552226 237.252218 
L 152.870063 234.976466 
L 156.187901 232.434442 
L 159.505739 229.594588 
L 162.454928 226.792413 
L 165.404117 223.701562 
L 168.353307 220.294279 
L 171.302496 216.541462 
L 174.251685 212.413095 
L 177.200874 207.878898 
L 180.150063 202.909225 
L 183.099253 197.476274 
L 186.048442 191.55567 
L 188.997631 185.128461 
L 191.94682 178.183563 
L 195.264658 169.751886 
L 198.582496 160.686215 
L 202.268982 149.932071 
L 206.692766 136.252528 
L 214.434388 111.338097 
L 219.22682 96.354427 
L 222.176009 87.771069 
L 224.75655 80.880303 
L 226.968442 75.55959 
L 228.811685 71.61194 
L 230.654928 68.161744 
L 232.129523 65.791502 
L 233.604117 63.79106 
L 235.078712 62.178744 
L 236.184658 61.233388 
L 237.290604 60.519899 
L 238.39655 60.042095 
L 239.502496 59.802547 
L 240.608442 59.802547 
L 241.714388 60.042095 
L 242.820334 60.519899 
L 243.92628 61.233388 
L 245.032226 62.178744 
L 246.50682 63.79106 
L 247.981415 65.791502 
L 249.456009 68.161744 
L 251.299253 71.61194 
L 253.142496 75.55959 
L 255.354388 80.880303 
L 257.934928 87.771069 
L 260.884117 96.354427 
L 264.570604 107.805455 
L 278.947901 153.227828 
L 282.634388 163.776116 
L 285.952226 172.634471 
L 289.270063 180.848858 
L 292.219253 187.598939 
L 295.168442 193.83439 
L 298.117631 199.569564 
L 301.06682 204.825706 
L 304.016009 209.628688 
L 306.965198 214.007167 
L 309.914388 217.991152 
L 312.863577 221.610914 
L 315.812766 224.896189 
L 318.761955 227.875617 
L 322.079793 230.895655 
L 325.397631 233.599055 
L 328.715469 236.019016 
L 332.401955 238.412126 
L 336.088442 240.529916 
L 339.774928 242.40556 
L 343.830063 244.223985 
L 348.253847 245.953973 
L 353.04628 247.57216 
L 358.207361 249.062866 
L 363.73709 250.417447 
L 369.635469 251.633326 
L 376.271144 252.770423 
L 383.644117 253.803644 
L 392.123036 254.756581 
L 401.707901 255.601523 
L 412.767361 256.348332 
L 424.195469 256.932371 
L 424.195469 256.932371 
" clip-path="url(#p40c8d9912d)" style="fill: none; stroke: #e67e22; stroke-width: 2.6; stroke-linecap: square"/>
   </g>
   <g id="line2d_32">
    <path d="M 55.915469 259.007082 
L 75.453847 258.718102 
L 88.35655 258.320415 
L 98.310063 257.797062 
L 106.051685 257.178741 
L 112.687361 256.432611 
L 118.21709 255.602434 
L 123.378171 254.603804 
L 127.801955 253.531046 
L 131.85709 252.331902 
L 135.543577 251.027526 
L 139.230063 249.482647 
L 142.547901 247.853427 
L 145.865739 245.963921 
L 148.814928 244.036577 
L 151.764117 241.847251 
L 154.713307 239.366331 
L 157.662496 236.562531 
L 160.243036 233.818746 
L 162.823577 230.780477 
L 165.404117 227.425282 
L 167.984658 223.731069 
L 170.565198 219.676634 
L 173.145739 215.242303 
L 175.72628 210.410683 
L 178.675469 204.384235 
L 181.624658 197.805706 
L 184.573847 190.669355 
L 187.523036 182.980482 
L 190.840874 173.693637 
L 194.527361 162.643798 
L 198.582496 149.727475 
L 203.743577 132.464 
L 214.434388 96.409763 
L 218.120874 84.91306 
L 221.070063 76.439893 
L 223.650604 69.703072 
L 225.862496 64.520846 
L 228.074388 59.954534 
L 229.917631 56.662787 
L 231.760874 53.870488 
L 233.235469 52.014022 
L 234.710063 50.505374 
L 236.184658 49.353813 
L 237.290604 48.728847 
L 238.39655 48.310982 
L 239.502496 48.101682 
L 240.608442 48.101682 
L 241.714388 48.310982 
L 242.820334 48.728847 
L 243.92628 49.353813 
L 245.032226 50.183691 
L 246.50682 51.603855 
L 247.981415 53.374348 
L 249.456009 55.484367 
L 251.299253 58.579759 
L 253.142496 62.156832 
L 254.985739 66.18294 
L 257.197631 71.556189 
L 259.778171 78.486836 
L 262.727361 87.141132 
L 266.045198 97.602744 
L 270.468982 112.330261 
L 283.003036 154.505528 
L 287.058171 167.150473 
L 290.744658 177.901953 
L 294.062496 186.893163 
L 297.011685 194.30721 
L 299.960874 201.164573 
L 302.910063 207.465737 
L 305.859253 213.22117 
L 308.808442 218.449257 
L 311.757631 223.174397 
L 314.338171 226.918801 
L 316.918712 230.321088 
L 319.867901 233.818746 
L 322.81709 236.931767 
L 325.76628 239.693448 
L 328.715469 242.136239 
L 331.664658 244.291235 
L 334.613847 246.187819 
L 337.931685 248.046674 
L 341.249523 249.649066 
L 344.936009 251.168165 
L 348.622496 252.450515 
L 352.677631 253.629207 
L 357.101415 254.683509 
L 361.893847 255.602434 
L 367.423577 256.432611 
L 373.690604 257.143203 
L 381.063577 257.747523 
L 389.911144 258.241192 
L 400.970604 258.627842 
L 416.085198 258.917243 
L 424.195469 259.007082 
L 424.195469 259.007082 
" clip-path="url(#p40c8d9912d)" style="fill: none; stroke: #27ae60; stroke-width: 2.6; stroke-linecap: square"/>
   </g>
   <g id="patch_3">
    <path d="M 55.915469 259.221969 
L 55.915469 31.917969 
" style="fill: none; stroke: #2c3e50; stroke-width: 1.2; stroke-linejoin: miter; stroke-linecap: square"/>
   </g>
   <g id="patch_4">
    <path d="M 55.915469 259.221969 
L 424.195469 259.221969 
" style="fill: none; stroke: #2c3e50; stroke-width: 1.2; stroke-linejoin: miter; stroke-linecap: square"/>
   </g>
   <g id="text_17">
    <!-- t de Student vs normal: colas más pesadas -->
    <g transform="translate(82.391875 21.917969) scale(0.13 -0.13)">
     <defs>
      <path id="DejaVuSans-Bold-74" d="M 1759 4494 
L 1759 3500 
L 2913 3500 
L 2913 2700 
L 1759 2700 
L 1759 1216 
Q 1759 972 1856 886 
Q 1953 800 2241 800 
L 2816 800 
L 2816 0 
L 1856 0 
Q 1194 0 917 276 
Q 641 553 641 1216 
L 641 2700 
L 84 2700 
L 84 3500 
L 641 3500 
L 641 4494 
L 1759 4494 
z
" transform="scale(0.015625)"/>
      <path id="DejaVuSans-Bold-20" transform="scale(0.015625)"/>
      <path id="DejaVuSans-Bold-64" d="M 2919 2988 
L 2919 4863 
L 4044 4863 
L 4044 0 
L 2919 0 
L 2919 506 
Q 2688 197 2409 53 
Q 2131 -91 1766 -91 
Q 1119 -91 703 423 
Q 288 938 288 1747 
Q 288 2556 703 3070 
Q 1119 3584 1766 3584 
Q 2128 3584 2408 3439 
Q 2688 3294 2919 2988 
z
M 2181 722 
Q 2541 722 2730 984 
Q 2919 1247 2919 1747 
Q 2919 2247 2730 2509 
Q 2541 2772 2181 2772 
Q 1825 2772 1636 2509 
Q 1447 2247 1447 1747 
Q 1447 1247 1636 984 
Q 1825 722 2181 722 
z
" transform="scale(0.015625)"/>
      <path id="DejaVuSans-Bold-65" d="M 4031 1759 
L 4031 1441 
L 1416 1441 
Q 1456 1047 1700 850 
Q 1944 653 2381 653 
Q 2734 653 3104 758 
Q 3475 863 3866 1075 
L 3866 213 
Q 3469 63 3072 -14 
Q 2675 -91 2278 -91 
Q 1328 -91 801 392 
Q 275 875 275 1747 
Q 275 2603 792 3093 
Q 1309 3584 2216 3584 
Q 3041 3584 3536 3087 
Q 4031 2591 4031 1759 
z
M 2881 2131 
Q 2881 2450 2695 2645 
Q 2509 2841 2209 2841 
Q 1884 2841 1681 2658 
Q 1478 2475 1428 2131 
L 2881 2131 
z
" transform="scale(0.015625)"/>
      <path id="DejaVuSans-Bold-53" d="M 3834 4519 
L 3834 3531 
Q 3450 3703 3084 3790 
Q 2719 3878 2394 3878 
Q 1963 3878 1756 3759 
Q 1550 3641 1550 3391 
Q 1550 3203 1689 3098 
Q 1828 2994 2194 2919 
L 2706 2816 
Q 3484 2659 3812 2340 
Q 4141 2022 4141 1434 
Q 4141 663 3683 286 
Q 3225 -91 2284 -91 
Q 1841 -91 1394 -6 
Q 947 78 500 244 
L 500 1259 
Q 947 1022 1364 901 
Q 1781 781 2169 781 
Q 2563 781 2772 912 
Q 2981 1044 2981 1288 
Q 2981 1506 2839 1625 
Q 2697 1744 2272 1838 
L 1806 1941 
Q 1106 2091 782 2419 
Q 459 2747 459 3303 
Q 459 4000 909 4375 
Q 1359 4750 2203 4750 
Q 2588 4750 2994 4692 
Q 3400 4634 3834 4519 
z
" transform="scale(0.015625)"/>
      <path id="DejaVuSans-Bold-75" d="M 500 1363 
L 500 3500 
L 1625 3500 
L 1625 3150 
Q 1625 2866 1622 2436 
Q 1619 2006 1619 1863 
Q 1619 1441 1641 1255 
Q 1663 1069 1716 984 
Q 1784 875 1895 815 
Q 2006 756 2150 756 
Q 2500 756 2700 1025 
Q 2900 1294 2900 1772 
L 2900 3500 
L 4019 3500 
L 4019 0 
L 2900 0 
L 2900 506 
Q 2647 200 2364 54 
Q 2081 -91 1741 -91 
Q 1134 -91 817 281 
Q 500 653 500 1363 
z
" transform="scale(0.015625)"/>
      <path id="DejaVuSans-Bold-6e" d="M 4056 2131 
L 4056 0 
L 2931 0 
L 2931 347 
L 2931 1631 
Q 2931 2084 2911 2256 
Q 2891 2428 2841 2509 
Q 2775 2619 2662 2680 
Q 2550 2741 2406 2741 
Q 2056 2741 1856 2470 
Q 1656 2200 1656 1722 
L 1656 0 
L 538 0 
L 538 3500 
L 1656 3500 
L 1656 2988 
Q 1909 3294 2193 3439 
Q 2478 3584 2822 3584 
Q 3428 3584 3742 3212 
Q 4056 2841 4056 2131 
z
" transform="scale(0.015625)"/>
      <path id="DejaVuSans-Bold-76" d="M 97 3500 
L 1216 3500 
L 2088 1081 
L 2956 3500 
L 4078 3500 
L 2700 0 
L 1472 0 
L 97 3500 
z
" transform="scale(0.015625)"/>
      <path id="DejaVuSans-Bold-73" d="M 3272 3391 
L 3272 2541 
Q 2913 2691 2578 2766 
Q 2244 2841 1947 2841 
Q 1628 2841 1473 2761 
Q 1319 2681 1319 2516 
Q 1319 2381 1436 2309 
Q 1553 2238 1856 2203 
L 2053 2175 
Q 2913 2066 3209 1816 
Q 3506 1566 3506 1031 
Q 3506 472 3093 190 
Q 2681 -91 1863 -91 
Q 1516 -91 1145 -36 
Q 775 19 384 128 
L 384 978 
Q 719 816 1070 734 
Q 1422 653 1784 653 
Q 2113 653 2278 743 
Q 2444 834 2444 1013 
Q 2444 1163 2330 1236 
Q 2216 1309 1875 1350 
L 1678 1375 
Q 931 1469 631 1722 
Q 331 1975 331 2491 
Q 331 3047 712 3315 
Q 1094 3584 1881 3584 
Q 2191 3584 2531 3537 
Q 2872 3491 3272 3391 
z
" transform="scale(0.015625)"/>
      <path id="DejaVuSans-Bold-6f" d="M 2203 2784 
Q 1831 2784 1636 2517 
Q 1441 2250 1441 1747 
Q 1441 1244 1636 976 
Q 1831 709 2203 709 
Q 2569 709 2762 976 
Q 2956 1244 2956 1747 
Q 2956 2250 2762 2517 
Q 2569 2784 2203 2784 
z
M 2203 3584 
Q 3106 3584 3614 3096 
Q 4122 2609 4122 1747 
Q 4122 884 3614 396 
Q 3106 -91 2203 -91 
Q 1297 -91 786 396 
Q 275 884 275 1747 
Q 275 2609 786 3096 
Q 1297 3584 2203 3584 
z
" transform="scale(0.015625)"/>
      <path id="DejaVuSans-Bold-72" d="M 3138 2547 
Q 2991 2616 2845 2648 
Q 2700 2681 2553 2681 
Q 2122 2681 1889 2404 
Q 1656 2128 1656 1613 
L 1656 0 
L 538 0 
L 538 3500 
L 1656 3500 
L 1656 2925 
Q 1872 3269 2151 3426 
Q 2431 3584 2822 3584 
Q 2878 3584 2943 3579 
Q 3009 3575 3134 3559 
L 3138 2547 
z
" transform="scale(0.015625)"/>
      <path id="DejaVuSans-Bold-6d" d="M 3781 2919 
Q 3994 3244 4286 3414 
Q 4578 3584 4928 3584 
Q 5531 3584 5847 3212 
Q 6163 2841 6163 2131 
L 6163 0 
L 5038 0 
L 5038 1825 
Q 5041 1866 5042 1909 
Q 5044 1953 5044 2034 
Q 5044 2406 4934 2573 
Q 4825 2741 4581 2741 
Q 4263 2741 4089 2478 
Q 3916 2216 3909 1719 
L 3909 0 
L 2784 0 
L 2784 1825 
Q 2784 2406 2684 2573 
Q 2584 2741 2328 2741 
Q 2006 2741 1831 2477 
Q 1656 2213 1656 1722 
L 1656 0 
L 531 0 
L 531 3500 
L 1656 3500 
L 1656 2988 
Q 1863 3284 2130 3434 
Q 2397 3584 2719 3584 
Q 3081 3584 3359 3409 
Q 3638 3234 3781 2919 
z
" transform="scale(0.015625)"/>
      <path id="DejaVuSans-Bold-61" d="M 2106 1575 
Q 1756 1575 1579 1456 
Q 1403 1338 1403 1106 
Q 1403 894 1545 773 
Q 1688 653 1941 653 
Q 2256 653 2472 879 
Q 2688 1106 2688 1447 
L 2688 1575 
L 2106 1575 
z
M 3816 1997 
L 3816 0 
L 2688 0 
L 2688 519 
Q 2463 200 2181 54 
Q 1900 -91 1497 -91 
Q 953 -91 614 226 
Q 275 544 275 1050 
Q 275 1666 698 1953 
Q 1122 2241 2028 2241 
L 2688 2241 
L 2688 2328 
Q 2688 2594 2478 2717 
Q 2269 2841 1825 2841 
Q 1466 2841 1156 2769 
Q 847 2697 581 2553 
L 581 3406 
Q 941 3494 1303 3539 
Q 1666 3584 2028 3584 
Q 2975 3584 3395 3211 
Q 3816 2838 3816 1997 
z
" transform="scale(0.015625)"/>
      <path id="DejaVuSans-Bold-6c" d="M 538 4863 
L 1656 4863 
L 1656 0 
L 538 0 
L 538 4863 
z
" transform="scale(0.015625)"/>
      <path id="DejaVuSans-Bold-3a" d="M 716 3500 
L 1844 3500 
L 1844 2291 
L 716 2291 
L 716 3500 
z
M 716 1209 
L 1844 1209 
L 1844 0 
L 716 0 
L 716 1209 
z
" transform="scale(0.015625)"/>
      <path id="DejaVuSans-Bold-63" d="M 3366 3391 
L 3366 2478 
Q 3138 2634 2908 2709 
Q 2678 2784 2431 2784 
Q 1963 2784 1702 2511 
Q 1441 2238 1441 1747 
Q 1441 1256 1702 982 
Q 1963 709 2431 709 
Q 2694 709 2930 787 
Q 3166 866 3366 1019 
L 3366 103 
Q 3103 6 2833 -42 
Q 2563 -91 2291 -91 
Q 1344 -91 809 395 
Q 275 881 275 1747 
Q 275 2613 809 3098 
Q 1344 3584 2291 3584 
Q 2566 3584 2833 3536 
Q 3100 3488 3366 3391 
z
" transform="scale(0.015625)"/>
      <path id="DejaVuSans-Bold-e1" d="M 2106 1575 
Q 1756 1575 1579 1456 
Q 1403 1338 1403 1106 
Q 1403 894 1545 773 
Q 1688 653 1941 653 
Q 2256 653 2472 879 
Q 2688 1106 2688 1447 
L 2688 1575 
L 2106 1575 
z
M 3816 1997 
L 3816 0 
L 2688 0 
L 2688 519 
Q 2463 200 2181 54 
Q 1900 -91 1497 -91 
Q 953 -91 614 226 
Q 275 544 275 1050 
Q 275 1666 698 1953 
Q 1122 2241 2028 2241 
L 2688 2241 
L 2688 2328 
Q 2688 2594 2478 2717 
Q 2269 2841 1825 2841 
Q 1466 2841 1156 2769 
Q 847 2697 581 2553 
L 581 3406 
Q 941 3494 1303 3539 
Q 1666 3584 2028 3584 
Q 2975 3584 3395 3211 
Q 3816 2838 3816 1997 
z
M 2606 5119 
L 3490 5119 
L 2337 3944 
L 1725 3944 
L 2606 5119 
z
" transform="scale(0.015625)"/>
      <path id="DejaVuSans-Bold-70" d="M 1656 506 
L 1656 -1331 
L 538 -1331 
L 538 3500 
L 1656 3500 
L 1656 2988 
Q 1888 3294 2169 3439 
Q 2450 3584 2816 3584 
Q 3463 3584 3878 3070 
Q 4294 2556 4294 1747 
Q 4294 938 3878 423 
Q 3463 -91 2816 -91 
Q 2450 -91 2169 54 
Q 1888 200 1656 506 
z
M 2400 2772 
Q 2041 2772 1848 2508 
Q 1656 2244 1656 1747 
Q 1656 1250 1848 986 
Q 2041 722 2400 722 
Q 2759 722 2948 984 
Q 3138 1247 3138 1747 
Q 3138 2247 2948 2509 
Q 2759 2772 2400 2772 
z
" transform="scale(0.015625)"/>
     </defs>
     <use xlink:href="#DejaVuSans-Bold-74"/>
     <use xlink:href="#DejaVuSans-Bold-20" x="47.802734"/>
     <use xlink:href="#DejaVuSans-Bold-64" x="82.617188"/>
     <use xlink:href="#DejaVuSans-Bold-65" x="154.199219"/>
     <use xlink:href="#DejaVuSans-Bold-20" x="222.021484"/>
     <use xlink:href="#DejaVuSans-Bold-53" x="256.835938"/>
     <use xlink:href="#DejaVuSans-Bold-74" x="328.857422"/>
     <use xlink:href="#DejaVuSans-Bold-75" x="376.660156"/>
     <use xlink:href="#DejaVuSans-Bold-64" x="447.851562"/>
     <use xlink:href="#DejaVuSans-Bold-65" x="519.433594"/>
     <use xlink:href="#DejaVuSans-Bold-6e" x="587.255859"/>
     <use xlink:href="#DejaVuSans-Bold-74" x="658.447266"/>
     <use xlink:href="#DejaVuSans-Bold-20" x="706.25"/>
     <use xlink:href="#DejaVuSans-Bold-76" x="741.064453"/>
     <use xlink:href="#DejaVuSans-Bold-73" x="806.25"/>
     <use xlink:href="#DejaVuSans-Bold-20" x="865.771484"/>
     <use xlink:href="#DejaVuSans-Bold-6e" x="900.585938"/>
     <use xlink:href="#DejaVuSans-Bold-6f" x="971.777344"/>
     <use xlink:href="#DejaVuSans-Bold-72" x="1040.478516"/>
     <use xlink:href="#DejaVuSans-Bold-6d" x="1089.794922"/>
     <use xlink:href="#DejaVuSans-Bold-61" x="1193.994141"/>
     <use xlink:href="#DejaVuSans-Bold-6c" x="1261.474609"/>
     <use xlink:href="#DejaVuSans-Bold-3a" x="1295.751953"/>
     <use xlink:href="#DejaVuSans-Bold-20" x="1335.742188"/>
     <use xlink:href="#DejaVuSans-Bold-63" x="1370.556641"/>
     <use xlink:href="#DejaVuSans-Bold-6f" x="1429.833984"/>
     <use xlink:href="#DejaVuSans-Bold-6c" x="1498.535156"/>
     <use xlink:href="#DejaVuSans-Bold-61" x="1532.8125"/>
     <use xlink:href="#DejaVuSans-Bold-73" x="1600.292969"/>
     <use xlink:href="#DejaVuSans-Bold-20" x="1659.814453"/>
     <use xlink:href="#DejaVuSans-Bold-6d" x="1694.628906"/>
     <use xlink:href="#DejaVuSans-Bold-e1" x="1798.828125"/>
     <use xlink:href="#DejaVuSans-Bold-73" x="1866.308594"/>
     <use xlink:href="#DejaVuSans-Bold-20" x="1925.830078"/>
     <use xlink:href="#DejaVuSans-Bold-70" x="1960.644531"/>
     <use xlink:href="#DejaVuSans-Bold-65" x="2032.226562"/>
     <use xlink:href="#DejaVuSans-Bold-73" x="2100.048828"/>
     <use xlink:href="#DejaVuSans-Bold-61" x="2159.570312"/>
     <use xlink:href="#DejaVuSans-Bold-64" x="2227.050781"/>
     <use xlink:href="#DejaVuSans-Bold-61" x="2298.632812"/>
     <use xlink:href="#DejaVuSans-Bold-73" x="2366.113281"/>
    </g>
   </g>
   <g id="legend_1">
    <g id="patch_5">
     <path d="M 341.925469 95.357187 
L 417.545469 95.357187 
Q 419.445469 95.357187 419.445469 93.457187 
L 419.445469 38.567969 
Q 419.445469 36.667969 417.545469 36.667969 
L 341.925469 36.667969 
Q 340.025469 36.667969 340.025469 38.567969 
L 340.025469 93.457187 
Q 340.025469 95.357187 341.925469 95.357187 
z
" style="fill: #ffffff; opacity: 0.92; stroke: #cccccc; stroke-linejoin: miter"/>
    </g>
    <g id="line2d_33">
     <path d="M 343.825469 44.361484 
L 353.325469 44.361484 
L 362.825469 44.361484 
" style="fill: none; stroke-dasharray: 9.62,4.16; stroke-dashoffset: 0; stroke: #34495e; stroke-width: 2.6"/>
    </g>
    <g id="text_18">
     <!-- $N(0,1)$ -->
     <g transform="translate(370.425469 47.686484) scale(0.095 -0.095)">
      <defs>
       <path id="DejaVuSans-Oblique-4e" d="M 1081 4666 
L 1931 4666 
L 3219 666 
L 4000 4666 
L 4616 4666 
L 3706 0 
L 2853 0 
L 1569 4025 
L 788 0 
L 172 0 
L 1081 4666 
z
" transform="scale(0.015625)"/>
       <path id="DejaVuSans-2c" d="M 750 794 
L 1409 794 
L 1409 256 
L 897 -744 
L 494 -744 
L 750 256 
L 750 794 
z
" transform="scale(0.015625)"/>
      </defs>
      <use xlink:href="#DejaVuSans-Oblique-4e" transform="translate(0 0.125)"/>
      <use xlink:href="#DejaVuSans-28" transform="translate(74.804688 0.125)"/>
      <use xlink:href="#DejaVuSans-30" transform="translate(113.818359 0.125)"/>
      <use xlink:href="#DejaVuSans-2c" transform="translate(177.441406 0.125)"/>
      <use xlink:href="#DejaVuSans-31" transform="translate(228.710938 0.125)"/>
      <use xlink:href="#DejaVuSans-29" transform="translate(292.333984 0.125)"/>
     </g>
    </g>
    <g id="line2d_34">
     <path d="M 343.825469 58.307187 
L 353.325469 58.307187 
L 362.825469 58.307187 
" style="fill: none; stroke: #c0392b; stroke-width: 2.6; stroke-linecap: square"/>
    </g>
    <g id="text_19">
     <!-- $t$, gl $=1$ -->
     <g transform="translate(370.425469 61.632187) scale(0.095 -0.095)">
      <defs>
       <path id="DejaVuSans-20" transform="scale(0.015625)"/>
       <path id="DejaVuSans-67" d="M 2906 1791 
Q 2906 2416 2648 2759 
Q 2391 3103 1925 3103 
Q 1463 3103 1205 2759 
Q 947 2416 947 1791 
Q 947 1169 1205 825 
Q 1463 481 1925 481 
Q 2391 481 2648 825 
Q 2906 1169 2906 1791 
z
M 3481 434 
Q 3481 -459 3084 -895 
Q 2688 -1331 1869 -1331 
Q 1566 -1331 1297 -1286 
Q 1028 -1241 775 -1147 
L 775 -588 
Q 1028 -725 1275 -790 
Q 1522 -856 1778 -856 
Q 2344 -856 2625 -561 
Q 2906 -266 2906 331 
L 2906 616 
Q 2728 306 2450 153 
Q 2172 0 1784 0 
Q 1141 0 747 490 
Q 353 981 353 1791 
Q 353 2603 747 3093 
Q 1141 3584 1784 3584 
Q 2172 3584 2450 3431 
Q 2728 3278 2906 2969 
L 2906 3500 
L 3481 3500 
L 3481 434 
z
" transform="scale(0.015625)"/>
       <path id="DejaVuSans-6c" d="M 603 4863 
L 1178 4863 
L 1178 0 
L 603 0 
L 603 4863 
z
" transform="scale(0.015625)"/>
       <path id="DejaVuSans-3d" d="M 678 2906 
L 4684 2906 
L 4684 2381 
L 678 2381 
L 678 2906 
z
M 678 1631 
L 4684 1631 
L 4684 1100 
L 678 1100 
L 678 1631 
z
" transform="scale(0.015625)"/>
      </defs>
      <use xlink:href="#DejaVuSans-Oblique-74" transform="translate(0 0.015625)"/>
      <use xlink:href="#DejaVuSans-2c" transform="translate(39.208984 0.015625)"/>
      <use xlink:href="#DejaVuSans-20" transform="translate(70.996094 0.015625)"/>
      <use xlink:href="#DejaVuSans-67" transform="translate(102.783203 0.015625)"/>
      <use xlink:href="#DejaVuSans-6c" transform="translate(166.259766 0.015625)"/>
      <use xlink:href="#DejaVuSans-20" transform="translate(194.042969 0.015625)"/>
      <use xlink:href="#DejaVuSans-3d" transform="translate(245.3125 0.015625)"/>
      <use xlink:href="#DejaVuSans-31" transform="translate(348.583984 0.015625)"/>
     </g>
    </g>
    <g id="line2d_35">
     <path d="M 343.825469 72.272187 
L 353.325469 72.272187 
L 362.825469 72.272187 
" style="fill: none; stroke: #e67e22; stroke-width: 2.6; stroke-linecap: square"/>
    </g>
    <g id="text_20">
     <!-- $t$, gl $=3$ -->
     <g transform="translate(370.425469 75.597187) scale(0.095 -0.095)">
      <use xlink:href="#DejaVuSans-Oblique-74" transform="translate(0 0.015625)"/>
      <use xlink:href="#DejaVuSans-2c" transform="translate(39.208984 0.015625)"/>
      <use xlink:href="#DejaVuSans-20" transform="translate(70.996094 0.015625)"/>
      <use xlink:href="#DejaVuSans-67" transform="translate(102.783203 0.015625)"/>
      <use xlink:href="#DejaVuSans-6c" transform="translate(166.259766 0.015625)"/>
      <use xlink:href="#DejaVuSans-20" transform="translate(194.042969 0.015625)"/>
      <use xlink:href="#DejaVuSans-3d" transform="translate(245.3125 0.015625)"/>
      <use xlink:href="#DejaVuSans-33" transform="translate(348.583984 0.015625)"/>
     </g>
    </g>
    <g id="line2d_36">
     <path d="M 343.825469 86.237187 
L 353.325469 86.237187 
L 362.825469 86.237187 
" style="fill: none; stroke: #27ae60; stroke-width: 2.6; stroke-linecap: square"/>
    </g>
    <g id="text_21">
     <!-- $t$, gl $=10$ -->
     <g transform="translate(370.425469 89.562187) scale(0.095 -0.095)">
      <use xlink:href="#DejaVuSans-Oblique-74" transform="translate(0 0.015625)"/>
      <use xlink:href="#DejaVuSans-2c" transform="translate(39.208984 0.015625)"/>
      <use xlink:href="#DejaVuSans-20" transform="translate(70.996094 0.015625)"/>
      <use xlink:href="#DejaVuSans-67" transform="translate(102.783203 0.015625)"/>
      <use xlink:href="#DejaVuSans-6c" transform="translate(166.259766 0.015625)"/>
      <use xlink:href="#DejaVuSans-20" transform="translate(194.042969 0.015625)"/>
      <use xlink:href="#DejaVuSans-3d" transform="translate(245.3125 0.015625)"/>
      <use xlink:href="#DejaVuSans-31" transform="translate(348.583984 0.015625)"/>
      <use xlink:href="#DejaVuSans-30" transform="translate(412.207031 0.015625)"/>
     </g>
    </g>
   </g>
  </g>
 </g>
 <defs>
  <clipPath id="p40c8d9912d">
   <rect x="55.915469" y="31.917969" width="368.28" height="227.304"/>
  </clipPath>
 </defs>
</svg>
