<?xml version="1.0" encoding="utf-8" standalone="no"?>
<!DOCTYPE svg PUBLIC "-//W3C//DTD SVG 1.1//EN"
  "http://www.w3.org/Graphics/SVG/1.1/DTD/svg11.dtd">
<svg xmlns:xlink="http://www.w3.org/1999/xlink" width="426.174844pt" height="302.029937pt" viewBox="0 0 426.174844 302.029937" xmlns="http://www.w3.org/2000/svg" version="1.1">
 <metadata>
  <rdf:RDF xmlns:dc="http://purl.org/dc/elements/1.1/" xmlns:cc="http://creativecommons.org/ns#" xmlns:rdf="http://www.w3.org/1999/02/22-rdf-syntax-ns#">
   <cc:Work>
    <dc:type rdf:resource="http://purl.org/dc/dcmitype/StillImage"/>
    <dc:date>2026-06-30T11:52:39.815313</dc:date>
    <dc:format>image/svg+xml</dc:format>
    <dc:creator>
     <cc:Agent>
      <dc:title>Matplotlib v3.9.2, https://matplotlib.org/</dc:title>
     </cc:Agent>
    </dc:creator>
   </cc:Work>
  </rdf:RDF>
 </metadata>
 <defs>
  <style type="text/css">*{stroke-linejoin: round; stroke-linecap: butt}</style>
 </defs>
 <g id="figure_1">
  <g id="patch_1">
   <path d="M 0 302.029937 
L 426.174844 302.029937 
L 426.174844 0 
L 0 0 
z
" style="fill: #ffffff"/>
  </g>
  <g id="axes_1">
   <g id="patch_2">
    <path d="M 40.012344 258.701969 
L 408.292344 258.701969 
L 408.292344 31.397969 
L 40.012344 31.397969 
z
" style="fill: #ffffff"/>
   </g>
   <g id="matplotlib.axis_1">
    <g id="xtick_1">
     <g id="line2d_1">
      <path d="M 40.012344 258.701969 
L 40.012344 31.397969 
" clip-path="url(#p479a4182b4)" style="fill: none; stroke-dasharray: 0.8,1.28; stroke-dashoffset: 0; stroke: #b0b0b0; stroke-opacity: 0.3; stroke-width: 0.8"/>
     </g>
     <g id="line2d_2">
      <defs>
       <path id="m350e4e80a9" d="M 0 0 
L 0 3.5 
" style="stroke: #2c3e50; stroke-width: 0.8"/>
      </defs>
      <g>
       <use xlink:href="#m350e4e80a9" x="40.012344" y="258.701969" style="fill: #2c3e50; stroke: #2c3e50; stroke-width: 0.8"/>
      </g>
     </g>
     <g id="text_1">
      <!-- 0 -->
      <g style="fill: #2c3e50" transform="translate(36.831094 273.300406) scale(0.1 -0.1)">
       <defs>
        <path id="DejaVuSans-30" d="M 2034 4250 
Q 1547 4250 1301 3770 
Q 1056 3291 1056 2328 
Q 1056 1369 1301 889 
Q 1547 409 2034 409 
Q 2525 409 2770 889 
Q 3016 1369 3016 2328 
Q 3016 3291 2770 3770 
Q 2525 4250 2034 4250 
z
M 2034 4750 
Q 2819 4750 3233 4129 
Q 3647 3509 3647 2328 
Q 3647 1150 3233 529 
Q 2819 -91 2034 -91 
Q 1250 -91 836 529 
Q 422 1150 422 2328 
Q 422 3509 836 4129 
Q 1250 4750 2034 4750 
z
" transform="scale(0.015625)"/>
       </defs>
       <use xlink:href="#DejaVuSans-30"/>
      </g>
     </g>
    </g>
    <g id="xtick_2">
     <g id="line2d_3">
      <path d="M 113.668344 258.701969 
L 113.668344 31.397969 
" clip-path="url(#p479a4182b4)" style="fill: none; stroke-dasharray: 0.8,1.28; stroke-dashoffset: 0; stroke: #b0b0b0; stroke-opacity: 0.3; stroke-width: 0.8"/>
     </g>
     <g id="line2d_4">
      <g>
       <use xlink:href="#m350e4e80a9" x="113.668344" y="258.701969" style="fill: #2c3e50; stroke: #2c3e50; stroke-width: 0.8"/>
      </g>
     </g>
     <g id="text_2">
      <!-- 2 -->
      <g style="fill: #2c3e50" transform="translate(110.487094 273.300406) scale(0.1 -0.1)">
       <defs>
        <path id="DejaVuSans-32" d="M 1228 531 
L 3431 531 
L 3431 0 
L 469 0 
L 469 531 
Q 828 903 1448 1529 
Q 2069 2156 2228 2338 
Q 2531 2678 2651 2914 
Q 2772 3150 2772 3378 
Q 2772 3750 2511 3984 
Q 2250 4219 1831 4219 
Q 1534 4219 1204 4116 
Q 875 4013 500 3803 
L 500 4441 
Q 881 4594 1212 4672 
Q 1544 4750 1819 4750 
Q 2544 4750 2975 4387 
Q 3406 4025 3406 3419 
Q 3406 3131 3298 2873 
Q 3191 2616 2906 2266 
Q 2828 2175 2409 1742 
Q 1991 1309 1228 531 
z
" transform="scale(0.015625)"/>
       </defs>
       <use xlink:href="#DejaVuSans-32"/>
      </g>
     </g>
    </g>
    <g id="xtick_3">
     <g id="line2d_5">
      <path d="M 187.324344 258.701969 
L 187.324344 31.397969 
" clip-path="url(#p479a4182b4)" style="fill: none; stroke-dasharray: 0.8,1.28; stroke-dashoffset: 0; stroke: #b0b0b0; stroke-opacity: 0.3; stroke-width: 0.8"/>
     </g>
     <g id="line2d_6">
      <g>
       <use xlink:href="#m350e4e80a9" x="187.324344" y="258.701969" style="fill: #2c3e50; stroke: #2c3e50; stroke-width: 0.8"/>
      </g>
     </g>
     <g id="text_3">
      <!-- 4 -->
      <g style="fill: #2c3e50" transform="translate(184.143094 273.300406) scale(0.1 -0.1)">
       <defs>
        <path id="DejaVuSans-34" d="M 2419 4116 
L 825 1625 
L 2419 1625 
L 2419 4116 
z
M 2253 4666 
L 3047 4666 
L 3047 1625 
L 3713 1625 
L 3713 1100 
L 3047 1100 
L 3047 0 
L 2419 0 
L 2419 1100 
L 313 1100 
L 313 1709 
L 2253 4666 
z
" transform="scale(0.015625)"/>
       </defs>
       <use xlink:href="#DejaVuSans-34"/>
      </g>
     </g>
    </g>
    <g id="xtick_4">
     <g id="line2d_7">
      <path d="M 260.980344 258.701969 
L 260.980344 31.397969 
" clip-path="url(#p479a4182b4)" style="fill: none; stroke-dasharray: 0.8,1.28; stroke-dashoffset: 0; stroke: #b0b0b0; stroke-opacity: 0.3; stroke-width: 0.8"/>
     </g>
     <g id="line2d_8">
      <g>
       <use xlink:href="#m350e4e80a9" x="260.980344" y="258.701969" style="fill: #2c3e50; stroke: #2c3e50; stroke-width: 0.8"/>
      </g>
     </g>
     <g id="text_4">
      <!-- 6 -->
      <g style="fill: #2c3e50" transform="translate(257.799094 273.300406) scale(0.1 -0.1)">
       <defs>
        <path id="DejaVuSans-36" d="M 2113 2584 
Q 1688 2584 1439 2293 
Q 1191 2003 1191 1497 
Q 1191 994 1439 701 
Q 1688 409 2113 409 
Q 2538 409 2786 701 
Q 3034 994 3034 1497 
Q 3034 2003 2786 2293 
Q 2538 2584 2113 2584 
z
M 3366 4563 
L 3366 3988 
Q 3128 4100 2886 4159 
Q 2644 4219 2406 4219 
Q 1781 4219 1451 3797 
Q 1122 3375 1075 2522 
Q 1259 2794 1537 2939 
Q 1816 3084 2150 3084 
Q 2853 3084 3261 2657 
Q 3669 2231 3669 1497 
Q 3669 778 3244 343 
Q 2819 -91 2113 -91 
Q 1303 -91 875 529 
Q 447 1150 447 2328 
Q 447 3434 972 4092 
Q 1497 4750 2381 4750 
Q 2619 4750 2861 4703 
Q 3103 4656 3366 4563 
z
" transform="scale(0.015625)"/>
       </defs>
       <use xlink:href="#DejaVuSans-36"/>
      </g>
     </g>
    </g>
    <g id="xtick_5">
     <g id="line2d_9">
      <path d="M 334.636344 258.701969 
L 334.636344 31.397969 
" clip-path="url(#p479a4182b4)" style="fill: none; stroke-dasharray: 0.8,1.28; stroke-dashoffset: 0; stroke: #b0b0b0; stroke-opacity: 0.3; stroke-width: 0.8"/>
     </g>
     <g id="line2d_10">
      <g>
       <use xlink:href="#m350e4e80a9" x="334.636344" y="258.701969" style="fill: #2c3e50; stroke: #2c3e50; stroke-width: 0.8"/>
      </g>
     </g>
     <g id="text_5">
      <!-- 8 -->
      <g style="fill: #2c3e50" transform="translate(331.455094 273.300406) scale(0.1 -0.1)">
       <defs>
        <path id="DejaVuSans-38" d="M 2034 2216 
Q 1584 2216 1326 1975 
Q 1069 1734 1069 1313 
Q 1069 891 1326 650 
Q 1584 409 2034 409 
Q 2484 409 2743 651 
Q 3003 894 3003 1313 
Q 3003 1734 2745 1975 
Q 2488 2216 2034 2216 
z
M 1403 2484 
Q 997 2584 770 2862 
Q 544 3141 544 3541 
Q 544 4100 942 4425 
Q 1341 4750 2034 4750 
Q 2731 4750 3128 4425 
Q 3525 4100 3525 3541 
Q 3525 3141 3298 2862 
Q 3072 2584 2669 2484 
Q 3125 2378 3379 2068 
Q 3634 1759 3634 1313 
Q 3634 634 3220 271 
Q 2806 -91 2034 -91 
Q 1263 -91 848 271 
Q 434 634 434 1313 
Q 434 1759 690 2068 
Q 947 2378 1403 2484 
z
M 1172 3481 
Q 1172 3119 1398 2916 
Q 1625 2713 2034 2713 
Q 2441 2713 2670 2916 
Q 2900 3119 2900 3481 
Q 2900 3844 2670 4047 
Q 2441 4250 2034 4250 
Q 1625 4250 1398 4047 
Q 1172 3844 1172 3481 
z
" transform="scale(0.015625)"/>
       </defs>
       <use xlink:href="#DejaVuSans-38"/>
      </g>
     </g>
    </g>
    <g id="xtick_6">
     <g id="line2d_11">
      <path d="M 408.292344 258.701969 
L 408.292344 31.397969 
" clip-path="url(#p479a4182b4)" style="fill: none; stroke-dasharray: 0.8,1.28; stroke-dashoffset: 0; stroke: #b0b0b0; stroke-opacity: 0.3; stroke-width: 0.8"/>
     </g>
     <g id="line2d_12">
      <g>
       <use xlink:href="#m350e4e80a9" x="408.292344" y="258.701969" style="fill: #2c3e50; stroke: #2c3e50; stroke-width: 0.8"/>
      </g>
     </g>
     <g id="text_6">
      <!-- 10 -->
      <g style="fill: #2c3e50" transform="translate(401.929844 273.300406) scale(0.1 -0.1)">
       <defs>
        <path id="DejaVuSans-31" d="M 794 531 
L 1825 531 
L 1825 4091 
L 703 3866 
L 703 4441 
L 1819 4666 
L 2450 4666 
L 2450 531 
L 3481 531 
L 3481 0 
L 794 0 
L 794 531 
z
" transform="scale(0.015625)"/>
       </defs>
       <use xlink:href="#DejaVuSans-31"/>
       <use xlink:href="#DejaVuSans-30" x="63.623047"/>
      </g>
     </g>
    </g>
    <g id="text_7">
     <!-- t (tiempo / edad) -->
     <g transform="translate(169.353047 288.118297) scale(0.115 -0.115)">
      <defs>
       <path id="DejaVuSans-Bold-74" d="M 1759 4494 
L 1759 3500 
L 2913 3500 
L 2913 2700 
L 1759 2700 
L 1759 1216 
Q 1759 972 1856 886 
Q 1953 800 2241 800 
L 2816 800 
L 2816 0 
L 1856 0 
Q 1194 0 917 276 
Q 641 553 641 1216 
L 641 2700 
L 84 2700 
L 84 3500 
L 641 3500 
L 641 4494 
L 1759 4494 
z
" transform="scale(0.015625)"/>
       <path id="DejaVuSans-Bold-20" transform="scale(0.015625)"/>
       <path id="DejaVuSans-Bold-28" d="M 2413 -844 
L 1484 -844 
Q 1006 -72 778 623 
Q 550 1319 550 2003 
Q 550 2688 779 3389 
Q 1009 4091 1484 4856 
L 2413 4856 
Q 2013 4116 1813 3408 
Q 1613 2700 1613 2009 
Q 1613 1319 1811 609 
Q 2009 -100 2413 -844 
z
" transform="scale(0.015625)"/>
       <path id="DejaVuSans-Bold-69" d="M 538 3500 
L 1656 3500 
L 1656 0 
L 538 0 
L 538 3500 
z
M 538 4863 
L 1656 4863 
L 1656 3950 
L 538 3950 
L 538 4863 
z
" transform="scale(0.015625)"/>
       <path id="DejaVuSans-Bold-65" d="M 4031 1759 
L 4031 1441 
L 1416 1441 
Q 1456 1047 1700 850 
Q 1944 653 2381 653 
Q 2734 653 3104 758 
Q 3475 863 3866 1075 
L 3866 213 
Q 3469 63 3072 -14 
Q 2675 -91 2278 -91 
Q 1328 -91 801 392 
Q 275 875 275 1747 
Q 275 2603 792 3093 
Q 1309 3584 2216 3584 
Q 3041 3584 3536 3087 
Q 4031 2591 4031 1759 
z
M 2881 2131 
Q 2881 2450 2695 2645 
Q 2509 2841 2209 2841 
Q 1884 2841 1681 2658 
Q 1478 2475 1428 2131 
L 2881 2131 
z
" transform="scale(0.015625)"/>
       <path id="DejaVuSans-Bold-6d" d="M 3781 2919 
Q 3994 3244 4286 3414 
Q 4578 3584 4928 3584 
Q 5531 3584 5847 3212 
Q 6163 2841 6163 2131 
L 6163 0 
L 5038 0 
L 5038 1825 
Q 5041 1866 5042 1909 
Q 5044 1953 5044 2034 
Q 5044 2406 4934 2573 
Q 4825 2741 4581 2741 
Q 4263 2741 4089 2478 
Q 3916 2216 3909 1719 
L 3909 0 
L 2784 0 
L 2784 1825 
Q 2784 2406 2684 2573 
Q 2584 2741 2328 2741 
Q 2006 2741 1831 2477 
Q 1656 2213 1656 1722 
L 1656 0 
L 531 0 
L 531 3500 
L 1656 3500 
L 1656 2988 
Q 1863 3284 2130 3434 
Q 2397 3584 2719 3584 
Q 3081 3584 3359 3409 
Q 3638 3234 3781 2919 
z
" transform="scale(0.015625)"/>
       <path id="DejaVuSans-Bold-70" d="M 1656 506 
L 1656 -1331 
L 538 -1331 
L 538 3500 
L 1656 3500 
L 1656 2988 
Q 1888 3294 2169 3439 
Q 2450 3584 2816 3584 
Q 3463 3584 3878 3070 
Q 4294 2556 4294 1747 
Q 4294 938 3878 423 
Q 3463 -91 2816 -91 
Q 2450 -91 2169 54 
Q 1888 200 1656 506 
z
M 2400 2772 
Q 2041 2772 1848 2508 
Q 1656 2244 1656 1747 
Q 1656 1250 1848 986 
Q 2041 722 2400 722 
Q 2759 722 2948 984 
Q 3138 1247 3138 1747 
Q 3138 2247 2948 2509 
Q 2759 2772 2400 2772 
z
" transform="scale(0.015625)"/>
       <path id="DejaVuSans-Bold-6f" d="M 2203 2784 
Q 1831 2784 1636 2517 
Q 1441 2250 1441 1747 
Q 1441 1244 1636 976 
Q 1831 709 2203 709 
Q 2569 709 2762 976 
Q 2956 1244 2956 1747 
Q 2956 2250 2762 2517 
Q 2569 2784 2203 2784 
z
M 2203 3584 
Q 3106 3584 3614 3096 
Q 4122 2609 4122 1747 
Q 4122 884 3614 396 
Q 3106 -91 2203 -91 
Q 1297 -91 786 396 
Q 275 884 275 1747 
Q 275 2609 786 3096 
Q 1297 3584 2203 3584 
z
" transform="scale(0.015625)"/>
       <path id="DejaVuSans-Bold-2f" d="M 1644 4666 
L 2338 4666 
L 691 -594 
L 0 -594 
L 1644 4666 
z
" transform="scale(0.015625)"/>
       <path id="DejaVuSans-Bold-64" d="M 2919 2988 
L 2919 4863 
L 4044 4863 
L 4044 0 
L 2919 0 
L 2919 506 
Q 2688 197 2409 53 
Q 2131 -91 1766 -91 
Q 1119 -91 703 423 
Q 288 938 288 1747 
Q 288 2556 703 3070 
Q 1119 3584 1766 3584 
Q 2128 3584 2408 3439 
Q 2688 3294 2919 2988 
z
M 2181 722 
Q 2541 722 2730 984 
Q 2919 1247 2919 1747 
Q 2919 2247 2730 2509 
Q 2541 2772 2181 2772 
Q 1825 2772 1636 2509 
Q 1447 2247 1447 1747 
Q 1447 1247 1636 984 
Q 1825 722 2181 722 
z
" transform="scale(0.015625)"/>
       <path id="DejaVuSans-Bold-61" d="M 2106 1575 
Q 1756 1575 1579 1456 
Q 1403 1338 1403 1106 
Q 1403 894 1545 773 
Q 1688 653 1941 653 
Q 2256 653 2472 879 
Q 2688 1106 2688 1447 
L 2688 1575 
L 2106 1575 
z
M 3816 1997 
L 3816 0 
L 2688 0 
L 2688 519 
Q 2463 200 2181 54 
Q 1900 -91 1497 -91 
Q 953 -91 614 226 
Q 275 544 275 1050 
Q 275 1666 698 1953 
Q 1122 2241 2028 2241 
L 2688 2241 
L 2688 2328 
Q 2688 2594 2478 2717 
Q 2269 2841 1825 2841 
Q 1466 2841 1156 2769 
Q 847 2697 581 2553 
L 581 3406 
Q 941 3494 1303 3539 
Q 1666 3584 2028 3584 
Q 2975 3584 3395 3211 
Q 3816 2838 3816 1997 
z
" transform="scale(0.015625)"/>
       <path id="DejaVuSans-Bold-29" d="M 513 -844 
Q 913 -100 1113 609 
Q 1313 1319 1313 2009 
Q 1313 2700 1113 3408 
Q 913 4116 513 4856 
L 1441 4856 
Q 1916 4091 2145 3389 
Q 2375 2688 2375 2003 
Q 2375 1319 2147 623 
Q 1919 -72 1441 -844 
L 513 -844 
z
" transform="scale(0.015625)"/>
      </defs>
      <use xlink:href="#DejaVuSans-Bold-74"/>
      <use xlink:href="#DejaVuSans-Bold-20" x="47.802734"/>
      <use xlink:href="#DejaVuSans-Bold-28" x="82.617188"/>
      <use xlink:href="#DejaVuSans-Bold-74" x="128.320312"/>
      <use xlink:href="#DejaVuSans-Bold-69" x="176.123047"/>
      <use xlink:href="#DejaVuSans-Bold-65" x="210.400391"/>
      <use xlink:href="#DejaVuSans-Bold-6d" x="278.222656"/>
      <use xlink:href="#DejaVuSans-Bold-70" x="382.421875"/>
      <use xlink:href="#DejaVuSans-Bold-6f" x="454.003906"/>
      <use xlink:href="#DejaVuSans-Bold-20" x="522.705078"/>
      <use xlink:href="#DejaVuSans-Bold-2f" x="557.519531"/>
      <use xlink:href="#DejaVuSans-Bold-20" x="594.042969"/>
      <use xlink:href="#DejaVuSans-Bold-65" x="628.857422"/>
      <use xlink:href="#DejaVuSans-Bold-64" x="696.679688"/>
      <use xlink:href="#DejaVuSans-Bold-61" x="768.261719"/>
      <use xlink:href="#DejaVuSans-Bold-64" x="835.742188"/>
      <use xlink:href="#DejaVuSans-Bold-29" x="907.324219"/>
     </g>
    </g>
   </g>
   <g id="matplotlib.axis_2">
    <g id="ytick_1">
     <g id="line2d_13">
      <path d="M 40.012344 258.701969 
L 408.292344 258.701969 
" clip-path="url(#p479a4182b4)" style="fill: none; stroke-dasharray: 0.8,1.28; stroke-dashoffset: 0; stroke: #b0b0b0; stroke-opacity: 0.3; stroke-width: 0.8"/>
     </g>
     <g id="line2d_14">
      <defs>
       <path id="m0d5a4d1f77" d="M 0 0 
L -3.5 0 
" style="stroke: #2c3e50; stroke-width: 0.8"/>
      </defs>
      <g>
       <use xlink:href="#m0d5a4d1f77" x="40.012344" y="258.701969" style="fill: #2c3e50; stroke: #2c3e50; stroke-width: 0.8"/>
      </g>
     </g>
     <g id="text_8">
      <!-- 0 -->
      <g style="fill: #2c3e50" transform="translate(26.649844 262.501187) scale(0.1 -0.1)">
       <use xlink:href="#DejaVuSans-30"/>
      </g>
     </g>
    </g>
    <g id="ytick_2">
     <g id="line2d_15">
      <path d="M 40.012344 209.869807 
L 408.292344 209.869807 
" clip-path="url(#p479a4182b4)" style="fill: none; stroke-dasharray: 0.8,1.28; stroke-dashoffset: 0; stroke: #b0b0b0; stroke-opacity: 0.3; stroke-width: 0.8"/>
     </g>
     <g id="line2d_16">
      <g>
       <use xlink:href="#m0d5a4d1f77" x="40.012344" y="209.869807" style="fill: #2c3e50; stroke: #2c3e50; stroke-width: 0.8"/>
      </g>
     </g>
     <g id="text_9">
      <!-- 2 -->
      <g style="fill: #2c3e50" transform="translate(26.649844 213.669025) scale(0.1 -0.1)">
       <use xlink:href="#DejaVuSans-32"/>
      </g>
     </g>
    </g>
    <g id="ytick_3">
     <g id="line2d_17">
      <path d="M 40.012344 161.037644 
L 408.292344 161.037644 
" clip-path="url(#p479a4182b4)" style="fill: none; stroke-dasharray: 0.8,1.28; stroke-dashoffset: 0; stroke: #b0b0b0; stroke-opacity: 0.3; stroke-width: 0.8"/>
     </g>
     <g id="line2d_18">
      <g>
       <use xlink:href="#m0d5a4d1f77" x="40.012344" y="161.037644" style="fill: #2c3e50; stroke: #2c3e50; stroke-width: 0.8"/>
      </g>
     </g>
     <g id="text_10">
      <!-- 4 -->
      <g style="fill: #2c3e50" transform="translate(26.649844 164.836863) scale(0.1 -0.1)">
       <use xlink:href="#DejaVuSans-34"/>
      </g>
     </g>
    </g>
    <g id="ytick_4">
     <g id="line2d_19">
      <path d="M 40.012344 112.205482 
L 408.292344 112.205482 
" clip-path="url(#p479a4182b4)" style="fill: none; stroke-dasharray: 0.8,1.28; stroke-dashoffset: 0; stroke: #b0b0b0; stroke-opacity: 0.3; stroke-width: 0.8"/>
     </g>
     <g id="line2d_20">
      <g>
       <use xlink:href="#m0d5a4d1f77" x="40.012344" y="112.205482" style="fill: #2c3e50; stroke: #2c3e50; stroke-width: 0.8"/>
      </g>
     </g>
     <g id="text_11">
      <!-- 6 -->
      <g style="fill: #2c3e50" transform="translate(26.649844 116.004701) scale(0.1 -0.1)">
       <use xlink:href="#DejaVuSans-36"/>
      </g>
     </g>
    </g>
    <g id="ytick_5">
     <g id="line2d_21">
      <path d="M 40.012344 63.37332 
L 408.292344 63.37332 
" clip-path="url(#p479a4182b4)" style="fill: none; stroke-dasharray: 0.8,1.28; stroke-dashoffset: 0; stroke: #b0b0b0; stroke-opacity: 0.3; stroke-width: 0.8"/>
     </g>
     <g id="line2d_22">
      <g>
       <use xlink:href="#m0d5a4d1f77" x="40.012344" y="63.37332" style="fill: #2c3e50; stroke: #2c3e50; stroke-width: 0.8"/>
      </g>
     </g>
     <g id="text_12">
      <!-- 8 -->
      <g style="fill: #2c3e50" transform="translate(26.649844 67.172539) scale(0.1 -0.1)">
       <use xlink:href="#DejaVuSans-38"/>
      </g>
     </g>
    </g>
    <g id="text_13">
     <!-- $h(t)$ -->
     <g transform="translate(20.258203 155.457469) rotate(-90) scale(0.115 -0.115)">
      <defs>
       <path id="DejaVuSans-Oblique-68" d="M 3566 2113 
L 3156 0 
L 2578 0 
L 2988 2091 
Q 3016 2238 3031 2350 
Q 3047 2463 3047 2528 
Q 3047 2791 2881 2937 
Q 2716 3084 2419 3084 
Q 1956 3084 1617 2771 
Q 1278 2459 1178 1941 
L 800 0 
L 225 0 
L 1172 4863 
L 1747 4863 
L 1375 2950 
Q 1594 3244 1934 3414 
Q 2275 3584 2650 3584 
Q 3113 3584 3367 3334 
Q 3622 3084 3622 2631 
Q 3622 2519 3608 2391 
Q 3594 2263 3566 2113 
z
" transform="scale(0.015625)"/>
       <path id="DejaVuSans-28" d="M 1984 4856 
Q 1566 4138 1362 3434 
Q 1159 2731 1159 2009 
Q 1159 1288 1364 580 
Q 1569 -128 1984 -844 
L 1484 -844 
Q 1016 -109 783 600 
Q 550 1309 550 2009 
Q 550 2706 781 3412 
Q 1013 4119 1484 4856 
L 1984 4856 
z
" transform="scale(0.015625)"/>
       <path id="DejaVuSans-Oblique-74" d="M 2706 3500 
L 2619 3053 
L 1472 3053 
L 1100 1153 
Q 1081 1047 1072 975 
Q 1063 903 1063 863 
Q 1063 663 1183 572 
Q 1303 481 1569 481 
L 2150 481 
L 2053 0 
L 1503 0 
Q 991 0 739 200 
Q 488 400 488 806 
Q 488 878 497 964 
Q 506 1050 525 1153 
L 897 3053 
L 409 3053 
L 500 3500 
L 978 3500 
L 1172 4494 
L 1747 4494 
L 1556 3500 
L 2706 3500 
z
" transform="scale(0.015625)"/>
       <path id="DejaVuSans-29" d="M 513 4856 
L 1013 4856 
Q 1481 4119 1714 3412 
Q 1947 2706 1947 2009 
Q 1947 1309 1714 600 
Q 1481 -109 1013 -844 
L 513 -844 
Q 928 -128 1133 580 
Q 1338 1288 1338 2009 
Q 1338 2731 1133 3434 
Q 928 4138 513 4856 
z
" transform="scale(0.015625)"/>
      </defs>
      <use xlink:href="#DejaVuSans-Oblique-68" transform="translate(0 0.015625)"/>
      <use xlink:href="#DejaVuSans-28" transform="translate(63.378906 0.015625)"/>
      <use xlink:href="#DejaVuSans-Oblique-74" transform="translate(102.392578 0.015625)"/>
      <use xlink:href="#DejaVuSans-29" transform="translate(141.601562 0.015625)"/>
     </g>
    </g>
   </g>
   <g id="PolyCollection_1">
    <defs>
     <path id="m00981b6489" d="M 40.012344 -90.939327 
L 40.012344 -43.327969 
L 40.47327 -43.327969 
L 40.934196 -43.327969 
L 41.395122 -43.327969 
L 41.856048 -43.327969 
L 42.316975 -43.327969 
L 42.777901 -43.327969 
L 43.238827 -43.327969 
L 43.699753 -43.327969 
L 44.160679 -43.327969 
L 44.621605 -43.327969 
L 45.082531 -43.327969 
L 45.543458 -43.327969 
L 46.004384 -43.327969 
L 46.46531 -43.327969 
L 46.926236 -43.327969 
L 47.387162 -43.327969 
L 47.848088 -43.327969 
L 48.309015 -43.327969 
L 48.769941 -43.327969 
L 49.230867 -43.327969 
L 49.691793 -43.327969 
L 50.152719 -43.327969 
L 50.613645 -43.327969 
L 51.074572 -43.327969 
L 51.535498 -43.327969 
L 51.996424 -43.327969 
L 52.45735 -43.327969 
L 52.918276 -43.327969 
L 53.379202 -43.327969 
L 53.840128 -43.327969 
L 54.301055 -43.327969 
L 54.761981 -43.327969 
L 55.222907 -43.327969 
L 55.683833 -43.327969 
L 56.144759 -43.327969 
L 56.605685 -43.327969 
L 57.066612 -43.327969 
L 57.527538 -43.327969 
L 57.988464 -43.327969 
L 58.44939 -43.327969 
L 58.910316 -43.327969 
L 59.371242 -43.327969 
L 59.832169 -43.327969 
L 60.293095 -43.327969 
L 60.754021 -43.327969 
L 61.214947 -43.327969 
L 61.675873 -43.327969 
L 62.136799 -43.327969 
L 62.597725 -43.327969 
L 63.058652 -43.327969 
L 63.519578 -43.327969 
L 63.980504 -43.327969 
L 64.44143 -43.327969 
L 64.902356 -43.327969 
L 65.363282 -43.327969 
L 65.824209 -43.327969 
L 66.285135 -43.327969 
L 66.746061 -43.327969 
L 67.206987 -43.327969 
L 67.667913 -43.327969 
L 68.128839 -43.327969 
L 68.589766 -43.327969 
L 69.050692 -43.327969 
L 69.511618 -43.327969 
L 69.972544 -43.327969 
L 70.43347 -43.327969 
L 70.894396 -43.327969 
L 71.355322 -43.327969 
L 71.816249 -43.327969 
L 72.277175 -43.327969 
L 72.738101 -43.327969 
L 73.199027 -43.327969 
L 73.659953 -43.327969 
L 74.120879 -43.327969 
L 74.581806 -43.327969 
L 75.042732 -43.327969 
L 75.503658 -43.327969 
L 75.964584 -43.327969 
L 76.42551 -43.327969 
L 76.886436 -43.327969 
L 77.347363 -43.327969 
L 77.808289 -43.327969 
L 78.269215 -43.327969 
L 78.730141 -43.327969 
L 79.191067 -43.327969 
L 79.651993 -43.327969 
L 80.112919 -43.327969 
L 80.573846 -43.327969 
L 81.034772 -43.327969 
L 81.495698 -43.327969 
L 81.956624 -43.327969 
L 82.41755 -43.327969 
L 82.878476 -43.327969 
L 83.339403 -43.327969 
L 83.800329 -43.327969 
L 84.261255 -43.327969 
L 84.722181 -43.327969 
L 85.183107 -43.327969 
L 85.644033 -43.327969 
L 86.10496 -43.327969 
L 86.565886 -43.327969 
L 87.026812 -43.327969 
L 87.487738 -43.327969 
L 87.948664 -43.327969 
L 88.40959 -43.327969 
L 88.870516 -43.327969 
L 89.331443 -43.327969 
L 89.792369 -43.327969 
L 90.253295 -43.327969 
L 90.714221 -43.327969 
L 91.175147 -43.327969 
L 91.636073 -43.327969 
L 92.097 -43.327969 
L 92.557926 -43.327969 
L 93.018852 -43.327969 
L 93.479778 -43.327969 
L 93.940704 -43.327969 
L 94.40163 -43.327969 
L 94.862557 -43.327969 
L 95.323483 -43.327969 
L 95.784409 -43.327969 
L 96.245335 -43.327969 
L 96.706261 -43.327969 
L 97.167187 -43.327969 
L 97.628113 -43.327969 
L 98.08904 -43.327969 
L 98.549966 -43.327969 
L 99.010892 -43.327969 
L 99.471818 -43.327969 
L 99.932744 -43.327969 
L 100.39367 -43.327969 
L 100.854597 -43.327969 
L 101.315523 -43.327969 
L 101.776449 -43.327969 
L 102.237375 -43.327969 
L 102.698301 -43.327969 
L 103.159227 -43.327969 
L 103.620154 -43.327969 
L 104.08108 -43.327969 
L 104.542006 -43.327969 
L 105.002932 -43.327969 
L 105.463858 -43.327969 
L 105.924784 -43.327969 
L 106.38571 -43.327969 
L 106.846637 -43.327969 
L 107.307563 -43.327969 
L 107.768489 -43.327969 
L 108.229415 -43.327969 
L 108.690341 -43.327969 
L 109.151267 -43.327969 
L 109.612194 -43.327969 
L 110.07312 -43.327969 
L 110.534046 -43.327969 
L 110.994972 -43.327969 
L 111.455898 -43.327969 
L 111.916824 -43.327969 
L 112.377751 -43.327969 
L 112.838677 -43.327969 
L 113.299603 -43.327969 
L 113.299603 -57.204967 
L 113.299603 -57.204967 
L 112.838677 -57.200007 
L 112.377751 -57.196278 
L 111.916824 -57.193792 
L 111.455898 -57.192562 
L 110.994972 -57.192598 
L 110.534046 -57.193914 
L 110.07312 -57.196521 
L 109.612194 -57.200432 
L 109.151267 -57.20566 
L 108.690341 -57.212219 
L 108.229415 -57.220121 
L 107.768489 -57.229381 
L 107.307563 -57.240013 
L 106.846637 -57.25203 
L 106.38571 -57.265447 
L 105.924784 -57.28028 
L 105.463858 -57.296543 
L 105.002932 -57.314251 
L 104.542006 -57.333421 
L 104.08108 -57.354068 
L 103.620154 -57.376209 
L 103.159227 -57.39986 
L 102.698301 -57.425039 
L 102.237375 -57.451762 
L 101.776449 -57.480047 
L 101.315523 -57.509912 
L 100.854597 -57.541376 
L 100.39367 -57.574457 
L 99.932744 -57.609175 
L 99.471818 -57.645548 
L 99.010892 -57.683596 
L 98.549966 -57.72334 
L 98.08904 -57.764799 
L 97.628113 -57.807996 
L 97.167187 -57.852951 
L 96.706261 -57.899686 
L 96.245335 -57.948223 
L 95.784409 -57.998584 
L 95.323483 -58.050794 
L 94.862557 -58.104874 
L 94.40163 -58.160849 
L 93.940704 -58.218744 
L 93.479778 -58.278582 
L 93.018852 -58.34039 
L 92.557926 -58.404193 
L 92.097 -58.470017 
L 91.636073 -58.537888 
L 91.175147 -58.607835 
L 90.714221 -58.679884 
L 90.253295 -58.754064 
L 89.792369 -58.830404 
L 89.331443 -58.908933 
L 88.870516 -58.989681 
L 88.40959 -59.072678 
L 87.948664 -59.157955 
L 87.487738 -59.245544 
L 87.026812 -59.335476 
L 86.565886 -59.427785 
L 86.10496 -59.522504 
L 85.644033 -59.619667 
L 85.183107 -59.719308 
L 84.722181 -59.821463 
L 84.261255 -59.926167 
L 83.800329 -60.033456 
L 83.339403 -60.14337 
L 82.878476 -60.255944 
L 82.41755 -60.371218 
L 81.956624 -60.48923 
L 81.495698 -60.610022 
L 81.034772 -60.733634 
L 80.573846 -60.860106 
L 80.112919 -60.989483 
L 79.651993 -61.121806 
L 79.191067 -61.257119 
L 78.730141 -61.395467 
L 78.269215 -61.536897 
L 77.808289 -61.681453 
L 77.347363 -61.829183 
L 76.886436 -61.980135 
L 76.42551 -62.134358 
L 75.964584 -62.291902 
L 75.503658 -62.452817 
L 75.042732 -62.617156 
L 74.581806 -62.78497 
L 74.120879 -62.956313 
L 73.659953 -63.131241 
L 73.199027 -63.309807 
L 72.738101 -63.492069 
L 72.277175 -63.678085 
L 71.816249 -63.867912 
L 71.355322 -64.061611 
L 70.894396 -64.259243 
L 70.43347 -64.460868 
L 69.972544 -64.66655 
L 69.511618 -64.876354 
L 69.050692 -65.090345 
L 68.589766 -65.308588 
L 68.128839 -65.531152 
L 67.667913 -65.758105 
L 67.206987 -65.989518 
L 66.746061 -66.225462 
L 66.285135 -66.46601 
L 65.824209 -66.711236 
L 65.363282 -66.961214 
L 64.902356 -67.216023 
L 64.44143 -67.475739 
L 63.980504 -67.740443 
L 63.519578 -68.010215 
L 63.058652 -68.285138 
L 62.597725 -68.565296 
L 62.136799 -68.850774 
L 61.675873 -69.141658 
L 61.214947 -69.438038 
L 60.754021 -69.740004 
L 60.293095 -70.047646 
L 59.832169 -70.36106 
L 59.371242 -70.680338 
L 58.910316 -71.00558 
L 58.44939 -71.336881 
L 57.988464 -71.674344 
L 57.527538 -72.01807 
L 57.066612 -72.368163 
L 56.605685 -72.724728 
L 56.144759 -73.087874 
L 55.683833 -73.457709 
L 55.222907 -73.834346 
L 54.761981 -74.217897 
L 54.301055 -74.608478 
L 53.840128 -75.006207 
L 53.379202 -75.411203 
L 52.918276 -75.823588 
L 52.45735 -76.243486 
L 51.996424 -76.671024 
L 51.535498 -77.106329 
L 51.074572 -77.549532 
L 50.613645 -78.000767 
L 50.152719 -78.460168 
L 49.691793 -78.927873 
L 49.230867 -79.404023 
L 48.769941 -79.88876 
L 48.309015 -80.382229 
L 47.848088 -80.884578 
L 47.387162 -81.395957 
L 46.926236 -81.916519 
L 46.46531 -82.446419 
L 46.004384 -82.985817 
L 45.543458 -83.534872 
L 45.082531 -84.093749 
L 44.621605 -84.662615 
L 44.160679 -85.241638 
L 43.699753 -85.830991 
L 43.238827 -86.43085 
L 42.777901 -87.041392 
L 42.316975 -87.662799 
L 41.856048 -88.295254 
L 41.395122 -88.938944 
L 40.934196 -89.594058 
L 40.47327 -90.260789 
L 40.012344 -90.939327 
z
" style="stroke: #c0392b; stroke-opacity: 0.1"/>
    </defs>
    <g clip-path="url(#p479a4182b4)">
     <use xlink:href="#m00981b6489" x="0" y="302.029937" style="fill: #c0392b; fill-opacity: 0.1; stroke: #c0392b; stroke-opacity: 0.1"/>
    </g>
   </g>
   <g id="PolyCollection_2">
    <defs>
     <path id="mc2ece24c5f" d="M 113.760529 -57.211149 
L 113.760529 -43.327969 
L 114.221455 -43.327969 
L 114.682381 -43.327969 
L 115.143307 -43.327969 
L 115.604234 -43.327969 
L 116.06516 -43.327969 
L 116.526086 -43.327969 
L 116.987012 -43.327969 
L 117.447938 -43.327969 
L 117.908864 -43.327969 
L 118.369791 -43.327969 
L 118.830717 -43.327969 
L 119.291643 -43.327969 
L 119.752569 -43.327969 
L 120.213495 -43.327969 
L 120.674421 -43.327969 
L 121.135348 -43.327969 
L 121.596274 -43.327969 
L 122.0572 -43.327969 
L 122.518126 -43.327969 
L 122.979052 -43.327969 
L 123.439978 -43.327969 
L 123.900904 -43.327969 
L 124.361831 -43.327969 
L 124.822757 -43.327969 
L 125.283683 -43.327969 
L 125.744609 -43.327969 
L 126.205535 -43.327969 
L 126.666461 -43.327969 
L 127.127388 -43.327969 
L 127.588314 -43.327969 
L 128.04924 -43.327969 
L 128.510166 -43.327969 
L 128.971092 -43.327969 
L 129.432018 -43.327969 
L 129.892945 -43.327969 
L 130.353871 -43.327969 
L 130.814797 -43.327969 
L 131.275723 -43.327969 
L 131.736649 -43.327969 
L 132.197575 -43.327969 
L 132.658501 -43.327969 
L 133.119428 -43.327969 
L 133.580354 -43.327969 
L 134.04128 -43.327969 
L 134.502206 -43.327969 
L 134.963132 -43.327969 
L 135.424058 -43.327969 
L 135.884985 -43.327969 
L 136.345911 -43.327969 
L 136.806837 -43.327969 
L 137.267763 -43.327969 
L 137.728689 -43.327969 
L 138.189615 -43.327969 
L 138.650541 -43.327969 
L 139.111468 -43.327969 
L 139.572394 -43.327969 
L 140.03332 -43.327969 
L 140.494246 -43.327969 
L 140.955172 -43.327969 
L 141.416098 -43.327969 
L 141.877025 -43.327969 
L 142.337951 -43.327969 
L 142.798877 -43.327969 
L 143.259803 -43.327969 
L 143.720729 -43.327969 
L 144.181655 -43.327969 
L 144.642582 -43.327969 
L 145.103508 -43.327969 
L 145.564434 -43.327969 
L 146.02536 -43.327969 
L 146.486286 -43.327969 
L 146.947212 -43.327969 
L 147.408138 -43.327969 
L 147.869065 -43.327969 
L 148.329991 -43.327969 
L 148.790917 -43.327969 
L 149.251843 -43.327969 
L 149.712769 -43.327969 
L 150.173695 -43.327969 
L 150.634622 -43.327969 
L 151.095548 -43.327969 
L 151.556474 -43.327969 
L 152.0174 -43.327969 
L 152.478326 -43.327969 
L 152.939252 -43.327969 
L 153.400179 -43.327969 
L 153.861105 -43.327969 
L 154.322031 -43.327969 
L 154.782957 -43.327969 
L 155.243883 -43.327969 
L 155.704809 -43.327969 
L 156.165735 -43.327969 
L 156.626662 -43.327969 
L 157.087588 -43.327969 
L 157.548514 -43.327969 
L 158.00944 -43.327969 
L 158.470366 -43.327969 
L 158.931292 -43.327969 
L 159.392219 -43.327969 
L 159.853145 -43.327969 
L 160.314071 -43.327969 
L 160.774997 -43.327969 
L 161.235923 -43.327969 
L 161.696849 -43.327969 
L 162.157776 -43.327969 
L 162.618702 -43.327969 
L 163.079628 -43.327969 
L 163.540554 -43.327969 
L 164.00148 -43.327969 
L 164.462406 -43.327969 
L 164.923332 -43.327969 
L 165.384259 -43.327969 
L 165.845185 -43.327969 
L 166.306111 -43.327969 
L 166.767037 -43.327969 
L 167.227963 -43.327969 
L 167.688889 -43.327969 
L 168.149816 -43.327969 
L 168.610742 -43.327969 
L 169.071668 -43.327969 
L 169.532594 -43.327969 
L 169.99352 -43.327969 
L 170.454446 -43.327969 
L 170.915373 -43.327969 
L 171.376299 -43.327969 
L 171.837225 -43.327969 
L 172.298151 -43.327969 
L 172.759077 -43.327969 
L 173.220003 -43.327969 
L 173.680929 -43.327969 
L 174.141856 -43.327969 
L 174.602782 -43.327969 
L 175.063708 -43.327969 
L 175.524634 -43.327969 
L 175.98556 -43.327969 
L 176.446486 -43.327969 
L 176.907413 -43.327969 
L 177.368339 -43.327969 
L 177.829265 -43.327969 
L 178.290191 -43.327969 
L 178.751117 -43.327969 
L 179.212043 -43.327969 
L 179.67297 -43.327969 
L 180.133896 -43.327969 
L 180.594822 -43.327969 
L 181.055748 -43.327969 
L 181.516674 -43.327969 
L 181.9776 -43.327969 
L 182.438526 -43.327969 
L 182.899453 -43.327969 
L 183.360379 -43.327969 
L 183.821305 -43.327969 
L 184.282231 -43.327969 
L 184.743157 -43.327969 
L 185.204083 -43.327969 
L 185.66501 -43.327969 
L 186.125936 -43.327969 
L 186.586862 -43.327969 
L 187.047788 -43.327969 
L 187.508714 -43.327969 
L 187.96964 -43.327969 
L 188.430567 -43.327969 
L 188.891493 -43.327969 
L 189.352419 -43.327969 
L 189.813345 -43.327969 
L 190.274271 -43.327969 
L 190.735197 -43.327969 
L 191.196123 -43.327969 
L 191.65705 -43.327969 
L 192.117976 -43.327969 
L 192.578902 -43.327969 
L 193.039828 -43.327969 
L 193.500754 -43.327969 
L 193.96168 -43.327969 
L 194.422607 -43.327969 
L 194.883533 -43.327969 
L 195.344459 -43.327969 
L 195.805385 -43.327969 
L 196.266311 -43.327969 
L 196.727237 -43.327969 
L 197.188164 -43.327969 
L 197.64909 -43.327969 
L 198.110016 -43.327969 
L 198.570942 -43.327969 
L 199.031868 -43.327969 
L 199.492794 -43.327969 
L 199.95372 -43.327969 
L 200.414647 -43.327969 
L 200.875573 -43.327969 
L 201.336499 -43.327969 
L 201.797425 -43.327969 
L 202.258351 -43.327969 
L 202.719277 -43.327969 
L 203.180204 -43.327969 
L 203.64113 -43.327969 
L 204.102056 -43.327969 
L 204.562982 -43.327969 
L 205.023908 -43.327969 
L 205.484834 -43.327969 
L 205.945761 -43.327969 
L 206.406687 -43.327969 
L 206.867613 -43.327969 
L 207.328539 -43.327969 
L 207.789465 -43.327969 
L 208.250391 -43.327969 
L 208.711317 -43.327969 
L 209.172244 -43.327969 
L 209.63317 -43.327969 
L 210.094096 -43.327969 
L 210.555022 -43.327969 
L 211.015948 -43.327969 
L 211.476874 -43.327969 
L 211.937801 -43.327969 
L 212.398727 -43.327969 
L 212.859653 -43.327969 
L 213.320579 -43.327969 
L 213.781505 -43.327969 
L 214.242431 -43.327969 
L 214.703358 -43.327969 
L 215.164284 -43.327969 
L 215.62521 -43.327969 
L 216.086136 -43.327969 
L 216.547062 -43.327969 
L 217.007988 -43.327969 
L 217.468914 -43.327969 
L 217.929841 -43.327969 
L 218.390767 -43.327969 
L 218.851693 -43.327969 
L 219.312619 -43.327969 
L 219.773545 -43.327969 
L 220.234471 -43.327969 
L 220.695398 -43.327969 
L 221.156324 -43.327969 
L 221.61725 -43.327969 
L 222.078176 -43.327969 
L 222.539102 -43.327969 
L 223.000028 -43.327969 
L 223.460955 -43.327969 
L 223.921881 -43.327969 
L 224.382807 -43.327969 
L 224.843733 -43.327969 
L 225.304659 -43.327969 
L 225.765585 -43.327969 
L 226.226511 -43.327969 
L 226.687438 -43.327969 
L 227.148364 -43.327969 
L 227.60929 -43.327969 
L 228.070216 -43.327969 
L 228.531142 -43.327969 
L 228.992068 -43.327969 
L 229.452995 -43.327969 
L 229.913921 -43.327969 
L 230.374847 -43.327969 
L 230.835773 -43.327969 
L 231.296699 -43.327969 
L 231.757625 -43.327969 
L 232.218552 -43.327969 
L 232.679478 -43.327969 
L 233.140404 -43.327969 
L 233.60133 -43.327969 
L 234.062256 -43.327969 
L 234.523182 -43.327969 
L 234.984108 -43.327969 
L 235.445035 -43.327969 
L 235.905961 -43.327969 
L 236.366887 -43.327969 
L 236.827813 -43.327969 
L 237.288739 -43.327969 
L 237.749665 -43.327969 
L 238.210592 -43.327969 
L 238.671518 -43.327969 
L 239.132444 -43.327969 
L 239.59337 -43.327969 
L 240.054296 -43.327969 
L 240.515222 -43.327969 
L 240.976149 -43.327969 
L 241.437075 -43.327969 
L 241.898001 -43.327969 
L 242.358927 -43.327969 
L 242.819853 -43.327969 
L 243.280779 -43.327969 
L 243.741705 -43.327969 
L 244.202632 -43.327969 
L 244.663558 -43.327969 
L 245.124484 -43.327969 
L 245.58541 -43.327969 
L 246.046336 -43.327969 
L 246.507262 -43.327969 
L 246.968189 -43.327969 
L 247.429115 -43.327969 
L 247.890041 -43.327969 
L 248.350967 -43.327969 
L 248.811893 -43.327969 
L 249.272819 -43.327969 
L 249.733746 -43.327969 
L 250.194672 -43.327969 
L 250.655598 -43.327969 
L 251.116524 -43.327969 
L 251.57745 -43.327969 
L 252.038376 -43.327969 
L 252.499302 -43.327969 
L 252.960229 -43.327969 
L 253.421155 -43.327969 
L 253.882081 -43.327969 
L 254.343007 -43.327969 
L 254.803933 -43.327969 
L 255.264859 -43.327969 
L 255.725786 -43.327969 
L 256.186712 -43.327969 
L 256.647638 -43.327969 
L 257.108564 -43.327969 
L 257.56949 -43.327969 
L 258.030416 -43.327969 
L 258.491342 -43.327969 
L 258.952269 -43.327969 
L 259.413195 -43.327969 
L 259.874121 -43.327969 
L 260.335047 -43.327969 
L 260.795973 -43.327969 
L 261.256899 -43.327969 
L 261.717826 -43.327969 
L 262.178752 -43.327969 
L 262.639678 -43.327969 
L 263.100604 -43.327969 
L 263.56153 -43.327969 
L 264.022456 -43.327969 
L 264.483383 -43.327969 
L 264.944309 -43.327969 
L 265.405235 -43.327969 
L 265.866161 -43.327969 
L 266.327087 -43.327969 
L 266.788013 -43.327969 
L 267.248939 -43.327969 
L 267.709866 -43.327969 
L 268.170792 -43.327969 
L 268.631718 -43.327969 
L 269.092644 -43.327969 
L 269.55357 -43.327969 
L 270.014496 -43.327969 
L 270.475423 -43.327969 
L 270.936349 -43.327969 
L 271.397275 -43.327969 
L 271.858201 -43.327969 
L 272.319127 -43.327969 
L 272.780053 -43.327969 
L 273.24098 -43.327969 
L 273.701906 -43.327969 
L 274.162832 -43.327969 
L 274.623758 -43.327969 
L 275.084684 -43.327969 
L 275.54561 -43.327969 
L 276.006536 -43.327969 
L 276.467463 -43.327969 
L 276.928389 -43.327969 
L 277.389315 -43.327969 
L 277.850241 -43.327969 
L 278.311167 -43.327969 
L 278.772093 -43.327969 
L 279.23302 -43.327969 
L 279.23302 -115.194859 
L 279.23302 -115.194859 
L 278.772093 -114.878231 
L 278.311167 -114.562581 
L 277.850241 -114.247908 
L 277.389315 -113.934211 
L 276.928389 -113.621489 
L 276.467463 -113.309741 
L 276.006536 -112.998964 
L 275.54561 -112.68916 
L 275.084684 -112.380326 
L 274.623758 -112.072461 
L 274.162832 -111.765564 
L 273.701906 -111.459634 
L 273.24098 -111.15467 
L 272.780053 -110.850671 
L 272.319127 -110.547635 
L 271.858201 -110.245562 
L 271.397275 -109.944451 
L 270.936349 -109.6443 
L 270.475423 -109.345108 
L 270.014496 -109.046874 
L 269.55357 -108.749597 
L 269.092644 -108.453276 
L 268.631718 -108.15791 
L 268.170792 -107.863497 
L 267.709866 -107.570037 
L 267.248939 -107.277528 
L 266.788013 -106.98597 
L 266.327087 -106.695361 
L 265.866161 -106.4057 
L 265.405235 -106.116985 
L 264.944309 -105.829217 
L 264.483383 -105.542393 
L 264.022456 -105.256513 
L 263.56153 -104.971576 
L 263.100604 -104.68758 
L 262.639678 -104.404524 
L 262.178752 -104.122407 
L 261.717826 -103.841228 
L 261.256899 -103.560986 
L 260.795973 -103.281679 
L 260.335047 -103.003308 
L 259.874121 -102.72587 
L 259.413195 -102.449364 
L 258.952269 -102.17379 
L 258.491342 -101.899145 
L 258.030416 -101.62543 
L 257.56949 -101.352643 
L 257.108564 -101.080782 
L 256.647638 -100.809847 
L 256.186712 -100.539837 
L 255.725786 -100.27075 
L 255.264859 -100.002586 
L 254.803933 -99.735342 
L 254.343007 -99.469019 
L 253.882081 -99.203615 
L 253.421155 -98.939128 
L 252.960229 -98.675558 
L 252.499302 -98.412904 
L 252.038376 -98.151164 
L 251.57745 -97.890338 
L 251.116524 -97.630424 
L 250.655598 -97.371421 
L 250.194672 -97.113328 
L 249.733746 -96.856144 
L 249.272819 -96.599867 
L 248.811893 -96.344497 
L 248.350967 -96.090033 
L 247.890041 -95.836473 
L 247.429115 -95.583817 
L 246.968189 -95.332062 
L 246.507262 -95.081209 
L 246.046336 -94.831255 
L 245.58541 -94.582201 
L 245.124484 -94.334044 
L 244.663558 -94.086783 
L 244.202632 -93.840418 
L 243.741705 -93.594948 
L 243.280779 -93.35037 
L 242.819853 -93.106685 
L 242.358927 -92.863891 
L 241.898001 -92.621987 
L 241.437075 -92.380971 
L 240.976149 -92.140843 
L 240.515222 -91.901602 
L 240.054296 -91.663246 
L 239.59337 -91.425774 
L 239.132444 -91.189186 
L 238.671518 -90.95348 
L 238.210592 -90.718655 
L 237.749665 -90.484709 
L 237.288739 -90.251643 
L 236.827813 -90.019454 
L 236.366887 -89.788142 
L 235.905961 -89.557705 
L 235.445035 -89.328143 
L 234.984108 -89.099453 
L 234.523182 -88.871636 
L 234.062256 -88.644691 
L 233.60133 -88.418615 
L 233.140404 -88.193408 
L 232.679478 -87.969069 
L 232.218552 -87.745596 
L 231.757625 -87.522989 
L 231.296699 -87.301247 
L 230.835773 -87.080368 
L 230.374847 -86.860351 
L 229.913921 -86.641196 
L 229.452995 -86.4229 
L 228.992068 -86.205464 
L 228.531142 -85.988886 
L 228.070216 -85.773165 
L 227.60929 -85.558299 
L 227.148364 -85.344288 
L 226.687438 -85.131131 
L 226.226511 -84.918827 
L 225.765585 -84.707374 
L 225.304659 -84.496771 
L 224.843733 -84.287018 
L 224.382807 -84.078113 
L 223.921881 -83.870055 
L 223.460955 -83.662844 
L 223.000028 -83.456478 
L 222.539102 -83.250955 
L 222.078176 -83.046276 
L 221.61725 -82.842439 
L 221.156324 -82.639442 
L 220.695398 -82.437286 
L 220.234471 -82.235968 
L 219.773545 -82.035488 
L 219.312619 -81.835844 
L 218.851693 -81.637037 
L 218.390767 -81.439064 
L 217.929841 -81.241924 
L 217.468914 -81.045617 
L 217.007988 -80.850142 
L 216.547062 -80.655497 
L 216.086136 -80.461682 
L 215.62521 -80.268695 
L 215.164284 -80.076536 
L 214.703358 -79.885203 
L 214.242431 -79.694695 
L 213.781505 -79.505012 
L 213.320579 -79.316152 
L 212.859653 -79.128115 
L 212.398727 -78.940899 
L 211.937801 -78.754504 
L 211.476874 -78.568928 
L 211.015948 -78.38417 
L 210.555022 -78.20023 
L 210.094096 -78.017107 
L 209.63317 -77.834799 
L 209.172244 -77.653306 
L 208.711317 -77.472626 
L 208.250391 -77.292759 
L 207.789465 -77.113703 
L 207.328539 -76.935459 
L 206.867613 -76.758024 
L 206.406687 -76.581398 
L 205.945761 -76.40558 
L 205.484834 -76.230569 
L 205.023908 -76.056364 
L 204.562982 -75.882965 
L 204.102056 -75.710369 
L 203.64113 -75.538577 
L 203.180204 -75.367587 
L 202.719277 -75.197399 
L 202.258351 -75.028012 
L 201.797425 -74.859424 
L 201.336499 -74.691636 
L 200.875573 -74.524645 
L 200.414647 -74.358451 
L 199.95372 -74.193054 
L 199.492794 -74.028453 
L 199.031868 -73.864645 
L 198.570942 -73.701632 
L 198.110016 -73.539412 
L 197.64909 -73.377984 
L 197.188164 -73.217347 
L 196.727237 -73.0575 
L 196.266311 -72.898444 
L 195.805385 -72.740176 
L 195.344459 -72.582696 
L 194.883533 -72.426004 
L 194.422607 -72.270098 
L 193.96168 -72.114979 
L 193.500754 -71.960644 
L 193.039828 -71.807094 
L 192.578902 -71.654327 
L 192.117976 -71.502343 
L 191.65705 -71.351141 
L 191.196123 -71.200721 
L 190.735197 -71.051082 
L 190.274271 -70.902223 
L 189.813345 -70.754143 
L 189.352419 -70.606842 
L 188.891493 -70.460319 
L 188.430567 -70.314573 
L 187.96964 -70.169605 
L 187.508714 -70.025412 
L 187.047788 -69.881996 
L 186.586862 -69.739354 
L 186.125936 -69.597487 
L 185.66501 -69.456393 
L 185.204083 -69.316073 
L 184.743157 -69.176526 
L 184.282231 -69.037751 
L 183.821305 -68.899748 
L 183.360379 -68.762516 
L 182.899453 -68.626055 
L 182.438526 -68.490364 
L 181.9776 -68.355443 
L 181.516674 -68.221291 
L 181.055748 -68.087908 
L 180.594822 -67.955293 
L 180.133896 -67.823447 
L 179.67297 -67.692368 
L 179.212043 -67.562057 
L 178.751117 -67.432513 
L 178.290191 -67.303735 
L 177.829265 -67.175724 
L 177.368339 -67.048479 
L 176.907413 -66.921999 
L 176.446486 -66.796285 
L 175.98556 -66.671336 
L 175.524634 -66.547152 
L 175.063708 -66.423733 
L 174.602782 -66.301079 
L 174.141856 -66.179189 
L 173.680929 -66.058063 
L 173.220003 -65.937701 
L 172.759077 -65.818104 
L 172.298151 -65.69927 
L 171.837225 -65.5812 
L 171.376299 -65.463894 
L 170.915373 -65.347352 
L 170.454446 -65.231573 
L 169.99352 -65.116559 
L 169.532594 -65.002308 
L 169.071668 -64.888821 
L 168.610742 -64.776098 
L 168.149816 -64.66414 
L 167.688889 -64.552945 
L 167.227963 -64.442516 
L 166.767037 -64.33285 
L 166.306111 -64.22395 
L 165.845185 -64.115815 
L 165.384259 -64.008445 
L 164.923332 -63.901841 
L 164.462406 -63.796003 
L 164.00148 -63.690932 
L 163.540554 -63.586627 
L 163.079628 -63.48309 
L 162.618702 -63.380321 
L 162.157776 -63.278319 
L 161.696849 -63.177087 
L 161.235923 -63.076624 
L 160.774997 -62.97693 
L 160.314071 -62.878008 
L 159.853145 -62.779856 
L 159.392219 -62.682477 
L 158.931292 -62.58587 
L 158.470366 -62.490036 
L 158.00944 -62.394977 
L 157.548514 -62.300693 
L 157.087588 -62.207185 
L 156.626662 -62.114453 
L 156.165735 -62.0225 
L 155.704809 -61.931325 
L 155.243883 -61.840931 
L 154.782957 -61.751317 
L 154.322031 -61.662486 
L 153.861105 -61.574438 
L 153.400179 -61.487175 
L 152.939252 -61.400697 
L 152.478326 -61.315007 
L 152.0174 -61.230105 
L 151.556474 -61.145993 
L 151.095548 -61.062672 
L 150.634622 -60.980145 
L 150.173695 -60.898412 
L 149.712769 -60.817475 
L 149.251843 -60.737336 
L 148.790917 -60.657997 
L 148.329991 -60.579459 
L 147.869065 -60.501724 
L 147.408138 -60.424794 
L 146.947212 -60.348671 
L 146.486286 -60.273357 
L 146.02536 -60.198855 
L 145.564434 -60.125165 
L 145.103508 -60.052291 
L 144.642582 -59.980235 
L 144.181655 -59.908999 
L 143.720729 -59.838586 
L 143.259803 -59.768997 
L 142.798877 -59.700236 
L 142.337951 -59.632304 
L 141.877025 -59.565206 
L 141.416098 -59.498943 
L 140.955172 -59.433518 
L 140.494246 -59.368935 
L 140.03332 -59.305195 
L 139.572394 -59.242303 
L 139.111468 -59.180262 
L 138.650541 -59.119073 
L 138.189615 -59.058742 
L 137.728689 -58.999271 
L 137.267763 -58.940663 
L 136.806837 -58.882923 
L 136.345911 -58.826054 
L 135.884985 -58.770059 
L 135.424058 -58.714943 
L 134.963132 -58.660708 
L 134.502206 -58.607361 
L 134.04128 -58.554903 
L 133.580354 -58.503341 
L 133.119428 -58.452677 
L 132.658501 -58.402916 
L 132.197575 -58.354063 
L 131.736649 -58.306123 
L 131.275723 -58.2591 
L 130.814797 -58.212999 
L 130.353871 -58.167825 
L 129.892945 -58.123582 
L 129.432018 -58.080277 
L 128.971092 -58.037914 
L 128.510166 -57.996499 
L 128.04924 -57.956038 
L 127.588314 -57.916535 
L 127.127388 -57.877997 
L 126.666461 -57.84043 
L 126.205535 -57.80384 
L 125.744609 -57.768232 
L 125.283683 -57.733613 
L 124.822757 -57.699991 
L 124.361831 -57.66737 
L 123.900904 -57.635758 
L 123.439978 -57.605162 
L 122.979052 -57.575589 
L 122.518126 -57.547046 
L 122.0572 -57.51954 
L 121.596274 -57.493079 
L 121.135348 -57.46767 
L 120.674421 -57.443321 
L 120.213495 -57.420041 
L 119.752569 -57.397837 
L 119.291643 -57.376717 
L 118.830717 -57.356691 
L 118.369791 -57.337766 
L 117.908864 -57.319952 
L 117.447938 -57.303257 
L 116.987012 -57.287691 
L 116.526086 -57.273263 
L 116.06516 -57.259983 
L 115.604234 -57.247861 
L 115.143307 -57.236906 
L 114.682381 -57.227129 
L 114.221455 -57.218539 
L 113.760529 -57.211149 
z
" style="stroke: #27ae60; stroke-opacity: 0.1"/>
    </defs>
    <g clip-path="url(#p479a4182b4)">
     <use xlink:href="#mc2ece24c5f" x="0" y="302.029937" style="fill: #27ae60; fill-opacity: 0.1; stroke: #27ae60; stroke-opacity: 0.1"/>
    </g>
   </g>
   <g id="PolyCollection_3">
    <defs>
     <path id="m1107b98937" d="M 279.693946 -115.512467 
L 279.693946 -43.327969 
L 280.154872 -43.327969 
L 280.615798 -43.327969 
L 281.076724 -43.327969 
L 281.53765 -43.327969 
L 281.998577 -43.327969 
L 282.459503 -43.327969 
L 282.920429 -43.327969 
L 283.381355 -43.327969 
L 283.842281 -43.327969 
L 284.303207 -43.327969 
L 284.764133 -43.327969 
L 285.22506 -43.327969 
L 285.685986 -43.327969 
L 286.146912 -43.327969 
L 286.607838 -43.327969 
L 287.068764 -43.327969 
L 287.52969 -43.327969 
L 287.990617 -43.327969 
L 288.451543 -43.327969 
L 288.912469 -43.327969 
L 289.373395 -43.327969 
L 289.834321 -43.327969 
L 290.295247 -43.327969 
L 290.756174 -43.327969 
L 291.2171 -43.327969 
L 291.678026 -43.327969 
L 292.138952 -43.327969 
L 292.599878 -43.327969 
L 293.060804 -43.327969 
L 293.52173 -43.327969 
L 293.982657 -43.327969 
L 294.443583 -43.327969 
L 294.904509 -43.327969 
L 295.365435 -43.327969 
L 295.826361 -43.327969 
L 296.287287 -43.327969 
L 296.748214 -43.327969 
L 297.20914 -43.327969 
L 297.670066 -43.327969 
L 298.130992 -43.327969 
L 298.591918 -43.327969 
L 299.052844 -43.327969 
L 299.513771 -43.327969 
L 299.974697 -43.327969 
L 300.435623 -43.327969 
L 300.896549 -43.327969 
L 301.357475 -43.327969 
L 301.818401 -43.327969 
L 302.279327 -43.327969 
L 302.740254 -43.327969 
L 303.20118 -43.327969 
L 303.662106 -43.327969 
L 304.123032 -43.327969 
L 304.583958 -43.327969 
L 305.044884 -43.327969 
L 305.505811 -43.327969 
L 305.966737 -43.327969 
L 306.427663 -43.327969 
L 306.888589 -43.327969 
L 307.349515 -43.327969 
L 307.810441 -43.327969 
L 308.271368 -43.327969 
L 308.732294 -43.327969 
L 309.19322 -43.327969 
L 309.654146 -43.327969 
L 310.115072 -43.327969 
L 310.575998 -43.327969 
L 311.036924 -43.327969 
L 311.497851 -43.327969 
L 311.958777 -43.327969 
L 312.419703 -43.327969 
L 312.880629 -43.327969 
L 313.341555 -43.327969 
L 313.802481 -43.327969 
L 314.263408 -43.327969 
L 314.724334 -43.327969 
L 315.18526 -43.327969 
L 315.646186 -43.327969 
L 316.107112 -43.327969 
L 316.568038 -43.327969 
L 317.028965 -43.327969 
L 317.489891 -43.327969 
L 317.950817 -43.327969 
L 318.411743 -43.327969 
L 318.872669 -43.327969 
L 319.333595 -43.327969 
L 319.794521 -43.327969 
L 320.255448 -43.327969 
L 320.716374 -43.327969 
L 321.1773 -43.327969 
L 321.638226 -43.327969 
L 322.099152 -43.327969 
L 322.560078 -43.327969 
L 323.021005 -43.327969 
L 323.481931 -43.327969 
L 323.942857 -43.327969 
L 324.403783 -43.327969 
L 324.864709 -43.327969 
L 325.325635 -43.327969 
L 325.786562 -43.327969 
L 326.247488 -43.327969 
L 326.708414 -43.327969 
L 327.16934 -43.327969 
L 327.630266 -43.327969 
L 328.091192 -43.327969 
L 328.552118 -43.327969 
L 329.013045 -43.327969 
L 329.473971 -43.327969 
L 329.934897 -43.327969 
L 330.395823 -43.327969 
L 330.856749 -43.327969 
L 331.317675 -43.327969 
L 331.778602 -43.327969 
L 332.239528 -43.327969 
L 332.700454 -43.327969 
L 333.16138 -43.327969 
L 333.622306 -43.327969 
L 334.083232 -43.327969 
L 334.544159 -43.327969 
L 335.005085 -43.327969 
L 335.466011 -43.327969 
L 335.926937 -43.327969 
L 336.387863 -43.327969 
L 336.848789 -43.327969 
L 337.309715 -43.327969 
L 337.770642 -43.327969 
L 338.231568 -43.327969 
L 338.692494 -43.327969 
L 339.15342 -43.327969 
L 339.614346 -43.327969 
L 340.075272 -43.327969 
L 340.536199 -43.327969 
L 340.997125 -43.327969 
L 341.458051 -43.327969 
L 341.918977 -43.327969 
L 342.379903 -43.327969 
L 342.840829 -43.327969 
L 343.301756 -43.327969 
L 343.762682 -43.327969 
L 344.223608 -43.327969 
L 344.684534 -43.327969 
L 345.14546 -43.327969 
L 345.606386 -43.327969 
L 346.067312 -43.327969 
L 346.528239 -43.327969 
L 346.989165 -43.327969 
L 347.450091 -43.327969 
L 347.911017 -43.327969 
L 348.371943 -43.327969 
L 348.832869 -43.327969 
L 349.293796 -43.327969 
L 349.754722 -43.327969 
L 350.215648 -43.327969 
L 350.676574 -43.327969 
L 351.1375 -43.327969 
L 351.598426 -43.327969 
L 352.059353 -43.327969 
L 352.520279 -43.327969 
L 352.981205 -43.327969 
L 353.442131 -43.327969 
L 353.903057 -43.327969 
L 354.363983 -43.327969 
L 354.824909 -43.327969 
L 355.285836 -43.327969 
L 355.746762 -43.327969 
L 356.207688 -43.327969 
L 356.668614 -43.327969 
L 357.12954 -43.327969 
L 357.590466 -43.327969 
L 358.051393 -43.327969 
L 358.512319 -43.327969 
L 358.973245 -43.327969 
L 359.434171 -43.327969 
L 359.895097 -43.327969 
L 360.356023 -43.327969 
L 360.81695 -43.327969 
L 361.277876 -43.327969 
L 361.738802 -43.327969 
L 362.199728 -43.327969 
L 362.660654 -43.327969 
L 363.12158 -43.327969 
L 363.582506 -43.327969 
L 364.043433 -43.327969 
L 364.504359 -43.327969 
L 364.965285 -43.327969 
L 365.426211 -43.327969 
L 365.887137 -43.327969 
L 366.348063 -43.327969 
L 366.80899 -43.327969 
L 367.269916 -43.327969 
L 367.730842 -43.327969 
L 368.191768 -43.327969 
L 368.652694 -43.327969 
L 369.11362 -43.327969 
L 369.574547 -43.327969 
L 370.035473 -43.327969 
L 370.496399 -43.327969 
L 370.957325 -43.327969 
L 371.418251 -43.327969 
L 371.879177 -43.327969 
L 372.340103 -43.327969 
L 372.80103 -43.327969 
L 373.261956 -43.327969 
L 373.722882 -43.327969 
L 374.183808 -43.327969 
L 374.644734 -43.327969 
L 375.10566 -43.327969 
L 375.566587 -43.327969 
L 376.027513 -43.327969 
L 376.488439 -43.327969 
L 376.949365 -43.327969 
L 377.410291 -43.327969 
L 377.871217 -43.327969 
L 378.332143 -43.327969 
L 378.79307 -43.327969 
L 379.253996 -43.327969 
L 379.714922 -43.327969 
L 380.175848 -43.327969 
L 380.636774 -43.327969 
L 381.0977 -43.327969 
L 381.558627 -43.327969 
L 382.019553 -43.327969 
L 382.480479 -43.327969 
L 382.941405 -43.327969 
L 383.402331 -43.327969 
L 383.863257 -43.327969 
L 384.324184 -43.327969 
L 384.78511 -43.327969 
L 385.246036 -43.327969 
L 385.706962 -43.327969 
L 386.167888 -43.327969 
L 386.628814 -43.327969 
L 387.08974 -43.327969 
L 387.550667 -43.327969 
L 388.011593 -43.327969 
L 388.472519 -43.327969 
L 388.933445 -43.327969 
L 389.394371 -43.327969 
L 389.855297 -43.327969 
L 390.316224 -43.327969 
L 390.77715 -43.327969 
L 391.238076 -43.327969 
L 391.699002 -43.327969 
L 392.159928 -43.327969 
L 392.620854 -43.327969 
L 393.081781 -43.327969 
L 393.542707 -43.327969 
L 394.003633 -43.327969 
L 394.464559 -43.327969 
L 394.925485 -43.327969 
L 395.386411 -43.327969 
L 395.847337 -43.327969 
L 396.308264 -43.327969 
L 396.76919 -43.327969 
L 397.230116 -43.327969 
L 397.691042 -43.327969 
L 398.151968 -43.327969 
L 398.612894 -43.327969 
L 399.073821 -43.327969 
L 399.534747 -43.327969 
L 399.995673 -43.327969 
L 400.456599 -43.327969 
L 400.917525 -43.327969 
L 401.378451 -43.327969 
L 401.839378 -43.327969 
L 402.300304 -43.327969 
L 402.76123 -43.327969 
L 403.222156 -43.327969 
L 403.683082 -43.327969 
L 404.144008 -43.327969 
L 404.604934 -43.327969 
L 405.065861 -43.327969 
L 405.526787 -43.327969 
L 405.987713 -43.327969 
L 406.448639 -43.327969 
L 406.909565 -43.327969 
L 407.370491 -43.327969 
L 407.831418 -43.327969 
L 408.292344 -43.327969 
L 408.292344 -246.277969 
L 408.292344 -246.277969 
L 407.831418 -245.645998 
L 407.370491 -245.015293 
L 406.909565 -244.385852 
L 406.448639 -243.757676 
L 405.987713 -243.130763 
L 405.526787 -242.505111 
L 405.065861 -241.880721 
L 404.604934 -241.257591 
L 404.144008 -240.63572 
L 403.683082 -240.015107 
L 403.222156 -239.395752 
L 402.76123 -238.777653 
L 402.300304 -238.160809 
L 401.839378 -237.54522 
L 401.378451 -236.930884 
L 400.917525 -236.3178 
L 400.456599 -235.705968 
L 399.995673 -235.095387 
L 399.534747 -234.486055 
L 399.073821 -233.877972 
L 398.612894 -233.271137 
L 398.151968 -232.665548 
L 397.691042 -232.061205 
L 397.230116 -231.458107 
L 396.76919 -230.856253 
L 396.308264 -230.255642 
L 395.847337 -229.656272 
L 395.386411 -229.058143 
L 394.925485 -228.461255 
L 394.464559 -227.865605 
L 394.003633 -227.271194 
L 393.542707 -226.67802 
L 393.081781 -226.086081 
L 392.620854 -225.495378 
L 392.159928 -224.905909 
L 391.699002 -224.317673 
L 391.238076 -223.73067 
L 390.77715 -223.144898 
L 390.316224 -222.560356 
L 389.855297 -221.977043 
L 389.394371 -221.394959 
L 388.933445 -220.814103 
L 388.472519 -220.234472 
L 388.011593 -219.656067 
L 387.550667 -219.078887 
L 387.08974 -218.50293 
L 386.628814 -217.928196 
L 386.167888 -217.354683 
L 385.706962 -216.782391 
L 385.246036 -216.211318 
L 384.78511 -215.641464 
L 384.324184 -215.072828 
L 383.863257 -214.505408 
L 383.402331 -213.939205 
L 382.941405 -213.374215 
L 382.480479 -212.81044 
L 382.019553 -212.247877 
L 381.558627 -211.686527 
L 381.0977 -211.126387 
L 380.636774 -210.567457 
L 380.175848 -210.009735 
L 379.714922 -209.453222 
L 379.253996 -208.897915 
L 378.79307 -208.343815 
L 378.332143 -207.790919 
L 377.871217 -207.239227 
L 377.410291 -206.688738 
L 376.949365 -206.139452 
L 376.488439 -205.591366 
L 376.027513 -205.04448 
L 375.566587 -204.498793 
L 375.10566 -203.954304 
L 374.644734 -203.411013 
L 374.183808 -202.868917 
L 373.722882 -202.328017 
L 373.261956 -201.78831 
L 372.80103 -201.249797 
L 372.340103 -200.712475 
L 371.879177 -200.176345 
L 371.418251 -199.641405 
L 370.957325 -199.107654 
L 370.496399 -198.575091 
L 370.035473 -198.043716 
L 369.574547 -197.513526 
L 369.11362 -196.984522 
L 368.652694 -196.456702 
L 368.191768 -195.930065 
L 367.730842 -195.40461 
L 367.269916 -194.880336 
L 366.80899 -194.357243 
L 366.348063 -193.835329 
L 365.887137 -193.314592 
L 365.426211 -192.795034 
L 364.965285 -192.276651 
L 364.504359 -191.759443 
L 364.043433 -191.24341 
L 363.582506 -190.72855 
L 363.12158 -190.214862 
L 362.660654 -189.702345 
L 362.199728 -189.190999 
L 361.738802 -188.680822 
L 361.277876 -188.171812 
L 360.81695 -187.663971 
L 360.356023 -187.157295 
L 359.895097 -186.651784 
L 359.434171 -186.147438 
L 358.973245 -185.644254 
L 358.512319 -185.142233 
L 358.051393 -184.641373 
L 357.590466 -184.141674 
L 357.12954 -183.643133 
L 356.668614 -183.14575 
L 356.207688 -182.649525 
L 355.746762 -182.154456 
L 355.285836 -181.660542 
L 354.824909 -181.167781 
L 354.363983 -180.676174 
L 353.903057 -180.185719 
L 353.442131 -179.696415 
L 352.981205 -179.208262 
L 352.520279 -178.721257 
L 352.059353 -178.2354 
L 351.598426 -177.75069 
L 351.1375 -177.267126 
L 350.676574 -176.784707 
L 350.215648 -176.303432 
L 349.754722 -175.8233 
L 349.293796 -175.34431 
L 348.832869 -174.866461 
L 348.371943 -174.389752 
L 347.911017 -173.914181 
L 347.450091 -173.439749 
L 346.989165 -172.966453 
L 346.528239 -172.494293 
L 346.067312 -172.023268 
L 345.606386 -171.553376 
L 345.14546 -171.084618 
L 344.684534 -170.616991 
L 344.223608 -170.150494 
L 343.762682 -169.685128 
L 343.301756 -169.22089 
L 342.840829 -168.757779 
L 342.379903 -168.295795 
L 341.918977 -167.834937 
L 341.458051 -167.375203 
L 340.997125 -166.916593 
L 340.536199 -166.459105 
L 340.075272 -166.002739 
L 339.614346 -165.547493 
L 339.15342 -165.093366 
L 338.692494 -164.640358 
L 338.231568 -164.188467 
L 337.770642 -163.737693 
L 337.309715 -163.288033 
L 336.848789 -162.839488 
L 336.387863 -162.392056 
L 335.926937 -161.945737 
L 335.466011 -161.500528 
L 335.005085 -161.056429 
L 334.544159 -160.61344 
L 334.083232 -160.171558 
L 333.622306 -159.730784 
L 333.16138 -159.291115 
L 332.700454 -158.852551 
L 332.239528 -158.415091 
L 331.778602 -157.978734 
L 331.317675 -157.543479 
L 330.856749 -157.109325 
L 330.395823 -156.67627 
L 329.934897 -156.244313 
L 329.473971 -155.813455 
L 329.013045 -155.383693 
L 328.552118 -154.955026 
L 328.091192 -154.527454 
L 327.630266 -154.100975 
L 327.16934 -153.675589 
L 326.708414 -153.251294 
L 326.247488 -152.82809 
L 325.786562 -152.405974 
L 325.325635 -151.984947 
L 324.864709 -151.565007 
L 324.403783 -151.146153 
L 323.942857 -150.728384 
L 323.481931 -150.311699 
L 323.021005 -149.896097 
L 322.560078 -149.481577 
L 322.099152 -149.068137 
L 321.638226 -148.655778 
L 321.1773 -148.244497 
L 320.716374 -147.834294 
L 320.255448 -147.425167 
L 319.794521 -147.017116 
L 319.333595 -146.61014 
L 318.872669 -146.204237 
L 318.411743 -145.799406 
L 317.950817 -145.395647 
L 317.489891 -144.992958 
L 317.028965 -144.591338 
L 316.568038 -144.190786 
L 316.107112 -143.791302 
L 315.646186 -143.392883 
L 315.18526 -142.99553 
L 314.724334 -142.59924 
L 314.263408 -142.204013 
L 313.802481 -141.809848 
L 313.341555 -141.416744 
L 312.880629 -141.024699 
L 312.419703 -140.633713 
L 311.958777 -140.243784 
L 311.497851 -139.854912 
L 311.036924 -139.467095 
L 310.575998 -139.080333 
L 310.115072 -138.694624 
L 309.654146 -138.309967 
L 309.19322 -137.926361 
L 308.732294 -137.543805 
L 308.271368 -137.162298 
L 307.810441 -136.781839 
L 307.349515 -136.402427 
L 306.888589 -136.02406 
L 306.427663 -135.646738 
L 305.966737 -135.27046 
L 305.505811 -134.895225 
L 305.044884 -134.52103 
L 304.583958 -134.147876 
L 304.123032 -133.775762 
L 303.662106 -133.404686 
L 303.20118 -133.034646 
L 302.740254 -132.665643 
L 302.279327 -132.297675 
L 301.818401 -131.930741 
L 301.357475 -131.564839 
L 300.896549 -131.19997 
L 300.435623 -130.836131 
L 299.974697 -130.473321 
L 299.513771 -130.11154 
L 299.052844 -129.750787 
L 298.591918 -129.39106 
L 298.130992 -129.032358 
L 297.670066 -128.67468 
L 297.20914 -128.318025 
L 296.748214 -127.962393 
L 296.287287 -127.607781 
L 295.826361 -127.254189 
L 295.365435 -126.901615 
L 294.904509 -126.55006 
L 294.443583 -126.199521 
L 293.982657 -125.849997 
L 293.52173 -125.501488 
L 293.060804 -125.153992 
L 292.599878 -124.807508 
L 292.138952 -124.462036 
L 291.678026 -124.117573 
L 291.2171 -123.774119 
L 290.756174 -123.431673 
L 290.295247 -123.090234 
L 289.834321 -122.749801 
L 289.373395 -122.410372 
L 288.912469 -122.071946 
L 288.451543 -121.734523 
L 287.990617 -121.398101 
L 287.52969 -121.062679 
L 287.068764 -120.728257 
L 286.607838 -120.394832 
L 286.146912 -120.062404 
L 285.685986 -119.730972 
L 285.22506 -119.400534 
L 284.764133 -119.07109 
L 284.303207 -118.742639 
L 283.842281 -118.415179 
L 283.381355 -118.088709 
L 282.920429 -117.763228 
L 282.459503 -117.438735 
L 281.998577 -117.11523 
L 281.53765 -116.79271 
L 281.076724 -116.471175 
L 280.615798 -116.150623 
L 280.154872 -115.831054 
L 279.693946 -115.512467 
z
" style="stroke: #e67e22; stroke-opacity: 0.12"/>
    </defs>
    <g clip-path="url(#p479a4182b4)">
     <use xlink:href="#m1107b98937" x="0" y="302.029937" style="fill: #e67e22; fill-opacity: 0.12; stroke: #e67e22; stroke-opacity: 0.12"/>
    </g>
   </g>
   <g id="line2d_23">
    <path d="M 113.668344 258.701969 
L 113.668344 31.397969 
" clip-path="url(#p479a4182b4)" style="fill: none; stroke-dasharray: 4.44,1.92; stroke-dashoffset: 0; stroke: #34495e; stroke-opacity: 0.6; stroke-width: 1.2"/>
   </g>
   <g id="line2d_24">
    <path d="M 279.394344 258.701969 
L 279.394344 31.397969 
" clip-path="url(#p479a4182b4)" style="fill: none; stroke-dasharray: 4.44,1.92; stroke-dashoffset: 0; stroke: #34495e; stroke-opacity: 0.6; stroke-width: 1.2"/>
   </g>
   <g id="patch_3">
    <path d="M 40.012344 258.701969 
L 40.012344 31.397969 
" style="fill: none; stroke: #2c3e50; stroke-width: 1.2; stroke-linejoin: miter; stroke-linecap: square"/>
   </g>
   <g id="patch_4">
    <path d="M 40.012344 258.701969 
L 408.292344 258.701969 
" style="fill: none; stroke: #2c3e50; stroke-width: 1.2; stroke-linejoin: miter; stroke-linecap: square"/>
   </g>
   <g id="text_14">
    <!-- mortalidad -->
    <g style="fill: #c0392b" transform="translate(49.088703 54.147842) scale(0.09 -0.09)">
     <defs>
      <path id="DejaVuSans-Bold-72" d="M 3138 2547 
Q 2991 2616 2845 2648 
Q 2700 2681 2553 2681 
Q 2122 2681 1889 2404 
Q 1656 2128 1656 1613 
L 1656 0 
L 538 0 
L 538 3500 
L 1656 3500 
L 1656 2925 
Q 1872 3269 2151 3426 
Q 2431 3584 2822 3584 
Q 2878 3584 2943 3579 
Q 3009 3575 3134 3559 
L 3138 2547 
z
" transform="scale(0.015625)"/>
      <path id="DejaVuSans-Bold-6c" d="M 538 4863 
L 1656 4863 
L 1656 0 
L 538 0 
L 538 4863 
z
" transform="scale(0.015625)"/>
     </defs>
     <use xlink:href="#DejaVuSans-Bold-6d"/>
     <use xlink:href="#DejaVuSans-Bold-6f" x="104.199219"/>
     <use xlink:href="#DejaVuSans-Bold-72" x="172.900391"/>
     <use xlink:href="#DejaVuSans-Bold-74" x="222.216797"/>
     <use xlink:href="#DejaVuSans-Bold-61" x="270.019531"/>
     <use xlink:href="#DejaVuSans-Bold-6c" x="337.5"/>
     <use xlink:href="#DejaVuSans-Bold-69" x="371.777344"/>
     <use xlink:href="#DejaVuSans-Bold-64" x="406.054688"/>
     <use xlink:href="#DejaVuSans-Bold-61" x="477.636719"/>
     <use xlink:href="#DejaVuSans-Bold-64" x="545.117188"/>
    </g>
    <!-- infantil -->
    <g style="fill: #c0392b" transform="translate(58.660344 64.225874) scale(0.09 -0.09)">
     <defs>
      <path id="DejaVuSans-Bold-6e" d="M 4056 2131 
L 4056 0 
L 2931 0 
L 2931 347 
L 2931 1631 
Q 2931 2084 2911 2256 
Q 2891 2428 2841 2509 
Q 2775 2619 2662 2680 
Q 2550 2741 2406 2741 
Q 2056 2741 1856 2470 
Q 1656 2200 1656 1722 
L 1656 0 
L 538 0 
L 538 3500 
L 1656 3500 
L 1656 2988 
Q 1909 3294 2193 3439 
Q 2478 3584 2822 3584 
Q 3428 3584 3742 3212 
Q 4056 2841 4056 2131 
z
" transform="scale(0.015625)"/>
      <path id="DejaVuSans-Bold-66" d="M 2841 4863 
L 2841 4128 
L 2222 4128 
Q 1984 4128 1890 4042 
Q 1797 3956 1797 3744 
L 1797 3500 
L 2753 3500 
L 2753 2700 
L 1797 2700 
L 1797 0 
L 678 0 
L 678 2700 
L 122 2700 
L 122 3500 
L 678 3500 
L 678 3744 
Q 678 4316 997 4589 
Q 1316 4863 1984 4863 
L 2841 4863 
z
" transform="scale(0.015625)"/>
     </defs>
     <use xlink:href="#DejaVuSans-Bold-69"/>
     <use xlink:href="#DejaVuSans-Bold-6e" x="34.277344"/>
     <use xlink:href="#DejaVuSans-Bold-66" x="105.46875"/>
     <use xlink:href="#DejaVuSans-Bold-61" x="148.974609"/>
     <use xlink:href="#DejaVuSans-Bold-6e" x="216.455078"/>
     <use xlink:href="#DejaVuSans-Bold-74" x="287.646484"/>
     <use xlink:href="#DejaVuSans-Bold-69" x="335.449219"/>
     <use xlink:href="#DejaVuSans-Bold-6c" x="369.726562"/>
    </g>
    <!-- (decreciente) -->
    <g style="fill: #c0392b" transform="translate(42.845656 74.303905) scale(0.09 -0.09)">
     <defs>
      <path id="DejaVuSans-Bold-63" d="M 3366 3391 
L 3366 2478 
Q 3138 2634 2908 2709 
Q 2678 2784 2431 2784 
Q 1963 2784 1702 2511 
Q 1441 2238 1441 1747 
Q 1441 1256 1702 982 
Q 1963 709 2431 709 
Q 2694 709 2930 787 
Q 3166 866 3366 1019 
L 3366 103 
Q 3103 6 2833 -42 
Q 2563 -91 2291 -91 
Q 1344 -91 809 395 
Q 275 881 275 1747 
Q 275 2613 809 3098 
Q 1344 3584 2291 3584 
Q 2566 3584 2833 3536 
Q 3100 3488 3366 3391 
z
" transform="scale(0.015625)"/>
     </defs>
     <use xlink:href="#DejaVuSans-Bold-28"/>
     <use xlink:href="#DejaVuSans-Bold-64" x="45.703125"/>
     <use xlink:href="#DejaVuSans-Bold-65" x="117.285156"/>
     <use xlink:href="#DejaVuSans-Bold-63" x="185.107422"/>
     <use xlink:href="#DejaVuSans-Bold-72" x="244.384766"/>
     <use xlink:href="#DejaVuSans-Bold-65" x="293.701172"/>
     <use xlink:href="#DejaVuSans-Bold-63" x="361.523438"/>
     <use xlink:href="#DejaVuSans-Bold-69" x="420.800781"/>
     <use xlink:href="#DejaVuSans-Bold-65" x="455.078125"/>
     <use xlink:href="#DejaVuSans-Bold-6e" x="522.900391"/>
     <use xlink:href="#DejaVuSans-Bold-74" x="594.091797"/>
     <use xlink:href="#DejaVuSans-Bold-65" x="641.894531"/>
     <use xlink:href="#DejaVuSans-Bold-29" x="709.716797"/>
    </g>
   </g>
   <g id="text_15">
    <!-- vida útil -->
    <g style="fill: #27ae60" transform="translate(175.791266 54.147842) scale(0.09 -0.09)">
     <defs>
      <path id="DejaVuSans-Bold-76" d="M 97 3500 
L 1216 3500 
L 2088 1081 
L 2956 3500 
L 4078 3500 
L 2700 0 
L 1472 0 
L 97 3500 
z
" transform="scale(0.015625)"/>
      <path id="DejaVuSans-Bold-fa" d="M 500 1363 
L 500 3500 
L 1625 3500 
L 1625 3150 
Q 1625 2866 1622 2436 
Q 1619 2006 1619 1863 
Q 1619 1441 1641 1255 
Q 1663 1069 1716 984 
Q 1784 875 1895 815 
Q 2006 756 2150 756 
Q 2500 756 2700 1025 
Q 2900 1294 2900 1772 
L 2900 3500 
L 4019 3500 
L 4019 0 
L 2900 0 
L 2900 506 
Q 2647 200 2364 54 
Q 2081 -91 1741 -91 
Q 1134 -91 817 281 
Q 500 653 500 1363 
z
M 2782 5119 
L 3666 5119 
L 2513 3944 
L 1901 3944 
L 2782 5119 
z
" transform="scale(0.015625)"/>
     </defs>
     <use xlink:href="#DejaVuSans-Bold-76"/>
     <use xlink:href="#DejaVuSans-Bold-69" x="65.185547"/>
     <use xlink:href="#DejaVuSans-Bold-64" x="99.462891"/>
     <use xlink:href="#DejaVuSans-Bold-61" x="171.044922"/>
     <use xlink:href="#DejaVuSans-Bold-20" x="238.525391"/>
     <use xlink:href="#DejaVuSans-Bold-fa" x="273.339844"/>
     <use xlink:href="#DejaVuSans-Bold-74" x="344.53125"/>
     <use xlink:href="#DejaVuSans-Bold-69" x="392.333984"/>
     <use xlink:href="#DejaVuSans-Bold-6c" x="426.611328"/>
    </g>
    <!-- (≈ constante) -->
    <g style="fill: #27ae60" transform="translate(161.845484 64.225874) scale(0.09 -0.09)">
     <defs>
      <path id="DejaVuSans-Bold-2248" d="M 4684 3309 
L 4684 2547 
Q 4353 2297 4073 2189 
Q 3794 2081 3494 2081 
Q 3159 2081 2713 2263 
Q 2669 2281 2644 2291 
Q 2622 2300 2575 2319 
Q 2091 2509 1797 2509 
Q 1522 2509 1253 2389 
Q 984 2269 678 2009 
L 678 2772 
Q 1006 3016 1286 3123 
Q 1566 3231 1869 3231 
Q 2213 3231 2672 3047 
Q 2703 3034 2719 3028 
Q 2744 3019 2788 3000 
Q 3272 2809 3566 2809 
Q 3834 2809 4098 2926 
Q 4363 3044 4684 3309 
z
M 4684 2003 
L 4684 1241 
Q 4353 991 4073 883 
Q 3794 775 3494 775 
Q 3159 775 2713 956 
Q 2669 975 2641 988 
Q 2622 994 2575 1013 
Q 2091 1203 1797 1203 
Q 1522 1203 1253 1084 
Q 984 966 678 703 
L 678 1466 
Q 1013 1716 1291 1823 
Q 1569 1931 1869 1931 
Q 2203 1931 2650 1750 
Q 2697 1731 2719 1722 
Q 2744 1713 2788 1697 
Q 3272 1503 3566 1503 
Q 3834 1503 4098 1620 
Q 4363 1738 4684 2003 
z
" transform="scale(0.015625)"/>
      <path id="DejaVuSans-Bold-73" d="M 3272 3391 
L 3272 2541 
Q 2913 2691 2578 2766 
Q 2244 2841 1947 2841 
Q 1628 2841 1473 2761 
Q 1319 2681 1319 2516 
Q 1319 2381 1436 2309 
Q 1553 2238 1856 2203 
L 2053 2175 
Q 2913 2066 3209 1816 
Q 3506 1566 3506 1031 
Q 3506 472 3093 190 
Q 2681 -91 1863 -91 
Q 1516 -91 1145 -36 
Q 775 19 384 128 
L 384 978 
Q 719 816 1070 734 
Q 1422 653 1784 653 
Q 2113 653 2278 743 
Q 2444 834 2444 1013 
Q 2444 1163 2330 1236 
Q 2216 1309 1875 1350 
L 1678 1375 
Q 931 1469 631 1722 
Q 331 1975 331 2491 
Q 331 3047 712 3315 
Q 1094 3584 1881 3584 
Q 2191 3584 2531 3537 
Q 2872 3491 3272 3391 
z
" transform="scale(0.015625)"/>
     </defs>
     <use xlink:href="#DejaVuSans-Bold-28"/>
     <use xlink:href="#DejaVuSans-Bold-2248" x="45.703125"/>
     <use xlink:href="#DejaVuSans-Bold-20" x="129.492188"/>
     <use xlink:href="#DejaVuSans-Bold-63" x="164.306641"/>
     <use xlink:href="#DejaVuSans-Bold-6f" x="223.583984"/>
     <use xlink:href="#DejaVuSans-Bold-6e" x="292.285156"/>
     <use xlink:href="#DejaVuSans-Bold-73" x="363.476562"/>
     <use xlink:href="#DejaVuSans-Bold-74" x="422.998047"/>
     <use xlink:href="#DejaVuSans-Bold-61" x="470.800781"/>
     <use xlink:href="#DejaVuSans-Bold-6e" x="538.28125"/>
     <use xlink:href="#DejaVuSans-Bold-74" x="609.472656"/>
     <use xlink:href="#DejaVuSans-Bold-65" x="657.275391"/>
     <use xlink:href="#DejaVuSans-Bold-29" x="725.097656"/>
    </g>
   </g>
   <g id="text_16">
    <!-- desgaste -->
    <g style="fill: #e67e22" transform="translate(320.752719 54.147842) scale(0.09 -0.09)">
     <defs>
      <path id="DejaVuSans-Bold-67" d="M 2919 594 
Q 2688 288 2409 144 
Q 2131 0 1766 0 
Q 1125 0 706 504 
Q 288 1009 288 1791 
Q 288 2575 706 3076 
Q 1125 3578 1766 3578 
Q 2131 3578 2409 3434 
Q 2688 3291 2919 2981 
L 2919 3500 
L 4044 3500 
L 4044 353 
Q 4044 -491 3511 -936 
Q 2978 -1381 1966 -1381 
Q 1638 -1381 1331 -1331 
Q 1025 -1281 716 -1178 
L 716 -306 
Q 1009 -475 1290 -558 
Q 1572 -641 1856 -641 
Q 2406 -641 2662 -400 
Q 2919 -159 2919 353 
L 2919 594 
z
M 2181 2772 
Q 1834 2772 1640 2515 
Q 1447 2259 1447 1791 
Q 1447 1309 1634 1061 
Q 1822 813 2181 813 
Q 2531 813 2725 1069 
Q 2919 1325 2919 1791 
Q 2919 2259 2725 2515 
Q 2531 2772 2181 2772 
z
" transform="scale(0.015625)"/>
     </defs>
     <use xlink:href="#DejaVuSans-Bold-64"/>
     <use xlink:href="#DejaVuSans-Bold-65" x="71.582031"/>
     <use xlink:href="#DejaVuSans-Bold-73" x="139.404297"/>
     <use xlink:href="#DejaVuSans-Bold-67" x="198.925781"/>
     <use xlink:href="#DejaVuSans-Bold-61" x="270.507812"/>
     <use xlink:href="#DejaVuSans-Bold-73" x="337.988281"/>
     <use xlink:href="#DejaVuSans-Bold-74" x="397.509766"/>
     <use xlink:href="#DejaVuSans-Bold-65" x="445.3125"/>
    </g>
    <!-- (creciente) -->
    <g style="fill: #e67e22" transform="translate(316.121938 64.296186) scale(0.09 -0.09)">
     <use xlink:href="#DejaVuSans-Bold-28"/>
     <use xlink:href="#DejaVuSans-Bold-63" x="45.703125"/>
     <use xlink:href="#DejaVuSans-Bold-72" x="104.980469"/>
     <use xlink:href="#DejaVuSans-Bold-65" x="154.296875"/>
     <use xlink:href="#DejaVuSans-Bold-63" x="222.119141"/>
     <use xlink:href="#DejaVuSans-Bold-69" x="281.396484"/>
     <use xlink:href="#DejaVuSans-Bold-65" x="315.673828"/>
     <use xlink:href="#DejaVuSans-Bold-6e" x="383.496094"/>
     <use xlink:href="#DejaVuSans-Bold-74" x="454.6875"/>
     <use xlink:href="#DejaVuSans-Bold-65" x="502.490234"/>
     <use xlink:href="#DejaVuSans-Bold-29" x="570.3125"/>
    </g>
   </g>
   <g id="text_17">
    <!-- Curva de bañera: tasa de fallas $h(t)$ -->
    <g transform="translate(95.517344 21.397969) scale(0.13 -0.13)">
     <defs>
      <path id="DejaVuSans-Bold-43" d="M 4288 256 
Q 3956 84 3597 -3 
Q 3238 -91 2847 -91 
Q 1681 -91 1000 561 
Q 319 1213 319 2328 
Q 319 3447 1000 4098 
Q 1681 4750 2847 4750 
Q 3238 4750 3597 4662 
Q 3956 4575 4288 4403 
L 4288 3438 
Q 3953 3666 3628 3772 
Q 3303 3878 2944 3878 
Q 2300 3878 1931 3465 
Q 1563 3053 1563 2328 
Q 1563 1606 1931 1193 
Q 2300 781 2944 781 
Q 3303 781 3628 887 
Q 3953 994 4288 1222 
L 4288 256 
z
" transform="scale(0.015625)"/>
      <path id="DejaVuSans-Bold-75" d="M 500 1363 
L 500 3500 
L 1625 3500 
L 1625 3150 
Q 1625 2866 1622 2436 
Q 1619 2006 1619 1863 
Q 1619 1441 1641 1255 
Q 1663 1069 1716 984 
Q 1784 875 1895 815 
Q 2006 756 2150 756 
Q 2500 756 2700 1025 
Q 2900 1294 2900 1772 
L 2900 3500 
L 4019 3500 
L 4019 0 
L 2900 0 
L 2900 506 
Q 2647 200 2364 54 
Q 2081 -91 1741 -91 
Q 1134 -91 817 281 
Q 500 653 500 1363 
z
" transform="scale(0.015625)"/>
      <path id="DejaVuSans-Bold-62" d="M 2400 722 
Q 2759 722 2948 984 
Q 3138 1247 3138 1747 
Q 3138 2247 2948 2509 
Q 2759 2772 2400 2772 
Q 2041 2772 1848 2508 
Q 1656 2244 1656 1747 
Q 1656 1250 1848 986 
Q 2041 722 2400 722 
z
M 1656 2988 
Q 1888 3294 2169 3439 
Q 2450 3584 2816 3584 
Q 3463 3584 3878 3070 
Q 4294 2556 4294 1747 
Q 4294 938 3878 423 
Q 3463 -91 2816 -91 
Q 2450 -91 2169 54 
Q 1888 200 1656 506 
L 1656 0 
L 538 0 
L 538 4863 
L 1656 4863 
L 1656 2988 
z
" transform="scale(0.015625)"/>
      <path id="DejaVuSans-Bold-f1" d="M 4056 2131 
L 4056 0 
L 2931 0 
L 2931 347 
L 2931 1631 
Q 2931 2084 2911 2256 
Q 2891 2428 2841 2509 
Q 2775 2619 2662 2680 
Q 2550 2741 2406 2741 
Q 2056 2741 1856 2470 
Q 1656 2200 1656 1722 
L 1656 0 
L 538 0 
L 538 3500 
L 1656 3500 
L 1656 2988 
Q 1909 3294 2193 3439 
Q 2478 3584 2822 3584 
Q 3428 3584 3742 3212 
Q 4056 2841 4056 2131 
z
M 2366 4263 
L 2194 4378 
Q 2182 4384 2163 4397 
Q 2016 4494 1938 4494 
Q 1826 4494 1766 4397 
Q 1707 4300 1707 4116 
L 1707 4091 
L 1273 4091 
Q 1273 4516 1433 4747 
Q 1594 4978 1885 4978 
Q 1998 4978 2112 4936 
Q 2226 4894 2354 4800 
L 2544 4666 
Q 2613 4619 2671 4594 
Q 2729 4569 2776 4569 
Q 2888 4569 2950 4669 
Q 3013 4769 3013 4947 
L 3013 4972 
L 3448 4972 
Q 3448 4547 3287 4315 
Q 3126 4084 2835 4084 
Q 2723 4084 2618 4121 
Q 2513 4159 2366 4263 
z
" transform="scale(0.015625)"/>
      <path id="DejaVuSans-Bold-3a" d="M 716 3500 
L 1844 3500 
L 1844 2291 
L 716 2291 
L 716 3500 
z
M 716 1209 
L 1844 1209 
L 1844 0 
L 716 0 
L 716 1209 
z
" transform="scale(0.015625)"/>
     </defs>
     <use xlink:href="#DejaVuSans-Bold-43" transform="translate(0 0.21875)"/>
     <use xlink:href="#DejaVuSans-Bold-75" transform="translate(73.388672 0.21875)"/>
     <use xlink:href="#DejaVuSans-Bold-72" transform="translate(144.580078 0.21875)"/>
     <use xlink:href="#DejaVuSans-Bold-76" transform="translate(193.896484 0.21875)"/>
     <use xlink:href="#DejaVuSans-Bold-61" transform="translate(259.082031 0.21875)"/>
     <use xlink:href="#DejaVuSans-Bold-20" transform="translate(326.5625 0.21875)"/>
     <use xlink:href="#DejaVuSans-Bold-64" transform="translate(361.376953 0.21875)"/>
     <use xlink:href="#DejaVuSans-Bold-65" transform="translate(432.958984 0.21875)"/>
     <use xlink:href="#DejaVuSans-Bold-20" transform="translate(500.78125 0.21875)"/>
     <use xlink:href="#DejaVuSans-Bold-62" transform="translate(535.595703 0.21875)"/>
     <use xlink:href="#DejaVuSans-Bold-61" transform="translate(607.177734 0.21875)"/>
     <use xlink:href="#DejaVuSans-Bold-f1" transform="translate(674.658203 0.21875)"/>
     <use xlink:href="#DejaVuSans-Bold-65" transform="translate(745.849609 0.21875)"/>
     <use xlink:href="#DejaVuSans-Bold-72" transform="translate(813.671875 0.21875)"/>
     <use xlink:href="#DejaVuSans-Bold-61" transform="translate(862.988281 0.21875)"/>
     <use xlink:href="#DejaVuSans-Bold-3a" transform="translate(930.46875 0.21875)"/>
     <use xlink:href="#DejaVuSans-Bold-20" transform="translate(970.458984 0.21875)"/>
     <use xlink:href="#DejaVuSans-Bold-74" transform="translate(1005.273438 0.21875)"/>
     <use xlink:href="#DejaVuSans-Bold-61" transform="translate(1053.076172 0.21875)"/>
     <use xlink:href="#DejaVuSans-Bold-73" transform="translate(1120.556641 0.21875)"/>
     <use xlink:href="#DejaVuSans-Bold-61" transform="translate(1180.078125 0.21875)"/>
     <use xlink:href="#DejaVuSans-Bold-20" transform="translate(1247.558594 0.21875)"/>
     <use xlink:href="#DejaVuSans-Bold-64" transform="translate(1282.373047 0.21875)"/>
     <use xlink:href="#DejaVuSans-Bold-65" transform="translate(1353.955078 0.21875)"/>
     <use xlink:href="#DejaVuSans-Bold-20" transform="translate(1421.777344 0.21875)"/>
     <use xlink:href="#DejaVuSans-Bold-66" transform="translate(1456.591797 0.21875)"/>
     <use xlink:href="#DejaVuSans-Bold-61" transform="translate(1500.097656 0.21875)"/>
     <use xlink:href="#DejaVuSans-Bold-6c" transform="translate(1567.578125 0.21875)"/>
     <use xlink:href="#DejaVuSans-Bold-6c" transform="translate(1601.855469 0.21875)"/>
     <use xlink:href="#DejaVuSans-Bold-61" transform="translate(1636.132812 0.21875)"/>
     <use xlink:href="#DejaVuSans-Bold-73" transform="translate(1703.613281 0.21875)"/>
     <use xlink:href="#DejaVuSans-Bold-20" transform="translate(1763.134766 0.21875)"/>
     <use xlink:href="#DejaVuSans-Oblique-68" transform="translate(1797.949219 0.21875)"/>
     <use xlink:href="#DejaVuSans-28" transform="translate(1861.328125 0.21875)"/>
     <use xlink:href="#DejaVuSans-Oblique-74" transform="translate(1900.341797 0.21875)"/>
     <use xlink:href="#DejaVuSans-29" transform="translate(1939.550781 0.21875)"/>
    </g>
   </g>
   <g id="line2d_25">
    <path d="M 40.012344 211.090611 
L 42.777901 214.988545 
L 45.543458 218.495065 
L 48.309015 221.647709 
L 51.074572 224.480405 
L 53.840128 227.023731 
L 57.066612 229.661774 
L 60.293095 231.982291 
L 63.519578 234.019722 
L 66.746061 235.804475 
L 70.43347 237.56907 
L 74.120879 239.073624 
L 77.808289 240.348485 
L 81.956624 241.540707 
L 86.10496 242.507433 
L 90.714221 243.350053 
L 95.784409 244.031353 
L 100.854597 244.488561 
L 106.38571 244.76449 
L 112.377751 244.833659 
L 118.830717 244.673247 
L 125.744609 244.261706 
L 132.658501 243.627021 
L 140.03332 242.724742 
L 147.408138 241.605144 
L 155.243883 240.189007 
L 163.079628 238.546847 
L 170.915373 236.682586 
L 178.751117 234.597425 
L 186.586862 232.290583 
L 194.422607 229.759839 
L 202.258351 227.001926 
L 210.094096 224.012831 
L 217.929841 220.788013 
L 225.765585 217.322564 
L 233.60133 213.611323 
L 241.437075 209.648966 
L 249.272819 205.43007 
L 257.108564 200.949155 
L 264.944309 196.20072 
L 272.780053 191.179267 
L 280.615798 185.879314 
L 288.451543 180.295414 
L 296.287287 174.422157 
L 304.123032 168.254176 
L 311.958777 161.786153 
L 319.794521 155.012821 
L 327.630266 147.928962 
L 335.466011 140.52941 
L 343.301756 132.809048 
L 351.1375 124.762811 
L 358.973245 116.385683 
L 366.80899 107.672695 
L 374.644734 98.618925 
L 382.480479 89.219497 
L 390.316224 79.469582 
L 398.151968 69.364389 
L 405.987713 58.899175 
L 408.292344 55.751969 
L 408.292344 55.751969 
" clip-path="url(#p479a4182b4)" style="fill: none; stroke: #2980b9; stroke-width: 2.8; stroke-linecap: square"/>
   </g>
  </g>
 </g>
 <defs>
  <clipPath id="p479a4182b4">
   <rect x="40.012344" y="31.397969" width="368.28" height="227.304"/>
  </clipPath>
 </defs>
</svg>
