<?xml version="1.0" encoding="utf-8" standalone="no"?>
<!DOCTYPE svg PUBLIC "-//W3C//DTD SVG 1.1//EN"
  "http://www.w3.org/Graphics/SVG/1.1/DTD/svg11.dtd">
<svg xmlns:xlink="http://www.w3.org/1999/xlink" width="432.534219pt" height="302.029937pt" viewBox="0 0 432.534219 302.029937" xmlns="http://www.w3.org/2000/svg" version="1.1">
 <metadata>
  <rdf:RDF xmlns:dc="http://purl.org/dc/elements/1.1/" xmlns:cc="http://creativecommons.org/ns#" xmlns:rdf="http://www.w3.org/1999/02/22-rdf-syntax-ns#">
   <cc:Work>
    <dc:type rdf:resource="http://purl.org/dc/dcmitype/StillImage"/>
    <dc:date>2026-06-30T11:53:10.851266</dc:date>
    <dc:format>image/svg+xml</dc:format>
    <dc:creator>
     <cc:Agent>
      <dc:title>Matplotlib v3.9.2, https://matplotlib.org/</dc:title>
     </cc:Agent>
    </dc:creator>
   </cc:Work>
  </rdf:RDF>
 </metadata>
 <defs>
  <style type="text/css">*{stroke-linejoin: round; stroke-linecap: butt}</style>
 </defs>
 <g id="figure_1">
  <g id="patch_1">
   <path d="M 0 302.029937 
L 432.534219 302.029937 
L 432.534219 0 
L 0 0 
z
" style="fill: #ffffff"/>
  </g>
  <g id="axes_1">
   <g id="patch_2">
    <path d="M 49.552969 258.701969 
L 417.832969 258.701969 
L 417.832969 31.397969 
L 49.552969 31.397969 
z
" style="fill: #ffffff"/>
   </g>
   <g id="matplotlib.axis_1">
    <g id="xtick_1">
     <g id="line2d_1">
      <path d="M 49.552969 258.701969 
L 49.552969 31.397969 
" clip-path="url(#pcd5f3d5672)" style="fill: none; stroke-dasharray: 0.8,1.28; stroke-dashoffset: 0; stroke: #b0b0b0; stroke-opacity: 0.3; stroke-width: 0.8"/>
     </g>
     <g id="line2d_2">
      <defs>
       <path id="mb8f1bdd0b7" d="M 0 0 
L 0 3.5 
" style="stroke: #2c3e50; stroke-width: 0.8"/>
      </defs>
      <g>
       <use xlink:href="#mb8f1bdd0b7" x="49.552969" y="258.701969" style="fill: #2c3e50; stroke: #2c3e50; stroke-width: 0.8"/>
      </g>
     </g>
     <g id="text_1">
      <!-- 0 -->
      <g style="fill: #2c3e50" transform="translate(46.371719 273.300406) scale(0.1 -0.1)">
       <defs>
        <path id="DejaVuSans-30" d="M 2034 4250 
Q 1547 4250 1301 3770 
Q 1056 3291 1056 2328 
Q 1056 1369 1301 889 
Q 1547 409 2034 409 
Q 2525 409 2770 889 
Q 3016 1369 3016 2328 
Q 3016 3291 2770 3770 
Q 2525 4250 2034 4250 
z
M 2034 4750 
Q 2819 4750 3233 4129 
Q 3647 3509 3647 2328 
Q 3647 1150 3233 529 
Q 2819 -91 2034 -91 
Q 1250 -91 836 529 
Q 422 1150 422 2328 
Q 422 3509 836 4129 
Q 1250 4750 2034 4750 
z
" transform="scale(0.015625)"/>
       </defs>
       <use xlink:href="#DejaVuSans-30"/>
      </g>
     </g>
    </g>
    <g id="xtick_2">
     <g id="line2d_3">
      <path d="M 110.932969 258.701969 
L 110.932969 31.397969 
" clip-path="url(#pcd5f3d5672)" style="fill: none; stroke-dasharray: 0.8,1.28; stroke-dashoffset: 0; stroke: #b0b0b0; stroke-opacity: 0.3; stroke-width: 0.8"/>
     </g>
     <g id="line2d_4">
      <g>
       <use xlink:href="#mb8f1bdd0b7" x="110.932969" y="258.701969" style="fill: #2c3e50; stroke: #2c3e50; stroke-width: 0.8"/>
      </g>
     </g>
     <g id="text_2">
      <!-- 1 -->
      <g style="fill: #2c3e50" transform="translate(107.751719 273.300406) scale(0.1 -0.1)">
       <defs>
        <path id="DejaVuSans-31" d="M 794 531 
L 1825 531 
L 1825 4091 
L 703 3866 
L 703 4441 
L 1819 4666 
L 2450 4666 
L 2450 531 
L 3481 531 
L 3481 0 
L 794 0 
L 794 531 
z
" transform="scale(0.015625)"/>
       </defs>
       <use xlink:href="#DejaVuSans-31"/>
      </g>
     </g>
    </g>
    <g id="xtick_3">
     <g id="line2d_5">
      <path d="M 172.312969 258.701969 
L 172.312969 31.397969 
" clip-path="url(#pcd5f3d5672)" style="fill: none; stroke-dasharray: 0.8,1.28; stroke-dashoffset: 0; stroke: #b0b0b0; stroke-opacity: 0.3; stroke-width: 0.8"/>
     </g>
     <g id="line2d_6">
      <g>
       <use xlink:href="#mb8f1bdd0b7" x="172.312969" y="258.701969" style="fill: #2c3e50; stroke: #2c3e50; stroke-width: 0.8"/>
      </g>
     </g>
     <g id="text_3">
      <!-- 2 -->
      <g style="fill: #2c3e50" transform="translate(169.131719 273.300406) scale(0.1 -0.1)">
       <defs>
        <path id="DejaVuSans-32" d="M 1228 531 
L 3431 531 
L 3431 0 
L 469 0 
L 469 531 
Q 828 903 1448 1529 
Q 2069 2156 2228 2338 
Q 2531 2678 2651 2914 
Q 2772 3150 2772 3378 
Q 2772 3750 2511 3984 
Q 2250 4219 1831 4219 
Q 1534 4219 1204 4116 
Q 875 4013 500 3803 
L 500 4441 
Q 881 4594 1212 4672 
Q 1544 4750 1819 4750 
Q 2544 4750 2975 4387 
Q 3406 4025 3406 3419 
Q 3406 3131 3298 2873 
Q 3191 2616 2906 2266 
Q 2828 2175 2409 1742 
Q 1991 1309 1228 531 
z
" transform="scale(0.015625)"/>
       </defs>
       <use xlink:href="#DejaVuSans-32"/>
      </g>
     </g>
    </g>
    <g id="xtick_4">
     <g id="line2d_7">
      <path d="M 233.692969 258.701969 
L 233.692969 31.397969 
" clip-path="url(#pcd5f3d5672)" style="fill: none; stroke-dasharray: 0.8,1.28; stroke-dashoffset: 0; stroke: #b0b0b0; stroke-opacity: 0.3; stroke-width: 0.8"/>
     </g>
     <g id="line2d_8">
      <g>
       <use xlink:href="#mb8f1bdd0b7" x="233.692969" y="258.701969" style="fill: #2c3e50; stroke: #2c3e50; stroke-width: 0.8"/>
      </g>
     </g>
     <g id="text_4">
      <!-- 3 -->
      <g style="fill: #2c3e50" transform="translate(230.511719 273.300406) scale(0.1 -0.1)">
       <defs>
        <path id="DejaVuSans-33" d="M 2597 2516 
Q 3050 2419 3304 2112 
Q 3559 1806 3559 1356 
Q 3559 666 3084 287 
Q 2609 -91 1734 -91 
Q 1441 -91 1130 -33 
Q 819 25 488 141 
L 488 750 
Q 750 597 1062 519 
Q 1375 441 1716 441 
Q 2309 441 2620 675 
Q 2931 909 2931 1356 
Q 2931 1769 2642 2001 
Q 2353 2234 1838 2234 
L 1294 2234 
L 1294 2753 
L 1863 2753 
Q 2328 2753 2575 2939 
Q 2822 3125 2822 3475 
Q 2822 3834 2567 4026 
Q 2313 4219 1838 4219 
Q 1578 4219 1281 4162 
Q 984 4106 628 3988 
L 628 4550 
Q 988 4650 1302 4700 
Q 1616 4750 1894 4750 
Q 2613 4750 3031 4423 
Q 3450 4097 3450 3541 
Q 3450 3153 3228 2886 
Q 3006 2619 2597 2516 
z
" transform="scale(0.015625)"/>
       </defs>
       <use xlink:href="#DejaVuSans-33"/>
      </g>
     </g>
    </g>
    <g id="xtick_5">
     <g id="line2d_9">
      <path d="M 295.072969 258.701969 
L 295.072969 31.397969 
" clip-path="url(#pcd5f3d5672)" style="fill: none; stroke-dasharray: 0.8,1.28; stroke-dashoffset: 0; stroke: #b0b0b0; stroke-opacity: 0.3; stroke-width: 0.8"/>
     </g>
     <g id="line2d_10">
      <g>
       <use xlink:href="#mb8f1bdd0b7" x="295.072969" y="258.701969" style="fill: #2c3e50; stroke: #2c3e50; stroke-width: 0.8"/>
      </g>
     </g>
     <g id="text_5">
      <!-- 4 -->
      <g style="fill: #2c3e50" transform="translate(291.891719 273.300406) scale(0.1 -0.1)">
       <defs>
        <path id="DejaVuSans-34" d="M 2419 4116 
L 825 1625 
L 2419 1625 
L 2419 4116 
z
M 2253 4666 
L 3047 4666 
L 3047 1625 
L 3713 1625 
L 3713 1100 
L 3047 1100 
L 3047 0 
L 2419 0 
L 2419 1100 
L 313 1100 
L 313 1709 
L 2253 4666 
z
" transform="scale(0.015625)"/>
       </defs>
       <use xlink:href="#DejaVuSans-34"/>
      </g>
     </g>
    </g>
    <g id="xtick_6">
     <g id="line2d_11">
      <path d="M 356.452969 258.701969 
L 356.452969 31.397969 
" clip-path="url(#pcd5f3d5672)" style="fill: none; stroke-dasharray: 0.8,1.28; stroke-dashoffset: 0; stroke: #b0b0b0; stroke-opacity: 0.3; stroke-width: 0.8"/>
     </g>
     <g id="line2d_12">
      <g>
       <use xlink:href="#mb8f1bdd0b7" x="356.452969" y="258.701969" style="fill: #2c3e50; stroke: #2c3e50; stroke-width: 0.8"/>
      </g>
     </g>
     <g id="text_6">
      <!-- 5 -->
      <g style="fill: #2c3e50" transform="translate(353.271719 273.300406) scale(0.1 -0.1)">
       <defs>
        <path id="DejaVuSans-35" d="M 691 4666 
L 3169 4666 
L 3169 4134 
L 1269 4134 
L 1269 2991 
Q 1406 3038 1543 3061 
Q 1681 3084 1819 3084 
Q 2600 3084 3056 2656 
Q 3513 2228 3513 1497 
Q 3513 744 3044 326 
Q 2575 -91 1722 -91 
Q 1428 -91 1123 -41 
Q 819 9 494 109 
L 494 744 
Q 775 591 1075 516 
Q 1375 441 1709 441 
Q 2250 441 2565 725 
Q 2881 1009 2881 1497 
Q 2881 1984 2565 2268 
Q 2250 2553 1709 2553 
Q 1456 2553 1204 2497 
Q 953 2441 691 2322 
L 691 4666 
z
" transform="scale(0.015625)"/>
       </defs>
       <use xlink:href="#DejaVuSans-35"/>
      </g>
     </g>
    </g>
    <g id="xtick_7">
     <g id="line2d_13">
      <path d="M 417.832969 258.701969 
L 417.832969 31.397969 
" clip-path="url(#pcd5f3d5672)" style="fill: none; stroke-dasharray: 0.8,1.28; stroke-dashoffset: 0; stroke: #b0b0b0; stroke-opacity: 0.3; stroke-width: 0.8"/>
     </g>
     <g id="line2d_14">
      <g>
       <use xlink:href="#mb8f1bdd0b7" x="417.832969" y="258.701969" style="fill: #2c3e50; stroke: #2c3e50; stroke-width: 0.8"/>
      </g>
     </g>
     <g id="text_7">
      <!-- 6 -->
      <g style="fill: #2c3e50" transform="translate(414.651719 273.300406) scale(0.1 -0.1)">
       <defs>
        <path id="DejaVuSans-36" d="M 2113 2584 
Q 1688 2584 1439 2293 
Q 1191 2003 1191 1497 
Q 1191 994 1439 701 
Q 1688 409 2113 409 
Q 2538 409 2786 701 
Q 3034 994 3034 1497 
Q 3034 2003 2786 2293 
Q 2538 2584 2113 2584 
z
M 3366 4563 
L 3366 3988 
Q 3128 4100 2886 4159 
Q 2644 4219 2406 4219 
Q 1781 4219 1451 3797 
Q 1122 3375 1075 2522 
Q 1259 2794 1537 2939 
Q 1816 3084 2150 3084 
Q 2853 3084 3261 2657 
Q 3669 2231 3669 1497 
Q 3669 778 3244 343 
Q 2819 -91 2113 -91 
Q 1303 -91 875 529 
Q 447 1150 447 2328 
Q 447 3434 972 4092 
Q 1497 4750 2381 4750 
Q 2619 4750 2861 4703 
Q 3103 4656 3366 4563 
z
" transform="scale(0.015625)"/>
       </defs>
       <use xlink:href="#DejaVuSans-36"/>
      </g>
     </g>
    </g>
    <g id="text_8">
     <!-- Valor -->
     <g transform="translate(216.921836 288.118297) scale(0.115 -0.115)">
      <defs>
       <path id="DejaVuSans-Bold-56" d="M 31 4666 
L 1241 4666 
L 2478 1222 
L 3713 4666 
L 4922 4666 
L 3194 0 
L 1759 0 
L 31 4666 
z
" transform="scale(0.015625)"/>
       <path id="DejaVuSans-Bold-61" d="M 2106 1575 
Q 1756 1575 1579 1456 
Q 1403 1338 1403 1106 
Q 1403 894 1545 773 
Q 1688 653 1941 653 
Q 2256 653 2472 879 
Q 2688 1106 2688 1447 
L 2688 1575 
L 2106 1575 
z
M 3816 1997 
L 3816 0 
L 2688 0 
L 2688 519 
Q 2463 200 2181 54 
Q 1900 -91 1497 -91 
Q 953 -91 614 226 
Q 275 544 275 1050 
Q 275 1666 698 1953 
Q 1122 2241 2028 2241 
L 2688 2241 
L 2688 2328 
Q 2688 2594 2478 2717 
Q 2269 2841 1825 2841 
Q 1466 2841 1156 2769 
Q 847 2697 581 2553 
L 581 3406 
Q 941 3494 1303 3539 
Q 1666 3584 2028 3584 
Q 2975 3584 3395 3211 
Q 3816 2838 3816 1997 
z
" transform="scale(0.015625)"/>
       <path id="DejaVuSans-Bold-6c" d="M 538 4863 
L 1656 4863 
L 1656 0 
L 538 0 
L 538 4863 
z
" transform="scale(0.015625)"/>
       <path id="DejaVuSans-Bold-6f" d="M 2203 2784 
Q 1831 2784 1636 2517 
Q 1441 2250 1441 1747 
Q 1441 1244 1636 976 
Q 1831 709 2203 709 
Q 2569 709 2762 976 
Q 2956 1244 2956 1747 
Q 2956 2250 2762 2517 
Q 2569 2784 2203 2784 
z
M 2203 3584 
Q 3106 3584 3614 3096 
Q 4122 2609 4122 1747 
Q 4122 884 3614 396 
Q 3106 -91 2203 -91 
Q 1297 -91 786 396 
Q 275 884 275 1747 
Q 275 2609 786 3096 
Q 1297 3584 2203 3584 
z
" transform="scale(0.015625)"/>
       <path id="DejaVuSans-Bold-72" d="M 3138 2547 
Q 2991 2616 2845 2648 
Q 2700 2681 2553 2681 
Q 2122 2681 1889 2404 
Q 1656 2128 1656 1613 
L 1656 0 
L 538 0 
L 538 3500 
L 1656 3500 
L 1656 2925 
Q 1872 3269 2151 3426 
Q 2431 3584 2822 3584 
Q 2878 3584 2943 3579 
Q 3009 3575 3134 3559 
L 3138 2547 
z
" transform="scale(0.015625)"/>
      </defs>
      <use xlink:href="#DejaVuSans-Bold-56"/>
      <use xlink:href="#DejaVuSans-Bold-61" x="71.892578"/>
      <use xlink:href="#DejaVuSans-Bold-6c" x="139.373047"/>
      <use xlink:href="#DejaVuSans-Bold-6f" x="173.650391"/>
      <use xlink:href="#DejaVuSans-Bold-72" x="242.351562"/>
     </g>
    </g>
   </g>
   <g id="matplotlib.axis_2">
    <g id="ytick_1">
     <g id="line2d_15">
      <path d="M 49.552969 258.701969 
L 417.832969 258.701969 
" clip-path="url(#pcd5f3d5672)" style="fill: none; stroke-dasharray: 0.8,1.28; stroke-dashoffset: 0; stroke: #b0b0b0; stroke-opacity: 0.3; stroke-width: 0.8"/>
     </g>
     <g id="line2d_16">
      <defs>
       <path id="m3fb0adc649" d="M 0 0 
L -3.5 0 
" style="stroke: #2c3e50; stroke-width: 0.8"/>
      </defs>
      <g>
       <use xlink:href="#m3fb0adc649" x="49.552969" y="258.701969" style="fill: #2c3e50; stroke: #2c3e50; stroke-width: 0.8"/>
      </g>
     </g>
     <g id="text_9">
      <!-- 0.0 -->
      <g style="fill: #2c3e50" transform="translate(26.649844 262.501187) scale(0.1 -0.1)">
       <defs>
        <path id="DejaVuSans-2e" d="M 684 794 
L 1344 794 
L 1344 0 
L 684 0 
L 684 794 
z
" transform="scale(0.015625)"/>
       </defs>
       <use xlink:href="#DejaVuSans-30"/>
       <use xlink:href="#DejaVuSans-2e" x="63.623047"/>
       <use xlink:href="#DejaVuSans-30" x="95.410156"/>
      </g>
     </g>
    </g>
    <g id="ytick_2">
     <g id="line2d_17">
      <path d="M 49.552969 230.939821 
L 417.832969 230.939821 
" clip-path="url(#pcd5f3d5672)" style="fill: none; stroke-dasharray: 0.8,1.28; stroke-dashoffset: 0; stroke: #b0b0b0; stroke-opacity: 0.3; stroke-width: 0.8"/>
     </g>
     <g id="line2d_18">
      <g>
       <use xlink:href="#m3fb0adc649" x="49.552969" y="230.939821" style="fill: #2c3e50; stroke: #2c3e50; stroke-width: 0.8"/>
      </g>
     </g>
     <g id="text_10">
      <!-- 0.1 -->
      <g style="fill: #2c3e50" transform="translate(26.649844 234.73904) scale(0.1 -0.1)">
       <use xlink:href="#DejaVuSans-30"/>
       <use xlink:href="#DejaVuSans-2e" x="63.623047"/>
       <use xlink:href="#DejaVuSans-31" x="95.410156"/>
      </g>
     </g>
    </g>
    <g id="ytick_3">
     <g id="line2d_19">
      <path d="M 49.552969 203.177674 
L 417.832969 203.177674 
" clip-path="url(#pcd5f3d5672)" style="fill: none; stroke-dasharray: 0.8,1.28; stroke-dashoffset: 0; stroke: #b0b0b0; stroke-opacity: 0.3; stroke-width: 0.8"/>
     </g>
     <g id="line2d_20">
      <g>
       <use xlink:href="#m3fb0adc649" x="49.552969" y="203.177674" style="fill: #2c3e50; stroke: #2c3e50; stroke-width: 0.8"/>
      </g>
     </g>
     <g id="text_11">
      <!-- 0.2 -->
      <g style="fill: #2c3e50" transform="translate(26.649844 206.976893) scale(0.1 -0.1)">
       <use xlink:href="#DejaVuSans-30"/>
       <use xlink:href="#DejaVuSans-2e" x="63.623047"/>
       <use xlink:href="#DejaVuSans-32" x="95.410156"/>
      </g>
     </g>
    </g>
    <g id="ytick_4">
     <g id="line2d_21">
      <path d="M 49.552969 175.415527 
L 417.832969 175.415527 
" clip-path="url(#pcd5f3d5672)" style="fill: none; stroke-dasharray: 0.8,1.28; stroke-dashoffset: 0; stroke: #b0b0b0; stroke-opacity: 0.3; stroke-width: 0.8"/>
     </g>
     <g id="line2d_22">
      <g>
       <use xlink:href="#m3fb0adc649" x="49.552969" y="175.415527" style="fill: #2c3e50; stroke: #2c3e50; stroke-width: 0.8"/>
      </g>
     </g>
     <g id="text_12">
      <!-- 0.3 -->
      <g style="fill: #2c3e50" transform="translate(26.649844 179.214745) scale(0.1 -0.1)">
       <use xlink:href="#DejaVuSans-30"/>
       <use xlink:href="#DejaVuSans-2e" x="63.623047"/>
       <use xlink:href="#DejaVuSans-33" x="95.410156"/>
      </g>
     </g>
    </g>
    <g id="ytick_5">
     <g id="line2d_23">
      <path d="M 49.552969 147.653379 
L 417.832969 147.653379 
" clip-path="url(#pcd5f3d5672)" style="fill: none; stroke-dasharray: 0.8,1.28; stroke-dashoffset: 0; stroke: #b0b0b0; stroke-opacity: 0.3; stroke-width: 0.8"/>
     </g>
     <g id="line2d_24">
      <g>
       <use xlink:href="#m3fb0adc649" x="49.552969" y="147.653379" style="fill: #2c3e50; stroke: #2c3e50; stroke-width: 0.8"/>
      </g>
     </g>
     <g id="text_13">
      <!-- 0.4 -->
      <g style="fill: #2c3e50" transform="translate(26.649844 151.452598) scale(0.1 -0.1)">
       <use xlink:href="#DejaVuSans-30"/>
       <use xlink:href="#DejaVuSans-2e" x="63.623047"/>
       <use xlink:href="#DejaVuSans-34" x="95.410156"/>
      </g>
     </g>
    </g>
    <g id="ytick_6">
     <g id="line2d_25">
      <path d="M 49.552969 119.891232 
L 417.832969 119.891232 
" clip-path="url(#pcd5f3d5672)" style="fill: none; stroke-dasharray: 0.8,1.28; stroke-dashoffset: 0; stroke: #b0b0b0; stroke-opacity: 0.3; stroke-width: 0.8"/>
     </g>
     <g id="line2d_26">
      <g>
       <use xlink:href="#m3fb0adc649" x="49.552969" y="119.891232" style="fill: #2c3e50; stroke: #2c3e50; stroke-width: 0.8"/>
      </g>
     </g>
     <g id="text_14">
      <!-- 0.5 -->
      <g style="fill: #2c3e50" transform="translate(26.649844 123.690451) scale(0.1 -0.1)">
       <use xlink:href="#DejaVuSans-30"/>
       <use xlink:href="#DejaVuSans-2e" x="63.623047"/>
       <use xlink:href="#DejaVuSans-35" x="95.410156"/>
      </g>
     </g>
    </g>
    <g id="ytick_7">
     <g id="line2d_27">
      <path d="M 49.552969 92.129084 
L 417.832969 92.129084 
" clip-path="url(#pcd5f3d5672)" style="fill: none; stroke-dasharray: 0.8,1.28; stroke-dashoffset: 0; stroke: #b0b0b0; stroke-opacity: 0.3; stroke-width: 0.8"/>
     </g>
     <g id="line2d_28">
      <g>
       <use xlink:href="#m3fb0adc649" x="49.552969" y="92.129084" style="fill: #2c3e50; stroke: #2c3e50; stroke-width: 0.8"/>
      </g>
     </g>
     <g id="text_15">
      <!-- 0.6 -->
      <g style="fill: #2c3e50" transform="translate(26.649844 95.928303) scale(0.1 -0.1)">
       <use xlink:href="#DejaVuSans-30"/>
       <use xlink:href="#DejaVuSans-2e" x="63.623047"/>
       <use xlink:href="#DejaVuSans-36" x="95.410156"/>
      </g>
     </g>
    </g>
    <g id="ytick_8">
     <g id="line2d_29">
      <path d="M 49.552969 64.366937 
L 417.832969 64.366937 
" clip-path="url(#pcd5f3d5672)" style="fill: none; stroke-dasharray: 0.8,1.28; stroke-dashoffset: 0; stroke: #b0b0b0; stroke-opacity: 0.3; stroke-width: 0.8"/>
     </g>
     <g id="line2d_30">
      <g>
       <use xlink:href="#m3fb0adc649" x="49.552969" y="64.366937" style="fill: #2c3e50; stroke: #2c3e50; stroke-width: 0.8"/>
      </g>
     </g>
     <g id="text_16">
      <!-- 0.7 -->
      <g style="fill: #2c3e50" transform="translate(26.649844 68.166156) scale(0.1 -0.1)">
       <defs>
        <path id="DejaVuSans-37" d="M 525 4666 
L 3525 4666 
L 3525 4397 
L 1831 0 
L 1172 0 
L 2766 4134 
L 525 4134 
L 525 4666 
z
" transform="scale(0.015625)"/>
       </defs>
       <use xlink:href="#DejaVuSans-30"/>
       <use xlink:href="#DejaVuSans-2e" x="63.623047"/>
       <use xlink:href="#DejaVuSans-37" x="95.410156"/>
      </g>
     </g>
    </g>
    <g id="ytick_9">
     <g id="line2d_31">
      <path d="M 49.552969 36.60479 
L 417.832969 36.60479 
" clip-path="url(#pcd5f3d5672)" style="fill: none; stroke-dasharray: 0.8,1.28; stroke-dashoffset: 0; stroke: #b0b0b0; stroke-opacity: 0.3; stroke-width: 0.8"/>
     </g>
     <g id="line2d_32">
      <g>
       <use xlink:href="#m3fb0adc649" x="49.552969" y="36.60479" style="fill: #2c3e50; stroke: #2c3e50; stroke-width: 0.8"/>
      </g>
     </g>
     <g id="text_17">
      <!-- 0.8 -->
      <g style="fill: #2c3e50" transform="translate(26.649844 40.404008) scale(0.1 -0.1)">
       <defs>
        <path id="DejaVuSans-38" d="M 2034 2216 
Q 1584 2216 1326 1975 
Q 1069 1734 1069 1313 
Q 1069 891 1326 650 
Q 1584 409 2034 409 
Q 2484 409 2743 651 
Q 3003 894 3003 1313 
Q 3003 1734 2745 1975 
Q 2488 2216 2034 2216 
z
M 1403 2484 
Q 997 2584 770 2862 
Q 544 3141 544 3541 
Q 544 4100 942 4425 
Q 1341 4750 2034 4750 
Q 2731 4750 3128 4425 
Q 3525 4100 3525 3541 
Q 3525 3141 3298 2862 
Q 3072 2584 2669 2484 
Q 3125 2378 3379 2068 
Q 3634 1759 3634 1313 
Q 3634 634 3220 271 
Q 2806 -91 2034 -91 
Q 1263 -91 848 271 
Q 434 634 434 1313 
Q 434 1759 690 2068 
Q 947 2378 1403 2484 
z
M 1172 3481 
Q 1172 3119 1398 2916 
Q 1625 2713 2034 2713 
Q 2441 2713 2670 2916 
Q 2900 3119 2900 3481 
Q 2900 3844 2670 4047 
Q 2441 4250 2034 4250 
Q 1625 4250 1398 4047 
Q 1172 3844 1172 3481 
z
" transform="scale(0.015625)"/>
       </defs>
       <use xlink:href="#DejaVuSans-30"/>
       <use xlink:href="#DejaVuSans-2e" x="63.623047"/>
       <use xlink:href="#DejaVuSans-38" x="95.410156"/>
      </g>
     </g>
    </g>
    <g id="text_18">
     <!-- Densidad -->
     <g transform="translate(20.258203 175.321922) rotate(-90) scale(0.115 -0.115)">
      <defs>
       <path id="DejaVuSans-Bold-44" d="M 1791 3756 
L 1791 909 
L 2222 909 
Q 2959 909 3348 1275 
Q 3738 1641 3738 2338 
Q 3738 3031 3350 3393 
Q 2963 3756 2222 3756 
L 1791 3756 
z
M 588 4666 
L 1856 4666 
Q 2919 4666 3439 4514 
Q 3959 4363 4331 4000 
Q 4659 3684 4818 3271 
Q 4978 2859 4978 2338 
Q 4978 1809 4818 1395 
Q 4659 981 4331 666 
Q 3956 303 3431 151 
Q 2906 0 1856 0 
L 588 0 
L 588 4666 
z
" transform="scale(0.015625)"/>
       <path id="DejaVuSans-Bold-65" d="M 4031 1759 
L 4031 1441 
L 1416 1441 
Q 1456 1047 1700 850 
Q 1944 653 2381 653 
Q 2734 653 3104 758 
Q 3475 863 3866 1075 
L 3866 213 
Q 3469 63 3072 -14 
Q 2675 -91 2278 -91 
Q 1328 -91 801 392 
Q 275 875 275 1747 
Q 275 2603 792 3093 
Q 1309 3584 2216 3584 
Q 3041 3584 3536 3087 
Q 4031 2591 4031 1759 
z
M 2881 2131 
Q 2881 2450 2695 2645 
Q 2509 2841 2209 2841 
Q 1884 2841 1681 2658 
Q 1478 2475 1428 2131 
L 2881 2131 
z
" transform="scale(0.015625)"/>
       <path id="DejaVuSans-Bold-6e" d="M 4056 2131 
L 4056 0 
L 2931 0 
L 2931 347 
L 2931 1631 
Q 2931 2084 2911 2256 
Q 2891 2428 2841 2509 
Q 2775 2619 2662 2680 
Q 2550 2741 2406 2741 
Q 2056 2741 1856 2470 
Q 1656 2200 1656 1722 
L 1656 0 
L 538 0 
L 538 3500 
L 1656 3500 
L 1656 2988 
Q 1909 3294 2193 3439 
Q 2478 3584 2822 3584 
Q 3428 3584 3742 3212 
Q 4056 2841 4056 2131 
z
" transform="scale(0.015625)"/>
       <path id="DejaVuSans-Bold-73" d="M 3272 3391 
L 3272 2541 
Q 2913 2691 2578 2766 
Q 2244 2841 1947 2841 
Q 1628 2841 1473 2761 
Q 1319 2681 1319 2516 
Q 1319 2381 1436 2309 
Q 1553 2238 1856 2203 
L 2053 2175 
Q 2913 2066 3209 1816 
Q 3506 1566 3506 1031 
Q 3506 472 3093 190 
Q 2681 -91 1863 -91 
Q 1516 -91 1145 -36 
Q 775 19 384 128 
L 384 978 
Q 719 816 1070 734 
Q 1422 653 1784 653 
Q 2113 653 2278 743 
Q 2444 834 2444 1013 
Q 2444 1163 2330 1236 
Q 2216 1309 1875 1350 
L 1678 1375 
Q 931 1469 631 1722 
Q 331 1975 331 2491 
Q 331 3047 712 3315 
Q 1094 3584 1881 3584 
Q 2191 3584 2531 3537 
Q 2872 3491 3272 3391 
z
" transform="scale(0.015625)"/>
       <path id="DejaVuSans-Bold-69" d="M 538 3500 
L 1656 3500 
L 1656 0 
L 538 0 
L 538 3500 
z
M 538 4863 
L 1656 4863 
L 1656 3950 
L 538 3950 
L 538 4863 
z
" transform="scale(0.015625)"/>
       <path id="DejaVuSans-Bold-64" d="M 2919 2988 
L 2919 4863 
L 4044 4863 
L 4044 0 
L 2919 0 
L 2919 506 
Q 2688 197 2409 53 
Q 2131 -91 1766 -91 
Q 1119 -91 703 423 
Q 288 938 288 1747 
Q 288 2556 703 3070 
Q 1119 3584 1766 3584 
Q 2128 3584 2408 3439 
Q 2688 3294 2919 2988 
z
M 2181 722 
Q 2541 722 2730 984 
Q 2919 1247 2919 1747 
Q 2919 2247 2730 2509 
Q 2541 2772 2181 2772 
Q 1825 2772 1636 2509 
Q 1447 2247 1447 1747 
Q 1447 1247 1636 984 
Q 1825 722 2181 722 
z
" transform="scale(0.015625)"/>
      </defs>
      <use xlink:href="#DejaVuSans-Bold-44"/>
      <use xlink:href="#DejaVuSans-Bold-65" x="83.007812"/>
      <use xlink:href="#DejaVuSans-Bold-6e" x="150.830078"/>
      <use xlink:href="#DejaVuSans-Bold-73" x="222.021484"/>
      <use xlink:href="#DejaVuSans-Bold-69" x="281.542969"/>
      <use xlink:href="#DejaVuSans-Bold-64" x="315.820312"/>
      <use xlink:href="#DejaVuSans-Bold-61" x="387.402344"/>
      <use xlink:href="#DejaVuSans-Bold-64" x="454.882812"/>
     </g>
    </g>
   </g>
   <g id="PolyCollection_1">
    <defs>
     <path id="md54e8ad819" d="M 49.552969 -43.327969 
L 49.552969 -43.327969 
L 50.079836 -43.327969 
L 50.606703 -43.328001 
L 51.13357 -43.328837 
L 51.660437 -43.335101 
L 52.187304 -43.359889 
L 52.71417 -43.427476 
L 53.241037 -43.5727 
L 53.767904 -43.83789 
L 54.294771 -44.268782 
L 54.821638 -44.910548 
L 55.348505 -45.804549 
L 55.875372 -46.986036 
L 56.402239 -48.482764 
L 56.929106 -50.314399 
L 57.455973 -52.492515 
L 57.98284 -55.021032 
L 58.509707 -57.896928 
L 59.036574 -61.111107 
L 59.563441 -64.649342 
L 60.090308 -68.493215 
L 60.617175 -72.621016 
L 61.144042 -77.008576 
L 61.670909 -81.630015 
L 62.197776 -86.458398 
L 62.724643 -91.466297 
L 63.25151 -96.626273 
L 63.778376 -101.911263 
L 64.305243 -107.294907 
L 64.83211 -112.751796 
L 65.358977 -118.257668 
L 65.885844 -123.789551 
L 66.412711 -129.325865 
L 66.939578 -134.846481 
L 67.466445 -140.332759 
L 67.993312 -145.767551 
L 68.520179 -151.135193 
L 69.047046 -156.421469 
L 69.573913 -161.613576 
L 70.10078 -166.700067 
L 70.627647 -171.670793 
L 71.154514 -176.516839 
L 71.681381 -181.230458 
L 72.208248 -185.804998 
L 72.735115 -190.234835 
L 73.261982 -194.515301 
L 73.788849 -198.642615 
L 74.315716 -202.61382 
L 74.842582 -206.426712 
L 75.369449 -210.079782 
L 75.896316 -213.572156 
L 76.423183 -216.903536 
L 76.95005 -220.074148 
L 77.476917 -223.084691 
L 78.003784 -225.93629 
L 78.530651 -228.63045 
L 79.057518 -231.169015 
L 79.584385 -233.554132 
L 80.111252 -235.78821 
L 80.638119 -237.87389 
L 81.164986 -239.814013 
L 81.691853 -241.611592 
L 82.21872 -243.269787 
L 82.745587 -244.79188 
L 83.272454 -246.181252 
L 83.799321 -247.441364 
L 84.326188 -248.57574 
L 84.853055 -249.58795 
L 85.379922 -250.481591 
L 85.906788 -251.260281 
L 86.433655 -251.927639 
L 86.960522 -252.487281 
L 87.487389 -252.942804 
L 88.014256 -253.297781 
L 88.541123 -253.555752 
L 89.06799 -253.720219 
L 89.594857 -253.794635 
L 90.121724 -253.782406 
L 90.648591 -253.686879 
L 91.175458 -253.511343 
L 91.702325 -253.259024 
L 92.229192 -252.933083 
L 92.756059 -252.536611 
L 93.282926 -252.07263 
L 93.809793 -251.544092 
L 94.33666 -250.953874 
L 94.863527 -250.304781 
L 95.390394 -249.599542 
L 95.917261 -248.840814 
L 96.444128 -248.031179 
L 96.970995 -247.173144 
L 97.497861 -246.269144 
L 98.024728 -245.321537 
L 98.551595 -244.332613 
L 99.078462 -243.304588 
L 99.605329 -242.239607 
L 100.132196 -241.139746 
L 100.659063 -240.007011 
L 101.18593 -238.843344 
L 101.712797 -237.650616 
L 102.239664 -236.430636 
L 102.766531 -235.18515 
L 103.293398 -233.91584 
L 103.820265 -232.624329 
L 104.347132 -231.312179 
L 104.873999 -229.980895 
L 105.400866 -228.631927 
L 105.927733 -227.266667 
L 106.4546 -225.886456 
L 106.981467 -224.492583 
L 107.508334 -223.086286 
L 108.035201 -221.668752 
L 108.562067 -220.241124 
L 109.088934 -218.804495 
L 109.615801 -217.359917 
L 110.142668 -215.908394 
L 110.669535 -214.450893 
L 111.196402 -212.988336 
L 111.723269 -211.521606 
L 112.250136 -210.051551 
L 112.777003 -208.578978 
L 113.30387 -207.10466 
L 113.830737 -205.629336 
L 114.357604 -204.153711 
L 114.884471 -202.678457 
L 115.411338 -201.204215 
L 115.938205 -199.731598 
L 116.465072 -198.261187 
L 116.991939 -196.793536 
L 117.518806 -195.329172 
L 118.045673 -193.868598 
L 118.57254 -192.412288 
L 119.099407 -190.960696 
L 119.626273 -189.514248 
L 120.15314 -188.073352 
L 120.680007 -186.638392 
L 121.206874 -185.209731 
L 121.733741 -183.787714 
L 122.260608 -182.372664 
L 122.787475 -180.964888 
L 123.314342 -179.564673 
L 123.841209 -178.17229 
L 124.368076 -176.787995 
L 124.894943 -175.412025 
L 125.42181 -174.044604 
L 125.948677 -172.685941 
L 126.475544 -171.336231 
L 127.002411 -169.995656 
L 127.529278 -168.664384 
L 128.056145 -167.342571 
L 128.583012 -166.030362 
L 129.109879 -164.727889 
L 129.636746 -163.435276 
L 130.163613 -162.152634 
L 130.690479 -160.880065 
L 131.217346 -159.61766 
L 131.744213 -158.365503 
L 132.27108 -157.123668 
L 132.797947 -155.892222 
L 133.324814 -154.671221 
L 133.851681 -153.460717 
L 134.378548 -152.260753 
L 134.905415 -151.071363 
L 135.432282 -149.892579 
L 135.959149 -148.724422 
L 136.486016 -147.56691 
L 137.012883 -146.420053 
L 137.53975 -145.283858 
L 138.066617 -144.158324 
L 138.593484 -143.043448 
L 139.120351 -141.939219 
L 139.647218 -140.845624 
L 140.174085 -139.762645 
L 140.700952 -138.690259 
L 141.227819 -137.62844 
L 141.754685 -136.577158 
L 142.281552 -135.536381 
L 142.808419 -134.50607 
L 143.335286 -133.486188 
L 143.862153 -132.47669 
L 144.38902 -131.477532 
L 144.915887 -130.488665 
L 145.442754 -129.510039 
L 145.969621 -128.5416 
L 146.496488 -127.583294 
L 147.023355 -126.635064 
L 147.550222 -125.69685 
L 148.077089 -124.768591 
L 148.603956 -123.850225 
L 149.130823 -122.941687 
L 149.65769 -122.042912 
L 150.184557 -121.153832 
L 150.711424 -120.274379 
L 151.238291 -119.404484 
L 151.765158 -118.544076 
L 152.292025 -117.693083 
L 152.818891 -116.851432 
L 153.345758 -116.01905 
L 153.872625 -115.195864 
L 154.399492 -114.381797 
L 154.926359 -113.576774 
L 155.453226 -112.78072 
L 155.980093 -111.993558 
L 156.50696 -111.21521 
L 157.033827 -110.4456 
L 157.560694 -109.684649 
L 158.087561 -108.932279 
L 158.614428 -108.188413 
L 159.141295 -107.452972 
L 159.668162 -106.725878 
L 160.195029 -106.007051 
L 160.721896 -105.296413 
L 161.248763 -104.593886 
L 161.77563 -103.899392 
L 162.302497 -103.21285 
L 162.829364 -102.534184 
L 163.356231 -101.863314 
L 163.883098 -101.200164 
L 164.409964 -100.544654 
L 164.936831 -99.896707 
L 165.463698 -99.256246 
L 165.990565 -98.623194 
L 166.517432 -97.997474 
L 167.044299 -97.379008 
L 167.571166 -96.767722 
L 168.098033 -96.16354 
L 168.6249 -95.566385 
L 169.151767 -94.976183 
L 169.678634 -94.392859 
L 170.205501 -93.81634 
L 170.732368 -93.246551 
L 171.259235 -92.683419 
L 171.786102 -92.126871 
L 172.312969 -91.576835 
L 172.839836 -91.03324 
L 173.366703 -90.496013 
L 173.89357 -89.965085 
L 174.420437 -89.440385 
L 174.947304 -88.921842 
L 175.47417 -88.409389 
L 176.001037 -87.902956 
L 176.527904 -87.402475 
L 177.054771 -86.907878 
L 177.581638 -86.4191 
L 178.108505 -85.936072 
L 178.635372 -85.45873 
L 179.162239 -84.987008 
L 179.689106 -84.520842 
L 180.215973 -84.060167 
L 180.74284 -83.60492 
L 181.269707 -83.155038 
L 181.796574 -82.710458 
L 182.323441 -82.271119 
L 182.850308 -81.83696 
L 183.377175 -81.40792 
L 183.904042 -80.983938 
L 184.430909 -80.564957 
L 184.957776 -80.150916 
L 185.484643 -79.741758 
L 186.01151 -79.337425 
L 186.538376 -78.937859 
L 187.065243 -78.543005 
L 187.59211 -78.152807 
L 188.118977 -77.767209 
L 188.645844 -77.386156 
L 189.172711 -77.009594 
L 189.699578 -76.63747 
L 190.226445 -76.269731 
L 190.753312 -75.906325 
L 191.280179 -75.547198 
L 191.807046 -75.192301 
L 192.333913 -74.841582 
L 192.86078 -74.494991 
L 193.387647 -74.152479 
L 193.914514 -73.813996 
L 194.441381 -73.479494 
L 194.968248 -73.148925 
L 195.495115 -72.822241 
L 196.021982 -72.499396 
L 196.548849 -72.180342 
L 197.075716 -71.865035 
L 197.602582 -71.553429 
L 198.129449 -71.245479 
L 198.656316 -70.941141 
L 199.183183 -70.640371 
L 199.71005 -70.343125 
L 200.236917 -70.049361 
L 200.763784 -69.759037 
L 201.290651 -69.472111 
L 201.817518 -69.188541 
L 202.344385 -68.908287 
L 202.871252 -68.631308 
L 203.398119 -68.357565 
L 203.924986 -68.087017 
L 204.451853 -67.819627 
L 204.97872 -67.555356 
L 205.505587 -67.294165 
L 206.032454 -67.036018 
L 206.559321 -66.780876 
L 207.086188 -66.528704 
L 207.613055 -66.279466 
L 208.139922 -66.033125 
L 208.666788 -65.789645 
L 209.193655 -65.548994 
L 209.720522 -65.311134 
L 210.247389 -65.076034 
L 210.774256 -64.843658 
L 211.301123 -64.613975 
L 211.82799 -64.38695 
L 212.354857 -64.162552 
L 212.881724 -63.940748 
L 213.408591 -63.721507 
L 213.935458 -63.504797 
L 214.462325 -63.290589 
L 214.989192 -63.07885 
L 215.516059 -62.869552 
L 216.042926 -62.662663 
L 216.569793 -62.458156 
L 217.09666 -62.256001 
L 217.623527 -62.056169 
L 218.150394 -61.858632 
L 218.677261 -61.663362 
L 219.204128 -61.470331 
L 219.730995 -61.279513 
L 220.257861 -61.090879 
L 220.784728 -60.904405 
L 221.311595 -60.720062 
L 221.838462 -60.537826 
L 222.365329 -60.357671 
L 222.892196 -60.179572 
L 223.419063 -60.003503 
L 223.94593 -59.82944 
L 224.472797 -59.657358 
L 224.999664 -59.487235 
L 225.526531 -59.319044 
L 226.053398 -59.152764 
L 226.580265 -58.988372 
L 227.107132 -58.825843 
L 227.633999 -58.665156 
L 228.160866 -58.506289 
L 228.687733 -58.349219 
L 229.2146 -58.193925 
L 229.741467 -58.040384 
L 230.268334 -57.888577 
L 230.795201 -57.738482 
L 231.322067 -57.590078 
L 231.848934 -57.443345 
L 232.375801 -57.298263 
L 232.902668 -57.154812 
L 233.429535 -57.012972 
L 233.956402 -56.872724 
L 234.483269 -56.734048 
L 235.010136 -56.596926 
L 235.537003 -56.461339 
L 236.06387 -56.327269 
L 236.590737 -56.194698 
L 237.117604 -56.063606 
L 237.644471 -55.933977 
L 238.171338 -55.805794 
L 238.698205 -55.679038 
L 239.225072 -55.553693 
L 239.751939 -55.429741 
L 240.278806 -55.307167 
L 240.805673 -55.185953 
L 241.33254 -55.066084 
L 241.859407 -54.947543 
L 242.386273 -54.830314 
L 242.91314 -54.714383 
L 243.440007 -54.599732 
L 243.966874 -54.486348 
L 244.493741 -54.374215 
L 245.020608 -54.263318 
L 245.547475 -54.153642 
L 246.074342 -54.045174 
L 246.601209 -53.937898 
L 247.128076 -53.8318 
L 247.654943 -53.726867 
L 248.18181 -53.623085 
L 248.708677 -53.52044 
L 249.235544 -53.418918 
L 249.762411 -53.318507 
L 250.289278 -53.219192 
L 250.816145 -53.120963 
L 251.343012 -53.023804 
L 251.869879 -52.927704 
L 252.396746 -52.832651 
L 252.923613 -52.738632 
L 253.450479 -52.645635 
L 253.977346 -52.553647 
L 254.504213 -52.462658 
L 255.03108 -52.372654 
L 255.557947 -52.283626 
L 256.084814 -52.19556 
L 256.611681 -52.108447 
L 257.138548 -52.022275 
L 257.665415 -51.937032 
L 258.192282 -51.852708 
L 258.719149 -51.769293 
L 259.246016 -51.686775 
L 259.772883 -51.605144 
L 260.29975 -51.524391 
L 260.826617 -51.444504 
L 261.353484 -51.365473 
L 261.880351 -51.287289 
L 262.407218 -51.209942 
L 262.934085 -51.133421 
L 263.460952 -51.057718 
L 263.987819 -50.982824 
L 264.514685 -50.908727 
L 265.041552 -50.83542 
L 265.568419 -50.762894 
L 266.095286 -50.691138 
L 266.622153 -50.620145 
L 267.14902 -50.549906 
L 267.675887 -50.480411 
L 268.202754 -50.411653 
L 268.729621 -50.343622 
L 269.256488 -50.276311 
L 269.783355 -50.209711 
L 270.310222 -50.143814 
L 270.837089 -50.078612 
L 271.363956 -50.014097 
L 271.890823 -49.950261 
L 272.41769 -49.887096 
L 272.944557 -49.824595 
L 273.471424 -49.76275 
L 273.998291 -49.701554 
L 274.525158 -49.640999 
L 275.052025 -49.581077 
L 275.578891 -49.521783 
L 276.105758 -49.463108 
L 276.632625 -49.405045 
L 277.159492 -49.347588 
L 277.686359 -49.29073 
L 278.213226 -49.234463 
L 278.740093 -49.178782 
L 279.26696 -49.12368 
L 279.793827 -49.069149 
L 280.320694 -49.015184 
L 280.847561 -48.961778 
L 281.374428 -48.908925 
L 281.901295 -48.856618 
L 282.428162 -48.804852 
L 282.955029 -48.75362 
L 283.481896 -48.702917 
L 284.008763 -48.652736 
L 284.53563 -48.603072 
L 285.062497 -48.553919 
L 285.589364 -48.50527 
L 286.116231 -48.457121 
L 286.643098 -48.409466 
L 287.169964 -48.362299 
L 287.696831 -48.315615 
L 288.223698 -48.269409 
L 288.750565 -48.223674 
L 289.277432 -48.178407 
L 289.804299 -48.133601 
L 290.331166 -48.089252 
L 290.858033 -48.045354 
L 291.3849 -48.001902 
L 291.911767 -47.958893 
L 292.438634 -47.916319 
L 292.965501 -47.874178 
L 293.492368 -47.832463 
L 294.019235 -47.791171 
L 294.546102 -47.750297 
L 295.072969 -47.709835 
L 295.599836 -47.669782 
L 296.126703 -47.630133 
L 296.65357 -47.590884 
L 297.180437 -47.55203 
L 297.707304 -47.513566 
L 298.23417 -47.475489 
L 298.761037 -47.437794 
L 299.287904 -47.400477 
L 299.814771 -47.363535 
L 300.341638 -47.326962 
L 300.868505 -47.290755 
L 301.395372 -47.254909 
L 301.922239 -47.219422 
L 302.449106 -47.184288 
L 302.975973 -47.149505 
L 303.50284 -47.115068 
L 304.029707 -47.080973 
L 304.556574 -47.047218 
L 305.083441 -47.013797 
L 305.610308 -46.980708 
L 306.137175 -46.947947 
L 306.664042 -46.91551 
L 307.190909 -46.883394 
L 307.717776 -46.851596 
L 308.244643 -46.820111 
L 308.77151 -46.788937 
L 309.298376 -46.75807 
L 309.825243 -46.727508 
L 310.35211 -46.697245 
L 310.878977 -46.667281 
L 311.405844 -46.63761 
L 311.932711 -46.608231 
L 312.459578 -46.579139 
L 312.986445 -46.550333 
L 313.513312 -46.521808 
L 314.040179 -46.493562 
L 314.567046 -46.465592 
L 315.093913 -46.437895 
L 315.62078 -46.410467 
L 316.147647 -46.383307 
L 316.674514 -46.356411 
L 317.201381 -46.329777 
L 317.728248 -46.303401 
L 318.255115 -46.277281 
L 318.781982 -46.251414 
L 319.308849 -46.225798 
L 319.835716 -46.20043 
L 320.362582 -46.175307 
L 320.889449 -46.150427 
L 321.416316 -46.125786 
L 321.943183 -46.101384 
L 322.47005 -46.077216 
L 322.996917 -46.053281 
L 323.523784 -46.029576 
L 324.050651 -46.006099 
L 324.577518 -45.982847 
L 325.104385 -45.959818 
L 325.631252 -45.93701 
L 326.158119 -45.91442 
L 326.684986 -45.892046 
L 327.211853 -45.869886 
L 327.73872 -45.847937 
L 328.265587 -45.826198 
L 328.792454 -45.804666 
L 329.319321 -45.783338 
L 329.846188 -45.762214 
L 330.373055 -45.74129 
L 330.899922 -45.720565 
L 331.426788 -45.700037 
L 331.953655 -45.679703 
L 332.480522 -45.659562 
L 333.007389 -45.639611 
L 333.534256 -45.619849 
L 334.061123 -45.600273 
L 334.58799 -45.580882 
L 335.114857 -45.561674 
L 335.641724 -45.542647 
L 336.168591 -45.523799 
L 336.695458 -45.505128 
L 337.222325 -45.486632 
L 337.749192 -45.46831 
L 338.276059 -45.45016 
L 338.802926 -45.432179 
L 339.329793 -45.414367 
L 339.85666 -45.396722 
L 340.383527 -45.379241 
L 340.910394 -45.361924 
L 341.437261 -45.344768 
L 341.964128 -45.327772 
L 342.490995 -45.310934 
L 343.017861 -45.294253 
L 343.544728 -45.277726 
L 344.071595 -45.261354 
L 344.598462 -45.245133 
L 345.125329 -45.229062 
L 345.652196 -45.21314 
L 346.179063 -45.197366 
L 346.70593 -45.181737 
L 347.232797 -45.166252 
L 347.759664 -45.150911 
L 348.286531 -45.135711 
L 348.813398 -45.120651 
L 349.340265 -45.105729 
L 349.867132 -45.090945 
L 350.393999 -45.076297 
L 350.920866 -45.061783 
L 351.447733 -45.047402 
L 351.9746 -45.033153 
L 352.501467 -45.019034 
L 353.028334 -45.005044 
L 353.555201 -44.991183 
L 354.082067 -44.977447 
L 354.608934 -44.963838 
L 355.135801 -44.950352 
L 355.662668 -44.936989 
L 356.189535 -44.923747 
L 356.716402 -44.910626 
L 357.243269 -44.897624 
L 357.770136 -44.88474 
L 358.297003 -44.871973 
L 358.82387 -44.859322 
L 359.350737 -44.846785 
L 359.877604 -44.834361 
L 360.404471 -44.82205 
L 360.931338 -44.80985 
L 361.458205 -44.79776 
L 361.985072 -44.785779 
L 362.511939 -44.773906 
L 363.038806 -44.762139 
L 363.565673 -44.750479 
L 364.09254 -44.738923 
L 364.619407 -44.72747 
L 365.146273 -44.716121 
L 365.67314 -44.704873 
L 366.200007 -44.693726 
L 366.726874 -44.682678 
L 367.253741 -44.671729 
L 367.780608 -44.660878 
L 368.307475 -44.650124 
L 368.834342 -44.639465 
L 369.361209 -44.628902 
L 369.888076 -44.618432 
L 370.414943 -44.608056 
L 370.94181 -44.597771 
L 371.468677 -44.587578 
L 371.995544 -44.577476 
L 372.522411 -44.567462 
L 373.049278 -44.557538 
L 373.576145 -44.547701 
L 374.103012 -44.537951 
L 374.629879 -44.528287 
L 375.156746 -44.518709 
L 375.683613 -44.509215 
L 376.210479 -44.499804 
L 376.737346 -44.490476 
L 377.264213 -44.481231 
L 377.79108 -44.472066 
L 378.317947 -44.462982 
L 378.844814 -44.453978 
L 379.371681 -44.445052 
L 379.898548 -44.436205 
L 380.425415 -44.427435 
L 380.952282 -44.418741 
L 381.479149 -44.410124 
L 382.006016 -44.401582 
L 382.532883 -44.393114 
L 383.05975 -44.38472 
L 383.586617 -44.376399 
L 384.113484 -44.36815 
L 384.640351 -44.359974 
L 385.167218 -44.351868 
L 385.694085 -44.343832 
L 386.220952 -44.335866 
L 386.747819 -44.327969 
L 387.274685 -44.32014 
L 387.801552 -44.312379 
L 388.328419 -44.304685 
L 388.855286 -44.297058 
L 389.382153 -44.289496 
L 389.90902 -44.282 
L 390.435887 -44.274568 
L 390.962754 -44.267199 
L 391.489621 -44.259895 
L 392.016488 -44.252653 
L 392.543355 -44.245473 
L 393.070222 -44.238354 
L 393.597089 -44.231297 
L 394.123956 -44.2243 
L 394.650823 -44.217363 
L 395.17769 -44.210485 
L 395.704557 -44.203666 
L 396.231424 -44.196905 
L 396.758291 -44.190202 
L 397.285158 -44.183556 
L 397.812025 -44.176966 
L 398.338891 -44.170433 
L 398.865758 -44.163955 
L 399.392625 -44.157532 
L 399.919492 -44.151163 
L 400.446359 -44.144848 
L 400.973226 -44.138587 
L 401.500093 -44.132379 
L 402.02696 -44.126224 
L 402.553827 -44.12012 
L 403.080694 -44.114068 
L 403.607561 -44.108067 
L 404.134428 -44.102116 
L 404.661295 -44.096216 
L 405.188162 -44.090365 
L 405.715029 -44.084564 
L 406.241896 -44.078811 
L 406.768763 -44.073107 
L 407.29563 -44.06745 
L 407.822497 -44.061841 
L 408.349364 -44.056279 
L 408.876231 -44.050763 
L 409.403098 -44.045293 
L 409.929964 -44.039869 
L 410.456831 -44.034491 
L 410.983698 -44.029157 
L 411.510565 -44.023868 
L 412.037432 -44.018622 
L 412.564299 -44.013421 
L 413.091166 -44.008262 
L 413.618033 -44.003147 
L 414.1449 -43.998074 
L 414.671767 -43.993043 
L 415.198634 -43.988054 
L 415.725501 -43.983106 
L 416.252368 -43.978199 
L 416.779235 -43.973332 
L 417.306102 -43.968506 
L 417.832969 -43.963719 
L 417.832969 -43.327969 
L 417.832969 -43.327969 
L 417.306102 -43.327969 
L 416.779235 -43.327969 
L 416.252368 -43.327969 
L 415.725501 -43.327969 
L 415.198634 -43.327969 
L 414.671767 -43.327969 
L 414.1449 -43.327969 
L 413.618033 -43.327969 
L 413.091166 -43.327969 
L 412.564299 -43.327969 
L 412.037432 -43.327969 
L 411.510565 -43.327969 
L 410.983698 -43.327969 
L 410.456831 -43.327969 
L 409.929964 -43.327969 
L 409.403098 -43.327969 
L 408.876231 -43.327969 
L 408.349364 -43.327969 
L 407.822497 -43.327969 
L 407.29563 -43.327969 
L 406.768763 -43.327969 
L 406.241896 -43.327969 
L 405.715029 -43.327969 
L 405.188162 -43.327969 
L 404.661295 -43.327969 
L 404.134428 -43.327969 
L 403.607561 -43.327969 
L 403.080694 -43.327969 
L 402.553827 -43.327969 
L 402.02696 -43.327969 
L 401.500093 -43.327969 
L 400.973226 -43.327969 
L 400.446359 -43.327969 
L 399.919492 -43.327969 
L 399.392625 -43.327969 
L 398.865758 -43.327969 
L 398.338891 -43.327969 
L 397.812025 -43.327969 
L 397.285158 -43.327969 
L 396.758291 -43.327969 
L 396.231424 -43.327969 
L 395.704557 -43.327969 
L 395.17769 -43.327969 
L 394.650823 -43.327969 
L 394.123956 -43.327969 
L 393.597089 -43.327969 
L 393.070222 -43.327969 
L 392.543355 -43.327969 
L 392.016488 -43.327969 
L 391.489621 -43.327969 
L 390.962754 -43.327969 
L 390.435887 -43.327969 
L 389.90902 -43.327969 
L 389.382153 -43.327969 
L 388.855286 -43.327969 
L 388.328419 -43.327969 
L 387.801552 -43.327969 
L 387.274685 -43.327969 
L 386.747819 -43.327969 
L 386.220952 -43.327969 
L 385.694085 -43.327969 
L 385.167218 -43.327969 
L 384.640351 -43.327969 
L 384.113484 -43.327969 
L 383.586617 -43.327969 
L 383.05975 -43.327969 
L 382.532883 -43.327969 
L 382.006016 -43.327969 
L 381.479149 -43.327969 
L 380.952282 -43.327969 
L 380.425415 -43.327969 
L 379.898548 -43.327969 
L 379.371681 -43.327969 
L 378.844814 -43.327969 
L 378.317947 -43.327969 
L 377.79108 -43.327969 
L 377.264213 -43.327969 
L 376.737346 -43.327969 
L 376.210479 -43.327969 
L 375.683613 -43.327969 
L 375.156746 -43.327969 
L 374.629879 -43.327969 
L 374.103012 -43.327969 
L 373.576145 -43.327969 
L 373.049278 -43.327969 
L 372.522411 -43.327969 
L 371.995544 -43.327969 
L 371.468677 -43.327969 
L 370.94181 -43.327969 
L 370.414943 -43.327969 
L 369.888076 -43.327969 
L 369.361209 -43.327969 
L 368.834342 -43.327969 
L 368.307475 -43.327969 
L 367.780608 -43.327969 
L 367.253741 -43.327969 
L 366.726874 -43.327969 
L 366.200007 -43.327969 
L 365.67314 -43.327969 
L 365.146273 -43.327969 
L 364.619407 -43.327969 
L 364.09254 -43.327969 
L 363.565673 -43.327969 
L 363.038806 -43.327969 
L 362.511939 -43.327969 
L 361.985072 -43.327969 
L 361.458205 -43.327969 
L 360.931338 -43.327969 
L 360.404471 -43.327969 
L 359.877604 -43.327969 
L 359.350737 -43.327969 
L 358.82387 -43.327969 
L 358.297003 -43.327969 
L 357.770136 -43.327969 
L 357.243269 -43.327969 
L 356.716402 -43.327969 
L 356.189535 -43.327969 
L 355.662668 -43.327969 
L 355.135801 -43.327969 
L 354.608934 -43.327969 
L 354.082067 -43.327969 
L 353.555201 -43.327969 
L 353.028334 -43.327969 
L 352.501467 -43.327969 
L 351.9746 -43.327969 
L 351.447733 -43.327969 
L 350.920866 -43.327969 
L 350.393999 -43.327969 
L 349.867132 -43.327969 
L 349.340265 -43.327969 
L 348.813398 -43.327969 
L 348.286531 -43.327969 
L 347.759664 -43.327969 
L 347.232797 -43.327969 
L 346.70593 -43.327969 
L 346.179063 -43.327969 
L 345.652196 -43.327969 
L 345.125329 -43.327969 
L 344.598462 -43.327969 
L 344.071595 -43.327969 
L 343.544728 -43.327969 
L 343.017861 -43.327969 
L 342.490995 -43.327969 
L 341.964128 -43.327969 
L 341.437261 -43.327969 
L 340.910394 -43.327969 
L 340.383527 -43.327969 
L 339.85666 -43.327969 
L 339.329793 -43.327969 
L 338.802926 -43.327969 
L 338.276059 -43.327969 
L 337.749192 -43.327969 
L 337.222325 -43.327969 
L 336.695458 -43.327969 
L 336.168591 -43.327969 
L 335.641724 -43.327969 
L 335.114857 -43.327969 
L 334.58799 -43.327969 
L 334.061123 -43.327969 
L 333.534256 -43.327969 
L 333.007389 -43.327969 
L 332.480522 -43.327969 
L 331.953655 -43.327969 
L 331.426788 -43.327969 
L 330.899922 -43.327969 
L 330.373055 -43.327969 
L 329.846188 -43.327969 
L 329.319321 -43.327969 
L 328.792454 -43.327969 
L 328.265587 -43.327969 
L 327.73872 -43.327969 
L 327.211853 -43.327969 
L 326.684986 -43.327969 
L 326.158119 -43.327969 
L 325.631252 -43.327969 
L 325.104385 -43.327969 
L 324.577518 -43.327969 
L 324.050651 -43.327969 
L 323.523784 -43.327969 
L 322.996917 -43.327969 
L 322.47005 -43.327969 
L 321.943183 -43.327969 
L 321.416316 -43.327969 
L 320.889449 -43.327969 
L 320.362582 -43.327969 
L 319.835716 -43.327969 
L 319.308849 -43.327969 
L 318.781982 -43.327969 
L 318.255115 -43.327969 
L 317.728248 -43.327969 
L 317.201381 -43.327969 
L 316.674514 -43.327969 
L 316.147647 -43.327969 
L 315.62078 -43.327969 
L 315.093913 -43.327969 
L 314.567046 -43.327969 
L 314.040179 -43.327969 
L 313.513312 -43.327969 
L 312.986445 -43.327969 
L 312.459578 -43.327969 
L 311.932711 -43.327969 
L 311.405844 -43.327969 
L 310.878977 -43.327969 
L 310.35211 -43.327969 
L 309.825243 -43.327969 
L 309.298376 -43.327969 
L 308.77151 -43.327969 
L 308.244643 -43.327969 
L 307.717776 -43.327969 
L 307.190909 -43.327969 
L 306.664042 -43.327969 
L 306.137175 -43.327969 
L 305.610308 -43.327969 
L 305.083441 -43.327969 
L 304.556574 -43.327969 
L 304.029707 -43.327969 
L 303.50284 -43.327969 
L 302.975973 -43.327969 
L 302.449106 -43.327969 
L 301.922239 -43.327969 
L 301.395372 -43.327969 
L 300.868505 -43.327969 
L 300.341638 -43.327969 
L 299.814771 -43.327969 
L 299.287904 -43.327969 
L 298.761037 -43.327969 
L 298.23417 -43.327969 
L 297.707304 -43.327969 
L 297.180437 -43.327969 
L 296.65357 -43.327969 
L 296.126703 -43.327969 
L 295.599836 -43.327969 
L 295.072969 -43.327969 
L 294.546102 -43.327969 
L 294.019235 -43.327969 
L 293.492368 -43.327969 
L 292.965501 -43.327969 
L 292.438634 -43.327969 
L 291.911767 -43.327969 
L 291.3849 -43.327969 
L 290.858033 -43.327969 
L 290.331166 -43.327969 
L 289.804299 -43.327969 
L 289.277432 -43.327969 
L 288.750565 -43.327969 
L 288.223698 -43.327969 
L 287.696831 -43.327969 
L 287.169964 -43.327969 
L 286.643098 -43.327969 
L 286.116231 -43.327969 
L 285.589364 -43.327969 
L 285.062497 -43.327969 
L 284.53563 -43.327969 
L 284.008763 -43.327969 
L 283.481896 -43.327969 
L 282.955029 -43.327969 
L 282.428162 -43.327969 
L 281.901295 -43.327969 
L 281.374428 -43.327969 
L 280.847561 -43.327969 
L 280.320694 -43.327969 
L 279.793827 -43.327969 
L 279.26696 -43.327969 
L 278.740093 -43.327969 
L 278.213226 -43.327969 
L 277.686359 -43.327969 
L 277.159492 -43.327969 
L 276.632625 -43.327969 
L 276.105758 -43.327969 
L 275.578891 -43.327969 
L 275.052025 -43.327969 
L 274.525158 -43.327969 
L 273.998291 -43.327969 
L 273.471424 -43.327969 
L 272.944557 -43.327969 
L 272.41769 -43.327969 
L 271.890823 -43.327969 
L 271.363956 -43.327969 
L 270.837089 -43.327969 
L 270.310222 -43.327969 
L 269.783355 -43.327969 
L 269.256488 -43.327969 
L 268.729621 -43.327969 
L 268.202754 -43.327969 
L 267.675887 -43.327969 
L 267.14902 -43.327969 
L 266.622153 -43.327969 
L 266.095286 -43.327969 
L 265.568419 -43.327969 
L 265.041552 -43.327969 
L 264.514685 -43.327969 
L 263.987819 -43.327969 
L 263.460952 -43.327969 
L 262.934085 -43.327969 
L 262.407218 -43.327969 
L 261.880351 -43.327969 
L 261.353484 -43.327969 
L 260.826617 -43.327969 
L 260.29975 -43.327969 
L 259.772883 -43.327969 
L 259.246016 -43.327969 
L 258.719149 -43.327969 
L 258.192282 -43.327969 
L 257.665415 -43.327969 
L 257.138548 -43.327969 
L 256.611681 -43.327969 
L 256.084814 -43.327969 
L 255.557947 -43.327969 
L 255.03108 -43.327969 
L 254.504213 -43.327969 
L 253.977346 -43.327969 
L 253.450479 -43.327969 
L 252.923613 -43.327969 
L 252.396746 -43.327969 
L 251.869879 -43.327969 
L 251.343012 -43.327969 
L 250.816145 -43.327969 
L 250.289278 -43.327969 
L 249.762411 -43.327969 
L 249.235544 -43.327969 
L 248.708677 -43.327969 
L 248.18181 -43.327969 
L 247.654943 -43.327969 
L 247.128076 -43.327969 
L 246.601209 -43.327969 
L 246.074342 -43.327969 
L 245.547475 -43.327969 
L 245.020608 -43.327969 
L 244.493741 -43.327969 
L 243.966874 -43.327969 
L 243.440007 -43.327969 
L 242.91314 -43.327969 
L 242.386273 -43.327969 
L 241.859407 -43.327969 
L 241.33254 -43.327969 
L 240.805673 -43.327969 
L 240.278806 -43.327969 
L 239.751939 -43.327969 
L 239.225072 -43.327969 
L 238.698205 -43.327969 
L 238.171338 -43.327969 
L 237.644471 -43.327969 
L 237.117604 -43.327969 
L 236.590737 -43.327969 
L 236.06387 -43.327969 
L 235.537003 -43.327969 
L 235.010136 -43.327969 
L 234.483269 -43.327969 
L 233.956402 -43.327969 
L 233.429535 -43.327969 
L 232.902668 -43.327969 
L 232.375801 -43.327969 
L 231.848934 -43.327969 
L 231.322067 -43.327969 
L 230.795201 -43.327969 
L 230.268334 -43.327969 
L 229.741467 -43.327969 
L 229.2146 -43.327969 
L 228.687733 -43.327969 
L 228.160866 -43.327969 
L 227.633999 -43.327969 
L 227.107132 -43.327969 
L 226.580265 -43.327969 
L 226.053398 -43.327969 
L 225.526531 -43.327969 
L 224.999664 -43.327969 
L 224.472797 -43.327969 
L 223.94593 -43.327969 
L 223.419063 -43.327969 
L 222.892196 -43.327969 
L 222.365329 -43.327969 
L 221.838462 -43.327969 
L 221.311595 -43.327969 
L 220.784728 -43.327969 
L 220.257861 -43.327969 
L 219.730995 -43.327969 
L 219.204128 -43.327969 
L 218.677261 -43.327969 
L 218.150394 -43.327969 
L 217.623527 -43.327969 
L 217.09666 -43.327969 
L 216.569793 -43.327969 
L 216.042926 -43.327969 
L 215.516059 -43.327969 
L 214.989192 -43.327969 
L 214.462325 -43.327969 
L 213.935458 -43.327969 
L 213.408591 -43.327969 
L 212.881724 -43.327969 
L 212.354857 -43.327969 
L 211.82799 -43.327969 
L 211.301123 -43.327969 
L 210.774256 -43.327969 
L 210.247389 -43.327969 
L 209.720522 -43.327969 
L 209.193655 -43.327969 
L 208.666788 -43.327969 
L 208.139922 -43.327969 
L 207.613055 -43.327969 
L 207.086188 -43.327969 
L 206.559321 -43.327969 
L 206.032454 -43.327969 
L 205.505587 -43.327969 
L 204.97872 -43.327969 
L 204.451853 -43.327969 
L 203.924986 -43.327969 
L 203.398119 -43.327969 
L 202.871252 -43.327969 
L 202.344385 -43.327969 
L 201.817518 -43.327969 
L 201.290651 -43.327969 
L 200.763784 -43.327969 
L 200.236917 -43.327969 
L 199.71005 -43.327969 
L 199.183183 -43.327969 
L 198.656316 -43.327969 
L 198.129449 -43.327969 
L 197.602582 -43.327969 
L 197.075716 -43.327969 
L 196.548849 -43.327969 
L 196.021982 -43.327969 
L 195.495115 -43.327969 
L 194.968248 -43.327969 
L 194.441381 -43.327969 
L 193.914514 -43.327969 
L 193.387647 -43.327969 
L 192.86078 -43.327969 
L 192.333913 -43.327969 
L 191.807046 -43.327969 
L 191.280179 -43.327969 
L 190.753312 -43.327969 
L 190.226445 -43.327969 
L 189.699578 -43.327969 
L 189.172711 -43.327969 
L 188.645844 -43.327969 
L 188.118977 -43.327969 
L 187.59211 -43.327969 
L 187.065243 -43.327969 
L 186.538376 -43.327969 
L 186.01151 -43.327969 
L 185.484643 -43.327969 
L 184.957776 -43.327969 
L 184.430909 -43.327969 
L 183.904042 -43.327969 
L 183.377175 -43.327969 
L 182.850308 -43.327969 
L 182.323441 -43.327969 
L 181.796574 -43.327969 
L 181.269707 -43.327969 
L 180.74284 -43.327969 
L 180.215973 -43.327969 
L 179.689106 -43.327969 
L 179.162239 -43.327969 
L 178.635372 -43.327969 
L 178.108505 -43.327969 
L 177.581638 -43.327969 
L 177.054771 -43.327969 
L 176.527904 -43.327969 
L 176.001037 -43.327969 
L 175.47417 -43.327969 
L 174.947304 -43.327969 
L 174.420437 -43.327969 
L 173.89357 -43.327969 
L 173.366703 -43.327969 
L 172.839836 -43.327969 
L 172.312969 -43.327969 
L 171.786102 -43.327969 
L 171.259235 -43.327969 
L 170.732368 -43.327969 
L 170.205501 -43.327969 
L 169.678634 -43.327969 
L 169.151767 -43.327969 
L 168.6249 -43.327969 
L 168.098033 -43.327969 
L 167.571166 -43.327969 
L 167.044299 -43.327969 
L 166.517432 -43.327969 
L 165.990565 -43.327969 
L 165.463698 -43.327969 
L 164.936831 -43.327969 
L 164.409964 -43.327969 
L 163.883098 -43.327969 
L 163.356231 -43.327969 
L 162.829364 -43.327969 
L 162.302497 -43.327969 
L 161.77563 -43.327969 
L 161.248763 -43.327969 
L 160.721896 -43.327969 
L 160.195029 -43.327969 
L 159.668162 -43.327969 
L 159.141295 -43.327969 
L 158.614428 -43.327969 
L 158.087561 -43.327969 
L 157.560694 -43.327969 
L 157.033827 -43.327969 
L 156.50696 -43.327969 
L 155.980093 -43.327969 
L 155.453226 -43.327969 
L 154.926359 -43.327969 
L 154.399492 -43.327969 
L 153.872625 -43.327969 
L 153.345758 -43.327969 
L 152.818891 -43.327969 
L 152.292025 -43.327969 
L 151.765158 -43.327969 
L 151.238291 -43.327969 
L 150.711424 -43.327969 
L 150.184557 -43.327969 
L 149.65769 -43.327969 
L 149.130823 -43.327969 
L 148.603956 -43.327969 
L 148.077089 -43.327969 
L 147.550222 -43.327969 
L 147.023355 -43.327969 
L 146.496488 -43.327969 
L 145.969621 -43.327969 
L 145.442754 -43.327969 
L 144.915887 -43.327969 
L 144.38902 -43.327969 
L 143.862153 -43.327969 
L 143.335286 -43.327969 
L 142.808419 -43.327969 
L 142.281552 -43.327969 
L 141.754685 -43.327969 
L 141.227819 -43.327969 
L 140.700952 -43.327969 
L 140.174085 -43.327969 
L 139.647218 -43.327969 
L 139.120351 -43.327969 
L 138.593484 -43.327969 
L 138.066617 -43.327969 
L 137.53975 -43.327969 
L 137.012883 -43.327969 
L 136.486016 -43.327969 
L 135.959149 -43.327969 
L 135.432282 -43.327969 
L 134.905415 -43.327969 
L 134.378548 -43.327969 
L 133.851681 -43.327969 
L 133.324814 -43.327969 
L 132.797947 -43.327969 
L 132.27108 -43.327969 
L 131.744213 -43.327969 
L 131.217346 -43.327969 
L 130.690479 -43.327969 
L 130.163613 -43.327969 
L 129.636746 -43.327969 
L 129.109879 -43.327969 
L 128.583012 -43.327969 
L 128.056145 -43.327969 
L 127.529278 -43.327969 
L 127.002411 -43.327969 
L 126.475544 -43.327969 
L 125.948677 -43.327969 
L 125.42181 -43.327969 
L 124.894943 -43.327969 
L 124.368076 -43.327969 
L 123.841209 -43.327969 
L 123.314342 -43.327969 
L 122.787475 -43.327969 
L 122.260608 -43.327969 
L 121.733741 -43.327969 
L 121.206874 -43.327969 
L 120.680007 -43.327969 
L 120.15314 -43.327969 
L 119.626273 -43.327969 
L 119.099407 -43.327969 
L 118.57254 -43.327969 
L 118.045673 -43.327969 
L 117.518806 -43.327969 
L 116.991939 -43.327969 
L 116.465072 -43.327969 
L 115.938205 -43.327969 
L 115.411338 -43.327969 
L 114.884471 -43.327969 
L 114.357604 -43.327969 
L 113.830737 -43.327969 
L 113.30387 -43.327969 
L 112.777003 -43.327969 
L 112.250136 -43.327969 
L 111.723269 -43.327969 
L 111.196402 -43.327969 
L 110.669535 -43.327969 
L 110.142668 -43.327969 
L 109.615801 -43.327969 
L 109.088934 -43.327969 
L 108.562067 -43.327969 
L 108.035201 -43.327969 
L 107.508334 -43.327969 
L 106.981467 -43.327969 
L 106.4546 -43.327969 
L 105.927733 -43.327969 
L 105.400866 -43.327969 
L 104.873999 -43.327969 
L 104.347132 -43.327969 
L 103.820265 -43.327969 
L 103.293398 -43.327969 
L 102.766531 -43.327969 
L 102.239664 -43.327969 
L 101.712797 -43.327969 
L 101.18593 -43.327969 
L 100.659063 -43.327969 
L 100.132196 -43.327969 
L 99.605329 -43.327969 
L 99.078462 -43.327969 
L 98.551595 -43.327969 
L 98.024728 -43.327969 
L 97.497861 -43.327969 
L 96.970995 -43.327969 
L 96.444128 -43.327969 
L 95.917261 -43.327969 
L 95.390394 -43.327969 
L 94.863527 -43.327969 
L 94.33666 -43.327969 
L 93.809793 -43.327969 
L 93.282926 -43.327969 
L 92.756059 -43.327969 
L 92.229192 -43.327969 
L 91.702325 -43.327969 
L 91.175458 -43.327969 
L 90.648591 -43.327969 
L 90.121724 -43.327969 
L 89.594857 -43.327969 
L 89.06799 -43.327969 
L 88.541123 -43.327969 
L 88.014256 -43.327969 
L 87.487389 -43.327969 
L 86.960522 -43.327969 
L 86.433655 -43.327969 
L 85.906788 -43.327969 
L 85.379922 -43.327969 
L 84.853055 -43.327969 
L 84.326188 -43.327969 
L 83.799321 -43.327969 
L 83.272454 -43.327969 
L 82.745587 -43.327969 
L 82.21872 -43.327969 
L 81.691853 -43.327969 
L 81.164986 -43.327969 
L 80.638119 -43.327969 
L 80.111252 -43.327969 
L 79.584385 -43.327969 
L 79.057518 -43.327969 
L 78.530651 -43.327969 
L 78.003784 -43.327969 
L 77.476917 -43.327969 
L 76.95005 -43.327969 
L 76.423183 -43.327969 
L 75.896316 -43.327969 
L 75.369449 -43.327969 
L 74.842582 -43.327969 
L 74.315716 -43.327969 
L 73.788849 -43.327969 
L 73.261982 -43.327969 
L 72.735115 -43.327969 
L 72.208248 -43.327969 
L 71.681381 -43.327969 
L 71.154514 -43.327969 
L 70.627647 -43.327969 
L 70.10078 -43.327969 
L 69.573913 -43.327969 
L 69.047046 -43.327969 
L 68.520179 -43.327969 
L 67.993312 -43.327969 
L 67.466445 -43.327969 
L 66.939578 -43.327969 
L 66.412711 -43.327969 
L 65.885844 -43.327969 
L 65.358977 -43.327969 
L 64.83211 -43.327969 
L 64.305243 -43.327969 
L 63.778376 -43.327969 
L 63.25151 -43.327969 
L 62.724643 -43.327969 
L 62.197776 -43.327969 
L 61.670909 -43.327969 
L 61.144042 -43.327969 
L 60.617175 -43.327969 
L 60.090308 -43.327969 
L 59.563441 -43.327969 
L 59.036574 -43.327969 
L 58.509707 -43.327969 
L 57.98284 -43.327969 
L 57.455973 -43.327969 
L 56.929106 -43.327969 
L 56.402239 -43.327969 
L 55.875372 -43.327969 
L 55.348505 -43.327969 
L 54.821638 -43.327969 
L 54.294771 -43.327969 
L 53.767904 -43.327969 
L 53.241037 -43.327969 
L 52.71417 -43.327969 
L 52.187304 -43.327969 
L 51.660437 -43.327969 
L 51.13357 -43.327969 
L 50.606703 -43.327969 
L 50.079836 -43.327969 
L 49.552969 -43.327969 
z
" style="stroke: #2980b9; stroke-opacity: 0.15"/>
    </defs>
    <g clip-path="url(#pcd5f3d5672)">
     <use xlink:href="#md54e8ad819" x="0" y="302.029937" style="fill: #2980b9; fill-opacity: 0.15; stroke: #2980b9; stroke-opacity: 0.15"/>
    </g>
   </g>
   <g id="line2d_33">
    <path d="M 49.552969 258.701969 
L 52.71417 258.602462 
L 53.241037 258.457237 
L 53.767904 258.192047 
L 54.294771 257.761155 
L 54.821638 257.119389 
L 55.348505 256.225388 
L 55.875372 255.043902 
L 56.402239 253.547173 
L 57.455973 249.537423 
L 58.509707 244.13301 
L 59.563441 237.380595 
L 60.617175 229.408922 
L 62.197776 215.57154 
L 64.305243 194.735031 
L 70.627647 130.359145 
L 72.735115 111.795102 
L 74.315716 99.416117 
L 75.896316 88.457781 
L 77.476917 78.945247 
L 79.057518 70.860922 
L 80.638119 64.156048 
L 81.691853 60.418345 
L 82.745587 57.238057 
L 83.799321 54.588573 
L 84.853055 52.441988 
L 85.906788 50.769657 
L 86.960522 49.542656 
L 88.014256 48.732157 
L 89.06799 48.309719 
L 90.121724 48.247532 
L 91.175458 48.518595 
L 92.229192 49.096855 
L 93.282926 49.957307 
L 94.33666 51.076063 
L 95.917261 53.189123 
L 97.497861 55.760794 
L 99.078462 58.72535 
L 101.18593 63.186594 
L 103.820265 69.405609 
L 106.981467 77.537354 
L 111.723269 90.508331 
L 122.787475 121.06505 
L 127.529278 133.365554 
L 131.744213 143.664435 
L 135.432282 152.137359 
L 139.120351 160.090718 
L 142.808419 167.523867 
L 146.496488 174.446643 
L 150.184557 180.876106 
L 153.872625 186.834074 
L 157.560694 192.345289 
L 161.248763 197.436051 
L 164.936831 202.13323 
L 168.6249 206.463553 
L 172.312969 210.453102 
L 176.001037 214.126982 
L 179.689106 217.509095 
L 183.377175 220.622018 
L 187.59211 223.877131 
L 191.807046 226.837637 
L 196.021982 229.530542 
L 200.236917 231.980576 
L 204.97872 234.474582 
L 209.720522 236.718803 
L 214.989192 238.951087 
L 220.257861 240.939058 
L 226.053398 242.877173 
L 231.848934 244.586592 
L 238.171338 246.224144 
L 245.020608 247.766619 
L 252.396746 249.197286 
L 260.29975 250.505547 
L 269.256488 251.753627 
L 278.740093 252.851155 
L 289.277432 253.851531 
L 301.395372 254.775028 
L 315.093913 255.592043 
L 330.899922 256.309372 
L 349.867132 256.938992 
L 373.049278 257.4724 
L 402.02696 257.903714 
L 417.832969 258.066218 
L 417.832969 258.066218 
" clip-path="url(#pcd5f3d5672)" style="fill: none; stroke: #2980b9; stroke-width: 2.6; stroke-linecap: square"/>
   </g>
   <g id="line2d_34">
    <path d="M 89.781805 258.701969 
L 89.781805 31.397969 
" clip-path="url(#pcd5f3d5672)" style="fill: none; stroke-dasharray: 7.4,3.2; stroke-dashoffset: 0; stroke: #27ae60; stroke-opacity: 0.9; stroke-width: 2"/>
   </g>
   <g id="line2d_35">
    <path d="M 110.932969 258.701969 
L 110.932969 31.397969 
" clip-path="url(#pcd5f3d5672)" style="fill: none; stroke-dasharray: 7.4,3.2; stroke-dashoffset: 0; stroke: #e67e22; stroke-opacity: 0.9; stroke-width: 2"/>
   </g>
   <g id="line2d_36">
    <path d="M 125.370841 258.701969 
L 125.370841 31.397969 
" clip-path="url(#pcd5f3d5672)" style="fill: none; stroke-dasharray: 7.4,3.2; stroke-dashoffset: 0; stroke: #c0392b; stroke-opacity: 0.9; stroke-width: 2"/>
   </g>
   <g id="patch_3">
    <path d="M 49.552969 258.701969 
L 49.552969 31.397969 
" style="fill: none; stroke: #2c3e50; stroke-width: 1.2; stroke-linejoin: miter; stroke-linecap: square"/>
   </g>
   <g id="patch_4">
    <path d="M 49.552969 258.701969 
L 417.832969 258.701969 
" style="fill: none; stroke: #2c3e50; stroke-width: 1.2; stroke-linejoin: miter; stroke-linecap: square"/>
   </g>
   <g id="patch_5">
    <path d="M 119.545941 65.072635 
Q 105.664852 65.072635 93.34901 65.072635 
" style="fill: none; stroke: #27ae60; stroke-width: 1.4; stroke-linecap: round"/>
    <path d="M 97.14901 66.972635 
L 93.34901 65.072635 
L 97.14901 63.172635 
" style="fill: none; stroke: #27ae60; stroke-width: 1.4; stroke-linecap: round"/>
   </g>
   <g id="text_19">
    <!-- moda -->
    <g style="fill: #27ae60" transform="translate(123.540805 62.375081) scale(0.095 -0.095)">
     <defs>
      <path id="DejaVuSans-Bold-6d" d="M 3781 2919 
Q 3994 3244 4286 3414 
Q 4578 3584 4928 3584 
Q 5531 3584 5847 3212 
Q 6163 2841 6163 2131 
L 6163 0 
L 5038 0 
L 5038 1825 
Q 5041 1866 5042 1909 
Q 5044 1953 5044 2034 
Q 5044 2406 4934 2573 
Q 4825 2741 4581 2741 
Q 4263 2741 4089 2478 
Q 3916 2216 3909 1719 
L 3909 0 
L 2784 0 
L 2784 1825 
Q 2784 2406 2684 2573 
Q 2584 2741 2328 2741 
Q 2006 2741 1831 2477 
Q 1656 2213 1656 1722 
L 1656 0 
L 531 0 
L 531 3500 
L 1656 3500 
L 1656 2988 
Q 1863 3284 2130 3434 
Q 2397 3584 2719 3584 
Q 3081 3584 3359 3409 
Q 3638 3234 3781 2919 
z
" transform="scale(0.015625)"/>
     </defs>
     <use xlink:href="#DejaVuSans-Bold-6d"/>
     <use xlink:href="#DejaVuSans-Bold-6f" x="104.199219"/>
     <use xlink:href="#DejaVuSans-Bold-64" x="172.900391"/>
     <use xlink:href="#DejaVuSans-Bold-61" x="244.482422"/>
    </g>
    <!-- (0.66) -->
    <g style="fill: #27ae60" transform="translate(123.540805 73.013003) scale(0.095 -0.095)">
     <defs>
      <path id="DejaVuSans-Bold-28" d="M 2413 -844 
L 1484 -844 
Q 1006 -72 778 623 
Q 550 1319 550 2003 
Q 550 2688 779 3389 
Q 1009 4091 1484 4856 
L 2413 4856 
Q 2013 4116 1813 3408 
Q 1613 2700 1613 2009 
Q 1613 1319 1811 609 
Q 2009 -100 2413 -844 
z
" transform="scale(0.015625)"/>
      <path id="DejaVuSans-Bold-30" d="M 2944 2338 
Q 2944 3213 2780 3570 
Q 2616 3928 2228 3928 
Q 1841 3928 1675 3570 
Q 1509 3213 1509 2338 
Q 1509 1453 1675 1090 
Q 1841 728 2228 728 
Q 2613 728 2778 1090 
Q 2944 1453 2944 2338 
z
M 4147 2328 
Q 4147 1169 3647 539 
Q 3147 -91 2228 -91 
Q 1306 -91 806 539 
Q 306 1169 306 2328 
Q 306 3491 806 4120 
Q 1306 4750 2228 4750 
Q 3147 4750 3647 4120 
Q 4147 3491 4147 2328 
z
" transform="scale(0.015625)"/>
      <path id="DejaVuSans-Bold-2e" d="M 653 1209 
L 1778 1209 
L 1778 0 
L 653 0 
L 653 1209 
z
" transform="scale(0.015625)"/>
      <path id="DejaVuSans-Bold-36" d="M 2316 2303 
Q 2000 2303 1842 2098 
Q 1684 1894 1684 1484 
Q 1684 1075 1842 870 
Q 2000 666 2316 666 
Q 2634 666 2792 870 
Q 2950 1075 2950 1484 
Q 2950 1894 2792 2098 
Q 2634 2303 2316 2303 
z
M 3803 4544 
L 3803 3681 
Q 3506 3822 3243 3889 
Q 2981 3956 2731 3956 
Q 2194 3956 1894 3657 
Q 1594 3359 1544 2772 
Q 1750 2925 1990 3001 
Q 2231 3078 2516 3078 
Q 3231 3078 3670 2659 
Q 4109 2241 4109 1563 
Q 4109 813 3618 361 
Q 3128 -91 2303 -91 
Q 1394 -91 895 523 
Q 397 1138 397 2266 
Q 397 3422 980 4083 
Q 1563 4744 2578 4744 
Q 2900 4744 3203 4694 
Q 3506 4644 3803 4544 
z
" transform="scale(0.015625)"/>
      <path id="DejaVuSans-Bold-29" d="M 513 -844 
Q 913 -100 1113 609 
Q 1313 1319 1313 2009 
Q 1313 2700 1113 3408 
Q 913 4116 513 4856 
L 1441 4856 
Q 1916 4091 2145 3389 
Q 2375 2688 2375 2003 
Q 2375 1319 2147 623 
Q 1919 -72 1441 -844 
L 513 -844 
z
" transform="scale(0.015625)"/>
     </defs>
     <use xlink:href="#DejaVuSans-Bold-28"/>
     <use xlink:href="#DejaVuSans-Bold-30" x="45.703125"/>
     <use xlink:href="#DejaVuSans-Bold-2e" x="115.283203"/>
     <use xlink:href="#DejaVuSans-Bold-36" x="153.271484"/>
     <use xlink:href="#DejaVuSans-Bold-36" x="222.851562"/>
     <use xlink:href="#DejaVuSans-Bold-29" x="292.431641"/>
    </g>
   </g>
   <g id="patch_6">
    <path d="M 140.696118 94.537969 
Q 126.815489 94.537969 114.500108 94.537969 
" style="fill: none; stroke: #e67e22; stroke-width: 1.4; stroke-linecap: round"/>
    <path d="M 118.300108 96.437969 
L 114.500108 94.537969 
L 118.300108 92.637969 
" style="fill: none; stroke: #e67e22; stroke-width: 1.4; stroke-linecap: round"/>
   </g>
   <g id="text_20">
    <!-- mediana -->
    <g style="fill: #e67e22" transform="translate(144.691969 91.840414) scale(0.095 -0.095)">
     <use xlink:href="#DejaVuSans-Bold-6d"/>
     <use xlink:href="#DejaVuSans-Bold-65" x="104.199219"/>
     <use xlink:href="#DejaVuSans-Bold-64" x="172.021484"/>
     <use xlink:href="#DejaVuSans-Bold-69" x="243.603516"/>
     <use xlink:href="#DejaVuSans-Bold-61" x="277.880859"/>
     <use xlink:href="#DejaVuSans-Bold-6e" x="345.361328"/>
     <use xlink:href="#DejaVuSans-Bold-61" x="416.552734"/>
    </g>
    <!-- (1.00) -->
    <g style="fill: #e67e22" transform="translate(144.691969 102.478336) scale(0.095 -0.095)">
     <defs>
      <path id="DejaVuSans-Bold-31" d="M 750 831 
L 1813 831 
L 1813 3847 
L 722 3622 
L 722 4441 
L 1806 4666 
L 2950 4666 
L 2950 831 
L 4013 831 
L 4013 0 
L 750 0 
L 750 831 
z
" transform="scale(0.015625)"/>
     </defs>
     <use xlink:href="#DejaVuSans-Bold-28"/>
     <use xlink:href="#DejaVuSans-Bold-31" x="45.703125"/>
     <use xlink:href="#DejaVuSans-Bold-2e" x="115.283203"/>
     <use xlink:href="#DejaVuSans-Bold-30" x="153.271484"/>
     <use xlink:href="#DejaVuSans-Bold-30" x="222.851562"/>
     <use xlink:href="#DejaVuSans-Bold-29" x="292.431641"/>
    </g>
   </g>
   <g id="patch_7">
    <path d="M 155.134129 124.003302 
Q 141.253435 124.003302 128.93799 124.003302 
" style="fill: none; stroke: #c0392b; stroke-width: 1.4; stroke-linecap: round"/>
    <path d="M 132.73799 125.903302 
L 128.93799 124.003302 
L 132.73799 122.103302 
" style="fill: none; stroke: #c0392b; stroke-width: 1.4; stroke-linecap: round"/>
   </g>
   <g id="text_21">
    <!-- media -->
    <g style="fill: #c0392b" transform="translate(159.129841 121.305747) scale(0.095 -0.095)">
     <use xlink:href="#DejaVuSans-Bold-6d"/>
     <use xlink:href="#DejaVuSans-Bold-65" x="104.199219"/>
     <use xlink:href="#DejaVuSans-Bold-64" x="172.021484"/>
     <use xlink:href="#DejaVuSans-Bold-69" x="243.603516"/>
     <use xlink:href="#DejaVuSans-Bold-61" x="277.880859"/>
    </g>
    <!-- (1.24) -->
    <g style="fill: #c0392b" transform="translate(159.129841 131.943669) scale(0.095 -0.095)">
     <defs>
      <path id="DejaVuSans-Bold-32" d="M 1844 884 
L 3897 884 
L 3897 0 
L 506 0 
L 506 884 
L 2209 2388 
Q 2438 2594 2547 2791 
Q 2656 2988 2656 3200 
Q 2656 3528 2436 3728 
Q 2216 3928 1850 3928 
Q 1569 3928 1234 3808 
Q 900 3688 519 3450 
L 519 4475 
Q 925 4609 1322 4679 
Q 1719 4750 2100 4750 
Q 2938 4750 3402 4381 
Q 3866 4013 3866 3353 
Q 3866 2972 3669 2642 
Q 3472 2313 2841 1759 
L 1844 884 
z
" transform="scale(0.015625)"/>
      <path id="DejaVuSans-Bold-34" d="M 2356 3675 
L 1038 1722 
L 2356 1722 
L 2356 3675 
z
M 2156 4666 
L 3494 4666 
L 3494 1722 
L 4159 1722 
L 4159 850 
L 3494 850 
L 3494 0 
L 2356 0 
L 2356 850 
L 288 850 
L 288 1881 
L 2156 4666 
z
" transform="scale(0.015625)"/>
     </defs>
     <use xlink:href="#DejaVuSans-Bold-28"/>
     <use xlink:href="#DejaVuSans-Bold-31" x="45.703125"/>
     <use xlink:href="#DejaVuSans-Bold-2e" x="115.283203"/>
     <use xlink:href="#DejaVuSans-Bold-32" x="153.271484"/>
     <use xlink:href="#DejaVuSans-Bold-34" x="222.851562"/>
     <use xlink:href="#DejaVuSans-Bold-29" x="292.431641"/>
    </g>
   </g>
   <g id="text_22">
    <!-- Asimetría a derecha: moda &lt; mediana &lt; media -->
    <g transform="translate(61.005234 21.397969) scale(0.13 -0.13)">
     <defs>
      <path id="DejaVuSans-Bold-41" d="M 3419 850 
L 1538 850 
L 1241 0 
L 31 0 
L 1759 4666 
L 3194 4666 
L 4922 0 
L 3713 0 
L 3419 850 
z
M 1838 1716 
L 3116 1716 
L 2478 3572 
L 1838 1716 
z
" transform="scale(0.015625)"/>
      <path id="DejaVuSans-Bold-74" d="M 1759 4494 
L 1759 3500 
L 2913 3500 
L 2913 2700 
L 1759 2700 
L 1759 1216 
Q 1759 972 1856 886 
Q 1953 800 2241 800 
L 2816 800 
L 2816 0 
L 1856 0 
Q 1194 0 917 276 
Q 641 553 641 1216 
L 641 2700 
L 84 2700 
L 84 3500 
L 641 3500 
L 641 4494 
L 1759 4494 
z
" transform="scale(0.015625)"/>
      <path id="DejaVuSans-Bold-ed" d="M 538 3500 
L 1656 3500 
L 1656 0 
L 538 0 
L 538 3500 
z
M 1590 5119 
L 2474 5119 
L 1321 3944 
L 709 3944 
L 1590 5119 
z
" transform="scale(0.015625)"/>
      <path id="DejaVuSans-Bold-20" transform="scale(0.015625)"/>
      <path id="DejaVuSans-Bold-63" d="M 3366 3391 
L 3366 2478 
Q 3138 2634 2908 2709 
Q 2678 2784 2431 2784 
Q 1963 2784 1702 2511 
Q 1441 2238 1441 1747 
Q 1441 1256 1702 982 
Q 1963 709 2431 709 
Q 2694 709 2930 787 
Q 3166 866 3366 1019 
L 3366 103 
Q 3103 6 2833 -42 
Q 2563 -91 2291 -91 
Q 1344 -91 809 395 
Q 275 881 275 1747 
Q 275 2613 809 3098 
Q 1344 3584 2291 3584 
Q 2566 3584 2833 3536 
Q 3100 3488 3366 3391 
z
" transform="scale(0.015625)"/>
      <path id="DejaVuSans-Bold-68" d="M 4056 2131 
L 4056 0 
L 2931 0 
L 2931 347 
L 2931 1625 
Q 2931 2084 2911 2256 
Q 2891 2428 2841 2509 
Q 2775 2619 2662 2680 
Q 2550 2741 2406 2741 
Q 2056 2741 1856 2470 
Q 1656 2200 1656 1722 
L 1656 0 
L 538 0 
L 538 4863 
L 1656 4863 
L 1656 2988 
Q 1909 3294 2193 3439 
Q 2478 3584 2822 3584 
Q 3428 3584 3742 3212 
Q 4056 2841 4056 2131 
z
" transform="scale(0.015625)"/>
      <path id="DejaVuSans-Bold-3a" d="M 716 3500 
L 1844 3500 
L 1844 2291 
L 716 2291 
L 716 3500 
z
M 716 1209 
L 1844 1209 
L 1844 0 
L 716 0 
L 716 1209 
z
" transform="scale(0.015625)"/>
      <path id="DejaVuSans-Bold-3c" d="M 4684 3041 
L 1672 2003 
L 4684 972 
L 4684 191 
L 678 1638 
L 678 2375 
L 4684 3822 
L 4684 3041 
z
" transform="scale(0.015625)"/>
     </defs>
     <use xlink:href="#DejaVuSans-Bold-41"/>
     <use xlink:href="#DejaVuSans-Bold-73" x="77.392578"/>
     <use xlink:href="#DejaVuSans-Bold-69" x="136.914062"/>
     <use xlink:href="#DejaVuSans-Bold-6d" x="171.191406"/>
     <use xlink:href="#DejaVuSans-Bold-65" x="275.390625"/>
     <use xlink:href="#DejaVuSans-Bold-74" x="343.212891"/>
     <use xlink:href="#DejaVuSans-Bold-72" x="391.015625"/>
     <use xlink:href="#DejaVuSans-Bold-ed" x="440.332031"/>
     <use xlink:href="#DejaVuSans-Bold-61" x="474.609375"/>
     <use xlink:href="#DejaVuSans-Bold-20" x="542.089844"/>
     <use xlink:href="#DejaVuSans-Bold-61" x="576.904297"/>
     <use xlink:href="#DejaVuSans-Bold-20" x="644.384766"/>
     <use xlink:href="#DejaVuSans-Bold-64" x="679.199219"/>
     <use xlink:href="#DejaVuSans-Bold-65" x="750.78125"/>
     <use xlink:href="#DejaVuSans-Bold-72" x="818.603516"/>
     <use xlink:href="#DejaVuSans-Bold-65" x="867.919922"/>
     <use xlink:href="#DejaVuSans-Bold-63" x="935.742188"/>
     <use xlink:href="#DejaVuSans-Bold-68" x="995.019531"/>
     <use xlink:href="#DejaVuSans-Bold-61" x="1066.210938"/>
     <use xlink:href="#DejaVuSans-Bold-3a" x="1133.691406"/>
     <use xlink:href="#DejaVuSans-Bold-20" x="1173.681641"/>
     <use xlink:href="#DejaVuSans-Bold-6d" x="1208.496094"/>
     <use xlink:href="#DejaVuSans-Bold-6f" x="1312.695312"/>
     <use xlink:href="#DejaVuSans-Bold-64" x="1381.396484"/>
     <use xlink:href="#DejaVuSans-Bold-61" x="1452.978516"/>
     <use xlink:href="#DejaVuSans-Bold-20" x="1520.458984"/>
     <use xlink:href="#DejaVuSans-Bold-3c" x="1555.273438"/>
     <use xlink:href="#DejaVuSans-Bold-20" x="1639.0625"/>
     <use xlink:href="#DejaVuSans-Bold-6d" x="1673.876953"/>
     <use xlink:href="#DejaVuSans-Bold-65" x="1778.076172"/>
     <use xlink:href="#DejaVuSans-Bold-64" x="1845.898438"/>
     <use xlink:href="#DejaVuSans-Bold-69" x="1917.480469"/>
     <use xlink:href="#DejaVuSans-Bold-61" x="1951.757812"/>
     <use xlink:href="#DejaVuSans-Bold-6e" x="2019.238281"/>
     <use xlink:href="#DejaVuSans-Bold-61" x="2090.429688"/>
     <use xlink:href="#DejaVuSans-Bold-20" x="2157.910156"/>
     <use xlink:href="#DejaVuSans-Bold-3c" x="2192.724609"/>
     <use xlink:href="#DejaVuSans-Bold-20" x="2276.513672"/>
     <use xlink:href="#DejaVuSans-Bold-6d" x="2311.328125"/>
     <use xlink:href="#DejaVuSans-Bold-65" x="2415.527344"/>
     <use xlink:href="#DejaVuSans-Bold-64" x="2483.349609"/>
     <use xlink:href="#DejaVuSans-Bold-69" x="2554.931641"/>
     <use xlink:href="#DejaVuSans-Bold-61" x="2589.208984"/>
    </g>
   </g>
  </g>
 </g>
 <defs>
  <clipPath id="pcd5f3d5672">
   <rect x="49.552969" y="31.397969" width="368.28" height="227.304"/>
  </clipPath>
 </defs>
</svg>
