<?xml version="1.0" encoding="utf-8" standalone="no"?>
<!DOCTYPE svg PUBLIC "-//W3C//DTD SVG 1.1//EN"
  "http://www.w3.org/Graphics/SVG/1.1/DTD/svg11.dtd">
<svg xmlns:xlink="http://www.w3.org/1999/xlink" width="446.875469pt" height="308.093938pt" viewBox="0 0 446.875469 308.093938" xmlns="http://www.w3.org/2000/svg" version="1.1">
 <metadata>
  <rdf:RDF xmlns:dc="http://purl.org/dc/elements/1.1/" xmlns:cc="http://creativecommons.org/ns#" xmlns:rdf="http://www.w3.org/1999/02/22-rdf-syntax-ns#">
   <cc:Work>
    <dc:type rdf:resource="http://purl.org/dc/dcmitype/StillImage"/>
    <dc:date>2026-06-30T11:52:54.850097</dc:date>
    <dc:format>image/svg+xml</dc:format>
    <dc:creator>
     <cc:Agent>
      <dc:title>Matplotlib v3.9.2, https://matplotlib.org/</dc:title>
     </cc:Agent>
    </dc:creator>
   </cc:Work>
  </rdf:RDF>
 </metadata>
 <defs>
  <style type="text/css">*{stroke-linejoin: round; stroke-linecap: butt}</style>
 </defs>
 <g id="figure_1">
  <g id="patch_1">
   <path d="M 0 308.093938 
L 446.875469 308.093938 
L 446.875469 0 
L 0 0 
z
" style="fill: #ffffff"/>
  </g>
  <g id="axes_1">
   <g id="patch_2">
    <path d="M 55.915469 264.765969 
L 435.355469 264.765969 
L 435.355469 31.917969 
L 55.915469 31.917969 
z
" style="fill: #ffffff"/>
   </g>
   <g id="matplotlib.axis_1">
    <g id="xtick_1">
     <g id="line2d_1">
      <path d="M 87.535469 264.765969 
L 87.535469 31.917969 
" clip-path="url(#pfc748cc048)" style="fill: none; stroke-dasharray: 0.8,1.28; stroke-dashoffset: 0; stroke: #b0b0b0; stroke-opacity: 0.3; stroke-width: 0.8"/>
     </g>
     <g id="line2d_2">
      <defs>
       <path id="mf89b0234c9" d="M 0 0 
L 0 3.5 
" style="stroke: #2c3e50; stroke-width: 0.8"/>
      </defs>
      <g>
       <use xlink:href="#mf89b0234c9" x="87.535469" y="264.765969" style="fill: #2c3e50; stroke: #2c3e50; stroke-width: 0.8"/>
      </g>
     </g>
     <g id="text_1">
      <!-- −3 -->
      <g style="fill: #2c3e50" transform="translate(80.164375 279.364406) scale(0.1 -0.1)">
       <defs>
        <path id="DejaVuSans-2212" d="M 678 2272 
L 4684 2272 
L 4684 1741 
L 678 1741 
L 678 2272 
z
" transform="scale(0.015625)"/>
        <path id="DejaVuSans-33" d="M 2597 2516 
Q 3050 2419 3304 2112 
Q 3559 1806 3559 1356 
Q 3559 666 3084 287 
Q 2609 -91 1734 -91 
Q 1441 -91 1130 -33 
Q 819 25 488 141 
L 488 750 
Q 750 597 1062 519 
Q 1375 441 1716 441 
Q 2309 441 2620 675 
Q 2931 909 2931 1356 
Q 2931 1769 2642 2001 
Q 2353 2234 1838 2234 
L 1294 2234 
L 1294 2753 
L 1863 2753 
Q 2328 2753 2575 2939 
Q 2822 3125 2822 3475 
Q 2822 3834 2567 4026 
Q 2313 4219 1838 4219 
Q 1578 4219 1281 4162 
Q 984 4106 628 3988 
L 628 4550 
Q 988 4650 1302 4700 
Q 1616 4750 1894 4750 
Q 2613 4750 3031 4423 
Q 3450 4097 3450 3541 
Q 3450 3153 3228 2886 
Q 3006 2619 2597 2516 
z
" transform="scale(0.015625)"/>
       </defs>
       <use xlink:href="#DejaVuSans-2212"/>
       <use xlink:href="#DejaVuSans-33" x="83.789062"/>
      </g>
     </g>
    </g>
    <g id="xtick_2">
     <g id="line2d_3">
      <path d="M 140.235469 264.765969 
L 140.235469 31.917969 
" clip-path="url(#pfc748cc048)" style="fill: none; stroke-dasharray: 0.8,1.28; stroke-dashoffset: 0; stroke: #b0b0b0; stroke-opacity: 0.3; stroke-width: 0.8"/>
     </g>
     <g id="line2d_4">
      <g>
       <use xlink:href="#mf89b0234c9" x="140.235469" y="264.765969" style="fill: #2c3e50; stroke: #2c3e50; stroke-width: 0.8"/>
      </g>
     </g>
     <g id="text_2">
      <!-- −2 -->
      <g style="fill: #2c3e50" transform="translate(132.864375 279.364406) scale(0.1 -0.1)">
       <defs>
        <path id="DejaVuSans-32" d="M 1228 531 
L 3431 531 
L 3431 0 
L 469 0 
L 469 531 
Q 828 903 1448 1529 
Q 2069 2156 2228 2338 
Q 2531 2678 2651 2914 
Q 2772 3150 2772 3378 
Q 2772 3750 2511 3984 
Q 2250 4219 1831 4219 
Q 1534 4219 1204 4116 
Q 875 4013 500 3803 
L 500 4441 
Q 881 4594 1212 4672 
Q 1544 4750 1819 4750 
Q 2544 4750 2975 4387 
Q 3406 4025 3406 3419 
Q 3406 3131 3298 2873 
Q 3191 2616 2906 2266 
Q 2828 2175 2409 1742 
Q 1991 1309 1228 531 
z
" transform="scale(0.015625)"/>
       </defs>
       <use xlink:href="#DejaVuSans-2212"/>
       <use xlink:href="#DejaVuSans-32" x="83.789062"/>
      </g>
     </g>
    </g>
    <g id="xtick_3">
     <g id="line2d_5">
      <path d="M 192.935469 264.765969 
L 192.935469 31.917969 
" clip-path="url(#pfc748cc048)" style="fill: none; stroke-dasharray: 0.8,1.28; stroke-dashoffset: 0; stroke: #b0b0b0; stroke-opacity: 0.3; stroke-width: 0.8"/>
     </g>
     <g id="line2d_6">
      <g>
       <use xlink:href="#mf89b0234c9" x="192.935469" y="264.765969" style="fill: #2c3e50; stroke: #2c3e50; stroke-width: 0.8"/>
      </g>
     </g>
     <g id="text_3">
      <!-- −1 -->
      <g style="fill: #2c3e50" transform="translate(185.564375 279.364406) scale(0.1 -0.1)">
       <defs>
        <path id="DejaVuSans-31" d="M 794 531 
L 1825 531 
L 1825 4091 
L 703 3866 
L 703 4441 
L 1819 4666 
L 2450 4666 
L 2450 531 
L 3481 531 
L 3481 0 
L 794 0 
L 794 531 
z
" transform="scale(0.015625)"/>
       </defs>
       <use xlink:href="#DejaVuSans-2212"/>
       <use xlink:href="#DejaVuSans-31" x="83.789062"/>
      </g>
     </g>
    </g>
    <g id="xtick_4">
     <g id="line2d_7">
      <path d="M 245.635469 264.765969 
L 245.635469 31.917969 
" clip-path="url(#pfc748cc048)" style="fill: none; stroke-dasharray: 0.8,1.28; stroke-dashoffset: 0; stroke: #b0b0b0; stroke-opacity: 0.3; stroke-width: 0.8"/>
     </g>
     <g id="line2d_8">
      <g>
       <use xlink:href="#mf89b0234c9" x="245.635469" y="264.765969" style="fill: #2c3e50; stroke: #2c3e50; stroke-width: 0.8"/>
      </g>
     </g>
     <g id="text_4">
      <!-- 0 -->
      <g style="fill: #2c3e50" transform="translate(242.454219 279.364406) scale(0.1 -0.1)">
       <defs>
        <path id="DejaVuSans-30" d="M 2034 4250 
Q 1547 4250 1301 3770 
Q 1056 3291 1056 2328 
Q 1056 1369 1301 889 
Q 1547 409 2034 409 
Q 2525 409 2770 889 
Q 3016 1369 3016 2328 
Q 3016 3291 2770 3770 
Q 2525 4250 2034 4250 
z
M 2034 4750 
Q 2819 4750 3233 4129 
Q 3647 3509 3647 2328 
Q 3647 1150 3233 529 
Q 2819 -91 2034 -91 
Q 1250 -91 836 529 
Q 422 1150 422 2328 
Q 422 3509 836 4129 
Q 1250 4750 2034 4750 
z
" transform="scale(0.015625)"/>
       </defs>
       <use xlink:href="#DejaVuSans-30"/>
      </g>
     </g>
    </g>
    <g id="xtick_5">
     <g id="line2d_9">
      <path d="M 298.335469 264.765969 
L 298.335469 31.917969 
" clip-path="url(#pfc748cc048)" style="fill: none; stroke-dasharray: 0.8,1.28; stroke-dashoffset: 0; stroke: #b0b0b0; stroke-opacity: 0.3; stroke-width: 0.8"/>
     </g>
     <g id="line2d_10">
      <g>
       <use xlink:href="#mf89b0234c9" x="298.335469" y="264.765969" style="fill: #2c3e50; stroke: #2c3e50; stroke-width: 0.8"/>
      </g>
     </g>
     <g id="text_5">
      <!-- 1 -->
      <g style="fill: #2c3e50" transform="translate(295.154219 279.364406) scale(0.1 -0.1)">
       <use xlink:href="#DejaVuSans-31"/>
      </g>
     </g>
    </g>
    <g id="xtick_6">
     <g id="line2d_11">
      <path d="M 351.035469 264.765969 
L 351.035469 31.917969 
" clip-path="url(#pfc748cc048)" style="fill: none; stroke-dasharray: 0.8,1.28; stroke-dashoffset: 0; stroke: #b0b0b0; stroke-opacity: 0.3; stroke-width: 0.8"/>
     </g>
     <g id="line2d_12">
      <g>
       <use xlink:href="#mf89b0234c9" x="351.035469" y="264.765969" style="fill: #2c3e50; stroke: #2c3e50; stroke-width: 0.8"/>
      </g>
     </g>
     <g id="text_6">
      <!-- 2 -->
      <g style="fill: #2c3e50" transform="translate(347.854219 279.364406) scale(0.1 -0.1)">
       <use xlink:href="#DejaVuSans-32"/>
      </g>
     </g>
    </g>
    <g id="xtick_7">
     <g id="line2d_13">
      <path d="M 403.735469 264.765969 
L 403.735469 31.917969 
" clip-path="url(#pfc748cc048)" style="fill: none; stroke-dasharray: 0.8,1.28; stroke-dashoffset: 0; stroke: #b0b0b0; stroke-opacity: 0.3; stroke-width: 0.8"/>
     </g>
     <g id="line2d_14">
      <g>
       <use xlink:href="#mf89b0234c9" x="403.735469" y="264.765969" style="fill: #2c3e50; stroke: #2c3e50; stroke-width: 0.8"/>
      </g>
     </g>
     <g id="text_7">
      <!-- 3 -->
      <g style="fill: #2c3e50" transform="translate(400.554219 279.364406) scale(0.1 -0.1)">
       <use xlink:href="#DejaVuSans-33"/>
      </g>
     </g>
    </g>
    <g id="text_8">
     <!-- z -->
     <g transform="translate(242.288789 294.182297) scale(0.115 -0.115)">
      <defs>
       <path id="DejaVuSans-Bold-7a" d="M 366 3500 
L 3419 3500 
L 3419 2719 
L 1575 800 
L 3419 800 
L 3419 0 
L 288 0 
L 288 781 
L 2131 2700 
L 366 2700 
L 366 3500 
z
" transform="scale(0.015625)"/>
      </defs>
      <use xlink:href="#DejaVuSans-Bold-7a"/>
     </g>
    </g>
   </g>
   <g id="matplotlib.axis_2">
    <g id="ytick_1">
     <g id="line2d_15">
      <path d="M 55.915469 264.765969 
L 435.355469 264.765969 
" clip-path="url(#pfc748cc048)" style="fill: none; stroke-dasharray: 0.8,1.28; stroke-dashoffset: 0; stroke: #b0b0b0; stroke-opacity: 0.3; stroke-width: 0.8"/>
     </g>
     <g id="line2d_16">
      <defs>
       <path id="m726a80e63d" d="M 0 0 
L -3.5 0 
" style="stroke: #2c3e50; stroke-width: 0.8"/>
      </defs>
      <g>
       <use xlink:href="#m726a80e63d" x="55.915469" y="264.765969" style="fill: #2c3e50; stroke: #2c3e50; stroke-width: 0.8"/>
      </g>
     </g>
     <g id="text_9">
      <!-- 0.00 -->
      <g style="fill: #2c3e50" transform="translate(26.649844 268.565188) scale(0.1 -0.1)">
       <defs>
        <path id="DejaVuSans-2e" d="M 684 794 
L 1344 794 
L 1344 0 
L 684 0 
L 684 794 
z
" transform="scale(0.015625)"/>
       </defs>
       <use xlink:href="#DejaVuSans-30"/>
       <use xlink:href="#DejaVuSans-2e" x="63.623047"/>
       <use xlink:href="#DejaVuSans-30" x="95.410156"/>
       <use xlink:href="#DejaVuSans-30" x="159.033203"/>
      </g>
     </g>
    </g>
    <g id="ytick_2">
     <g id="line2d_17">
      <path d="M 55.915469 236.972192 
L 435.355469 236.972192 
" clip-path="url(#pfc748cc048)" style="fill: none; stroke-dasharray: 0.8,1.28; stroke-dashoffset: 0; stroke: #b0b0b0; stroke-opacity: 0.3; stroke-width: 0.8"/>
     </g>
     <g id="line2d_18">
      <g>
       <use xlink:href="#m726a80e63d" x="55.915469" y="236.972192" style="fill: #2c3e50; stroke: #2c3e50; stroke-width: 0.8"/>
      </g>
     </g>
     <g id="text_10">
      <!-- 0.05 -->
      <g style="fill: #2c3e50" transform="translate(26.649844 240.771411) scale(0.1 -0.1)">
       <defs>
        <path id="DejaVuSans-35" d="M 691 4666 
L 3169 4666 
L 3169 4134 
L 1269 4134 
L 1269 2991 
Q 1406 3038 1543 3061 
Q 1681 3084 1819 3084 
Q 2600 3084 3056 2656 
Q 3513 2228 3513 1497 
Q 3513 744 3044 326 
Q 2575 -91 1722 -91 
Q 1428 -91 1123 -41 
Q 819 9 494 109 
L 494 744 
Q 775 591 1075 516 
Q 1375 441 1709 441 
Q 2250 441 2565 725 
Q 2881 1009 2881 1497 
Q 2881 1984 2565 2268 
Q 2250 2553 1709 2553 
Q 1456 2553 1204 2497 
Q 953 2441 691 2322 
L 691 4666 
z
" transform="scale(0.015625)"/>
       </defs>
       <use xlink:href="#DejaVuSans-30"/>
       <use xlink:href="#DejaVuSans-2e" x="63.623047"/>
       <use xlink:href="#DejaVuSans-30" x="95.410156"/>
       <use xlink:href="#DejaVuSans-35" x="159.033203"/>
      </g>
     </g>
    </g>
    <g id="ytick_3">
     <g id="line2d_19">
      <path d="M 55.915469 209.178416 
L 435.355469 209.178416 
" clip-path="url(#pfc748cc048)" style="fill: none; stroke-dasharray: 0.8,1.28; stroke-dashoffset: 0; stroke: #b0b0b0; stroke-opacity: 0.3; stroke-width: 0.8"/>
     </g>
     <g id="line2d_20">
      <g>
       <use xlink:href="#m726a80e63d" x="55.915469" y="209.178416" style="fill: #2c3e50; stroke: #2c3e50; stroke-width: 0.8"/>
      </g>
     </g>
     <g id="text_11">
      <!-- 0.10 -->
      <g style="fill: #2c3e50" transform="translate(26.649844 212.977635) scale(0.1 -0.1)">
       <use xlink:href="#DejaVuSans-30"/>
       <use xlink:href="#DejaVuSans-2e" x="63.623047"/>
       <use xlink:href="#DejaVuSans-31" x="95.410156"/>
       <use xlink:href="#DejaVuSans-30" x="159.033203"/>
      </g>
     </g>
    </g>
    <g id="ytick_4">
     <g id="line2d_21">
      <path d="M 55.915469 181.384639 
L 435.355469 181.384639 
" clip-path="url(#pfc748cc048)" style="fill: none; stroke-dasharray: 0.8,1.28; stroke-dashoffset: 0; stroke: #b0b0b0; stroke-opacity: 0.3; stroke-width: 0.8"/>
     </g>
     <g id="line2d_22">
      <g>
       <use xlink:href="#m726a80e63d" x="55.915469" y="181.384639" style="fill: #2c3e50; stroke: #2c3e50; stroke-width: 0.8"/>
      </g>
     </g>
     <g id="text_12">
      <!-- 0.15 -->
      <g style="fill: #2c3e50" transform="translate(26.649844 185.183858) scale(0.1 -0.1)">
       <use xlink:href="#DejaVuSans-30"/>
       <use xlink:href="#DejaVuSans-2e" x="63.623047"/>
       <use xlink:href="#DejaVuSans-31" x="95.410156"/>
       <use xlink:href="#DejaVuSans-35" x="159.033203"/>
      </g>
     </g>
    </g>
    <g id="ytick_5">
     <g id="line2d_23">
      <path d="M 55.915469 153.590863 
L 435.355469 153.590863 
" clip-path="url(#pfc748cc048)" style="fill: none; stroke-dasharray: 0.8,1.28; stroke-dashoffset: 0; stroke: #b0b0b0; stroke-opacity: 0.3; stroke-width: 0.8"/>
     </g>
     <g id="line2d_24">
      <g>
       <use xlink:href="#m726a80e63d" x="55.915469" y="153.590863" style="fill: #2c3e50; stroke: #2c3e50; stroke-width: 0.8"/>
      </g>
     </g>
     <g id="text_13">
      <!-- 0.20 -->
      <g style="fill: #2c3e50" transform="translate(26.649844 157.390082) scale(0.1 -0.1)">
       <use xlink:href="#DejaVuSans-30"/>
       <use xlink:href="#DejaVuSans-2e" x="63.623047"/>
       <use xlink:href="#DejaVuSans-32" x="95.410156"/>
       <use xlink:href="#DejaVuSans-30" x="159.033203"/>
      </g>
     </g>
    </g>
    <g id="ytick_6">
     <g id="line2d_25">
      <path d="M 55.915469 125.797087 
L 435.355469 125.797087 
" clip-path="url(#pfc748cc048)" style="fill: none; stroke-dasharray: 0.8,1.28; stroke-dashoffset: 0; stroke: #b0b0b0; stroke-opacity: 0.3; stroke-width: 0.8"/>
     </g>
     <g id="line2d_26">
      <g>
       <use xlink:href="#m726a80e63d" x="55.915469" y="125.797087" style="fill: #2c3e50; stroke: #2c3e50; stroke-width: 0.8"/>
      </g>
     </g>
     <g id="text_14">
      <!-- 0.25 -->
      <g style="fill: #2c3e50" transform="translate(26.649844 129.596305) scale(0.1 -0.1)">
       <use xlink:href="#DejaVuSans-30"/>
       <use xlink:href="#DejaVuSans-2e" x="63.623047"/>
       <use xlink:href="#DejaVuSans-32" x="95.410156"/>
       <use xlink:href="#DejaVuSans-35" x="159.033203"/>
      </g>
     </g>
    </g>
    <g id="ytick_7">
     <g id="line2d_27">
      <path d="M 55.915469 98.00331 
L 435.355469 98.00331 
" clip-path="url(#pfc748cc048)" style="fill: none; stroke-dasharray: 0.8,1.28; stroke-dashoffset: 0; stroke: #b0b0b0; stroke-opacity: 0.3; stroke-width: 0.8"/>
     </g>
     <g id="line2d_28">
      <g>
       <use xlink:href="#m726a80e63d" x="55.915469" y="98.00331" style="fill: #2c3e50; stroke: #2c3e50; stroke-width: 0.8"/>
      </g>
     </g>
     <g id="text_15">
      <!-- 0.30 -->
      <g style="fill: #2c3e50" transform="translate(26.649844 101.802529) scale(0.1 -0.1)">
       <use xlink:href="#DejaVuSans-30"/>
       <use xlink:href="#DejaVuSans-2e" x="63.623047"/>
       <use xlink:href="#DejaVuSans-33" x="95.410156"/>
       <use xlink:href="#DejaVuSans-30" x="159.033203"/>
      </g>
     </g>
    </g>
    <g id="ytick_8">
     <g id="line2d_29">
      <path d="M 55.915469 70.209534 
L 435.355469 70.209534 
" clip-path="url(#pfc748cc048)" style="fill: none; stroke-dasharray: 0.8,1.28; stroke-dashoffset: 0; stroke: #b0b0b0; stroke-opacity: 0.3; stroke-width: 0.8"/>
     </g>
     <g id="line2d_30">
      <g>
       <use xlink:href="#m726a80e63d" x="55.915469" y="70.209534" style="fill: #2c3e50; stroke: #2c3e50; stroke-width: 0.8"/>
      </g>
     </g>
     <g id="text_16">
      <!-- 0.35 -->
      <g style="fill: #2c3e50" transform="translate(26.649844 74.008753) scale(0.1 -0.1)">
       <use xlink:href="#DejaVuSans-30"/>
       <use xlink:href="#DejaVuSans-2e" x="63.623047"/>
       <use xlink:href="#DejaVuSans-33" x="95.410156"/>
       <use xlink:href="#DejaVuSans-35" x="159.033203"/>
      </g>
     </g>
    </g>
    <g id="ytick_9">
     <g id="line2d_31">
      <path d="M 55.915469 42.415757 
L 435.355469 42.415757 
" clip-path="url(#pfc748cc048)" style="fill: none; stroke-dasharray: 0.8,1.28; stroke-dashoffset: 0; stroke: #b0b0b0; stroke-opacity: 0.3; stroke-width: 0.8"/>
     </g>
     <g id="line2d_32">
      <g>
       <use xlink:href="#m726a80e63d" x="55.915469" y="42.415757" style="fill: #2c3e50; stroke: #2c3e50; stroke-width: 0.8"/>
      </g>
     </g>
     <g id="text_17">
      <!-- 0.40 -->
      <g style="fill: #2c3e50" transform="translate(26.649844 46.214976) scale(0.1 -0.1)">
       <defs>
        <path id="DejaVuSans-34" d="M 2419 4116 
L 825 1625 
L 2419 1625 
L 2419 4116 
z
M 2253 4666 
L 3047 4666 
L 3047 1625 
L 3713 1625 
L 3713 1100 
L 3047 1100 
L 3047 0 
L 2419 0 
L 2419 1100 
L 313 1100 
L 313 1709 
L 2253 4666 
z
" transform="scale(0.015625)"/>
       </defs>
       <use xlink:href="#DejaVuSans-30"/>
       <use xlink:href="#DejaVuSans-2e" x="63.623047"/>
       <use xlink:href="#DejaVuSans-34" x="95.410156"/>
       <use xlink:href="#DejaVuSans-30" x="159.033203"/>
      </g>
     </g>
    </g>
    <g id="text_18">
     <!-- densidad -->
     <g transform="translate(20.258203 177.956266) rotate(-90) scale(0.115 -0.115)">
      <defs>
       <path id="DejaVuSans-Bold-64" d="M 2919 2988 
L 2919 4863 
L 4044 4863 
L 4044 0 
L 2919 0 
L 2919 506 
Q 2688 197 2409 53 
Q 2131 -91 1766 -91 
Q 1119 -91 703 423 
Q 288 938 288 1747 
Q 288 2556 703 3070 
Q 1119 3584 1766 3584 
Q 2128 3584 2408 3439 
Q 2688 3294 2919 2988 
z
M 2181 722 
Q 2541 722 2730 984 
Q 2919 1247 2919 1747 
Q 2919 2247 2730 2509 
Q 2541 2772 2181 2772 
Q 1825 2772 1636 2509 
Q 1447 2247 1447 1747 
Q 1447 1247 1636 984 
Q 1825 722 2181 722 
z
" transform="scale(0.015625)"/>
       <path id="DejaVuSans-Bold-65" d="M 4031 1759 
L 4031 1441 
L 1416 1441 
Q 1456 1047 1700 850 
Q 1944 653 2381 653 
Q 2734 653 3104 758 
Q 3475 863 3866 1075 
L 3866 213 
Q 3469 63 3072 -14 
Q 2675 -91 2278 -91 
Q 1328 -91 801 392 
Q 275 875 275 1747 
Q 275 2603 792 3093 
Q 1309 3584 2216 3584 
Q 3041 3584 3536 3087 
Q 4031 2591 4031 1759 
z
M 2881 2131 
Q 2881 2450 2695 2645 
Q 2509 2841 2209 2841 
Q 1884 2841 1681 2658 
Q 1478 2475 1428 2131 
L 2881 2131 
z
" transform="scale(0.015625)"/>
       <path id="DejaVuSans-Bold-6e" d="M 4056 2131 
L 4056 0 
L 2931 0 
L 2931 347 
L 2931 1631 
Q 2931 2084 2911 2256 
Q 2891 2428 2841 2509 
Q 2775 2619 2662 2680 
Q 2550 2741 2406 2741 
Q 2056 2741 1856 2470 
Q 1656 2200 1656 1722 
L 1656 0 
L 538 0 
L 538 3500 
L 1656 3500 
L 1656 2988 
Q 1909 3294 2193 3439 
Q 2478 3584 2822 3584 
Q 3428 3584 3742 3212 
Q 4056 2841 4056 2131 
z
" transform="scale(0.015625)"/>
       <path id="DejaVuSans-Bold-73" d="M 3272 3391 
L 3272 2541 
Q 2913 2691 2578 2766 
Q 2244 2841 1947 2841 
Q 1628 2841 1473 2761 
Q 1319 2681 1319 2516 
Q 1319 2381 1436 2309 
Q 1553 2238 1856 2203 
L 2053 2175 
Q 2913 2066 3209 1816 
Q 3506 1566 3506 1031 
Q 3506 472 3093 190 
Q 2681 -91 1863 -91 
Q 1516 -91 1145 -36 
Q 775 19 384 128 
L 384 978 
Q 719 816 1070 734 
Q 1422 653 1784 653 
Q 2113 653 2278 743 
Q 2444 834 2444 1013 
Q 2444 1163 2330 1236 
Q 2216 1309 1875 1350 
L 1678 1375 
Q 931 1469 631 1722 
Q 331 1975 331 2491 
Q 331 3047 712 3315 
Q 1094 3584 1881 3584 
Q 2191 3584 2531 3537 
Q 2872 3491 3272 3391 
z
" transform="scale(0.015625)"/>
       <path id="DejaVuSans-Bold-69" d="M 538 3500 
L 1656 3500 
L 1656 0 
L 538 0 
L 538 3500 
z
M 538 4863 
L 1656 4863 
L 1656 3950 
L 538 3950 
L 538 4863 
z
" transform="scale(0.015625)"/>
       <path id="DejaVuSans-Bold-61" d="M 2106 1575 
Q 1756 1575 1579 1456 
Q 1403 1338 1403 1106 
Q 1403 894 1545 773 
Q 1688 653 1941 653 
Q 2256 653 2472 879 
Q 2688 1106 2688 1447 
L 2688 1575 
L 2106 1575 
z
M 3816 1997 
L 3816 0 
L 2688 0 
L 2688 519 
Q 2463 200 2181 54 
Q 1900 -91 1497 -91 
Q 953 -91 614 226 
Q 275 544 275 1050 
Q 275 1666 698 1953 
Q 1122 2241 2028 2241 
L 2688 2241 
L 2688 2328 
Q 2688 2594 2478 2717 
Q 2269 2841 1825 2841 
Q 1466 2841 1156 2769 
Q 847 2697 581 2553 
L 581 3406 
Q 941 3494 1303 3539 
Q 1666 3584 2028 3584 
Q 2975 3584 3395 3211 
Q 3816 2838 3816 1997 
z
" transform="scale(0.015625)"/>
      </defs>
      <use xlink:href="#DejaVuSans-Bold-64"/>
      <use xlink:href="#DejaVuSans-Bold-65" x="71.582031"/>
      <use xlink:href="#DejaVuSans-Bold-6e" x="139.404297"/>
      <use xlink:href="#DejaVuSans-Bold-73" x="210.595703"/>
      <use xlink:href="#DejaVuSans-Bold-69" x="270.117188"/>
      <use xlink:href="#DejaVuSans-Bold-64" x="304.394531"/>
      <use xlink:href="#DejaVuSans-Bold-61" x="375.976562"/>
      <use xlink:href="#DejaVuSans-Bold-64" x="443.457031"/>
     </g>
    </g>
   </g>
   <g id="PolyCollection_1">
    <defs>
     <path id="m8909b9b0e2" d="M 340.851639 -43.327969 
L 340.851639 -86.682786 
L 341.326533 -85.980902 
L 341.801426 -85.286973 
L 342.27632 -84.600983 
L 342.751213 -83.922911 
L 343.226107 -83.252737 
L 343.701001 -82.590439 
L 344.175894 -81.935992 
L 344.650788 -81.289371 
L 345.125682 -80.650549 
L 345.600575 -80.019497 
L 346.075469 -79.396187 
L 346.550362 -78.780586 
L 347.025256 -78.172663 
L 347.50015 -77.572383 
L 347.975043 -76.979711 
L 348.449937 -76.394612 
L 348.92483 -75.817047 
L 349.399724 -75.246979 
L 349.874618 -74.684367 
L 350.349511 -74.12917 
L 350.824405 -73.581347 
L 351.299299 -73.040855 
L 351.774192 -72.507649 
L 352.249086 -71.981685 
L 352.723979 -71.462916 
L 353.198873 -70.951297 
L 353.673767 -70.446779 
L 354.14866 -69.949313 
L 354.623554 -69.458852 
L 355.098447 -68.975343 
L 355.573341 -68.498737 
L 356.048235 -68.028982 
L 356.523128 -67.566026 
L 356.998022 -67.109815 
L 357.472916 -66.660296 
L 357.947809 -66.217416 
L 358.422703 -65.781118 
L 358.897596 -65.351348 
L 359.37249 -64.928051 
L 359.847384 -64.511169 
L 360.322277 -64.100646 
L 360.797171 -63.696425 
L 361.272064 -63.298448 
L 361.746958 -62.906657 
L 362.221852 -62.520993 
L 362.696745 -62.141399 
L 363.171639 -61.767815 
L 363.646533 -61.400182 
L 364.121426 -61.03844 
L 364.59632 -60.68253 
L 365.071213 -60.332391 
L 365.546107 -59.987963 
L 366.021001 -59.649187 
L 366.495894 -59.316001 
L 366.970788 -58.988345 
L 367.445682 -58.666158 
L 367.920575 -58.34938 
L 368.395469 -58.03795 
L 368.870362 -57.731807 
L 369.345256 -57.43089 
L 369.82015 -57.135139 
L 370.295043 -56.844492 
L 370.769937 -56.558889 
L 371.24483 -56.278269 
L 371.719724 -56.002571 
L 372.194618 -55.731736 
L 372.669511 -55.465702 
L 373.144405 -55.20441 
L 373.619299 -54.947799 
L 374.094192 -54.695809 
L 374.569086 -54.448381 
L 375.043979 -54.205455 
L 375.518873 -53.966972 
L 375.993767 -53.732872 
L 376.46866 -53.503098 
L 376.943554 -53.277589 
L 377.418447 -53.056289 
L 377.893341 -52.839138 
L 378.368235 -52.626079 
L 378.843128 -52.417055 
L 379.318022 -52.212009 
L 379.792916 -52.010883 
L 380.267809 -51.813621 
L 380.742703 -51.620167 
L 381.217596 -51.430466 
L 381.69249 -51.244462 
L 382.167384 -51.062099 
L 382.642277 -50.883324 
L 383.117171 -50.708082 
L 383.592064 -50.53632 
L 384.066958 -50.367983 
L 384.541852 -50.203019 
L 385.016745 -50.041375 
L 385.491639 -49.883 
L 385.966533 -49.727841 
L 386.441426 -49.575847 
L 386.91632 -49.426968 
L 387.391213 -49.281153 
L 387.866107 -49.138352 
L 388.341001 -48.998516 
L 388.815894 -48.861596 
L 389.290788 -48.727544 
L 389.765682 -48.596312 
L 390.240575 -48.467851 
L 390.715469 -48.342116 
L 391.190362 -48.219059 
L 391.665256 -48.098635 
L 392.14015 -47.980798 
L 392.615043 -47.865503 
L 393.089937 -47.752706 
L 393.56483 -47.642362 
L 394.039724 -47.534429 
L 394.514618 -47.428863 
L 394.989511 -47.325621 
L 395.464405 -47.224662 
L 395.939299 -47.125945 
L 396.414192 -47.029427 
L 396.889086 -46.93507 
L 397.363979 -46.842832 
L 397.838873 -46.752675 
L 398.313767 -46.66456 
L 398.78866 -46.578448 
L 399.263554 -46.494301 
L 399.738447 -46.412082 
L 400.213341 -46.331754 
L 400.688235 -46.25328 
L 401.163128 -46.176626 
L 401.638022 -46.101755 
L 402.112916 -46.028632 
L 402.587809 -45.957223 
L 403.062703 -45.887495 
L 403.537596 -45.819414 
L 404.01249 -45.752946 
L 404.487384 -45.688061 
L 404.962277 -45.624725 
L 405.437171 -45.562907 
L 405.912064 -45.502576 
L 406.386958 -45.443702 
L 406.861852 -45.386255 
L 407.336745 -45.330205 
L 407.811639 -45.275523 
L 408.286533 -45.222181 
L 408.761426 -45.17015 
L 409.23632 -45.119403 
L 409.711213 -45.069913 
L 410.186107 -45.021652 
L 410.661001 -44.974595 
L 411.135894 -44.928714 
L 411.610788 -44.883986 
L 412.085682 -44.840385 
L 412.560575 -44.797887 
L 413.035469 -44.756466 
L 413.510362 -44.7161 
L 413.985256 -44.676765 
L 414.46015 -44.638439 
L 414.935043 -44.601098 
L 415.409937 -44.56472 
L 415.88483 -44.529285 
L 416.359724 -44.494769 
L 416.834618 -44.461154 
L 417.309511 -44.428418 
L 417.784405 -44.39654 
L 418.259299 -44.365502 
L 418.734192 -44.335284 
L 419.209086 -44.305866 
L 419.683979 -44.27723 
L 420.158873 -44.249358 
L 420.633767 -44.222232 
L 421.10866 -44.195834 
L 421.583554 -44.170147 
L 422.058447 -44.145153 
L 422.533341 -44.120837 
L 423.008235 -44.097183 
L 423.483128 -44.074173 
L 423.958022 -44.051793 
L 424.432916 -44.030026 
L 424.907809 -44.00886 
L 425.382703 -43.988277 
L 425.857596 -43.968265 
L 426.33249 -43.948809 
L 426.807384 -43.929896 
L 427.282277 -43.911511 
L 427.757171 -43.893642 
L 428.232064 -43.876275 
L 428.706958 -43.859398 
L 429.181852 -43.843 
L 429.656745 -43.827066 
L 430.131639 -43.811586 
L 430.606533 -43.796549 
L 431.081426 -43.781942 
L 431.55632 -43.767754 
L 432.031213 -43.753976 
L 432.506107 -43.740595 
L 432.981001 -43.727603 
L 433.455894 -43.714988 
L 433.930788 -43.702741 
L 434.405682 -43.690852 
L 434.880575 -43.679311 
L 435.355469 -43.66811 
L 435.355469 -43.327969 
L 435.355469 -43.327969 
L 434.880575 -43.327969 
L 434.405682 -43.327969 
L 433.930788 -43.327969 
L 433.455894 -43.327969 
L 432.981001 -43.327969 
L 432.506107 -43.327969 
L 432.031213 -43.327969 
L 431.55632 -43.327969 
L 431.081426 -43.327969 
L 430.606533 -43.327969 
L 430.131639 -43.327969 
L 429.656745 -43.327969 
L 429.181852 -43.327969 
L 428.706958 -43.327969 
L 428.232064 -43.327969 
L 427.757171 -43.327969 
L 427.282277 -43.327969 
L 426.807384 -43.327969 
L 426.33249 -43.327969 
L 425.857596 -43.327969 
L 425.382703 -43.327969 
L 424.907809 -43.327969 
L 424.432916 -43.327969 
L 423.958022 -43.327969 
L 423.483128 -43.327969 
L 423.008235 -43.327969 
L 422.533341 -43.327969 
L 422.058447 -43.327969 
L 421.583554 -43.327969 
L 421.10866 -43.327969 
L 420.633767 -43.327969 
L 420.158873 -43.327969 
L 419.683979 -43.327969 
L 419.209086 -43.327969 
L 418.734192 -43.327969 
L 418.259299 -43.327969 
L 417.784405 -43.327969 
L 417.309511 -43.327969 
L 416.834618 -43.327969 
L 416.359724 -43.327969 
L 415.88483 -43.327969 
L 415.409937 -43.327969 
L 414.935043 -43.327969 
L 414.46015 -43.327969 
L 413.985256 -43.327969 
L 413.510362 -43.327969 
L 413.035469 -43.327969 
L 412.560575 -43.327969 
L 412.085682 -43.327969 
L 411.610788 -43.327969 
L 411.135894 -43.327969 
L 410.661001 -43.327969 
L 410.186107 -43.327969 
L 409.711213 -43.327969 
L 409.23632 -43.327969 
L 408.761426 -43.327969 
L 408.286533 -43.327969 
L 407.811639 -43.327969 
L 407.336745 -43.327969 
L 406.861852 -43.327969 
L 406.386958 -43.327969 
L 405.912064 -43.327969 
L 405.437171 -43.327969 
L 404.962277 -43.327969 
L 404.487384 -43.327969 
L 404.01249 -43.327969 
L 403.537596 -43.327969 
L 403.062703 -43.327969 
L 402.587809 -43.327969 
L 402.112916 -43.327969 
L 401.638022 -43.327969 
L 401.163128 -43.327969 
L 400.688235 -43.327969 
L 400.213341 -43.327969 
L 399.738447 -43.327969 
L 399.263554 -43.327969 
L 398.78866 -43.327969 
L 398.313767 -43.327969 
L 397.838873 -43.327969 
L 397.363979 -43.327969 
L 396.889086 -43.327969 
L 396.414192 -43.327969 
L 395.939299 -43.327969 
L 395.464405 -43.327969 
L 394.989511 -43.327969 
L 394.514618 -43.327969 
L 394.039724 -43.327969 
L 393.56483 -43.327969 
L 393.089937 -43.327969 
L 392.615043 -43.327969 
L 392.14015 -43.327969 
L 391.665256 -43.327969 
L 391.190362 -43.327969 
L 390.715469 -43.327969 
L 390.240575 -43.327969 
L 389.765682 -43.327969 
L 389.290788 -43.327969 
L 388.815894 -43.327969 
L 388.341001 -43.327969 
L 387.866107 -43.327969 
L 387.391213 -43.327969 
L 386.91632 -43.327969 
L 386.441426 -43.327969 
L 385.966533 -43.327969 
L 385.491639 -43.327969 
L 385.016745 -43.327969 
L 384.541852 -43.327969 
L 384.066958 -43.327969 
L 383.592064 -43.327969 
L 383.117171 -43.327969 
L 382.642277 -43.327969 
L 382.167384 -43.327969 
L 381.69249 -43.327969 
L 381.217596 -43.327969 
L 380.742703 -43.327969 
L 380.267809 -43.327969 
L 379.792916 -43.327969 
L 379.318022 -43.327969 
L 378.843128 -43.327969 
L 378.368235 -43.327969 
L 377.893341 -43.327969 
L 377.418447 -43.327969 
L 376.943554 -43.327969 
L 376.46866 -43.327969 
L 375.993767 -43.327969 
L 375.518873 -43.327969 
L 375.043979 -43.327969 
L 374.569086 -43.327969 
L 374.094192 -43.327969 
L 373.619299 -43.327969 
L 373.144405 -43.327969 
L 372.669511 -43.327969 
L 372.194618 -43.327969 
L 371.719724 -43.327969 
L 371.24483 -43.327969 
L 370.769937 -43.327969 
L 370.295043 -43.327969 
L 369.82015 -43.327969 
L 369.345256 -43.327969 
L 368.870362 -43.327969 
L 368.395469 -43.327969 
L 367.920575 -43.327969 
L 367.445682 -43.327969 
L 366.970788 -43.327969 
L 366.495894 -43.327969 
L 366.021001 -43.327969 
L 365.546107 -43.327969 
L 365.071213 -43.327969 
L 364.59632 -43.327969 
L 364.121426 -43.327969 
L 363.646533 -43.327969 
L 363.171639 -43.327969 
L 362.696745 -43.327969 
L 362.221852 -43.327969 
L 361.746958 -43.327969 
L 361.272064 -43.327969 
L 360.797171 -43.327969 
L 360.322277 -43.327969 
L 359.847384 -43.327969 
L 359.37249 -43.327969 
L 358.897596 -43.327969 
L 358.422703 -43.327969 
L 357.947809 -43.327969 
L 357.472916 -43.327969 
L 356.998022 -43.327969 
L 356.523128 -43.327969 
L 356.048235 -43.327969 
L 355.573341 -43.327969 
L 355.098447 -43.327969 
L 354.623554 -43.327969 
L 354.14866 -43.327969 
L 353.673767 -43.327969 
L 353.198873 -43.327969 
L 352.723979 -43.327969 
L 352.249086 -43.327969 
L 351.774192 -43.327969 
L 351.299299 -43.327969 
L 350.824405 -43.327969 
L 350.349511 -43.327969 
L 349.874618 -43.327969 
L 349.399724 -43.327969 
L 348.92483 -43.327969 
L 348.449937 -43.327969 
L 347.975043 -43.327969 
L 347.50015 -43.327969 
L 347.025256 -43.327969 
L 346.550362 -43.327969 
L 346.075469 -43.327969 
L 345.600575 -43.327969 
L 345.125682 -43.327969 
L 344.650788 -43.327969 
L 344.175894 -43.327969 
L 343.701001 -43.327969 
L 343.226107 -43.327969 
L 342.751213 -43.327969 
L 342.27632 -43.327969 
L 341.801426 -43.327969 
L 341.326533 -43.327969 
L 340.851639 -43.327969 
z
" style="stroke: #c0392b; stroke-opacity: 0.4"/>
    </defs>
    <g clip-path="url(#pfc748cc048)">
     <use xlink:href="#m8909b9b0e2" x="0" y="308.093938" style="fill: #c0392b; fill-opacity: 0.4; stroke: #c0392b; stroke-opacity: 0.4"/>
    </g>
   </g>
   <g id="line2d_33">
    <path d="M 55.915469 264.425827 
L 66.838022 264.063911 
L 75.386107 263.564653 
L 82.509511 262.923787 
L 88.683128 262.136714 
L 93.906958 261.251105 
L 98.655894 260.228434 
L 102.929937 259.095421 
L 107.203979 257.725955 
L 111.003128 256.280316 
L 114.802277 254.59084 
L 118.126533 252.889528 
L 121.450788 250.958799 
L 124.775043 248.777937 
L 128.099299 246.326122 
L 131.423554 243.582769 
L 134.747809 240.527912 
L 138.072064 237.142641 
L 141.39632 233.409571 
L 144.720575 229.313351 
L 148.04483 224.8412 
L 151.369086 219.983454 
L 154.693341 214.734124 
L 158.017596 209.091443 
L 161.816745 202.165069 
L 165.615894 194.741858 
L 169.415043 186.844414 
L 173.689086 177.434448 
L 178.438022 166.402087 
L 183.661852 153.696795 
L 190.785256 135.745314 
L 203.13249 104.573154 
L 207.881426 93.195408 
L 212.155469 83.528789 
L 215.954618 75.527778 
L 219.278873 69.073717 
L 222.128235 64.003555 
L 224.977596 59.403247 
L 227.352064 55.956045 
L 229.726533 52.881557 
L 232.101001 50.197831 
L 234.000575 48.342963 
L 235.90015 46.755494 
L 237.799724 45.441522 
L 239.699299 44.406119 
L 241.598873 43.653294 
L 243.498447 43.185971 
L 245.398022 43.005969 
L 247.297596 43.113988 
L 249.197171 43.509607 
L 251.096745 44.191288 
L 252.99632 45.156381 
L 254.895894 46.401145 
L 256.795469 47.920772 
L 258.695043 49.709417 
L 260.594618 51.760234 
L 262.969086 54.680467 
L 265.343554 57.98088 
L 267.718022 61.642218 
L 270.567384 66.482405 
L 273.416745 71.772261 
L 276.741001 78.455301 
L 280.54015 86.679941 
L 284.814192 96.547707 
L 289.563128 108.085297 
L 296.686533 126.053187 
L 308.558873 156.043679 
L 314.257596 169.769697 
L 319.006533 180.629565 
L 323.280575 189.859667 
L 327.079724 197.582571 
L 330.878873 204.821578 
L 334.678022 211.557824 
L 338.002277 217.032002 
L 341.326533 222.113036 
L 344.650788 226.804567 
L 347.975043 231.114226 
L 351.299299 235.053083 
L 354.623554 238.635086 
L 357.947809 241.876522 
L 361.272064 244.79549 
L 364.59632 247.411408 
L 367.920575 249.744557 
L 371.24483 251.815669 
L 374.569086 253.645557 
L 378.368235 255.467858 
L 382.167384 257.031838 
L 385.966533 258.366097 
L 390.240575 259.626086 
L 394.514618 260.665075 
L 399.263554 261.599637 
L 404.487384 262.405877 
L 410.661001 263.119343 
L 417.784405 263.697397 
L 426.33249 264.145128 
L 435.355469 264.425827 
L 435.355469 264.425827 
" clip-path="url(#pfc748cc048)" style="fill: none; stroke: #2980b9; stroke-width: 2.6; stroke-linecap: square"/>
   </g>
   <g id="line2d_34">
    <path d="M 340.495469 264.765969 
L 340.495469 31.917969 
" clip-path="url(#pfc748cc048)" style="fill: none; stroke-dasharray: 7.4,3.2; stroke-dashoffset: 0; stroke: #c0392b; stroke-opacity: 0.9; stroke-width: 2"/>
   </g>
   <g id="patch_3">
    <path d="M 55.915469 264.765969 
L 55.915469 31.917969 
" style="fill: none; stroke: #2c3e50; stroke-width: 1.2; stroke-linejoin: miter; stroke-linecap: square"/>
   </g>
   <g id="patch_4">
    <path d="M 55.915469 264.765969 
L 435.355469 264.765969 
" style="fill: none; stroke: #2c3e50; stroke-width: 1.2; stroke-linejoin: miter; stroke-linecap: square"/>
   </g>
   <g id="text_19">
    <!-- $z_{obs} = 1.8$ -->
    <g style="fill: #c0392b" transform="translate(348.400469 209.178416) scale(0.11 -0.11)">
     <defs>
      <path id="DejaVuSans-Oblique-7a" d="M 744 3500 
L 3475 3500 
L 3372 2975 
L 738 459 
L 2913 459 
L 2822 0 
L -19 0 
L 84 525 
L 2719 3041 
L 653 3041 
L 744 3500 
z
" transform="scale(0.015625)"/>
      <path id="DejaVuSans-Oblique-6f" d="M 1625 -91 
Q 1009 -91 651 289 
Q 294 669 294 1325 
Q 294 1706 417 2101 
Q 541 2497 738 2766 
Q 1047 3184 1428 3384 
Q 1809 3584 2291 3584 
Q 2888 3584 3255 3212 
Q 3622 2841 3622 2241 
Q 3622 1825 3500 1412 
Q 3378 1000 3181 728 
Q 2875 309 2494 109 
Q 2113 -91 1625 -91 
z
M 891 1344 
Q 891 869 1089 633 
Q 1288 397 1691 397 
Q 2269 397 2648 901 
Q 3028 1406 3028 2181 
Q 3028 2634 2825 2865 
Q 2622 3097 2228 3097 
Q 1903 3097 1650 2945 
Q 1397 2794 1197 2484 
Q 1050 2253 970 1956 
Q 891 1659 891 1344 
z
" transform="scale(0.015625)"/>
      <path id="DejaVuSans-Oblique-62" d="M 3169 2138 
Q 3169 2591 2961 2847 
Q 2753 3103 2388 3103 
Q 2122 3103 1889 2973 
Q 1656 2844 1484 2597 
Q 1303 2338 1198 1995 
Q 1094 1653 1094 1313 
Q 1094 881 1298 636 
Q 1503 391 1863 391 
Q 2134 391 2365 517 
Q 2597 644 2772 891 
Q 2950 1147 3059 1487 
Q 3169 1828 3169 2138 
z
M 1381 2969 
Q 1594 3256 1914 3420 
Q 2234 3584 2584 3584 
Q 3122 3584 3439 3221 
Q 3756 2859 3756 2241 
Q 3756 1734 3570 1259 
Q 3384 784 3041 416 
Q 2816 172 2522 40 
Q 2228 -91 1906 -91 
Q 1566 -91 1316 65 
Q 1066 222 909 531 
L 806 0 
L 231 0 
L 1178 4863 
L 1753 4863 
L 1381 2969 
z
" transform="scale(0.015625)"/>
      <path id="DejaVuSans-Oblique-73" d="M 3200 3397 
L 3091 2853 
Q 2863 2978 2609 3040 
Q 2356 3103 2088 3103 
Q 1634 3103 1373 2948 
Q 1113 2794 1113 2528 
Q 1113 2219 1719 2053 
Q 1766 2041 1788 2034 
L 1972 1978 
Q 2547 1819 2739 1644 
Q 2931 1469 2931 1166 
Q 2931 609 2489 259 
Q 2047 -91 1331 -91 
Q 1053 -91 747 -37 
Q 441 16 72 128 
L 184 722 
Q 500 559 806 475 
Q 1113 391 1394 391 
Q 1816 391 2080 572 
Q 2344 753 2344 1031 
Q 2344 1331 1650 1516 
L 1591 1531 
L 1394 1581 
Q 956 1697 753 1886 
Q 550 2075 550 2369 
Q 550 2928 970 3256 
Q 1391 3584 2113 3584 
Q 2397 3584 2667 3537 
Q 2938 3491 3200 3397 
z
" transform="scale(0.015625)"/>
      <path id="DejaVuSans-3d" d="M 678 2906 
L 4684 2906 
L 4684 2381 
L 678 2381 
L 678 2906 
z
M 678 1631 
L 4684 1631 
L 4684 1100 
L 678 1100 
L 678 1631 
z
" transform="scale(0.015625)"/>
      <path id="DejaVuSans-38" d="M 2034 2216 
Q 1584 2216 1326 1975 
Q 1069 1734 1069 1313 
Q 1069 891 1326 650 
Q 1584 409 2034 409 
Q 2484 409 2743 651 
Q 3003 894 3003 1313 
Q 3003 1734 2745 1975 
Q 2488 2216 2034 2216 
z
M 1403 2484 
Q 997 2584 770 2862 
Q 544 3141 544 3541 
Q 544 4100 942 4425 
Q 1341 4750 2034 4750 
Q 2731 4750 3128 4425 
Q 3525 4100 3525 3541 
Q 3525 3141 3298 2862 
Q 3072 2584 2669 2484 
Q 3125 2378 3379 2068 
Q 3634 1759 3634 1313 
Q 3634 634 3220 271 
Q 2806 -91 2034 -91 
Q 1263 -91 848 271 
Q 434 634 434 1313 
Q 434 1759 690 2068 
Q 947 2378 1403 2484 
z
M 1172 3481 
Q 1172 3119 1398 2916 
Q 1625 2713 2034 2713 
Q 2441 2713 2670 2916 
Q 2900 3119 2900 3481 
Q 2900 3844 2670 4047 
Q 2441 4250 2034 4250 
Q 1625 4250 1398 4047 
Q 1172 3844 1172 3481 
z
" transform="scale(0.015625)"/>
     </defs>
     <use xlink:href="#DejaVuSans-Oblique-7a" transform="translate(0 0.78125)"/>
     <use xlink:href="#DejaVuSans-Oblique-6f" transform="translate(52.490234 -15.625) scale(0.7)"/>
     <use xlink:href="#DejaVuSans-Oblique-62" transform="translate(95.317383 -15.625) scale(0.7)"/>
     <use xlink:href="#DejaVuSans-Oblique-73" transform="translate(139.750977 -15.625) scale(0.7)"/>
     <use xlink:href="#DejaVuSans-3d" transform="translate(198.4375 0.78125)"/>
     <use xlink:href="#DejaVuSans-31" transform="translate(301.708984 0.78125)"/>
     <use xlink:href="#DejaVuSans-2e" transform="translate(365.332031 0.78125)"/>
     <use xlink:href="#DejaVuSans-38" transform="translate(394.494141 0.78125)"/>
    </g>
   </g>
   <g id="text_20">
    <!-- (dos colas: duplicar el área) -->
    <g style="fill: #34495e" transform="translate(63.504269 50.758962) scale(0.09 -0.09)">
     <defs>
      <path id="DejaVuSans-28" d="M 1984 4856 
Q 1566 4138 1362 3434 
Q 1159 2731 1159 2009 
Q 1159 1288 1364 580 
Q 1569 -128 1984 -844 
L 1484 -844 
Q 1016 -109 783 600 
Q 550 1309 550 2009 
Q 550 2706 781 3412 
Q 1013 4119 1484 4856 
L 1984 4856 
z
" transform="scale(0.015625)"/>
      <path id="DejaVuSans-64" d="M 2906 2969 
L 2906 4863 
L 3481 4863 
L 3481 0 
L 2906 0 
L 2906 525 
Q 2725 213 2448 61 
Q 2172 -91 1784 -91 
Q 1150 -91 751 415 
Q 353 922 353 1747 
Q 353 2572 751 3078 
Q 1150 3584 1784 3584 
Q 2172 3584 2448 3432 
Q 2725 3281 2906 2969 
z
M 947 1747 
Q 947 1113 1208 752 
Q 1469 391 1925 391 
Q 2381 391 2643 752 
Q 2906 1113 2906 1747 
Q 2906 2381 2643 2742 
Q 2381 3103 1925 3103 
Q 1469 3103 1208 2742 
Q 947 2381 947 1747 
z
" transform="scale(0.015625)"/>
      <path id="DejaVuSans-6f" d="M 1959 3097 
Q 1497 3097 1228 2736 
Q 959 2375 959 1747 
Q 959 1119 1226 758 
Q 1494 397 1959 397 
Q 2419 397 2687 759 
Q 2956 1122 2956 1747 
Q 2956 2369 2687 2733 
Q 2419 3097 1959 3097 
z
M 1959 3584 
Q 2709 3584 3137 3096 
Q 3566 2609 3566 1747 
Q 3566 888 3137 398 
Q 2709 -91 1959 -91 
Q 1206 -91 779 398 
Q 353 888 353 1747 
Q 353 2609 779 3096 
Q 1206 3584 1959 3584 
z
" transform="scale(0.015625)"/>
      <path id="DejaVuSans-73" d="M 2834 3397 
L 2834 2853 
Q 2591 2978 2328 3040 
Q 2066 3103 1784 3103 
Q 1356 3103 1142 2972 
Q 928 2841 928 2578 
Q 928 2378 1081 2264 
Q 1234 2150 1697 2047 
L 1894 2003 
Q 2506 1872 2764 1633 
Q 3022 1394 3022 966 
Q 3022 478 2636 193 
Q 2250 -91 1575 -91 
Q 1294 -91 989 -36 
Q 684 19 347 128 
L 347 722 
Q 666 556 975 473 
Q 1284 391 1588 391 
Q 1994 391 2212 530 
Q 2431 669 2431 922 
Q 2431 1156 2273 1281 
Q 2116 1406 1581 1522 
L 1381 1569 
Q 847 1681 609 1914 
Q 372 2147 372 2553 
Q 372 3047 722 3315 
Q 1072 3584 1716 3584 
Q 2034 3584 2315 3537 
Q 2597 3491 2834 3397 
z
" transform="scale(0.015625)"/>
      <path id="DejaVuSans-20" transform="scale(0.015625)"/>
      <path id="DejaVuSans-63" d="M 3122 3366 
L 3122 2828 
Q 2878 2963 2633 3030 
Q 2388 3097 2138 3097 
Q 1578 3097 1268 2742 
Q 959 2388 959 1747 
Q 959 1106 1268 751 
Q 1578 397 2138 397 
Q 2388 397 2633 464 
Q 2878 531 3122 666 
L 3122 134 
Q 2881 22 2623 -34 
Q 2366 -91 2075 -91 
Q 1284 -91 818 406 
Q 353 903 353 1747 
Q 353 2603 823 3093 
Q 1294 3584 2113 3584 
Q 2378 3584 2631 3529 
Q 2884 3475 3122 3366 
z
" transform="scale(0.015625)"/>
      <path id="DejaVuSans-6c" d="M 603 4863 
L 1178 4863 
L 1178 0 
L 603 0 
L 603 4863 
z
" transform="scale(0.015625)"/>
      <path id="DejaVuSans-61" d="M 2194 1759 
Q 1497 1759 1228 1600 
Q 959 1441 959 1056 
Q 959 750 1161 570 
Q 1363 391 1709 391 
Q 2188 391 2477 730 
Q 2766 1069 2766 1631 
L 2766 1759 
L 2194 1759 
z
M 3341 1997 
L 3341 0 
L 2766 0 
L 2766 531 
Q 2569 213 2275 61 
Q 1981 -91 1556 -91 
Q 1019 -91 701 211 
Q 384 513 384 1019 
Q 384 1609 779 1909 
Q 1175 2209 1959 2209 
L 2766 2209 
L 2766 2266 
Q 2766 2663 2505 2880 
Q 2244 3097 1772 3097 
Q 1472 3097 1187 3025 
Q 903 2953 641 2809 
L 641 3341 
Q 956 3463 1253 3523 
Q 1550 3584 1831 3584 
Q 2591 3584 2966 3190 
Q 3341 2797 3341 1997 
z
" transform="scale(0.015625)"/>
      <path id="DejaVuSans-3a" d="M 750 794 
L 1409 794 
L 1409 0 
L 750 0 
L 750 794 
z
M 750 3309 
L 1409 3309 
L 1409 2516 
L 750 2516 
L 750 3309 
z
" transform="scale(0.015625)"/>
      <path id="DejaVuSans-75" d="M 544 1381 
L 544 3500 
L 1119 3500 
L 1119 1403 
Q 1119 906 1312 657 
Q 1506 409 1894 409 
Q 2359 409 2629 706 
Q 2900 1003 2900 1516 
L 2900 3500 
L 3475 3500 
L 3475 0 
L 2900 0 
L 2900 538 
Q 2691 219 2414 64 
Q 2138 -91 1772 -91 
Q 1169 -91 856 284 
Q 544 659 544 1381 
z
M 1991 3584 
L 1991 3584 
z
" transform="scale(0.015625)"/>
      <path id="DejaVuSans-70" d="M 1159 525 
L 1159 -1331 
L 581 -1331 
L 581 3500 
L 1159 3500 
L 1159 2969 
Q 1341 3281 1617 3432 
Q 1894 3584 2278 3584 
Q 2916 3584 3314 3078 
Q 3713 2572 3713 1747 
Q 3713 922 3314 415 
Q 2916 -91 2278 -91 
Q 1894 -91 1617 61 
Q 1341 213 1159 525 
z
M 3116 1747 
Q 3116 2381 2855 2742 
Q 2594 3103 2138 3103 
Q 1681 3103 1420 2742 
Q 1159 2381 1159 1747 
Q 1159 1113 1420 752 
Q 1681 391 2138 391 
Q 2594 391 2855 752 
Q 3116 1113 3116 1747 
z
" transform="scale(0.015625)"/>
      <path id="DejaVuSans-69" d="M 603 3500 
L 1178 3500 
L 1178 0 
L 603 0 
L 603 3500 
z
M 603 4863 
L 1178 4863 
L 1178 4134 
L 603 4134 
L 603 4863 
z
" transform="scale(0.015625)"/>
      <path id="DejaVuSans-72" d="M 2631 2963 
Q 2534 3019 2420 3045 
Q 2306 3072 2169 3072 
Q 1681 3072 1420 2755 
Q 1159 2438 1159 1844 
L 1159 0 
L 581 0 
L 581 3500 
L 1159 3500 
L 1159 2956 
Q 1341 3275 1631 3429 
Q 1922 3584 2338 3584 
Q 2397 3584 2469 3576 
Q 2541 3569 2628 3553 
L 2631 2963 
z
" transform="scale(0.015625)"/>
      <path id="DejaVuSans-65" d="M 3597 1894 
L 3597 1613 
L 953 1613 
Q 991 1019 1311 708 
Q 1631 397 2203 397 
Q 2534 397 2845 478 
Q 3156 559 3463 722 
L 3463 178 
Q 3153 47 2828 -22 
Q 2503 -91 2169 -91 
Q 1331 -91 842 396 
Q 353 884 353 1716 
Q 353 2575 817 3079 
Q 1281 3584 2069 3584 
Q 2775 3584 3186 3129 
Q 3597 2675 3597 1894 
z
M 3022 2063 
Q 3016 2534 2758 2815 
Q 2500 3097 2075 3097 
Q 1594 3097 1305 2825 
Q 1016 2553 972 2059 
L 3022 2063 
z
" transform="scale(0.015625)"/>
      <path id="DejaVuSans-e1" d="M 2194 1759 
Q 1497 1759 1228 1600 
Q 959 1441 959 1056 
Q 959 750 1161 570 
Q 1363 391 1709 391 
Q 2188 391 2477 730 
Q 2766 1069 2766 1631 
L 2766 1759 
L 2194 1759 
z
M 3341 1997 
L 3341 0 
L 2766 0 
L 2766 531 
Q 2569 213 2275 61 
Q 1981 -91 1556 -91 
Q 1019 -91 701 211 
Q 384 513 384 1019 
Q 384 1609 779 1909 
Q 1175 2209 1959 2209 
L 2766 2209 
L 2766 2266 
Q 2766 2663 2505 2880 
Q 2244 3097 1772 3097 
Q 1472 3097 1187 3025 
Q 903 2953 641 2809 
L 641 3341 
Q 956 3463 1253 3523 
Q 1550 3584 1831 3584 
Q 2591 3584 2966 3190 
Q 3341 2797 3341 1997 
z
M 2290 5119 
L 2912 5119 
L 1894 3944 
L 1415 3944 
L 2290 5119 
z
" transform="scale(0.015625)"/>
      <path id="DejaVuSans-29" d="M 513 4856 
L 1013 4856 
Q 1481 4119 1714 3412 
Q 1947 2706 1947 2009 
Q 1947 1309 1714 600 
Q 1481 -109 1013 -844 
L 513 -844 
Q 928 -128 1133 580 
Q 1338 1288 1338 2009 
Q 1338 2731 1133 3434 
Q 928 4138 513 4856 
z
" transform="scale(0.015625)"/>
     </defs>
     <use xlink:href="#DejaVuSans-28"/>
     <use xlink:href="#DejaVuSans-64" x="39.013672"/>
     <use xlink:href="#DejaVuSans-6f" x="102.490234"/>
     <use xlink:href="#DejaVuSans-73" x="163.671875"/>
     <use xlink:href="#DejaVuSans-20" x="215.771484"/>
     <use xlink:href="#DejaVuSans-63" x="247.558594"/>
     <use xlink:href="#DejaVuSans-6f" x="302.539062"/>
     <use xlink:href="#DejaVuSans-6c" x="363.720703"/>
     <use xlink:href="#DejaVuSans-61" x="391.503906"/>
     <use xlink:href="#DejaVuSans-73" x="452.783203"/>
     <use xlink:href="#DejaVuSans-3a" x="504.882812"/>
     <use xlink:href="#DejaVuSans-20" x="538.574219"/>
     <use xlink:href="#DejaVuSans-64" x="570.361328"/>
     <use xlink:href="#DejaVuSans-75" x="633.837891"/>
     <use xlink:href="#DejaVuSans-70" x="697.216797"/>
     <use xlink:href="#DejaVuSans-6c" x="760.693359"/>
     <use xlink:href="#DejaVuSans-69" x="788.476562"/>
     <use xlink:href="#DejaVuSans-63" x="816.259766"/>
     <use xlink:href="#DejaVuSans-61" x="871.240234"/>
     <use xlink:href="#DejaVuSans-72" x="932.519531"/>
     <use xlink:href="#DejaVuSans-20" x="973.632812"/>
     <use xlink:href="#DejaVuSans-65" x="1005.419922"/>
     <use xlink:href="#DejaVuSans-6c" x="1066.943359"/>
     <use xlink:href="#DejaVuSans-20" x="1094.726562"/>
     <use xlink:href="#DejaVuSans-e1" x="1126.513672"/>
     <use xlink:href="#DejaVuSans-72" x="1187.792969"/>
     <use xlink:href="#DejaVuSans-65" x="1226.65625"/>
     <use xlink:href="#DejaVuSans-61" x="1288.179688"/>
     <use xlink:href="#DejaVuSans-29" x="1349.458984"/>
    </g>
   </g>
   <g id="text_21">
    <!-- Valor p: cola más allá del estadístico observado -->
    <g transform="translate(70.587422 21.917969) scale(0.13 -0.13)">
     <defs>
      <path id="DejaVuSans-Bold-56" d="M 31 4666 
L 1241 4666 
L 2478 1222 
L 3713 4666 
L 4922 4666 
L 3194 0 
L 1759 0 
L 31 4666 
z
" transform="scale(0.015625)"/>
      <path id="DejaVuSans-Bold-6c" d="M 538 4863 
L 1656 4863 
L 1656 0 
L 538 0 
L 538 4863 
z
" transform="scale(0.015625)"/>
      <path id="DejaVuSans-Bold-6f" d="M 2203 2784 
Q 1831 2784 1636 2517 
Q 1441 2250 1441 1747 
Q 1441 1244 1636 976 
Q 1831 709 2203 709 
Q 2569 709 2762 976 
Q 2956 1244 2956 1747 
Q 2956 2250 2762 2517 
Q 2569 2784 2203 2784 
z
M 2203 3584 
Q 3106 3584 3614 3096 
Q 4122 2609 4122 1747 
Q 4122 884 3614 396 
Q 3106 -91 2203 -91 
Q 1297 -91 786 396 
Q 275 884 275 1747 
Q 275 2609 786 3096 
Q 1297 3584 2203 3584 
z
" transform="scale(0.015625)"/>
      <path id="DejaVuSans-Bold-72" d="M 3138 2547 
Q 2991 2616 2845 2648 
Q 2700 2681 2553 2681 
Q 2122 2681 1889 2404 
Q 1656 2128 1656 1613 
L 1656 0 
L 538 0 
L 538 3500 
L 1656 3500 
L 1656 2925 
Q 1872 3269 2151 3426 
Q 2431 3584 2822 3584 
Q 2878 3584 2943 3579 
Q 3009 3575 3134 3559 
L 3138 2547 
z
" transform="scale(0.015625)"/>
      <path id="DejaVuSans-Bold-20" transform="scale(0.015625)"/>
      <path id="DejaVuSans-Bold-70" d="M 1656 506 
L 1656 -1331 
L 538 -1331 
L 538 3500 
L 1656 3500 
L 1656 2988 
Q 1888 3294 2169 3439 
Q 2450 3584 2816 3584 
Q 3463 3584 3878 3070 
Q 4294 2556 4294 1747 
Q 4294 938 3878 423 
Q 3463 -91 2816 -91 
Q 2450 -91 2169 54 
Q 1888 200 1656 506 
z
M 2400 2772 
Q 2041 2772 1848 2508 
Q 1656 2244 1656 1747 
Q 1656 1250 1848 986 
Q 2041 722 2400 722 
Q 2759 722 2948 984 
Q 3138 1247 3138 1747 
Q 3138 2247 2948 2509 
Q 2759 2772 2400 2772 
z
" transform="scale(0.015625)"/>
      <path id="DejaVuSans-Bold-3a" d="M 716 3500 
L 1844 3500 
L 1844 2291 
L 716 2291 
L 716 3500 
z
M 716 1209 
L 1844 1209 
L 1844 0 
L 716 0 
L 716 1209 
z
" transform="scale(0.015625)"/>
      <path id="DejaVuSans-Bold-63" d="M 3366 3391 
L 3366 2478 
Q 3138 2634 2908 2709 
Q 2678 2784 2431 2784 
Q 1963 2784 1702 2511 
Q 1441 2238 1441 1747 
Q 1441 1256 1702 982 
Q 1963 709 2431 709 
Q 2694 709 2930 787 
Q 3166 866 3366 1019 
L 3366 103 
Q 3103 6 2833 -42 
Q 2563 -91 2291 -91 
Q 1344 -91 809 395 
Q 275 881 275 1747 
Q 275 2613 809 3098 
Q 1344 3584 2291 3584 
Q 2566 3584 2833 3536 
Q 3100 3488 3366 3391 
z
" transform="scale(0.015625)"/>
      <path id="DejaVuSans-Bold-6d" d="M 3781 2919 
Q 3994 3244 4286 3414 
Q 4578 3584 4928 3584 
Q 5531 3584 5847 3212 
Q 6163 2841 6163 2131 
L 6163 0 
L 5038 0 
L 5038 1825 
Q 5041 1866 5042 1909 
Q 5044 1953 5044 2034 
Q 5044 2406 4934 2573 
Q 4825 2741 4581 2741 
Q 4263 2741 4089 2478 
Q 3916 2216 3909 1719 
L 3909 0 
L 2784 0 
L 2784 1825 
Q 2784 2406 2684 2573 
Q 2584 2741 2328 2741 
Q 2006 2741 1831 2477 
Q 1656 2213 1656 1722 
L 1656 0 
L 531 0 
L 531 3500 
L 1656 3500 
L 1656 2988 
Q 1863 3284 2130 3434 
Q 2397 3584 2719 3584 
Q 3081 3584 3359 3409 
Q 3638 3234 3781 2919 
z
" transform="scale(0.015625)"/>
      <path id="DejaVuSans-Bold-e1" d="M 2106 1575 
Q 1756 1575 1579 1456 
Q 1403 1338 1403 1106 
Q 1403 894 1545 773 
Q 1688 653 1941 653 
Q 2256 653 2472 879 
Q 2688 1106 2688 1447 
L 2688 1575 
L 2106 1575 
z
M 3816 1997 
L 3816 0 
L 2688 0 
L 2688 519 
Q 2463 200 2181 54 
Q 1900 -91 1497 -91 
Q 953 -91 614 226 
Q 275 544 275 1050 
Q 275 1666 698 1953 
Q 1122 2241 2028 2241 
L 2688 2241 
L 2688 2328 
Q 2688 2594 2478 2717 
Q 2269 2841 1825 2841 
Q 1466 2841 1156 2769 
Q 847 2697 581 2553 
L 581 3406 
Q 941 3494 1303 3539 
Q 1666 3584 2028 3584 
Q 2975 3584 3395 3211 
Q 3816 2838 3816 1997 
z
M 2606 5119 
L 3490 5119 
L 2337 3944 
L 1725 3944 
L 2606 5119 
z
" transform="scale(0.015625)"/>
      <path id="DejaVuSans-Bold-74" d="M 1759 4494 
L 1759 3500 
L 2913 3500 
L 2913 2700 
L 1759 2700 
L 1759 1216 
Q 1759 972 1856 886 
Q 1953 800 2241 800 
L 2816 800 
L 2816 0 
L 1856 0 
Q 1194 0 917 276 
Q 641 553 641 1216 
L 641 2700 
L 84 2700 
L 84 3500 
L 641 3500 
L 641 4494 
L 1759 4494 
z
" transform="scale(0.015625)"/>
      <path id="DejaVuSans-Bold-ed" d="M 538 3500 
L 1656 3500 
L 1656 0 
L 538 0 
L 538 3500 
z
M 1590 5119 
L 2474 5119 
L 1321 3944 
L 709 3944 
L 1590 5119 
z
" transform="scale(0.015625)"/>
      <path id="DejaVuSans-Bold-62" d="M 2400 722 
Q 2759 722 2948 984 
Q 3138 1247 3138 1747 
Q 3138 2247 2948 2509 
Q 2759 2772 2400 2772 
Q 2041 2772 1848 2508 
Q 1656 2244 1656 1747 
Q 1656 1250 1848 986 
Q 2041 722 2400 722 
z
M 1656 2988 
Q 1888 3294 2169 3439 
Q 2450 3584 2816 3584 
Q 3463 3584 3878 3070 
Q 4294 2556 4294 1747 
Q 4294 938 3878 423 
Q 3463 -91 2816 -91 
Q 2450 -91 2169 54 
Q 1888 200 1656 506 
L 1656 0 
L 538 0 
L 538 4863 
L 1656 4863 
L 1656 2988 
z
" transform="scale(0.015625)"/>
      <path id="DejaVuSans-Bold-76" d="M 97 3500 
L 1216 3500 
L 2088 1081 
L 2956 3500 
L 4078 3500 
L 2700 0 
L 1472 0 
L 97 3500 
z
" transform="scale(0.015625)"/>
     </defs>
     <use xlink:href="#DejaVuSans-Bold-56"/>
     <use xlink:href="#DejaVuSans-Bold-61" x="71.892578"/>
     <use xlink:href="#DejaVuSans-Bold-6c" x="139.373047"/>
     <use xlink:href="#DejaVuSans-Bold-6f" x="173.650391"/>
     <use xlink:href="#DejaVuSans-Bold-72" x="242.351562"/>
     <use xlink:href="#DejaVuSans-Bold-20" x="291.667969"/>
     <use xlink:href="#DejaVuSans-Bold-70" x="326.482422"/>
     <use xlink:href="#DejaVuSans-Bold-3a" x="398.064453"/>
     <use xlink:href="#DejaVuSans-Bold-20" x="438.054688"/>
     <use xlink:href="#DejaVuSans-Bold-63" x="472.869141"/>
     <use xlink:href="#DejaVuSans-Bold-6f" x="532.146484"/>
     <use xlink:href="#DejaVuSans-Bold-6c" x="600.847656"/>
     <use xlink:href="#DejaVuSans-Bold-61" x="635.125"/>
     <use xlink:href="#DejaVuSans-Bold-20" x="702.605469"/>
     <use xlink:href="#DejaVuSans-Bold-6d" x="737.419922"/>
     <use xlink:href="#DejaVuSans-Bold-e1" x="841.619141"/>
     <use xlink:href="#DejaVuSans-Bold-73" x="909.099609"/>
     <use xlink:href="#DejaVuSans-Bold-20" x="968.621094"/>
     <use xlink:href="#DejaVuSans-Bold-61" x="1003.435547"/>
     <use xlink:href="#DejaVuSans-Bold-6c" x="1070.916016"/>
     <use xlink:href="#DejaVuSans-Bold-6c" x="1105.193359"/>
     <use xlink:href="#DejaVuSans-Bold-e1" x="1139.470703"/>
     <use xlink:href="#DejaVuSans-Bold-20" x="1206.951172"/>
     <use xlink:href="#DejaVuSans-Bold-64" x="1241.765625"/>
     <use xlink:href="#DejaVuSans-Bold-65" x="1313.347656"/>
     <use xlink:href="#DejaVuSans-Bold-6c" x="1381.169922"/>
     <use xlink:href="#DejaVuSans-Bold-20" x="1415.447266"/>
     <use xlink:href="#DejaVuSans-Bold-65" x="1450.261719"/>
     <use xlink:href="#DejaVuSans-Bold-73" x="1518.083984"/>
     <use xlink:href="#DejaVuSans-Bold-74" x="1577.605469"/>
     <use xlink:href="#DejaVuSans-Bold-61" x="1625.408203"/>
     <use xlink:href="#DejaVuSans-Bold-64" x="1692.888672"/>
     <use xlink:href="#DejaVuSans-Bold-ed" x="1764.470703"/>
     <use xlink:href="#DejaVuSans-Bold-73" x="1798.748047"/>
     <use xlink:href="#DejaVuSans-Bold-74" x="1858.269531"/>
     <use xlink:href="#DejaVuSans-Bold-69" x="1906.072266"/>
     <use xlink:href="#DejaVuSans-Bold-63" x="1940.349609"/>
     <use xlink:href="#DejaVuSans-Bold-6f" x="1999.626953"/>
     <use xlink:href="#DejaVuSans-Bold-20" x="2068.328125"/>
     <use xlink:href="#DejaVuSans-Bold-6f" x="2103.142578"/>
     <use xlink:href="#DejaVuSans-Bold-62" x="2171.84375"/>
     <use xlink:href="#DejaVuSans-Bold-73" x="2243.425781"/>
     <use xlink:href="#DejaVuSans-Bold-65" x="2302.947266"/>
     <use xlink:href="#DejaVuSans-Bold-72" x="2370.769531"/>
     <use xlink:href="#DejaVuSans-Bold-76" x="2420.085938"/>
     <use xlink:href="#DejaVuSans-Bold-61" x="2485.271484"/>
     <use xlink:href="#DejaVuSans-Bold-64" x="2552.751953"/>
     <use xlink:href="#DejaVuSans-Bold-6f" x="2624.333984"/>
    </g>
   </g>
   <g id="legend_1">
    <g id="patch_5">
     <path d="M 267.205469 53.482969 
L 428.705469 53.482969 
Q 430.605469 53.482969 430.605469 51.582969 
L 430.605469 38.567969 
Q 430.605469 36.667969 428.705469 36.667969 
L 267.205469 36.667969 
Q 265.305469 36.667969 265.305469 38.567969 
L 265.305469 51.582969 
Q 265.305469 53.482969 267.205469 53.482969 
z
" style="fill: #ffffff; opacity: 0.92; stroke: #cccccc; stroke-linejoin: miter"/>
    </g>
    <g id="patch_6">
     <path d="M 269.105469 47.687969 
L 288.105469 47.687969 
L 288.105469 41.037969 
L 269.105469 41.037969 
z
" style="fill: #c0392b; fill-opacity: 0.4; stroke: #c0392b; stroke-opacity: 0.4; stroke-linejoin: miter"/>
    </g>
    <g id="text_22">
     <!-- valor p (una cola) $= 0.0359$ -->
     <g transform="translate(295.705469 47.687969) scale(0.095 -0.095)">
      <defs>
       <path id="DejaVuSans-76" d="M 191 3500 
L 800 3500 
L 1894 563 
L 2988 3500 
L 3597 3500 
L 2284 0 
L 1503 0 
L 191 3500 
z
" transform="scale(0.015625)"/>
       <path id="DejaVuSans-6e" d="M 3513 2113 
L 3513 0 
L 2938 0 
L 2938 2094 
Q 2938 2591 2744 2837 
Q 2550 3084 2163 3084 
Q 1697 3084 1428 2787 
Q 1159 2491 1159 1978 
L 1159 0 
L 581 0 
L 581 3500 
L 1159 3500 
L 1159 2956 
Q 1366 3272 1645 3428 
Q 1925 3584 2291 3584 
Q 2894 3584 3203 3211 
Q 3513 2838 3513 2113 
z
" transform="scale(0.015625)"/>
       <path id="DejaVuSans-39" d="M 703 97 
L 703 672 
Q 941 559 1184 500 
Q 1428 441 1663 441 
Q 2288 441 2617 861 
Q 2947 1281 2994 2138 
Q 2813 1869 2534 1725 
Q 2256 1581 1919 1581 
Q 1219 1581 811 2004 
Q 403 2428 403 3163 
Q 403 3881 828 4315 
Q 1253 4750 1959 4750 
Q 2769 4750 3195 4129 
Q 3622 3509 3622 2328 
Q 3622 1225 3098 567 
Q 2575 -91 1691 -91 
Q 1453 -91 1209 -44 
Q 966 3 703 97 
z
M 1959 2075 
Q 2384 2075 2632 2365 
Q 2881 2656 2881 3163 
Q 2881 3666 2632 3958 
Q 2384 4250 1959 4250 
Q 1534 4250 1286 3958 
Q 1038 3666 1038 3163 
Q 1038 2656 1286 2365 
Q 1534 2075 1959 2075 
z
" transform="scale(0.015625)"/>
      </defs>
      <use xlink:href="#DejaVuSans-76" transform="translate(0 0.015625)"/>
      <use xlink:href="#DejaVuSans-61" transform="translate(59.179688 0.015625)"/>
      <use xlink:href="#DejaVuSans-6c" transform="translate(120.458984 0.015625)"/>
      <use xlink:href="#DejaVuSans-6f" transform="translate(148.242188 0.015625)"/>
      <use xlink:href="#DejaVuSans-72" transform="translate(209.423828 0.015625)"/>
      <use xlink:href="#DejaVuSans-20" transform="translate(250.537109 0.015625)"/>
      <use xlink:href="#DejaVuSans-70" transform="translate(282.324219 0.015625)"/>
      <use xlink:href="#DejaVuSans-20" transform="translate(345.800781 0.015625)"/>
      <use xlink:href="#DejaVuSans-28" transform="translate(377.587891 0.015625)"/>
      <use xlink:href="#DejaVuSans-75" transform="translate(416.601562 0.015625)"/>
      <use xlink:href="#DejaVuSans-6e" transform="translate(479.980469 0.015625)"/>
      <use xlink:href="#DejaVuSans-61" transform="translate(543.359375 0.015625)"/>
      <use xlink:href="#DejaVuSans-20" transform="translate(604.638672 0.015625)"/>
      <use xlink:href="#DejaVuSans-63" transform="translate(636.425781 0.015625)"/>
      <use xlink:href="#DejaVuSans-6f" transform="translate(691.40625 0.015625)"/>
      <use xlink:href="#DejaVuSans-6c" transform="translate(752.587891 0.015625)"/>
      <use xlink:href="#DejaVuSans-61" transform="translate(780.371094 0.015625)"/>
      <use xlink:href="#DejaVuSans-29" transform="translate(841.650391 0.015625)"/>
      <use xlink:href="#DejaVuSans-20" transform="translate(880.664062 0.015625)"/>
      <use xlink:href="#DejaVuSans-3d" transform="translate(931.933594 0.015625)"/>
      <use xlink:href="#DejaVuSans-30" transform="translate(1035.205078 0.015625)"/>
      <use xlink:href="#DejaVuSans-2e" transform="translate(1098.828125 0.015625)"/>
      <use xlink:href="#DejaVuSans-30" transform="translate(1130.615234 0.015625)"/>
      <use xlink:href="#DejaVuSans-33" transform="translate(1194.238281 0.015625)"/>
      <use xlink:href="#DejaVuSans-35" transform="translate(1257.861328 0.015625)"/>
      <use xlink:href="#DejaVuSans-39" transform="translate(1315.984375 0.015625)"/>
     </g>
    </g>
   </g>
  </g>
 </g>
 <defs>
  <clipPath id="pfc748cc048">
   <rect x="55.915469" y="31.917969" width="379.44" height="232.848"/>
  </clipPath>
 </defs>
</svg>
