<?xml version="1.0" encoding="utf-8" standalone="no"?>
<!DOCTYPE svg PUBLIC "-//W3C//DTD SVG 1.1//EN"
  "http://www.w3.org/Graphics/SVG/1.1/DTD/svg11.dtd">
<svg xmlns:xlink="http://www.w3.org/1999/xlink" width="435.715469pt" height="302.029937pt" viewBox="0 0 435.715469 302.029937" xmlns="http://www.w3.org/2000/svg" version="1.1">
 <metadata>
  <rdf:RDF xmlns:dc="http://purl.org/dc/elements/1.1/" xmlns:cc="http://creativecommons.org/ns#" xmlns:rdf="http://www.w3.org/1999/02/22-rdf-syntax-ns#">
   <cc:Work>
    <dc:type rdf:resource="http://purl.org/dc/dcmitype/StillImage"/>
    <dc:date>2026-06-30T11:52:39.720789</dc:date>
    <dc:format>image/svg+xml</dc:format>
    <dc:creator>
     <cc:Agent>
      <dc:title>Matplotlib v3.9.2, https://matplotlib.org/</dc:title>
     </cc:Agent>
    </dc:creator>
   </cc:Work>
  </rdf:RDF>
 </metadata>
 <defs>
  <style type="text/css">*{stroke-linejoin: round; stroke-linecap: butt}</style>
 </defs>
 <g id="figure_1">
  <g id="patch_1">
   <path d="M 0 302.029937 
L 435.715469 302.029937 
L 435.715469 0 
L 0 0 
z
" style="fill: #ffffff"/>
  </g>
  <g id="axes_1">
   <g id="patch_2">
    <path d="M 55.915469 258.701969 
L 424.195469 258.701969 
L 424.195469 31.397969 
L 55.915469 31.397969 
z
" style="fill: #ffffff"/>
   </g>
   <g id="matplotlib.axis_1">
    <g id="xtick_1">
     <g id="line2d_1">
      <path d="M 76.375469 258.701969 
L 76.375469 31.397969 
" clip-path="url(#pf4f17bca4c)" style="fill: none; stroke-dasharray: 0.8,1.28; stroke-dashoffset: 0; stroke: #b0b0b0; stroke-opacity: 0.3; stroke-width: 0.8"/>
     </g>
     <g id="line2d_2">
      <defs>
       <path id="me3a6e44215" d="M 0 0 
L 0 3.5 
" style="stroke: #2c3e50; stroke-width: 0.8"/>
      </defs>
      <g>
       <use xlink:href="#me3a6e44215" x="76.375469" y="258.701969" style="fill: #2c3e50; stroke: #2c3e50; stroke-width: 0.8"/>
      </g>
     </g>
     <g id="text_1">
      <!-- −8 -->
      <g style="fill: #2c3e50" transform="translate(69.004375 273.300406) scale(0.1 -0.1)">
       <defs>
        <path id="DejaVuSans-2212" d="M 678 2272 
L 4684 2272 
L 4684 1741 
L 678 1741 
L 678 2272 
z
" transform="scale(0.015625)"/>
        <path id="DejaVuSans-38" d="M 2034 2216 
Q 1584 2216 1326 1975 
Q 1069 1734 1069 1313 
Q 1069 891 1326 650 
Q 1584 409 2034 409 
Q 2484 409 2743 651 
Q 3003 894 3003 1313 
Q 3003 1734 2745 1975 
Q 2488 2216 2034 2216 
z
M 1403 2484 
Q 997 2584 770 2862 
Q 544 3141 544 3541 
Q 544 4100 942 4425 
Q 1341 4750 2034 4750 
Q 2731 4750 3128 4425 
Q 3525 4100 3525 3541 
Q 3525 3141 3298 2862 
Q 3072 2584 2669 2484 
Q 3125 2378 3379 2068 
Q 3634 1759 3634 1313 
Q 3634 634 3220 271 
Q 2806 -91 2034 -91 
Q 1263 -91 848 271 
Q 434 634 434 1313 
Q 434 1759 690 2068 
Q 947 2378 1403 2484 
z
M 1172 3481 
Q 1172 3119 1398 2916 
Q 1625 2713 2034 2713 
Q 2441 2713 2670 2916 
Q 2900 3119 2900 3481 
Q 2900 3844 2670 4047 
Q 2441 4250 2034 4250 
Q 1625 4250 1398 4047 
Q 1172 3844 1172 3481 
z
" transform="scale(0.015625)"/>
       </defs>
       <use xlink:href="#DejaVuSans-2212"/>
       <use xlink:href="#DejaVuSans-38" x="83.789062"/>
      </g>
     </g>
    </g>
    <g id="xtick_2">
     <g id="line2d_3">
      <path d="M 117.295469 258.701969 
L 117.295469 31.397969 
" clip-path="url(#pf4f17bca4c)" style="fill: none; stroke-dasharray: 0.8,1.28; stroke-dashoffset: 0; stroke: #b0b0b0; stroke-opacity: 0.3; stroke-width: 0.8"/>
     </g>
     <g id="line2d_4">
      <g>
       <use xlink:href="#me3a6e44215" x="117.295469" y="258.701969" style="fill: #2c3e50; stroke: #2c3e50; stroke-width: 0.8"/>
      </g>
     </g>
     <g id="text_2">
      <!-- −6 -->
      <g style="fill: #2c3e50" transform="translate(109.924375 273.300406) scale(0.1 -0.1)">
       <defs>
        <path id="DejaVuSans-36" d="M 2113 2584 
Q 1688 2584 1439 2293 
Q 1191 2003 1191 1497 
Q 1191 994 1439 701 
Q 1688 409 2113 409 
Q 2538 409 2786 701 
Q 3034 994 3034 1497 
Q 3034 2003 2786 2293 
Q 2538 2584 2113 2584 
z
M 3366 4563 
L 3366 3988 
Q 3128 4100 2886 4159 
Q 2644 4219 2406 4219 
Q 1781 4219 1451 3797 
Q 1122 3375 1075 2522 
Q 1259 2794 1537 2939 
Q 1816 3084 2150 3084 
Q 2853 3084 3261 2657 
Q 3669 2231 3669 1497 
Q 3669 778 3244 343 
Q 2819 -91 2113 -91 
Q 1303 -91 875 529 
Q 447 1150 447 2328 
Q 447 3434 972 4092 
Q 1497 4750 2381 4750 
Q 2619 4750 2861 4703 
Q 3103 4656 3366 4563 
z
" transform="scale(0.015625)"/>
       </defs>
       <use xlink:href="#DejaVuSans-2212"/>
       <use xlink:href="#DejaVuSans-36" x="83.789062"/>
      </g>
     </g>
    </g>
    <g id="xtick_3">
     <g id="line2d_5">
      <path d="M 158.215469 258.701969 
L 158.215469 31.397969 
" clip-path="url(#pf4f17bca4c)" style="fill: none; stroke-dasharray: 0.8,1.28; stroke-dashoffset: 0; stroke: #b0b0b0; stroke-opacity: 0.3; stroke-width: 0.8"/>
     </g>
     <g id="line2d_6">
      <g>
       <use xlink:href="#me3a6e44215" x="158.215469" y="258.701969" style="fill: #2c3e50; stroke: #2c3e50; stroke-width: 0.8"/>
      </g>
     </g>
     <g id="text_3">
      <!-- −4 -->
      <g style="fill: #2c3e50" transform="translate(150.844375 273.300406) scale(0.1 -0.1)">
       <defs>
        <path id="DejaVuSans-34" d="M 2419 4116 
L 825 1625 
L 2419 1625 
L 2419 4116 
z
M 2253 4666 
L 3047 4666 
L 3047 1625 
L 3713 1625 
L 3713 1100 
L 3047 1100 
L 3047 0 
L 2419 0 
L 2419 1100 
L 313 1100 
L 313 1709 
L 2253 4666 
z
" transform="scale(0.015625)"/>
       </defs>
       <use xlink:href="#DejaVuSans-2212"/>
       <use xlink:href="#DejaVuSans-34" x="83.789062"/>
      </g>
     </g>
    </g>
    <g id="xtick_4">
     <g id="line2d_7">
      <path d="M 199.135469 258.701969 
L 199.135469 31.397969 
" clip-path="url(#pf4f17bca4c)" style="fill: none; stroke-dasharray: 0.8,1.28; stroke-dashoffset: 0; stroke: #b0b0b0; stroke-opacity: 0.3; stroke-width: 0.8"/>
     </g>
     <g id="line2d_8">
      <g>
       <use xlink:href="#me3a6e44215" x="199.135469" y="258.701969" style="fill: #2c3e50; stroke: #2c3e50; stroke-width: 0.8"/>
      </g>
     </g>
     <g id="text_4">
      <!-- −2 -->
      <g style="fill: #2c3e50" transform="translate(191.764375 273.300406) scale(0.1 -0.1)">
       <defs>
        <path id="DejaVuSans-32" d="M 1228 531 
L 3431 531 
L 3431 0 
L 469 0 
L 469 531 
Q 828 903 1448 1529 
Q 2069 2156 2228 2338 
Q 2531 2678 2651 2914 
Q 2772 3150 2772 3378 
Q 2772 3750 2511 3984 
Q 2250 4219 1831 4219 
Q 1534 4219 1204 4116 
Q 875 4013 500 3803 
L 500 4441 
Q 881 4594 1212 4672 
Q 1544 4750 1819 4750 
Q 2544 4750 2975 4387 
Q 3406 4025 3406 3419 
Q 3406 3131 3298 2873 
Q 3191 2616 2906 2266 
Q 2828 2175 2409 1742 
Q 1991 1309 1228 531 
z
" transform="scale(0.015625)"/>
       </defs>
       <use xlink:href="#DejaVuSans-2212"/>
       <use xlink:href="#DejaVuSans-32" x="83.789062"/>
      </g>
     </g>
    </g>
    <g id="xtick_5">
     <g id="line2d_9">
      <path d="M 240.055469 258.701969 
L 240.055469 31.397969 
" clip-path="url(#pf4f17bca4c)" style="fill: none; stroke-dasharray: 0.8,1.28; stroke-dashoffset: 0; stroke: #b0b0b0; stroke-opacity: 0.3; stroke-width: 0.8"/>
     </g>
     <g id="line2d_10">
      <g>
       <use xlink:href="#me3a6e44215" x="240.055469" y="258.701969" style="fill: #2c3e50; stroke: #2c3e50; stroke-width: 0.8"/>
      </g>
     </g>
     <g id="text_5">
      <!-- 0 -->
      <g style="fill: #2c3e50" transform="translate(236.874219 273.300406) scale(0.1 -0.1)">
       <defs>
        <path id="DejaVuSans-30" d="M 2034 4250 
Q 1547 4250 1301 3770 
Q 1056 3291 1056 2328 
Q 1056 1369 1301 889 
Q 1547 409 2034 409 
Q 2525 409 2770 889 
Q 3016 1369 3016 2328 
Q 3016 3291 2770 3770 
Q 2525 4250 2034 4250 
z
M 2034 4750 
Q 2819 4750 3233 4129 
Q 3647 3509 3647 2328 
Q 3647 1150 3233 529 
Q 2819 -91 2034 -91 
Q 1250 -91 836 529 
Q 422 1150 422 2328 
Q 422 3509 836 4129 
Q 1250 4750 2034 4750 
z
" transform="scale(0.015625)"/>
       </defs>
       <use xlink:href="#DejaVuSans-30"/>
      </g>
     </g>
    </g>
    <g id="xtick_6">
     <g id="line2d_11">
      <path d="M 280.975469 258.701969 
L 280.975469 31.397969 
" clip-path="url(#pf4f17bca4c)" style="fill: none; stroke-dasharray: 0.8,1.28; stroke-dashoffset: 0; stroke: #b0b0b0; stroke-opacity: 0.3; stroke-width: 0.8"/>
     </g>
     <g id="line2d_12">
      <g>
       <use xlink:href="#me3a6e44215" x="280.975469" y="258.701969" style="fill: #2c3e50; stroke: #2c3e50; stroke-width: 0.8"/>
      </g>
     </g>
     <g id="text_6">
      <!-- 2 -->
      <g style="fill: #2c3e50" transform="translate(277.794219 273.300406) scale(0.1 -0.1)">
       <use xlink:href="#DejaVuSans-32"/>
      </g>
     </g>
    </g>
    <g id="xtick_7">
     <g id="line2d_13">
      <path d="M 321.895469 258.701969 
L 321.895469 31.397969 
" clip-path="url(#pf4f17bca4c)" style="fill: none; stroke-dasharray: 0.8,1.28; stroke-dashoffset: 0; stroke: #b0b0b0; stroke-opacity: 0.3; stroke-width: 0.8"/>
     </g>
     <g id="line2d_14">
      <g>
       <use xlink:href="#me3a6e44215" x="321.895469" y="258.701969" style="fill: #2c3e50; stroke: #2c3e50; stroke-width: 0.8"/>
      </g>
     </g>
     <g id="text_7">
      <!-- 4 -->
      <g style="fill: #2c3e50" transform="translate(318.714219 273.300406) scale(0.1 -0.1)">
       <use xlink:href="#DejaVuSans-34"/>
      </g>
     </g>
    </g>
    <g id="xtick_8">
     <g id="line2d_15">
      <path d="M 362.815469 258.701969 
L 362.815469 31.397969 
" clip-path="url(#pf4f17bca4c)" style="fill: none; stroke-dasharray: 0.8,1.28; stroke-dashoffset: 0; stroke: #b0b0b0; stroke-opacity: 0.3; stroke-width: 0.8"/>
     </g>
     <g id="line2d_16">
      <g>
       <use xlink:href="#me3a6e44215" x="362.815469" y="258.701969" style="fill: #2c3e50; stroke: #2c3e50; stroke-width: 0.8"/>
      </g>
     </g>
     <g id="text_8">
      <!-- 6 -->
      <g style="fill: #2c3e50" transform="translate(359.634219 273.300406) scale(0.1 -0.1)">
       <use xlink:href="#DejaVuSans-36"/>
      </g>
     </g>
    </g>
    <g id="xtick_9">
     <g id="line2d_17">
      <path d="M 403.735469 258.701969 
L 403.735469 31.397969 
" clip-path="url(#pf4f17bca4c)" style="fill: none; stroke-dasharray: 0.8,1.28; stroke-dashoffset: 0; stroke: #b0b0b0; stroke-opacity: 0.3; stroke-width: 0.8"/>
     </g>
     <g id="line2d_18">
      <g>
       <use xlink:href="#me3a6e44215" x="403.735469" y="258.701969" style="fill: #2c3e50; stroke: #2c3e50; stroke-width: 0.8"/>
      </g>
     </g>
     <g id="text_9">
      <!-- 8 -->
      <g style="fill: #2c3e50" transform="translate(400.554219 273.300406) scale(0.1 -0.1)">
       <use xlink:href="#DejaVuSans-38"/>
      </g>
     </g>
    </g>
    <g id="text_10">
     <!-- x -->
     <g transform="translate(236.346719 288.118297) scale(0.115 -0.115)">
      <defs>
       <path id="DejaVuSans-Bold-78" d="M 1422 1791 
L 159 3500 
L 1344 3500 
L 2059 2463 
L 2784 3500 
L 3969 3500 
L 2706 1797 
L 4031 0 
L 2847 0 
L 2059 1106 
L 1281 0 
L 97 0 
L 1422 1791 
z
" transform="scale(0.015625)"/>
      </defs>
      <use xlink:href="#DejaVuSans-Bold-78"/>
     </g>
    </g>
   </g>
   <g id="matplotlib.axis_2">
    <g id="ytick_1">
     <g id="line2d_19">
      <path d="M 55.915469 258.701969 
L 424.195469 258.701969 
" clip-path="url(#pf4f17bca4c)" style="fill: none; stroke-dasharray: 0.8,1.28; stroke-dashoffset: 0; stroke: #b0b0b0; stroke-opacity: 0.3; stroke-width: 0.8"/>
     </g>
     <g id="line2d_20">
      <defs>
       <path id="mf1818c3862" d="M 0 0 
L -3.5 0 
" style="stroke: #2c3e50; stroke-width: 0.8"/>
      </defs>
      <g>
       <use xlink:href="#mf1818c3862" x="55.915469" y="258.701969" style="fill: #2c3e50; stroke: #2c3e50; stroke-width: 0.8"/>
      </g>
     </g>
     <g id="text_11">
      <!-- 0.00 -->
      <g style="fill: #2c3e50" transform="translate(26.649844 262.501187) scale(0.1 -0.1)">
       <defs>
        <path id="DejaVuSans-2e" d="M 684 794 
L 1344 794 
L 1344 0 
L 684 0 
L 684 794 
z
" transform="scale(0.015625)"/>
       </defs>
       <use xlink:href="#DejaVuSans-30"/>
       <use xlink:href="#DejaVuSans-2e" x="63.623047"/>
       <use xlink:href="#DejaVuSans-30" x="95.410156"/>
       <use xlink:href="#DejaVuSans-30" x="159.033203"/>
      </g>
     </g>
    </g>
    <g id="ytick_2">
     <g id="line2d_21">
      <path d="M 55.915469 223.430504 
L 424.195469 223.430504 
" clip-path="url(#pf4f17bca4c)" style="fill: none; stroke-dasharray: 0.8,1.28; stroke-dashoffset: 0; stroke: #b0b0b0; stroke-opacity: 0.3; stroke-width: 0.8"/>
     </g>
     <g id="line2d_22">
      <g>
       <use xlink:href="#mf1818c3862" x="55.915469" y="223.430504" style="fill: #2c3e50; stroke: #2c3e50; stroke-width: 0.8"/>
      </g>
     </g>
     <g id="text_12">
      <!-- 0.05 -->
      <g style="fill: #2c3e50" transform="translate(26.649844 227.229722) scale(0.1 -0.1)">
       <defs>
        <path id="DejaVuSans-35" d="M 691 4666 
L 3169 4666 
L 3169 4134 
L 1269 4134 
L 1269 2991 
Q 1406 3038 1543 3061 
Q 1681 3084 1819 3084 
Q 2600 3084 3056 2656 
Q 3513 2228 3513 1497 
Q 3513 744 3044 326 
Q 2575 -91 1722 -91 
Q 1428 -91 1123 -41 
Q 819 9 494 109 
L 494 744 
Q 775 591 1075 516 
Q 1375 441 1709 441 
Q 2250 441 2565 725 
Q 2881 1009 2881 1497 
Q 2881 1984 2565 2268 
Q 2250 2553 1709 2553 
Q 1456 2553 1204 2497 
Q 953 2441 691 2322 
L 691 4666 
z
" transform="scale(0.015625)"/>
       </defs>
       <use xlink:href="#DejaVuSans-30"/>
       <use xlink:href="#DejaVuSans-2e" x="63.623047"/>
       <use xlink:href="#DejaVuSans-30" x="95.410156"/>
       <use xlink:href="#DejaVuSans-35" x="159.033203"/>
      </g>
     </g>
    </g>
    <g id="ytick_3">
     <g id="line2d_23">
      <path d="M 55.915469 188.159039 
L 424.195469 188.159039 
" clip-path="url(#pf4f17bca4c)" style="fill: none; stroke-dasharray: 0.8,1.28; stroke-dashoffset: 0; stroke: #b0b0b0; stroke-opacity: 0.3; stroke-width: 0.8"/>
     </g>
     <g id="line2d_24">
      <g>
       <use xlink:href="#mf1818c3862" x="55.915469" y="188.159039" style="fill: #2c3e50; stroke: #2c3e50; stroke-width: 0.8"/>
      </g>
     </g>
     <g id="text_13">
      <!-- 0.10 -->
      <g style="fill: #2c3e50" transform="translate(26.649844 191.958257) scale(0.1 -0.1)">
       <defs>
        <path id="DejaVuSans-31" d="M 794 531 
L 1825 531 
L 1825 4091 
L 703 3866 
L 703 4441 
L 1819 4666 
L 2450 4666 
L 2450 531 
L 3481 531 
L 3481 0 
L 794 0 
L 794 531 
z
" transform="scale(0.015625)"/>
       </defs>
       <use xlink:href="#DejaVuSans-30"/>
       <use xlink:href="#DejaVuSans-2e" x="63.623047"/>
       <use xlink:href="#DejaVuSans-31" x="95.410156"/>
       <use xlink:href="#DejaVuSans-30" x="159.033203"/>
      </g>
     </g>
    </g>
    <g id="ytick_4">
     <g id="line2d_25">
      <path d="M 55.915469 152.887574 
L 424.195469 152.887574 
" clip-path="url(#pf4f17bca4c)" style="fill: none; stroke-dasharray: 0.8,1.28; stroke-dashoffset: 0; stroke: #b0b0b0; stroke-opacity: 0.3; stroke-width: 0.8"/>
     </g>
     <g id="line2d_26">
      <g>
       <use xlink:href="#mf1818c3862" x="55.915469" y="152.887574" style="fill: #2c3e50; stroke: #2c3e50; stroke-width: 0.8"/>
      </g>
     </g>
     <g id="text_14">
      <!-- 0.15 -->
      <g style="fill: #2c3e50" transform="translate(26.649844 156.686792) scale(0.1 -0.1)">
       <use xlink:href="#DejaVuSans-30"/>
       <use xlink:href="#DejaVuSans-2e" x="63.623047"/>
       <use xlink:href="#DejaVuSans-31" x="95.410156"/>
       <use xlink:href="#DejaVuSans-35" x="159.033203"/>
      </g>
     </g>
    </g>
    <g id="ytick_5">
     <g id="line2d_27">
      <path d="M 55.915469 117.616109 
L 424.195469 117.616109 
" clip-path="url(#pf4f17bca4c)" style="fill: none; stroke-dasharray: 0.8,1.28; stroke-dashoffset: 0; stroke: #b0b0b0; stroke-opacity: 0.3; stroke-width: 0.8"/>
     </g>
     <g id="line2d_28">
      <g>
       <use xlink:href="#mf1818c3862" x="55.915469" y="117.616109" style="fill: #2c3e50; stroke: #2c3e50; stroke-width: 0.8"/>
      </g>
     </g>
     <g id="text_15">
      <!-- 0.20 -->
      <g style="fill: #2c3e50" transform="translate(26.649844 121.415327) scale(0.1 -0.1)">
       <use xlink:href="#DejaVuSans-30"/>
       <use xlink:href="#DejaVuSans-2e" x="63.623047"/>
       <use xlink:href="#DejaVuSans-32" x="95.410156"/>
       <use xlink:href="#DejaVuSans-30" x="159.033203"/>
      </g>
     </g>
    </g>
    <g id="ytick_6">
     <g id="line2d_29">
      <path d="M 55.915469 82.344644 
L 424.195469 82.344644 
" clip-path="url(#pf4f17bca4c)" style="fill: none; stroke-dasharray: 0.8,1.28; stroke-dashoffset: 0; stroke: #b0b0b0; stroke-opacity: 0.3; stroke-width: 0.8"/>
     </g>
     <g id="line2d_30">
      <g>
       <use xlink:href="#mf1818c3862" x="55.915469" y="82.344644" style="fill: #2c3e50; stroke: #2c3e50; stroke-width: 0.8"/>
      </g>
     </g>
     <g id="text_16">
      <!-- 0.25 -->
      <g style="fill: #2c3e50" transform="translate(26.649844 86.143862) scale(0.1 -0.1)">
       <use xlink:href="#DejaVuSans-30"/>
       <use xlink:href="#DejaVuSans-2e" x="63.623047"/>
       <use xlink:href="#DejaVuSans-32" x="95.410156"/>
       <use xlink:href="#DejaVuSans-35" x="159.033203"/>
      </g>
     </g>
    </g>
    <g id="ytick_7">
     <g id="line2d_31">
      <path d="M 55.915469 47.073178 
L 424.195469 47.073178 
" clip-path="url(#pf4f17bca4c)" style="fill: none; stroke-dasharray: 0.8,1.28; stroke-dashoffset: 0; stroke: #b0b0b0; stroke-opacity: 0.3; stroke-width: 0.8"/>
     </g>
     <g id="line2d_32">
      <g>
       <use xlink:href="#mf1818c3862" x="55.915469" y="47.073178" style="fill: #2c3e50; stroke: #2c3e50; stroke-width: 0.8"/>
      </g>
     </g>
     <g id="text_17">
      <!-- 0.30 -->
      <g style="fill: #2c3e50" transform="translate(26.649844 50.872397) scale(0.1 -0.1)">
       <defs>
        <path id="DejaVuSans-33" d="M 2597 2516 
Q 3050 2419 3304 2112 
Q 3559 1806 3559 1356 
Q 3559 666 3084 287 
Q 2609 -91 1734 -91 
Q 1441 -91 1130 -33 
Q 819 25 488 141 
L 488 750 
Q 750 597 1062 519 
Q 1375 441 1716 441 
Q 2309 441 2620 675 
Q 2931 909 2931 1356 
Q 2931 1769 2642 2001 
Q 2353 2234 1838 2234 
L 1294 2234 
L 1294 2753 
L 1863 2753 
Q 2328 2753 2575 2939 
Q 2822 3125 2822 3475 
Q 2822 3834 2567 4026 
Q 2313 4219 1838 4219 
Q 1578 4219 1281 4162 
Q 984 4106 628 3988 
L 628 4550 
Q 988 4650 1302 4700 
Q 1616 4750 1894 4750 
Q 2613 4750 3031 4423 
Q 3450 4097 3450 3541 
Q 3450 3153 3228 2886 
Q 3006 2619 2597 2516 
z
" transform="scale(0.015625)"/>
       </defs>
       <use xlink:href="#DejaVuSans-30"/>
       <use xlink:href="#DejaVuSans-2e" x="63.623047"/>
       <use xlink:href="#DejaVuSans-33" x="95.410156"/>
       <use xlink:href="#DejaVuSans-30" x="159.033203"/>
      </g>
     </g>
    </g>
    <g id="text_18">
     <!-- densidad -->
     <g transform="translate(20.258203 174.664266) rotate(-90) scale(0.115 -0.115)">
      <defs>
       <path id="DejaVuSans-Bold-64" d="M 2919 2988 
L 2919 4863 
L 4044 4863 
L 4044 0 
L 2919 0 
L 2919 506 
Q 2688 197 2409 53 
Q 2131 -91 1766 -91 
Q 1119 -91 703 423 
Q 288 938 288 1747 
Q 288 2556 703 3070 
Q 1119 3584 1766 3584 
Q 2128 3584 2408 3439 
Q 2688 3294 2919 2988 
z
M 2181 722 
Q 2541 722 2730 984 
Q 2919 1247 2919 1747 
Q 2919 2247 2730 2509 
Q 2541 2772 2181 2772 
Q 1825 2772 1636 2509 
Q 1447 2247 1447 1747 
Q 1447 1247 1636 984 
Q 1825 722 2181 722 
z
" transform="scale(0.015625)"/>
       <path id="DejaVuSans-Bold-65" d="M 4031 1759 
L 4031 1441 
L 1416 1441 
Q 1456 1047 1700 850 
Q 1944 653 2381 653 
Q 2734 653 3104 758 
Q 3475 863 3866 1075 
L 3866 213 
Q 3469 63 3072 -14 
Q 2675 -91 2278 -91 
Q 1328 -91 801 392 
Q 275 875 275 1747 
Q 275 2603 792 3093 
Q 1309 3584 2216 3584 
Q 3041 3584 3536 3087 
Q 4031 2591 4031 1759 
z
M 2881 2131 
Q 2881 2450 2695 2645 
Q 2509 2841 2209 2841 
Q 1884 2841 1681 2658 
Q 1478 2475 1428 2131 
L 2881 2131 
z
" transform="scale(0.015625)"/>
       <path id="DejaVuSans-Bold-6e" d="M 4056 2131 
L 4056 0 
L 2931 0 
L 2931 347 
L 2931 1631 
Q 2931 2084 2911 2256 
Q 2891 2428 2841 2509 
Q 2775 2619 2662 2680 
Q 2550 2741 2406 2741 
Q 2056 2741 1856 2470 
Q 1656 2200 1656 1722 
L 1656 0 
L 538 0 
L 538 3500 
L 1656 3500 
L 1656 2988 
Q 1909 3294 2193 3439 
Q 2478 3584 2822 3584 
Q 3428 3584 3742 3212 
Q 4056 2841 4056 2131 
z
" transform="scale(0.015625)"/>
       <path id="DejaVuSans-Bold-73" d="M 3272 3391 
L 3272 2541 
Q 2913 2691 2578 2766 
Q 2244 2841 1947 2841 
Q 1628 2841 1473 2761 
Q 1319 2681 1319 2516 
Q 1319 2381 1436 2309 
Q 1553 2238 1856 2203 
L 2053 2175 
Q 2913 2066 3209 1816 
Q 3506 1566 3506 1031 
Q 3506 472 3093 190 
Q 2681 -91 1863 -91 
Q 1516 -91 1145 -36 
Q 775 19 384 128 
L 384 978 
Q 719 816 1070 734 
Q 1422 653 1784 653 
Q 2113 653 2278 743 
Q 2444 834 2444 1013 
Q 2444 1163 2330 1236 
Q 2216 1309 1875 1350 
L 1678 1375 
Q 931 1469 631 1722 
Q 331 1975 331 2491 
Q 331 3047 712 3315 
Q 1094 3584 1881 3584 
Q 2191 3584 2531 3537 
Q 2872 3491 3272 3391 
z
" transform="scale(0.015625)"/>
       <path id="DejaVuSans-Bold-69" d="M 538 3500 
L 1656 3500 
L 1656 0 
L 538 0 
L 538 3500 
z
M 538 4863 
L 1656 4863 
L 1656 3950 
L 538 3950 
L 538 4863 
z
" transform="scale(0.015625)"/>
       <path id="DejaVuSans-Bold-61" d="M 2106 1575 
Q 1756 1575 1579 1456 
Q 1403 1338 1403 1106 
Q 1403 894 1545 773 
Q 1688 653 1941 653 
Q 2256 653 2472 879 
Q 2688 1106 2688 1447 
L 2688 1575 
L 2106 1575 
z
M 3816 1997 
L 3816 0 
L 2688 0 
L 2688 519 
Q 2463 200 2181 54 
Q 1900 -91 1497 -91 
Q 953 -91 614 226 
Q 275 544 275 1050 
Q 275 1666 698 1953 
Q 1122 2241 2028 2241 
L 2688 2241 
L 2688 2328 
Q 2688 2594 2478 2717 
Q 2269 2841 1825 2841 
Q 1466 2841 1156 2769 
Q 847 2697 581 2553 
L 581 3406 
Q 941 3494 1303 3539 
Q 1666 3584 2028 3584 
Q 2975 3584 3395 3211 
Q 3816 2838 3816 1997 
z
" transform="scale(0.015625)"/>
      </defs>
      <use xlink:href="#DejaVuSans-Bold-64"/>
      <use xlink:href="#DejaVuSans-Bold-65" x="71.582031"/>
      <use xlink:href="#DejaVuSans-Bold-6e" x="139.404297"/>
      <use xlink:href="#DejaVuSans-Bold-73" x="210.595703"/>
      <use xlink:href="#DejaVuSans-Bold-69" x="270.117188"/>
      <use xlink:href="#DejaVuSans-Bold-64" x="304.394531"/>
      <use xlink:href="#DejaVuSans-Bold-61" x="375.976562"/>
      <use xlink:href="#DejaVuSans-Bold-64" x="443.457031"/>
     </g>
    </g>
   </g>
   <g id="line2d_33">
    <path d="M 240.055469 258.701969 
L 240.055469 31.397969 
" clip-path="url(#pf4f17bca4c)" style="fill: none; stroke-dasharray: 4.44,1.92; stroke-dashoffset: 0; stroke: #34495e; stroke-opacity: 0.7; stroke-width: 1.2"/>
   </g>
   <g id="PolyCollection_1">
    <defs>
     <path id="m756a7438c0" d="M 213.457469 -43.327969 
L 213.457469 -174.63046 
L 213.635382 -175.508725 
L 213.813295 -176.38691 
L 213.991208 -177.264937 
L 214.169121 -178.142727 
L 214.347034 -179.020197 
L 214.524947 -179.897269 
L 214.70286 -180.773859 
L 214.880773 -181.649887 
L 215.058686 -182.525271 
L 215.236599 -183.399927 
L 215.414512 -184.273773 
L 215.592425 -185.146725 
L 215.770338 -186.018699 
L 215.948251 -186.889611 
L 216.126164 -187.759376 
L 216.304077 -188.62791 
L 216.48199 -189.495126 
L 216.659904 -190.36094 
L 216.837817 -191.225265 
L 217.01573 -192.088014 
L 217.193643 -192.949102 
L 217.371556 -193.808442 
L 217.549469 -194.665945 
L 217.727382 -195.521526 
L 217.905295 -196.375095 
L 218.083208 -197.226566 
L 218.261121 -198.07585 
L 218.439034 -198.922859 
L 218.616947 -199.767505 
L 218.79486 -200.609698 
L 218.972773 -201.44935 
L 219.150686 -202.286373 
L 219.328599 -203.120677 
L 219.506512 -203.952172 
L 219.684425 -204.780771 
L 219.862338 -205.606383 
L 220.040251 -206.42892 
L 220.218164 -207.248291 
L 220.396077 -208.064408 
L 220.57399 -208.87718 
L 220.751904 -209.68652 
L 220.929817 -210.492336 
L 221.10773 -211.294541 
L 221.285643 -212.093044 
L 221.463556 -212.887757 
L 221.641469 -213.678589 
L 221.819382 -214.465453 
L 221.997295 -215.24826 
L 222.175208 -216.026919 
L 222.353121 -216.801344 
L 222.531034 -217.571445 
L 222.708947 -218.337135 
L 222.88686 -219.098325 
L 223.064773 -219.854927 
L 223.242686 -220.606854 
L 223.420599 -221.354018 
L 223.598512 -222.096332 
L 223.776425 -222.83371 
L 223.954338 -223.566066 
L 224.132251 -224.293312 
L 224.310164 -225.015363 
L 224.488077 -225.732134 
L 224.66599 -226.443539 
L 224.843904 -227.149494 
L 225.021817 -227.849915 
L 225.19973 -228.544718 
L 225.377643 -229.233818 
L 225.555556 -229.917134 
L 225.733469 -230.594582 
L 225.911382 -231.266082 
L 226.089295 -231.93155 
L 226.267208 -232.590906 
L 226.445121 -233.24407 
L 226.623034 -233.890962 
L 226.800947 -234.531502 
L 226.97886 -235.165612 
L 227.156773 -235.793213 
L 227.334686 -236.414228 
L 227.512599 -237.02858 
L 227.690512 -237.636193 
L 227.868425 -238.236991 
L 228.046338 -238.830899 
L 228.224251 -239.417843 
L 228.402164 -239.99775 
L 228.580077 -240.570546 
L 228.75799 -241.13616 
L 228.935904 -241.694521 
L 229.113817 -242.245557 
L 229.29173 -242.7892 
L 229.469643 -243.325379 
L 229.647556 -243.854028 
L 229.825469 -244.375079 
L 230.003382 -244.888465 
L 230.181295 -245.394121 
L 230.359208 -245.891983 
L 230.537121 -246.381985 
L 230.715034 -246.864066 
L 230.892947 -247.338164 
L 231.07086 -247.804217 
L 231.248773 -248.262165 
L 231.426686 -248.711949 
L 231.604599 -249.153512 
L 231.782512 -249.586794 
L 231.960425 -250.011742 
L 232.138338 -250.428298 
L 232.316251 -250.836409 
L 232.494164 -251.236022 
L 232.672077 -251.627085 
L 232.84999 -252.009546 
L 233.027904 -252.383356 
L 233.205817 -252.748465 
L 233.38373 -253.104825 
L 233.561643 -253.452391 
L 233.739556 -253.791115 
L 233.917469 -254.120954 
L 234.095382 -254.441864 
L 234.273295 -254.753802 
L 234.451208 -255.056728 
L 234.629121 -255.350602 
L 234.807034 -255.635384 
L 234.984947 -255.911037 
L 235.16286 -256.177524 
L 235.340773 -256.43481 
L 235.518686 -256.682861 
L 235.696599 -256.921644 
L 235.874512 -257.151127 
L 236.052425 -257.371279 
L 236.230338 -257.582072 
L 236.408251 -257.783477 
L 236.586164 -257.975467 
L 236.764077 -258.158017 
L 236.94199 -258.331102 
L 237.119904 -258.4947 
L 237.297817 -258.648788 
L 237.47573 -258.793345 
L 237.653643 -258.928353 
L 237.831556 -259.053793 
L 238.009469 -259.169649 
L 238.187382 -259.275905 
L 238.365295 -259.372546 
L 238.543208 -259.459561 
L 238.721121 -259.536936 
L 238.899034 -259.604663 
L 239.076947 -259.662731 
L 239.25486 -259.711132 
L 239.432773 -259.749862 
L 239.610686 -259.778913 
L 239.788599 -259.798283 
L 239.966512 -259.807969 
L 240.144425 -259.807969 
L 240.322338 -259.798283 
L 240.500251 -259.778913 
L 240.678164 -259.749862 
L 240.856077 -259.711132 
L 241.03399 -259.662731 
L 241.211904 -259.604663 
L 241.389817 -259.536936 
L 241.56773 -259.459561 
L 241.745643 -259.372546 
L 241.923556 -259.275905 
L 242.101469 -259.169649 
L 242.279382 -259.053793 
L 242.457295 -258.928353 
L 242.635208 -258.793345 
L 242.813121 -258.648788 
L 242.991034 -258.4947 
L 243.168947 -258.331102 
L 243.34686 -258.158017 
L 243.524773 -257.975467 
L 243.702686 -257.783477 
L 243.880599 -257.582072 
L 244.058512 -257.371279 
L 244.236425 -257.151127 
L 244.414338 -256.921644 
L 244.592251 -256.682861 
L 244.770164 -256.43481 
L 244.948077 -256.177524 
L 245.12599 -255.911037 
L 245.303904 -255.635384 
L 245.481817 -255.350602 
L 245.65973 -255.056728 
L 245.837643 -254.753802 
L 246.015556 -254.441864 
L 246.193469 -254.120954 
L 246.371382 -253.791115 
L 246.549295 -253.452391 
L 246.727208 -253.104825 
L 246.905121 -252.748465 
L 247.083034 -252.383356 
L 247.260947 -252.009546 
L 247.43886 -251.627085 
L 247.616773 -251.236022 
L 247.794686 -250.836409 
L 247.972599 -250.428298 
L 248.150512 -250.011742 
L 248.328425 -249.586794 
L 248.506338 -249.153512 
L 248.684251 -248.711949 
L 248.862164 -248.262165 
L 249.040077 -247.804217 
L 249.21799 -247.338164 
L 249.395904 -246.864066 
L 249.573817 -246.381985 
L 249.75173 -245.891983 
L 249.929643 -245.394121 
L 250.107556 -244.888465 
L 250.285469 -244.375079 
L 250.463382 -243.854028 
L 250.641295 -243.325379 
L 250.819208 -242.7892 
L 250.997121 -242.245557 
L 251.175034 -241.694521 
L 251.352947 -241.13616 
L 251.53086 -240.570546 
L 251.708773 -239.99775 
L 251.886686 -239.417843 
L 252.064599 -238.830899 
L 252.242512 -238.236991 
L 252.420425 -237.636193 
L 252.598338 -237.02858 
L 252.776251 -236.414228 
L 252.954164 -235.793213 
L 253.132077 -235.165612 
L 253.30999 -234.531502 
L 253.487904 -233.890962 
L 253.665817 -233.24407 
L 253.84373 -232.590906 
L 254.021643 -231.93155 
L 254.199556 -231.266082 
L 254.377469 -230.594582 
L 254.555382 -229.917134 
L 254.733295 -229.233818 
L 254.911208 -228.544718 
L 255.089121 -227.849915 
L 255.267034 -227.149494 
L 255.444947 -226.443539 
L 255.62286 -225.732134 
L 255.800773 -225.015363 
L 255.978686 -224.293312 
L 256.156599 -223.566066 
L 256.334512 -222.83371 
L 256.512425 -222.096332 
L 256.690338 -221.354018 
L 256.868251 -220.606854 
L 257.046164 -219.854927 
L 257.224077 -219.098325 
L 257.40199 -218.337135 
L 257.579904 -217.571445 
L 257.757817 -216.801344 
L 257.93573 -216.026919 
L 258.113643 -215.24826 
L 258.291556 -214.465453 
L 258.469469 -213.678589 
L 258.647382 -212.887757 
L 258.825295 -212.093044 
L 259.003208 -211.294541 
L 259.181121 -210.492336 
L 259.359034 -209.68652 
L 259.536947 -208.87718 
L 259.71486 -208.064408 
L 259.892773 -207.248291 
L 260.070686 -206.42892 
L 260.248599 -205.606383 
L 260.426512 -204.780771 
L 260.604425 -203.952172 
L 260.782338 -203.120677 
L 260.960251 -202.286373 
L 261.138164 -201.44935 
L 261.316077 -200.609698 
L 261.49399 -199.767505 
L 261.671904 -198.922859 
L 261.849817 -198.07585 
L 262.02773 -197.226566 
L 262.205643 -196.375095 
L 262.383556 -195.521526 
L 262.561469 -194.665945 
L 262.739382 -193.808442 
L 262.917295 -192.949102 
L 263.095208 -192.088014 
L 263.273121 -191.225265 
L 263.451034 -190.36094 
L 263.628947 -189.495126 
L 263.80686 -188.62791 
L 263.984773 -187.759376 
L 264.162686 -186.889611 
L 264.340599 -186.018699 
L 264.518512 -185.146725 
L 264.696425 -184.273773 
L 264.874338 -183.399927 
L 265.052251 -182.525271 
L 265.230164 -181.649887 
L 265.408077 -180.773859 
L 265.58599 -179.897269 
L 265.763904 -179.020197 
L 265.941817 -178.142727 
L 266.11973 -177.264937 
L 266.297643 -176.38691 
L 266.475556 -175.508725 
L 266.653469 -174.63046 
L 266.653469 -43.327969 
L 266.653469 -43.327969 
L 266.475556 -43.327969 
L 266.297643 -43.327969 
L 266.11973 -43.327969 
L 265.941817 -43.327969 
L 265.763904 -43.327969 
L 265.58599 -43.327969 
L 265.408077 -43.327969 
L 265.230164 -43.327969 
L 265.052251 -43.327969 
L 264.874338 -43.327969 
L 264.696425 -43.327969 
L 264.518512 -43.327969 
L 264.340599 -43.327969 
L 264.162686 -43.327969 
L 263.984773 -43.327969 
L 263.80686 -43.327969 
L 263.628947 -43.327969 
L 263.451034 -43.327969 
L 263.273121 -43.327969 
L 263.095208 -43.327969 
L 262.917295 -43.327969 
L 262.739382 -43.327969 
L 262.561469 -43.327969 
L 262.383556 -43.327969 
L 262.205643 -43.327969 
L 262.02773 -43.327969 
L 261.849817 -43.327969 
L 261.671904 -43.327969 
L 261.49399 -43.327969 
L 261.316077 -43.327969 
L 261.138164 -43.327969 
L 260.960251 -43.327969 
L 260.782338 -43.327969 
L 260.604425 -43.327969 
L 260.426512 -43.327969 
L 260.248599 -43.327969 
L 260.070686 -43.327969 
L 259.892773 -43.327969 
L 259.71486 -43.327969 
L 259.536947 -43.327969 
L 259.359034 -43.327969 
L 259.181121 -43.327969 
L 259.003208 -43.327969 
L 258.825295 -43.327969 
L 258.647382 -43.327969 
L 258.469469 -43.327969 
L 258.291556 -43.327969 
L 258.113643 -43.327969 
L 257.93573 -43.327969 
L 257.757817 -43.327969 
L 257.579904 -43.327969 
L 257.40199 -43.327969 
L 257.224077 -43.327969 
L 257.046164 -43.327969 
L 256.868251 -43.327969 
L 256.690338 -43.327969 
L 256.512425 -43.327969 
L 256.334512 -43.327969 
L 256.156599 -43.327969 
L 255.978686 -43.327969 
L 255.800773 -43.327969 
L 255.62286 -43.327969 
L 255.444947 -43.327969 
L 255.267034 -43.327969 
L 255.089121 -43.327969 
L 254.911208 -43.327969 
L 254.733295 -43.327969 
L 254.555382 -43.327969 
L 254.377469 -43.327969 
L 254.199556 -43.327969 
L 254.021643 -43.327969 
L 253.84373 -43.327969 
L 253.665817 -43.327969 
L 253.487904 -43.327969 
L 253.30999 -43.327969 
L 253.132077 -43.327969 
L 252.954164 -43.327969 
L 252.776251 -43.327969 
L 252.598338 -43.327969 
L 252.420425 -43.327969 
L 252.242512 -43.327969 
L 252.064599 -43.327969 
L 251.886686 -43.327969 
L 251.708773 -43.327969 
L 251.53086 -43.327969 
L 251.352947 -43.327969 
L 251.175034 -43.327969 
L 250.997121 -43.327969 
L 250.819208 -43.327969 
L 250.641295 -43.327969 
L 250.463382 -43.327969 
L 250.285469 -43.327969 
L 250.107556 -43.327969 
L 249.929643 -43.327969 
L 249.75173 -43.327969 
L 249.573817 -43.327969 
L 249.395904 -43.327969 
L 249.21799 -43.327969 
L 249.040077 -43.327969 
L 248.862164 -43.327969 
L 248.684251 -43.327969 
L 248.506338 -43.327969 
L 248.328425 -43.327969 
L 248.150512 -43.327969 
L 247.972599 -43.327969 
L 247.794686 -43.327969 
L 247.616773 -43.327969 
L 247.43886 -43.327969 
L 247.260947 -43.327969 
L 247.083034 -43.327969 
L 246.905121 -43.327969 
L 246.727208 -43.327969 
L 246.549295 -43.327969 
L 246.371382 -43.327969 
L 246.193469 -43.327969 
L 246.015556 -43.327969 
L 245.837643 -43.327969 
L 245.65973 -43.327969 
L 245.481817 -43.327969 
L 245.303904 -43.327969 
L 245.12599 -43.327969 
L 244.948077 -43.327969 
L 244.770164 -43.327969 
L 244.592251 -43.327969 
L 244.414338 -43.327969 
L 244.236425 -43.327969 
L 244.058512 -43.327969 
L 243.880599 -43.327969 
L 243.702686 -43.327969 
L 243.524773 -43.327969 
L 243.34686 -43.327969 
L 243.168947 -43.327969 
L 242.991034 -43.327969 
L 242.813121 -43.327969 
L 242.635208 -43.327969 
L 242.457295 -43.327969 
L 242.279382 -43.327969 
L 242.101469 -43.327969 
L 241.923556 -43.327969 
L 241.745643 -43.327969 
L 241.56773 -43.327969 
L 241.389817 -43.327969 
L 241.211904 -43.327969 
L 241.03399 -43.327969 
L 240.856077 -43.327969 
L 240.678164 -43.327969 
L 240.500251 -43.327969 
L 240.322338 -43.327969 
L 240.144425 -43.327969 
L 239.966512 -43.327969 
L 239.788599 -43.327969 
L 239.610686 -43.327969 
L 239.432773 -43.327969 
L 239.25486 -43.327969 
L 239.076947 -43.327969 
L 238.899034 -43.327969 
L 238.721121 -43.327969 
L 238.543208 -43.327969 
L 238.365295 -43.327969 
L 238.187382 -43.327969 
L 238.009469 -43.327969 
L 237.831556 -43.327969 
L 237.653643 -43.327969 
L 237.47573 -43.327969 
L 237.297817 -43.327969 
L 237.119904 -43.327969 
L 236.94199 -43.327969 
L 236.764077 -43.327969 
L 236.586164 -43.327969 
L 236.408251 -43.327969 
L 236.230338 -43.327969 
L 236.052425 -43.327969 
L 235.874512 -43.327969 
L 235.696599 -43.327969 
L 235.518686 -43.327969 
L 235.340773 -43.327969 
L 235.16286 -43.327969 
L 234.984947 -43.327969 
L 234.807034 -43.327969 
L 234.629121 -43.327969 
L 234.451208 -43.327969 
L 234.273295 -43.327969 
L 234.095382 -43.327969 
L 233.917469 -43.327969 
L 233.739556 -43.327969 
L 233.561643 -43.327969 
L 233.38373 -43.327969 
L 233.205817 -43.327969 
L 233.027904 -43.327969 
L 232.84999 -43.327969 
L 232.672077 -43.327969 
L 232.494164 -43.327969 
L 232.316251 -43.327969 
L 232.138338 -43.327969 
L 231.960425 -43.327969 
L 231.782512 -43.327969 
L 231.604599 -43.327969 
L 231.426686 -43.327969 
L 231.248773 -43.327969 
L 231.07086 -43.327969 
L 230.892947 -43.327969 
L 230.715034 -43.327969 
L 230.537121 -43.327969 
L 230.359208 -43.327969 
L 230.181295 -43.327969 
L 230.003382 -43.327969 
L 229.825469 -43.327969 
L 229.647556 -43.327969 
L 229.469643 -43.327969 
L 229.29173 -43.327969 
L 229.113817 -43.327969 
L 228.935904 -43.327969 
L 228.75799 -43.327969 
L 228.580077 -43.327969 
L 228.402164 -43.327969 
L 228.224251 -43.327969 
L 228.046338 -43.327969 
L 227.868425 -43.327969 
L 227.690512 -43.327969 
L 227.512599 -43.327969 
L 227.334686 -43.327969 
L 227.156773 -43.327969 
L 226.97886 -43.327969 
L 226.800947 -43.327969 
L 226.623034 -43.327969 
L 226.445121 -43.327969 
L 226.267208 -43.327969 
L 226.089295 -43.327969 
L 225.911382 -43.327969 
L 225.733469 -43.327969 
L 225.555556 -43.327969 
L 225.377643 -43.327969 
L 225.19973 -43.327969 
L 225.021817 -43.327969 
L 224.843904 -43.327969 
L 224.66599 -43.327969 
L 224.488077 -43.327969 
L 224.310164 -43.327969 
L 224.132251 -43.327969 
L 223.954338 -43.327969 
L 223.776425 -43.327969 
L 223.598512 -43.327969 
L 223.420599 -43.327969 
L 223.242686 -43.327969 
L 223.064773 -43.327969 
L 222.88686 -43.327969 
L 222.708947 -43.327969 
L 222.531034 -43.327969 
L 222.353121 -43.327969 
L 222.175208 -43.327969 
L 221.997295 -43.327969 
L 221.819382 -43.327969 
L 221.641469 -43.327969 
L 221.463556 -43.327969 
L 221.285643 -43.327969 
L 221.10773 -43.327969 
L 220.929817 -43.327969 
L 220.751904 -43.327969 
L 220.57399 -43.327969 
L 220.396077 -43.327969 
L 220.218164 -43.327969 
L 220.040251 -43.327969 
L 219.862338 -43.327969 
L 219.684425 -43.327969 
L 219.506512 -43.327969 
L 219.328599 -43.327969 
L 219.150686 -43.327969 
L 218.972773 -43.327969 
L 218.79486 -43.327969 
L 218.616947 -43.327969 
L 218.439034 -43.327969 
L 218.261121 -43.327969 
L 218.083208 -43.327969 
L 217.905295 -43.327969 
L 217.727382 -43.327969 
L 217.549469 -43.327969 
L 217.371556 -43.327969 
L 217.193643 -43.327969 
L 217.01573 -43.327969 
L 216.837817 -43.327969 
L 216.659904 -43.327969 
L 216.48199 -43.327969 
L 216.304077 -43.327969 
L 216.126164 -43.327969 
L 215.948251 -43.327969 
L 215.770338 -43.327969 
L 215.592425 -43.327969 
L 215.414512 -43.327969 
L 215.236599 -43.327969 
L 215.058686 -43.327969 
L 214.880773 -43.327969 
L 214.70286 -43.327969 
L 214.524947 -43.327969 
L 214.347034 -43.327969 
L 214.169121 -43.327969 
L 213.991208 -43.327969 
L 213.813295 -43.327969 
L 213.635382 -43.327969 
L 213.457469 -43.327969 
z
" style="stroke: #2980b9; stroke-opacity: 0.2"/>
    </defs>
    <g clip-path="url(#pf4f17bca4c)">
     <use xlink:href="#m756a7438c0" x="0" y="302.029937" style="fill: #2980b9; fill-opacity: 0.2; stroke: #2980b9; stroke-opacity: 0.2"/>
    </g>
   </g>
   <g id="PolyCollection_2">
    <defs>
     <path id="m94f9a0387b" d="M 178.675469 -43.327969 
L 178.675469 -100.225715 
L 179.086037 -100.606296 
L 179.496606 -100.986843 
L 179.907174 -101.367322 
L 180.317743 -101.747697 
L 180.728312 -102.127934 
L 181.13888 -102.507999 
L 181.549449 -102.887855 
L 181.960017 -103.267467 
L 182.370586 -103.6468 
L 182.781154 -104.025817 
L 183.191723 -104.404484 
L 183.602291 -104.782763 
L 184.01286 -105.160618 
L 184.423429 -105.538014 
L 184.833997 -105.914912 
L 185.244566 -106.291276 
L 185.655134 -106.66707 
L 186.065703 -107.042256 
L 186.476271 -107.416797 
L 186.88684 -107.790655 
L 187.297409 -108.163793 
L 187.707977 -108.536174 
L 188.118546 -108.907759 
L 188.529114 -109.27851 
L 188.939683 -109.64839 
L 189.350251 -110.017361 
L 189.76082 -110.385384 
L 190.171388 -110.752421 
L 190.581957 -111.118434 
L 190.992526 -111.483385 
L 191.403094 -111.847234 
L 191.813663 -112.209944 
L 192.224231 -112.571476 
L 192.6348 -112.93179 
L 193.045368 -113.29085 
L 193.455937 -113.648615 
L 193.866506 -114.005048 
L 194.277074 -114.360108 
L 194.687643 -114.713759 
L 195.098211 -115.065961 
L 195.50878 -115.416674 
L 195.919348 -115.765861 
L 196.329917 -116.113483 
L 196.740485 -116.459501 
L 197.151054 -116.803877 
L 197.561623 -117.146571 
L 197.972191 -117.487545 
L 198.38276 -117.826761 
L 198.793328 -118.164181 
L 199.203897 -118.499765 
L 199.614465 -118.833475 
L 200.025034 -119.165274 
L 200.435603 -119.495123 
L 200.846171 -119.822984 
L 201.25674 -120.148819 
L 201.667308 -120.47259 
L 202.077877 -120.79426 
L 202.488445 -121.11379 
L 202.899014 -121.431144 
L 203.309582 -121.746284 
L 203.720151 -122.059173 
L 204.13072 -122.369774 
L 204.541288 -122.678049 
L 204.951857 -122.983963 
L 205.362425 -123.287479 
L 205.772994 -123.58856 
L 206.183562 -123.88717 
L 206.594131 -124.183274 
L 207.0047 -124.476835 
L 207.415268 -124.767818 
L 207.825837 -125.056187 
L 208.236405 -125.341908 
L 208.646974 -125.624946 
L 209.057542 -125.905266 
L 209.468111 -126.182833 
L 209.878679 -126.457614 
L 210.289248 -126.729575 
L 210.699817 -126.998681 
L 211.110385 -127.2649 
L 211.520954 -127.528199 
L 211.931522 -127.788545 
L 212.342091 -128.045905 
L 212.752659 -128.300248 
L 213.163228 -128.551541 
L 213.573797 -128.799752 
L 213.984365 -129.044852 
L 214.394934 -129.286808 
L 214.805502 -129.52559 
L 215.216071 -129.761169 
L 215.626639 -129.993513 
L 216.037208 -130.222595 
L 216.447776 -130.448383 
L 216.858345 -130.670851 
L 217.268914 -130.889968 
L 217.679482 -131.105708 
L 218.090051 -131.318043 
L 218.500619 -131.526944 
L 218.911188 -131.732387 
L 219.321756 -131.934343 
L 219.732325 -132.132787 
L 220.142893 -132.327694 
L 220.553462 -132.519037 
L 220.964031 -132.706793 
L 221.374599 -132.890937 
L 221.785168 -133.071445 
L 222.195736 -133.248293 
L 222.606305 -133.421459 
L 223.016873 -133.590919 
L 223.427442 -133.756652 
L 223.838011 -133.918636 
L 224.248579 -134.07685 
L 224.659148 -134.231273 
L 225.069716 -134.381885 
L 225.480285 -134.528665 
L 225.890853 -134.671596 
L 226.301422 -134.810657 
L 226.71199 -134.94583 
L 227.122559 -135.077098 
L 227.533128 -135.204443 
L 227.943696 -135.327849 
L 228.354265 -135.447298 
L 228.764833 -135.562776 
L 229.175402 -135.674267 
L 229.58597 -135.781755 
L 229.996539 -135.885228 
L 230.407108 -135.984671 
L 230.817676 -136.08007 
L 231.228245 -136.171414 
L 231.638813 -136.258689 
L 232.049382 -136.341885 
L 232.45995 -136.42099 
L 232.870519 -136.495993 
L 233.281087 -136.566886 
L 233.691656 -136.633657 
L 234.102225 -136.696299 
L 234.512793 -136.754802 
L 234.923362 -136.809159 
L 235.33393 -136.859364 
L 235.744499 -136.905408 
L 236.155067 -136.947286 
L 236.565636 -136.984992 
L 236.976205 -137.018521 
L 237.386773 -137.047869 
L 237.797342 -137.073032 
L 238.20791 -137.094006 
L 238.618479 -137.110789 
L 239.029047 -137.123378 
L 239.439616 -137.131772 
L 239.850184 -137.135969 
L 240.260753 -137.135969 
L 240.671322 -137.131772 
L 241.08189 -137.123378 
L 241.492459 -137.110789 
L 241.903027 -137.094006 
L 242.313596 -137.073032 
L 242.724164 -137.047869 
L 243.134733 -137.018521 
L 243.545302 -136.984992 
L 243.95587 -136.947286 
L 244.366439 -136.905408 
L 244.777007 -136.859364 
L 245.187576 -136.809159 
L 245.598144 -136.754802 
L 246.008713 -136.696299 
L 246.419281 -136.633657 
L 246.82985 -136.566886 
L 247.240419 -136.495993 
L 247.650987 -136.42099 
L 248.061556 -136.341885 
L 248.472124 -136.258689 
L 248.882693 -136.171414 
L 249.293261 -136.08007 
L 249.70383 -135.984671 
L 250.114399 -135.885228 
L 250.524967 -135.781755 
L 250.935536 -135.674267 
L 251.346104 -135.562776 
L 251.756673 -135.447298 
L 252.167241 -135.327849 
L 252.57781 -135.204443 
L 252.988378 -135.077098 
L 253.398947 -134.94583 
L 253.809516 -134.810657 
L 254.220084 -134.671596 
L 254.630653 -134.528665 
L 255.041221 -134.381885 
L 255.45179 -134.231273 
L 255.862358 -134.07685 
L 256.272927 -133.918636 
L 256.683496 -133.756652 
L 257.094064 -133.590919 
L 257.504633 -133.421459 
L 257.915201 -133.248293 
L 258.32577 -133.071445 
L 258.736338 -132.890937 
L 259.146907 -132.706793 
L 259.557475 -132.519037 
L 259.968044 -132.327694 
L 260.378613 -132.132787 
L 260.789181 -131.934343 
L 261.19975 -131.732387 
L 261.610318 -131.526944 
L 262.020887 -131.318043 
L 262.431455 -131.105708 
L 262.842024 -130.889968 
L 263.252592 -130.670851 
L 263.663161 -130.448383 
L 264.07373 -130.222595 
L 264.484298 -129.993513 
L 264.894867 -129.761169 
L 265.305435 -129.52559 
L 265.716004 -129.286808 
L 266.126572 -129.044852 
L 266.537141 -128.799752 
L 266.94771 -128.551541 
L 267.358278 -128.300248 
L 267.768847 -128.045905 
L 268.179415 -127.788545 
L 268.589984 -127.528199 
L 269.000552 -127.2649 
L 269.411121 -126.998681 
L 269.821689 -126.729575 
L 270.232258 -126.457614 
L 270.642827 -126.182833 
L 271.053395 -125.905266 
L 271.463964 -125.624946 
L 271.874532 -125.341908 
L 272.285101 -125.056187 
L 272.695669 -124.767818 
L 273.106238 -124.476835 
L 273.516807 -124.183274 
L 273.927375 -123.88717 
L 274.337944 -123.58856 
L 274.748512 -123.287479 
L 275.159081 -122.983963 
L 275.569649 -122.678049 
L 275.980218 -122.369774 
L 276.390786 -122.059173 
L 276.801355 -121.746284 
L 277.211924 -121.431144 
L 277.622492 -121.11379 
L 278.033061 -120.79426 
L 278.443629 -120.47259 
L 278.854198 -120.148819 
L 279.264766 -119.822984 
L 279.675335 -119.495123 
L 280.085904 -119.165274 
L 280.496472 -118.833475 
L 280.907041 -118.499765 
L 281.317609 -118.164181 
L 281.728178 -117.826761 
L 282.138746 -117.487545 
L 282.549315 -117.146571 
L 282.959883 -116.803877 
L 283.370452 -116.459501 
L 283.781021 -116.113483 
L 284.191589 -115.765861 
L 284.602158 -115.416674 
L 285.012726 -115.065961 
L 285.423295 -114.713759 
L 285.833863 -114.360108 
L 286.244432 -114.005048 
L 286.655001 -113.648615 
L 287.065569 -113.29085 
L 287.476138 -112.93179 
L 287.886706 -112.571476 
L 288.297275 -112.209944 
L 288.707843 -111.847234 
L 289.118412 -111.483385 
L 289.52898 -111.118434 
L 289.939549 -110.752421 
L 290.350118 -110.385384 
L 290.760686 -110.017361 
L 291.171255 -109.64839 
L 291.581823 -109.27851 
L 291.992392 -108.907759 
L 292.40296 -108.536174 
L 292.813529 -108.163793 
L 293.224098 -107.790655 
L 293.634666 -107.416797 
L 294.045235 -107.042256 
L 294.455803 -106.66707 
L 294.866372 -106.291276 
L 295.27694 -105.914912 
L 295.687509 -105.538014 
L 296.098077 -105.160618 
L 296.508646 -104.782763 
L 296.919215 -104.404484 
L 297.329783 -104.025817 
L 297.740352 -103.6468 
L 298.15092 -103.267467 
L 298.561489 -102.887855 
L 298.972057 -102.507999 
L 299.382626 -102.127934 
L 299.793195 -101.747697 
L 300.203763 -101.367322 
L 300.614332 -100.986843 
L 301.0249 -100.606296 
L 301.435469 -100.225715 
L 301.435469 -43.327969 
L 301.435469 -43.327969 
L 301.0249 -43.327969 
L 300.614332 -43.327969 
L 300.203763 -43.327969 
L 299.793195 -43.327969 
L 299.382626 -43.327969 
L 298.972057 -43.327969 
L 298.561489 -43.327969 
L 298.15092 -43.327969 
L 297.740352 -43.327969 
L 297.329783 -43.327969 
L 296.919215 -43.327969 
L 296.508646 -43.327969 
L 296.098077 -43.327969 
L 295.687509 -43.327969 
L 295.27694 -43.327969 
L 294.866372 -43.327969 
L 294.455803 -43.327969 
L 294.045235 -43.327969 
L 293.634666 -43.327969 
L 293.224098 -43.327969 
L 292.813529 -43.327969 
L 292.40296 -43.327969 
L 291.992392 -43.327969 
L 291.581823 -43.327969 
L 291.171255 -43.327969 
L 290.760686 -43.327969 
L 290.350118 -43.327969 
L 289.939549 -43.327969 
L 289.52898 -43.327969 
L 289.118412 -43.327969 
L 288.707843 -43.327969 
L 288.297275 -43.327969 
L 287.886706 -43.327969 
L 287.476138 -43.327969 
L 287.065569 -43.327969 
L 286.655001 -43.327969 
L 286.244432 -43.327969 
L 285.833863 -43.327969 
L 285.423295 -43.327969 
L 285.012726 -43.327969 
L 284.602158 -43.327969 
L 284.191589 -43.327969 
L 283.781021 -43.327969 
L 283.370452 -43.327969 
L 282.959883 -43.327969 
L 282.549315 -43.327969 
L 282.138746 -43.327969 
L 281.728178 -43.327969 
L 281.317609 -43.327969 
L 280.907041 -43.327969 
L 280.496472 -43.327969 
L 280.085904 -43.327969 
L 279.675335 -43.327969 
L 279.264766 -43.327969 
L 278.854198 -43.327969 
L 278.443629 -43.327969 
L 278.033061 -43.327969 
L 277.622492 -43.327969 
L 277.211924 -43.327969 
L 276.801355 -43.327969 
L 276.390786 -43.327969 
L 275.980218 -43.327969 
L 275.569649 -43.327969 
L 275.159081 -43.327969 
L 274.748512 -43.327969 
L 274.337944 -43.327969 
L 273.927375 -43.327969 
L 273.516807 -43.327969 
L 273.106238 -43.327969 
L 272.695669 -43.327969 
L 272.285101 -43.327969 
L 271.874532 -43.327969 
L 271.463964 -43.327969 
L 271.053395 -43.327969 
L 270.642827 -43.327969 
L 270.232258 -43.327969 
L 269.821689 -43.327969 
L 269.411121 -43.327969 
L 269.000552 -43.327969 
L 268.589984 -43.327969 
L 268.179415 -43.327969 
L 267.768847 -43.327969 
L 267.358278 -43.327969 
L 266.94771 -43.327969 
L 266.537141 -43.327969 
L 266.126572 -43.327969 
L 265.716004 -43.327969 
L 265.305435 -43.327969 
L 264.894867 -43.327969 
L 264.484298 -43.327969 
L 264.07373 -43.327969 
L 263.663161 -43.327969 
L 263.252592 -43.327969 
L 262.842024 -43.327969 
L 262.431455 -43.327969 
L 262.020887 -43.327969 
L 261.610318 -43.327969 
L 261.19975 -43.327969 
L 260.789181 -43.327969 
L 260.378613 -43.327969 
L 259.968044 -43.327969 
L 259.557475 -43.327969 
L 259.146907 -43.327969 
L 258.736338 -43.327969 
L 258.32577 -43.327969 
L 257.915201 -43.327969 
L 257.504633 -43.327969 
L 257.094064 -43.327969 
L 256.683496 -43.327969 
L 256.272927 -43.327969 
L 255.862358 -43.327969 
L 255.45179 -43.327969 
L 255.041221 -43.327969 
L 254.630653 -43.327969 
L 254.220084 -43.327969 
L 253.809516 -43.327969 
L 253.398947 -43.327969 
L 252.988378 -43.327969 
L 252.57781 -43.327969 
L 252.167241 -43.327969 
L 251.756673 -43.327969 
L 251.346104 -43.327969 
L 250.935536 -43.327969 
L 250.524967 -43.327969 
L 250.114399 -43.327969 
L 249.70383 -43.327969 
L 249.293261 -43.327969 
L 248.882693 -43.327969 
L 248.472124 -43.327969 
L 248.061556 -43.327969 
L 247.650987 -43.327969 
L 247.240419 -43.327969 
L 246.82985 -43.327969 
L 246.419281 -43.327969 
L 246.008713 -43.327969 
L 245.598144 -43.327969 
L 245.187576 -43.327969 
L 244.777007 -43.327969 
L 244.366439 -43.327969 
L 243.95587 -43.327969 
L 243.545302 -43.327969 
L 243.134733 -43.327969 
L 242.724164 -43.327969 
L 242.313596 -43.327969 
L 241.903027 -43.327969 
L 241.492459 -43.327969 
L 241.08189 -43.327969 
L 240.671322 -43.327969 
L 240.260753 -43.327969 
L 239.850184 -43.327969 
L 239.439616 -43.327969 
L 239.029047 -43.327969 
L 238.618479 -43.327969 
L 238.20791 -43.327969 
L 237.797342 -43.327969 
L 237.386773 -43.327969 
L 236.976205 -43.327969 
L 236.565636 -43.327969 
L 236.155067 -43.327969 
L 235.744499 -43.327969 
L 235.33393 -43.327969 
L 234.923362 -43.327969 
L 234.512793 -43.327969 
L 234.102225 -43.327969 
L 233.691656 -43.327969 
L 233.281087 -43.327969 
L 232.870519 -43.327969 
L 232.45995 -43.327969 
L 232.049382 -43.327969 
L 231.638813 -43.327969 
L 231.228245 -43.327969 
L 230.817676 -43.327969 
L 230.407108 -43.327969 
L 229.996539 -43.327969 
L 229.58597 -43.327969 
L 229.175402 -43.327969 
L 228.764833 -43.327969 
L 228.354265 -43.327969 
L 227.943696 -43.327969 
L 227.533128 -43.327969 
L 227.122559 -43.327969 
L 226.71199 -43.327969 
L 226.301422 -43.327969 
L 225.890853 -43.327969 
L 225.480285 -43.327969 
L 225.069716 -43.327969 
L 224.659148 -43.327969 
L 224.248579 -43.327969 
L 223.838011 -43.327969 
L 223.427442 -43.327969 
L 223.016873 -43.327969 
L 222.606305 -43.327969 
L 222.195736 -43.327969 
L 221.785168 -43.327969 
L 221.374599 -43.327969 
L 220.964031 -43.327969 
L 220.553462 -43.327969 
L 220.142893 -43.327969 
L 219.732325 -43.327969 
L 219.321756 -43.327969 
L 218.911188 -43.327969 
L 218.500619 -43.327969 
L 218.090051 -43.327969 
L 217.679482 -43.327969 
L 217.268914 -43.327969 
L 216.858345 -43.327969 
L 216.447776 -43.327969 
L 216.037208 -43.327969 
L 215.626639 -43.327969 
L 215.216071 -43.327969 
L 214.805502 -43.327969 
L 214.394934 -43.327969 
L 213.984365 -43.327969 
L 213.573797 -43.327969 
L 213.163228 -43.327969 
L 212.752659 -43.327969 
L 212.342091 -43.327969 
L 211.931522 -43.327969 
L 211.520954 -43.327969 
L 211.110385 -43.327969 
L 210.699817 -43.327969 
L 210.289248 -43.327969 
L 209.878679 -43.327969 
L 209.468111 -43.327969 
L 209.057542 -43.327969 
L 208.646974 -43.327969 
L 208.236405 -43.327969 
L 207.825837 -43.327969 
L 207.415268 -43.327969 
L 207.0047 -43.327969 
L 206.594131 -43.327969 
L 206.183562 -43.327969 
L 205.772994 -43.327969 
L 205.362425 -43.327969 
L 204.951857 -43.327969 
L 204.541288 -43.327969 
L 204.13072 -43.327969 
L 203.720151 -43.327969 
L 203.309582 -43.327969 
L 202.899014 -43.327969 
L 202.488445 -43.327969 
L 202.077877 -43.327969 
L 201.667308 -43.327969 
L 201.25674 -43.327969 
L 200.846171 -43.327969 
L 200.435603 -43.327969 
L 200.025034 -43.327969 
L 199.614465 -43.327969 
L 199.203897 -43.327969 
L 198.793328 -43.327969 
L 198.38276 -43.327969 
L 197.972191 -43.327969 
L 197.561623 -43.327969 
L 197.151054 -43.327969 
L 196.740485 -43.327969 
L 196.329917 -43.327969 
L 195.919348 -43.327969 
L 195.50878 -43.327969 
L 195.098211 -43.327969 
L 194.687643 -43.327969 
L 194.277074 -43.327969 
L 193.866506 -43.327969 
L 193.455937 -43.327969 
L 193.045368 -43.327969 
L 192.6348 -43.327969 
L 192.224231 -43.327969 
L 191.813663 -43.327969 
L 191.403094 -43.327969 
L 190.992526 -43.327969 
L 190.581957 -43.327969 
L 190.171388 -43.327969 
L 189.76082 -43.327969 
L 189.350251 -43.327969 
L 188.939683 -43.327969 
L 188.529114 -43.327969 
L 188.118546 -43.327969 
L 187.707977 -43.327969 
L 187.297409 -43.327969 
L 186.88684 -43.327969 
L 186.476271 -43.327969 
L 186.065703 -43.327969 
L 185.655134 -43.327969 
L 185.244566 -43.327969 
L 184.833997 -43.327969 
L 184.423429 -43.327969 
L 184.01286 -43.327969 
L 183.602291 -43.327969 
L 183.191723 -43.327969 
L 182.781154 -43.327969 
L 182.370586 -43.327969 
L 181.960017 -43.327969 
L 181.549449 -43.327969 
L 181.13888 -43.327969 
L 180.728312 -43.327969 
L 180.317743 -43.327969 
L 179.907174 -43.327969 
L 179.496606 -43.327969 
L 179.086037 -43.327969 
L 178.675469 -43.327969 
z
" style="stroke: #c0392b; stroke-opacity: 0.2"/>
    </defs>
    <g clip-path="url(#pf4f17bca4c)">
     <use xlink:href="#m94f9a0387b" x="0" y="302.029937" style="fill: #c0392b; fill-opacity: 0.2; stroke: #c0392b; stroke-opacity: 0.2"/>
    </g>
   </g>
   <g id="patch_3">
    <path d="M 55.915469 258.701969 
L 55.915469 31.397969 
" style="fill: none; stroke: #2c3e50; stroke-width: 1.2; stroke-linejoin: miter; stroke-linecap: square"/>
   </g>
   <g id="patch_4">
    <path d="M 55.915469 258.701969 
L 424.195469 258.701969 
" style="fill: none; stroke: #2c3e50; stroke-width: 1.2; stroke-linejoin: miter; stroke-linecap: square"/>
   </g>
   <g id="LineCollection_1">
    <path d="M 213.457469 258.701969 
L 213.457469 127.399477 
" clip-path="url(#pf4f17bca4c)" style="fill: none; stroke-dasharray: 4.81,2.08; stroke-dashoffset: 0; stroke: #2980b9; stroke-opacity: 0.65; stroke-width: 1.3"/>
   </g>
   <g id="LineCollection_2">
    <path d="M 266.653469 258.701969 
L 266.653469 127.399477 
" clip-path="url(#pf4f17bca4c)" style="fill: none; stroke-dasharray: 4.81,2.08; stroke-dashoffset: 0; stroke: #2980b9; stroke-opacity: 0.65; stroke-width: 1.3"/>
   </g>
   <g id="LineCollection_3">
    <path d="M 178.675469 258.701969 
L 178.675469 201.804222 
" clip-path="url(#pf4f17bca4c)" style="fill: none; stroke-dasharray: 4.81,2.08; stroke-dashoffset: 0; stroke: #c0392b; stroke-opacity: 0.65; stroke-width: 1.3"/>
   </g>
   <g id="LineCollection_4">
    <path d="M 301.435469 258.701969 
L 301.435469 201.804222 
" clip-path="url(#pf4f17bca4c)" style="fill: none; stroke-dasharray: 4.81,2.08; stroke-dashoffset: 0; stroke: #c0392b; stroke-opacity: 0.65; stroke-width: 1.3"/>
   </g>
   <g id="text_19">
    <!-- $\mu$ -->
    <g style="fill: #34495e" transform="translate(236.535469 275.503058) scale(0.11 -0.11)">
     <defs>
      <path id="DejaVuSans-Oblique-3bc" d="M -84 -1331 
L 856 3500 
L 1434 3500 
L 1009 1322 
Q 997 1256 987 1175 
Q 978 1094 978 1013 
Q 978 722 1161 565 
Q 1344 409 1684 409 
Q 2147 409 2431 671 
Q 2716 934 2816 1459 
L 3213 3500 
L 3788 3500 
L 3266 809 
Q 3253 750 3248 706 
Q 3244 663 3244 628 
Q 3244 531 3283 486 
Q 3322 441 3406 441 
Q 3438 441 3492 456 
Q 3547 472 3647 513 
L 3559 50 
Q 3422 -19 3297 -55 
Q 3172 -91 3053 -91 
Q 2847 -91 2730 40 
Q 2613 172 2613 403 
Q 2438 153 2195 31 
Q 1953 -91 1625 -91 
Q 1334 -91 1117 43 
Q 900 178 831 397 
L 494 -1331 
L -84 -1331 
z
" transform="scale(0.015625)"/>
     </defs>
     <use xlink:href="#DejaVuSans-Oblique-3bc" transform="translate(0 0.3125)"/>
    </g>
   </g>
   <g id="text_20">
    <!-- Misma media, distinta varianza ($\pm\sigma$ sombreado) -->
    <g transform="translate(64.230469 21.397969) scale(0.13 -0.13)">
     <defs>
      <path id="DejaVuSans-Bold-4d" d="M 588 4666 
L 2119 4666 
L 3181 2169 
L 4250 4666 
L 5778 4666 
L 5778 0 
L 4641 0 
L 4641 3413 
L 3566 897 
L 2803 897 
L 1728 3413 
L 1728 0 
L 588 0 
L 588 4666 
z
" transform="scale(0.015625)"/>
      <path id="DejaVuSans-Bold-6d" d="M 3781 2919 
Q 3994 3244 4286 3414 
Q 4578 3584 4928 3584 
Q 5531 3584 5847 3212 
Q 6163 2841 6163 2131 
L 6163 0 
L 5038 0 
L 5038 1825 
Q 5041 1866 5042 1909 
Q 5044 1953 5044 2034 
Q 5044 2406 4934 2573 
Q 4825 2741 4581 2741 
Q 4263 2741 4089 2478 
Q 3916 2216 3909 1719 
L 3909 0 
L 2784 0 
L 2784 1825 
Q 2784 2406 2684 2573 
Q 2584 2741 2328 2741 
Q 2006 2741 1831 2477 
Q 1656 2213 1656 1722 
L 1656 0 
L 531 0 
L 531 3500 
L 1656 3500 
L 1656 2988 
Q 1863 3284 2130 3434 
Q 2397 3584 2719 3584 
Q 3081 3584 3359 3409 
Q 3638 3234 3781 2919 
z
" transform="scale(0.015625)"/>
      <path id="DejaVuSans-Bold-20" transform="scale(0.015625)"/>
      <path id="DejaVuSans-Bold-2c" d="M 653 1209 
L 1778 1209 
L 1778 256 
L 1006 -909 
L 341 -909 
L 653 256 
L 653 1209 
z
" transform="scale(0.015625)"/>
      <path id="DejaVuSans-Bold-74" d="M 1759 4494 
L 1759 3500 
L 2913 3500 
L 2913 2700 
L 1759 2700 
L 1759 1216 
Q 1759 972 1856 886 
Q 1953 800 2241 800 
L 2816 800 
L 2816 0 
L 1856 0 
Q 1194 0 917 276 
Q 641 553 641 1216 
L 641 2700 
L 84 2700 
L 84 3500 
L 641 3500 
L 641 4494 
L 1759 4494 
z
" transform="scale(0.015625)"/>
      <path id="DejaVuSans-Bold-76" d="M 97 3500 
L 1216 3500 
L 2088 1081 
L 2956 3500 
L 4078 3500 
L 2700 0 
L 1472 0 
L 97 3500 
z
" transform="scale(0.015625)"/>
      <path id="DejaVuSans-Bold-72" d="M 3138 2547 
Q 2991 2616 2845 2648 
Q 2700 2681 2553 2681 
Q 2122 2681 1889 2404 
Q 1656 2128 1656 1613 
L 1656 0 
L 538 0 
L 538 3500 
L 1656 3500 
L 1656 2925 
Q 1872 3269 2151 3426 
Q 2431 3584 2822 3584 
Q 2878 3584 2943 3579 
Q 3009 3575 3134 3559 
L 3138 2547 
z
" transform="scale(0.015625)"/>
      <path id="DejaVuSans-Bold-7a" d="M 366 3500 
L 3419 3500 
L 3419 2719 
L 1575 800 
L 3419 800 
L 3419 0 
L 288 0 
L 288 781 
L 2131 2700 
L 366 2700 
L 366 3500 
z
" transform="scale(0.015625)"/>
      <path id="DejaVuSans-Bold-28" d="M 2413 -844 
L 1484 -844 
Q 1006 -72 778 623 
Q 550 1319 550 2003 
Q 550 2688 779 3389 
Q 1009 4091 1484 4856 
L 2413 4856 
Q 2013 4116 1813 3408 
Q 1613 2700 1613 2009 
Q 1613 1319 1811 609 
Q 2009 -100 2413 -844 
z
" transform="scale(0.015625)"/>
      <path id="DejaVuSans-b1" d="M 2944 4013 
L 2944 2803 
L 4684 2803 
L 4684 2272 
L 2944 2272 
L 2944 1063 
L 2419 1063 
L 2419 2272 
L 678 2272 
L 678 2803 
L 2419 2803 
L 2419 4013 
L 2944 4013 
z
M 678 531 
L 4684 531 
L 4684 0 
L 678 0 
L 678 531 
z
" transform="scale(0.015625)"/>
      <path id="DejaVuSans-Oblique-3c3" d="M 2219 3044 
Q 1744 3044 1422 2700 
Q 1081 2341 969 1747 
Q 844 1119 1044 756 
Q 1241 397 1706 397 
Q 2166 397 2503 759 
Q 2844 1122 2966 1747 
Q 3075 2319 2881 2700 
Q 2700 3044 2219 3044 
z
M 2309 3503 
L 4219 3500 
L 4106 2925 
L 3463 2925 
Q 3706 2438 3575 1747 
Q 3406 888 2884 400 
Q 2359 -91 1609 -91 
Q 856 -91 525 400 
Q 194 888 363 1747 
Q 528 2609 1050 3097 
Q 1484 3503 2309 3503 
z
" transform="scale(0.015625)"/>
      <path id="DejaVuSans-Bold-6f" d="M 2203 2784 
Q 1831 2784 1636 2517 
Q 1441 2250 1441 1747 
Q 1441 1244 1636 976 
Q 1831 709 2203 709 
Q 2569 709 2762 976 
Q 2956 1244 2956 1747 
Q 2956 2250 2762 2517 
Q 2569 2784 2203 2784 
z
M 2203 3584 
Q 3106 3584 3614 3096 
Q 4122 2609 4122 1747 
Q 4122 884 3614 396 
Q 3106 -91 2203 -91 
Q 1297 -91 786 396 
Q 275 884 275 1747 
Q 275 2609 786 3096 
Q 1297 3584 2203 3584 
z
" transform="scale(0.015625)"/>
      <path id="DejaVuSans-Bold-62" d="M 2400 722 
Q 2759 722 2948 984 
Q 3138 1247 3138 1747 
Q 3138 2247 2948 2509 
Q 2759 2772 2400 2772 
Q 2041 2772 1848 2508 
Q 1656 2244 1656 1747 
Q 1656 1250 1848 986 
Q 2041 722 2400 722 
z
M 1656 2988 
Q 1888 3294 2169 3439 
Q 2450 3584 2816 3584 
Q 3463 3584 3878 3070 
Q 4294 2556 4294 1747 
Q 4294 938 3878 423 
Q 3463 -91 2816 -91 
Q 2450 -91 2169 54 
Q 1888 200 1656 506 
L 1656 0 
L 538 0 
L 538 4863 
L 1656 4863 
L 1656 2988 
z
" transform="scale(0.015625)"/>
      <path id="DejaVuSans-Bold-29" d="M 513 -844 
Q 913 -100 1113 609 
Q 1313 1319 1313 2009 
Q 1313 2700 1113 3408 
Q 913 4116 513 4856 
L 1441 4856 
Q 1916 4091 2145 3389 
Q 2375 2688 2375 2003 
Q 2375 1319 2147 623 
Q 1919 -72 1441 -844 
L 513 -844 
z
" transform="scale(0.015625)"/>
     </defs>
     <use xlink:href="#DejaVuSans-Bold-4d" transform="translate(0 0.015625)"/>
     <use xlink:href="#DejaVuSans-Bold-69" transform="translate(99.511719 0.015625)"/>
     <use xlink:href="#DejaVuSans-Bold-73" transform="translate(133.789062 0.015625)"/>
     <use xlink:href="#DejaVuSans-Bold-6d" transform="translate(193.310547 0.015625)"/>
     <use xlink:href="#DejaVuSans-Bold-61" transform="translate(297.509766 0.015625)"/>
     <use xlink:href="#DejaVuSans-Bold-20" transform="translate(364.990234 0.015625)"/>
     <use xlink:href="#DejaVuSans-Bold-6d" transform="translate(399.804688 0.015625)"/>
     <use xlink:href="#DejaVuSans-Bold-65" transform="translate(504.003906 0.015625)"/>
     <use xlink:href="#DejaVuSans-Bold-64" transform="translate(571.826172 0.015625)"/>
     <use xlink:href="#DejaVuSans-Bold-69" transform="translate(643.408203 0.015625)"/>
     <use xlink:href="#DejaVuSans-Bold-61" transform="translate(677.685547 0.015625)"/>
     <use xlink:href="#DejaVuSans-Bold-2c" transform="translate(745.166016 0.015625)"/>
     <use xlink:href="#DejaVuSans-Bold-20" transform="translate(783.154297 0.015625)"/>
     <use xlink:href="#DejaVuSans-Bold-64" transform="translate(817.96875 0.015625)"/>
     <use xlink:href="#DejaVuSans-Bold-69" transform="translate(889.550781 0.015625)"/>
     <use xlink:href="#DejaVuSans-Bold-73" transform="translate(923.828125 0.015625)"/>
     <use xlink:href="#DejaVuSans-Bold-74" transform="translate(983.349609 0.015625)"/>
     <use xlink:href="#DejaVuSans-Bold-69" transform="translate(1031.152344 0.015625)"/>
     <use xlink:href="#DejaVuSans-Bold-6e" transform="translate(1065.429688 0.015625)"/>
     <use xlink:href="#DejaVuSans-Bold-74" transform="translate(1136.621094 0.015625)"/>
     <use xlink:href="#DejaVuSans-Bold-61" transform="translate(1184.423828 0.015625)"/>
     <use xlink:href="#DejaVuSans-Bold-20" transform="translate(1251.904297 0.015625)"/>
     <use xlink:href="#DejaVuSans-Bold-76" transform="translate(1286.71875 0.015625)"/>
     <use xlink:href="#DejaVuSans-Bold-61" transform="translate(1351.904297 0.015625)"/>
     <use xlink:href="#DejaVuSans-Bold-72" transform="translate(1419.384766 0.015625)"/>
     <use xlink:href="#DejaVuSans-Bold-69" transform="translate(1468.701172 0.015625)"/>
     <use xlink:href="#DejaVuSans-Bold-61" transform="translate(1502.978516 0.015625)"/>
     <use xlink:href="#DejaVuSans-Bold-6e" transform="translate(1570.458984 0.015625)"/>
     <use xlink:href="#DejaVuSans-Bold-7a" transform="translate(1641.650391 0.015625)"/>
     <use xlink:href="#DejaVuSans-Bold-61" transform="translate(1699.853516 0.015625)"/>
     <use xlink:href="#DejaVuSans-Bold-20" transform="translate(1767.333984 0.015625)"/>
     <use xlink:href="#DejaVuSans-Bold-28" transform="translate(1802.148438 0.015625)"/>
     <use xlink:href="#DejaVuSans-b1" transform="translate(1847.851562 0.015625)"/>
     <use xlink:href="#DejaVuSans-Oblique-3c3" transform="translate(1931.640625 0.015625)"/>
     <use xlink:href="#DejaVuSans-Bold-20" transform="translate(1995.019531 0.015625)"/>
     <use xlink:href="#DejaVuSans-Bold-73" transform="translate(2029.833984 0.015625)"/>
     <use xlink:href="#DejaVuSans-Bold-6f" transform="translate(2089.355469 0.015625)"/>
     <use xlink:href="#DejaVuSans-Bold-6d" transform="translate(2158.056641 0.015625)"/>
     <use xlink:href="#DejaVuSans-Bold-62" transform="translate(2262.255859 0.015625)"/>
     <use xlink:href="#DejaVuSans-Bold-72" transform="translate(2333.837891 0.015625)"/>
     <use xlink:href="#DejaVuSans-Bold-65" transform="translate(2383.154297 0.015625)"/>
     <use xlink:href="#DejaVuSans-Bold-61" transform="translate(2450.976562 0.015625)"/>
     <use xlink:href="#DejaVuSans-Bold-64" transform="translate(2518.457031 0.015625)"/>
     <use xlink:href="#DejaVuSans-Bold-6f" transform="translate(2590.039062 0.015625)"/>
     <use xlink:href="#DejaVuSans-Bold-29" transform="translate(2658.740234 0.015625)"/>
    </g>
   </g>
   <g id="line2d_34">
    <path d="M 55.915469 258.701969 
L 136.11662 258.597391 
L 144.413291 258.364922 
L 149.944405 258.005262 
L 154.09274 257.534503 
L 157.78015 256.892048 
L 161.006633 256.087244 
L 163.77219 255.159696 
L 166.07682 254.177418 
L 168.381451 252.965978 
L 170.686082 251.484567 
L 172.990713 249.688484 
L 174.834417 247.992827 
L 176.678122 246.039166 
L 178.521827 243.800871 
L 180.365531 241.250983 
L 182.209236 238.36272 
L 184.052941 235.110058 
L 185.896645 231.468399 
L 187.74035 227.415303 
L 190.044981 221.741013 
L 192.349611 215.364198 
L 194.654242 208.267273 
L 196.958873 200.44717 
L 199.263504 191.917809 
L 202.029061 180.794396 
L 205.255544 166.719991 
L 208.942953 149.481555 
L 214.934993 120.1132 
L 219.544255 97.901741 
L 222.770738 83.42792 
L 225.075369 73.970291 
L 227.379999 65.458603 
L 229.223704 59.447724 
L 231.067409 54.234685 
L 232.450187 50.8919 
L 233.832966 48.064536 
L 235.215744 45.774974 
L 236.598523 44.041485 
L 237.520375 43.201815 
L 238.442227 42.618583 
L 239.36408 42.293883 
L 240.285932 42.228884 
L 241.207784 42.423821 
L 242.129636 42.877992 
L 243.051489 43.589762 
L 243.973341 44.556577 
L 244.895193 45.774974 
L 246.277972 48.064536 
L 247.66075 50.8919 
L 249.043529 54.234685 
L 250.426307 58.066701 
L 252.270012 63.885363 
L 254.113717 70.442024 
L 256.418347 79.543069 
L 259.183904 91.55018 
L 262.410387 106.637318 
L 268.402427 136.021077 
L 273.472615 160.3787 
L 276.699098 174.896552 
L 279.464655 186.472658 
L 282.230212 197.119134 
L 284.534843 205.22564 
L 286.839474 212.612366 
L 289.144105 219.27587 
L 291.448735 225.228239 
L 293.753366 230.494516 
L 296.057997 235.110058 
L 297.901702 238.36272 
L 299.745406 241.250983 
L 301.589111 243.800871 
L 303.432815 246.039166 
L 305.27652 247.992827 
L 307.581151 250.075139 
L 309.885782 251.80454 
L 312.190412 253.228499 
L 314.495043 254.390973 
L 316.799674 255.331952 
L 319.565231 256.218873 
L 322.791714 256.986771 
L 326.479123 257.598257 
L 330.627459 258.045087 
L 335.697646 258.364922 
L 343.072465 258.582295 
L 355.517471 258.684453 
L 402.071013 258.701967 
L 424.195469 258.701969 
L 424.195469 258.701969 
" clip-path="url(#pf4f17bca4c)" style="fill: none; stroke: #2980b9; stroke-width: 2.6; stroke-linecap: square"/>
   </g>
   <g id="line2d_35">
    <path d="M 55.915469 257.65985 
L 65.133992 257.08502 
L 73.430663 256.346802 
L 80.805481 255.462017 
L 87.258447 254.46946 
L 93.250488 253.330795 
L 98.781601 252.06595 
L 104.312715 250.569555 
L 109.382903 248.972839 
L 114.453091 247.141774 
L 119.523279 245.059498 
L 124.13254 242.936368 
L 128.741802 240.585272 
L 133.351063 238.000629 
L 137.960325 235.18026 
L 143.030513 231.807826 
L 148.1007 228.16097 
L 153.631814 223.888316 
L 159.623854 218.948488 
L 166.07682 213.328206 
L 174.373491 205.785639 
L 191.888685 189.753842 
L 197.880725 184.618203 
L 202.950913 180.558834 
L 207.560175 177.160042 
L 211.70851 174.382439 
L 215.395919 172.166591 
L 219.083329 170.21245 
L 222.309812 168.73316 
L 225.536295 167.481546 
L 228.762778 166.46773 
L 231.989261 165.69998 
L 235.215744 165.1846 
L 238.442227 164.925839 
L 241.66871 164.925839 
L 244.895193 165.1846 
L 248.121677 165.69998 
L 251.34816 166.46773 
L 254.574643 167.481546 
L 257.801126 168.73316 
L 261.027609 170.21245 
L 264.715018 172.166591 
L 268.402427 174.382439 
L 272.550763 177.160042 
L 276.699098 180.205513 
L 281.30836 183.858176 
L 286.839474 188.541908 
L 293.753366 194.721356 
L 320.026157 218.556507 
L 326.018197 223.51926 
L 331.549311 227.816316 
L 336.619499 231.48745 
L 341.689687 234.885289 
L 346.759874 238.000629 
L 351.369136 240.585272 
L 355.978397 242.936368 
L 360.587659 245.059498 
L 365.657847 247.141774 
L 370.728034 248.972839 
L 375.798222 250.569555 
L 381.329336 252.06595 
L 386.86045 253.330795 
L 392.85249 254.46946 
L 399.305456 255.462017 
L 406.219349 256.298366 
L 414.055093 257.014502 
L 422.81269 257.587267 
L 424.195469 257.65985 
L 424.195469 257.65985 
" clip-path="url(#pf4f17bca4c)" style="fill: none; stroke: #c0392b; stroke-width: 2.6; stroke-linecap: square"/>
   </g>
   <g id="legend_1">
    <g id="patch_5">
     <path d="M 344.395469 66.907187 
L 417.545469 66.907187 
Q 419.445469 66.907187 419.445469 65.007187 
L 419.445469 38.047969 
Q 419.445469 36.147969 417.545469 36.147969 
L 344.395469 36.147969 
Q 342.495469 36.147969 342.495469 38.047969 
L 342.495469 65.007187 
Q 342.495469 66.907187 344.395469 66.907187 
z
" style="fill: #ffffff; opacity: 0.92; stroke: #cccccc; stroke-linejoin: miter"/>
    </g>
    <g id="line2d_36">
     <path d="M 346.295469 43.841484 
L 355.795469 43.841484 
L 365.295469 43.841484 
" style="fill: none; stroke: #2980b9; stroke-width: 2.6; stroke-linecap: square"/>
    </g>
    <g id="text_21">
     <!-- $\sigma$ chico -->
     <g transform="translate(372.895469 47.166484) scale(0.095 -0.095)">
      <defs>
       <path id="DejaVuSans-20" transform="scale(0.015625)"/>
       <path id="DejaVuSans-63" d="M 3122 3366 
L 3122 2828 
Q 2878 2963 2633 3030 
Q 2388 3097 2138 3097 
Q 1578 3097 1268 2742 
Q 959 2388 959 1747 
Q 959 1106 1268 751 
Q 1578 397 2138 397 
Q 2388 397 2633 464 
Q 2878 531 3122 666 
L 3122 134 
Q 2881 22 2623 -34 
Q 2366 -91 2075 -91 
Q 1284 -91 818 406 
Q 353 903 353 1747 
Q 353 2603 823 3093 
Q 1294 3584 2113 3584 
Q 2378 3584 2631 3529 
Q 2884 3475 3122 3366 
z
" transform="scale(0.015625)"/>
       <path id="DejaVuSans-68" d="M 3513 2113 
L 3513 0 
L 2938 0 
L 2938 2094 
Q 2938 2591 2744 2837 
Q 2550 3084 2163 3084 
Q 1697 3084 1428 2787 
Q 1159 2491 1159 1978 
L 1159 0 
L 581 0 
L 581 4863 
L 1159 4863 
L 1159 2956 
Q 1366 3272 1645 3428 
Q 1925 3584 2291 3584 
Q 2894 3584 3203 3211 
Q 3513 2838 3513 2113 
z
" transform="scale(0.015625)"/>
       <path id="DejaVuSans-69" d="M 603 3500 
L 1178 3500 
L 1178 0 
L 603 0 
L 603 3500 
z
M 603 4863 
L 1178 4863 
L 1178 4134 
L 603 4134 
L 603 4863 
z
" transform="scale(0.015625)"/>
       <path id="DejaVuSans-6f" d="M 1959 3097 
Q 1497 3097 1228 2736 
Q 959 2375 959 1747 
Q 959 1119 1226 758 
Q 1494 397 1959 397 
Q 2419 397 2687 759 
Q 2956 1122 2956 1747 
Q 2956 2369 2687 2733 
Q 2419 3097 1959 3097 
z
M 1959 3584 
Q 2709 3584 3137 3096 
Q 3566 2609 3566 1747 
Q 3566 888 3137 398 
Q 2709 -91 1959 -91 
Q 1206 -91 779 398 
Q 353 888 353 1747 
Q 353 2609 779 3096 
Q 1206 3584 1959 3584 
z
" transform="scale(0.015625)"/>
      </defs>
      <use xlink:href="#DejaVuSans-Oblique-3c3" transform="translate(0 0.015625)"/>
      <use xlink:href="#DejaVuSans-20" transform="translate(63.378906 0.015625)"/>
      <use xlink:href="#DejaVuSans-63" transform="translate(95.166016 0.015625)"/>
      <use xlink:href="#DejaVuSans-68" transform="translate(150.146484 0.015625)"/>
      <use xlink:href="#DejaVuSans-69" transform="translate(213.525391 0.015625)"/>
      <use xlink:href="#DejaVuSans-63" transform="translate(241.308594 0.015625)"/>
      <use xlink:href="#DejaVuSans-6f" transform="translate(296.289062 0.015625)"/>
     </g>
    </g>
    <g id="line2d_37">
     <path d="M 346.295469 57.787187 
L 355.795469 57.787187 
L 365.295469 57.787187 
" style="fill: none; stroke: #c0392b; stroke-width: 2.6; stroke-linecap: square"/>
    </g>
    <g id="text_22">
     <!-- $\sigma$ grande -->
     <g transform="translate(372.895469 61.112187) scale(0.095 -0.095)">
      <defs>
       <path id="DejaVuSans-67" d="M 2906 1791 
Q 2906 2416 2648 2759 
Q 2391 3103 1925 3103 
Q 1463 3103 1205 2759 
Q 947 2416 947 1791 
Q 947 1169 1205 825 
Q 1463 481 1925 481 
Q 2391 481 2648 825 
Q 2906 1169 2906 1791 
z
M 3481 434 
Q 3481 -459 3084 -895 
Q 2688 -1331 1869 -1331 
Q 1566 -1331 1297 -1286 
Q 1028 -1241 775 -1147 
L 775 -588 
Q 1028 -725 1275 -790 
Q 1522 -856 1778 -856 
Q 2344 -856 2625 -561 
Q 2906 -266 2906 331 
L 2906 616 
Q 2728 306 2450 153 
Q 2172 0 1784 0 
Q 1141 0 747 490 
Q 353 981 353 1791 
Q 353 2603 747 3093 
Q 1141 3584 1784 3584 
Q 2172 3584 2450 3431 
Q 2728 3278 2906 2969 
L 2906 3500 
L 3481 3500 
L 3481 434 
z
" transform="scale(0.015625)"/>
       <path id="DejaVuSans-72" d="M 2631 2963 
Q 2534 3019 2420 3045 
Q 2306 3072 2169 3072 
Q 1681 3072 1420 2755 
Q 1159 2438 1159 1844 
L 1159 0 
L 581 0 
L 581 3500 
L 1159 3500 
L 1159 2956 
Q 1341 3275 1631 3429 
Q 1922 3584 2338 3584 
Q 2397 3584 2469 3576 
Q 2541 3569 2628 3553 
L 2631 2963 
z
" transform="scale(0.015625)"/>
       <path id="DejaVuSans-61" d="M 2194 1759 
Q 1497 1759 1228 1600 
Q 959 1441 959 1056 
Q 959 750 1161 570 
Q 1363 391 1709 391 
Q 2188 391 2477 730 
Q 2766 1069 2766 1631 
L 2766 1759 
L 2194 1759 
z
M 3341 1997 
L 3341 0 
L 2766 0 
L 2766 531 
Q 2569 213 2275 61 
Q 1981 -91 1556 -91 
Q 1019 -91 701 211 
Q 384 513 384 1019 
Q 384 1609 779 1909 
Q 1175 2209 1959 2209 
L 2766 2209 
L 2766 2266 
Q 2766 2663 2505 2880 
Q 2244 3097 1772 3097 
Q 1472 3097 1187 3025 
Q 903 2953 641 2809 
L 641 3341 
Q 956 3463 1253 3523 
Q 1550 3584 1831 3584 
Q 2591 3584 2966 3190 
Q 3341 2797 3341 1997 
z
" transform="scale(0.015625)"/>
       <path id="DejaVuSans-6e" d="M 3513 2113 
L 3513 0 
L 2938 0 
L 2938 2094 
Q 2938 2591 2744 2837 
Q 2550 3084 2163 3084 
Q 1697 3084 1428 2787 
Q 1159 2491 1159 1978 
L 1159 0 
L 581 0 
L 581 3500 
L 1159 3500 
L 1159 2956 
Q 1366 3272 1645 3428 
Q 1925 3584 2291 3584 
Q 2894 3584 3203 3211 
Q 3513 2838 3513 2113 
z
" transform="scale(0.015625)"/>
       <path id="DejaVuSans-64" d="M 2906 2969 
L 2906 4863 
L 3481 4863 
L 3481 0 
L 2906 0 
L 2906 525 
Q 2725 213 2448 61 
Q 2172 -91 1784 -91 
Q 1150 -91 751 415 
Q 353 922 353 1747 
Q 353 2572 751 3078 
Q 1150 3584 1784 3584 
Q 2172 3584 2448 3432 
Q 2725 3281 2906 2969 
z
M 947 1747 
Q 947 1113 1208 752 
Q 1469 391 1925 391 
Q 2381 391 2643 752 
Q 2906 1113 2906 1747 
Q 2906 2381 2643 2742 
Q 2381 3103 1925 3103 
Q 1469 3103 1208 2742 
Q 947 2381 947 1747 
z
" transform="scale(0.015625)"/>
       <path id="DejaVuSans-65" d="M 3597 1894 
L 3597 1613 
L 953 1613 
Q 991 1019 1311 708 
Q 1631 397 2203 397 
Q 2534 397 2845 478 
Q 3156 559 3463 722 
L 3463 178 
Q 3153 47 2828 -22 
Q 2503 -91 2169 -91 
Q 1331 -91 842 396 
Q 353 884 353 1716 
Q 353 2575 817 3079 
Q 1281 3584 2069 3584 
Q 2775 3584 3186 3129 
Q 3597 2675 3597 1894 
z
M 3022 2063 
Q 3016 2534 2758 2815 
Q 2500 3097 2075 3097 
Q 1594 3097 1305 2825 
Q 1016 2553 972 2059 
L 3022 2063 
z
" transform="scale(0.015625)"/>
      </defs>
      <use xlink:href="#DejaVuSans-Oblique-3c3" transform="translate(0 0.015625)"/>
      <use xlink:href="#DejaVuSans-20" transform="translate(63.378906 0.015625)"/>
      <use xlink:href="#DejaVuSans-67" transform="translate(95.166016 0.015625)"/>
      <use xlink:href="#DejaVuSans-72" transform="translate(158.642578 0.015625)"/>
      <use xlink:href="#DejaVuSans-61" transform="translate(199.755859 0.015625)"/>
      <use xlink:href="#DejaVuSans-6e" transform="translate(261.035156 0.015625)"/>
      <use xlink:href="#DejaVuSans-64" transform="translate(324.414062 0.015625)"/>
      <use xlink:href="#DejaVuSans-65" transform="translate(387.890625 0.015625)"/>
     </g>
    </g>
   </g>
  </g>
 </g>
 <defs>
  <clipPath id="pf4f17bca4c">
   <rect x="55.915469" y="31.397969" width="368.28" height="227.304"/>
  </clipPath>
 </defs>
</svg>
