<?xml version="1.0" encoding="utf-8" standalone="no"?>
<!DOCTYPE svg PUBLIC "-//W3C//DTD SVG 1.1//EN"
  "http://www.w3.org/Graphics/SVG/1.1/DTD/svg11.dtd">
<svg xmlns:xlink="http://www.w3.org/1999/xlink" width="443.667031pt" height="302.029937pt" viewBox="0 0 443.667031 302.029937" xmlns="http://www.w3.org/2000/svg" version="1.1">
 <metadata>
  <rdf:RDF xmlns:dc="http://purl.org/dc/elements/1.1/" xmlns:cc="http://creativecommons.org/ns#" xmlns:rdf="http://www.w3.org/1999/02/22-rdf-syntax-ns#">
   <cc:Work>
    <dc:type rdf:resource="http://purl.org/dc/dcmitype/StillImage"/>
    <dc:date>2026-06-30T11:51:44.109030</dc:date>
    <dc:format>image/svg+xml</dc:format>
    <dc:creator>
     <cc:Agent>
      <dc:title>Matplotlib v3.9.2, https://matplotlib.org/</dc:title>
     </cc:Agent>
    </dc:creator>
   </cc:Work>
  </rdf:RDF>
 </metadata>
 <defs>
  <style type="text/css">*{stroke-linejoin: round; stroke-linecap: butt}</style>
 </defs>
 <g id="figure_1">
  <g id="patch_1">
   <path d="M 0 302.029937 
L 443.667031 302.029937 
L 443.667031 0 
L 0 0 
z
" style="fill: #ffffff"/>
  </g>
  <g id="axes_1">
   <g id="patch_2">
    <path d="M 55.915469 258.701969 
L 424.195469 258.701969 
L 424.195469 31.397969 
L 55.915469 31.397969 
z
" style="fill: #ffffff"/>
   </g>
   <g id="matplotlib.axis_1">
    <g id="xtick_1">
     <g id="line2d_1">
      <path d="M 55.915469 258.701969 
L 55.915469 31.397969 
" clip-path="url(#pd13c05e12e)" style="fill: none; stroke-dasharray: 0.8,1.28; stroke-dashoffset: 0; stroke: #b0b0b0; stroke-opacity: 0.3; stroke-width: 0.8"/>
     </g>
     <g id="line2d_2">
      <defs>
       <path id="m2ab215d653" d="M 0 0 
L 0 3.5 
" style="stroke: #2c3e50; stroke-width: 0.8"/>
      </defs>
      <g>
       <use xlink:href="#m2ab215d653" x="55.915469" y="258.701969" style="fill: #2c3e50; stroke: #2c3e50; stroke-width: 0.8"/>
      </g>
     </g>
     <g id="text_1">
      <!-- 0.0 -->
      <g style="fill: #2c3e50" transform="translate(47.963906 273.300406) scale(0.1 -0.1)">
       <defs>
        <path id="DejaVuSans-30" d="M 2034 4250 
Q 1547 4250 1301 3770 
Q 1056 3291 1056 2328 
Q 1056 1369 1301 889 
Q 1547 409 2034 409 
Q 2525 409 2770 889 
Q 3016 1369 3016 2328 
Q 3016 3291 2770 3770 
Q 2525 4250 2034 4250 
z
M 2034 4750 
Q 2819 4750 3233 4129 
Q 3647 3509 3647 2328 
Q 3647 1150 3233 529 
Q 2819 -91 2034 -91 
Q 1250 -91 836 529 
Q 422 1150 422 2328 
Q 422 3509 836 4129 
Q 1250 4750 2034 4750 
z
" transform="scale(0.015625)"/>
        <path id="DejaVuSans-2e" d="M 684 794 
L 1344 794 
L 1344 0 
L 684 0 
L 684 794 
z
" transform="scale(0.015625)"/>
       </defs>
       <use xlink:href="#DejaVuSans-30"/>
       <use xlink:href="#DejaVuSans-2e" x="63.623047"/>
       <use xlink:href="#DejaVuSans-30" x="95.410156"/>
      </g>
     </g>
    </g>
    <g id="xtick_2">
     <g id="line2d_3">
      <path d="M 117.295469 258.701969 
L 117.295469 31.397969 
" clip-path="url(#pd13c05e12e)" style="fill: none; stroke-dasharray: 0.8,1.28; stroke-dashoffset: 0; stroke: #b0b0b0; stroke-opacity: 0.3; stroke-width: 0.8"/>
     </g>
     <g id="line2d_4">
      <g>
       <use xlink:href="#m2ab215d653" x="117.295469" y="258.701969" style="fill: #2c3e50; stroke: #2c3e50; stroke-width: 0.8"/>
      </g>
     </g>
     <g id="text_2">
      <!-- 0.5 -->
      <g style="fill: #2c3e50" transform="translate(109.343906 273.300406) scale(0.1 -0.1)">
       <defs>
        <path id="DejaVuSans-35" d="M 691 4666 
L 3169 4666 
L 3169 4134 
L 1269 4134 
L 1269 2991 
Q 1406 3038 1543 3061 
Q 1681 3084 1819 3084 
Q 2600 3084 3056 2656 
Q 3513 2228 3513 1497 
Q 3513 744 3044 326 
Q 2575 -91 1722 -91 
Q 1428 -91 1123 -41 
Q 819 9 494 109 
L 494 744 
Q 775 591 1075 516 
Q 1375 441 1709 441 
Q 2250 441 2565 725 
Q 2881 1009 2881 1497 
Q 2881 1984 2565 2268 
Q 2250 2553 1709 2553 
Q 1456 2553 1204 2497 
Q 953 2441 691 2322 
L 691 4666 
z
" transform="scale(0.015625)"/>
       </defs>
       <use xlink:href="#DejaVuSans-30"/>
       <use xlink:href="#DejaVuSans-2e" x="63.623047"/>
       <use xlink:href="#DejaVuSans-35" x="95.410156"/>
      </g>
     </g>
    </g>
    <g id="xtick_3">
     <g id="line2d_5">
      <path d="M 178.675469 258.701969 
L 178.675469 31.397969 
" clip-path="url(#pd13c05e12e)" style="fill: none; stroke-dasharray: 0.8,1.28; stroke-dashoffset: 0; stroke: #b0b0b0; stroke-opacity: 0.3; stroke-width: 0.8"/>
     </g>
     <g id="line2d_6">
      <g>
       <use xlink:href="#m2ab215d653" x="178.675469" y="258.701969" style="fill: #2c3e50; stroke: #2c3e50; stroke-width: 0.8"/>
      </g>
     </g>
     <g id="text_3">
      <!-- 1.0 -->
      <g style="fill: #2c3e50" transform="translate(170.723906 273.300406) scale(0.1 -0.1)">
       <defs>
        <path id="DejaVuSans-31" d="M 794 531 
L 1825 531 
L 1825 4091 
L 703 3866 
L 703 4441 
L 1819 4666 
L 2450 4666 
L 2450 531 
L 3481 531 
L 3481 0 
L 794 0 
L 794 531 
z
" transform="scale(0.015625)"/>
       </defs>
       <use xlink:href="#DejaVuSans-31"/>
       <use xlink:href="#DejaVuSans-2e" x="63.623047"/>
       <use xlink:href="#DejaVuSans-30" x="95.410156"/>
      </g>
     </g>
    </g>
    <g id="xtick_4">
     <g id="line2d_7">
      <path d="M 240.055469 258.701969 
L 240.055469 31.397969 
" clip-path="url(#pd13c05e12e)" style="fill: none; stroke-dasharray: 0.8,1.28; stroke-dashoffset: 0; stroke: #b0b0b0; stroke-opacity: 0.3; stroke-width: 0.8"/>
     </g>
     <g id="line2d_8">
      <g>
       <use xlink:href="#m2ab215d653" x="240.055469" y="258.701969" style="fill: #2c3e50; stroke: #2c3e50; stroke-width: 0.8"/>
      </g>
     </g>
     <g id="text_4">
      <!-- 1.5 -->
      <g style="fill: #2c3e50" transform="translate(232.103906 273.300406) scale(0.1 -0.1)">
       <use xlink:href="#DejaVuSans-31"/>
       <use xlink:href="#DejaVuSans-2e" x="63.623047"/>
       <use xlink:href="#DejaVuSans-35" x="95.410156"/>
      </g>
     </g>
    </g>
    <g id="xtick_5">
     <g id="line2d_9">
      <path d="M 301.435469 258.701969 
L 301.435469 31.397969 
" clip-path="url(#pd13c05e12e)" style="fill: none; stroke-dasharray: 0.8,1.28; stroke-dashoffset: 0; stroke: #b0b0b0; stroke-opacity: 0.3; stroke-width: 0.8"/>
     </g>
     <g id="line2d_10">
      <g>
       <use xlink:href="#m2ab215d653" x="301.435469" y="258.701969" style="fill: #2c3e50; stroke: #2c3e50; stroke-width: 0.8"/>
      </g>
     </g>
     <g id="text_5">
      <!-- 2.0 -->
      <g style="fill: #2c3e50" transform="translate(293.483906 273.300406) scale(0.1 -0.1)">
       <defs>
        <path id="DejaVuSans-32" d="M 1228 531 
L 3431 531 
L 3431 0 
L 469 0 
L 469 531 
Q 828 903 1448 1529 
Q 2069 2156 2228 2338 
Q 2531 2678 2651 2914 
Q 2772 3150 2772 3378 
Q 2772 3750 2511 3984 
Q 2250 4219 1831 4219 
Q 1534 4219 1204 4116 
Q 875 4013 500 3803 
L 500 4441 
Q 881 4594 1212 4672 
Q 1544 4750 1819 4750 
Q 2544 4750 2975 4387 
Q 3406 4025 3406 3419 
Q 3406 3131 3298 2873 
Q 3191 2616 2906 2266 
Q 2828 2175 2409 1742 
Q 1991 1309 1228 531 
z
" transform="scale(0.015625)"/>
       </defs>
       <use xlink:href="#DejaVuSans-32"/>
       <use xlink:href="#DejaVuSans-2e" x="63.623047"/>
       <use xlink:href="#DejaVuSans-30" x="95.410156"/>
      </g>
     </g>
    </g>
    <g id="xtick_6">
     <g id="line2d_11">
      <path d="M 362.815469 258.701969 
L 362.815469 31.397969 
" clip-path="url(#pd13c05e12e)" style="fill: none; stroke-dasharray: 0.8,1.28; stroke-dashoffset: 0; stroke: #b0b0b0; stroke-opacity: 0.3; stroke-width: 0.8"/>
     </g>
     <g id="line2d_12">
      <g>
       <use xlink:href="#m2ab215d653" x="362.815469" y="258.701969" style="fill: #2c3e50; stroke: #2c3e50; stroke-width: 0.8"/>
      </g>
     </g>
     <g id="text_6">
      <!-- 2.5 -->
      <g style="fill: #2c3e50" transform="translate(354.863906 273.300406) scale(0.1 -0.1)">
       <use xlink:href="#DejaVuSans-32"/>
       <use xlink:href="#DejaVuSans-2e" x="63.623047"/>
       <use xlink:href="#DejaVuSans-35" x="95.410156"/>
      </g>
     </g>
    </g>
    <g id="xtick_7">
     <g id="line2d_13">
      <path d="M 424.195469 258.701969 
L 424.195469 31.397969 
" clip-path="url(#pd13c05e12e)" style="fill: none; stroke-dasharray: 0.8,1.28; stroke-dashoffset: 0; stroke: #b0b0b0; stroke-opacity: 0.3; stroke-width: 0.8"/>
     </g>
     <g id="line2d_14">
      <g>
       <use xlink:href="#m2ab215d653" x="424.195469" y="258.701969" style="fill: #2c3e50; stroke: #2c3e50; stroke-width: 0.8"/>
      </g>
     </g>
     <g id="text_7">
      <!-- 3.0 -->
      <g style="fill: #2c3e50" transform="translate(416.243906 273.300406) scale(0.1 -0.1)">
       <defs>
        <path id="DejaVuSans-33" d="M 2597 2516 
Q 3050 2419 3304 2112 
Q 3559 1806 3559 1356 
Q 3559 666 3084 287 
Q 2609 -91 1734 -91 
Q 1441 -91 1130 -33 
Q 819 25 488 141 
L 488 750 
Q 750 597 1062 519 
Q 1375 441 1716 441 
Q 2309 441 2620 675 
Q 2931 909 2931 1356 
Q 2931 1769 2642 2001 
Q 2353 2234 1838 2234 
L 1294 2234 
L 1294 2753 
L 1863 2753 
Q 2328 2753 2575 2939 
Q 2822 3125 2822 3475 
Q 2822 3834 2567 4026 
Q 2313 4219 1838 4219 
Q 1578 4219 1281 4162 
Q 984 4106 628 3988 
L 628 4550 
Q 988 4650 1302 4700 
Q 1616 4750 1894 4750 
Q 2613 4750 3031 4423 
Q 3450 4097 3450 3541 
Q 3450 3153 3228 2886 
Q 3006 2619 2597 2516 
z
" transform="scale(0.015625)"/>
       </defs>
       <use xlink:href="#DejaVuSans-33"/>
       <use xlink:href="#DejaVuSans-2e" x="63.623047"/>
       <use xlink:href="#DejaVuSans-30" x="95.410156"/>
      </g>
     </g>
    </g>
    <g id="text_8">
     <!-- $x$ -->
     <g transform="translate(236.605469 288.118297) scale(0.115 -0.115)">
      <defs>
       <path id="DejaVuSans-Oblique-78" d="M 3841 3500 
L 2234 1784 
L 3219 0 
L 2559 0 
L 1819 1388 
L 531 0 
L -166 0 
L 1556 1844 
L 641 3500 
L 1300 3500 
L 1972 2234 
L 3144 3500 
L 3841 3500 
z
" transform="scale(0.015625)"/>
      </defs>
      <use xlink:href="#DejaVuSans-Oblique-78" transform="translate(0 0.3125)"/>
     </g>
    </g>
   </g>
   <g id="matplotlib.axis_2">
    <g id="ytick_1">
     <g id="line2d_15">
      <path d="M 55.915469 258.701969 
L 424.195469 258.701969 
" clip-path="url(#pd13c05e12e)" style="fill: none; stroke-dasharray: 0.8,1.28; stroke-dashoffset: 0; stroke: #b0b0b0; stroke-opacity: 0.3; stroke-width: 0.8"/>
     </g>
     <g id="line2d_16">
      <defs>
       <path id="m645f7a3ff4" d="M 0 0 
L -3.5 0 
" style="stroke: #2c3e50; stroke-width: 0.8"/>
      </defs>
      <g>
       <use xlink:href="#m645f7a3ff4" x="55.915469" y="258.701969" style="fill: #2c3e50; stroke: #2c3e50; stroke-width: 0.8"/>
      </g>
     </g>
     <g id="text_9">
      <!-- 0.00 -->
      <g style="fill: #2c3e50" transform="translate(26.649844 262.501187) scale(0.1 -0.1)">
       <use xlink:href="#DejaVuSans-30"/>
       <use xlink:href="#DejaVuSans-2e" x="63.623047"/>
       <use xlink:href="#DejaVuSans-30" x="95.410156"/>
       <use xlink:href="#DejaVuSans-30" x="159.033203"/>
      </g>
     </g>
    </g>
    <g id="ytick_2">
     <g id="line2d_17">
      <path d="M 55.915469 230.288969 
L 424.195469 230.288969 
" clip-path="url(#pd13c05e12e)" style="fill: none; stroke-dasharray: 0.8,1.28; stroke-dashoffset: 0; stroke: #b0b0b0; stroke-opacity: 0.3; stroke-width: 0.8"/>
     </g>
     <g id="line2d_18">
      <g>
       <use xlink:href="#m645f7a3ff4" x="55.915469" y="230.288969" style="fill: #2c3e50; stroke: #2c3e50; stroke-width: 0.8"/>
      </g>
     </g>
     <g id="text_10">
      <!-- 0.25 -->
      <g style="fill: #2c3e50" transform="translate(26.649844 234.088187) scale(0.1 -0.1)">
       <use xlink:href="#DejaVuSans-30"/>
       <use xlink:href="#DejaVuSans-2e" x="63.623047"/>
       <use xlink:href="#DejaVuSans-32" x="95.410156"/>
       <use xlink:href="#DejaVuSans-35" x="159.033203"/>
      </g>
     </g>
    </g>
    <g id="ytick_3">
     <g id="line2d_19">
      <path d="M 55.915469 201.875969 
L 424.195469 201.875969 
" clip-path="url(#pd13c05e12e)" style="fill: none; stroke-dasharray: 0.8,1.28; stroke-dashoffset: 0; stroke: #b0b0b0; stroke-opacity: 0.3; stroke-width: 0.8"/>
     </g>
     <g id="line2d_20">
      <g>
       <use xlink:href="#m645f7a3ff4" x="55.915469" y="201.875969" style="fill: #2c3e50; stroke: #2c3e50; stroke-width: 0.8"/>
      </g>
     </g>
     <g id="text_11">
      <!-- 0.50 -->
      <g style="fill: #2c3e50" transform="translate(26.649844 205.675187) scale(0.1 -0.1)">
       <use xlink:href="#DejaVuSans-30"/>
       <use xlink:href="#DejaVuSans-2e" x="63.623047"/>
       <use xlink:href="#DejaVuSans-35" x="95.410156"/>
       <use xlink:href="#DejaVuSans-30" x="159.033203"/>
      </g>
     </g>
    </g>
    <g id="ytick_4">
     <g id="line2d_21">
      <path d="M 55.915469 173.462969 
L 424.195469 173.462969 
" clip-path="url(#pd13c05e12e)" style="fill: none; stroke-dasharray: 0.8,1.28; stroke-dashoffset: 0; stroke: #b0b0b0; stroke-opacity: 0.3; stroke-width: 0.8"/>
     </g>
     <g id="line2d_22">
      <g>
       <use xlink:href="#m645f7a3ff4" x="55.915469" y="173.462969" style="fill: #2c3e50; stroke: #2c3e50; stroke-width: 0.8"/>
      </g>
     </g>
     <g id="text_12">
      <!-- 0.75 -->
      <g style="fill: #2c3e50" transform="translate(26.649844 177.262187) scale(0.1 -0.1)">
       <defs>
        <path id="DejaVuSans-37" d="M 525 4666 
L 3525 4666 
L 3525 4397 
L 1831 0 
L 1172 0 
L 2766 4134 
L 525 4134 
L 525 4666 
z
" transform="scale(0.015625)"/>
       </defs>
       <use xlink:href="#DejaVuSans-30"/>
       <use xlink:href="#DejaVuSans-2e" x="63.623047"/>
       <use xlink:href="#DejaVuSans-37" x="95.410156"/>
       <use xlink:href="#DejaVuSans-35" x="159.033203"/>
      </g>
     </g>
    </g>
    <g id="ytick_5">
     <g id="line2d_23">
      <path d="M 55.915469 145.049969 
L 424.195469 145.049969 
" clip-path="url(#pd13c05e12e)" style="fill: none; stroke-dasharray: 0.8,1.28; stroke-dashoffset: 0; stroke: #b0b0b0; stroke-opacity: 0.3; stroke-width: 0.8"/>
     </g>
     <g id="line2d_24">
      <g>
       <use xlink:href="#m645f7a3ff4" x="55.915469" y="145.049969" style="fill: #2c3e50; stroke: #2c3e50; stroke-width: 0.8"/>
      </g>
     </g>
     <g id="text_13">
      <!-- 1.00 -->
      <g style="fill: #2c3e50" transform="translate(26.649844 148.849187) scale(0.1 -0.1)">
       <use xlink:href="#DejaVuSans-31"/>
       <use xlink:href="#DejaVuSans-2e" x="63.623047"/>
       <use xlink:href="#DejaVuSans-30" x="95.410156"/>
       <use xlink:href="#DejaVuSans-30" x="159.033203"/>
      </g>
     </g>
    </g>
    <g id="ytick_6">
     <g id="line2d_25">
      <path d="M 55.915469 116.636969 
L 424.195469 116.636969 
" clip-path="url(#pd13c05e12e)" style="fill: none; stroke-dasharray: 0.8,1.28; stroke-dashoffset: 0; stroke: #b0b0b0; stroke-opacity: 0.3; stroke-width: 0.8"/>
     </g>
     <g id="line2d_26">
      <g>
       <use xlink:href="#m645f7a3ff4" x="55.915469" y="116.636969" style="fill: #2c3e50; stroke: #2c3e50; stroke-width: 0.8"/>
      </g>
     </g>
     <g id="text_14">
      <!-- 1.25 -->
      <g style="fill: #2c3e50" transform="translate(26.649844 120.436187) scale(0.1 -0.1)">
       <use xlink:href="#DejaVuSans-31"/>
       <use xlink:href="#DejaVuSans-2e" x="63.623047"/>
       <use xlink:href="#DejaVuSans-32" x="95.410156"/>
       <use xlink:href="#DejaVuSans-35" x="159.033203"/>
      </g>
     </g>
    </g>
    <g id="ytick_7">
     <g id="line2d_27">
      <path d="M 55.915469 88.223969 
L 424.195469 88.223969 
" clip-path="url(#pd13c05e12e)" style="fill: none; stroke-dasharray: 0.8,1.28; stroke-dashoffset: 0; stroke: #b0b0b0; stroke-opacity: 0.3; stroke-width: 0.8"/>
     </g>
     <g id="line2d_28">
      <g>
       <use xlink:href="#m645f7a3ff4" x="55.915469" y="88.223969" style="fill: #2c3e50; stroke: #2c3e50; stroke-width: 0.8"/>
      </g>
     </g>
     <g id="text_15">
      <!-- 1.50 -->
      <g style="fill: #2c3e50" transform="translate(26.649844 92.023187) scale(0.1 -0.1)">
       <use xlink:href="#DejaVuSans-31"/>
       <use xlink:href="#DejaVuSans-2e" x="63.623047"/>
       <use xlink:href="#DejaVuSans-35" x="95.410156"/>
       <use xlink:href="#DejaVuSans-30" x="159.033203"/>
      </g>
     </g>
    </g>
    <g id="ytick_8">
     <g id="line2d_29">
      <path d="M 55.915469 59.810969 
L 424.195469 59.810969 
" clip-path="url(#pd13c05e12e)" style="fill: none; stroke-dasharray: 0.8,1.28; stroke-dashoffset: 0; stroke: #b0b0b0; stroke-opacity: 0.3; stroke-width: 0.8"/>
     </g>
     <g id="line2d_30">
      <g>
       <use xlink:href="#m645f7a3ff4" x="55.915469" y="59.810969" style="fill: #2c3e50; stroke: #2c3e50; stroke-width: 0.8"/>
      </g>
     </g>
     <g id="text_16">
      <!-- 1.75 -->
      <g style="fill: #2c3e50" transform="translate(26.649844 63.610187) scale(0.1 -0.1)">
       <use xlink:href="#DejaVuSans-31"/>
       <use xlink:href="#DejaVuSans-2e" x="63.623047"/>
       <use xlink:href="#DejaVuSans-37" x="95.410156"/>
       <use xlink:href="#DejaVuSans-35" x="159.033203"/>
      </g>
     </g>
    </g>
    <g id="ytick_9">
     <g id="line2d_31">
      <path d="M 55.915469 31.397969 
L 424.195469 31.397969 
" clip-path="url(#pd13c05e12e)" style="fill: none; stroke-dasharray: 0.8,1.28; stroke-dashoffset: 0; stroke: #b0b0b0; stroke-opacity: 0.3; stroke-width: 0.8"/>
     </g>
     <g id="line2d_32">
      <g>
       <use xlink:href="#m645f7a3ff4" x="55.915469" y="31.397969" style="fill: #2c3e50; stroke: #2c3e50; stroke-width: 0.8"/>
      </g>
     </g>
     <g id="text_17">
      <!-- 2.00 -->
      <g style="fill: #2c3e50" transform="translate(26.649844 35.197187) scale(0.1 -0.1)">
       <use xlink:href="#DejaVuSans-32"/>
       <use xlink:href="#DejaVuSans-2e" x="63.623047"/>
       <use xlink:href="#DejaVuSans-30" x="95.410156"/>
       <use xlink:href="#DejaVuSans-30" x="159.033203"/>
      </g>
     </g>
    </g>
    <g id="text_18">
     <!-- $f_X(x)$ -->
     <g transform="translate(20.258203 157.929969) rotate(-90) scale(0.115 -0.115)">
      <defs>
       <path id="DejaVuSans-Oblique-66" d="M 3059 4863 
L 2969 4384 
L 2419 4384 
Q 2106 4384 1964 4261 
Q 1822 4138 1753 3809 
L 1691 3500 
L 2638 3500 
L 2553 3053 
L 1606 3053 
L 1013 0 
L 434 0 
L 1031 3053 
L 481 3053 
L 563 3500 
L 1113 3500 
L 1159 3744 
Q 1278 4363 1576 4613 
Q 1875 4863 2516 4863 
L 3059 4863 
z
" transform="scale(0.015625)"/>
       <path id="DejaVuSans-Oblique-58" d="M 878 4666 
L 1516 4666 
L 2316 2981 
L 3763 4666 
L 4500 4666 
L 2578 2438 
L 3738 0 
L 3103 0 
L 2163 1966 
L 459 0 
L -275 0 
L 1906 2509 
L 878 4666 
z
" transform="scale(0.015625)"/>
       <path id="DejaVuSans-28" d="M 1984 4856 
Q 1566 4138 1362 3434 
Q 1159 2731 1159 2009 
Q 1159 1288 1364 580 
Q 1569 -128 1984 -844 
L 1484 -844 
Q 1016 -109 783 600 
Q 550 1309 550 2009 
Q 550 2706 781 3412 
Q 1013 4119 1484 4856 
L 1984 4856 
z
" transform="scale(0.015625)"/>
       <path id="DejaVuSans-29" d="M 513 4856 
L 1013 4856 
Q 1481 4119 1714 3412 
Q 1947 2706 1947 2009 
Q 1947 1309 1714 600 
Q 1481 -109 1013 -844 
L 513 -844 
Q 928 -128 1133 580 
Q 1338 1288 1338 2009 
Q 1338 2731 1133 3434 
Q 928 4138 513 4856 
z
" transform="scale(0.015625)"/>
      </defs>
      <use xlink:href="#DejaVuSans-Oblique-66" transform="translate(0 0.015625)"/>
      <use xlink:href="#DejaVuSans-Oblique-58" transform="translate(35.205078 -16.390625) scale(0.7)"/>
      <use xlink:href="#DejaVuSans-28" transform="translate(85.893555 0.015625)"/>
      <use xlink:href="#DejaVuSans-Oblique-78" transform="translate(124.907227 0.015625)"/>
      <use xlink:href="#DejaVuSans-29" transform="translate(184.086914 0.015625)"/>
     </g>
    </g>
   </g>
   <g id="line2d_33">
    <path d="M 59.998097 -1 
L 60.421676 13.816699 
L 61.240986 37.168802 
L 62.060296 55.627427 
L 63.289262 77.237787 
L 64.518227 93.96569 
L 65.747193 107.396246 
L 66.976158 118.477554 
L 68.205124 127.815924 
L 69.434089 135.819462 
L 71.07271 144.896946 
L 72.711331 152.573195 
L 74.349952 159.16945 
L 75.988572 164.912808 
L 77.627193 169.968926 
L 79.675469 175.508696 
L 81.723745 180.346982 
L 83.77202 184.616787 
L 85.820296 188.418469 
L 88.278227 192.47022 
L 90.736158 196.061151 
L 93.194089 199.269761 
L 96.061676 202.610698 
L 98.929262 205.589472 
L 101.796848 208.264714 
L 105.074089 211.009367 
L 108.351331 213.472278 
L 112.038227 215.959544 
L 116.134779 218.427255 
L 120.231331 220.633498 
L 124.737538 222.806905 
L 129.6534 224.923501 
L 134.978917 226.96578 
L 140.714089 228.921711 
L 146.858917 230.783741 
L 153.823055 232.651405 
L 161.196848 234.396199 
L 169.389952 236.103459 
L 178.402365 237.750253 
L 188.234089 239.320823 
L 199.294779 240.858479 
L 211.584434 242.336802 
L 225.103055 243.738097 
L 240.260296 245.085504 
L 257.465814 246.387769 
L 276.719607 247.619901 
L 298.840986 248.807156 
L 323.829952 249.922004 
L 352.505814 250.976062 
L 385.687883 251.969721 
L 424.195469 252.897448 
L 424.195469 252.897448 
" clip-path="url(#pd13c05e12e)" style="fill: none; stroke: #c0392b; stroke-width: 2.6; stroke-linecap: square"/>
   </g>
   <g id="line2d_34">
    <path d="M 55.915469 145.049969 
L 62.469952 150.958998 
L 69.024434 156.560803 
L 75.578917 161.871358 
L 82.1334 166.905804 
L 89.097538 171.968415 
L 96.061676 176.75182 
L 103.025814 181.271418 
L 110.399607 185.785489 
L 117.7734 190.036397 
L 125.147193 194.039484 
L 132.930641 198.012062 
L 140.714089 201.740581 
L 148.907193 205.418144 
L 157.100296 208.858275 
L 165.703055 212.231635 
L 174.715469 215.521028 
L 183.727883 218.577582 
L 193.149952 221.541989 
L 202.981676 224.402037 
L 213.223055 227.147433 
L 223.874089 229.769794 
L 234.934779 232.262599 
L 246.405124 234.621117 
L 258.694779 236.915136 
L 271.394089 239.056288 
L 284.91271 241.104851 
L 299.250641 243.044646 
L 314.407883 244.86328 
L 330.384434 246.552037 
L 347.589952 248.14097 
L 366.024434 249.61355 
L 385.687883 250.958707 
L 406.989952 252.192246 
L 424.195469 253.043569 
L 424.195469 253.043569 
" clip-path="url(#pd13c05e12e)" style="fill: none; stroke: #2980b9; stroke-width: 2.6; stroke-linecap: square"/>
   </g>
   <g id="line2d_35">
    <path d="M 55.915469 258.701969 
L 56.325124 248.855842 
L 57.144434 241.661767 
L 57.963745 236.728526 
L 59.19271 230.968783 
L 60.421676 226.268669 
L 62.060296 220.985494 
L 63.698917 216.455312 
L 65.747193 211.537887 
L 67.795469 207.241509 
L 69.843745 203.431774 
L 72.301676 199.382183 
L 74.759607 195.808054 
L 77.217538 192.639032 
L 79.675469 189.823581 
L 82.1334 187.322268 
L 84.591331 185.103834 
L 87.458917 182.839401 
L 90.326503 180.891971 
L 93.194089 179.233618 
L 96.061676 177.840497 
L 98.929262 176.691847 
L 101.796848 175.769291 
L 104.664434 175.056342 
L 107.941676 174.479071 
L 111.218917 174.135716 
L 114.496158 174.007672 
L 118.183055 174.099686 
L 121.869952 174.419985 
L 125.966503 175.018298 
L 130.063055 175.84624 
L 134.569262 176.992977 
L 139.485124 178.491612 
L 144.810641 180.366145 
L 150.545814 182.630004 
L 157.100296 185.469102 
L 164.474089 188.908379 
L 173.896158 193.559467 
L 190.282365 201.952169 
L 206.668572 210.255939 
L 217.729262 215.608622 
L 227.560986 220.11704 
L 236.5734 224.008951 
L 245.176158 227.490862 
L 253.778917 230.735431 
L 262.381676 233.73894 
L 270.984434 236.502378 
L 279.587193 239.030521 
L 288.189952 241.331118 
L 297.202365 243.508136 
L 306.214779 245.45983 
L 315.636848 247.275299 
L 325.468572 248.943399 
L 335.709952 250.456963 
L 346.770641 251.860839 
L 358.240986 253.092567 
L 370.530641 254.191822 
L 384.049262 255.176181 
L 398.796848 256.026335 
L 415.59271 256.765353 
L 424.195469 257.066777 
L 424.195469 257.066777 
" clip-path="url(#pd13c05e12e)" style="fill: none; stroke: #27ae60; stroke-width: 2.6; stroke-linecap: square"/>
   </g>
   <g id="line2d_36">
    <path d="M 55.915469 258.701969 
L 57.963745 258.607048 
L 60.01202 258.3223 
L 62.060296 257.847789 
L 64.518227 257.028142 
L 66.976158 255.936101 
L 69.434089 254.572736 
L 71.89202 252.939702 
L 74.349952 251.039374 
L 76.807883 248.874968 
L 79.675469 246.021696 
L 82.543055 242.823227 
L 85.410641 239.290307 
L 88.687883 234.860203 
L 91.965124 230.034541 
L 95.65202 224.168869 
L 99.338917 217.887728 
L 103.845124 209.730266 
L 109.170641 199.566042 
L 117.363745 183.34285 
L 125.147193 168.066879 
L 130.063055 158.913536 
L 133.749952 152.475387 
L 137.027193 147.150113 
L 139.894779 142.853013 
L 142.762365 138.939311 
L 145.220296 135.920281 
L 147.678227 133.235516 
L 150.136158 130.905937 
L 152.184434 129.249321 
L 154.23271 127.861429 
L 156.280986 126.750069 
L 158.329262 125.921551 
L 160.377538 125.380617 
L 162.016158 125.157082 
L 163.654779 125.120458 
L 165.2934 125.270883 
L 166.93202 125.607791 
L 168.980296 126.289175 
L 171.028572 127.255903 
L 173.076848 128.502282 
L 175.125124 130.02097 
L 177.1734 131.803032 
L 179.631331 134.27433 
L 182.089262 137.088952 
L 184.547193 140.223372 
L 187.414779 144.249614 
L 190.69202 149.282966 
L 194.378917 155.409933 
L 198.475469 162.667581 
L 204.210641 173.342575 
L 217.729262 198.724442 
L 222.235469 206.652599 
L 226.33202 213.437129 
L 230.018917 219.137928 
L 233.705814 224.415935 
L 236.983055 228.732884 
L 240.260296 232.688041 
L 243.537538 236.279933 
L 246.814779 239.513481 
L 250.09202 242.399157 
L 253.369262 244.952076 
L 256.646503 247.191057 
L 259.923745 249.137697 
L 263.200986 250.81548 
L 266.478227 252.248956 
L 270.165124 253.600562 
L 273.85202 254.709348 
L 277.948572 255.697193 
L 282.454779 256.536186 
L 287.370641 257.213619 
L 293.105814 257.764017 
L 299.660296 258.166274 
L 308.263055 258.458614 
L 320.55271 258.631319 
L 344.722365 258.697793 
L 424.195469 258.701969 
L 424.195469 258.701969 
" clip-path="url(#pd13c05e12e)" style="fill: none; stroke: #7d3c98; stroke-width: 2.6; stroke-linecap: square"/>
   </g>
   <g id="patch_3">
    <path d="M 55.915469 258.701969 
L 55.915469 31.397969 
" style="fill: none; stroke: #2c3e50; stroke-width: 1.2; stroke-linejoin: miter; stroke-linecap: square"/>
   </g>
   <g id="patch_4">
    <path d="M 55.915469 258.701969 
L 424.195469 258.701969 
" style="fill: none; stroke: #2c3e50; stroke-width: 1.2; stroke-linejoin: miter; stroke-linecap: square"/>
   </g>
   <g id="text_19">
    <!-- Densidad Weibull: efecto de la forma $b$ -->
    <g transform="translate(97.575469 21.397969) scale(0.13 -0.13)">
     <defs>
      <path id="DejaVuSans-Bold-44" d="M 1791 3756 
L 1791 909 
L 2222 909 
Q 2959 909 3348 1275 
Q 3738 1641 3738 2338 
Q 3738 3031 3350 3393 
Q 2963 3756 2222 3756 
L 1791 3756 
z
M 588 4666 
L 1856 4666 
Q 2919 4666 3439 4514 
Q 3959 4363 4331 4000 
Q 4659 3684 4818 3271 
Q 4978 2859 4978 2338 
Q 4978 1809 4818 1395 
Q 4659 981 4331 666 
Q 3956 303 3431 151 
Q 2906 0 1856 0 
L 588 0 
L 588 4666 
z
" transform="scale(0.015625)"/>
      <path id="DejaVuSans-Bold-65" d="M 4031 1759 
L 4031 1441 
L 1416 1441 
Q 1456 1047 1700 850 
Q 1944 653 2381 653 
Q 2734 653 3104 758 
Q 3475 863 3866 1075 
L 3866 213 
Q 3469 63 3072 -14 
Q 2675 -91 2278 -91 
Q 1328 -91 801 392 
Q 275 875 275 1747 
Q 275 2603 792 3093 
Q 1309 3584 2216 3584 
Q 3041 3584 3536 3087 
Q 4031 2591 4031 1759 
z
M 2881 2131 
Q 2881 2450 2695 2645 
Q 2509 2841 2209 2841 
Q 1884 2841 1681 2658 
Q 1478 2475 1428 2131 
L 2881 2131 
z
" transform="scale(0.015625)"/>
      <path id="DejaVuSans-Bold-6e" d="M 4056 2131 
L 4056 0 
L 2931 0 
L 2931 347 
L 2931 1631 
Q 2931 2084 2911 2256 
Q 2891 2428 2841 2509 
Q 2775 2619 2662 2680 
Q 2550 2741 2406 2741 
Q 2056 2741 1856 2470 
Q 1656 2200 1656 1722 
L 1656 0 
L 538 0 
L 538 3500 
L 1656 3500 
L 1656 2988 
Q 1909 3294 2193 3439 
Q 2478 3584 2822 3584 
Q 3428 3584 3742 3212 
Q 4056 2841 4056 2131 
z
" transform="scale(0.015625)"/>
      <path id="DejaVuSans-Bold-73" d="M 3272 3391 
L 3272 2541 
Q 2913 2691 2578 2766 
Q 2244 2841 1947 2841 
Q 1628 2841 1473 2761 
Q 1319 2681 1319 2516 
Q 1319 2381 1436 2309 
Q 1553 2238 1856 2203 
L 2053 2175 
Q 2913 2066 3209 1816 
Q 3506 1566 3506 1031 
Q 3506 472 3093 190 
Q 2681 -91 1863 -91 
Q 1516 -91 1145 -36 
Q 775 19 384 128 
L 384 978 
Q 719 816 1070 734 
Q 1422 653 1784 653 
Q 2113 653 2278 743 
Q 2444 834 2444 1013 
Q 2444 1163 2330 1236 
Q 2216 1309 1875 1350 
L 1678 1375 
Q 931 1469 631 1722 
Q 331 1975 331 2491 
Q 331 3047 712 3315 
Q 1094 3584 1881 3584 
Q 2191 3584 2531 3537 
Q 2872 3491 3272 3391 
z
" transform="scale(0.015625)"/>
      <path id="DejaVuSans-Bold-69" d="M 538 3500 
L 1656 3500 
L 1656 0 
L 538 0 
L 538 3500 
z
M 538 4863 
L 1656 4863 
L 1656 3950 
L 538 3950 
L 538 4863 
z
" transform="scale(0.015625)"/>
      <path id="DejaVuSans-Bold-64" d="M 2919 2988 
L 2919 4863 
L 4044 4863 
L 4044 0 
L 2919 0 
L 2919 506 
Q 2688 197 2409 53 
Q 2131 -91 1766 -91 
Q 1119 -91 703 423 
Q 288 938 288 1747 
Q 288 2556 703 3070 
Q 1119 3584 1766 3584 
Q 2128 3584 2408 3439 
Q 2688 3294 2919 2988 
z
M 2181 722 
Q 2541 722 2730 984 
Q 2919 1247 2919 1747 
Q 2919 2247 2730 2509 
Q 2541 2772 2181 2772 
Q 1825 2772 1636 2509 
Q 1447 2247 1447 1747 
Q 1447 1247 1636 984 
Q 1825 722 2181 722 
z
" transform="scale(0.015625)"/>
      <path id="DejaVuSans-Bold-61" d="M 2106 1575 
Q 1756 1575 1579 1456 
Q 1403 1338 1403 1106 
Q 1403 894 1545 773 
Q 1688 653 1941 653 
Q 2256 653 2472 879 
Q 2688 1106 2688 1447 
L 2688 1575 
L 2106 1575 
z
M 3816 1997 
L 3816 0 
L 2688 0 
L 2688 519 
Q 2463 200 2181 54 
Q 1900 -91 1497 -91 
Q 953 -91 614 226 
Q 275 544 275 1050 
Q 275 1666 698 1953 
Q 1122 2241 2028 2241 
L 2688 2241 
L 2688 2328 
Q 2688 2594 2478 2717 
Q 2269 2841 1825 2841 
Q 1466 2841 1156 2769 
Q 847 2697 581 2553 
L 581 3406 
Q 941 3494 1303 3539 
Q 1666 3584 2028 3584 
Q 2975 3584 3395 3211 
Q 3816 2838 3816 1997 
z
" transform="scale(0.015625)"/>
      <path id="DejaVuSans-Bold-20" transform="scale(0.015625)"/>
      <path id="DejaVuSans-Bold-57" d="M 191 4666 
L 1344 4666 
L 2150 1275 
L 2950 4666 
L 4109 4666 
L 4909 1275 
L 5716 4666 
L 6859 4666 
L 5759 0 
L 4372 0 
L 3525 3547 
L 2688 0 
L 1300 0 
L 191 4666 
z
" transform="scale(0.015625)"/>
      <path id="DejaVuSans-Bold-62" d="M 2400 722 
Q 2759 722 2948 984 
Q 3138 1247 3138 1747 
Q 3138 2247 2948 2509 
Q 2759 2772 2400 2772 
Q 2041 2772 1848 2508 
Q 1656 2244 1656 1747 
Q 1656 1250 1848 986 
Q 2041 722 2400 722 
z
M 1656 2988 
Q 1888 3294 2169 3439 
Q 2450 3584 2816 3584 
Q 3463 3584 3878 3070 
Q 4294 2556 4294 1747 
Q 4294 938 3878 423 
Q 3463 -91 2816 -91 
Q 2450 -91 2169 54 
Q 1888 200 1656 506 
L 1656 0 
L 538 0 
L 538 4863 
L 1656 4863 
L 1656 2988 
z
" transform="scale(0.015625)"/>
      <path id="DejaVuSans-Bold-75" d="M 500 1363 
L 500 3500 
L 1625 3500 
L 1625 3150 
Q 1625 2866 1622 2436 
Q 1619 2006 1619 1863 
Q 1619 1441 1641 1255 
Q 1663 1069 1716 984 
Q 1784 875 1895 815 
Q 2006 756 2150 756 
Q 2500 756 2700 1025 
Q 2900 1294 2900 1772 
L 2900 3500 
L 4019 3500 
L 4019 0 
L 2900 0 
L 2900 506 
Q 2647 200 2364 54 
Q 2081 -91 1741 -91 
Q 1134 -91 817 281 
Q 500 653 500 1363 
z
" transform="scale(0.015625)"/>
      <path id="DejaVuSans-Bold-6c" d="M 538 4863 
L 1656 4863 
L 1656 0 
L 538 0 
L 538 4863 
z
" transform="scale(0.015625)"/>
      <path id="DejaVuSans-Bold-3a" d="M 716 3500 
L 1844 3500 
L 1844 2291 
L 716 2291 
L 716 3500 
z
M 716 1209 
L 1844 1209 
L 1844 0 
L 716 0 
L 716 1209 
z
" transform="scale(0.015625)"/>
      <path id="DejaVuSans-Bold-66" d="M 2841 4863 
L 2841 4128 
L 2222 4128 
Q 1984 4128 1890 4042 
Q 1797 3956 1797 3744 
L 1797 3500 
L 2753 3500 
L 2753 2700 
L 1797 2700 
L 1797 0 
L 678 0 
L 678 2700 
L 122 2700 
L 122 3500 
L 678 3500 
L 678 3744 
Q 678 4316 997 4589 
Q 1316 4863 1984 4863 
L 2841 4863 
z
" transform="scale(0.015625)"/>
      <path id="DejaVuSans-Bold-63" d="M 3366 3391 
L 3366 2478 
Q 3138 2634 2908 2709 
Q 2678 2784 2431 2784 
Q 1963 2784 1702 2511 
Q 1441 2238 1441 1747 
Q 1441 1256 1702 982 
Q 1963 709 2431 709 
Q 2694 709 2930 787 
Q 3166 866 3366 1019 
L 3366 103 
Q 3103 6 2833 -42 
Q 2563 -91 2291 -91 
Q 1344 -91 809 395 
Q 275 881 275 1747 
Q 275 2613 809 3098 
Q 1344 3584 2291 3584 
Q 2566 3584 2833 3536 
Q 3100 3488 3366 3391 
z
" transform="scale(0.015625)"/>
      <path id="DejaVuSans-Bold-74" d="M 1759 4494 
L 1759 3500 
L 2913 3500 
L 2913 2700 
L 1759 2700 
L 1759 1216 
Q 1759 972 1856 886 
Q 1953 800 2241 800 
L 2816 800 
L 2816 0 
L 1856 0 
Q 1194 0 917 276 
Q 641 553 641 1216 
L 641 2700 
L 84 2700 
L 84 3500 
L 641 3500 
L 641 4494 
L 1759 4494 
z
" transform="scale(0.015625)"/>
      <path id="DejaVuSans-Bold-6f" d="M 2203 2784 
Q 1831 2784 1636 2517 
Q 1441 2250 1441 1747 
Q 1441 1244 1636 976 
Q 1831 709 2203 709 
Q 2569 709 2762 976 
Q 2956 1244 2956 1747 
Q 2956 2250 2762 2517 
Q 2569 2784 2203 2784 
z
M 2203 3584 
Q 3106 3584 3614 3096 
Q 4122 2609 4122 1747 
Q 4122 884 3614 396 
Q 3106 -91 2203 -91 
Q 1297 -91 786 396 
Q 275 884 275 1747 
Q 275 2609 786 3096 
Q 1297 3584 2203 3584 
z
" transform="scale(0.015625)"/>
      <path id="DejaVuSans-Bold-72" d="M 3138 2547 
Q 2991 2616 2845 2648 
Q 2700 2681 2553 2681 
Q 2122 2681 1889 2404 
Q 1656 2128 1656 1613 
L 1656 0 
L 538 0 
L 538 3500 
L 1656 3500 
L 1656 2925 
Q 1872 3269 2151 3426 
Q 2431 3584 2822 3584 
Q 2878 3584 2943 3579 
Q 3009 3575 3134 3559 
L 3138 2547 
z
" transform="scale(0.015625)"/>
      <path id="DejaVuSans-Bold-6d" d="M 3781 2919 
Q 3994 3244 4286 3414 
Q 4578 3584 4928 3584 
Q 5531 3584 5847 3212 
Q 6163 2841 6163 2131 
L 6163 0 
L 5038 0 
L 5038 1825 
Q 5041 1866 5042 1909 
Q 5044 1953 5044 2034 
Q 5044 2406 4934 2573 
Q 4825 2741 4581 2741 
Q 4263 2741 4089 2478 
Q 3916 2216 3909 1719 
L 3909 0 
L 2784 0 
L 2784 1825 
Q 2784 2406 2684 2573 
Q 2584 2741 2328 2741 
Q 2006 2741 1831 2477 
Q 1656 2213 1656 1722 
L 1656 0 
L 531 0 
L 531 3500 
L 1656 3500 
L 1656 2988 
Q 1863 3284 2130 3434 
Q 2397 3584 2719 3584 
Q 3081 3584 3359 3409 
Q 3638 3234 3781 2919 
z
" transform="scale(0.015625)"/>
      <path id="DejaVuSans-Oblique-62" d="M 3169 2138 
Q 3169 2591 2961 2847 
Q 2753 3103 2388 3103 
Q 2122 3103 1889 2973 
Q 1656 2844 1484 2597 
Q 1303 2338 1198 1995 
Q 1094 1653 1094 1313 
Q 1094 881 1298 636 
Q 1503 391 1863 391 
Q 2134 391 2365 517 
Q 2597 644 2772 891 
Q 2950 1147 3059 1487 
Q 3169 1828 3169 2138 
z
M 1381 2969 
Q 1594 3256 1914 3420 
Q 2234 3584 2584 3584 
Q 3122 3584 3439 3221 
Q 3756 2859 3756 2241 
Q 3756 1734 3570 1259 
Q 3384 784 3041 416 
Q 2816 172 2522 40 
Q 2228 -91 1906 -91 
Q 1566 -91 1316 65 
Q 1066 222 909 531 
L 806 0 
L 231 0 
L 1178 4863 
L 1753 4863 
L 1381 2969 
z
" transform="scale(0.015625)"/>
     </defs>
     <use xlink:href="#DejaVuSans-Bold-44" transform="translate(0 0.015625)"/>
     <use xlink:href="#DejaVuSans-Bold-65" transform="translate(83.007812 0.015625)"/>
     <use xlink:href="#DejaVuSans-Bold-6e" transform="translate(150.830078 0.015625)"/>
     <use xlink:href="#DejaVuSans-Bold-73" transform="translate(222.021484 0.015625)"/>
     <use xlink:href="#DejaVuSans-Bold-69" transform="translate(281.542969 0.015625)"/>
     <use xlink:href="#DejaVuSans-Bold-64" transform="translate(315.820312 0.015625)"/>
     <use xlink:href="#DejaVuSans-Bold-61" transform="translate(387.402344 0.015625)"/>
     <use xlink:href="#DejaVuSans-Bold-64" transform="translate(454.882812 0.015625)"/>
     <use xlink:href="#DejaVuSans-Bold-20" transform="translate(526.464844 0.015625)"/>
     <use xlink:href="#DejaVuSans-Bold-57" transform="translate(561.279297 0.015625)"/>
     <use xlink:href="#DejaVuSans-Bold-65" transform="translate(671.582031 0.015625)"/>
     <use xlink:href="#DejaVuSans-Bold-69" transform="translate(739.404297 0.015625)"/>
     <use xlink:href="#DejaVuSans-Bold-62" transform="translate(773.681641 0.015625)"/>
     <use xlink:href="#DejaVuSans-Bold-75" transform="translate(845.263672 0.015625)"/>
     <use xlink:href="#DejaVuSans-Bold-6c" transform="translate(916.455078 0.015625)"/>
     <use xlink:href="#DejaVuSans-Bold-6c" transform="translate(950.732422 0.015625)"/>
     <use xlink:href="#DejaVuSans-Bold-3a" transform="translate(985.009766 0.015625)"/>
     <use xlink:href="#DejaVuSans-Bold-20" transform="translate(1025 0.015625)"/>
     <use xlink:href="#DejaVuSans-Bold-65" transform="translate(1059.814453 0.015625)"/>
     <use xlink:href="#DejaVuSans-Bold-66" transform="translate(1127.636719 0.015625)"/>
     <use xlink:href="#DejaVuSans-Bold-65" transform="translate(1171.142578 0.015625)"/>
     <use xlink:href="#DejaVuSans-Bold-63" transform="translate(1238.964844 0.015625)"/>
     <use xlink:href="#DejaVuSans-Bold-74" transform="translate(1298.242188 0.015625)"/>
     <use xlink:href="#DejaVuSans-Bold-6f" transform="translate(1346.044922 0.015625)"/>
     <use xlink:href="#DejaVuSans-Bold-20" transform="translate(1414.746094 0.015625)"/>
     <use xlink:href="#DejaVuSans-Bold-64" transform="translate(1449.560547 0.015625)"/>
     <use xlink:href="#DejaVuSans-Bold-65" transform="translate(1521.142578 0.015625)"/>
     <use xlink:href="#DejaVuSans-Bold-20" transform="translate(1588.964844 0.015625)"/>
     <use xlink:href="#DejaVuSans-Bold-6c" transform="translate(1623.779297 0.015625)"/>
     <use xlink:href="#DejaVuSans-Bold-61" transform="translate(1658.056641 0.015625)"/>
     <use xlink:href="#DejaVuSans-Bold-20" transform="translate(1725.537109 0.015625)"/>
     <use xlink:href="#DejaVuSans-Bold-66" transform="translate(1760.351562 0.015625)"/>
     <use xlink:href="#DejaVuSans-Bold-6f" transform="translate(1803.857422 0.015625)"/>
     <use xlink:href="#DejaVuSans-Bold-72" transform="translate(1872.558594 0.015625)"/>
     <use xlink:href="#DejaVuSans-Bold-6d" transform="translate(1921.875 0.015625)"/>
     <use xlink:href="#DejaVuSans-Bold-61" transform="translate(2026.074219 0.015625)"/>
     <use xlink:href="#DejaVuSans-Bold-20" transform="translate(2093.554688 0.015625)"/>
     <use xlink:href="#DejaVuSans-Oblique-62" transform="translate(2128.369141 0.015625)"/>
    </g>
   </g>
   <g id="legend_1">
    <g id="patch_5">
     <path d="M 354.275469 94.774844 
L 417.545469 94.774844 
Q 419.445469 94.774844 419.445469 92.874844 
L 419.445469 38.047969 
Q 419.445469 36.147969 417.545469 36.147969 
L 354.275469 36.147969 
Q 352.375469 36.147969 352.375469 38.047969 
L 352.375469 92.874844 
Q 352.375469 94.774844 354.275469 94.774844 
z
" style="fill: #ffffff; opacity: 0.92; stroke: #cccccc; stroke-linejoin: miter"/>
    </g>
    <g id="line2d_37">
     <path d="M 356.175469 43.841484 
L 365.675469 43.841484 
L 375.175469 43.841484 
" style="fill: none; stroke: #c0392b; stroke-width: 2.6; stroke-linecap: square"/>
    </g>
    <g id="text_20">
     <!-- $b=0.5$ -->
     <g transform="translate(382.775469 47.166484) scale(0.095 -0.095)">
      <defs>
       <path id="DejaVuSans-3d" d="M 678 2906 
L 4684 2906 
L 4684 2381 
L 678 2381 
L 678 2906 
z
M 678 1631 
L 4684 1631 
L 4684 1100 
L 678 1100 
L 678 1631 
z
" transform="scale(0.015625)"/>
      </defs>
      <use xlink:href="#DejaVuSans-Oblique-62" transform="translate(0 0.015625)"/>
      <use xlink:href="#DejaVuSans-3d" transform="translate(82.958984 0.015625)"/>
      <use xlink:href="#DejaVuSans-30" transform="translate(186.230469 0.015625)"/>
      <use xlink:href="#DejaVuSans-2e" transform="translate(249.853516 0.015625)"/>
      <use xlink:href="#DejaVuSans-35" transform="translate(281.640625 0.015625)"/>
     </g>
    </g>
    <g id="line2d_38">
     <path d="M 356.175469 57.785703 
L 365.675469 57.785703 
L 375.175469 57.785703 
" style="fill: none; stroke: #2980b9; stroke-width: 2.6; stroke-linecap: square"/>
    </g>
    <g id="text_21">
     <!-- $b=1.0$ -->
     <g transform="translate(382.775469 61.110703) scale(0.095 -0.095)">
      <use xlink:href="#DejaVuSans-Oblique-62" transform="translate(0 0.015625)"/>
      <use xlink:href="#DejaVuSans-3d" transform="translate(82.958984 0.015625)"/>
      <use xlink:href="#DejaVuSans-31" transform="translate(186.230469 0.015625)"/>
      <use xlink:href="#DejaVuSans-2e" transform="translate(249.853516 0.015625)"/>
      <use xlink:href="#DejaVuSans-30" transform="translate(281.640625 0.015625)"/>
     </g>
    </g>
    <g id="line2d_39">
     <path d="M 356.175469 71.729922 
L 365.675469 71.729922 
L 375.175469 71.729922 
" style="fill: none; stroke: #27ae60; stroke-width: 2.6; stroke-linecap: square"/>
    </g>
    <g id="text_22">
     <!-- $b=1.5$ -->
     <g transform="translate(382.775469 75.054922) scale(0.095 -0.095)">
      <use xlink:href="#DejaVuSans-Oblique-62" transform="translate(0 0.015625)"/>
      <use xlink:href="#DejaVuSans-3d" transform="translate(82.958984 0.015625)"/>
      <use xlink:href="#DejaVuSans-31" transform="translate(186.230469 0.015625)"/>
      <use xlink:href="#DejaVuSans-2e" transform="translate(249.853516 0.015625)"/>
      <use xlink:href="#DejaVuSans-35" transform="translate(281.640625 0.015625)"/>
     </g>
    </g>
    <g id="line2d_40">
     <path d="M 356.175469 85.674141 
L 365.675469 85.674141 
L 375.175469 85.674141 
" style="fill: none; stroke: #7d3c98; stroke-width: 2.6; stroke-linecap: square"/>
    </g>
    <g id="text_23">
     <!-- $b=3.0$ -->
     <g transform="translate(382.775469 88.999141) scale(0.095 -0.095)">
      <use xlink:href="#DejaVuSans-Oblique-62" transform="translate(0 0.015625)"/>
      <use xlink:href="#DejaVuSans-3d" transform="translate(82.958984 0.015625)"/>
      <use xlink:href="#DejaVuSans-33" transform="translate(186.230469 0.015625)"/>
      <use xlink:href="#DejaVuSans-2e" transform="translate(249.853516 0.015625)"/>
      <use xlink:href="#DejaVuSans-30" transform="translate(281.640625 0.015625)"/>
     </g>
    </g>
   </g>
  </g>
 </g>
 <defs>
  <clipPath id="pd13c05e12e">
   <rect x="55.915469" y="31.397969" width="368.28" height="227.304"/>
  </clipPath>
 </defs>
</svg>
